G04 #@! TF.GenerationSoftware,KiCad,Pcbnew,(5.1.4)-1*
G04 #@! TF.CreationDate,2019-12-07T17:35:06+00:00*
G04 #@! TF.ProjectId,analog,616e616c-6f67-42e6-9b69-6361645f7063,rev?*
G04 #@! TF.SameCoordinates,Original*
G04 #@! TF.FileFunction,Copper,L2,Bot*
G04 #@! TF.FilePolarity,Positive*
%FSLAX46Y46*%
G04 Gerber Fmt 4.6, Leading zero omitted, Abs format (unit mm)*
G04 Created by KiCad (PCBNEW (5.1.4)-1) date 2019-12-07 17:35:06*
%MOMM*%
%LPD*%
G04 APERTURE LIST*
%ADD10O,1.700000X1.700000*%
%ADD11R,1.700000X1.700000*%
%ADD12C,0.100000*%
%ADD13C,0.800000*%
%ADD14O,1.300000X0.800000*%
%ADD15C,0.762000*%
%ADD16C,0.660400*%
%ADD17C,0.203200*%
%ADD18C,0.381000*%
%ADD19C,0.635000*%
%ADD20C,1.016000*%
%ADD21C,0.254000*%
G04 APERTURE END LIST*
D10*
X66617400Y-45730160D03*
X66617400Y-43190160D03*
X66617400Y-40650160D03*
D11*
X66617400Y-38110160D03*
X74923200Y-42021760D03*
D10*
X74923200Y-39481760D03*
D11*
X76040800Y-35189160D03*
X40353800Y-34376360D03*
D10*
X37813800Y-34376360D03*
X40353800Y-36916360D03*
X37813800Y-36916360D03*
X40353800Y-39456360D03*
X37813800Y-39456360D03*
X40353800Y-41996360D03*
X37813800Y-41996360D03*
X40353800Y-44536360D03*
X37813800Y-44536360D03*
D11*
X76040800Y-46314360D03*
D12*
G36*
X72471803Y-43467723D02*
G01*
X72491218Y-43470603D01*
X72510257Y-43475372D01*
X72528737Y-43481984D01*
X72546479Y-43490376D01*
X72563314Y-43500466D01*
X72579079Y-43512158D01*
X72593621Y-43525339D01*
X72606802Y-43539881D01*
X72618494Y-43555646D01*
X72628584Y-43572481D01*
X72636976Y-43590223D01*
X72643588Y-43608703D01*
X72648357Y-43627742D01*
X72651237Y-43647157D01*
X72652200Y-43666760D01*
X72652200Y-44066760D01*
X72651237Y-44086363D01*
X72648357Y-44105778D01*
X72643588Y-44124817D01*
X72636976Y-44143297D01*
X72628584Y-44161039D01*
X72618494Y-44177874D01*
X72606802Y-44193639D01*
X72593621Y-44208181D01*
X72579079Y-44221362D01*
X72563314Y-44233054D01*
X72546479Y-44243144D01*
X72528737Y-44251536D01*
X72510257Y-44258148D01*
X72491218Y-44262917D01*
X72471803Y-44265797D01*
X72452200Y-44266760D01*
X71552200Y-44266760D01*
X71532597Y-44265797D01*
X71513182Y-44262917D01*
X71494143Y-44258148D01*
X71475663Y-44251536D01*
X71457921Y-44243144D01*
X71441086Y-44233054D01*
X71425321Y-44221362D01*
X71410779Y-44208181D01*
X71397598Y-44193639D01*
X71385906Y-44177874D01*
X71375816Y-44161039D01*
X71367424Y-44143297D01*
X71360812Y-44124817D01*
X71356043Y-44105778D01*
X71353163Y-44086363D01*
X71352200Y-44066760D01*
X71352200Y-43666760D01*
X71353163Y-43647157D01*
X71356043Y-43627742D01*
X71360812Y-43608703D01*
X71367424Y-43590223D01*
X71375816Y-43572481D01*
X71385906Y-43555646D01*
X71397598Y-43539881D01*
X71410779Y-43525339D01*
X71425321Y-43512158D01*
X71441086Y-43500466D01*
X71457921Y-43490376D01*
X71475663Y-43481984D01*
X71494143Y-43475372D01*
X71513182Y-43470603D01*
X71532597Y-43467723D01*
X71552200Y-43466760D01*
X72452200Y-43466760D01*
X72471803Y-43467723D01*
X72471803Y-43467723D01*
G37*
D13*
X72002200Y-43866760D03*
D14*
X72002200Y-42616760D03*
X72002200Y-41366760D03*
X72002200Y-40116760D03*
X72002200Y-38866760D03*
X72002200Y-37616760D03*
D15*
X61893000Y-48320960D03*
X61816800Y-44739560D03*
X60724600Y-39532560D03*
X64153600Y-51673760D03*
X37890000Y-47990760D03*
X52368000Y-45323760D03*
X54180400Y-35408758D03*
X68039800Y-35722539D03*
X57894000Y-51684960D03*
X47897600Y-37912040D03*
X54779157Y-52014803D03*
X45967198Y-49248060D03*
X39871200Y-53324760D03*
D16*
X71660700Y-46082710D03*
X47618200Y-40446960D03*
X43681200Y-45552360D03*
X51529800Y-50606958D03*
X52606038Y-49287104D03*
D15*
X55720800Y-39634160D03*
X63798000Y-34935160D03*
X32327400Y-32420560D03*
X52114000Y-33436560D03*
X33140200Y-32420560D03*
X33953000Y-32420560D03*
X55176198Y-46734960D03*
D16*
X68184020Y-44426580D03*
X69142870Y-37286490D03*
D15*
X43427216Y-37932360D03*
D16*
X53307800Y-49971950D03*
X54146000Y-41335960D03*
X53536400Y-43571160D03*
X46754610Y-38059360D03*
X43046200Y-46492160D03*
X60013400Y-42093170D03*
X54654000Y-48625760D03*
X59276800Y-39507160D03*
X53028400Y-47990760D03*
X42766800Y-38846760D03*
X42208008Y-48508535D03*
X42868400Y-40421560D03*
X42538200Y-47406562D03*
D17*
X60724600Y-39557960D02*
X60724600Y-39532560D01*
D18*
X60724600Y-40802560D02*
X60724600Y-39532560D01*
X61816800Y-44739560D02*
X61816800Y-41894760D01*
X61816800Y-41894760D02*
X60724600Y-40802560D01*
X61893000Y-48787933D02*
X61893000Y-51673760D01*
X61893000Y-48320960D02*
X61893000Y-48787933D01*
X61893000Y-51673760D02*
X63686627Y-51673760D01*
X63686627Y-51673760D02*
X64153600Y-51673760D01*
X73692200Y-42021760D02*
X74923200Y-42021760D01*
X73221400Y-42492560D02*
X73692200Y-42021760D01*
X73221400Y-43571160D02*
X73221400Y-42492560D01*
X49777200Y-51699160D02*
X47084800Y-51699160D01*
X52037801Y-45653959D02*
X52368000Y-45323760D01*
X49777200Y-47914560D02*
X52037801Y-45653959D01*
X49777200Y-51699160D02*
X49777200Y-47914560D01*
X67455600Y-51673760D02*
X73221400Y-45907960D01*
X64153600Y-51673760D02*
X67455600Y-51673760D01*
X73186800Y-43866760D02*
X73221400Y-43901360D01*
X72002200Y-43866760D02*
X73186800Y-43866760D01*
X73221400Y-45907960D02*
X73221400Y-43901360D01*
X73221400Y-43901360D02*
X73221400Y-43571160D01*
X67500985Y-35722539D02*
X68039800Y-35722539D01*
X66840564Y-36382960D02*
X67500985Y-35722539D01*
X65296600Y-36382960D02*
X66840564Y-36382960D01*
X60724600Y-39532560D02*
X62147000Y-39532560D01*
X62147000Y-39532560D02*
X65296600Y-36382960D01*
X61893000Y-51673760D02*
X61881800Y-51684960D01*
X61881800Y-51684960D02*
X58432815Y-51684960D01*
X58432815Y-51684960D02*
X57894000Y-51684960D01*
X57894000Y-51684960D02*
X55109000Y-51684960D01*
X55109000Y-51684960D02*
X54779157Y-52014803D01*
X54240342Y-52014803D02*
X54779157Y-52014803D01*
X50092843Y-52014803D02*
X54240342Y-52014803D01*
X49777200Y-51699160D02*
X50092843Y-52014803D01*
X39147300Y-49248060D02*
X45428383Y-49248060D01*
X45428383Y-49248060D02*
X45967198Y-49248060D01*
X37890000Y-47990760D02*
X39147300Y-49248060D01*
X46348197Y-49629059D02*
X45967198Y-49248060D01*
X47084800Y-50365662D02*
X46348197Y-49629059D01*
X47084800Y-51699160D02*
X47084800Y-50365662D01*
X41496800Y-51699160D02*
X39871200Y-53324760D01*
X47084800Y-51699160D02*
X41496800Y-51699160D01*
X37890000Y-44612560D02*
X37813800Y-44536360D01*
X37890000Y-47990760D02*
X37890000Y-44612560D01*
D19*
X51677118Y-37912040D02*
X47897600Y-37912040D01*
X54180400Y-35408758D02*
X51677118Y-37912040D01*
X51677118Y-44094063D02*
X51677118Y-37912040D01*
X52368000Y-44784945D02*
X51677118Y-44094063D01*
X52368000Y-45323760D02*
X52368000Y-44784945D01*
D17*
X71149000Y-38866760D02*
X72002200Y-38866760D01*
X70732200Y-39283560D02*
X71149000Y-38866760D01*
X70732200Y-45154210D02*
X70732200Y-39283560D01*
X71660700Y-46082710D02*
X70732200Y-45154210D01*
X43681200Y-45085387D02*
X43681200Y-45552360D01*
X43681200Y-42199560D02*
X43681200Y-45085387D01*
X47618200Y-40446960D02*
X45433800Y-40446960D01*
X45433800Y-40446960D02*
X43681200Y-42199560D01*
X51529802Y-50606960D02*
X51529800Y-50606958D01*
X58165701Y-50606960D02*
X51529802Y-50606960D01*
X64732502Y-44040159D02*
X58165701Y-50606960D01*
X66617400Y-43190160D02*
X65767401Y-44040159D01*
X65767401Y-44040159D02*
X64732502Y-44040159D01*
X65652200Y-38110160D02*
X66617400Y-38110160D01*
X65564200Y-38110160D02*
X65652200Y-38110160D01*
X64941000Y-42682160D02*
X58336056Y-49287104D01*
X53073011Y-49287104D02*
X52606038Y-49287104D01*
X65652200Y-38110160D02*
X65322000Y-38110160D01*
X64941000Y-38491160D02*
X64941000Y-42682160D01*
X58336056Y-49287104D02*
X53073011Y-49287104D01*
X65322000Y-38110160D02*
X64941000Y-38491160D01*
D20*
X42219800Y-34376360D02*
X43427200Y-35583760D01*
X40353800Y-34376360D02*
X42219800Y-34376360D01*
X54704800Y-33436560D02*
X55720800Y-34452560D01*
X43427200Y-35583760D02*
X45574400Y-33436560D01*
X52977600Y-33436560D02*
X54704800Y-33436560D01*
X55720800Y-34452560D02*
X55720800Y-34935160D01*
X55720800Y-34935160D02*
X55720800Y-35697160D01*
X55720800Y-35697160D02*
X55720800Y-39634160D01*
X55720800Y-34935160D02*
X63798000Y-34935160D01*
X40353800Y-34376360D02*
X40353800Y-33309560D01*
X40353800Y-33309560D02*
X39515600Y-32471360D01*
X37357422Y-32420560D02*
X33953000Y-32420560D01*
X39515600Y-32471360D02*
X37408222Y-32471360D01*
X37408222Y-32471360D02*
X37357422Y-32420560D01*
X45574400Y-33436560D02*
X52114000Y-33436560D01*
X52114000Y-33436560D02*
X52977600Y-33436560D01*
X33140200Y-32420560D02*
X32352800Y-32420560D01*
X33953000Y-32420560D02*
X33140200Y-32420560D01*
X64128199Y-34604961D02*
X63798000Y-34935160D01*
X70406401Y-34604961D02*
X64128199Y-34604961D01*
X72002200Y-36200760D02*
X70406401Y-34604961D01*
X72002200Y-37616760D02*
X72002200Y-36200760D01*
X55720800Y-39634160D02*
X55720800Y-46190358D01*
X55557197Y-46353961D02*
X55176198Y-46734960D01*
X55720800Y-46190358D02*
X55557197Y-46353961D01*
D17*
X68184020Y-38245340D02*
X68812671Y-37616689D01*
X68184020Y-44426580D02*
X68184020Y-38245340D01*
X68812671Y-37616689D02*
X69142870Y-37286490D01*
D20*
X43427200Y-35583760D02*
X43427216Y-35583776D01*
X43427216Y-35583776D02*
X43427216Y-37393545D01*
X43427216Y-37393545D02*
X43427216Y-37932360D01*
D17*
X66617400Y-40650160D02*
X65347411Y-41920149D01*
X65347411Y-41920149D02*
X65347411Y-42850500D01*
X65347411Y-42850500D02*
X58225961Y-49971950D01*
X53774773Y-49971950D02*
X53307800Y-49971950D01*
X58225961Y-49971950D02*
X53774773Y-49971950D01*
X53536400Y-41945560D02*
X53536400Y-43104187D01*
X53536400Y-43104187D02*
X53536400Y-43571160D01*
X54146000Y-41335960D02*
X53536400Y-41945560D01*
X42969998Y-41843972D02*
X42969998Y-45948985D01*
X46754610Y-38059360D02*
X42969998Y-41843972D01*
X42969998Y-45948985D02*
X43046200Y-46025187D01*
X43046200Y-46025187D02*
X43046200Y-46492160D01*
X57498800Y-48625760D02*
X55120973Y-48625760D01*
X55120973Y-48625760D02*
X54654000Y-48625760D01*
X60013400Y-42093170D02*
X60013400Y-46111160D01*
X60013400Y-46111160D02*
X57498800Y-48625760D01*
X57168600Y-47990760D02*
X53495373Y-47990760D01*
X53495373Y-47990760D02*
X53028400Y-47990760D01*
X59276800Y-45882560D02*
X57168600Y-47990760D01*
X59276800Y-39507160D02*
X59276800Y-45882560D01*
X41877801Y-48178328D02*
X41877809Y-48178336D01*
X41877809Y-48178336D02*
X42208008Y-48508535D01*
X41877809Y-48178336D02*
X41877809Y-39735751D01*
X41877809Y-39735751D02*
X42766800Y-38846760D01*
X42538200Y-46939589D02*
X42538200Y-47406562D01*
X42385799Y-46787188D02*
X42538200Y-46939589D01*
X42868400Y-40421560D02*
X42385799Y-40904161D01*
X42385799Y-40904161D02*
X42385799Y-46787188D01*
D21*
G36*
X31226339Y-32196493D02*
G01*
X31204270Y-32420560D01*
X31226339Y-32644627D01*
X31291697Y-32860083D01*
X31397832Y-33058649D01*
X31540667Y-33232693D01*
X31714711Y-33375528D01*
X31913277Y-33481663D01*
X32128733Y-33547021D01*
X32296654Y-33563560D01*
X36564427Y-33563560D01*
X36435201Y-33805326D01*
X36350287Y-34085249D01*
X36321615Y-34376360D01*
X36350287Y-34667471D01*
X36435201Y-34947394D01*
X36573094Y-35205374D01*
X36758666Y-35431494D01*
X36984786Y-35617066D01*
X37039591Y-35646360D01*
X36984786Y-35675654D01*
X36758666Y-35861226D01*
X36573094Y-36087346D01*
X36435201Y-36345326D01*
X36350287Y-36625249D01*
X36321615Y-36916360D01*
X36350287Y-37207471D01*
X36435201Y-37487394D01*
X36573094Y-37745374D01*
X36758666Y-37971494D01*
X36984786Y-38157066D01*
X37039591Y-38186360D01*
X36984786Y-38215654D01*
X36758666Y-38401226D01*
X36573094Y-38627346D01*
X36435201Y-38885326D01*
X36350287Y-39165249D01*
X36321615Y-39456360D01*
X36350287Y-39747471D01*
X36435201Y-40027394D01*
X36573094Y-40285374D01*
X36758666Y-40511494D01*
X36984786Y-40697066D01*
X37039591Y-40726360D01*
X36984786Y-40755654D01*
X36758666Y-40941226D01*
X36573094Y-41167346D01*
X36435201Y-41425326D01*
X36350287Y-41705249D01*
X36321615Y-41996360D01*
X36350287Y-42287471D01*
X36435201Y-42567394D01*
X36573094Y-42825374D01*
X36758666Y-43051494D01*
X36984786Y-43237066D01*
X37049323Y-43271561D01*
X36932445Y-43341182D01*
X36716212Y-43536091D01*
X36542159Y-43769440D01*
X36416975Y-44032261D01*
X36372324Y-44179470D01*
X36493645Y-44409360D01*
X37686800Y-44409360D01*
X37686800Y-44389360D01*
X37940800Y-44389360D01*
X37940800Y-44409360D01*
X37960800Y-44409360D01*
X37960800Y-44663360D01*
X37940800Y-44663360D01*
X37940800Y-45857174D01*
X38170691Y-45977841D01*
X38445052Y-45880517D01*
X38695155Y-45731538D01*
X38911388Y-45536629D01*
X39082216Y-45307604D01*
X39113094Y-45365374D01*
X39298666Y-45591494D01*
X39524786Y-45777066D01*
X39782766Y-45914959D01*
X40062689Y-45999873D01*
X40280850Y-46021360D01*
X40426750Y-46021360D01*
X40644911Y-45999873D01*
X40924834Y-45914959D01*
X41141209Y-45799304D01*
X41141209Y-48142063D01*
X41137637Y-48178328D01*
X41151860Y-48322726D01*
X41193979Y-48461575D01*
X41242808Y-48552929D01*
X41242808Y-48603599D01*
X41279900Y-48790073D01*
X41352659Y-48965729D01*
X41458288Y-49123814D01*
X41592729Y-49258255D01*
X41750814Y-49363884D01*
X41926470Y-49436643D01*
X42112944Y-49473735D01*
X42303072Y-49473735D01*
X42489546Y-49436643D01*
X42665202Y-49363884D01*
X42823287Y-49258255D01*
X42957728Y-49123814D01*
X43063357Y-48965729D01*
X43136116Y-48790073D01*
X43173208Y-48603599D01*
X43173208Y-48413471D01*
X43136116Y-48226997D01*
X43116938Y-48180698D01*
X43153479Y-48156282D01*
X43287920Y-48021841D01*
X43393549Y-47863756D01*
X43466308Y-47688100D01*
X43503400Y-47501626D01*
X43503400Y-47347505D01*
X43661479Y-47241880D01*
X43795920Y-47107439D01*
X43901549Y-46949354D01*
X43974308Y-46773698D01*
X44011400Y-46587224D01*
X44011400Y-46460312D01*
X44138394Y-46407709D01*
X44296479Y-46302080D01*
X44430920Y-46167639D01*
X44536549Y-46009554D01*
X44609308Y-45833898D01*
X44646400Y-45647424D01*
X44646400Y-45457296D01*
X44609308Y-45270822D01*
X44536549Y-45095166D01*
X44430920Y-44937081D01*
X44417800Y-44923961D01*
X44417800Y-42504669D01*
X45738910Y-41183560D01*
X46989801Y-41183560D01*
X47002921Y-41196680D01*
X47161006Y-41302309D01*
X47336662Y-41375068D01*
X47523136Y-41412160D01*
X47713264Y-41412160D01*
X47899738Y-41375068D01*
X48075394Y-41302309D01*
X48233479Y-41196680D01*
X48367920Y-41062239D01*
X48473549Y-40904154D01*
X48546308Y-40728498D01*
X48583400Y-40542024D01*
X48583400Y-40351896D01*
X48546308Y-40165422D01*
X48473549Y-39989766D01*
X48367920Y-39831681D01*
X48233479Y-39697240D01*
X48075394Y-39591611D01*
X47899738Y-39518852D01*
X47713264Y-39481760D01*
X47523136Y-39481760D01*
X47336662Y-39518852D01*
X47161006Y-39591611D01*
X47002921Y-39697240D01*
X46989801Y-39710360D01*
X46145320Y-39710360D01*
X46831120Y-39024560D01*
X46849674Y-39024560D01*
X47036148Y-38987468D01*
X47211804Y-38914709D01*
X47369889Y-38809080D01*
X47504330Y-38674639D01*
X47609959Y-38516554D01*
X47682718Y-38340898D01*
X47719810Y-38154424D01*
X47719810Y-37964296D01*
X47682718Y-37777822D01*
X47609959Y-37602166D01*
X47504330Y-37444081D01*
X47369889Y-37309640D01*
X47211804Y-37204011D01*
X47036148Y-37131252D01*
X46849674Y-37094160D01*
X46659546Y-37094160D01*
X46473072Y-37131252D01*
X46297416Y-37204011D01*
X46139331Y-37309640D01*
X46004890Y-37444081D01*
X45899261Y-37602166D01*
X45826502Y-37777822D01*
X45789410Y-37964296D01*
X45789410Y-37982850D01*
X43748395Y-40023866D01*
X43723749Y-39964366D01*
X43618120Y-39806281D01*
X43483679Y-39671840D01*
X43376487Y-39600217D01*
X43382079Y-39596480D01*
X43516520Y-39462039D01*
X43622149Y-39303954D01*
X43694908Y-39128298D01*
X43712417Y-39040276D01*
X43866739Y-38993463D01*
X44065305Y-38887328D01*
X44239349Y-38744493D01*
X44382184Y-38570449D01*
X44488319Y-38371882D01*
X44553677Y-38156426D01*
X44570216Y-37988505D01*
X44570216Y-36057189D01*
X46047847Y-34579560D01*
X54231355Y-34579560D01*
X54573587Y-34921792D01*
X54572270Y-34935160D01*
X54577800Y-34991305D01*
X54577800Y-35641015D01*
X54577801Y-39578005D01*
X54577800Y-39578015D01*
X54577800Y-40470093D01*
X54427538Y-40407852D01*
X54241064Y-40370760D01*
X54050936Y-40370760D01*
X53864462Y-40407852D01*
X53688806Y-40480611D01*
X53530721Y-40586240D01*
X53396280Y-40720681D01*
X53290651Y-40878766D01*
X53217892Y-41054422D01*
X53180800Y-41240896D01*
X53180800Y-41259451D01*
X53041132Y-41399119D01*
X53013025Y-41422186D01*
X52989959Y-41450292D01*
X52989958Y-41450293D01*
X52970816Y-41473618D01*
X52920976Y-41534348D01*
X52852578Y-41662312D01*
X52810458Y-41801162D01*
X52799800Y-41909374D01*
X52796236Y-41945560D01*
X52799800Y-41981744D01*
X52799801Y-42942760D01*
X52786680Y-42955881D01*
X52681051Y-43113966D01*
X52608292Y-43289622D01*
X52571200Y-43476096D01*
X52571200Y-43666224D01*
X52608292Y-43852698D01*
X52681051Y-44028354D01*
X52786680Y-44186439D01*
X52921121Y-44320880D01*
X53079206Y-44426509D01*
X53254862Y-44499268D01*
X53441336Y-44536360D01*
X53631464Y-44536360D01*
X53817938Y-44499268D01*
X53993594Y-44426509D01*
X54151679Y-44320880D01*
X54286120Y-44186439D01*
X54391749Y-44028354D01*
X54464508Y-43852698D01*
X54501600Y-43666224D01*
X54501600Y-43476096D01*
X54464508Y-43289622D01*
X54391749Y-43113966D01*
X54286120Y-42955881D01*
X54273000Y-42942761D01*
X54273000Y-42294808D01*
X54427538Y-42264068D01*
X54577800Y-42201827D01*
X54577801Y-45716912D01*
X54328274Y-45966439D01*
X54221231Y-46096872D01*
X54115096Y-46295437D01*
X54049737Y-46510893D01*
X54027669Y-46734960D01*
X54049737Y-46959027D01*
X54115096Y-47174483D01*
X54157684Y-47254160D01*
X53656799Y-47254160D01*
X53643679Y-47241040D01*
X53485594Y-47135411D01*
X53309938Y-47062652D01*
X53123464Y-47025560D01*
X52933336Y-47025560D01*
X52746862Y-47062652D01*
X52571206Y-47135411D01*
X52413121Y-47241040D01*
X52278680Y-47375481D01*
X52173051Y-47533566D01*
X52100292Y-47709222D01*
X52063200Y-47895696D01*
X52063200Y-48085824D01*
X52100292Y-48272298D01*
X52163779Y-48425569D01*
X52148844Y-48431755D01*
X51990759Y-48537384D01*
X51856318Y-48671825D01*
X51750689Y-48829910D01*
X51677930Y-49005566D01*
X51640838Y-49192040D01*
X51640838Y-49382168D01*
X51677930Y-49568642D01*
X51715700Y-49659826D01*
X51624864Y-49641758D01*
X51434736Y-49641758D01*
X51248262Y-49678850D01*
X51072606Y-49751609D01*
X50914521Y-49857238D01*
X50780080Y-49991679D01*
X50674451Y-50149764D01*
X50601692Y-50325420D01*
X50564600Y-50511894D01*
X50564600Y-50702022D01*
X50601692Y-50888496D01*
X50674451Y-51064152D01*
X50780080Y-51222237D01*
X50914521Y-51356678D01*
X51072606Y-51462307D01*
X51248262Y-51535066D01*
X51434736Y-51572158D01*
X51624864Y-51572158D01*
X51811338Y-51535066D01*
X51986994Y-51462307D01*
X52145079Y-51356678D01*
X52158197Y-51343560D01*
X58129518Y-51343560D01*
X58165701Y-51347124D01*
X58201884Y-51343560D01*
X58201887Y-51343560D01*
X58310100Y-51332902D01*
X58448950Y-51290782D01*
X58576914Y-51222384D01*
X58689076Y-51130335D01*
X58712147Y-51102223D01*
X65037612Y-44776759D01*
X65478776Y-44776759D01*
X65376694Y-44901146D01*
X65238801Y-45159126D01*
X65153887Y-45439049D01*
X65125215Y-45730160D01*
X65153887Y-46021271D01*
X65238801Y-46301194D01*
X65376694Y-46559174D01*
X65562266Y-46785294D01*
X65788386Y-46970866D01*
X66046366Y-47108759D01*
X66326289Y-47193673D01*
X66544450Y-47215160D01*
X66690350Y-47215160D01*
X66908511Y-47193673D01*
X67188434Y-47108759D01*
X67446414Y-46970866D01*
X67672534Y-46785294D01*
X67858106Y-46559174D01*
X67995999Y-46301194D01*
X68080913Y-46021271D01*
X68109585Y-45730160D01*
X68080913Y-45439049D01*
X68065137Y-45387042D01*
X68088956Y-45391780D01*
X68279084Y-45391780D01*
X68465558Y-45354688D01*
X68641214Y-45281929D01*
X68799299Y-45176300D01*
X68933740Y-45041859D01*
X69039369Y-44883774D01*
X69112128Y-44708118D01*
X69149220Y-44521644D01*
X69149220Y-44331516D01*
X69112128Y-44145042D01*
X69039369Y-43969386D01*
X68933740Y-43811301D01*
X68920620Y-43798181D01*
X68920620Y-38550449D01*
X69219380Y-38251690D01*
X69237934Y-38251690D01*
X69424408Y-38214598D01*
X69600064Y-38141839D01*
X69758149Y-38036210D01*
X69892590Y-37901769D01*
X69998219Y-37743684D01*
X70070978Y-37568028D01*
X70108070Y-37381554D01*
X70108070Y-37191426D01*
X70070978Y-37004952D01*
X69998219Y-36829296D01*
X69892590Y-36671211D01*
X69758149Y-36536770D01*
X69600064Y-36431141D01*
X69424408Y-36358382D01*
X69237934Y-36321290D01*
X69047806Y-36321290D01*
X68861332Y-36358382D01*
X68685676Y-36431141D01*
X68527591Y-36536770D01*
X68393150Y-36671211D01*
X68287521Y-36829296D01*
X68214762Y-37004952D01*
X68177670Y-37191426D01*
X68177670Y-37209980D01*
X68105472Y-37282178D01*
X68105472Y-37260160D01*
X68093212Y-37135678D01*
X68056902Y-37015980D01*
X67997937Y-36905666D01*
X67918585Y-36808975D01*
X67821894Y-36729623D01*
X67711580Y-36670658D01*
X67591882Y-36634348D01*
X67467400Y-36622088D01*
X65767400Y-36622088D01*
X65642918Y-36634348D01*
X65523220Y-36670658D01*
X65412906Y-36729623D01*
X65316215Y-36808975D01*
X65236863Y-36905666D01*
X65177898Y-37015980D01*
X65141588Y-37135678D01*
X65129328Y-37260160D01*
X65129328Y-37398862D01*
X65038751Y-37426338D01*
X64910787Y-37494736D01*
X64798625Y-37586785D01*
X64775550Y-37614902D01*
X64445733Y-37944718D01*
X64417625Y-37967786D01*
X64394559Y-37995892D01*
X64394558Y-37995893D01*
X64389525Y-38002026D01*
X64325576Y-38079948D01*
X64257178Y-38207912D01*
X64215058Y-38346762D01*
X64204432Y-38454648D01*
X64200836Y-38491160D01*
X64204400Y-38527343D01*
X64204401Y-42377050D01*
X60750000Y-45831451D01*
X60750000Y-42721569D01*
X60763120Y-42708449D01*
X60868749Y-42550364D01*
X60941508Y-42374708D01*
X60978600Y-42188234D01*
X60978600Y-41998106D01*
X60941508Y-41811632D01*
X60868749Y-41635976D01*
X60763120Y-41477891D01*
X60628679Y-41343450D01*
X60470594Y-41237821D01*
X60294938Y-41165062D01*
X60108464Y-41127970D01*
X60013400Y-41127970D01*
X60013400Y-40135559D01*
X60026520Y-40122439D01*
X60132149Y-39964354D01*
X60204908Y-39788698D01*
X60242000Y-39602224D01*
X60242000Y-39412096D01*
X60204908Y-39225622D01*
X60132149Y-39049966D01*
X60026520Y-38891881D01*
X59892079Y-38757440D01*
X59733994Y-38651811D01*
X59558338Y-38579052D01*
X59371864Y-38541960D01*
X59181736Y-38541960D01*
X58995262Y-38579052D01*
X58819606Y-38651811D01*
X58661521Y-38757440D01*
X58527080Y-38891881D01*
X58421451Y-39049966D01*
X58348692Y-39225622D01*
X58311600Y-39412096D01*
X58311600Y-39602224D01*
X58348692Y-39788698D01*
X58421451Y-39964354D01*
X58527080Y-40122439D01*
X58540200Y-40135559D01*
X58540201Y-45577449D01*
X56863491Y-47254160D01*
X56273443Y-47254160D01*
X56489317Y-47038286D01*
X56532933Y-47002491D01*
X56675768Y-46828447D01*
X56781903Y-46629881D01*
X56847261Y-46414425D01*
X56863800Y-46246504D01*
X56863800Y-46246496D01*
X56869329Y-46190358D01*
X56863800Y-46134219D01*
X56863800Y-36078160D01*
X63741861Y-36078160D01*
X63798000Y-36083689D01*
X63854139Y-36078160D01*
X63854146Y-36078160D01*
X64022067Y-36061621D01*
X64237523Y-35996263D01*
X64436089Y-35890128D01*
X64609319Y-35747961D01*
X69932956Y-35747961D01*
X70859200Y-36674206D01*
X70859200Y-37091845D01*
X70791359Y-37218767D01*
X70732176Y-37413865D01*
X70712193Y-37616760D01*
X70732176Y-37819655D01*
X70791359Y-38014753D01*
X70879092Y-38178891D01*
X70865751Y-38182938D01*
X70737787Y-38251336D01*
X70625625Y-38343385D01*
X70602554Y-38371497D01*
X70236932Y-38737119D01*
X70208826Y-38760185D01*
X70185760Y-38788291D01*
X70185758Y-38788293D01*
X70116776Y-38872348D01*
X70048378Y-39000313D01*
X70045088Y-39011159D01*
X70009555Y-39128298D01*
X70006259Y-39139162D01*
X69992036Y-39283560D01*
X69995601Y-39319753D01*
X69995600Y-45118027D01*
X69992036Y-45154210D01*
X69995600Y-45190393D01*
X69995600Y-45190395D01*
X70006258Y-45298608D01*
X70048378Y-45437458D01*
X70116776Y-45565422D01*
X70208825Y-45677584D01*
X70236932Y-45700651D01*
X70695500Y-46159220D01*
X70695500Y-46177774D01*
X70732592Y-46364248D01*
X70805351Y-46539904D01*
X70910980Y-46697989D01*
X71045421Y-46832430D01*
X71203506Y-46938059D01*
X71379162Y-47010818D01*
X71565636Y-47047910D01*
X71755764Y-47047910D01*
X71942238Y-47010818D01*
X72117894Y-46938059D01*
X72275979Y-46832430D01*
X72410420Y-46697989D01*
X72516049Y-46539904D01*
X72588808Y-46364248D01*
X72625900Y-46177774D01*
X72625900Y-45987646D01*
X72588808Y-45801172D01*
X72516049Y-45625516D01*
X72410420Y-45467431D01*
X72275979Y-45332990D01*
X72117894Y-45227361D01*
X71942238Y-45154602D01*
X71755764Y-45117510D01*
X71737210Y-45117510D01*
X71523090Y-44903391D01*
X71716450Y-44901760D01*
X71875200Y-44743010D01*
X71875200Y-43993760D01*
X72129200Y-43993760D01*
X72129200Y-44743010D01*
X72287950Y-44901760D01*
X72652200Y-44904832D01*
X72776682Y-44892572D01*
X72896380Y-44856262D01*
X73006694Y-44797297D01*
X73103385Y-44717945D01*
X73182737Y-44621254D01*
X73241702Y-44510940D01*
X73278012Y-44391242D01*
X73290272Y-44266760D01*
X73287200Y-44152510D01*
X73128450Y-43993760D01*
X72129200Y-43993760D01*
X71875200Y-43993760D01*
X71855200Y-43993760D01*
X71855200Y-43739760D01*
X71875200Y-43739760D01*
X71875200Y-43719760D01*
X72129200Y-43719760D01*
X72129200Y-43739760D01*
X73128450Y-43739760D01*
X73287200Y-43581010D01*
X73290272Y-43466760D01*
X73278012Y-43342278D01*
X73241702Y-43222580D01*
X73182737Y-43112266D01*
X73169525Y-43096167D01*
X73213041Y-43014753D01*
X73256417Y-42871760D01*
X73435128Y-42871760D01*
X73447388Y-42996242D01*
X73483698Y-43115940D01*
X73542663Y-43226254D01*
X73622015Y-43322945D01*
X73718706Y-43402297D01*
X73829020Y-43461262D01*
X73948718Y-43497572D01*
X74073200Y-43509832D01*
X74637450Y-43506760D01*
X74796200Y-43348010D01*
X74796200Y-42148760D01*
X75050200Y-42148760D01*
X75050200Y-43348010D01*
X75208950Y-43506760D01*
X75773200Y-43509832D01*
X75897682Y-43497572D01*
X76017380Y-43461262D01*
X76127694Y-43402297D01*
X76224385Y-43322945D01*
X76303737Y-43226254D01*
X76362702Y-43115940D01*
X76399012Y-42996242D01*
X76411272Y-42871760D01*
X76408200Y-42307510D01*
X76249450Y-42148760D01*
X75050200Y-42148760D01*
X74796200Y-42148760D01*
X73596950Y-42148760D01*
X73438200Y-42307510D01*
X73435128Y-42871760D01*
X73256417Y-42871760D01*
X73272224Y-42819655D01*
X73292207Y-42616760D01*
X73272224Y-42413865D01*
X73213041Y-42218767D01*
X73116934Y-42038963D01*
X73078196Y-41991760D01*
X73116934Y-41944557D01*
X73213041Y-41764753D01*
X73272224Y-41569655D01*
X73292207Y-41366760D01*
X73272224Y-41163865D01*
X73213041Y-40968767D01*
X73116934Y-40788963D01*
X73078196Y-40741760D01*
X73116934Y-40694557D01*
X73213041Y-40514753D01*
X73272224Y-40319655D01*
X73292207Y-40116760D01*
X73272224Y-39913865D01*
X73213041Y-39718767D01*
X73116934Y-39538963D01*
X73078196Y-39491760D01*
X73086402Y-39481760D01*
X73431015Y-39481760D01*
X73459687Y-39772871D01*
X73544601Y-40052794D01*
X73682494Y-40310774D01*
X73868066Y-40536894D01*
X73897887Y-40561367D01*
X73829020Y-40582258D01*
X73718706Y-40641223D01*
X73622015Y-40720575D01*
X73542663Y-40817266D01*
X73483698Y-40927580D01*
X73447388Y-41047278D01*
X73435128Y-41171760D01*
X73438200Y-41736010D01*
X73596950Y-41894760D01*
X74796200Y-41894760D01*
X74796200Y-41874760D01*
X75050200Y-41874760D01*
X75050200Y-41894760D01*
X76249450Y-41894760D01*
X76408200Y-41736010D01*
X76411272Y-41171760D01*
X76399012Y-41047278D01*
X76362702Y-40927580D01*
X76303737Y-40817266D01*
X76224385Y-40720575D01*
X76127694Y-40641223D01*
X76017380Y-40582258D01*
X75948513Y-40561367D01*
X75978334Y-40536894D01*
X76163906Y-40310774D01*
X76301799Y-40052794D01*
X76386713Y-39772871D01*
X76415385Y-39481760D01*
X76386713Y-39190649D01*
X76301799Y-38910726D01*
X76163906Y-38652746D01*
X75978334Y-38426626D01*
X75752214Y-38241054D01*
X75494234Y-38103161D01*
X75214311Y-38018247D01*
X74996150Y-37996760D01*
X74850250Y-37996760D01*
X74632089Y-38018247D01*
X74352166Y-38103161D01*
X74094186Y-38241054D01*
X73868066Y-38426626D01*
X73682494Y-38652746D01*
X73544601Y-38910726D01*
X73459687Y-39190649D01*
X73431015Y-39481760D01*
X73086402Y-39481760D01*
X73116934Y-39444557D01*
X73213041Y-39264753D01*
X73272224Y-39069655D01*
X73292207Y-38866760D01*
X73272224Y-38663865D01*
X73213041Y-38468767D01*
X73116934Y-38288963D01*
X73078196Y-38241760D01*
X73116934Y-38194557D01*
X73213041Y-38014753D01*
X73272224Y-37819655D01*
X73292207Y-37616760D01*
X73272224Y-37413865D01*
X73213041Y-37218767D01*
X73145200Y-37091845D01*
X73145200Y-36256899D01*
X73150729Y-36200760D01*
X73145200Y-36144621D01*
X73145200Y-36144614D01*
X73128661Y-35976693D01*
X73102402Y-35890128D01*
X73063303Y-35761236D01*
X72999043Y-35641014D01*
X72957168Y-35562671D01*
X72814333Y-35388627D01*
X72770723Y-35352837D01*
X71691845Y-34273960D01*
X74559149Y-34273960D01*
X74552728Y-34339160D01*
X74552728Y-36039160D01*
X74564988Y-36163642D01*
X74601298Y-36283340D01*
X74660263Y-36393654D01*
X74739615Y-36490345D01*
X74836306Y-36569697D01*
X74946620Y-36628662D01*
X75066318Y-36664972D01*
X75190800Y-36677232D01*
X76803601Y-36677232D01*
X76803600Y-44790360D01*
X74637818Y-44790360D01*
X74613042Y-44792800D01*
X74589217Y-44800027D01*
X74567261Y-44811763D01*
X74548015Y-44827557D01*
X74532221Y-44846803D01*
X74520485Y-44868759D01*
X74513258Y-44892584D01*
X74510818Y-44917360D01*
X74510818Y-47229560D01*
X74010185Y-47229560D01*
X73939810Y-47229224D01*
X73907205Y-47232264D01*
X73874456Y-47232035D01*
X73864938Y-47232969D01*
X73268320Y-47295675D01*
X73207509Y-47308158D01*
X73146518Y-47319793D01*
X73137362Y-47322557D01*
X72564286Y-47499954D01*
X72507032Y-47524022D01*
X72449488Y-47547271D01*
X72441043Y-47551761D01*
X72236176Y-47662532D01*
X72231424Y-47663000D01*
X72207599Y-47670227D01*
X72185643Y-47681963D01*
X72166397Y-47697757D01*
X72160944Y-47703210D01*
X71913338Y-47837090D01*
X71861881Y-47871798D01*
X71809917Y-47905803D01*
X71802505Y-47911848D01*
X71340271Y-48294242D01*
X71296524Y-48338295D01*
X71252167Y-48381733D01*
X71246070Y-48389103D01*
X70866913Y-48853995D01*
X70832557Y-48905706D01*
X70797480Y-48956934D01*
X70792934Y-48965343D01*
X70792931Y-48965347D01*
X70792931Y-48965348D01*
X70672718Y-49191436D01*
X70185197Y-49678957D01*
X70169403Y-49698203D01*
X70157667Y-49720159D01*
X70150440Y-49743984D01*
X70148000Y-49768760D01*
X70148000Y-53808160D01*
X31870200Y-53808160D01*
X31870200Y-45526960D01*
X31867760Y-45502184D01*
X31860533Y-45478359D01*
X31848797Y-45456403D01*
X31833003Y-45437157D01*
X31813757Y-45421363D01*
X31791801Y-45409627D01*
X31767976Y-45402400D01*
X31743200Y-45399960D01*
X28211800Y-45399960D01*
X28211800Y-44893250D01*
X36372324Y-44893250D01*
X36416975Y-45040459D01*
X36542159Y-45303280D01*
X36716212Y-45536629D01*
X36932445Y-45731538D01*
X37182548Y-45880517D01*
X37456909Y-45977841D01*
X37686800Y-45857174D01*
X37686800Y-44663360D01*
X36493645Y-44663360D01*
X36372324Y-44893250D01*
X28211800Y-44893250D01*
X28211800Y-31987960D01*
X31289597Y-31987960D01*
X31226339Y-32196493D01*
X31226339Y-32196493D01*
G37*
X31226339Y-32196493D02*
X31204270Y-32420560D01*
X31226339Y-32644627D01*
X31291697Y-32860083D01*
X31397832Y-33058649D01*
X31540667Y-33232693D01*
X31714711Y-33375528D01*
X31913277Y-33481663D01*
X32128733Y-33547021D01*
X32296654Y-33563560D01*
X36564427Y-33563560D01*
X36435201Y-33805326D01*
X36350287Y-34085249D01*
X36321615Y-34376360D01*
X36350287Y-34667471D01*
X36435201Y-34947394D01*
X36573094Y-35205374D01*
X36758666Y-35431494D01*
X36984786Y-35617066D01*
X37039591Y-35646360D01*
X36984786Y-35675654D01*
X36758666Y-35861226D01*
X36573094Y-36087346D01*
X36435201Y-36345326D01*
X36350287Y-36625249D01*
X36321615Y-36916360D01*
X36350287Y-37207471D01*
X36435201Y-37487394D01*
X36573094Y-37745374D01*
X36758666Y-37971494D01*
X36984786Y-38157066D01*
X37039591Y-38186360D01*
X36984786Y-38215654D01*
X36758666Y-38401226D01*
X36573094Y-38627346D01*
X36435201Y-38885326D01*
X36350287Y-39165249D01*
X36321615Y-39456360D01*
X36350287Y-39747471D01*
X36435201Y-40027394D01*
X36573094Y-40285374D01*
X36758666Y-40511494D01*
X36984786Y-40697066D01*
X37039591Y-40726360D01*
X36984786Y-40755654D01*
X36758666Y-40941226D01*
X36573094Y-41167346D01*
X36435201Y-41425326D01*
X36350287Y-41705249D01*
X36321615Y-41996360D01*
X36350287Y-42287471D01*
X36435201Y-42567394D01*
X36573094Y-42825374D01*
X36758666Y-43051494D01*
X36984786Y-43237066D01*
X37049323Y-43271561D01*
X36932445Y-43341182D01*
X36716212Y-43536091D01*
X36542159Y-43769440D01*
X36416975Y-44032261D01*
X36372324Y-44179470D01*
X36493645Y-44409360D01*
X37686800Y-44409360D01*
X37686800Y-44389360D01*
X37940800Y-44389360D01*
X37940800Y-44409360D01*
X37960800Y-44409360D01*
X37960800Y-44663360D01*
X37940800Y-44663360D01*
X37940800Y-45857174D01*
X38170691Y-45977841D01*
X38445052Y-45880517D01*
X38695155Y-45731538D01*
X38911388Y-45536629D01*
X39082216Y-45307604D01*
X39113094Y-45365374D01*
X39298666Y-45591494D01*
X39524786Y-45777066D01*
X39782766Y-45914959D01*
X40062689Y-45999873D01*
X40280850Y-46021360D01*
X40426750Y-46021360D01*
X40644911Y-45999873D01*
X40924834Y-45914959D01*
X41141209Y-45799304D01*
X41141209Y-48142063D01*
X41137637Y-48178328D01*
X41151860Y-48322726D01*
X41193979Y-48461575D01*
X41242808Y-48552929D01*
X41242808Y-48603599D01*
X41279900Y-48790073D01*
X41352659Y-48965729D01*
X41458288Y-49123814D01*
X41592729Y-49258255D01*
X41750814Y-49363884D01*
X41926470Y-49436643D01*
X42112944Y-49473735D01*
X42303072Y-49473735D01*
X42489546Y-49436643D01*
X42665202Y-49363884D01*
X42823287Y-49258255D01*
X42957728Y-49123814D01*
X43063357Y-48965729D01*
X43136116Y-48790073D01*
X43173208Y-48603599D01*
X43173208Y-48413471D01*
X43136116Y-48226997D01*
X43116938Y-48180698D01*
X43153479Y-48156282D01*
X43287920Y-48021841D01*
X43393549Y-47863756D01*
X43466308Y-47688100D01*
X43503400Y-47501626D01*
X43503400Y-47347505D01*
X43661479Y-47241880D01*
X43795920Y-47107439D01*
X43901549Y-46949354D01*
X43974308Y-46773698D01*
X44011400Y-46587224D01*
X44011400Y-46460312D01*
X44138394Y-46407709D01*
X44296479Y-46302080D01*
X44430920Y-46167639D01*
X44536549Y-46009554D01*
X44609308Y-45833898D01*
X44646400Y-45647424D01*
X44646400Y-45457296D01*
X44609308Y-45270822D01*
X44536549Y-45095166D01*
X44430920Y-44937081D01*
X44417800Y-44923961D01*
X44417800Y-42504669D01*
X45738910Y-41183560D01*
X46989801Y-41183560D01*
X47002921Y-41196680D01*
X47161006Y-41302309D01*
X47336662Y-41375068D01*
X47523136Y-41412160D01*
X47713264Y-41412160D01*
X47899738Y-41375068D01*
X48075394Y-41302309D01*
X48233479Y-41196680D01*
X48367920Y-41062239D01*
X48473549Y-40904154D01*
X48546308Y-40728498D01*
X48583400Y-40542024D01*
X48583400Y-40351896D01*
X48546308Y-40165422D01*
X48473549Y-39989766D01*
X48367920Y-39831681D01*
X48233479Y-39697240D01*
X48075394Y-39591611D01*
X47899738Y-39518852D01*
X47713264Y-39481760D01*
X47523136Y-39481760D01*
X47336662Y-39518852D01*
X47161006Y-39591611D01*
X47002921Y-39697240D01*
X46989801Y-39710360D01*
X46145320Y-39710360D01*
X46831120Y-39024560D01*
X46849674Y-39024560D01*
X47036148Y-38987468D01*
X47211804Y-38914709D01*
X47369889Y-38809080D01*
X47504330Y-38674639D01*
X47609959Y-38516554D01*
X47682718Y-38340898D01*
X47719810Y-38154424D01*
X47719810Y-37964296D01*
X47682718Y-37777822D01*
X47609959Y-37602166D01*
X47504330Y-37444081D01*
X47369889Y-37309640D01*
X47211804Y-37204011D01*
X47036148Y-37131252D01*
X46849674Y-37094160D01*
X46659546Y-37094160D01*
X46473072Y-37131252D01*
X46297416Y-37204011D01*
X46139331Y-37309640D01*
X46004890Y-37444081D01*
X45899261Y-37602166D01*
X45826502Y-37777822D01*
X45789410Y-37964296D01*
X45789410Y-37982850D01*
X43748395Y-40023866D01*
X43723749Y-39964366D01*
X43618120Y-39806281D01*
X43483679Y-39671840D01*
X43376487Y-39600217D01*
X43382079Y-39596480D01*
X43516520Y-39462039D01*
X43622149Y-39303954D01*
X43694908Y-39128298D01*
X43712417Y-39040276D01*
X43866739Y-38993463D01*
X44065305Y-38887328D01*
X44239349Y-38744493D01*
X44382184Y-38570449D01*
X44488319Y-38371882D01*
X44553677Y-38156426D01*
X44570216Y-37988505D01*
X44570216Y-36057189D01*
X46047847Y-34579560D01*
X54231355Y-34579560D01*
X54573587Y-34921792D01*
X54572270Y-34935160D01*
X54577800Y-34991305D01*
X54577800Y-35641015D01*
X54577801Y-39578005D01*
X54577800Y-39578015D01*
X54577800Y-40470093D01*
X54427538Y-40407852D01*
X54241064Y-40370760D01*
X54050936Y-40370760D01*
X53864462Y-40407852D01*
X53688806Y-40480611D01*
X53530721Y-40586240D01*
X53396280Y-40720681D01*
X53290651Y-40878766D01*
X53217892Y-41054422D01*
X53180800Y-41240896D01*
X53180800Y-41259451D01*
X53041132Y-41399119D01*
X53013025Y-41422186D01*
X52989959Y-41450292D01*
X52989958Y-41450293D01*
X52970816Y-41473618D01*
X52920976Y-41534348D01*
X52852578Y-41662312D01*
X52810458Y-41801162D01*
X52799800Y-41909374D01*
X52796236Y-41945560D01*
X52799800Y-41981744D01*
X52799801Y-42942760D01*
X52786680Y-42955881D01*
X52681051Y-43113966D01*
X52608292Y-43289622D01*
X52571200Y-43476096D01*
X52571200Y-43666224D01*
X52608292Y-43852698D01*
X52681051Y-44028354D01*
X52786680Y-44186439D01*
X52921121Y-44320880D01*
X53079206Y-44426509D01*
X53254862Y-44499268D01*
X53441336Y-44536360D01*
X53631464Y-44536360D01*
X53817938Y-44499268D01*
X53993594Y-44426509D01*
X54151679Y-44320880D01*
X54286120Y-44186439D01*
X54391749Y-44028354D01*
X54464508Y-43852698D01*
X54501600Y-43666224D01*
X54501600Y-43476096D01*
X54464508Y-43289622D01*
X54391749Y-43113966D01*
X54286120Y-42955881D01*
X54273000Y-42942761D01*
X54273000Y-42294808D01*
X54427538Y-42264068D01*
X54577800Y-42201827D01*
X54577801Y-45716912D01*
X54328274Y-45966439D01*
X54221231Y-46096872D01*
X54115096Y-46295437D01*
X54049737Y-46510893D01*
X54027669Y-46734960D01*
X54049737Y-46959027D01*
X54115096Y-47174483D01*
X54157684Y-47254160D01*
X53656799Y-47254160D01*
X53643679Y-47241040D01*
X53485594Y-47135411D01*
X53309938Y-47062652D01*
X53123464Y-47025560D01*
X52933336Y-47025560D01*
X52746862Y-47062652D01*
X52571206Y-47135411D01*
X52413121Y-47241040D01*
X52278680Y-47375481D01*
X52173051Y-47533566D01*
X52100292Y-47709222D01*
X52063200Y-47895696D01*
X52063200Y-48085824D01*
X52100292Y-48272298D01*
X52163779Y-48425569D01*
X52148844Y-48431755D01*
X51990759Y-48537384D01*
X51856318Y-48671825D01*
X51750689Y-48829910D01*
X51677930Y-49005566D01*
X51640838Y-49192040D01*
X51640838Y-49382168D01*
X51677930Y-49568642D01*
X51715700Y-49659826D01*
X51624864Y-49641758D01*
X51434736Y-49641758D01*
X51248262Y-49678850D01*
X51072606Y-49751609D01*
X50914521Y-49857238D01*
X50780080Y-49991679D01*
X50674451Y-50149764D01*
X50601692Y-50325420D01*
X50564600Y-50511894D01*
X50564600Y-50702022D01*
X50601692Y-50888496D01*
X50674451Y-51064152D01*
X50780080Y-51222237D01*
X50914521Y-51356678D01*
X51072606Y-51462307D01*
X51248262Y-51535066D01*
X51434736Y-51572158D01*
X51624864Y-51572158D01*
X51811338Y-51535066D01*
X51986994Y-51462307D01*
X52145079Y-51356678D01*
X52158197Y-51343560D01*
X58129518Y-51343560D01*
X58165701Y-51347124D01*
X58201884Y-51343560D01*
X58201887Y-51343560D01*
X58310100Y-51332902D01*
X58448950Y-51290782D01*
X58576914Y-51222384D01*
X58689076Y-51130335D01*
X58712147Y-51102223D01*
X65037612Y-44776759D01*
X65478776Y-44776759D01*
X65376694Y-44901146D01*
X65238801Y-45159126D01*
X65153887Y-45439049D01*
X65125215Y-45730160D01*
X65153887Y-46021271D01*
X65238801Y-46301194D01*
X65376694Y-46559174D01*
X65562266Y-46785294D01*
X65788386Y-46970866D01*
X66046366Y-47108759D01*
X66326289Y-47193673D01*
X66544450Y-47215160D01*
X66690350Y-47215160D01*
X66908511Y-47193673D01*
X67188434Y-47108759D01*
X67446414Y-46970866D01*
X67672534Y-46785294D01*
X67858106Y-46559174D01*
X67995999Y-46301194D01*
X68080913Y-46021271D01*
X68109585Y-45730160D01*
X68080913Y-45439049D01*
X68065137Y-45387042D01*
X68088956Y-45391780D01*
X68279084Y-45391780D01*
X68465558Y-45354688D01*
X68641214Y-45281929D01*
X68799299Y-45176300D01*
X68933740Y-45041859D01*
X69039369Y-44883774D01*
X69112128Y-44708118D01*
X69149220Y-44521644D01*
X69149220Y-44331516D01*
X69112128Y-44145042D01*
X69039369Y-43969386D01*
X68933740Y-43811301D01*
X68920620Y-43798181D01*
X68920620Y-38550449D01*
X69219380Y-38251690D01*
X69237934Y-38251690D01*
X69424408Y-38214598D01*
X69600064Y-38141839D01*
X69758149Y-38036210D01*
X69892590Y-37901769D01*
X69998219Y-37743684D01*
X70070978Y-37568028D01*
X70108070Y-37381554D01*
X70108070Y-37191426D01*
X70070978Y-37004952D01*
X69998219Y-36829296D01*
X69892590Y-36671211D01*
X69758149Y-36536770D01*
X69600064Y-36431141D01*
X69424408Y-36358382D01*
X69237934Y-36321290D01*
X69047806Y-36321290D01*
X68861332Y-36358382D01*
X68685676Y-36431141D01*
X68527591Y-36536770D01*
X68393150Y-36671211D01*
X68287521Y-36829296D01*
X68214762Y-37004952D01*
X68177670Y-37191426D01*
X68177670Y-37209980D01*
X68105472Y-37282178D01*
X68105472Y-37260160D01*
X68093212Y-37135678D01*
X68056902Y-37015980D01*
X67997937Y-36905666D01*
X67918585Y-36808975D01*
X67821894Y-36729623D01*
X67711580Y-36670658D01*
X67591882Y-36634348D01*
X67467400Y-36622088D01*
X65767400Y-36622088D01*
X65642918Y-36634348D01*
X65523220Y-36670658D01*
X65412906Y-36729623D01*
X65316215Y-36808975D01*
X65236863Y-36905666D01*
X65177898Y-37015980D01*
X65141588Y-37135678D01*
X65129328Y-37260160D01*
X65129328Y-37398862D01*
X65038751Y-37426338D01*
X64910787Y-37494736D01*
X64798625Y-37586785D01*
X64775550Y-37614902D01*
X64445733Y-37944718D01*
X64417625Y-37967786D01*
X64394559Y-37995892D01*
X64394558Y-37995893D01*
X64389525Y-38002026D01*
X64325576Y-38079948D01*
X64257178Y-38207912D01*
X64215058Y-38346762D01*
X64204432Y-38454648D01*
X64200836Y-38491160D01*
X64204400Y-38527343D01*
X64204401Y-42377050D01*
X60750000Y-45831451D01*
X60750000Y-42721569D01*
X60763120Y-42708449D01*
X60868749Y-42550364D01*
X60941508Y-42374708D01*
X60978600Y-42188234D01*
X60978600Y-41998106D01*
X60941508Y-41811632D01*
X60868749Y-41635976D01*
X60763120Y-41477891D01*
X60628679Y-41343450D01*
X60470594Y-41237821D01*
X60294938Y-41165062D01*
X60108464Y-41127970D01*
X60013400Y-41127970D01*
X60013400Y-40135559D01*
X60026520Y-40122439D01*
X60132149Y-39964354D01*
X60204908Y-39788698D01*
X60242000Y-39602224D01*
X60242000Y-39412096D01*
X60204908Y-39225622D01*
X60132149Y-39049966D01*
X60026520Y-38891881D01*
X59892079Y-38757440D01*
X59733994Y-38651811D01*
X59558338Y-38579052D01*
X59371864Y-38541960D01*
X59181736Y-38541960D01*
X58995262Y-38579052D01*
X58819606Y-38651811D01*
X58661521Y-38757440D01*
X58527080Y-38891881D01*
X58421451Y-39049966D01*
X58348692Y-39225622D01*
X58311600Y-39412096D01*
X58311600Y-39602224D01*
X58348692Y-39788698D01*
X58421451Y-39964354D01*
X58527080Y-40122439D01*
X58540200Y-40135559D01*
X58540201Y-45577449D01*
X56863491Y-47254160D01*
X56273443Y-47254160D01*
X56489317Y-47038286D01*
X56532933Y-47002491D01*
X56675768Y-46828447D01*
X56781903Y-46629881D01*
X56847261Y-46414425D01*
X56863800Y-46246504D01*
X56863800Y-46246496D01*
X56869329Y-46190358D01*
X56863800Y-46134219D01*
X56863800Y-36078160D01*
X63741861Y-36078160D01*
X63798000Y-36083689D01*
X63854139Y-36078160D01*
X63854146Y-36078160D01*
X64022067Y-36061621D01*
X64237523Y-35996263D01*
X64436089Y-35890128D01*
X64609319Y-35747961D01*
X69932956Y-35747961D01*
X70859200Y-36674206D01*
X70859200Y-37091845D01*
X70791359Y-37218767D01*
X70732176Y-37413865D01*
X70712193Y-37616760D01*
X70732176Y-37819655D01*
X70791359Y-38014753D01*
X70879092Y-38178891D01*
X70865751Y-38182938D01*
X70737787Y-38251336D01*
X70625625Y-38343385D01*
X70602554Y-38371497D01*
X70236932Y-38737119D01*
X70208826Y-38760185D01*
X70185760Y-38788291D01*
X70185758Y-38788293D01*
X70116776Y-38872348D01*
X70048378Y-39000313D01*
X70045088Y-39011159D01*
X70009555Y-39128298D01*
X70006259Y-39139162D01*
X69992036Y-39283560D01*
X69995601Y-39319753D01*
X69995600Y-45118027D01*
X69992036Y-45154210D01*
X69995600Y-45190393D01*
X69995600Y-45190395D01*
X70006258Y-45298608D01*
X70048378Y-45437458D01*
X70116776Y-45565422D01*
X70208825Y-45677584D01*
X70236932Y-45700651D01*
X70695500Y-46159220D01*
X70695500Y-46177774D01*
X70732592Y-46364248D01*
X70805351Y-46539904D01*
X70910980Y-46697989D01*
X71045421Y-46832430D01*
X71203506Y-46938059D01*
X71379162Y-47010818D01*
X71565636Y-47047910D01*
X71755764Y-47047910D01*
X71942238Y-47010818D01*
X72117894Y-46938059D01*
X72275979Y-46832430D01*
X72410420Y-46697989D01*
X72516049Y-46539904D01*
X72588808Y-46364248D01*
X72625900Y-46177774D01*
X72625900Y-45987646D01*
X72588808Y-45801172D01*
X72516049Y-45625516D01*
X72410420Y-45467431D01*
X72275979Y-45332990D01*
X72117894Y-45227361D01*
X71942238Y-45154602D01*
X71755764Y-45117510D01*
X71737210Y-45117510D01*
X71523090Y-44903391D01*
X71716450Y-44901760D01*
X71875200Y-44743010D01*
X71875200Y-43993760D01*
X72129200Y-43993760D01*
X72129200Y-44743010D01*
X72287950Y-44901760D01*
X72652200Y-44904832D01*
X72776682Y-44892572D01*
X72896380Y-44856262D01*
X73006694Y-44797297D01*
X73103385Y-44717945D01*
X73182737Y-44621254D01*
X73241702Y-44510940D01*
X73278012Y-44391242D01*
X73290272Y-44266760D01*
X73287200Y-44152510D01*
X73128450Y-43993760D01*
X72129200Y-43993760D01*
X71875200Y-43993760D01*
X71855200Y-43993760D01*
X71855200Y-43739760D01*
X71875200Y-43739760D01*
X71875200Y-43719760D01*
X72129200Y-43719760D01*
X72129200Y-43739760D01*
X73128450Y-43739760D01*
X73287200Y-43581010D01*
X73290272Y-43466760D01*
X73278012Y-43342278D01*
X73241702Y-43222580D01*
X73182737Y-43112266D01*
X73169525Y-43096167D01*
X73213041Y-43014753D01*
X73256417Y-42871760D01*
X73435128Y-42871760D01*
X73447388Y-42996242D01*
X73483698Y-43115940D01*
X73542663Y-43226254D01*
X73622015Y-43322945D01*
X73718706Y-43402297D01*
X73829020Y-43461262D01*
X73948718Y-43497572D01*
X74073200Y-43509832D01*
X74637450Y-43506760D01*
X74796200Y-43348010D01*
X74796200Y-42148760D01*
X75050200Y-42148760D01*
X75050200Y-43348010D01*
X75208950Y-43506760D01*
X75773200Y-43509832D01*
X75897682Y-43497572D01*
X76017380Y-43461262D01*
X76127694Y-43402297D01*
X76224385Y-43322945D01*
X76303737Y-43226254D01*
X76362702Y-43115940D01*
X76399012Y-42996242D01*
X76411272Y-42871760D01*
X76408200Y-42307510D01*
X76249450Y-42148760D01*
X75050200Y-42148760D01*
X74796200Y-42148760D01*
X73596950Y-42148760D01*
X73438200Y-42307510D01*
X73435128Y-42871760D01*
X73256417Y-42871760D01*
X73272224Y-42819655D01*
X73292207Y-42616760D01*
X73272224Y-42413865D01*
X73213041Y-42218767D01*
X73116934Y-42038963D01*
X73078196Y-41991760D01*
X73116934Y-41944557D01*
X73213041Y-41764753D01*
X73272224Y-41569655D01*
X73292207Y-41366760D01*
X73272224Y-41163865D01*
X73213041Y-40968767D01*
X73116934Y-40788963D01*
X73078196Y-40741760D01*
X73116934Y-40694557D01*
X73213041Y-40514753D01*
X73272224Y-40319655D01*
X73292207Y-40116760D01*
X73272224Y-39913865D01*
X73213041Y-39718767D01*
X73116934Y-39538963D01*
X73078196Y-39491760D01*
X73086402Y-39481760D01*
X73431015Y-39481760D01*
X73459687Y-39772871D01*
X73544601Y-40052794D01*
X73682494Y-40310774D01*
X73868066Y-40536894D01*
X73897887Y-40561367D01*
X73829020Y-40582258D01*
X73718706Y-40641223D01*
X73622015Y-40720575D01*
X73542663Y-40817266D01*
X73483698Y-40927580D01*
X73447388Y-41047278D01*
X73435128Y-41171760D01*
X73438200Y-41736010D01*
X73596950Y-41894760D01*
X74796200Y-41894760D01*
X74796200Y-41874760D01*
X75050200Y-41874760D01*
X75050200Y-41894760D01*
X76249450Y-41894760D01*
X76408200Y-41736010D01*
X76411272Y-41171760D01*
X76399012Y-41047278D01*
X76362702Y-40927580D01*
X76303737Y-40817266D01*
X76224385Y-40720575D01*
X76127694Y-40641223D01*
X76017380Y-40582258D01*
X75948513Y-40561367D01*
X75978334Y-40536894D01*
X76163906Y-40310774D01*
X76301799Y-40052794D01*
X76386713Y-39772871D01*
X76415385Y-39481760D01*
X76386713Y-39190649D01*
X76301799Y-38910726D01*
X76163906Y-38652746D01*
X75978334Y-38426626D01*
X75752214Y-38241054D01*
X75494234Y-38103161D01*
X75214311Y-38018247D01*
X74996150Y-37996760D01*
X74850250Y-37996760D01*
X74632089Y-38018247D01*
X74352166Y-38103161D01*
X74094186Y-38241054D01*
X73868066Y-38426626D01*
X73682494Y-38652746D01*
X73544601Y-38910726D01*
X73459687Y-39190649D01*
X73431015Y-39481760D01*
X73086402Y-39481760D01*
X73116934Y-39444557D01*
X73213041Y-39264753D01*
X73272224Y-39069655D01*
X73292207Y-38866760D01*
X73272224Y-38663865D01*
X73213041Y-38468767D01*
X73116934Y-38288963D01*
X73078196Y-38241760D01*
X73116934Y-38194557D01*
X73213041Y-38014753D01*
X73272224Y-37819655D01*
X73292207Y-37616760D01*
X73272224Y-37413865D01*
X73213041Y-37218767D01*
X73145200Y-37091845D01*
X73145200Y-36256899D01*
X73150729Y-36200760D01*
X73145200Y-36144621D01*
X73145200Y-36144614D01*
X73128661Y-35976693D01*
X73102402Y-35890128D01*
X73063303Y-35761236D01*
X72999043Y-35641014D01*
X72957168Y-35562671D01*
X72814333Y-35388627D01*
X72770723Y-35352837D01*
X71691845Y-34273960D01*
X74559149Y-34273960D01*
X74552728Y-34339160D01*
X74552728Y-36039160D01*
X74564988Y-36163642D01*
X74601298Y-36283340D01*
X74660263Y-36393654D01*
X74739615Y-36490345D01*
X74836306Y-36569697D01*
X74946620Y-36628662D01*
X75066318Y-36664972D01*
X75190800Y-36677232D01*
X76803601Y-36677232D01*
X76803600Y-44790360D01*
X74637818Y-44790360D01*
X74613042Y-44792800D01*
X74589217Y-44800027D01*
X74567261Y-44811763D01*
X74548015Y-44827557D01*
X74532221Y-44846803D01*
X74520485Y-44868759D01*
X74513258Y-44892584D01*
X74510818Y-44917360D01*
X74510818Y-47229560D01*
X74010185Y-47229560D01*
X73939810Y-47229224D01*
X73907205Y-47232264D01*
X73874456Y-47232035D01*
X73864938Y-47232969D01*
X73268320Y-47295675D01*
X73207509Y-47308158D01*
X73146518Y-47319793D01*
X73137362Y-47322557D01*
X72564286Y-47499954D01*
X72507032Y-47524022D01*
X72449488Y-47547271D01*
X72441043Y-47551761D01*
X72236176Y-47662532D01*
X72231424Y-47663000D01*
X72207599Y-47670227D01*
X72185643Y-47681963D01*
X72166397Y-47697757D01*
X72160944Y-47703210D01*
X71913338Y-47837090D01*
X71861881Y-47871798D01*
X71809917Y-47905803D01*
X71802505Y-47911848D01*
X71340271Y-48294242D01*
X71296524Y-48338295D01*
X71252167Y-48381733D01*
X71246070Y-48389103D01*
X70866913Y-48853995D01*
X70832557Y-48905706D01*
X70797480Y-48956934D01*
X70792934Y-48965343D01*
X70792931Y-48965347D01*
X70792931Y-48965348D01*
X70672718Y-49191436D01*
X70185197Y-49678957D01*
X70169403Y-49698203D01*
X70157667Y-49720159D01*
X70150440Y-49743984D01*
X70148000Y-49768760D01*
X70148000Y-53808160D01*
X31870200Y-53808160D01*
X31870200Y-45526960D01*
X31867760Y-45502184D01*
X31860533Y-45478359D01*
X31848797Y-45456403D01*
X31833003Y-45437157D01*
X31813757Y-45421363D01*
X31791801Y-45409627D01*
X31767976Y-45402400D01*
X31743200Y-45399960D01*
X28211800Y-45399960D01*
X28211800Y-44893250D01*
X36372324Y-44893250D01*
X36416975Y-45040459D01*
X36542159Y-45303280D01*
X36716212Y-45536629D01*
X36932445Y-45731538D01*
X37182548Y-45880517D01*
X37456909Y-45977841D01*
X37686800Y-45857174D01*
X37686800Y-44663360D01*
X36493645Y-44663360D01*
X36372324Y-44893250D01*
X28211800Y-44893250D01*
X28211800Y-31987960D01*
X31289597Y-31987960D01*
X31226339Y-32196493D01*
M02*
