M48
; DRILL file {KiCad (5.1.4)-1} date 10/03/2020 21:25:54
; FORMAT={-:-/ absolute / inch / decimal}
; #@! TF.CreationDate,2020-03-10T21:25:54+00:00
; #@! TF.GenerationSoftware,Kicad,Pcbnew,(5.1.4)-1
FMAT,2
INCH
T1C0.0354
T2C0.0394
T3C0.0433
T4C0.1083
T5C0.1181
T6C0.1575
%
G90
G05
T1
X0.9595Y-1.0524
X0.9595Y-1.1524
X1.0595Y-1.0524
X1.0595Y-1.1524
X1.1595Y-1.0524
X1.1595Y-1.1524
X1.2595Y-1.0524
X1.2595Y-1.1524
X1.3595Y-1.0524
X1.3595Y-1.1524
X1.4595Y-1.0524
X1.4595Y-1.1524
X1.5595Y-1.0524
X1.5595Y-1.1524
X1.6595Y-1.0524
X1.6595Y-1.1524
X1.7595Y-1.0524
X1.7595Y-1.1524
X1.8595Y-1.0524
X1.8595Y-1.1524
X1.9595Y-1.0524
X1.9595Y-1.1524
X2.0595Y-1.0524
X2.0595Y-1.1524
X2.1595Y-1.0524
X2.1595Y-1.1524
X2.2595Y-1.0524
X2.2595Y-1.1524
X2.3595Y-1.0524
X2.3595Y-1.1524
X2.4595Y-1.0524
X2.4595Y-1.1524
X2.5595Y-1.0524
X2.5595Y-1.1524
X2.6595Y-1.0524
X2.6595Y-1.1524
X2.7595Y-1.0524
X2.7595Y-1.1524
X2.8595Y-1.0524
X2.8595Y-1.1524
X2.7595Y-1.2524
X2.8595Y-1.2524
T2
X2.6614Y-1.3013
X2.6614Y-1.4013
X2.6614Y-1.5013
X2.6614Y-1.6013
X2.6614Y-1.7013
X2.6614Y-1.8013
X2.7595Y-1.5014
X2.7595Y-1.6014
X2.7595Y-1.7014
X2.7595Y-1.8014
X0.9595Y-1.8524
X1.0595Y-1.8524
X0.9595Y-1.3524
X0.9595Y-1.4524
X0.9595Y-1.5524
X0.9595Y-1.6524
X0.9595Y-1.7524
X1.0595Y-1.3524
X1.0595Y-1.4524
X1.0595Y-1.5524
X1.0595Y-1.6524
X1.0595Y-1.7524
T3
X1.7836Y-1.9152
X1.7836Y-2.0924
X2.0395Y-1.9152
X2.0395Y-2.0924
X1.1636Y-1.9152
X1.1636Y-2.0924
X1.4195Y-1.9152
X1.4195Y-2.0924
X2.9574Y-1.4524
X2.9574Y-1.7083
X3.1345Y-1.4524
X3.1345Y-1.7083
X2.4036Y-1.9152
X2.4036Y-2.0924
X2.6595Y-1.9152
X2.6595Y-2.0924
T4
X0.7677Y-2.0079
X3.0512Y-2.0079
X0.7677Y-1.1024
X3.0512Y-1.1024
T5
X2.8645Y-2.0038
X0.9586Y-2.0038
T6
X3.0459Y-1.5804
X1.2916Y-2.0038
X1.9116Y-2.0038
X2.5316Y-2.0038
T0
M30
