G04 #@! TF.GenerationSoftware,KiCad,Pcbnew,(5.1.4)-1*
G04 #@! TF.CreationDate,2020-03-10T21:25:51+00:00*
G04 #@! TF.ProjectId,rgb-to-hdmi,7267622d-746f-42d6-9864-6d692e6b6963,rev?*
G04 #@! TF.SameCoordinates,Original*
G04 #@! TF.FileFunction,Copper,L1,Top*
G04 #@! TF.FilePolarity,Positive*
%FSLAX46Y46*%
G04 Gerber Fmt 4.6, Leading zero omitted, Abs format (unit mm)*
G04 Created by KiCad (PCBNEW (5.1.4)-1) date 2020-03-10 21:25:51*
%MOMM*%
%LPD*%
G04 APERTURE LIST*
%ADD10R,1.700000X1.700000*%
%ADD11O,1.700000X1.700000*%
%ADD12C,2.000000*%
%ADD13C,0.381000*%
G04 APERTURE END LIST*
D10*
X24372000Y-44510960D03*
D11*
X26912000Y-44510960D03*
X24372000Y-41970960D03*
X26912000Y-41970960D03*
X24372000Y-39430960D03*
X26912000Y-39430960D03*
X24372000Y-36890960D03*
X26912000Y-36890960D03*
X24372000Y-34350960D03*
X26912000Y-34350960D03*
D10*
X70092000Y-38135560D03*
D11*
X70092000Y-40675560D03*
X70092000Y-43215560D03*
X70092000Y-45755560D03*
D10*
X67600800Y-33054001D03*
D11*
X67600800Y-35594001D03*
X67600800Y-38134001D03*
X67600800Y-40674001D03*
X67600800Y-43214001D03*
X67600800Y-45754001D03*
D12*
X29556000Y-53146960D03*
X29556000Y-48646960D03*
X36056000Y-53146960D03*
X36056000Y-48646960D03*
X51804000Y-48646960D03*
X51804000Y-53146960D03*
X45304000Y-48646960D03*
X45304000Y-53146960D03*
X67552000Y-48646960D03*
X67552000Y-53146960D03*
X61052000Y-48646960D03*
X61052000Y-53146960D03*
X79617000Y-43390960D03*
X75117000Y-43390960D03*
X79617000Y-36890960D03*
X75117000Y-36890960D03*
D10*
X24372000Y-47050960D03*
D11*
X26912000Y-47050960D03*
X24372000Y-29270960D03*
X24372000Y-26730960D03*
X26912000Y-29270960D03*
X26912000Y-26730960D03*
X29452000Y-29270960D03*
X29452000Y-26730960D03*
X31992000Y-29270960D03*
X31992000Y-26730960D03*
X34532000Y-29270960D03*
X34532000Y-26730960D03*
X37072000Y-29270960D03*
X37072000Y-26730960D03*
X39612000Y-29270960D03*
X39612000Y-26730960D03*
X42152000Y-29270960D03*
X42152000Y-26730960D03*
X44692000Y-29270960D03*
X44692000Y-26730960D03*
X47232000Y-29270960D03*
X47232000Y-26730960D03*
X49772000Y-29270960D03*
X49772000Y-26730960D03*
X52312000Y-29270960D03*
X52312000Y-26730960D03*
X54852000Y-29270960D03*
X54852000Y-26730960D03*
X57392000Y-29270960D03*
X57392000Y-26730960D03*
X59932000Y-29270960D03*
X59932000Y-26730960D03*
X62472000Y-29270960D03*
X62472000Y-26730960D03*
X65012000Y-29270960D03*
X65012000Y-26730960D03*
X67552000Y-29270960D03*
X67552000Y-26730960D03*
X70092000Y-29270960D03*
X70092000Y-26730960D03*
X72632000Y-29270960D03*
X72632000Y-26730960D03*
D10*
X70092000Y-31810960D03*
D11*
X72632000Y-31810960D03*
D13*
X74117001Y-37890959D02*
X75117000Y-36890960D01*
X75117000Y-43390960D02*
X74117001Y-42390961D01*
X74117001Y-42390961D02*
X74117001Y-37890959D01*
X70092000Y-31865960D02*
X70092000Y-31810960D01*
X75117000Y-36890960D02*
X70092000Y-31865960D01*
X74537000Y-31810960D02*
X72632000Y-31810960D01*
X79617000Y-36890960D02*
X74537000Y-31810960D01*
X79617000Y-42915960D02*
X79617000Y-43390960D01*
X80372000Y-42160960D02*
X79617000Y-42915960D01*
X80372000Y-38130960D02*
X80372000Y-42160960D01*
X79617000Y-36890960D02*
X79617000Y-37375960D01*
X79617000Y-37375960D02*
X80372000Y-38130960D01*
X35626000Y-53146960D02*
X36056000Y-53146960D01*
X34852000Y-53920960D02*
X35626000Y-53146960D01*
X30832000Y-53920960D02*
X34852000Y-53920960D01*
X29556000Y-53146960D02*
X30058000Y-53146960D01*
X30058000Y-53146960D02*
X30832000Y-53920960D01*
X35056001Y-47646961D02*
X36056000Y-48646960D01*
X29556000Y-48646960D02*
X30555999Y-47646961D01*
X30555999Y-47646961D02*
X35056001Y-47646961D01*
X50804001Y-47646961D02*
X51804000Y-48646960D01*
X45304000Y-48646960D02*
X46303999Y-47646961D01*
X46303999Y-47646961D02*
X50804001Y-47646961D01*
X51366000Y-53146960D02*
X51804000Y-53146960D01*
X50592000Y-53920960D02*
X51366000Y-53146960D01*
X46552000Y-53920960D02*
X50592000Y-53920960D01*
X45304000Y-53146960D02*
X45778000Y-53146960D01*
X45778000Y-53146960D02*
X46552000Y-53920960D01*
X66552001Y-47646961D02*
X67552000Y-48646960D01*
X61052000Y-48646960D02*
X62051999Y-47646961D01*
X62051999Y-47646961D02*
X66552001Y-47646961D01*
X67156000Y-53146960D02*
X67552000Y-53146960D01*
X66402000Y-53900960D02*
X67156000Y-53146960D01*
X62342000Y-53900960D02*
X66402000Y-53900960D01*
X61052000Y-53146960D02*
X61588000Y-53146960D01*
X61588000Y-53146960D02*
X62342000Y-53900960D01*
M02*
