G04 #@! TF.GenerationSoftware,KiCad,Pcbnew,(5.1.4)-1*
G04 #@! TF.CreationDate,2020-03-10T21:25:51+00:00*
G04 #@! TF.ProjectId,rgb-to-hdmi,7267622d-746f-42d6-9864-6d692e6b6963,rev?*
G04 #@! TF.SameCoordinates,Original*
G04 #@! TF.FileFunction,Legend,Top*
G04 #@! TF.FilePolarity,Positive*
%FSLAX46Y46*%
G04 Gerber Fmt 4.6, Leading zero omitted, Abs format (unit mm)*
G04 Created by KiCad (PCBNEW (5.1.4)-1) date 2020-03-10 21:25:51*
%MOMM*%
%LPD*%
G04 APERTURE LIST*
%ADD10C,0.250000*%
%ADD11C,0.150000*%
%ADD12C,0.120000*%
%ADD13C,0.130000*%
G04 APERTURE END LIST*
D10*
X34289619Y-40075721D02*
X34289619Y-38075721D01*
X35432476Y-40075721D01*
X35432476Y-38075721D01*
X36765809Y-38075721D02*
X37146761Y-38075721D01*
X37337238Y-38170960D01*
X37527714Y-38361436D01*
X37622952Y-38742388D01*
X37622952Y-39409055D01*
X37527714Y-39790007D01*
X37337238Y-39980483D01*
X37146761Y-40075721D01*
X36765809Y-40075721D01*
X36575333Y-39980483D01*
X36384857Y-39790007D01*
X36289619Y-39409055D01*
X36289619Y-38742388D01*
X36384857Y-38361436D01*
X36575333Y-38170960D01*
X36765809Y-38075721D01*
X39718190Y-38075721D02*
X40861047Y-38075721D01*
X40289619Y-40075721D02*
X40289619Y-38075721D01*
X42670571Y-40075721D02*
X42003904Y-39123340D01*
X41527714Y-40075721D02*
X41527714Y-38075721D01*
X42289619Y-38075721D01*
X42480095Y-38170960D01*
X42575333Y-38266198D01*
X42670571Y-38456674D01*
X42670571Y-38742388D01*
X42575333Y-38932864D01*
X42480095Y-39028102D01*
X42289619Y-39123340D01*
X41527714Y-39123340D01*
X43432476Y-39504293D02*
X44384857Y-39504293D01*
X43242000Y-40075721D02*
X43908666Y-38075721D01*
X44575333Y-40075721D01*
X46384857Y-39885245D02*
X46289619Y-39980483D01*
X46003904Y-40075721D01*
X45813428Y-40075721D01*
X45527714Y-39980483D01*
X45337238Y-39790007D01*
X45242000Y-39599531D01*
X45146761Y-39218579D01*
X45146761Y-38932864D01*
X45242000Y-38551912D01*
X45337238Y-38361436D01*
X45527714Y-38170960D01*
X45813428Y-38075721D01*
X46003904Y-38075721D01*
X46289619Y-38170960D01*
X46384857Y-38266198D01*
X47242000Y-40075721D02*
X47242000Y-38075721D01*
X48384857Y-40075721D02*
X47527714Y-38932864D01*
X48384857Y-38075721D02*
X47242000Y-39218579D01*
X49146761Y-39980483D02*
X49432476Y-40075721D01*
X49908666Y-40075721D01*
X50099142Y-39980483D01*
X50194380Y-39885245D01*
X50289619Y-39694769D01*
X50289619Y-39504293D01*
X50194380Y-39313817D01*
X50099142Y-39218579D01*
X49908666Y-39123340D01*
X49527714Y-39028102D01*
X49337238Y-38932864D01*
X49242000Y-38837626D01*
X49146761Y-38647150D01*
X49146761Y-38456674D01*
X49242000Y-38266198D01*
X49337238Y-38170960D01*
X49527714Y-38075721D01*
X50003904Y-38075721D01*
X50289619Y-38170960D01*
D11*
X75976184Y-34460440D02*
X75642851Y-33984250D01*
X75404756Y-34460440D02*
X75404756Y-33460440D01*
X75785708Y-33460440D01*
X75880946Y-33508060D01*
X75928565Y-33555679D01*
X75976184Y-33650917D01*
X75976184Y-33793774D01*
X75928565Y-33889012D01*
X75880946Y-33936631D01*
X75785708Y-33984250D01*
X75404756Y-33984250D01*
X76785708Y-34412821D02*
X76690470Y-34460440D01*
X76499994Y-34460440D01*
X76404756Y-34412821D01*
X76357137Y-34317583D01*
X76357137Y-33936631D01*
X76404756Y-33841393D01*
X76499994Y-33793774D01*
X76690470Y-33793774D01*
X76785708Y-33841393D01*
X76833327Y-33936631D01*
X76833327Y-34031869D01*
X76357137Y-34127107D01*
X77214280Y-34412821D02*
X77309518Y-34460440D01*
X77499994Y-34460440D01*
X77595232Y-34412821D01*
X77642851Y-34317583D01*
X77642851Y-34269964D01*
X77595232Y-34174726D01*
X77499994Y-34127107D01*
X77357137Y-34127107D01*
X77261899Y-34079488D01*
X77214280Y-33984250D01*
X77214280Y-33936631D01*
X77261899Y-33841393D01*
X77357137Y-33793774D01*
X77499994Y-33793774D01*
X77595232Y-33841393D01*
X78452375Y-34412821D02*
X78357137Y-34460440D01*
X78166660Y-34460440D01*
X78071422Y-34412821D01*
X78023803Y-34317583D01*
X78023803Y-33936631D01*
X78071422Y-33841393D01*
X78166660Y-33793774D01*
X78357137Y-33793774D01*
X78452375Y-33841393D01*
X78499994Y-33936631D01*
X78499994Y-34031869D01*
X78023803Y-34127107D01*
X78785708Y-33793774D02*
X79166660Y-33793774D01*
X78928565Y-33460440D02*
X78928565Y-34317583D01*
X78976184Y-34412821D01*
X79071422Y-34460440D01*
X79166660Y-34460440D01*
D12*
X21974380Y-47572864D02*
X22507714Y-48372864D01*
X22507714Y-47572864D02*
X21974380Y-48372864D01*
X23231523Y-48372864D02*
X22774380Y-48372864D01*
X23002952Y-48372864D02*
X23002952Y-47572864D01*
X22926761Y-47687150D01*
X22850571Y-47763340D01*
X22774380Y-47801436D01*
X28354380Y-46442864D02*
X28887714Y-47242864D01*
X28887714Y-46442864D02*
X28354380Y-47242864D01*
X29154380Y-46519055D02*
X29192476Y-46480960D01*
X29268666Y-46442864D01*
X29459142Y-46442864D01*
X29535333Y-46480960D01*
X29573428Y-46519055D01*
X29611523Y-46595245D01*
X29611523Y-46671436D01*
X29573428Y-46785721D01*
X29116285Y-47242864D01*
X29611523Y-47242864D01*
D11*
X25642000Y-35620960D02*
X25184800Y-35163760D01*
X26150000Y-35620960D02*
X25642000Y-35620960D01*
X25642000Y-45780960D02*
X25438800Y-45577760D01*
X26150000Y-45780960D02*
X25642000Y-45780960D01*
X25642000Y-43240960D02*
X25184800Y-42783760D01*
X26150000Y-43240960D02*
X25642000Y-43240960D01*
X25642000Y-40700960D02*
X25184800Y-40243760D01*
X26175400Y-40700960D02*
X25642000Y-40700960D01*
X25642000Y-38160960D02*
X25184800Y-37703760D01*
X26150000Y-38160960D02*
X25642000Y-38160960D01*
D12*
X71305091Y-46252084D02*
X71305091Y-45452084D01*
X71609853Y-45452084D01*
X71686043Y-45490180D01*
X71724139Y-45528275D01*
X71762234Y-45604465D01*
X71762234Y-45718751D01*
X71724139Y-45794941D01*
X71686043Y-45833037D01*
X71609853Y-45871132D01*
X71305091Y-45871132D01*
X72524139Y-46252084D02*
X72066996Y-46252084D01*
X72295567Y-46252084D02*
X72295567Y-45452084D01*
X72219377Y-45566370D01*
X72143186Y-45642560D01*
X72066996Y-45680656D01*
X72905091Y-46252084D02*
X73057472Y-46252084D01*
X73133662Y-46213989D01*
X73171758Y-46175894D01*
X73247948Y-46061608D01*
X73286043Y-45909227D01*
X73286043Y-45604465D01*
X73247948Y-45528275D01*
X73209853Y-45490180D01*
X73133662Y-45452084D01*
X72981281Y-45452084D01*
X72905091Y-45490180D01*
X72866996Y-45528275D01*
X72828900Y-45604465D01*
X72828900Y-45794941D01*
X72866996Y-45871132D01*
X72905091Y-45909227D01*
X72981281Y-45947322D01*
X73133662Y-45947322D01*
X73209853Y-45909227D01*
X73247948Y-45871132D01*
X73286043Y-45794941D01*
X71294926Y-43597789D02*
X71409212Y-43635884D01*
X71599688Y-43635884D01*
X71675879Y-43597789D01*
X71713974Y-43559694D01*
X71752069Y-43483503D01*
X71752069Y-43407313D01*
X71713974Y-43331122D01*
X71675879Y-43293027D01*
X71599688Y-43254932D01*
X71447307Y-43216837D01*
X71371117Y-43178741D01*
X71333021Y-43140646D01*
X71294926Y-43064456D01*
X71294926Y-42988265D01*
X71333021Y-42912075D01*
X71371117Y-42873980D01*
X71447307Y-42835884D01*
X71637783Y-42835884D01*
X71752069Y-42873980D01*
X71980640Y-42835884D02*
X72437783Y-42835884D01*
X72209212Y-43635884D02*
X72209212Y-42835884D01*
X72971117Y-43216837D02*
X73085402Y-43254932D01*
X73123498Y-43293027D01*
X73161593Y-43369218D01*
X73161593Y-43483503D01*
X73123498Y-43559694D01*
X73085402Y-43597789D01*
X73009212Y-43635884D01*
X72704450Y-43635884D01*
X72704450Y-42835884D01*
X72971117Y-42835884D01*
X73047307Y-42873980D01*
X73085402Y-42912075D01*
X73123498Y-42988265D01*
X73123498Y-43064456D01*
X73085402Y-43140646D01*
X73047307Y-43178741D01*
X72971117Y-43216837D01*
X72704450Y-43216837D01*
X71312697Y-38586364D02*
X71312697Y-37786364D01*
X71503173Y-37786364D01*
X71617459Y-37824460D01*
X71693649Y-37900650D01*
X71731744Y-37976840D01*
X71769840Y-38129221D01*
X71769840Y-38243507D01*
X71731744Y-38395888D01*
X71693649Y-38472079D01*
X71617459Y-38548269D01*
X71503173Y-38586364D01*
X71312697Y-38586364D01*
X72074601Y-38357793D02*
X72455554Y-38357793D01*
X71998411Y-38586364D02*
X72265078Y-37786364D01*
X72531744Y-38586364D01*
X72684125Y-37786364D02*
X73141268Y-37786364D01*
X72912697Y-38586364D02*
X72912697Y-37786364D01*
X71823189Y-41080654D02*
X71785094Y-41118749D01*
X71670808Y-41156844D01*
X71594618Y-41156844D01*
X71480332Y-41118749D01*
X71404141Y-41042559D01*
X71366046Y-40966368D01*
X71327951Y-40813987D01*
X71327951Y-40699701D01*
X71366046Y-40547320D01*
X71404141Y-40471130D01*
X71480332Y-40394940D01*
X71594618Y-40356844D01*
X71670808Y-40356844D01*
X71785094Y-40394940D01*
X71823189Y-40433035D01*
X72546999Y-41156844D02*
X72166046Y-41156844D01*
X72166046Y-40356844D01*
X72813665Y-41156844D02*
X72813665Y-40356844D01*
X73270808Y-41156844D02*
X72927951Y-40699701D01*
X73270808Y-40356844D02*
X72813665Y-40813987D01*
D11*
X61127533Y-31517340D02*
X61127533Y-32231626D01*
X61079914Y-32374483D01*
X60984676Y-32469721D01*
X60841819Y-32517340D01*
X60746580Y-32517340D01*
X61460866Y-31517340D02*
X62032295Y-31517340D01*
X61746580Y-32517340D02*
X61746580Y-31517340D01*
X62318009Y-32231626D02*
X62794200Y-32231626D01*
X62222771Y-32517340D02*
X62556104Y-31517340D01*
X62889438Y-32517340D01*
X63746580Y-31564960D02*
X63651342Y-31517340D01*
X63508485Y-31517340D01*
X63365628Y-31564960D01*
X63270390Y-31660198D01*
X63222771Y-31755436D01*
X63175152Y-31945912D01*
X63175152Y-32088769D01*
X63222771Y-32279245D01*
X63270390Y-32374483D01*
X63365628Y-32469721D01*
X63508485Y-32517340D01*
X63603723Y-32517340D01*
X63746580Y-32469721D01*
X63794200Y-32422102D01*
X63794200Y-32088769D01*
X63603723Y-32088769D01*
X30214000Y-45780960D02*
X26150000Y-45780960D01*
X30705809Y-45123340D02*
X30801047Y-45123340D01*
X30896285Y-45170960D01*
X30943904Y-45218579D01*
X30991523Y-45313817D01*
X31039142Y-45504293D01*
X31039142Y-45742388D01*
X30991523Y-45932864D01*
X30943904Y-46028102D01*
X30896285Y-46075721D01*
X30801047Y-46123340D01*
X30705809Y-46123340D01*
X30610571Y-46075721D01*
X30562952Y-46028102D01*
X30515333Y-45932864D01*
X30467714Y-45742388D01*
X30467714Y-45504293D01*
X30515333Y-45313817D01*
X30562952Y-45218579D01*
X30610571Y-45170960D01*
X30705809Y-45123340D01*
X31324857Y-45123340D02*
X31658190Y-46123340D01*
X31991523Y-45123340D01*
X30214000Y-35620960D02*
X26150000Y-35620960D01*
X30214000Y-38160960D02*
X26150000Y-38160960D01*
X30214000Y-40700960D02*
X26150000Y-40700960D01*
X30214000Y-43240960D02*
X26150000Y-43240960D01*
X30480571Y-43663340D02*
X30480571Y-42996674D01*
X30480571Y-43187150D02*
X30528190Y-43091912D01*
X30575809Y-43044293D01*
X30671047Y-42996674D01*
X30766285Y-42996674D01*
X31101523Y-41183340D02*
X30768190Y-40707150D01*
X30530095Y-41183340D02*
X30530095Y-40183340D01*
X30911047Y-40183340D01*
X31006285Y-40230960D01*
X31053904Y-40278579D01*
X31101523Y-40373817D01*
X31101523Y-40516674D01*
X31053904Y-40611912D01*
X31006285Y-40659531D01*
X30911047Y-40707150D01*
X30530095Y-40707150D01*
X31093904Y-37660960D02*
X30998666Y-37613340D01*
X30855809Y-37613340D01*
X30712952Y-37660960D01*
X30617714Y-37756198D01*
X30570095Y-37851436D01*
X30522476Y-38041912D01*
X30522476Y-38184769D01*
X30570095Y-38375245D01*
X30617714Y-38470483D01*
X30712952Y-38565721D01*
X30855809Y-38613340D01*
X30951047Y-38613340D01*
X31093904Y-38565721D01*
X31141523Y-38518102D01*
X31141523Y-38184769D01*
X30951047Y-38184769D01*
X30863428Y-35599531D02*
X31006285Y-35647150D01*
X31053904Y-35694769D01*
X31101523Y-35790007D01*
X31101523Y-35932864D01*
X31053904Y-36028102D01*
X31006285Y-36075721D01*
X30911047Y-36123340D01*
X30530095Y-36123340D01*
X30530095Y-35123340D01*
X30863428Y-35123340D01*
X30958666Y-35170960D01*
X31006285Y-35218579D01*
X31053904Y-35313817D01*
X31053904Y-35409055D01*
X31006285Y-35504293D01*
X30958666Y-35551912D01*
X30863428Y-35599531D01*
X30530095Y-35599531D01*
X28866285Y-43986674D02*
X28866285Y-44796198D01*
X28818666Y-44891436D01*
X28771047Y-44939055D01*
X28675809Y-44986674D01*
X28532952Y-44986674D01*
X28437714Y-44939055D01*
X28866285Y-44605721D02*
X28771047Y-44653340D01*
X28580571Y-44653340D01*
X28485333Y-44605721D01*
X28437714Y-44558102D01*
X28390095Y-44462864D01*
X28390095Y-44177150D01*
X28437714Y-44081912D01*
X28485333Y-44034293D01*
X28580571Y-43986674D01*
X28771047Y-43986674D01*
X28866285Y-44034293D01*
X28357714Y-42463340D02*
X28357714Y-41463340D01*
X28357714Y-41844293D02*
X28452952Y-41796674D01*
X28643428Y-41796674D01*
X28738666Y-41844293D01*
X28786285Y-41891912D01*
X28833904Y-41987150D01*
X28833904Y-42272864D01*
X28786285Y-42368102D01*
X28738666Y-42415721D01*
X28643428Y-42463340D01*
X28452952Y-42463340D01*
X28357714Y-42415721D01*
X28370095Y-39933340D02*
X28370095Y-38933340D01*
X28370095Y-39409531D02*
X28941523Y-39409531D01*
X28941523Y-39933340D02*
X28941523Y-38933340D01*
X29370095Y-39885721D02*
X29512952Y-39933340D01*
X29751047Y-39933340D01*
X29846285Y-39885721D01*
X29893904Y-39838102D01*
X29941523Y-39742864D01*
X29941523Y-39647626D01*
X29893904Y-39552388D01*
X29846285Y-39504769D01*
X29751047Y-39457150D01*
X29560571Y-39409531D01*
X29465333Y-39361912D01*
X29417714Y-39314293D01*
X29370095Y-39219055D01*
X29370095Y-39123817D01*
X29417714Y-39028579D01*
X29465333Y-38980960D01*
X29560571Y-38933340D01*
X29798666Y-38933340D01*
X29941523Y-38980960D01*
X28352476Y-36343340D02*
X28685809Y-37343340D01*
X29019142Y-36343340D01*
X29304857Y-37295721D02*
X29447714Y-37343340D01*
X29685809Y-37343340D01*
X29781047Y-37295721D01*
X29828666Y-37248102D01*
X29876285Y-37152864D01*
X29876285Y-37057626D01*
X29828666Y-36962388D01*
X29781047Y-36914769D01*
X29685809Y-36867150D01*
X29495333Y-36819531D01*
X29400095Y-36771912D01*
X29352476Y-36724293D01*
X29304857Y-36629055D01*
X29304857Y-36533817D01*
X29352476Y-36438579D01*
X29400095Y-36390960D01*
X29495333Y-36343340D01*
X29733428Y-36343340D01*
X29876285Y-36390960D01*
X28891523Y-33843340D02*
X28415333Y-33843340D01*
X28367714Y-34319531D01*
X28415333Y-34271912D01*
X28510571Y-34224293D01*
X28748666Y-34224293D01*
X28843904Y-34271912D01*
X28891523Y-34319531D01*
X28939142Y-34414769D01*
X28939142Y-34652864D01*
X28891523Y-34748102D01*
X28843904Y-34795721D01*
X28748666Y-34843340D01*
X28510571Y-34843340D01*
X28415333Y-34795721D01*
X28367714Y-34748102D01*
X29224857Y-33843340D02*
X29558190Y-34843340D01*
X29891523Y-33843340D01*
D13*
X34115333Y-25523626D02*
X33882000Y-25190293D01*
X33715333Y-25523626D02*
X33715333Y-24823626D01*
X33982000Y-24823626D01*
X34048666Y-24856960D01*
X34082000Y-24890293D01*
X34115333Y-24956960D01*
X34115333Y-25056960D01*
X34082000Y-25123626D01*
X34048666Y-25156960D01*
X33982000Y-25190293D01*
X33715333Y-25190293D01*
X34348666Y-25523626D02*
X34715333Y-25056960D01*
X34348666Y-25056960D02*
X34715333Y-25523626D01*
X34982000Y-25523626D02*
X34982000Y-24823626D01*
X35148666Y-24823626D01*
X35248666Y-24856960D01*
X35315333Y-24923626D01*
X35348666Y-24990293D01*
X35382000Y-25123626D01*
X35382000Y-25223626D01*
X35348666Y-25356960D01*
X35315333Y-25423626D01*
X35248666Y-25490293D01*
X35148666Y-25523626D01*
X34982000Y-25523626D01*
X31158666Y-24823626D02*
X31558666Y-24823626D01*
X31358666Y-25523626D02*
X31358666Y-24823626D01*
X31725333Y-25523626D02*
X32092000Y-25056960D01*
X31725333Y-25056960D02*
X32092000Y-25523626D01*
X32358666Y-25523626D02*
X32358666Y-24823626D01*
X32525333Y-24823626D01*
X32625333Y-24856960D01*
X32692000Y-24923626D01*
X32725333Y-24990293D01*
X32758666Y-25123626D01*
X32758666Y-25223626D01*
X32725333Y-25356960D01*
X32692000Y-25423626D01*
X32625333Y-25490293D01*
X32525333Y-25523626D01*
X32358666Y-25523626D01*
X29002000Y-24856960D02*
X28935333Y-24823626D01*
X28835333Y-24823626D01*
X28735333Y-24856960D01*
X28668666Y-24923626D01*
X28635333Y-24990293D01*
X28602000Y-25123626D01*
X28602000Y-25223626D01*
X28635333Y-25356960D01*
X28668666Y-25423626D01*
X28735333Y-25490293D01*
X28835333Y-25523626D01*
X28902000Y-25523626D01*
X29002000Y-25490293D01*
X29035333Y-25456960D01*
X29035333Y-25223626D01*
X28902000Y-25223626D01*
X29335333Y-25056960D02*
X29335333Y-25523626D01*
X29335333Y-25123626D02*
X29368666Y-25090293D01*
X29435333Y-25056960D01*
X29535333Y-25056960D01*
X29602000Y-25090293D01*
X29635333Y-25156960D01*
X29635333Y-25523626D01*
X30268666Y-25523626D02*
X30268666Y-24823626D01*
X30268666Y-25490293D02*
X30202000Y-25523626D01*
X30068666Y-25523626D01*
X30002000Y-25490293D01*
X29968666Y-25456960D01*
X29935333Y-25390293D01*
X29935333Y-25190293D01*
X29968666Y-25123626D01*
X30002000Y-25090293D01*
X30068666Y-25056960D01*
X30202000Y-25056960D01*
X30268666Y-25090293D01*
D11*
X74060095Y-53973340D02*
X74060095Y-52973340D01*
X74631523Y-53973340D02*
X74202952Y-53401912D01*
X74631523Y-52973340D02*
X74060095Y-53544769D01*
X22460095Y-53913340D02*
X22460095Y-52913340D01*
X23031523Y-53913340D02*
X22602952Y-53341912D01*
X23031523Y-52913340D02*
X22460095Y-53484769D01*
X58948190Y-33787340D02*
X58948190Y-32787340D01*
X59519619Y-33787340D01*
X59519619Y-32787340D01*
X60138666Y-33787340D02*
X60043428Y-33739721D01*
X59995809Y-33692102D01*
X59948190Y-33596864D01*
X59948190Y-33311150D01*
X59995809Y-33215912D01*
X60043428Y-33168293D01*
X60138666Y-33120674D01*
X60281523Y-33120674D01*
X60376761Y-33168293D01*
X60424380Y-33215912D01*
X60472000Y-33311150D01*
X60472000Y-33596864D01*
X60424380Y-33692102D01*
X60376761Y-33739721D01*
X60281523Y-33787340D01*
X60138666Y-33787340D01*
X60757714Y-33120674D02*
X61138666Y-33120674D01*
X60900571Y-32787340D02*
X60900571Y-33644483D01*
X60948190Y-33739721D01*
X61043428Y-33787340D01*
X61138666Y-33787340D01*
X62567238Y-33263531D02*
X62233904Y-33263531D01*
X62233904Y-33787340D02*
X62233904Y-32787340D01*
X62710095Y-32787340D01*
X63091047Y-33787340D02*
X63091047Y-33120674D01*
X63091047Y-32787340D02*
X63043428Y-32834960D01*
X63091047Y-32882579D01*
X63138666Y-32834960D01*
X63091047Y-32787340D01*
X63091047Y-32882579D01*
X63424380Y-33120674D02*
X63805333Y-33120674D01*
X63567238Y-32787340D02*
X63567238Y-33644483D01*
X63614857Y-33739721D01*
X63710095Y-33787340D01*
X63805333Y-33787340D01*
X63995809Y-33120674D02*
X64376761Y-33120674D01*
X64138666Y-32787340D02*
X64138666Y-33644483D01*
X64186285Y-33739721D01*
X64281523Y-33787340D01*
X64376761Y-33787340D01*
X65091047Y-33739721D02*
X64995809Y-33787340D01*
X64805333Y-33787340D01*
X64710095Y-33739721D01*
X64662476Y-33644483D01*
X64662476Y-33263531D01*
X64710095Y-33168293D01*
X64805333Y-33120674D01*
X64995809Y-33120674D01*
X65091047Y-33168293D01*
X65138666Y-33263531D01*
X65138666Y-33358769D01*
X64662476Y-33454007D01*
X65995809Y-33787340D02*
X65995809Y-32787340D01*
X65995809Y-33739721D02*
X65900571Y-33787340D01*
X65710095Y-33787340D01*
X65614857Y-33739721D01*
X65567238Y-33692102D01*
X65519619Y-33596864D01*
X65519619Y-33311150D01*
X65567238Y-33215912D01*
X65614857Y-33168293D01*
X65710095Y-33120674D01*
X65900571Y-33120674D01*
X65995809Y-33168293D01*
X69330000Y-33842960D02*
X69076000Y-33588960D01*
X68822000Y-33334960D02*
X69330000Y-33842960D01*
D12*
X69386123Y-33478524D02*
X69881361Y-33478524D01*
X69614695Y-33783286D01*
X69728980Y-33783286D01*
X69805171Y-33821381D01*
X69843266Y-33859477D01*
X69881361Y-33935667D01*
X69881361Y-34126143D01*
X69843266Y-34202334D01*
X69805171Y-34240429D01*
X69728980Y-34278524D01*
X69500409Y-34278524D01*
X69424219Y-34240429D01*
X69386123Y-34202334D01*
X70109933Y-33478524D02*
X70376600Y-34278524D01*
X70643266Y-33478524D01*
X70833742Y-33478524D02*
X71328980Y-33478524D01*
X71062314Y-33783286D01*
X71176600Y-33783286D01*
X71252790Y-33821381D01*
X71290885Y-33859477D01*
X71328980Y-33935667D01*
X71328980Y-34126143D01*
X71290885Y-34202334D01*
X71252790Y-34240429D01*
X71176600Y-34278524D01*
X70948028Y-34278524D01*
X70871838Y-34240429D01*
X70833742Y-34202334D01*
X69662936Y-35223500D02*
X69586745Y-35185404D01*
X69472460Y-35185404D01*
X69358174Y-35223500D01*
X69281983Y-35299690D01*
X69243888Y-35375880D01*
X69205793Y-35528261D01*
X69205793Y-35642547D01*
X69243888Y-35794928D01*
X69281983Y-35871119D01*
X69358174Y-35947309D01*
X69472460Y-35985404D01*
X69548650Y-35985404D01*
X69662936Y-35947309D01*
X69701031Y-35909214D01*
X69701031Y-35642547D01*
X69548650Y-35642547D01*
X70043888Y-35985404D02*
X70043888Y-35185404D01*
X70501031Y-35985404D01*
X70501031Y-35185404D01*
X70881983Y-35985404D02*
X70881983Y-35185404D01*
X71072460Y-35185404D01*
X71186745Y-35223500D01*
X71262936Y-35299690D01*
X71301031Y-35375880D01*
X71339126Y-35528261D01*
X71339126Y-35642547D01*
X71301031Y-35794928D01*
X71262936Y-35871119D01*
X71186745Y-35947309D01*
X71072460Y-35985404D01*
X70881983Y-35985404D01*
D11*
X54159533Y-42397940D02*
X54159533Y-41397940D01*
X54159533Y-41874131D02*
X54719533Y-41874131D01*
X54719533Y-42397940D02*
X54719533Y-41397940D01*
X55326200Y-42397940D02*
X55232866Y-42350321D01*
X55186200Y-42302702D01*
X55139533Y-42207464D01*
X55139533Y-41921750D01*
X55186200Y-41826512D01*
X55232866Y-41778893D01*
X55326200Y-41731274D01*
X55466200Y-41731274D01*
X55559533Y-41778893D01*
X55606200Y-41826512D01*
X55652866Y-41921750D01*
X55652866Y-42207464D01*
X55606200Y-42302702D01*
X55559533Y-42350321D01*
X55466200Y-42397940D01*
X55326200Y-42397940D01*
X56492866Y-41731274D02*
X56492866Y-42540798D01*
X56446200Y-42636036D01*
X56399533Y-42683655D01*
X56306200Y-42731274D01*
X56166200Y-42731274D01*
X56072866Y-42683655D01*
X56492866Y-42350321D02*
X56399533Y-42397940D01*
X56212866Y-42397940D01*
X56119533Y-42350321D01*
X56072866Y-42302702D01*
X56026200Y-42207464D01*
X56026200Y-41921750D01*
X56072866Y-41826512D01*
X56119533Y-41778893D01*
X56212866Y-41731274D01*
X56399533Y-41731274D01*
X56492866Y-41778893D01*
X57099533Y-42397940D02*
X57006200Y-42350321D01*
X56959533Y-42255083D01*
X56959533Y-41397940D01*
X57846200Y-42350321D02*
X57752866Y-42397940D01*
X57566200Y-42397940D01*
X57472866Y-42350321D01*
X57426200Y-42255083D01*
X57426200Y-41874131D01*
X57472866Y-41778893D01*
X57566200Y-41731274D01*
X57752866Y-41731274D01*
X57846200Y-41778893D01*
X57892866Y-41874131D01*
X57892866Y-41969369D01*
X57426200Y-42064607D01*
X58172866Y-41731274D02*
X58546200Y-41731274D01*
X58312866Y-41397940D02*
X58312866Y-42255083D01*
X58359533Y-42350321D01*
X58452866Y-42397940D01*
X58546200Y-42397940D01*
X60412866Y-42397940D02*
X60366200Y-42397940D01*
X60272866Y-42350321D01*
X60132866Y-42207464D01*
X59899533Y-41921750D01*
X59806200Y-41778893D01*
X59759533Y-41636036D01*
X59759533Y-41540798D01*
X59806200Y-41445560D01*
X59899533Y-41397940D01*
X59946200Y-41397940D01*
X60039533Y-41445560D01*
X60086200Y-41540798D01*
X60086200Y-41588417D01*
X60039533Y-41683655D01*
X59992866Y-41731274D01*
X59712866Y-41921750D01*
X59666200Y-41969369D01*
X59619533Y-42064607D01*
X59619533Y-42207464D01*
X59666200Y-42302702D01*
X59712866Y-42350321D01*
X59806200Y-42397940D01*
X59946200Y-42397940D01*
X60039533Y-42350321D01*
X60086200Y-42302702D01*
X60226200Y-42112226D01*
X60272866Y-41969369D01*
X60272866Y-41874131D01*
X61579533Y-42397940D02*
X61579533Y-41397940D01*
X62466200Y-42397940D02*
X62466200Y-41874131D01*
X62419533Y-41778893D01*
X62326200Y-41731274D01*
X62139533Y-41731274D01*
X62046200Y-41778893D01*
X62466200Y-42350321D02*
X62372866Y-42397940D01*
X62139533Y-42397940D01*
X62046200Y-42350321D01*
X61999533Y-42255083D01*
X61999533Y-42159845D01*
X62046200Y-42064607D01*
X62139533Y-42016988D01*
X62372866Y-42016988D01*
X62466200Y-41969369D01*
X62932866Y-41731274D02*
X62932866Y-42397940D01*
X62932866Y-41826512D02*
X62979533Y-41778893D01*
X63072866Y-41731274D01*
X63212866Y-41731274D01*
X63306200Y-41778893D01*
X63352866Y-41874131D01*
X63352866Y-42397940D01*
X64146200Y-41874131D02*
X64286200Y-41921750D01*
X64332866Y-41969369D01*
X64379533Y-42064607D01*
X64379533Y-42207464D01*
X64332866Y-42302702D01*
X64286200Y-42350321D01*
X64192866Y-42397940D01*
X63819533Y-42397940D01*
X63819533Y-41397940D01*
X64146200Y-41397940D01*
X64239533Y-41445560D01*
X64286200Y-41493179D01*
X64332866Y-41588417D01*
X64332866Y-41683655D01*
X64286200Y-41778893D01*
X64239533Y-41826512D01*
X64146200Y-41874131D01*
X63819533Y-41874131D01*
X55703666Y-39934236D02*
X55610333Y-39886617D01*
X55423666Y-39886617D01*
X55330333Y-39934236D01*
X55237000Y-40029474D01*
X55190333Y-40124712D01*
X55190333Y-40315188D01*
X55237000Y-40410426D01*
X55330333Y-40505664D01*
X55423666Y-40553283D01*
X55610333Y-40553283D01*
X55703666Y-40505664D01*
X55517000Y-39553283D02*
X55283666Y-39600902D01*
X55050333Y-39743760D01*
X54910333Y-39981855D01*
X54863666Y-40219950D01*
X54910333Y-40458045D01*
X55050333Y-40696140D01*
X55283666Y-40838998D01*
X55517000Y-40886617D01*
X55750333Y-40838998D01*
X55983666Y-40696140D01*
X56123666Y-40458045D01*
X56170333Y-40219950D01*
X56123666Y-39981855D01*
X55983666Y-39743760D01*
X55750333Y-39600902D01*
X55517000Y-39553283D01*
X57290333Y-39791379D02*
X57337000Y-39743760D01*
X57430333Y-39696140D01*
X57663666Y-39696140D01*
X57757000Y-39743760D01*
X57803666Y-39791379D01*
X57850333Y-39886617D01*
X57850333Y-39981855D01*
X57803666Y-40124712D01*
X57243666Y-40696140D01*
X57850333Y-40696140D01*
X58457000Y-39696140D02*
X58550333Y-39696140D01*
X58643666Y-39743760D01*
X58690333Y-39791379D01*
X58737000Y-39886617D01*
X58783666Y-40077093D01*
X58783666Y-40315188D01*
X58737000Y-40505664D01*
X58690333Y-40600902D01*
X58643666Y-40648521D01*
X58550333Y-40696140D01*
X58457000Y-40696140D01*
X58363666Y-40648521D01*
X58317000Y-40600902D01*
X58270333Y-40505664D01*
X58223666Y-40315188D01*
X58223666Y-40077093D01*
X58270333Y-39886617D01*
X58317000Y-39791379D01*
X58363666Y-39743760D01*
X58457000Y-39696140D01*
X59717000Y-40696140D02*
X59157000Y-40696140D01*
X59437000Y-40696140D02*
X59437000Y-39696140D01*
X59343666Y-39838998D01*
X59250333Y-39934236D01*
X59157000Y-39981855D01*
X60277000Y-40124712D02*
X60183666Y-40077093D01*
X60137000Y-40029474D01*
X60090333Y-39934236D01*
X60090333Y-39886617D01*
X60137000Y-39791379D01*
X60183666Y-39743760D01*
X60277000Y-39696140D01*
X60463666Y-39696140D01*
X60557000Y-39743760D01*
X60603666Y-39791379D01*
X60650333Y-39886617D01*
X60650333Y-39934236D01*
X60603666Y-40029474D01*
X60557000Y-40077093D01*
X60463666Y-40124712D01*
X60277000Y-40124712D01*
X60183666Y-40172331D01*
X60137000Y-40219950D01*
X60090333Y-40315188D01*
X60090333Y-40505664D01*
X60137000Y-40600902D01*
X60183666Y-40648521D01*
X60277000Y-40696140D01*
X60463666Y-40696140D01*
X60557000Y-40648521D01*
X60603666Y-40600902D01*
X60650333Y-40505664D01*
X60650333Y-40315188D01*
X60603666Y-40219950D01*
X60557000Y-40172331D01*
X60463666Y-40124712D01*
X61070333Y-40315188D02*
X61817000Y-40315188D01*
X62237000Y-39791379D02*
X62283666Y-39743760D01*
X62377000Y-39696140D01*
X62610333Y-39696140D01*
X62703666Y-39743760D01*
X62750333Y-39791379D01*
X62797000Y-39886617D01*
X62797000Y-39981855D01*
X62750333Y-40124712D01*
X62190333Y-40696140D01*
X62797000Y-40696140D01*
X63403666Y-39696140D02*
X63497000Y-39696140D01*
X63590333Y-39743760D01*
X63637000Y-39791379D01*
X63683666Y-39886617D01*
X63730333Y-40077093D01*
X63730333Y-40315188D01*
X63683666Y-40505664D01*
X63637000Y-40600902D01*
X63590333Y-40648521D01*
X63497000Y-40696140D01*
X63403666Y-40696140D01*
X63310333Y-40648521D01*
X63263666Y-40600902D01*
X63217000Y-40505664D01*
X63170333Y-40315188D01*
X63170333Y-40077093D01*
X63217000Y-39886617D01*
X63263666Y-39791379D01*
X63310333Y-39743760D01*
X63403666Y-39696140D01*
X54002277Y-39068000D02*
X54002277Y-38068000D01*
X54204658Y-38068000D01*
X54326086Y-38115620D01*
X54407039Y-38210858D01*
X54447515Y-38306096D01*
X54487991Y-38496572D01*
X54487991Y-38639429D01*
X54447515Y-38829905D01*
X54407039Y-38925143D01*
X54326086Y-39020381D01*
X54204658Y-39068000D01*
X54002277Y-39068000D01*
X54852277Y-39068000D02*
X54852277Y-38401334D01*
X54852277Y-38591810D02*
X54892753Y-38496572D01*
X54933229Y-38448953D01*
X55014181Y-38401334D01*
X55095134Y-38401334D01*
X55378467Y-39068000D02*
X55378467Y-38401334D01*
X55378467Y-38068000D02*
X55337991Y-38115620D01*
X55378467Y-38163239D01*
X55418943Y-38115620D01*
X55378467Y-38068000D01*
X55378467Y-38163239D01*
X55904658Y-39068000D02*
X55823705Y-39020381D01*
X55783229Y-38925143D01*
X55783229Y-38068000D01*
X56349896Y-39068000D02*
X56268943Y-39020381D01*
X56228467Y-38925143D01*
X56228467Y-38068000D01*
X56673705Y-39068000D02*
X56673705Y-38401334D01*
X56673705Y-38068000D02*
X56633229Y-38115620D01*
X56673705Y-38163239D01*
X56714181Y-38115620D01*
X56673705Y-38068000D01*
X56673705Y-38163239D01*
X57078467Y-38401334D02*
X57078467Y-39068000D01*
X57078467Y-38496572D02*
X57118943Y-38448953D01*
X57199896Y-38401334D01*
X57321324Y-38401334D01*
X57402277Y-38448953D01*
X57442753Y-38544191D01*
X57442753Y-39068000D01*
X58211800Y-38401334D02*
X58211800Y-39210858D01*
X58171324Y-39306096D01*
X58130848Y-39353715D01*
X58049896Y-39401334D01*
X57928467Y-39401334D01*
X57847515Y-39353715D01*
X58211800Y-39020381D02*
X58130848Y-39068000D01*
X57968943Y-39068000D01*
X57887991Y-39020381D01*
X57847515Y-38972762D01*
X57807039Y-38877524D01*
X57807039Y-38591810D01*
X57847515Y-38496572D01*
X57887991Y-38448953D01*
X57968943Y-38401334D01*
X58130848Y-38401334D01*
X58211800Y-38448953D01*
X59142753Y-38068000D02*
X59628467Y-38068000D01*
X59385610Y-39068000D02*
X59385610Y-38068000D01*
X60235610Y-39020381D02*
X60154658Y-39068000D01*
X59992753Y-39068000D01*
X59911800Y-39020381D01*
X59871324Y-38925143D01*
X59871324Y-38544191D01*
X59911800Y-38448953D01*
X59992753Y-38401334D01*
X60154658Y-38401334D01*
X60235610Y-38448953D01*
X60276086Y-38544191D01*
X60276086Y-38639429D01*
X59871324Y-38734667D01*
X60640372Y-39068000D02*
X60640372Y-38401334D01*
X60640372Y-38496572D02*
X60680848Y-38448953D01*
X60761800Y-38401334D01*
X60883229Y-38401334D01*
X60964181Y-38448953D01*
X61004658Y-38544191D01*
X61004658Y-39068000D01*
X61004658Y-38544191D02*
X61045134Y-38448953D01*
X61126086Y-38401334D01*
X61247515Y-38401334D01*
X61328467Y-38448953D01*
X61368943Y-38544191D01*
X61368943Y-39068000D01*
X61773705Y-38401334D02*
X61773705Y-39401334D01*
X61773705Y-38448953D02*
X61854658Y-38401334D01*
X62016562Y-38401334D01*
X62097515Y-38448953D01*
X62137991Y-38496572D01*
X62178467Y-38591810D01*
X62178467Y-38877524D01*
X62137991Y-38972762D01*
X62097515Y-39020381D01*
X62016562Y-39068000D01*
X61854658Y-39068000D01*
X61773705Y-39020381D01*
X62664181Y-39068000D02*
X62583229Y-39020381D01*
X62542753Y-38925143D01*
X62542753Y-38068000D01*
X63352277Y-39068000D02*
X63352277Y-38544191D01*
X63311800Y-38448953D01*
X63230848Y-38401334D01*
X63068943Y-38401334D01*
X62987991Y-38448953D01*
X63352277Y-39020381D02*
X63271324Y-39068000D01*
X63068943Y-39068000D01*
X62987991Y-39020381D01*
X62947515Y-38925143D01*
X62947515Y-38829905D01*
X62987991Y-38734667D01*
X63068943Y-38687048D01*
X63271324Y-38687048D01*
X63352277Y-38639429D01*
X63635610Y-38401334D02*
X63959420Y-38401334D01*
X63757039Y-38068000D02*
X63757039Y-38925143D01*
X63797515Y-39020381D01*
X63878467Y-39068000D01*
X63959420Y-39068000D01*
X64566562Y-39020381D02*
X64485610Y-39068000D01*
X64323705Y-39068000D01*
X64242753Y-39020381D01*
X64202277Y-38925143D01*
X64202277Y-38544191D01*
X64242753Y-38448953D01*
X64323705Y-38401334D01*
X64485610Y-38401334D01*
X64566562Y-38448953D01*
X64607039Y-38544191D01*
X64607039Y-38639429D01*
X64202277Y-38734667D01*
X56919066Y-37394140D02*
X56592400Y-36917950D01*
X56359066Y-37394140D02*
X56359066Y-36394140D01*
X56732400Y-36394140D01*
X56825733Y-36441760D01*
X56872400Y-36489379D01*
X56919066Y-36584617D01*
X56919066Y-36727474D01*
X56872400Y-36822712D01*
X56825733Y-36870331D01*
X56732400Y-36917950D01*
X56359066Y-36917950D01*
X57852400Y-36441760D02*
X57759066Y-36394140D01*
X57619066Y-36394140D01*
X57479066Y-36441760D01*
X57385733Y-36536998D01*
X57339066Y-36632236D01*
X57292400Y-36822712D01*
X57292400Y-36965569D01*
X57339066Y-37156045D01*
X57385733Y-37251283D01*
X57479066Y-37346521D01*
X57619066Y-37394140D01*
X57712400Y-37394140D01*
X57852400Y-37346521D01*
X57899066Y-37298902D01*
X57899066Y-36965569D01*
X57712400Y-36965569D01*
X58645733Y-36870331D02*
X58785733Y-36917950D01*
X58832400Y-36965569D01*
X58879066Y-37060807D01*
X58879066Y-37203664D01*
X58832400Y-37298902D01*
X58785733Y-37346521D01*
X58692400Y-37394140D01*
X58319066Y-37394140D01*
X58319066Y-36394140D01*
X58645733Y-36394140D01*
X58739066Y-36441760D01*
X58785733Y-36489379D01*
X58832400Y-36584617D01*
X58832400Y-36679855D01*
X58785733Y-36775093D01*
X58739066Y-36822712D01*
X58645733Y-36870331D01*
X58319066Y-36870331D01*
X59159066Y-36727474D02*
X59532400Y-36727474D01*
X59299066Y-36394140D02*
X59299066Y-37251283D01*
X59345733Y-37346521D01*
X59439066Y-37394140D01*
X59532400Y-37394140D01*
X59999066Y-37394140D02*
X59905733Y-37346521D01*
X59859066Y-37298902D01*
X59812400Y-37203664D01*
X59812400Y-36917950D01*
X59859066Y-36822712D01*
X59905733Y-36775093D01*
X59999066Y-36727474D01*
X60139066Y-36727474D01*
X60232400Y-36775093D01*
X60279066Y-36822712D01*
X60325733Y-36917950D01*
X60325733Y-37203664D01*
X60279066Y-37298902D01*
X60232400Y-37346521D01*
X60139066Y-37394140D01*
X59999066Y-37394140D01*
X60745733Y-37394140D02*
X60745733Y-36394140D01*
X60745733Y-36870331D02*
X61305733Y-36870331D01*
X61305733Y-37394140D02*
X61305733Y-36394140D01*
X61772400Y-37394140D02*
X61772400Y-36394140D01*
X62005733Y-36394140D01*
X62145733Y-36441760D01*
X62239066Y-36536998D01*
X62285733Y-36632236D01*
X62332400Y-36822712D01*
X62332400Y-36965569D01*
X62285733Y-37156045D01*
X62239066Y-37251283D01*
X62145733Y-37346521D01*
X62005733Y-37394140D01*
X61772400Y-37394140D01*
X53582000Y-43240960D02*
X53582000Y-35620960D01*
X65012000Y-43240960D02*
X53582000Y-43240960D01*
X65012000Y-35620960D02*
X65012000Y-43240960D01*
X53582000Y-35620960D02*
X65012000Y-35620960D01*
D12*
X66270800Y-47084001D02*
X68930800Y-47084001D01*
X66270800Y-34324001D02*
X66270800Y-47084001D01*
X68930800Y-34324001D02*
X68930800Y-47084001D01*
X66270800Y-34324001D02*
X68930800Y-34324001D01*
X66270800Y-33054001D02*
X66270800Y-31724001D01*
X66270800Y-31724001D02*
X67600800Y-31724001D01*
X29306000Y-50146960D02*
X29306000Y-51646960D01*
X30556000Y-54146960D02*
X35056000Y-54146960D01*
X36306000Y-51646960D02*
X36306000Y-50146960D01*
X35056000Y-47646960D02*
X30556000Y-47646960D01*
X50804000Y-47646960D02*
X46304000Y-47646960D01*
X52054000Y-51646960D02*
X52054000Y-50146960D01*
X46304000Y-54146960D02*
X50804000Y-54146960D01*
X45054000Y-50146960D02*
X45054000Y-51646960D01*
X66552000Y-47646960D02*
X62052000Y-47646960D01*
X67802000Y-51646960D02*
X67802000Y-50146960D01*
X62052000Y-54146960D02*
X66552000Y-54146960D01*
X60802000Y-50146960D02*
X60802000Y-51646960D01*
X76617000Y-43640960D02*
X78117000Y-43640960D01*
X80617000Y-42390960D02*
X80617000Y-37890960D01*
X78117000Y-36640960D02*
X76617000Y-36640960D01*
X74117000Y-37890960D02*
X74117000Y-42390960D01*
D11*
X64527904Y-32517340D02*
X64527904Y-31517340D01*
X64908857Y-31517340D01*
X65004095Y-31564960D01*
X65051714Y-31612579D01*
X65099333Y-31707817D01*
X65099333Y-31850674D01*
X65051714Y-31945912D01*
X65004095Y-31993531D01*
X64908857Y-32041150D01*
X64527904Y-32041150D01*
X65432666Y-31517340D02*
X66051714Y-31517340D01*
X65718380Y-31898293D01*
X65861238Y-31898293D01*
X65956476Y-31945912D01*
X66004095Y-31993531D01*
X66051714Y-32088769D01*
X66051714Y-32326864D01*
X66004095Y-32422102D01*
X65956476Y-32469721D01*
X65861238Y-32517340D01*
X65575523Y-32517340D01*
X65480285Y-32469721D01*
X65432666Y-32422102D01*
X31668666Y-47375721D02*
X31811523Y-47423340D01*
X32049619Y-47423340D01*
X32144857Y-47375721D01*
X32192476Y-47328102D01*
X32240095Y-47232864D01*
X32240095Y-47137626D01*
X32192476Y-47042388D01*
X32144857Y-46994769D01*
X32049619Y-46947150D01*
X31859142Y-46899531D01*
X31763904Y-46851912D01*
X31716285Y-46804293D01*
X31668666Y-46709055D01*
X31668666Y-46613817D01*
X31716285Y-46518579D01*
X31763904Y-46470960D01*
X31859142Y-46423340D01*
X32097238Y-46423340D01*
X32240095Y-46470960D01*
X32573428Y-46423340D02*
X32811523Y-47423340D01*
X33002000Y-46709055D01*
X33192476Y-47423340D01*
X33430571Y-46423340D01*
X34335333Y-47423340D02*
X33763904Y-47423340D01*
X34049619Y-47423340D02*
X34049619Y-46423340D01*
X33954380Y-46566198D01*
X33859142Y-46661436D01*
X33763904Y-46709055D01*
X47208666Y-47365721D02*
X47351523Y-47413340D01*
X47589619Y-47413340D01*
X47684857Y-47365721D01*
X47732476Y-47318102D01*
X47780095Y-47222864D01*
X47780095Y-47127626D01*
X47732476Y-47032388D01*
X47684857Y-46984769D01*
X47589619Y-46937150D01*
X47399142Y-46889531D01*
X47303904Y-46841912D01*
X47256285Y-46794293D01*
X47208666Y-46699055D01*
X47208666Y-46603817D01*
X47256285Y-46508579D01*
X47303904Y-46460960D01*
X47399142Y-46413340D01*
X47637238Y-46413340D01*
X47780095Y-46460960D01*
X48113428Y-46413340D02*
X48351523Y-47413340D01*
X48542000Y-46699055D01*
X48732476Y-47413340D01*
X48970571Y-46413340D01*
X49303904Y-46508579D02*
X49351523Y-46460960D01*
X49446761Y-46413340D01*
X49684857Y-46413340D01*
X49780095Y-46460960D01*
X49827714Y-46508579D01*
X49875333Y-46603817D01*
X49875333Y-46699055D01*
X49827714Y-46841912D01*
X49256285Y-47413340D01*
X49875333Y-47413340D01*
X62968666Y-47375721D02*
X63111523Y-47423340D01*
X63349619Y-47423340D01*
X63444857Y-47375721D01*
X63492476Y-47328102D01*
X63540095Y-47232864D01*
X63540095Y-47137626D01*
X63492476Y-47042388D01*
X63444857Y-46994769D01*
X63349619Y-46947150D01*
X63159142Y-46899531D01*
X63063904Y-46851912D01*
X63016285Y-46804293D01*
X62968666Y-46709055D01*
X62968666Y-46613817D01*
X63016285Y-46518579D01*
X63063904Y-46470960D01*
X63159142Y-46423340D01*
X63397238Y-46423340D01*
X63540095Y-46470960D01*
X63873428Y-46423340D02*
X64111523Y-47423340D01*
X64302000Y-46709055D01*
X64492476Y-47423340D01*
X64730571Y-46423340D01*
X65016285Y-46423340D02*
X65635333Y-46423340D01*
X65302000Y-46804293D01*
X65444857Y-46804293D01*
X65540095Y-46851912D01*
X65587714Y-46899531D01*
X65635333Y-46994769D01*
X65635333Y-47232864D01*
X65587714Y-47328102D01*
X65540095Y-47375721D01*
X65444857Y-47423340D01*
X65159142Y-47423340D01*
X65063904Y-47375721D01*
X65016285Y-47328102D01*
X76028266Y-35779341D02*
X76171123Y-35826960D01*
X76409219Y-35826960D01*
X76504457Y-35779341D01*
X76552076Y-35731722D01*
X76599695Y-35636484D01*
X76599695Y-35541246D01*
X76552076Y-35446008D01*
X76504457Y-35398389D01*
X76409219Y-35350770D01*
X76218742Y-35303151D01*
X76123504Y-35255532D01*
X76075885Y-35207913D01*
X76028266Y-35112675D01*
X76028266Y-35017437D01*
X76075885Y-34922199D01*
X76123504Y-34874580D01*
X76218742Y-34826960D01*
X76456838Y-34826960D01*
X76599695Y-34874580D01*
X76933028Y-34826960D02*
X77171123Y-35826960D01*
X77361600Y-35112675D01*
X77552076Y-35826960D01*
X77790171Y-34826960D01*
X78599695Y-35160294D02*
X78599695Y-35826960D01*
X78361600Y-34779341D02*
X78123504Y-35493627D01*
X78742552Y-35493627D01*
M02*
