G04 #@! TF.GenerationSoftware,KiCad,Pcbnew,5.0.2-bee76a0~70~ubuntu16.04.1*
G04 #@! TF.CreationDate,2019-04-13T12:29:28+01:00*
G04 #@! TF.ProjectId,rgb-to-hdmi,7267622d-746f-42d6-9864-6d692e6b6963,rev?*
G04 #@! TF.SameCoordinates,PX8712db8PY8b83550*
G04 #@! TF.FileFunction,Legend,Top*
G04 #@! TF.FilePolarity,Positive*
%FSLAX46Y46*%
G04 Gerber Fmt 4.6, Leading zero omitted, Abs format (unit mm)*
G04 Created by KiCad (PCBNEW 5.0.2-bee76a0~70~ubuntu16.04.1) date Sat 13 Apr 2019 12:29:28 BST*
%MOMM*%
%LPD*%
G01*
G04 APERTURE LIST*
%ADD10C,0.200000*%
%ADD11C,0.150000*%
%ADD12C,0.300000*%
%ADD13C,0.120000*%
G04 APERTURE END LIST*
D10*
X63978000Y68820000D02*
X67915000Y70217000D01*
X67045571Y73271000D02*
X67617000Y73271000D01*
X66931285Y72928143D02*
X67331285Y74128143D01*
X67731285Y72928143D01*
X68302714Y72928143D02*
X68188428Y72985286D01*
X68131285Y73099572D01*
X68131285Y74128143D01*
X68759857Y72928143D02*
X68759857Y73728143D01*
X68759857Y74128143D02*
X68702714Y74071000D01*
X68759857Y74013858D01*
X68817000Y74071000D01*
X68759857Y74128143D01*
X68759857Y74013858D01*
X69845571Y73728143D02*
X69845571Y72756715D01*
X69788428Y72642429D01*
X69731285Y72585286D01*
X69617000Y72528143D01*
X69445571Y72528143D01*
X69331285Y72585286D01*
X69845571Y72985286D02*
X69731285Y72928143D01*
X69502714Y72928143D01*
X69388428Y72985286D01*
X69331285Y73042429D01*
X69274142Y73156715D01*
X69274142Y73499572D01*
X69331285Y73613858D01*
X69388428Y73671000D01*
X69502714Y73728143D01*
X69731285Y73728143D01*
X69845571Y73671000D01*
X70417000Y73728143D02*
X70417000Y72928143D01*
X70417000Y73613858D02*
X70474142Y73671000D01*
X70588428Y73728143D01*
X70759857Y73728143D01*
X70874142Y73671000D01*
X70931285Y73556715D01*
X70931285Y72928143D01*
X71502714Y72928143D02*
X71502714Y73728143D01*
X71502714Y73613858D02*
X71559857Y73671000D01*
X71674142Y73728143D01*
X71845571Y73728143D01*
X71959857Y73671000D01*
X72017000Y73556715D01*
X72017000Y72928143D01*
X72017000Y73556715D02*
X72074142Y73671000D01*
X72188428Y73728143D01*
X72359857Y73728143D01*
X72474142Y73671000D01*
X72531285Y73556715D01*
X72531285Y72928143D01*
X73559857Y72985286D02*
X73445571Y72928143D01*
X73217000Y72928143D01*
X73102714Y72985286D01*
X73045571Y73099572D01*
X73045571Y73556715D01*
X73102714Y73671000D01*
X73217000Y73728143D01*
X73445571Y73728143D01*
X73559857Y73671000D01*
X73617000Y73556715D01*
X73617000Y73442429D01*
X73045571Y73328143D01*
X74131285Y73728143D02*
X74131285Y72928143D01*
X74131285Y73613858D02*
X74188428Y73671000D01*
X74302714Y73728143D01*
X74474142Y73728143D01*
X74588428Y73671000D01*
X74645571Y73556715D01*
X74645571Y72928143D01*
X75045571Y73728143D02*
X75502714Y73728143D01*
X75217000Y74128143D02*
X75217000Y73099572D01*
X75274142Y72985286D01*
X75388428Y72928143D01*
X75502714Y72928143D01*
X67874142Y70928143D02*
X67874142Y72128143D01*
X68388428Y70928143D02*
X68388428Y71556715D01*
X68331285Y71671000D01*
X68217000Y71728143D01*
X68045571Y71728143D01*
X67931285Y71671000D01*
X67874142Y71613858D01*
X69131285Y70928143D02*
X69017000Y70985286D01*
X68959857Y71042429D01*
X68902714Y71156715D01*
X68902714Y71499572D01*
X68959857Y71613858D01*
X69017000Y71671000D01*
X69131285Y71728143D01*
X69302714Y71728143D01*
X69417000Y71671000D01*
X69474142Y71613858D01*
X69531285Y71499572D01*
X69531285Y71156715D01*
X69474142Y71042429D01*
X69417000Y70985286D01*
X69302714Y70928143D01*
X69131285Y70928143D01*
X70217000Y70928143D02*
X70102714Y70985286D01*
X70045571Y71099572D01*
X70045571Y72128143D01*
X71131285Y70985286D02*
X71017000Y70928143D01*
X70788428Y70928143D01*
X70674142Y70985286D01*
X70617000Y71099572D01*
X70617000Y71556715D01*
X70674142Y71671000D01*
X70788428Y71728143D01*
X71017000Y71728143D01*
X71131285Y71671000D01*
X71188428Y71556715D01*
X71188428Y71442429D01*
X70617000Y71328143D01*
X72445571Y71728143D02*
X72902714Y71728143D01*
X72617000Y70928143D02*
X72617000Y71956715D01*
X72674142Y72071000D01*
X72788428Y72128143D01*
X72902714Y72128143D01*
X73474142Y70928143D02*
X73359857Y70985286D01*
X73302714Y71042429D01*
X73245571Y71156715D01*
X73245571Y71499572D01*
X73302714Y71613858D01*
X73359857Y71671000D01*
X73474142Y71728143D01*
X73645571Y71728143D01*
X73759857Y71671000D01*
X73817000Y71613858D01*
X73874142Y71499572D01*
X73874142Y71156715D01*
X73817000Y71042429D01*
X73759857Y70985286D01*
X73645571Y70928143D01*
X73474142Y70928143D01*
X74388428Y70928143D02*
X74388428Y71728143D01*
X74388428Y71499572D02*
X74445571Y71613858D01*
X74502714Y71671000D01*
X74617000Y71728143D01*
X74731285Y71728143D01*
X68817000Y68928143D02*
X68817000Y70128143D01*
X68817000Y68985286D02*
X68702714Y68928143D01*
X68474142Y68928143D01*
X68359857Y68985286D01*
X68302714Y69042429D01*
X68245571Y69156715D01*
X68245571Y69499572D01*
X68302714Y69613858D01*
X68359857Y69671000D01*
X68474142Y69728143D01*
X68702714Y69728143D01*
X68817000Y69671000D01*
X69388428Y68928143D02*
X69388428Y69728143D01*
X69388428Y69499572D02*
X69445571Y69613858D01*
X69502714Y69671000D01*
X69617000Y69728143D01*
X69731285Y69728143D01*
X70131285Y68928143D02*
X70131285Y69728143D01*
X70131285Y70128143D02*
X70074142Y70071000D01*
X70131285Y70013858D01*
X70188428Y70071000D01*
X70131285Y70128143D01*
X70131285Y70013858D01*
X70874142Y68928143D02*
X70759857Y68985286D01*
X70702714Y69099572D01*
X70702714Y70128143D01*
X71502714Y68928143D02*
X71388428Y68985286D01*
X71331285Y69099572D01*
X71331285Y70128143D01*
X71959857Y68928143D02*
X71959857Y69728143D01*
X71959857Y70128143D02*
X71902714Y70071000D01*
X71959857Y70013858D01*
X72017000Y70071000D01*
X71959857Y70128143D01*
X71959857Y70013858D01*
X72531285Y69728143D02*
X72531285Y68928143D01*
X72531285Y69613858D02*
X72588428Y69671000D01*
X72702714Y69728143D01*
X72874142Y69728143D01*
X72988428Y69671000D01*
X73045571Y69556715D01*
X73045571Y68928143D01*
X74131285Y69728143D02*
X74131285Y68756715D01*
X74074142Y68642429D01*
X74017000Y68585286D01*
X73902714Y68528143D01*
X73731285Y68528143D01*
X73617000Y68585286D01*
X74131285Y68985286D02*
X74017000Y68928143D01*
X73788428Y68928143D01*
X73674142Y68985286D01*
X73617000Y69042429D01*
X73559857Y69156715D01*
X73559857Y69499572D01*
X73617000Y69613858D01*
X73674142Y69671000D01*
X73788428Y69728143D01*
X74017000Y69728143D01*
X74131285Y69671000D01*
X69045571Y67728143D02*
X69045571Y66528143D01*
X69045571Y67671000D02*
X69159857Y67728143D01*
X69388428Y67728143D01*
X69502714Y67671000D01*
X69559857Y67613858D01*
X69617000Y67499572D01*
X69617000Y67156715D01*
X69559857Y67042429D01*
X69502714Y66985286D01*
X69388428Y66928143D01*
X69159857Y66928143D01*
X69045571Y66985286D01*
X70645571Y66928143D02*
X70645571Y67556715D01*
X70588428Y67671000D01*
X70474142Y67728143D01*
X70245571Y67728143D01*
X70131285Y67671000D01*
X70645571Y66985286D02*
X70531285Y66928143D01*
X70245571Y66928143D01*
X70131285Y66985286D01*
X70074142Y67099572D01*
X70074142Y67213858D01*
X70131285Y67328143D01*
X70245571Y67385286D01*
X70531285Y67385286D01*
X70645571Y67442429D01*
X71217000Y67728143D02*
X71217000Y66928143D01*
X71217000Y67613858D02*
X71274142Y67671000D01*
X71388428Y67728143D01*
X71559857Y67728143D01*
X71674142Y67671000D01*
X71731285Y67556715D01*
X71731285Y66928143D01*
X72759857Y66985286D02*
X72645571Y66928143D01*
X72417000Y66928143D01*
X72302714Y66985286D01*
X72245571Y67099572D01*
X72245571Y67556715D01*
X72302714Y67671000D01*
X72417000Y67728143D01*
X72645571Y67728143D01*
X72759857Y67671000D01*
X72817000Y67556715D01*
X72817000Y67442429D01*
X72245571Y67328143D01*
X73502714Y66928143D02*
X73388428Y66985286D01*
X73331285Y67099572D01*
X73331285Y68128143D01*
D11*
X59404404Y43332620D02*
X59404404Y42618334D01*
X59356785Y42475477D01*
X59261547Y42380239D01*
X59118690Y42332620D01*
X59023452Y42332620D01*
X60309166Y42999286D02*
X60309166Y42332620D01*
X60071071Y43380239D02*
X59832976Y42665953D01*
X60452023Y42665953D01*
X61880595Y41951667D02*
X61832976Y41999286D01*
X61737738Y42142143D01*
X61690119Y42237381D01*
X61642500Y42380239D01*
X61594880Y42618334D01*
X61594880Y42808810D01*
X61642500Y43046905D01*
X61690119Y43189762D01*
X61737738Y43285000D01*
X61832976Y43427858D01*
X61880595Y43475477D01*
X62213928Y42618334D02*
X62690119Y42618334D01*
X62118690Y42332620D02*
X62452023Y43332620D01*
X62785357Y42332620D01*
X63261547Y42332620D02*
X63166309Y42380239D01*
X63118690Y42475477D01*
X63118690Y43332620D01*
X63499642Y42999286D02*
X63880595Y42999286D01*
X63642499Y43332620D02*
X63642499Y42475477D01*
X63690119Y42380239D01*
X63785357Y42332620D01*
X63880595Y42332620D01*
X64118690Y41951667D02*
X64166309Y41999286D01*
X64261547Y42142143D01*
X64309166Y42237381D01*
X64356785Y42380239D01*
X64404404Y42618334D01*
X64404404Y42808810D01*
X64356785Y43046905D01*
X64309166Y43189762D01*
X64261547Y43285000D01*
X64166309Y43427858D01*
X64118690Y43475477D01*
D10*
X48865000Y5320000D02*
X48865000Y10400000D01*
X64105000Y5320000D02*
X48865000Y5320000D01*
X64105000Y10400000D02*
X64105000Y5320000D01*
X48865000Y10400000D02*
X64105000Y10400000D01*
X50885000Y9517143D02*
X51285000Y8317143D01*
X51685000Y9517143D01*
X52542142Y8374286D02*
X52427857Y8317143D01*
X52199285Y8317143D01*
X52085000Y8374286D01*
X52027857Y8488572D01*
X52027857Y8945715D01*
X52085000Y9060000D01*
X52199285Y9117143D01*
X52427857Y9117143D01*
X52542142Y9060000D01*
X52599285Y8945715D01*
X52599285Y8831429D01*
X52027857Y8717143D01*
X53113571Y8317143D02*
X53113571Y9117143D01*
X53113571Y8888572D02*
X53170714Y9002858D01*
X53227857Y9060000D01*
X53342142Y9117143D01*
X53456428Y9117143D01*
X53799285Y8374286D02*
X53913571Y8317143D01*
X54142142Y8317143D01*
X54256428Y8374286D01*
X54313571Y8488572D01*
X54313571Y8545715D01*
X54256428Y8660000D01*
X54142142Y8717143D01*
X53970714Y8717143D01*
X53856428Y8774286D01*
X53799285Y8888572D01*
X53799285Y8945715D01*
X53856428Y9060000D01*
X53970714Y9117143D01*
X54142142Y9117143D01*
X54256428Y9060000D01*
X54827857Y8317143D02*
X54827857Y9117143D01*
X54827857Y9517143D02*
X54770714Y9460000D01*
X54827857Y9402858D01*
X54885000Y9460000D01*
X54827857Y9517143D01*
X54827857Y9402858D01*
X55570714Y8317143D02*
X55456428Y8374286D01*
X55399285Y8431429D01*
X55342142Y8545715D01*
X55342142Y8888572D01*
X55399285Y9002858D01*
X55456428Y9060000D01*
X55570714Y9117143D01*
X55742142Y9117143D01*
X55856428Y9060000D01*
X55913571Y9002858D01*
X55970714Y8888572D01*
X55970714Y8545715D01*
X55913571Y8431429D01*
X55856428Y8374286D01*
X55742142Y8317143D01*
X55570714Y8317143D01*
X56485000Y9117143D02*
X56485000Y8317143D01*
X56485000Y9002858D02*
X56542142Y9060000D01*
X56656428Y9117143D01*
X56827857Y9117143D01*
X56942142Y9060000D01*
X56999285Y8945715D01*
X56999285Y8317143D01*
X59113571Y8317143D02*
X58427857Y8317143D01*
X58770714Y8317143D02*
X58770714Y9517143D01*
X58656428Y9345715D01*
X58542142Y9231429D01*
X58427857Y9174286D01*
X59627857Y8431429D02*
X59685000Y8374286D01*
X59627857Y8317143D01*
X59570714Y8374286D01*
X59627857Y8431429D01*
X59627857Y8317143D01*
X60427857Y9517143D02*
X60542142Y9517143D01*
X60656428Y9460000D01*
X60713571Y9402858D01*
X60770714Y9288572D01*
X60827857Y9060000D01*
X60827857Y8774286D01*
X60770714Y8545715D01*
X60713571Y8431429D01*
X60656428Y8374286D01*
X60542142Y8317143D01*
X60427857Y8317143D01*
X60313571Y8374286D01*
X60256428Y8431429D01*
X60199285Y8545715D01*
X60142142Y8774286D01*
X60142142Y9060000D01*
X60199285Y9288572D01*
X60256428Y9402858D01*
X60313571Y9460000D01*
X60427857Y9517143D01*
X61570714Y9517143D02*
X61685000Y9517143D01*
X61799285Y9460000D01*
X61856428Y9402858D01*
X61913571Y9288572D01*
X61970714Y9060000D01*
X61970714Y8774286D01*
X61913571Y8545715D01*
X61856428Y8431429D01*
X61799285Y8374286D01*
X61685000Y8317143D01*
X61570714Y8317143D01*
X61456428Y8374286D01*
X61399285Y8431429D01*
X61342142Y8545715D01*
X61285000Y8774286D01*
X61285000Y9060000D01*
X61342142Y9288572D01*
X61399285Y9402858D01*
X61456428Y9460000D01*
X61570714Y9517143D01*
X50142142Y6317143D02*
X49456428Y6317143D01*
X49799285Y6317143D02*
X49799285Y7517143D01*
X49685000Y7345715D01*
X49570714Y7231429D01*
X49456428Y7174286D01*
X50599285Y7402858D02*
X50656428Y7460000D01*
X50770714Y7517143D01*
X51056428Y7517143D01*
X51170714Y7460000D01*
X51227857Y7402858D01*
X51285000Y7288572D01*
X51285000Y7174286D01*
X51227857Y7002858D01*
X50542142Y6317143D01*
X51285000Y6317143D01*
X51627857Y7117143D02*
X52085000Y7117143D01*
X51799285Y7517143D02*
X51799285Y6488572D01*
X51856428Y6374286D01*
X51970714Y6317143D01*
X52085000Y6317143D01*
X52485000Y6317143D02*
X52485000Y7517143D01*
X52999285Y6317143D02*
X52999285Y6945715D01*
X52942142Y7060000D01*
X52827857Y7117143D01*
X52656428Y7117143D01*
X52542142Y7060000D01*
X52485000Y7002858D01*
X54427857Y6660000D02*
X54999285Y6660000D01*
X54313571Y6317143D02*
X54713571Y7517143D01*
X55113571Y6317143D01*
X55513571Y7117143D02*
X55513571Y5917143D01*
X55513571Y7060000D02*
X55627857Y7117143D01*
X55856428Y7117143D01*
X55970714Y7060000D01*
X56027857Y7002858D01*
X56085000Y6888572D01*
X56085000Y6545715D01*
X56027857Y6431429D01*
X55970714Y6374286D01*
X55856428Y6317143D01*
X55627857Y6317143D01*
X55513571Y6374286D01*
X56599285Y6317143D02*
X56599285Y7117143D01*
X56599285Y6888572D02*
X56656428Y7002858D01*
X56713571Y7060000D01*
X56827857Y7117143D01*
X56942142Y7117143D01*
X57342142Y6317143D02*
X57342142Y7117143D01*
X57342142Y7517143D02*
X57285000Y7460000D01*
X57342142Y7402858D01*
X57399285Y7460000D01*
X57342142Y7517143D01*
X57342142Y7402858D01*
X58085000Y6317143D02*
X57970714Y6374286D01*
X57913571Y6488572D01*
X57913571Y7517143D01*
X59399285Y7402858D02*
X59456428Y7460000D01*
X59570714Y7517143D01*
X59856428Y7517143D01*
X59970714Y7460000D01*
X60027857Y7402858D01*
X60085000Y7288572D01*
X60085000Y7174286D01*
X60027857Y7002858D01*
X59342142Y6317143D01*
X60085000Y6317143D01*
X60827857Y7517143D02*
X60942142Y7517143D01*
X61056428Y7460000D01*
X61113571Y7402858D01*
X61170714Y7288572D01*
X61227857Y7060000D01*
X61227857Y6774286D01*
X61170714Y6545715D01*
X61113571Y6431429D01*
X61056428Y6374286D01*
X60942142Y6317143D01*
X60827857Y6317143D01*
X60713571Y6374286D01*
X60656428Y6431429D01*
X60599285Y6545715D01*
X60542142Y6774286D01*
X60542142Y7060000D01*
X60599285Y7288572D01*
X60656428Y7402858D01*
X60713571Y7460000D01*
X60827857Y7517143D01*
X62370714Y6317143D02*
X61685000Y6317143D01*
X62027857Y6317143D02*
X62027857Y7517143D01*
X61913571Y7345715D01*
X61799285Y7231429D01*
X61685000Y7174286D01*
X62942142Y6317143D02*
X63170714Y6317143D01*
X63285000Y6374286D01*
X63342142Y6431429D01*
X63456428Y6602858D01*
X63513571Y6831429D01*
X63513571Y7288572D01*
X63456428Y7402858D01*
X63399285Y7460000D01*
X63285000Y7517143D01*
X63056428Y7517143D01*
X62942142Y7460000D01*
X62885000Y7402858D01*
X62827857Y7288572D01*
X62827857Y7002858D01*
X62885000Y6888572D01*
X62942142Y6831429D01*
X63056428Y6774286D01*
X63285000Y6774286D01*
X63399285Y6831429D01*
X63456428Y6888572D01*
X63513571Y7002858D01*
X20705714Y85422143D02*
X20705714Y86622143D01*
X21391428Y85422143D01*
X21391428Y86622143D01*
X22362857Y86050715D02*
X21962857Y86050715D01*
X21962857Y85422143D02*
X21962857Y86622143D01*
X22534285Y86622143D01*
X35565000Y83834286D02*
X35507857Y83720000D01*
X35507857Y83548572D01*
X35565000Y83377143D01*
X35679285Y83262858D01*
X35793571Y83205715D01*
X36022142Y83148572D01*
X36193571Y83148572D01*
X36422142Y83205715D01*
X36536428Y83262858D01*
X36650714Y83377143D01*
X36707857Y83548572D01*
X36707857Y83662858D01*
X36650714Y83834286D01*
X36593571Y83891429D01*
X36193571Y83891429D01*
X36193571Y83662858D01*
X36707857Y84405715D02*
X35507857Y84405715D01*
X36707857Y85091429D01*
X35507857Y85091429D01*
X36707857Y85662858D02*
X35507857Y85662858D01*
X35507857Y85948572D01*
X35565000Y86120000D01*
X35679285Y86234286D01*
X35793571Y86291429D01*
X36022142Y86348572D01*
X36193571Y86348572D01*
X36422142Y86291429D01*
X36536428Y86234286D01*
X36650714Y86120000D01*
X36707857Y85948572D01*
X36707857Y85662858D01*
X39375000Y19064286D02*
X39317857Y18950000D01*
X39317857Y18778572D01*
X39375000Y18607143D01*
X39489285Y18492858D01*
X39603571Y18435715D01*
X39832142Y18378572D01*
X40003571Y18378572D01*
X40232142Y18435715D01*
X40346428Y18492858D01*
X40460714Y18607143D01*
X40517857Y18778572D01*
X40517857Y18892858D01*
X40460714Y19064286D01*
X40403571Y19121429D01*
X40003571Y19121429D01*
X40003571Y18892858D01*
X40517857Y19635715D02*
X39317857Y19635715D01*
X40517857Y20321429D01*
X39317857Y20321429D01*
X40517857Y20892858D02*
X39317857Y20892858D01*
X39317857Y21178572D01*
X39375000Y21350000D01*
X39489285Y21464286D01*
X39603571Y21521429D01*
X39832142Y21578572D01*
X40003571Y21578572D01*
X40232142Y21521429D01*
X40346428Y21464286D01*
X40460714Y21350000D01*
X40517857Y21178572D01*
X40517857Y20892858D01*
X25150714Y42877143D02*
X25150714Y44077143D01*
X25836428Y42877143D01*
X25836428Y44077143D01*
X26807857Y43505715D02*
X26407857Y43505715D01*
X26407857Y42877143D02*
X26407857Y44077143D01*
X26979285Y44077143D01*
X20705714Y38432143D02*
X20705714Y39632143D01*
X21391428Y38432143D01*
X21391428Y39632143D01*
X22362857Y39060715D02*
X21962857Y39060715D01*
X21962857Y38432143D02*
X21962857Y39632143D01*
X22534285Y39632143D01*
X53090714Y51132143D02*
X53090714Y52332143D01*
X53776428Y51132143D01*
X53776428Y52332143D01*
X54747857Y51760715D02*
X54347857Y51760715D01*
X54347857Y51132143D02*
X54347857Y52332143D01*
X54919285Y52332143D01*
X34675714Y63832143D02*
X34675714Y65032143D01*
X35361428Y63832143D01*
X35361428Y65032143D01*
X36332857Y64460715D02*
X35932857Y64460715D01*
X35932857Y63832143D02*
X35932857Y65032143D01*
X36504285Y65032143D01*
X63470000Y96125000D02*
X44420000Y96125000D01*
X63470000Y85965000D02*
X63470000Y96125000D01*
X44420000Y85965000D02*
X63470000Y85965000D01*
X44420000Y96125000D02*
X44420000Y85965000D01*
X16480000Y89775000D02*
X16480000Y96125000D01*
X40610000Y89775000D02*
X16480000Y89775000D01*
X40610000Y96125000D02*
X40610000Y89775000D01*
X16480000Y96125000D02*
X40610000Y96125000D01*
X55510000Y92032143D02*
X55510000Y91232143D01*
X55224285Y92489286D02*
X54938571Y91632143D01*
X55681428Y91632143D01*
X57052857Y91860715D02*
X57967142Y91860715D01*
X57967142Y91517858D02*
X57052857Y91517858D01*
X59281428Y92432143D02*
X59967142Y92432143D01*
X59624285Y91232143D02*
X59624285Y92432143D01*
X60367142Y91232143D02*
X60367142Y92432143D01*
X60652857Y92432143D01*
X60824285Y92375000D01*
X60938571Y92260715D01*
X60995714Y92146429D01*
X61052857Y91917858D01*
X61052857Y91746429D01*
X60995714Y91517858D01*
X60938571Y91403572D01*
X60824285Y91289286D01*
X60652857Y91232143D01*
X60367142Y91232143D01*
X61795714Y92432143D02*
X62024285Y92432143D01*
X62138571Y92375000D01*
X62252857Y92260715D01*
X62310000Y92032143D01*
X62310000Y91632143D01*
X62252857Y91403572D01*
X62138571Y91289286D01*
X62024285Y91232143D01*
X61795714Y91232143D01*
X61681428Y91289286D01*
X61567142Y91403572D01*
X61510000Y91632143D01*
X61510000Y92032143D01*
X61567142Y92260715D01*
X61681428Y92375000D01*
X61795714Y92432143D01*
X55567142Y90432143D02*
X54995714Y90432143D01*
X54938571Y89860715D01*
X54995714Y89917858D01*
X55110000Y89975000D01*
X55395714Y89975000D01*
X55510000Y89917858D01*
X55567142Y89860715D01*
X55624285Y89746429D01*
X55624285Y89460715D01*
X55567142Y89346429D01*
X55510000Y89289286D01*
X55395714Y89232143D01*
X55110000Y89232143D01*
X54995714Y89289286D01*
X54938571Y89346429D01*
X57052857Y89860715D02*
X57967142Y89860715D01*
X57967142Y89517858D02*
X57052857Y89517858D01*
X59281428Y90432143D02*
X59967142Y90432143D01*
X59624285Y89232143D02*
X59624285Y90432143D01*
X60367142Y89232143D02*
X60367142Y90432143D01*
X60652857Y90432143D01*
X60824285Y90375000D01*
X60938571Y90260715D01*
X60995714Y90146429D01*
X61052857Y89917858D01*
X61052857Y89746429D01*
X60995714Y89517858D01*
X60938571Y89403572D01*
X60824285Y89289286D01*
X60652857Y89232143D01*
X60367142Y89232143D01*
X61567142Y89232143D02*
X61567142Y90432143D01*
X55510000Y88432143D02*
X55281428Y88432143D01*
X55167142Y88375000D01*
X55110000Y88317858D01*
X54995714Y88146429D01*
X54938571Y87917858D01*
X54938571Y87460715D01*
X54995714Y87346429D01*
X55052857Y87289286D01*
X55167142Y87232143D01*
X55395714Y87232143D01*
X55510000Y87289286D01*
X55567142Y87346429D01*
X55624285Y87460715D01*
X55624285Y87746429D01*
X55567142Y87860715D01*
X55510000Y87917858D01*
X55395714Y87975000D01*
X55167142Y87975000D01*
X55052857Y87917858D01*
X54995714Y87860715D01*
X54938571Y87746429D01*
X57052857Y87860715D02*
X57967142Y87860715D01*
X57967142Y87517858D02*
X57052857Y87517858D01*
X59281428Y88432143D02*
X59967142Y88432143D01*
X59624285Y87232143D02*
X59624285Y88432143D01*
X60367142Y87232143D02*
X60367142Y88432143D01*
X60767142Y87575000D01*
X61167142Y88432143D01*
X61167142Y87232143D01*
X61681428Y87289286D02*
X61852857Y87232143D01*
X62138571Y87232143D01*
X62252857Y87289286D01*
X62310000Y87346429D01*
X62367142Y87460715D01*
X62367142Y87575000D01*
X62310000Y87689286D01*
X62252857Y87746429D01*
X62138571Y87803572D01*
X61910000Y87860715D01*
X61795714Y87917858D01*
X61738571Y87975000D01*
X61681428Y88089286D01*
X61681428Y88203572D01*
X61738571Y88317858D01*
X61795714Y88375000D01*
X61910000Y88432143D01*
X62195714Y88432143D01*
X62367142Y88375000D01*
X46099285Y91232143D02*
X45413571Y91232143D01*
X45756428Y91232143D02*
X45756428Y92432143D01*
X45642142Y92260715D01*
X45527857Y92146429D01*
X45413571Y92089286D01*
X47527857Y91860715D02*
X48442142Y91860715D01*
X48442142Y91517858D02*
X47527857Y91517858D01*
X49813571Y92432143D02*
X50556428Y92432143D01*
X50156428Y91975000D01*
X50327857Y91975000D01*
X50442142Y91917858D01*
X50499285Y91860715D01*
X50556428Y91746429D01*
X50556428Y91460715D01*
X50499285Y91346429D01*
X50442142Y91289286D01*
X50327857Y91232143D01*
X49985000Y91232143D01*
X49870714Y91289286D01*
X49813571Y91346429D01*
X50899285Y92432143D02*
X51299285Y91232143D01*
X51699285Y92432143D01*
X51985000Y92432143D02*
X52727857Y92432143D01*
X52327857Y91975000D01*
X52499285Y91975000D01*
X52613571Y91917858D01*
X52670714Y91860715D01*
X52727857Y91746429D01*
X52727857Y91460715D01*
X52670714Y91346429D01*
X52613571Y91289286D01*
X52499285Y91232143D01*
X52156428Y91232143D01*
X52042142Y91289286D01*
X51985000Y91346429D01*
X45413571Y90317858D02*
X45470714Y90375000D01*
X45585000Y90432143D01*
X45870714Y90432143D01*
X45985000Y90375000D01*
X46042142Y90317858D01*
X46099285Y90203572D01*
X46099285Y90089286D01*
X46042142Y89917858D01*
X45356428Y89232143D01*
X46099285Y89232143D01*
X47527857Y89860715D02*
X48442142Y89860715D01*
X48442142Y89517858D02*
X47527857Y89517858D01*
X50556428Y90375000D02*
X50442142Y90432143D01*
X50270714Y90432143D01*
X50099285Y90375000D01*
X49985000Y90260715D01*
X49927857Y90146429D01*
X49870714Y89917858D01*
X49870714Y89746429D01*
X49927857Y89517858D01*
X49985000Y89403572D01*
X50099285Y89289286D01*
X50270714Y89232143D01*
X50385000Y89232143D01*
X50556428Y89289286D01*
X50613571Y89346429D01*
X50613571Y89746429D01*
X50385000Y89746429D01*
X51127857Y89232143D02*
X51127857Y90432143D01*
X51813571Y89232143D01*
X51813571Y90432143D01*
X52385000Y89232143D02*
X52385000Y90432143D01*
X52670714Y90432143D01*
X52842142Y90375000D01*
X52956428Y90260715D01*
X53013571Y90146429D01*
X53070714Y89917858D01*
X53070714Y89746429D01*
X53013571Y89517858D01*
X52956428Y89403572D01*
X52842142Y89289286D01*
X52670714Y89232143D01*
X52385000Y89232143D01*
X45356428Y88432143D02*
X46099285Y88432143D01*
X45699285Y87975000D01*
X45870714Y87975000D01*
X45985000Y87917858D01*
X46042142Y87860715D01*
X46099285Y87746429D01*
X46099285Y87460715D01*
X46042142Y87346429D01*
X45985000Y87289286D01*
X45870714Y87232143D01*
X45527857Y87232143D01*
X45413571Y87289286D01*
X45356428Y87346429D01*
X47527857Y87860715D02*
X48442142Y87860715D01*
X48442142Y87517858D02*
X47527857Y87517858D01*
X49756428Y88432143D02*
X50442142Y88432143D01*
X50099285Y87232143D02*
X50099285Y88432143D01*
X51527857Y87346429D02*
X51470714Y87289286D01*
X51299285Y87232143D01*
X51185000Y87232143D01*
X51013571Y87289286D01*
X50899285Y87403572D01*
X50842142Y87517858D01*
X50785000Y87746429D01*
X50785000Y87917858D01*
X50842142Y88146429D01*
X50899285Y88260715D01*
X51013571Y88375000D01*
X51185000Y88432143D01*
X51299285Y88432143D01*
X51470714Y88375000D01*
X51527857Y88317858D01*
X52042142Y87232143D02*
X52042142Y88432143D01*
X52727857Y87232143D02*
X52213571Y87917858D01*
X52727857Y88432143D02*
X52042142Y87746429D01*
D12*
X17509285Y93975000D02*
X18223571Y93975000D01*
X17366428Y93546429D02*
X17866428Y95046429D01*
X18366428Y93546429D01*
X18652142Y94546429D02*
X19223571Y94546429D01*
X18866428Y95046429D02*
X18866428Y93760715D01*
X18937857Y93617858D01*
X19080714Y93546429D01*
X19223571Y93546429D01*
X19937857Y93546429D02*
X19795000Y93617858D01*
X19723571Y93689286D01*
X19652142Y93832143D01*
X19652142Y94260715D01*
X19723571Y94403572D01*
X19795000Y94475000D01*
X19937857Y94546429D01*
X20152142Y94546429D01*
X20295000Y94475000D01*
X20366428Y94403572D01*
X20437857Y94260715D01*
X20437857Y93832143D01*
X20366428Y93689286D01*
X20295000Y93617858D01*
X20152142Y93546429D01*
X19937857Y93546429D01*
X21080714Y93546429D02*
X21080714Y94546429D01*
X21080714Y94403572D02*
X21152142Y94475000D01*
X21295000Y94546429D01*
X21509285Y94546429D01*
X21652142Y94475000D01*
X21723571Y94332143D01*
X21723571Y93546429D01*
X21723571Y94332143D02*
X21795000Y94475000D01*
X21937857Y94546429D01*
X22152142Y94546429D01*
X22295000Y94475000D01*
X22366428Y94332143D01*
X22366428Y93546429D01*
X24009285Y95046429D02*
X24509285Y93546429D01*
X25009285Y95046429D01*
X25509285Y93546429D02*
X25509285Y94546429D01*
X25509285Y95046429D02*
X25437857Y94975000D01*
X25509285Y94903572D01*
X25580714Y94975000D01*
X25509285Y95046429D01*
X25509285Y94903572D01*
X26866428Y93546429D02*
X26866428Y95046429D01*
X26866428Y93617858D02*
X26723571Y93546429D01*
X26437857Y93546429D01*
X26295000Y93617858D01*
X26223571Y93689286D01*
X26152142Y93832143D01*
X26152142Y94260715D01*
X26223571Y94403572D01*
X26295000Y94475000D01*
X26437857Y94546429D01*
X26723571Y94546429D01*
X26866428Y94475000D01*
X28152142Y93617858D02*
X28009285Y93546429D01*
X27723571Y93546429D01*
X27580714Y93617858D01*
X27509285Y93760715D01*
X27509285Y94332143D01*
X27580714Y94475000D01*
X27723571Y94546429D01*
X28009285Y94546429D01*
X28152142Y94475000D01*
X28223571Y94332143D01*
X28223571Y94189286D01*
X27509285Y94046429D01*
X29080714Y93546429D02*
X28937857Y93617858D01*
X28866428Y93689286D01*
X28795000Y93832143D01*
X28795000Y94260715D01*
X28866428Y94403572D01*
X28937857Y94475000D01*
X29080714Y94546429D01*
X29295000Y94546429D01*
X29437857Y94475000D01*
X29509285Y94403572D01*
X29580714Y94260715D01*
X29580714Y93832143D01*
X29509285Y93689286D01*
X29437857Y93617858D01*
X29295000Y93546429D01*
X29080714Y93546429D01*
X31152142Y94546429D02*
X31723571Y94546429D01*
X31366428Y95046429D02*
X31366428Y93760715D01*
X31437857Y93617858D01*
X31580714Y93546429D01*
X31723571Y93546429D01*
X32437857Y93546429D02*
X32295000Y93617858D01*
X32223571Y93689286D01*
X32152142Y93832143D01*
X32152142Y94260715D01*
X32223571Y94403572D01*
X32295000Y94475000D01*
X32437857Y94546429D01*
X32652142Y94546429D01*
X32795000Y94475000D01*
X32866428Y94403572D01*
X32937857Y94260715D01*
X32937857Y93832143D01*
X32866428Y93689286D01*
X32795000Y93617858D01*
X32652142Y93546429D01*
X32437857Y93546429D01*
X34723571Y93546429D02*
X34723571Y95046429D01*
X34723571Y94332143D02*
X35580714Y94332143D01*
X35580714Y93546429D02*
X35580714Y95046429D01*
X36295000Y93546429D02*
X36295000Y95046429D01*
X36652142Y95046429D01*
X36866428Y94975000D01*
X37009285Y94832143D01*
X37080714Y94689286D01*
X37152142Y94403572D01*
X37152142Y94189286D01*
X37080714Y93903572D01*
X37009285Y93760715D01*
X36866428Y93617858D01*
X36652142Y93546429D01*
X36295000Y93546429D01*
X37795000Y93546429D02*
X37795000Y95046429D01*
X38295000Y93975000D01*
X38795000Y95046429D01*
X38795000Y93546429D01*
X39509285Y93546429D02*
X39509285Y95046429D01*
X20080714Y90425000D02*
X20009285Y90496429D01*
X19866428Y90710715D01*
X19795000Y90853572D01*
X19723571Y91067858D01*
X19652142Y91425000D01*
X19652142Y91710715D01*
X19723571Y92067858D01*
X19795000Y92282143D01*
X19866428Y92425000D01*
X20009285Y92639286D01*
X20080714Y92710715D01*
X21295000Y91067858D02*
X21152142Y90996429D01*
X20866428Y90996429D01*
X20723571Y91067858D01*
X20652142Y91139286D01*
X20580714Y91282143D01*
X20580714Y91710715D01*
X20652142Y91853572D01*
X20723571Y91925000D01*
X20866428Y91996429D01*
X21152142Y91996429D01*
X21295000Y91925000D01*
X21795000Y90425000D02*
X21866428Y90496429D01*
X22009285Y90710715D01*
X22080714Y90853572D01*
X22152142Y91067858D01*
X22223571Y91425000D01*
X22223571Y91710715D01*
X22152142Y92067858D01*
X22080714Y92282143D01*
X22009285Y92425000D01*
X21866428Y92639286D01*
X21795000Y92710715D01*
X24009285Y92353572D02*
X24080714Y92425000D01*
X24223571Y92496429D01*
X24580714Y92496429D01*
X24723571Y92425000D01*
X24795000Y92353572D01*
X24866428Y92210715D01*
X24866428Y92067858D01*
X24795000Y91853572D01*
X23937857Y90996429D01*
X24866428Y90996429D01*
X25795000Y92496429D02*
X25937857Y92496429D01*
X26080714Y92425000D01*
X26152142Y92353572D01*
X26223571Y92210715D01*
X26295000Y91925000D01*
X26295000Y91567858D01*
X26223571Y91282143D01*
X26152142Y91139286D01*
X26080714Y91067858D01*
X25937857Y90996429D01*
X25795000Y90996429D01*
X25652142Y91067858D01*
X25580714Y91139286D01*
X25509285Y91282143D01*
X25437857Y91567858D01*
X25437857Y91925000D01*
X25509285Y92210715D01*
X25580714Y92353572D01*
X25652142Y92425000D01*
X25795000Y92496429D01*
X27723571Y90996429D02*
X26866428Y90996429D01*
X27295000Y90996429D02*
X27295000Y92496429D01*
X27152142Y92282143D01*
X27009285Y92139286D01*
X26866428Y92067858D01*
X28437857Y90996429D02*
X28723571Y90996429D01*
X28866428Y91067858D01*
X28937857Y91139286D01*
X29080714Y91353572D01*
X29152142Y91639286D01*
X29152142Y92210715D01*
X29080714Y92353572D01*
X29009285Y92425000D01*
X28866428Y92496429D01*
X28580714Y92496429D01*
X28437857Y92425000D01*
X28366428Y92353572D01*
X28295000Y92210715D01*
X28295000Y91853572D01*
X28366428Y91710715D01*
X28437857Y91639286D01*
X28580714Y91567858D01*
X28866428Y91567858D01*
X29009285Y91639286D01*
X29080714Y91710715D01*
X29152142Y91853572D01*
X30937857Y90996429D02*
X30937857Y92496429D01*
X30937857Y91782143D02*
X31795000Y91782143D01*
X31795000Y90996429D02*
X31795000Y92496429D01*
X32723571Y90996429D02*
X32580714Y91067858D01*
X32509285Y91139286D01*
X32437857Y91282143D01*
X32437857Y91710715D01*
X32509285Y91853572D01*
X32580714Y91925000D01*
X32723571Y91996429D01*
X32937857Y91996429D01*
X33080714Y91925000D01*
X33152142Y91853572D01*
X33223571Y91710715D01*
X33223571Y91282143D01*
X33152142Y91139286D01*
X33080714Y91067858D01*
X32937857Y90996429D01*
X32723571Y90996429D01*
X34509285Y91996429D02*
X34509285Y90782143D01*
X34437857Y90639286D01*
X34366428Y90567858D01*
X34223571Y90496429D01*
X34009285Y90496429D01*
X33866428Y90567858D01*
X34509285Y91067858D02*
X34366428Y90996429D01*
X34080714Y90996429D01*
X33937857Y91067858D01*
X33866428Y91139286D01*
X33795000Y91282143D01*
X33795000Y91710715D01*
X33866428Y91853572D01*
X33937857Y91925000D01*
X34080714Y91996429D01*
X34366428Y91996429D01*
X34509285Y91925000D01*
X35437857Y90996429D02*
X35295000Y91067858D01*
X35223571Y91210715D01*
X35223571Y92496429D01*
X36580714Y91067858D02*
X36437857Y90996429D01*
X36152142Y90996429D01*
X36009285Y91067858D01*
X35937857Y91210715D01*
X35937857Y91782143D01*
X36009285Y91925000D01*
X36152142Y91996429D01*
X36437857Y91996429D01*
X36580714Y91925000D01*
X36652142Y91782143D01*
X36652142Y91639286D01*
X35937857Y91496429D01*
X37080714Y91996429D02*
X37652142Y91996429D01*
X37295000Y92496429D02*
X37295000Y91210715D01*
X37366428Y91067858D01*
X37509285Y90996429D01*
X37652142Y90996429D01*
X45980714Y95041429D02*
X45980714Y93970000D01*
X45909285Y93755715D01*
X45766428Y93612858D01*
X45552142Y93541429D01*
X45409285Y93541429D01*
X46480714Y95041429D02*
X47337857Y95041429D01*
X46909285Y93541429D02*
X46909285Y95041429D01*
X47766428Y93970000D02*
X48480714Y93970000D01*
X47623571Y93541429D02*
X48123571Y95041429D01*
X48623571Y93541429D01*
X49909285Y94970000D02*
X49766428Y95041429D01*
X49552142Y95041429D01*
X49337857Y94970000D01*
X49195000Y94827143D01*
X49123571Y94684286D01*
X49052142Y94398572D01*
X49052142Y94184286D01*
X49123571Y93898572D01*
X49195000Y93755715D01*
X49337857Y93612858D01*
X49552142Y93541429D01*
X49695000Y93541429D01*
X49909285Y93612858D01*
X49980714Y93684286D01*
X49980714Y94184286D01*
X49695000Y94184286D01*
X52623571Y93684286D02*
X52552142Y93612858D01*
X52337857Y93541429D01*
X52195000Y93541429D01*
X51980714Y93612858D01*
X51837857Y93755715D01*
X51766428Y93898572D01*
X51695000Y94184286D01*
X51695000Y94398572D01*
X51766428Y94684286D01*
X51837857Y94827143D01*
X51980714Y94970000D01*
X52195000Y95041429D01*
X52337857Y95041429D01*
X52552142Y94970000D01*
X52623571Y94898572D01*
X53480714Y93541429D02*
X53337857Y93612858D01*
X53266428Y93684286D01*
X53195000Y93827143D01*
X53195000Y94255715D01*
X53266428Y94398572D01*
X53337857Y94470000D01*
X53480714Y94541429D01*
X53695000Y94541429D01*
X53837857Y94470000D01*
X53909285Y94398572D01*
X53980714Y94255715D01*
X53980714Y93827143D01*
X53909285Y93684286D01*
X53837857Y93612858D01*
X53695000Y93541429D01*
X53480714Y93541429D01*
X54623571Y94541429D02*
X54623571Y93541429D01*
X54623571Y94398572D02*
X54695000Y94470000D01*
X54837857Y94541429D01*
X55052142Y94541429D01*
X55195000Y94470000D01*
X55266428Y94327143D01*
X55266428Y93541429D01*
X55980714Y94541429D02*
X55980714Y93541429D01*
X55980714Y94398572D02*
X56052142Y94470000D01*
X56195000Y94541429D01*
X56409285Y94541429D01*
X56552142Y94470000D01*
X56623571Y94327143D01*
X56623571Y93541429D01*
X57909285Y93612858D02*
X57766428Y93541429D01*
X57480714Y93541429D01*
X57337857Y93612858D01*
X57266428Y93755715D01*
X57266428Y94327143D01*
X57337857Y94470000D01*
X57480714Y94541429D01*
X57766428Y94541429D01*
X57909285Y94470000D01*
X57980714Y94327143D01*
X57980714Y94184286D01*
X57266428Y94041429D01*
X59266428Y93612858D02*
X59123571Y93541429D01*
X58837857Y93541429D01*
X58695000Y93612858D01*
X58623571Y93684286D01*
X58552142Y93827143D01*
X58552142Y94255715D01*
X58623571Y94398572D01*
X58695000Y94470000D01*
X58837857Y94541429D01*
X59123571Y94541429D01*
X59266428Y94470000D01*
X59695000Y94541429D02*
X60266428Y94541429D01*
X59909285Y95041429D02*
X59909285Y93755715D01*
X59980714Y93612858D01*
X60123571Y93541429D01*
X60266428Y93541429D01*
X60980714Y93541429D02*
X60837857Y93612858D01*
X60766428Y93684286D01*
X60695000Y93827143D01*
X60695000Y94255715D01*
X60766428Y94398572D01*
X60837857Y94470000D01*
X60980714Y94541429D01*
X61195000Y94541429D01*
X61337857Y94470000D01*
X61409285Y94398572D01*
X61480714Y94255715D01*
X61480714Y93827143D01*
X61409285Y93684286D01*
X61337857Y93612858D01*
X61195000Y93541429D01*
X60980714Y93541429D01*
X62123571Y93541429D02*
X62123571Y94541429D01*
X62123571Y94255715D02*
X62195000Y94398572D01*
X62266428Y94470000D01*
X62409285Y94541429D01*
X62552142Y94541429D01*
X41530714Y60751429D02*
X41245000Y60751429D01*
X41102142Y60680000D01*
X41030714Y60608572D01*
X40887857Y60394286D01*
X40816428Y60108572D01*
X40816428Y59537143D01*
X40887857Y59394286D01*
X40959285Y59322858D01*
X41102142Y59251429D01*
X41387857Y59251429D01*
X41530714Y59322858D01*
X41602142Y59394286D01*
X41673571Y59537143D01*
X41673571Y59894286D01*
X41602142Y60037143D01*
X41530714Y60108572D01*
X41387857Y60180000D01*
X41102142Y60180000D01*
X40959285Y60108572D01*
X40887857Y60037143D01*
X40816428Y59894286D01*
X41602142Y63291429D02*
X40887857Y63291429D01*
X40816428Y62577143D01*
X40887857Y62648572D01*
X41030714Y62720000D01*
X41387857Y62720000D01*
X41530714Y62648572D01*
X41602142Y62577143D01*
X41673571Y62434286D01*
X41673571Y62077143D01*
X41602142Y61934286D01*
X41530714Y61862858D01*
X41387857Y61791429D01*
X41030714Y61791429D01*
X40887857Y61862858D01*
X40816428Y61934286D01*
X41530714Y65331429D02*
X41530714Y64331429D01*
X41173571Y65902858D02*
X40816428Y64831429D01*
X41745000Y64831429D01*
X40745000Y68371429D02*
X41673571Y68371429D01*
X41173571Y67800000D01*
X41387857Y67800000D01*
X41530714Y67728572D01*
X41602142Y67657143D01*
X41673571Y67514286D01*
X41673571Y67157143D01*
X41602142Y67014286D01*
X41530714Y66942858D01*
X41387857Y66871429D01*
X40959285Y66871429D01*
X40816428Y66942858D01*
X40745000Y67014286D01*
X40816428Y70768572D02*
X40887857Y70840000D01*
X41030714Y70911429D01*
X41387857Y70911429D01*
X41530714Y70840000D01*
X41602142Y70768572D01*
X41673571Y70625715D01*
X41673571Y70482858D01*
X41602142Y70268572D01*
X40745000Y69411429D01*
X41673571Y69411429D01*
X41673571Y71951429D02*
X40816428Y71951429D01*
X41245000Y71951429D02*
X41245000Y73451429D01*
X41102142Y73237143D01*
X40959285Y73094286D01*
X40816428Y73022858D01*
D10*
X41880000Y45960000D02*
G75*
G03X41880000Y45960000I-635000J0D01*
G01*
D12*
X53520000Y34486429D02*
X53020000Y35200715D01*
X52662857Y34486429D02*
X52662857Y35986429D01*
X53234285Y35986429D01*
X53377142Y35915000D01*
X53448571Y35843572D01*
X53520000Y35700715D01*
X53520000Y35486429D01*
X53448571Y35343572D01*
X53377142Y35272143D01*
X53234285Y35200715D01*
X52662857Y35200715D01*
X54020000Y34486429D02*
X54805714Y35486429D01*
X54020000Y35486429D02*
X54805714Y34486429D01*
X52805714Y38526429D02*
X53662857Y38526429D01*
X53234285Y37026429D02*
X53234285Y38526429D01*
X54020000Y37026429D02*
X54805714Y38026429D01*
X54020000Y38026429D02*
X54805714Y37026429D01*
D10*
X76002200Y19008400D02*
G75*
G02X73002200Y16008400I-3000000J0D01*
G01*
X49002200Y16008400D02*
G75*
G02X46002200Y19008400I0J3000000D01*
G01*
X73002200Y81008400D02*
G75*
G02X76002200Y78008400I0J-3000000D01*
G01*
X46002200Y78008400D02*
G75*
G02X49002200Y81008400I3000000J0D01*
G01*
X76002200Y78008400D02*
X76002200Y19008400D01*
X46002200Y78008400D02*
X46002200Y19008400D01*
X49002200Y16008400D02*
X73002200Y16008400D01*
X49002200Y81008400D02*
X73002200Y81008400D01*
D13*
G04 #@! TO.C,C18*
X24885000Y11135000D02*
X32125000Y11135000D01*
X24885000Y8395000D02*
X32125000Y8395000D01*
X24885000Y11135000D02*
X24885000Y8395000D01*
X32125000Y11135000D02*
X32125000Y8395000D01*
G04 #@! TO.C,R24*
X58930000Y61300000D02*
X58930000Y58560000D01*
X58930000Y58560000D02*
X65470000Y58560000D01*
X65470000Y58560000D02*
X65470000Y61300000D01*
X65470000Y61300000D02*
X58930000Y61300000D01*
X58160000Y59930000D02*
X58930000Y59930000D01*
X66240000Y59930000D02*
X65470000Y59930000D01*
G04 #@! TO.C,J11*
X55790000Y33835000D02*
X58450000Y33835000D01*
X55790000Y38975000D02*
X55790000Y33835000D01*
X58450000Y38975000D02*
X58450000Y33835000D01*
X55790000Y38975000D02*
X58450000Y38975000D01*
X55790000Y40245000D02*
X55790000Y41575000D01*
X55790000Y41575000D02*
X57120000Y41575000D01*
G04 #@! TO.C,RV2*
X25370000Y14845000D02*
X25370000Y25005000D01*
X35530000Y14845000D02*
X35530000Y25005000D01*
X29800000Y23345000D02*
X26890000Y23345000D01*
X35530000Y25005000D02*
X25370000Y25005000D01*
X35530000Y14845000D02*
X25370000Y14845000D01*
G04 #@! TO.C,RV1*
X12035000Y25005000D02*
X12035000Y14845000D01*
X1875000Y25005000D02*
X1875000Y14845000D01*
X7605000Y16505000D02*
X10515000Y16505000D01*
X1875000Y14845000D02*
X12035000Y14845000D01*
X1875000Y25005000D02*
X12035000Y25005000D01*
G04 #@! TO.C,R14*
X29180000Y69225000D02*
X29180000Y69995000D01*
X29180000Y77305000D02*
X29180000Y76535000D01*
X30550000Y69995000D02*
X30550000Y76535000D01*
X27810000Y69995000D02*
X30550000Y69995000D01*
X27810000Y76535000D02*
X27810000Y69995000D01*
X30550000Y76535000D02*
X27810000Y76535000D01*
G04 #@! TO.C,SW4*
X70445000Y32086000D02*
X70145000Y32086000D01*
X70145000Y31196000D02*
X70495000Y31196000D01*
X70145000Y31196000D02*
X70145000Y32086000D01*
X72695000Y30706000D02*
X72695000Y25726000D01*
X76935000Y32086000D02*
X73085000Y32086000D01*
X76935000Y24346000D02*
X76935000Y32086000D01*
X73085000Y24346000D02*
X76935000Y24346000D01*
X70445000Y24346000D02*
X70145000Y24346000D01*
X70145000Y24346000D02*
X70145000Y25236000D01*
X70145000Y25236000D02*
X70495000Y25236000D01*
G04 #@! TO.C,J10*
X52615000Y58720000D02*
X53945000Y58720000D01*
X52615000Y57390000D02*
X52615000Y58720000D01*
X52615000Y56120000D02*
X55275000Y56120000D01*
X55275000Y56120000D02*
X55275000Y53520000D01*
X52615000Y56120000D02*
X52615000Y53520000D01*
X52615000Y53520000D02*
X55275000Y53520000D01*
G04 #@! TO.C,J9*
X30510000Y39550000D02*
X29180000Y39550000D01*
X30510000Y40880000D02*
X30510000Y39550000D01*
X30510000Y42150000D02*
X27850000Y42150000D01*
X27850000Y42150000D02*
X27850000Y44750000D01*
X30510000Y42150000D02*
X30510000Y44750000D01*
X30510000Y44750000D02*
X27850000Y44750000D01*
G04 #@! TO.C,J7*
X39280000Y18080000D02*
X40610000Y18080000D01*
X39280000Y16750000D02*
X39280000Y18080000D01*
X39280000Y15480000D02*
X41940000Y15480000D01*
X41940000Y15480000D02*
X41940000Y15420000D01*
X39280000Y15480000D02*
X39280000Y15420000D01*
X39280000Y15420000D02*
X41940000Y15420000D01*
G04 #@! TO.C,J8*
X32295000Y86025000D02*
X33625000Y86025000D01*
X32295000Y84695000D02*
X32295000Y86025000D01*
X32295000Y83425000D02*
X34955000Y83425000D01*
X34955000Y83425000D02*
X34955000Y83365000D01*
X32295000Y83425000D02*
X32295000Y83365000D01*
X32295000Y83365000D02*
X34955000Y83365000D01*
G04 #@! TO.C,J6*
X33685000Y57330000D02*
X32355000Y57330000D01*
X33685000Y58660000D02*
X33685000Y57330000D01*
X33685000Y59930000D02*
X31025000Y59930000D01*
X31025000Y59930000D02*
X31025000Y65070000D01*
X33685000Y59930000D02*
X33685000Y65070000D01*
X33685000Y65070000D02*
X31025000Y65070000D01*
G04 #@! TO.C,J4*
X66010000Y41515000D02*
X67280000Y41515000D01*
X66010000Y40245000D02*
X66010000Y41515000D01*
X68322929Y34785000D02*
X68720000Y34785000D01*
X68322929Y35545000D02*
X68720000Y35545000D01*
X77380000Y34785000D02*
X71380000Y34785000D01*
X77380000Y35545000D02*
X77380000Y34785000D01*
X71380000Y35545000D02*
X77380000Y35545000D01*
X68720000Y36435000D02*
X71380000Y36435000D01*
X68322929Y37325000D02*
X68720000Y37325000D01*
X68322929Y38085000D02*
X68720000Y38085000D01*
X77380000Y37325000D02*
X71380000Y37325000D01*
X77380000Y38085000D02*
X77380000Y37325000D01*
X71380000Y38085000D02*
X77380000Y38085000D01*
X68720000Y38975000D02*
X71380000Y38975000D01*
X68390000Y39865000D02*
X68720000Y39865000D01*
X68390000Y40625000D02*
X68720000Y40625000D01*
X71380000Y39965000D02*
X77380000Y39965000D01*
X71380000Y40085000D02*
X77380000Y40085000D01*
X71380000Y40205000D02*
X77380000Y40205000D01*
X71380000Y40325000D02*
X77380000Y40325000D01*
X71380000Y40445000D02*
X77380000Y40445000D01*
X71380000Y40565000D02*
X77380000Y40565000D01*
X77380000Y39865000D02*
X71380000Y39865000D01*
X77380000Y40625000D02*
X77380000Y39865000D01*
X71380000Y40625000D02*
X77380000Y40625000D01*
X71380000Y41575000D02*
X68720000Y41575000D01*
X71380000Y33835000D02*
X71380000Y41575000D01*
X68720000Y33835000D02*
X71380000Y33835000D01*
X68720000Y41575000D02*
X68720000Y33835000D01*
G04 #@! TO.C,R23*
X66240000Y56755000D02*
X65470000Y56755000D01*
X58160000Y56755000D02*
X58930000Y56755000D01*
X65470000Y58125000D02*
X58930000Y58125000D01*
X65470000Y55385000D02*
X65470000Y58125000D01*
X58930000Y55385000D02*
X65470000Y55385000D01*
X58930000Y58125000D02*
X58930000Y55385000D01*
G04 #@! TO.C,J2*
X53310000Y28240000D02*
X54640000Y28240000D01*
X54640000Y28240000D02*
X54640000Y26910000D01*
X54640000Y25640000D02*
X54640000Y23040000D01*
X51980000Y23040000D02*
X54640000Y23040000D01*
X51980000Y25640000D02*
X51980000Y23040000D01*
X51980000Y25640000D02*
X54640000Y25640000D01*
G04 #@! TO.C,R19*
X36165000Y35395000D02*
X36165000Y34625000D01*
X36165000Y27315000D02*
X36165000Y28085000D01*
X34795000Y34625000D02*
X34795000Y28085000D01*
X37535000Y34625000D02*
X34795000Y34625000D01*
X37535000Y28085000D02*
X37535000Y34625000D01*
X34795000Y28085000D02*
X37535000Y28085000D01*
G04 #@! TO.C,J1*
X125000Y59180000D02*
X2665000Y59180000D01*
X125000Y59180000D02*
X125000Y56640000D01*
X375000Y58930000D02*
X9725000Y58930000D01*
X375000Y38070000D02*
X375000Y58930000D01*
X9725000Y38070000D02*
X375000Y38070000D01*
X9725000Y58930000D02*
X9725000Y38070000D01*
G04 #@! TO.C,R10*
X21155000Y64375000D02*
X20385000Y64375000D01*
X13075000Y64375000D02*
X13845000Y64375000D01*
X20385000Y65745000D02*
X13845000Y65745000D01*
X20385000Y63005000D02*
X20385000Y65745000D01*
X13845000Y63005000D02*
X20385000Y63005000D01*
X13845000Y65745000D02*
X13845000Y63005000D01*
G04 #@! TO.C,C3*
X20060000Y87335000D02*
X20060000Y84595000D01*
X12820000Y87335000D02*
X12820000Y84595000D01*
X12820000Y84595000D02*
X20060000Y84595000D01*
X12820000Y87335000D02*
X20060000Y87335000D01*
G04 #@! TO.C,R5*
X11400000Y88735000D02*
X11400000Y87965000D01*
X11400000Y80655000D02*
X11400000Y81425000D01*
X10030000Y87965000D02*
X10030000Y81425000D01*
X12770000Y87965000D02*
X10030000Y87965000D01*
X12770000Y81425000D02*
X12770000Y87965000D01*
X10030000Y81425000D02*
X12770000Y81425000D01*
D11*
G04 #@! TO.C,U5*
X42610000Y45195000D02*
X44085000Y45195000D01*
X32260000Y44595000D02*
X32930000Y44595000D01*
X32260000Y54945000D02*
X32930000Y54945000D01*
X42610000Y54945000D02*
X41940000Y54945000D01*
X42610000Y44595000D02*
X41940000Y44595000D01*
X42610000Y54945000D02*
X42610000Y54275000D01*
X32260000Y54945000D02*
X32260000Y54275000D01*
X32260000Y44595000D02*
X32260000Y45265000D01*
X42610000Y44595000D02*
X42610000Y45195000D01*
D13*
G04 #@! TO.C,C15*
X29763000Y52121248D02*
X29763000Y52643752D01*
X28343000Y52121248D02*
X28343000Y52643752D01*
G04 #@! TO.C,C14*
X33133252Y41463000D02*
X32610748Y41463000D01*
X33133252Y40043000D02*
X32610748Y40043000D01*
G04 #@! TO.C,C9*
X38576252Y60005000D02*
X38053748Y60005000D01*
X38576252Y58585000D02*
X38053748Y58585000D01*
G04 #@! TO.C,C17*
X13485000Y8460225D02*
X13985000Y8460225D01*
X13735000Y8210225D02*
X13735000Y8710225D01*
X14926000Y13616000D02*
X15494000Y13616000D01*
X14692000Y13576000D02*
X15728000Y13576000D01*
X14533000Y13536000D02*
X15887000Y13536000D01*
X14405000Y13496000D02*
X16015000Y13496000D01*
X14295000Y13456000D02*
X16125000Y13456000D01*
X14199000Y13416000D02*
X16221000Y13416000D01*
X14112000Y13376000D02*
X16308000Y13376000D01*
X14032000Y13336000D02*
X16388000Y13336000D01*
X16250000Y13296000D02*
X16461000Y13296000D01*
X13959000Y13296000D02*
X14170000Y13296000D01*
X16250000Y13256000D02*
X16529000Y13256000D01*
X13891000Y13256000D02*
X14170000Y13256000D01*
X16250000Y13216000D02*
X16593000Y13216000D01*
X13827000Y13216000D02*
X14170000Y13216000D01*
X16250000Y13176000D02*
X16653000Y13176000D01*
X13767000Y13176000D02*
X14170000Y13176000D01*
X16250000Y13136000D02*
X16710000Y13136000D01*
X13710000Y13136000D02*
X14170000Y13136000D01*
X16250000Y13096000D02*
X16764000Y13096000D01*
X13656000Y13096000D02*
X14170000Y13096000D01*
X16250000Y13056000D02*
X16815000Y13056000D01*
X13605000Y13056000D02*
X14170000Y13056000D01*
X16250000Y13016000D02*
X16863000Y13016000D01*
X13557000Y13016000D02*
X14170000Y13016000D01*
X16250000Y12976000D02*
X16909000Y12976000D01*
X13511000Y12976000D02*
X14170000Y12976000D01*
X16250000Y12936000D02*
X16953000Y12936000D01*
X13467000Y12936000D02*
X14170000Y12936000D01*
X16250000Y12896000D02*
X16995000Y12896000D01*
X13425000Y12896000D02*
X14170000Y12896000D01*
X16250000Y12856000D02*
X17036000Y12856000D01*
X13384000Y12856000D02*
X14170000Y12856000D01*
X16250000Y12816000D02*
X17074000Y12816000D01*
X13346000Y12816000D02*
X14170000Y12816000D01*
X16250000Y12776000D02*
X17111000Y12776000D01*
X13309000Y12776000D02*
X14170000Y12776000D01*
X16250000Y12736000D02*
X17147000Y12736000D01*
X13273000Y12736000D02*
X14170000Y12736000D01*
X16250000Y12696000D02*
X17181000Y12696000D01*
X13239000Y12696000D02*
X14170000Y12696000D01*
X16250000Y12656000D02*
X17214000Y12656000D01*
X13206000Y12656000D02*
X14170000Y12656000D01*
X16250000Y12616000D02*
X17245000Y12616000D01*
X13175000Y12616000D02*
X14170000Y12616000D01*
X16250000Y12576000D02*
X17275000Y12576000D01*
X13145000Y12576000D02*
X14170000Y12576000D01*
X16250000Y12536000D02*
X17305000Y12536000D01*
X13115000Y12536000D02*
X14170000Y12536000D01*
X16250000Y12496000D02*
X17332000Y12496000D01*
X13088000Y12496000D02*
X14170000Y12496000D01*
X16250000Y12456000D02*
X17359000Y12456000D01*
X13061000Y12456000D02*
X14170000Y12456000D01*
X16250000Y12416000D02*
X17385000Y12416000D01*
X13035000Y12416000D02*
X14170000Y12416000D01*
X16250000Y12376000D02*
X17410000Y12376000D01*
X13010000Y12376000D02*
X14170000Y12376000D01*
X16250000Y12336000D02*
X17434000Y12336000D01*
X12986000Y12336000D02*
X14170000Y12336000D01*
X16250000Y12296000D02*
X17457000Y12296000D01*
X12963000Y12296000D02*
X14170000Y12296000D01*
X16250000Y12256000D02*
X17478000Y12256000D01*
X12942000Y12256000D02*
X14170000Y12256000D01*
X16250000Y12216000D02*
X17500000Y12216000D01*
X12920000Y12216000D02*
X14170000Y12216000D01*
X16250000Y12176000D02*
X17520000Y12176000D01*
X12900000Y12176000D02*
X14170000Y12176000D01*
X16250000Y12136000D02*
X17539000Y12136000D01*
X12881000Y12136000D02*
X14170000Y12136000D01*
X16250000Y12096000D02*
X17558000Y12096000D01*
X12862000Y12096000D02*
X14170000Y12096000D01*
X16250000Y12056000D02*
X17575000Y12056000D01*
X12845000Y12056000D02*
X14170000Y12056000D01*
X16250000Y12016000D02*
X17592000Y12016000D01*
X12828000Y12016000D02*
X14170000Y12016000D01*
X16250000Y11976000D02*
X17608000Y11976000D01*
X12812000Y11976000D02*
X14170000Y11976000D01*
X16250000Y11936000D02*
X17624000Y11936000D01*
X12796000Y11936000D02*
X14170000Y11936000D01*
X16250000Y11896000D02*
X17638000Y11896000D01*
X12782000Y11896000D02*
X14170000Y11896000D01*
X16250000Y11856000D02*
X17652000Y11856000D01*
X12768000Y11856000D02*
X14170000Y11856000D01*
X16250000Y11816000D02*
X17665000Y11816000D01*
X12755000Y11816000D02*
X14170000Y11816000D01*
X16250000Y11776000D02*
X17678000Y11776000D01*
X12742000Y11776000D02*
X14170000Y11776000D01*
X16250000Y11736000D02*
X17690000Y11736000D01*
X12730000Y11736000D02*
X14170000Y11736000D01*
X16250000Y11695000D02*
X17701000Y11695000D01*
X12719000Y11695000D02*
X14170000Y11695000D01*
X16250000Y11655000D02*
X17711000Y11655000D01*
X12709000Y11655000D02*
X14170000Y11655000D01*
X16250000Y11615000D02*
X17721000Y11615000D01*
X12699000Y11615000D02*
X14170000Y11615000D01*
X16250000Y11575000D02*
X17730000Y11575000D01*
X12690000Y11575000D02*
X14170000Y11575000D01*
X16250000Y11535000D02*
X17738000Y11535000D01*
X12682000Y11535000D02*
X14170000Y11535000D01*
X16250000Y11495000D02*
X17746000Y11495000D01*
X12674000Y11495000D02*
X14170000Y11495000D01*
X16250000Y11455000D02*
X17753000Y11455000D01*
X12667000Y11455000D02*
X14170000Y11455000D01*
X16250000Y11415000D02*
X17760000Y11415000D01*
X12660000Y11415000D02*
X14170000Y11415000D01*
X16250000Y11375000D02*
X17766000Y11375000D01*
X12654000Y11375000D02*
X14170000Y11375000D01*
X16250000Y11335000D02*
X17771000Y11335000D01*
X12649000Y11335000D02*
X14170000Y11335000D01*
X16250000Y11295000D02*
X17775000Y11295000D01*
X12645000Y11295000D02*
X14170000Y11295000D01*
X16250000Y11255000D02*
X17779000Y11255000D01*
X12641000Y11255000D02*
X14170000Y11255000D01*
X12637000Y11215000D02*
X17783000Y11215000D01*
X12634000Y11175000D02*
X17786000Y11175000D01*
X12632000Y11135000D02*
X17788000Y11135000D01*
X12631000Y11095000D02*
X17789000Y11095000D01*
X12630000Y11055000D02*
X17790000Y11055000D01*
X12630000Y11015000D02*
X17790000Y11015000D01*
X17830000Y11015000D02*
G75*
G03X17830000Y11015000I-2620000J0D01*
G01*
G04 #@! TO.C,U6*
X23387684Y12843445D02*
G75*
G03X19110000Y11815000I-1827684J-1808445D01*
G01*
X23401741Y9223125D02*
G75*
G02X19110000Y10215000I-1841741J1811875D01*
G01*
X23410000Y9235000D02*
X23410000Y12835000D01*
G04 #@! TO.C,C16*
X25375225Y61020000D02*
X25375225Y60520000D01*
X25125225Y60770000D02*
X25625225Y60770000D01*
X30531000Y59579000D02*
X30531000Y59011000D01*
X30491000Y59813000D02*
X30491000Y58777000D01*
X30451000Y59972000D02*
X30451000Y58618000D01*
X30411000Y60100000D02*
X30411000Y58490000D01*
X30371000Y60210000D02*
X30371000Y58380000D01*
X30331000Y60306000D02*
X30331000Y58284000D01*
X30291000Y60393000D02*
X30291000Y58197000D01*
X30251000Y60473000D02*
X30251000Y58117000D01*
X30211000Y58255000D02*
X30211000Y58044000D01*
X30211000Y60546000D02*
X30211000Y60335000D01*
X30171000Y58255000D02*
X30171000Y57976000D01*
X30171000Y60614000D02*
X30171000Y60335000D01*
X30131000Y58255000D02*
X30131000Y57912000D01*
X30131000Y60678000D02*
X30131000Y60335000D01*
X30091000Y58255000D02*
X30091000Y57852000D01*
X30091000Y60738000D02*
X30091000Y60335000D01*
X30051000Y58255000D02*
X30051000Y57795000D01*
X30051000Y60795000D02*
X30051000Y60335000D01*
X30011000Y58255000D02*
X30011000Y57741000D01*
X30011000Y60849000D02*
X30011000Y60335000D01*
X29971000Y58255000D02*
X29971000Y57690000D01*
X29971000Y60900000D02*
X29971000Y60335000D01*
X29931000Y58255000D02*
X29931000Y57642000D01*
X29931000Y60948000D02*
X29931000Y60335000D01*
X29891000Y58255000D02*
X29891000Y57596000D01*
X29891000Y60994000D02*
X29891000Y60335000D01*
X29851000Y58255000D02*
X29851000Y57552000D01*
X29851000Y61038000D02*
X29851000Y60335000D01*
X29811000Y58255000D02*
X29811000Y57510000D01*
X29811000Y61080000D02*
X29811000Y60335000D01*
X29771000Y58255000D02*
X29771000Y57469000D01*
X29771000Y61121000D02*
X29771000Y60335000D01*
X29731000Y58255000D02*
X29731000Y57431000D01*
X29731000Y61159000D02*
X29731000Y60335000D01*
X29691000Y58255000D02*
X29691000Y57394000D01*
X29691000Y61196000D02*
X29691000Y60335000D01*
X29651000Y58255000D02*
X29651000Y57358000D01*
X29651000Y61232000D02*
X29651000Y60335000D01*
X29611000Y58255000D02*
X29611000Y57324000D01*
X29611000Y61266000D02*
X29611000Y60335000D01*
X29571000Y58255000D02*
X29571000Y57291000D01*
X29571000Y61299000D02*
X29571000Y60335000D01*
X29531000Y58255000D02*
X29531000Y57260000D01*
X29531000Y61330000D02*
X29531000Y60335000D01*
X29491000Y58255000D02*
X29491000Y57230000D01*
X29491000Y61360000D02*
X29491000Y60335000D01*
X29451000Y58255000D02*
X29451000Y57200000D01*
X29451000Y61390000D02*
X29451000Y60335000D01*
X29411000Y58255000D02*
X29411000Y57173000D01*
X29411000Y61417000D02*
X29411000Y60335000D01*
X29371000Y58255000D02*
X29371000Y57146000D01*
X29371000Y61444000D02*
X29371000Y60335000D01*
X29331000Y58255000D02*
X29331000Y57120000D01*
X29331000Y61470000D02*
X29331000Y60335000D01*
X29291000Y58255000D02*
X29291000Y57095000D01*
X29291000Y61495000D02*
X29291000Y60335000D01*
X29251000Y58255000D02*
X29251000Y57071000D01*
X29251000Y61519000D02*
X29251000Y60335000D01*
X29211000Y58255000D02*
X29211000Y57048000D01*
X29211000Y61542000D02*
X29211000Y60335000D01*
X29171000Y58255000D02*
X29171000Y57027000D01*
X29171000Y61563000D02*
X29171000Y60335000D01*
X29131000Y58255000D02*
X29131000Y57005000D01*
X29131000Y61585000D02*
X29131000Y60335000D01*
X29091000Y58255000D02*
X29091000Y56985000D01*
X29091000Y61605000D02*
X29091000Y60335000D01*
X29051000Y58255000D02*
X29051000Y56966000D01*
X29051000Y61624000D02*
X29051000Y60335000D01*
X29011000Y58255000D02*
X29011000Y56947000D01*
X29011000Y61643000D02*
X29011000Y60335000D01*
X28971000Y58255000D02*
X28971000Y56930000D01*
X28971000Y61660000D02*
X28971000Y60335000D01*
X28931000Y58255000D02*
X28931000Y56913000D01*
X28931000Y61677000D02*
X28931000Y60335000D01*
X28891000Y58255000D02*
X28891000Y56897000D01*
X28891000Y61693000D02*
X28891000Y60335000D01*
X28851000Y58255000D02*
X28851000Y56881000D01*
X28851000Y61709000D02*
X28851000Y60335000D01*
X28811000Y58255000D02*
X28811000Y56867000D01*
X28811000Y61723000D02*
X28811000Y60335000D01*
X28771000Y58255000D02*
X28771000Y56853000D01*
X28771000Y61737000D02*
X28771000Y60335000D01*
X28731000Y58255000D02*
X28731000Y56840000D01*
X28731000Y61750000D02*
X28731000Y60335000D01*
X28691000Y58255000D02*
X28691000Y56827000D01*
X28691000Y61763000D02*
X28691000Y60335000D01*
X28651000Y58255000D02*
X28651000Y56815000D01*
X28651000Y61775000D02*
X28651000Y60335000D01*
X28610000Y58255000D02*
X28610000Y56804000D01*
X28610000Y61786000D02*
X28610000Y60335000D01*
X28570000Y58255000D02*
X28570000Y56794000D01*
X28570000Y61796000D02*
X28570000Y60335000D01*
X28530000Y58255000D02*
X28530000Y56784000D01*
X28530000Y61806000D02*
X28530000Y60335000D01*
X28490000Y58255000D02*
X28490000Y56775000D01*
X28490000Y61815000D02*
X28490000Y60335000D01*
X28450000Y58255000D02*
X28450000Y56767000D01*
X28450000Y61823000D02*
X28450000Y60335000D01*
X28410000Y58255000D02*
X28410000Y56759000D01*
X28410000Y61831000D02*
X28410000Y60335000D01*
X28370000Y58255000D02*
X28370000Y56752000D01*
X28370000Y61838000D02*
X28370000Y60335000D01*
X28330000Y58255000D02*
X28330000Y56745000D01*
X28330000Y61845000D02*
X28330000Y60335000D01*
X28290000Y58255000D02*
X28290000Y56739000D01*
X28290000Y61851000D02*
X28290000Y60335000D01*
X28250000Y58255000D02*
X28250000Y56734000D01*
X28250000Y61856000D02*
X28250000Y60335000D01*
X28210000Y58255000D02*
X28210000Y56730000D01*
X28210000Y61860000D02*
X28210000Y60335000D01*
X28170000Y58255000D02*
X28170000Y56726000D01*
X28170000Y61864000D02*
X28170000Y60335000D01*
X28130000Y61868000D02*
X28130000Y56722000D01*
X28090000Y61871000D02*
X28090000Y56719000D01*
X28050000Y61873000D02*
X28050000Y56717000D01*
X28010000Y61874000D02*
X28010000Y56716000D01*
X27970000Y61875000D02*
X27970000Y56715000D01*
X27930000Y61875000D02*
X27930000Y56715000D01*
X30550000Y59295000D02*
G75*
G03X30550000Y59295000I-2620000J0D01*
G01*
G04 #@! TO.C,C13*
X26185000Y79580225D02*
X26685000Y79580225D01*
X26435000Y79330225D02*
X26435000Y79830225D01*
X27626000Y84736000D02*
X28194000Y84736000D01*
X27392000Y84696000D02*
X28428000Y84696000D01*
X27233000Y84656000D02*
X28587000Y84656000D01*
X27105000Y84616000D02*
X28715000Y84616000D01*
X26995000Y84576000D02*
X28825000Y84576000D01*
X26899000Y84536000D02*
X28921000Y84536000D01*
X26812000Y84496000D02*
X29008000Y84496000D01*
X26732000Y84456000D02*
X29088000Y84456000D01*
X28950000Y84416000D02*
X29161000Y84416000D01*
X26659000Y84416000D02*
X26870000Y84416000D01*
X28950000Y84376000D02*
X29229000Y84376000D01*
X26591000Y84376000D02*
X26870000Y84376000D01*
X28950000Y84336000D02*
X29293000Y84336000D01*
X26527000Y84336000D02*
X26870000Y84336000D01*
X28950000Y84296000D02*
X29353000Y84296000D01*
X26467000Y84296000D02*
X26870000Y84296000D01*
X28950000Y84256000D02*
X29410000Y84256000D01*
X26410000Y84256000D02*
X26870000Y84256000D01*
X28950000Y84216000D02*
X29464000Y84216000D01*
X26356000Y84216000D02*
X26870000Y84216000D01*
X28950000Y84176000D02*
X29515000Y84176000D01*
X26305000Y84176000D02*
X26870000Y84176000D01*
X28950000Y84136000D02*
X29563000Y84136000D01*
X26257000Y84136000D02*
X26870000Y84136000D01*
X28950000Y84096000D02*
X29609000Y84096000D01*
X26211000Y84096000D02*
X26870000Y84096000D01*
X28950000Y84056000D02*
X29653000Y84056000D01*
X26167000Y84056000D02*
X26870000Y84056000D01*
X28950000Y84016000D02*
X29695000Y84016000D01*
X26125000Y84016000D02*
X26870000Y84016000D01*
X28950000Y83976000D02*
X29736000Y83976000D01*
X26084000Y83976000D02*
X26870000Y83976000D01*
X28950000Y83936000D02*
X29774000Y83936000D01*
X26046000Y83936000D02*
X26870000Y83936000D01*
X28950000Y83896000D02*
X29811000Y83896000D01*
X26009000Y83896000D02*
X26870000Y83896000D01*
X28950000Y83856000D02*
X29847000Y83856000D01*
X25973000Y83856000D02*
X26870000Y83856000D01*
X28950000Y83816000D02*
X29881000Y83816000D01*
X25939000Y83816000D02*
X26870000Y83816000D01*
X28950000Y83776000D02*
X29914000Y83776000D01*
X25906000Y83776000D02*
X26870000Y83776000D01*
X28950000Y83736000D02*
X29945000Y83736000D01*
X25875000Y83736000D02*
X26870000Y83736000D01*
X28950000Y83696000D02*
X29975000Y83696000D01*
X25845000Y83696000D02*
X26870000Y83696000D01*
X28950000Y83656000D02*
X30005000Y83656000D01*
X25815000Y83656000D02*
X26870000Y83656000D01*
X28950000Y83616000D02*
X30032000Y83616000D01*
X25788000Y83616000D02*
X26870000Y83616000D01*
X28950000Y83576000D02*
X30059000Y83576000D01*
X25761000Y83576000D02*
X26870000Y83576000D01*
X28950000Y83536000D02*
X30085000Y83536000D01*
X25735000Y83536000D02*
X26870000Y83536000D01*
X28950000Y83496000D02*
X30110000Y83496000D01*
X25710000Y83496000D02*
X26870000Y83496000D01*
X28950000Y83456000D02*
X30134000Y83456000D01*
X25686000Y83456000D02*
X26870000Y83456000D01*
X28950000Y83416000D02*
X30157000Y83416000D01*
X25663000Y83416000D02*
X26870000Y83416000D01*
X28950000Y83376000D02*
X30178000Y83376000D01*
X25642000Y83376000D02*
X26870000Y83376000D01*
X28950000Y83336000D02*
X30200000Y83336000D01*
X25620000Y83336000D02*
X26870000Y83336000D01*
X28950000Y83296000D02*
X30220000Y83296000D01*
X25600000Y83296000D02*
X26870000Y83296000D01*
X28950000Y83256000D02*
X30239000Y83256000D01*
X25581000Y83256000D02*
X26870000Y83256000D01*
X28950000Y83216000D02*
X30258000Y83216000D01*
X25562000Y83216000D02*
X26870000Y83216000D01*
X28950000Y83176000D02*
X30275000Y83176000D01*
X25545000Y83176000D02*
X26870000Y83176000D01*
X28950000Y83136000D02*
X30292000Y83136000D01*
X25528000Y83136000D02*
X26870000Y83136000D01*
X28950000Y83096000D02*
X30308000Y83096000D01*
X25512000Y83096000D02*
X26870000Y83096000D01*
X28950000Y83056000D02*
X30324000Y83056000D01*
X25496000Y83056000D02*
X26870000Y83056000D01*
X28950000Y83016000D02*
X30338000Y83016000D01*
X25482000Y83016000D02*
X26870000Y83016000D01*
X28950000Y82976000D02*
X30352000Y82976000D01*
X25468000Y82976000D02*
X26870000Y82976000D01*
X28950000Y82936000D02*
X30365000Y82936000D01*
X25455000Y82936000D02*
X26870000Y82936000D01*
X28950000Y82896000D02*
X30378000Y82896000D01*
X25442000Y82896000D02*
X26870000Y82896000D01*
X28950000Y82856000D02*
X30390000Y82856000D01*
X25430000Y82856000D02*
X26870000Y82856000D01*
X28950000Y82815000D02*
X30401000Y82815000D01*
X25419000Y82815000D02*
X26870000Y82815000D01*
X28950000Y82775000D02*
X30411000Y82775000D01*
X25409000Y82775000D02*
X26870000Y82775000D01*
X28950000Y82735000D02*
X30421000Y82735000D01*
X25399000Y82735000D02*
X26870000Y82735000D01*
X28950000Y82695000D02*
X30430000Y82695000D01*
X25390000Y82695000D02*
X26870000Y82695000D01*
X28950000Y82655000D02*
X30438000Y82655000D01*
X25382000Y82655000D02*
X26870000Y82655000D01*
X28950000Y82615000D02*
X30446000Y82615000D01*
X25374000Y82615000D02*
X26870000Y82615000D01*
X28950000Y82575000D02*
X30453000Y82575000D01*
X25367000Y82575000D02*
X26870000Y82575000D01*
X28950000Y82535000D02*
X30460000Y82535000D01*
X25360000Y82535000D02*
X26870000Y82535000D01*
X28950000Y82495000D02*
X30466000Y82495000D01*
X25354000Y82495000D02*
X26870000Y82495000D01*
X28950000Y82455000D02*
X30471000Y82455000D01*
X25349000Y82455000D02*
X26870000Y82455000D01*
X28950000Y82415000D02*
X30475000Y82415000D01*
X25345000Y82415000D02*
X26870000Y82415000D01*
X28950000Y82375000D02*
X30479000Y82375000D01*
X25341000Y82375000D02*
X26870000Y82375000D01*
X25337000Y82335000D02*
X30483000Y82335000D01*
X25334000Y82295000D02*
X30486000Y82295000D01*
X25332000Y82255000D02*
X30488000Y82255000D01*
X25331000Y82215000D02*
X30489000Y82215000D01*
X25330000Y82175000D02*
X30490000Y82175000D01*
X25330000Y82135000D02*
X30490000Y82135000D01*
X30530000Y82135000D02*
G75*
G03X30530000Y82135000I-2620000J0D01*
G01*
G04 #@! TO.C,C4*
X38670225Y6727500D02*
X38670225Y6227500D01*
X38420225Y6477500D02*
X38920225Y6477500D01*
X43826000Y5286500D02*
X43826000Y4718500D01*
X43786000Y5520500D02*
X43786000Y4484500D01*
X43746000Y5679500D02*
X43746000Y4325500D01*
X43706000Y5807500D02*
X43706000Y4197500D01*
X43666000Y5917500D02*
X43666000Y4087500D01*
X43626000Y6013500D02*
X43626000Y3991500D01*
X43586000Y6100500D02*
X43586000Y3904500D01*
X43546000Y6180500D02*
X43546000Y3824500D01*
X43506000Y3962500D02*
X43506000Y3751500D01*
X43506000Y6253500D02*
X43506000Y6042500D01*
X43466000Y3962500D02*
X43466000Y3683500D01*
X43466000Y6321500D02*
X43466000Y6042500D01*
X43426000Y3962500D02*
X43426000Y3619500D01*
X43426000Y6385500D02*
X43426000Y6042500D01*
X43386000Y3962500D02*
X43386000Y3559500D01*
X43386000Y6445500D02*
X43386000Y6042500D01*
X43346000Y3962500D02*
X43346000Y3502500D01*
X43346000Y6502500D02*
X43346000Y6042500D01*
X43306000Y3962500D02*
X43306000Y3448500D01*
X43306000Y6556500D02*
X43306000Y6042500D01*
X43266000Y3962500D02*
X43266000Y3397500D01*
X43266000Y6607500D02*
X43266000Y6042500D01*
X43226000Y3962500D02*
X43226000Y3349500D01*
X43226000Y6655500D02*
X43226000Y6042500D01*
X43186000Y3962500D02*
X43186000Y3303500D01*
X43186000Y6701500D02*
X43186000Y6042500D01*
X43146000Y3962500D02*
X43146000Y3259500D01*
X43146000Y6745500D02*
X43146000Y6042500D01*
X43106000Y3962500D02*
X43106000Y3217500D01*
X43106000Y6787500D02*
X43106000Y6042500D01*
X43066000Y3962500D02*
X43066000Y3176500D01*
X43066000Y6828500D02*
X43066000Y6042500D01*
X43026000Y3962500D02*
X43026000Y3138500D01*
X43026000Y6866500D02*
X43026000Y6042500D01*
X42986000Y3962500D02*
X42986000Y3101500D01*
X42986000Y6903500D02*
X42986000Y6042500D01*
X42946000Y3962500D02*
X42946000Y3065500D01*
X42946000Y6939500D02*
X42946000Y6042500D01*
X42906000Y3962500D02*
X42906000Y3031500D01*
X42906000Y6973500D02*
X42906000Y6042500D01*
X42866000Y3962500D02*
X42866000Y2998500D01*
X42866000Y7006500D02*
X42866000Y6042500D01*
X42826000Y3962500D02*
X42826000Y2967500D01*
X42826000Y7037500D02*
X42826000Y6042500D01*
X42786000Y3962500D02*
X42786000Y2937500D01*
X42786000Y7067500D02*
X42786000Y6042500D01*
X42746000Y3962500D02*
X42746000Y2907500D01*
X42746000Y7097500D02*
X42746000Y6042500D01*
X42706000Y3962500D02*
X42706000Y2880500D01*
X42706000Y7124500D02*
X42706000Y6042500D01*
X42666000Y3962500D02*
X42666000Y2853500D01*
X42666000Y7151500D02*
X42666000Y6042500D01*
X42626000Y3962500D02*
X42626000Y2827500D01*
X42626000Y7177500D02*
X42626000Y6042500D01*
X42586000Y3962500D02*
X42586000Y2802500D01*
X42586000Y7202500D02*
X42586000Y6042500D01*
X42546000Y3962500D02*
X42546000Y2778500D01*
X42546000Y7226500D02*
X42546000Y6042500D01*
X42506000Y3962500D02*
X42506000Y2755500D01*
X42506000Y7249500D02*
X42506000Y6042500D01*
X42466000Y3962500D02*
X42466000Y2734500D01*
X42466000Y7270500D02*
X42466000Y6042500D01*
X42426000Y3962500D02*
X42426000Y2712500D01*
X42426000Y7292500D02*
X42426000Y6042500D01*
X42386000Y3962500D02*
X42386000Y2692500D01*
X42386000Y7312500D02*
X42386000Y6042500D01*
X42346000Y3962500D02*
X42346000Y2673500D01*
X42346000Y7331500D02*
X42346000Y6042500D01*
X42306000Y3962500D02*
X42306000Y2654500D01*
X42306000Y7350500D02*
X42306000Y6042500D01*
X42266000Y3962500D02*
X42266000Y2637500D01*
X42266000Y7367500D02*
X42266000Y6042500D01*
X42226000Y3962500D02*
X42226000Y2620500D01*
X42226000Y7384500D02*
X42226000Y6042500D01*
X42186000Y3962500D02*
X42186000Y2604500D01*
X42186000Y7400500D02*
X42186000Y6042500D01*
X42146000Y3962500D02*
X42146000Y2588500D01*
X42146000Y7416500D02*
X42146000Y6042500D01*
X42106000Y3962500D02*
X42106000Y2574500D01*
X42106000Y7430500D02*
X42106000Y6042500D01*
X42066000Y3962500D02*
X42066000Y2560500D01*
X42066000Y7444500D02*
X42066000Y6042500D01*
X42026000Y3962500D02*
X42026000Y2547500D01*
X42026000Y7457500D02*
X42026000Y6042500D01*
X41986000Y3962500D02*
X41986000Y2534500D01*
X41986000Y7470500D02*
X41986000Y6042500D01*
X41946000Y3962500D02*
X41946000Y2522500D01*
X41946000Y7482500D02*
X41946000Y6042500D01*
X41905000Y3962500D02*
X41905000Y2511500D01*
X41905000Y7493500D02*
X41905000Y6042500D01*
X41865000Y3962500D02*
X41865000Y2501500D01*
X41865000Y7503500D02*
X41865000Y6042500D01*
X41825000Y3962500D02*
X41825000Y2491500D01*
X41825000Y7513500D02*
X41825000Y6042500D01*
X41785000Y3962500D02*
X41785000Y2482500D01*
X41785000Y7522500D02*
X41785000Y6042500D01*
X41745000Y3962500D02*
X41745000Y2474500D01*
X41745000Y7530500D02*
X41745000Y6042500D01*
X41705000Y3962500D02*
X41705000Y2466500D01*
X41705000Y7538500D02*
X41705000Y6042500D01*
X41665000Y3962500D02*
X41665000Y2459500D01*
X41665000Y7545500D02*
X41665000Y6042500D01*
X41625000Y3962500D02*
X41625000Y2452500D01*
X41625000Y7552500D02*
X41625000Y6042500D01*
X41585000Y3962500D02*
X41585000Y2446500D01*
X41585000Y7558500D02*
X41585000Y6042500D01*
X41545000Y3962500D02*
X41545000Y2441500D01*
X41545000Y7563500D02*
X41545000Y6042500D01*
X41505000Y3962500D02*
X41505000Y2437500D01*
X41505000Y7567500D02*
X41505000Y6042500D01*
X41465000Y3962500D02*
X41465000Y2433500D01*
X41465000Y7571500D02*
X41465000Y6042500D01*
X41425000Y7575500D02*
X41425000Y2429500D01*
X41385000Y7578500D02*
X41385000Y2426500D01*
X41345000Y7580500D02*
X41345000Y2424500D01*
X41305000Y7581500D02*
X41305000Y2423500D01*
X41265000Y7582500D02*
X41265000Y2422500D01*
X41225000Y7582500D02*
X41225000Y2422500D01*
X43845000Y5002500D02*
G75*
G03X43845000Y5002500I-2620000J0D01*
G01*
G04 #@! TO.C,C1*
X12770000Y25235000D02*
X10030000Y25235000D01*
X12770000Y32475000D02*
X10030000Y32475000D01*
X10030000Y32475000D02*
X10030000Y25235000D01*
X12770000Y32475000D02*
X12770000Y25235000D01*
G04 #@! TO.C,C2*
X20060000Y40345000D02*
X20060000Y37605000D01*
X12820000Y40345000D02*
X12820000Y37605000D01*
X12820000Y37605000D02*
X20060000Y37605000D01*
X12820000Y40345000D02*
X20060000Y40345000D01*
G04 #@! TO.C,C5*
X3375000Y63005000D02*
X3375000Y65745000D01*
X10615000Y63005000D02*
X10615000Y65745000D01*
X10615000Y65745000D02*
X3375000Y65745000D01*
X10615000Y63005000D02*
X3375000Y63005000D01*
G04 #@! TO.C,C6*
X3375000Y59195000D02*
X3375000Y61935000D01*
X10615000Y59195000D02*
X10615000Y61935000D01*
X10615000Y61935000D02*
X3375000Y61935000D01*
X10615000Y59195000D02*
X3375000Y59195000D01*
G04 #@! TO.C,C7*
X3680000Y32475000D02*
X6420000Y32475000D01*
X3680000Y25235000D02*
X6420000Y25235000D01*
X6420000Y25235000D02*
X6420000Y32475000D01*
X3680000Y25235000D02*
X3680000Y32475000D01*
G04 #@! TO.C,C8*
X25270000Y32395000D02*
X28010000Y32395000D01*
X25270000Y25155000D02*
X28010000Y25155000D01*
X28010000Y25155000D02*
X28010000Y32395000D01*
X25270000Y25155000D02*
X25270000Y32395000D01*
G04 #@! TO.C,J3*
X42455000Y73960000D02*
X43785000Y73960000D01*
X42455000Y72630000D02*
X42455000Y73960000D01*
X42455000Y71360000D02*
X45115000Y71360000D01*
X45115000Y71360000D02*
X45115000Y58600000D01*
X42455000Y71360000D02*
X42455000Y58600000D01*
X42455000Y58600000D02*
X45115000Y58600000D01*
G04 #@! TO.C,J5*
X50770000Y73960000D02*
X52100000Y73960000D01*
X52100000Y73960000D02*
X52100000Y72630000D01*
X49500000Y73960000D02*
X49500000Y71360000D01*
X49500000Y71360000D02*
X52100000Y71360000D01*
X52100000Y71360000D02*
X52100000Y23040000D01*
X46900000Y23040000D02*
X52100000Y23040000D01*
X46900000Y73960000D02*
X46900000Y23040000D01*
X46900000Y73960000D02*
X49500000Y73960000D01*
G04 #@! TO.C,U4*
X23635000Y33380000D02*
X13135000Y33380000D01*
X23635000Y15360000D02*
X23635000Y33380000D01*
X13135000Y15360000D02*
X23635000Y15360000D01*
X13135000Y33380000D02*
X13135000Y15360000D01*
X20635000Y33320000D02*
X19385000Y33320000D01*
X20635000Y15420000D02*
X20635000Y33320000D01*
X16135000Y15420000D02*
X20635000Y15420000D01*
X16135000Y33320000D02*
X16135000Y15420000D01*
X17385000Y33320000D02*
X16135000Y33320000D01*
X19385000Y33320000D02*
G75*
G02X17385000Y33320000I-1000000J0D01*
G01*
G04 #@! TO.C,U2*
X23635000Y84180000D02*
X13135000Y84180000D01*
X23635000Y66160000D02*
X23635000Y84180000D01*
X13135000Y66160000D02*
X23635000Y66160000D01*
X13135000Y84180000D02*
X13135000Y66160000D01*
X20635000Y84120000D02*
X19385000Y84120000D01*
X20635000Y66220000D02*
X20635000Y84120000D01*
X16135000Y66220000D02*
X20635000Y66220000D01*
X16135000Y84120000D02*
X16135000Y66220000D01*
X17385000Y84120000D02*
X16135000Y84120000D01*
X19385000Y84120000D02*
G75*
G02X17385000Y84120000I-1000000J0D01*
G01*
G04 #@! TO.C,U3*
X23635000Y58780000D02*
X13135000Y58780000D01*
X23635000Y40760000D02*
X23635000Y58780000D01*
X13135000Y40760000D02*
X23635000Y40760000D01*
X13135000Y58780000D02*
X13135000Y40760000D01*
X20635000Y58720000D02*
X19385000Y58720000D01*
X20635000Y40820000D02*
X20635000Y58720000D01*
X16135000Y40820000D02*
X20635000Y40820000D01*
X16135000Y58720000D02*
X16135000Y40820000D01*
X17385000Y58720000D02*
X16135000Y58720000D01*
X19385000Y58720000D02*
G75*
G02X17385000Y58720000I-1000000J0D01*
G01*
G04 #@! TO.C,R9*
X8225000Y35395000D02*
X8225000Y34625000D01*
X8225000Y27315000D02*
X8225000Y28085000D01*
X6855000Y34625000D02*
X6855000Y28085000D01*
X9595000Y34625000D02*
X6855000Y34625000D01*
X9595000Y28085000D02*
X9595000Y34625000D01*
X6855000Y28085000D02*
X9595000Y28085000D01*
G04 #@! TO.C,R8*
X14345000Y6590000D02*
X15115000Y6590000D01*
X22425000Y6590000D02*
X21655000Y6590000D01*
X15115000Y5220000D02*
X21655000Y5220000D01*
X15115000Y7960000D02*
X15115000Y5220000D01*
X21655000Y7960000D02*
X15115000Y7960000D01*
X21655000Y5220000D02*
X21655000Y7960000D01*
G04 #@! TO.C,R7*
X27045000Y6590000D02*
X27815000Y6590000D01*
X35125000Y6590000D02*
X34355000Y6590000D01*
X27815000Y5220000D02*
X34355000Y5220000D01*
X27815000Y7960000D02*
X27815000Y5220000D01*
X34355000Y7960000D02*
X27815000Y7960000D01*
X34355000Y5220000D02*
X34355000Y7960000D01*
G04 #@! TO.C,R6*
X35125000Y3415000D02*
X34355000Y3415000D01*
X27045000Y3415000D02*
X27815000Y3415000D01*
X34355000Y4785000D02*
X27815000Y4785000D01*
X34355000Y2045000D02*
X34355000Y4785000D01*
X27815000Y2045000D02*
X34355000Y2045000D01*
X27815000Y4785000D02*
X27815000Y2045000D01*
G04 #@! TO.C,R1*
X35125000Y12940000D02*
X34355000Y12940000D01*
X27045000Y12940000D02*
X27815000Y12940000D01*
X34355000Y14310000D02*
X27815000Y14310000D01*
X34355000Y11570000D02*
X34355000Y14310000D01*
X27815000Y11570000D02*
X34355000Y11570000D01*
X27815000Y14310000D02*
X27815000Y11570000D01*
G04 #@! TO.C,R11*
X21155000Y60565000D02*
X20385000Y60565000D01*
X13075000Y60565000D02*
X13845000Y60565000D01*
X20385000Y61935000D02*
X13845000Y61935000D01*
X20385000Y59195000D02*
X20385000Y61935000D01*
X13845000Y59195000D02*
X20385000Y59195000D01*
X13845000Y61935000D02*
X13845000Y59195000D01*
G04 #@! TO.C,R3*
X11400000Y56985000D02*
X11400000Y56215000D01*
X11400000Y48905000D02*
X11400000Y49675000D01*
X10030000Y56215000D02*
X10030000Y49675000D01*
X12770000Y56215000D02*
X10030000Y56215000D01*
X12770000Y49675000D02*
X12770000Y56215000D01*
X10030000Y49675000D02*
X12770000Y49675000D01*
G04 #@! TO.C,R4*
X11400000Y76035000D02*
X11400000Y75265000D01*
X11400000Y67955000D02*
X11400000Y68725000D01*
X10030000Y75265000D02*
X10030000Y68725000D01*
X12770000Y75265000D02*
X10030000Y75265000D01*
X12770000Y68725000D02*
X12770000Y75265000D01*
X10030000Y68725000D02*
X12770000Y68725000D01*
G04 #@! TO.C,R2*
X11400000Y44285000D02*
X11400000Y43515000D01*
X11400000Y36205000D02*
X11400000Y36975000D01*
X10030000Y43515000D02*
X10030000Y36975000D01*
X12770000Y43515000D02*
X10030000Y43515000D01*
X12770000Y36975000D02*
X12770000Y43515000D01*
X10030000Y36975000D02*
X12770000Y36975000D01*
G04 #@! TO.C,R12*
X38705000Y69225000D02*
X38705000Y69995000D01*
X38705000Y77305000D02*
X38705000Y76535000D01*
X40075000Y69995000D02*
X40075000Y76535000D01*
X37335000Y69995000D02*
X40075000Y69995000D01*
X37335000Y76535000D02*
X37335000Y69995000D01*
X40075000Y76535000D02*
X37335000Y76535000D01*
G04 #@! TO.C,R16*
X32990000Y35395000D02*
X32990000Y34625000D01*
X32990000Y27315000D02*
X32990000Y28085000D01*
X31620000Y34625000D02*
X31620000Y28085000D01*
X34360000Y34625000D02*
X31620000Y34625000D01*
X34360000Y28085000D02*
X34360000Y34625000D01*
X31620000Y28085000D02*
X34360000Y28085000D01*
G04 #@! TO.C,R17*
X22425000Y3415000D02*
X21655000Y3415000D01*
X14345000Y3415000D02*
X15115000Y3415000D01*
X21655000Y4785000D02*
X15115000Y4785000D01*
X21655000Y2045000D02*
X21655000Y4785000D01*
X15115000Y2045000D02*
X21655000Y2045000D01*
X15115000Y4785000D02*
X15115000Y2045000D01*
G04 #@! TO.C,R18*
X29815000Y35395000D02*
X29815000Y34625000D01*
X29815000Y27315000D02*
X29815000Y28085000D01*
X28445000Y34625000D02*
X28445000Y28085000D01*
X31185000Y34625000D02*
X28445000Y34625000D01*
X31185000Y28085000D02*
X31185000Y34625000D01*
X28445000Y28085000D02*
X31185000Y28085000D01*
G04 #@! TO.C,R20*
X57120000Y22870000D02*
X57120000Y23640000D01*
X57120000Y30950000D02*
X57120000Y30180000D01*
X58490000Y23640000D02*
X58490000Y30180000D01*
X55750000Y23640000D02*
X58490000Y23640000D01*
X55750000Y30180000D02*
X55750000Y23640000D01*
X58490000Y30180000D02*
X55750000Y30180000D01*
G04 #@! TO.C,R21*
X57120000Y44460000D02*
X57120000Y45230000D01*
X57120000Y52540000D02*
X57120000Y51770000D01*
X58490000Y45230000D02*
X58490000Y51770000D01*
X55750000Y45230000D02*
X58490000Y45230000D01*
X55750000Y51770000D02*
X55750000Y45230000D01*
X58490000Y51770000D02*
X55750000Y51770000D01*
G04 #@! TO.C,R22*
X58490000Y71455000D02*
X55750000Y71455000D01*
X55750000Y71455000D02*
X55750000Y64915000D01*
X55750000Y64915000D02*
X58490000Y64915000D01*
X58490000Y64915000D02*
X58490000Y71455000D01*
X57120000Y72225000D02*
X57120000Y71455000D01*
X57120000Y64145000D02*
X57120000Y64915000D01*
G04 #@! TO.C,R13*
X35530000Y69225000D02*
X35530000Y69995000D01*
X35530000Y77305000D02*
X35530000Y76535000D01*
X36900000Y69995000D02*
X36900000Y76535000D01*
X34160000Y69995000D02*
X36900000Y69995000D01*
X34160000Y76535000D02*
X34160000Y69995000D01*
X36900000Y76535000D02*
X34160000Y76535000D01*
G04 #@! TO.C,R15*
X32355000Y69225000D02*
X32355000Y69995000D01*
X32355000Y77305000D02*
X32355000Y76535000D01*
X33725000Y69995000D02*
X33725000Y76535000D01*
X30985000Y69995000D02*
X33725000Y69995000D01*
X30985000Y76535000D02*
X30985000Y69995000D01*
X33725000Y76535000D02*
X30985000Y76535000D01*
G04 #@! TO.C,C18*
D11*
X27862142Y9407858D02*
X27814523Y9360239D01*
X27671666Y9312620D01*
X27576428Y9312620D01*
X27433571Y9360239D01*
X27338333Y9455477D01*
X27290714Y9550715D01*
X27243095Y9741191D01*
X27243095Y9884048D01*
X27290714Y10074524D01*
X27338333Y10169762D01*
X27433571Y10265000D01*
X27576428Y10312620D01*
X27671666Y10312620D01*
X27814523Y10265000D01*
X27862142Y10217381D01*
X28814523Y9312620D02*
X28243095Y9312620D01*
X28528809Y9312620D02*
X28528809Y10312620D01*
X28433571Y10169762D01*
X28338333Y10074524D01*
X28243095Y10026905D01*
X29385952Y9884048D02*
X29290714Y9931667D01*
X29243095Y9979286D01*
X29195476Y10074524D01*
X29195476Y10122143D01*
X29243095Y10217381D01*
X29290714Y10265000D01*
X29385952Y10312620D01*
X29576428Y10312620D01*
X29671666Y10265000D01*
X29719285Y10217381D01*
X29766904Y10122143D01*
X29766904Y10074524D01*
X29719285Y9979286D01*
X29671666Y9931667D01*
X29576428Y9884048D01*
X29385952Y9884048D01*
X29290714Y9836429D01*
X29243095Y9788810D01*
X29195476Y9693572D01*
X29195476Y9503096D01*
X29243095Y9407858D01*
X29290714Y9360239D01*
X29385952Y9312620D01*
X29576428Y9312620D01*
X29671666Y9360239D01*
X29719285Y9407858D01*
X29766904Y9503096D01*
X29766904Y9693572D01*
X29719285Y9788810D01*
X29671666Y9836429D01*
X29576428Y9884048D01*
G04 #@! TO.C,R24*
X61557142Y59477620D02*
X61223809Y59953810D01*
X60985714Y59477620D02*
X60985714Y60477620D01*
X61366666Y60477620D01*
X61461904Y60430000D01*
X61509523Y60382381D01*
X61557142Y60287143D01*
X61557142Y60144286D01*
X61509523Y60049048D01*
X61461904Y60001429D01*
X61366666Y59953810D01*
X60985714Y59953810D01*
X61938095Y60382381D02*
X61985714Y60430000D01*
X62080952Y60477620D01*
X62319047Y60477620D01*
X62414285Y60430000D01*
X62461904Y60382381D01*
X62509523Y60287143D01*
X62509523Y60191905D01*
X62461904Y60049048D01*
X61890476Y59477620D01*
X62509523Y59477620D01*
X63366666Y60144286D02*
X63366666Y59477620D01*
X63128571Y60525239D02*
X62890476Y59810953D01*
X63509523Y59810953D01*
G04 #@! TO.C,RV2*
X37252380Y15519762D02*
X36776190Y15186429D01*
X37252380Y14948334D02*
X36252380Y14948334D01*
X36252380Y15329286D01*
X36300000Y15424524D01*
X36347619Y15472143D01*
X36442857Y15519762D01*
X36585714Y15519762D01*
X36680952Y15472143D01*
X36728571Y15424524D01*
X36776190Y15329286D01*
X36776190Y14948334D01*
X36252380Y15805477D02*
X37252380Y16138810D01*
X36252380Y16472143D01*
X36347619Y16757858D02*
X36300000Y16805477D01*
X36252380Y16900715D01*
X36252380Y17138810D01*
X36300000Y17234048D01*
X36347619Y17281667D01*
X36442857Y17329286D01*
X36538095Y17329286D01*
X36680952Y17281667D01*
X37252380Y16710239D01*
X37252380Y17329286D01*
G04 #@! TO.C,RV1*
X2327380Y26314762D02*
X1851190Y25981429D01*
X2327380Y25743334D02*
X1327380Y25743334D01*
X1327380Y26124286D01*
X1375000Y26219524D01*
X1422619Y26267143D01*
X1517857Y26314762D01*
X1660714Y26314762D01*
X1755952Y26267143D01*
X1803571Y26219524D01*
X1851190Y26124286D01*
X1851190Y25743334D01*
X1327380Y26600477D02*
X2327380Y26933810D01*
X1327380Y27267143D01*
X2327380Y28124286D02*
X2327380Y27552858D01*
X2327380Y27838572D02*
X1327380Y27838572D01*
X1470238Y27743334D01*
X1565476Y27648096D01*
X1613095Y27552858D01*
G04 #@! TO.C,R14*
X29632380Y72622143D02*
X29156190Y72288810D01*
X29632380Y72050715D02*
X28632380Y72050715D01*
X28632380Y72431667D01*
X28680000Y72526905D01*
X28727619Y72574524D01*
X28822857Y72622143D01*
X28965714Y72622143D01*
X29060952Y72574524D01*
X29108571Y72526905D01*
X29156190Y72431667D01*
X29156190Y72050715D01*
X29632380Y73574524D02*
X29632380Y73003096D01*
X29632380Y73288810D02*
X28632380Y73288810D01*
X28775238Y73193572D01*
X28870476Y73098334D01*
X28918095Y73003096D01*
X28965714Y74431667D02*
X29632380Y74431667D01*
X28584761Y74193572D02*
X29299047Y73955477D01*
X29299047Y74574524D01*
G04 #@! TO.C,SW4*
X69208761Y26882667D02*
X69256380Y27025524D01*
X69256380Y27263620D01*
X69208761Y27358858D01*
X69161142Y27406477D01*
X69065904Y27454096D01*
X68970666Y27454096D01*
X68875428Y27406477D01*
X68827809Y27358858D01*
X68780190Y27263620D01*
X68732571Y27073143D01*
X68684952Y26977905D01*
X68637333Y26930286D01*
X68542095Y26882667D01*
X68446857Y26882667D01*
X68351619Y26930286D01*
X68304000Y26977905D01*
X68256380Y27073143D01*
X68256380Y27311239D01*
X68304000Y27454096D01*
X68256380Y27787429D02*
X69256380Y28025524D01*
X68542095Y28216000D01*
X69256380Y28406477D01*
X68256380Y28644572D01*
X68589714Y29454096D02*
X69256380Y29454096D01*
X68208761Y29216000D02*
X68923047Y28977905D01*
X68923047Y29596953D01*
G04 #@! TO.C,J10*
X53135476Y60267620D02*
X53135476Y59553334D01*
X53087857Y59410477D01*
X52992619Y59315239D01*
X52849761Y59267620D01*
X52754523Y59267620D01*
X54135476Y59267620D02*
X53564047Y59267620D01*
X53849761Y59267620D02*
X53849761Y60267620D01*
X53754523Y60124762D01*
X53659285Y60029524D01*
X53564047Y59981905D01*
X54754523Y60267620D02*
X54849761Y60267620D01*
X54945000Y60220000D01*
X54992619Y60172381D01*
X55040238Y60077143D01*
X55087857Y59886667D01*
X55087857Y59648572D01*
X55040238Y59458096D01*
X54992619Y59362858D01*
X54945000Y59315239D01*
X54849761Y59267620D01*
X54754523Y59267620D01*
X54659285Y59315239D01*
X54611666Y59362858D01*
X54564047Y59458096D01*
X54516428Y59648572D01*
X54516428Y59886667D01*
X54564047Y60077143D01*
X54611666Y60172381D01*
X54659285Y60220000D01*
X54754523Y60267620D01*
G04 #@! TO.C,J9*
X28846666Y46507620D02*
X28846666Y45793334D01*
X28799047Y45650477D01*
X28703809Y45555239D01*
X28560952Y45507620D01*
X28465714Y45507620D01*
X29370476Y45507620D02*
X29560952Y45507620D01*
X29656190Y45555239D01*
X29703809Y45602858D01*
X29799047Y45745715D01*
X29846666Y45936191D01*
X29846666Y46317143D01*
X29799047Y46412381D01*
X29751428Y46460000D01*
X29656190Y46507620D01*
X29465714Y46507620D01*
X29370476Y46460000D01*
X29322857Y46412381D01*
X29275238Y46317143D01*
X29275238Y46079048D01*
X29322857Y45983810D01*
X29370476Y45936191D01*
X29465714Y45888572D01*
X29656190Y45888572D01*
X29751428Y45936191D01*
X29799047Y45983810D01*
X29846666Y46079048D01*
G04 #@! TO.C,J6*
X32021666Y66827620D02*
X32021666Y66113334D01*
X31974047Y65970477D01*
X31878809Y65875239D01*
X31735952Y65827620D01*
X31640714Y65827620D01*
X32926428Y66827620D02*
X32735952Y66827620D01*
X32640714Y66780000D01*
X32593095Y66732381D01*
X32497857Y66589524D01*
X32450238Y66399048D01*
X32450238Y66018096D01*
X32497857Y65922858D01*
X32545476Y65875239D01*
X32640714Y65827620D01*
X32831190Y65827620D01*
X32926428Y65875239D01*
X32974047Y65922858D01*
X33021666Y66018096D01*
X33021666Y66256191D01*
X32974047Y66351429D01*
X32926428Y66399048D01*
X32831190Y66446667D01*
X32640714Y66446667D01*
X32545476Y66399048D01*
X32497857Y66351429D01*
X32450238Y66256191D01*
G04 #@! TO.C,J4*
X67581666Y43332620D02*
X67581666Y42618334D01*
X67534047Y42475477D01*
X67438809Y42380239D01*
X67295952Y42332620D01*
X67200714Y42332620D01*
X68486428Y42999286D02*
X68486428Y42332620D01*
X68248333Y43380239D02*
X68010238Y42665953D01*
X68629285Y42665953D01*
G04 #@! TO.C,R23*
X61557142Y56302620D02*
X61223809Y56778810D01*
X60985714Y56302620D02*
X60985714Y57302620D01*
X61366666Y57302620D01*
X61461904Y57255000D01*
X61509523Y57207381D01*
X61557142Y57112143D01*
X61557142Y56969286D01*
X61509523Y56874048D01*
X61461904Y56826429D01*
X61366666Y56778810D01*
X60985714Y56778810D01*
X61938095Y57207381D02*
X61985714Y57255000D01*
X62080952Y57302620D01*
X62319047Y57302620D01*
X62414285Y57255000D01*
X62461904Y57207381D01*
X62509523Y57112143D01*
X62509523Y57016905D01*
X62461904Y56874048D01*
X61890476Y56302620D01*
X62509523Y56302620D01*
X62842857Y57302620D02*
X63461904Y57302620D01*
X63128571Y56921667D01*
X63271428Y56921667D01*
X63366666Y56874048D01*
X63414285Y56826429D01*
X63461904Y56731191D01*
X63461904Y56493096D01*
X63414285Y56397858D01*
X63366666Y56350239D01*
X63271428Y56302620D01*
X62985714Y56302620D01*
X62890476Y56350239D01*
X62842857Y56397858D01*
G04 #@! TO.C,J2*
X54246666Y21742620D02*
X54246666Y21028334D01*
X54199047Y20885477D01*
X54103809Y20790239D01*
X53960952Y20742620D01*
X53865714Y20742620D01*
X54675238Y21647381D02*
X54722857Y21695000D01*
X54818095Y21742620D01*
X55056190Y21742620D01*
X55151428Y21695000D01*
X55199047Y21647381D01*
X55246666Y21552143D01*
X55246666Y21456905D01*
X55199047Y21314048D01*
X54627619Y20742620D01*
X55246666Y20742620D01*
G04 #@! TO.C,R19*
X36617380Y30712143D02*
X36141190Y30378810D01*
X36617380Y30140715D02*
X35617380Y30140715D01*
X35617380Y30521667D01*
X35665000Y30616905D01*
X35712619Y30664524D01*
X35807857Y30712143D01*
X35950714Y30712143D01*
X36045952Y30664524D01*
X36093571Y30616905D01*
X36141190Y30521667D01*
X36141190Y30140715D01*
X36617380Y31664524D02*
X36617380Y31093096D01*
X36617380Y31378810D02*
X35617380Y31378810D01*
X35760238Y31283572D01*
X35855476Y31188334D01*
X35903095Y31093096D01*
X36617380Y32140715D02*
X36617380Y32331191D01*
X36569761Y32426429D01*
X36522142Y32474048D01*
X36379285Y32569286D01*
X36188809Y32616905D01*
X35807857Y32616905D01*
X35712619Y32569286D01*
X35665000Y32521667D01*
X35617380Y32426429D01*
X35617380Y32235953D01*
X35665000Y32140715D01*
X35712619Y32093096D01*
X35807857Y32045477D01*
X36045952Y32045477D01*
X36141190Y32093096D01*
X36188809Y32140715D01*
X36236428Y32235953D01*
X36236428Y32426429D01*
X36188809Y32521667D01*
X36141190Y32569286D01*
X36045952Y32616905D01*
G04 #@! TO.C,J1*
X1541666Y57937620D02*
X1541666Y57223334D01*
X1494047Y57080477D01*
X1398809Y56985239D01*
X1255952Y56937620D01*
X1160714Y56937620D01*
X2541666Y56937620D02*
X1970238Y56937620D01*
X2255952Y56937620D02*
X2255952Y57937620D01*
X2160714Y57794762D01*
X2065476Y57699524D01*
X1970238Y57651905D01*
G04 #@! TO.C,R10*
X16472142Y63922620D02*
X16138809Y64398810D01*
X15900714Y63922620D02*
X15900714Y64922620D01*
X16281666Y64922620D01*
X16376904Y64875000D01*
X16424523Y64827381D01*
X16472142Y64732143D01*
X16472142Y64589286D01*
X16424523Y64494048D01*
X16376904Y64446429D01*
X16281666Y64398810D01*
X15900714Y64398810D01*
X17424523Y63922620D02*
X16853095Y63922620D01*
X17138809Y63922620D02*
X17138809Y64922620D01*
X17043571Y64779762D01*
X16948333Y64684524D01*
X16853095Y64636905D01*
X18043571Y64922620D02*
X18138809Y64922620D01*
X18234047Y64875000D01*
X18281666Y64827381D01*
X18329285Y64732143D01*
X18376904Y64541667D01*
X18376904Y64303572D01*
X18329285Y64113096D01*
X18281666Y64017858D01*
X18234047Y63970239D01*
X18138809Y63922620D01*
X18043571Y63922620D01*
X17948333Y63970239D01*
X17900714Y64017858D01*
X17853095Y64113096D01*
X17805476Y64303572D01*
X17805476Y64541667D01*
X17853095Y64732143D01*
X17900714Y64827381D01*
X17948333Y64875000D01*
X18043571Y64922620D01*
G04 #@! TO.C,C3*
X16313333Y85607858D02*
X16265714Y85560239D01*
X16122857Y85512620D01*
X16027619Y85512620D01*
X15884761Y85560239D01*
X15789523Y85655477D01*
X15741904Y85750715D01*
X15694285Y85941191D01*
X15694285Y86084048D01*
X15741904Y86274524D01*
X15789523Y86369762D01*
X15884761Y86465000D01*
X16027619Y86512620D01*
X16122857Y86512620D01*
X16265714Y86465000D01*
X16313333Y86417381D01*
X16646666Y86512620D02*
X17265714Y86512620D01*
X16932380Y86131667D01*
X17075238Y86131667D01*
X17170476Y86084048D01*
X17218095Y86036429D01*
X17265714Y85941191D01*
X17265714Y85703096D01*
X17218095Y85607858D01*
X17170476Y85560239D01*
X17075238Y85512620D01*
X16789523Y85512620D01*
X16694285Y85560239D01*
X16646666Y85607858D01*
G04 #@! TO.C,R5*
X11852380Y84528334D02*
X11376190Y84195000D01*
X11852380Y83956905D02*
X10852380Y83956905D01*
X10852380Y84337858D01*
X10900000Y84433096D01*
X10947619Y84480715D01*
X11042857Y84528334D01*
X11185714Y84528334D01*
X11280952Y84480715D01*
X11328571Y84433096D01*
X11376190Y84337858D01*
X11376190Y83956905D01*
X10852380Y85433096D02*
X10852380Y84956905D01*
X11328571Y84909286D01*
X11280952Y84956905D01*
X11233333Y85052143D01*
X11233333Y85290239D01*
X11280952Y85385477D01*
X11328571Y85433096D01*
X11423809Y85480715D01*
X11661904Y85480715D01*
X11757142Y85433096D01*
X11804761Y85385477D01*
X11852380Y85290239D01*
X11852380Y85052143D01*
X11804761Y84956905D01*
X11757142Y84909286D01*
G04 #@! TO.C,U5*
X44039095Y43332620D02*
X44039095Y42523096D01*
X44086714Y42427858D01*
X44134333Y42380239D01*
X44229571Y42332620D01*
X44420047Y42332620D01*
X44515285Y42380239D01*
X44562904Y42427858D01*
X44610523Y42523096D01*
X44610523Y43332620D01*
X45562904Y43332620D02*
X45086714Y43332620D01*
X45039095Y42856429D01*
X45086714Y42904048D01*
X45181952Y42951667D01*
X45420047Y42951667D01*
X45515285Y42904048D01*
X45562904Y42856429D01*
X45610523Y42761191D01*
X45610523Y42523096D01*
X45562904Y42427858D01*
X45515285Y42380239D01*
X45420047Y42332620D01*
X45181952Y42332620D01*
X45086714Y42380239D01*
X45039095Y42427858D01*
G04 #@! TO.C,C15*
X25933642Y51952858D02*
X25886023Y51905239D01*
X25743166Y51857620D01*
X25647928Y51857620D01*
X25505071Y51905239D01*
X25409833Y52000477D01*
X25362214Y52095715D01*
X25314595Y52286191D01*
X25314595Y52429048D01*
X25362214Y52619524D01*
X25409833Y52714762D01*
X25505071Y52810000D01*
X25647928Y52857620D01*
X25743166Y52857620D01*
X25886023Y52810000D01*
X25933642Y52762381D01*
X26886023Y51857620D02*
X26314595Y51857620D01*
X26600309Y51857620D02*
X26600309Y52857620D01*
X26505071Y52714762D01*
X26409833Y52619524D01*
X26314595Y52571905D01*
X27790785Y52857620D02*
X27314595Y52857620D01*
X27266976Y52381429D01*
X27314595Y52429048D01*
X27409833Y52476667D01*
X27647928Y52476667D01*
X27743166Y52429048D01*
X27790785Y52381429D01*
X27838404Y52286191D01*
X27838404Y52048096D01*
X27790785Y51952858D01*
X27743166Y51905239D01*
X27647928Y51857620D01*
X27409833Y51857620D01*
X27314595Y51905239D01*
X27266976Y51952858D01*
G04 #@! TO.C,C14*
X32347142Y38617858D02*
X32299523Y38570239D01*
X32156666Y38522620D01*
X32061428Y38522620D01*
X31918571Y38570239D01*
X31823333Y38665477D01*
X31775714Y38760715D01*
X31728095Y38951191D01*
X31728095Y39094048D01*
X31775714Y39284524D01*
X31823333Y39379762D01*
X31918571Y39475000D01*
X32061428Y39522620D01*
X32156666Y39522620D01*
X32299523Y39475000D01*
X32347142Y39427381D01*
X33299523Y38522620D02*
X32728095Y38522620D01*
X33013809Y38522620D02*
X33013809Y39522620D01*
X32918571Y39379762D01*
X32823333Y39284524D01*
X32728095Y39236905D01*
X34156666Y39189286D02*
X34156666Y38522620D01*
X33918571Y39570239D02*
X33680476Y38855953D01*
X34299523Y38855953D01*
G04 #@! TO.C,C9*
X39173333Y60842858D02*
X39125714Y60795239D01*
X38982857Y60747620D01*
X38887619Y60747620D01*
X38744761Y60795239D01*
X38649523Y60890477D01*
X38601904Y60985715D01*
X38554285Y61176191D01*
X38554285Y61319048D01*
X38601904Y61509524D01*
X38649523Y61604762D01*
X38744761Y61700000D01*
X38887619Y61747620D01*
X38982857Y61747620D01*
X39125714Y61700000D01*
X39173333Y61652381D01*
X39649523Y60747620D02*
X39840000Y60747620D01*
X39935238Y60795239D01*
X39982857Y60842858D01*
X40078095Y60985715D01*
X40125714Y61176191D01*
X40125714Y61557143D01*
X40078095Y61652381D01*
X40030476Y61700000D01*
X39935238Y61747620D01*
X39744761Y61747620D01*
X39649523Y61700000D01*
X39601904Y61652381D01*
X39554285Y61557143D01*
X39554285Y61319048D01*
X39601904Y61223810D01*
X39649523Y61176191D01*
X39744761Y61128572D01*
X39935238Y61128572D01*
X40030476Y61176191D01*
X40078095Y61223810D01*
X40125714Y61319048D01*
G04 #@! TO.C,C17*
X11392142Y13217858D02*
X11344523Y13170239D01*
X11201666Y13122620D01*
X11106428Y13122620D01*
X10963571Y13170239D01*
X10868333Y13265477D01*
X10820714Y13360715D01*
X10773095Y13551191D01*
X10773095Y13694048D01*
X10820714Y13884524D01*
X10868333Y13979762D01*
X10963571Y14075000D01*
X11106428Y14122620D01*
X11201666Y14122620D01*
X11344523Y14075000D01*
X11392142Y14027381D01*
X12344523Y13122620D02*
X11773095Y13122620D01*
X12058809Y13122620D02*
X12058809Y14122620D01*
X11963571Y13979762D01*
X11868333Y13884524D01*
X11773095Y13836905D01*
X12677857Y14122620D02*
X13344523Y14122620D01*
X12915952Y13122620D01*
G04 #@! TO.C,U6*
X17623095Y14122620D02*
X17623095Y13313096D01*
X17670714Y13217858D01*
X17718333Y13170239D01*
X17813571Y13122620D01*
X18004047Y13122620D01*
X18099285Y13170239D01*
X18146904Y13217858D01*
X18194523Y13313096D01*
X18194523Y14122620D01*
X19099285Y14122620D02*
X18908809Y14122620D01*
X18813571Y14075000D01*
X18765952Y14027381D01*
X18670714Y13884524D01*
X18623095Y13694048D01*
X18623095Y13313096D01*
X18670714Y13217858D01*
X18718333Y13170239D01*
X18813571Y13122620D01*
X19004047Y13122620D01*
X19099285Y13170239D01*
X19146904Y13217858D01*
X19194523Y13313096D01*
X19194523Y13551191D01*
X19146904Y13646429D01*
X19099285Y13694048D01*
X19004047Y13741667D01*
X18813571Y13741667D01*
X18718333Y13694048D01*
X18670714Y13646429D01*
X18623095Y13551191D01*
G04 #@! TO.C,C16*
X27307142Y62747858D02*
X27259523Y62700239D01*
X27116666Y62652620D01*
X27021428Y62652620D01*
X26878571Y62700239D01*
X26783333Y62795477D01*
X26735714Y62890715D01*
X26688095Y63081191D01*
X26688095Y63224048D01*
X26735714Y63414524D01*
X26783333Y63509762D01*
X26878571Y63605000D01*
X27021428Y63652620D01*
X27116666Y63652620D01*
X27259523Y63605000D01*
X27307142Y63557381D01*
X28259523Y62652620D02*
X27688095Y62652620D01*
X27973809Y62652620D02*
X27973809Y63652620D01*
X27878571Y63509762D01*
X27783333Y63414524D01*
X27688095Y63366905D01*
X29116666Y63652620D02*
X28926190Y63652620D01*
X28830952Y63605000D01*
X28783333Y63557381D01*
X28688095Y63414524D01*
X28640476Y63224048D01*
X28640476Y62843096D01*
X28688095Y62747858D01*
X28735714Y62700239D01*
X28830952Y62652620D01*
X29021428Y62652620D01*
X29116666Y62700239D01*
X29164285Y62747858D01*
X29211904Y62843096D01*
X29211904Y63081191D01*
X29164285Y63176429D01*
X29116666Y63224048D01*
X29021428Y63271667D01*
X28830952Y63271667D01*
X28735714Y63224048D01*
X28688095Y63176429D01*
X28640476Y63081191D01*
G04 #@! TO.C,C13*
X27267142Y85607858D02*
X27219523Y85560239D01*
X27076666Y85512620D01*
X26981428Y85512620D01*
X26838571Y85560239D01*
X26743333Y85655477D01*
X26695714Y85750715D01*
X26648095Y85941191D01*
X26648095Y86084048D01*
X26695714Y86274524D01*
X26743333Y86369762D01*
X26838571Y86465000D01*
X26981428Y86512620D01*
X27076666Y86512620D01*
X27219523Y86465000D01*
X27267142Y86417381D01*
X28219523Y85512620D02*
X27648095Y85512620D01*
X27933809Y85512620D02*
X27933809Y86512620D01*
X27838571Y86369762D01*
X27743333Y86274524D01*
X27648095Y86226905D01*
X28552857Y86512620D02*
X29171904Y86512620D01*
X28838571Y86131667D01*
X28981428Y86131667D01*
X29076666Y86084048D01*
X29124285Y86036429D01*
X29171904Y85941191D01*
X29171904Y85703096D01*
X29124285Y85607858D01*
X29076666Y85560239D01*
X28981428Y85512620D01*
X28695714Y85512620D01*
X28600476Y85560239D01*
X28552857Y85607858D01*
G04 #@! TO.C,C4*
X41078333Y8137858D02*
X41030714Y8090239D01*
X40887857Y8042620D01*
X40792619Y8042620D01*
X40649761Y8090239D01*
X40554523Y8185477D01*
X40506904Y8280715D01*
X40459285Y8471191D01*
X40459285Y8614048D01*
X40506904Y8804524D01*
X40554523Y8899762D01*
X40649761Y8995000D01*
X40792619Y9042620D01*
X40887857Y9042620D01*
X41030714Y8995000D01*
X41078333Y8947381D01*
X41935476Y8709286D02*
X41935476Y8042620D01*
X41697380Y9090239D02*
X41459285Y8375953D01*
X42078333Y8375953D01*
G04 #@! TO.C,C1*
X11757142Y28648334D02*
X11804761Y28600715D01*
X11852380Y28457858D01*
X11852380Y28362620D01*
X11804761Y28219762D01*
X11709523Y28124524D01*
X11614285Y28076905D01*
X11423809Y28029286D01*
X11280952Y28029286D01*
X11090476Y28076905D01*
X10995238Y28124524D01*
X10900000Y28219762D01*
X10852380Y28362620D01*
X10852380Y28457858D01*
X10900000Y28600715D01*
X10947619Y28648334D01*
X11852380Y29600715D02*
X11852380Y29029286D01*
X11852380Y29315000D02*
X10852380Y29315000D01*
X10995238Y29219762D01*
X11090476Y29124524D01*
X11138095Y29029286D01*
G04 #@! TO.C,C2*
X16313333Y38617858D02*
X16265714Y38570239D01*
X16122857Y38522620D01*
X16027619Y38522620D01*
X15884761Y38570239D01*
X15789523Y38665477D01*
X15741904Y38760715D01*
X15694285Y38951191D01*
X15694285Y39094048D01*
X15741904Y39284524D01*
X15789523Y39379762D01*
X15884761Y39475000D01*
X16027619Y39522620D01*
X16122857Y39522620D01*
X16265714Y39475000D01*
X16313333Y39427381D01*
X16694285Y39427381D02*
X16741904Y39475000D01*
X16837142Y39522620D01*
X17075238Y39522620D01*
X17170476Y39475000D01*
X17218095Y39427381D01*
X17265714Y39332143D01*
X17265714Y39236905D01*
X17218095Y39094048D01*
X16646666Y38522620D01*
X17265714Y38522620D01*
G04 #@! TO.C,C5*
X6788333Y64017858D02*
X6740714Y63970239D01*
X6597857Y63922620D01*
X6502619Y63922620D01*
X6359761Y63970239D01*
X6264523Y64065477D01*
X6216904Y64160715D01*
X6169285Y64351191D01*
X6169285Y64494048D01*
X6216904Y64684524D01*
X6264523Y64779762D01*
X6359761Y64875000D01*
X6502619Y64922620D01*
X6597857Y64922620D01*
X6740714Y64875000D01*
X6788333Y64827381D01*
X7693095Y64922620D02*
X7216904Y64922620D01*
X7169285Y64446429D01*
X7216904Y64494048D01*
X7312142Y64541667D01*
X7550238Y64541667D01*
X7645476Y64494048D01*
X7693095Y64446429D01*
X7740714Y64351191D01*
X7740714Y64113096D01*
X7693095Y64017858D01*
X7645476Y63970239D01*
X7550238Y63922620D01*
X7312142Y63922620D01*
X7216904Y63970239D01*
X7169285Y64017858D01*
G04 #@! TO.C,C6*
X6788333Y60207858D02*
X6740714Y60160239D01*
X6597857Y60112620D01*
X6502619Y60112620D01*
X6359761Y60160239D01*
X6264523Y60255477D01*
X6216904Y60350715D01*
X6169285Y60541191D01*
X6169285Y60684048D01*
X6216904Y60874524D01*
X6264523Y60969762D01*
X6359761Y61065000D01*
X6502619Y61112620D01*
X6597857Y61112620D01*
X6740714Y61065000D01*
X6788333Y61017381D01*
X7645476Y61112620D02*
X7455000Y61112620D01*
X7359761Y61065000D01*
X7312142Y61017381D01*
X7216904Y60874524D01*
X7169285Y60684048D01*
X7169285Y60303096D01*
X7216904Y60207858D01*
X7264523Y60160239D01*
X7359761Y60112620D01*
X7550238Y60112620D01*
X7645476Y60160239D01*
X7693095Y60207858D01*
X7740714Y60303096D01*
X7740714Y60541191D01*
X7693095Y60636429D01*
X7645476Y60684048D01*
X7550238Y60731667D01*
X7359761Y60731667D01*
X7264523Y60684048D01*
X7216904Y60636429D01*
X7169285Y60541191D01*
G04 #@! TO.C,C7*
X5407142Y28688334D02*
X5454761Y28640715D01*
X5502380Y28497858D01*
X5502380Y28402620D01*
X5454761Y28259762D01*
X5359523Y28164524D01*
X5264285Y28116905D01*
X5073809Y28069286D01*
X4930952Y28069286D01*
X4740476Y28116905D01*
X4645238Y28164524D01*
X4550000Y28259762D01*
X4502380Y28402620D01*
X4502380Y28497858D01*
X4550000Y28640715D01*
X4597619Y28688334D01*
X4502380Y29021667D02*
X4502380Y29688334D01*
X5502380Y29259762D01*
G04 #@! TO.C,C8*
X26997142Y28648334D02*
X27044761Y28600715D01*
X27092380Y28457858D01*
X27092380Y28362620D01*
X27044761Y28219762D01*
X26949523Y28124524D01*
X26854285Y28076905D01*
X26663809Y28029286D01*
X26520952Y28029286D01*
X26330476Y28076905D01*
X26235238Y28124524D01*
X26140000Y28219762D01*
X26092380Y28362620D01*
X26092380Y28457858D01*
X26140000Y28600715D01*
X26187619Y28648334D01*
X26520952Y29219762D02*
X26473333Y29124524D01*
X26425714Y29076905D01*
X26330476Y29029286D01*
X26282857Y29029286D01*
X26187619Y29076905D01*
X26140000Y29124524D01*
X26092380Y29219762D01*
X26092380Y29410239D01*
X26140000Y29505477D01*
X26187619Y29553096D01*
X26282857Y29600715D01*
X26330476Y29600715D01*
X26425714Y29553096D01*
X26473333Y29505477D01*
X26520952Y29410239D01*
X26520952Y29219762D01*
X26568571Y29124524D01*
X26616190Y29076905D01*
X26711428Y29029286D01*
X26901904Y29029286D01*
X26997142Y29076905D01*
X27044761Y29124524D01*
X27092380Y29219762D01*
X27092380Y29410239D01*
X27044761Y29505477D01*
X26997142Y29553096D01*
X26901904Y29600715D01*
X26711428Y29600715D01*
X26616190Y29553096D01*
X26568571Y29505477D01*
X26520952Y29410239D01*
G04 #@! TO.C,J3*
X43451666Y75507620D02*
X43451666Y74793334D01*
X43404047Y74650477D01*
X43308809Y74555239D01*
X43165952Y74507620D01*
X43070714Y74507620D01*
X43832619Y75507620D02*
X44451666Y75507620D01*
X44118333Y75126667D01*
X44261190Y75126667D01*
X44356428Y75079048D01*
X44404047Y75031429D01*
X44451666Y74936191D01*
X44451666Y74698096D01*
X44404047Y74602858D01*
X44356428Y74555239D01*
X44261190Y74507620D01*
X43975476Y74507620D01*
X43880238Y74555239D01*
X43832619Y74602858D01*
G04 #@! TO.C,J5*
X53397380Y74201667D02*
X54111666Y74201667D01*
X54254523Y74154048D01*
X54349761Y74058810D01*
X54397380Y73915953D01*
X54397380Y73820715D01*
X53397380Y75154048D02*
X53397380Y74677858D01*
X53873571Y74630239D01*
X53825952Y74677858D01*
X53778333Y74773096D01*
X53778333Y75011191D01*
X53825952Y75106429D01*
X53873571Y75154048D01*
X53968809Y75201667D01*
X54206904Y75201667D01*
X54302142Y75154048D01*
X54349761Y75106429D01*
X54397380Y75011191D01*
X54397380Y74773096D01*
X54349761Y74677858D01*
X54302142Y74630239D01*
G04 #@! TO.C,U4*
X17623095Y24917620D02*
X17623095Y24108096D01*
X17670714Y24012858D01*
X17718333Y23965239D01*
X17813571Y23917620D01*
X18004047Y23917620D01*
X18099285Y23965239D01*
X18146904Y24012858D01*
X18194523Y24108096D01*
X18194523Y24917620D01*
X19099285Y24584286D02*
X19099285Y23917620D01*
X18861190Y24965239D02*
X18623095Y24250953D01*
X19242142Y24250953D01*
G04 #@! TO.C,U2*
X17623095Y75717620D02*
X17623095Y74908096D01*
X17670714Y74812858D01*
X17718333Y74765239D01*
X17813571Y74717620D01*
X18004047Y74717620D01*
X18099285Y74765239D01*
X18146904Y74812858D01*
X18194523Y74908096D01*
X18194523Y75717620D01*
X18623095Y75622381D02*
X18670714Y75670000D01*
X18765952Y75717620D01*
X19004047Y75717620D01*
X19099285Y75670000D01*
X19146904Y75622381D01*
X19194523Y75527143D01*
X19194523Y75431905D01*
X19146904Y75289048D01*
X18575476Y74717620D01*
X19194523Y74717620D01*
G04 #@! TO.C,U3*
X17623095Y50317620D02*
X17623095Y49508096D01*
X17670714Y49412858D01*
X17718333Y49365239D01*
X17813571Y49317620D01*
X18004047Y49317620D01*
X18099285Y49365239D01*
X18146904Y49412858D01*
X18194523Y49508096D01*
X18194523Y50317620D01*
X18575476Y50317620D02*
X19194523Y50317620D01*
X18861190Y49936667D01*
X19004047Y49936667D01*
X19099285Y49889048D01*
X19146904Y49841429D01*
X19194523Y49746191D01*
X19194523Y49508096D01*
X19146904Y49412858D01*
X19099285Y49365239D01*
X19004047Y49317620D01*
X18718333Y49317620D01*
X18623095Y49365239D01*
X18575476Y49412858D01*
G04 #@! TO.C,R9*
X8677380Y31188334D02*
X8201190Y30855000D01*
X8677380Y30616905D02*
X7677380Y30616905D01*
X7677380Y30997858D01*
X7725000Y31093096D01*
X7772619Y31140715D01*
X7867857Y31188334D01*
X8010714Y31188334D01*
X8105952Y31140715D01*
X8153571Y31093096D01*
X8201190Y30997858D01*
X8201190Y30616905D01*
X8677380Y31664524D02*
X8677380Y31855000D01*
X8629761Y31950239D01*
X8582142Y31997858D01*
X8439285Y32093096D01*
X8248809Y32140715D01*
X7867857Y32140715D01*
X7772619Y32093096D01*
X7725000Y32045477D01*
X7677380Y31950239D01*
X7677380Y31759762D01*
X7725000Y31664524D01*
X7772619Y31616905D01*
X7867857Y31569286D01*
X8105952Y31569286D01*
X8201190Y31616905D01*
X8248809Y31664524D01*
X8296428Y31759762D01*
X8296428Y31950239D01*
X8248809Y32045477D01*
X8201190Y32093096D01*
X8105952Y32140715D01*
G04 #@! TO.C,R8*
X18218333Y6137620D02*
X17885000Y6613810D01*
X17646904Y6137620D02*
X17646904Y7137620D01*
X18027857Y7137620D01*
X18123095Y7090000D01*
X18170714Y7042381D01*
X18218333Y6947143D01*
X18218333Y6804286D01*
X18170714Y6709048D01*
X18123095Y6661429D01*
X18027857Y6613810D01*
X17646904Y6613810D01*
X18789761Y6709048D02*
X18694523Y6756667D01*
X18646904Y6804286D01*
X18599285Y6899524D01*
X18599285Y6947143D01*
X18646904Y7042381D01*
X18694523Y7090000D01*
X18789761Y7137620D01*
X18980238Y7137620D01*
X19075476Y7090000D01*
X19123095Y7042381D01*
X19170714Y6947143D01*
X19170714Y6899524D01*
X19123095Y6804286D01*
X19075476Y6756667D01*
X18980238Y6709048D01*
X18789761Y6709048D01*
X18694523Y6661429D01*
X18646904Y6613810D01*
X18599285Y6518572D01*
X18599285Y6328096D01*
X18646904Y6232858D01*
X18694523Y6185239D01*
X18789761Y6137620D01*
X18980238Y6137620D01*
X19075476Y6185239D01*
X19123095Y6232858D01*
X19170714Y6328096D01*
X19170714Y6518572D01*
X19123095Y6613810D01*
X19075476Y6661429D01*
X18980238Y6709048D01*
G04 #@! TO.C,R7*
X30918333Y6137620D02*
X30585000Y6613810D01*
X30346904Y6137620D02*
X30346904Y7137620D01*
X30727857Y7137620D01*
X30823095Y7090000D01*
X30870714Y7042381D01*
X30918333Y6947143D01*
X30918333Y6804286D01*
X30870714Y6709048D01*
X30823095Y6661429D01*
X30727857Y6613810D01*
X30346904Y6613810D01*
X31251666Y7137620D02*
X31918333Y7137620D01*
X31489761Y6137620D01*
G04 #@! TO.C,R6*
X30918333Y2962620D02*
X30585000Y3438810D01*
X30346904Y2962620D02*
X30346904Y3962620D01*
X30727857Y3962620D01*
X30823095Y3915000D01*
X30870714Y3867381D01*
X30918333Y3772143D01*
X30918333Y3629286D01*
X30870714Y3534048D01*
X30823095Y3486429D01*
X30727857Y3438810D01*
X30346904Y3438810D01*
X31775476Y3962620D02*
X31585000Y3962620D01*
X31489761Y3915000D01*
X31442142Y3867381D01*
X31346904Y3724524D01*
X31299285Y3534048D01*
X31299285Y3153096D01*
X31346904Y3057858D01*
X31394523Y3010239D01*
X31489761Y2962620D01*
X31680238Y2962620D01*
X31775476Y3010239D01*
X31823095Y3057858D01*
X31870714Y3153096D01*
X31870714Y3391191D01*
X31823095Y3486429D01*
X31775476Y3534048D01*
X31680238Y3581667D01*
X31489761Y3581667D01*
X31394523Y3534048D01*
X31346904Y3486429D01*
X31299285Y3391191D01*
G04 #@! TO.C,R1*
X30918333Y12487620D02*
X30585000Y12963810D01*
X30346904Y12487620D02*
X30346904Y13487620D01*
X30727857Y13487620D01*
X30823095Y13440000D01*
X30870714Y13392381D01*
X30918333Y13297143D01*
X30918333Y13154286D01*
X30870714Y13059048D01*
X30823095Y13011429D01*
X30727857Y12963810D01*
X30346904Y12963810D01*
X31870714Y12487620D02*
X31299285Y12487620D01*
X31585000Y12487620D02*
X31585000Y13487620D01*
X31489761Y13344762D01*
X31394523Y13249524D01*
X31299285Y13201905D01*
G04 #@! TO.C,R11*
X16472142Y60112620D02*
X16138809Y60588810D01*
X15900714Y60112620D02*
X15900714Y61112620D01*
X16281666Y61112620D01*
X16376904Y61065000D01*
X16424523Y61017381D01*
X16472142Y60922143D01*
X16472142Y60779286D01*
X16424523Y60684048D01*
X16376904Y60636429D01*
X16281666Y60588810D01*
X15900714Y60588810D01*
X17424523Y60112620D02*
X16853095Y60112620D01*
X17138809Y60112620D02*
X17138809Y61112620D01*
X17043571Y60969762D01*
X16948333Y60874524D01*
X16853095Y60826905D01*
X18376904Y60112620D02*
X17805476Y60112620D01*
X18091190Y60112620D02*
X18091190Y61112620D01*
X17995952Y60969762D01*
X17900714Y60874524D01*
X17805476Y60826905D01*
G04 #@! TO.C,R3*
X11852380Y52778334D02*
X11376190Y52445000D01*
X11852380Y52206905D02*
X10852380Y52206905D01*
X10852380Y52587858D01*
X10900000Y52683096D01*
X10947619Y52730715D01*
X11042857Y52778334D01*
X11185714Y52778334D01*
X11280952Y52730715D01*
X11328571Y52683096D01*
X11376190Y52587858D01*
X11376190Y52206905D01*
X10852380Y53111667D02*
X10852380Y53730715D01*
X11233333Y53397381D01*
X11233333Y53540239D01*
X11280952Y53635477D01*
X11328571Y53683096D01*
X11423809Y53730715D01*
X11661904Y53730715D01*
X11757142Y53683096D01*
X11804761Y53635477D01*
X11852380Y53540239D01*
X11852380Y53254524D01*
X11804761Y53159286D01*
X11757142Y53111667D01*
G04 #@! TO.C,R4*
X11852380Y71828334D02*
X11376190Y71495000D01*
X11852380Y71256905D02*
X10852380Y71256905D01*
X10852380Y71637858D01*
X10900000Y71733096D01*
X10947619Y71780715D01*
X11042857Y71828334D01*
X11185714Y71828334D01*
X11280952Y71780715D01*
X11328571Y71733096D01*
X11376190Y71637858D01*
X11376190Y71256905D01*
X11185714Y72685477D02*
X11852380Y72685477D01*
X10804761Y72447381D02*
X11519047Y72209286D01*
X11519047Y72828334D01*
G04 #@! TO.C,R2*
X11852380Y40078334D02*
X11376190Y39745000D01*
X11852380Y39506905D02*
X10852380Y39506905D01*
X10852380Y39887858D01*
X10900000Y39983096D01*
X10947619Y40030715D01*
X11042857Y40078334D01*
X11185714Y40078334D01*
X11280952Y40030715D01*
X11328571Y39983096D01*
X11376190Y39887858D01*
X11376190Y39506905D01*
X10947619Y40459286D02*
X10900000Y40506905D01*
X10852380Y40602143D01*
X10852380Y40840239D01*
X10900000Y40935477D01*
X10947619Y40983096D01*
X11042857Y41030715D01*
X11138095Y41030715D01*
X11280952Y40983096D01*
X11852380Y40411667D01*
X11852380Y41030715D01*
G04 #@! TO.C,R12*
X39157380Y72622143D02*
X38681190Y72288810D01*
X39157380Y72050715D02*
X38157380Y72050715D01*
X38157380Y72431667D01*
X38205000Y72526905D01*
X38252619Y72574524D01*
X38347857Y72622143D01*
X38490714Y72622143D01*
X38585952Y72574524D01*
X38633571Y72526905D01*
X38681190Y72431667D01*
X38681190Y72050715D01*
X39157380Y73574524D02*
X39157380Y73003096D01*
X39157380Y73288810D02*
X38157380Y73288810D01*
X38300238Y73193572D01*
X38395476Y73098334D01*
X38443095Y73003096D01*
X38252619Y73955477D02*
X38205000Y74003096D01*
X38157380Y74098334D01*
X38157380Y74336429D01*
X38205000Y74431667D01*
X38252619Y74479286D01*
X38347857Y74526905D01*
X38443095Y74526905D01*
X38585952Y74479286D01*
X39157380Y73907858D01*
X39157380Y74526905D01*
G04 #@! TO.C,R16*
X33442380Y30712143D02*
X32966190Y30378810D01*
X33442380Y30140715D02*
X32442380Y30140715D01*
X32442380Y30521667D01*
X32490000Y30616905D01*
X32537619Y30664524D01*
X32632857Y30712143D01*
X32775714Y30712143D01*
X32870952Y30664524D01*
X32918571Y30616905D01*
X32966190Y30521667D01*
X32966190Y30140715D01*
X33442380Y31664524D02*
X33442380Y31093096D01*
X33442380Y31378810D02*
X32442380Y31378810D01*
X32585238Y31283572D01*
X32680476Y31188334D01*
X32728095Y31093096D01*
X32442380Y32521667D02*
X32442380Y32331191D01*
X32490000Y32235953D01*
X32537619Y32188334D01*
X32680476Y32093096D01*
X32870952Y32045477D01*
X33251904Y32045477D01*
X33347142Y32093096D01*
X33394761Y32140715D01*
X33442380Y32235953D01*
X33442380Y32426429D01*
X33394761Y32521667D01*
X33347142Y32569286D01*
X33251904Y32616905D01*
X33013809Y32616905D01*
X32918571Y32569286D01*
X32870952Y32521667D01*
X32823333Y32426429D01*
X32823333Y32235953D01*
X32870952Y32140715D01*
X32918571Y32093096D01*
X33013809Y32045477D01*
G04 #@! TO.C,R17*
X17742142Y2962620D02*
X17408809Y3438810D01*
X17170714Y2962620D02*
X17170714Y3962620D01*
X17551666Y3962620D01*
X17646904Y3915000D01*
X17694523Y3867381D01*
X17742142Y3772143D01*
X17742142Y3629286D01*
X17694523Y3534048D01*
X17646904Y3486429D01*
X17551666Y3438810D01*
X17170714Y3438810D01*
X18694523Y2962620D02*
X18123095Y2962620D01*
X18408809Y2962620D02*
X18408809Y3962620D01*
X18313571Y3819762D01*
X18218333Y3724524D01*
X18123095Y3676905D01*
X19027857Y3962620D02*
X19694523Y3962620D01*
X19265952Y2962620D01*
G04 #@! TO.C,R18*
X30267380Y30712143D02*
X29791190Y30378810D01*
X30267380Y30140715D02*
X29267380Y30140715D01*
X29267380Y30521667D01*
X29315000Y30616905D01*
X29362619Y30664524D01*
X29457857Y30712143D01*
X29600714Y30712143D01*
X29695952Y30664524D01*
X29743571Y30616905D01*
X29791190Y30521667D01*
X29791190Y30140715D01*
X30267380Y31664524D02*
X30267380Y31093096D01*
X30267380Y31378810D02*
X29267380Y31378810D01*
X29410238Y31283572D01*
X29505476Y31188334D01*
X29553095Y31093096D01*
X29695952Y32235953D02*
X29648333Y32140715D01*
X29600714Y32093096D01*
X29505476Y32045477D01*
X29457857Y32045477D01*
X29362619Y32093096D01*
X29315000Y32140715D01*
X29267380Y32235953D01*
X29267380Y32426429D01*
X29315000Y32521667D01*
X29362619Y32569286D01*
X29457857Y32616905D01*
X29505476Y32616905D01*
X29600714Y32569286D01*
X29648333Y32521667D01*
X29695952Y32426429D01*
X29695952Y32235953D01*
X29743571Y32140715D01*
X29791190Y32093096D01*
X29886428Y32045477D01*
X30076904Y32045477D01*
X30172142Y32093096D01*
X30219761Y32140715D01*
X30267380Y32235953D01*
X30267380Y32426429D01*
X30219761Y32521667D01*
X30172142Y32569286D01*
X30076904Y32616905D01*
X29886428Y32616905D01*
X29791190Y32569286D01*
X29743571Y32521667D01*
X29695952Y32426429D01*
G04 #@! TO.C,R20*
X57572380Y26267143D02*
X57096190Y25933810D01*
X57572380Y25695715D02*
X56572380Y25695715D01*
X56572380Y26076667D01*
X56620000Y26171905D01*
X56667619Y26219524D01*
X56762857Y26267143D01*
X56905714Y26267143D01*
X57000952Y26219524D01*
X57048571Y26171905D01*
X57096190Y26076667D01*
X57096190Y25695715D01*
X56667619Y26648096D02*
X56620000Y26695715D01*
X56572380Y26790953D01*
X56572380Y27029048D01*
X56620000Y27124286D01*
X56667619Y27171905D01*
X56762857Y27219524D01*
X56858095Y27219524D01*
X57000952Y27171905D01*
X57572380Y26600477D01*
X57572380Y27219524D01*
X56572380Y27838572D02*
X56572380Y27933810D01*
X56620000Y28029048D01*
X56667619Y28076667D01*
X56762857Y28124286D01*
X56953333Y28171905D01*
X57191428Y28171905D01*
X57381904Y28124286D01*
X57477142Y28076667D01*
X57524761Y28029048D01*
X57572380Y27933810D01*
X57572380Y27838572D01*
X57524761Y27743334D01*
X57477142Y27695715D01*
X57381904Y27648096D01*
X57191428Y27600477D01*
X56953333Y27600477D01*
X56762857Y27648096D01*
X56667619Y27695715D01*
X56620000Y27743334D01*
X56572380Y27838572D01*
G04 #@! TO.C,R21*
X57572380Y47857143D02*
X57096190Y47523810D01*
X57572380Y47285715D02*
X56572380Y47285715D01*
X56572380Y47666667D01*
X56620000Y47761905D01*
X56667619Y47809524D01*
X56762857Y47857143D01*
X56905714Y47857143D01*
X57000952Y47809524D01*
X57048571Y47761905D01*
X57096190Y47666667D01*
X57096190Y47285715D01*
X56667619Y48238096D02*
X56620000Y48285715D01*
X56572380Y48380953D01*
X56572380Y48619048D01*
X56620000Y48714286D01*
X56667619Y48761905D01*
X56762857Y48809524D01*
X56858095Y48809524D01*
X57000952Y48761905D01*
X57572380Y48190477D01*
X57572380Y48809524D01*
X57572380Y49761905D02*
X57572380Y49190477D01*
X57572380Y49476191D02*
X56572380Y49476191D01*
X56715238Y49380953D01*
X56810476Y49285715D01*
X56858095Y49190477D01*
G04 #@! TO.C,R22*
X57572380Y67542143D02*
X57096190Y67208810D01*
X57572380Y66970715D02*
X56572380Y66970715D01*
X56572380Y67351667D01*
X56620000Y67446905D01*
X56667619Y67494524D01*
X56762857Y67542143D01*
X56905714Y67542143D01*
X57000952Y67494524D01*
X57048571Y67446905D01*
X57096190Y67351667D01*
X57096190Y66970715D01*
X56667619Y67923096D02*
X56620000Y67970715D01*
X56572380Y68065953D01*
X56572380Y68304048D01*
X56620000Y68399286D01*
X56667619Y68446905D01*
X56762857Y68494524D01*
X56858095Y68494524D01*
X57000952Y68446905D01*
X57572380Y67875477D01*
X57572380Y68494524D01*
X56667619Y68875477D02*
X56620000Y68923096D01*
X56572380Y69018334D01*
X56572380Y69256429D01*
X56620000Y69351667D01*
X56667619Y69399286D01*
X56762857Y69446905D01*
X56858095Y69446905D01*
X57000952Y69399286D01*
X57572380Y68827858D01*
X57572380Y69446905D01*
G04 #@! TO.C,R13*
X35982380Y72622143D02*
X35506190Y72288810D01*
X35982380Y72050715D02*
X34982380Y72050715D01*
X34982380Y72431667D01*
X35030000Y72526905D01*
X35077619Y72574524D01*
X35172857Y72622143D01*
X35315714Y72622143D01*
X35410952Y72574524D01*
X35458571Y72526905D01*
X35506190Y72431667D01*
X35506190Y72050715D01*
X35982380Y73574524D02*
X35982380Y73003096D01*
X35982380Y73288810D02*
X34982380Y73288810D01*
X35125238Y73193572D01*
X35220476Y73098334D01*
X35268095Y73003096D01*
X34982380Y73907858D02*
X34982380Y74526905D01*
X35363333Y74193572D01*
X35363333Y74336429D01*
X35410952Y74431667D01*
X35458571Y74479286D01*
X35553809Y74526905D01*
X35791904Y74526905D01*
X35887142Y74479286D01*
X35934761Y74431667D01*
X35982380Y74336429D01*
X35982380Y74050715D01*
X35934761Y73955477D01*
X35887142Y73907858D01*
G04 #@! TO.C,R15*
X32807380Y72622143D02*
X32331190Y72288810D01*
X32807380Y72050715D02*
X31807380Y72050715D01*
X31807380Y72431667D01*
X31855000Y72526905D01*
X31902619Y72574524D01*
X31997857Y72622143D01*
X32140714Y72622143D01*
X32235952Y72574524D01*
X32283571Y72526905D01*
X32331190Y72431667D01*
X32331190Y72050715D01*
X32807380Y73574524D02*
X32807380Y73003096D01*
X32807380Y73288810D02*
X31807380Y73288810D01*
X31950238Y73193572D01*
X32045476Y73098334D01*
X32093095Y73003096D01*
X31807380Y74479286D02*
X31807380Y74003096D01*
X32283571Y73955477D01*
X32235952Y74003096D01*
X32188333Y74098334D01*
X32188333Y74336429D01*
X32235952Y74431667D01*
X32283571Y74479286D01*
X32378809Y74526905D01*
X32616904Y74526905D01*
X32712142Y74479286D01*
X32759761Y74431667D01*
X32807380Y74336429D01*
X32807380Y74098334D01*
X32759761Y74003096D01*
X32712142Y73955477D01*
G04 #@! TD*
M02*
