G04 #@! TF.GenerationSoftware,KiCad,Pcbnew,5.0.2-bee76a0~70~ubuntu16.04.1*
G04 #@! TF.CreationDate,2019-04-12T16:07:59+01:00*
G04 #@! TF.ProjectId,rgb-to-hdmi,7267622d-746f-42d6-9864-6d692e6b6963,rev?*
G04 #@! TF.SameCoordinates,PX8712db8PY8b83550*
G04 #@! TF.FileFunction,Legend,Bot*
G04 #@! TF.FilePolarity,Positive*
%FSLAX46Y46*%
G04 Gerber Fmt 4.6, Leading zero omitted, Abs format (unit mm)*
G04 Created by KiCad (PCBNEW 5.0.2-bee76a0~70~ubuntu16.04.1) date Fri 12 Apr 2019 16:07:59 BST*
%MOMM*%
%LPD*%
G01*
G04 APERTURE LIST*
%ADD10C,0.200000*%
%ADD11C,0.300000*%
%ADD12C,0.120000*%
%ADD13C,0.150000*%
G04 APERTURE END LIST*
D10*
X64867000Y40245000D02*
X65629000Y40245000D01*
X63851000Y37705000D02*
X65756000Y37705000D01*
X63851000Y35165000D02*
X65756000Y35165000D01*
X58644000Y35165000D02*
X60549000Y35165000D01*
X58644000Y37705000D02*
X60549000Y37705000D01*
X58644000Y40245000D02*
X59787000Y40245000D01*
D11*
X63469857Y40995000D02*
X63612714Y41066429D01*
X63827000Y41066429D01*
X64041285Y40995000D01*
X64184142Y40852143D01*
X64255571Y40709286D01*
X64327000Y40423572D01*
X64327000Y40209286D01*
X64255571Y39923572D01*
X64184142Y39780715D01*
X64041285Y39637858D01*
X63827000Y39566429D01*
X63684142Y39566429D01*
X63469857Y39637858D01*
X63398428Y39709286D01*
X63398428Y40209286D01*
X63684142Y40209286D01*
X62755571Y39566429D02*
X62755571Y41066429D01*
X61898428Y39566429D01*
X61898428Y41066429D01*
X61184142Y39566429D02*
X61184142Y41066429D01*
X60827000Y41066429D01*
X60612714Y40995000D01*
X60469857Y40852143D01*
X60398428Y40709286D01*
X60327000Y40423572D01*
X60327000Y40209286D01*
X60398428Y39923572D01*
X60469857Y39780715D01*
X60612714Y39637858D01*
X60827000Y39566429D01*
X61184142Y39566429D01*
X62469857Y34486429D02*
X62969857Y35200715D01*
X63327000Y34486429D02*
X63327000Y35986429D01*
X62755571Y35986429D01*
X62612714Y35915000D01*
X62541285Y35843572D01*
X62469857Y35700715D01*
X62469857Y35486429D01*
X62541285Y35343572D01*
X62612714Y35272143D01*
X62755571Y35200715D01*
X63327000Y35200715D01*
X61969857Y34486429D02*
X61184142Y35486429D01*
X61969857Y35486429D02*
X61184142Y34486429D01*
X63362714Y38526429D02*
X62505571Y38526429D01*
X62934142Y37026429D02*
X62934142Y38526429D01*
X62148428Y37026429D02*
X61362714Y38026429D01*
X62148428Y38026429D02*
X61362714Y37026429D01*
D10*
X26005000Y88505000D02*
X26005000Y94855000D01*
X50770000Y88505000D02*
X26005000Y88505000D01*
X50770000Y94855000D02*
X50770000Y88505000D01*
X26005000Y94855000D02*
X50770000Y94855000D01*
D11*
X49105714Y92705000D02*
X48391428Y92705000D01*
X49248571Y92276429D02*
X48748571Y93776429D01*
X48248571Y92276429D01*
X47962857Y93276429D02*
X47391428Y93276429D01*
X47748571Y93776429D02*
X47748571Y92490715D01*
X47677142Y92347858D01*
X47534285Y92276429D01*
X47391428Y92276429D01*
X46677142Y92276429D02*
X46820000Y92347858D01*
X46891428Y92419286D01*
X46962857Y92562143D01*
X46962857Y92990715D01*
X46891428Y93133572D01*
X46820000Y93205000D01*
X46677142Y93276429D01*
X46462857Y93276429D01*
X46320000Y93205000D01*
X46248571Y93133572D01*
X46177142Y92990715D01*
X46177142Y92562143D01*
X46248571Y92419286D01*
X46320000Y92347858D01*
X46462857Y92276429D01*
X46677142Y92276429D01*
X45534285Y92276429D02*
X45534285Y93276429D01*
X45534285Y93133572D02*
X45462857Y93205000D01*
X45320000Y93276429D01*
X45105714Y93276429D01*
X44962857Y93205000D01*
X44891428Y93062143D01*
X44891428Y92276429D01*
X44891428Y93062143D02*
X44820000Y93205000D01*
X44677142Y93276429D01*
X44462857Y93276429D01*
X44320000Y93205000D01*
X44248571Y93062143D01*
X44248571Y92276429D01*
X42605714Y93776429D02*
X42105714Y92276429D01*
X41605714Y93776429D01*
X41105714Y92276429D02*
X41105714Y93276429D01*
X41105714Y93776429D02*
X41177142Y93705000D01*
X41105714Y93633572D01*
X41034285Y93705000D01*
X41105714Y93776429D01*
X41105714Y93633572D01*
X39748571Y92276429D02*
X39748571Y93776429D01*
X39748571Y92347858D02*
X39891428Y92276429D01*
X40177142Y92276429D01*
X40320000Y92347858D01*
X40391428Y92419286D01*
X40462857Y92562143D01*
X40462857Y92990715D01*
X40391428Y93133572D01*
X40320000Y93205000D01*
X40177142Y93276429D01*
X39891428Y93276429D01*
X39748571Y93205000D01*
X38462857Y92347858D02*
X38605714Y92276429D01*
X38891428Y92276429D01*
X39034285Y92347858D01*
X39105714Y92490715D01*
X39105714Y93062143D01*
X39034285Y93205000D01*
X38891428Y93276429D01*
X38605714Y93276429D01*
X38462857Y93205000D01*
X38391428Y93062143D01*
X38391428Y92919286D01*
X39105714Y92776429D01*
X37534285Y92276429D02*
X37677142Y92347858D01*
X37748571Y92419286D01*
X37820000Y92562143D01*
X37820000Y92990715D01*
X37748571Y93133572D01*
X37677142Y93205000D01*
X37534285Y93276429D01*
X37320000Y93276429D01*
X37177142Y93205000D01*
X37105714Y93133572D01*
X37034285Y92990715D01*
X37034285Y92562143D01*
X37105714Y92419286D01*
X37177142Y92347858D01*
X37320000Y92276429D01*
X37534285Y92276429D01*
X35462857Y93276429D02*
X34891428Y93276429D01*
X35248571Y93776429D02*
X35248571Y92490715D01*
X35177142Y92347858D01*
X35034285Y92276429D01*
X34891428Y92276429D01*
X34177142Y92276429D02*
X34320000Y92347858D01*
X34391428Y92419286D01*
X34462857Y92562143D01*
X34462857Y92990715D01*
X34391428Y93133572D01*
X34320000Y93205000D01*
X34177142Y93276429D01*
X33962857Y93276429D01*
X33820000Y93205000D01*
X33748571Y93133572D01*
X33677142Y92990715D01*
X33677142Y92562143D01*
X33748571Y92419286D01*
X33820000Y92347858D01*
X33962857Y92276429D01*
X34177142Y92276429D01*
X31891428Y92276429D02*
X31891428Y93776429D01*
X31891428Y93062143D02*
X31034285Y93062143D01*
X31034285Y92276429D02*
X31034285Y93776429D01*
X30320000Y92276429D02*
X30320000Y93776429D01*
X29962857Y93776429D01*
X29748571Y93705000D01*
X29605714Y93562143D01*
X29534285Y93419286D01*
X29462857Y93133572D01*
X29462857Y92919286D01*
X29534285Y92633572D01*
X29605714Y92490715D01*
X29748571Y92347858D01*
X29962857Y92276429D01*
X30320000Y92276429D01*
X28820000Y92276429D02*
X28820000Y93776429D01*
X28320000Y92705000D01*
X27820000Y93776429D01*
X27820000Y92276429D01*
X27105714Y92276429D02*
X27105714Y93776429D01*
X46534285Y89155000D02*
X46605714Y89226429D01*
X46748571Y89440715D01*
X46820000Y89583572D01*
X46891428Y89797858D01*
X46962857Y90155000D01*
X46962857Y90440715D01*
X46891428Y90797858D01*
X46820000Y91012143D01*
X46748571Y91155000D01*
X46605714Y91369286D01*
X46534285Y91440715D01*
X45320000Y89797858D02*
X45462857Y89726429D01*
X45748571Y89726429D01*
X45891428Y89797858D01*
X45962857Y89869286D01*
X46034285Y90012143D01*
X46034285Y90440715D01*
X45962857Y90583572D01*
X45891428Y90655000D01*
X45748571Y90726429D01*
X45462857Y90726429D01*
X45320000Y90655000D01*
X44820000Y89155000D02*
X44748571Y89226429D01*
X44605714Y89440715D01*
X44534285Y89583572D01*
X44462857Y89797858D01*
X44391428Y90155000D01*
X44391428Y90440715D01*
X44462857Y90797858D01*
X44534285Y91012143D01*
X44605714Y91155000D01*
X44748571Y91369286D01*
X44820000Y91440715D01*
X42605714Y91083572D02*
X42534285Y91155000D01*
X42391428Y91226429D01*
X42034285Y91226429D01*
X41891428Y91155000D01*
X41820000Y91083572D01*
X41748571Y90940715D01*
X41748571Y90797858D01*
X41820000Y90583572D01*
X42677142Y89726429D01*
X41748571Y89726429D01*
X40820000Y91226429D02*
X40677142Y91226429D01*
X40534285Y91155000D01*
X40462857Y91083572D01*
X40391428Y90940715D01*
X40320000Y90655000D01*
X40320000Y90297858D01*
X40391428Y90012143D01*
X40462857Y89869286D01*
X40534285Y89797858D01*
X40677142Y89726429D01*
X40820000Y89726429D01*
X40962857Y89797858D01*
X41034285Y89869286D01*
X41105714Y90012143D01*
X41177142Y90297858D01*
X41177142Y90655000D01*
X41105714Y90940715D01*
X41034285Y91083572D01*
X40962857Y91155000D01*
X40820000Y91226429D01*
X38891428Y89726429D02*
X39748571Y89726429D01*
X39320000Y89726429D02*
X39320000Y91226429D01*
X39462857Y91012143D01*
X39605714Y90869286D01*
X39748571Y90797858D01*
X38177142Y89726429D02*
X37891428Y89726429D01*
X37748571Y89797858D01*
X37677142Y89869286D01*
X37534285Y90083572D01*
X37462857Y90369286D01*
X37462857Y90940715D01*
X37534285Y91083572D01*
X37605714Y91155000D01*
X37748571Y91226429D01*
X38034285Y91226429D01*
X38177142Y91155000D01*
X38248571Y91083572D01*
X38320000Y90940715D01*
X38320000Y90583572D01*
X38248571Y90440715D01*
X38177142Y90369286D01*
X38034285Y90297858D01*
X37748571Y90297858D01*
X37605714Y90369286D01*
X37534285Y90440715D01*
X37462857Y90583572D01*
X35677142Y89726429D02*
X35677142Y91226429D01*
X35677142Y90512143D02*
X34820000Y90512143D01*
X34820000Y89726429D02*
X34820000Y91226429D01*
X33891428Y89726429D02*
X34034285Y89797858D01*
X34105714Y89869286D01*
X34177142Y90012143D01*
X34177142Y90440715D01*
X34105714Y90583572D01*
X34034285Y90655000D01*
X33891428Y90726429D01*
X33677142Y90726429D01*
X33534285Y90655000D01*
X33462857Y90583572D01*
X33391428Y90440715D01*
X33391428Y90012143D01*
X33462857Y89869286D01*
X33534285Y89797858D01*
X33677142Y89726429D01*
X33891428Y89726429D01*
X32105714Y90726429D02*
X32105714Y89512143D01*
X32177142Y89369286D01*
X32248571Y89297858D01*
X32391428Y89226429D01*
X32605714Y89226429D01*
X32748571Y89297858D01*
X32105714Y89797858D02*
X32248571Y89726429D01*
X32534285Y89726429D01*
X32677142Y89797858D01*
X32748571Y89869286D01*
X32820000Y90012143D01*
X32820000Y90440715D01*
X32748571Y90583572D01*
X32677142Y90655000D01*
X32534285Y90726429D01*
X32248571Y90726429D01*
X32105714Y90655000D01*
X31177142Y89726429D02*
X31320000Y89797858D01*
X31391428Y89940715D01*
X31391428Y91226429D01*
X30034285Y89797858D02*
X30177142Y89726429D01*
X30462857Y89726429D01*
X30605714Y89797858D01*
X30677142Y89940715D01*
X30677142Y90512143D01*
X30605714Y90655000D01*
X30462857Y90726429D01*
X30177142Y90726429D01*
X30034285Y90655000D01*
X29962857Y90512143D01*
X29962857Y90369286D01*
X30677142Y90226429D01*
X29534285Y90726429D02*
X28962857Y90726429D01*
X29320000Y91226429D02*
X29320000Y89940715D01*
X29248571Y89797858D01*
X29105714Y89726429D01*
X28962857Y89726429D01*
D12*
G04 #@! TO.C,SW3*
X64340000Y71620000D02*
X61660000Y71620000D01*
X61660000Y65380000D02*
X64340000Y65380000D01*
X66120000Y65530000D02*
X66120000Y71470000D01*
X59880000Y65530000D02*
X59880000Y71470000D01*
X64414214Y68500000D02*
G75*
G03X64414214Y68500000I-1414214J0D01*
G01*
G04 #@! TO.C,SW1*
X64340000Y31620000D02*
X61660000Y31620000D01*
X61660000Y25380000D02*
X64340000Y25380000D01*
X66120000Y25530000D02*
X66120000Y31470000D01*
X59880000Y25530000D02*
X59880000Y31470000D01*
X64414214Y28500000D02*
G75*
G03X64414214Y28500000I-1414214J0D01*
G01*
G04 #@! TO.C,SW2*
X64340000Y51620000D02*
X61660000Y51620000D01*
X61660000Y45380000D02*
X64340000Y45380000D01*
X66120000Y45530000D02*
X66120000Y51470000D01*
X59880000Y45530000D02*
X59880000Y51470000D01*
X64414214Y48500000D02*
G75*
G03X64414214Y48500000I-1414214J0D01*
G01*
G04 #@! TO.C,D1*
X64540000Y12420000D02*
X64540000Y12264000D01*
X64540000Y14736000D02*
X64540000Y14580000D01*
X61938870Y12420163D02*
G75*
G03X64020961Y12420000I1041130J1079837D01*
G01*
X61938870Y14579837D02*
G75*
G02X64020961Y14580000I1041130J-1079837D01*
G01*
X61307665Y12421392D02*
G75*
G03X64540000Y12264484I1672335J1078608D01*
G01*
X61307665Y14578608D02*
G75*
G02X64540000Y14735516I1672335J-1078608D01*
G01*
G04 #@! TO.C,D2*
X64540000Y82670000D02*
X64540000Y82514000D01*
X64540000Y84986000D02*
X64540000Y84830000D01*
X61938870Y82670163D02*
G75*
G03X64020961Y82670000I1041130J1079837D01*
G01*
X61938870Y84829837D02*
G75*
G02X64020961Y84830000I1041130J-1079837D01*
G01*
X61307665Y82671392D02*
G75*
G03X64540000Y82514484I1672335J1078608D01*
G01*
X61307665Y84828608D02*
G75*
G02X64540000Y84985516I1672335J-1078608D01*
G01*
G04 #@! TO.C,C12*
X18385000Y20330000D02*
X18385000Y21620000D01*
X18385000Y28250000D02*
X18385000Y26960000D01*
X16715000Y21620000D02*
X16715000Y26960000D01*
X20055000Y21620000D02*
X16715000Y21620000D01*
X20055000Y26960000D02*
X20055000Y21620000D01*
X16715000Y26960000D02*
X20055000Y26960000D01*
G04 #@! TO.C,C11*
X18385000Y45730000D02*
X18385000Y47020000D01*
X18385000Y53650000D02*
X18385000Y52360000D01*
X16715000Y47020000D02*
X16715000Y52360000D01*
X20055000Y47020000D02*
X16715000Y47020000D01*
X20055000Y52360000D02*
X20055000Y47020000D01*
X16715000Y52360000D02*
X20055000Y52360000D01*
G04 #@! TO.C,C10*
X18385000Y71130000D02*
X18385000Y72420000D01*
X18385000Y79050000D02*
X18385000Y77760000D01*
X16715000Y72420000D02*
X16715000Y77760000D01*
X20055000Y72420000D02*
X16715000Y72420000D01*
X20055000Y77760000D02*
X20055000Y72420000D01*
X16715000Y77760000D02*
X20055000Y77760000D01*
G04 #@! TO.C,U1*
X30820000Y8835000D02*
X33270000Y8835000D01*
X32620000Y5615000D02*
X30820000Y5615000D01*
G04 #@! TO.C,SW3*
D13*
X66895238Y67166667D02*
X66847619Y67309524D01*
X66847619Y67547620D01*
X66895238Y67642858D01*
X66942857Y67690477D01*
X67038095Y67738096D01*
X67133333Y67738096D01*
X67228571Y67690477D01*
X67276190Y67642858D01*
X67323809Y67547620D01*
X67371428Y67357143D01*
X67419047Y67261905D01*
X67466666Y67214286D01*
X67561904Y67166667D01*
X67657142Y67166667D01*
X67752380Y67214286D01*
X67800000Y67261905D01*
X67847619Y67357143D01*
X67847619Y67595239D01*
X67800000Y67738096D01*
X67847619Y68071429D02*
X66847619Y68309524D01*
X67561904Y68500000D01*
X66847619Y68690477D01*
X67847619Y68928572D01*
X67847619Y69214286D02*
X67847619Y69833334D01*
X67466666Y69500000D01*
X67466666Y69642858D01*
X67419047Y69738096D01*
X67371428Y69785715D01*
X67276190Y69833334D01*
X67038095Y69833334D01*
X66942857Y69785715D01*
X66895238Y69738096D01*
X66847619Y69642858D01*
X66847619Y69357143D01*
X66895238Y69261905D01*
X66942857Y69214286D01*
G04 #@! TO.C,SW1*
X66895238Y27166667D02*
X66847619Y27309524D01*
X66847619Y27547620D01*
X66895238Y27642858D01*
X66942857Y27690477D01*
X67038095Y27738096D01*
X67133333Y27738096D01*
X67228571Y27690477D01*
X67276190Y27642858D01*
X67323809Y27547620D01*
X67371428Y27357143D01*
X67419047Y27261905D01*
X67466666Y27214286D01*
X67561904Y27166667D01*
X67657142Y27166667D01*
X67752380Y27214286D01*
X67800000Y27261905D01*
X67847619Y27357143D01*
X67847619Y27595239D01*
X67800000Y27738096D01*
X67847619Y28071429D02*
X66847619Y28309524D01*
X67561904Y28500000D01*
X66847619Y28690477D01*
X67847619Y28928572D01*
X66847619Y29833334D02*
X66847619Y29261905D01*
X66847619Y29547620D02*
X67847619Y29547620D01*
X67704761Y29452381D01*
X67609523Y29357143D01*
X67561904Y29261905D01*
G04 #@! TO.C,SW2*
X66895238Y47166667D02*
X66847619Y47309524D01*
X66847619Y47547620D01*
X66895238Y47642858D01*
X66942857Y47690477D01*
X67038095Y47738096D01*
X67133333Y47738096D01*
X67228571Y47690477D01*
X67276190Y47642858D01*
X67323809Y47547620D01*
X67371428Y47357143D01*
X67419047Y47261905D01*
X67466666Y47214286D01*
X67561904Y47166667D01*
X67657142Y47166667D01*
X67752380Y47214286D01*
X67800000Y47261905D01*
X67847619Y47357143D01*
X67847619Y47595239D01*
X67800000Y47738096D01*
X67847619Y48071429D02*
X66847619Y48309524D01*
X67561904Y48500000D01*
X66847619Y48690477D01*
X67847619Y48928572D01*
X67752380Y49261905D02*
X67800000Y49309524D01*
X67847619Y49404762D01*
X67847619Y49642858D01*
X67800000Y49738096D01*
X67752380Y49785715D01*
X67657142Y49833334D01*
X67561904Y49833334D01*
X67419047Y49785715D01*
X66847619Y49214286D01*
X66847619Y49833334D01*
G04 #@! TO.C,D1*
X66020119Y12761905D02*
X67020119Y12761905D01*
X67020119Y13000000D01*
X66972500Y13142858D01*
X66877261Y13238096D01*
X66782023Y13285715D01*
X66591547Y13333334D01*
X66448690Y13333334D01*
X66258214Y13285715D01*
X66162976Y13238096D01*
X66067738Y13142858D01*
X66020119Y13000000D01*
X66020119Y12761905D01*
X66020119Y14285715D02*
X66020119Y13714286D01*
X66020119Y14000000D02*
X67020119Y14000000D01*
X66877261Y13904762D01*
X66782023Y13809524D01*
X66734404Y13714286D01*
G04 #@! TO.C,D2*
X66020119Y83138905D02*
X67020119Y83138905D01*
X67020119Y83377000D01*
X66972500Y83519858D01*
X66877261Y83615096D01*
X66782023Y83662715D01*
X66591547Y83710334D01*
X66448690Y83710334D01*
X66258214Y83662715D01*
X66162976Y83615096D01*
X66067738Y83519858D01*
X66020119Y83377000D01*
X66020119Y83138905D01*
X66924880Y84091286D02*
X66972500Y84138905D01*
X67020119Y84234143D01*
X67020119Y84472239D01*
X66972500Y84567477D01*
X66924880Y84615096D01*
X66829642Y84662715D01*
X66734404Y84662715D01*
X66591547Y84615096D01*
X66020119Y84043667D01*
X66020119Y84662715D01*
G04 #@! TO.C,C12*
X18742142Y24852858D02*
X18789761Y24900477D01*
X18837380Y25043334D01*
X18837380Y25138572D01*
X18789761Y25281429D01*
X18694523Y25376667D01*
X18599285Y25424286D01*
X18408809Y25471905D01*
X18265952Y25471905D01*
X18075476Y25424286D01*
X17980238Y25376667D01*
X17885000Y25281429D01*
X17837380Y25138572D01*
X17837380Y25043334D01*
X17885000Y24900477D01*
X17932619Y24852858D01*
X18837380Y23900477D02*
X18837380Y24471905D01*
X18837380Y24186191D02*
X17837380Y24186191D01*
X17980238Y24281429D01*
X18075476Y24376667D01*
X18123095Y24471905D01*
X17932619Y23519524D02*
X17885000Y23471905D01*
X17837380Y23376667D01*
X17837380Y23138572D01*
X17885000Y23043334D01*
X17932619Y22995715D01*
X18027857Y22948096D01*
X18123095Y22948096D01*
X18265952Y22995715D01*
X18837380Y23567143D01*
X18837380Y22948096D01*
G04 #@! TO.C,C11*
X18742142Y50252858D02*
X18789761Y50300477D01*
X18837380Y50443334D01*
X18837380Y50538572D01*
X18789761Y50681429D01*
X18694523Y50776667D01*
X18599285Y50824286D01*
X18408809Y50871905D01*
X18265952Y50871905D01*
X18075476Y50824286D01*
X17980238Y50776667D01*
X17885000Y50681429D01*
X17837380Y50538572D01*
X17837380Y50443334D01*
X17885000Y50300477D01*
X17932619Y50252858D01*
X18837380Y49300477D02*
X18837380Y49871905D01*
X18837380Y49586191D02*
X17837380Y49586191D01*
X17980238Y49681429D01*
X18075476Y49776667D01*
X18123095Y49871905D01*
X18837380Y48348096D02*
X18837380Y48919524D01*
X18837380Y48633810D02*
X17837380Y48633810D01*
X17980238Y48729048D01*
X18075476Y48824286D01*
X18123095Y48919524D01*
G04 #@! TO.C,C10*
X18742142Y75732858D02*
X18789761Y75780477D01*
X18837380Y75923334D01*
X18837380Y76018572D01*
X18789761Y76161429D01*
X18694523Y76256667D01*
X18599285Y76304286D01*
X18408809Y76351905D01*
X18265952Y76351905D01*
X18075476Y76304286D01*
X17980238Y76256667D01*
X17885000Y76161429D01*
X17837380Y76018572D01*
X17837380Y75923334D01*
X17885000Y75780477D01*
X17932619Y75732858D01*
X18837380Y74780477D02*
X18837380Y75351905D01*
X18837380Y75066191D02*
X17837380Y75066191D01*
X17980238Y75161429D01*
X18075476Y75256667D01*
X18123095Y75351905D01*
X17837380Y74161429D02*
X17837380Y74066191D01*
X17885000Y73970953D01*
X17932619Y73923334D01*
X18027857Y73875715D01*
X18218333Y73828096D01*
X18456428Y73828096D01*
X18646904Y73875715D01*
X18742142Y73923334D01*
X18789761Y73970953D01*
X18837380Y74066191D01*
X18837380Y74161429D01*
X18789761Y74256667D01*
X18742142Y74304286D01*
X18646904Y74351905D01*
X18456428Y74399524D01*
X18218333Y74399524D01*
X18027857Y74351905D01*
X17932619Y74304286D01*
X17885000Y74256667D01*
X17837380Y74161429D01*
G04 #@! TO.C,U1*
X32481904Y10672620D02*
X32481904Y9863096D01*
X32434285Y9767858D01*
X32386666Y9720239D01*
X32291428Y9672620D01*
X32100952Y9672620D01*
X32005714Y9720239D01*
X31958095Y9767858D01*
X31910476Y9863096D01*
X31910476Y10672620D01*
X30910476Y9672620D02*
X31481904Y9672620D01*
X31196190Y9672620D02*
X31196190Y10672620D01*
X31291428Y10529762D01*
X31386666Y10434524D01*
X31481904Y10386905D01*
G04 #@! TD*
M02*
