M48
;DRILL file {KiCad 5.0.2-bee76a0~70~ubuntu16.04.1} date Fri 12 Apr 2019 16:08:03 BST
;FORMAT={-:-/ absolute / inch / decimal}
FMAT,2
INCH,TZ
T1C0.0160
T2C0.0240
T3C0.0295
T4C0.0315
T5C0.0354
T6C0.0394
T7C0.0400
T8C0.0512
T9C0.1063
%
G90
G05
T1
X0.3488Y1.8844
X0.7988Y2.8094
X0.9038Y2.3244
X1.1038Y2.1594
X1.1238Y2.5344
X1.1238Y1.9594
X1.1238Y0.2344
X1.1488Y2.8594
X1.1488Y2.8094
X1.3188Y2.0854
X1.6488Y1.6594
X1.6488Y1.2594
X1.6988Y1.6594
X1.6988Y1.2594
X1.7238Y2.1844
T2
X0.9738Y1.9594
X0.9738Y1.4844
X0.9738Y1.1844
X1.0488Y1.9594
X1.0488Y1.4844
X1.1738Y2.1594
X1.2488Y1.6844
X1.2988Y1.2844
X1.4688Y2.4094
X1.5738Y3.1844
X1.6338Y1.8944
X1.9988Y3.2094
X2.0238Y0.6094
X2.0738Y3.2094
X2.0988Y0.6094
X2.1488Y3.2094
X2.1738Y0.6094
T3
X0.7988Y0.4594
X0.8488Y0.5094
X0.8488Y0.4094
T4
X0.4488Y3.0344
X0.4488Y2.6344
X0.5738Y2.2594
X0.5738Y2.1594
X0.5738Y2.0594
X0.5738Y1.9594
X0.5738Y1.8594
X0.5738Y1.7594
X0.5738Y1.6594
X0.8738Y2.2594
X0.8738Y2.1594
X0.8738Y2.0594
X0.8738Y1.9594
X0.8738Y1.8594
X0.8738Y1.7594
X0.8738Y1.6594
X2.2488Y2.1094
X2.2488Y1.7094
X0.5238Y0.2844
X0.9238Y0.2844
X0.4488Y1.7844
X0.4488Y1.3844
X0.5238Y0.1594
X0.9238Y0.1594
X0.4738Y2.3844
X0.8738Y2.3844
X1.0238Y0.2844
X1.4238Y0.2844
X1.0504Y2.3344
X1.1488Y2.3344
X0.5738Y3.2594
X0.5738Y3.1594
X0.5738Y3.0594
X0.5738Y2.9594
X0.5738Y2.8594
X0.5738Y2.7594
X0.5738Y2.6594
X0.8738Y3.2594
X0.8738Y3.1594
X0.8738Y3.0594
X0.8738Y2.9594
X0.8738Y2.8594
X0.8738Y2.7594
X0.8738Y2.6594
X1.4238Y1.4344
X1.4238Y1.0344
X1.0488Y1.2313
X1.0488Y1.0344
X1.3988Y3.0844
X1.3988Y2.6844
X2.2488Y2.2344
X2.6488Y2.2344
X1.0988Y3.2829
X1.0988Y3.1844
X1.0238Y0.4844
X1.4238Y0.4844
X1.0238Y0.1594
X1.4238Y0.1594
X1.2988Y1.4344
X1.2988Y1.0344
X0.177Y2.3844
X0.3738Y2.3844
X2.2488Y2.3594
X2.6488Y2.3594
X1.5738Y0.2219
X1.6722Y0.2219
X1.2738Y3.0844
X1.2738Y2.6844
X1.5238Y3.0844
X1.5238Y2.6844
X0.1988Y1.2344
X0.1988Y1.0376
X0.5488Y1.5344
X0.7457Y1.5344
X0.4488Y2.2844
X0.4488Y1.8844
X0.4488Y1.2344
X0.4488Y1.0376
X1.1488Y3.0844
X1.1488Y2.6844
X1.1738Y1.4344
X1.1738Y1.0344
X0.7238Y2.1531
X0.7238Y1.7594
X0.4738Y2.5344
X0.8738Y2.5344
X0.5988Y0.5079
X0.5988Y0.4094
X0.5488Y3.3844
X0.7457Y3.3844
X0.177Y2.5344
X0.3738Y2.5344
X0.4488Y3.5344
X0.4488Y3.1344
X2.2488Y2.8844
X2.2488Y2.4844
X0.5738Y1.2594
X0.5738Y1.1594
X0.5738Y1.0594
X0.5738Y0.9594
X0.5738Y0.8594
X0.5738Y0.7594
X0.5738Y0.6594
X0.8738Y1.2594
X0.8738Y1.1594
X0.8738Y1.0594
X0.8738Y0.9594
X0.8738Y0.8594
X0.8738Y0.7594
X0.8738Y0.6594
X0.7238Y1.1531
X0.7238Y0.7594
X2.2488Y1.2594
X2.2488Y0.8594
X0.3238Y1.4344
X0.3238Y1.0344
X0.7238Y3.1531
X0.7238Y2.7594
T5
X1.0988Y0.7844
X1.1988Y0.8844
X1.1988Y0.6844
X2.4295Y3.2972
X2.5295Y3.2972
X2.4295Y0.5315
X2.5295Y0.5315
X0.2738Y0.8844
X0.2738Y0.6844
X0.3738Y0.7844
T6
X1.2738Y2.5094
X1.2738Y2.4094
X1.2738Y2.3094
X1.3238Y3.3344
X2.0988Y1.0594
X2.0988Y0.9594
X2.2488Y1.5844
X2.2488Y1.4844
X2.2488Y1.3844
X1.8988Y2.8594
X1.8988Y2.7594
X1.8988Y2.6594
X1.8988Y2.5594
X1.8988Y2.4594
X1.8988Y2.3594
X1.8988Y2.2594
X1.8988Y2.1594
X1.8988Y2.0594
X1.8988Y1.9594
X1.8988Y1.8594
X1.8988Y1.7594
X1.8988Y1.6594
X1.8988Y1.5594
X1.8988Y1.4594
X1.8988Y1.3594
X1.8988Y1.2594
X1.8988Y1.1594
X1.8988Y1.0594
X1.8988Y0.9594
X1.9988Y2.8594
X1.9988Y2.7594
X1.9988Y2.6594
X1.9988Y2.5594
X1.9988Y2.4594
X1.9988Y2.3594
X1.9988Y2.2594
X1.9988Y2.1594
X1.9988Y2.0594
X1.9988Y1.9594
X1.9988Y1.8594
X1.9988Y1.7594
X1.9988Y1.6594
X1.9988Y1.5594
X1.9988Y1.4594
X1.9988Y1.3594
X1.9988Y1.2594
X1.9988Y1.1594
X1.9988Y1.0594
X1.9988Y0.9594
X1.1488Y1.7094
X1.1488Y1.6094
X2.1238Y2.2594
X2.1238Y2.1594
X2.3917Y1.25
X2.3917Y0.9941
X2.4803Y1.122
X2.5689Y1.25
X2.5689Y0.9941
X1.5988Y0.6594
X1.7238Y2.8594
X1.7238Y2.7594
X1.7238Y2.6594
X1.7238Y2.5594
X1.7238Y2.4594
X1.7238Y2.3594
X2.3917Y2.8248
X2.3917Y2.5689
X2.4803Y2.6969
X2.5689Y2.8248
X2.5689Y2.5689
X2.9238Y1.1994
X2.9238Y1.0223
X2.3917Y2.0374
X2.3917Y1.7815
X2.4803Y1.9094
X2.5689Y2.0374
X2.5689Y1.7815
X2.6488Y1.5844
X2.6488Y1.4844
X2.6488Y1.3844
T7
X0.1488Y2.1094
X0.1488Y2.0094
X0.1488Y1.9094
X0.1488Y1.8094
X0.1488Y1.7094
X0.2488Y2.1094
X0.2488Y2.0094
X0.2488Y1.9094
X0.2488Y1.8094
X0.2488Y1.7094
T8
X2.8254Y1.2487
X2.8254Y0.9731
T9
X1.9488Y3.0512
X2.8543Y0.7677
X1.9488Y0.7677
X2.8543Y3.0512
X2.874Y3.376
X2.874Y0.4429
X0.1575Y0.4429
X0.1575Y3.376
X2.874Y1.7815
T0
M30
