G04 #@! TF.GenerationSoftware,KiCad,Pcbnew,(5.1.4)-1*
G04 #@! TF.CreationDate,2020-08-19T00:59:48+01:00*
G04 #@! TF.ProjectId,buffer,62756666-6572-42e6-9b69-6361645f7063,rev?*
G04 #@! TF.SameCoordinates,Original*
G04 #@! TF.FileFunction,Legend,Top*
G04 #@! TF.FilePolarity,Positive*
%FSLAX46Y46*%
G04 Gerber Fmt 4.6, Leading zero omitted, Abs format (unit mm)*
G04 Created by KiCad (PCBNEW (5.1.4)-1) date 2020-08-19 00:59:48*
%MOMM*%
%LPD*%
G04 APERTURE LIST*
%ADD10C,0.150000*%
%ADD11C,0.120000*%
G04 APERTURE END LIST*
D10*
X27780800Y-48320960D02*
X36315200Y-45882560D01*
X27780800Y-45831760D02*
X36315200Y-48371760D01*
X39083800Y-45755560D02*
X41496800Y-45755560D01*
X38702800Y-45349160D02*
X39083800Y-45755560D01*
X39541000Y-43215560D02*
X41700000Y-43215560D01*
X39617200Y-38237160D02*
X41598400Y-38237160D01*
X39566400Y-40726360D02*
X41547600Y-40726360D01*
X39058400Y-35620960D02*
X41573000Y-35620960D01*
X38626600Y-35189160D02*
X39058400Y-35620960D01*
X39033000Y-43215560D02*
X38626600Y-42809160D01*
X39541000Y-43215560D02*
X39033000Y-43215560D01*
X39058400Y-40726360D02*
X38601200Y-40269160D01*
X39566400Y-40726360D02*
X39058400Y-40726360D01*
X39134600Y-38237160D02*
X38626600Y-37729160D01*
X39617200Y-38237160D02*
X39134600Y-38237160D01*
X41933371Y-43794940D02*
X41933371Y-43128274D01*
X41933371Y-43318750D02*
X41980990Y-43223512D01*
X42028609Y-43175893D01*
X42123847Y-43128274D01*
X42219085Y-43128274D01*
X42365123Y-41229540D02*
X42031790Y-40753350D01*
X41793695Y-41229540D02*
X41793695Y-40229540D01*
X42174647Y-40229540D01*
X42269885Y-40277160D01*
X42317504Y-40324779D01*
X42365123Y-40420017D01*
X42365123Y-40562874D01*
X42317504Y-40658112D01*
X42269885Y-40705731D01*
X42174647Y-40753350D01*
X41793695Y-40753350D01*
X42342904Y-37787960D02*
X42247666Y-37740340D01*
X42104809Y-37740340D01*
X41961952Y-37787960D01*
X41866714Y-37883198D01*
X41819095Y-37978436D01*
X41771476Y-38168912D01*
X41771476Y-38311769D01*
X41819095Y-38502245D01*
X41866714Y-38597483D01*
X41961952Y-38692721D01*
X42104809Y-38740340D01*
X42200047Y-38740340D01*
X42342904Y-38692721D01*
X42390523Y-38645102D01*
X42390523Y-38311769D01*
X42200047Y-38311769D01*
X41969880Y-45284140D02*
X42065119Y-45284140D01*
X42160357Y-45331760D01*
X42207976Y-45379379D01*
X42255595Y-45474617D01*
X42303214Y-45665093D01*
X42303214Y-45903188D01*
X42255595Y-46093664D01*
X42207976Y-46188902D01*
X42160357Y-46236521D01*
X42065119Y-46284140D01*
X41969880Y-46284140D01*
X41874642Y-46236521D01*
X41827023Y-46188902D01*
X41779404Y-46093664D01*
X41731785Y-45903188D01*
X41731785Y-45665093D01*
X41779404Y-45474617D01*
X41827023Y-45379379D01*
X41874642Y-45331760D01*
X41969880Y-45284140D01*
X42101628Y-35447931D02*
X42244485Y-35495550D01*
X42292104Y-35543169D01*
X42339723Y-35638407D01*
X42339723Y-35781264D01*
X42292104Y-35876502D01*
X42244485Y-35924121D01*
X42149247Y-35971740D01*
X41768295Y-35971740D01*
X41768295Y-34971740D01*
X42101628Y-34971740D01*
X42196866Y-35019360D01*
X42244485Y-35066979D01*
X42292104Y-35162217D01*
X42292104Y-35257455D01*
X42244485Y-35352693D01*
X42196866Y-35400312D01*
X42101628Y-35447931D01*
X41768295Y-35447931D01*
X42244485Y-44068074D02*
X42244485Y-44877598D01*
X42196866Y-44972836D01*
X42149247Y-45020455D01*
X42054009Y-45068074D01*
X41911152Y-45068074D01*
X41815914Y-45020455D01*
X42244485Y-44687121D02*
X42149247Y-44734740D01*
X41958771Y-44734740D01*
X41863533Y-44687121D01*
X41815914Y-44639502D01*
X41768295Y-44544264D01*
X41768295Y-44258550D01*
X41815914Y-44163312D01*
X41863533Y-44115693D01*
X41958771Y-44068074D01*
X42149247Y-44068074D01*
X42244485Y-44115693D01*
X41790514Y-42524940D02*
X41790514Y-41524940D01*
X41790514Y-41905893D02*
X41885752Y-41858274D01*
X42076228Y-41858274D01*
X42171466Y-41905893D01*
X42219085Y-41953512D01*
X42266704Y-42048750D01*
X42266704Y-42334464D01*
X42219085Y-42429702D01*
X42171466Y-42477321D01*
X42076228Y-42524940D01*
X41885752Y-42524940D01*
X41790514Y-42477321D01*
X41795285Y-39984940D02*
X41795285Y-38984940D01*
X41795285Y-39461131D02*
X42366714Y-39461131D01*
X42366714Y-39984940D02*
X42366714Y-38984940D01*
X41722266Y-36444940D02*
X42055600Y-37444940D01*
X42388933Y-36444940D01*
X42268295Y-33600140D02*
X41792104Y-33600140D01*
X41744485Y-34076331D01*
X41792104Y-34028712D01*
X41887342Y-33981093D01*
X42125438Y-33981093D01*
X42220676Y-34028712D01*
X42268295Y-34076331D01*
X42315914Y-34171569D01*
X42315914Y-34409664D01*
X42268295Y-34504902D01*
X42220676Y-34552521D01*
X42125438Y-34600140D01*
X41887342Y-34600140D01*
X41792104Y-34552521D01*
X41744485Y-34504902D01*
D11*
X62747400Y-36780160D02*
X64077400Y-36780160D01*
X62747400Y-38110160D02*
X62747400Y-36780160D01*
X62747400Y-39380160D02*
X65407400Y-39380160D01*
X65407400Y-39380160D02*
X65407400Y-47060160D01*
X62747400Y-39380160D02*
X62747400Y-47060160D01*
X62747400Y-47060160D02*
X65407400Y-47060160D01*
X27723800Y-33166360D02*
X36353800Y-33166360D01*
X27723800Y-33284455D02*
X36353800Y-33284455D01*
X27723800Y-33402550D02*
X36353800Y-33402550D01*
X27723800Y-33520645D02*
X36353800Y-33520645D01*
X27723800Y-33638740D02*
X36353800Y-33638740D01*
X27723800Y-33756835D02*
X36353800Y-33756835D01*
X27723800Y-33874930D02*
X36353800Y-33874930D01*
X27723800Y-33993025D02*
X36353800Y-33993025D01*
X27723800Y-34111120D02*
X36353800Y-34111120D01*
X27723800Y-34229215D02*
X36353800Y-34229215D01*
X27723800Y-34347310D02*
X36353800Y-34347310D01*
X27723800Y-34465405D02*
X36353800Y-34465405D01*
X27723800Y-34583500D02*
X36353800Y-34583500D01*
X27723800Y-34701595D02*
X36353800Y-34701595D01*
X27723800Y-34819690D02*
X36353800Y-34819690D01*
X27723800Y-34937785D02*
X36353800Y-34937785D01*
X27723800Y-35055880D02*
X36353800Y-35055880D01*
X27723800Y-35173975D02*
X36353800Y-35173975D01*
X27723800Y-35292070D02*
X36353800Y-35292070D01*
X27723800Y-35410165D02*
X36353800Y-35410165D01*
X27723800Y-35528260D02*
X36353800Y-35528260D01*
X36353800Y-34016360D02*
X36763800Y-34016360D01*
X38863800Y-34016360D02*
X39243800Y-34016360D01*
X36353800Y-34736360D02*
X36763800Y-34736360D01*
X38863800Y-34736360D02*
X39243800Y-34736360D01*
X36353800Y-36556360D02*
X36763800Y-36556360D01*
X38863800Y-36556360D02*
X39303800Y-36556360D01*
X36353800Y-37276360D02*
X36763800Y-37276360D01*
X38863800Y-37276360D02*
X39303800Y-37276360D01*
X36353800Y-39096360D02*
X36763800Y-39096360D01*
X38863800Y-39096360D02*
X39303800Y-39096360D01*
X36353800Y-39816360D02*
X36763800Y-39816360D01*
X38863800Y-39816360D02*
X39303800Y-39816360D01*
X36353800Y-41636360D02*
X36763800Y-41636360D01*
X38863800Y-41636360D02*
X39303800Y-41636360D01*
X36353800Y-42356360D02*
X36763800Y-42356360D01*
X38863800Y-42356360D02*
X39303800Y-42356360D01*
X36353800Y-44176360D02*
X36763800Y-44176360D01*
X38863800Y-44176360D02*
X39303800Y-44176360D01*
X36353800Y-44896360D02*
X36763800Y-44896360D01*
X38863800Y-44896360D02*
X39303800Y-44896360D01*
X36353800Y-46716360D02*
X36763800Y-46716360D01*
X38863800Y-46716360D02*
X39303800Y-46716360D01*
X36353800Y-47436360D02*
X36763800Y-47436360D01*
X38863800Y-47436360D02*
X39303800Y-47436360D01*
X27723800Y-35646360D02*
X36353800Y-35646360D01*
X27723800Y-38186360D02*
X36353800Y-38186360D01*
X27723800Y-40726360D02*
X36353800Y-40726360D01*
X27723800Y-43266360D02*
X36353800Y-43266360D01*
X27723800Y-45806360D02*
X36353800Y-45806360D01*
X27723800Y-33046360D02*
X36353800Y-33046360D01*
X36353800Y-33046360D02*
X36353800Y-48406360D01*
X27723800Y-48406360D02*
X36353800Y-48406360D01*
X27723800Y-33046360D02*
X27723800Y-48406360D01*
X41463800Y-33046360D02*
X41463800Y-34376360D01*
X40353800Y-33046360D02*
X41463800Y-33046360D01*
X51461660Y-32149540D02*
X51461660Y-34149540D01*
X51461660Y-34149540D02*
X55361660Y-34149540D01*
X51461660Y-32149540D02*
X55361660Y-32149540D01*
X52976100Y-36565080D02*
G75*
G02X52276100Y-35865080I0J700000D01*
G01*
X52276100Y-35265080D02*
G75*
G02X52976100Y-34565080I700000J0D01*
G01*
X54376100Y-34565080D02*
G75*
G02X55076100Y-35265080I0J-700000D01*
G01*
X55076100Y-35865080D02*
G75*
G02X54376100Y-36565080I-700000J0D01*
G01*
X55076100Y-35265080D02*
X55076100Y-35865080D01*
X52976100Y-34565080D02*
X54376100Y-34565080D01*
X52276100Y-35865080D02*
X52276100Y-35265080D01*
X54376100Y-36565080D02*
X52976100Y-36565080D01*
X64957733Y-36572626D02*
X64957733Y-35872626D01*
X65224400Y-35872626D01*
X65291066Y-35905960D01*
X65324400Y-35939293D01*
X65357733Y-36005960D01*
X65357733Y-36105960D01*
X65324400Y-36172626D01*
X65291066Y-36205960D01*
X65224400Y-36239293D01*
X64957733Y-36239293D01*
X65624400Y-35939293D02*
X65657733Y-35905960D01*
X65724400Y-35872626D01*
X65891066Y-35872626D01*
X65957733Y-35905960D01*
X65991066Y-35939293D01*
X66024400Y-36005960D01*
X66024400Y-36072626D01*
X65991066Y-36172626D01*
X65591066Y-36572626D01*
X66024400Y-36572626D01*
D10*
X32122704Y-32771340D02*
X32122704Y-31771340D01*
X32503657Y-31771340D01*
X32598895Y-31818960D01*
X32646514Y-31866579D01*
X32694133Y-31961817D01*
X32694133Y-32104674D01*
X32646514Y-32199912D01*
X32598895Y-32247531D01*
X32503657Y-32295150D01*
X32122704Y-32295150D01*
X33646514Y-32771340D02*
X33075085Y-32771340D01*
X33360800Y-32771340D02*
X33360800Y-31771340D01*
X33265561Y-31914198D01*
X33170323Y-32009436D01*
X33075085Y-32057055D01*
X56707364Y-33528260D02*
X56707364Y-32528260D01*
X56945460Y-32528260D01*
X57088317Y-32575880D01*
X57183555Y-32671118D01*
X57231174Y-32766356D01*
X57278793Y-32956832D01*
X57278793Y-33099689D01*
X57231174Y-33290165D01*
X57183555Y-33385403D01*
X57088317Y-33480641D01*
X56945460Y-33528260D01*
X56707364Y-33528260D01*
X58231174Y-33528260D02*
X57659745Y-33528260D01*
X57945460Y-33528260D02*
X57945460Y-32528260D01*
X57850221Y-32671118D01*
X57754983Y-32766356D01*
X57659745Y-32813975D01*
X49535686Y-35220660D02*
X49535686Y-35934946D01*
X49488067Y-36077803D01*
X49392829Y-36173041D01*
X49249972Y-36220660D01*
X49154734Y-36220660D01*
X50011877Y-36220660D02*
X50011877Y-35220660D01*
X50392829Y-35220660D01*
X50488067Y-35268280D01*
X50535686Y-35315899D01*
X50583305Y-35411137D01*
X50583305Y-35553994D01*
X50535686Y-35649232D01*
X50488067Y-35696851D01*
X50392829Y-35744470D01*
X50011877Y-35744470D01*
X51488067Y-35220660D02*
X51011877Y-35220660D01*
X50964258Y-35696851D01*
X51011877Y-35649232D01*
X51107115Y-35601613D01*
X51345210Y-35601613D01*
X51440448Y-35649232D01*
X51488067Y-35696851D01*
X51535686Y-35792089D01*
X51535686Y-36030184D01*
X51488067Y-36125422D01*
X51440448Y-36173041D01*
X51345210Y-36220660D01*
X51107115Y-36220660D01*
X51011877Y-36173041D01*
X50964258Y-36125422D01*
M02*
