G04 #@! TF.GenerationSoftware,KiCad,Pcbnew,(5.1.4)-1*
G04 #@! TF.CreationDate,2020-10-15T04:09:33+01:00*
G04 #@! TF.ProjectId,buffer,62756666-6572-42e6-9b69-6361645f7063,rev?*
G04 #@! TF.SameCoordinates,Original*
G04 #@! TF.FileFunction,Legend,Top*
G04 #@! TF.FilePolarity,Positive*
%FSLAX46Y46*%
G04 Gerber Fmt 4.6, Leading zero omitted, Abs format (unit mm)*
G04 Created by KiCad (PCBNEW (5.1.4)-1) date 2020-10-15 04:09:33*
%MOMM*%
%LPD*%
G04 APERTURE LIST*
%ADD10C,0.150000*%
%ADD11C,0.120000*%
G04 APERTURE END LIST*
D10*
X37647133Y-49509940D02*
X37313800Y-49033750D01*
X37075704Y-49509940D02*
X37075704Y-48509940D01*
X37456657Y-48509940D01*
X37551895Y-48557560D01*
X37599514Y-48605179D01*
X37647133Y-48700417D01*
X37647133Y-48843274D01*
X37599514Y-48938512D01*
X37551895Y-48986131D01*
X37456657Y-49033750D01*
X37075704Y-49033750D01*
X38599514Y-49509940D02*
X38028085Y-49509940D01*
X38313800Y-49509940D02*
X38313800Y-48509940D01*
X38218561Y-48652798D01*
X38123323Y-48748036D01*
X38028085Y-48795655D01*
X42285838Y-47055731D02*
X42428695Y-47103350D01*
X42476314Y-47150969D01*
X42523933Y-47246207D01*
X42523933Y-47389064D01*
X42476314Y-47484302D01*
X42428695Y-47531921D01*
X42333457Y-47579540D01*
X41952504Y-47579540D01*
X41952504Y-46579540D01*
X42285838Y-46579540D01*
X42381076Y-46627160D01*
X42428695Y-46674779D01*
X42476314Y-46770017D01*
X42476314Y-46865255D01*
X42428695Y-46960493D01*
X42381076Y-47008112D01*
X42285838Y-47055731D01*
X41952504Y-47055731D01*
X43476314Y-47579540D02*
X42904885Y-47579540D01*
X43190600Y-47579540D02*
X43190600Y-46579540D01*
X43095361Y-46722398D01*
X43000123Y-46817636D01*
X42904885Y-46865255D01*
X61094514Y-45331760D02*
X60999276Y-45284140D01*
X60856419Y-45284140D01*
X60713561Y-45331760D01*
X60618323Y-45426998D01*
X60570704Y-45522236D01*
X60523085Y-45712712D01*
X60523085Y-45855569D01*
X60570704Y-46046045D01*
X60618323Y-46141283D01*
X60713561Y-46236521D01*
X60856419Y-46284140D01*
X60951657Y-46284140D01*
X61094514Y-46236521D01*
X61142133Y-46188902D01*
X61142133Y-45855569D01*
X60951657Y-45855569D01*
X62094514Y-46284140D02*
X61523085Y-46284140D01*
X61808800Y-46284140D02*
X61808800Y-45284140D01*
X61713561Y-45426998D01*
X61618323Y-45522236D01*
X61523085Y-45569855D01*
X61167533Y-43693340D02*
X60834200Y-43217150D01*
X60596104Y-43693340D02*
X60596104Y-42693340D01*
X60977057Y-42693340D01*
X61072295Y-42740960D01*
X61119914Y-42788579D01*
X61167533Y-42883817D01*
X61167533Y-43026674D01*
X61119914Y-43121912D01*
X61072295Y-43169531D01*
X60977057Y-43217150D01*
X60596104Y-43217150D01*
X61786580Y-42693340D02*
X61881819Y-42693340D01*
X61977057Y-42740960D01*
X62024676Y-42788579D01*
X62072295Y-42883817D01*
X62119914Y-43074293D01*
X62119914Y-43312388D01*
X62072295Y-43502864D01*
X62024676Y-43598102D01*
X61977057Y-43645721D01*
X61881819Y-43693340D01*
X61786580Y-43693340D01*
X61691342Y-43645721D01*
X61643723Y-43598102D01*
X61596104Y-43502864D01*
X61548485Y-43312388D01*
X61548485Y-43074293D01*
X61596104Y-42883817D01*
X61643723Y-42788579D01*
X61691342Y-42740960D01*
X61786580Y-42693340D01*
X61094514Y-40200960D02*
X60999276Y-40153340D01*
X60856419Y-40153340D01*
X60713561Y-40200960D01*
X60618323Y-40296198D01*
X60570704Y-40391436D01*
X60523085Y-40581912D01*
X60523085Y-40724769D01*
X60570704Y-40915245D01*
X60618323Y-41010483D01*
X60713561Y-41105721D01*
X60856419Y-41153340D01*
X60951657Y-41153340D01*
X61094514Y-41105721D01*
X61142133Y-41058102D01*
X61142133Y-40724769D01*
X60951657Y-40724769D01*
X61761180Y-40153340D02*
X61856419Y-40153340D01*
X61951657Y-40200960D01*
X61999276Y-40248579D01*
X62046895Y-40343817D01*
X62094514Y-40534293D01*
X62094514Y-40772388D01*
X62046895Y-40962864D01*
X61999276Y-41058102D01*
X61951657Y-41105721D01*
X61856419Y-41153340D01*
X61761180Y-41153340D01*
X61665942Y-41105721D01*
X61618323Y-41058102D01*
X61570704Y-40962864D01*
X61523085Y-40772388D01*
X61523085Y-40534293D01*
X61570704Y-40343817D01*
X61618323Y-40248579D01*
X61665942Y-40200960D01*
X61761180Y-40153340D01*
X60929438Y-38114931D02*
X61072295Y-38162550D01*
X61119914Y-38210169D01*
X61167533Y-38305407D01*
X61167533Y-38448264D01*
X61119914Y-38543502D01*
X61072295Y-38591121D01*
X60977057Y-38638740D01*
X60596104Y-38638740D01*
X60596104Y-37638740D01*
X60929438Y-37638740D01*
X61024676Y-37686360D01*
X61072295Y-37733979D01*
X61119914Y-37829217D01*
X61119914Y-37924455D01*
X61072295Y-38019693D01*
X61024676Y-38067312D01*
X60929438Y-38114931D01*
X60596104Y-38114931D01*
X61786580Y-37638740D02*
X61881819Y-37638740D01*
X61977057Y-37686360D01*
X62024676Y-37733979D01*
X62072295Y-37829217D01*
X62119914Y-38019693D01*
X62119914Y-38257788D01*
X62072295Y-38448264D01*
X62024676Y-38543502D01*
X61977057Y-38591121D01*
X61881819Y-38638740D01*
X61786580Y-38638740D01*
X61691342Y-38591121D01*
X61643723Y-38543502D01*
X61596104Y-38448264D01*
X61548485Y-38257788D01*
X61548485Y-38019693D01*
X61596104Y-37829217D01*
X61643723Y-37733979D01*
X61691342Y-37686360D01*
X61786580Y-37638740D01*
X27780800Y-48320960D02*
X36315200Y-45882560D01*
X27780800Y-45831760D02*
X36315200Y-48371760D01*
X39083800Y-45755560D02*
X41496800Y-45755560D01*
X38702800Y-45349160D02*
X39083800Y-45755560D01*
X39541000Y-43215560D02*
X41700000Y-43215560D01*
X39617200Y-38237160D02*
X41598400Y-38237160D01*
X39566400Y-40726360D02*
X41547600Y-40726360D01*
X39058400Y-35620960D02*
X41573000Y-35620960D01*
X38626600Y-35189160D02*
X39058400Y-35620960D01*
X39033000Y-43215560D02*
X38626600Y-42809160D01*
X39541000Y-43215560D02*
X39033000Y-43215560D01*
X39058400Y-40726360D02*
X38601200Y-40269160D01*
X39566400Y-40726360D02*
X39058400Y-40726360D01*
X39134600Y-38237160D02*
X38626600Y-37729160D01*
X39617200Y-38237160D02*
X39134600Y-38237160D01*
X42574733Y-43769540D02*
X42241400Y-43293350D01*
X42003304Y-43769540D02*
X42003304Y-42769540D01*
X42384257Y-42769540D01*
X42479495Y-42817160D01*
X42527114Y-42864779D01*
X42574733Y-42960017D01*
X42574733Y-43102874D01*
X42527114Y-43198112D01*
X42479495Y-43245731D01*
X42384257Y-43293350D01*
X42003304Y-43293350D01*
X42955685Y-42864779D02*
X43003304Y-42817160D01*
X43098542Y-42769540D01*
X43336638Y-42769540D01*
X43431876Y-42817160D01*
X43479495Y-42864779D01*
X43527114Y-42960017D01*
X43527114Y-43055255D01*
X43479495Y-43198112D01*
X42908066Y-43769540D01*
X43527114Y-43769540D01*
X42600133Y-41229540D02*
X42266800Y-40753350D01*
X42028704Y-41229540D02*
X42028704Y-40229540D01*
X42409657Y-40229540D01*
X42504895Y-40277160D01*
X42552514Y-40324779D01*
X42600133Y-40420017D01*
X42600133Y-40562874D01*
X42552514Y-40658112D01*
X42504895Y-40705731D01*
X42409657Y-40753350D01*
X42028704Y-40753350D01*
X42933466Y-40229540D02*
X43552514Y-40229540D01*
X43219180Y-40610493D01*
X43362038Y-40610493D01*
X43457276Y-40658112D01*
X43504895Y-40705731D01*
X43552514Y-40800969D01*
X43552514Y-41039064D01*
X43504895Y-41134302D01*
X43457276Y-41181921D01*
X43362038Y-41229540D01*
X43076323Y-41229540D01*
X42981085Y-41181921D01*
X42933466Y-41134302D01*
X42527114Y-37762560D02*
X42431876Y-37714940D01*
X42289019Y-37714940D01*
X42146161Y-37762560D01*
X42050923Y-37857798D01*
X42003304Y-37953036D01*
X41955685Y-38143512D01*
X41955685Y-38286369D01*
X42003304Y-38476845D01*
X42050923Y-38572083D01*
X42146161Y-38667321D01*
X42289019Y-38714940D01*
X42384257Y-38714940D01*
X42527114Y-38667321D01*
X42574733Y-38619702D01*
X42574733Y-38286369D01*
X42384257Y-38286369D01*
X42908066Y-37714940D02*
X43527114Y-37714940D01*
X43193780Y-38095893D01*
X43336638Y-38095893D01*
X43431876Y-38143512D01*
X43479495Y-38191131D01*
X43527114Y-38286369D01*
X43527114Y-38524464D01*
X43479495Y-38619702D01*
X43431876Y-38667321D01*
X43336638Y-38714940D01*
X43050923Y-38714940D01*
X42955685Y-38667321D01*
X42908066Y-38619702D01*
X42134980Y-45284140D02*
X42230219Y-45284140D01*
X42325457Y-45331760D01*
X42373076Y-45379379D01*
X42420695Y-45474617D01*
X42468314Y-45665093D01*
X42468314Y-45903188D01*
X42420695Y-46093664D01*
X42373076Y-46188902D01*
X42325457Y-46236521D01*
X42230219Y-46284140D01*
X42134980Y-46284140D01*
X42039742Y-46236521D01*
X41992123Y-46188902D01*
X41944504Y-46093664D01*
X41896885Y-45903188D01*
X41896885Y-45665093D01*
X41944504Y-45474617D01*
X41992123Y-45379379D01*
X42039742Y-45331760D01*
X42134980Y-45284140D01*
X42235038Y-35600331D02*
X42377895Y-35647950D01*
X42425514Y-35695569D01*
X42473133Y-35790807D01*
X42473133Y-35933664D01*
X42425514Y-36028902D01*
X42377895Y-36076521D01*
X42282657Y-36124140D01*
X41901704Y-36124140D01*
X41901704Y-35124140D01*
X42235038Y-35124140D01*
X42330276Y-35171760D01*
X42377895Y-35219379D01*
X42425514Y-35314617D01*
X42425514Y-35409855D01*
X42377895Y-35505093D01*
X42330276Y-35552712D01*
X42235038Y-35600331D01*
X41901704Y-35600331D01*
X42806466Y-35124140D02*
X43425514Y-35124140D01*
X43092180Y-35505093D01*
X43235038Y-35505093D01*
X43330276Y-35552712D01*
X43377895Y-35600331D01*
X43425514Y-35695569D01*
X43425514Y-35933664D01*
X43377895Y-36028902D01*
X43330276Y-36076521D01*
X43235038Y-36124140D01*
X42949323Y-36124140D01*
X42854085Y-36076521D01*
X42806466Y-36028902D01*
X42425514Y-44137960D02*
X42330276Y-44090340D01*
X42187419Y-44090340D01*
X42044561Y-44137960D01*
X41949323Y-44233198D01*
X41901704Y-44328436D01*
X41854085Y-44518912D01*
X41854085Y-44661769D01*
X41901704Y-44852245D01*
X41949323Y-44947483D01*
X42044561Y-45042721D01*
X42187419Y-45090340D01*
X42282657Y-45090340D01*
X42425514Y-45042721D01*
X42473133Y-44995102D01*
X42473133Y-44661769D01*
X42282657Y-44661769D01*
X42854085Y-44185579D02*
X42901704Y-44137960D01*
X42996942Y-44090340D01*
X43235038Y-44090340D01*
X43330276Y-44137960D01*
X43377895Y-44185579D01*
X43425514Y-44280817D01*
X43425514Y-44376055D01*
X43377895Y-44518912D01*
X42806466Y-45090340D01*
X43425514Y-45090340D01*
X42362038Y-41975731D02*
X42504895Y-42023350D01*
X42552514Y-42070969D01*
X42600133Y-42166207D01*
X42600133Y-42309064D01*
X42552514Y-42404302D01*
X42504895Y-42451921D01*
X42409657Y-42499540D01*
X42028704Y-42499540D01*
X42028704Y-41499540D01*
X42362038Y-41499540D01*
X42457276Y-41547160D01*
X42504895Y-41594779D01*
X42552514Y-41690017D01*
X42552514Y-41785255D01*
X42504895Y-41880493D01*
X42457276Y-41928112D01*
X42362038Y-41975731D01*
X42028704Y-41975731D01*
X42981085Y-41594779D02*
X43028704Y-41547160D01*
X43123942Y-41499540D01*
X43362038Y-41499540D01*
X43457276Y-41547160D01*
X43504895Y-41594779D01*
X43552514Y-41690017D01*
X43552514Y-41785255D01*
X43504895Y-41928112D01*
X42933466Y-42499540D01*
X43552514Y-42499540D01*
X42055695Y-39984940D02*
X42055695Y-38984940D01*
X42055695Y-39461131D02*
X42627123Y-39461131D01*
X42627123Y-39984940D02*
X42627123Y-38984940D01*
X43055695Y-39937321D02*
X43198552Y-39984940D01*
X43436647Y-39984940D01*
X43531885Y-39937321D01*
X43579504Y-39889702D01*
X43627123Y-39794464D01*
X43627123Y-39699226D01*
X43579504Y-39603988D01*
X43531885Y-39556369D01*
X43436647Y-39508750D01*
X43246171Y-39461131D01*
X43150933Y-39413512D01*
X43103314Y-39365893D01*
X43055695Y-39270655D01*
X43055695Y-39175417D01*
X43103314Y-39080179D01*
X43150933Y-39032560D01*
X43246171Y-38984940D01*
X43484266Y-38984940D01*
X43627123Y-39032560D01*
X41905219Y-36419540D02*
X42238552Y-37419540D01*
X42571885Y-36419540D01*
X42857600Y-37371921D02*
X43000457Y-37419540D01*
X43238552Y-37419540D01*
X43333790Y-37371921D01*
X43381409Y-37324302D01*
X43429028Y-37229064D01*
X43429028Y-37133826D01*
X43381409Y-37038588D01*
X43333790Y-36990969D01*
X43238552Y-36943350D01*
X43048076Y-36895731D01*
X42952838Y-36848112D01*
X42905219Y-36800493D01*
X42857600Y-36705255D01*
X42857600Y-36610017D01*
X42905219Y-36514779D01*
X42952838Y-36467160D01*
X43048076Y-36419540D01*
X43286171Y-36419540D01*
X43429028Y-36467160D01*
X44571885Y-36371921D02*
X43714742Y-37657636D01*
X45429028Y-36467160D02*
X45333790Y-36419540D01*
X45190933Y-36419540D01*
X45048076Y-36467160D01*
X44952838Y-36562398D01*
X44905219Y-36657636D01*
X44857600Y-36848112D01*
X44857600Y-36990969D01*
X44905219Y-37181445D01*
X44952838Y-37276683D01*
X45048076Y-37371921D01*
X45190933Y-37419540D01*
X45286171Y-37419540D01*
X45429028Y-37371921D01*
X45476647Y-37324302D01*
X45476647Y-36990969D01*
X45286171Y-36990969D01*
X46429028Y-37419540D02*
X45857600Y-37419540D01*
X46143314Y-37419540D02*
X46143314Y-36419540D01*
X46048076Y-36562398D01*
X45952838Y-36657636D01*
X45857600Y-36705255D01*
X47143314Y-37800493D02*
X47095695Y-37752874D01*
X47000457Y-37610017D01*
X46952838Y-37514779D01*
X46905219Y-37371921D01*
X46857600Y-37133826D01*
X46857600Y-36943350D01*
X46905219Y-36705255D01*
X46952838Y-36562398D01*
X47000457Y-36467160D01*
X47095695Y-36324302D01*
X47143314Y-36276683D01*
X47571885Y-37419540D02*
X47762361Y-37419540D01*
X47857600Y-37371921D01*
X47905219Y-37324302D01*
X48000457Y-37181445D01*
X48048076Y-36990969D01*
X48048076Y-36610017D01*
X48000457Y-36514779D01*
X47952838Y-36467160D01*
X47857600Y-36419540D01*
X47667123Y-36419540D01*
X47571885Y-36467160D01*
X47524266Y-36514779D01*
X47476647Y-36610017D01*
X47476647Y-36848112D01*
X47524266Y-36943350D01*
X47571885Y-36990969D01*
X47667123Y-37038588D01*
X47857600Y-37038588D01*
X47952838Y-36990969D01*
X48000457Y-36943350D01*
X48048076Y-36848112D01*
X48381409Y-37800493D02*
X48429028Y-37752874D01*
X48524266Y-37610017D01*
X48571885Y-37514779D01*
X48619504Y-37371921D01*
X48667123Y-37133826D01*
X48667123Y-36943350D01*
X48619504Y-36705255D01*
X48571885Y-36562398D01*
X48524266Y-36467160D01*
X48429028Y-36324302D01*
X48381409Y-36276683D01*
X42268295Y-33600140D02*
X41792104Y-33600140D01*
X41744485Y-34076331D01*
X41792104Y-34028712D01*
X41887342Y-33981093D01*
X42125438Y-33981093D01*
X42220676Y-34028712D01*
X42268295Y-34076331D01*
X42315914Y-34171569D01*
X42315914Y-34409664D01*
X42268295Y-34504902D01*
X42220676Y-34552521D01*
X42125438Y-34600140D01*
X41887342Y-34600140D01*
X41792104Y-34552521D01*
X41744485Y-34504902D01*
D11*
X65407400Y-47060160D02*
X64077400Y-47060160D01*
X65407400Y-45730160D02*
X65407400Y-47060160D01*
X65407400Y-44460160D02*
X62747400Y-44460160D01*
X62747400Y-44460160D02*
X62747400Y-36780160D01*
X65407400Y-44460160D02*
X65407400Y-36780160D01*
X65407400Y-36780160D02*
X62747400Y-36780160D01*
X51461660Y-32149540D02*
X51461660Y-34149540D01*
X51461660Y-34149540D02*
X55361660Y-34149540D01*
X51461660Y-32149540D02*
X55361660Y-32149540D01*
X52976100Y-36565080D02*
G75*
G02X52276100Y-35865080I0J700000D01*
G01*
X52276100Y-35265080D02*
G75*
G02X52976100Y-34565080I700000J0D01*
G01*
X54376100Y-34565080D02*
G75*
G02X55076100Y-35265080I0J-700000D01*
G01*
X55076100Y-35865080D02*
G75*
G02X54376100Y-36565080I-700000J0D01*
G01*
X55076100Y-35265080D02*
X55076100Y-35865080D01*
X52976100Y-34565080D02*
X54376100Y-34565080D01*
X52276100Y-35865080D02*
X52276100Y-35265080D01*
X54376100Y-36565080D02*
X52976100Y-36565080D01*
X27723800Y-33166360D02*
X36353800Y-33166360D01*
X27723800Y-33284455D02*
X36353800Y-33284455D01*
X27723800Y-33402550D02*
X36353800Y-33402550D01*
X27723800Y-33520645D02*
X36353800Y-33520645D01*
X27723800Y-33638740D02*
X36353800Y-33638740D01*
X27723800Y-33756835D02*
X36353800Y-33756835D01*
X27723800Y-33874930D02*
X36353800Y-33874930D01*
X27723800Y-33993025D02*
X36353800Y-33993025D01*
X27723800Y-34111120D02*
X36353800Y-34111120D01*
X27723800Y-34229215D02*
X36353800Y-34229215D01*
X27723800Y-34347310D02*
X36353800Y-34347310D01*
X27723800Y-34465405D02*
X36353800Y-34465405D01*
X27723800Y-34583500D02*
X36353800Y-34583500D01*
X27723800Y-34701595D02*
X36353800Y-34701595D01*
X27723800Y-34819690D02*
X36353800Y-34819690D01*
X27723800Y-34937785D02*
X36353800Y-34937785D01*
X27723800Y-35055880D02*
X36353800Y-35055880D01*
X27723800Y-35173975D02*
X36353800Y-35173975D01*
X27723800Y-35292070D02*
X36353800Y-35292070D01*
X27723800Y-35410165D02*
X36353800Y-35410165D01*
X27723800Y-35528260D02*
X36353800Y-35528260D01*
X36353800Y-34016360D02*
X36763800Y-34016360D01*
X38863800Y-34016360D02*
X39243800Y-34016360D01*
X36353800Y-34736360D02*
X36763800Y-34736360D01*
X38863800Y-34736360D02*
X39243800Y-34736360D01*
X36353800Y-36556360D02*
X36763800Y-36556360D01*
X38863800Y-36556360D02*
X39303800Y-36556360D01*
X36353800Y-37276360D02*
X36763800Y-37276360D01*
X38863800Y-37276360D02*
X39303800Y-37276360D01*
X36353800Y-39096360D02*
X36763800Y-39096360D01*
X38863800Y-39096360D02*
X39303800Y-39096360D01*
X36353800Y-39816360D02*
X36763800Y-39816360D01*
X38863800Y-39816360D02*
X39303800Y-39816360D01*
X36353800Y-41636360D02*
X36763800Y-41636360D01*
X38863800Y-41636360D02*
X39303800Y-41636360D01*
X36353800Y-42356360D02*
X36763800Y-42356360D01*
X38863800Y-42356360D02*
X39303800Y-42356360D01*
X36353800Y-44176360D02*
X36763800Y-44176360D01*
X38863800Y-44176360D02*
X39303800Y-44176360D01*
X36353800Y-44896360D02*
X36763800Y-44896360D01*
X38863800Y-44896360D02*
X39303800Y-44896360D01*
X36353800Y-46716360D02*
X36763800Y-46716360D01*
X38863800Y-46716360D02*
X39303800Y-46716360D01*
X36353800Y-47436360D02*
X36763800Y-47436360D01*
X38863800Y-47436360D02*
X39303800Y-47436360D01*
X27723800Y-35646360D02*
X36353800Y-35646360D01*
X27723800Y-38186360D02*
X36353800Y-38186360D01*
X27723800Y-40726360D02*
X36353800Y-40726360D01*
X27723800Y-43266360D02*
X36353800Y-43266360D01*
X27723800Y-45806360D02*
X36353800Y-45806360D01*
X27723800Y-33046360D02*
X36353800Y-33046360D01*
X36353800Y-33046360D02*
X36353800Y-48406360D01*
X27723800Y-48406360D02*
X36353800Y-48406360D01*
X27723800Y-33046360D02*
X27723800Y-48406360D01*
X41463800Y-33046360D02*
X41463800Y-34376360D01*
X40353800Y-33046360D02*
X41463800Y-33046360D01*
D10*
X63339304Y-48747940D02*
X63339304Y-47747940D01*
X63720257Y-47747940D01*
X63815495Y-47795560D01*
X63863114Y-47843179D01*
X63910733Y-47938417D01*
X63910733Y-48081274D01*
X63863114Y-48176512D01*
X63815495Y-48224131D01*
X63720257Y-48271750D01*
X63339304Y-48271750D01*
X64291685Y-47843179D02*
X64339304Y-47795560D01*
X64434542Y-47747940D01*
X64672638Y-47747940D01*
X64767876Y-47795560D01*
X64815495Y-47843179D01*
X64863114Y-47938417D01*
X64863114Y-48033655D01*
X64815495Y-48176512D01*
X64244066Y-48747940D01*
X64863114Y-48747940D01*
X56707364Y-33528260D02*
X56707364Y-32528260D01*
X56945460Y-32528260D01*
X57088317Y-32575880D01*
X57183555Y-32671118D01*
X57231174Y-32766356D01*
X57278793Y-32956832D01*
X57278793Y-33099689D01*
X57231174Y-33290165D01*
X57183555Y-33385403D01*
X57088317Y-33480641D01*
X56945460Y-33528260D01*
X56707364Y-33528260D01*
X58231174Y-33528260D02*
X57659745Y-33528260D01*
X57945460Y-33528260D02*
X57945460Y-32528260D01*
X57850221Y-32671118D01*
X57754983Y-32766356D01*
X57659745Y-32813975D01*
X52804666Y-37105340D02*
X52804666Y-37819626D01*
X52757047Y-37962483D01*
X52661809Y-38057721D01*
X52518952Y-38105340D01*
X52423714Y-38105340D01*
X53280857Y-38105340D02*
X53280857Y-37105340D01*
X53661809Y-37105340D01*
X53757047Y-37152960D01*
X53804666Y-37200579D01*
X53852285Y-37295817D01*
X53852285Y-37438674D01*
X53804666Y-37533912D01*
X53757047Y-37581531D01*
X53661809Y-37629150D01*
X53280857Y-37629150D01*
X54757047Y-37105340D02*
X54280857Y-37105340D01*
X54233238Y-37581531D01*
X54280857Y-37533912D01*
X54376095Y-37486293D01*
X54614190Y-37486293D01*
X54709428Y-37533912D01*
X54757047Y-37581531D01*
X54804666Y-37676769D01*
X54804666Y-37914864D01*
X54757047Y-38010102D01*
X54709428Y-38057721D01*
X54614190Y-38105340D01*
X54376095Y-38105340D01*
X54280857Y-38057721D01*
X54233238Y-38010102D01*
X33965704Y-32058740D02*
X33965704Y-31058740D01*
X34346657Y-31058740D01*
X34441895Y-31106360D01*
X34489514Y-31153979D01*
X34537133Y-31249217D01*
X34537133Y-31392074D01*
X34489514Y-31487312D01*
X34441895Y-31534931D01*
X34346657Y-31582550D01*
X33965704Y-31582550D01*
X35489514Y-32058740D02*
X34918085Y-32058740D01*
X35203800Y-32058740D02*
X35203800Y-31058740D01*
X35108561Y-31201598D01*
X35013323Y-31296836D01*
X34918085Y-31344455D01*
M02*
