G04 #@! TF.GenerationSoftware,KiCad,Pcbnew,(5.1.4)-1*
G04 #@! TF.CreationDate,2020-10-15T04:09:33+01:00*
G04 #@! TF.ProjectId,buffer,62756666-6572-42e6-9b69-6361645f7063,rev?*
G04 #@! TF.SameCoordinates,Original*
G04 #@! TF.FileFunction,Copper,L1,Top*
G04 #@! TF.FilePolarity,Positive*
%FSLAX46Y46*%
G04 Gerber Fmt 4.6, Leading zero omitted, Abs format (unit mm)*
G04 Created by KiCad (PCBNEW (5.1.4)-1) date 2020-10-15 04:09:33*
%MOMM*%
%LPD*%
G04 APERTURE LIST*
%ADD10R,3.500000X2.000000*%
%ADD11O,1.700000X1.700000*%
%ADD12R,1.700000X1.700000*%
%ADD13R,0.900000X1.200000*%
%ADD14C,0.500000*%
%ADD15C,0.100000*%
%ADD16C,0.762000*%
%ADD17C,0.660400*%
%ADD18C,0.762000*%
%ADD19C,0.381000*%
%ADD20C,0.203200*%
%ADD21C,0.635000*%
G04 APERTURE END LIST*
D10*
X85400200Y-35341560D03*
X85400200Y-37881560D03*
X85400200Y-40421560D03*
X85400200Y-42961560D03*
X85400200Y-45501560D03*
X85400200Y-48041560D03*
X85400200Y-30261560D03*
X85400200Y-32801560D03*
D11*
X64077400Y-38110160D03*
X64077400Y-40650160D03*
X64077400Y-43190160D03*
D12*
X64077400Y-45730160D03*
X76033180Y-45504100D03*
X76040800Y-32801560D03*
D13*
X52061660Y-33149540D03*
X55361660Y-33149540D03*
D14*
X54326100Y-35565080D03*
D15*
G36*
X53826100Y-34815080D02*
G01*
X54326100Y-34815080D01*
X54326100Y-34815682D01*
X54350634Y-34815682D01*
X54399465Y-34820492D01*
X54447590Y-34830064D01*
X54494545Y-34844308D01*
X54539878Y-34863085D01*
X54583151Y-34886216D01*
X54623950Y-34913476D01*
X54661879Y-34944604D01*
X54696576Y-34979301D01*
X54727704Y-35017230D01*
X54754964Y-35058029D01*
X54778095Y-35101302D01*
X54796872Y-35146635D01*
X54811116Y-35193590D01*
X54820688Y-35241715D01*
X54825498Y-35290546D01*
X54825498Y-35315080D01*
X54826100Y-35315080D01*
X54826100Y-35815080D01*
X54825498Y-35815080D01*
X54825498Y-35839614D01*
X54820688Y-35888445D01*
X54811116Y-35936570D01*
X54796872Y-35983525D01*
X54778095Y-36028858D01*
X54754964Y-36072131D01*
X54727704Y-36112930D01*
X54696576Y-36150859D01*
X54661879Y-36185556D01*
X54623950Y-36216684D01*
X54583151Y-36243944D01*
X54539878Y-36267075D01*
X54494545Y-36285852D01*
X54447590Y-36300096D01*
X54399465Y-36309668D01*
X54350634Y-36314478D01*
X54326100Y-36314478D01*
X54326100Y-36315080D01*
X53826100Y-36315080D01*
X53826100Y-34815080D01*
X53826100Y-34815080D01*
G37*
D14*
X53026100Y-35565080D03*
D15*
G36*
X53026100Y-36314478D02*
G01*
X53001566Y-36314478D01*
X52952735Y-36309668D01*
X52904610Y-36300096D01*
X52857655Y-36285852D01*
X52812322Y-36267075D01*
X52769049Y-36243944D01*
X52728250Y-36216684D01*
X52690321Y-36185556D01*
X52655624Y-36150859D01*
X52624496Y-36112930D01*
X52597236Y-36072131D01*
X52574105Y-36028858D01*
X52555328Y-35983525D01*
X52541084Y-35936570D01*
X52531512Y-35888445D01*
X52526702Y-35839614D01*
X52526702Y-35815080D01*
X52526100Y-35815080D01*
X52526100Y-35315080D01*
X52526702Y-35315080D01*
X52526702Y-35290546D01*
X52531512Y-35241715D01*
X52541084Y-35193590D01*
X52555328Y-35146635D01*
X52574105Y-35101302D01*
X52597236Y-35058029D01*
X52624496Y-35017230D01*
X52655624Y-34979301D01*
X52690321Y-34944604D01*
X52728250Y-34913476D01*
X52769049Y-34886216D01*
X52812322Y-34863085D01*
X52857655Y-34844308D01*
X52904610Y-34830064D01*
X52952735Y-34820492D01*
X53001566Y-34815682D01*
X53026100Y-34815682D01*
X53026100Y-34815080D01*
X53526100Y-34815080D01*
X53526100Y-36315080D01*
X53026100Y-36315080D01*
X53026100Y-36314478D01*
X53026100Y-36314478D01*
G37*
D12*
X40353800Y-34376360D03*
D11*
X37813800Y-34376360D03*
X40353800Y-36916360D03*
X37813800Y-36916360D03*
X40353800Y-39456360D03*
X37813800Y-39456360D03*
X40353800Y-41996360D03*
X37813800Y-41996360D03*
X40353800Y-44536360D03*
X37813800Y-44536360D03*
X40353800Y-47076360D03*
X37813800Y-47076360D03*
D16*
X47016220Y-49232820D03*
X44463520Y-49230280D03*
X45738600Y-49230280D03*
X68395398Y-43215561D03*
X68395400Y-46517562D03*
D17*
X67201600Y-41843956D03*
X67176200Y-45298360D03*
X67963600Y-38922960D03*
X67963600Y-41285160D03*
X72434000Y-42631360D03*
D18*
X47013680Y-49230280D02*
X47016220Y-49232820D01*
X35550660Y-48039020D02*
X36741920Y-49230280D01*
X35550660Y-45597419D02*
X35550660Y-48039020D01*
X37813800Y-44536360D02*
X36611719Y-44536360D01*
X36611719Y-44536360D02*
X35550660Y-45597419D01*
X36741920Y-49230280D02*
X44463520Y-49230280D01*
X44463520Y-49230280D02*
X45738600Y-49230280D01*
X45738600Y-49230280D02*
X47013680Y-49230280D01*
D19*
X68395398Y-46517560D02*
X68395400Y-46517562D01*
X68395398Y-43215561D02*
X68395398Y-46517560D01*
D20*
X83762400Y-35341560D02*
X85400200Y-35341560D01*
X55924000Y-39456360D02*
X59353000Y-36027360D01*
X40353800Y-39456360D02*
X55924000Y-39456360D01*
X59353000Y-36027360D02*
X73332449Y-36027360D01*
X73332449Y-36027360D02*
X74602460Y-37297371D01*
X74602460Y-37297371D02*
X81806589Y-37297371D01*
X81806589Y-37297371D02*
X83762400Y-35341560D01*
X83914800Y-32801560D02*
X85400200Y-32801560D01*
X83025800Y-33690560D02*
X83914800Y-32801560D01*
X83025800Y-35408840D02*
X83025800Y-33690560D01*
X56101800Y-36916360D02*
X57575000Y-35443160D01*
X40353800Y-36916360D02*
X56101800Y-36916360D01*
X57575000Y-35443160D02*
X73323000Y-35443160D01*
X73323000Y-35443160D02*
X74770800Y-36890960D01*
X74770800Y-36890960D02*
X81543680Y-36890960D01*
X81543680Y-36890960D02*
X83025800Y-35408840D01*
D18*
X40353800Y-34376360D02*
X44148560Y-34376360D01*
X45375380Y-33149540D02*
X52061660Y-33149540D01*
X44148560Y-34376360D02*
X45375380Y-33149540D01*
X52061660Y-34600640D02*
X53026100Y-35565080D01*
X52061660Y-33149540D02*
X52061660Y-34600640D01*
X56573660Y-33149540D02*
X57988440Y-34564320D01*
X55361660Y-33149540D02*
X56573660Y-33149540D01*
X57988440Y-34564320D02*
X74521880Y-34564320D01*
X55361660Y-34529520D02*
X54326100Y-35565080D01*
X55361660Y-33149540D02*
X55361660Y-34529520D01*
D21*
X83015200Y-30261560D02*
X85400200Y-30261560D01*
X82365400Y-30911360D02*
X83015200Y-30261560D01*
X82365400Y-35189160D02*
X82365400Y-30911360D01*
X81578000Y-35976560D02*
X82365400Y-35189160D01*
X74521880Y-34564320D02*
X75934120Y-35976560D01*
X75934120Y-35976560D02*
X81578000Y-35976560D01*
D20*
X83432200Y-45501560D02*
X85400200Y-45501560D01*
X82924200Y-44993560D02*
X83432200Y-45501560D01*
X82924200Y-43190160D02*
X82924200Y-44993560D01*
X64077400Y-46783360D02*
X64853000Y-47558960D01*
X64077400Y-45730160D02*
X64077400Y-46783360D01*
X64853000Y-47558960D02*
X68776400Y-47558960D01*
X68776400Y-47558960D02*
X74313600Y-42021760D01*
X74313600Y-42021760D02*
X81755800Y-42021760D01*
X81755800Y-42021760D02*
X82924200Y-43190160D01*
X67176200Y-45298360D02*
X67176200Y-41869356D01*
X67176200Y-41869356D02*
X67201600Y-41843956D01*
X83447000Y-37881560D02*
X85400200Y-37881560D01*
X72418050Y-37881560D02*
X83447000Y-37881560D01*
X71224250Y-36687760D02*
X72418050Y-37881560D01*
X61131000Y-36687760D02*
X71224250Y-36687760D01*
X40353800Y-41996360D02*
X55822400Y-41996360D01*
X55822400Y-41996360D02*
X61131000Y-36687760D01*
X41555881Y-44536360D02*
X40353800Y-44536360D01*
X56203400Y-44536360D02*
X41555881Y-44536360D01*
X72561000Y-40421560D02*
X71925976Y-39786536D01*
X85400200Y-40421560D02*
X72561000Y-40421560D01*
X71925976Y-39786536D02*
X66795176Y-39786536D01*
X66795176Y-39786536D02*
X66388800Y-39380160D01*
X66388800Y-39380160D02*
X61359600Y-39380160D01*
X61359600Y-39380160D02*
X56203400Y-44536360D01*
X83447000Y-42961560D02*
X85400200Y-42961560D01*
X81592800Y-41107360D02*
X83447000Y-42961560D01*
X71392600Y-41107360D02*
X81592800Y-41107360D01*
X56432000Y-47076360D02*
X61588200Y-41920160D01*
X40353800Y-47076360D02*
X56432000Y-47076360D01*
X61588200Y-41920160D02*
X65001245Y-41920160D01*
X65001245Y-41920160D02*
X66525245Y-40396160D01*
X66525245Y-40396160D02*
X70681400Y-40396160D01*
X70681400Y-40396160D02*
X71392600Y-41107360D01*
X82416200Y-47406560D02*
X83051200Y-48041560D01*
X82416200Y-43291760D02*
X82416200Y-47406560D01*
X74847000Y-42656760D02*
X81781200Y-42656760D01*
X81781200Y-42656760D02*
X82416200Y-43291760D01*
X62875319Y-43190160D02*
X62020000Y-44045479D01*
X64077400Y-43190160D02*
X62875319Y-43190160D01*
X83051200Y-48041560D02*
X85400200Y-48041560D01*
X62020000Y-44045479D02*
X62020000Y-46974760D01*
X62020000Y-46974760D02*
X63315400Y-48270160D01*
X63315400Y-48270160D02*
X69233600Y-48270160D01*
X69233600Y-48270160D02*
X74847000Y-42656760D01*
X64077400Y-38110160D02*
X67150800Y-38110160D01*
X67150800Y-38110160D02*
X67963600Y-38922960D01*
X71967027Y-42631360D02*
X72434000Y-42631360D01*
X69309800Y-42631360D02*
X71967027Y-42631360D01*
X67963600Y-41285160D02*
X69309800Y-42631360D01*
M02*
