M48
; DRILL file {KiCad (5.1.4)-1} date 15/10/2020 04:09:35
; FORMAT={-:-/ absolute / inch / decimal}
; #@! TF.CreationDate,2020-10-15T04:09:35+01:00
; #@! TF.GenerationSoftware,Kicad,Pcbnew,(5.1.4)-1
FMAT,2
INCH
T1C0.0120
T2C0.0150
T3C0.0394
%
G90
G05
T1
X2.6447Y-1.7834
X2.6457Y-1.6474
X2.6757Y-1.5324
X2.6757Y-1.6254
X2.8517Y-1.6784
T2
X1.7505Y-1.9382
X1.8007Y-1.9382
X1.851Y-1.9383
X2.6927Y-1.7014
X2.6927Y-1.8314
T3
X2.9937Y-1.2914
X2.9934Y-1.7915
X2.5227Y-1.5004
X2.5227Y-1.6004
X2.5227Y-1.7004
X2.5227Y-1.8004
X1.4887Y-1.3534
X1.4887Y-1.4534
X1.4887Y-1.5534
X1.4887Y-1.6534
X1.4887Y-1.7534
X1.4887Y-1.8534
X1.5887Y-1.3534
X1.5887Y-1.4534
X1.5887Y-1.5534
X1.5887Y-1.6534
X1.5887Y-1.7534
X1.5887Y-1.8534
T0
M30
