G04 #@! TF.GenerationSoftware,KiCad,Pcbnew,(5.1.4)-1*
G04 #@! TF.CreationDate,2021-01-17T04:38:22+00:00*
G04 #@! TF.ProjectId,atari-pickup,61746172-692d-4706-9963-6b75702e6b69,rev?*
G04 #@! TF.SameCoordinates,Original*
G04 #@! TF.FileFunction,Copper,L2,Bot*
G04 #@! TF.FilePolarity,Positive*
%FSLAX46Y46*%
G04 Gerber Fmt 4.6, Leading zero omitted, Abs format (unit mm)*
G04 Created by KiCad (PCBNEW (5.1.4)-1) date 2021-01-17 04:38:22*
%MOMM*%
%LPD*%
G04 APERTURE LIST*
%ADD10C,1.854200*%
%ADD11R,1.700000X1.700000*%
%ADD12O,1.700000X1.700000*%
%ADD13C,0.800000*%
%ADD14C,0.400000*%
%ADD15C,0.250000*%
G04 APERTURE END LIST*
D10*
X149860000Y-55880000D03*
X149860000Y-58420000D03*
X149860000Y-60960000D03*
X149860000Y-63500000D03*
X149860000Y-66040000D03*
X149860000Y-68580000D03*
X149860000Y-71120000D03*
X149860000Y-73660000D03*
X149860000Y-76200000D03*
X149860000Y-78740000D03*
X149860000Y-81280000D03*
X149860000Y-83820000D03*
X149860000Y-86360000D03*
X149860000Y-88900000D03*
X149860000Y-91440000D03*
X149860000Y-93980000D03*
X149860000Y-96520000D03*
X149860000Y-99060000D03*
X149860000Y-101600000D03*
X149860000Y-104140000D03*
X134620000Y-104140000D03*
X134620000Y-101600000D03*
X134620000Y-99060000D03*
X134620000Y-96520000D03*
X134620000Y-93980000D03*
X134620000Y-91440000D03*
X134620000Y-88900000D03*
X134620000Y-86360000D03*
X134620000Y-83820000D03*
X134620000Y-81280000D03*
X134620000Y-76200000D03*
X134620000Y-73660000D03*
X134620000Y-71120000D03*
X134620000Y-68580000D03*
X134620000Y-66040000D03*
X134620000Y-63500000D03*
X134620000Y-60960000D03*
X134620000Y-58420000D03*
X134620000Y-55880000D03*
X134620000Y-78740000D03*
D11*
X131368800Y-73583800D03*
D12*
X128828800Y-73583800D03*
X131368800Y-71043800D03*
X128828800Y-71043800D03*
X131368800Y-68503800D03*
X128828800Y-68503800D03*
X131368800Y-65963800D03*
X128828800Y-65963800D03*
X131368800Y-63423800D03*
X128828800Y-63423800D03*
X131368800Y-60883800D03*
X128828800Y-60883800D03*
X131368800Y-58343800D03*
X128828800Y-58343800D03*
X131368800Y-55803800D03*
X128828800Y-55803800D03*
D11*
X128854200Y-80594200D03*
D12*
X128854200Y-78054200D03*
D13*
X140726160Y-82646520D03*
X131902200Y-79806800D03*
X138430000Y-70251320D03*
X142478760Y-82565240D03*
D14*
X132791200Y-102311200D02*
X134620000Y-104140000D01*
X132791200Y-82753200D02*
X132791200Y-102311200D01*
X130118799Y-67213801D02*
X128239199Y-67213801D01*
X131368800Y-65963800D02*
X130118799Y-67213801D01*
X128239199Y-67213801D02*
X126746000Y-68707000D01*
X126746000Y-68707000D02*
X126746000Y-81534000D01*
X126746000Y-81534000D02*
X127508000Y-82296000D01*
X132334000Y-82296000D02*
X132791200Y-82753200D01*
X127508000Y-82296000D02*
X132334000Y-82296000D01*
D15*
X141899640Y-83820000D02*
X149860000Y-83820000D01*
X140726160Y-82646520D02*
X141899640Y-83820000D01*
X131902200Y-79241115D02*
X131902200Y-79806800D01*
X131902200Y-78987115D02*
X131902200Y-79241115D01*
X127508000Y-74592915D02*
X131902200Y-78987115D01*
X128828800Y-68503800D02*
X127508000Y-69824600D01*
X127508000Y-69824600D02*
X127508000Y-74592915D01*
X142478760Y-74300080D02*
X142478760Y-81999555D01*
X142478760Y-81999555D02*
X142478760Y-82565240D01*
X138430000Y-70251320D02*
X142478760Y-74300080D01*
G36*
X151767000Y-106302231D02*
G01*
X133408349Y-106484000D01*
X132530000Y-106484000D01*
X132530000Y-82826104D01*
X132532177Y-82804000D01*
X132523489Y-82715785D01*
X132497757Y-82630959D01*
X132455971Y-82552784D01*
X132399737Y-82484263D01*
X132331216Y-82428029D01*
X132253041Y-82386243D01*
X132168215Y-82360511D01*
X132102105Y-82354000D01*
X132080000Y-82351823D01*
X132057896Y-82354000D01*
X126434000Y-82354000D01*
X126434000Y-79744200D01*
X127627386Y-79744200D01*
X127627386Y-81444200D01*
X127634626Y-81517713D01*
X127656069Y-81588400D01*
X127690891Y-81653547D01*
X127737752Y-81710648D01*
X127794853Y-81757509D01*
X127860000Y-81792331D01*
X127930687Y-81813774D01*
X128004200Y-81821014D01*
X129704200Y-81821014D01*
X129777713Y-81813774D01*
X129848400Y-81792331D01*
X129913547Y-81757509D01*
X129970648Y-81710648D01*
X130017509Y-81653547D01*
X130052331Y-81588400D01*
X130073774Y-81517713D01*
X130081014Y-81444200D01*
X130081014Y-79744200D01*
X130073774Y-79670687D01*
X130052331Y-79600000D01*
X130017509Y-79534853D01*
X129970648Y-79477752D01*
X129913547Y-79430891D01*
X129848400Y-79396069D01*
X129777713Y-79374626D01*
X129704200Y-79367386D01*
X128004200Y-79367386D01*
X127930687Y-79374626D01*
X127860000Y-79396069D01*
X127794853Y-79430891D01*
X127737752Y-79477752D01*
X127690891Y-79534853D01*
X127656069Y-79600000D01*
X127634626Y-79670687D01*
X127627386Y-79744200D01*
X126434000Y-79744200D01*
X126434000Y-69824600D01*
X127005581Y-69824600D01*
X127008000Y-69849160D01*
X127008001Y-74568345D01*
X127005581Y-74592915D01*
X127015235Y-74690932D01*
X127042840Y-74781931D01*
X127043826Y-74785182D01*
X127090255Y-74872044D01*
X127152737Y-74948179D01*
X127171819Y-74963839D01*
X129050595Y-76842616D01*
X128914378Y-76829200D01*
X128794022Y-76829200D01*
X128614058Y-76846925D01*
X128383145Y-76916972D01*
X128170334Y-77030722D01*
X127983803Y-77183803D01*
X127830722Y-77370334D01*
X127716972Y-77583145D01*
X127646925Y-77814058D01*
X127623273Y-78054200D01*
X127646925Y-78294342D01*
X127716972Y-78525255D01*
X127830722Y-78738066D01*
X127983803Y-78924597D01*
X128170334Y-79077678D01*
X128383145Y-79191428D01*
X128614058Y-79261475D01*
X128794022Y-79279200D01*
X128914378Y-79279200D01*
X129094342Y-79261475D01*
X129325255Y-79191428D01*
X129538066Y-79077678D01*
X129724597Y-78924597D01*
X129877678Y-78738066D01*
X129991428Y-78525255D01*
X130061475Y-78294342D01*
X130085127Y-78054200D01*
X130065784Y-77857805D01*
X131402200Y-79194222D01*
X131402200Y-79210784D01*
X131300218Y-79312766D01*
X131215404Y-79439700D01*
X131156983Y-79580741D01*
X131127200Y-79730469D01*
X131127200Y-79883131D01*
X131156983Y-80032859D01*
X131215404Y-80173900D01*
X131300218Y-80300834D01*
X131408166Y-80408782D01*
X131535100Y-80493596D01*
X131676141Y-80552017D01*
X131825869Y-80581800D01*
X131978531Y-80581800D01*
X132128259Y-80552017D01*
X132269300Y-80493596D01*
X132396234Y-80408782D01*
X132504182Y-80300834D01*
X132588996Y-80173900D01*
X132647417Y-80032859D01*
X132677200Y-79883131D01*
X132677200Y-79730469D01*
X132647417Y-79580741D01*
X132588996Y-79439700D01*
X132504182Y-79312766D01*
X132402200Y-79210784D01*
X132402200Y-79011672D01*
X132404619Y-78987114D01*
X132398461Y-78924597D01*
X132394965Y-78889098D01*
X132366375Y-78794848D01*
X132319946Y-78707986D01*
X132257464Y-78631851D01*
X132238387Y-78616195D01*
X128326537Y-74704347D01*
X128357745Y-74721028D01*
X128588658Y-74791075D01*
X128768622Y-74808800D01*
X128888978Y-74808800D01*
X129068942Y-74791075D01*
X129299855Y-74721028D01*
X129512666Y-74607278D01*
X129699197Y-74454197D01*
X129852278Y-74267666D01*
X129966028Y-74054855D01*
X130036075Y-73823942D01*
X130059727Y-73583800D01*
X130036075Y-73343658D01*
X129966028Y-73112745D01*
X129852278Y-72899934D01*
X129715937Y-72733800D01*
X130141986Y-72733800D01*
X130141986Y-74433800D01*
X130149226Y-74507313D01*
X130170669Y-74578000D01*
X130205491Y-74643147D01*
X130252352Y-74700248D01*
X130309453Y-74747109D01*
X130374600Y-74781931D01*
X130445287Y-74803374D01*
X130518800Y-74810614D01*
X132218800Y-74810614D01*
X132292313Y-74803374D01*
X132363000Y-74781931D01*
X132428147Y-74747109D01*
X132485248Y-74700248D01*
X132532109Y-74643147D01*
X132566931Y-74578000D01*
X132588374Y-74507313D01*
X132595614Y-74433800D01*
X132595614Y-72733800D01*
X132588374Y-72660287D01*
X132566931Y-72589600D01*
X132532109Y-72524453D01*
X132485248Y-72467352D01*
X132428147Y-72420491D01*
X132363000Y-72385669D01*
X132292313Y-72364226D01*
X132218800Y-72356986D01*
X130518800Y-72356986D01*
X130445287Y-72364226D01*
X130374600Y-72385669D01*
X130309453Y-72420491D01*
X130252352Y-72467352D01*
X130205491Y-72524453D01*
X130170669Y-72589600D01*
X130149226Y-72660287D01*
X130141986Y-72733800D01*
X129715937Y-72733800D01*
X129699197Y-72713403D01*
X129512666Y-72560322D01*
X129299855Y-72446572D01*
X129068942Y-72376525D01*
X128888978Y-72358800D01*
X128768622Y-72358800D01*
X128588658Y-72376525D01*
X128357745Y-72446572D01*
X128144934Y-72560322D01*
X128008000Y-72672700D01*
X128008000Y-71954900D01*
X128144934Y-72067278D01*
X128357745Y-72181028D01*
X128588658Y-72251075D01*
X128768622Y-72268800D01*
X128888978Y-72268800D01*
X129068942Y-72251075D01*
X129299855Y-72181028D01*
X129512666Y-72067278D01*
X129699197Y-71914197D01*
X129852278Y-71727666D01*
X129966028Y-71514855D01*
X130036075Y-71283942D01*
X130059727Y-71043800D01*
X130137873Y-71043800D01*
X130161525Y-71283942D01*
X130231572Y-71514855D01*
X130345322Y-71727666D01*
X130498403Y-71914197D01*
X130684934Y-72067278D01*
X130897745Y-72181028D01*
X131128658Y-72251075D01*
X131308622Y-72268800D01*
X131428978Y-72268800D01*
X131608942Y-72251075D01*
X131839855Y-72181028D01*
X132052666Y-72067278D01*
X132239197Y-71914197D01*
X132392278Y-71727666D01*
X132506028Y-71514855D01*
X132576075Y-71283942D01*
X132599727Y-71043800D01*
X132576075Y-70803658D01*
X132506028Y-70572745D01*
X132392278Y-70359934D01*
X132239197Y-70173403D01*
X132052666Y-70020322D01*
X131839855Y-69906572D01*
X131608942Y-69836525D01*
X131428978Y-69818800D01*
X131308622Y-69818800D01*
X131128658Y-69836525D01*
X130897745Y-69906572D01*
X130684934Y-70020322D01*
X130498403Y-70173403D01*
X130345322Y-70359934D01*
X130231572Y-70572745D01*
X130161525Y-70803658D01*
X130137873Y-71043800D01*
X130059727Y-71043800D01*
X130036075Y-70803658D01*
X129966028Y-70572745D01*
X129852278Y-70359934D01*
X129699197Y-70173403D01*
X129512666Y-70020322D01*
X129299855Y-69906572D01*
X129068942Y-69836525D01*
X128888978Y-69818800D01*
X128768622Y-69818800D01*
X128588658Y-69836525D01*
X128357745Y-69906572D01*
X128144934Y-70020322D01*
X128008000Y-70132700D01*
X128008000Y-70031705D01*
X128389151Y-69650555D01*
X128588658Y-69711075D01*
X128768622Y-69728800D01*
X128888978Y-69728800D01*
X129068942Y-69711075D01*
X129299855Y-69641028D01*
X129512666Y-69527278D01*
X129699197Y-69374197D01*
X129852278Y-69187666D01*
X129966028Y-68974855D01*
X130036075Y-68743942D01*
X130059727Y-68503800D01*
X130137873Y-68503800D01*
X130161525Y-68743942D01*
X130231572Y-68974855D01*
X130345322Y-69187666D01*
X130498403Y-69374197D01*
X130684934Y-69527278D01*
X130897745Y-69641028D01*
X131128658Y-69711075D01*
X131308622Y-69728800D01*
X131428978Y-69728800D01*
X131608942Y-69711075D01*
X131839855Y-69641028D01*
X132052666Y-69527278D01*
X132239197Y-69374197D01*
X132392278Y-69187666D01*
X132506028Y-68974855D01*
X132576075Y-68743942D01*
X132599727Y-68503800D01*
X132576075Y-68263658D01*
X132506028Y-68032745D01*
X132392278Y-67819934D01*
X132239197Y-67633403D01*
X132052666Y-67480322D01*
X131839855Y-67366572D01*
X131608942Y-67296525D01*
X131428978Y-67278800D01*
X131308622Y-67278800D01*
X131128658Y-67296525D01*
X130897745Y-67366572D01*
X130684934Y-67480322D01*
X130498403Y-67633403D01*
X130345322Y-67819934D01*
X130231572Y-68032745D01*
X130161525Y-68263658D01*
X130137873Y-68503800D01*
X130059727Y-68503800D01*
X130036075Y-68263658D01*
X129966028Y-68032745D01*
X129852278Y-67819934D01*
X129699197Y-67633403D01*
X129512666Y-67480322D01*
X129299855Y-67366572D01*
X129068942Y-67296525D01*
X128888978Y-67278800D01*
X128768622Y-67278800D01*
X128588658Y-67296525D01*
X128357745Y-67366572D01*
X128144934Y-67480322D01*
X127958403Y-67633403D01*
X127805322Y-67819934D01*
X127691572Y-68032745D01*
X127621525Y-68263658D01*
X127597873Y-68503800D01*
X127621525Y-68743942D01*
X127682045Y-68943449D01*
X127171824Y-69453671D01*
X127152736Y-69469336D01*
X127090254Y-69545471D01*
X127043825Y-69632334D01*
X127041188Y-69641028D01*
X127015235Y-69726583D01*
X127005581Y-69824600D01*
X126434000Y-69824600D01*
X126434000Y-65963800D01*
X127597873Y-65963800D01*
X127621525Y-66203942D01*
X127691572Y-66434855D01*
X127805322Y-66647666D01*
X127958403Y-66834197D01*
X128144934Y-66987278D01*
X128357745Y-67101028D01*
X128588658Y-67171075D01*
X128768622Y-67188800D01*
X128888978Y-67188800D01*
X129068942Y-67171075D01*
X129299855Y-67101028D01*
X129512666Y-66987278D01*
X129699197Y-66834197D01*
X129852278Y-66647666D01*
X129966028Y-66434855D01*
X130036075Y-66203942D01*
X130059727Y-65963800D01*
X130036075Y-65723658D01*
X129966028Y-65492745D01*
X129852278Y-65279934D01*
X129699197Y-65093403D01*
X129512666Y-64940322D01*
X129299855Y-64826572D01*
X129068942Y-64756525D01*
X128888978Y-64738800D01*
X128768622Y-64738800D01*
X128588658Y-64756525D01*
X128357745Y-64826572D01*
X128144934Y-64940322D01*
X127958403Y-65093403D01*
X127805322Y-65279934D01*
X127691572Y-65492745D01*
X127621525Y-65723658D01*
X127597873Y-65963800D01*
X126434000Y-65963800D01*
X126434000Y-63423800D01*
X127597873Y-63423800D01*
X127621525Y-63663942D01*
X127691572Y-63894855D01*
X127805322Y-64107666D01*
X127958403Y-64294197D01*
X128144934Y-64447278D01*
X128357745Y-64561028D01*
X128588658Y-64631075D01*
X128768622Y-64648800D01*
X128888978Y-64648800D01*
X129068942Y-64631075D01*
X129299855Y-64561028D01*
X129512666Y-64447278D01*
X129699197Y-64294197D01*
X129852278Y-64107666D01*
X129966028Y-63894855D01*
X130036075Y-63663942D01*
X130059727Y-63423800D01*
X130137873Y-63423800D01*
X130161525Y-63663942D01*
X130231572Y-63894855D01*
X130345322Y-64107666D01*
X130498403Y-64294197D01*
X130684934Y-64447278D01*
X130897745Y-64561028D01*
X131128658Y-64631075D01*
X131308622Y-64648800D01*
X131428978Y-64648800D01*
X131608942Y-64631075D01*
X131839855Y-64561028D01*
X132052666Y-64447278D01*
X132239197Y-64294197D01*
X132392278Y-64107666D01*
X132506028Y-63894855D01*
X132576075Y-63663942D01*
X132599727Y-63423800D01*
X132576075Y-63183658D01*
X132506028Y-62952745D01*
X132392278Y-62739934D01*
X132239197Y-62553403D01*
X132052666Y-62400322D01*
X131839855Y-62286572D01*
X131608942Y-62216525D01*
X131428978Y-62198800D01*
X131308622Y-62198800D01*
X131128658Y-62216525D01*
X130897745Y-62286572D01*
X130684934Y-62400322D01*
X130498403Y-62553403D01*
X130345322Y-62739934D01*
X130231572Y-62952745D01*
X130161525Y-63183658D01*
X130137873Y-63423800D01*
X130059727Y-63423800D01*
X130036075Y-63183658D01*
X129966028Y-62952745D01*
X129852278Y-62739934D01*
X129699197Y-62553403D01*
X129512666Y-62400322D01*
X129299855Y-62286572D01*
X129068942Y-62216525D01*
X128888978Y-62198800D01*
X128768622Y-62198800D01*
X128588658Y-62216525D01*
X128357745Y-62286572D01*
X128144934Y-62400322D01*
X127958403Y-62553403D01*
X127805322Y-62739934D01*
X127691572Y-62952745D01*
X127621525Y-63183658D01*
X127597873Y-63423800D01*
X126434000Y-63423800D01*
X126434000Y-60883800D01*
X127597873Y-60883800D01*
X127621525Y-61123942D01*
X127691572Y-61354855D01*
X127805322Y-61567666D01*
X127958403Y-61754197D01*
X128144934Y-61907278D01*
X128357745Y-62021028D01*
X128588658Y-62091075D01*
X128768622Y-62108800D01*
X128888978Y-62108800D01*
X129068942Y-62091075D01*
X129299855Y-62021028D01*
X129512666Y-61907278D01*
X129699197Y-61754197D01*
X129852278Y-61567666D01*
X129966028Y-61354855D01*
X130036075Y-61123942D01*
X130059727Y-60883800D01*
X130137873Y-60883800D01*
X130161525Y-61123942D01*
X130231572Y-61354855D01*
X130345322Y-61567666D01*
X130498403Y-61754197D01*
X130684934Y-61907278D01*
X130897745Y-62021028D01*
X131128658Y-62091075D01*
X131308622Y-62108800D01*
X131428978Y-62108800D01*
X131608942Y-62091075D01*
X131839855Y-62021028D01*
X132052666Y-61907278D01*
X132239197Y-61754197D01*
X132392278Y-61567666D01*
X132506028Y-61354855D01*
X132576075Y-61123942D01*
X132599727Y-60883800D01*
X132576075Y-60643658D01*
X132506028Y-60412745D01*
X132392278Y-60199934D01*
X132239197Y-60013403D01*
X132052666Y-59860322D01*
X131839855Y-59746572D01*
X131608942Y-59676525D01*
X131428978Y-59658800D01*
X131308622Y-59658800D01*
X131128658Y-59676525D01*
X130897745Y-59746572D01*
X130684934Y-59860322D01*
X130498403Y-60013403D01*
X130345322Y-60199934D01*
X130231572Y-60412745D01*
X130161525Y-60643658D01*
X130137873Y-60883800D01*
X130059727Y-60883800D01*
X130036075Y-60643658D01*
X129966028Y-60412745D01*
X129852278Y-60199934D01*
X129699197Y-60013403D01*
X129512666Y-59860322D01*
X129299855Y-59746572D01*
X129068942Y-59676525D01*
X128888978Y-59658800D01*
X128768622Y-59658800D01*
X128588658Y-59676525D01*
X128357745Y-59746572D01*
X128144934Y-59860322D01*
X127958403Y-60013403D01*
X127805322Y-60199934D01*
X127691572Y-60412745D01*
X127621525Y-60643658D01*
X127597873Y-60883800D01*
X126434000Y-60883800D01*
X126434000Y-58343800D01*
X127597873Y-58343800D01*
X127621525Y-58583942D01*
X127691572Y-58814855D01*
X127805322Y-59027666D01*
X127958403Y-59214197D01*
X128144934Y-59367278D01*
X128357745Y-59481028D01*
X128588658Y-59551075D01*
X128768622Y-59568800D01*
X128888978Y-59568800D01*
X129068942Y-59551075D01*
X129299855Y-59481028D01*
X129512666Y-59367278D01*
X129699197Y-59214197D01*
X129852278Y-59027666D01*
X129966028Y-58814855D01*
X130036075Y-58583942D01*
X130059727Y-58343800D01*
X130137873Y-58343800D01*
X130161525Y-58583942D01*
X130231572Y-58814855D01*
X130345322Y-59027666D01*
X130498403Y-59214197D01*
X130684934Y-59367278D01*
X130897745Y-59481028D01*
X131128658Y-59551075D01*
X131308622Y-59568800D01*
X131428978Y-59568800D01*
X131608942Y-59551075D01*
X131839855Y-59481028D01*
X132052666Y-59367278D01*
X132239197Y-59214197D01*
X132392278Y-59027666D01*
X132506028Y-58814855D01*
X132576075Y-58583942D01*
X132599727Y-58343800D01*
X132576075Y-58103658D01*
X132506028Y-57872745D01*
X132392278Y-57659934D01*
X132239197Y-57473403D01*
X132052666Y-57320322D01*
X131839855Y-57206572D01*
X131608942Y-57136525D01*
X131428978Y-57118800D01*
X131308622Y-57118800D01*
X131128658Y-57136525D01*
X130897745Y-57206572D01*
X130684934Y-57320322D01*
X130498403Y-57473403D01*
X130345322Y-57659934D01*
X130231572Y-57872745D01*
X130161525Y-58103658D01*
X130137873Y-58343800D01*
X130059727Y-58343800D01*
X130036075Y-58103658D01*
X129966028Y-57872745D01*
X129852278Y-57659934D01*
X129699197Y-57473403D01*
X129512666Y-57320322D01*
X129299855Y-57206572D01*
X129068942Y-57136525D01*
X128888978Y-57118800D01*
X128768622Y-57118800D01*
X128588658Y-57136525D01*
X128357745Y-57206572D01*
X128144934Y-57320322D01*
X127958403Y-57473403D01*
X127805322Y-57659934D01*
X127691572Y-57872745D01*
X127621525Y-58103658D01*
X127597873Y-58343800D01*
X126434000Y-58343800D01*
X126434000Y-55803800D01*
X127597873Y-55803800D01*
X127621525Y-56043942D01*
X127691572Y-56274855D01*
X127805322Y-56487666D01*
X127958403Y-56674197D01*
X128144934Y-56827278D01*
X128357745Y-56941028D01*
X128588658Y-57011075D01*
X128768622Y-57028800D01*
X128888978Y-57028800D01*
X129068942Y-57011075D01*
X129299855Y-56941028D01*
X129512666Y-56827278D01*
X129699197Y-56674197D01*
X129852278Y-56487666D01*
X129966028Y-56274855D01*
X130036075Y-56043942D01*
X130059727Y-55803800D01*
X130137873Y-55803800D01*
X130161525Y-56043942D01*
X130231572Y-56274855D01*
X130345322Y-56487666D01*
X130498403Y-56674197D01*
X130684934Y-56827278D01*
X130897745Y-56941028D01*
X131128658Y-57011075D01*
X131308622Y-57028800D01*
X131428978Y-57028800D01*
X131608942Y-57011075D01*
X131839855Y-56941028D01*
X132052666Y-56827278D01*
X132239197Y-56674197D01*
X132392278Y-56487666D01*
X132506028Y-56274855D01*
X132576075Y-56043942D01*
X132599727Y-55803800D01*
X132594601Y-55751754D01*
X133317900Y-55751754D01*
X133317900Y-56008246D01*
X133367939Y-56259808D01*
X133466094Y-56496775D01*
X133608593Y-56710040D01*
X133789960Y-56891407D01*
X134003225Y-57033906D01*
X134240192Y-57132061D01*
X134330377Y-57150000D01*
X134240192Y-57167939D01*
X134003225Y-57266094D01*
X133789960Y-57408593D01*
X133608593Y-57589960D01*
X133466094Y-57803225D01*
X133367939Y-58040192D01*
X133317900Y-58291754D01*
X133317900Y-58548246D01*
X133367939Y-58799808D01*
X133466094Y-59036775D01*
X133608593Y-59250040D01*
X133789960Y-59431407D01*
X134003225Y-59573906D01*
X134240192Y-59672061D01*
X134330377Y-59690000D01*
X134240192Y-59707939D01*
X134003225Y-59806094D01*
X133789960Y-59948593D01*
X133608593Y-60129960D01*
X133466094Y-60343225D01*
X133367939Y-60580192D01*
X133317900Y-60831754D01*
X133317900Y-61088246D01*
X133367939Y-61339808D01*
X133466094Y-61576775D01*
X133608593Y-61790040D01*
X133789960Y-61971407D01*
X134003225Y-62113906D01*
X134240192Y-62212061D01*
X134330377Y-62230000D01*
X134240192Y-62247939D01*
X134003225Y-62346094D01*
X133789960Y-62488593D01*
X133608593Y-62669960D01*
X133466094Y-62883225D01*
X133367939Y-63120192D01*
X133317900Y-63371754D01*
X133317900Y-63628246D01*
X133367939Y-63879808D01*
X133466094Y-64116775D01*
X133608593Y-64330040D01*
X133789960Y-64511407D01*
X134003225Y-64653906D01*
X134240192Y-64752061D01*
X134330377Y-64770000D01*
X134240192Y-64787939D01*
X134003225Y-64886094D01*
X133789960Y-65028593D01*
X133608593Y-65209960D01*
X133466094Y-65423225D01*
X133367939Y-65660192D01*
X133317900Y-65911754D01*
X133317900Y-66168246D01*
X133367939Y-66419808D01*
X133466094Y-66656775D01*
X133608593Y-66870040D01*
X133789960Y-67051407D01*
X134003225Y-67193906D01*
X134240192Y-67292061D01*
X134330377Y-67310000D01*
X134240192Y-67327939D01*
X134003225Y-67426094D01*
X133789960Y-67568593D01*
X133608593Y-67749960D01*
X133466094Y-67963225D01*
X133367939Y-68200192D01*
X133317900Y-68451754D01*
X133317900Y-68708246D01*
X133367939Y-68959808D01*
X133466094Y-69196775D01*
X133608593Y-69410040D01*
X133789960Y-69591407D01*
X134003225Y-69733906D01*
X134240192Y-69832061D01*
X134330377Y-69850000D01*
X134240192Y-69867939D01*
X134003225Y-69966094D01*
X133789960Y-70108593D01*
X133608593Y-70289960D01*
X133466094Y-70503225D01*
X133367939Y-70740192D01*
X133317900Y-70991754D01*
X133317900Y-71248246D01*
X133367939Y-71499808D01*
X133466094Y-71736775D01*
X133608593Y-71950040D01*
X133789960Y-72131407D01*
X134003225Y-72273906D01*
X134240192Y-72372061D01*
X134330377Y-72390000D01*
X134240192Y-72407939D01*
X134003225Y-72506094D01*
X133789960Y-72648593D01*
X133608593Y-72829960D01*
X133466094Y-73043225D01*
X133367939Y-73280192D01*
X133317900Y-73531754D01*
X133317900Y-73788246D01*
X133367939Y-74039808D01*
X133466094Y-74276775D01*
X133608593Y-74490040D01*
X133789960Y-74671407D01*
X134003225Y-74813906D01*
X134240192Y-74912061D01*
X134330377Y-74930000D01*
X134240192Y-74947939D01*
X134003225Y-75046094D01*
X133789960Y-75188593D01*
X133608593Y-75369960D01*
X133466094Y-75583225D01*
X133367939Y-75820192D01*
X133317900Y-76071754D01*
X133317900Y-76328246D01*
X133367939Y-76579808D01*
X133466094Y-76816775D01*
X133608593Y-77030040D01*
X133789960Y-77211407D01*
X134003225Y-77353906D01*
X134240192Y-77452061D01*
X134330377Y-77470000D01*
X134240192Y-77487939D01*
X134003225Y-77586094D01*
X133789960Y-77728593D01*
X133608593Y-77909960D01*
X133466094Y-78123225D01*
X133367939Y-78360192D01*
X133317900Y-78611754D01*
X133317900Y-78868246D01*
X133367939Y-79119808D01*
X133466094Y-79356775D01*
X133608593Y-79570040D01*
X133789960Y-79751407D01*
X134003225Y-79893906D01*
X134240192Y-79992061D01*
X134330377Y-80010000D01*
X134240192Y-80027939D01*
X134003225Y-80126094D01*
X133789960Y-80268593D01*
X133608593Y-80449960D01*
X133466094Y-80663225D01*
X133367939Y-80900192D01*
X133317900Y-81151754D01*
X133317900Y-81408246D01*
X133367939Y-81659808D01*
X133466094Y-81896775D01*
X133608593Y-82110040D01*
X133789960Y-82291407D01*
X134003225Y-82433906D01*
X134240192Y-82532061D01*
X134330377Y-82550000D01*
X134240192Y-82567939D01*
X134003225Y-82666094D01*
X133789960Y-82808593D01*
X133608593Y-82989960D01*
X133466094Y-83203225D01*
X133367939Y-83440192D01*
X133317900Y-83691754D01*
X133317900Y-83948246D01*
X133367939Y-84199808D01*
X133466094Y-84436775D01*
X133608593Y-84650040D01*
X133789960Y-84831407D01*
X134003225Y-84973906D01*
X134240192Y-85072061D01*
X134330377Y-85090000D01*
X134240192Y-85107939D01*
X134003225Y-85206094D01*
X133789960Y-85348593D01*
X133608593Y-85529960D01*
X133466094Y-85743225D01*
X133367939Y-85980192D01*
X133317900Y-86231754D01*
X133317900Y-86488246D01*
X133367939Y-86739808D01*
X133466094Y-86976775D01*
X133608593Y-87190040D01*
X133789960Y-87371407D01*
X134003225Y-87513906D01*
X134240192Y-87612061D01*
X134330377Y-87630000D01*
X134240192Y-87647939D01*
X134003225Y-87746094D01*
X133789960Y-87888593D01*
X133608593Y-88069960D01*
X133466094Y-88283225D01*
X133367939Y-88520192D01*
X133317900Y-88771754D01*
X133317900Y-89028246D01*
X133367939Y-89279808D01*
X133466094Y-89516775D01*
X133608593Y-89730040D01*
X133789960Y-89911407D01*
X134003225Y-90053906D01*
X134240192Y-90152061D01*
X134330377Y-90170000D01*
X134240192Y-90187939D01*
X134003225Y-90286094D01*
X133789960Y-90428593D01*
X133608593Y-90609960D01*
X133466094Y-90823225D01*
X133367939Y-91060192D01*
X133317900Y-91311754D01*
X133317900Y-91568246D01*
X133367939Y-91819808D01*
X133466094Y-92056775D01*
X133608593Y-92270040D01*
X133789960Y-92451407D01*
X134003225Y-92593906D01*
X134240192Y-92692061D01*
X134330377Y-92710000D01*
X134240192Y-92727939D01*
X134003225Y-92826094D01*
X133789960Y-92968593D01*
X133608593Y-93149960D01*
X133466094Y-93363225D01*
X133367939Y-93600192D01*
X133317900Y-93851754D01*
X133317900Y-94108246D01*
X133367939Y-94359808D01*
X133466094Y-94596775D01*
X133608593Y-94810040D01*
X133789960Y-94991407D01*
X134003225Y-95133906D01*
X134240192Y-95232061D01*
X134330377Y-95250000D01*
X134240192Y-95267939D01*
X134003225Y-95366094D01*
X133789960Y-95508593D01*
X133608593Y-95689960D01*
X133466094Y-95903225D01*
X133367939Y-96140192D01*
X133317900Y-96391754D01*
X133317900Y-96648246D01*
X133367939Y-96899808D01*
X133466094Y-97136775D01*
X133608593Y-97350040D01*
X133789960Y-97531407D01*
X134003225Y-97673906D01*
X134240192Y-97772061D01*
X134330377Y-97790000D01*
X134240192Y-97807939D01*
X134003225Y-97906094D01*
X133789960Y-98048593D01*
X133608593Y-98229960D01*
X133466094Y-98443225D01*
X133367939Y-98680192D01*
X133317900Y-98931754D01*
X133317900Y-99188246D01*
X133367939Y-99439808D01*
X133466094Y-99676775D01*
X133608593Y-99890040D01*
X133789960Y-100071407D01*
X134003225Y-100213906D01*
X134240192Y-100312061D01*
X134330377Y-100330000D01*
X134240192Y-100347939D01*
X134003225Y-100446094D01*
X133789960Y-100588593D01*
X133608593Y-100769960D01*
X133466094Y-100983225D01*
X133367939Y-101220192D01*
X133317900Y-101471754D01*
X133317900Y-101728246D01*
X133367939Y-101979808D01*
X133466094Y-102216775D01*
X133608593Y-102430040D01*
X133789960Y-102611407D01*
X134003225Y-102753906D01*
X134240192Y-102852061D01*
X134491754Y-102902100D01*
X134748246Y-102902100D01*
X134999808Y-102852061D01*
X135236775Y-102753906D01*
X135450040Y-102611407D01*
X135631407Y-102430040D01*
X135773906Y-102216775D01*
X135872061Y-101979808D01*
X135922100Y-101728246D01*
X135922100Y-101471754D01*
X135872061Y-101220192D01*
X135773906Y-100983225D01*
X135631407Y-100769960D01*
X135450040Y-100588593D01*
X135236775Y-100446094D01*
X134999808Y-100347939D01*
X134909623Y-100330000D01*
X134999808Y-100312061D01*
X135236775Y-100213906D01*
X135450040Y-100071407D01*
X135631407Y-99890040D01*
X135773906Y-99676775D01*
X135872061Y-99439808D01*
X135922100Y-99188246D01*
X135922100Y-98931754D01*
X135872061Y-98680192D01*
X135773906Y-98443225D01*
X135631407Y-98229960D01*
X135450040Y-98048593D01*
X135236775Y-97906094D01*
X134999808Y-97807939D01*
X134909623Y-97790000D01*
X134999808Y-97772061D01*
X135236775Y-97673906D01*
X135450040Y-97531407D01*
X135631407Y-97350040D01*
X135773906Y-97136775D01*
X135872061Y-96899808D01*
X135922100Y-96648246D01*
X135922100Y-96391754D01*
X135872061Y-96140192D01*
X135773906Y-95903225D01*
X135631407Y-95689960D01*
X135450040Y-95508593D01*
X135236775Y-95366094D01*
X134999808Y-95267939D01*
X134909623Y-95250000D01*
X134999808Y-95232061D01*
X135236775Y-95133906D01*
X135450040Y-94991407D01*
X135631407Y-94810040D01*
X135773906Y-94596775D01*
X135872061Y-94359808D01*
X135922100Y-94108246D01*
X135922100Y-93851754D01*
X135872061Y-93600192D01*
X135773906Y-93363225D01*
X135631407Y-93149960D01*
X135450040Y-92968593D01*
X135236775Y-92826094D01*
X134999808Y-92727939D01*
X134909623Y-92710000D01*
X134999808Y-92692061D01*
X135236775Y-92593906D01*
X135450040Y-92451407D01*
X135631407Y-92270040D01*
X135773906Y-92056775D01*
X135872061Y-91819808D01*
X135922100Y-91568246D01*
X135922100Y-91311754D01*
X135872061Y-91060192D01*
X135773906Y-90823225D01*
X135631407Y-90609960D01*
X135450040Y-90428593D01*
X135236775Y-90286094D01*
X134999808Y-90187939D01*
X134909623Y-90170000D01*
X134999808Y-90152061D01*
X135236775Y-90053906D01*
X135450040Y-89911407D01*
X135631407Y-89730040D01*
X135773906Y-89516775D01*
X135872061Y-89279808D01*
X135922100Y-89028246D01*
X135922100Y-88771754D01*
X135872061Y-88520192D01*
X135773906Y-88283225D01*
X135631407Y-88069960D01*
X135450040Y-87888593D01*
X135236775Y-87746094D01*
X134999808Y-87647939D01*
X134909623Y-87630000D01*
X134999808Y-87612061D01*
X135236775Y-87513906D01*
X135450040Y-87371407D01*
X135631407Y-87190040D01*
X135773906Y-86976775D01*
X135872061Y-86739808D01*
X135922100Y-86488246D01*
X135922100Y-86231754D01*
X135872061Y-85980192D01*
X135773906Y-85743225D01*
X135631407Y-85529960D01*
X135450040Y-85348593D01*
X135236775Y-85206094D01*
X134999808Y-85107939D01*
X134909623Y-85090000D01*
X134999808Y-85072061D01*
X135236775Y-84973906D01*
X135450040Y-84831407D01*
X135631407Y-84650040D01*
X135773906Y-84436775D01*
X135872061Y-84199808D01*
X135922100Y-83948246D01*
X135922100Y-83691754D01*
X135872061Y-83440192D01*
X135773906Y-83203225D01*
X135631407Y-82989960D01*
X135450040Y-82808593D01*
X135236775Y-82666094D01*
X134999808Y-82567939D01*
X134909623Y-82550000D01*
X134999808Y-82532061D01*
X135236775Y-82433906D01*
X135450040Y-82291407D01*
X135631407Y-82110040D01*
X135773906Y-81896775D01*
X135872061Y-81659808D01*
X135922100Y-81408246D01*
X135922100Y-81151754D01*
X135872061Y-80900192D01*
X135773906Y-80663225D01*
X135631407Y-80449960D01*
X135450040Y-80268593D01*
X135236775Y-80126094D01*
X134999808Y-80027939D01*
X134909623Y-80010000D01*
X134999808Y-79992061D01*
X135236775Y-79893906D01*
X135450040Y-79751407D01*
X135631407Y-79570040D01*
X135773906Y-79356775D01*
X135872061Y-79119808D01*
X135922100Y-78868246D01*
X135922100Y-78611754D01*
X135872061Y-78360192D01*
X135773906Y-78123225D01*
X135631407Y-77909960D01*
X135450040Y-77728593D01*
X135236775Y-77586094D01*
X134999808Y-77487939D01*
X134909623Y-77470000D01*
X134999808Y-77452061D01*
X135236775Y-77353906D01*
X135450040Y-77211407D01*
X135631407Y-77030040D01*
X135773906Y-76816775D01*
X135872061Y-76579808D01*
X135922100Y-76328246D01*
X135922100Y-76071754D01*
X135872061Y-75820192D01*
X135773906Y-75583225D01*
X135631407Y-75369960D01*
X135450040Y-75188593D01*
X135236775Y-75046094D01*
X134999808Y-74947939D01*
X134909623Y-74930000D01*
X134999808Y-74912061D01*
X135236775Y-74813906D01*
X135450040Y-74671407D01*
X135631407Y-74490040D01*
X135773906Y-74276775D01*
X135872061Y-74039808D01*
X135922100Y-73788246D01*
X135922100Y-73531754D01*
X135872061Y-73280192D01*
X135773906Y-73043225D01*
X135631407Y-72829960D01*
X135450040Y-72648593D01*
X135236775Y-72506094D01*
X134999808Y-72407939D01*
X134909623Y-72390000D01*
X134999808Y-72372061D01*
X135236775Y-72273906D01*
X135450040Y-72131407D01*
X135631407Y-71950040D01*
X135773906Y-71736775D01*
X135872061Y-71499808D01*
X135922100Y-71248246D01*
X135922100Y-70991754D01*
X135872061Y-70740192D01*
X135773906Y-70503225D01*
X135631407Y-70289960D01*
X135516436Y-70174989D01*
X137655000Y-70174989D01*
X137655000Y-70327651D01*
X137684783Y-70477379D01*
X137743204Y-70618420D01*
X137828018Y-70745354D01*
X137935966Y-70853302D01*
X138062900Y-70938116D01*
X138203941Y-70996537D01*
X138353669Y-71026320D01*
X138497895Y-71026320D01*
X141978760Y-74507187D01*
X141978761Y-81969223D01*
X141876778Y-82071206D01*
X141791964Y-82198140D01*
X141733543Y-82339181D01*
X141703760Y-82488909D01*
X141703760Y-82641571D01*
X141733543Y-82791299D01*
X141791964Y-82932340D01*
X141876778Y-83059274D01*
X141984726Y-83167222D01*
X142111660Y-83252036D01*
X142252701Y-83310457D01*
X142300676Y-83320000D01*
X142106747Y-83320000D01*
X141501160Y-82714414D01*
X141501160Y-82570189D01*
X141471377Y-82420461D01*
X141412956Y-82279420D01*
X141328142Y-82152486D01*
X141220194Y-82044538D01*
X141093260Y-81959724D01*
X140952219Y-81901303D01*
X140802491Y-81871520D01*
X140649829Y-81871520D01*
X140500101Y-81901303D01*
X140359060Y-81959724D01*
X140232126Y-82044538D01*
X140124178Y-82152486D01*
X140039364Y-82279420D01*
X139980943Y-82420461D01*
X139951160Y-82570189D01*
X139951160Y-82722851D01*
X139980943Y-82872579D01*
X140039364Y-83013620D01*
X140124178Y-83140554D01*
X140232126Y-83248502D01*
X140359060Y-83333316D01*
X140500101Y-83391737D01*
X140649829Y-83421520D01*
X140794054Y-83421520D01*
X141528720Y-84156187D01*
X141544376Y-84175264D01*
X141620511Y-84237746D01*
X141707373Y-84284175D01*
X141801623Y-84312765D01*
X141875080Y-84320000D01*
X141875089Y-84320000D01*
X141899639Y-84322418D01*
X141924189Y-84320000D01*
X148657724Y-84320000D01*
X148706094Y-84436775D01*
X148848593Y-84650040D01*
X149029960Y-84831407D01*
X149243225Y-84973906D01*
X149480192Y-85072061D01*
X149570377Y-85090000D01*
X149480192Y-85107939D01*
X149243225Y-85206094D01*
X149029960Y-85348593D01*
X148848593Y-85529960D01*
X148706094Y-85743225D01*
X148607939Y-85980192D01*
X148557900Y-86231754D01*
X148557900Y-86488246D01*
X148607939Y-86739808D01*
X148706094Y-86976775D01*
X148848593Y-87190040D01*
X149029960Y-87371407D01*
X149243225Y-87513906D01*
X149480192Y-87612061D01*
X149570377Y-87630000D01*
X149480192Y-87647939D01*
X149243225Y-87746094D01*
X149029960Y-87888593D01*
X148848593Y-88069960D01*
X148706094Y-88283225D01*
X148607939Y-88520192D01*
X148557900Y-88771754D01*
X148557900Y-89028246D01*
X148607939Y-89279808D01*
X148706094Y-89516775D01*
X148848593Y-89730040D01*
X149029960Y-89911407D01*
X149243225Y-90053906D01*
X149480192Y-90152061D01*
X149570377Y-90170000D01*
X149480192Y-90187939D01*
X149243225Y-90286094D01*
X149029960Y-90428593D01*
X148848593Y-90609960D01*
X148706094Y-90823225D01*
X148607939Y-91060192D01*
X148557900Y-91311754D01*
X148557900Y-91568246D01*
X148607939Y-91819808D01*
X148706094Y-92056775D01*
X148848593Y-92270040D01*
X149029960Y-92451407D01*
X149243225Y-92593906D01*
X149480192Y-92692061D01*
X149570377Y-92710000D01*
X149480192Y-92727939D01*
X149243225Y-92826094D01*
X149029960Y-92968593D01*
X148848593Y-93149960D01*
X148706094Y-93363225D01*
X148607939Y-93600192D01*
X148557900Y-93851754D01*
X148557900Y-94108246D01*
X148607939Y-94359808D01*
X148706094Y-94596775D01*
X148848593Y-94810040D01*
X149029960Y-94991407D01*
X149243225Y-95133906D01*
X149480192Y-95232061D01*
X149570377Y-95250000D01*
X149480192Y-95267939D01*
X149243225Y-95366094D01*
X149029960Y-95508593D01*
X148848593Y-95689960D01*
X148706094Y-95903225D01*
X148607939Y-96140192D01*
X148557900Y-96391754D01*
X148557900Y-96648246D01*
X148607939Y-96899808D01*
X148706094Y-97136775D01*
X148848593Y-97350040D01*
X149029960Y-97531407D01*
X149243225Y-97673906D01*
X149480192Y-97772061D01*
X149570377Y-97790000D01*
X149480192Y-97807939D01*
X149243225Y-97906094D01*
X149029960Y-98048593D01*
X148848593Y-98229960D01*
X148706094Y-98443225D01*
X148607939Y-98680192D01*
X148557900Y-98931754D01*
X148557900Y-99188246D01*
X148607939Y-99439808D01*
X148706094Y-99676775D01*
X148848593Y-99890040D01*
X149029960Y-100071407D01*
X149243225Y-100213906D01*
X149480192Y-100312061D01*
X149570377Y-100330000D01*
X149480192Y-100347939D01*
X149243225Y-100446094D01*
X149029960Y-100588593D01*
X148848593Y-100769960D01*
X148706094Y-100983225D01*
X148607939Y-101220192D01*
X148557900Y-101471754D01*
X148557900Y-101728246D01*
X148607939Y-101979808D01*
X148706094Y-102216775D01*
X148848593Y-102430040D01*
X149029960Y-102611407D01*
X149243225Y-102753906D01*
X149480192Y-102852061D01*
X149570377Y-102870000D01*
X149480192Y-102887939D01*
X149243225Y-102986094D01*
X149029960Y-103128593D01*
X148848593Y-103309960D01*
X148706094Y-103523225D01*
X148607939Y-103760192D01*
X148557900Y-104011754D01*
X148557900Y-104268246D01*
X148607939Y-104519808D01*
X148706094Y-104756775D01*
X148848593Y-104970040D01*
X149029960Y-105151407D01*
X149243225Y-105293906D01*
X149480192Y-105392061D01*
X149731754Y-105442100D01*
X149988246Y-105442100D01*
X150239808Y-105392061D01*
X150476775Y-105293906D01*
X150690040Y-105151407D01*
X150871407Y-104970040D01*
X151013906Y-104756775D01*
X151112061Y-104519808D01*
X151162100Y-104268246D01*
X151162100Y-104011754D01*
X151112061Y-103760192D01*
X151013906Y-103523225D01*
X150871407Y-103309960D01*
X150690040Y-103128593D01*
X150476775Y-102986094D01*
X150239808Y-102887939D01*
X150149623Y-102870000D01*
X150239808Y-102852061D01*
X150476775Y-102753906D01*
X150690040Y-102611407D01*
X150871407Y-102430040D01*
X151013906Y-102216775D01*
X151112061Y-101979808D01*
X151162100Y-101728246D01*
X151162100Y-101471754D01*
X151112061Y-101220192D01*
X151013906Y-100983225D01*
X150871407Y-100769960D01*
X150690040Y-100588593D01*
X150476775Y-100446094D01*
X150239808Y-100347939D01*
X150149623Y-100330000D01*
X150239808Y-100312061D01*
X150476775Y-100213906D01*
X150690040Y-100071407D01*
X150871407Y-99890040D01*
X151013906Y-99676775D01*
X151112061Y-99439808D01*
X151162100Y-99188246D01*
X151162100Y-98931754D01*
X151112061Y-98680192D01*
X151013906Y-98443225D01*
X150871407Y-98229960D01*
X150690040Y-98048593D01*
X150476775Y-97906094D01*
X150239808Y-97807939D01*
X150149623Y-97790000D01*
X150239808Y-97772061D01*
X150476775Y-97673906D01*
X150690040Y-97531407D01*
X150871407Y-97350040D01*
X151013906Y-97136775D01*
X151112061Y-96899808D01*
X151162100Y-96648246D01*
X151162100Y-96391754D01*
X151112061Y-96140192D01*
X151013906Y-95903225D01*
X150871407Y-95689960D01*
X150690040Y-95508593D01*
X150476775Y-95366094D01*
X150239808Y-95267939D01*
X150149623Y-95250000D01*
X150239808Y-95232061D01*
X150476775Y-95133906D01*
X150690040Y-94991407D01*
X150871407Y-94810040D01*
X151013906Y-94596775D01*
X151112061Y-94359808D01*
X151162100Y-94108246D01*
X151162100Y-93851754D01*
X151112061Y-93600192D01*
X151013906Y-93363225D01*
X150871407Y-93149960D01*
X150690040Y-92968593D01*
X150476775Y-92826094D01*
X150239808Y-92727939D01*
X150149623Y-92710000D01*
X150239808Y-92692061D01*
X150476775Y-92593906D01*
X150690040Y-92451407D01*
X150871407Y-92270040D01*
X151013906Y-92056775D01*
X151112061Y-91819808D01*
X151162100Y-91568246D01*
X151162100Y-91311754D01*
X151112061Y-91060192D01*
X151013906Y-90823225D01*
X150871407Y-90609960D01*
X150690040Y-90428593D01*
X150476775Y-90286094D01*
X150239808Y-90187939D01*
X150149623Y-90170000D01*
X150239808Y-90152061D01*
X150476775Y-90053906D01*
X150690040Y-89911407D01*
X150871407Y-89730040D01*
X151013906Y-89516775D01*
X151112061Y-89279808D01*
X151162100Y-89028246D01*
X151162100Y-88771754D01*
X151112061Y-88520192D01*
X151013906Y-88283225D01*
X150871407Y-88069960D01*
X150690040Y-87888593D01*
X150476775Y-87746094D01*
X150239808Y-87647939D01*
X150149623Y-87630000D01*
X150239808Y-87612061D01*
X150476775Y-87513906D01*
X150690040Y-87371407D01*
X150871407Y-87190040D01*
X151013906Y-86976775D01*
X151112061Y-86739808D01*
X151162100Y-86488246D01*
X151162100Y-86231754D01*
X151112061Y-85980192D01*
X151013906Y-85743225D01*
X150871407Y-85529960D01*
X150690040Y-85348593D01*
X150476775Y-85206094D01*
X150239808Y-85107939D01*
X150149623Y-85090000D01*
X150239808Y-85072061D01*
X150476775Y-84973906D01*
X150690040Y-84831407D01*
X150871407Y-84650040D01*
X151013906Y-84436775D01*
X151112061Y-84199808D01*
X151162100Y-83948246D01*
X151162100Y-83691754D01*
X151112061Y-83440192D01*
X151013906Y-83203225D01*
X150871407Y-82989960D01*
X150690040Y-82808593D01*
X150476775Y-82666094D01*
X150239808Y-82567939D01*
X150149623Y-82550000D01*
X150239808Y-82532061D01*
X150476775Y-82433906D01*
X150690040Y-82291407D01*
X150871407Y-82110040D01*
X151013906Y-81896775D01*
X151112061Y-81659808D01*
X151162100Y-81408246D01*
X151162100Y-81151754D01*
X151112061Y-80900192D01*
X151013906Y-80663225D01*
X150871407Y-80449960D01*
X150690040Y-80268593D01*
X150476775Y-80126094D01*
X150239808Y-80027939D01*
X150149623Y-80010000D01*
X150239808Y-79992061D01*
X150476775Y-79893906D01*
X150690040Y-79751407D01*
X150871407Y-79570040D01*
X151013906Y-79356775D01*
X151112061Y-79119808D01*
X151162100Y-78868246D01*
X151162100Y-78611754D01*
X151112061Y-78360192D01*
X151013906Y-78123225D01*
X150871407Y-77909960D01*
X150690040Y-77728593D01*
X150476775Y-77586094D01*
X150239808Y-77487939D01*
X150149623Y-77470000D01*
X150239808Y-77452061D01*
X150476775Y-77353906D01*
X150690040Y-77211407D01*
X150871407Y-77030040D01*
X151013906Y-76816775D01*
X151112061Y-76579808D01*
X151162100Y-76328246D01*
X151162100Y-76071754D01*
X151112061Y-75820192D01*
X151013906Y-75583225D01*
X150871407Y-75369960D01*
X150690040Y-75188593D01*
X150476775Y-75046094D01*
X150239808Y-74947939D01*
X150149623Y-74930000D01*
X150239808Y-74912061D01*
X150476775Y-74813906D01*
X150690040Y-74671407D01*
X150871407Y-74490040D01*
X151013906Y-74276775D01*
X151112061Y-74039808D01*
X151162100Y-73788246D01*
X151162100Y-73531754D01*
X151112061Y-73280192D01*
X151013906Y-73043225D01*
X150871407Y-72829960D01*
X150690040Y-72648593D01*
X150476775Y-72506094D01*
X150239808Y-72407939D01*
X150149623Y-72390000D01*
X150239808Y-72372061D01*
X150476775Y-72273906D01*
X150690040Y-72131407D01*
X150871407Y-71950040D01*
X151013906Y-71736775D01*
X151112061Y-71499808D01*
X151162100Y-71248246D01*
X151162100Y-70991754D01*
X151112061Y-70740192D01*
X151013906Y-70503225D01*
X150871407Y-70289960D01*
X150690040Y-70108593D01*
X150476775Y-69966094D01*
X150239808Y-69867939D01*
X150149623Y-69850000D01*
X150239808Y-69832061D01*
X150476775Y-69733906D01*
X150690040Y-69591407D01*
X150871407Y-69410040D01*
X151013906Y-69196775D01*
X151112061Y-68959808D01*
X151162100Y-68708246D01*
X151162100Y-68451754D01*
X151112061Y-68200192D01*
X151013906Y-67963225D01*
X150871407Y-67749960D01*
X150690040Y-67568593D01*
X150476775Y-67426094D01*
X150239808Y-67327939D01*
X150149623Y-67310000D01*
X150239808Y-67292061D01*
X150476775Y-67193906D01*
X150690040Y-67051407D01*
X150871407Y-66870040D01*
X151013906Y-66656775D01*
X151112061Y-66419808D01*
X151162100Y-66168246D01*
X151162100Y-65911754D01*
X151112061Y-65660192D01*
X151013906Y-65423225D01*
X150871407Y-65209960D01*
X150690040Y-65028593D01*
X150476775Y-64886094D01*
X150239808Y-64787939D01*
X150149623Y-64770000D01*
X150239808Y-64752061D01*
X150476775Y-64653906D01*
X150690040Y-64511407D01*
X150871407Y-64330040D01*
X151013906Y-64116775D01*
X151112061Y-63879808D01*
X151162100Y-63628246D01*
X151162100Y-63371754D01*
X151112061Y-63120192D01*
X151013906Y-62883225D01*
X150871407Y-62669960D01*
X150690040Y-62488593D01*
X150476775Y-62346094D01*
X150239808Y-62247939D01*
X150149623Y-62230000D01*
X150239808Y-62212061D01*
X150476775Y-62113906D01*
X150690040Y-61971407D01*
X150871407Y-61790040D01*
X151013906Y-61576775D01*
X151112061Y-61339808D01*
X151162100Y-61088246D01*
X151162100Y-60831754D01*
X151112061Y-60580192D01*
X151013906Y-60343225D01*
X150871407Y-60129960D01*
X150690040Y-59948593D01*
X150476775Y-59806094D01*
X150239808Y-59707939D01*
X150149623Y-59690000D01*
X150239808Y-59672061D01*
X150476775Y-59573906D01*
X150690040Y-59431407D01*
X150871407Y-59250040D01*
X151013906Y-59036775D01*
X151112061Y-58799808D01*
X151162100Y-58548246D01*
X151162100Y-58291754D01*
X151112061Y-58040192D01*
X151013906Y-57803225D01*
X150871407Y-57589960D01*
X150690040Y-57408593D01*
X150476775Y-57266094D01*
X150239808Y-57167939D01*
X150149623Y-57150000D01*
X150239808Y-57132061D01*
X150476775Y-57033906D01*
X150690040Y-56891407D01*
X150871407Y-56710040D01*
X151013906Y-56496775D01*
X151112061Y-56259808D01*
X151162100Y-56008246D01*
X151162100Y-55751754D01*
X151112061Y-55500192D01*
X151013906Y-55263225D01*
X150871407Y-55049960D01*
X150690040Y-54868593D01*
X150476775Y-54726094D01*
X150239808Y-54627939D01*
X149988246Y-54577900D01*
X149731754Y-54577900D01*
X149480192Y-54627939D01*
X149243225Y-54726094D01*
X149029960Y-54868593D01*
X148848593Y-55049960D01*
X148706094Y-55263225D01*
X148607939Y-55500192D01*
X148557900Y-55751754D01*
X148557900Y-56008246D01*
X148607939Y-56259808D01*
X148706094Y-56496775D01*
X148848593Y-56710040D01*
X149029960Y-56891407D01*
X149243225Y-57033906D01*
X149480192Y-57132061D01*
X149570377Y-57150000D01*
X149480192Y-57167939D01*
X149243225Y-57266094D01*
X149029960Y-57408593D01*
X148848593Y-57589960D01*
X148706094Y-57803225D01*
X148607939Y-58040192D01*
X148557900Y-58291754D01*
X148557900Y-58548246D01*
X148607939Y-58799808D01*
X148706094Y-59036775D01*
X148848593Y-59250040D01*
X149029960Y-59431407D01*
X149243225Y-59573906D01*
X149480192Y-59672061D01*
X149570377Y-59690000D01*
X149480192Y-59707939D01*
X149243225Y-59806094D01*
X149029960Y-59948593D01*
X148848593Y-60129960D01*
X148706094Y-60343225D01*
X148607939Y-60580192D01*
X148557900Y-60831754D01*
X148557900Y-61088246D01*
X148607939Y-61339808D01*
X148706094Y-61576775D01*
X148848593Y-61790040D01*
X149029960Y-61971407D01*
X149243225Y-62113906D01*
X149480192Y-62212061D01*
X149570377Y-62230000D01*
X149480192Y-62247939D01*
X149243225Y-62346094D01*
X149029960Y-62488593D01*
X148848593Y-62669960D01*
X148706094Y-62883225D01*
X148607939Y-63120192D01*
X148557900Y-63371754D01*
X148557900Y-63628246D01*
X148607939Y-63879808D01*
X148706094Y-64116775D01*
X148848593Y-64330040D01*
X149029960Y-64511407D01*
X149243225Y-64653906D01*
X149480192Y-64752061D01*
X149570377Y-64770000D01*
X149480192Y-64787939D01*
X149243225Y-64886094D01*
X149029960Y-65028593D01*
X148848593Y-65209960D01*
X148706094Y-65423225D01*
X148607939Y-65660192D01*
X148557900Y-65911754D01*
X148557900Y-66168246D01*
X148607939Y-66419808D01*
X148706094Y-66656775D01*
X148848593Y-66870040D01*
X149029960Y-67051407D01*
X149243225Y-67193906D01*
X149480192Y-67292061D01*
X149570377Y-67310000D01*
X149480192Y-67327939D01*
X149243225Y-67426094D01*
X149029960Y-67568593D01*
X148848593Y-67749960D01*
X148706094Y-67963225D01*
X148607939Y-68200192D01*
X148557900Y-68451754D01*
X148557900Y-68708246D01*
X148607939Y-68959808D01*
X148706094Y-69196775D01*
X148848593Y-69410040D01*
X149029960Y-69591407D01*
X149243225Y-69733906D01*
X149480192Y-69832061D01*
X149570377Y-69850000D01*
X149480192Y-69867939D01*
X149243225Y-69966094D01*
X149029960Y-70108593D01*
X148848593Y-70289960D01*
X148706094Y-70503225D01*
X148607939Y-70740192D01*
X148557900Y-70991754D01*
X148557900Y-71248246D01*
X148607939Y-71499808D01*
X148706094Y-71736775D01*
X148848593Y-71950040D01*
X149029960Y-72131407D01*
X149243225Y-72273906D01*
X149480192Y-72372061D01*
X149570377Y-72390000D01*
X149480192Y-72407939D01*
X149243225Y-72506094D01*
X149029960Y-72648593D01*
X148848593Y-72829960D01*
X148706094Y-73043225D01*
X148607939Y-73280192D01*
X148557900Y-73531754D01*
X148557900Y-73788246D01*
X148607939Y-74039808D01*
X148706094Y-74276775D01*
X148848593Y-74490040D01*
X149029960Y-74671407D01*
X149243225Y-74813906D01*
X149480192Y-74912061D01*
X149570377Y-74930000D01*
X149480192Y-74947939D01*
X149243225Y-75046094D01*
X149029960Y-75188593D01*
X148848593Y-75369960D01*
X148706094Y-75583225D01*
X148607939Y-75820192D01*
X148557900Y-76071754D01*
X148557900Y-76328246D01*
X148607939Y-76579808D01*
X148706094Y-76816775D01*
X148848593Y-77030040D01*
X149029960Y-77211407D01*
X149243225Y-77353906D01*
X149480192Y-77452061D01*
X149570377Y-77470000D01*
X149480192Y-77487939D01*
X149243225Y-77586094D01*
X149029960Y-77728593D01*
X148848593Y-77909960D01*
X148706094Y-78123225D01*
X148607939Y-78360192D01*
X148557900Y-78611754D01*
X148557900Y-78868246D01*
X148607939Y-79119808D01*
X148706094Y-79356775D01*
X148848593Y-79570040D01*
X149029960Y-79751407D01*
X149243225Y-79893906D01*
X149480192Y-79992061D01*
X149570377Y-80010000D01*
X149480192Y-80027939D01*
X149243225Y-80126094D01*
X149029960Y-80268593D01*
X148848593Y-80449960D01*
X148706094Y-80663225D01*
X148607939Y-80900192D01*
X148557900Y-81151754D01*
X148557900Y-81408246D01*
X148607939Y-81659808D01*
X148706094Y-81896775D01*
X148848593Y-82110040D01*
X149029960Y-82291407D01*
X149243225Y-82433906D01*
X149480192Y-82532061D01*
X149570377Y-82550000D01*
X149480192Y-82567939D01*
X149243225Y-82666094D01*
X149029960Y-82808593D01*
X148848593Y-82989960D01*
X148706094Y-83203225D01*
X148657724Y-83320000D01*
X142656844Y-83320000D01*
X142704819Y-83310457D01*
X142845860Y-83252036D01*
X142972794Y-83167222D01*
X143080742Y-83059274D01*
X143165556Y-82932340D01*
X143223977Y-82791299D01*
X143253760Y-82641571D01*
X143253760Y-82488909D01*
X143223977Y-82339181D01*
X143165556Y-82198140D01*
X143080742Y-82071206D01*
X142978760Y-81969224D01*
X142978760Y-74324629D01*
X142981178Y-74300079D01*
X142978760Y-74275529D01*
X142978760Y-74275520D01*
X142971525Y-74202063D01*
X142942935Y-74107813D01*
X142896506Y-74020951D01*
X142834024Y-73944816D01*
X142814947Y-73929160D01*
X139205000Y-70319215D01*
X139205000Y-70174989D01*
X139175217Y-70025261D01*
X139116796Y-69884220D01*
X139031982Y-69757286D01*
X138924034Y-69649338D01*
X138797100Y-69564524D01*
X138656059Y-69506103D01*
X138506331Y-69476320D01*
X138353669Y-69476320D01*
X138203941Y-69506103D01*
X138062900Y-69564524D01*
X137935966Y-69649338D01*
X137828018Y-69757286D01*
X137743204Y-69884220D01*
X137684783Y-70025261D01*
X137655000Y-70174989D01*
X135516436Y-70174989D01*
X135450040Y-70108593D01*
X135236775Y-69966094D01*
X134999808Y-69867939D01*
X134909623Y-69850000D01*
X134999808Y-69832061D01*
X135236775Y-69733906D01*
X135450040Y-69591407D01*
X135631407Y-69410040D01*
X135773906Y-69196775D01*
X135872061Y-68959808D01*
X135922100Y-68708246D01*
X135922100Y-68451754D01*
X135872061Y-68200192D01*
X135773906Y-67963225D01*
X135631407Y-67749960D01*
X135450040Y-67568593D01*
X135236775Y-67426094D01*
X134999808Y-67327939D01*
X134909623Y-67310000D01*
X134999808Y-67292061D01*
X135236775Y-67193906D01*
X135450040Y-67051407D01*
X135631407Y-66870040D01*
X135773906Y-66656775D01*
X135872061Y-66419808D01*
X135922100Y-66168246D01*
X135922100Y-65911754D01*
X135872061Y-65660192D01*
X135773906Y-65423225D01*
X135631407Y-65209960D01*
X135450040Y-65028593D01*
X135236775Y-64886094D01*
X134999808Y-64787939D01*
X134909623Y-64770000D01*
X134999808Y-64752061D01*
X135236775Y-64653906D01*
X135450040Y-64511407D01*
X135631407Y-64330040D01*
X135773906Y-64116775D01*
X135872061Y-63879808D01*
X135922100Y-63628246D01*
X135922100Y-63371754D01*
X135872061Y-63120192D01*
X135773906Y-62883225D01*
X135631407Y-62669960D01*
X135450040Y-62488593D01*
X135236775Y-62346094D01*
X134999808Y-62247939D01*
X134909623Y-62230000D01*
X134999808Y-62212061D01*
X135236775Y-62113906D01*
X135450040Y-61971407D01*
X135631407Y-61790040D01*
X135773906Y-61576775D01*
X135872061Y-61339808D01*
X135922100Y-61088246D01*
X135922100Y-60831754D01*
X135872061Y-60580192D01*
X135773906Y-60343225D01*
X135631407Y-60129960D01*
X135450040Y-59948593D01*
X135236775Y-59806094D01*
X134999808Y-59707939D01*
X134909623Y-59690000D01*
X134999808Y-59672061D01*
X135236775Y-59573906D01*
X135450040Y-59431407D01*
X135631407Y-59250040D01*
X135773906Y-59036775D01*
X135872061Y-58799808D01*
X135922100Y-58548246D01*
X135922100Y-58291754D01*
X135872061Y-58040192D01*
X135773906Y-57803225D01*
X135631407Y-57589960D01*
X135450040Y-57408593D01*
X135236775Y-57266094D01*
X134999808Y-57167939D01*
X134909623Y-57150000D01*
X134999808Y-57132061D01*
X135236775Y-57033906D01*
X135450040Y-56891407D01*
X135631407Y-56710040D01*
X135773906Y-56496775D01*
X135872061Y-56259808D01*
X135922100Y-56008246D01*
X135922100Y-55751754D01*
X135872061Y-55500192D01*
X135773906Y-55263225D01*
X135631407Y-55049960D01*
X135450040Y-54868593D01*
X135236775Y-54726094D01*
X134999808Y-54627939D01*
X134748246Y-54577900D01*
X134491754Y-54577900D01*
X134240192Y-54627939D01*
X134003225Y-54726094D01*
X133789960Y-54868593D01*
X133608593Y-55049960D01*
X133466094Y-55263225D01*
X133367939Y-55500192D01*
X133317900Y-55751754D01*
X132594601Y-55751754D01*
X132576075Y-55563658D01*
X132506028Y-55332745D01*
X132392278Y-55119934D01*
X132239197Y-54933403D01*
X132052666Y-54780322D01*
X131839855Y-54666572D01*
X131608942Y-54596525D01*
X131428978Y-54578800D01*
X131308622Y-54578800D01*
X131128658Y-54596525D01*
X130897745Y-54666572D01*
X130684934Y-54780322D01*
X130498403Y-54933403D01*
X130345322Y-55119934D01*
X130231572Y-55332745D01*
X130161525Y-55563658D01*
X130137873Y-55803800D01*
X130059727Y-55803800D01*
X130036075Y-55563658D01*
X129966028Y-55332745D01*
X129852278Y-55119934D01*
X129699197Y-54933403D01*
X129512666Y-54780322D01*
X129299855Y-54666572D01*
X129068942Y-54596525D01*
X128888978Y-54578800D01*
X128768622Y-54578800D01*
X128588658Y-54596525D01*
X128357745Y-54666572D01*
X128144934Y-54780322D01*
X127958403Y-54933403D01*
X127805322Y-55119934D01*
X127691572Y-55332745D01*
X127621525Y-55563658D01*
X127597873Y-55803800D01*
X126434000Y-55803800D01*
X126434000Y-53536000D01*
X151767000Y-53536000D01*
X151767000Y-106302231D01*
X151767000Y-106302231D01*
G37*
X151767000Y-106302231D02*
X133408349Y-106484000D01*
X132530000Y-106484000D01*
X132530000Y-82826104D01*
X132532177Y-82804000D01*
X132523489Y-82715785D01*
X132497757Y-82630959D01*
X132455971Y-82552784D01*
X132399737Y-82484263D01*
X132331216Y-82428029D01*
X132253041Y-82386243D01*
X132168215Y-82360511D01*
X132102105Y-82354000D01*
X132080000Y-82351823D01*
X132057896Y-82354000D01*
X126434000Y-82354000D01*
X126434000Y-79744200D01*
X127627386Y-79744200D01*
X127627386Y-81444200D01*
X127634626Y-81517713D01*
X127656069Y-81588400D01*
X127690891Y-81653547D01*
X127737752Y-81710648D01*
X127794853Y-81757509D01*
X127860000Y-81792331D01*
X127930687Y-81813774D01*
X128004200Y-81821014D01*
X129704200Y-81821014D01*
X129777713Y-81813774D01*
X129848400Y-81792331D01*
X129913547Y-81757509D01*
X129970648Y-81710648D01*
X130017509Y-81653547D01*
X130052331Y-81588400D01*
X130073774Y-81517713D01*
X130081014Y-81444200D01*
X130081014Y-79744200D01*
X130073774Y-79670687D01*
X130052331Y-79600000D01*
X130017509Y-79534853D01*
X129970648Y-79477752D01*
X129913547Y-79430891D01*
X129848400Y-79396069D01*
X129777713Y-79374626D01*
X129704200Y-79367386D01*
X128004200Y-79367386D01*
X127930687Y-79374626D01*
X127860000Y-79396069D01*
X127794853Y-79430891D01*
X127737752Y-79477752D01*
X127690891Y-79534853D01*
X127656069Y-79600000D01*
X127634626Y-79670687D01*
X127627386Y-79744200D01*
X126434000Y-79744200D01*
X126434000Y-69824600D01*
X127005581Y-69824600D01*
X127008000Y-69849160D01*
X127008001Y-74568345D01*
X127005581Y-74592915D01*
X127015235Y-74690932D01*
X127042840Y-74781931D01*
X127043826Y-74785182D01*
X127090255Y-74872044D01*
X127152737Y-74948179D01*
X127171819Y-74963839D01*
X129050595Y-76842616D01*
X128914378Y-76829200D01*
X128794022Y-76829200D01*
X128614058Y-76846925D01*
X128383145Y-76916972D01*
X128170334Y-77030722D01*
X127983803Y-77183803D01*
X127830722Y-77370334D01*
X127716972Y-77583145D01*
X127646925Y-77814058D01*
X127623273Y-78054200D01*
X127646925Y-78294342D01*
X127716972Y-78525255D01*
X127830722Y-78738066D01*
X127983803Y-78924597D01*
X128170334Y-79077678D01*
X128383145Y-79191428D01*
X128614058Y-79261475D01*
X128794022Y-79279200D01*
X128914378Y-79279200D01*
X129094342Y-79261475D01*
X129325255Y-79191428D01*
X129538066Y-79077678D01*
X129724597Y-78924597D01*
X129877678Y-78738066D01*
X129991428Y-78525255D01*
X130061475Y-78294342D01*
X130085127Y-78054200D01*
X130065784Y-77857805D01*
X131402200Y-79194222D01*
X131402200Y-79210784D01*
X131300218Y-79312766D01*
X131215404Y-79439700D01*
X131156983Y-79580741D01*
X131127200Y-79730469D01*
X131127200Y-79883131D01*
X131156983Y-80032859D01*
X131215404Y-80173900D01*
X131300218Y-80300834D01*
X131408166Y-80408782D01*
X131535100Y-80493596D01*
X131676141Y-80552017D01*
X131825869Y-80581800D01*
X131978531Y-80581800D01*
X132128259Y-80552017D01*
X132269300Y-80493596D01*
X132396234Y-80408782D01*
X132504182Y-80300834D01*
X132588996Y-80173900D01*
X132647417Y-80032859D01*
X132677200Y-79883131D01*
X132677200Y-79730469D01*
X132647417Y-79580741D01*
X132588996Y-79439700D01*
X132504182Y-79312766D01*
X132402200Y-79210784D01*
X132402200Y-79011672D01*
X132404619Y-78987114D01*
X132398461Y-78924597D01*
X132394965Y-78889098D01*
X132366375Y-78794848D01*
X132319946Y-78707986D01*
X132257464Y-78631851D01*
X132238387Y-78616195D01*
X128326537Y-74704347D01*
X128357745Y-74721028D01*
X128588658Y-74791075D01*
X128768622Y-74808800D01*
X128888978Y-74808800D01*
X129068942Y-74791075D01*
X129299855Y-74721028D01*
X129512666Y-74607278D01*
X129699197Y-74454197D01*
X129852278Y-74267666D01*
X129966028Y-74054855D01*
X130036075Y-73823942D01*
X130059727Y-73583800D01*
X130036075Y-73343658D01*
X129966028Y-73112745D01*
X129852278Y-72899934D01*
X129715937Y-72733800D01*
X130141986Y-72733800D01*
X130141986Y-74433800D01*
X130149226Y-74507313D01*
X130170669Y-74578000D01*
X130205491Y-74643147D01*
X130252352Y-74700248D01*
X130309453Y-74747109D01*
X130374600Y-74781931D01*
X130445287Y-74803374D01*
X130518800Y-74810614D01*
X132218800Y-74810614D01*
X132292313Y-74803374D01*
X132363000Y-74781931D01*
X132428147Y-74747109D01*
X132485248Y-74700248D01*
X132532109Y-74643147D01*
X132566931Y-74578000D01*
X132588374Y-74507313D01*
X132595614Y-74433800D01*
X132595614Y-72733800D01*
X132588374Y-72660287D01*
X132566931Y-72589600D01*
X132532109Y-72524453D01*
X132485248Y-72467352D01*
X132428147Y-72420491D01*
X132363000Y-72385669D01*
X132292313Y-72364226D01*
X132218800Y-72356986D01*
X130518800Y-72356986D01*
X130445287Y-72364226D01*
X130374600Y-72385669D01*
X130309453Y-72420491D01*
X130252352Y-72467352D01*
X130205491Y-72524453D01*
X130170669Y-72589600D01*
X130149226Y-72660287D01*
X130141986Y-72733800D01*
X129715937Y-72733800D01*
X129699197Y-72713403D01*
X129512666Y-72560322D01*
X129299855Y-72446572D01*
X129068942Y-72376525D01*
X128888978Y-72358800D01*
X128768622Y-72358800D01*
X128588658Y-72376525D01*
X128357745Y-72446572D01*
X128144934Y-72560322D01*
X128008000Y-72672700D01*
X128008000Y-71954900D01*
X128144934Y-72067278D01*
X128357745Y-72181028D01*
X128588658Y-72251075D01*
X128768622Y-72268800D01*
X128888978Y-72268800D01*
X129068942Y-72251075D01*
X129299855Y-72181028D01*
X129512666Y-72067278D01*
X129699197Y-71914197D01*
X129852278Y-71727666D01*
X129966028Y-71514855D01*
X130036075Y-71283942D01*
X130059727Y-71043800D01*
X130137873Y-71043800D01*
X130161525Y-71283942D01*
X130231572Y-71514855D01*
X130345322Y-71727666D01*
X130498403Y-71914197D01*
X130684934Y-72067278D01*
X130897745Y-72181028D01*
X131128658Y-72251075D01*
X131308622Y-72268800D01*
X131428978Y-72268800D01*
X131608942Y-72251075D01*
X131839855Y-72181028D01*
X132052666Y-72067278D01*
X132239197Y-71914197D01*
X132392278Y-71727666D01*
X132506028Y-71514855D01*
X132576075Y-71283942D01*
X132599727Y-71043800D01*
X132576075Y-70803658D01*
X132506028Y-70572745D01*
X132392278Y-70359934D01*
X132239197Y-70173403D01*
X132052666Y-70020322D01*
X131839855Y-69906572D01*
X131608942Y-69836525D01*
X131428978Y-69818800D01*
X131308622Y-69818800D01*
X131128658Y-69836525D01*
X130897745Y-69906572D01*
X130684934Y-70020322D01*
X130498403Y-70173403D01*
X130345322Y-70359934D01*
X130231572Y-70572745D01*
X130161525Y-70803658D01*
X130137873Y-71043800D01*
X130059727Y-71043800D01*
X130036075Y-70803658D01*
X129966028Y-70572745D01*
X129852278Y-70359934D01*
X129699197Y-70173403D01*
X129512666Y-70020322D01*
X129299855Y-69906572D01*
X129068942Y-69836525D01*
X128888978Y-69818800D01*
X128768622Y-69818800D01*
X128588658Y-69836525D01*
X128357745Y-69906572D01*
X128144934Y-70020322D01*
X128008000Y-70132700D01*
X128008000Y-70031705D01*
X128389151Y-69650555D01*
X128588658Y-69711075D01*
X128768622Y-69728800D01*
X128888978Y-69728800D01*
X129068942Y-69711075D01*
X129299855Y-69641028D01*
X129512666Y-69527278D01*
X129699197Y-69374197D01*
X129852278Y-69187666D01*
X129966028Y-68974855D01*
X130036075Y-68743942D01*
X130059727Y-68503800D01*
X130137873Y-68503800D01*
X130161525Y-68743942D01*
X130231572Y-68974855D01*
X130345322Y-69187666D01*
X130498403Y-69374197D01*
X130684934Y-69527278D01*
X130897745Y-69641028D01*
X131128658Y-69711075D01*
X131308622Y-69728800D01*
X131428978Y-69728800D01*
X131608942Y-69711075D01*
X131839855Y-69641028D01*
X132052666Y-69527278D01*
X132239197Y-69374197D01*
X132392278Y-69187666D01*
X132506028Y-68974855D01*
X132576075Y-68743942D01*
X132599727Y-68503800D01*
X132576075Y-68263658D01*
X132506028Y-68032745D01*
X132392278Y-67819934D01*
X132239197Y-67633403D01*
X132052666Y-67480322D01*
X131839855Y-67366572D01*
X131608942Y-67296525D01*
X131428978Y-67278800D01*
X131308622Y-67278800D01*
X131128658Y-67296525D01*
X130897745Y-67366572D01*
X130684934Y-67480322D01*
X130498403Y-67633403D01*
X130345322Y-67819934D01*
X130231572Y-68032745D01*
X130161525Y-68263658D01*
X130137873Y-68503800D01*
X130059727Y-68503800D01*
X130036075Y-68263658D01*
X129966028Y-68032745D01*
X129852278Y-67819934D01*
X129699197Y-67633403D01*
X129512666Y-67480322D01*
X129299855Y-67366572D01*
X129068942Y-67296525D01*
X128888978Y-67278800D01*
X128768622Y-67278800D01*
X128588658Y-67296525D01*
X128357745Y-67366572D01*
X128144934Y-67480322D01*
X127958403Y-67633403D01*
X127805322Y-67819934D01*
X127691572Y-68032745D01*
X127621525Y-68263658D01*
X127597873Y-68503800D01*
X127621525Y-68743942D01*
X127682045Y-68943449D01*
X127171824Y-69453671D01*
X127152736Y-69469336D01*
X127090254Y-69545471D01*
X127043825Y-69632334D01*
X127041188Y-69641028D01*
X127015235Y-69726583D01*
X127005581Y-69824600D01*
X126434000Y-69824600D01*
X126434000Y-65963800D01*
X127597873Y-65963800D01*
X127621525Y-66203942D01*
X127691572Y-66434855D01*
X127805322Y-66647666D01*
X127958403Y-66834197D01*
X128144934Y-66987278D01*
X128357745Y-67101028D01*
X128588658Y-67171075D01*
X128768622Y-67188800D01*
X128888978Y-67188800D01*
X129068942Y-67171075D01*
X129299855Y-67101028D01*
X129512666Y-66987278D01*
X129699197Y-66834197D01*
X129852278Y-66647666D01*
X129966028Y-66434855D01*
X130036075Y-66203942D01*
X130059727Y-65963800D01*
X130036075Y-65723658D01*
X129966028Y-65492745D01*
X129852278Y-65279934D01*
X129699197Y-65093403D01*
X129512666Y-64940322D01*
X129299855Y-64826572D01*
X129068942Y-64756525D01*
X128888978Y-64738800D01*
X128768622Y-64738800D01*
X128588658Y-64756525D01*
X128357745Y-64826572D01*
X128144934Y-64940322D01*
X127958403Y-65093403D01*
X127805322Y-65279934D01*
X127691572Y-65492745D01*
X127621525Y-65723658D01*
X127597873Y-65963800D01*
X126434000Y-65963800D01*
X126434000Y-63423800D01*
X127597873Y-63423800D01*
X127621525Y-63663942D01*
X127691572Y-63894855D01*
X127805322Y-64107666D01*
X127958403Y-64294197D01*
X128144934Y-64447278D01*
X128357745Y-64561028D01*
X128588658Y-64631075D01*
X128768622Y-64648800D01*
X128888978Y-64648800D01*
X129068942Y-64631075D01*
X129299855Y-64561028D01*
X129512666Y-64447278D01*
X129699197Y-64294197D01*
X129852278Y-64107666D01*
X129966028Y-63894855D01*
X130036075Y-63663942D01*
X130059727Y-63423800D01*
X130137873Y-63423800D01*
X130161525Y-63663942D01*
X130231572Y-63894855D01*
X130345322Y-64107666D01*
X130498403Y-64294197D01*
X130684934Y-64447278D01*
X130897745Y-64561028D01*
X131128658Y-64631075D01*
X131308622Y-64648800D01*
X131428978Y-64648800D01*
X131608942Y-64631075D01*
X131839855Y-64561028D01*
X132052666Y-64447278D01*
X132239197Y-64294197D01*
X132392278Y-64107666D01*
X132506028Y-63894855D01*
X132576075Y-63663942D01*
X132599727Y-63423800D01*
X132576075Y-63183658D01*
X132506028Y-62952745D01*
X132392278Y-62739934D01*
X132239197Y-62553403D01*
X132052666Y-62400322D01*
X131839855Y-62286572D01*
X131608942Y-62216525D01*
X131428978Y-62198800D01*
X131308622Y-62198800D01*
X131128658Y-62216525D01*
X130897745Y-62286572D01*
X130684934Y-62400322D01*
X130498403Y-62553403D01*
X130345322Y-62739934D01*
X130231572Y-62952745D01*
X130161525Y-63183658D01*
X130137873Y-63423800D01*
X130059727Y-63423800D01*
X130036075Y-63183658D01*
X129966028Y-62952745D01*
X129852278Y-62739934D01*
X129699197Y-62553403D01*
X129512666Y-62400322D01*
X129299855Y-62286572D01*
X129068942Y-62216525D01*
X128888978Y-62198800D01*
X128768622Y-62198800D01*
X128588658Y-62216525D01*
X128357745Y-62286572D01*
X128144934Y-62400322D01*
X127958403Y-62553403D01*
X127805322Y-62739934D01*
X127691572Y-62952745D01*
X127621525Y-63183658D01*
X127597873Y-63423800D01*
X126434000Y-63423800D01*
X126434000Y-60883800D01*
X127597873Y-60883800D01*
X127621525Y-61123942D01*
X127691572Y-61354855D01*
X127805322Y-61567666D01*
X127958403Y-61754197D01*
X128144934Y-61907278D01*
X128357745Y-62021028D01*
X128588658Y-62091075D01*
X128768622Y-62108800D01*
X128888978Y-62108800D01*
X129068942Y-62091075D01*
X129299855Y-62021028D01*
X129512666Y-61907278D01*
X129699197Y-61754197D01*
X129852278Y-61567666D01*
X129966028Y-61354855D01*
X130036075Y-61123942D01*
X130059727Y-60883800D01*
X130137873Y-60883800D01*
X130161525Y-61123942D01*
X130231572Y-61354855D01*
X130345322Y-61567666D01*
X130498403Y-61754197D01*
X130684934Y-61907278D01*
X130897745Y-62021028D01*
X131128658Y-62091075D01*
X131308622Y-62108800D01*
X131428978Y-62108800D01*
X131608942Y-62091075D01*
X131839855Y-62021028D01*
X132052666Y-61907278D01*
X132239197Y-61754197D01*
X132392278Y-61567666D01*
X132506028Y-61354855D01*
X132576075Y-61123942D01*
X132599727Y-60883800D01*
X132576075Y-60643658D01*
X132506028Y-60412745D01*
X132392278Y-60199934D01*
X132239197Y-60013403D01*
X132052666Y-59860322D01*
X131839855Y-59746572D01*
X131608942Y-59676525D01*
X131428978Y-59658800D01*
X131308622Y-59658800D01*
X131128658Y-59676525D01*
X130897745Y-59746572D01*
X130684934Y-59860322D01*
X130498403Y-60013403D01*
X130345322Y-60199934D01*
X130231572Y-60412745D01*
X130161525Y-60643658D01*
X130137873Y-60883800D01*
X130059727Y-60883800D01*
X130036075Y-60643658D01*
X129966028Y-60412745D01*
X129852278Y-60199934D01*
X129699197Y-60013403D01*
X129512666Y-59860322D01*
X129299855Y-59746572D01*
X129068942Y-59676525D01*
X128888978Y-59658800D01*
X128768622Y-59658800D01*
X128588658Y-59676525D01*
X128357745Y-59746572D01*
X128144934Y-59860322D01*
X127958403Y-60013403D01*
X127805322Y-60199934D01*
X127691572Y-60412745D01*
X127621525Y-60643658D01*
X127597873Y-60883800D01*
X126434000Y-60883800D01*
X126434000Y-58343800D01*
X127597873Y-58343800D01*
X127621525Y-58583942D01*
X127691572Y-58814855D01*
X127805322Y-59027666D01*
X127958403Y-59214197D01*
X128144934Y-59367278D01*
X128357745Y-59481028D01*
X128588658Y-59551075D01*
X128768622Y-59568800D01*
X128888978Y-59568800D01*
X129068942Y-59551075D01*
X129299855Y-59481028D01*
X129512666Y-59367278D01*
X129699197Y-59214197D01*
X129852278Y-59027666D01*
X129966028Y-58814855D01*
X130036075Y-58583942D01*
X130059727Y-58343800D01*
X130137873Y-58343800D01*
X130161525Y-58583942D01*
X130231572Y-58814855D01*
X130345322Y-59027666D01*
X130498403Y-59214197D01*
X130684934Y-59367278D01*
X130897745Y-59481028D01*
X131128658Y-59551075D01*
X131308622Y-59568800D01*
X131428978Y-59568800D01*
X131608942Y-59551075D01*
X131839855Y-59481028D01*
X132052666Y-59367278D01*
X132239197Y-59214197D01*
X132392278Y-59027666D01*
X132506028Y-58814855D01*
X132576075Y-58583942D01*
X132599727Y-58343800D01*
X132576075Y-58103658D01*
X132506028Y-57872745D01*
X132392278Y-57659934D01*
X132239197Y-57473403D01*
X132052666Y-57320322D01*
X131839855Y-57206572D01*
X131608942Y-57136525D01*
X131428978Y-57118800D01*
X131308622Y-57118800D01*
X131128658Y-57136525D01*
X130897745Y-57206572D01*
X130684934Y-57320322D01*
X130498403Y-57473403D01*
X130345322Y-57659934D01*
X130231572Y-57872745D01*
X130161525Y-58103658D01*
X130137873Y-58343800D01*
X130059727Y-58343800D01*
X130036075Y-58103658D01*
X129966028Y-57872745D01*
X129852278Y-57659934D01*
X129699197Y-57473403D01*
X129512666Y-57320322D01*
X129299855Y-57206572D01*
X129068942Y-57136525D01*
X128888978Y-57118800D01*
X128768622Y-57118800D01*
X128588658Y-57136525D01*
X128357745Y-57206572D01*
X128144934Y-57320322D01*
X127958403Y-57473403D01*
X127805322Y-57659934D01*
X127691572Y-57872745D01*
X127621525Y-58103658D01*
X127597873Y-58343800D01*
X126434000Y-58343800D01*
X126434000Y-55803800D01*
X127597873Y-55803800D01*
X127621525Y-56043942D01*
X127691572Y-56274855D01*
X127805322Y-56487666D01*
X127958403Y-56674197D01*
X128144934Y-56827278D01*
X128357745Y-56941028D01*
X128588658Y-57011075D01*
X128768622Y-57028800D01*
X128888978Y-57028800D01*
X129068942Y-57011075D01*
X129299855Y-56941028D01*
X129512666Y-56827278D01*
X129699197Y-56674197D01*
X129852278Y-56487666D01*
X129966028Y-56274855D01*
X130036075Y-56043942D01*
X130059727Y-55803800D01*
X130137873Y-55803800D01*
X130161525Y-56043942D01*
X130231572Y-56274855D01*
X130345322Y-56487666D01*
X130498403Y-56674197D01*
X130684934Y-56827278D01*
X130897745Y-56941028D01*
X131128658Y-57011075D01*
X131308622Y-57028800D01*
X131428978Y-57028800D01*
X131608942Y-57011075D01*
X131839855Y-56941028D01*
X132052666Y-56827278D01*
X132239197Y-56674197D01*
X132392278Y-56487666D01*
X132506028Y-56274855D01*
X132576075Y-56043942D01*
X132599727Y-55803800D01*
X132594601Y-55751754D01*
X133317900Y-55751754D01*
X133317900Y-56008246D01*
X133367939Y-56259808D01*
X133466094Y-56496775D01*
X133608593Y-56710040D01*
X133789960Y-56891407D01*
X134003225Y-57033906D01*
X134240192Y-57132061D01*
X134330377Y-57150000D01*
X134240192Y-57167939D01*
X134003225Y-57266094D01*
X133789960Y-57408593D01*
X133608593Y-57589960D01*
X133466094Y-57803225D01*
X133367939Y-58040192D01*
X133317900Y-58291754D01*
X133317900Y-58548246D01*
X133367939Y-58799808D01*
X133466094Y-59036775D01*
X133608593Y-59250040D01*
X133789960Y-59431407D01*
X134003225Y-59573906D01*
X134240192Y-59672061D01*
X134330377Y-59690000D01*
X134240192Y-59707939D01*
X134003225Y-59806094D01*
X133789960Y-59948593D01*
X133608593Y-60129960D01*
X133466094Y-60343225D01*
X133367939Y-60580192D01*
X133317900Y-60831754D01*
X133317900Y-61088246D01*
X133367939Y-61339808D01*
X133466094Y-61576775D01*
X133608593Y-61790040D01*
X133789960Y-61971407D01*
X134003225Y-62113906D01*
X134240192Y-62212061D01*
X134330377Y-62230000D01*
X134240192Y-62247939D01*
X134003225Y-62346094D01*
X133789960Y-62488593D01*
X133608593Y-62669960D01*
X133466094Y-62883225D01*
X133367939Y-63120192D01*
X133317900Y-63371754D01*
X133317900Y-63628246D01*
X133367939Y-63879808D01*
X133466094Y-64116775D01*
X133608593Y-64330040D01*
X133789960Y-64511407D01*
X134003225Y-64653906D01*
X134240192Y-64752061D01*
X134330377Y-64770000D01*
X134240192Y-64787939D01*
X134003225Y-64886094D01*
X133789960Y-65028593D01*
X133608593Y-65209960D01*
X133466094Y-65423225D01*
X133367939Y-65660192D01*
X133317900Y-65911754D01*
X133317900Y-66168246D01*
X133367939Y-66419808D01*
X133466094Y-66656775D01*
X133608593Y-66870040D01*
X133789960Y-67051407D01*
X134003225Y-67193906D01*
X134240192Y-67292061D01*
X134330377Y-67310000D01*
X134240192Y-67327939D01*
X134003225Y-67426094D01*
X133789960Y-67568593D01*
X133608593Y-67749960D01*
X133466094Y-67963225D01*
X133367939Y-68200192D01*
X133317900Y-68451754D01*
X133317900Y-68708246D01*
X133367939Y-68959808D01*
X133466094Y-69196775D01*
X133608593Y-69410040D01*
X133789960Y-69591407D01*
X134003225Y-69733906D01*
X134240192Y-69832061D01*
X134330377Y-69850000D01*
X134240192Y-69867939D01*
X134003225Y-69966094D01*
X133789960Y-70108593D01*
X133608593Y-70289960D01*
X133466094Y-70503225D01*
X133367939Y-70740192D01*
X133317900Y-70991754D01*
X133317900Y-71248246D01*
X133367939Y-71499808D01*
X133466094Y-71736775D01*
X133608593Y-71950040D01*
X133789960Y-72131407D01*
X134003225Y-72273906D01*
X134240192Y-72372061D01*
X134330377Y-72390000D01*
X134240192Y-72407939D01*
X134003225Y-72506094D01*
X133789960Y-72648593D01*
X133608593Y-72829960D01*
X133466094Y-73043225D01*
X133367939Y-73280192D01*
X133317900Y-73531754D01*
X133317900Y-73788246D01*
X133367939Y-74039808D01*
X133466094Y-74276775D01*
X133608593Y-74490040D01*
X133789960Y-74671407D01*
X134003225Y-74813906D01*
X134240192Y-74912061D01*
X134330377Y-74930000D01*
X134240192Y-74947939D01*
X134003225Y-75046094D01*
X133789960Y-75188593D01*
X133608593Y-75369960D01*
X133466094Y-75583225D01*
X133367939Y-75820192D01*
X133317900Y-76071754D01*
X133317900Y-76328246D01*
X133367939Y-76579808D01*
X133466094Y-76816775D01*
X133608593Y-77030040D01*
X133789960Y-77211407D01*
X134003225Y-77353906D01*
X134240192Y-77452061D01*
X134330377Y-77470000D01*
X134240192Y-77487939D01*
X134003225Y-77586094D01*
X133789960Y-77728593D01*
X133608593Y-77909960D01*
X133466094Y-78123225D01*
X133367939Y-78360192D01*
X133317900Y-78611754D01*
X133317900Y-78868246D01*
X133367939Y-79119808D01*
X133466094Y-79356775D01*
X133608593Y-79570040D01*
X133789960Y-79751407D01*
X134003225Y-79893906D01*
X134240192Y-79992061D01*
X134330377Y-80010000D01*
X134240192Y-80027939D01*
X134003225Y-80126094D01*
X133789960Y-80268593D01*
X133608593Y-80449960D01*
X133466094Y-80663225D01*
X133367939Y-80900192D01*
X133317900Y-81151754D01*
X133317900Y-81408246D01*
X133367939Y-81659808D01*
X133466094Y-81896775D01*
X133608593Y-82110040D01*
X133789960Y-82291407D01*
X134003225Y-82433906D01*
X134240192Y-82532061D01*
X134330377Y-82550000D01*
X134240192Y-82567939D01*
X134003225Y-82666094D01*
X133789960Y-82808593D01*
X133608593Y-82989960D01*
X133466094Y-83203225D01*
X133367939Y-83440192D01*
X133317900Y-83691754D01*
X133317900Y-83948246D01*
X133367939Y-84199808D01*
X133466094Y-84436775D01*
X133608593Y-84650040D01*
X133789960Y-84831407D01*
X134003225Y-84973906D01*
X134240192Y-85072061D01*
X134330377Y-85090000D01*
X134240192Y-85107939D01*
X134003225Y-85206094D01*
X133789960Y-85348593D01*
X133608593Y-85529960D01*
X133466094Y-85743225D01*
X133367939Y-85980192D01*
X133317900Y-86231754D01*
X133317900Y-86488246D01*
X133367939Y-86739808D01*
X133466094Y-86976775D01*
X133608593Y-87190040D01*
X133789960Y-87371407D01*
X134003225Y-87513906D01*
X134240192Y-87612061D01*
X134330377Y-87630000D01*
X134240192Y-87647939D01*
X134003225Y-87746094D01*
X133789960Y-87888593D01*
X133608593Y-88069960D01*
X133466094Y-88283225D01*
X133367939Y-88520192D01*
X133317900Y-88771754D01*
X133317900Y-89028246D01*
X133367939Y-89279808D01*
X133466094Y-89516775D01*
X133608593Y-89730040D01*
X133789960Y-89911407D01*
X134003225Y-90053906D01*
X134240192Y-90152061D01*
X134330377Y-90170000D01*
X134240192Y-90187939D01*
X134003225Y-90286094D01*
X133789960Y-90428593D01*
X133608593Y-90609960D01*
X133466094Y-90823225D01*
X133367939Y-91060192D01*
X133317900Y-91311754D01*
X133317900Y-91568246D01*
X133367939Y-91819808D01*
X133466094Y-92056775D01*
X133608593Y-92270040D01*
X133789960Y-92451407D01*
X134003225Y-92593906D01*
X134240192Y-92692061D01*
X134330377Y-92710000D01*
X134240192Y-92727939D01*
X134003225Y-92826094D01*
X133789960Y-92968593D01*
X133608593Y-93149960D01*
X133466094Y-93363225D01*
X133367939Y-93600192D01*
X133317900Y-93851754D01*
X133317900Y-94108246D01*
X133367939Y-94359808D01*
X133466094Y-94596775D01*
X133608593Y-94810040D01*
X133789960Y-94991407D01*
X134003225Y-95133906D01*
X134240192Y-95232061D01*
X134330377Y-95250000D01*
X134240192Y-95267939D01*
X134003225Y-95366094D01*
X133789960Y-95508593D01*
X133608593Y-95689960D01*
X133466094Y-95903225D01*
X133367939Y-96140192D01*
X133317900Y-96391754D01*
X133317900Y-96648246D01*
X133367939Y-96899808D01*
X133466094Y-97136775D01*
X133608593Y-97350040D01*
X133789960Y-97531407D01*
X134003225Y-97673906D01*
X134240192Y-97772061D01*
X134330377Y-97790000D01*
X134240192Y-97807939D01*
X134003225Y-97906094D01*
X133789960Y-98048593D01*
X133608593Y-98229960D01*
X133466094Y-98443225D01*
X133367939Y-98680192D01*
X133317900Y-98931754D01*
X133317900Y-99188246D01*
X133367939Y-99439808D01*
X133466094Y-99676775D01*
X133608593Y-99890040D01*
X133789960Y-100071407D01*
X134003225Y-100213906D01*
X134240192Y-100312061D01*
X134330377Y-100330000D01*
X134240192Y-100347939D01*
X134003225Y-100446094D01*
X133789960Y-100588593D01*
X133608593Y-100769960D01*
X133466094Y-100983225D01*
X133367939Y-101220192D01*
X133317900Y-101471754D01*
X133317900Y-101728246D01*
X133367939Y-101979808D01*
X133466094Y-102216775D01*
X133608593Y-102430040D01*
X133789960Y-102611407D01*
X134003225Y-102753906D01*
X134240192Y-102852061D01*
X134491754Y-102902100D01*
X134748246Y-102902100D01*
X134999808Y-102852061D01*
X135236775Y-102753906D01*
X135450040Y-102611407D01*
X135631407Y-102430040D01*
X135773906Y-102216775D01*
X135872061Y-101979808D01*
X135922100Y-101728246D01*
X135922100Y-101471754D01*
X135872061Y-101220192D01*
X135773906Y-100983225D01*
X135631407Y-100769960D01*
X135450040Y-100588593D01*
X135236775Y-100446094D01*
X134999808Y-100347939D01*
X134909623Y-100330000D01*
X134999808Y-100312061D01*
X135236775Y-100213906D01*
X135450040Y-100071407D01*
X135631407Y-99890040D01*
X135773906Y-99676775D01*
X135872061Y-99439808D01*
X135922100Y-99188246D01*
X135922100Y-98931754D01*
X135872061Y-98680192D01*
X135773906Y-98443225D01*
X135631407Y-98229960D01*
X135450040Y-98048593D01*
X135236775Y-97906094D01*
X134999808Y-97807939D01*
X134909623Y-97790000D01*
X134999808Y-97772061D01*
X135236775Y-97673906D01*
X135450040Y-97531407D01*
X135631407Y-97350040D01*
X135773906Y-97136775D01*
X135872061Y-96899808D01*
X135922100Y-96648246D01*
X135922100Y-96391754D01*
X135872061Y-96140192D01*
X135773906Y-95903225D01*
X135631407Y-95689960D01*
X135450040Y-95508593D01*
X135236775Y-95366094D01*
X134999808Y-95267939D01*
X134909623Y-95250000D01*
X134999808Y-95232061D01*
X135236775Y-95133906D01*
X135450040Y-94991407D01*
X135631407Y-94810040D01*
X135773906Y-94596775D01*
X135872061Y-94359808D01*
X135922100Y-94108246D01*
X135922100Y-93851754D01*
X135872061Y-93600192D01*
X135773906Y-93363225D01*
X135631407Y-93149960D01*
X135450040Y-92968593D01*
X135236775Y-92826094D01*
X134999808Y-92727939D01*
X134909623Y-92710000D01*
X134999808Y-92692061D01*
X135236775Y-92593906D01*
X135450040Y-92451407D01*
X135631407Y-92270040D01*
X135773906Y-92056775D01*
X135872061Y-91819808D01*
X135922100Y-91568246D01*
X135922100Y-91311754D01*
X135872061Y-91060192D01*
X135773906Y-90823225D01*
X135631407Y-90609960D01*
X135450040Y-90428593D01*
X135236775Y-90286094D01*
X134999808Y-90187939D01*
X134909623Y-90170000D01*
X134999808Y-90152061D01*
X135236775Y-90053906D01*
X135450040Y-89911407D01*
X135631407Y-89730040D01*
X135773906Y-89516775D01*
X135872061Y-89279808D01*
X135922100Y-89028246D01*
X135922100Y-88771754D01*
X135872061Y-88520192D01*
X135773906Y-88283225D01*
X135631407Y-88069960D01*
X135450040Y-87888593D01*
X135236775Y-87746094D01*
X134999808Y-87647939D01*
X134909623Y-87630000D01*
X134999808Y-87612061D01*
X135236775Y-87513906D01*
X135450040Y-87371407D01*
X135631407Y-87190040D01*
X135773906Y-86976775D01*
X135872061Y-86739808D01*
X135922100Y-86488246D01*
X135922100Y-86231754D01*
X135872061Y-85980192D01*
X135773906Y-85743225D01*
X135631407Y-85529960D01*
X135450040Y-85348593D01*
X135236775Y-85206094D01*
X134999808Y-85107939D01*
X134909623Y-85090000D01*
X134999808Y-85072061D01*
X135236775Y-84973906D01*
X135450040Y-84831407D01*
X135631407Y-84650040D01*
X135773906Y-84436775D01*
X135872061Y-84199808D01*
X135922100Y-83948246D01*
X135922100Y-83691754D01*
X135872061Y-83440192D01*
X135773906Y-83203225D01*
X135631407Y-82989960D01*
X135450040Y-82808593D01*
X135236775Y-82666094D01*
X134999808Y-82567939D01*
X134909623Y-82550000D01*
X134999808Y-82532061D01*
X135236775Y-82433906D01*
X135450040Y-82291407D01*
X135631407Y-82110040D01*
X135773906Y-81896775D01*
X135872061Y-81659808D01*
X135922100Y-81408246D01*
X135922100Y-81151754D01*
X135872061Y-80900192D01*
X135773906Y-80663225D01*
X135631407Y-80449960D01*
X135450040Y-80268593D01*
X135236775Y-80126094D01*
X134999808Y-80027939D01*
X134909623Y-80010000D01*
X134999808Y-79992061D01*
X135236775Y-79893906D01*
X135450040Y-79751407D01*
X135631407Y-79570040D01*
X135773906Y-79356775D01*
X135872061Y-79119808D01*
X135922100Y-78868246D01*
X135922100Y-78611754D01*
X135872061Y-78360192D01*
X135773906Y-78123225D01*
X135631407Y-77909960D01*
X135450040Y-77728593D01*
X135236775Y-77586094D01*
X134999808Y-77487939D01*
X134909623Y-77470000D01*
X134999808Y-77452061D01*
X135236775Y-77353906D01*
X135450040Y-77211407D01*
X135631407Y-77030040D01*
X135773906Y-76816775D01*
X135872061Y-76579808D01*
X135922100Y-76328246D01*
X135922100Y-76071754D01*
X135872061Y-75820192D01*
X135773906Y-75583225D01*
X135631407Y-75369960D01*
X135450040Y-75188593D01*
X135236775Y-75046094D01*
X134999808Y-74947939D01*
X134909623Y-74930000D01*
X134999808Y-74912061D01*
X135236775Y-74813906D01*
X135450040Y-74671407D01*
X135631407Y-74490040D01*
X135773906Y-74276775D01*
X135872061Y-74039808D01*
X135922100Y-73788246D01*
X135922100Y-73531754D01*
X135872061Y-73280192D01*
X135773906Y-73043225D01*
X135631407Y-72829960D01*
X135450040Y-72648593D01*
X135236775Y-72506094D01*
X134999808Y-72407939D01*
X134909623Y-72390000D01*
X134999808Y-72372061D01*
X135236775Y-72273906D01*
X135450040Y-72131407D01*
X135631407Y-71950040D01*
X135773906Y-71736775D01*
X135872061Y-71499808D01*
X135922100Y-71248246D01*
X135922100Y-70991754D01*
X135872061Y-70740192D01*
X135773906Y-70503225D01*
X135631407Y-70289960D01*
X135516436Y-70174989D01*
X137655000Y-70174989D01*
X137655000Y-70327651D01*
X137684783Y-70477379D01*
X137743204Y-70618420D01*
X137828018Y-70745354D01*
X137935966Y-70853302D01*
X138062900Y-70938116D01*
X138203941Y-70996537D01*
X138353669Y-71026320D01*
X138497895Y-71026320D01*
X141978760Y-74507187D01*
X141978761Y-81969223D01*
X141876778Y-82071206D01*
X141791964Y-82198140D01*
X141733543Y-82339181D01*
X141703760Y-82488909D01*
X141703760Y-82641571D01*
X141733543Y-82791299D01*
X141791964Y-82932340D01*
X141876778Y-83059274D01*
X141984726Y-83167222D01*
X142111660Y-83252036D01*
X142252701Y-83310457D01*
X142300676Y-83320000D01*
X142106747Y-83320000D01*
X141501160Y-82714414D01*
X141501160Y-82570189D01*
X141471377Y-82420461D01*
X141412956Y-82279420D01*
X141328142Y-82152486D01*
X141220194Y-82044538D01*
X141093260Y-81959724D01*
X140952219Y-81901303D01*
X140802491Y-81871520D01*
X140649829Y-81871520D01*
X140500101Y-81901303D01*
X140359060Y-81959724D01*
X140232126Y-82044538D01*
X140124178Y-82152486D01*
X140039364Y-82279420D01*
X139980943Y-82420461D01*
X139951160Y-82570189D01*
X139951160Y-82722851D01*
X139980943Y-82872579D01*
X140039364Y-83013620D01*
X140124178Y-83140554D01*
X140232126Y-83248502D01*
X140359060Y-83333316D01*
X140500101Y-83391737D01*
X140649829Y-83421520D01*
X140794054Y-83421520D01*
X141528720Y-84156187D01*
X141544376Y-84175264D01*
X141620511Y-84237746D01*
X141707373Y-84284175D01*
X141801623Y-84312765D01*
X141875080Y-84320000D01*
X141875089Y-84320000D01*
X141899639Y-84322418D01*
X141924189Y-84320000D01*
X148657724Y-84320000D01*
X148706094Y-84436775D01*
X148848593Y-84650040D01*
X149029960Y-84831407D01*
X149243225Y-84973906D01*
X149480192Y-85072061D01*
X149570377Y-85090000D01*
X149480192Y-85107939D01*
X149243225Y-85206094D01*
X149029960Y-85348593D01*
X148848593Y-85529960D01*
X148706094Y-85743225D01*
X148607939Y-85980192D01*
X148557900Y-86231754D01*
X148557900Y-86488246D01*
X148607939Y-86739808D01*
X148706094Y-86976775D01*
X148848593Y-87190040D01*
X149029960Y-87371407D01*
X149243225Y-87513906D01*
X149480192Y-87612061D01*
X149570377Y-87630000D01*
X149480192Y-87647939D01*
X149243225Y-87746094D01*
X149029960Y-87888593D01*
X148848593Y-88069960D01*
X148706094Y-88283225D01*
X148607939Y-88520192D01*
X148557900Y-88771754D01*
X148557900Y-89028246D01*
X148607939Y-89279808D01*
X148706094Y-89516775D01*
X148848593Y-89730040D01*
X149029960Y-89911407D01*
X149243225Y-90053906D01*
X149480192Y-90152061D01*
X149570377Y-90170000D01*
X149480192Y-90187939D01*
X149243225Y-90286094D01*
X149029960Y-90428593D01*
X148848593Y-90609960D01*
X148706094Y-90823225D01*
X148607939Y-91060192D01*
X148557900Y-91311754D01*
X148557900Y-91568246D01*
X148607939Y-91819808D01*
X148706094Y-92056775D01*
X148848593Y-92270040D01*
X149029960Y-92451407D01*
X149243225Y-92593906D01*
X149480192Y-92692061D01*
X149570377Y-92710000D01*
X149480192Y-92727939D01*
X149243225Y-92826094D01*
X149029960Y-92968593D01*
X148848593Y-93149960D01*
X148706094Y-93363225D01*
X148607939Y-93600192D01*
X148557900Y-93851754D01*
X148557900Y-94108246D01*
X148607939Y-94359808D01*
X148706094Y-94596775D01*
X148848593Y-94810040D01*
X149029960Y-94991407D01*
X149243225Y-95133906D01*
X149480192Y-95232061D01*
X149570377Y-95250000D01*
X149480192Y-95267939D01*
X149243225Y-95366094D01*
X149029960Y-95508593D01*
X148848593Y-95689960D01*
X148706094Y-95903225D01*
X148607939Y-96140192D01*
X148557900Y-96391754D01*
X148557900Y-96648246D01*
X148607939Y-96899808D01*
X148706094Y-97136775D01*
X148848593Y-97350040D01*
X149029960Y-97531407D01*
X149243225Y-97673906D01*
X149480192Y-97772061D01*
X149570377Y-97790000D01*
X149480192Y-97807939D01*
X149243225Y-97906094D01*
X149029960Y-98048593D01*
X148848593Y-98229960D01*
X148706094Y-98443225D01*
X148607939Y-98680192D01*
X148557900Y-98931754D01*
X148557900Y-99188246D01*
X148607939Y-99439808D01*
X148706094Y-99676775D01*
X148848593Y-99890040D01*
X149029960Y-100071407D01*
X149243225Y-100213906D01*
X149480192Y-100312061D01*
X149570377Y-100330000D01*
X149480192Y-100347939D01*
X149243225Y-100446094D01*
X149029960Y-100588593D01*
X148848593Y-100769960D01*
X148706094Y-100983225D01*
X148607939Y-101220192D01*
X148557900Y-101471754D01*
X148557900Y-101728246D01*
X148607939Y-101979808D01*
X148706094Y-102216775D01*
X148848593Y-102430040D01*
X149029960Y-102611407D01*
X149243225Y-102753906D01*
X149480192Y-102852061D01*
X149570377Y-102870000D01*
X149480192Y-102887939D01*
X149243225Y-102986094D01*
X149029960Y-103128593D01*
X148848593Y-103309960D01*
X148706094Y-103523225D01*
X148607939Y-103760192D01*
X148557900Y-104011754D01*
X148557900Y-104268246D01*
X148607939Y-104519808D01*
X148706094Y-104756775D01*
X148848593Y-104970040D01*
X149029960Y-105151407D01*
X149243225Y-105293906D01*
X149480192Y-105392061D01*
X149731754Y-105442100D01*
X149988246Y-105442100D01*
X150239808Y-105392061D01*
X150476775Y-105293906D01*
X150690040Y-105151407D01*
X150871407Y-104970040D01*
X151013906Y-104756775D01*
X151112061Y-104519808D01*
X151162100Y-104268246D01*
X151162100Y-104011754D01*
X151112061Y-103760192D01*
X151013906Y-103523225D01*
X150871407Y-103309960D01*
X150690040Y-103128593D01*
X150476775Y-102986094D01*
X150239808Y-102887939D01*
X150149623Y-102870000D01*
X150239808Y-102852061D01*
X150476775Y-102753906D01*
X150690040Y-102611407D01*
X150871407Y-102430040D01*
X151013906Y-102216775D01*
X151112061Y-101979808D01*
X151162100Y-101728246D01*
X151162100Y-101471754D01*
X151112061Y-101220192D01*
X151013906Y-100983225D01*
X150871407Y-100769960D01*
X150690040Y-100588593D01*
X150476775Y-100446094D01*
X150239808Y-100347939D01*
X150149623Y-100330000D01*
X150239808Y-100312061D01*
X150476775Y-100213906D01*
X150690040Y-100071407D01*
X150871407Y-99890040D01*
X151013906Y-99676775D01*
X151112061Y-99439808D01*
X151162100Y-99188246D01*
X151162100Y-98931754D01*
X151112061Y-98680192D01*
X151013906Y-98443225D01*
X150871407Y-98229960D01*
X150690040Y-98048593D01*
X150476775Y-97906094D01*
X150239808Y-97807939D01*
X150149623Y-97790000D01*
X150239808Y-97772061D01*
X150476775Y-97673906D01*
X150690040Y-97531407D01*
X150871407Y-97350040D01*
X151013906Y-97136775D01*
X151112061Y-96899808D01*
X151162100Y-96648246D01*
X151162100Y-96391754D01*
X151112061Y-96140192D01*
X151013906Y-95903225D01*
X150871407Y-95689960D01*
X150690040Y-95508593D01*
X150476775Y-95366094D01*
X150239808Y-95267939D01*
X150149623Y-95250000D01*
X150239808Y-95232061D01*
X150476775Y-95133906D01*
X150690040Y-94991407D01*
X150871407Y-94810040D01*
X151013906Y-94596775D01*
X151112061Y-94359808D01*
X151162100Y-94108246D01*
X151162100Y-93851754D01*
X151112061Y-93600192D01*
X151013906Y-93363225D01*
X150871407Y-93149960D01*
X150690040Y-92968593D01*
X150476775Y-92826094D01*
X150239808Y-92727939D01*
X150149623Y-92710000D01*
X150239808Y-92692061D01*
X150476775Y-92593906D01*
X150690040Y-92451407D01*
X150871407Y-92270040D01*
X151013906Y-92056775D01*
X151112061Y-91819808D01*
X151162100Y-91568246D01*
X151162100Y-91311754D01*
X151112061Y-91060192D01*
X151013906Y-90823225D01*
X150871407Y-90609960D01*
X150690040Y-90428593D01*
X150476775Y-90286094D01*
X150239808Y-90187939D01*
X150149623Y-90170000D01*
X150239808Y-90152061D01*
X150476775Y-90053906D01*
X150690040Y-89911407D01*
X150871407Y-89730040D01*
X151013906Y-89516775D01*
X151112061Y-89279808D01*
X151162100Y-89028246D01*
X151162100Y-88771754D01*
X151112061Y-88520192D01*
X151013906Y-88283225D01*
X150871407Y-88069960D01*
X150690040Y-87888593D01*
X150476775Y-87746094D01*
X150239808Y-87647939D01*
X150149623Y-87630000D01*
X150239808Y-87612061D01*
X150476775Y-87513906D01*
X150690040Y-87371407D01*
X150871407Y-87190040D01*
X151013906Y-86976775D01*
X151112061Y-86739808D01*
X151162100Y-86488246D01*
X151162100Y-86231754D01*
X151112061Y-85980192D01*
X151013906Y-85743225D01*
X150871407Y-85529960D01*
X150690040Y-85348593D01*
X150476775Y-85206094D01*
X150239808Y-85107939D01*
X150149623Y-85090000D01*
X150239808Y-85072061D01*
X150476775Y-84973906D01*
X150690040Y-84831407D01*
X150871407Y-84650040D01*
X151013906Y-84436775D01*
X151112061Y-84199808D01*
X151162100Y-83948246D01*
X151162100Y-83691754D01*
X151112061Y-83440192D01*
X151013906Y-83203225D01*
X150871407Y-82989960D01*
X150690040Y-82808593D01*
X150476775Y-82666094D01*
X150239808Y-82567939D01*
X150149623Y-82550000D01*
X150239808Y-82532061D01*
X150476775Y-82433906D01*
X150690040Y-82291407D01*
X150871407Y-82110040D01*
X151013906Y-81896775D01*
X151112061Y-81659808D01*
X151162100Y-81408246D01*
X151162100Y-81151754D01*
X151112061Y-80900192D01*
X151013906Y-80663225D01*
X150871407Y-80449960D01*
X150690040Y-80268593D01*
X150476775Y-80126094D01*
X150239808Y-80027939D01*
X150149623Y-80010000D01*
X150239808Y-79992061D01*
X150476775Y-79893906D01*
X150690040Y-79751407D01*
X150871407Y-79570040D01*
X151013906Y-79356775D01*
X151112061Y-79119808D01*
X151162100Y-78868246D01*
X151162100Y-78611754D01*
X151112061Y-78360192D01*
X151013906Y-78123225D01*
X150871407Y-77909960D01*
X150690040Y-77728593D01*
X150476775Y-77586094D01*
X150239808Y-77487939D01*
X150149623Y-77470000D01*
X150239808Y-77452061D01*
X150476775Y-77353906D01*
X150690040Y-77211407D01*
X150871407Y-77030040D01*
X151013906Y-76816775D01*
X151112061Y-76579808D01*
X151162100Y-76328246D01*
X151162100Y-76071754D01*
X151112061Y-75820192D01*
X151013906Y-75583225D01*
X150871407Y-75369960D01*
X150690040Y-75188593D01*
X150476775Y-75046094D01*
X150239808Y-74947939D01*
X150149623Y-74930000D01*
X150239808Y-74912061D01*
X150476775Y-74813906D01*
X150690040Y-74671407D01*
X150871407Y-74490040D01*
X151013906Y-74276775D01*
X151112061Y-74039808D01*
X151162100Y-73788246D01*
X151162100Y-73531754D01*
X151112061Y-73280192D01*
X151013906Y-73043225D01*
X150871407Y-72829960D01*
X150690040Y-72648593D01*
X150476775Y-72506094D01*
X150239808Y-72407939D01*
X150149623Y-72390000D01*
X150239808Y-72372061D01*
X150476775Y-72273906D01*
X150690040Y-72131407D01*
X150871407Y-71950040D01*
X151013906Y-71736775D01*
X151112061Y-71499808D01*
X151162100Y-71248246D01*
X151162100Y-70991754D01*
X151112061Y-70740192D01*
X151013906Y-70503225D01*
X150871407Y-70289960D01*
X150690040Y-70108593D01*
X150476775Y-69966094D01*
X150239808Y-69867939D01*
X150149623Y-69850000D01*
X150239808Y-69832061D01*
X150476775Y-69733906D01*
X150690040Y-69591407D01*
X150871407Y-69410040D01*
X151013906Y-69196775D01*
X151112061Y-68959808D01*
X151162100Y-68708246D01*
X151162100Y-68451754D01*
X151112061Y-68200192D01*
X151013906Y-67963225D01*
X150871407Y-67749960D01*
X150690040Y-67568593D01*
X150476775Y-67426094D01*
X150239808Y-67327939D01*
X150149623Y-67310000D01*
X150239808Y-67292061D01*
X150476775Y-67193906D01*
X150690040Y-67051407D01*
X150871407Y-66870040D01*
X151013906Y-66656775D01*
X151112061Y-66419808D01*
X151162100Y-66168246D01*
X151162100Y-65911754D01*
X151112061Y-65660192D01*
X151013906Y-65423225D01*
X150871407Y-65209960D01*
X150690040Y-65028593D01*
X150476775Y-64886094D01*
X150239808Y-64787939D01*
X150149623Y-64770000D01*
X150239808Y-64752061D01*
X150476775Y-64653906D01*
X150690040Y-64511407D01*
X150871407Y-64330040D01*
X151013906Y-64116775D01*
X151112061Y-63879808D01*
X151162100Y-63628246D01*
X151162100Y-63371754D01*
X151112061Y-63120192D01*
X151013906Y-62883225D01*
X150871407Y-62669960D01*
X150690040Y-62488593D01*
X150476775Y-62346094D01*
X150239808Y-62247939D01*
X150149623Y-62230000D01*
X150239808Y-62212061D01*
X150476775Y-62113906D01*
X150690040Y-61971407D01*
X150871407Y-61790040D01*
X151013906Y-61576775D01*
X151112061Y-61339808D01*
X151162100Y-61088246D01*
X151162100Y-60831754D01*
X151112061Y-60580192D01*
X151013906Y-60343225D01*
X150871407Y-60129960D01*
X150690040Y-59948593D01*
X150476775Y-59806094D01*
X150239808Y-59707939D01*
X150149623Y-59690000D01*
X150239808Y-59672061D01*
X150476775Y-59573906D01*
X150690040Y-59431407D01*
X150871407Y-59250040D01*
X151013906Y-59036775D01*
X151112061Y-58799808D01*
X151162100Y-58548246D01*
X151162100Y-58291754D01*
X151112061Y-58040192D01*
X151013906Y-57803225D01*
X150871407Y-57589960D01*
X150690040Y-57408593D01*
X150476775Y-57266094D01*
X150239808Y-57167939D01*
X150149623Y-57150000D01*
X150239808Y-57132061D01*
X150476775Y-57033906D01*
X150690040Y-56891407D01*
X150871407Y-56710040D01*
X151013906Y-56496775D01*
X151112061Y-56259808D01*
X151162100Y-56008246D01*
X151162100Y-55751754D01*
X151112061Y-55500192D01*
X151013906Y-55263225D01*
X150871407Y-55049960D01*
X150690040Y-54868593D01*
X150476775Y-54726094D01*
X150239808Y-54627939D01*
X149988246Y-54577900D01*
X149731754Y-54577900D01*
X149480192Y-54627939D01*
X149243225Y-54726094D01*
X149029960Y-54868593D01*
X148848593Y-55049960D01*
X148706094Y-55263225D01*
X148607939Y-55500192D01*
X148557900Y-55751754D01*
X148557900Y-56008246D01*
X148607939Y-56259808D01*
X148706094Y-56496775D01*
X148848593Y-56710040D01*
X149029960Y-56891407D01*
X149243225Y-57033906D01*
X149480192Y-57132061D01*
X149570377Y-57150000D01*
X149480192Y-57167939D01*
X149243225Y-57266094D01*
X149029960Y-57408593D01*
X148848593Y-57589960D01*
X148706094Y-57803225D01*
X148607939Y-58040192D01*
X148557900Y-58291754D01*
X148557900Y-58548246D01*
X148607939Y-58799808D01*
X148706094Y-59036775D01*
X148848593Y-59250040D01*
X149029960Y-59431407D01*
X149243225Y-59573906D01*
X149480192Y-59672061D01*
X149570377Y-59690000D01*
X149480192Y-59707939D01*
X149243225Y-59806094D01*
X149029960Y-59948593D01*
X148848593Y-60129960D01*
X148706094Y-60343225D01*
X148607939Y-60580192D01*
X148557900Y-60831754D01*
X148557900Y-61088246D01*
X148607939Y-61339808D01*
X148706094Y-61576775D01*
X148848593Y-61790040D01*
X149029960Y-61971407D01*
X149243225Y-62113906D01*
X149480192Y-62212061D01*
X149570377Y-62230000D01*
X149480192Y-62247939D01*
X149243225Y-62346094D01*
X149029960Y-62488593D01*
X148848593Y-62669960D01*
X148706094Y-62883225D01*
X148607939Y-63120192D01*
X148557900Y-63371754D01*
X148557900Y-63628246D01*
X148607939Y-63879808D01*
X148706094Y-64116775D01*
X148848593Y-64330040D01*
X149029960Y-64511407D01*
X149243225Y-64653906D01*
X149480192Y-64752061D01*
X149570377Y-64770000D01*
X149480192Y-64787939D01*
X149243225Y-64886094D01*
X149029960Y-65028593D01*
X148848593Y-65209960D01*
X148706094Y-65423225D01*
X148607939Y-65660192D01*
X148557900Y-65911754D01*
X148557900Y-66168246D01*
X148607939Y-66419808D01*
X148706094Y-66656775D01*
X148848593Y-66870040D01*
X149029960Y-67051407D01*
X149243225Y-67193906D01*
X149480192Y-67292061D01*
X149570377Y-67310000D01*
X149480192Y-67327939D01*
X149243225Y-67426094D01*
X149029960Y-67568593D01*
X148848593Y-67749960D01*
X148706094Y-67963225D01*
X148607939Y-68200192D01*
X148557900Y-68451754D01*
X148557900Y-68708246D01*
X148607939Y-68959808D01*
X148706094Y-69196775D01*
X148848593Y-69410040D01*
X149029960Y-69591407D01*
X149243225Y-69733906D01*
X149480192Y-69832061D01*
X149570377Y-69850000D01*
X149480192Y-69867939D01*
X149243225Y-69966094D01*
X149029960Y-70108593D01*
X148848593Y-70289960D01*
X148706094Y-70503225D01*
X148607939Y-70740192D01*
X148557900Y-70991754D01*
X148557900Y-71248246D01*
X148607939Y-71499808D01*
X148706094Y-71736775D01*
X148848593Y-71950040D01*
X149029960Y-72131407D01*
X149243225Y-72273906D01*
X149480192Y-72372061D01*
X149570377Y-72390000D01*
X149480192Y-72407939D01*
X149243225Y-72506094D01*
X149029960Y-72648593D01*
X148848593Y-72829960D01*
X148706094Y-73043225D01*
X148607939Y-73280192D01*
X148557900Y-73531754D01*
X148557900Y-73788246D01*
X148607939Y-74039808D01*
X148706094Y-74276775D01*
X148848593Y-74490040D01*
X149029960Y-74671407D01*
X149243225Y-74813906D01*
X149480192Y-74912061D01*
X149570377Y-74930000D01*
X149480192Y-74947939D01*
X149243225Y-75046094D01*
X149029960Y-75188593D01*
X148848593Y-75369960D01*
X148706094Y-75583225D01*
X148607939Y-75820192D01*
X148557900Y-76071754D01*
X148557900Y-76328246D01*
X148607939Y-76579808D01*
X148706094Y-76816775D01*
X148848593Y-77030040D01*
X149029960Y-77211407D01*
X149243225Y-77353906D01*
X149480192Y-77452061D01*
X149570377Y-77470000D01*
X149480192Y-77487939D01*
X149243225Y-77586094D01*
X149029960Y-77728593D01*
X148848593Y-77909960D01*
X148706094Y-78123225D01*
X148607939Y-78360192D01*
X148557900Y-78611754D01*
X148557900Y-78868246D01*
X148607939Y-79119808D01*
X148706094Y-79356775D01*
X148848593Y-79570040D01*
X149029960Y-79751407D01*
X149243225Y-79893906D01*
X149480192Y-79992061D01*
X149570377Y-80010000D01*
X149480192Y-80027939D01*
X149243225Y-80126094D01*
X149029960Y-80268593D01*
X148848593Y-80449960D01*
X148706094Y-80663225D01*
X148607939Y-80900192D01*
X148557900Y-81151754D01*
X148557900Y-81408246D01*
X148607939Y-81659808D01*
X148706094Y-81896775D01*
X148848593Y-82110040D01*
X149029960Y-82291407D01*
X149243225Y-82433906D01*
X149480192Y-82532061D01*
X149570377Y-82550000D01*
X149480192Y-82567939D01*
X149243225Y-82666094D01*
X149029960Y-82808593D01*
X148848593Y-82989960D01*
X148706094Y-83203225D01*
X148657724Y-83320000D01*
X142656844Y-83320000D01*
X142704819Y-83310457D01*
X142845860Y-83252036D01*
X142972794Y-83167222D01*
X143080742Y-83059274D01*
X143165556Y-82932340D01*
X143223977Y-82791299D01*
X143253760Y-82641571D01*
X143253760Y-82488909D01*
X143223977Y-82339181D01*
X143165556Y-82198140D01*
X143080742Y-82071206D01*
X142978760Y-81969224D01*
X142978760Y-74324629D01*
X142981178Y-74300079D01*
X142978760Y-74275529D01*
X142978760Y-74275520D01*
X142971525Y-74202063D01*
X142942935Y-74107813D01*
X142896506Y-74020951D01*
X142834024Y-73944816D01*
X142814947Y-73929160D01*
X139205000Y-70319215D01*
X139205000Y-70174989D01*
X139175217Y-70025261D01*
X139116796Y-69884220D01*
X139031982Y-69757286D01*
X138924034Y-69649338D01*
X138797100Y-69564524D01*
X138656059Y-69506103D01*
X138506331Y-69476320D01*
X138353669Y-69476320D01*
X138203941Y-69506103D01*
X138062900Y-69564524D01*
X137935966Y-69649338D01*
X137828018Y-69757286D01*
X137743204Y-69884220D01*
X137684783Y-70025261D01*
X137655000Y-70174989D01*
X135516436Y-70174989D01*
X135450040Y-70108593D01*
X135236775Y-69966094D01*
X134999808Y-69867939D01*
X134909623Y-69850000D01*
X134999808Y-69832061D01*
X135236775Y-69733906D01*
X135450040Y-69591407D01*
X135631407Y-69410040D01*
X135773906Y-69196775D01*
X135872061Y-68959808D01*
X135922100Y-68708246D01*
X135922100Y-68451754D01*
X135872061Y-68200192D01*
X135773906Y-67963225D01*
X135631407Y-67749960D01*
X135450040Y-67568593D01*
X135236775Y-67426094D01*
X134999808Y-67327939D01*
X134909623Y-67310000D01*
X134999808Y-67292061D01*
X135236775Y-67193906D01*
X135450040Y-67051407D01*
X135631407Y-66870040D01*
X135773906Y-66656775D01*
X135872061Y-66419808D01*
X135922100Y-66168246D01*
X135922100Y-65911754D01*
X135872061Y-65660192D01*
X135773906Y-65423225D01*
X135631407Y-65209960D01*
X135450040Y-65028593D01*
X135236775Y-64886094D01*
X134999808Y-64787939D01*
X134909623Y-64770000D01*
X134999808Y-64752061D01*
X135236775Y-64653906D01*
X135450040Y-64511407D01*
X135631407Y-64330040D01*
X135773906Y-64116775D01*
X135872061Y-63879808D01*
X135922100Y-63628246D01*
X135922100Y-63371754D01*
X135872061Y-63120192D01*
X135773906Y-62883225D01*
X135631407Y-62669960D01*
X135450040Y-62488593D01*
X135236775Y-62346094D01*
X134999808Y-62247939D01*
X134909623Y-62230000D01*
X134999808Y-62212061D01*
X135236775Y-62113906D01*
X135450040Y-61971407D01*
X135631407Y-61790040D01*
X135773906Y-61576775D01*
X135872061Y-61339808D01*
X135922100Y-61088246D01*
X135922100Y-60831754D01*
X135872061Y-60580192D01*
X135773906Y-60343225D01*
X135631407Y-60129960D01*
X135450040Y-59948593D01*
X135236775Y-59806094D01*
X134999808Y-59707939D01*
X134909623Y-59690000D01*
X134999808Y-59672061D01*
X135236775Y-59573906D01*
X135450040Y-59431407D01*
X135631407Y-59250040D01*
X135773906Y-59036775D01*
X135872061Y-58799808D01*
X135922100Y-58548246D01*
X135922100Y-58291754D01*
X135872061Y-58040192D01*
X135773906Y-57803225D01*
X135631407Y-57589960D01*
X135450040Y-57408593D01*
X135236775Y-57266094D01*
X134999808Y-57167939D01*
X134909623Y-57150000D01*
X134999808Y-57132061D01*
X135236775Y-57033906D01*
X135450040Y-56891407D01*
X135631407Y-56710040D01*
X135773906Y-56496775D01*
X135872061Y-56259808D01*
X135922100Y-56008246D01*
X135922100Y-55751754D01*
X135872061Y-55500192D01*
X135773906Y-55263225D01*
X135631407Y-55049960D01*
X135450040Y-54868593D01*
X135236775Y-54726094D01*
X134999808Y-54627939D01*
X134748246Y-54577900D01*
X134491754Y-54577900D01*
X134240192Y-54627939D01*
X134003225Y-54726094D01*
X133789960Y-54868593D01*
X133608593Y-55049960D01*
X133466094Y-55263225D01*
X133367939Y-55500192D01*
X133317900Y-55751754D01*
X132594601Y-55751754D01*
X132576075Y-55563658D01*
X132506028Y-55332745D01*
X132392278Y-55119934D01*
X132239197Y-54933403D01*
X132052666Y-54780322D01*
X131839855Y-54666572D01*
X131608942Y-54596525D01*
X131428978Y-54578800D01*
X131308622Y-54578800D01*
X131128658Y-54596525D01*
X130897745Y-54666572D01*
X130684934Y-54780322D01*
X130498403Y-54933403D01*
X130345322Y-55119934D01*
X130231572Y-55332745D01*
X130161525Y-55563658D01*
X130137873Y-55803800D01*
X130059727Y-55803800D01*
X130036075Y-55563658D01*
X129966028Y-55332745D01*
X129852278Y-55119934D01*
X129699197Y-54933403D01*
X129512666Y-54780322D01*
X129299855Y-54666572D01*
X129068942Y-54596525D01*
X128888978Y-54578800D01*
X128768622Y-54578800D01*
X128588658Y-54596525D01*
X128357745Y-54666572D01*
X128144934Y-54780322D01*
X127958403Y-54933403D01*
X127805322Y-55119934D01*
X127691572Y-55332745D01*
X127621525Y-55563658D01*
X127597873Y-55803800D01*
X126434000Y-55803800D01*
X126434000Y-53536000D01*
X151767000Y-53536000D01*
X151767000Y-106302231D01*
M02*
