M48
; DRILL file {KiCad (5.1.4)-1} date 17/01/2021 04:38:24
; FORMAT={-:-/ absolute / inch / decimal}
; #@! TF.CreationDate,2021-01-17T04:38:24+00:00
; #@! TF.GenerationSoftware,Kicad,Pcbnew,(5.1.4)-1
FMAT,2
INCH
T1C0.0157
T2C0.0394
T3C0.0591
%
G90
G05
T1
X5.193Y-3.142
X5.45Y-2.7658
X5.5404Y-3.2538
X5.6094Y-3.2506
T2
X5.073Y-3.073
X5.073Y-3.173
X5.072Y-2.197
X5.072Y-2.297
X5.072Y-2.397
X5.072Y-2.497
X5.072Y-2.597
X5.072Y-2.697
X5.072Y-2.797
X5.072Y-2.897
X5.172Y-2.197
X5.172Y-2.297
X5.172Y-2.397
X5.172Y-2.497
X5.172Y-2.597
X5.172Y-2.697
X5.172Y-2.797
X5.172Y-2.897
T3
X5.3Y-2.2
X5.3Y-2.3
X5.3Y-2.4
X5.3Y-2.5
X5.3Y-2.6
X5.3Y-2.7
X5.3Y-2.8
X5.3Y-2.9
X5.3Y-3.0
X5.3Y-3.1
X5.3Y-3.2
X5.3Y-3.3
X5.3Y-3.4
X5.3Y-3.5
X5.3Y-3.6
X5.3Y-3.7
X5.3Y-3.8
X5.3Y-3.9
X5.3Y-4.0
X5.3Y-4.1
X5.9Y-2.2
X5.9Y-2.3
X5.9Y-2.4
X5.9Y-2.5
X5.9Y-2.6
X5.9Y-2.7
X5.9Y-2.8
X5.9Y-2.9
X5.9Y-3.0
X5.9Y-3.1
X5.9Y-3.2
X5.9Y-3.3
X5.9Y-3.4
X5.9Y-3.5
X5.9Y-3.6
X5.9Y-3.7
X5.9Y-3.8
X5.9Y-3.9
X5.9Y-4.0
X5.9Y-4.1
T0
M30
