G04 #@! TF.GenerationSoftware,KiCad,Pcbnew,(5.1.4)-1*
G04 #@! TF.CreationDate,2020-02-28T00:59:22+00:00*
G04 #@! TF.ProjectId,rgb-to-hdmi,7267622d-746f-42d6-9864-6d692e6b6963,rev?*
G04 #@! TF.SameCoordinates,Original*
G04 #@! TF.FileFunction,Legend,Top*
G04 #@! TF.FilePolarity,Positive*
%FSLAX46Y46*%
G04 Gerber Fmt 4.6, Leading zero omitted, Abs format (unit mm)*
G04 Created by KiCad (PCBNEW (5.1.4)-1) date 2020-02-28 00:59:22*
%MOMM*%
%LPD*%
G04 APERTURE LIST*
%ADD10C,0.120000*%
%ADD11C,0.150000*%
%ADD12C,0.130000*%
%ADD13C,0.200000*%
G04 APERTURE END LIST*
D10*
X21974380Y-47572864D02*
X22507714Y-48372864D01*
X22507714Y-47572864D02*
X21974380Y-48372864D01*
X23231523Y-48372864D02*
X22774380Y-48372864D01*
X23002952Y-48372864D02*
X23002952Y-47572864D01*
X22926761Y-47687150D01*
X22850571Y-47763340D01*
X22774380Y-47801436D01*
X28354380Y-46442864D02*
X28887714Y-47242864D01*
X28887714Y-46442864D02*
X28354380Y-47242864D01*
X29154380Y-46519055D02*
X29192476Y-46480960D01*
X29268666Y-46442864D01*
X29459142Y-46442864D01*
X29535333Y-46480960D01*
X29573428Y-46519055D01*
X29611523Y-46595245D01*
X29611523Y-46671436D01*
X29573428Y-46785721D01*
X29116285Y-47242864D01*
X29611523Y-47242864D01*
D11*
X25642000Y-35620960D02*
X25184800Y-35163760D01*
X26150000Y-35620960D02*
X25642000Y-35620960D01*
X25642000Y-45780960D02*
X25438800Y-45577760D01*
X26150000Y-45780960D02*
X25642000Y-45780960D01*
X25642000Y-43240960D02*
X25184800Y-42783760D01*
X26150000Y-43240960D02*
X25642000Y-43240960D01*
X25642000Y-40700960D02*
X25184800Y-40243760D01*
X26175400Y-40700960D02*
X25642000Y-40700960D01*
X25642000Y-38160960D02*
X25184800Y-37703760D01*
X26150000Y-38160960D02*
X25642000Y-38160960D01*
X71290714Y-46334940D02*
X71290714Y-45334940D01*
X71671666Y-45334940D01*
X71766904Y-45382560D01*
X71814523Y-45430179D01*
X71862142Y-45525417D01*
X71862142Y-45668274D01*
X71814523Y-45763512D01*
X71766904Y-45811131D01*
X71671666Y-45858750D01*
X71290714Y-45858750D01*
X72814523Y-46334940D02*
X72243095Y-46334940D01*
X72528809Y-46334940D02*
X72528809Y-45334940D01*
X72433571Y-45477798D01*
X72338333Y-45573036D01*
X72243095Y-45620655D01*
X73290714Y-46334940D02*
X73481190Y-46334940D01*
X73576428Y-46287321D01*
X73624047Y-46239702D01*
X73719285Y-46096845D01*
X73766904Y-45906369D01*
X73766904Y-45525417D01*
X73719285Y-45430179D01*
X73671666Y-45382560D01*
X73576428Y-45334940D01*
X73385952Y-45334940D01*
X73290714Y-45382560D01*
X73243095Y-45430179D01*
X73195476Y-45525417D01*
X73195476Y-45763512D01*
X73243095Y-45858750D01*
X73290714Y-45906369D01*
X73385952Y-45953988D01*
X73576428Y-45953988D01*
X73671666Y-45906369D01*
X73719285Y-45858750D01*
X73766904Y-45763512D01*
X71262133Y-43620321D02*
X71404990Y-43667940D01*
X71643085Y-43667940D01*
X71738323Y-43620321D01*
X71785942Y-43572702D01*
X71833561Y-43477464D01*
X71833561Y-43382226D01*
X71785942Y-43286988D01*
X71738323Y-43239369D01*
X71643085Y-43191750D01*
X71452609Y-43144131D01*
X71357371Y-43096512D01*
X71309752Y-43048893D01*
X71262133Y-42953655D01*
X71262133Y-42858417D01*
X71309752Y-42763179D01*
X71357371Y-42715560D01*
X71452609Y-42667940D01*
X71690704Y-42667940D01*
X71833561Y-42715560D01*
X72119276Y-42667940D02*
X72690704Y-42667940D01*
X72404990Y-43667940D02*
X72404990Y-42667940D01*
X73357371Y-43144131D02*
X73500228Y-43191750D01*
X73547847Y-43239369D01*
X73595466Y-43334607D01*
X73595466Y-43477464D01*
X73547847Y-43572702D01*
X73500228Y-43620321D01*
X73404990Y-43667940D01*
X73024038Y-43667940D01*
X73024038Y-42667940D01*
X73357371Y-42667940D01*
X73452609Y-42715560D01*
X73500228Y-42763179D01*
X73547847Y-42858417D01*
X73547847Y-42953655D01*
X73500228Y-43048893D01*
X73452609Y-43096512D01*
X73357371Y-43144131D01*
X73024038Y-43144131D01*
X71281171Y-38664140D02*
X71281171Y-37664140D01*
X71519266Y-37664140D01*
X71662123Y-37711760D01*
X71757361Y-37806998D01*
X71804980Y-37902236D01*
X71852600Y-38092712D01*
X71852600Y-38235569D01*
X71804980Y-38426045D01*
X71757361Y-38521283D01*
X71662123Y-38616521D01*
X71519266Y-38664140D01*
X71281171Y-38664140D01*
X72233552Y-38378426D02*
X72709742Y-38378426D01*
X72138314Y-38664140D02*
X72471647Y-37664140D01*
X72804980Y-38664140D01*
X72995457Y-37664140D02*
X73566885Y-37664140D01*
X73281171Y-38664140D02*
X73281171Y-37664140D01*
X71909761Y-41134302D02*
X71862142Y-41181921D01*
X71719285Y-41229540D01*
X71624047Y-41229540D01*
X71481190Y-41181921D01*
X71385952Y-41086683D01*
X71338333Y-40991445D01*
X71290714Y-40800969D01*
X71290714Y-40658112D01*
X71338333Y-40467636D01*
X71385952Y-40372398D01*
X71481190Y-40277160D01*
X71624047Y-40229540D01*
X71719285Y-40229540D01*
X71862142Y-40277160D01*
X71909761Y-40324779D01*
X72814523Y-41229540D02*
X72338333Y-41229540D01*
X72338333Y-40229540D01*
X73147857Y-41229540D02*
X73147857Y-40229540D01*
X73719285Y-41229540D02*
X73290714Y-40658112D01*
X73719285Y-40229540D02*
X73147857Y-40800969D01*
X61127533Y-31517340D02*
X61127533Y-32231626D01*
X61079914Y-32374483D01*
X60984676Y-32469721D01*
X60841819Y-32517340D01*
X60746580Y-32517340D01*
X61460866Y-31517340D02*
X62032295Y-31517340D01*
X61746580Y-32517340D02*
X61746580Y-31517340D01*
X62318009Y-32231626D02*
X62794200Y-32231626D01*
X62222771Y-32517340D02*
X62556104Y-31517340D01*
X62889438Y-32517340D01*
X63746580Y-31564960D02*
X63651342Y-31517340D01*
X63508485Y-31517340D01*
X63365628Y-31564960D01*
X63270390Y-31660198D01*
X63222771Y-31755436D01*
X63175152Y-31945912D01*
X63175152Y-32088769D01*
X63222771Y-32279245D01*
X63270390Y-32374483D01*
X63365628Y-32469721D01*
X63508485Y-32517340D01*
X63603723Y-32517340D01*
X63746580Y-32469721D01*
X63794200Y-32422102D01*
X63794200Y-32088769D01*
X63603723Y-32088769D01*
X30214000Y-45780960D02*
X26150000Y-45780960D01*
X30705809Y-45123340D02*
X30801047Y-45123340D01*
X30896285Y-45170960D01*
X30943904Y-45218579D01*
X30991523Y-45313817D01*
X31039142Y-45504293D01*
X31039142Y-45742388D01*
X30991523Y-45932864D01*
X30943904Y-46028102D01*
X30896285Y-46075721D01*
X30801047Y-46123340D01*
X30705809Y-46123340D01*
X30610571Y-46075721D01*
X30562952Y-46028102D01*
X30515333Y-45932864D01*
X30467714Y-45742388D01*
X30467714Y-45504293D01*
X30515333Y-45313817D01*
X30562952Y-45218579D01*
X30610571Y-45170960D01*
X30705809Y-45123340D01*
X31324857Y-45123340D02*
X31658190Y-46123340D01*
X31991523Y-45123340D01*
X30214000Y-35620960D02*
X26150000Y-35620960D01*
X30214000Y-38160960D02*
X26150000Y-38160960D01*
X30214000Y-40700960D02*
X26150000Y-40700960D01*
X30214000Y-43240960D02*
X26150000Y-43240960D01*
X30480571Y-43663340D02*
X30480571Y-42996674D01*
X30480571Y-43187150D02*
X30528190Y-43091912D01*
X30575809Y-43044293D01*
X30671047Y-42996674D01*
X30766285Y-42996674D01*
X31101523Y-41183340D02*
X30768190Y-40707150D01*
X30530095Y-41183340D02*
X30530095Y-40183340D01*
X30911047Y-40183340D01*
X31006285Y-40230960D01*
X31053904Y-40278579D01*
X31101523Y-40373817D01*
X31101523Y-40516674D01*
X31053904Y-40611912D01*
X31006285Y-40659531D01*
X30911047Y-40707150D01*
X30530095Y-40707150D01*
X31093904Y-37660960D02*
X30998666Y-37613340D01*
X30855809Y-37613340D01*
X30712952Y-37660960D01*
X30617714Y-37756198D01*
X30570095Y-37851436D01*
X30522476Y-38041912D01*
X30522476Y-38184769D01*
X30570095Y-38375245D01*
X30617714Y-38470483D01*
X30712952Y-38565721D01*
X30855809Y-38613340D01*
X30951047Y-38613340D01*
X31093904Y-38565721D01*
X31141523Y-38518102D01*
X31141523Y-38184769D01*
X30951047Y-38184769D01*
X30863428Y-35599531D02*
X31006285Y-35647150D01*
X31053904Y-35694769D01*
X31101523Y-35790007D01*
X31101523Y-35932864D01*
X31053904Y-36028102D01*
X31006285Y-36075721D01*
X30911047Y-36123340D01*
X30530095Y-36123340D01*
X30530095Y-35123340D01*
X30863428Y-35123340D01*
X30958666Y-35170960D01*
X31006285Y-35218579D01*
X31053904Y-35313817D01*
X31053904Y-35409055D01*
X31006285Y-35504293D01*
X30958666Y-35551912D01*
X30863428Y-35599531D01*
X30530095Y-35599531D01*
X28866285Y-43986674D02*
X28866285Y-44796198D01*
X28818666Y-44891436D01*
X28771047Y-44939055D01*
X28675809Y-44986674D01*
X28532952Y-44986674D01*
X28437714Y-44939055D01*
X28866285Y-44605721D02*
X28771047Y-44653340D01*
X28580571Y-44653340D01*
X28485333Y-44605721D01*
X28437714Y-44558102D01*
X28390095Y-44462864D01*
X28390095Y-44177150D01*
X28437714Y-44081912D01*
X28485333Y-44034293D01*
X28580571Y-43986674D01*
X28771047Y-43986674D01*
X28866285Y-44034293D01*
X28357714Y-42463340D02*
X28357714Y-41463340D01*
X28357714Y-41844293D02*
X28452952Y-41796674D01*
X28643428Y-41796674D01*
X28738666Y-41844293D01*
X28786285Y-41891912D01*
X28833904Y-41987150D01*
X28833904Y-42272864D01*
X28786285Y-42368102D01*
X28738666Y-42415721D01*
X28643428Y-42463340D01*
X28452952Y-42463340D01*
X28357714Y-42415721D01*
X28370095Y-39933340D02*
X28370095Y-38933340D01*
X28370095Y-39409531D02*
X28941523Y-39409531D01*
X28941523Y-39933340D02*
X28941523Y-38933340D01*
X29370095Y-39885721D02*
X29512952Y-39933340D01*
X29751047Y-39933340D01*
X29846285Y-39885721D01*
X29893904Y-39838102D01*
X29941523Y-39742864D01*
X29941523Y-39647626D01*
X29893904Y-39552388D01*
X29846285Y-39504769D01*
X29751047Y-39457150D01*
X29560571Y-39409531D01*
X29465333Y-39361912D01*
X29417714Y-39314293D01*
X29370095Y-39219055D01*
X29370095Y-39123817D01*
X29417714Y-39028579D01*
X29465333Y-38980960D01*
X29560571Y-38933340D01*
X29798666Y-38933340D01*
X29941523Y-38980960D01*
X28352476Y-36343340D02*
X28685809Y-37343340D01*
X29019142Y-36343340D01*
X29304857Y-37295721D02*
X29447714Y-37343340D01*
X29685809Y-37343340D01*
X29781047Y-37295721D01*
X29828666Y-37248102D01*
X29876285Y-37152864D01*
X29876285Y-37057626D01*
X29828666Y-36962388D01*
X29781047Y-36914769D01*
X29685809Y-36867150D01*
X29495333Y-36819531D01*
X29400095Y-36771912D01*
X29352476Y-36724293D01*
X29304857Y-36629055D01*
X29304857Y-36533817D01*
X29352476Y-36438579D01*
X29400095Y-36390960D01*
X29495333Y-36343340D01*
X29733428Y-36343340D01*
X29876285Y-36390960D01*
X28891523Y-33843340D02*
X28415333Y-33843340D01*
X28367714Y-34319531D01*
X28415333Y-34271912D01*
X28510571Y-34224293D01*
X28748666Y-34224293D01*
X28843904Y-34271912D01*
X28891523Y-34319531D01*
X28939142Y-34414769D01*
X28939142Y-34652864D01*
X28891523Y-34748102D01*
X28843904Y-34795721D01*
X28748666Y-34843340D01*
X28510571Y-34843340D01*
X28415333Y-34795721D01*
X28367714Y-34748102D01*
X29224857Y-33843340D02*
X29558190Y-34843340D01*
X29891523Y-33843340D01*
D12*
X34115333Y-25523626D02*
X33882000Y-25190293D01*
X33715333Y-25523626D02*
X33715333Y-24823626D01*
X33982000Y-24823626D01*
X34048666Y-24856960D01*
X34082000Y-24890293D01*
X34115333Y-24956960D01*
X34115333Y-25056960D01*
X34082000Y-25123626D01*
X34048666Y-25156960D01*
X33982000Y-25190293D01*
X33715333Y-25190293D01*
X34348666Y-25523626D02*
X34715333Y-25056960D01*
X34348666Y-25056960D02*
X34715333Y-25523626D01*
X34982000Y-25523626D02*
X34982000Y-24823626D01*
X35148666Y-24823626D01*
X35248666Y-24856960D01*
X35315333Y-24923626D01*
X35348666Y-24990293D01*
X35382000Y-25123626D01*
X35382000Y-25223626D01*
X35348666Y-25356960D01*
X35315333Y-25423626D01*
X35248666Y-25490293D01*
X35148666Y-25523626D01*
X34982000Y-25523626D01*
X31158666Y-24823626D02*
X31558666Y-24823626D01*
X31358666Y-25523626D02*
X31358666Y-24823626D01*
X31725333Y-25523626D02*
X32092000Y-25056960D01*
X31725333Y-25056960D02*
X32092000Y-25523626D01*
X32358666Y-25523626D02*
X32358666Y-24823626D01*
X32525333Y-24823626D01*
X32625333Y-24856960D01*
X32692000Y-24923626D01*
X32725333Y-24990293D01*
X32758666Y-25123626D01*
X32758666Y-25223626D01*
X32725333Y-25356960D01*
X32692000Y-25423626D01*
X32625333Y-25490293D01*
X32525333Y-25523626D01*
X32358666Y-25523626D01*
X29002000Y-24856960D02*
X28935333Y-24823626D01*
X28835333Y-24823626D01*
X28735333Y-24856960D01*
X28668666Y-24923626D01*
X28635333Y-24990293D01*
X28602000Y-25123626D01*
X28602000Y-25223626D01*
X28635333Y-25356960D01*
X28668666Y-25423626D01*
X28735333Y-25490293D01*
X28835333Y-25523626D01*
X28902000Y-25523626D01*
X29002000Y-25490293D01*
X29035333Y-25456960D01*
X29035333Y-25223626D01*
X28902000Y-25223626D01*
X29335333Y-25056960D02*
X29335333Y-25523626D01*
X29335333Y-25123626D02*
X29368666Y-25090293D01*
X29435333Y-25056960D01*
X29535333Y-25056960D01*
X29602000Y-25090293D01*
X29635333Y-25156960D01*
X29635333Y-25523626D01*
X30268666Y-25523626D02*
X30268666Y-24823626D01*
X30268666Y-25490293D02*
X30202000Y-25523626D01*
X30068666Y-25523626D01*
X30002000Y-25490293D01*
X29968666Y-25456960D01*
X29935333Y-25390293D01*
X29935333Y-25190293D01*
X29968666Y-25123626D01*
X30002000Y-25090293D01*
X30068666Y-25056960D01*
X30202000Y-25056960D01*
X30268666Y-25090293D01*
D11*
X74060095Y-53973340D02*
X74060095Y-52973340D01*
X74631523Y-53973340D02*
X74202952Y-53401912D01*
X74631523Y-52973340D02*
X74060095Y-53544769D01*
X22460095Y-53913340D02*
X22460095Y-52913340D01*
X23031523Y-53913340D02*
X22602952Y-53341912D01*
X23031523Y-52913340D02*
X22460095Y-53484769D01*
X58948190Y-33787340D02*
X58948190Y-32787340D01*
X59519619Y-33787340D01*
X59519619Y-32787340D01*
X60138666Y-33787340D02*
X60043428Y-33739721D01*
X59995809Y-33692102D01*
X59948190Y-33596864D01*
X59948190Y-33311150D01*
X59995809Y-33215912D01*
X60043428Y-33168293D01*
X60138666Y-33120674D01*
X60281523Y-33120674D01*
X60376761Y-33168293D01*
X60424380Y-33215912D01*
X60472000Y-33311150D01*
X60472000Y-33596864D01*
X60424380Y-33692102D01*
X60376761Y-33739721D01*
X60281523Y-33787340D01*
X60138666Y-33787340D01*
X60757714Y-33120674D02*
X61138666Y-33120674D01*
X60900571Y-32787340D02*
X60900571Y-33644483D01*
X60948190Y-33739721D01*
X61043428Y-33787340D01*
X61138666Y-33787340D01*
X62567238Y-33263531D02*
X62233904Y-33263531D01*
X62233904Y-33787340D02*
X62233904Y-32787340D01*
X62710095Y-32787340D01*
X63091047Y-33787340D02*
X63091047Y-33120674D01*
X63091047Y-32787340D02*
X63043428Y-32834960D01*
X63091047Y-32882579D01*
X63138666Y-32834960D01*
X63091047Y-32787340D01*
X63091047Y-32882579D01*
X63424380Y-33120674D02*
X63805333Y-33120674D01*
X63567238Y-32787340D02*
X63567238Y-33644483D01*
X63614857Y-33739721D01*
X63710095Y-33787340D01*
X63805333Y-33787340D01*
X63995809Y-33120674D02*
X64376761Y-33120674D01*
X64138666Y-32787340D02*
X64138666Y-33644483D01*
X64186285Y-33739721D01*
X64281523Y-33787340D01*
X64376761Y-33787340D01*
X65091047Y-33739721D02*
X64995809Y-33787340D01*
X64805333Y-33787340D01*
X64710095Y-33739721D01*
X64662476Y-33644483D01*
X64662476Y-33263531D01*
X64710095Y-33168293D01*
X64805333Y-33120674D01*
X64995809Y-33120674D01*
X65091047Y-33168293D01*
X65138666Y-33263531D01*
X65138666Y-33358769D01*
X64662476Y-33454007D01*
X65995809Y-33787340D02*
X65995809Y-32787340D01*
X65995809Y-33739721D02*
X65900571Y-33787340D01*
X65710095Y-33787340D01*
X65614857Y-33739721D01*
X65567238Y-33692102D01*
X65519619Y-33596864D01*
X65519619Y-33311150D01*
X65567238Y-33215912D01*
X65614857Y-33168293D01*
X65710095Y-33120674D01*
X65900571Y-33120674D01*
X65995809Y-33168293D01*
X69330000Y-33842960D02*
X69076000Y-33588960D01*
X68822000Y-33334960D02*
X69330000Y-33842960D01*
X69361904Y-33295340D02*
X69980952Y-33295340D01*
X69647619Y-33676293D01*
X69790476Y-33676293D01*
X69885714Y-33723912D01*
X69933333Y-33771531D01*
X69980952Y-33866769D01*
X69980952Y-34104864D01*
X69933333Y-34200102D01*
X69885714Y-34247721D01*
X69790476Y-34295340D01*
X69504761Y-34295340D01*
X69409523Y-34247721D01*
X69361904Y-34200102D01*
X70266666Y-33295340D02*
X70600000Y-34295340D01*
X70933333Y-33295340D01*
X71171428Y-33295340D02*
X71790476Y-33295340D01*
X71457142Y-33676293D01*
X71600000Y-33676293D01*
X71695238Y-33723912D01*
X71742857Y-33771531D01*
X71790476Y-33866769D01*
X71790476Y-34104864D01*
X71742857Y-34200102D01*
X71695238Y-34247721D01*
X71600000Y-34295340D01*
X71314285Y-34295340D01*
X71219047Y-34247721D01*
X71171428Y-34200102D01*
X69685695Y-35019360D02*
X69590457Y-34971740D01*
X69447600Y-34971740D01*
X69304742Y-35019360D01*
X69209504Y-35114598D01*
X69161885Y-35209836D01*
X69114266Y-35400312D01*
X69114266Y-35543169D01*
X69161885Y-35733645D01*
X69209504Y-35828883D01*
X69304742Y-35924121D01*
X69447600Y-35971740D01*
X69542838Y-35971740D01*
X69685695Y-35924121D01*
X69733314Y-35876502D01*
X69733314Y-35543169D01*
X69542838Y-35543169D01*
X70161885Y-35971740D02*
X70161885Y-34971740D01*
X70733314Y-35971740D01*
X70733314Y-34971740D01*
X71209504Y-35971740D02*
X71209504Y-34971740D01*
X71447600Y-34971740D01*
X71590457Y-35019360D01*
X71685695Y-35114598D01*
X71733314Y-35209836D01*
X71780933Y-35400312D01*
X71780933Y-35543169D01*
X71733314Y-35733645D01*
X71685695Y-35828883D01*
X71590457Y-35924121D01*
X71447600Y-35971740D01*
X71209504Y-35971740D01*
X54159533Y-42397940D02*
X54159533Y-41397940D01*
X54159533Y-41874131D02*
X54719533Y-41874131D01*
X54719533Y-42397940D02*
X54719533Y-41397940D01*
X55326200Y-42397940D02*
X55232866Y-42350321D01*
X55186200Y-42302702D01*
X55139533Y-42207464D01*
X55139533Y-41921750D01*
X55186200Y-41826512D01*
X55232866Y-41778893D01*
X55326200Y-41731274D01*
X55466200Y-41731274D01*
X55559533Y-41778893D01*
X55606200Y-41826512D01*
X55652866Y-41921750D01*
X55652866Y-42207464D01*
X55606200Y-42302702D01*
X55559533Y-42350321D01*
X55466200Y-42397940D01*
X55326200Y-42397940D01*
X56492866Y-41731274D02*
X56492866Y-42540798D01*
X56446200Y-42636036D01*
X56399533Y-42683655D01*
X56306200Y-42731274D01*
X56166200Y-42731274D01*
X56072866Y-42683655D01*
X56492866Y-42350321D02*
X56399533Y-42397940D01*
X56212866Y-42397940D01*
X56119533Y-42350321D01*
X56072866Y-42302702D01*
X56026200Y-42207464D01*
X56026200Y-41921750D01*
X56072866Y-41826512D01*
X56119533Y-41778893D01*
X56212866Y-41731274D01*
X56399533Y-41731274D01*
X56492866Y-41778893D01*
X57099533Y-42397940D02*
X57006200Y-42350321D01*
X56959533Y-42255083D01*
X56959533Y-41397940D01*
X57846200Y-42350321D02*
X57752866Y-42397940D01*
X57566200Y-42397940D01*
X57472866Y-42350321D01*
X57426200Y-42255083D01*
X57426200Y-41874131D01*
X57472866Y-41778893D01*
X57566200Y-41731274D01*
X57752866Y-41731274D01*
X57846200Y-41778893D01*
X57892866Y-41874131D01*
X57892866Y-41969369D01*
X57426200Y-42064607D01*
X58172866Y-41731274D02*
X58546200Y-41731274D01*
X58312866Y-41397940D02*
X58312866Y-42255083D01*
X58359533Y-42350321D01*
X58452866Y-42397940D01*
X58546200Y-42397940D01*
X60412866Y-42397940D02*
X60366200Y-42397940D01*
X60272866Y-42350321D01*
X60132866Y-42207464D01*
X59899533Y-41921750D01*
X59806200Y-41778893D01*
X59759533Y-41636036D01*
X59759533Y-41540798D01*
X59806200Y-41445560D01*
X59899533Y-41397940D01*
X59946200Y-41397940D01*
X60039533Y-41445560D01*
X60086200Y-41540798D01*
X60086200Y-41588417D01*
X60039533Y-41683655D01*
X59992866Y-41731274D01*
X59712866Y-41921750D01*
X59666200Y-41969369D01*
X59619533Y-42064607D01*
X59619533Y-42207464D01*
X59666200Y-42302702D01*
X59712866Y-42350321D01*
X59806200Y-42397940D01*
X59946200Y-42397940D01*
X60039533Y-42350321D01*
X60086200Y-42302702D01*
X60226200Y-42112226D01*
X60272866Y-41969369D01*
X60272866Y-41874131D01*
X61579533Y-42397940D02*
X61579533Y-41397940D01*
X62466200Y-42397940D02*
X62466200Y-41874131D01*
X62419533Y-41778893D01*
X62326200Y-41731274D01*
X62139533Y-41731274D01*
X62046200Y-41778893D01*
X62466200Y-42350321D02*
X62372866Y-42397940D01*
X62139533Y-42397940D01*
X62046200Y-42350321D01*
X61999533Y-42255083D01*
X61999533Y-42159845D01*
X62046200Y-42064607D01*
X62139533Y-42016988D01*
X62372866Y-42016988D01*
X62466200Y-41969369D01*
X62932866Y-41731274D02*
X62932866Y-42397940D01*
X62932866Y-41826512D02*
X62979533Y-41778893D01*
X63072866Y-41731274D01*
X63212866Y-41731274D01*
X63306200Y-41778893D01*
X63352866Y-41874131D01*
X63352866Y-42397940D01*
X64146200Y-41874131D02*
X64286200Y-41921750D01*
X64332866Y-41969369D01*
X64379533Y-42064607D01*
X64379533Y-42207464D01*
X64332866Y-42302702D01*
X64286200Y-42350321D01*
X64192866Y-42397940D01*
X63819533Y-42397940D01*
X63819533Y-41397940D01*
X64146200Y-41397940D01*
X64239533Y-41445560D01*
X64286200Y-41493179D01*
X64332866Y-41588417D01*
X64332866Y-41683655D01*
X64286200Y-41778893D01*
X64239533Y-41826512D01*
X64146200Y-41874131D01*
X63819533Y-41874131D01*
X55703666Y-39934236D02*
X55610333Y-39886617D01*
X55423666Y-39886617D01*
X55330333Y-39934236D01*
X55237000Y-40029474D01*
X55190333Y-40124712D01*
X55190333Y-40315188D01*
X55237000Y-40410426D01*
X55330333Y-40505664D01*
X55423666Y-40553283D01*
X55610333Y-40553283D01*
X55703666Y-40505664D01*
X55517000Y-39553283D02*
X55283666Y-39600902D01*
X55050333Y-39743760D01*
X54910333Y-39981855D01*
X54863666Y-40219950D01*
X54910333Y-40458045D01*
X55050333Y-40696140D01*
X55283666Y-40838998D01*
X55517000Y-40886617D01*
X55750333Y-40838998D01*
X55983666Y-40696140D01*
X56123666Y-40458045D01*
X56170333Y-40219950D01*
X56123666Y-39981855D01*
X55983666Y-39743760D01*
X55750333Y-39600902D01*
X55517000Y-39553283D01*
X57290333Y-39791379D02*
X57337000Y-39743760D01*
X57430333Y-39696140D01*
X57663666Y-39696140D01*
X57757000Y-39743760D01*
X57803666Y-39791379D01*
X57850333Y-39886617D01*
X57850333Y-39981855D01*
X57803666Y-40124712D01*
X57243666Y-40696140D01*
X57850333Y-40696140D01*
X58457000Y-39696140D02*
X58550333Y-39696140D01*
X58643666Y-39743760D01*
X58690333Y-39791379D01*
X58737000Y-39886617D01*
X58783666Y-40077093D01*
X58783666Y-40315188D01*
X58737000Y-40505664D01*
X58690333Y-40600902D01*
X58643666Y-40648521D01*
X58550333Y-40696140D01*
X58457000Y-40696140D01*
X58363666Y-40648521D01*
X58317000Y-40600902D01*
X58270333Y-40505664D01*
X58223666Y-40315188D01*
X58223666Y-40077093D01*
X58270333Y-39886617D01*
X58317000Y-39791379D01*
X58363666Y-39743760D01*
X58457000Y-39696140D01*
X59717000Y-40696140D02*
X59157000Y-40696140D01*
X59437000Y-40696140D02*
X59437000Y-39696140D01*
X59343666Y-39838998D01*
X59250333Y-39934236D01*
X59157000Y-39981855D01*
X60277000Y-40124712D02*
X60183666Y-40077093D01*
X60137000Y-40029474D01*
X60090333Y-39934236D01*
X60090333Y-39886617D01*
X60137000Y-39791379D01*
X60183666Y-39743760D01*
X60277000Y-39696140D01*
X60463666Y-39696140D01*
X60557000Y-39743760D01*
X60603666Y-39791379D01*
X60650333Y-39886617D01*
X60650333Y-39934236D01*
X60603666Y-40029474D01*
X60557000Y-40077093D01*
X60463666Y-40124712D01*
X60277000Y-40124712D01*
X60183666Y-40172331D01*
X60137000Y-40219950D01*
X60090333Y-40315188D01*
X60090333Y-40505664D01*
X60137000Y-40600902D01*
X60183666Y-40648521D01*
X60277000Y-40696140D01*
X60463666Y-40696140D01*
X60557000Y-40648521D01*
X60603666Y-40600902D01*
X60650333Y-40505664D01*
X60650333Y-40315188D01*
X60603666Y-40219950D01*
X60557000Y-40172331D01*
X60463666Y-40124712D01*
X61070333Y-40315188D02*
X61817000Y-40315188D01*
X62237000Y-39791379D02*
X62283666Y-39743760D01*
X62377000Y-39696140D01*
X62610333Y-39696140D01*
X62703666Y-39743760D01*
X62750333Y-39791379D01*
X62797000Y-39886617D01*
X62797000Y-39981855D01*
X62750333Y-40124712D01*
X62190333Y-40696140D01*
X62797000Y-40696140D01*
X63403666Y-39696140D02*
X63497000Y-39696140D01*
X63590333Y-39743760D01*
X63637000Y-39791379D01*
X63683666Y-39886617D01*
X63730333Y-40077093D01*
X63730333Y-40315188D01*
X63683666Y-40505664D01*
X63637000Y-40600902D01*
X63590333Y-40648521D01*
X63497000Y-40696140D01*
X63403666Y-40696140D01*
X63310333Y-40648521D01*
X63263666Y-40600902D01*
X63217000Y-40505664D01*
X63170333Y-40315188D01*
X63170333Y-40077093D01*
X63217000Y-39886617D01*
X63263666Y-39791379D01*
X63310333Y-39743760D01*
X63403666Y-39696140D01*
X54386800Y-38068000D02*
X54224896Y-38068000D01*
X54143943Y-38115620D01*
X54103467Y-38163239D01*
X54022515Y-38306096D01*
X53982039Y-38496572D01*
X53982039Y-38877524D01*
X54022515Y-38972762D01*
X54062991Y-39020381D01*
X54143943Y-39068000D01*
X54305848Y-39068000D01*
X54386800Y-39020381D01*
X54427277Y-38972762D01*
X54467753Y-38877524D01*
X54467753Y-38639429D01*
X54427277Y-38544191D01*
X54386800Y-38496572D01*
X54305848Y-38448953D01*
X54143943Y-38448953D01*
X54062991Y-38496572D01*
X54022515Y-38544191D01*
X53982039Y-38639429D01*
X55439181Y-38020381D02*
X54710610Y-39306096D01*
X55843943Y-38496572D02*
X55762991Y-38448953D01*
X55722515Y-38401334D01*
X55682039Y-38306096D01*
X55682039Y-38258477D01*
X55722515Y-38163239D01*
X55762991Y-38115620D01*
X55843943Y-38068000D01*
X56005848Y-38068000D01*
X56086800Y-38115620D01*
X56127277Y-38163239D01*
X56167753Y-38258477D01*
X56167753Y-38306096D01*
X56127277Y-38401334D01*
X56086800Y-38448953D01*
X56005848Y-38496572D01*
X55843943Y-38496572D01*
X55762991Y-38544191D01*
X55722515Y-38591810D01*
X55682039Y-38687048D01*
X55682039Y-38877524D01*
X55722515Y-38972762D01*
X55762991Y-39020381D01*
X55843943Y-39068000D01*
X56005848Y-39068000D01*
X56086800Y-39020381D01*
X56127277Y-38972762D01*
X56167753Y-38877524D01*
X56167753Y-38687048D01*
X56127277Y-38591810D01*
X56086800Y-38544191D01*
X56005848Y-38496572D01*
X57462991Y-38544191D02*
X57584420Y-38591810D01*
X57624896Y-38639429D01*
X57665372Y-38734667D01*
X57665372Y-38877524D01*
X57624896Y-38972762D01*
X57584420Y-39020381D01*
X57503467Y-39068000D01*
X57179658Y-39068000D01*
X57179658Y-38068000D01*
X57462991Y-38068000D01*
X57543943Y-38115620D01*
X57584420Y-38163239D01*
X57624896Y-38258477D01*
X57624896Y-38353715D01*
X57584420Y-38448953D01*
X57543943Y-38496572D01*
X57462991Y-38544191D01*
X57179658Y-38544191D01*
X58029658Y-39068000D02*
X58029658Y-38401334D01*
X58029658Y-38068000D02*
X57989181Y-38115620D01*
X58029658Y-38163239D01*
X58070134Y-38115620D01*
X58029658Y-38068000D01*
X58029658Y-38163239D01*
X58312991Y-38401334D02*
X58636800Y-38401334D01*
X58434420Y-38068000D02*
X58434420Y-38925143D01*
X58474896Y-39020381D01*
X58555848Y-39068000D01*
X58636800Y-39068000D01*
X59567753Y-39068000D02*
X59567753Y-38068000D01*
X59932039Y-39020381D02*
X60012991Y-39068000D01*
X60174896Y-39068000D01*
X60255848Y-39020381D01*
X60296324Y-38925143D01*
X60296324Y-38877524D01*
X60255848Y-38782286D01*
X60174896Y-38734667D01*
X60053467Y-38734667D01*
X59972515Y-38687048D01*
X59932039Y-38591810D01*
X59932039Y-38544191D01*
X59972515Y-38448953D01*
X60053467Y-38401334D01*
X60174896Y-38401334D01*
X60255848Y-38448953D01*
X60620134Y-39020381D02*
X60701086Y-39068000D01*
X60862991Y-39068000D01*
X60943943Y-39020381D01*
X60984420Y-38925143D01*
X60984420Y-38877524D01*
X60943943Y-38782286D01*
X60862991Y-38734667D01*
X60741562Y-38734667D01*
X60660610Y-38687048D01*
X60620134Y-38591810D01*
X60620134Y-38544191D01*
X60660610Y-38448953D01*
X60741562Y-38401334D01*
X60862991Y-38401334D01*
X60943943Y-38448953D01*
X61712991Y-38401334D02*
X61712991Y-39068000D01*
X61348705Y-38401334D02*
X61348705Y-38925143D01*
X61389181Y-39020381D01*
X61470134Y-39068000D01*
X61591562Y-39068000D01*
X61672515Y-39020381D01*
X61712991Y-38972762D01*
X62441562Y-39020381D02*
X62360610Y-39068000D01*
X62198705Y-39068000D01*
X62117753Y-39020381D01*
X62077277Y-38925143D01*
X62077277Y-38544191D01*
X62117753Y-38448953D01*
X62198705Y-38401334D01*
X62360610Y-38401334D01*
X62441562Y-38448953D01*
X62482039Y-38544191D01*
X62482039Y-38639429D01*
X62077277Y-38734667D01*
X63412991Y-38068000D02*
X63939181Y-38068000D01*
X63655848Y-38448953D01*
X63777277Y-38448953D01*
X63858229Y-38496572D01*
X63898705Y-38544191D01*
X63939181Y-38639429D01*
X63939181Y-38877524D01*
X63898705Y-38972762D01*
X63858229Y-39020381D01*
X63777277Y-39068000D01*
X63534420Y-39068000D01*
X63453467Y-39020381D01*
X63412991Y-38972762D01*
X64182039Y-38068000D02*
X64667753Y-38068000D01*
X64424896Y-39068000D02*
X64424896Y-38068000D01*
X56919066Y-37394140D02*
X56592400Y-36917950D01*
X56359066Y-37394140D02*
X56359066Y-36394140D01*
X56732400Y-36394140D01*
X56825733Y-36441760D01*
X56872400Y-36489379D01*
X56919066Y-36584617D01*
X56919066Y-36727474D01*
X56872400Y-36822712D01*
X56825733Y-36870331D01*
X56732400Y-36917950D01*
X56359066Y-36917950D01*
X57852400Y-36441760D02*
X57759066Y-36394140D01*
X57619066Y-36394140D01*
X57479066Y-36441760D01*
X57385733Y-36536998D01*
X57339066Y-36632236D01*
X57292400Y-36822712D01*
X57292400Y-36965569D01*
X57339066Y-37156045D01*
X57385733Y-37251283D01*
X57479066Y-37346521D01*
X57619066Y-37394140D01*
X57712400Y-37394140D01*
X57852400Y-37346521D01*
X57899066Y-37298902D01*
X57899066Y-36965569D01*
X57712400Y-36965569D01*
X58645733Y-36870331D02*
X58785733Y-36917950D01*
X58832400Y-36965569D01*
X58879066Y-37060807D01*
X58879066Y-37203664D01*
X58832400Y-37298902D01*
X58785733Y-37346521D01*
X58692400Y-37394140D01*
X58319066Y-37394140D01*
X58319066Y-36394140D01*
X58645733Y-36394140D01*
X58739066Y-36441760D01*
X58785733Y-36489379D01*
X58832400Y-36584617D01*
X58832400Y-36679855D01*
X58785733Y-36775093D01*
X58739066Y-36822712D01*
X58645733Y-36870331D01*
X58319066Y-36870331D01*
X59159066Y-36727474D02*
X59532400Y-36727474D01*
X59299066Y-36394140D02*
X59299066Y-37251283D01*
X59345733Y-37346521D01*
X59439066Y-37394140D01*
X59532400Y-37394140D01*
X59999066Y-37394140D02*
X59905733Y-37346521D01*
X59859066Y-37298902D01*
X59812400Y-37203664D01*
X59812400Y-36917950D01*
X59859066Y-36822712D01*
X59905733Y-36775093D01*
X59999066Y-36727474D01*
X60139066Y-36727474D01*
X60232400Y-36775093D01*
X60279066Y-36822712D01*
X60325733Y-36917950D01*
X60325733Y-37203664D01*
X60279066Y-37298902D01*
X60232400Y-37346521D01*
X60139066Y-37394140D01*
X59999066Y-37394140D01*
X60745733Y-37394140D02*
X60745733Y-36394140D01*
X60745733Y-36870331D02*
X61305733Y-36870331D01*
X61305733Y-37394140D02*
X61305733Y-36394140D01*
X61772400Y-37394140D02*
X61772400Y-36394140D01*
X62005733Y-36394140D01*
X62145733Y-36441760D01*
X62239066Y-36536998D01*
X62285733Y-36632236D01*
X62332400Y-36822712D01*
X62332400Y-36965569D01*
X62285733Y-37156045D01*
X62239066Y-37251283D01*
X62145733Y-37346521D01*
X62005733Y-37394140D01*
X61772400Y-37394140D01*
X50339961Y-43240960D02*
G75*
G03X50339961Y-43240960I-567961J0D01*
G01*
X53582000Y-43240960D02*
X53582000Y-35620960D01*
X65012000Y-43240960D02*
X53582000Y-43240960D01*
X65012000Y-35620960D02*
X65012000Y-43240960D01*
X53582000Y-35620960D02*
X65012000Y-35620960D01*
D13*
X75656380Y-35424436D02*
X75239714Y-34829198D01*
X74942095Y-35424436D02*
X74942095Y-34174436D01*
X75418285Y-34174436D01*
X75537333Y-34233960D01*
X75596857Y-34293483D01*
X75656380Y-34412531D01*
X75656380Y-34591102D01*
X75596857Y-34710150D01*
X75537333Y-34769674D01*
X75418285Y-34829198D01*
X74942095Y-34829198D01*
X76668285Y-35364912D02*
X76549238Y-35424436D01*
X76311142Y-35424436D01*
X76192095Y-35364912D01*
X76132571Y-35245864D01*
X76132571Y-34769674D01*
X76192095Y-34650626D01*
X76311142Y-34591102D01*
X76549238Y-34591102D01*
X76668285Y-34650626D01*
X76727809Y-34769674D01*
X76727809Y-34888721D01*
X76132571Y-35007769D01*
X77204000Y-35364912D02*
X77323047Y-35424436D01*
X77561142Y-35424436D01*
X77680190Y-35364912D01*
X77739714Y-35245864D01*
X77739714Y-35186340D01*
X77680190Y-35067293D01*
X77561142Y-35007769D01*
X77382571Y-35007769D01*
X77263523Y-34948245D01*
X77204000Y-34829198D01*
X77204000Y-34769674D01*
X77263523Y-34650626D01*
X77382571Y-34591102D01*
X77561142Y-34591102D01*
X77680190Y-34650626D01*
X78751619Y-35364912D02*
X78632571Y-35424436D01*
X78394476Y-35424436D01*
X78275428Y-35364912D01*
X78215904Y-35245864D01*
X78215904Y-34769674D01*
X78275428Y-34650626D01*
X78394476Y-34591102D01*
X78632571Y-34591102D01*
X78751619Y-34650626D01*
X78811142Y-34769674D01*
X78811142Y-34888721D01*
X78215904Y-35007769D01*
X79168285Y-34591102D02*
X79644476Y-34591102D01*
X79346857Y-34174436D02*
X79346857Y-35245864D01*
X79406380Y-35364912D01*
X79525428Y-35424436D01*
X79644476Y-35424436D01*
D10*
X38965500Y-48288308D02*
X38965500Y-48810812D01*
X40385500Y-48288308D02*
X40385500Y-48810812D01*
X41427000Y-34320960D02*
X40852000Y-34320960D01*
X40852000Y-34320960D02*
X40852000Y-34895960D01*
X50497000Y-34320960D02*
X51072000Y-34320960D01*
X51072000Y-34320960D02*
X51072000Y-34895960D01*
X41427000Y-44540960D02*
X40852000Y-44540960D01*
X40852000Y-44540960D02*
X40852000Y-43965960D01*
X50497000Y-44540960D02*
X51072000Y-44540960D01*
X51072000Y-44540960D02*
X51072000Y-43965960D01*
X51072000Y-43965960D02*
X52362000Y-43965960D01*
X75621948Y-46744960D02*
X76144452Y-46744960D01*
X75621948Y-45324960D02*
X76144452Y-45324960D01*
X66270800Y-47084001D02*
X68930800Y-47084001D01*
X66270800Y-34324001D02*
X66270800Y-47084001D01*
X68930800Y-34324001D02*
X68930800Y-47084001D01*
X66270800Y-34324001D02*
X68930800Y-34324001D01*
X66270800Y-33054001D02*
X66270800Y-31724001D01*
X66270800Y-31724001D02*
X67600800Y-31724001D01*
X53335252Y-44689960D02*
X52812748Y-44689960D01*
X53335252Y-46109960D02*
X52812748Y-46109960D01*
X37124000Y-36898212D02*
X37124000Y-36375708D01*
X38544000Y-36898212D02*
X38544000Y-36375708D01*
X52812748Y-32624960D02*
X53335252Y-32624960D01*
X52812748Y-34044960D02*
X53335252Y-34044960D01*
X39263652Y-46236960D02*
X38741148Y-46236960D01*
X39263652Y-44816960D02*
X38741148Y-44816960D01*
X56844700Y-51122212D02*
X56844700Y-50599708D01*
X55424700Y-51122212D02*
X55424700Y-50599708D01*
X59118000Y-51122212D02*
X59118000Y-50599708D01*
X57698000Y-51122212D02*
X57698000Y-50599708D01*
X26492000Y-51039708D02*
X26492000Y-51562212D01*
X27912000Y-51039708D02*
X27912000Y-51562212D01*
X70712000Y-51039708D02*
X70712000Y-51562212D01*
X69292000Y-51039708D02*
X69292000Y-51562212D01*
X29306000Y-50146960D02*
X29306000Y-51646960D01*
X30556000Y-54146960D02*
X35056000Y-54146960D01*
X36306000Y-51646960D02*
X36306000Y-50146960D01*
X35056000Y-47646960D02*
X30556000Y-47646960D01*
X50804000Y-47646960D02*
X46304000Y-47646960D01*
X52054000Y-51646960D02*
X52054000Y-50146960D01*
X46304000Y-54146960D02*
X50804000Y-54146960D01*
X45054000Y-50146960D02*
X45054000Y-51646960D01*
X66552000Y-47646960D02*
X62052000Y-47646960D01*
X67802000Y-51646960D02*
X67802000Y-50146960D01*
X62052000Y-54146960D02*
X66552000Y-54146960D01*
X60802000Y-50146960D02*
X60802000Y-51646960D01*
X76617000Y-43640960D02*
X78117000Y-43640960D01*
X80617000Y-42390960D02*
X80617000Y-37890960D01*
X78117000Y-36640960D02*
X76617000Y-36640960D01*
X74117000Y-37890960D02*
X74117000Y-42390960D01*
X41896960Y-51781200D02*
G75*
G02X42596960Y-52481200I0J-700000D01*
G01*
X42596960Y-53081200D02*
G75*
G02X41896960Y-53781200I-700000J0D01*
G01*
X40496960Y-53781200D02*
G75*
G02X39796960Y-53081200I0J700000D01*
G01*
X39796960Y-52481200D02*
G75*
G02X40496960Y-51781200I700000J0D01*
G01*
X39796960Y-53081200D02*
X39796960Y-52481200D01*
X41896960Y-53781200D02*
X40496960Y-53781200D01*
X42596960Y-52481200D02*
X42596960Y-53081200D01*
X40496960Y-51781200D02*
X41896960Y-51781200D01*
X63934000Y-44102780D02*
G75*
G02X64634000Y-44802780I0J-700000D01*
G01*
X64634000Y-45402780D02*
G75*
G02X63934000Y-46102780I-700000J0D01*
G01*
X62534000Y-46102780D02*
G75*
G02X61834000Y-45402780I0J700000D01*
G01*
X61834000Y-44802780D02*
G75*
G02X62534000Y-44102780I700000J0D01*
G01*
X61834000Y-45402780D02*
X61834000Y-44802780D01*
X63934000Y-46102780D02*
X62534000Y-46102780D01*
X64634000Y-44802780D02*
X64634000Y-45402780D01*
X62534000Y-44102780D02*
X63934000Y-44102780D01*
X23089000Y-52610960D02*
X23089000Y-49190960D01*
X25609000Y-52610960D02*
X25609000Y-49190960D01*
X23089000Y-52610960D02*
X23269000Y-52610960D01*
X25429000Y-52610960D02*
X25609000Y-52610960D01*
X23089000Y-49190960D02*
X23254000Y-49190960D01*
X25444000Y-49190960D02*
X25609000Y-49190960D01*
X23089000Y-52490960D02*
X23269000Y-52490960D01*
X25429000Y-52490960D02*
X25609000Y-52490960D01*
X23089000Y-52370960D02*
X23269000Y-52370960D01*
X25429000Y-52370960D02*
X25609000Y-52370960D01*
X71499000Y-52610960D02*
X71499000Y-49190960D01*
X74019000Y-52610960D02*
X74019000Y-49190960D01*
X71499000Y-52610960D02*
X71679000Y-52610960D01*
X73839000Y-52610960D02*
X74019000Y-52610960D01*
X71499000Y-49190960D02*
X71664000Y-49190960D01*
X73854000Y-49190960D02*
X74019000Y-49190960D01*
X71499000Y-52490960D02*
X71679000Y-52490960D01*
X73839000Y-52490960D02*
X74019000Y-52490960D01*
X71499000Y-52370960D02*
X71679000Y-52370960D01*
X73839000Y-52370960D02*
X74019000Y-52370960D01*
D11*
X37819733Y-50983140D02*
X37486400Y-50506950D01*
X37248304Y-50983140D02*
X37248304Y-49983140D01*
X37629257Y-49983140D01*
X37724495Y-50030760D01*
X37772114Y-50078379D01*
X37819733Y-50173617D01*
X37819733Y-50316474D01*
X37772114Y-50411712D01*
X37724495Y-50459331D01*
X37629257Y-50506950D01*
X37248304Y-50506950D01*
X38772114Y-50983140D02*
X38200685Y-50983140D01*
X38486400Y-50983140D02*
X38486400Y-49983140D01*
X38391161Y-50125998D01*
X38295923Y-50221236D01*
X38200685Y-50268855D01*
X39383495Y-32812740D02*
X39383495Y-33622264D01*
X39431114Y-33717502D01*
X39478733Y-33765121D01*
X39573971Y-33812740D01*
X39764447Y-33812740D01*
X39859685Y-33765121D01*
X39907304Y-33717502D01*
X39954923Y-33622264D01*
X39954923Y-32812740D01*
X40954923Y-33812740D02*
X40383495Y-33812740D01*
X40669209Y-33812740D02*
X40669209Y-32812740D01*
X40573971Y-32955598D01*
X40478733Y-33050836D01*
X40383495Y-33098455D01*
X78510533Y-46538140D02*
X78177200Y-46061950D01*
X77939104Y-46538140D02*
X77939104Y-45538140D01*
X78320057Y-45538140D01*
X78415295Y-45585760D01*
X78462914Y-45633379D01*
X78510533Y-45728617D01*
X78510533Y-45871474D01*
X78462914Y-45966712D01*
X78415295Y-46014331D01*
X78320057Y-46061950D01*
X77939104Y-46061950D01*
X79367676Y-45538140D02*
X79177200Y-45538140D01*
X79081961Y-45585760D01*
X79034342Y-45633379D01*
X78939104Y-45776236D01*
X78891485Y-45966712D01*
X78891485Y-46347664D01*
X78939104Y-46442902D01*
X78986723Y-46490521D01*
X79081961Y-46538140D01*
X79272438Y-46538140D01*
X79367676Y-46490521D01*
X79415295Y-46442902D01*
X79462914Y-46347664D01*
X79462914Y-46109569D01*
X79415295Y-46014331D01*
X79367676Y-45966712D01*
X79272438Y-45919093D01*
X79081961Y-45919093D01*
X78986723Y-45966712D01*
X78939104Y-46014331D01*
X78891485Y-46109569D01*
X64527904Y-32517340D02*
X64527904Y-31517340D01*
X64908857Y-31517340D01*
X65004095Y-31564960D01*
X65051714Y-31612579D01*
X65099333Y-31707817D01*
X65099333Y-31850674D01*
X65051714Y-31945912D01*
X65004095Y-31993531D01*
X64908857Y-32041150D01*
X64527904Y-32041150D01*
X65432666Y-31517340D02*
X66051714Y-31517340D01*
X65718380Y-31898293D01*
X65861238Y-31898293D01*
X65956476Y-31945912D01*
X66004095Y-31993531D01*
X66051714Y-32088769D01*
X66051714Y-32326864D01*
X66004095Y-32422102D01*
X65956476Y-32469721D01*
X65861238Y-32517340D01*
X65575523Y-32517340D01*
X65480285Y-32469721D01*
X65432666Y-32422102D01*
X55755333Y-45788102D02*
X55707714Y-45835721D01*
X55564857Y-45883340D01*
X55469619Y-45883340D01*
X55326761Y-45835721D01*
X55231523Y-45740483D01*
X55183904Y-45645245D01*
X55136285Y-45454769D01*
X55136285Y-45311912D01*
X55183904Y-45121436D01*
X55231523Y-45026198D01*
X55326761Y-44930960D01*
X55469619Y-44883340D01*
X55564857Y-44883340D01*
X55707714Y-44930960D01*
X55755333Y-44978579D01*
X56707714Y-45883340D02*
X56136285Y-45883340D01*
X56422000Y-45883340D02*
X56422000Y-44883340D01*
X56326761Y-45026198D01*
X56231523Y-45121436D01*
X56136285Y-45169055D01*
X35508333Y-36359102D02*
X35460714Y-36406721D01*
X35317857Y-36454340D01*
X35222619Y-36454340D01*
X35079761Y-36406721D01*
X34984523Y-36311483D01*
X34936904Y-36216245D01*
X34889285Y-36025769D01*
X34889285Y-35882912D01*
X34936904Y-35692436D01*
X34984523Y-35597198D01*
X35079761Y-35501960D01*
X35222619Y-35454340D01*
X35317857Y-35454340D01*
X35460714Y-35501960D01*
X35508333Y-35549579D01*
X35889285Y-35549579D02*
X35936904Y-35501960D01*
X36032142Y-35454340D01*
X36270238Y-35454340D01*
X36365476Y-35501960D01*
X36413095Y-35549579D01*
X36460714Y-35644817D01*
X36460714Y-35740055D01*
X36413095Y-35882912D01*
X35841666Y-36454340D01*
X36460714Y-36454340D01*
X53034333Y-32042102D02*
X52986714Y-32089721D01*
X52843857Y-32137340D01*
X52748619Y-32137340D01*
X52605761Y-32089721D01*
X52510523Y-31994483D01*
X52462904Y-31899245D01*
X52415285Y-31708769D01*
X52415285Y-31565912D01*
X52462904Y-31375436D01*
X52510523Y-31280198D01*
X52605761Y-31184960D01*
X52748619Y-31137340D01*
X52843857Y-31137340D01*
X52986714Y-31184960D01*
X53034333Y-31232579D01*
X53367666Y-31137340D02*
X53986714Y-31137340D01*
X53653380Y-31518293D01*
X53796238Y-31518293D01*
X53891476Y-31565912D01*
X53939095Y-31613531D01*
X53986714Y-31708769D01*
X53986714Y-31946864D01*
X53939095Y-32042102D01*
X53891476Y-32089721D01*
X53796238Y-32137340D01*
X53510523Y-32137340D01*
X53415285Y-32089721D01*
X53367666Y-32042102D01*
X35686133Y-46011102D02*
X35638514Y-46058721D01*
X35495657Y-46106340D01*
X35400419Y-46106340D01*
X35257561Y-46058721D01*
X35162323Y-45963483D01*
X35114704Y-45868245D01*
X35067085Y-45677769D01*
X35067085Y-45534912D01*
X35114704Y-45344436D01*
X35162323Y-45249198D01*
X35257561Y-45153960D01*
X35400419Y-45106340D01*
X35495657Y-45106340D01*
X35638514Y-45153960D01*
X35686133Y-45201579D01*
X36543276Y-45439674D02*
X36543276Y-46106340D01*
X36305180Y-45058721D02*
X36067085Y-45773007D01*
X36686133Y-45773007D01*
X55915333Y-48823340D02*
X55582000Y-48347150D01*
X55343904Y-48823340D02*
X55343904Y-47823340D01*
X55724857Y-47823340D01*
X55820095Y-47870960D01*
X55867714Y-47918579D01*
X55915333Y-48013817D01*
X55915333Y-48156674D01*
X55867714Y-48251912D01*
X55820095Y-48299531D01*
X55724857Y-48347150D01*
X55343904Y-48347150D01*
X56296285Y-47918579D02*
X56343904Y-47870960D01*
X56439142Y-47823340D01*
X56677238Y-47823340D01*
X56772476Y-47870960D01*
X56820095Y-47918579D01*
X56867714Y-48013817D01*
X56867714Y-48109055D01*
X56820095Y-48251912D01*
X56248666Y-48823340D01*
X56867714Y-48823340D01*
X58195333Y-48811440D02*
X57862000Y-48335250D01*
X57623904Y-48811440D02*
X57623904Y-47811440D01*
X58004857Y-47811440D01*
X58100095Y-47859060D01*
X58147714Y-47906679D01*
X58195333Y-48001917D01*
X58195333Y-48144774D01*
X58147714Y-48240012D01*
X58100095Y-48287631D01*
X58004857Y-48335250D01*
X57623904Y-48335250D01*
X58528666Y-47811440D02*
X59147714Y-47811440D01*
X58814380Y-48192393D01*
X58957238Y-48192393D01*
X59052476Y-48240012D01*
X59100095Y-48287631D01*
X59147714Y-48382869D01*
X59147714Y-48620964D01*
X59100095Y-48716202D01*
X59052476Y-48763821D01*
X58957238Y-48811440D01*
X58671523Y-48811440D01*
X58576285Y-48763821D01*
X58528666Y-48716202D01*
D10*
X27108666Y-54082864D02*
X26842000Y-53701912D01*
X26651523Y-54082864D02*
X26651523Y-53282864D01*
X26956285Y-53282864D01*
X27032476Y-53320960D01*
X27070571Y-53359055D01*
X27108666Y-53435245D01*
X27108666Y-53549531D01*
X27070571Y-53625721D01*
X27032476Y-53663817D01*
X26956285Y-53701912D01*
X26651523Y-53701912D01*
X27794380Y-53549531D02*
X27794380Y-54082864D01*
X27603904Y-53244769D02*
X27413428Y-53816198D01*
X27908666Y-53816198D01*
D11*
X69825173Y-49360660D02*
X69491840Y-48884470D01*
X69253744Y-49360660D02*
X69253744Y-48360660D01*
X69634697Y-48360660D01*
X69729935Y-48408280D01*
X69777554Y-48455899D01*
X69825173Y-48551137D01*
X69825173Y-48693994D01*
X69777554Y-48789232D01*
X69729935Y-48836851D01*
X69634697Y-48884470D01*
X69253744Y-48884470D01*
X70729935Y-48360660D02*
X70253744Y-48360660D01*
X70206125Y-48836851D01*
X70253744Y-48789232D01*
X70348982Y-48741613D01*
X70587078Y-48741613D01*
X70682316Y-48789232D01*
X70729935Y-48836851D01*
X70777554Y-48932089D01*
X70777554Y-49170184D01*
X70729935Y-49265422D01*
X70682316Y-49313041D01*
X70587078Y-49360660D01*
X70348982Y-49360660D01*
X70253744Y-49313041D01*
X70206125Y-49265422D01*
X31668666Y-47375721D02*
X31811523Y-47423340D01*
X32049619Y-47423340D01*
X32144857Y-47375721D01*
X32192476Y-47328102D01*
X32240095Y-47232864D01*
X32240095Y-47137626D01*
X32192476Y-47042388D01*
X32144857Y-46994769D01*
X32049619Y-46947150D01*
X31859142Y-46899531D01*
X31763904Y-46851912D01*
X31716285Y-46804293D01*
X31668666Y-46709055D01*
X31668666Y-46613817D01*
X31716285Y-46518579D01*
X31763904Y-46470960D01*
X31859142Y-46423340D01*
X32097238Y-46423340D01*
X32240095Y-46470960D01*
X32573428Y-46423340D02*
X32811523Y-47423340D01*
X33002000Y-46709055D01*
X33192476Y-47423340D01*
X33430571Y-46423340D01*
X34335333Y-47423340D02*
X33763904Y-47423340D01*
X34049619Y-47423340D02*
X34049619Y-46423340D01*
X33954380Y-46566198D01*
X33859142Y-46661436D01*
X33763904Y-46709055D01*
X47208666Y-47365721D02*
X47351523Y-47413340D01*
X47589619Y-47413340D01*
X47684857Y-47365721D01*
X47732476Y-47318102D01*
X47780095Y-47222864D01*
X47780095Y-47127626D01*
X47732476Y-47032388D01*
X47684857Y-46984769D01*
X47589619Y-46937150D01*
X47399142Y-46889531D01*
X47303904Y-46841912D01*
X47256285Y-46794293D01*
X47208666Y-46699055D01*
X47208666Y-46603817D01*
X47256285Y-46508579D01*
X47303904Y-46460960D01*
X47399142Y-46413340D01*
X47637238Y-46413340D01*
X47780095Y-46460960D01*
X48113428Y-46413340D02*
X48351523Y-47413340D01*
X48542000Y-46699055D01*
X48732476Y-47413340D01*
X48970571Y-46413340D01*
X49303904Y-46508579D02*
X49351523Y-46460960D01*
X49446761Y-46413340D01*
X49684857Y-46413340D01*
X49780095Y-46460960D01*
X49827714Y-46508579D01*
X49875333Y-46603817D01*
X49875333Y-46699055D01*
X49827714Y-46841912D01*
X49256285Y-47413340D01*
X49875333Y-47413340D01*
X62968666Y-47375721D02*
X63111523Y-47423340D01*
X63349619Y-47423340D01*
X63444857Y-47375721D01*
X63492476Y-47328102D01*
X63540095Y-47232864D01*
X63540095Y-47137626D01*
X63492476Y-47042388D01*
X63444857Y-46994769D01*
X63349619Y-46947150D01*
X63159142Y-46899531D01*
X63063904Y-46851912D01*
X63016285Y-46804293D01*
X62968666Y-46709055D01*
X62968666Y-46613817D01*
X63016285Y-46518579D01*
X63063904Y-46470960D01*
X63159142Y-46423340D01*
X63397238Y-46423340D01*
X63540095Y-46470960D01*
X63873428Y-46423340D02*
X64111523Y-47423340D01*
X64302000Y-46709055D01*
X64492476Y-47423340D01*
X64730571Y-46423340D01*
X65016285Y-46423340D02*
X65635333Y-46423340D01*
X65302000Y-46804293D01*
X65444857Y-46804293D01*
X65540095Y-46851912D01*
X65587714Y-46899531D01*
X65635333Y-46994769D01*
X65635333Y-47232864D01*
X65587714Y-47328102D01*
X65540095Y-47375721D01*
X65444857Y-47423340D01*
X65159142Y-47423340D01*
X65063904Y-47375721D01*
X65016285Y-47328102D01*
X75845266Y-33917521D02*
X75988123Y-33965140D01*
X76226219Y-33965140D01*
X76321457Y-33917521D01*
X76369076Y-33869902D01*
X76416695Y-33774664D01*
X76416695Y-33679426D01*
X76369076Y-33584188D01*
X76321457Y-33536569D01*
X76226219Y-33488950D01*
X76035742Y-33441331D01*
X75940504Y-33393712D01*
X75892885Y-33346093D01*
X75845266Y-33250855D01*
X75845266Y-33155617D01*
X75892885Y-33060379D01*
X75940504Y-33012760D01*
X76035742Y-32965140D01*
X76273838Y-32965140D01*
X76416695Y-33012760D01*
X76750028Y-32965140D02*
X76988123Y-33965140D01*
X77178600Y-33250855D01*
X77369076Y-33965140D01*
X77607171Y-32965140D01*
X78416695Y-33298474D02*
X78416695Y-33965140D01*
X78178600Y-32917521D02*
X77940504Y-33631807D01*
X78559552Y-33631807D01*
D10*
X38344380Y-52432864D02*
X38877714Y-53232864D01*
X38877714Y-52432864D02*
X38344380Y-53232864D01*
X39106285Y-52432864D02*
X39601523Y-52432864D01*
X39334857Y-52737626D01*
X39449142Y-52737626D01*
X39525333Y-52775721D01*
X39563428Y-52813817D01*
X39601523Y-52890007D01*
X39601523Y-53080483D01*
X39563428Y-53156674D01*
X39525333Y-53194769D01*
X39449142Y-53232864D01*
X39220571Y-53232864D01*
X39144380Y-53194769D01*
X39106285Y-53156674D01*
X60404380Y-44752864D02*
X60937714Y-45552864D01*
X60937714Y-44752864D02*
X60404380Y-45552864D01*
X61585333Y-45019531D02*
X61585333Y-45552864D01*
X61394857Y-44714769D02*
X61204380Y-45286198D01*
X61699619Y-45286198D01*
X23781523Y-54162864D02*
X23781523Y-53362864D01*
X23972000Y-53362864D01*
X24086285Y-53400960D01*
X24162476Y-53477150D01*
X24200571Y-53553340D01*
X24238666Y-53705721D01*
X24238666Y-53820007D01*
X24200571Y-53972388D01*
X24162476Y-54048579D01*
X24086285Y-54124769D01*
X23972000Y-54162864D01*
X23781523Y-54162864D01*
X25000571Y-54162864D02*
X24543428Y-54162864D01*
X24772000Y-54162864D02*
X24772000Y-53362864D01*
X24695809Y-53477150D01*
X24619619Y-53553340D01*
X24543428Y-53591436D01*
X72171523Y-54162864D02*
X72171523Y-53362864D01*
X72362000Y-53362864D01*
X72476285Y-53400960D01*
X72552476Y-53477150D01*
X72590571Y-53553340D01*
X72628666Y-53705721D01*
X72628666Y-53820007D01*
X72590571Y-53972388D01*
X72552476Y-54048579D01*
X72476285Y-54124769D01*
X72362000Y-54162864D01*
X72171523Y-54162864D01*
X72933428Y-53439055D02*
X72971523Y-53400960D01*
X73047714Y-53362864D01*
X73238190Y-53362864D01*
X73314380Y-53400960D01*
X73352476Y-53439055D01*
X73390571Y-53515245D01*
X73390571Y-53591436D01*
X73352476Y-53705721D01*
X72895333Y-54162864D01*
X73390571Y-54162864D01*
M02*
