M48
; DRILL file {KiCad (5.1.4)-1} date 28/02/2020 17:04:02
; FORMAT={-:-/ absolute / inch / decimal}
; #@! TF.CreationDate,2020-02-28T17:04:02+00:00
; #@! TF.GenerationSoftware,Kicad,Pcbnew,(5.1.4)-1
FMAT,2
INCH
T1C0.0120
T2C0.0150
T3C0.0197
T4C0.0394
%
G90
G05
T1
X1.2424Y-1.3797
X1.3141Y-1.8009
X1.5497Y-2.1084
X1.6446Y-1.7243
X1.6577Y-1.9364
X1.6712Y-1.5458
X1.6937Y-1.8784
X1.6987Y-1.5816
X1.7467Y-1.7432
X1.7697Y-1.9304
X1.7827Y-1.8519
X1.8088Y-1.9214
X1.8118Y-1.5702
X1.8331Y-1.4012
X1.8357Y-1.5204
X1.8467Y-2.0709
X1.8514Y-1.8618
X1.852Y-1.4846
X1.8843Y-1.5672
X1.9602Y-1.9379
X1.9613Y-1.9881
X1.9725Y-1.9016
X1.9747Y-2.0509
X1.988Y-2.0131
X2.0973Y-1.4744
X2.1306Y-1.6208
X2.2062Y-1.9664
X2.3187Y-1.5499
X2.3437Y-1.5874
X2.3467Y-1.6584
X2.3826Y-1.7669
X2.5122Y-1.6565
X2.5127Y-1.4912
X2.6712Y-1.6504
X2.6714Y-1.8464
X2.7312Y-1.5098
X2.7317Y-1.59
X2.7317Y-1.749
X2.7857Y-1.4304
X2.9217Y-1.5794
X2.9217Y-1.6484
T2
X1.2252Y-1.5301
X1.3044Y-1.5285
X1.3377Y-1.2764
X1.3516Y-1.9343
X1.3757Y-1.2764
X1.4157Y-1.2764
X1.5494Y-2.0688
X1.7097Y-1.4934
X1.7256Y-1.7864
X1.7757Y-1.9844
X1.8904Y-1.4937
X1.9238Y-1.7881
X2.0437Y-1.7264
X2.0517Y-1.3164
X2.1331Y-1.394
X2.1792Y-1.9399
X2.1937Y-1.5604
X2.1997Y-1.8004
X2.2294Y-1.3468
X2.3037Y-2.113
X2.3047Y-1.9723
X2.3728Y-1.5582
X2.3798Y-1.3556
X2.4261Y-1.3556
X2.4313Y-1.7824
X2.4522Y-1.8912
X2.4724Y-1.3556
X2.5202Y-2.0348
T3
X2.8407Y-1.4193
X2.8407Y-1.4685
X2.8407Y-1.5178
X2.8407Y-1.567
X2.8407Y-1.6162
X2.8407Y-1.6654
T4
X2.9937Y-1.2914
X2.6227Y-1.5004
X2.6227Y-1.6004
X2.6227Y-1.7004
X2.6227Y-1.8004
X1.4887Y-1.3534
X1.4887Y-1.4534
X1.4887Y-1.5534
X1.4887Y-1.6534
X1.4887Y-1.7534
X1.4887Y-1.8534
X1.5887Y-1.3534
X1.5887Y-1.4534
X1.5887Y-1.5534
X1.5887Y-1.6534
X1.5887Y-1.7534
X1.5887Y-1.8534
X2.9937Y-1.7914
T0
M30
