G04 #@! TF.GenerationSoftware,KiCad,Pcbnew,(5.1.4)-1*
G04 #@! TF.CreationDate,2020-02-28T17:04:00+00:00*
G04 #@! TF.ProjectId,analog,616e616c-6f67-42e6-9b69-6361645f7063,rev?*
G04 #@! TF.SameCoordinates,Original*
G04 #@! TF.FileFunction,Soldermask,Bot*
G04 #@! TF.FilePolarity,Negative*
%FSLAX46Y46*%
G04 Gerber Fmt 4.6, Leading zero omitted, Abs format (unit mm)*
G04 Created by KiCad (PCBNEW (5.1.4)-1) date 2020-02-28 17:04:00*
%MOMM*%
%LPD*%
G04 APERTURE LIST*
%ADD10C,0.100000*%
G04 APERTURE END LIST*
D10*
G36*
X40549836Y-46090830D02*
G01*
X40738332Y-46148009D01*
X40912058Y-46240868D01*
X41064328Y-46365832D01*
X41189292Y-46518102D01*
X41282151Y-46691828D01*
X41339330Y-46880324D01*
X41358638Y-47076360D01*
X41339330Y-47272396D01*
X41282151Y-47460892D01*
X41189292Y-47634618D01*
X41064328Y-47786888D01*
X40912058Y-47911852D01*
X40738332Y-48004711D01*
X40549836Y-48061890D01*
X40402920Y-48076360D01*
X40304680Y-48076360D01*
X40157764Y-48061890D01*
X39969268Y-48004711D01*
X39795542Y-47911852D01*
X39643272Y-47786888D01*
X39518308Y-47634618D01*
X39425449Y-47460892D01*
X39368270Y-47272396D01*
X39348962Y-47076360D01*
X39368270Y-46880324D01*
X39425449Y-46691828D01*
X39518308Y-46518102D01*
X39643272Y-46365832D01*
X39795542Y-46240868D01*
X39969268Y-46148009D01*
X40157764Y-46090830D01*
X40304680Y-46076360D01*
X40402920Y-46076360D01*
X40549836Y-46090830D01*
X40549836Y-46090830D01*
G37*
G36*
X38009836Y-46090830D02*
G01*
X38198332Y-46148009D01*
X38372058Y-46240868D01*
X38524328Y-46365832D01*
X38649292Y-46518102D01*
X38742151Y-46691828D01*
X38799330Y-46880324D01*
X38818638Y-47076360D01*
X38799330Y-47272396D01*
X38742151Y-47460892D01*
X38649292Y-47634618D01*
X38524328Y-47786888D01*
X38372058Y-47911852D01*
X38198332Y-48004711D01*
X38009836Y-48061890D01*
X37862920Y-48076360D01*
X37764680Y-48076360D01*
X37617764Y-48061890D01*
X37429268Y-48004711D01*
X37255542Y-47911852D01*
X37103272Y-47786888D01*
X36978308Y-47634618D01*
X36885449Y-47460892D01*
X36828270Y-47272396D01*
X36808962Y-47076360D01*
X36828270Y-46880324D01*
X36885449Y-46691828D01*
X36978308Y-46518102D01*
X37103272Y-46365832D01*
X37255542Y-46240868D01*
X37429268Y-46148009D01*
X37617764Y-46090830D01*
X37764680Y-46076360D01*
X37862920Y-46076360D01*
X38009836Y-46090830D01*
X38009836Y-46090830D01*
G37*
G36*
X34737947Y-43816147D02*
G01*
X34750689Y-43816773D01*
X34768863Y-43816773D01*
X34811042Y-43820927D01*
X34894639Y-43837556D01*
X34900779Y-43839418D01*
X34900787Y-43839420D01*
X34929062Y-43847997D01*
X34929065Y-43847998D01*
X34935203Y-43849860D01*
X35013956Y-43882480D01*
X35019614Y-43885504D01*
X35019618Y-43885506D01*
X35045677Y-43899435D01*
X35045684Y-43899440D01*
X35051340Y-43902463D01*
X35122217Y-43949821D01*
X35154977Y-43976707D01*
X35215253Y-44036983D01*
X35242139Y-44069743D01*
X35289497Y-44140620D01*
X35292520Y-44146276D01*
X35292525Y-44146283D01*
X35306454Y-44172342D01*
X35306456Y-44172346D01*
X35309480Y-44178004D01*
X35342100Y-44256757D01*
X35343962Y-44262895D01*
X35343963Y-44262898D01*
X35352540Y-44291173D01*
X35352542Y-44291181D01*
X35354404Y-44297321D01*
X35371033Y-44380918D01*
X35375187Y-44423097D01*
X35375187Y-44441271D01*
X35375813Y-44454013D01*
X35377595Y-44472106D01*
X35377595Y-45009334D01*
X35376866Y-45016736D01*
X35376240Y-45029478D01*
X35376240Y-46501962D01*
X35376866Y-46514704D01*
X35377595Y-46522106D01*
X35377595Y-47059334D01*
X35375813Y-47077427D01*
X35375187Y-47090169D01*
X35375187Y-47108343D01*
X35371033Y-47150522D01*
X35354404Y-47234119D01*
X35352542Y-47240259D01*
X35352540Y-47240267D01*
X35343963Y-47268542D01*
X35342100Y-47274683D01*
X35309480Y-47353436D01*
X35306456Y-47359094D01*
X35306454Y-47359098D01*
X35292525Y-47385157D01*
X35292520Y-47385164D01*
X35289497Y-47390820D01*
X35242139Y-47461697D01*
X35215253Y-47494457D01*
X35154977Y-47554733D01*
X35122217Y-47581619D01*
X35051340Y-47628977D01*
X35045684Y-47632000D01*
X35045677Y-47632005D01*
X35019618Y-47645934D01*
X35019614Y-47645936D01*
X35013956Y-47648960D01*
X34935203Y-47681580D01*
X34929065Y-47683442D01*
X34929062Y-47683443D01*
X34900787Y-47692020D01*
X34900779Y-47692022D01*
X34894639Y-47693884D01*
X34811042Y-47710513D01*
X34768863Y-47714667D01*
X34750689Y-47714667D01*
X34737947Y-47715293D01*
X34726240Y-47716446D01*
X34719854Y-47717075D01*
X34232626Y-47717075D01*
X34214533Y-47715293D01*
X34201791Y-47714667D01*
X34183617Y-47714667D01*
X34141438Y-47710513D01*
X34057841Y-47693884D01*
X34051701Y-47692022D01*
X34051693Y-47692020D01*
X34023418Y-47683443D01*
X34023415Y-47683442D01*
X34017277Y-47681580D01*
X33938524Y-47648960D01*
X33932866Y-47645936D01*
X33932862Y-47645934D01*
X33906803Y-47632005D01*
X33906796Y-47632000D01*
X33901140Y-47628977D01*
X33830263Y-47581619D01*
X33797503Y-47554733D01*
X33737227Y-47494457D01*
X33710341Y-47461697D01*
X33662983Y-47390820D01*
X33659960Y-47385164D01*
X33659955Y-47385157D01*
X33646026Y-47359098D01*
X33646024Y-47359094D01*
X33643000Y-47353436D01*
X33610380Y-47274683D01*
X33608517Y-47268542D01*
X33599940Y-47240267D01*
X33599938Y-47240259D01*
X33598076Y-47234119D01*
X33581447Y-47150522D01*
X33577293Y-47108343D01*
X33577293Y-47090169D01*
X33576667Y-47077427D01*
X33574885Y-47059334D01*
X33574885Y-46522106D01*
X33575614Y-46514704D01*
X33576240Y-46501962D01*
X33576240Y-45029478D01*
X33575614Y-45016736D01*
X33574885Y-45009334D01*
X33574885Y-44472106D01*
X33576667Y-44454013D01*
X33577293Y-44441271D01*
X33577293Y-44423097D01*
X33581447Y-44380918D01*
X33598076Y-44297321D01*
X33599938Y-44291181D01*
X33599940Y-44291173D01*
X33608517Y-44262898D01*
X33608518Y-44262895D01*
X33610380Y-44256757D01*
X33643000Y-44178004D01*
X33646024Y-44172346D01*
X33646026Y-44172342D01*
X33659955Y-44146283D01*
X33659960Y-44146276D01*
X33662983Y-44140620D01*
X33710341Y-44069743D01*
X33737227Y-44036983D01*
X33797503Y-43976707D01*
X33830263Y-43949821D01*
X33901140Y-43902463D01*
X33906796Y-43899440D01*
X33906803Y-43899435D01*
X33932862Y-43885506D01*
X33932866Y-43885504D01*
X33938524Y-43882480D01*
X34017277Y-43849860D01*
X34023415Y-43847998D01*
X34023418Y-43847997D01*
X34051693Y-43839420D01*
X34051701Y-43839418D01*
X34057841Y-43837556D01*
X34141438Y-43820927D01*
X34183617Y-43816773D01*
X34201791Y-43816773D01*
X34214533Y-43816147D01*
X34232626Y-43814365D01*
X34719854Y-43814365D01*
X34737947Y-43816147D01*
X34737947Y-43816147D01*
G37*
G36*
X66813436Y-44744630D02*
G01*
X67001932Y-44801809D01*
X67175658Y-44894668D01*
X67327928Y-45019632D01*
X67452892Y-45171902D01*
X67545751Y-45345628D01*
X67602930Y-45534124D01*
X67622238Y-45730160D01*
X67602930Y-45926196D01*
X67545751Y-46114692D01*
X67452892Y-46288418D01*
X67327928Y-46440688D01*
X67175658Y-46565652D01*
X67001932Y-46658511D01*
X66813436Y-46715690D01*
X66666520Y-46730160D01*
X66568280Y-46730160D01*
X66421364Y-46715690D01*
X66232868Y-46658511D01*
X66059142Y-46565652D01*
X65906872Y-46440688D01*
X65781908Y-46288418D01*
X65689049Y-46114692D01*
X65631870Y-45926196D01*
X65612562Y-45730160D01*
X65631870Y-45534124D01*
X65689049Y-45345628D01*
X65781908Y-45171902D01*
X65906872Y-45019632D01*
X66059142Y-44894668D01*
X66232868Y-44801809D01*
X66421364Y-44744630D01*
X66568280Y-44730160D01*
X66666520Y-44730160D01*
X66813436Y-44744630D01*
X66813436Y-44744630D01*
G37*
G36*
X77040800Y-46500960D02*
G01*
X75040800Y-46500960D01*
X75040800Y-44500960D01*
X77040800Y-44500960D01*
X77040800Y-46500960D01*
X77040800Y-46500960D01*
G37*
G36*
X38009836Y-43550830D02*
G01*
X38198332Y-43608009D01*
X38372058Y-43700868D01*
X38524328Y-43825832D01*
X38649292Y-43978102D01*
X38742151Y-44151828D01*
X38799330Y-44340324D01*
X38818638Y-44536360D01*
X38799330Y-44732396D01*
X38742151Y-44920892D01*
X38649292Y-45094618D01*
X38524328Y-45246888D01*
X38372058Y-45371852D01*
X38198332Y-45464711D01*
X38009836Y-45521890D01*
X37862920Y-45536360D01*
X37764680Y-45536360D01*
X37617764Y-45521890D01*
X37429268Y-45464711D01*
X37255542Y-45371852D01*
X37103272Y-45246888D01*
X36978308Y-45094618D01*
X36885449Y-44920892D01*
X36828270Y-44732396D01*
X36808962Y-44536360D01*
X36828270Y-44340324D01*
X36885449Y-44151828D01*
X36978308Y-43978102D01*
X37103272Y-43825832D01*
X37255542Y-43700868D01*
X37429268Y-43608009D01*
X37617764Y-43550830D01*
X37764680Y-43536360D01*
X37862920Y-43536360D01*
X38009836Y-43550830D01*
X38009836Y-43550830D01*
G37*
G36*
X40549836Y-43550830D02*
G01*
X40738332Y-43608009D01*
X40912058Y-43700868D01*
X41064328Y-43825832D01*
X41189292Y-43978102D01*
X41282151Y-44151828D01*
X41339330Y-44340324D01*
X41358638Y-44536360D01*
X41339330Y-44732396D01*
X41282151Y-44920892D01*
X41189292Y-45094618D01*
X41064328Y-45246888D01*
X40912058Y-45371852D01*
X40738332Y-45464711D01*
X40549836Y-45521890D01*
X40402920Y-45536360D01*
X40304680Y-45536360D01*
X40157764Y-45521890D01*
X39969268Y-45464711D01*
X39795542Y-45371852D01*
X39643272Y-45246888D01*
X39518308Y-45094618D01*
X39425449Y-44920892D01*
X39368270Y-44732396D01*
X39348962Y-44536360D01*
X39368270Y-44340324D01*
X39425449Y-44151828D01*
X39518308Y-43978102D01*
X39643272Y-43825832D01*
X39795542Y-43700868D01*
X39969268Y-43608009D01*
X40157764Y-43550830D01*
X40304680Y-43536360D01*
X40402920Y-43536360D01*
X40549836Y-43550830D01*
X40549836Y-43550830D01*
G37*
G36*
X66813436Y-42204630D02*
G01*
X67001932Y-42261809D01*
X67175658Y-42354668D01*
X67327928Y-42479632D01*
X67452892Y-42631902D01*
X67545751Y-42805628D01*
X67602930Y-42994124D01*
X67622238Y-43190160D01*
X67602930Y-43386196D01*
X67545751Y-43574692D01*
X67452892Y-43748418D01*
X67327928Y-43900688D01*
X67175658Y-44025652D01*
X67001932Y-44118511D01*
X66813436Y-44175690D01*
X66666520Y-44190160D01*
X66568280Y-44190160D01*
X66421364Y-44175690D01*
X66232868Y-44118511D01*
X66059142Y-44025652D01*
X65906872Y-43900688D01*
X65781908Y-43748418D01*
X65689049Y-43574692D01*
X65631870Y-43386196D01*
X65612562Y-43190160D01*
X65631870Y-42994124D01*
X65689049Y-42805628D01*
X65781908Y-42631902D01*
X65906872Y-42479632D01*
X66059142Y-42354668D01*
X66232868Y-42261809D01*
X66421364Y-42204630D01*
X66568280Y-42190160D01*
X66666520Y-42190160D01*
X66813436Y-42204630D01*
X66813436Y-42204630D01*
G37*
G36*
X35662372Y-42207911D02*
G01*
X35692267Y-42216980D01*
X35719822Y-42231708D01*
X35743972Y-42251528D01*
X35763792Y-42275678D01*
X35778520Y-42303233D01*
X35787589Y-42333128D01*
X35791280Y-42370606D01*
X35791280Y-42937834D01*
X35787589Y-42975312D01*
X35778520Y-43005207D01*
X35763792Y-43032762D01*
X35743972Y-43056912D01*
X35719822Y-43076732D01*
X35692267Y-43091460D01*
X35662372Y-43100529D01*
X35624894Y-43104220D01*
X33707666Y-43104220D01*
X33670188Y-43100529D01*
X33640293Y-43091460D01*
X33612738Y-43076732D01*
X33588588Y-43056912D01*
X33568768Y-43032762D01*
X33554040Y-43005207D01*
X33544971Y-42975312D01*
X33541280Y-42937834D01*
X33541280Y-42370606D01*
X33544971Y-42333128D01*
X33554040Y-42303233D01*
X33568768Y-42275678D01*
X33588588Y-42251528D01*
X33612738Y-42231708D01*
X33640293Y-42216980D01*
X33670188Y-42207911D01*
X33707666Y-42204220D01*
X35624894Y-42204220D01*
X35662372Y-42207911D01*
X35662372Y-42207911D01*
G37*
G36*
X30712372Y-42207911D02*
G01*
X30742267Y-42216980D01*
X30769822Y-42231708D01*
X30793972Y-42251528D01*
X30813792Y-42275678D01*
X30828520Y-42303233D01*
X30837589Y-42333128D01*
X30841280Y-42370606D01*
X30841280Y-42937834D01*
X30837589Y-42975312D01*
X30828520Y-43005207D01*
X30813792Y-43032762D01*
X30793972Y-43056912D01*
X30769822Y-43076732D01*
X30742267Y-43091460D01*
X30712372Y-43100529D01*
X30674894Y-43104220D01*
X28757666Y-43104220D01*
X28720188Y-43100529D01*
X28690293Y-43091460D01*
X28662738Y-43076732D01*
X28638588Y-43056912D01*
X28618768Y-43032762D01*
X28604040Y-43005207D01*
X28594971Y-42975312D01*
X28591280Y-42937834D01*
X28591280Y-42370606D01*
X28594971Y-42333128D01*
X28604040Y-42303233D01*
X28618768Y-42275678D01*
X28638588Y-42251528D01*
X28662738Y-42231708D01*
X28690293Y-42216980D01*
X28720188Y-42207911D01*
X28757666Y-42204220D01*
X30674894Y-42204220D01*
X30712372Y-42207911D01*
X30712372Y-42207911D01*
G37*
G36*
X38009836Y-41010830D02*
G01*
X38198332Y-41068009D01*
X38372058Y-41160868D01*
X38524328Y-41285832D01*
X38649292Y-41438102D01*
X38742151Y-41611828D01*
X38799330Y-41800324D01*
X38818638Y-41996360D01*
X38799330Y-42192396D01*
X38742151Y-42380892D01*
X38649292Y-42554618D01*
X38524328Y-42706888D01*
X38372058Y-42831852D01*
X38198332Y-42924711D01*
X38009836Y-42981890D01*
X37862920Y-42996360D01*
X37764680Y-42996360D01*
X37617764Y-42981890D01*
X37429268Y-42924711D01*
X37255542Y-42831852D01*
X37103272Y-42706888D01*
X36978308Y-42554618D01*
X36885449Y-42380892D01*
X36828270Y-42192396D01*
X36808962Y-41996360D01*
X36828270Y-41800324D01*
X36885449Y-41611828D01*
X36978308Y-41438102D01*
X37103272Y-41285832D01*
X37255542Y-41160868D01*
X37429268Y-41068009D01*
X37617764Y-41010830D01*
X37764680Y-40996360D01*
X37862920Y-40996360D01*
X38009836Y-41010830D01*
X38009836Y-41010830D01*
G37*
G36*
X40549836Y-41010830D02*
G01*
X40738332Y-41068009D01*
X40912058Y-41160868D01*
X41064328Y-41285832D01*
X41189292Y-41438102D01*
X41282151Y-41611828D01*
X41339330Y-41800324D01*
X41358638Y-41996360D01*
X41339330Y-42192396D01*
X41282151Y-42380892D01*
X41189292Y-42554618D01*
X41064328Y-42706888D01*
X40912058Y-42831852D01*
X40738332Y-42924711D01*
X40549836Y-42981890D01*
X40402920Y-42996360D01*
X40304680Y-42996360D01*
X40157764Y-42981890D01*
X39969268Y-42924711D01*
X39795542Y-42831852D01*
X39643272Y-42706888D01*
X39518308Y-42554618D01*
X39425449Y-42380892D01*
X39368270Y-42192396D01*
X39348962Y-41996360D01*
X39368270Y-41800324D01*
X39425449Y-41611828D01*
X39518308Y-41438102D01*
X39643272Y-41285832D01*
X39795542Y-41160868D01*
X39969268Y-41068009D01*
X40157764Y-41010830D01*
X40304680Y-40996360D01*
X40402920Y-40996360D01*
X40549836Y-41010830D01*
X40549836Y-41010830D01*
G37*
G36*
X72512420Y-35508918D02*
G01*
X72616093Y-35540367D01*
X72663868Y-35565904D01*
X72711642Y-35591439D01*
X72711644Y-35591440D01*
X72711643Y-35591440D01*
X72795390Y-35660170D01*
X72864120Y-35743917D01*
X72915193Y-35839467D01*
X72946642Y-35943140D01*
X72957261Y-36050960D01*
X72946642Y-36158780D01*
X72915193Y-36262453D01*
X72915192Y-36262454D01*
X72864121Y-36358002D01*
X72795390Y-36441750D01*
X72711642Y-36510481D01*
X72671704Y-36531828D01*
X72616545Y-36561311D01*
X72595356Y-36575469D01*
X72577335Y-36593489D01*
X72563177Y-36614679D01*
X72553425Y-36638223D01*
X72548453Y-36663218D01*
X72548453Y-36688702D01*
X72553425Y-36713697D01*
X72563177Y-36737241D01*
X72577335Y-36758430D01*
X72595355Y-36776451D01*
X72616545Y-36790609D01*
X72711642Y-36841439D01*
X72711644Y-36841440D01*
X72711643Y-36841440D01*
X72795390Y-36910170D01*
X72864120Y-36993917D01*
X72915193Y-37089467D01*
X72946642Y-37193140D01*
X72957261Y-37300960D01*
X72946642Y-37408780D01*
X72915193Y-37512453D01*
X72915192Y-37512454D01*
X72864121Y-37608002D01*
X72795390Y-37691750D01*
X72711642Y-37760481D01*
X72639166Y-37799220D01*
X72616545Y-37811311D01*
X72595356Y-37825469D01*
X72577335Y-37843489D01*
X72563177Y-37864679D01*
X72553425Y-37888223D01*
X72548453Y-37913218D01*
X72548453Y-37938702D01*
X72553425Y-37963697D01*
X72563177Y-37987241D01*
X72577335Y-38008430D01*
X72595355Y-38026451D01*
X72616545Y-38040609D01*
X72711642Y-38091439D01*
X72711644Y-38091440D01*
X72711643Y-38091440D01*
X72795390Y-38160170D01*
X72864120Y-38243917D01*
X72915193Y-38339467D01*
X72946642Y-38443140D01*
X72957261Y-38550960D01*
X72946642Y-38658780D01*
X72915193Y-38762453D01*
X72915192Y-38762454D01*
X72864121Y-38858002D01*
X72795390Y-38941750D01*
X72711642Y-39010481D01*
X72627771Y-39055311D01*
X72616545Y-39061311D01*
X72595356Y-39075469D01*
X72577335Y-39093489D01*
X72563177Y-39114679D01*
X72553425Y-39138223D01*
X72548453Y-39163218D01*
X72548453Y-39188702D01*
X72553425Y-39213697D01*
X72563177Y-39237241D01*
X72577335Y-39258430D01*
X72595355Y-39276451D01*
X72616545Y-39290609D01*
X72711642Y-39341439D01*
X72795390Y-39410170D01*
X72833298Y-39456360D01*
X72864120Y-39493917D01*
X72915193Y-39589467D01*
X72946642Y-39693140D01*
X72957261Y-39800960D01*
X72946642Y-39908780D01*
X72915193Y-40012453D01*
X72889656Y-40060228D01*
X72864121Y-40108002D01*
X72795390Y-40191750D01*
X72711642Y-40260481D01*
X72652950Y-40291852D01*
X72616545Y-40311311D01*
X72595356Y-40325469D01*
X72577335Y-40343489D01*
X72563177Y-40364679D01*
X72553425Y-40388223D01*
X72548453Y-40413218D01*
X72548453Y-40438702D01*
X72553425Y-40463697D01*
X72563177Y-40487241D01*
X72577335Y-40508430D01*
X72595355Y-40526451D01*
X72616545Y-40540609D01*
X72711642Y-40591439D01*
X72711644Y-40591440D01*
X72711643Y-40591440D01*
X72795390Y-40660170D01*
X72864120Y-40743917D01*
X72915193Y-40839467D01*
X72946642Y-40943140D01*
X72957261Y-41050960D01*
X72946642Y-41158780D01*
X72915193Y-41262453D01*
X72889656Y-41310228D01*
X72864121Y-41358002D01*
X72795390Y-41441750D01*
X72711642Y-41510481D01*
X72711640Y-41510482D01*
X72709733Y-41512047D01*
X72692632Y-41523474D01*
X72674611Y-41541495D01*
X72660453Y-41562684D01*
X72650701Y-41586228D01*
X72645729Y-41611223D01*
X72645729Y-41636707D01*
X72650701Y-41661702D01*
X72660453Y-41685246D01*
X72674611Y-41706435D01*
X72692632Y-41724456D01*
X72713821Y-41738614D01*
X72737365Y-41748366D01*
X72762359Y-41753338D01*
X72785448Y-41755612D01*
X72824722Y-41767526D01*
X72860921Y-41786875D01*
X72892648Y-41812912D01*
X72918685Y-41844639D01*
X72938034Y-41880838D01*
X72949948Y-41920113D01*
X72954600Y-41967346D01*
X72954600Y-42634574D01*
X72949948Y-42681807D01*
X72938034Y-42721082D01*
X72918685Y-42757281D01*
X72892648Y-42789008D01*
X72860921Y-42815045D01*
X72824722Y-42834394D01*
X72785447Y-42846308D01*
X72738214Y-42850960D01*
X71570986Y-42850960D01*
X71523753Y-42846308D01*
X71484478Y-42834394D01*
X71448279Y-42815045D01*
X71416552Y-42789008D01*
X71390515Y-42757281D01*
X71371166Y-42721082D01*
X71359252Y-42681807D01*
X71354600Y-42634574D01*
X71354600Y-41967346D01*
X71359252Y-41920113D01*
X71371166Y-41880838D01*
X71390515Y-41844639D01*
X71416552Y-41812912D01*
X71448279Y-41786875D01*
X71484478Y-41767526D01*
X71523752Y-41755612D01*
X71546841Y-41753338D01*
X71571835Y-41748366D01*
X71595380Y-41738614D01*
X71616569Y-41724455D01*
X71634589Y-41706435D01*
X71648747Y-41685246D01*
X71658499Y-41661701D01*
X71663471Y-41636707D01*
X71663471Y-41611222D01*
X71658499Y-41586228D01*
X71648747Y-41562683D01*
X71634588Y-41541494D01*
X71616568Y-41523474D01*
X71599467Y-41512047D01*
X71597560Y-41510482D01*
X71597558Y-41510481D01*
X71513810Y-41441750D01*
X71445079Y-41358002D01*
X71419544Y-41310228D01*
X71394007Y-41262453D01*
X71362558Y-41158780D01*
X71351939Y-41050960D01*
X71362558Y-40943140D01*
X71394007Y-40839467D01*
X71445080Y-40743917D01*
X71513810Y-40660170D01*
X71597557Y-40591440D01*
X71597556Y-40591440D01*
X71597558Y-40591439D01*
X71692655Y-40540609D01*
X71713844Y-40526451D01*
X71731865Y-40508431D01*
X71746023Y-40487241D01*
X71755775Y-40463697D01*
X71760747Y-40438702D01*
X71760747Y-40413218D01*
X71755775Y-40388223D01*
X71746023Y-40364679D01*
X71731865Y-40343490D01*
X71713845Y-40325469D01*
X71692655Y-40311311D01*
X71656250Y-40291852D01*
X71597558Y-40260481D01*
X71513810Y-40191750D01*
X71445079Y-40108002D01*
X71419544Y-40060228D01*
X71394007Y-40012453D01*
X71362558Y-39908780D01*
X71351939Y-39800960D01*
X71362558Y-39693140D01*
X71394007Y-39589467D01*
X71445080Y-39493917D01*
X71475903Y-39456360D01*
X71513810Y-39410170D01*
X71597558Y-39341439D01*
X71692655Y-39290609D01*
X71713844Y-39276451D01*
X71731865Y-39258431D01*
X71746023Y-39237241D01*
X71755775Y-39213697D01*
X71760747Y-39188702D01*
X71760747Y-39163218D01*
X71755775Y-39138223D01*
X71746023Y-39114679D01*
X71731865Y-39093490D01*
X71713845Y-39075469D01*
X71692655Y-39061311D01*
X71681429Y-39055311D01*
X71597558Y-39010481D01*
X71513810Y-38941750D01*
X71445079Y-38858002D01*
X71394008Y-38762454D01*
X71394007Y-38762453D01*
X71362558Y-38658780D01*
X71351939Y-38550960D01*
X71362558Y-38443140D01*
X71394007Y-38339467D01*
X71445080Y-38243917D01*
X71513810Y-38160170D01*
X71597557Y-38091440D01*
X71597556Y-38091440D01*
X71597558Y-38091439D01*
X71692655Y-38040609D01*
X71713844Y-38026451D01*
X71731865Y-38008431D01*
X71746023Y-37987241D01*
X71755775Y-37963697D01*
X71760747Y-37938702D01*
X71760747Y-37913218D01*
X71755775Y-37888223D01*
X71746023Y-37864679D01*
X71731865Y-37843490D01*
X71713845Y-37825469D01*
X71692655Y-37811311D01*
X71670034Y-37799220D01*
X71597558Y-37760481D01*
X71513810Y-37691750D01*
X71445079Y-37608002D01*
X71394008Y-37512454D01*
X71394007Y-37512453D01*
X71362558Y-37408780D01*
X71351939Y-37300960D01*
X71362558Y-37193140D01*
X71394007Y-37089467D01*
X71445080Y-36993917D01*
X71513810Y-36910170D01*
X71597557Y-36841440D01*
X71597556Y-36841440D01*
X71597558Y-36841439D01*
X71692655Y-36790609D01*
X71713844Y-36776451D01*
X71731865Y-36758431D01*
X71746023Y-36737241D01*
X71755775Y-36713697D01*
X71760747Y-36688702D01*
X71760747Y-36663218D01*
X71755775Y-36638223D01*
X71746023Y-36614679D01*
X71731865Y-36593490D01*
X71713845Y-36575469D01*
X71692655Y-36561311D01*
X71637496Y-36531828D01*
X71597558Y-36510481D01*
X71513810Y-36441750D01*
X71445079Y-36358002D01*
X71394008Y-36262454D01*
X71394007Y-36262453D01*
X71362558Y-36158780D01*
X71351939Y-36050960D01*
X71362558Y-35943140D01*
X71394007Y-35839467D01*
X71445080Y-35743917D01*
X71513810Y-35660170D01*
X71597557Y-35591440D01*
X71597556Y-35591440D01*
X71597558Y-35591439D01*
X71645332Y-35565903D01*
X71693107Y-35540367D01*
X71796780Y-35508918D01*
X71877582Y-35500960D01*
X72431618Y-35500960D01*
X72512420Y-35508918D01*
X72512420Y-35508918D01*
G37*
G36*
X81477000Y-42765960D02*
G01*
X77677000Y-42765960D01*
X77677000Y-40715960D01*
X81477000Y-40715960D01*
X81477000Y-42765960D01*
X81477000Y-42765960D01*
G37*
G36*
X35662372Y-40937911D02*
G01*
X35692267Y-40946980D01*
X35719822Y-40961708D01*
X35743972Y-40981528D01*
X35763792Y-41005678D01*
X35778520Y-41033233D01*
X35787589Y-41063128D01*
X35791280Y-41100606D01*
X35791280Y-41667834D01*
X35787589Y-41705312D01*
X35778520Y-41735207D01*
X35763792Y-41762762D01*
X35743972Y-41786912D01*
X35719822Y-41806732D01*
X35692267Y-41821460D01*
X35662372Y-41830529D01*
X35624894Y-41834220D01*
X33707666Y-41834220D01*
X33670188Y-41830529D01*
X33640293Y-41821460D01*
X33612738Y-41806732D01*
X33588588Y-41786912D01*
X33568768Y-41762762D01*
X33554040Y-41735207D01*
X33544971Y-41705312D01*
X33541280Y-41667834D01*
X33541280Y-41100606D01*
X33544971Y-41063128D01*
X33554040Y-41033233D01*
X33568768Y-41005678D01*
X33588588Y-40981528D01*
X33612738Y-40961708D01*
X33640293Y-40946980D01*
X33670188Y-40937911D01*
X33707666Y-40934220D01*
X35624894Y-40934220D01*
X35662372Y-40937911D01*
X35662372Y-40937911D01*
G37*
G36*
X30712372Y-40937911D02*
G01*
X30742267Y-40946980D01*
X30769822Y-40961708D01*
X30793972Y-40981528D01*
X30813792Y-41005678D01*
X30828520Y-41033233D01*
X30837589Y-41063128D01*
X30841280Y-41100606D01*
X30841280Y-41667834D01*
X30837589Y-41705312D01*
X30828520Y-41735207D01*
X30813792Y-41762762D01*
X30793972Y-41786912D01*
X30769822Y-41806732D01*
X30742267Y-41821460D01*
X30712372Y-41830529D01*
X30674894Y-41834220D01*
X28757666Y-41834220D01*
X28720188Y-41830529D01*
X28690293Y-41821460D01*
X28662738Y-41806732D01*
X28638588Y-41786912D01*
X28618768Y-41762762D01*
X28604040Y-41735207D01*
X28594971Y-41705312D01*
X28591280Y-41667834D01*
X28591280Y-41100606D01*
X28594971Y-41063128D01*
X28604040Y-41033233D01*
X28618768Y-41005678D01*
X28638588Y-40981528D01*
X28662738Y-40961708D01*
X28690293Y-40946980D01*
X28720188Y-40937911D01*
X28757666Y-40934220D01*
X30674894Y-40934220D01*
X30712372Y-40937911D01*
X30712372Y-40937911D01*
G37*
G36*
X66813436Y-39664630D02*
G01*
X67001932Y-39721809D01*
X67175658Y-39814668D01*
X67327928Y-39939632D01*
X67452892Y-40091902D01*
X67545751Y-40265628D01*
X67602930Y-40454124D01*
X67622238Y-40650160D01*
X67602930Y-40846196D01*
X67545751Y-41034692D01*
X67452892Y-41208418D01*
X67327928Y-41360688D01*
X67175658Y-41485652D01*
X67001932Y-41578511D01*
X66813436Y-41635690D01*
X66666520Y-41650160D01*
X66568280Y-41650160D01*
X66421364Y-41635690D01*
X66232868Y-41578511D01*
X66059142Y-41485652D01*
X65906872Y-41360688D01*
X65781908Y-41208418D01*
X65689049Y-41034692D01*
X65631870Y-40846196D01*
X65612562Y-40650160D01*
X65631870Y-40454124D01*
X65689049Y-40265628D01*
X65781908Y-40091902D01*
X65906872Y-39939632D01*
X66059142Y-39814668D01*
X66232868Y-39721809D01*
X66421364Y-39664630D01*
X66568280Y-39650160D01*
X66666520Y-39650160D01*
X66813436Y-39664630D01*
X66813436Y-39664630D01*
G37*
G36*
X35662372Y-39667911D02*
G01*
X35692267Y-39676980D01*
X35719822Y-39691708D01*
X35743972Y-39711528D01*
X35763792Y-39735678D01*
X35778520Y-39763233D01*
X35787589Y-39793128D01*
X35791280Y-39830606D01*
X35791280Y-40397834D01*
X35787589Y-40435312D01*
X35778520Y-40465207D01*
X35763792Y-40492762D01*
X35743972Y-40516912D01*
X35719822Y-40536732D01*
X35692267Y-40551460D01*
X35662372Y-40560529D01*
X35624894Y-40564220D01*
X33707666Y-40564220D01*
X33670188Y-40560529D01*
X33640293Y-40551460D01*
X33612738Y-40536732D01*
X33588588Y-40516912D01*
X33568768Y-40492762D01*
X33554040Y-40465207D01*
X33544971Y-40435312D01*
X33541280Y-40397834D01*
X33541280Y-39830606D01*
X33544971Y-39793128D01*
X33554040Y-39763233D01*
X33568768Y-39735678D01*
X33588588Y-39711528D01*
X33612738Y-39691708D01*
X33640293Y-39676980D01*
X33670188Y-39667911D01*
X33707666Y-39664220D01*
X35624894Y-39664220D01*
X35662372Y-39667911D01*
X35662372Y-39667911D01*
G37*
G36*
X30712372Y-39667911D02*
G01*
X30742267Y-39676980D01*
X30769822Y-39691708D01*
X30793972Y-39711528D01*
X30813792Y-39735678D01*
X30828520Y-39763233D01*
X30837589Y-39793128D01*
X30841280Y-39830606D01*
X30841280Y-40397834D01*
X30837589Y-40435312D01*
X30828520Y-40465207D01*
X30813792Y-40492762D01*
X30793972Y-40516912D01*
X30769822Y-40536732D01*
X30742267Y-40551460D01*
X30712372Y-40560529D01*
X30674894Y-40564220D01*
X28757666Y-40564220D01*
X28720188Y-40560529D01*
X28690293Y-40551460D01*
X28662738Y-40536732D01*
X28638588Y-40516912D01*
X28618768Y-40492762D01*
X28604040Y-40465207D01*
X28594971Y-40435312D01*
X28591280Y-40397834D01*
X28591280Y-39830606D01*
X28594971Y-39793128D01*
X28604040Y-39763233D01*
X28618768Y-39735678D01*
X28638588Y-39711528D01*
X28662738Y-39691708D01*
X28690293Y-39676980D01*
X28720188Y-39667911D01*
X28757666Y-39664220D01*
X30674894Y-39664220D01*
X30712372Y-39667911D01*
X30712372Y-39667911D01*
G37*
G36*
X40549836Y-38470830D02*
G01*
X40738332Y-38528009D01*
X40912058Y-38620868D01*
X41064328Y-38745832D01*
X41189292Y-38898102D01*
X41282151Y-39071828D01*
X41339330Y-39260324D01*
X41358638Y-39456360D01*
X41339330Y-39652396D01*
X41282151Y-39840892D01*
X41189292Y-40014618D01*
X41064328Y-40166888D01*
X40912058Y-40291852D01*
X40738332Y-40384711D01*
X40549836Y-40441890D01*
X40402920Y-40456360D01*
X40304680Y-40456360D01*
X40157764Y-40441890D01*
X39969268Y-40384711D01*
X39795542Y-40291852D01*
X39643272Y-40166888D01*
X39518308Y-40014618D01*
X39425449Y-39840892D01*
X39368270Y-39652396D01*
X39348962Y-39456360D01*
X39368270Y-39260324D01*
X39425449Y-39071828D01*
X39518308Y-38898102D01*
X39643272Y-38745832D01*
X39795542Y-38620868D01*
X39969268Y-38528009D01*
X40157764Y-38470830D01*
X40304680Y-38456360D01*
X40402920Y-38456360D01*
X40549836Y-38470830D01*
X40549836Y-38470830D01*
G37*
G36*
X38009836Y-38470830D02*
G01*
X38198332Y-38528009D01*
X38372058Y-38620868D01*
X38524328Y-38745832D01*
X38649292Y-38898102D01*
X38742151Y-39071828D01*
X38799330Y-39260324D01*
X38818638Y-39456360D01*
X38799330Y-39652396D01*
X38742151Y-39840892D01*
X38649292Y-40014618D01*
X38524328Y-40166888D01*
X38372058Y-40291852D01*
X38198332Y-40384711D01*
X38009836Y-40441890D01*
X37862920Y-40456360D01*
X37764680Y-40456360D01*
X37617764Y-40441890D01*
X37429268Y-40384711D01*
X37255542Y-40291852D01*
X37103272Y-40166888D01*
X36978308Y-40014618D01*
X36885449Y-39840892D01*
X36828270Y-39652396D01*
X36808962Y-39456360D01*
X36828270Y-39260324D01*
X36885449Y-39071828D01*
X36978308Y-38898102D01*
X37103272Y-38745832D01*
X37255542Y-38620868D01*
X37429268Y-38528009D01*
X37617764Y-38470830D01*
X37764680Y-38456360D01*
X37862920Y-38456360D01*
X38009836Y-38470830D01*
X38009836Y-38470830D01*
G37*
G36*
X81477000Y-40225960D02*
G01*
X77677000Y-40225960D01*
X77677000Y-38175960D01*
X81477000Y-38175960D01*
X81477000Y-40225960D01*
X81477000Y-40225960D01*
G37*
G36*
X30712372Y-38397911D02*
G01*
X30742267Y-38406980D01*
X30769822Y-38421708D01*
X30793972Y-38441528D01*
X30813792Y-38465678D01*
X30828520Y-38493233D01*
X30837589Y-38523128D01*
X30841280Y-38560606D01*
X30841280Y-39127834D01*
X30837589Y-39165312D01*
X30828520Y-39195207D01*
X30813792Y-39222762D01*
X30793972Y-39246912D01*
X30769822Y-39266732D01*
X30742267Y-39281460D01*
X30712372Y-39290529D01*
X30674894Y-39294220D01*
X28757666Y-39294220D01*
X28720188Y-39290529D01*
X28690293Y-39281460D01*
X28662738Y-39266732D01*
X28638588Y-39246912D01*
X28618768Y-39222762D01*
X28604040Y-39195207D01*
X28594971Y-39165312D01*
X28591280Y-39127834D01*
X28591280Y-38560606D01*
X28594971Y-38523128D01*
X28604040Y-38493233D01*
X28618768Y-38465678D01*
X28638588Y-38441528D01*
X28662738Y-38421708D01*
X28690293Y-38406980D01*
X28720188Y-38397911D01*
X28757666Y-38394220D01*
X30674894Y-38394220D01*
X30712372Y-38397911D01*
X30712372Y-38397911D01*
G37*
G36*
X35662372Y-38397911D02*
G01*
X35692267Y-38406980D01*
X35719822Y-38421708D01*
X35743972Y-38441528D01*
X35763792Y-38465678D01*
X35778520Y-38493233D01*
X35787589Y-38523128D01*
X35791280Y-38560606D01*
X35791280Y-39127834D01*
X35787589Y-39165312D01*
X35778520Y-39195207D01*
X35763792Y-39222762D01*
X35743972Y-39246912D01*
X35719822Y-39266732D01*
X35692267Y-39281460D01*
X35662372Y-39290529D01*
X35624894Y-39294220D01*
X33707666Y-39294220D01*
X33670188Y-39290529D01*
X33640293Y-39281460D01*
X33612738Y-39266732D01*
X33588588Y-39246912D01*
X33568768Y-39222762D01*
X33554040Y-39195207D01*
X33544971Y-39165312D01*
X33541280Y-39127834D01*
X33541280Y-38560606D01*
X33544971Y-38523128D01*
X33554040Y-38493233D01*
X33568768Y-38465678D01*
X33588588Y-38441528D01*
X33612738Y-38421708D01*
X33640293Y-38406980D01*
X33670188Y-38397911D01*
X33707666Y-38394220D01*
X35624894Y-38394220D01*
X35662372Y-38397911D01*
X35662372Y-38397911D01*
G37*
G36*
X67617400Y-39110160D02*
G01*
X65617400Y-39110160D01*
X65617400Y-37110160D01*
X67617400Y-37110160D01*
X67617400Y-39110160D01*
X67617400Y-39110160D01*
G37*
G36*
X35662372Y-37127911D02*
G01*
X35692267Y-37136980D01*
X35719822Y-37151708D01*
X35743972Y-37171528D01*
X35763792Y-37195678D01*
X35778520Y-37223233D01*
X35787589Y-37253128D01*
X35791280Y-37290606D01*
X35791280Y-37857834D01*
X35787589Y-37895312D01*
X35778520Y-37925207D01*
X35763792Y-37952762D01*
X35743972Y-37976912D01*
X35719822Y-37996732D01*
X35692267Y-38011460D01*
X35662372Y-38020529D01*
X35624894Y-38024220D01*
X33707666Y-38024220D01*
X33670188Y-38020529D01*
X33640293Y-38011460D01*
X33612738Y-37996732D01*
X33588588Y-37976912D01*
X33568768Y-37952762D01*
X33554040Y-37925207D01*
X33544971Y-37895312D01*
X33541280Y-37857834D01*
X33541280Y-37290606D01*
X33544971Y-37253128D01*
X33554040Y-37223233D01*
X33568768Y-37195678D01*
X33588588Y-37171528D01*
X33612738Y-37151708D01*
X33640293Y-37136980D01*
X33670188Y-37127911D01*
X33707666Y-37124220D01*
X35624894Y-37124220D01*
X35662372Y-37127911D01*
X35662372Y-37127911D01*
G37*
G36*
X30712372Y-37127911D02*
G01*
X30742267Y-37136980D01*
X30769822Y-37151708D01*
X30793972Y-37171528D01*
X30813792Y-37195678D01*
X30828520Y-37223233D01*
X30837589Y-37253128D01*
X30841280Y-37290606D01*
X30841280Y-37857834D01*
X30837589Y-37895312D01*
X30828520Y-37925207D01*
X30813792Y-37952762D01*
X30793972Y-37976912D01*
X30769822Y-37996732D01*
X30742267Y-38011460D01*
X30712372Y-38020529D01*
X30674894Y-38024220D01*
X28757666Y-38024220D01*
X28720188Y-38020529D01*
X28690293Y-38011460D01*
X28662738Y-37996732D01*
X28638588Y-37976912D01*
X28618768Y-37952762D01*
X28604040Y-37925207D01*
X28594971Y-37895312D01*
X28591280Y-37857834D01*
X28591280Y-37290606D01*
X28594971Y-37253128D01*
X28604040Y-37223233D01*
X28618768Y-37195678D01*
X28638588Y-37171528D01*
X28662738Y-37151708D01*
X28690293Y-37136980D01*
X28720188Y-37127911D01*
X28757666Y-37124220D01*
X30674894Y-37124220D01*
X30712372Y-37127911D01*
X30712372Y-37127911D01*
G37*
G36*
X38009836Y-35930830D02*
G01*
X38198332Y-35988009D01*
X38372058Y-36080868D01*
X38524328Y-36205832D01*
X38649292Y-36358102D01*
X38742151Y-36531828D01*
X38799330Y-36720324D01*
X38818638Y-36916360D01*
X38799330Y-37112396D01*
X38742151Y-37300892D01*
X38649292Y-37474618D01*
X38524328Y-37626888D01*
X38372058Y-37751852D01*
X38198332Y-37844711D01*
X38009836Y-37901890D01*
X37862920Y-37916360D01*
X37764680Y-37916360D01*
X37617764Y-37901890D01*
X37429268Y-37844711D01*
X37255542Y-37751852D01*
X37103272Y-37626888D01*
X36978308Y-37474618D01*
X36885449Y-37300892D01*
X36828270Y-37112396D01*
X36808962Y-36916360D01*
X36828270Y-36720324D01*
X36885449Y-36531828D01*
X36978308Y-36358102D01*
X37103272Y-36205832D01*
X37255542Y-36080868D01*
X37429268Y-35988009D01*
X37617764Y-35930830D01*
X37764680Y-35916360D01*
X37862920Y-35916360D01*
X38009836Y-35930830D01*
X38009836Y-35930830D01*
G37*
G36*
X40549836Y-35930830D02*
G01*
X40738332Y-35988009D01*
X40912058Y-36080868D01*
X41064328Y-36205832D01*
X41189292Y-36358102D01*
X41282151Y-36531828D01*
X41339330Y-36720324D01*
X41358638Y-36916360D01*
X41339330Y-37112396D01*
X41282151Y-37300892D01*
X41189292Y-37474618D01*
X41064328Y-37626888D01*
X40912058Y-37751852D01*
X40738332Y-37844711D01*
X40549836Y-37901890D01*
X40402920Y-37916360D01*
X40304680Y-37916360D01*
X40157764Y-37901890D01*
X39969268Y-37844711D01*
X39795542Y-37751852D01*
X39643272Y-37626888D01*
X39518308Y-37474618D01*
X39425449Y-37300892D01*
X39368270Y-37112396D01*
X39348962Y-36916360D01*
X39368270Y-36720324D01*
X39425449Y-36531828D01*
X39518308Y-36358102D01*
X39643272Y-36205832D01*
X39795542Y-36080868D01*
X39969268Y-35988009D01*
X40157764Y-35930830D01*
X40304680Y-35916360D01*
X40402920Y-35916360D01*
X40549836Y-35930830D01*
X40549836Y-35930830D01*
G37*
G36*
X81477000Y-37685960D02*
G01*
X77677000Y-37685960D01*
X77677000Y-35635960D01*
X81477000Y-35635960D01*
X81477000Y-37685960D01*
X81477000Y-37685960D01*
G37*
G36*
X30712372Y-35857911D02*
G01*
X30742267Y-35866980D01*
X30769822Y-35881708D01*
X30793972Y-35901528D01*
X30813792Y-35925678D01*
X30828520Y-35953233D01*
X30837589Y-35983128D01*
X30841280Y-36020606D01*
X30841280Y-36587834D01*
X30837589Y-36625312D01*
X30828520Y-36655207D01*
X30813792Y-36682762D01*
X30793972Y-36706912D01*
X30769822Y-36726732D01*
X30742267Y-36741460D01*
X30712372Y-36750529D01*
X30674894Y-36754220D01*
X28757666Y-36754220D01*
X28720188Y-36750529D01*
X28690293Y-36741460D01*
X28662738Y-36726732D01*
X28638588Y-36706912D01*
X28618768Y-36682762D01*
X28604040Y-36655207D01*
X28594971Y-36625312D01*
X28591280Y-36587834D01*
X28591280Y-36020606D01*
X28594971Y-35983128D01*
X28604040Y-35953233D01*
X28618768Y-35925678D01*
X28638588Y-35901528D01*
X28662738Y-35881708D01*
X28690293Y-35866980D01*
X28720188Y-35857911D01*
X28757666Y-35854220D01*
X30674894Y-35854220D01*
X30712372Y-35857911D01*
X30712372Y-35857911D01*
G37*
G36*
X35662372Y-35857911D02*
G01*
X35692267Y-35866980D01*
X35719822Y-35881708D01*
X35743972Y-35901528D01*
X35763792Y-35925678D01*
X35778520Y-35953233D01*
X35787589Y-35983128D01*
X35791280Y-36020606D01*
X35791280Y-36587834D01*
X35787589Y-36625312D01*
X35778520Y-36655207D01*
X35763792Y-36682762D01*
X35743972Y-36706912D01*
X35719822Y-36726732D01*
X35692267Y-36741460D01*
X35662372Y-36750529D01*
X35624894Y-36754220D01*
X33707666Y-36754220D01*
X33670188Y-36750529D01*
X33640293Y-36741460D01*
X33612738Y-36726732D01*
X33588588Y-36706912D01*
X33568768Y-36682762D01*
X33554040Y-36655207D01*
X33544971Y-36625312D01*
X33541280Y-36587834D01*
X33541280Y-36020606D01*
X33544971Y-35983128D01*
X33554040Y-35953233D01*
X33568768Y-35925678D01*
X33588588Y-35901528D01*
X33612738Y-35881708D01*
X33640293Y-35866980D01*
X33670188Y-35857911D01*
X33707666Y-35854220D01*
X35624894Y-35854220D01*
X35662372Y-35857911D01*
X35662372Y-35857911D01*
G37*
G36*
X30712372Y-34587911D02*
G01*
X30742267Y-34596980D01*
X30769822Y-34611708D01*
X30793972Y-34631528D01*
X30813792Y-34655678D01*
X30828520Y-34683233D01*
X30837589Y-34713128D01*
X30841280Y-34750606D01*
X30841280Y-35317834D01*
X30837589Y-35355312D01*
X30828520Y-35385207D01*
X30813792Y-35412762D01*
X30793972Y-35436912D01*
X30769822Y-35456732D01*
X30742267Y-35471460D01*
X30712372Y-35480529D01*
X30674894Y-35484220D01*
X28757666Y-35484220D01*
X28720188Y-35480529D01*
X28690293Y-35471460D01*
X28662738Y-35456732D01*
X28638588Y-35436912D01*
X28618768Y-35412762D01*
X28604040Y-35385207D01*
X28594971Y-35355312D01*
X28591280Y-35317834D01*
X28591280Y-34750606D01*
X28594971Y-34713128D01*
X28604040Y-34683233D01*
X28618768Y-34655678D01*
X28638588Y-34631528D01*
X28662738Y-34611708D01*
X28690293Y-34596980D01*
X28720188Y-34587911D01*
X28757666Y-34584220D01*
X30674894Y-34584220D01*
X30712372Y-34587911D01*
X30712372Y-34587911D01*
G37*
G36*
X35662372Y-34587911D02*
G01*
X35692267Y-34596980D01*
X35719822Y-34611708D01*
X35743972Y-34631528D01*
X35763792Y-34655678D01*
X35778520Y-34683233D01*
X35787589Y-34713128D01*
X35791280Y-34750606D01*
X35791280Y-35317834D01*
X35787589Y-35355312D01*
X35778520Y-35385207D01*
X35763792Y-35412762D01*
X35743972Y-35436912D01*
X35719822Y-35456732D01*
X35692267Y-35471460D01*
X35662372Y-35480529D01*
X35624894Y-35484220D01*
X33707666Y-35484220D01*
X33670188Y-35480529D01*
X33640293Y-35471460D01*
X33612738Y-35456732D01*
X33588588Y-35436912D01*
X33568768Y-35412762D01*
X33554040Y-35385207D01*
X33544971Y-35355312D01*
X33541280Y-35317834D01*
X33541280Y-34750606D01*
X33544971Y-34713128D01*
X33554040Y-34683233D01*
X33568768Y-34655678D01*
X33588588Y-34631528D01*
X33612738Y-34611708D01*
X33640293Y-34596980D01*
X33670188Y-34587911D01*
X33707666Y-34584220D01*
X35624894Y-34584220D01*
X35662372Y-34587911D01*
X35662372Y-34587911D01*
G37*
G36*
X38009836Y-33390830D02*
G01*
X38198332Y-33448009D01*
X38372058Y-33540868D01*
X38524328Y-33665832D01*
X38649292Y-33818102D01*
X38742151Y-33991828D01*
X38799330Y-34180324D01*
X38818638Y-34376360D01*
X38799330Y-34572396D01*
X38742151Y-34760892D01*
X38649292Y-34934618D01*
X38524328Y-35086888D01*
X38372058Y-35211852D01*
X38198332Y-35304711D01*
X38009836Y-35361890D01*
X37862920Y-35376360D01*
X37764680Y-35376360D01*
X37617764Y-35361890D01*
X37429268Y-35304711D01*
X37255542Y-35211852D01*
X37103272Y-35086888D01*
X36978308Y-34934618D01*
X36885449Y-34760892D01*
X36828270Y-34572396D01*
X36808962Y-34376360D01*
X36828270Y-34180324D01*
X36885449Y-33991828D01*
X36978308Y-33818102D01*
X37103272Y-33665832D01*
X37255542Y-33540868D01*
X37429268Y-33448009D01*
X37617764Y-33390830D01*
X37764680Y-33376360D01*
X37862920Y-33376360D01*
X38009836Y-33390830D01*
X38009836Y-33390830D01*
G37*
G36*
X41353800Y-35376360D02*
G01*
X39353800Y-35376360D01*
X39353800Y-33376360D01*
X41353800Y-33376360D01*
X41353800Y-35376360D01*
X41353800Y-35376360D01*
G37*
G36*
X30283016Y-32083814D02*
G01*
X30295758Y-32084440D01*
X31768242Y-32084440D01*
X31780984Y-32083814D01*
X31788386Y-32083085D01*
X32325614Y-32083085D01*
X32343707Y-32084867D01*
X32356449Y-32085493D01*
X32374623Y-32085493D01*
X32416802Y-32089647D01*
X32500399Y-32106276D01*
X32506539Y-32108138D01*
X32506547Y-32108140D01*
X32534822Y-32116717D01*
X32534825Y-32116718D01*
X32540963Y-32118580D01*
X32619716Y-32151200D01*
X32625374Y-32154224D01*
X32625378Y-32154226D01*
X32651437Y-32168155D01*
X32651444Y-32168160D01*
X32657100Y-32171183D01*
X32727977Y-32218541D01*
X32760737Y-32245427D01*
X32821013Y-32305703D01*
X32847899Y-32338463D01*
X32895257Y-32409340D01*
X32898280Y-32414996D01*
X32898285Y-32415003D01*
X32912214Y-32441062D01*
X32912216Y-32441066D01*
X32915240Y-32446724D01*
X32947860Y-32525477D01*
X32949722Y-32531615D01*
X32949723Y-32531618D01*
X32958300Y-32559893D01*
X32958302Y-32559901D01*
X32960164Y-32566041D01*
X32976793Y-32649638D01*
X32980947Y-32691817D01*
X32980947Y-32709991D01*
X32981573Y-32722733D01*
X32983355Y-32740826D01*
X32983355Y-33228054D01*
X32981573Y-33246147D01*
X32980947Y-33258889D01*
X32980947Y-33277063D01*
X32976793Y-33319242D01*
X32960164Y-33402839D01*
X32958302Y-33408979D01*
X32958300Y-33408987D01*
X32949723Y-33437262D01*
X32947860Y-33443403D01*
X32915240Y-33522156D01*
X32912216Y-33527814D01*
X32912214Y-33527818D01*
X32898285Y-33553877D01*
X32898280Y-33553884D01*
X32895257Y-33559540D01*
X32847899Y-33630417D01*
X32821013Y-33663177D01*
X32760737Y-33723453D01*
X32727977Y-33750339D01*
X32657100Y-33797697D01*
X32651444Y-33800720D01*
X32651437Y-33800725D01*
X32625378Y-33814654D01*
X32625374Y-33814656D01*
X32619716Y-33817680D01*
X32540963Y-33850300D01*
X32534825Y-33852162D01*
X32534822Y-33852163D01*
X32506547Y-33860740D01*
X32506539Y-33860742D01*
X32500399Y-33862604D01*
X32416802Y-33879233D01*
X32374623Y-33883387D01*
X32356449Y-33883387D01*
X32343707Y-33884013D01*
X32333016Y-33885066D01*
X32332000Y-33885166D01*
X32325614Y-33885795D01*
X31788386Y-33885795D01*
X31780984Y-33885066D01*
X31768242Y-33884440D01*
X30295758Y-33884440D01*
X30283016Y-33885066D01*
X30275614Y-33885795D01*
X29738386Y-33885795D01*
X29720293Y-33884013D01*
X29707551Y-33883387D01*
X29689377Y-33883387D01*
X29647198Y-33879233D01*
X29563601Y-33862604D01*
X29557461Y-33860742D01*
X29557453Y-33860740D01*
X29529178Y-33852163D01*
X29529175Y-33852162D01*
X29523037Y-33850300D01*
X29444284Y-33817680D01*
X29438626Y-33814656D01*
X29438622Y-33814654D01*
X29412563Y-33800725D01*
X29412556Y-33800720D01*
X29406900Y-33797697D01*
X29336023Y-33750339D01*
X29303263Y-33723453D01*
X29242987Y-33663177D01*
X29216101Y-33630417D01*
X29168743Y-33559540D01*
X29165720Y-33553884D01*
X29165715Y-33553877D01*
X29151786Y-33527818D01*
X29151784Y-33527814D01*
X29148760Y-33522156D01*
X29116140Y-33443403D01*
X29114277Y-33437262D01*
X29105700Y-33408987D01*
X29105698Y-33408979D01*
X29103836Y-33402839D01*
X29087207Y-33319242D01*
X29083053Y-33277063D01*
X29083053Y-33258889D01*
X29082427Y-33246147D01*
X29080645Y-33228054D01*
X29080645Y-32740826D01*
X29082427Y-32722733D01*
X29083053Y-32709991D01*
X29083053Y-32691817D01*
X29087207Y-32649638D01*
X29103836Y-32566041D01*
X29105698Y-32559901D01*
X29105700Y-32559893D01*
X29114277Y-32531618D01*
X29114278Y-32531615D01*
X29116140Y-32525477D01*
X29148760Y-32446724D01*
X29151784Y-32441066D01*
X29151786Y-32441062D01*
X29165715Y-32415003D01*
X29165720Y-32414996D01*
X29168743Y-32409340D01*
X29216101Y-32338463D01*
X29242987Y-32305703D01*
X29303263Y-32245427D01*
X29336023Y-32218541D01*
X29406900Y-32171183D01*
X29412556Y-32168160D01*
X29412563Y-32168155D01*
X29438622Y-32154226D01*
X29438626Y-32154224D01*
X29444284Y-32151200D01*
X29523037Y-32118580D01*
X29529175Y-32116718D01*
X29529178Y-32116717D01*
X29557453Y-32108140D01*
X29557461Y-32108138D01*
X29563601Y-32106276D01*
X29647198Y-32089647D01*
X29689377Y-32085493D01*
X29707551Y-32085493D01*
X29720293Y-32084867D01*
X29738386Y-32083085D01*
X30275614Y-32083085D01*
X30283016Y-32083814D01*
X30283016Y-32083814D01*
G37*
G36*
X77040800Y-33801560D02*
G01*
X75040800Y-33801560D01*
X75040800Y-31801560D01*
X77040800Y-31801560D01*
X77040800Y-33801560D01*
X77040800Y-33801560D01*
G37*
M02*
