M48
; DRILL file {KiCad (5.1.4)-1} date 28/02/2020 17:05:51
; FORMAT={-:-/ absolute / inch / decimal}
; #@! TF.CreationDate,2020-02-28T17:05:51+00:00
; #@! TF.GenerationSoftware,Kicad,Pcbnew,(5.1.4)-1
FMAT,2
INCH
T1C0.0150
T2C0.0197
T3C0.0394
%
G90
G05
T1
X1.8281Y-1.5017
X1.9243Y-1.4712
X1.9317Y-1.9424
X2.5367Y-1.4924
X2.5367Y-1.6174
X2.5367Y-1.7574
X2.5367Y-1.8974
T2
X2.8407Y-1.4193
X2.8407Y-1.4685
X2.8407Y-1.5178
X2.8407Y-1.567
X2.8407Y-1.6162
X2.8407Y-1.6654
T3
X2.9934Y-1.7915
X2.6227Y-1.5004
X2.6227Y-1.6004
X2.6227Y-1.7004
X2.6227Y-1.8004
X2.9937Y-1.2914
X1.4887Y-1.3534
X1.4887Y-1.4534
X1.4887Y-1.5534
X1.4887Y-1.6534
X1.4887Y-1.7534
X1.4887Y-1.8534
X1.5887Y-1.3534
X1.5887Y-1.4534
X1.5887Y-1.5534
X1.5887Y-1.6534
X1.5887Y-1.7534
X1.5887Y-1.8534
T0
M30
