G04 #@! TF.GenerationSoftware,KiCad,Pcbnew,(5.1.4)-1*
G04 #@! TF.CreationDate,2020-02-28T17:05:49+00:00*
G04 #@! TF.ProjectId,buffer,62756666-6572-42e6-9b69-6361645f7063,rev?*
G04 #@! TF.SameCoordinates,Original*
G04 #@! TF.FileFunction,Legend,Top*
G04 #@! TF.FilePolarity,Positive*
%FSLAX46Y46*%
G04 Gerber Fmt 4.6, Leading zero omitted, Abs format (unit mm)*
G04 Created by KiCad (PCBNEW (5.1.4)-1) date 2020-02-28 17:05:49*
%MOMM*%
%LPD*%
G04 APERTURE LIST*
%ADD10C,0.150000*%
%ADD11C,0.120000*%
%ADD12C,0.100000*%
G04 APERTURE END LIST*
D10*
X51057409Y-40685720D02*
G75*
G03X51057409Y-40685720I-264209J0D01*
G01*
D11*
X43458070Y-34481686D02*
X43419975Y-34443591D01*
X43343784Y-34329305D01*
X43305689Y-34253115D01*
X43267594Y-34138829D01*
X43229499Y-33948353D01*
X43229499Y-33795972D01*
X43267594Y-33605496D01*
X43305689Y-33491210D01*
X43343784Y-33415020D01*
X43419975Y-33300734D01*
X43458070Y-33262639D01*
X43762832Y-34176924D02*
X43762832Y-33376924D01*
X44219975Y-34176924D01*
X44219975Y-33376924D01*
X44715213Y-34176924D02*
X44639022Y-34138829D01*
X44600927Y-34100734D01*
X44562832Y-34024543D01*
X44562832Y-33795972D01*
X44600927Y-33719781D01*
X44639022Y-33681686D01*
X44715213Y-33643591D01*
X44829499Y-33643591D01*
X44905689Y-33681686D01*
X44943784Y-33719781D01*
X44981880Y-33795972D01*
X44981880Y-34024543D01*
X44943784Y-34100734D01*
X44905689Y-34138829D01*
X44829499Y-34176924D01*
X44715213Y-34176924D01*
X45210451Y-33643591D02*
X45515213Y-33643591D01*
X45324737Y-33376924D02*
X45324737Y-34062639D01*
X45362832Y-34138829D01*
X45439022Y-34176924D01*
X45515213Y-34176924D01*
X46658070Y-33757877D02*
X46391403Y-33757877D01*
X46391403Y-34176924D02*
X46391403Y-33376924D01*
X46772356Y-33376924D01*
X47077118Y-34176924D02*
X47077118Y-33643591D01*
X47077118Y-33376924D02*
X47039022Y-33415020D01*
X47077118Y-33453115D01*
X47115213Y-33415020D01*
X47077118Y-33376924D01*
X47077118Y-33453115D01*
X47343784Y-33643591D02*
X47648546Y-33643591D01*
X47458070Y-33376924D02*
X47458070Y-34062639D01*
X47496165Y-34138829D01*
X47572356Y-34176924D01*
X47648546Y-34176924D01*
X47800927Y-33643591D02*
X48105689Y-33643591D01*
X47915213Y-33376924D02*
X47915213Y-34062639D01*
X47953308Y-34138829D01*
X48029499Y-34176924D01*
X48105689Y-34176924D01*
X48677118Y-34138829D02*
X48600927Y-34176924D01*
X48448546Y-34176924D01*
X48372356Y-34138829D01*
X48334260Y-34062639D01*
X48334260Y-33757877D01*
X48372356Y-33681686D01*
X48448546Y-33643591D01*
X48600927Y-33643591D01*
X48677118Y-33681686D01*
X48715213Y-33757877D01*
X48715213Y-33834067D01*
X48334260Y-33910258D01*
X49400927Y-34176924D02*
X49400927Y-33376924D01*
X49400927Y-34138829D02*
X49324737Y-34176924D01*
X49172356Y-34176924D01*
X49096165Y-34138829D01*
X49058070Y-34100734D01*
X49019975Y-34024543D01*
X49019975Y-33795972D01*
X49058070Y-33719781D01*
X49096165Y-33681686D01*
X49172356Y-33643591D01*
X49324737Y-33643591D01*
X49400927Y-33681686D01*
X49705689Y-34481686D02*
X49743784Y-34443591D01*
X49819975Y-34329305D01*
X49858070Y-34253115D01*
X49896165Y-34138829D01*
X49934260Y-33948353D01*
X49934260Y-33795972D01*
X49896165Y-33605496D01*
X49858070Y-33491210D01*
X49819975Y-33415020D01*
X49743784Y-33300734D01*
X49705689Y-33262639D01*
D12*
X75185142Y-42126145D02*
X75185142Y-42326145D01*
X75499428Y-42326145D02*
X74899428Y-42326145D01*
X74899428Y-42040431D01*
X75499428Y-41811860D02*
X75099428Y-41811860D01*
X74899428Y-41811860D02*
X74928000Y-41840431D01*
X74956571Y-41811860D01*
X74928000Y-41783288D01*
X74899428Y-41811860D01*
X74956571Y-41811860D01*
X75099428Y-41611860D02*
X75099428Y-41383288D01*
X74899428Y-41526145D02*
X75413714Y-41526145D01*
X75470857Y-41497574D01*
X75499428Y-41440431D01*
X75499428Y-41383288D01*
X74899428Y-40697574D02*
X75013714Y-40754717D01*
X75499428Y-40440431D02*
X74899428Y-40440431D01*
X74899428Y-40211860D01*
X74928000Y-40154717D01*
X74956571Y-40126145D01*
X75013714Y-40097574D01*
X75099428Y-40097574D01*
X75156571Y-40126145D01*
X75185142Y-40154717D01*
X75213714Y-40211860D01*
X75213714Y-40440431D01*
X74899428Y-39897574D02*
X74899428Y-39526145D01*
X75128000Y-39726145D01*
X75128000Y-39640431D01*
X75156571Y-39583288D01*
X75185142Y-39554717D01*
X75242285Y-39526145D01*
X75385142Y-39526145D01*
X75442285Y-39554717D01*
X75470857Y-39583288D01*
X75499428Y-39640431D01*
X75499428Y-39811860D01*
X75470857Y-39869002D01*
X75442285Y-39897574D01*
X74899428Y-39240431D02*
X75013714Y-39297574D01*
X75499428Y-38440431D02*
X75470857Y-38497574D01*
X75442285Y-38526145D01*
X75385142Y-38554717D01*
X75213714Y-38554717D01*
X75156571Y-38526145D01*
X75128000Y-38497574D01*
X75099428Y-38440431D01*
X75099428Y-38354717D01*
X75128000Y-38297574D01*
X75156571Y-38269002D01*
X75213714Y-38240431D01*
X75385142Y-38240431D01*
X75442285Y-38269002D01*
X75470857Y-38297574D01*
X75499428Y-38354717D01*
X75499428Y-38440431D01*
X75499428Y-37983288D02*
X75099428Y-37983288D01*
X75213714Y-37983288D02*
X75156571Y-37954717D01*
X75128000Y-37926145D01*
X75099428Y-37869002D01*
X75099428Y-37811860D01*
X74899428Y-37126145D02*
X75013714Y-37183288D01*
X75499428Y-36869002D02*
X74899428Y-36869002D01*
X74899428Y-36640431D01*
X74928000Y-36583288D01*
X74956571Y-36554717D01*
X75013714Y-36526145D01*
X75099428Y-36526145D01*
X75156571Y-36554717D01*
X75185142Y-36583288D01*
X75213714Y-36640431D01*
X75213714Y-36869002D01*
X75099428Y-36011860D02*
X75499428Y-36011860D01*
X74870857Y-36154717D02*
X75299428Y-36297574D01*
X75299428Y-35926145D01*
X74899428Y-35669002D02*
X75013714Y-35726145D01*
D10*
X27780800Y-48320960D02*
X36315200Y-45882560D01*
X27780800Y-45831760D02*
X36315200Y-48371760D01*
X39083800Y-45755560D02*
X41496800Y-45755560D01*
X38702800Y-45349160D02*
X39083800Y-45755560D01*
X39541000Y-43215560D02*
X41700000Y-43215560D01*
X39617200Y-38237160D02*
X41598400Y-38237160D01*
X39566400Y-40726360D02*
X41547600Y-40726360D01*
X39058400Y-35620960D02*
X41573000Y-35620960D01*
X38626600Y-35189160D02*
X39058400Y-35620960D01*
X39033000Y-43215560D02*
X38626600Y-42809160D01*
X39541000Y-43215560D02*
X39033000Y-43215560D01*
X39058400Y-40726360D02*
X38601200Y-40269160D01*
X39566400Y-40726360D02*
X39058400Y-40726360D01*
X39134600Y-38237160D02*
X38626600Y-37729160D01*
X39617200Y-38237160D02*
X39134600Y-38237160D01*
X41933371Y-43794940D02*
X41933371Y-43128274D01*
X41933371Y-43318750D02*
X41980990Y-43223512D01*
X42028609Y-43175893D01*
X42123847Y-43128274D01*
X42219085Y-43128274D01*
X42365123Y-41229540D02*
X42031790Y-40753350D01*
X41793695Y-41229540D02*
X41793695Y-40229540D01*
X42174647Y-40229540D01*
X42269885Y-40277160D01*
X42317504Y-40324779D01*
X42365123Y-40420017D01*
X42365123Y-40562874D01*
X42317504Y-40658112D01*
X42269885Y-40705731D01*
X42174647Y-40753350D01*
X41793695Y-40753350D01*
X42342904Y-37787960D02*
X42247666Y-37740340D01*
X42104809Y-37740340D01*
X41961952Y-37787960D01*
X41866714Y-37883198D01*
X41819095Y-37978436D01*
X41771476Y-38168912D01*
X41771476Y-38311769D01*
X41819095Y-38502245D01*
X41866714Y-38597483D01*
X41961952Y-38692721D01*
X42104809Y-38740340D01*
X42200047Y-38740340D01*
X42342904Y-38692721D01*
X42390523Y-38645102D01*
X42390523Y-38311769D01*
X42200047Y-38311769D01*
X41969880Y-45284140D02*
X42065119Y-45284140D01*
X42160357Y-45331760D01*
X42207976Y-45379379D01*
X42255595Y-45474617D01*
X42303214Y-45665093D01*
X42303214Y-45903188D01*
X42255595Y-46093664D01*
X42207976Y-46188902D01*
X42160357Y-46236521D01*
X42065119Y-46284140D01*
X41969880Y-46284140D01*
X41874642Y-46236521D01*
X41827023Y-46188902D01*
X41779404Y-46093664D01*
X41731785Y-45903188D01*
X41731785Y-45665093D01*
X41779404Y-45474617D01*
X41827023Y-45379379D01*
X41874642Y-45331760D01*
X41969880Y-45284140D01*
X42101628Y-35447931D02*
X42244485Y-35495550D01*
X42292104Y-35543169D01*
X42339723Y-35638407D01*
X42339723Y-35781264D01*
X42292104Y-35876502D01*
X42244485Y-35924121D01*
X42149247Y-35971740D01*
X41768295Y-35971740D01*
X41768295Y-34971740D01*
X42101628Y-34971740D01*
X42196866Y-35019360D01*
X42244485Y-35066979D01*
X42292104Y-35162217D01*
X42292104Y-35257455D01*
X42244485Y-35352693D01*
X42196866Y-35400312D01*
X42101628Y-35447931D01*
X41768295Y-35447931D01*
X42244485Y-44068074D02*
X42244485Y-44877598D01*
X42196866Y-44972836D01*
X42149247Y-45020455D01*
X42054009Y-45068074D01*
X41911152Y-45068074D01*
X41815914Y-45020455D01*
X42244485Y-44687121D02*
X42149247Y-44734740D01*
X41958771Y-44734740D01*
X41863533Y-44687121D01*
X41815914Y-44639502D01*
X41768295Y-44544264D01*
X41768295Y-44258550D01*
X41815914Y-44163312D01*
X41863533Y-44115693D01*
X41958771Y-44068074D01*
X42149247Y-44068074D01*
X42244485Y-44115693D01*
X41790514Y-42524940D02*
X41790514Y-41524940D01*
X41790514Y-41905893D02*
X41885752Y-41858274D01*
X42076228Y-41858274D01*
X42171466Y-41905893D01*
X42219085Y-41953512D01*
X42266704Y-42048750D01*
X42266704Y-42334464D01*
X42219085Y-42429702D01*
X42171466Y-42477321D01*
X42076228Y-42524940D01*
X41885752Y-42524940D01*
X41790514Y-42477321D01*
X41795285Y-39984940D02*
X41795285Y-38984940D01*
X41795285Y-39461131D02*
X42366714Y-39461131D01*
X42366714Y-39984940D02*
X42366714Y-38984940D01*
X41722266Y-36444940D02*
X42055600Y-37444940D01*
X42388933Y-36444940D01*
X42268295Y-33600140D02*
X41792104Y-33600140D01*
X41744485Y-34076331D01*
X41792104Y-34028712D01*
X41887342Y-33981093D01*
X42125438Y-33981093D01*
X42220676Y-34028712D01*
X42268295Y-34076331D01*
X42315914Y-34171569D01*
X42315914Y-34409664D01*
X42268295Y-34504902D01*
X42220676Y-34552521D01*
X42125438Y-34600140D01*
X41887342Y-34600140D01*
X41792104Y-34552521D01*
X41744485Y-34504902D01*
D11*
X51606000Y-48945960D02*
X53556000Y-48945960D01*
X51606000Y-48945960D02*
X49656000Y-48945960D01*
X51606000Y-40075960D02*
X53556000Y-40075960D01*
X51606000Y-40075960D02*
X48156000Y-40075960D01*
X76714600Y-34440960D02*
X76714600Y-39175960D01*
X70994600Y-34440960D02*
X76714600Y-34440960D01*
X70994600Y-35510960D02*
X70994600Y-34440960D01*
X71294600Y-35510960D02*
X70994600Y-35510960D01*
X71294600Y-39175960D02*
X71294600Y-35510960D01*
X76714600Y-43910960D02*
X76714600Y-39175960D01*
X70994600Y-43910960D02*
X76714600Y-43910960D01*
X70994600Y-42840960D02*
X70994600Y-43910960D01*
X71294600Y-42840960D02*
X70994600Y-42840960D01*
X71294600Y-39175960D02*
X71294600Y-42840960D01*
X70704600Y-42550960D02*
X70704600Y-43050960D01*
X71004600Y-42550960D02*
X70704600Y-42550960D01*
X65287400Y-36780160D02*
X66617400Y-36780160D01*
X65287400Y-38110160D02*
X65287400Y-36780160D01*
X65287400Y-39380160D02*
X67947400Y-39380160D01*
X67947400Y-39380160D02*
X67947400Y-47060160D01*
X65287400Y-39380160D02*
X65287400Y-47060160D01*
X65287400Y-47060160D02*
X67947400Y-47060160D01*
X27723800Y-33166360D02*
X36353800Y-33166360D01*
X27723800Y-33284455D02*
X36353800Y-33284455D01*
X27723800Y-33402550D02*
X36353800Y-33402550D01*
X27723800Y-33520645D02*
X36353800Y-33520645D01*
X27723800Y-33638740D02*
X36353800Y-33638740D01*
X27723800Y-33756835D02*
X36353800Y-33756835D01*
X27723800Y-33874930D02*
X36353800Y-33874930D01*
X27723800Y-33993025D02*
X36353800Y-33993025D01*
X27723800Y-34111120D02*
X36353800Y-34111120D01*
X27723800Y-34229215D02*
X36353800Y-34229215D01*
X27723800Y-34347310D02*
X36353800Y-34347310D01*
X27723800Y-34465405D02*
X36353800Y-34465405D01*
X27723800Y-34583500D02*
X36353800Y-34583500D01*
X27723800Y-34701595D02*
X36353800Y-34701595D01*
X27723800Y-34819690D02*
X36353800Y-34819690D01*
X27723800Y-34937785D02*
X36353800Y-34937785D01*
X27723800Y-35055880D02*
X36353800Y-35055880D01*
X27723800Y-35173975D02*
X36353800Y-35173975D01*
X27723800Y-35292070D02*
X36353800Y-35292070D01*
X27723800Y-35410165D02*
X36353800Y-35410165D01*
X27723800Y-35528260D02*
X36353800Y-35528260D01*
X36353800Y-34016360D02*
X36763800Y-34016360D01*
X38863800Y-34016360D02*
X39243800Y-34016360D01*
X36353800Y-34736360D02*
X36763800Y-34736360D01*
X38863800Y-34736360D02*
X39243800Y-34736360D01*
X36353800Y-36556360D02*
X36763800Y-36556360D01*
X38863800Y-36556360D02*
X39303800Y-36556360D01*
X36353800Y-37276360D02*
X36763800Y-37276360D01*
X38863800Y-37276360D02*
X39303800Y-37276360D01*
X36353800Y-39096360D02*
X36763800Y-39096360D01*
X38863800Y-39096360D02*
X39303800Y-39096360D01*
X36353800Y-39816360D02*
X36763800Y-39816360D01*
X38863800Y-39816360D02*
X39303800Y-39816360D01*
X36353800Y-41636360D02*
X36763800Y-41636360D01*
X38863800Y-41636360D02*
X39303800Y-41636360D01*
X36353800Y-42356360D02*
X36763800Y-42356360D01*
X38863800Y-42356360D02*
X39303800Y-42356360D01*
X36353800Y-44176360D02*
X36763800Y-44176360D01*
X38863800Y-44176360D02*
X39303800Y-44176360D01*
X36353800Y-44896360D02*
X36763800Y-44896360D01*
X38863800Y-44896360D02*
X39303800Y-44896360D01*
X36353800Y-46716360D02*
X36763800Y-46716360D01*
X38863800Y-46716360D02*
X39303800Y-46716360D01*
X36353800Y-47436360D02*
X36763800Y-47436360D01*
X38863800Y-47436360D02*
X39303800Y-47436360D01*
X27723800Y-35646360D02*
X36353800Y-35646360D01*
X27723800Y-38186360D02*
X36353800Y-38186360D01*
X27723800Y-40726360D02*
X36353800Y-40726360D01*
X27723800Y-43266360D02*
X36353800Y-43266360D01*
X27723800Y-45806360D02*
X36353800Y-45806360D01*
X27723800Y-33046360D02*
X36353800Y-33046360D01*
X36353800Y-33046360D02*
X36353800Y-48406360D01*
X27723800Y-48406360D02*
X36353800Y-48406360D01*
X27723800Y-33046360D02*
X27723800Y-48406360D01*
X41463800Y-33046360D02*
X41463800Y-34376360D01*
X40353800Y-33046360D02*
X41463800Y-33046360D01*
X81102000Y-35200960D02*
X77102000Y-35200960D01*
X77102000Y-35200960D02*
X77102000Y-43200960D01*
X77102000Y-43200960D02*
X81102000Y-43200960D01*
X53338720Y-32543240D02*
X53338720Y-34543240D01*
X53338720Y-34543240D02*
X57238720Y-34543240D01*
X53338720Y-32543240D02*
X57238720Y-32543240D01*
X61885748Y-47407760D02*
X62408252Y-47407760D01*
X61885748Y-48827760D02*
X62408252Y-48827760D01*
X61818548Y-45297160D02*
X62341052Y-45297160D01*
X61818548Y-43877160D02*
X62341052Y-43877160D01*
X61758748Y-40371960D02*
X62281252Y-40371960D01*
X61758748Y-41791960D02*
X62281252Y-41791960D01*
X61784148Y-38413760D02*
X62306652Y-38413760D01*
X61784148Y-36993760D02*
X62306652Y-36993760D01*
X47272000Y-45715960D02*
X47272000Y-47115960D01*
X46572000Y-47815960D02*
X45972000Y-47815960D01*
X45272000Y-47115960D02*
X45272000Y-45715960D01*
X45972000Y-45015960D02*
X46572000Y-45015960D01*
X46572000Y-45015960D02*
G75*
G02X47272000Y-45715960I0J-700000D01*
G01*
X45272000Y-45715960D02*
G75*
G02X45972000Y-45015960I700000J0D01*
G01*
X45972000Y-47815960D02*
G75*
G02X45272000Y-47115960I0J700000D01*
G01*
X47272000Y-47115960D02*
G75*
G02X46572000Y-47815960I-700000J0D01*
G01*
X47272000Y-43290960D02*
G75*
G02X46572000Y-43990960I-700000J0D01*
G01*
X45972000Y-43990960D02*
G75*
G02X45272000Y-43290960I0J700000D01*
G01*
X45272000Y-41890960D02*
G75*
G02X45972000Y-41190960I700000J0D01*
G01*
X46572000Y-41190960D02*
G75*
G02X47272000Y-41890960I0J-700000D01*
G01*
X45972000Y-41190960D02*
X46572000Y-41190960D01*
X45272000Y-43290960D02*
X45272000Y-41890960D01*
X46572000Y-43990960D02*
X45972000Y-43990960D01*
X47272000Y-41890960D02*
X47272000Y-43290960D01*
X57940000Y-46985960D02*
X57940000Y-48385960D01*
X57240000Y-49085960D02*
X56640000Y-49085960D01*
X55940000Y-48385960D02*
X55940000Y-46985960D01*
X56640000Y-46285960D02*
X57240000Y-46285960D01*
X57240000Y-46285960D02*
G75*
G02X57940000Y-46985960I0J-700000D01*
G01*
X55940000Y-46985960D02*
G75*
G02X56640000Y-46285960I700000J0D01*
G01*
X56640000Y-49085960D02*
G75*
G02X55940000Y-48385960I0J700000D01*
G01*
X57940000Y-48385960D02*
G75*
G02X57240000Y-49085960I-700000J0D01*
G01*
X57940000Y-44575960D02*
G75*
G02X57240000Y-45275960I-700000J0D01*
G01*
X56640000Y-45275960D02*
G75*
G02X55940000Y-44575960I0J700000D01*
G01*
X55940000Y-43175960D02*
G75*
G02X56640000Y-42475960I700000J0D01*
G01*
X57240000Y-42475960D02*
G75*
G02X57940000Y-43175960I0J-700000D01*
G01*
X56640000Y-42475960D02*
X57240000Y-42475960D01*
X55940000Y-44575960D02*
X55940000Y-43175960D01*
X57240000Y-45275960D02*
X56640000Y-45275960D01*
X57940000Y-43175960D02*
X57940000Y-44575960D01*
X54081000Y-38906960D02*
G75*
G02X53381000Y-38206960I0J700000D01*
G01*
X53381000Y-37606960D02*
G75*
G02X54081000Y-36906960I700000J0D01*
G01*
X55481000Y-36906960D02*
G75*
G02X56181000Y-37606960I0J-700000D01*
G01*
X56181000Y-38206960D02*
G75*
G02X55481000Y-38906960I-700000J0D01*
G01*
X56181000Y-37606960D02*
X56181000Y-38206960D01*
X54081000Y-36906960D02*
X55481000Y-36906960D01*
X53381000Y-38206960D02*
X53381000Y-37606960D01*
X55481000Y-38906960D02*
X54081000Y-38906960D01*
X47164880Y-35910888D02*
X47164880Y-36433392D01*
X45744880Y-35910888D02*
X45744880Y-36433392D01*
X51293212Y-38078480D02*
X50770708Y-38078480D01*
X51293212Y-36658480D02*
X50770708Y-36658480D01*
D10*
X48852735Y-38664900D02*
X48852735Y-39474424D01*
X48900354Y-39569662D01*
X48947973Y-39617281D01*
X49043211Y-39664900D01*
X49233687Y-39664900D01*
X49328925Y-39617281D01*
X49376544Y-39569662D01*
X49424163Y-39474424D01*
X49424163Y-38664900D01*
X50424163Y-39664900D02*
X49852735Y-39664900D01*
X50138449Y-39664900D02*
X50138449Y-38664900D01*
X50043211Y-38807758D01*
X49947973Y-38902996D01*
X49852735Y-38950615D01*
X73267380Y-45689855D02*
X72267380Y-45689855D01*
X72267380Y-45308902D01*
X72315000Y-45213664D01*
X72362619Y-45166045D01*
X72457857Y-45118426D01*
X72600714Y-45118426D01*
X72695952Y-45166045D01*
X72743571Y-45213664D01*
X72791190Y-45308902D01*
X72791190Y-45689855D01*
X72267380Y-44785093D02*
X72267380Y-44166045D01*
X72648333Y-44499379D01*
X72648333Y-44356521D01*
X72695952Y-44261283D01*
X72743571Y-44213664D01*
X72838809Y-44166045D01*
X73076904Y-44166045D01*
X73172142Y-44213664D01*
X73219761Y-44261283D01*
X73267380Y-44356521D01*
X73267380Y-44642236D01*
X73219761Y-44737474D01*
X73172142Y-44785093D01*
D11*
X67116733Y-36826626D02*
X67116733Y-36126626D01*
X67383400Y-36126626D01*
X67450066Y-36159960D01*
X67483400Y-36193293D01*
X67516733Y-36259960D01*
X67516733Y-36359960D01*
X67483400Y-36426626D01*
X67450066Y-36459960D01*
X67383400Y-36493293D01*
X67116733Y-36493293D01*
X67783400Y-36193293D02*
X67816733Y-36159960D01*
X67883400Y-36126626D01*
X68050066Y-36126626D01*
X68116733Y-36159960D01*
X68150066Y-36193293D01*
X68183400Y-36259960D01*
X68183400Y-36326626D01*
X68150066Y-36426626D01*
X67750066Y-36826626D01*
X68183400Y-36826626D01*
D10*
X32122704Y-32771340D02*
X32122704Y-31771340D01*
X32503657Y-31771340D01*
X32598895Y-31818960D01*
X32646514Y-31866579D01*
X32694133Y-31961817D01*
X32694133Y-32104674D01*
X32646514Y-32199912D01*
X32598895Y-32247531D01*
X32503657Y-32295150D01*
X32122704Y-32295150D01*
X33646514Y-32771340D02*
X33075085Y-32771340D01*
X33360800Y-32771340D02*
X33360800Y-31771340D01*
X33265561Y-31914198D01*
X33170323Y-32009436D01*
X33075085Y-32057055D01*
X58310104Y-35349440D02*
X58310104Y-34349440D01*
X58548200Y-34349440D01*
X58691057Y-34397060D01*
X58786295Y-34492298D01*
X58833914Y-34587536D01*
X58881533Y-34778012D01*
X58881533Y-34920869D01*
X58833914Y-35111345D01*
X58786295Y-35206583D01*
X58691057Y-35301821D01*
X58548200Y-35349440D01*
X58310104Y-35349440D01*
X59833914Y-35349440D02*
X59262485Y-35349440D01*
X59548200Y-35349440D02*
X59548200Y-34349440D01*
X59452961Y-34492298D01*
X59357723Y-34587536D01*
X59262485Y-34635155D01*
X61980333Y-46920140D02*
X61647000Y-46443950D01*
X61408904Y-46920140D02*
X61408904Y-45920140D01*
X61789857Y-45920140D01*
X61885095Y-45967760D01*
X61932714Y-46015379D01*
X61980333Y-46110617D01*
X61980333Y-46253474D01*
X61932714Y-46348712D01*
X61885095Y-46396331D01*
X61789857Y-46443950D01*
X61408904Y-46443950D01*
X62932714Y-46920140D02*
X62361285Y-46920140D01*
X62647000Y-46920140D02*
X62647000Y-45920140D01*
X62551761Y-46062998D01*
X62456523Y-46158236D01*
X62361285Y-46205855D01*
X61913133Y-43389540D02*
X61579800Y-42913350D01*
X61341704Y-43389540D02*
X61341704Y-42389540D01*
X61722657Y-42389540D01*
X61817895Y-42437160D01*
X61865514Y-42484779D01*
X61913133Y-42580017D01*
X61913133Y-42722874D01*
X61865514Y-42818112D01*
X61817895Y-42865731D01*
X61722657Y-42913350D01*
X61341704Y-42913350D01*
X62294085Y-42484779D02*
X62341704Y-42437160D01*
X62436942Y-42389540D01*
X62675038Y-42389540D01*
X62770276Y-42437160D01*
X62817895Y-42484779D01*
X62865514Y-42580017D01*
X62865514Y-42675255D01*
X62817895Y-42818112D01*
X62246466Y-43389540D01*
X62865514Y-43389540D01*
X61853333Y-39884340D02*
X61520000Y-39408150D01*
X61281904Y-39884340D02*
X61281904Y-38884340D01*
X61662857Y-38884340D01*
X61758095Y-38931960D01*
X61805714Y-38979579D01*
X61853333Y-39074817D01*
X61853333Y-39217674D01*
X61805714Y-39312912D01*
X61758095Y-39360531D01*
X61662857Y-39408150D01*
X61281904Y-39408150D01*
X62186666Y-38884340D02*
X62805714Y-38884340D01*
X62472380Y-39265293D01*
X62615238Y-39265293D01*
X62710476Y-39312912D01*
X62758095Y-39360531D01*
X62805714Y-39455769D01*
X62805714Y-39693864D01*
X62758095Y-39789102D01*
X62710476Y-39836721D01*
X62615238Y-39884340D01*
X62329523Y-39884340D01*
X62234285Y-39836721D01*
X62186666Y-39789102D01*
X61878733Y-36506140D02*
X61545400Y-36029950D01*
X61307304Y-36506140D02*
X61307304Y-35506140D01*
X61688257Y-35506140D01*
X61783495Y-35553760D01*
X61831114Y-35601379D01*
X61878733Y-35696617D01*
X61878733Y-35839474D01*
X61831114Y-35934712D01*
X61783495Y-35982331D01*
X61688257Y-36029950D01*
X61307304Y-36029950D01*
X62735876Y-35839474D02*
X62735876Y-36506140D01*
X62497780Y-35458521D02*
X62259685Y-36172807D01*
X62878733Y-36172807D01*
X44073380Y-47325493D02*
X44787666Y-47325493D01*
X44930523Y-47373112D01*
X45025761Y-47468350D01*
X45073380Y-47611207D01*
X45073380Y-47706445D01*
X45073380Y-46849302D02*
X44073380Y-46849302D01*
X44073380Y-46468350D01*
X44121000Y-46373112D01*
X44168619Y-46325493D01*
X44263857Y-46277874D01*
X44406714Y-46277874D01*
X44501952Y-46325493D01*
X44549571Y-46373112D01*
X44597190Y-46468350D01*
X44597190Y-46849302D01*
X45073380Y-45325493D02*
X45073380Y-45896921D01*
X45073380Y-45611207D02*
X44073380Y-45611207D01*
X44216238Y-45706445D01*
X44311476Y-45801683D01*
X44359095Y-45896921D01*
X44047980Y-43449693D02*
X44762266Y-43449693D01*
X44905123Y-43497312D01*
X45000361Y-43592550D01*
X45047980Y-43735407D01*
X45047980Y-43830645D01*
X45047980Y-42973502D02*
X44047980Y-42973502D01*
X44047980Y-42592550D01*
X44095600Y-42497312D01*
X44143219Y-42449693D01*
X44238457Y-42402074D01*
X44381314Y-42402074D01*
X44476552Y-42449693D01*
X44524171Y-42497312D01*
X44571790Y-42592550D01*
X44571790Y-42973502D01*
X44143219Y-42021121D02*
X44095600Y-41973502D01*
X44047980Y-41878264D01*
X44047980Y-41640169D01*
X44095600Y-41544931D01*
X44143219Y-41497312D01*
X44238457Y-41449693D01*
X44333695Y-41449693D01*
X44476552Y-41497312D01*
X45047980Y-42068740D01*
X45047980Y-41449693D01*
X58192380Y-48519293D02*
X58906666Y-48519293D01*
X59049523Y-48566912D01*
X59144761Y-48662150D01*
X59192380Y-48805007D01*
X59192380Y-48900245D01*
X59192380Y-48043102D02*
X58192380Y-48043102D01*
X58192380Y-47662150D01*
X58240000Y-47566912D01*
X58287619Y-47519293D01*
X58382857Y-47471674D01*
X58525714Y-47471674D01*
X58620952Y-47519293D01*
X58668571Y-47566912D01*
X58716190Y-47662150D01*
X58716190Y-48043102D01*
X58192380Y-47138340D02*
X58192380Y-46519293D01*
X58573333Y-46852626D01*
X58573333Y-46709769D01*
X58620952Y-46614531D01*
X58668571Y-46566912D01*
X58763809Y-46519293D01*
X59001904Y-46519293D01*
X59097142Y-46566912D01*
X59144761Y-46614531D01*
X59192380Y-46709769D01*
X59192380Y-46995483D01*
X59144761Y-47090721D01*
X59097142Y-47138340D01*
X58192380Y-44709293D02*
X58906666Y-44709293D01*
X59049523Y-44756912D01*
X59144761Y-44852150D01*
X59192380Y-44995007D01*
X59192380Y-45090245D01*
X59192380Y-44233102D02*
X58192380Y-44233102D01*
X58192380Y-43852150D01*
X58240000Y-43756912D01*
X58287619Y-43709293D01*
X58382857Y-43661674D01*
X58525714Y-43661674D01*
X58620952Y-43709293D01*
X58668571Y-43756912D01*
X58716190Y-43852150D01*
X58716190Y-44233102D01*
X58525714Y-42804531D02*
X59192380Y-42804531D01*
X58144761Y-43042626D02*
X58859047Y-43280721D01*
X58859047Y-42661674D01*
X56792466Y-37486340D02*
X56792466Y-38200626D01*
X56744847Y-38343483D01*
X56649609Y-38438721D01*
X56506752Y-38486340D01*
X56411514Y-38486340D01*
X57268657Y-38486340D02*
X57268657Y-37486340D01*
X57649609Y-37486340D01*
X57744847Y-37533960D01*
X57792466Y-37581579D01*
X57840085Y-37676817D01*
X57840085Y-37819674D01*
X57792466Y-37914912D01*
X57744847Y-37962531D01*
X57649609Y-38010150D01*
X57268657Y-38010150D01*
X58744847Y-37486340D02*
X58268657Y-37486340D01*
X58221038Y-37962531D01*
X58268657Y-37914912D01*
X58363895Y-37867293D01*
X58601990Y-37867293D01*
X58697228Y-37914912D01*
X58744847Y-37962531D01*
X58792466Y-38057769D01*
X58792466Y-38295864D01*
X58744847Y-38391102D01*
X58697228Y-38438721D01*
X58601990Y-38486340D01*
X58363895Y-38486340D01*
X58268657Y-38438721D01*
X58221038Y-38391102D01*
X46158673Y-32997400D02*
X45825340Y-32521210D01*
X45587244Y-32997400D02*
X45587244Y-31997400D01*
X45968197Y-31997400D01*
X46063435Y-32045020D01*
X46111054Y-32092639D01*
X46158673Y-32187877D01*
X46158673Y-32330734D01*
X46111054Y-32425972D01*
X46063435Y-32473591D01*
X45968197Y-32521210D01*
X45587244Y-32521210D01*
X47063435Y-31997400D02*
X46587244Y-31997400D01*
X46539625Y-32473591D01*
X46587244Y-32425972D01*
X46682482Y-32378353D01*
X46920578Y-32378353D01*
X47015816Y-32425972D01*
X47063435Y-32473591D01*
X47111054Y-32568829D01*
X47111054Y-32806924D01*
X47063435Y-32902162D01*
X47015816Y-32949781D01*
X46920578Y-32997400D01*
X46682482Y-32997400D01*
X46587244Y-32949781D01*
X46539625Y-32902162D01*
X50928793Y-36089862D02*
X50881174Y-36137481D01*
X50738317Y-36185100D01*
X50643079Y-36185100D01*
X50500221Y-36137481D01*
X50404983Y-36042243D01*
X50357364Y-35947005D01*
X50309745Y-35756529D01*
X50309745Y-35613672D01*
X50357364Y-35423196D01*
X50404983Y-35327958D01*
X50500221Y-35232720D01*
X50643079Y-35185100D01*
X50738317Y-35185100D01*
X50881174Y-35232720D01*
X50928793Y-35280339D01*
X51881174Y-36185100D02*
X51309745Y-36185100D01*
X51595460Y-36185100D02*
X51595460Y-35185100D01*
X51500221Y-35327958D01*
X51404983Y-35423196D01*
X51309745Y-35470815D01*
M02*
