G04 #@! TF.GenerationSoftware,KiCad,Pcbnew,(5.1.4)-1*
G04 #@! TF.CreationDate,2020-02-28T01:17:17+00:00*
G04 #@! TF.ProjectId,buffer,62756666-6572-42e6-9b69-6361645f7063,rev?*
G04 #@! TF.SameCoordinates,Original*
G04 #@! TF.FileFunction,Legend,Bot*
G04 #@! TF.FilePolarity,Positive*
%FSLAX46Y46*%
G04 Gerber Fmt 4.6, Leading zero omitted, Abs format (unit mm)*
G04 Created by KiCad (PCBNEW (5.1.4)-1) date 2020-02-28 01:17:17*
%MOMM*%
%LPD*%
G04 APERTURE LIST*
%ADD10C,0.100000*%
%ADD11C,0.120000*%
%ADD12C,0.150000*%
G04 APERTURE END LIST*
D10*
X70595971Y-39580588D02*
X70488828Y-39616302D01*
X70453114Y-39652017D01*
X70417400Y-39723445D01*
X70417400Y-39830588D01*
X70453114Y-39902017D01*
X70488828Y-39937731D01*
X70560257Y-39973445D01*
X70845971Y-39973445D01*
X70845971Y-39223445D01*
X70595971Y-39223445D01*
X70524542Y-39259160D01*
X70488828Y-39294874D01*
X70453114Y-39366302D01*
X70453114Y-39437731D01*
X70488828Y-39509160D01*
X70524542Y-39544874D01*
X70595971Y-39580588D01*
X70845971Y-39580588D01*
X69988828Y-39973445D02*
X70060257Y-39937731D01*
X70095971Y-39866302D01*
X70095971Y-39223445D01*
X69381685Y-39473445D02*
X69381685Y-39973445D01*
X69703114Y-39473445D02*
X69703114Y-39866302D01*
X69667400Y-39937731D01*
X69595971Y-39973445D01*
X69488828Y-39973445D01*
X69417400Y-39937731D01*
X69381685Y-39902017D01*
X68738828Y-39937731D02*
X68810257Y-39973445D01*
X68953114Y-39973445D01*
X69024542Y-39937731D01*
X69060257Y-39866302D01*
X69060257Y-39580588D01*
X69024542Y-39509160D01*
X68953114Y-39473445D01*
X68810257Y-39473445D01*
X68738828Y-39509160D01*
X68703114Y-39580588D01*
X68703114Y-39652017D01*
X69060257Y-39723445D01*
D11*
X40925219Y-48390864D02*
X40391885Y-49190864D01*
X40391885Y-48390864D02*
X40925219Y-49190864D01*
X40125219Y-48467055D02*
X40087123Y-48428960D01*
X40010933Y-48390864D01*
X39820457Y-48390864D01*
X39744266Y-48428960D01*
X39706171Y-48467055D01*
X39668076Y-48543245D01*
X39668076Y-48619436D01*
X39706171Y-48733721D01*
X40163314Y-49190864D01*
X39668076Y-49190864D01*
X38385219Y-48390864D02*
X37851885Y-49190864D01*
X37851885Y-48390864D02*
X38385219Y-49190864D01*
X37128076Y-49190864D02*
X37585219Y-49190864D01*
X37356647Y-49190864D02*
X37356647Y-48390864D01*
X37432838Y-48505150D01*
X37509028Y-48581340D01*
X37585219Y-48619436D01*
D10*
X76999514Y-41861388D02*
X76999514Y-41261388D01*
X76770942Y-41261388D01*
X76713800Y-41289960D01*
X76685228Y-41318531D01*
X76656657Y-41375674D01*
X76656657Y-41461388D01*
X76685228Y-41518531D01*
X76713800Y-41547102D01*
X76770942Y-41575674D01*
X76999514Y-41575674D01*
X76399514Y-41861388D02*
X76399514Y-41461388D01*
X76399514Y-41261388D02*
X76428085Y-41289960D01*
X76399514Y-41318531D01*
X76370942Y-41289960D01*
X76399514Y-41261388D01*
X76399514Y-41318531D01*
X76113800Y-41461388D02*
X76113800Y-41861388D01*
X76113800Y-41518531D02*
X76085228Y-41489960D01*
X76028085Y-41461388D01*
X75942371Y-41461388D01*
X75885228Y-41489960D01*
X75856657Y-41547102D01*
X75856657Y-41861388D01*
X74799514Y-41861388D02*
X75142371Y-41861388D01*
X74970942Y-41861388D02*
X74970942Y-41261388D01*
X75028085Y-41347102D01*
X75085228Y-41404245D01*
X75142371Y-41432817D01*
X43317657Y-45145245D02*
X43317657Y-45345245D01*
X43003371Y-45345245D02*
X43603371Y-45345245D01*
X43603371Y-45059531D01*
X43003371Y-44830960D02*
X43403371Y-44830960D01*
X43603371Y-44830960D02*
X43574800Y-44859531D01*
X43546228Y-44830960D01*
X43574800Y-44802388D01*
X43603371Y-44830960D01*
X43546228Y-44830960D01*
X43403371Y-44630960D02*
X43403371Y-44402388D01*
X43603371Y-44545245D02*
X43089085Y-44545245D01*
X43031942Y-44516674D01*
X43003371Y-44459531D01*
X43003371Y-44402388D01*
X43003371Y-43430960D02*
X43003371Y-43773817D01*
X43003371Y-43602388D02*
X43603371Y-43602388D01*
X43517657Y-43659531D01*
X43460514Y-43716674D01*
X43431942Y-43773817D01*
X43603371Y-43059531D02*
X43603371Y-43002388D01*
X43574800Y-42945245D01*
X43546228Y-42916674D01*
X43489085Y-42888102D01*
X43374800Y-42859531D01*
X43231942Y-42859531D01*
X43117657Y-42888102D01*
X43060514Y-42916674D01*
X43031942Y-42945245D01*
X43003371Y-43002388D01*
X43003371Y-43059531D01*
X43031942Y-43116674D01*
X43060514Y-43145245D01*
X43117657Y-43173817D01*
X43231942Y-43202388D01*
X43374800Y-43202388D01*
X43489085Y-43173817D01*
X43546228Y-43145245D01*
X43574800Y-43116674D01*
X43603371Y-43059531D01*
X43403371Y-42202388D02*
X43003371Y-42088102D01*
X43289085Y-41973817D01*
X43003371Y-41859531D01*
X43403371Y-41745245D01*
X43003371Y-41259531D02*
X43317657Y-41259531D01*
X43374800Y-41288102D01*
X43403371Y-41345245D01*
X43403371Y-41459531D01*
X43374800Y-41516674D01*
X43031942Y-41259531D02*
X43003371Y-41316674D01*
X43003371Y-41459531D01*
X43031942Y-41516674D01*
X43089085Y-41545245D01*
X43146228Y-41545245D01*
X43203371Y-41516674D01*
X43231942Y-41459531D01*
X43231942Y-41316674D01*
X43260514Y-41259531D01*
X43403371Y-41030960D02*
X43003371Y-40888102D01*
X43403371Y-40745245D02*
X43003371Y-40888102D01*
X42860514Y-40945245D01*
X42831942Y-40973817D01*
X42803371Y-41030960D01*
X43031942Y-39802388D02*
X43003371Y-39859531D01*
X43003371Y-39973817D01*
X43031942Y-40030960D01*
X43060514Y-40059531D01*
X43117657Y-40088102D01*
X43289085Y-40088102D01*
X43346228Y-40059531D01*
X43374800Y-40030960D01*
X43403371Y-39973817D01*
X43403371Y-39859531D01*
X43374800Y-39802388D01*
X43003371Y-39459531D02*
X43031942Y-39516674D01*
X43060514Y-39545245D01*
X43117657Y-39573817D01*
X43289085Y-39573817D01*
X43346228Y-39545245D01*
X43374800Y-39516674D01*
X43403371Y-39459531D01*
X43403371Y-39373817D01*
X43374800Y-39316674D01*
X43346228Y-39288102D01*
X43289085Y-39259531D01*
X43117657Y-39259531D01*
X43060514Y-39288102D01*
X43031942Y-39316674D01*
X43003371Y-39373817D01*
X43003371Y-39459531D01*
X43403371Y-39002388D02*
X43003371Y-39002388D01*
X43346228Y-39002388D02*
X43374800Y-38973817D01*
X43403371Y-38916674D01*
X43403371Y-38830960D01*
X43374800Y-38773817D01*
X43317657Y-38745245D01*
X43003371Y-38745245D01*
X43403371Y-38459531D02*
X43003371Y-38459531D01*
X43346228Y-38459531D02*
X43374800Y-38430960D01*
X43403371Y-38373817D01*
X43403371Y-38288102D01*
X43374800Y-38230960D01*
X43317657Y-38202388D01*
X43003371Y-38202388D01*
X43031942Y-37688102D02*
X43003371Y-37745245D01*
X43003371Y-37859531D01*
X43031942Y-37916674D01*
X43089085Y-37945245D01*
X43317657Y-37945245D01*
X43374800Y-37916674D01*
X43403371Y-37859531D01*
X43403371Y-37745245D01*
X43374800Y-37688102D01*
X43317657Y-37659531D01*
X43260514Y-37659531D01*
X43203371Y-37945245D01*
X43031942Y-37145245D02*
X43003371Y-37202388D01*
X43003371Y-37316674D01*
X43031942Y-37373817D01*
X43060514Y-37402388D01*
X43117657Y-37430960D01*
X43289085Y-37430960D01*
X43346228Y-37402388D01*
X43374800Y-37373817D01*
X43403371Y-37316674D01*
X43403371Y-37202388D01*
X43374800Y-37145245D01*
X43403371Y-36973817D02*
X43403371Y-36745245D01*
X43603371Y-36888102D02*
X43089085Y-36888102D01*
X43031942Y-36859531D01*
X43003371Y-36802388D01*
X43003371Y-36745245D01*
X43003371Y-36459531D02*
X43031942Y-36516674D01*
X43060514Y-36545245D01*
X43117657Y-36573817D01*
X43289085Y-36573817D01*
X43346228Y-36545245D01*
X43374800Y-36516674D01*
X43403371Y-36459531D01*
X43403371Y-36373817D01*
X43374800Y-36316674D01*
X43346228Y-36288102D01*
X43289085Y-36259531D01*
X43117657Y-36259531D01*
X43060514Y-36288102D01*
X43031942Y-36316674D01*
X43003371Y-36373817D01*
X43003371Y-36459531D01*
X43003371Y-36002388D02*
X43403371Y-36002388D01*
X43289085Y-36002388D02*
X43346228Y-35973817D01*
X43374800Y-35945245D01*
X43403371Y-35888102D01*
X43403371Y-35830960D01*
X43003371Y-35173817D02*
X43603371Y-35173817D01*
X43003371Y-34916674D02*
X43317657Y-34916674D01*
X43374800Y-34945245D01*
X43403371Y-35002388D01*
X43403371Y-35088102D01*
X43374800Y-35145245D01*
X43346228Y-35173817D01*
X43031942Y-34402388D02*
X43003371Y-34459531D01*
X43003371Y-34573817D01*
X43031942Y-34630960D01*
X43089085Y-34659531D01*
X43317657Y-34659531D01*
X43374800Y-34630960D01*
X43403371Y-34573817D01*
X43403371Y-34459531D01*
X43374800Y-34402388D01*
X43317657Y-34373817D01*
X43260514Y-34373817D01*
X43203371Y-34659531D01*
X43003371Y-34116674D02*
X43403371Y-34116674D01*
X43289085Y-34116674D02*
X43346228Y-34088102D01*
X43374800Y-34059531D01*
X43403371Y-34002388D01*
X43403371Y-33945245D01*
X43031942Y-33516674D02*
X43003371Y-33573817D01*
X43003371Y-33688102D01*
X43031942Y-33745245D01*
X43089085Y-33773817D01*
X43317657Y-33773817D01*
X43374800Y-33745245D01*
X43403371Y-33688102D01*
X43403371Y-33573817D01*
X43374800Y-33516674D01*
X43317657Y-33488102D01*
X43260514Y-33488102D01*
X43203371Y-33773817D01*
D12*
X42462000Y-34300160D02*
X41700000Y-34300160D01*
X42462000Y-44561760D02*
X42462000Y-34300160D01*
X41649200Y-44561760D02*
X42462000Y-44561760D01*
D11*
X64253990Y-51222964D02*
X63796847Y-51222964D01*
X64025419Y-52022964D02*
X64025419Y-51222964D01*
X63644466Y-51222964D02*
X63187323Y-51222964D01*
X63415895Y-52022964D02*
X63415895Y-51222964D01*
X62539704Y-52022964D02*
X62920657Y-52022964D01*
X62920657Y-51222964D01*
X61663514Y-52022964D02*
X61663514Y-51222964D01*
X61663514Y-51527726D02*
X61587323Y-51489631D01*
X61434942Y-51489631D01*
X61358752Y-51527726D01*
X61320657Y-51565821D01*
X61282561Y-51642012D01*
X61282561Y-51870583D01*
X61320657Y-51946774D01*
X61358752Y-51984869D01*
X61434942Y-52022964D01*
X61587323Y-52022964D01*
X61663514Y-51984869D01*
X60596847Y-51489631D02*
X60596847Y-52022964D01*
X60939704Y-51489631D02*
X60939704Y-51908679D01*
X60901609Y-51984869D01*
X60825419Y-52022964D01*
X60711133Y-52022964D01*
X60634942Y-51984869D01*
X60596847Y-51946774D01*
X60330180Y-51489631D02*
X60025419Y-51489631D01*
X60215895Y-52022964D02*
X60215895Y-51337250D01*
X60177800Y-51261060D01*
X60101609Y-51222964D01*
X60025419Y-51222964D01*
X59873038Y-51489631D02*
X59568276Y-51489631D01*
X59758752Y-52022964D02*
X59758752Y-51337250D01*
X59720657Y-51261060D01*
X59644466Y-51222964D01*
X59568276Y-51222964D01*
X58996847Y-51984869D02*
X59073038Y-52022964D01*
X59225419Y-52022964D01*
X59301609Y-51984869D01*
X59339704Y-51908679D01*
X59339704Y-51603917D01*
X59301609Y-51527726D01*
X59225419Y-51489631D01*
X59073038Y-51489631D01*
X58996847Y-51527726D01*
X58958752Y-51603917D01*
X58958752Y-51680107D01*
X59339704Y-51756298D01*
X58615895Y-52022964D02*
X58615895Y-51489631D01*
X58615895Y-51642012D02*
X58577800Y-51565821D01*
X58539704Y-51527726D01*
X58463514Y-51489631D01*
X58387323Y-51489631D01*
X57549228Y-51184869D02*
X58234942Y-52213440D01*
X56939704Y-52022964D02*
X56939704Y-51603917D01*
X56977800Y-51527726D01*
X57053990Y-51489631D01*
X57206371Y-51489631D01*
X57282561Y-51527726D01*
X56939704Y-51984869D02*
X57015895Y-52022964D01*
X57206371Y-52022964D01*
X57282561Y-51984869D01*
X57320657Y-51908679D01*
X57320657Y-51832488D01*
X57282561Y-51756298D01*
X57206371Y-51718202D01*
X57015895Y-51718202D01*
X56939704Y-51680107D01*
X56215895Y-52022964D02*
X56215895Y-51222964D01*
X56215895Y-51984869D02*
X56292085Y-52022964D01*
X56444466Y-52022964D01*
X56520657Y-51984869D01*
X56558752Y-51946774D01*
X56596847Y-51870583D01*
X56596847Y-51642012D01*
X56558752Y-51565821D01*
X56520657Y-51527726D01*
X56444466Y-51489631D01*
X56292085Y-51489631D01*
X56215895Y-51527726D01*
X55492085Y-52022964D02*
X55492085Y-51603917D01*
X55530180Y-51527726D01*
X55606371Y-51489631D01*
X55758752Y-51489631D01*
X55834942Y-51527726D01*
X55492085Y-51984869D02*
X55568276Y-52022964D01*
X55758752Y-52022964D01*
X55834942Y-51984869D01*
X55873038Y-51908679D01*
X55873038Y-51832488D01*
X55834942Y-51756298D01*
X55758752Y-51718202D01*
X55568276Y-51718202D01*
X55492085Y-51680107D01*
X55111133Y-51489631D02*
X55111133Y-52289631D01*
X55111133Y-51527726D02*
X55034942Y-51489631D01*
X54882561Y-51489631D01*
X54806371Y-51527726D01*
X54768276Y-51565821D01*
X54730180Y-51642012D01*
X54730180Y-51870583D01*
X54768276Y-51946774D01*
X54806371Y-51984869D01*
X54882561Y-52022964D01*
X55034942Y-52022964D01*
X55111133Y-51984869D01*
X54501609Y-51489631D02*
X54196847Y-51489631D01*
X54387323Y-51222964D02*
X54387323Y-51908679D01*
X54349228Y-51984869D01*
X54273038Y-52022964D01*
X54196847Y-52022964D01*
X53625419Y-51984869D02*
X53701609Y-52022964D01*
X53853990Y-52022964D01*
X53930180Y-51984869D01*
X53968276Y-51908679D01*
X53968276Y-51603917D01*
X53930180Y-51527726D01*
X53853990Y-51489631D01*
X53701609Y-51489631D01*
X53625419Y-51527726D01*
X53587323Y-51603917D01*
X53587323Y-51680107D01*
X53968276Y-51756298D01*
X53244466Y-52022964D02*
X53244466Y-51489631D01*
X53244466Y-51642012D02*
X53206371Y-51565821D01*
X53168276Y-51527726D01*
X53092085Y-51489631D01*
X53015895Y-51489631D01*
X52253990Y-51489631D02*
X51949228Y-51489631D01*
X52139704Y-52022964D02*
X52139704Y-51337250D01*
X52101609Y-51261060D01*
X52025419Y-51222964D01*
X51949228Y-51222964D01*
X51568276Y-52022964D02*
X51644466Y-51984869D01*
X51682561Y-51946774D01*
X51720657Y-51870583D01*
X51720657Y-51642012D01*
X51682561Y-51565821D01*
X51644466Y-51527726D01*
X51568276Y-51489631D01*
X51453990Y-51489631D01*
X51377800Y-51527726D01*
X51339704Y-51565821D01*
X51301609Y-51642012D01*
X51301609Y-51870583D01*
X51339704Y-51946774D01*
X51377800Y-51984869D01*
X51453990Y-52022964D01*
X51568276Y-52022964D01*
X50958752Y-52022964D02*
X50958752Y-51489631D01*
X50958752Y-51642012D02*
X50920657Y-51565821D01*
X50882561Y-51527726D01*
X50806371Y-51489631D01*
X50730180Y-51489631D01*
X49396847Y-52022964D02*
X49663514Y-51642012D01*
X49853990Y-52022964D02*
X49853990Y-51222964D01*
X49549228Y-51222964D01*
X49473038Y-51261060D01*
X49434942Y-51299155D01*
X49396847Y-51375345D01*
X49396847Y-51489631D01*
X49434942Y-51565821D01*
X49473038Y-51603917D01*
X49549228Y-51642012D01*
X49853990Y-51642012D01*
X48634942Y-51261060D02*
X48711133Y-51222964D01*
X48825419Y-51222964D01*
X48939704Y-51261060D01*
X49015895Y-51337250D01*
X49053990Y-51413440D01*
X49092085Y-51565821D01*
X49092085Y-51680107D01*
X49053990Y-51832488D01*
X49015895Y-51908679D01*
X48939704Y-51984869D01*
X48825419Y-52022964D01*
X48749228Y-52022964D01*
X48634942Y-51984869D01*
X48596847Y-51946774D01*
X48596847Y-51680107D01*
X48749228Y-51680107D01*
X47987323Y-51603917D02*
X47873038Y-51642012D01*
X47834942Y-51680107D01*
X47796847Y-51756298D01*
X47796847Y-51870583D01*
X47834942Y-51946774D01*
X47873038Y-51984869D01*
X47949228Y-52022964D01*
X48253990Y-52022964D01*
X48253990Y-51222964D01*
X47987323Y-51222964D01*
X47911133Y-51261060D01*
X47873038Y-51299155D01*
X47834942Y-51375345D01*
X47834942Y-51451536D01*
X47873038Y-51527726D01*
X47911133Y-51565821D01*
X47987323Y-51603917D01*
X48253990Y-51603917D01*
X47568276Y-51489631D02*
X47263514Y-51489631D01*
X47453990Y-51222964D02*
X47453990Y-51908679D01*
X47415895Y-51984869D01*
X47339704Y-52022964D01*
X47263514Y-52022964D01*
X46882561Y-52022964D02*
X46958752Y-51984869D01*
X46996847Y-51946774D01*
X47034942Y-51870583D01*
X47034942Y-51642012D01*
X46996847Y-51565821D01*
X46958752Y-51527726D01*
X46882561Y-51489631D01*
X46768276Y-51489631D01*
X46692085Y-51527726D01*
X46653990Y-51565821D01*
X46615895Y-51642012D01*
X46615895Y-51870583D01*
X46653990Y-51946774D01*
X46692085Y-51984869D01*
X46768276Y-52022964D01*
X46882561Y-52022964D01*
X46273038Y-52022964D02*
X46273038Y-51222964D01*
X46273038Y-51603917D02*
X45815895Y-51603917D01*
X45815895Y-52022964D02*
X45815895Y-51222964D01*
X45434942Y-52022964D02*
X45434942Y-51222964D01*
X45244466Y-51222964D01*
X45130180Y-51261060D01*
X45053990Y-51337250D01*
X45015895Y-51413440D01*
X44977800Y-51565821D01*
X44977800Y-51680107D01*
X45015895Y-51832488D01*
X45053990Y-51908679D01*
X45130180Y-51984869D01*
X45244466Y-52022964D01*
X45434942Y-52022964D01*
D12*
X33328161Y-34927540D02*
G75*
G03X33328161Y-34927540I-255747J0D01*
G01*
D10*
X70909085Y-35953931D02*
X70337657Y-35953931D01*
X70623371Y-36239645D02*
X70623371Y-35668217D01*
X69623371Y-35489645D02*
X69980514Y-35489645D01*
X70016228Y-35846788D01*
X69980514Y-35811074D01*
X69909085Y-35775360D01*
X69730514Y-35775360D01*
X69659085Y-35811074D01*
X69623371Y-35846788D01*
X69587657Y-35918217D01*
X69587657Y-36096788D01*
X69623371Y-36168217D01*
X69659085Y-36203931D01*
X69730514Y-36239645D01*
X69909085Y-36239645D01*
X69980514Y-36203931D01*
X70016228Y-36168217D01*
X69373371Y-35489645D02*
X69123371Y-36239645D01*
X68873371Y-35489645D01*
D11*
X60609528Y-53686664D02*
X60609528Y-52886664D01*
X60266671Y-53648569D02*
X60190480Y-53686664D01*
X60038100Y-53686664D01*
X59961909Y-53648569D01*
X59923814Y-53572379D01*
X59923814Y-53534283D01*
X59961909Y-53458093D01*
X60038100Y-53419998D01*
X60152385Y-53419998D01*
X60228576Y-53381902D01*
X60266671Y-53305712D01*
X60266671Y-53267617D01*
X60228576Y-53191426D01*
X60152385Y-53153331D01*
X60038100Y-53153331D01*
X59961909Y-53191426D01*
X59619052Y-53648569D02*
X59542861Y-53686664D01*
X59390480Y-53686664D01*
X59314290Y-53648569D01*
X59276195Y-53572379D01*
X59276195Y-53534283D01*
X59314290Y-53458093D01*
X59390480Y-53419998D01*
X59504766Y-53419998D01*
X59580957Y-53381902D01*
X59619052Y-53305712D01*
X59619052Y-53267617D01*
X59580957Y-53191426D01*
X59504766Y-53153331D01*
X59390480Y-53153331D01*
X59314290Y-53191426D01*
X58590480Y-53153331D02*
X58590480Y-53686664D01*
X58933338Y-53153331D02*
X58933338Y-53572379D01*
X58895242Y-53648569D01*
X58819052Y-53686664D01*
X58704766Y-53686664D01*
X58628576Y-53648569D01*
X58590480Y-53610474D01*
X57904766Y-53648569D02*
X57980957Y-53686664D01*
X58133338Y-53686664D01*
X58209528Y-53648569D01*
X58247623Y-53572379D01*
X58247623Y-53267617D01*
X58209528Y-53191426D01*
X58133338Y-53153331D01*
X57980957Y-53153331D01*
X57904766Y-53191426D01*
X57866671Y-53267617D01*
X57866671Y-53343807D01*
X58247623Y-53419998D01*
X56495242Y-53686664D02*
X56952385Y-53686664D01*
X56723814Y-53686664D02*
X56723814Y-52886664D01*
X56800004Y-53000950D01*
X56876195Y-53077140D01*
X56952385Y-53115236D01*
X54895242Y-53077140D02*
X54971433Y-53039045D01*
X55123814Y-53039045D01*
X55200004Y-53077140D01*
X55276195Y-53153331D01*
X55314290Y-53229521D01*
X55314290Y-53381902D01*
X55276195Y-53458093D01*
X55200004Y-53534283D01*
X55123814Y-53572379D01*
X54971433Y-53572379D01*
X54895242Y-53534283D01*
X55047623Y-52772379D02*
X55238100Y-52810474D01*
X55428576Y-52924760D01*
X55542861Y-53115236D01*
X55580957Y-53305712D01*
X55542861Y-53496188D01*
X55428576Y-53686664D01*
X55238100Y-53800950D01*
X55047623Y-53839045D01*
X54857147Y-53800950D01*
X54666671Y-53686664D01*
X54552385Y-53496188D01*
X54514290Y-53305712D01*
X54552385Y-53115236D01*
X54666671Y-52924760D01*
X54857147Y-52810474D01*
X55047623Y-52772379D01*
X54209528Y-52962855D02*
X54171433Y-52924760D01*
X54095242Y-52886664D01*
X53904766Y-52886664D01*
X53828576Y-52924760D01*
X53790480Y-52962855D01*
X53752385Y-53039045D01*
X53752385Y-53115236D01*
X53790480Y-53229521D01*
X54247623Y-53686664D01*
X53752385Y-53686664D01*
X53257147Y-52886664D02*
X53180957Y-52886664D01*
X53104766Y-52924760D01*
X53066671Y-52962855D01*
X53028576Y-53039045D01*
X52990480Y-53191426D01*
X52990480Y-53381902D01*
X53028576Y-53534283D01*
X53066671Y-53610474D01*
X53104766Y-53648569D01*
X53180957Y-53686664D01*
X53257147Y-53686664D01*
X53333338Y-53648569D01*
X53371433Y-53610474D01*
X53409528Y-53534283D01*
X53447623Y-53381902D01*
X53447623Y-53191426D01*
X53409528Y-53039045D01*
X53371433Y-52962855D01*
X53333338Y-52924760D01*
X53257147Y-52886664D01*
X52685719Y-52962855D02*
X52647623Y-52924760D01*
X52571433Y-52886664D01*
X52380957Y-52886664D01*
X52304766Y-52924760D01*
X52266671Y-52962855D01*
X52228576Y-53039045D01*
X52228576Y-53115236D01*
X52266671Y-53229521D01*
X52723814Y-53686664D01*
X52228576Y-53686664D01*
X51733338Y-52886664D02*
X51657147Y-52886664D01*
X51580957Y-52924760D01*
X51542861Y-52962855D01*
X51504766Y-53039045D01*
X51466671Y-53191426D01*
X51466671Y-53381902D01*
X51504766Y-53534283D01*
X51542861Y-53610474D01*
X51580957Y-53648569D01*
X51657147Y-53686664D01*
X51733338Y-53686664D01*
X51809528Y-53648569D01*
X51847623Y-53610474D01*
X51885719Y-53534283D01*
X51923814Y-53381902D01*
X51923814Y-53191426D01*
X51885719Y-53039045D01*
X51847623Y-52962855D01*
X51809528Y-52924760D01*
X51733338Y-52886664D01*
X50514290Y-53686664D02*
X50514290Y-52886664D01*
X49790480Y-53686664D02*
X49790480Y-53267617D01*
X49828576Y-53191426D01*
X49904766Y-53153331D01*
X50057147Y-53153331D01*
X50133338Y-53191426D01*
X49790480Y-53648569D02*
X49866671Y-53686664D01*
X50057147Y-53686664D01*
X50133338Y-53648569D01*
X50171433Y-53572379D01*
X50171433Y-53496188D01*
X50133338Y-53419998D01*
X50057147Y-53381902D01*
X49866671Y-53381902D01*
X49790480Y-53343807D01*
X49409528Y-53153331D02*
X49409528Y-53686664D01*
X49409528Y-53229521D02*
X49371433Y-53191426D01*
X49295242Y-53153331D01*
X49180957Y-53153331D01*
X49104766Y-53191426D01*
X49066671Y-53267617D01*
X49066671Y-53686664D01*
X48419052Y-53267617D02*
X48304766Y-53305712D01*
X48266671Y-53343807D01*
X48228576Y-53419998D01*
X48228576Y-53534283D01*
X48266671Y-53610474D01*
X48304766Y-53648569D01*
X48380957Y-53686664D01*
X48685719Y-53686664D01*
X48685719Y-52886664D01*
X48419052Y-52886664D01*
X48342861Y-52924760D01*
X48304766Y-52962855D01*
X48266671Y-53039045D01*
X48266671Y-53115236D01*
X48304766Y-53191426D01*
X48342861Y-53229521D01*
X48419052Y-53267617D01*
X48685719Y-53267617D01*
D10*
X70465042Y-41799160D02*
X70536471Y-41763445D01*
X70643614Y-41763445D01*
X70750757Y-41799160D01*
X70822185Y-41870588D01*
X70857900Y-41942017D01*
X70893614Y-42084874D01*
X70893614Y-42192017D01*
X70857900Y-42334874D01*
X70822185Y-42406302D01*
X70750757Y-42477731D01*
X70643614Y-42513445D01*
X70572185Y-42513445D01*
X70465042Y-42477731D01*
X70429328Y-42442017D01*
X70429328Y-42192017D01*
X70572185Y-42192017D01*
X70107900Y-42013445D02*
X70107900Y-42513445D01*
X70107900Y-42084874D02*
X70072185Y-42049160D01*
X70000757Y-42013445D01*
X69893614Y-42013445D01*
X69822185Y-42049160D01*
X69786471Y-42120588D01*
X69786471Y-42513445D01*
X69107900Y-42513445D02*
X69107900Y-41763445D01*
X69107900Y-42477731D02*
X69179328Y-42513445D01*
X69322185Y-42513445D01*
X69393614Y-42477731D01*
X69429328Y-42442017D01*
X69465042Y-42370588D01*
X69465042Y-42156302D01*
X69429328Y-42084874D01*
X69393614Y-42049160D01*
X69322185Y-42013445D01*
X69179328Y-42013445D01*
X69107900Y-42049160D01*
X70864214Y-41182331D02*
X70757071Y-41218045D01*
X70578500Y-41218045D01*
X70507071Y-41182331D01*
X70471357Y-41146617D01*
X70435642Y-41075188D01*
X70435642Y-41003760D01*
X70471357Y-40932331D01*
X70507071Y-40896617D01*
X70578500Y-40860902D01*
X70721357Y-40825188D01*
X70792785Y-40789474D01*
X70828500Y-40753760D01*
X70864214Y-40682331D01*
X70864214Y-40610902D01*
X70828500Y-40539474D01*
X70792785Y-40503760D01*
X70721357Y-40468045D01*
X70542785Y-40468045D01*
X70435642Y-40503760D01*
X70185642Y-40718045D02*
X70007071Y-41218045D01*
X69828500Y-40718045D02*
X70007071Y-41218045D01*
X70078500Y-41396617D01*
X70114214Y-41432331D01*
X70185642Y-41468045D01*
X69542785Y-40718045D02*
X69542785Y-41218045D01*
X69542785Y-40789474D02*
X69507071Y-40753760D01*
X69435642Y-40718045D01*
X69328500Y-40718045D01*
X69257071Y-40753760D01*
X69221357Y-40825188D01*
X69221357Y-41218045D01*
X68542785Y-41182331D02*
X68614214Y-41218045D01*
X68757071Y-41218045D01*
X68828500Y-41182331D01*
X68864214Y-41146617D01*
X68899928Y-41075188D01*
X68899928Y-40860902D01*
X68864214Y-40789474D01*
X68828500Y-40753760D01*
X68757071Y-40718045D01*
X68614214Y-40718045D01*
X68542785Y-40753760D01*
X70411471Y-37420745D02*
X70661471Y-37063602D01*
X70840042Y-37420745D02*
X70840042Y-36670745D01*
X70554328Y-36670745D01*
X70482900Y-36706460D01*
X70447185Y-36742174D01*
X70411471Y-36813602D01*
X70411471Y-36920745D01*
X70447185Y-36992174D01*
X70482900Y-37027888D01*
X70554328Y-37063602D01*
X70840042Y-37063602D01*
X69804328Y-37385031D02*
X69875757Y-37420745D01*
X70018614Y-37420745D01*
X70090042Y-37385031D01*
X70125757Y-37313602D01*
X70125757Y-37027888D01*
X70090042Y-36956460D01*
X70018614Y-36920745D01*
X69875757Y-36920745D01*
X69804328Y-36956460D01*
X69768614Y-37027888D01*
X69768614Y-37099317D01*
X70125757Y-37170745D01*
X69125757Y-37420745D02*
X69125757Y-36670745D01*
X69125757Y-37385031D02*
X69197185Y-37420745D01*
X69340042Y-37420745D01*
X69411471Y-37385031D01*
X69447185Y-37349317D01*
X69482900Y-37277888D01*
X69482900Y-37063602D01*
X69447185Y-36992174D01*
X69411471Y-36956460D01*
X69340042Y-36920745D01*
X69197185Y-36920745D01*
X69125757Y-36956460D01*
X70480057Y-37989160D02*
X70551485Y-37953445D01*
X70658628Y-37953445D01*
X70765771Y-37989160D01*
X70837200Y-38060588D01*
X70872914Y-38132017D01*
X70908628Y-38274874D01*
X70908628Y-38382017D01*
X70872914Y-38524874D01*
X70837200Y-38596302D01*
X70765771Y-38667731D01*
X70658628Y-38703445D01*
X70587200Y-38703445D01*
X70480057Y-38667731D01*
X70444342Y-38632017D01*
X70444342Y-38382017D01*
X70587200Y-38382017D01*
X70122914Y-38703445D02*
X70122914Y-38203445D01*
X70122914Y-38346302D02*
X70087200Y-38274874D01*
X70051485Y-38239160D01*
X69980057Y-38203445D01*
X69908628Y-38203445D01*
X69372914Y-38667731D02*
X69444342Y-38703445D01*
X69587200Y-38703445D01*
X69658628Y-38667731D01*
X69694342Y-38596302D01*
X69694342Y-38310588D01*
X69658628Y-38239160D01*
X69587200Y-38203445D01*
X69444342Y-38203445D01*
X69372914Y-38239160D01*
X69337200Y-38310588D01*
X69337200Y-38382017D01*
X69694342Y-38453445D01*
X68730057Y-38667731D02*
X68801485Y-38703445D01*
X68944342Y-38703445D01*
X69015771Y-38667731D01*
X69051485Y-38596302D01*
X69051485Y-38310588D01*
X69015771Y-38239160D01*
X68944342Y-38203445D01*
X68801485Y-38203445D01*
X68730057Y-38239160D01*
X68694342Y-38310588D01*
X68694342Y-38382017D01*
X69051485Y-38453445D01*
X68372914Y-38203445D02*
X68372914Y-38703445D01*
X68372914Y-38274874D02*
X68337200Y-38239160D01*
X68265771Y-38203445D01*
X68158628Y-38203445D01*
X68087200Y-38239160D01*
X68051485Y-38310588D01*
X68051485Y-38703445D01*
D11*
X74703180Y-44174100D02*
X77363180Y-44174100D01*
X74703180Y-44234100D02*
X74703180Y-44174100D01*
X77363180Y-44234100D02*
X77363180Y-44174100D01*
X74703180Y-44234100D02*
X77363180Y-44234100D01*
X74703180Y-45504100D02*
X74703180Y-46834100D01*
X74703180Y-46834100D02*
X76033180Y-46834100D01*
X77370800Y-31471560D02*
X77370800Y-34131560D01*
X77310800Y-31471560D02*
X77370800Y-31471560D01*
X77310800Y-34131560D02*
X77370800Y-34131560D01*
X77310800Y-31471560D02*
X77310800Y-34131560D01*
X76040800Y-31471560D02*
X74710800Y-31471560D01*
X74710800Y-31471560D02*
X74710800Y-32801560D01*
X81655200Y-43200960D02*
X77655200Y-43200960D01*
X77655200Y-43200960D02*
X77655200Y-35200960D01*
X77655200Y-35200960D02*
X81655200Y-35200960D01*
D12*
X74351960Y-44766004D02*
X73351960Y-44766004D01*
X73351960Y-45146957D01*
X73399580Y-45242195D01*
X73447199Y-45289814D01*
X73542437Y-45337433D01*
X73685294Y-45337433D01*
X73780532Y-45289814D01*
X73828151Y-45242195D01*
X73875770Y-45146957D01*
X73875770Y-44766004D01*
X73351960Y-46194576D02*
X73351960Y-46004100D01*
X73399580Y-45908861D01*
X73447199Y-45861242D01*
X73590056Y-45766004D01*
X73780532Y-45718385D01*
X74161484Y-45718385D01*
X74256722Y-45766004D01*
X74304341Y-45813623D01*
X74351960Y-45908861D01*
X74351960Y-46099338D01*
X74304341Y-46194576D01*
X74256722Y-46242195D01*
X74161484Y-46289814D01*
X73923389Y-46289814D01*
X73828151Y-46242195D01*
X73780532Y-46194576D01*
X73732913Y-46099338D01*
X73732913Y-45908861D01*
X73780532Y-45813623D01*
X73828151Y-45766004D01*
X73923389Y-45718385D01*
X74308780Y-32012664D02*
X73308780Y-32012664D01*
X73308780Y-32393617D01*
X73356400Y-32488855D01*
X73404019Y-32536474D01*
X73499257Y-32584093D01*
X73642114Y-32584093D01*
X73737352Y-32536474D01*
X73784971Y-32488855D01*
X73832590Y-32393617D01*
X73832590Y-32012664D01*
X73308780Y-32917426D02*
X73308780Y-33584093D01*
X74308780Y-33155521D01*
X76950380Y-38539064D02*
X75950380Y-38539064D01*
X75950380Y-38920017D01*
X75998000Y-39015255D01*
X76045619Y-39062874D01*
X76140857Y-39110493D01*
X76283714Y-39110493D01*
X76378952Y-39062874D01*
X76426571Y-39015255D01*
X76474190Y-38920017D01*
X76474190Y-38539064D01*
X76283714Y-39967636D02*
X76950380Y-39967636D01*
X75902761Y-39729540D02*
X76617047Y-39491445D01*
X76617047Y-40110493D01*
M02*
