G04 #@! TF.GenerationSoftware,KiCad,Pcbnew,(5.1.4)-1*
G04 #@! TF.CreationDate,2020-02-28T01:49:18+00:00*
G04 #@! TF.ProjectId,buffer,62756666-6572-42e6-9b69-6361645f7063,rev?*
G04 #@! TF.SameCoordinates,Original*
G04 #@! TF.FileFunction,Copper,L2,Bot*
G04 #@! TF.FilePolarity,Positive*
%FSLAX46Y46*%
G04 Gerber Fmt 4.6, Leading zero omitted, Abs format (unit mm)*
G04 Created by KiCad (PCBNEW (5.1.4)-1) date 2020-02-28 01:49:18*
%MOMM*%
%LPD*%
G04 APERTURE LIST*
%ADD10O,1.300000X0.800000*%
%ADD11C,0.100000*%
%ADD12C,0.800000*%
%ADD13O,1.700000X1.700000*%
%ADD14R,1.700000X1.700000*%
%ADD15R,3.500000X1.750000*%
%ADD16C,0.762000*%
%ADD17C,0.381000*%
%ADD18C,0.254000*%
G04 APERTURE END LIST*
D10*
X72154600Y-36050960D03*
X72154600Y-37300960D03*
X72154600Y-38550960D03*
X72154600Y-39800960D03*
X72154600Y-41050960D03*
D11*
G36*
X72624203Y-41901923D02*
G01*
X72643618Y-41904803D01*
X72662657Y-41909572D01*
X72681137Y-41916184D01*
X72698879Y-41924576D01*
X72715714Y-41934666D01*
X72731479Y-41946358D01*
X72746021Y-41959539D01*
X72759202Y-41974081D01*
X72770894Y-41989846D01*
X72780984Y-42006681D01*
X72789376Y-42024423D01*
X72795988Y-42042903D01*
X72800757Y-42061942D01*
X72803637Y-42081357D01*
X72804600Y-42100960D01*
X72804600Y-42500960D01*
X72803637Y-42520563D01*
X72800757Y-42539978D01*
X72795988Y-42559017D01*
X72789376Y-42577497D01*
X72780984Y-42595239D01*
X72770894Y-42612074D01*
X72759202Y-42627839D01*
X72746021Y-42642381D01*
X72731479Y-42655562D01*
X72715714Y-42667254D01*
X72698879Y-42677344D01*
X72681137Y-42685736D01*
X72662657Y-42692348D01*
X72643618Y-42697117D01*
X72624203Y-42699997D01*
X72604600Y-42700960D01*
X71704600Y-42700960D01*
X71684997Y-42699997D01*
X71665582Y-42697117D01*
X71646543Y-42692348D01*
X71628063Y-42685736D01*
X71610321Y-42677344D01*
X71593486Y-42667254D01*
X71577721Y-42655562D01*
X71563179Y-42642381D01*
X71549998Y-42627839D01*
X71538306Y-42612074D01*
X71528216Y-42595239D01*
X71519824Y-42577497D01*
X71513212Y-42559017D01*
X71508443Y-42539978D01*
X71505563Y-42520563D01*
X71504600Y-42500960D01*
X71504600Y-42100960D01*
X71505563Y-42081357D01*
X71508443Y-42061942D01*
X71513212Y-42042903D01*
X71519824Y-42024423D01*
X71528216Y-42006681D01*
X71538306Y-41989846D01*
X71549998Y-41974081D01*
X71563179Y-41959539D01*
X71577721Y-41946358D01*
X71593486Y-41934666D01*
X71610321Y-41924576D01*
X71628063Y-41916184D01*
X71646543Y-41909572D01*
X71665582Y-41904803D01*
X71684997Y-41901923D01*
X71704600Y-41900960D01*
X72604600Y-41900960D01*
X72624203Y-41901923D01*
X72624203Y-41901923D01*
G37*
D12*
X72154600Y-42300960D03*
D13*
X66617400Y-45730160D03*
X66617400Y-43190160D03*
X66617400Y-40650160D03*
D14*
X66617400Y-38110160D03*
X76033180Y-45504100D03*
X40353800Y-34376360D03*
D13*
X37813800Y-34376360D03*
X40353800Y-36916360D03*
X37813800Y-36916360D03*
X40353800Y-39456360D03*
X37813800Y-39456360D03*
X40353800Y-41996360D03*
X37813800Y-41996360D03*
X40353800Y-44536360D03*
X37813800Y-44536360D03*
X40353800Y-47076360D03*
X37813800Y-47076360D03*
D14*
X76040800Y-32801560D03*
D15*
X80130200Y-41740960D03*
X80130200Y-39200960D03*
X80130200Y-36660960D03*
D16*
X64433000Y-37906960D03*
X64433000Y-41081960D03*
X64433000Y-44637960D03*
X64433000Y-48193960D03*
X49066000Y-49336960D03*
X51199600Y-36459160D03*
D17*
X35299200Y-52715160D02*
X34181600Y-51597560D01*
X34181600Y-51597560D02*
X34181600Y-46060360D01*
X35705600Y-44536360D02*
X37813800Y-44536360D01*
X34181600Y-46060360D02*
X35705600Y-44536360D01*
X64433000Y-52664360D02*
X64382200Y-52715160D01*
X64534600Y-52715160D02*
X64382200Y-52715160D01*
X64433000Y-37906960D02*
X64433000Y-41081960D01*
X64433000Y-41081960D02*
X64433000Y-44637960D01*
X64433000Y-44637960D02*
X64433000Y-48193960D01*
X64433000Y-48193960D02*
X64433000Y-52664360D01*
X64382200Y-52715160D02*
X49116800Y-52715160D01*
X49116800Y-52715160D02*
X35299200Y-52715160D01*
X49066000Y-52664360D02*
X49116800Y-52715160D01*
X49066000Y-49336960D02*
X49066000Y-52664360D01*
X64382200Y-52715160D02*
X64687000Y-52715160D01*
X64687000Y-52715160D02*
X72154600Y-45247560D01*
X72154600Y-45247560D02*
X72154600Y-42300960D01*
X72154600Y-42300960D02*
X76532000Y-42300960D01*
X77092000Y-41740960D02*
X80130200Y-41740960D01*
X76532000Y-42300960D02*
X77092000Y-41740960D01*
X72154600Y-37300960D02*
X75312000Y-37300960D01*
X75952000Y-36660960D02*
X80130200Y-36660960D01*
X75312000Y-37300960D02*
X75952000Y-36660960D01*
X72154600Y-39800960D02*
X75592000Y-39800960D01*
X76192000Y-39200960D02*
X80130200Y-39200960D01*
X75592000Y-39800960D02*
X76192000Y-39200960D01*
X67819481Y-45730160D02*
X68852600Y-44697041D01*
X66617400Y-45730160D02*
X67819481Y-45730160D01*
X68852600Y-44697041D02*
X68852600Y-37170360D01*
X68852600Y-37170360D02*
X68141400Y-36459160D01*
X68141400Y-36459160D02*
X51199600Y-36459160D01*
D18*
G36*
X58795001Y-32793303D02*
G01*
X58795000Y-32793313D01*
X58795000Y-33555313D01*
X58791686Y-33588960D01*
X58804912Y-33723243D01*
X58844081Y-33852366D01*
X58907688Y-33971367D01*
X58993289Y-34075671D01*
X59097593Y-34161272D01*
X59216594Y-34224879D01*
X59345717Y-34264048D01*
X59480000Y-34277274D01*
X59513647Y-34273960D01*
X72120953Y-34273960D01*
X72154600Y-34277274D01*
X72188247Y-34273960D01*
X72288883Y-34264048D01*
X72418006Y-34224879D01*
X72537007Y-34161272D01*
X72641311Y-34075671D01*
X72726912Y-33971367D01*
X72790519Y-33852366D01*
X72829688Y-33723243D01*
X72842914Y-33588960D01*
X72839600Y-33555313D01*
X72839600Y-32013360D01*
X74552728Y-32013360D01*
X74552728Y-33651560D01*
X74564988Y-33776042D01*
X74601298Y-33895740D01*
X74660263Y-34006054D01*
X74739615Y-34102745D01*
X74836306Y-34182097D01*
X74946620Y-34241062D01*
X75066318Y-34277372D01*
X75190800Y-34289632D01*
X76803601Y-34289632D01*
X76803601Y-34929443D01*
X76800286Y-34963100D01*
X76813512Y-35097383D01*
X76852681Y-35226506D01*
X76916288Y-35345507D01*
X77001889Y-35449811D01*
X77106193Y-35535412D01*
X77225194Y-35599019D01*
X77354317Y-35638188D01*
X77454953Y-35648100D01*
X77488600Y-35651414D01*
X77522247Y-35648100D01*
X77758446Y-35648100D01*
X77754388Y-35661478D01*
X77742128Y-35785960D01*
X77742128Y-35835460D01*
X75992550Y-35835460D01*
X75952000Y-35831466D01*
X75911449Y-35835460D01*
X75911447Y-35835460D01*
X75790174Y-35847404D01*
X75634566Y-35894607D01*
X75491157Y-35971261D01*
X75396958Y-36048568D01*
X75396955Y-36048571D01*
X75365459Y-36074419D01*
X75339610Y-36105916D01*
X74970067Y-36475460D01*
X73351273Y-36475460D01*
X73365441Y-36448953D01*
X73424624Y-36253855D01*
X73444607Y-36050960D01*
X73424624Y-35848065D01*
X73365441Y-35652967D01*
X73269334Y-35473163D01*
X73139996Y-35315564D01*
X72982397Y-35186226D01*
X72802593Y-35090119D01*
X72607495Y-35030936D01*
X72455438Y-35015960D01*
X71853762Y-35015960D01*
X71701705Y-35030936D01*
X71506607Y-35090119D01*
X71326803Y-35186226D01*
X71169204Y-35315564D01*
X71039866Y-35473163D01*
X70943759Y-35652967D01*
X70884576Y-35848065D01*
X70864593Y-36050960D01*
X70884576Y-36253855D01*
X70943759Y-36448953D01*
X71039866Y-36628757D01*
X71078604Y-36675960D01*
X71039866Y-36723163D01*
X70943759Y-36902967D01*
X70884576Y-37098065D01*
X70864593Y-37300960D01*
X70884576Y-37503855D01*
X70943759Y-37698953D01*
X71039866Y-37878757D01*
X71078604Y-37925960D01*
X71039866Y-37973163D01*
X70943759Y-38152967D01*
X70884576Y-38348065D01*
X70864593Y-38550960D01*
X70884576Y-38753855D01*
X70943759Y-38948953D01*
X71039866Y-39128757D01*
X71078604Y-39175960D01*
X71039866Y-39223163D01*
X70943759Y-39402967D01*
X70884576Y-39598065D01*
X70864593Y-39800960D01*
X70884576Y-40003855D01*
X70943759Y-40198953D01*
X71039866Y-40378757D01*
X71078604Y-40425960D01*
X71039866Y-40473163D01*
X70943759Y-40652967D01*
X70884576Y-40848065D01*
X70864593Y-41050960D01*
X70884576Y-41253855D01*
X70943759Y-41448953D01*
X71039866Y-41628757D01*
X71169204Y-41786356D01*
X71326803Y-41915694D01*
X71506607Y-42011801D01*
X71701705Y-42070984D01*
X71853762Y-42085960D01*
X72455438Y-42085960D01*
X72607495Y-42070984D01*
X72802593Y-42011801D01*
X72982397Y-41915694D01*
X73139996Y-41786356D01*
X73269334Y-41628757D01*
X73365441Y-41448953D01*
X73424624Y-41253855D01*
X73444607Y-41050960D01*
X73424624Y-40848065D01*
X73393898Y-40746775D01*
X73404843Y-40755757D01*
X73426799Y-40767493D01*
X73450624Y-40774720D01*
X73475400Y-40777160D01*
X81248601Y-40777160D01*
X81248601Y-42756620D01*
X77522247Y-42756620D01*
X77488600Y-42753306D01*
X77454953Y-42756620D01*
X77354317Y-42766532D01*
X77225194Y-42805701D01*
X77106193Y-42869308D01*
X77001889Y-42954909D01*
X76916288Y-43059213D01*
X76852681Y-43178214D01*
X76813512Y-43307337D01*
X76800286Y-43441620D01*
X76803600Y-43475267D01*
X76803600Y-44016028D01*
X75183180Y-44016028D01*
X75058698Y-44028288D01*
X74939000Y-44064598D01*
X74828686Y-44123563D01*
X74731995Y-44202915D01*
X74652643Y-44299606D01*
X74593678Y-44409920D01*
X74557368Y-44529618D01*
X74545108Y-44654100D01*
X74545108Y-46289760D01*
X74137394Y-46289760D01*
X74066810Y-46289423D01*
X74034205Y-46292463D01*
X74001456Y-46292234D01*
X73991938Y-46293168D01*
X73395320Y-46355874D01*
X73334509Y-46368357D01*
X73273518Y-46379992D01*
X73264362Y-46382756D01*
X72691286Y-46560153D01*
X72634032Y-46584221D01*
X72576488Y-46607470D01*
X72568043Y-46611960D01*
X72040338Y-46897289D01*
X71988881Y-46931997D01*
X71936917Y-46966002D01*
X71929505Y-46972047D01*
X71467271Y-47354441D01*
X71423524Y-47398494D01*
X71379167Y-47441932D01*
X71373070Y-47449302D01*
X70993913Y-47914194D01*
X70959557Y-47965905D01*
X70924480Y-48017133D01*
X70919934Y-48025542D01*
X70919931Y-48025546D01*
X70919931Y-48025547D01*
X70638293Y-48555231D01*
X70614639Y-48612620D01*
X70590176Y-48669696D01*
X70587348Y-48678833D01*
X70413957Y-49253133D01*
X70401900Y-49314026D01*
X70388990Y-49374763D01*
X70387990Y-49384275D01*
X70329450Y-49981316D01*
X70329450Y-49981327D01*
X70326178Y-50014578D01*
X70326536Y-53808160D01*
X31847340Y-53808160D01*
X31847340Y-46796960D01*
X31844900Y-46772184D01*
X31837673Y-46748359D01*
X31825937Y-46726403D01*
X31810143Y-46707157D01*
X31790897Y-46691363D01*
X31768941Y-46679627D01*
X31745116Y-46672400D01*
X31720340Y-46669960D01*
X28211800Y-46669960D01*
X28211800Y-34376360D01*
X36321615Y-34376360D01*
X36350287Y-34667471D01*
X36435201Y-34947394D01*
X36573094Y-35205374D01*
X36758666Y-35431494D01*
X36984786Y-35617066D01*
X37039591Y-35646360D01*
X36984786Y-35675654D01*
X36758666Y-35861226D01*
X36573094Y-36087346D01*
X36435201Y-36345326D01*
X36350287Y-36625249D01*
X36321615Y-36916360D01*
X36350287Y-37207471D01*
X36435201Y-37487394D01*
X36573094Y-37745374D01*
X36758666Y-37971494D01*
X36984786Y-38157066D01*
X37039591Y-38186360D01*
X36984786Y-38215654D01*
X36758666Y-38401226D01*
X36573094Y-38627346D01*
X36435201Y-38885326D01*
X36350287Y-39165249D01*
X36321615Y-39456360D01*
X36350287Y-39747471D01*
X36435201Y-40027394D01*
X36573094Y-40285374D01*
X36758666Y-40511494D01*
X36984786Y-40697066D01*
X37039591Y-40726360D01*
X36984786Y-40755654D01*
X36758666Y-40941226D01*
X36573094Y-41167346D01*
X36435201Y-41425326D01*
X36350287Y-41705249D01*
X36321615Y-41996360D01*
X36350287Y-42287471D01*
X36435201Y-42567394D01*
X36573094Y-42825374D01*
X36758666Y-43051494D01*
X36984786Y-43237066D01*
X37242766Y-43374959D01*
X37522689Y-43459873D01*
X37740850Y-43481360D01*
X37886750Y-43481360D01*
X38104911Y-43459873D01*
X38384834Y-43374959D01*
X38642814Y-43237066D01*
X38868934Y-43051494D01*
X39054506Y-42825374D01*
X39083800Y-42770569D01*
X39113094Y-42825374D01*
X39298666Y-43051494D01*
X39524786Y-43237066D01*
X39579591Y-43266360D01*
X39524786Y-43295654D01*
X39298666Y-43481226D01*
X39113094Y-43707346D01*
X38975201Y-43965326D01*
X38890287Y-44245249D01*
X38861615Y-44536360D01*
X38890287Y-44827471D01*
X38975201Y-45107394D01*
X39113094Y-45365374D01*
X39298666Y-45591494D01*
X39524786Y-45777066D01*
X39579591Y-45806360D01*
X39524786Y-45835654D01*
X39298666Y-46021226D01*
X39113094Y-46247346D01*
X39083800Y-46302151D01*
X39054506Y-46247346D01*
X38868934Y-46021226D01*
X38642814Y-45835654D01*
X38384834Y-45697761D01*
X38104911Y-45612847D01*
X37886750Y-45591360D01*
X37740850Y-45591360D01*
X37522689Y-45612847D01*
X37242766Y-45697761D01*
X36984786Y-45835654D01*
X36758666Y-46021226D01*
X36573094Y-46247346D01*
X36435201Y-46505326D01*
X36350287Y-46785249D01*
X36321615Y-47076360D01*
X36350287Y-47367471D01*
X36435201Y-47647394D01*
X36573094Y-47905374D01*
X36758666Y-48131494D01*
X36984786Y-48317066D01*
X37242766Y-48454959D01*
X37522689Y-48539873D01*
X37740850Y-48561360D01*
X37886750Y-48561360D01*
X38104911Y-48539873D01*
X38384834Y-48454959D01*
X38642814Y-48317066D01*
X38868934Y-48131494D01*
X39054506Y-47905374D01*
X39083800Y-47850569D01*
X39113094Y-47905374D01*
X39298666Y-48131494D01*
X39524786Y-48317066D01*
X39782766Y-48454959D01*
X40062689Y-48539873D01*
X40280850Y-48561360D01*
X40426750Y-48561360D01*
X40644911Y-48539873D01*
X40924834Y-48454959D01*
X41182814Y-48317066D01*
X41408934Y-48131494D01*
X41594506Y-47905374D01*
X41732399Y-47647394D01*
X41817313Y-47367471D01*
X41845985Y-47076360D01*
X41817313Y-46785249D01*
X41732399Y-46505326D01*
X41594506Y-46247346D01*
X41408934Y-46021226D01*
X41182814Y-45835654D01*
X41128009Y-45806360D01*
X41182814Y-45777066D01*
X41408934Y-45591494D01*
X41594506Y-45365374D01*
X41732399Y-45107394D01*
X41817313Y-44827471D01*
X41845985Y-44536360D01*
X41817313Y-44245249D01*
X41732399Y-43965326D01*
X41594506Y-43707346D01*
X41408934Y-43481226D01*
X41182814Y-43295654D01*
X41128009Y-43266360D01*
X41182814Y-43237066D01*
X41408934Y-43051494D01*
X41594506Y-42825374D01*
X41732399Y-42567394D01*
X41817313Y-42287471D01*
X41845985Y-41996360D01*
X41817313Y-41705249D01*
X41732399Y-41425326D01*
X41594506Y-41167346D01*
X41408934Y-40941226D01*
X41182814Y-40755654D01*
X41128009Y-40726360D01*
X41182814Y-40697066D01*
X41408934Y-40511494D01*
X41594506Y-40285374D01*
X41732399Y-40027394D01*
X41817313Y-39747471D01*
X41845985Y-39456360D01*
X41817313Y-39165249D01*
X41732399Y-38885326D01*
X41594506Y-38627346D01*
X41408934Y-38401226D01*
X41182814Y-38215654D01*
X41128009Y-38186360D01*
X41182814Y-38157066D01*
X41408934Y-37971494D01*
X41594506Y-37745374D01*
X41732399Y-37487394D01*
X41817313Y-37207471D01*
X41845985Y-36916360D01*
X41817313Y-36625249D01*
X41736576Y-36359093D01*
X50183600Y-36359093D01*
X50183600Y-36559227D01*
X50222644Y-36755516D01*
X50299232Y-36940416D01*
X50410421Y-37106822D01*
X50551938Y-37248339D01*
X50718344Y-37359528D01*
X50903244Y-37436116D01*
X51099533Y-37475160D01*
X51299667Y-37475160D01*
X51495956Y-37436116D01*
X51680856Y-37359528D01*
X51792904Y-37284660D01*
X65129328Y-37284660D01*
X65129328Y-38960160D01*
X65141588Y-39084642D01*
X65177898Y-39204340D01*
X65236863Y-39314654D01*
X65316215Y-39411345D01*
X65412906Y-39490697D01*
X65523220Y-39549662D01*
X65592087Y-39570553D01*
X65562266Y-39595026D01*
X65376694Y-39821146D01*
X65238801Y-40079126D01*
X65153887Y-40359049D01*
X65125215Y-40650160D01*
X65153887Y-40941271D01*
X65238801Y-41221194D01*
X65376694Y-41479174D01*
X65562266Y-41705294D01*
X65788386Y-41890866D01*
X65843191Y-41920160D01*
X65788386Y-41949454D01*
X65562266Y-42135026D01*
X65376694Y-42361146D01*
X65238801Y-42619126D01*
X65153887Y-42899049D01*
X65125215Y-43190160D01*
X65153887Y-43481271D01*
X65238801Y-43761194D01*
X65376694Y-44019174D01*
X65562266Y-44245294D01*
X65788386Y-44430866D01*
X65843191Y-44460160D01*
X65788386Y-44489454D01*
X65562266Y-44675026D01*
X65376694Y-44901146D01*
X65238801Y-45159126D01*
X65153887Y-45439049D01*
X65125215Y-45730160D01*
X65153887Y-46021271D01*
X65238801Y-46301194D01*
X65376694Y-46559174D01*
X65562266Y-46785294D01*
X65788386Y-46970866D01*
X66046366Y-47108759D01*
X66326289Y-47193673D01*
X66544450Y-47215160D01*
X66690350Y-47215160D01*
X66908511Y-47193673D01*
X67188434Y-47108759D01*
X67446414Y-46970866D01*
X67672534Y-46785294D01*
X67858106Y-46559174D01*
X67859982Y-46555665D01*
X67860031Y-46555660D01*
X67860034Y-46555660D01*
X67981307Y-46543716D01*
X68136915Y-46496513D01*
X68280323Y-46419859D01*
X68406022Y-46316701D01*
X68431879Y-46285195D01*
X69407646Y-45309429D01*
X69439141Y-45283582D01*
X69464989Y-45252086D01*
X69464992Y-45252083D01*
X69542299Y-45157884D01*
X69618953Y-45014475D01*
X69634323Y-44963807D01*
X69666156Y-44858867D01*
X69678100Y-44737594D01*
X69678100Y-44737592D01*
X69682094Y-44697041D01*
X69678100Y-44656491D01*
X69678100Y-37210910D01*
X69682094Y-37170360D01*
X69678100Y-37129807D01*
X69666156Y-37008534D01*
X69618953Y-36852926D01*
X69602843Y-36822786D01*
X69542299Y-36709517D01*
X69464992Y-36615318D01*
X69464989Y-36615315D01*
X69439141Y-36583819D01*
X69407644Y-36557970D01*
X68753797Y-35904125D01*
X68727941Y-35872619D01*
X68602242Y-35769461D01*
X68458834Y-35692807D01*
X68303226Y-35645604D01*
X68181953Y-35633660D01*
X68181950Y-35633660D01*
X68141400Y-35629666D01*
X68100850Y-35633660D01*
X51792904Y-35633660D01*
X51680856Y-35558792D01*
X51495956Y-35482204D01*
X51299667Y-35443160D01*
X51099533Y-35443160D01*
X50903244Y-35482204D01*
X50718344Y-35558792D01*
X50551938Y-35669981D01*
X50410421Y-35811498D01*
X50299232Y-35977904D01*
X50222644Y-36162804D01*
X50183600Y-36359093D01*
X41736576Y-36359093D01*
X41732399Y-36345326D01*
X41594506Y-36087346D01*
X41408934Y-35861226D01*
X41379113Y-35836753D01*
X41447980Y-35815862D01*
X41558294Y-35756897D01*
X41654985Y-35677545D01*
X41734337Y-35580854D01*
X41793302Y-35470540D01*
X41829612Y-35350842D01*
X41841872Y-35226360D01*
X41841872Y-33526360D01*
X41829612Y-33401878D01*
X41793302Y-33282180D01*
X41734337Y-33171866D01*
X41654985Y-33075175D01*
X41558294Y-32995823D01*
X41447980Y-32936858D01*
X41328282Y-32900548D01*
X41203800Y-32888288D01*
X39503800Y-32888288D01*
X39379318Y-32900548D01*
X39259620Y-32936858D01*
X39149306Y-32995823D01*
X39052615Y-33075175D01*
X38973263Y-33171866D01*
X38914298Y-33282180D01*
X38893407Y-33351047D01*
X38868934Y-33321226D01*
X38642814Y-33135654D01*
X38384834Y-32997761D01*
X38104911Y-32912847D01*
X37886750Y-32891360D01*
X37740850Y-32891360D01*
X37522689Y-32912847D01*
X37242766Y-32997761D01*
X36984786Y-33135654D01*
X36758666Y-33321226D01*
X36573094Y-33547346D01*
X36435201Y-33805326D01*
X36350287Y-34085249D01*
X36321615Y-34376360D01*
X28211800Y-34376360D01*
X28211800Y-31987960D01*
X58795000Y-31987960D01*
X58795001Y-32793303D01*
X58795001Y-32793303D01*
G37*
X58795001Y-32793303D02*
X58795000Y-32793313D01*
X58795000Y-33555313D01*
X58791686Y-33588960D01*
X58804912Y-33723243D01*
X58844081Y-33852366D01*
X58907688Y-33971367D01*
X58993289Y-34075671D01*
X59097593Y-34161272D01*
X59216594Y-34224879D01*
X59345717Y-34264048D01*
X59480000Y-34277274D01*
X59513647Y-34273960D01*
X72120953Y-34273960D01*
X72154600Y-34277274D01*
X72188247Y-34273960D01*
X72288883Y-34264048D01*
X72418006Y-34224879D01*
X72537007Y-34161272D01*
X72641311Y-34075671D01*
X72726912Y-33971367D01*
X72790519Y-33852366D01*
X72829688Y-33723243D01*
X72842914Y-33588960D01*
X72839600Y-33555313D01*
X72839600Y-32013360D01*
X74552728Y-32013360D01*
X74552728Y-33651560D01*
X74564988Y-33776042D01*
X74601298Y-33895740D01*
X74660263Y-34006054D01*
X74739615Y-34102745D01*
X74836306Y-34182097D01*
X74946620Y-34241062D01*
X75066318Y-34277372D01*
X75190800Y-34289632D01*
X76803601Y-34289632D01*
X76803601Y-34929443D01*
X76800286Y-34963100D01*
X76813512Y-35097383D01*
X76852681Y-35226506D01*
X76916288Y-35345507D01*
X77001889Y-35449811D01*
X77106193Y-35535412D01*
X77225194Y-35599019D01*
X77354317Y-35638188D01*
X77454953Y-35648100D01*
X77488600Y-35651414D01*
X77522247Y-35648100D01*
X77758446Y-35648100D01*
X77754388Y-35661478D01*
X77742128Y-35785960D01*
X77742128Y-35835460D01*
X75992550Y-35835460D01*
X75952000Y-35831466D01*
X75911449Y-35835460D01*
X75911447Y-35835460D01*
X75790174Y-35847404D01*
X75634566Y-35894607D01*
X75491157Y-35971261D01*
X75396958Y-36048568D01*
X75396955Y-36048571D01*
X75365459Y-36074419D01*
X75339610Y-36105916D01*
X74970067Y-36475460D01*
X73351273Y-36475460D01*
X73365441Y-36448953D01*
X73424624Y-36253855D01*
X73444607Y-36050960D01*
X73424624Y-35848065D01*
X73365441Y-35652967D01*
X73269334Y-35473163D01*
X73139996Y-35315564D01*
X72982397Y-35186226D01*
X72802593Y-35090119D01*
X72607495Y-35030936D01*
X72455438Y-35015960D01*
X71853762Y-35015960D01*
X71701705Y-35030936D01*
X71506607Y-35090119D01*
X71326803Y-35186226D01*
X71169204Y-35315564D01*
X71039866Y-35473163D01*
X70943759Y-35652967D01*
X70884576Y-35848065D01*
X70864593Y-36050960D01*
X70884576Y-36253855D01*
X70943759Y-36448953D01*
X71039866Y-36628757D01*
X71078604Y-36675960D01*
X71039866Y-36723163D01*
X70943759Y-36902967D01*
X70884576Y-37098065D01*
X70864593Y-37300960D01*
X70884576Y-37503855D01*
X70943759Y-37698953D01*
X71039866Y-37878757D01*
X71078604Y-37925960D01*
X71039866Y-37973163D01*
X70943759Y-38152967D01*
X70884576Y-38348065D01*
X70864593Y-38550960D01*
X70884576Y-38753855D01*
X70943759Y-38948953D01*
X71039866Y-39128757D01*
X71078604Y-39175960D01*
X71039866Y-39223163D01*
X70943759Y-39402967D01*
X70884576Y-39598065D01*
X70864593Y-39800960D01*
X70884576Y-40003855D01*
X70943759Y-40198953D01*
X71039866Y-40378757D01*
X71078604Y-40425960D01*
X71039866Y-40473163D01*
X70943759Y-40652967D01*
X70884576Y-40848065D01*
X70864593Y-41050960D01*
X70884576Y-41253855D01*
X70943759Y-41448953D01*
X71039866Y-41628757D01*
X71169204Y-41786356D01*
X71326803Y-41915694D01*
X71506607Y-42011801D01*
X71701705Y-42070984D01*
X71853762Y-42085960D01*
X72455438Y-42085960D01*
X72607495Y-42070984D01*
X72802593Y-42011801D01*
X72982397Y-41915694D01*
X73139996Y-41786356D01*
X73269334Y-41628757D01*
X73365441Y-41448953D01*
X73424624Y-41253855D01*
X73444607Y-41050960D01*
X73424624Y-40848065D01*
X73393898Y-40746775D01*
X73404843Y-40755757D01*
X73426799Y-40767493D01*
X73450624Y-40774720D01*
X73475400Y-40777160D01*
X81248601Y-40777160D01*
X81248601Y-42756620D01*
X77522247Y-42756620D01*
X77488600Y-42753306D01*
X77454953Y-42756620D01*
X77354317Y-42766532D01*
X77225194Y-42805701D01*
X77106193Y-42869308D01*
X77001889Y-42954909D01*
X76916288Y-43059213D01*
X76852681Y-43178214D01*
X76813512Y-43307337D01*
X76800286Y-43441620D01*
X76803600Y-43475267D01*
X76803600Y-44016028D01*
X75183180Y-44016028D01*
X75058698Y-44028288D01*
X74939000Y-44064598D01*
X74828686Y-44123563D01*
X74731995Y-44202915D01*
X74652643Y-44299606D01*
X74593678Y-44409920D01*
X74557368Y-44529618D01*
X74545108Y-44654100D01*
X74545108Y-46289760D01*
X74137394Y-46289760D01*
X74066810Y-46289423D01*
X74034205Y-46292463D01*
X74001456Y-46292234D01*
X73991938Y-46293168D01*
X73395320Y-46355874D01*
X73334509Y-46368357D01*
X73273518Y-46379992D01*
X73264362Y-46382756D01*
X72691286Y-46560153D01*
X72634032Y-46584221D01*
X72576488Y-46607470D01*
X72568043Y-46611960D01*
X72040338Y-46897289D01*
X71988881Y-46931997D01*
X71936917Y-46966002D01*
X71929505Y-46972047D01*
X71467271Y-47354441D01*
X71423524Y-47398494D01*
X71379167Y-47441932D01*
X71373070Y-47449302D01*
X70993913Y-47914194D01*
X70959557Y-47965905D01*
X70924480Y-48017133D01*
X70919934Y-48025542D01*
X70919931Y-48025546D01*
X70919931Y-48025547D01*
X70638293Y-48555231D01*
X70614639Y-48612620D01*
X70590176Y-48669696D01*
X70587348Y-48678833D01*
X70413957Y-49253133D01*
X70401900Y-49314026D01*
X70388990Y-49374763D01*
X70387990Y-49384275D01*
X70329450Y-49981316D01*
X70329450Y-49981327D01*
X70326178Y-50014578D01*
X70326536Y-53808160D01*
X31847340Y-53808160D01*
X31847340Y-46796960D01*
X31844900Y-46772184D01*
X31837673Y-46748359D01*
X31825937Y-46726403D01*
X31810143Y-46707157D01*
X31790897Y-46691363D01*
X31768941Y-46679627D01*
X31745116Y-46672400D01*
X31720340Y-46669960D01*
X28211800Y-46669960D01*
X28211800Y-34376360D01*
X36321615Y-34376360D01*
X36350287Y-34667471D01*
X36435201Y-34947394D01*
X36573094Y-35205374D01*
X36758666Y-35431494D01*
X36984786Y-35617066D01*
X37039591Y-35646360D01*
X36984786Y-35675654D01*
X36758666Y-35861226D01*
X36573094Y-36087346D01*
X36435201Y-36345326D01*
X36350287Y-36625249D01*
X36321615Y-36916360D01*
X36350287Y-37207471D01*
X36435201Y-37487394D01*
X36573094Y-37745374D01*
X36758666Y-37971494D01*
X36984786Y-38157066D01*
X37039591Y-38186360D01*
X36984786Y-38215654D01*
X36758666Y-38401226D01*
X36573094Y-38627346D01*
X36435201Y-38885326D01*
X36350287Y-39165249D01*
X36321615Y-39456360D01*
X36350287Y-39747471D01*
X36435201Y-40027394D01*
X36573094Y-40285374D01*
X36758666Y-40511494D01*
X36984786Y-40697066D01*
X37039591Y-40726360D01*
X36984786Y-40755654D01*
X36758666Y-40941226D01*
X36573094Y-41167346D01*
X36435201Y-41425326D01*
X36350287Y-41705249D01*
X36321615Y-41996360D01*
X36350287Y-42287471D01*
X36435201Y-42567394D01*
X36573094Y-42825374D01*
X36758666Y-43051494D01*
X36984786Y-43237066D01*
X37242766Y-43374959D01*
X37522689Y-43459873D01*
X37740850Y-43481360D01*
X37886750Y-43481360D01*
X38104911Y-43459873D01*
X38384834Y-43374959D01*
X38642814Y-43237066D01*
X38868934Y-43051494D01*
X39054506Y-42825374D01*
X39083800Y-42770569D01*
X39113094Y-42825374D01*
X39298666Y-43051494D01*
X39524786Y-43237066D01*
X39579591Y-43266360D01*
X39524786Y-43295654D01*
X39298666Y-43481226D01*
X39113094Y-43707346D01*
X38975201Y-43965326D01*
X38890287Y-44245249D01*
X38861615Y-44536360D01*
X38890287Y-44827471D01*
X38975201Y-45107394D01*
X39113094Y-45365374D01*
X39298666Y-45591494D01*
X39524786Y-45777066D01*
X39579591Y-45806360D01*
X39524786Y-45835654D01*
X39298666Y-46021226D01*
X39113094Y-46247346D01*
X39083800Y-46302151D01*
X39054506Y-46247346D01*
X38868934Y-46021226D01*
X38642814Y-45835654D01*
X38384834Y-45697761D01*
X38104911Y-45612847D01*
X37886750Y-45591360D01*
X37740850Y-45591360D01*
X37522689Y-45612847D01*
X37242766Y-45697761D01*
X36984786Y-45835654D01*
X36758666Y-46021226D01*
X36573094Y-46247346D01*
X36435201Y-46505326D01*
X36350287Y-46785249D01*
X36321615Y-47076360D01*
X36350287Y-47367471D01*
X36435201Y-47647394D01*
X36573094Y-47905374D01*
X36758666Y-48131494D01*
X36984786Y-48317066D01*
X37242766Y-48454959D01*
X37522689Y-48539873D01*
X37740850Y-48561360D01*
X37886750Y-48561360D01*
X38104911Y-48539873D01*
X38384834Y-48454959D01*
X38642814Y-48317066D01*
X38868934Y-48131494D01*
X39054506Y-47905374D01*
X39083800Y-47850569D01*
X39113094Y-47905374D01*
X39298666Y-48131494D01*
X39524786Y-48317066D01*
X39782766Y-48454959D01*
X40062689Y-48539873D01*
X40280850Y-48561360D01*
X40426750Y-48561360D01*
X40644911Y-48539873D01*
X40924834Y-48454959D01*
X41182814Y-48317066D01*
X41408934Y-48131494D01*
X41594506Y-47905374D01*
X41732399Y-47647394D01*
X41817313Y-47367471D01*
X41845985Y-47076360D01*
X41817313Y-46785249D01*
X41732399Y-46505326D01*
X41594506Y-46247346D01*
X41408934Y-46021226D01*
X41182814Y-45835654D01*
X41128009Y-45806360D01*
X41182814Y-45777066D01*
X41408934Y-45591494D01*
X41594506Y-45365374D01*
X41732399Y-45107394D01*
X41817313Y-44827471D01*
X41845985Y-44536360D01*
X41817313Y-44245249D01*
X41732399Y-43965326D01*
X41594506Y-43707346D01*
X41408934Y-43481226D01*
X41182814Y-43295654D01*
X41128009Y-43266360D01*
X41182814Y-43237066D01*
X41408934Y-43051494D01*
X41594506Y-42825374D01*
X41732399Y-42567394D01*
X41817313Y-42287471D01*
X41845985Y-41996360D01*
X41817313Y-41705249D01*
X41732399Y-41425326D01*
X41594506Y-41167346D01*
X41408934Y-40941226D01*
X41182814Y-40755654D01*
X41128009Y-40726360D01*
X41182814Y-40697066D01*
X41408934Y-40511494D01*
X41594506Y-40285374D01*
X41732399Y-40027394D01*
X41817313Y-39747471D01*
X41845985Y-39456360D01*
X41817313Y-39165249D01*
X41732399Y-38885326D01*
X41594506Y-38627346D01*
X41408934Y-38401226D01*
X41182814Y-38215654D01*
X41128009Y-38186360D01*
X41182814Y-38157066D01*
X41408934Y-37971494D01*
X41594506Y-37745374D01*
X41732399Y-37487394D01*
X41817313Y-37207471D01*
X41845985Y-36916360D01*
X41817313Y-36625249D01*
X41736576Y-36359093D01*
X50183600Y-36359093D01*
X50183600Y-36559227D01*
X50222644Y-36755516D01*
X50299232Y-36940416D01*
X50410421Y-37106822D01*
X50551938Y-37248339D01*
X50718344Y-37359528D01*
X50903244Y-37436116D01*
X51099533Y-37475160D01*
X51299667Y-37475160D01*
X51495956Y-37436116D01*
X51680856Y-37359528D01*
X51792904Y-37284660D01*
X65129328Y-37284660D01*
X65129328Y-38960160D01*
X65141588Y-39084642D01*
X65177898Y-39204340D01*
X65236863Y-39314654D01*
X65316215Y-39411345D01*
X65412906Y-39490697D01*
X65523220Y-39549662D01*
X65592087Y-39570553D01*
X65562266Y-39595026D01*
X65376694Y-39821146D01*
X65238801Y-40079126D01*
X65153887Y-40359049D01*
X65125215Y-40650160D01*
X65153887Y-40941271D01*
X65238801Y-41221194D01*
X65376694Y-41479174D01*
X65562266Y-41705294D01*
X65788386Y-41890866D01*
X65843191Y-41920160D01*
X65788386Y-41949454D01*
X65562266Y-42135026D01*
X65376694Y-42361146D01*
X65238801Y-42619126D01*
X65153887Y-42899049D01*
X65125215Y-43190160D01*
X65153887Y-43481271D01*
X65238801Y-43761194D01*
X65376694Y-44019174D01*
X65562266Y-44245294D01*
X65788386Y-44430866D01*
X65843191Y-44460160D01*
X65788386Y-44489454D01*
X65562266Y-44675026D01*
X65376694Y-44901146D01*
X65238801Y-45159126D01*
X65153887Y-45439049D01*
X65125215Y-45730160D01*
X65153887Y-46021271D01*
X65238801Y-46301194D01*
X65376694Y-46559174D01*
X65562266Y-46785294D01*
X65788386Y-46970866D01*
X66046366Y-47108759D01*
X66326289Y-47193673D01*
X66544450Y-47215160D01*
X66690350Y-47215160D01*
X66908511Y-47193673D01*
X67188434Y-47108759D01*
X67446414Y-46970866D01*
X67672534Y-46785294D01*
X67858106Y-46559174D01*
X67859982Y-46555665D01*
X67860031Y-46555660D01*
X67860034Y-46555660D01*
X67981307Y-46543716D01*
X68136915Y-46496513D01*
X68280323Y-46419859D01*
X68406022Y-46316701D01*
X68431879Y-46285195D01*
X69407646Y-45309429D01*
X69439141Y-45283582D01*
X69464989Y-45252086D01*
X69464992Y-45252083D01*
X69542299Y-45157884D01*
X69618953Y-45014475D01*
X69634323Y-44963807D01*
X69666156Y-44858867D01*
X69678100Y-44737594D01*
X69678100Y-44737592D01*
X69682094Y-44697041D01*
X69678100Y-44656491D01*
X69678100Y-37210910D01*
X69682094Y-37170360D01*
X69678100Y-37129807D01*
X69666156Y-37008534D01*
X69618953Y-36852926D01*
X69602843Y-36822786D01*
X69542299Y-36709517D01*
X69464992Y-36615318D01*
X69464989Y-36615315D01*
X69439141Y-36583819D01*
X69407644Y-36557970D01*
X68753797Y-35904125D01*
X68727941Y-35872619D01*
X68602242Y-35769461D01*
X68458834Y-35692807D01*
X68303226Y-35645604D01*
X68181953Y-35633660D01*
X68181950Y-35633660D01*
X68141400Y-35629666D01*
X68100850Y-35633660D01*
X51792904Y-35633660D01*
X51680856Y-35558792D01*
X51495956Y-35482204D01*
X51299667Y-35443160D01*
X51099533Y-35443160D01*
X50903244Y-35482204D01*
X50718344Y-35558792D01*
X50551938Y-35669981D01*
X50410421Y-35811498D01*
X50299232Y-35977904D01*
X50222644Y-36162804D01*
X50183600Y-36359093D01*
X41736576Y-36359093D01*
X41732399Y-36345326D01*
X41594506Y-36087346D01*
X41408934Y-35861226D01*
X41379113Y-35836753D01*
X41447980Y-35815862D01*
X41558294Y-35756897D01*
X41654985Y-35677545D01*
X41734337Y-35580854D01*
X41793302Y-35470540D01*
X41829612Y-35350842D01*
X41841872Y-35226360D01*
X41841872Y-33526360D01*
X41829612Y-33401878D01*
X41793302Y-33282180D01*
X41734337Y-33171866D01*
X41654985Y-33075175D01*
X41558294Y-32995823D01*
X41447980Y-32936858D01*
X41328282Y-32900548D01*
X41203800Y-32888288D01*
X39503800Y-32888288D01*
X39379318Y-32900548D01*
X39259620Y-32936858D01*
X39149306Y-32995823D01*
X39052615Y-33075175D01*
X38973263Y-33171866D01*
X38914298Y-33282180D01*
X38893407Y-33351047D01*
X38868934Y-33321226D01*
X38642814Y-33135654D01*
X38384834Y-32997761D01*
X38104911Y-32912847D01*
X37886750Y-32891360D01*
X37740850Y-32891360D01*
X37522689Y-32912847D01*
X37242766Y-32997761D01*
X36984786Y-33135654D01*
X36758666Y-33321226D01*
X36573094Y-33547346D01*
X36435201Y-33805326D01*
X36350287Y-34085249D01*
X36321615Y-34376360D01*
X28211800Y-34376360D01*
X28211800Y-31987960D01*
X58795000Y-31987960D01*
X58795001Y-32793303D01*
M02*
