G04 #@! TF.GenerationSoftware,KiCad,Pcbnew,(5.1.4)-1*
G04 #@! TF.CreationDate,2020-03-01T01:22:24+00:00*
G04 #@! TF.ProjectId,rgb-to-hdmi,7267622d-746f-42d6-9864-6d692e6b6963,rev?*
G04 #@! TF.SameCoordinates,Original*
G04 #@! TF.FileFunction,Copper,L2,Bot*
G04 #@! TF.FilePolarity,Positive*
%FSLAX46Y46*%
G04 Gerber Fmt 4.6, Leading zero omitted, Abs format (unit mm)*
G04 Created by KiCad (PCBNEW (5.1.4)-1) date 2020-03-01 01:22:24*
%MOMM*%
%LPD*%
G04 APERTURE LIST*
%ADD10C,0.100000*%
%ADD11R,1.600000X1.600000*%
%ADD12O,1.600000X1.600000*%
%ADD13R,1.700000X1.700000*%
%ADD14O,1.700000X1.700000*%
%ADD15C,0.500000*%
%ADD16C,2.000000*%
%ADD17C,1.800000*%
%ADD18R,1.800000X1.800000*%
%ADD19C,0.762000*%
%ADD20C,0.660400*%
%ADD21C,0.381000*%
%ADD22C,0.762000*%
%ADD23C,0.203200*%
%ADD24C,1.016000*%
%ADD25C,0.635000*%
%ADD26C,0.254000*%
G04 APERTURE END LIST*
D10*
G36*
X62976000Y-37444960D02*
G01*
X62476000Y-37444960D01*
X62476000Y-36844960D01*
X62976000Y-36844960D01*
X62976000Y-37444960D01*
G37*
G36*
X62976000Y-34396960D02*
G01*
X62476000Y-34396960D01*
X62476000Y-33796960D01*
X62976000Y-33796960D01*
X62976000Y-34396960D01*
G37*
G36*
X62961000Y-43540960D02*
G01*
X62461000Y-43540960D01*
X62461000Y-42940960D01*
X62961000Y-42940960D01*
X62961000Y-43540960D01*
G37*
G36*
X62976000Y-40492960D02*
G01*
X62476000Y-40492960D01*
X62476000Y-39892960D01*
X62976000Y-39892960D01*
X62976000Y-40492960D01*
G37*
D11*
X21578000Y-45907960D03*
D12*
X21578000Y-43367960D03*
X21578000Y-40827960D03*
X21578000Y-38287960D03*
X21578000Y-35747960D03*
X21578000Y-33207960D03*
D13*
X24372000Y-44510960D03*
D14*
X26912000Y-44510960D03*
X24372000Y-41970960D03*
X26912000Y-41970960D03*
X24372000Y-39430960D03*
X26912000Y-39430960D03*
X24372000Y-36890960D03*
X26912000Y-36890960D03*
X24372000Y-34350960D03*
X26912000Y-34350960D03*
D13*
X70092000Y-38135560D03*
D14*
X70092000Y-40675560D03*
X70092000Y-43215560D03*
X70092000Y-45755560D03*
D15*
X63376000Y-37144960D03*
D10*
G36*
X63376000Y-36395562D02*
G01*
X63400534Y-36395562D01*
X63449365Y-36400372D01*
X63497490Y-36409944D01*
X63544445Y-36424188D01*
X63589778Y-36442965D01*
X63633051Y-36466096D01*
X63673850Y-36493356D01*
X63711779Y-36524484D01*
X63746476Y-36559181D01*
X63777604Y-36597110D01*
X63804864Y-36637909D01*
X63827995Y-36681182D01*
X63846772Y-36726515D01*
X63861016Y-36773470D01*
X63870588Y-36821595D01*
X63875398Y-36870426D01*
X63875398Y-36894960D01*
X63876000Y-36894960D01*
X63876000Y-37394960D01*
X63875398Y-37394960D01*
X63875398Y-37419494D01*
X63870588Y-37468325D01*
X63861016Y-37516450D01*
X63846772Y-37563405D01*
X63827995Y-37608738D01*
X63804864Y-37652011D01*
X63777604Y-37692810D01*
X63746476Y-37730739D01*
X63711779Y-37765436D01*
X63673850Y-37796564D01*
X63633051Y-37823824D01*
X63589778Y-37846955D01*
X63544445Y-37865732D01*
X63497490Y-37879976D01*
X63449365Y-37889548D01*
X63400534Y-37894358D01*
X63376000Y-37894358D01*
X63376000Y-37894960D01*
X62876000Y-37894960D01*
X62876000Y-36394960D01*
X63376000Y-36394960D01*
X63376000Y-36395562D01*
X63376000Y-36395562D01*
G37*
D15*
X62076000Y-37144960D03*
D10*
G36*
X62576000Y-37894960D02*
G01*
X62076000Y-37894960D01*
X62076000Y-37894358D01*
X62051466Y-37894358D01*
X62002635Y-37889548D01*
X61954510Y-37879976D01*
X61907555Y-37865732D01*
X61862222Y-37846955D01*
X61818949Y-37823824D01*
X61778150Y-37796564D01*
X61740221Y-37765436D01*
X61705524Y-37730739D01*
X61674396Y-37692810D01*
X61647136Y-37652011D01*
X61624005Y-37608738D01*
X61605228Y-37563405D01*
X61590984Y-37516450D01*
X61581412Y-37468325D01*
X61576602Y-37419494D01*
X61576602Y-37394960D01*
X61576000Y-37394960D01*
X61576000Y-36894960D01*
X61576602Y-36894960D01*
X61576602Y-36870426D01*
X61581412Y-36821595D01*
X61590984Y-36773470D01*
X61605228Y-36726515D01*
X61624005Y-36681182D01*
X61647136Y-36637909D01*
X61674396Y-36597110D01*
X61705524Y-36559181D01*
X61740221Y-36524484D01*
X61778150Y-36493356D01*
X61818949Y-36466096D01*
X61862222Y-36442965D01*
X61907555Y-36424188D01*
X61954510Y-36409944D01*
X62002635Y-36400372D01*
X62051466Y-36395562D01*
X62076000Y-36395562D01*
X62076000Y-36394960D01*
X62576000Y-36394960D01*
X62576000Y-37894960D01*
X62576000Y-37894960D01*
G37*
D15*
X62076000Y-34096960D03*
D10*
G36*
X62576000Y-34846960D02*
G01*
X62076000Y-34846960D01*
X62076000Y-34846358D01*
X62051466Y-34846358D01*
X62002635Y-34841548D01*
X61954510Y-34831976D01*
X61907555Y-34817732D01*
X61862222Y-34798955D01*
X61818949Y-34775824D01*
X61778150Y-34748564D01*
X61740221Y-34717436D01*
X61705524Y-34682739D01*
X61674396Y-34644810D01*
X61647136Y-34604011D01*
X61624005Y-34560738D01*
X61605228Y-34515405D01*
X61590984Y-34468450D01*
X61581412Y-34420325D01*
X61576602Y-34371494D01*
X61576602Y-34346960D01*
X61576000Y-34346960D01*
X61576000Y-33846960D01*
X61576602Y-33846960D01*
X61576602Y-33822426D01*
X61581412Y-33773595D01*
X61590984Y-33725470D01*
X61605228Y-33678515D01*
X61624005Y-33633182D01*
X61647136Y-33589909D01*
X61674396Y-33549110D01*
X61705524Y-33511181D01*
X61740221Y-33476484D01*
X61778150Y-33445356D01*
X61818949Y-33418096D01*
X61862222Y-33394965D01*
X61907555Y-33376188D01*
X61954510Y-33361944D01*
X62002635Y-33352372D01*
X62051466Y-33347562D01*
X62076000Y-33347562D01*
X62076000Y-33346960D01*
X62576000Y-33346960D01*
X62576000Y-34846960D01*
X62576000Y-34846960D01*
G37*
D15*
X63376000Y-34096960D03*
D10*
G36*
X63376000Y-33347562D02*
G01*
X63400534Y-33347562D01*
X63449365Y-33352372D01*
X63497490Y-33361944D01*
X63544445Y-33376188D01*
X63589778Y-33394965D01*
X63633051Y-33418096D01*
X63673850Y-33445356D01*
X63711779Y-33476484D01*
X63746476Y-33511181D01*
X63777604Y-33549110D01*
X63804864Y-33589909D01*
X63827995Y-33633182D01*
X63846772Y-33678515D01*
X63861016Y-33725470D01*
X63870588Y-33773595D01*
X63875398Y-33822426D01*
X63875398Y-33846960D01*
X63876000Y-33846960D01*
X63876000Y-34346960D01*
X63875398Y-34346960D01*
X63875398Y-34371494D01*
X63870588Y-34420325D01*
X63861016Y-34468450D01*
X63846772Y-34515405D01*
X63827995Y-34560738D01*
X63804864Y-34604011D01*
X63777604Y-34644810D01*
X63746476Y-34682739D01*
X63711779Y-34717436D01*
X63673850Y-34748564D01*
X63633051Y-34775824D01*
X63589778Y-34798955D01*
X63544445Y-34817732D01*
X63497490Y-34831976D01*
X63449365Y-34841548D01*
X63400534Y-34846358D01*
X63376000Y-34846358D01*
X63376000Y-34846960D01*
X62876000Y-34846960D01*
X62876000Y-33346960D01*
X63376000Y-33346960D01*
X63376000Y-33347562D01*
X63376000Y-33347562D01*
G37*
D15*
X63361000Y-43240960D03*
D10*
G36*
X63361000Y-42491562D02*
G01*
X63385534Y-42491562D01*
X63434365Y-42496372D01*
X63482490Y-42505944D01*
X63529445Y-42520188D01*
X63574778Y-42538965D01*
X63618051Y-42562096D01*
X63658850Y-42589356D01*
X63696779Y-42620484D01*
X63731476Y-42655181D01*
X63762604Y-42693110D01*
X63789864Y-42733909D01*
X63812995Y-42777182D01*
X63831772Y-42822515D01*
X63846016Y-42869470D01*
X63855588Y-42917595D01*
X63860398Y-42966426D01*
X63860398Y-42990960D01*
X63861000Y-42990960D01*
X63861000Y-43490960D01*
X63860398Y-43490960D01*
X63860398Y-43515494D01*
X63855588Y-43564325D01*
X63846016Y-43612450D01*
X63831772Y-43659405D01*
X63812995Y-43704738D01*
X63789864Y-43748011D01*
X63762604Y-43788810D01*
X63731476Y-43826739D01*
X63696779Y-43861436D01*
X63658850Y-43892564D01*
X63618051Y-43919824D01*
X63574778Y-43942955D01*
X63529445Y-43961732D01*
X63482490Y-43975976D01*
X63434365Y-43985548D01*
X63385534Y-43990358D01*
X63361000Y-43990358D01*
X63361000Y-43990960D01*
X62861000Y-43990960D01*
X62861000Y-42490960D01*
X63361000Y-42490960D01*
X63361000Y-42491562D01*
X63361000Y-42491562D01*
G37*
D15*
X62061000Y-43240960D03*
D10*
G36*
X62561000Y-43990960D02*
G01*
X62061000Y-43990960D01*
X62061000Y-43990358D01*
X62036466Y-43990358D01*
X61987635Y-43985548D01*
X61939510Y-43975976D01*
X61892555Y-43961732D01*
X61847222Y-43942955D01*
X61803949Y-43919824D01*
X61763150Y-43892564D01*
X61725221Y-43861436D01*
X61690524Y-43826739D01*
X61659396Y-43788810D01*
X61632136Y-43748011D01*
X61609005Y-43704738D01*
X61590228Y-43659405D01*
X61575984Y-43612450D01*
X61566412Y-43564325D01*
X61561602Y-43515494D01*
X61561602Y-43490960D01*
X61561000Y-43490960D01*
X61561000Y-42990960D01*
X61561602Y-42990960D01*
X61561602Y-42966426D01*
X61566412Y-42917595D01*
X61575984Y-42869470D01*
X61590228Y-42822515D01*
X61609005Y-42777182D01*
X61632136Y-42733909D01*
X61659396Y-42693110D01*
X61690524Y-42655181D01*
X61725221Y-42620484D01*
X61763150Y-42589356D01*
X61803949Y-42562096D01*
X61847222Y-42538965D01*
X61892555Y-42520188D01*
X61939510Y-42505944D01*
X61987635Y-42496372D01*
X62036466Y-42491562D01*
X62061000Y-42491562D01*
X62061000Y-42490960D01*
X62561000Y-42490960D01*
X62561000Y-43990960D01*
X62561000Y-43990960D01*
G37*
D15*
X62076000Y-40192960D03*
D10*
G36*
X62576000Y-40942960D02*
G01*
X62076000Y-40942960D01*
X62076000Y-40942358D01*
X62051466Y-40942358D01*
X62002635Y-40937548D01*
X61954510Y-40927976D01*
X61907555Y-40913732D01*
X61862222Y-40894955D01*
X61818949Y-40871824D01*
X61778150Y-40844564D01*
X61740221Y-40813436D01*
X61705524Y-40778739D01*
X61674396Y-40740810D01*
X61647136Y-40700011D01*
X61624005Y-40656738D01*
X61605228Y-40611405D01*
X61590984Y-40564450D01*
X61581412Y-40516325D01*
X61576602Y-40467494D01*
X61576602Y-40442960D01*
X61576000Y-40442960D01*
X61576000Y-39942960D01*
X61576602Y-39942960D01*
X61576602Y-39918426D01*
X61581412Y-39869595D01*
X61590984Y-39821470D01*
X61605228Y-39774515D01*
X61624005Y-39729182D01*
X61647136Y-39685909D01*
X61674396Y-39645110D01*
X61705524Y-39607181D01*
X61740221Y-39572484D01*
X61778150Y-39541356D01*
X61818949Y-39514096D01*
X61862222Y-39490965D01*
X61907555Y-39472188D01*
X61954510Y-39457944D01*
X62002635Y-39448372D01*
X62051466Y-39443562D01*
X62076000Y-39443562D01*
X62076000Y-39442960D01*
X62576000Y-39442960D01*
X62576000Y-40942960D01*
X62576000Y-40942960D01*
G37*
D15*
X63376000Y-40192960D03*
D10*
G36*
X63376000Y-39443562D02*
G01*
X63400534Y-39443562D01*
X63449365Y-39448372D01*
X63497490Y-39457944D01*
X63544445Y-39472188D01*
X63589778Y-39490965D01*
X63633051Y-39514096D01*
X63673850Y-39541356D01*
X63711779Y-39572484D01*
X63746476Y-39607181D01*
X63777604Y-39645110D01*
X63804864Y-39685909D01*
X63827995Y-39729182D01*
X63846772Y-39774515D01*
X63861016Y-39821470D01*
X63870588Y-39869595D01*
X63875398Y-39918426D01*
X63875398Y-39942960D01*
X63876000Y-39942960D01*
X63876000Y-40442960D01*
X63875398Y-40442960D01*
X63875398Y-40467494D01*
X63870588Y-40516325D01*
X63861016Y-40564450D01*
X63846772Y-40611405D01*
X63827995Y-40656738D01*
X63804864Y-40700011D01*
X63777604Y-40740810D01*
X63746476Y-40778739D01*
X63711779Y-40813436D01*
X63673850Y-40844564D01*
X63633051Y-40871824D01*
X63589778Y-40894955D01*
X63544445Y-40913732D01*
X63497490Y-40927976D01*
X63449365Y-40937548D01*
X63400534Y-40942358D01*
X63376000Y-40942358D01*
X63376000Y-40942960D01*
X62876000Y-40942960D01*
X62876000Y-39442960D01*
X63376000Y-39442960D01*
X63376000Y-39443562D01*
X63376000Y-39443562D01*
G37*
D13*
X67600800Y-33054001D03*
D14*
X67600800Y-35594001D03*
X67600800Y-38134001D03*
X67600800Y-40674001D03*
X67600800Y-43214001D03*
X67600800Y-45754001D03*
D16*
X29556000Y-53146960D03*
X29556000Y-48646960D03*
X36056000Y-53146960D03*
X36056000Y-48646960D03*
X51804000Y-48646960D03*
X51804000Y-53146960D03*
X45304000Y-48646960D03*
X45304000Y-53146960D03*
X67552000Y-48646960D03*
X67552000Y-53146960D03*
X61052000Y-48646960D03*
X61052000Y-53146960D03*
X79617000Y-43390960D03*
X75117000Y-43390960D03*
X79617000Y-36890960D03*
X75117000Y-36890960D03*
D13*
X24372000Y-47050960D03*
D14*
X26912000Y-47050960D03*
D12*
X18657000Y-33207960D03*
X18657000Y-35747960D03*
X18657000Y-38287960D03*
X18657000Y-40827960D03*
X18657000Y-43367960D03*
D11*
X18657000Y-45907960D03*
D14*
X24372000Y-29270960D03*
X24372000Y-26730960D03*
X26912000Y-29270960D03*
X26912000Y-26730960D03*
X29452000Y-29270960D03*
X29452000Y-26730960D03*
X31992000Y-29270960D03*
X31992000Y-26730960D03*
X34532000Y-29270960D03*
X34532000Y-26730960D03*
X37072000Y-29270960D03*
X37072000Y-26730960D03*
X39612000Y-29270960D03*
X39612000Y-26730960D03*
X42152000Y-29270960D03*
X42152000Y-26730960D03*
X44692000Y-29270960D03*
X44692000Y-26730960D03*
X47232000Y-29270960D03*
X47232000Y-26730960D03*
X49772000Y-29270960D03*
X49772000Y-26730960D03*
X52312000Y-29270960D03*
X52312000Y-26730960D03*
X54852000Y-29270960D03*
X54852000Y-26730960D03*
X57392000Y-29270960D03*
X57392000Y-26730960D03*
X59932000Y-29270960D03*
X59932000Y-26730960D03*
X62472000Y-29270960D03*
X62472000Y-26730960D03*
X65012000Y-29270960D03*
X65012000Y-26730960D03*
X67552000Y-29270960D03*
X67552000Y-26730960D03*
X70092000Y-29270960D03*
X70092000Y-26730960D03*
X72632000Y-29270960D03*
X72632000Y-26730960D03*
D13*
X70092000Y-31810960D03*
D14*
X72632000Y-31810960D03*
D17*
X24349000Y-49570960D03*
D18*
X24349000Y-52220960D03*
X72759000Y-52220960D03*
D17*
X72759000Y-49570960D03*
D19*
X51829400Y-31556960D03*
X47562200Y-31556960D03*
X47552000Y-35200960D03*
X42752000Y-43600960D03*
X42761600Y-37856160D03*
X56549784Y-45408644D03*
X55017100Y-42542462D03*
X54674200Y-50695860D03*
D20*
X27420000Y-32572960D03*
X31407806Y-32522160D03*
X33516000Y-32699960D03*
X35878200Y-43418760D03*
X35903600Y-37856162D03*
X35372819Y-32535900D03*
X43422000Y-25410160D03*
X75291500Y-34251900D03*
X66028000Y-33766760D03*
X65774000Y-38160960D03*
X45255497Y-32610030D03*
X69939562Y-36357560D03*
X56731600Y-44256960D03*
X43396600Y-49324260D03*
X70556866Y-33644611D03*
X58941400Y-38033960D03*
X48357780Y-46614640D03*
X57392000Y-33309560D03*
X53074000Y-39430960D03*
X60539060Y-43238420D03*
X60818460Y-46421040D03*
X76873800Y-44460160D03*
D19*
X52426300Y-46123860D03*
X28283600Y-45780960D03*
X29231020Y-45780960D03*
D20*
X71351968Y-34681555D03*
X28842400Y-34096960D03*
X35827400Y-33919160D03*
X34712545Y-40731430D03*
X33363600Y-40700960D03*
X35116212Y-42783760D03*
X42301606Y-47289011D03*
X31219840Y-49303940D03*
X31202060Y-48011960D03*
X43781125Y-46204250D03*
X43364149Y-48321140D03*
X29482480Y-44526200D03*
X48156560Y-49194720D03*
X53074000Y-35366960D03*
X41715729Y-32369781D03*
X64732600Y-34935160D03*
X54979000Y-34731960D03*
X53054715Y-36238955D03*
X65621612Y-42758360D03*
X44480526Y-32228921D03*
X64996760Y-44162980D03*
X43051160Y-32412940D03*
X61268040Y-45018960D03*
D21*
X67600800Y-32850360D02*
X67600800Y-33054001D01*
D22*
X44692000Y-29270960D02*
X44692000Y-31048960D01*
X45200000Y-31556960D02*
X47562200Y-31556960D01*
X47562200Y-31556960D02*
X51829400Y-31556960D01*
X44692000Y-31048960D02*
X45200000Y-31556960D01*
D21*
X43802000Y-38950960D02*
X42752000Y-38950960D01*
X47552000Y-35200960D02*
X43802000Y-38950960D01*
X42752000Y-38950960D02*
X42752000Y-43600960D01*
X42752000Y-38950960D02*
X42752000Y-37865760D01*
X42752000Y-37865760D02*
X42761600Y-37856160D01*
D22*
X66103759Y-31556960D02*
X67600800Y-33054001D01*
X51829400Y-31556960D02*
X66103759Y-31556960D01*
X44692000Y-31048960D02*
X44691978Y-31048938D01*
X44691978Y-31048938D02*
X35540908Y-31048938D01*
X35540908Y-31048938D02*
X35032886Y-31556960D01*
X25046000Y-31556960D02*
X24372000Y-30882960D01*
X35032886Y-31556960D02*
X25046000Y-31556960D01*
X24372000Y-30882960D02*
X24372000Y-29270960D01*
D21*
X54445602Y-43113960D02*
X54636101Y-42923461D01*
X50280000Y-43113960D02*
X54445602Y-43113960D01*
X54636101Y-42923461D02*
X55017100Y-42542462D01*
X54674200Y-50157045D02*
X54674200Y-50695860D01*
X54674200Y-47284228D02*
X54674200Y-50157045D01*
X56549784Y-45408644D02*
X54674200Y-47284228D01*
D23*
X27420000Y-32572960D02*
X31357006Y-32572960D01*
X31357006Y-32572960D02*
X31407806Y-32522160D01*
X35878200Y-43418760D02*
X35878200Y-37881562D01*
X35878200Y-37881562D02*
X35903600Y-37856162D01*
X35208759Y-32699960D02*
X35372819Y-32535900D01*
X33516000Y-32699960D02*
X35208759Y-32699960D01*
X74961301Y-33921701D02*
X75291500Y-34251900D01*
X73975781Y-26068141D02*
X73975781Y-32936181D01*
X73975781Y-32936181D02*
X74961301Y-33921701D01*
X73317800Y-25410160D02*
X73975781Y-26068141D01*
X43422000Y-25410160D02*
X73317800Y-25410160D01*
X65443801Y-38491159D02*
X65774000Y-38160960D01*
X61024200Y-40192960D02*
X60592400Y-39761160D01*
X62076000Y-40192960D02*
X61024200Y-40192960D01*
X60592400Y-39761160D02*
X60592400Y-39049960D01*
X60592400Y-39049960D02*
X60973400Y-38668960D01*
X60973400Y-38668960D02*
X65266000Y-38668960D01*
X65266000Y-38668960D02*
X65443801Y-38491159D01*
X66028000Y-33766760D02*
X64541071Y-32279831D01*
X64541071Y-32279831D02*
X45585696Y-32279831D01*
X45585696Y-32279831D02*
X45255497Y-32610030D01*
X67552000Y-29270960D02*
X68923602Y-30642562D01*
X68923602Y-30642562D02*
X68923602Y-35341600D01*
X69609363Y-36027361D02*
X69939562Y-36357560D01*
X68923602Y-35341600D02*
X69609363Y-36027361D01*
X66938980Y-48033940D02*
X67552000Y-48646960D01*
X61052000Y-48646960D02*
X61665020Y-48033940D01*
X61665020Y-48033940D02*
X66938980Y-48033940D01*
X35603000Y-48193960D02*
X36056000Y-48646960D01*
X29556000Y-48646960D02*
X30009000Y-48193960D01*
X45327000Y-47177960D02*
X44924589Y-47177960D01*
X43726799Y-48994061D02*
X43396600Y-49324260D01*
X45327000Y-47177960D02*
X44841894Y-47177960D01*
X44841894Y-47177960D02*
X43999199Y-48020655D01*
X43999199Y-48020655D02*
X43999199Y-48721661D01*
X43999199Y-48721661D02*
X43726799Y-48994061D01*
X29556000Y-48646960D02*
X36056000Y-48646960D01*
X55055200Y-44256960D02*
X56731600Y-44256960D01*
X52416850Y-44256960D02*
X55055200Y-44256960D01*
X51248441Y-45425369D02*
X52416850Y-44256960D01*
X50356190Y-45425370D02*
X51248441Y-45425369D01*
X45962000Y-47177960D02*
X46637629Y-47853589D01*
X45327000Y-47177960D02*
X45962000Y-47177960D01*
X46637629Y-47853589D02*
X48016871Y-47853589D01*
X48016871Y-47853589D02*
X50305400Y-45565060D01*
X50305400Y-45565060D02*
X50305400Y-45476160D01*
X50305400Y-45476160D02*
X50356190Y-45425370D01*
X45304000Y-48678960D02*
X45722960Y-48260000D01*
X51417040Y-48260000D02*
X51804000Y-48646960D01*
X45722960Y-48260000D02*
X51417040Y-48260000D01*
X45304000Y-48646960D02*
X45304000Y-48678960D01*
X71290319Y-30469279D02*
X71290319Y-32911158D01*
X70887065Y-33314412D02*
X70556866Y-33644611D01*
X71290319Y-32911158D02*
X70887065Y-33314412D01*
X70092000Y-29270960D02*
X71290319Y-30469279D01*
X62076000Y-37144960D02*
X59830400Y-37144960D01*
X59830400Y-37144960D02*
X58941400Y-38033960D01*
X75117000Y-36890960D02*
X75117000Y-43390960D01*
X70092000Y-32246960D02*
X70092000Y-31810960D01*
X73702787Y-36890960D02*
X75117000Y-36890960D01*
X70092000Y-31810960D02*
X70092000Y-32864160D01*
X71997000Y-36890960D02*
X73702787Y-36890960D01*
X69921865Y-34815825D02*
X71997000Y-36890960D01*
X69921865Y-33034295D02*
X69921865Y-34815825D01*
X70092000Y-32864160D02*
X69921865Y-33034295D01*
X79617000Y-36890960D02*
X79617000Y-43390960D01*
X78617001Y-35890961D02*
X79617000Y-36890960D01*
X77635802Y-34909762D02*
X78617001Y-35890961D01*
X74237398Y-34909762D02*
X77635802Y-34909762D01*
X72632000Y-31810960D02*
X72632000Y-33304364D01*
X72632000Y-33304364D02*
X74237398Y-34909762D01*
X55233003Y-43469557D02*
X56553797Y-43469557D01*
X54940900Y-43761660D02*
X55233003Y-43469557D01*
X56553797Y-43469557D02*
X56198199Y-43469557D01*
X48357780Y-46614640D02*
X49953460Y-45018960D01*
X49953460Y-45018960D02*
X51080100Y-45018960D01*
X51080100Y-45018960D02*
X52337400Y-43761660D01*
X52337400Y-43761660D02*
X54940900Y-43761660D01*
X61130882Y-47056042D02*
X61135964Y-47050960D01*
X60508584Y-47056042D02*
X61130882Y-47056042D01*
X56553797Y-43469557D02*
X56922099Y-43469557D01*
X56922099Y-43469557D02*
X60508584Y-47056042D01*
X70244082Y-47056042D02*
X72759000Y-49570960D01*
X61130882Y-47056042D02*
X70244082Y-47056042D01*
X57392000Y-33309560D02*
X58890600Y-33309560D01*
X60059000Y-33309560D02*
X60617800Y-32750760D01*
X58890600Y-33309560D02*
X60059000Y-33309560D01*
X60617800Y-32750760D02*
X64072198Y-32750760D01*
X64072198Y-32750760D02*
X65760638Y-34439200D01*
X65760638Y-34439200D02*
X65760638Y-35683798D01*
X65760638Y-35683798D02*
X66967800Y-36890960D01*
X68847400Y-36890960D02*
X70092000Y-38135560D01*
X66967800Y-36890960D02*
X68847400Y-36890960D01*
X60821000Y-34096960D02*
X62076000Y-34096960D01*
X58890600Y-33309560D02*
X60033600Y-33309560D01*
X60033600Y-33309560D02*
X60821000Y-34096960D01*
X60953000Y-43240960D02*
X62061000Y-43240960D01*
X60338400Y-43240960D02*
X60953000Y-43240960D01*
X60338400Y-43240960D02*
X60536520Y-43240960D01*
X60536520Y-43240960D02*
X60539060Y-43238420D01*
X59520520Y-43240960D02*
X60338400Y-43240960D01*
X55710520Y-39430960D02*
X59520520Y-43240960D01*
X53074000Y-39430960D02*
X55710520Y-39430960D01*
X68822000Y-41945560D02*
X68822000Y-44282360D01*
X68822000Y-44282360D02*
X68593400Y-44510960D01*
X64410730Y-46421040D02*
X61285433Y-46421040D01*
X61285433Y-46421040D02*
X60818460Y-46421040D01*
X68593400Y-44510960D02*
X66320810Y-44510960D01*
X66320810Y-44510960D02*
X64410730Y-46421040D01*
X70092000Y-40675560D02*
X68822000Y-41945560D01*
D21*
X65012000Y-26730960D02*
X66282000Y-28000960D01*
X71362000Y-28000960D02*
X72632000Y-29270960D01*
X66282000Y-28000960D02*
X71362000Y-28000960D01*
X59932000Y-26730960D02*
X61202000Y-28000960D01*
X63742000Y-28000960D02*
X65012000Y-26730960D01*
X61202000Y-28000960D02*
X63742000Y-28000960D01*
X54852000Y-29270960D02*
X56122000Y-28000960D01*
X58662000Y-28000960D02*
X59932000Y-26730960D01*
X56122000Y-28000960D02*
X58662000Y-28000960D01*
X54852000Y-29270960D02*
X53582000Y-28000960D01*
X48502000Y-28000960D02*
X47232000Y-26730960D01*
X53582000Y-28000960D02*
X48502000Y-28000960D01*
X34532000Y-29270960D02*
X33262000Y-28000960D01*
X30722000Y-28000960D02*
X29452000Y-26730960D01*
X33262000Y-28000960D02*
X30722000Y-28000960D01*
X34532000Y-29270960D02*
X34532000Y-29016960D01*
X39612000Y-26730960D02*
X38342000Y-28000960D01*
X35802000Y-28000960D02*
X34532000Y-29270960D01*
X38342000Y-28000960D02*
X35802000Y-28000960D01*
X39612000Y-26730960D02*
X40882000Y-28000960D01*
X40882000Y-28000960D02*
X45962000Y-28000960D01*
X45962000Y-28000960D02*
X47232000Y-26730960D01*
D23*
X76873800Y-44460160D02*
X76873800Y-43266360D01*
X76873800Y-43901360D02*
X76873800Y-43266360D01*
D24*
X35827388Y-53375572D02*
X36056000Y-53146960D01*
D25*
X29556000Y-53146960D02*
X36056000Y-53146960D01*
X53721700Y-53146960D02*
X67552000Y-53146960D01*
D21*
X52426300Y-46123860D02*
X53594700Y-47292260D01*
X53594700Y-52854860D02*
X53302600Y-53146960D01*
X53594700Y-47292260D02*
X53594700Y-52854860D01*
D25*
X36056000Y-53146960D02*
X53302600Y-53146960D01*
X53302600Y-53146960D02*
X53721700Y-53146960D01*
D23*
X18504600Y-46415960D02*
X18403000Y-46415960D01*
D21*
X18657000Y-45907960D02*
X21578000Y-45907960D01*
X22975000Y-45907960D02*
X24372000Y-44510960D01*
X21578000Y-45907960D02*
X22975000Y-45907960D01*
X24600600Y-44739560D02*
X24372000Y-44510960D01*
D24*
X28283600Y-45780960D02*
X29231020Y-45780960D01*
D21*
X26320180Y-45780960D02*
X28283600Y-45780960D01*
X24372000Y-44510960D02*
X25050180Y-44510960D01*
X25050180Y-44510960D02*
X26320180Y-45780960D01*
D23*
X75977180Y-38260020D02*
X76685840Y-37551360D01*
X76685840Y-37551360D02*
X76685840Y-36405820D01*
X76685840Y-36405820D02*
X75857799Y-35577779D01*
X75857799Y-35577779D02*
X72248192Y-35577779D01*
X71682167Y-35011754D02*
X71351968Y-34681555D01*
X72248192Y-35577779D02*
X71682167Y-35011754D01*
X75977180Y-42369740D02*
X75977180Y-38260020D01*
X76873800Y-43266360D02*
X75977180Y-42369740D01*
X30772800Y-36027360D02*
X33719200Y-36027360D01*
X28842400Y-34096960D02*
X30772800Y-36027360D01*
X35497201Y-34249359D02*
X35827400Y-33919160D01*
X33719200Y-36027360D02*
X35497201Y-34249359D01*
X29602075Y-35620960D02*
X34382346Y-40401231D01*
X34382346Y-40401231D02*
X34712545Y-40731430D01*
X25642000Y-35620960D02*
X29602075Y-35620960D01*
X24372000Y-34350960D02*
X25642000Y-35620960D01*
X23229000Y-33207960D02*
X21578000Y-33207960D01*
X24372000Y-34350960D02*
X23229000Y-33207960D01*
X25642000Y-38160960D02*
X24372000Y-36890960D01*
X33363600Y-40700960D02*
X30823600Y-38160960D01*
X30823600Y-38160960D02*
X25642000Y-38160960D01*
X23229000Y-35747960D02*
X21578000Y-35747960D01*
X24372000Y-36890960D02*
X23229000Y-35747960D01*
X25642000Y-40700960D02*
X24372000Y-39430960D01*
X32160027Y-40700960D02*
X25642000Y-40700960D01*
X35116212Y-42783760D02*
X34242827Y-42783760D01*
X34242827Y-42783760D02*
X32160027Y-40700960D01*
X23229000Y-38287960D02*
X21578000Y-38287960D01*
X24372000Y-39430960D02*
X23229000Y-38287960D01*
X42301606Y-47755984D02*
X42301606Y-47289011D01*
X41847200Y-48210390D02*
X42301606Y-47755984D01*
X41847200Y-49756060D02*
X41847200Y-48210390D01*
X31585610Y-49286150D02*
X33985890Y-49286150D01*
X33985890Y-49286150D02*
X35052700Y-50352960D01*
X35052700Y-50352960D02*
X41250300Y-50352960D01*
X41250300Y-50352960D02*
X41847200Y-49756060D01*
X23229000Y-40827960D02*
X21578000Y-40827960D01*
X24372000Y-41970960D02*
X23229000Y-40827960D01*
X31585610Y-49286150D02*
X31237630Y-49286150D01*
X31237630Y-49286150D02*
X31219840Y-49303940D01*
X25642000Y-43240960D02*
X25221999Y-42820959D01*
X31202060Y-48011960D02*
X31202060Y-44530567D01*
X31202060Y-44530567D02*
X29912453Y-43240960D01*
X25221999Y-42820959D02*
X24372000Y-41970960D01*
X29912453Y-43240960D02*
X25642000Y-43240960D01*
X43781125Y-46746827D02*
X43781125Y-46671223D01*
X43781125Y-46671223D02*
X43781125Y-46204250D01*
X30490871Y-44422069D02*
X29729763Y-43660961D01*
X30490871Y-46815440D02*
X30490871Y-44422069D01*
X30057231Y-47249080D02*
X30490871Y-46815440D01*
X28143900Y-49740716D02*
X28143900Y-48127954D01*
X31801499Y-49692561D02*
X31135890Y-50358170D01*
X33744601Y-49692561D02*
X31801499Y-49692561D01*
X28143900Y-48127954D02*
X29022774Y-47249080D01*
X34811411Y-50759371D02*
X33744601Y-49692561D01*
X41418640Y-50759371D02*
X34811411Y-50759371D01*
X43781125Y-46851215D02*
X42253611Y-48378729D01*
X28761354Y-50358170D02*
X28143900Y-49740716D01*
X43781125Y-46671223D02*
X43781125Y-46851215D01*
X29022774Y-47249080D02*
X30057231Y-47249080D01*
X42253611Y-48378729D02*
X42253611Y-49924400D01*
X29729763Y-43660961D02*
X27761999Y-43660961D01*
X27761999Y-43660961D02*
X26912000Y-44510960D01*
X42253611Y-49924400D02*
X41418640Y-50759371D01*
X31135890Y-50358170D02*
X28761354Y-50358170D01*
X42660022Y-49025267D02*
X42660022Y-50092740D01*
X27737489Y-47959614D02*
X28854434Y-46842669D01*
X28854434Y-46842669D02*
X29833011Y-46842669D01*
X29833011Y-46842669D02*
X30084460Y-46591220D01*
X30084460Y-46591220D02*
X30084460Y-45128180D01*
X29812679Y-44856399D02*
X29482480Y-44526200D01*
X30084460Y-45128180D02*
X29812679Y-44856399D01*
X27737489Y-50190389D02*
X27737489Y-47959614D01*
X28692540Y-51145440D02*
X27737489Y-50190389D01*
X30400130Y-51145440D02*
X28692540Y-51145440D01*
X31334850Y-52080160D02*
X30400130Y-51145440D01*
X34071550Y-52080160D02*
X31334850Y-52080160D01*
X34985928Y-51165782D02*
X34071550Y-52080160D01*
X41586980Y-51165782D02*
X34985928Y-51165782D01*
X42660022Y-50092740D02*
X41586980Y-51165782D01*
X43364149Y-48321140D02*
X42660022Y-49025267D01*
X47826361Y-49524919D02*
X48156560Y-49194720D01*
X35154268Y-51572193D02*
X45779087Y-51572193D01*
X31166510Y-52486571D02*
X34239890Y-52486571D01*
X45779087Y-51572193D02*
X47826361Y-49524919D01*
X30236860Y-51556920D02*
X31166510Y-52486571D01*
X34239890Y-52486571D02*
X35154268Y-51572193D01*
X25224730Y-48252380D02*
X28529270Y-51556920D01*
X28529270Y-51556920D02*
X28735840Y-51556920D01*
X28735840Y-51556920D02*
X30236860Y-51556920D01*
X22459500Y-48252380D02*
X25224730Y-48252380D01*
X21509540Y-47302420D02*
X22459500Y-48252380D01*
X18657000Y-33207960D02*
X17153320Y-34711640D01*
X17153320Y-34711640D02*
X17153320Y-46883320D01*
X17153320Y-46883320D02*
X17572420Y-47302420D01*
X17572420Y-47302420D02*
X21509540Y-47302420D01*
X64885000Y-36636960D02*
X64377000Y-37144960D01*
X64377000Y-37144960D02*
X63376000Y-37144960D01*
X66103759Y-36636960D02*
X67600800Y-38134001D01*
X64885000Y-36636960D02*
X66103759Y-36636960D01*
X64885000Y-36357560D02*
X64885000Y-36636960D01*
X64351600Y-35824160D02*
X64885000Y-36357560D01*
X54547200Y-35824160D02*
X64351600Y-35824160D01*
X53074000Y-35366960D02*
X54090000Y-35366960D01*
X54090000Y-35366960D02*
X54547200Y-35824160D01*
X66282001Y-41992800D02*
X67600800Y-40674001D01*
X64504000Y-40192960D02*
X63376000Y-40192960D01*
X66282001Y-41992800D02*
X66282001Y-41970961D01*
X66282001Y-41970961D02*
X64504000Y-40192960D01*
X43531819Y-34185871D02*
X42045928Y-32699980D01*
X42045928Y-32699980D02*
X41715729Y-32369781D01*
X66282001Y-41992800D02*
X66282001Y-43975019D01*
X64547178Y-45709842D02*
X59737135Y-45709842D01*
X50848261Y-34185871D02*
X43531819Y-34185871D01*
X59737135Y-45709842D02*
X55502952Y-41475659D01*
X66282001Y-43975019D02*
X64547178Y-45709842D01*
X55502952Y-41475659D02*
X52557668Y-41475659D01*
X52557668Y-41475659D02*
X51364569Y-40282560D01*
X51364569Y-40282560D02*
X51364569Y-34702179D01*
X51364569Y-34702179D02*
X50848261Y-34185871D01*
X64642990Y-35024770D02*
X64732600Y-34935160D01*
X64300800Y-35366960D02*
X64732600Y-34935160D01*
X56080973Y-35366960D02*
X64300800Y-35366960D01*
X54979000Y-34731960D02*
X55445973Y-34731960D01*
X55445973Y-34731960D02*
X56080973Y-35366960D01*
X64300800Y-34096960D02*
X63376000Y-34096960D01*
X64834200Y-34630360D02*
X64300800Y-34096960D01*
X64732600Y-34935160D02*
X64834200Y-34833560D01*
X64834200Y-34833560D02*
X64834200Y-34630360D01*
X63361000Y-43240960D02*
X65139012Y-43240960D01*
X65291413Y-43088559D02*
X65621612Y-42758360D01*
X65139012Y-43240960D02*
X65291413Y-43088559D01*
X55840309Y-39024549D02*
X55878860Y-39024549D01*
X64580212Y-41716960D02*
X65291413Y-42428161D01*
X53054715Y-36238955D02*
X55840309Y-39024549D01*
X58571270Y-41716960D02*
X64580212Y-41716960D01*
X65291413Y-42428161D02*
X65621612Y-42758360D01*
X55878860Y-39024549D02*
X58571270Y-41716960D01*
X44480526Y-32228921D02*
X44480526Y-32774861D01*
X44480526Y-32774861D02*
X45078715Y-33373050D01*
X60000580Y-44295770D02*
X64863970Y-44295770D01*
X56079520Y-40622210D02*
X52853720Y-40622210D01*
X52853720Y-40622210D02*
X52177390Y-39945880D01*
X64863970Y-44295770D02*
X64996760Y-44162980D01*
X52177390Y-39945880D02*
X52177389Y-34365499D01*
X52177389Y-34365499D02*
X51184940Y-33373050D01*
X60000580Y-44295770D02*
X56327020Y-40622210D01*
X56327020Y-40622210D02*
X52853720Y-40622210D01*
X45078715Y-33373050D02*
X51184941Y-33373051D01*
X60801067Y-45018960D02*
X61268040Y-45018960D01*
X59901520Y-45018960D02*
X60801067Y-45018960D01*
X55911180Y-41028620D02*
X59901520Y-45018960D01*
X52685380Y-41028620D02*
X55911180Y-41028620D01*
X43051160Y-32412940D02*
X44417680Y-33779460D01*
X44417680Y-33779460D02*
X51016600Y-33779460D01*
X51016600Y-33779460D02*
X51770980Y-34533840D01*
X51770980Y-40114220D02*
X52685380Y-41028620D01*
X51770980Y-34533840D02*
X51770980Y-40114220D01*
D26*
G36*
X50475000Y-43873960D02*
G01*
X41429000Y-43873960D01*
X41429000Y-34927960D01*
X50475000Y-34927960D01*
X50475000Y-43873960D01*
X50475000Y-43873960D01*
G37*
X50475000Y-43873960D02*
X41429000Y-43873960D01*
X41429000Y-34927960D01*
X50475000Y-34927960D01*
X50475000Y-43873960D01*
M02*
