M48
; DRILL file {KiCad (5.1.4)-1} date 01/03/2020 01:22:26
; FORMAT={-:-/ absolute / inch / decimal}
; #@! TF.CreationDate,2020-03-01T01:22:26+00:00
; #@! TF.GenerationSoftware,Kicad,Pcbnew,(5.1.4)-1
FMAT,2
INCH
T1C0.0120
T2C0.0150
T3C0.0315
T4C0.0354
T5C0.0394
T6C0.0433
T7C0.1083
%
G90
G05
T1
X1.0795Y-1.2824
X1.1355Y-1.3424
X1.1607Y-1.753
X1.2284Y-1.8902
X1.2291Y-1.9411
X1.2365Y-1.2804
X1.3135Y-1.6024
X1.3195Y-1.2874
X1.3666Y-1.6036
X1.3825Y-1.6844
X1.3926Y-1.2809
X1.4105Y-1.3354
X1.4125Y-1.7094
X1.4135Y-1.4904
X1.6424Y-1.2744
X1.6654Y-1.8618
X1.6949Y-1.2761
X1.7072Y-1.9024
X1.7085Y-1.9419
X1.7095Y-1.0004
X1.7237Y-1.8191
X1.7512Y-1.2689
X1.7817Y-1.2839
X1.8959Y-1.9368
X1.9038Y-1.8352
X2.0888Y-1.4267
X2.0895Y-1.3924
X2.0895Y-1.5524
X2.1645Y-1.3674
X2.2335Y-1.7424
X2.2595Y-1.3114
X2.3205Y-1.4974
X2.3834Y-1.7023
X2.3944Y-1.8276
X2.4121Y-1.7724
X2.5485Y-1.3754
X2.5589Y-1.7387
X2.5835Y-1.6834
X2.5895Y-1.5024
X2.5995Y-1.3294
X2.7535Y-1.4314
X2.7778Y-1.3246
X2.8091Y-1.3654
X2.9642Y-1.3485
X3.0265Y-1.7504
T2
X1.1135Y-1.8024
X1.1508Y-1.8024
X1.6831Y-1.7166
X1.6835Y-1.4904
X1.8721Y-1.3859
X1.8725Y-1.2424
X2.0405Y-1.2424
X2.064Y-1.8159
X2.1525Y-1.9959
X2.166Y-1.6749
X2.2264Y-1.7877
T3
X0.7345Y-1.3074
X0.7345Y-1.4074
X0.7345Y-1.5074
X0.7345Y-1.6074
X0.7345Y-1.7074
X0.7345Y-1.8074
X0.8495Y-1.3074
X0.8495Y-1.4074
X0.8495Y-1.5074
X0.8495Y-1.6074
X0.8495Y-1.7074
X0.8495Y-1.8074
T4
X2.7595Y-1.2524
X2.8595Y-1.2524
X2.8645Y-1.9516
X2.8645Y-2.0559
X0.9595Y-1.0524
X0.9595Y-1.1524
X1.0595Y-1.0524
X1.0595Y-1.1524
X1.1595Y-1.0524
X1.1595Y-1.1524
X1.2595Y-1.0524
X1.2595Y-1.1524
X1.3595Y-1.0524
X1.3595Y-1.1524
X1.4595Y-1.0524
X1.4595Y-1.1524
X1.5595Y-1.0524
X1.5595Y-1.1524
X1.6595Y-1.0524
X1.6595Y-1.1524
X1.7595Y-1.0524
X1.7595Y-1.1524
X1.8595Y-1.0524
X1.8595Y-1.1524
X1.9595Y-1.0524
X1.9595Y-1.1524
X2.0595Y-1.0524
X2.0595Y-1.1524
X2.1595Y-1.0524
X2.1595Y-1.1524
X2.2595Y-1.0524
X2.2595Y-1.1524
X2.3595Y-1.0524
X2.3595Y-1.1524
X2.4595Y-1.0524
X2.4595Y-1.1524
X2.5595Y-1.0524
X2.5595Y-1.1524
X2.6595Y-1.0524
X2.6595Y-1.1524
X2.7595Y-1.0524
X2.7595Y-1.1524
X2.8595Y-1.0524
X2.8595Y-1.1524
X0.9586Y-1.9516
X0.9586Y-2.0559
T5
X0.9595Y-1.8524
X1.0595Y-1.8524
X0.9595Y-1.3524
X0.9595Y-1.4524
X0.9595Y-1.5524
X0.9595Y-1.6524
X0.9595Y-1.7524
X1.0595Y-1.3524
X1.0595Y-1.4524
X1.0595Y-1.5524
X1.0595Y-1.6524
X1.0595Y-1.7524
X2.6614Y-1.3013
X2.6614Y-1.4013
X2.6614Y-1.5013
X2.6614Y-1.6013
X2.6614Y-1.7013
X2.6614Y-1.8013
X2.7595Y-1.5014
X2.7595Y-1.6014
X2.7595Y-1.7014
X2.7595Y-1.8014
T6
X2.4036Y-1.9152
X2.4036Y-2.0924
X2.6595Y-1.9152
X2.6595Y-2.0924
X1.7836Y-1.9152
X1.7836Y-2.0924
X2.0395Y-1.9152
X2.0395Y-2.0924
X1.1636Y-1.9152
X1.1636Y-2.0924
X1.4195Y-1.9152
X1.4195Y-2.0924
X2.9574Y-1.4524
X2.9574Y-1.7083
X3.1345Y-1.4524
X3.1345Y-1.7083
T7
X0.7677Y-1.1024
X0.7677Y-2.0079
X3.0512Y-2.0079
X3.0512Y-1.1024
T0
M30
