M48
; DRILL file {KiCad (5.1.4)-1} date 21/11/2019 02:33:47
; FORMAT={-:-/ absolute / inch / decimal}
; #@! TF.CreationDate,2019-11-21T02:33:47+00:00
; #@! TF.GenerationSoftware,Kicad,Pcbnew,(5.1.4)-1
FMAT,2
INCH
T1C0.0120
T2C0.0150
T3C0.0197
T4C0.0394
%
G90
G05
T1
X1.5087Y-1.8654
X1.6457Y-1.9894
X1.6704Y-1.4297
X1.6777Y-1.3684
X1.8047Y-1.5704
X1.8057Y-1.7084
X1.8527Y-1.7074
X1.8577Y-1.5694
X1.8617Y-1.5164
X1.9017Y-1.7304
X1.9707Y-1.7459
X2.0277Y-1.7774
X2.1297Y-1.7974
X2.1746Y-1.8002
X2.2009Y-1.5522
X2.3443Y-1.482
X2.3992Y-1.579
X2.5157Y-1.7344
X2.7227Y-1.8654
X2.8977Y-1.7454
T2
X1.1887Y-1.3595
X1.3527Y-1.4884
X1.4647Y-1.9804
X1.5127Y-2.0404
X1.5372Y-1.9499
X1.6897Y-2.0019
X1.6963Y-2.0472
X1.705Y-1.7597
X1.7207Y-1.8369
X1.7911Y-1.7439
X1.8187Y-1.4554
X2.0047Y-1.4524
X2.0057Y-1.3054
X2.0287Y-1.6154
X2.0297Y-1.5454
X2.1497Y-1.8364
X2.1617Y-1.8934
X2.1957Y-1.5064
X2.3496Y-1.5347
X2.3787Y-1.7834
X2.3903Y-1.4093
X2.3957Y-1.8344
X2.5343Y-1.4889
X2.5607Y-1.3974
X2.6767Y-1.9184
X2.7187Y-1.4244
X2.8187Y-1.8754
X2.9047Y-1.4374
T3
X2.8337Y-1.5055
X2.8337Y-1.5548
X2.8337Y-1.604
X2.8337Y-1.6532
X2.8337Y-1.7024
T4
X2.9937Y-1.8234
X1.4887Y-1.3534
X1.4887Y-1.4534
X1.4887Y-1.5534
X1.4887Y-1.6534
X1.4887Y-1.7534
X1.5887Y-1.3534
X1.5887Y-1.4534
X1.5887Y-1.5534
X1.5887Y-1.6534
X1.5887Y-1.7534
X2.6227Y-1.5004
X2.6227Y-1.6004
X2.6227Y-1.7004
X2.6227Y-1.8004
X2.9497Y-1.5544
X2.9497Y-1.6544
X2.9937Y-1.3854
T0
M30
