G04 #@! TF.GenerationSoftware,KiCad,Pcbnew,5.1.9-1.fc33*
G04 #@! TF.CreationDate,2021-01-31T23:40:47+01:00*
G04 #@! TF.ProjectId,videocard,76696465-6f63-4617-9264-2e6b69636164,rev?*
G04 #@! TF.SameCoordinates,Original*
G04 #@! TF.FileFunction,Soldermask,Bot*
G04 #@! TF.FilePolarity,Negative*
%FSLAX46Y46*%
G04 Gerber Fmt 4.6, Leading zero omitted, Abs format (unit mm)*
G04 Created by KiCad (PCBNEW 5.1.9-1.fc33) date 2021-01-31 23:40:47*
%MOMM*%
%LPD*%
G01*
G04 APERTURE LIST*
%ADD10C,0.100000*%
%ADD11R,1.780000X7.620000*%
%ADD12O,1.700000X1.700000*%
%ADD13R,1.700000X1.700000*%
%ADD14C,2.700000*%
G04 APERTURE END LIST*
D10*
G36*
X178212750Y-134933500D02*
G01*
X75533250Y-134108000D01*
X75501500Y-133187250D01*
X75533250Y-125757750D01*
X178212750Y-125916500D01*
X178212750Y-134933500D01*
G37*
X178212750Y-134933500D02*
X75533250Y-134108000D01*
X75501500Y-133187250D01*
X75533250Y-125757750D01*
X178212750Y-125916500D01*
X178212750Y-134933500D01*
D11*
X96270000Y-129667000D03*
X98810000Y-129667000D03*
X101350000Y-129667000D03*
X103890000Y-129667000D03*
X106430000Y-129667000D03*
X108970000Y-129667000D03*
X111510000Y-129667000D03*
X114050000Y-129667000D03*
X116590000Y-129667000D03*
X119130000Y-129667000D03*
X121670000Y-129667000D03*
X131830000Y-129667000D03*
X134370000Y-129667000D03*
X136910000Y-129667000D03*
X139450000Y-129667000D03*
X141990000Y-129667000D03*
X144530000Y-129667000D03*
X147070000Y-129667000D03*
X149610000Y-129667000D03*
X152150000Y-129667000D03*
X154690000Y-129667000D03*
X157230000Y-129667000D03*
X159770000Y-129667000D03*
X162310000Y-129667000D03*
X164850000Y-129667000D03*
X167390000Y-129667000D03*
X169930000Y-129667000D03*
X172470000Y-129667000D03*
X175010000Y-129667000D03*
D12*
X133858000Y-116459000D03*
X133858000Y-118999000D03*
D13*
X133858000Y-121539000D03*
D14*
X183515000Y-63055500D03*
D12*
X182245000Y-116205000D03*
X184785000Y-116205000D03*
X182245000Y-113665000D03*
X184785000Y-113665000D03*
X182245000Y-111125000D03*
X184785000Y-111125000D03*
X182245000Y-108585000D03*
X184785000Y-108585000D03*
X182245000Y-106045000D03*
X184785000Y-106045000D03*
X182245000Y-103505000D03*
X184785000Y-103505000D03*
X182245000Y-100965000D03*
X184785000Y-100965000D03*
X182245000Y-98425000D03*
X184785000Y-98425000D03*
X182245000Y-95885000D03*
X184785000Y-95885000D03*
X182245000Y-93345000D03*
X184785000Y-93345000D03*
X182245000Y-90805000D03*
X184785000Y-90805000D03*
X182245000Y-88265000D03*
X184785000Y-88265000D03*
X182245000Y-85725000D03*
X184785000Y-85725000D03*
X182245000Y-83185000D03*
X184785000Y-83185000D03*
X182245000Y-80645000D03*
X184785000Y-80645000D03*
X182245000Y-78105000D03*
X184785000Y-78105000D03*
X182245000Y-75565000D03*
X184785000Y-75565000D03*
X182245000Y-73025000D03*
X184785000Y-73025000D03*
X182245000Y-70485000D03*
X184785000Y-70485000D03*
X182245000Y-67945000D03*
D13*
X184785000Y-67945000D03*
D14*
X183515000Y-121031000D03*
D12*
X164211000Y-113030000D03*
D13*
X161671000Y-113030000D03*
M02*
