M48
; DRILL file {KiCad 5.1.9-1.fc33} date Sun Jan 31 23:40:52 2021
; FORMAT={-:-/ absolute / inch / decimal}
; #@! TF.CreationDate,2021-01-31T23:40:52+01:00
; #@! TF.GenerationSoftware,Kicad,Pcbnew,5.1.9-1.fc33
; #@! TF.FileFunction,Plated,1,2,PTH
FMAT,2
INCH
T1C0.0157
T2C0.0315
T3C0.0394
%
G90
G05
T1
X3.99Y-4.875
X4.0902Y-4.8752
X4.29Y-4.875
X4.4Y-4.695
X4.445Y-4.075
X4.445Y-4.905
X4.47Y-4.135
X4.495Y-4.2
X4.525Y-4.26
X4.5345Y-4.8945
X4.545Y-4.325
X4.57Y-4.39
X4.64Y-4.9
X4.675Y-4.495
X4.72Y-4.345
X4.8Y-4.395
X4.815Y-4.545
X4.82Y-4.91
X4.835Y-4.765
X4.84Y-4.485
X4.905Y-4.49
X4.925Y-4.67
X5.015Y-4.735
X5.08Y-4.79
X5.0851Y-4.7049
X5.0875Y-4.5675
X5.14Y-4.535
X5.175Y-4.635
X5.27Y-4.915
X5.36Y-4.61
X5.44Y-4.535
X5.475Y-4.77
X5.49Y-4.9
X5.615Y-4.725
X5.615Y-4.925
X5.69Y-4.9278
X5.705Y-4.49
X5.74Y-4.9
X5.8Y-4.82
X5.865Y-4.9
X6.315Y-4.8
X6.415Y-4.75
X6.565Y-4.25
X6.665Y-4.175
X6.665Y-4.415
X6.7Y-4.5
X6.7Y-3.99
X6.745Y-3.88
X6.765Y-3.475
X6.765Y-3.525
X6.765Y-4.55
X6.785Y-3.84
X6.785Y-3.775
X6.815Y-4.6
X6.86Y-4.66
X6.865Y-2.925
X6.865Y-3.375
X6.865Y-3.975
X6.865Y-4.025
X6.89Y-3.025
X6.89Y-3.125
X6.9Y-4.325
X6.915Y-2.975
X6.915Y-3.325
X6.915Y-3.575
X6.915Y-3.625
X6.915Y-4.275
X6.965Y-3.485
X6.965Y-4.825
X7.015Y-2.975
X7.015Y-3.075
X7.015Y-3.125
X7.09Y-4.875
T2
X3.79Y-4.605
X3.79Y-4.875
X4.145Y-4.605
X4.205Y-4.775
X4.32Y-4.075
X4.365Y-4.85
X4.69Y-4.8
X5.19Y-4.825
X5.39Y-4.725
X5.39Y-4.9
X5.8Y-4.455
X6.155Y-4.9
X6.29Y-3.705
X6.305Y-3.195
X6.345Y-4.895
X6.465Y-3.19
X6.465Y-3.57
X6.465Y-3.8
X6.505Y-4.895
X6.515Y-4.175
X6.54Y-3.425
X6.595Y-3.68
X6.615Y-3.375
X6.615Y-3.475
X6.705Y-4.085
X6.74Y-3.125
X6.965Y-3.425
X7.03Y-2.53
X7.04Y-2.75
T3
X5.27Y-4.585
X5.27Y-4.685
X5.27Y-4.785
X6.365Y-4.45
X6.465Y-4.45
X7.175Y-2.675
X7.175Y-2.775
X7.175Y-2.875
X7.175Y-2.975
X7.175Y-3.075
X7.175Y-3.175
X7.175Y-3.275
X7.175Y-3.375
X7.175Y-3.475
X7.175Y-3.575
X7.175Y-3.675
X7.175Y-3.775
X7.175Y-3.875
X7.175Y-3.975
X7.175Y-4.075
X7.175Y-4.175
X7.175Y-4.275
X7.175Y-4.375
X7.175Y-4.475
X7.175Y-4.575
X7.275Y-2.675
X7.275Y-2.775
X7.275Y-2.875
X7.275Y-2.975
X7.275Y-3.075
X7.275Y-3.175
X7.275Y-3.275
X7.275Y-3.375
X7.275Y-3.475
X7.275Y-3.575
X7.275Y-3.675
X7.275Y-3.775
X7.275Y-3.875
X7.275Y-3.975
X7.275Y-4.075
X7.275Y-4.175
X7.275Y-4.275
X7.275Y-4.375
X7.275Y-4.475
X7.275Y-4.575
T0
M30
