M48
; DRILL file {KiCad (5.1.4)-1} date 21/10/2019 18:15:08
; FORMAT={-:-/ absolute / inch / decimal}
; #@! TF.CreationDate,2019-10-21T18:15:08+01:00
; #@! TF.GenerationSoftware,Kicad,Pcbnew,(5.1.4)-1
FMAT,2
INCH
T1C0.0120
T2C0.0150
T3C0.0315
T4C0.0354
T5C0.0394
T6C0.0433
T7C0.1083
%
G90
G05
T1
X0.9417Y-1.2824
X1.0347Y-1.7834
X1.0617Y-1.3664
X1.1517Y-1.2924
X1.2356Y-1.2883
X1.2812Y-1.4619
X1.2817Y-1.6474
X1.2877Y-1.7084
X1.3167Y-1.6174
X1.3167Y-1.6774
X1.3197Y-1.3454
X1.3197Y-1.3053
X1.3198Y-1.2684
X1.4967Y-1.7974
X1.5317Y-1.8924
X1.5767Y-1.8224
X1.5767Y-1.8624
X1.6402Y-1.2824
X1.7997Y-1.8994
X1.951Y-1.4267
X1.9517Y-1.3924
X1.9517Y-1.5524
X2.0217Y-1.8724
X2.0267Y-1.3674
X2.0967Y-1.9474
X2.1217Y-1.3114
X2.1827Y-1.4974
X2.4107Y-1.3754
X2.4457Y-1.6834
X2.4497Y-1.3494
X2.4497Y-1.4864
X2.5517Y-1.4524
X2.6557Y-1.3624
T2
X1.1517Y-1.9724
X1.5454Y-1.7166
X1.5457Y-1.4904
X1.7343Y-1.3859
X1.7347Y-1.2424
X1.9027Y-1.2424
X2.0017Y-1.7374
T3
X0.6167Y-1.3524
X0.6167Y-1.4524
X0.6167Y-1.5524
X0.6167Y-1.6524
X0.6167Y-1.7524
X0.7317Y-1.3524
X0.7317Y-1.4524
X0.7317Y-1.5524
X0.7317Y-1.6524
X0.7317Y-1.7524
T4
X2.7267Y-1.9524
X2.7267Y-2.0524
X0.8217Y-1.9524
X0.8217Y-2.0524
T5
X2.6217Y-1.2524
X2.7217Y-1.2524
X2.5237Y-1.3013
X2.5237Y-1.4013
X2.5237Y-1.5013
X2.5237Y-1.6013
X2.5237Y-1.7013
X2.5237Y-1.8013
X0.8217Y-1.0524
X0.8217Y-1.1524
X0.9217Y-1.0524
X0.9217Y-1.1524
X1.0217Y-1.0524
X1.0217Y-1.1524
X1.1217Y-1.0524
X1.1217Y-1.1524
X1.2217Y-1.0524
X1.2217Y-1.1524
X1.3217Y-1.0524
X1.3217Y-1.1524
X1.4217Y-1.0524
X1.4217Y-1.1524
X1.5217Y-1.0524
X1.5217Y-1.1524
X1.6217Y-1.0524
X1.6217Y-1.1524
X1.7217Y-1.0524
X1.7217Y-1.1524
X1.8217Y-1.0524
X1.8217Y-1.1524
X1.9217Y-1.0524
X1.9217Y-1.1524
X2.0217Y-1.0524
X2.0217Y-1.1524
X2.1217Y-1.0524
X2.1217Y-1.1524
X2.2217Y-1.0524
X2.2217Y-1.1524
X2.3217Y-1.0524
X2.3217Y-1.1524
X2.4217Y-1.0524
X2.4217Y-1.1524
X2.5217Y-1.0524
X2.5217Y-1.1524
X2.6217Y-1.0524
X2.6217Y-1.1524
X2.7217Y-1.0524
X2.7217Y-1.1524
X0.8417Y-1.3524
X0.8417Y-1.4524
X0.8417Y-1.5524
X0.8417Y-1.6524
X0.8417Y-1.7524
X0.9417Y-1.3524
X0.9417Y-1.4524
X0.9417Y-1.5524
X0.9417Y-1.6524
X0.9417Y-1.7524
T6
X1.6458Y-1.9152
X1.6458Y-2.0924
X1.9017Y-1.9152
X1.9017Y-2.0924
X1.0258Y-1.9152
X1.0258Y-2.0924
X1.2817Y-1.9152
X1.2817Y-2.0924
X2.8196Y-1.4524
X2.8196Y-1.7083
X2.9967Y-1.4524
X2.9967Y-1.7083
X2.2658Y-1.9152
X2.2658Y-2.0924
X2.5217Y-1.9152
X2.5217Y-2.0924
T7
X0.6299Y-1.1024
X2.9134Y-2.0079
X2.9134Y-1.1024
X0.6299Y-2.0079
T0
M30
