G04 #@! TF.GenerationSoftware,KiCad,Pcbnew,(5.1.4)-1*
G04 #@! TF.CreationDate,2019-10-20T00:44:42+01:00*
G04 #@! TF.ProjectId,rgb-to-hdmi,7267622d-746f-42d6-9864-6d692e6b6963,rev?*
G04 #@! TF.SameCoordinates,Original*
G04 #@! TF.FileFunction,Legend,Bot*
G04 #@! TF.FilePolarity,Positive*
%FSLAX46Y46*%
G04 Gerber Fmt 4.6, Leading zero omitted, Abs format (unit mm)*
G04 Created by KiCad (PCBNEW (5.1.4)-1) date 2019-10-20 00:44:42*
%MOMM*%
%LPD*%
G04 APERTURE LIST*
%ADD10C,0.200000*%
%ADD11C,0.120000*%
%ADD12C,0.150000*%
G04 APERTURE END LIST*
D10*
X66790380Y-37177150D02*
X65790380Y-37177150D01*
X66790380Y-37748579D01*
X65790380Y-37748579D01*
X66790380Y-38367626D02*
X66742761Y-38272388D01*
X66695142Y-38224769D01*
X66599904Y-38177150D01*
X66314190Y-38177150D01*
X66218952Y-38224769D01*
X66171333Y-38272388D01*
X66123714Y-38367626D01*
X66123714Y-38510483D01*
X66171333Y-38605721D01*
X66218952Y-38653340D01*
X66314190Y-38700960D01*
X66599904Y-38700960D01*
X66695142Y-38653340D01*
X66742761Y-38605721D01*
X66790380Y-38510483D01*
X66790380Y-38367626D01*
X66123714Y-38986674D02*
X66123714Y-39367626D01*
X65790380Y-39129531D02*
X66647523Y-39129531D01*
X66742761Y-39177150D01*
X66790380Y-39272388D01*
X66790380Y-39367626D01*
X66266571Y-40796198D02*
X66266571Y-40462864D01*
X66790380Y-40462864D02*
X65790380Y-40462864D01*
X65790380Y-40939055D01*
X66790380Y-41320007D02*
X66123714Y-41320007D01*
X65790380Y-41320007D02*
X65838000Y-41272388D01*
X65885619Y-41320007D01*
X65838000Y-41367626D01*
X65790380Y-41320007D01*
X65885619Y-41320007D01*
X66123714Y-41653340D02*
X66123714Y-42034293D01*
X65790380Y-41796198D02*
X66647523Y-41796198D01*
X66742761Y-41843817D01*
X66790380Y-41939055D01*
X66790380Y-42034293D01*
X66123714Y-42224769D02*
X66123714Y-42605721D01*
X65790380Y-42367626D02*
X66647523Y-42367626D01*
X66742761Y-42415245D01*
X66790380Y-42510483D01*
X66790380Y-42605721D01*
X66742761Y-43320007D02*
X66790380Y-43224769D01*
X66790380Y-43034293D01*
X66742761Y-42939055D01*
X66647523Y-42891436D01*
X66266571Y-42891436D01*
X66171333Y-42939055D01*
X66123714Y-43034293D01*
X66123714Y-43224769D01*
X66171333Y-43320007D01*
X66266571Y-43367626D01*
X66361809Y-43367626D01*
X66457047Y-42891436D01*
X66790380Y-44224769D02*
X65790380Y-44224769D01*
X66742761Y-44224769D02*
X66790380Y-44129531D01*
X66790380Y-43939055D01*
X66742761Y-43843817D01*
X66695142Y-43796198D01*
X66599904Y-43748579D01*
X66314190Y-43748579D01*
X66218952Y-43796198D01*
X66171333Y-43843817D01*
X66123714Y-43939055D01*
X66123714Y-44129531D01*
X66171333Y-44224769D01*
D11*
X19542000Y-29270960D02*
X19542000Y-30600960D01*
X19542000Y-30600960D02*
X20872000Y-30600960D01*
X19542000Y-28000960D02*
X22142000Y-28000960D01*
X22142000Y-28000960D02*
X22142000Y-30600960D01*
X22142000Y-30600960D02*
X70462000Y-30600960D01*
X70462000Y-25400960D02*
X70462000Y-30600960D01*
X19542000Y-25400960D02*
X70462000Y-25400960D01*
X19542000Y-25400960D02*
X19542000Y-28000960D01*
X59941000Y-38144960D02*
G75*
G03X60641000Y-37444960I0J700000D01*
G01*
X60641000Y-36844960D02*
G75*
G03X59941000Y-36144960I-700000J0D01*
G01*
X58541000Y-36144960D02*
G75*
G03X57841000Y-36844960I0J-700000D01*
G01*
X57841000Y-37444960D02*
G75*
G03X58541000Y-38144960I700000J0D01*
G01*
X57841000Y-36844960D02*
X57841000Y-37444960D01*
X59941000Y-36144960D02*
X58541000Y-36144960D01*
X60641000Y-37444960D02*
X60641000Y-36844960D01*
X58541000Y-38144960D02*
X59941000Y-38144960D01*
X58526000Y-34969960D02*
X59926000Y-34969960D01*
X60626000Y-34269960D02*
X60626000Y-33669960D01*
X59926000Y-32969960D02*
X58526000Y-32969960D01*
X57826000Y-33669960D02*
X57826000Y-34269960D01*
X57826000Y-34269960D02*
G75*
G03X58526000Y-34969960I700000J0D01*
G01*
X58526000Y-32969960D02*
G75*
G03X57826000Y-33669960I0J-700000D01*
G01*
X60626000Y-33669960D02*
G75*
G03X59926000Y-32969960I-700000J0D01*
G01*
X59926000Y-34969960D02*
G75*
G03X60626000Y-34269960I0J700000D01*
G01*
X59911000Y-43732960D02*
G75*
G03X60611000Y-43032960I0J700000D01*
G01*
X60611000Y-42432960D02*
G75*
G03X59911000Y-41732960I-700000J0D01*
G01*
X58511000Y-41732960D02*
G75*
G03X57811000Y-42432960I0J-700000D01*
G01*
X57811000Y-43032960D02*
G75*
G03X58511000Y-43732960I700000J0D01*
G01*
X57811000Y-42432960D02*
X57811000Y-43032960D01*
X59911000Y-41732960D02*
X58511000Y-41732960D01*
X60611000Y-43032960D02*
X60611000Y-42432960D01*
X58511000Y-43732960D02*
X59911000Y-43732960D01*
X58576800Y-40989760D02*
X59976800Y-40989760D01*
X60676800Y-40289760D02*
X60676800Y-39689760D01*
X59976800Y-38989760D02*
X58576800Y-38989760D01*
X57876800Y-39689760D02*
X57876800Y-40289760D01*
X57876800Y-40289760D02*
G75*
G03X58576800Y-40989760I700000J0D01*
G01*
X58576800Y-38989760D02*
G75*
G03X57876800Y-39689760I0J-700000D01*
G01*
X60676800Y-39689760D02*
G75*
G03X59976800Y-38989760I-700000J0D01*
G01*
X59976800Y-40989760D02*
G75*
G03X60676800Y-40289760I0J700000D01*
G01*
X25360000Y-45840960D02*
X25360000Y-33020960D01*
X25360000Y-33020960D02*
X28020000Y-33020960D01*
X28020000Y-33020960D02*
X28020000Y-45840960D01*
X28020000Y-45840960D02*
X25360000Y-45840960D01*
X28020000Y-44890960D02*
X34020000Y-44890960D01*
X34020000Y-44890960D02*
X34020000Y-44130960D01*
X34020000Y-44130960D02*
X28020000Y-44130960D01*
X28020000Y-44830960D02*
X34020000Y-44830960D01*
X28020000Y-44710960D02*
X34020000Y-44710960D01*
X28020000Y-44590960D02*
X34020000Y-44590960D01*
X28020000Y-44470960D02*
X34020000Y-44470960D01*
X28020000Y-44350960D02*
X34020000Y-44350960D01*
X28020000Y-44230960D02*
X34020000Y-44230960D01*
X24962929Y-44890960D02*
X25360000Y-44890960D01*
X24962929Y-44130960D02*
X25360000Y-44130960D01*
X22490000Y-44890960D02*
X22877071Y-44890960D01*
X22490000Y-44130960D02*
X22877071Y-44130960D01*
X25360000Y-43240960D02*
X28020000Y-43240960D01*
X28020000Y-42350960D02*
X34020000Y-42350960D01*
X34020000Y-42350960D02*
X34020000Y-41590960D01*
X34020000Y-41590960D02*
X28020000Y-41590960D01*
X24962929Y-42350960D02*
X25360000Y-42350960D01*
X24962929Y-41590960D02*
X25360000Y-41590960D01*
X22422929Y-42350960D02*
X22877071Y-42350960D01*
X22422929Y-41590960D02*
X22877071Y-41590960D01*
X25360000Y-40700960D02*
X28020000Y-40700960D01*
X28020000Y-39810960D02*
X34020000Y-39810960D01*
X34020000Y-39810960D02*
X34020000Y-39050960D01*
X34020000Y-39050960D02*
X28020000Y-39050960D01*
X24962929Y-39810960D02*
X25360000Y-39810960D01*
X24962929Y-39050960D02*
X25360000Y-39050960D01*
X22422929Y-39810960D02*
X22877071Y-39810960D01*
X22422929Y-39050960D02*
X22877071Y-39050960D01*
X25360000Y-38160960D02*
X28020000Y-38160960D01*
X28020000Y-37270960D02*
X34020000Y-37270960D01*
X34020000Y-37270960D02*
X34020000Y-36510960D01*
X34020000Y-36510960D02*
X28020000Y-36510960D01*
X24962929Y-37270960D02*
X25360000Y-37270960D01*
X24962929Y-36510960D02*
X25360000Y-36510960D01*
X22422929Y-37270960D02*
X22877071Y-37270960D01*
X22422929Y-36510960D02*
X22877071Y-36510960D01*
X25360000Y-35620960D02*
X28020000Y-35620960D01*
X28020000Y-34730960D02*
X34020000Y-34730960D01*
X34020000Y-34730960D02*
X34020000Y-33970960D01*
X34020000Y-33970960D02*
X28020000Y-33970960D01*
X24962929Y-34730960D02*
X25360000Y-34730960D01*
X24962929Y-33970960D02*
X25360000Y-33970960D01*
X22422929Y-34730960D02*
X22877071Y-34730960D01*
X22422929Y-33970960D02*
X22877071Y-33970960D01*
X20110000Y-44510960D02*
X20110000Y-45780960D01*
X20110000Y-45780960D02*
X21380000Y-45780960D01*
X65430800Y-47084001D02*
X62770800Y-47084001D01*
X65430800Y-34324001D02*
X65430800Y-47084001D01*
X62770800Y-34324001D02*
X62770800Y-47084001D01*
X65430800Y-34324001D02*
X62770800Y-34324001D01*
X65430800Y-33054001D02*
X65430800Y-31724001D01*
X65430800Y-31724001D02*
X64100800Y-31724001D01*
X67862000Y-30480960D02*
X67862000Y-33140960D01*
X67862000Y-30480960D02*
X70462000Y-30480960D01*
X70462000Y-30480960D02*
X70462000Y-33140960D01*
X67862000Y-33140960D02*
X70462000Y-33140960D01*
X65262000Y-33140960D02*
X66592000Y-33140960D01*
X65262000Y-31810960D02*
X65262000Y-33140960D01*
X19986000Y-43240960D02*
X17186000Y-43240960D01*
X19986000Y-32910960D02*
X19986000Y-45950960D01*
X17186000Y-32910960D02*
X19986000Y-32910960D01*
X17186000Y-45950960D02*
X17186000Y-32910960D01*
X19986000Y-45950960D02*
X17186000Y-45950960D01*
X17065000Y-45950960D02*
X14265000Y-45950960D01*
X14265000Y-45950960D02*
X14265000Y-32910960D01*
X14265000Y-32910960D02*
X17065000Y-32910960D01*
X17065000Y-32910960D02*
X17065000Y-45950960D01*
X17065000Y-43240960D02*
X14265000Y-43240960D01*
D12*
X21610095Y-31729940D02*
X21610095Y-30729940D01*
X21229142Y-30729940D01*
X21133904Y-30777560D01*
X21086285Y-30825179D01*
X21038666Y-30920417D01*
X21038666Y-31063274D01*
X21086285Y-31158512D01*
X21133904Y-31206131D01*
X21229142Y-31253750D01*
X21610095Y-31253750D01*
X20086285Y-31729940D02*
X20657714Y-31729940D01*
X20372000Y-31729940D02*
X20372000Y-30729940D01*
X20467238Y-30872798D01*
X20562476Y-30968036D01*
X20657714Y-31015655D01*
X57011333Y-36597340D02*
X57011333Y-37311626D01*
X57058952Y-37454483D01*
X57154190Y-37549721D01*
X57297047Y-37597340D01*
X57392285Y-37597340D01*
X56535142Y-37597340D02*
X56535142Y-36597340D01*
X56154190Y-36597340D01*
X56058952Y-36644960D01*
X56011333Y-36692579D01*
X55963714Y-36787817D01*
X55963714Y-36930674D01*
X56011333Y-37025912D01*
X56058952Y-37073531D01*
X56154190Y-37121150D01*
X56535142Y-37121150D01*
X55582761Y-36692579D02*
X55535142Y-36644960D01*
X55439904Y-36597340D01*
X55201809Y-36597340D01*
X55106571Y-36644960D01*
X55058952Y-36692579D01*
X55011333Y-36787817D01*
X55011333Y-36883055D01*
X55058952Y-37025912D01*
X55630380Y-37597340D01*
X55011333Y-37597340D01*
X57011333Y-33422340D02*
X57011333Y-34136626D01*
X57058952Y-34279483D01*
X57154190Y-34374721D01*
X57297047Y-34422340D01*
X57392285Y-34422340D01*
X56535142Y-34422340D02*
X56535142Y-33422340D01*
X56154190Y-33422340D01*
X56058952Y-33469960D01*
X56011333Y-33517579D01*
X55963714Y-33612817D01*
X55963714Y-33755674D01*
X56011333Y-33850912D01*
X56058952Y-33898531D01*
X56154190Y-33946150D01*
X56535142Y-33946150D01*
X55011333Y-34422340D02*
X55582761Y-34422340D01*
X55297047Y-34422340D02*
X55297047Y-33422340D01*
X55392285Y-33565198D01*
X55487523Y-33660436D01*
X55582761Y-33708055D01*
X57011333Y-42058340D02*
X57011333Y-42772626D01*
X57058952Y-42915483D01*
X57154190Y-43010721D01*
X57297047Y-43058340D01*
X57392285Y-43058340D01*
X56535142Y-43058340D02*
X56535142Y-42058340D01*
X56154190Y-42058340D01*
X56058952Y-42105960D01*
X56011333Y-42153579D01*
X55963714Y-42248817D01*
X55963714Y-42391674D01*
X56011333Y-42486912D01*
X56058952Y-42534531D01*
X56154190Y-42582150D01*
X56535142Y-42582150D01*
X55106571Y-42391674D02*
X55106571Y-43058340D01*
X55344666Y-42010721D02*
X55582761Y-42725007D01*
X54963714Y-42725007D01*
X57047133Y-39569140D02*
X57047133Y-40283426D01*
X57094752Y-40426283D01*
X57189990Y-40521521D01*
X57332847Y-40569140D01*
X57428085Y-40569140D01*
X56570942Y-40569140D02*
X56570942Y-39569140D01*
X56189990Y-39569140D01*
X56094752Y-39616760D01*
X56047133Y-39664379D01*
X55999514Y-39759617D01*
X55999514Y-39902474D01*
X56047133Y-39997712D01*
X56094752Y-40045331D01*
X56189990Y-40092950D01*
X56570942Y-40092950D01*
X55666180Y-39569140D02*
X55047133Y-39569140D01*
X55380466Y-39950093D01*
X55237609Y-39950093D01*
X55142371Y-39997712D01*
X55094752Y-40045331D01*
X55047133Y-40140569D01*
X55047133Y-40378664D01*
X55094752Y-40473902D01*
X55142371Y-40521521D01*
X55237609Y-40569140D01*
X55523323Y-40569140D01*
X55618561Y-40521521D01*
X55666180Y-40473902D01*
X27452095Y-39883340D02*
X27452095Y-38883340D01*
X27071142Y-38883340D01*
X26975904Y-38930960D01*
X26928285Y-38978579D01*
X26880666Y-39073817D01*
X26880666Y-39216674D01*
X26928285Y-39311912D01*
X26975904Y-39359531D01*
X27071142Y-39407150D01*
X27452095Y-39407150D01*
X26499714Y-38978579D02*
X26452095Y-38930960D01*
X26356857Y-38883340D01*
X26118761Y-38883340D01*
X26023523Y-38930960D01*
X25975904Y-38978579D01*
X25928285Y-39073817D01*
X25928285Y-39169055D01*
X25975904Y-39311912D01*
X26547333Y-39883340D01*
X25928285Y-39883340D01*
X66790380Y-34374864D02*
X65790380Y-34374864D01*
X65790380Y-34755817D01*
X65838000Y-34851055D01*
X65885619Y-34898674D01*
X65980857Y-34946293D01*
X66123714Y-34946293D01*
X66218952Y-34898674D01*
X66266571Y-34851055D01*
X66314190Y-34755817D01*
X66314190Y-34374864D01*
X65790380Y-35279626D02*
X65790380Y-35898674D01*
X66171333Y-35565340D01*
X66171333Y-35708198D01*
X66218952Y-35803436D01*
X66266571Y-35851055D01*
X66361809Y-35898674D01*
X66599904Y-35898674D01*
X66695142Y-35851055D01*
X66742761Y-35803436D01*
X66790380Y-35708198D01*
X66790380Y-35422483D01*
X66742761Y-35327245D01*
X66695142Y-35279626D01*
X71997380Y-31072864D02*
X70997380Y-31072864D01*
X70997380Y-31453817D01*
X71045000Y-31549055D01*
X71092619Y-31596674D01*
X71187857Y-31644293D01*
X71330714Y-31644293D01*
X71425952Y-31596674D01*
X71473571Y-31549055D01*
X71521190Y-31453817D01*
X71521190Y-31072864D01*
X71330714Y-32501436D02*
X71997380Y-32501436D01*
X70949761Y-32263340D02*
X71664047Y-32025245D01*
X71664047Y-32644293D01*
X19139980Y-46716083D02*
X18663790Y-46382750D01*
X19139980Y-46144655D02*
X18139980Y-46144655D01*
X18139980Y-46525607D01*
X18187600Y-46620845D01*
X18235219Y-46668464D01*
X18330457Y-46716083D01*
X18473314Y-46716083D01*
X18568552Y-46668464D01*
X18616171Y-46620845D01*
X18663790Y-46525607D01*
X18663790Y-46144655D01*
X19139980Y-47144655D02*
X18139980Y-47144655D01*
X19139980Y-47716083D01*
X18139980Y-47716083D01*
X19139980Y-48716083D02*
X19139980Y-48144655D01*
X19139980Y-48430369D02*
X18139980Y-48430369D01*
X18282838Y-48335131D01*
X18378076Y-48239893D01*
X18425695Y-48144655D01*
X14009180Y-45776283D02*
X13532990Y-45442950D01*
X14009180Y-45204855D02*
X13009180Y-45204855D01*
X13009180Y-45585807D01*
X13056800Y-45681045D01*
X13104419Y-45728664D01*
X13199657Y-45776283D01*
X13342514Y-45776283D01*
X13437752Y-45728664D01*
X13485371Y-45681045D01*
X13532990Y-45585807D01*
X13532990Y-45204855D01*
X14009180Y-46204855D02*
X13009180Y-46204855D01*
X14009180Y-46776283D01*
X13009180Y-46776283D01*
X13104419Y-47204855D02*
X13056800Y-47252474D01*
X13009180Y-47347712D01*
X13009180Y-47585807D01*
X13056800Y-47681045D01*
X13104419Y-47728664D01*
X13199657Y-47776283D01*
X13294895Y-47776283D01*
X13437752Y-47728664D01*
X14009180Y-47157236D01*
X14009180Y-47776283D01*
M02*
