M48
; DRILL file {KiCad (5.1.4)-1} date 20/10/2019 00:48:29
; FORMAT={3:3/ absolute / metric / suppress leading zeros}
; #@! TF.CreationDate,2019-10-20T00:48:29+01:00
; #@! TF.GenerationSoftware,Kicad,Pcbnew,(5.1.4)-1
FMAT,2
METRIC,TZ
T1C0.305
T2C0.381
T3C0.800
T4C0.900
T5C1.000
T6C1.100
T7C2.750
%
G90
G05
T1
X23920Y-32573
X26841Y-34732
X27349Y-45400
X29254Y-32827
X31385Y-32723
X32543Y-37132
X32556Y-41844
X32708Y-43393
X33445Y-41082
X33445Y-42606
X33521Y-34173
X33521Y-33156
X33524Y-32217
X38017Y-45654
X38906Y-48067
X40049Y-46289
X40049Y-47305
X41662Y-32573
X45764Y-47813
X49555Y-36239
X49574Y-35367
X49828Y-39431
X51352Y-47559
X51479Y-34732
X53257Y-49464
X53892Y-33310
X54146Y-39685
X56686Y-42733
X61233Y-34935
X62223Y-34275
X62223Y-37755
X64814Y-36891
X67354Y-33843
X69386Y-41209
T2
X29254Y-50099
X39252Y-43601
X39262Y-37856
X44052Y-35201
X44062Y-31557
X48329Y-31557
X50844Y-44130
T3
X15665Y-34351
X15665Y-36891
X15665Y-39431
X15665Y-41971
X15665Y-44511
X18586Y-34351
X18586Y-36891
X18586Y-39431
X18586Y-41971
X18586Y-44511
T4
X69259Y-49591
X69259Y-52131
X20872Y-49591
X20872Y-52131
T5
X21380Y-34351
X21380Y-36891
X21380Y-39431
X21380Y-41971
X21380Y-44511
X23920Y-34351
X23920Y-36891
X23920Y-39431
X23920Y-41971
X23920Y-44511
X20872Y-26731
X20872Y-29271
X23412Y-26731
X23412Y-29271
X25952Y-26731
X25952Y-29271
X28492Y-26731
X28492Y-29271
X31032Y-26731
X31032Y-29271
X33572Y-26731
X33572Y-29271
X36112Y-26731
X36112Y-29271
X38652Y-26731
X38652Y-29271
X41192Y-26731
X41192Y-29271
X43732Y-26731
X43732Y-29271
X46272Y-26731
X46272Y-29271
X48812Y-26731
X48812Y-29271
X51352Y-26731
X51352Y-29271
X53892Y-26731
X53892Y-29271
X56432Y-26731
X56432Y-29271
X58972Y-26731
X58972Y-29271
X61512Y-26731
X61512Y-29271
X64052Y-26731
X64052Y-29271
X66592Y-26731
X66592Y-29271
X69132Y-26731
X69132Y-29271
X66592Y-31811
X69132Y-31811
X64101Y-33054
X64101Y-35594
X64101Y-38134
X64101Y-40674
X64101Y-43214
X64101Y-45754
T6
X41804Y-48647
X41804Y-53147
X48304Y-48647
X48304Y-53147
X71617Y-36891
X71617Y-43391
X76117Y-36891
X76117Y-43391
X57552Y-48647
X57552Y-53147
X64052Y-48647
X64052Y-53147
X26056Y-48647
X26056Y-53147
X32556Y-48647
X32556Y-53147
T7
X74000Y-51000
X16000Y-28000
X16000Y-51000
X74000Y-28000
T0
M30
