M48
; DRILL file {KiCad (5.1.4)-1} date 21/10/2019 01:27:44
; FORMAT={-:-/ absolute / metric / decimal}
; #@! TF.CreationDate,2019-10-21T01:27:44+01:00
; #@! TF.GenerationSoftware,Kicad,Pcbnew,(5.1.4)-1
FMAT,2
METRIC
T1C0.305
T2C0.381
T3C0.800
T4C0.900
T5C1.000
T6C1.100
T7C2.750
%
G90
G05
T1
X23.92Y-32.573
X26.282Y-45.298
X26.841Y-34.732
X29.254Y-32.827
X31.385Y-32.723
X32.543Y-37.132
X32.556Y-41.844
X32.708Y-43.393
X33.445Y-41.082
X33.445Y-42.606
X33.521Y-34.173
X33.521Y-33.156
X33.524Y-32.217
X38.017Y-45.654
X38.906Y-48.067
X40.049Y-46.289
X40.049Y-47.305
X41.662Y-32.573
X45.764Y-47.813
X49.555Y-36.239
X49.574Y-35.367
X49.574Y-39.431
X51.352Y-47.559
X51.479Y-34.732
X53.257Y-49.464
X53.892Y-33.31
X54.146Y-39.685
X61.233Y-34.935
X61.614Y-42.733
X62.223Y-34.275
X62.223Y-37.755
X64.814Y-36.891
X67.354Y-33.843
T2
X29.254Y-50.099
X39.252Y-43.601
X39.262Y-37.856
X44.052Y-35.201
X44.062Y-31.557
X48.329Y-31.557
X50.844Y-44.13
T3
X15.665Y-34.351
X15.665Y-36.891
X15.665Y-39.431
X15.665Y-41.971
X15.665Y-44.511
X18.586Y-34.351
X18.586Y-36.891
X18.586Y-39.431
X18.586Y-41.971
X18.586Y-44.511
T4
X69.259Y-49.591
X69.259Y-52.131
X20.872Y-49.591
X20.872Y-52.131
T5
X66.592Y-31.811
X69.132Y-31.811
X64.101Y-33.054
X64.101Y-35.594
X64.101Y-38.134
X64.101Y-40.674
X64.101Y-43.214
X64.101Y-45.754
X20.872Y-26.731
X20.872Y-29.271
X23.412Y-26.731
X23.412Y-29.271
X25.952Y-26.731
X25.952Y-29.271
X28.492Y-26.731
X28.492Y-29.271
X31.032Y-26.731
X31.032Y-29.271
X33.572Y-26.731
X33.572Y-29.271
X36.112Y-26.731
X36.112Y-29.271
X38.652Y-26.731
X38.652Y-29.271
X41.192Y-26.731
X41.192Y-29.271
X43.732Y-26.731
X43.732Y-29.271
X46.272Y-26.731
X46.272Y-29.271
X48.812Y-26.731
X48.812Y-29.271
X51.352Y-26.731
X51.352Y-29.271
X53.892Y-26.731
X53.892Y-29.271
X56.432Y-26.731
X56.432Y-29.271
X58.972Y-26.731
X58.972Y-29.271
X61.512Y-26.731
X61.512Y-29.271
X64.052Y-26.731
X64.052Y-29.271
X66.592Y-26.731
X66.592Y-29.271
X69.132Y-26.731
X69.132Y-29.271
X21.38Y-34.351
X21.38Y-36.891
X21.38Y-39.431
X21.38Y-41.971
X21.38Y-44.511
X23.92Y-34.351
X23.92Y-36.891
X23.92Y-39.431
X23.92Y-41.971
X23.92Y-44.511
T6
X26.056Y-48.647
X26.056Y-53.147
X32.556Y-48.647
X32.556Y-53.147
X41.804Y-48.647
X41.804Y-53.147
X48.304Y-48.647
X48.304Y-53.147
X71.617Y-36.891
X71.617Y-43.391
X76.117Y-36.891
X76.117Y-43.391
X57.552Y-48.647
X57.552Y-53.147
X64.052Y-48.647
X64.052Y-53.147
T7
X74.0Y-51.0
X16.0Y-28.0
X74.0Y-28.0
X16.0Y-51.0
T0
M30
