G04 #@! TF.GenerationSoftware,KiCad,Pcbnew,(5.1.4)-1*
G04 #@! TF.CreationDate,2019-10-21T01:27:31+01:00*
G04 #@! TF.ProjectId,rgb-to-hdmi,7267622d-746f-42d6-9864-6d692e6b6963,rev?*
G04 #@! TF.SameCoordinates,Original*
G04 #@! TF.FileFunction,Copper,L2,Bot*
G04 #@! TF.FilePolarity,Positive*
%FSLAX46Y46*%
G04 Gerber Fmt 4.6, Leading zero omitted, Abs format (unit mm)*
G04 Created by KiCad (PCBNEW (5.1.4)-1) date 2019-10-21 01:27:31*
%MOMM*%
%LPD*%
G04 APERTURE LIST*
%ADD10C,0.100000*%
%ADD11O,1.700000X1.700000*%
%ADD12R,1.700000X1.700000*%
%ADD13C,0.500000*%
%ADD14R,1.800000X1.800000*%
%ADD15C,1.800000*%
%ADD16O,1.600000X1.600000*%
%ADD17R,1.600000X1.600000*%
%ADD18C,2.000000*%
%ADD19C,0.762000*%
%ADD20C,0.660400*%
%ADD21C,0.381000*%
%ADD22C,0.762000*%
%ADD23C,0.203200*%
%ADD24C,1.016000*%
%ADD25C,0.254000*%
G04 APERTURE END LIST*
D10*
G36*
X59476000Y-37444960D02*
G01*
X58976000Y-37444960D01*
X58976000Y-36844960D01*
X59476000Y-36844960D01*
X59476000Y-37444960D01*
G37*
G36*
X59476000Y-34396960D02*
G01*
X58976000Y-34396960D01*
X58976000Y-33796960D01*
X59476000Y-33796960D01*
X59476000Y-34396960D01*
G37*
G36*
X59461000Y-43540960D02*
G01*
X58961000Y-43540960D01*
X58961000Y-42940960D01*
X59461000Y-42940960D01*
X59461000Y-43540960D01*
G37*
G36*
X59476000Y-40492960D02*
G01*
X58976000Y-40492960D01*
X58976000Y-39892960D01*
X59476000Y-39892960D01*
X59476000Y-40492960D01*
G37*
D11*
X69132000Y-26730960D03*
X69132000Y-29270960D03*
X66592000Y-26730960D03*
X66592000Y-29270960D03*
X64052000Y-26730960D03*
X64052000Y-29270960D03*
X61512000Y-26730960D03*
X61512000Y-29270960D03*
X58972000Y-26730960D03*
X58972000Y-29270960D03*
X56432000Y-26730960D03*
X56432000Y-29270960D03*
X53892000Y-26730960D03*
X53892000Y-29270960D03*
X51352000Y-26730960D03*
X51352000Y-29270960D03*
X48812000Y-26730960D03*
X48812000Y-29270960D03*
X46272000Y-26730960D03*
X46272000Y-29270960D03*
X43732000Y-26730960D03*
X43732000Y-29270960D03*
X41192000Y-26730960D03*
X41192000Y-29270960D03*
X38652000Y-26730960D03*
X38652000Y-29270960D03*
X36112000Y-26730960D03*
X36112000Y-29270960D03*
X33572000Y-26730960D03*
X33572000Y-29270960D03*
X31032000Y-26730960D03*
X31032000Y-29270960D03*
X28492000Y-26730960D03*
X28492000Y-29270960D03*
X25952000Y-26730960D03*
X25952000Y-29270960D03*
X23412000Y-26730960D03*
X23412000Y-29270960D03*
X20872000Y-26730960D03*
D12*
X20872000Y-29270960D03*
D13*
X59876000Y-37144960D03*
D10*
G36*
X59876000Y-36395562D02*
G01*
X59900534Y-36395562D01*
X59949365Y-36400372D01*
X59997490Y-36409944D01*
X60044445Y-36424188D01*
X60089778Y-36442965D01*
X60133051Y-36466096D01*
X60173850Y-36493356D01*
X60211779Y-36524484D01*
X60246476Y-36559181D01*
X60277604Y-36597110D01*
X60304864Y-36637909D01*
X60327995Y-36681182D01*
X60346772Y-36726515D01*
X60361016Y-36773470D01*
X60370588Y-36821595D01*
X60375398Y-36870426D01*
X60375398Y-36894960D01*
X60376000Y-36894960D01*
X60376000Y-37394960D01*
X60375398Y-37394960D01*
X60375398Y-37419494D01*
X60370588Y-37468325D01*
X60361016Y-37516450D01*
X60346772Y-37563405D01*
X60327995Y-37608738D01*
X60304864Y-37652011D01*
X60277604Y-37692810D01*
X60246476Y-37730739D01*
X60211779Y-37765436D01*
X60173850Y-37796564D01*
X60133051Y-37823824D01*
X60089778Y-37846955D01*
X60044445Y-37865732D01*
X59997490Y-37879976D01*
X59949365Y-37889548D01*
X59900534Y-37894358D01*
X59876000Y-37894358D01*
X59876000Y-37894960D01*
X59376000Y-37894960D01*
X59376000Y-36394960D01*
X59876000Y-36394960D01*
X59876000Y-36395562D01*
X59876000Y-36395562D01*
G37*
D13*
X58576000Y-37144960D03*
D10*
G36*
X59076000Y-37894960D02*
G01*
X58576000Y-37894960D01*
X58576000Y-37894358D01*
X58551466Y-37894358D01*
X58502635Y-37889548D01*
X58454510Y-37879976D01*
X58407555Y-37865732D01*
X58362222Y-37846955D01*
X58318949Y-37823824D01*
X58278150Y-37796564D01*
X58240221Y-37765436D01*
X58205524Y-37730739D01*
X58174396Y-37692810D01*
X58147136Y-37652011D01*
X58124005Y-37608738D01*
X58105228Y-37563405D01*
X58090984Y-37516450D01*
X58081412Y-37468325D01*
X58076602Y-37419494D01*
X58076602Y-37394960D01*
X58076000Y-37394960D01*
X58076000Y-36894960D01*
X58076602Y-36894960D01*
X58076602Y-36870426D01*
X58081412Y-36821595D01*
X58090984Y-36773470D01*
X58105228Y-36726515D01*
X58124005Y-36681182D01*
X58147136Y-36637909D01*
X58174396Y-36597110D01*
X58205524Y-36559181D01*
X58240221Y-36524484D01*
X58278150Y-36493356D01*
X58318949Y-36466096D01*
X58362222Y-36442965D01*
X58407555Y-36424188D01*
X58454510Y-36409944D01*
X58502635Y-36400372D01*
X58551466Y-36395562D01*
X58576000Y-36395562D01*
X58576000Y-36394960D01*
X59076000Y-36394960D01*
X59076000Y-37894960D01*
X59076000Y-37894960D01*
G37*
D13*
X58576000Y-34096960D03*
D10*
G36*
X59076000Y-34846960D02*
G01*
X58576000Y-34846960D01*
X58576000Y-34846358D01*
X58551466Y-34846358D01*
X58502635Y-34841548D01*
X58454510Y-34831976D01*
X58407555Y-34817732D01*
X58362222Y-34798955D01*
X58318949Y-34775824D01*
X58278150Y-34748564D01*
X58240221Y-34717436D01*
X58205524Y-34682739D01*
X58174396Y-34644810D01*
X58147136Y-34604011D01*
X58124005Y-34560738D01*
X58105228Y-34515405D01*
X58090984Y-34468450D01*
X58081412Y-34420325D01*
X58076602Y-34371494D01*
X58076602Y-34346960D01*
X58076000Y-34346960D01*
X58076000Y-33846960D01*
X58076602Y-33846960D01*
X58076602Y-33822426D01*
X58081412Y-33773595D01*
X58090984Y-33725470D01*
X58105228Y-33678515D01*
X58124005Y-33633182D01*
X58147136Y-33589909D01*
X58174396Y-33549110D01*
X58205524Y-33511181D01*
X58240221Y-33476484D01*
X58278150Y-33445356D01*
X58318949Y-33418096D01*
X58362222Y-33394965D01*
X58407555Y-33376188D01*
X58454510Y-33361944D01*
X58502635Y-33352372D01*
X58551466Y-33347562D01*
X58576000Y-33347562D01*
X58576000Y-33346960D01*
X59076000Y-33346960D01*
X59076000Y-34846960D01*
X59076000Y-34846960D01*
G37*
D13*
X59876000Y-34096960D03*
D10*
G36*
X59876000Y-33347562D02*
G01*
X59900534Y-33347562D01*
X59949365Y-33352372D01*
X59997490Y-33361944D01*
X60044445Y-33376188D01*
X60089778Y-33394965D01*
X60133051Y-33418096D01*
X60173850Y-33445356D01*
X60211779Y-33476484D01*
X60246476Y-33511181D01*
X60277604Y-33549110D01*
X60304864Y-33589909D01*
X60327995Y-33633182D01*
X60346772Y-33678515D01*
X60361016Y-33725470D01*
X60370588Y-33773595D01*
X60375398Y-33822426D01*
X60375398Y-33846960D01*
X60376000Y-33846960D01*
X60376000Y-34346960D01*
X60375398Y-34346960D01*
X60375398Y-34371494D01*
X60370588Y-34420325D01*
X60361016Y-34468450D01*
X60346772Y-34515405D01*
X60327995Y-34560738D01*
X60304864Y-34604011D01*
X60277604Y-34644810D01*
X60246476Y-34682739D01*
X60211779Y-34717436D01*
X60173850Y-34748564D01*
X60133051Y-34775824D01*
X60089778Y-34798955D01*
X60044445Y-34817732D01*
X59997490Y-34831976D01*
X59949365Y-34841548D01*
X59900534Y-34846358D01*
X59876000Y-34846358D01*
X59876000Y-34846960D01*
X59376000Y-34846960D01*
X59376000Y-33346960D01*
X59876000Y-33346960D01*
X59876000Y-33347562D01*
X59876000Y-33347562D01*
G37*
D13*
X59861000Y-43240960D03*
D10*
G36*
X59861000Y-42491562D02*
G01*
X59885534Y-42491562D01*
X59934365Y-42496372D01*
X59982490Y-42505944D01*
X60029445Y-42520188D01*
X60074778Y-42538965D01*
X60118051Y-42562096D01*
X60158850Y-42589356D01*
X60196779Y-42620484D01*
X60231476Y-42655181D01*
X60262604Y-42693110D01*
X60289864Y-42733909D01*
X60312995Y-42777182D01*
X60331772Y-42822515D01*
X60346016Y-42869470D01*
X60355588Y-42917595D01*
X60360398Y-42966426D01*
X60360398Y-42990960D01*
X60361000Y-42990960D01*
X60361000Y-43490960D01*
X60360398Y-43490960D01*
X60360398Y-43515494D01*
X60355588Y-43564325D01*
X60346016Y-43612450D01*
X60331772Y-43659405D01*
X60312995Y-43704738D01*
X60289864Y-43748011D01*
X60262604Y-43788810D01*
X60231476Y-43826739D01*
X60196779Y-43861436D01*
X60158850Y-43892564D01*
X60118051Y-43919824D01*
X60074778Y-43942955D01*
X60029445Y-43961732D01*
X59982490Y-43975976D01*
X59934365Y-43985548D01*
X59885534Y-43990358D01*
X59861000Y-43990358D01*
X59861000Y-43990960D01*
X59361000Y-43990960D01*
X59361000Y-42490960D01*
X59861000Y-42490960D01*
X59861000Y-42491562D01*
X59861000Y-42491562D01*
G37*
D13*
X58561000Y-43240960D03*
D10*
G36*
X59061000Y-43990960D02*
G01*
X58561000Y-43990960D01*
X58561000Y-43990358D01*
X58536466Y-43990358D01*
X58487635Y-43985548D01*
X58439510Y-43975976D01*
X58392555Y-43961732D01*
X58347222Y-43942955D01*
X58303949Y-43919824D01*
X58263150Y-43892564D01*
X58225221Y-43861436D01*
X58190524Y-43826739D01*
X58159396Y-43788810D01*
X58132136Y-43748011D01*
X58109005Y-43704738D01*
X58090228Y-43659405D01*
X58075984Y-43612450D01*
X58066412Y-43564325D01*
X58061602Y-43515494D01*
X58061602Y-43490960D01*
X58061000Y-43490960D01*
X58061000Y-42990960D01*
X58061602Y-42990960D01*
X58061602Y-42966426D01*
X58066412Y-42917595D01*
X58075984Y-42869470D01*
X58090228Y-42822515D01*
X58109005Y-42777182D01*
X58132136Y-42733909D01*
X58159396Y-42693110D01*
X58190524Y-42655181D01*
X58225221Y-42620484D01*
X58263150Y-42589356D01*
X58303949Y-42562096D01*
X58347222Y-42538965D01*
X58392555Y-42520188D01*
X58439510Y-42505944D01*
X58487635Y-42496372D01*
X58536466Y-42491562D01*
X58561000Y-42491562D01*
X58561000Y-42490960D01*
X59061000Y-42490960D01*
X59061000Y-43990960D01*
X59061000Y-43990960D01*
G37*
D13*
X58576000Y-40192960D03*
D10*
G36*
X59076000Y-40942960D02*
G01*
X58576000Y-40942960D01*
X58576000Y-40942358D01*
X58551466Y-40942358D01*
X58502635Y-40937548D01*
X58454510Y-40927976D01*
X58407555Y-40913732D01*
X58362222Y-40894955D01*
X58318949Y-40871824D01*
X58278150Y-40844564D01*
X58240221Y-40813436D01*
X58205524Y-40778739D01*
X58174396Y-40740810D01*
X58147136Y-40700011D01*
X58124005Y-40656738D01*
X58105228Y-40611405D01*
X58090984Y-40564450D01*
X58081412Y-40516325D01*
X58076602Y-40467494D01*
X58076602Y-40442960D01*
X58076000Y-40442960D01*
X58076000Y-39942960D01*
X58076602Y-39942960D01*
X58076602Y-39918426D01*
X58081412Y-39869595D01*
X58090984Y-39821470D01*
X58105228Y-39774515D01*
X58124005Y-39729182D01*
X58147136Y-39685909D01*
X58174396Y-39645110D01*
X58205524Y-39607181D01*
X58240221Y-39572484D01*
X58278150Y-39541356D01*
X58318949Y-39514096D01*
X58362222Y-39490965D01*
X58407555Y-39472188D01*
X58454510Y-39457944D01*
X58502635Y-39448372D01*
X58551466Y-39443562D01*
X58576000Y-39443562D01*
X58576000Y-39442960D01*
X59076000Y-39442960D01*
X59076000Y-40942960D01*
X59076000Y-40942960D01*
G37*
D13*
X59876000Y-40192960D03*
D10*
G36*
X59876000Y-39443562D02*
G01*
X59900534Y-39443562D01*
X59949365Y-39448372D01*
X59997490Y-39457944D01*
X60044445Y-39472188D01*
X60089778Y-39490965D01*
X60133051Y-39514096D01*
X60173850Y-39541356D01*
X60211779Y-39572484D01*
X60246476Y-39607181D01*
X60277604Y-39645110D01*
X60304864Y-39685909D01*
X60327995Y-39729182D01*
X60346772Y-39774515D01*
X60361016Y-39821470D01*
X60370588Y-39869595D01*
X60375398Y-39918426D01*
X60375398Y-39942960D01*
X60376000Y-39942960D01*
X60376000Y-40442960D01*
X60375398Y-40442960D01*
X60375398Y-40467494D01*
X60370588Y-40516325D01*
X60361016Y-40564450D01*
X60346772Y-40611405D01*
X60327995Y-40656738D01*
X60304864Y-40700011D01*
X60277604Y-40740810D01*
X60246476Y-40778739D01*
X60211779Y-40813436D01*
X60173850Y-40844564D01*
X60133051Y-40871824D01*
X60089778Y-40894955D01*
X60044445Y-40913732D01*
X59997490Y-40927976D01*
X59949365Y-40937548D01*
X59900534Y-40942358D01*
X59876000Y-40942358D01*
X59876000Y-40942960D01*
X59376000Y-40942960D01*
X59376000Y-39442960D01*
X59876000Y-39442960D01*
X59876000Y-39443562D01*
X59876000Y-39443562D01*
G37*
D12*
X21380000Y-44510960D03*
D11*
X23920000Y-44510960D03*
X21380000Y-41970960D03*
X23920000Y-41970960D03*
X21380000Y-39430960D03*
X23920000Y-39430960D03*
X21380000Y-36890960D03*
X23920000Y-36890960D03*
X21380000Y-34350960D03*
X23920000Y-34350960D03*
D12*
X64100800Y-33054001D03*
D11*
X64100800Y-35594001D03*
X64100800Y-38134001D03*
X64100800Y-40674001D03*
X64100800Y-43214001D03*
X64100800Y-45754001D03*
D12*
X66592000Y-31810960D03*
D11*
X69132000Y-31810960D03*
D14*
X20872000Y-52130960D03*
D15*
X20872000Y-49590960D03*
D14*
X69259000Y-52130960D03*
D15*
X69259000Y-49590960D03*
D16*
X18586000Y-34350960D03*
X18586000Y-36890960D03*
X18586000Y-39430960D03*
X18586000Y-41970960D03*
D17*
X18586000Y-44510960D03*
X15665000Y-44510960D03*
D16*
X15665000Y-41970960D03*
X15665000Y-39430960D03*
X15665000Y-36890960D03*
X15665000Y-34350960D03*
D18*
X26056000Y-53146960D03*
X26056000Y-48646960D03*
X32556000Y-53146960D03*
X32556000Y-48646960D03*
X48304000Y-48646960D03*
X48304000Y-53146960D03*
X41804000Y-48646960D03*
X41804000Y-53146960D03*
X64052000Y-48646960D03*
X64052000Y-53146960D03*
X57552000Y-48646960D03*
X57552000Y-53146960D03*
X76117000Y-43390960D03*
X71617000Y-43390960D03*
X76117000Y-36890960D03*
X71617000Y-36890960D03*
D19*
X48329400Y-31556960D03*
X44062200Y-31556960D03*
X50844000Y-44129960D03*
X44052000Y-35200960D03*
X39252000Y-43600960D03*
X39261600Y-37856160D03*
D20*
X23920000Y-32572960D03*
X29254000Y-32826960D03*
X32708400Y-43393360D03*
X31384707Y-32722922D03*
X33523630Y-32217352D03*
X32543299Y-37132259D03*
X41662000Y-32572960D03*
X62223200Y-34274760D03*
X62223200Y-37754560D03*
X64814000Y-36890960D03*
X38906000Y-48066960D03*
X51352000Y-47558960D03*
X67354000Y-33842960D03*
X54146000Y-39684960D03*
X45764000Y-47812960D03*
X53892000Y-33309560D03*
X49574000Y-39430960D03*
D19*
X29254000Y-50098960D03*
D20*
X26841000Y-34731960D03*
X33521202Y-33155620D03*
X33445000Y-41081960D03*
X32556000Y-41843960D03*
X33445000Y-42605960D03*
X38017000Y-45653960D03*
X40049000Y-46288960D03*
X40049000Y-47304960D03*
X26282200Y-45298360D03*
X53257000Y-49463960D03*
X49574000Y-35366960D03*
X33521200Y-34173160D03*
X61232600Y-34935160D03*
X51479000Y-34731960D03*
X49554715Y-36238955D03*
X61613600Y-42732960D03*
D21*
X64100800Y-32850360D02*
X64100800Y-33054001D01*
X50844000Y-44129960D02*
X49828000Y-43113960D01*
X49828000Y-43113960D02*
X46780000Y-43113960D01*
D22*
X41192000Y-29270960D02*
X41192000Y-31048960D01*
X41700000Y-31556960D02*
X44062200Y-31556960D01*
X44062200Y-31556960D02*
X48329400Y-31556960D01*
X41192000Y-31048960D02*
X41700000Y-31556960D01*
D21*
X40302000Y-38950960D02*
X39252000Y-38950960D01*
X44052000Y-35200960D02*
X40302000Y-38950960D01*
X39252000Y-38950960D02*
X39252000Y-43600960D01*
X39252000Y-38950960D02*
X39252000Y-37865760D01*
X39252000Y-37865760D02*
X39261600Y-37856160D01*
D22*
X62603759Y-31556960D02*
X64100800Y-33054001D01*
X48329400Y-31556960D02*
X62603759Y-31556960D01*
X20872000Y-30882960D02*
X20872000Y-29270960D01*
X21546000Y-31556960D02*
X20872000Y-30882960D01*
X41192000Y-31048960D02*
X40709400Y-31531560D01*
X40709400Y-31531560D02*
X34562600Y-31531560D01*
X34232400Y-31201360D02*
X32835400Y-31201360D01*
X34562600Y-31531560D02*
X34232400Y-31201360D01*
X32835400Y-31201360D02*
X32479800Y-31556960D01*
X32479800Y-31556960D02*
X21546000Y-31556960D01*
D23*
X29000000Y-32572960D02*
X23920000Y-32572960D01*
X29254000Y-32826960D02*
X29000000Y-32572960D01*
X33523630Y-32217352D02*
X33018060Y-32722922D01*
X31851680Y-32722922D02*
X31384707Y-32722922D01*
X33018060Y-32722922D02*
X31851680Y-32722922D01*
X34969000Y-42834560D02*
X34969000Y-39557960D01*
X34969000Y-39557960D02*
X32873498Y-37462458D01*
X32873498Y-37462458D02*
X32543299Y-37132259D01*
X34410200Y-43393360D02*
X34969000Y-42834560D01*
X32708400Y-43393360D02*
X34410200Y-43393360D01*
X41662000Y-32572960D02*
X61258000Y-32572960D01*
X61258000Y-32572960D02*
X61283400Y-32572960D01*
X61283400Y-32572960D02*
X62197800Y-33487360D01*
X62197800Y-33487360D02*
X62197800Y-34249360D01*
X62197800Y-34249360D02*
X62223200Y-34274760D01*
X61308800Y-38668960D02*
X62223200Y-37754560D01*
X57651200Y-40192960D02*
X57092400Y-39634160D01*
X57092400Y-39634160D02*
X57092400Y-39049960D01*
X57092400Y-39049960D02*
X57473400Y-38668960D01*
X57473400Y-38668960D02*
X61308800Y-38668960D01*
X57651200Y-40192960D02*
X58576000Y-40192960D01*
X57552000Y-48646960D02*
X57552000Y-48678960D01*
X57552000Y-48678960D02*
X58718000Y-49844960D01*
X62854000Y-49844960D02*
X64052000Y-48646960D01*
X58718000Y-49844960D02*
X62854000Y-49844960D01*
X64052000Y-29270960D02*
X65322000Y-30540960D01*
X65322000Y-30540960D02*
X65322000Y-34096960D01*
X65322000Y-34096960D02*
X65068000Y-34350960D01*
X65068000Y-34350960D02*
X63544000Y-34350960D01*
X63544000Y-34350960D02*
X62815370Y-35079590D01*
X62815370Y-35079590D02*
X62815370Y-36095590D01*
X62815370Y-36095590D02*
X63610740Y-36890960D01*
X63610740Y-36890960D02*
X64814000Y-36890960D01*
X26056000Y-48646960D02*
X32556000Y-48646960D01*
X32556000Y-48646960D02*
X34516000Y-48646960D01*
X34516000Y-48646960D02*
X34588000Y-48574960D01*
X35096000Y-48066960D02*
X34588000Y-48574960D01*
X38906000Y-48066960D02*
X35096000Y-48066960D01*
X34588000Y-48574960D02*
X34516000Y-48646960D01*
X33246000Y-48646960D02*
X32556000Y-48646960D01*
X42462000Y-47177960D02*
X44113000Y-48828960D01*
X44113000Y-48828960D02*
X46018000Y-48828960D01*
X46018000Y-48828960D02*
X47669000Y-47177960D01*
X38906000Y-48066960D02*
X40303000Y-48066960D01*
X51352000Y-47558960D02*
X50971000Y-47177960D01*
X50971000Y-47177960D02*
X47669000Y-47177960D01*
X42462000Y-47177960D02*
X41192000Y-47177960D01*
X41192000Y-47177960D02*
X40303000Y-48066960D01*
X67862000Y-33334960D02*
X67354000Y-33842960D01*
X67862000Y-30540960D02*
X67862000Y-33334960D01*
X66592000Y-29270960D02*
X67862000Y-30540960D01*
X41804000Y-48646960D02*
X41804000Y-48678960D01*
X41804000Y-48678960D02*
X42716000Y-49590960D01*
X42716000Y-49590960D02*
X47360000Y-49590960D01*
X47360000Y-49590960D02*
X48304000Y-48646960D01*
X54146000Y-39684960D02*
X54146000Y-38287960D01*
X54146000Y-38287960D02*
X55289000Y-37144960D01*
X55289000Y-37144960D02*
X58576000Y-37144960D01*
X69386000Y-36890960D02*
X71617000Y-36890960D01*
X66592000Y-34096960D02*
X69386000Y-36890960D01*
X71617000Y-36890960D02*
X71617000Y-43390960D01*
X66592000Y-31810960D02*
X66592000Y-34096960D01*
X66592000Y-32246960D02*
X66592000Y-31810960D01*
X76117000Y-36890960D02*
X76117000Y-43390960D01*
X69132000Y-31810960D02*
X69132000Y-34096960D01*
X69132000Y-34096960D02*
X70402000Y-35366960D01*
X74593000Y-35366960D02*
X76117000Y-36890960D01*
X70402000Y-35366960D02*
X74593000Y-35366960D01*
X66719000Y-47050960D02*
X69259000Y-49590960D01*
X62274000Y-47050960D02*
X66719000Y-47050960D01*
X61766000Y-46542960D02*
X62274000Y-47050960D01*
X45764000Y-47812960D02*
X47034000Y-46542960D01*
X47034000Y-46542960D02*
X61766000Y-46542960D01*
X56178000Y-34096960D02*
X58576000Y-34096960D01*
X53892000Y-33309560D02*
X55390600Y-33309560D01*
X55390600Y-33309560D02*
X56178000Y-34096960D01*
X55981970Y-43240960D02*
X57453000Y-43240960D01*
X49574000Y-39430960D02*
X52171970Y-39430960D01*
X52171970Y-39430960D02*
X55981970Y-43240960D01*
X57453000Y-43240960D02*
X58561000Y-43240960D01*
D21*
X61512000Y-26730960D02*
X62782000Y-28000960D01*
X67862000Y-28000960D02*
X69132000Y-29270960D01*
X62782000Y-28000960D02*
X67862000Y-28000960D01*
X56432000Y-26730960D02*
X57702000Y-28000960D01*
X60242000Y-28000960D02*
X61512000Y-26730960D01*
X57702000Y-28000960D02*
X60242000Y-28000960D01*
X51352000Y-29270960D02*
X52622000Y-28000960D01*
X55162000Y-28000960D02*
X56432000Y-26730960D01*
X52622000Y-28000960D02*
X55162000Y-28000960D01*
X51352000Y-29270960D02*
X50082000Y-28000960D01*
X45002000Y-28000960D02*
X43732000Y-26730960D01*
X50082000Y-28000960D02*
X45002000Y-28000960D01*
X31032000Y-29270960D02*
X29762000Y-28000960D01*
X27222000Y-28000960D02*
X25952000Y-26730960D01*
X29762000Y-28000960D02*
X27222000Y-28000960D01*
X31032000Y-29270960D02*
X31032000Y-29016960D01*
X36112000Y-26730960D02*
X34842000Y-28000960D01*
X32302000Y-28000960D02*
X31032000Y-29270960D01*
X34842000Y-28000960D02*
X32302000Y-28000960D01*
X36112000Y-26730960D02*
X37382000Y-28000960D01*
X37382000Y-28000960D02*
X42462000Y-28000960D01*
X42462000Y-28000960D02*
X43732000Y-26730960D01*
D24*
X41804000Y-53146960D02*
X32556000Y-53146960D01*
X57552000Y-53146960D02*
X48304000Y-53146960D01*
X26056000Y-53146960D02*
X29254000Y-53146960D01*
X29254000Y-53146960D02*
X32556000Y-53146960D01*
X41804000Y-53146960D02*
X48304000Y-53146960D01*
X57552000Y-53146960D02*
X64052000Y-53146960D01*
X29254000Y-50098960D02*
X29254000Y-53146960D01*
D23*
X33040136Y-33155620D02*
X33054229Y-33155620D01*
X33054229Y-33155620D02*
X33521202Y-33155620D01*
X31463796Y-34731960D02*
X33040136Y-33155620D01*
X26841000Y-34731960D02*
X31463796Y-34731960D01*
X33445000Y-41081960D02*
X32302000Y-41081960D01*
X32302000Y-41081960D02*
X29381000Y-38160960D01*
X22650000Y-35620960D02*
X21380000Y-34350960D01*
X28873000Y-35620960D02*
X22650000Y-35620960D01*
X29381000Y-36128960D02*
X28873000Y-35620960D01*
X29381000Y-38160960D02*
X29381000Y-36128960D01*
X21380000Y-34350960D02*
X18586000Y-34350960D01*
X32175000Y-41843960D02*
X28492000Y-38160960D01*
X32556000Y-41843960D02*
X32175000Y-41843960D01*
X28492000Y-38160960D02*
X28365000Y-38160960D01*
X22396000Y-37906960D02*
X22650000Y-38160960D01*
X28492000Y-38160960D02*
X28365000Y-38160960D01*
X28365000Y-38160960D02*
X22650000Y-38160960D01*
X21380000Y-36890960D02*
X22396000Y-37906960D01*
X22396000Y-37906960D02*
X22523000Y-38033960D01*
X18586000Y-36890960D02*
X21380000Y-36890960D01*
X22650000Y-40700960D02*
X21380000Y-39430960D01*
X29889000Y-40700960D02*
X22650000Y-40700960D01*
X31794000Y-42605960D02*
X29889000Y-40700960D01*
X33445000Y-42605960D02*
X31794000Y-42605960D01*
X21380000Y-39430960D02*
X18586000Y-39430960D01*
X38017000Y-45653960D02*
X37255000Y-45653960D01*
X37509000Y-45653960D02*
X37255000Y-45653960D01*
X37255000Y-45653960D02*
X34207000Y-45653960D01*
X34207000Y-45653960D02*
X34080000Y-45653960D01*
X21380000Y-41970960D02*
X18586000Y-41970960D01*
X34207000Y-45653960D02*
X32810000Y-45653960D01*
X30397000Y-43240960D02*
X22650000Y-43240960D01*
X32810000Y-45653960D02*
X30397000Y-43240960D01*
X22650000Y-43240960D02*
X21380000Y-41970960D01*
X36239000Y-46288960D02*
X37128000Y-46288960D01*
X39160000Y-46288960D02*
X40049000Y-46288960D01*
X39033000Y-46415960D02*
X39160000Y-46288960D01*
X37255000Y-46415960D02*
X39033000Y-46415960D01*
X37128000Y-46288960D02*
X37255000Y-46415960D01*
X40049000Y-46288960D02*
X39287000Y-46288960D01*
X36366000Y-46288960D02*
X36239000Y-46288960D01*
X36239000Y-46288960D02*
X32302000Y-46288960D01*
X32302000Y-46288960D02*
X30524000Y-44510960D01*
X30524000Y-44510960D02*
X23920000Y-44510960D01*
X34842000Y-47304960D02*
X34461000Y-46923960D01*
X40049000Y-47304960D02*
X34842000Y-47304960D01*
X27907800Y-46923960D02*
X26282200Y-45298360D01*
X34461000Y-46923960D02*
X27907800Y-46923960D01*
X15741200Y-34350960D02*
X15792000Y-34350960D01*
X14014000Y-36078160D02*
X15741200Y-34350960D01*
X14014000Y-45526960D02*
X14014000Y-36078160D01*
X14903000Y-46415960D02*
X14014000Y-45526960D01*
X18205000Y-46415960D02*
X14903000Y-46415960D01*
X19475000Y-47685960D02*
X18205000Y-46415960D01*
X23920000Y-47685960D02*
X19475000Y-47685960D01*
X24555000Y-48320960D02*
X23920000Y-47685960D01*
X24555000Y-49844960D02*
X24555000Y-48320960D01*
X25444000Y-50733960D02*
X24555000Y-49844960D01*
X52114000Y-50606960D02*
X31286000Y-50606960D01*
X53257000Y-49463960D02*
X52114000Y-50606960D01*
X31286000Y-50606960D02*
X29889000Y-49209960D01*
X29889000Y-49209960D02*
X28365000Y-49209960D01*
X28365000Y-49209960D02*
X26841000Y-50733960D01*
X26841000Y-50733960D02*
X25444000Y-50733960D01*
X62603759Y-36636960D02*
X64100800Y-38134001D01*
X61385000Y-36636960D02*
X62603759Y-36636960D01*
X61385000Y-36636960D02*
X60877000Y-37144960D01*
X61080200Y-35824160D02*
X61385000Y-36128960D01*
X61385000Y-36128960D02*
X61385000Y-36636960D01*
X51047200Y-35824160D02*
X61080200Y-35824160D01*
X50590000Y-35366960D02*
X51047200Y-35824160D01*
X49574000Y-35366960D02*
X50590000Y-35366960D01*
X60877000Y-37144960D02*
X59876000Y-37144960D01*
X62504159Y-40674001D02*
X62502600Y-40675560D01*
X64100800Y-40674001D02*
X62504159Y-40674001D01*
X61004000Y-45069760D02*
X38474200Y-45069760D01*
X38474200Y-45069760D02*
X35680199Y-42275759D01*
X33851399Y-34503359D02*
X33521200Y-34173160D01*
X62502600Y-43571160D02*
X61004000Y-45069760D01*
X35680199Y-36332159D02*
X33851399Y-34503359D01*
X35680199Y-42275759D02*
X35680199Y-36332159D01*
X62502600Y-40675560D02*
X62502600Y-43571160D01*
X62502600Y-40675560D02*
X62502600Y-40345360D01*
X62502600Y-40345360D02*
X62350200Y-40192960D01*
X62350200Y-40192960D02*
X59876000Y-40192960D01*
X61142990Y-35024770D02*
X61232600Y-34935160D01*
X61334200Y-34833560D02*
X61334200Y-34274760D01*
X61232600Y-34935160D02*
X61334200Y-34833560D01*
X60800800Y-35366960D02*
X61232600Y-34935160D01*
X52580973Y-35366960D02*
X60800800Y-35366960D01*
X51479000Y-34731960D02*
X51945973Y-34731960D01*
X51945973Y-34731960D02*
X52580973Y-35366960D01*
X61156400Y-34096960D02*
X59876000Y-34096960D01*
X61334200Y-34274760D02*
X61156400Y-34096960D01*
X61613600Y-42732960D02*
X61613600Y-42732960D01*
X61613600Y-42732960D02*
X61105600Y-43240960D01*
X61105600Y-43240960D02*
X59861000Y-43240960D01*
X61613600Y-41970960D02*
X61613600Y-42732960D01*
X61359600Y-41716960D02*
X61613600Y-41970960D01*
X49554715Y-36238955D02*
X55032720Y-41716960D01*
X55032720Y-41716960D02*
X61359600Y-41716960D01*
D25*
G36*
X46975000Y-43873960D02*
G01*
X38320110Y-43873960D01*
X37929000Y-43482850D01*
X37929000Y-34927960D01*
X46975000Y-34927960D01*
X46975000Y-43873960D01*
X46975000Y-43873960D01*
G37*
X46975000Y-43873960D02*
X38320110Y-43873960D01*
X37929000Y-43482850D01*
X37929000Y-34927960D01*
X46975000Y-34927960D01*
X46975000Y-43873960D01*
M02*
