G04 #@! TF.GenerationSoftware,KiCad,Pcbnew,(5.1.4)-1*
G04 #@! TF.CreationDate,2019-10-21T18:14:15+01:00*
G04 #@! TF.ProjectId,rgb-to-hdmi,7267622d-746f-42d6-9864-6d692e6b6963,rev?*
G04 #@! TF.SameCoordinates,Original*
G04 #@! TF.FileFunction,Copper,L1,Top*
G04 #@! TF.FilePolarity,Positive*
%FSLAX46Y46*%
G04 Gerber Fmt 4.6, Leading zero omitted, Abs format (unit mm)*
G04 Created by KiCad (PCBNEW (5.1.4)-1) date 2019-10-21 18:14:15*
%MOMM*%
%LPD*%
G04 APERTURE LIST*
%ADD10O,1.700000X1.700000*%
%ADD11R,1.700000X1.700000*%
%ADD12R,1.800000X1.800000*%
%ADD13C,1.800000*%
%ADD14C,0.100000*%
%ADD15C,1.150000*%
%ADD16O,1.600000X1.600000*%
%ADD17R,1.600000X1.600000*%
%ADD18C,2.000000*%
%ADD19C,0.550000*%
%ADD20C,0.762000*%
%ADD21C,0.660400*%
%ADD22C,0.381000*%
%ADD23C,0.203200*%
%ADD24C,1.016000*%
%ADD25C,0.762000*%
%ADD26C,0.254000*%
G04 APERTURE END LIST*
D10*
X69132000Y-26730960D03*
X69132000Y-29270960D03*
X66592000Y-26730960D03*
X66592000Y-29270960D03*
X64052000Y-26730960D03*
X64052000Y-29270960D03*
X61512000Y-26730960D03*
X61512000Y-29270960D03*
X58972000Y-26730960D03*
X58972000Y-29270960D03*
X56432000Y-26730960D03*
X56432000Y-29270960D03*
X53892000Y-26730960D03*
X53892000Y-29270960D03*
X51352000Y-26730960D03*
X51352000Y-29270960D03*
X48812000Y-26730960D03*
X48812000Y-29270960D03*
X46272000Y-26730960D03*
X46272000Y-29270960D03*
X43732000Y-26730960D03*
X43732000Y-29270960D03*
X41192000Y-26730960D03*
X41192000Y-29270960D03*
X38652000Y-26730960D03*
X38652000Y-29270960D03*
X36112000Y-26730960D03*
X36112000Y-29270960D03*
X33572000Y-26730960D03*
X33572000Y-29270960D03*
X31032000Y-26730960D03*
X31032000Y-29270960D03*
X28492000Y-26730960D03*
X28492000Y-29270960D03*
X25952000Y-26730960D03*
X25952000Y-29270960D03*
X23412000Y-26730960D03*
X23412000Y-29270960D03*
X20872000Y-26730960D03*
D11*
X20872000Y-29270960D03*
X21380000Y-44510960D03*
D10*
X23920000Y-44510960D03*
X21380000Y-41970960D03*
X23920000Y-41970960D03*
X21380000Y-39430960D03*
X23920000Y-39430960D03*
X21380000Y-36890960D03*
X23920000Y-36890960D03*
X21380000Y-34350960D03*
X23920000Y-34350960D03*
D11*
X64100800Y-33054001D03*
D10*
X64100800Y-35594001D03*
X64100800Y-38134001D03*
X64100800Y-40674001D03*
X64100800Y-43214001D03*
X64100800Y-45754001D03*
D11*
X66592000Y-31810960D03*
D10*
X69132000Y-31810960D03*
D12*
X20872000Y-52130960D03*
D13*
X20872000Y-49590960D03*
D12*
X69259000Y-52130960D03*
D13*
X69259000Y-49590960D03*
D14*
G36*
X48898505Y-44701164D02*
G01*
X48922773Y-44704764D01*
X48946572Y-44710725D01*
X48969671Y-44718990D01*
X48991850Y-44729480D01*
X49012893Y-44742092D01*
X49032599Y-44756707D01*
X49050777Y-44773183D01*
X49067253Y-44791361D01*
X49081868Y-44811067D01*
X49094480Y-44832110D01*
X49104970Y-44854289D01*
X49113235Y-44877388D01*
X49119196Y-44901187D01*
X49122796Y-44925455D01*
X49124000Y-44949959D01*
X49124000Y-45849961D01*
X49122796Y-45874465D01*
X49119196Y-45898733D01*
X49113235Y-45922532D01*
X49104970Y-45945631D01*
X49094480Y-45967810D01*
X49081868Y-45988853D01*
X49067253Y-46008559D01*
X49050777Y-46026737D01*
X49032599Y-46043213D01*
X49012893Y-46057828D01*
X48991850Y-46070440D01*
X48969671Y-46080930D01*
X48946572Y-46089195D01*
X48922773Y-46095156D01*
X48898505Y-46098756D01*
X48874001Y-46099960D01*
X48223999Y-46099960D01*
X48199495Y-46098756D01*
X48175227Y-46095156D01*
X48151428Y-46089195D01*
X48128329Y-46080930D01*
X48106150Y-46070440D01*
X48085107Y-46057828D01*
X48065401Y-46043213D01*
X48047223Y-46026737D01*
X48030747Y-46008559D01*
X48016132Y-45988853D01*
X48003520Y-45967810D01*
X47993030Y-45945631D01*
X47984765Y-45922532D01*
X47978804Y-45898733D01*
X47975204Y-45874465D01*
X47974000Y-45849961D01*
X47974000Y-44949959D01*
X47975204Y-44925455D01*
X47978804Y-44901187D01*
X47984765Y-44877388D01*
X47993030Y-44854289D01*
X48003520Y-44832110D01*
X48016132Y-44811067D01*
X48030747Y-44791361D01*
X48047223Y-44773183D01*
X48065401Y-44756707D01*
X48085107Y-44742092D01*
X48106150Y-44729480D01*
X48128329Y-44718990D01*
X48151428Y-44710725D01*
X48175227Y-44704764D01*
X48199495Y-44701164D01*
X48223999Y-44699960D01*
X48874001Y-44699960D01*
X48898505Y-44701164D01*
X48898505Y-44701164D01*
G37*
D15*
X48549000Y-45399960D03*
D14*
G36*
X50948505Y-44701164D02*
G01*
X50972773Y-44704764D01*
X50996572Y-44710725D01*
X51019671Y-44718990D01*
X51041850Y-44729480D01*
X51062893Y-44742092D01*
X51082599Y-44756707D01*
X51100777Y-44773183D01*
X51117253Y-44791361D01*
X51131868Y-44811067D01*
X51144480Y-44832110D01*
X51154970Y-44854289D01*
X51163235Y-44877388D01*
X51169196Y-44901187D01*
X51172796Y-44925455D01*
X51174000Y-44949959D01*
X51174000Y-45849961D01*
X51172796Y-45874465D01*
X51169196Y-45898733D01*
X51163235Y-45922532D01*
X51154970Y-45945631D01*
X51144480Y-45967810D01*
X51131868Y-45988853D01*
X51117253Y-46008559D01*
X51100777Y-46026737D01*
X51082599Y-46043213D01*
X51062893Y-46057828D01*
X51041850Y-46070440D01*
X51019671Y-46080930D01*
X50996572Y-46089195D01*
X50972773Y-46095156D01*
X50948505Y-46098756D01*
X50924001Y-46099960D01*
X50273999Y-46099960D01*
X50249495Y-46098756D01*
X50225227Y-46095156D01*
X50201428Y-46089195D01*
X50178329Y-46080930D01*
X50156150Y-46070440D01*
X50135107Y-46057828D01*
X50115401Y-46043213D01*
X50097223Y-46026737D01*
X50080747Y-46008559D01*
X50066132Y-45988853D01*
X50053520Y-45967810D01*
X50043030Y-45945631D01*
X50034765Y-45922532D01*
X50028804Y-45898733D01*
X50025204Y-45874465D01*
X50024000Y-45849961D01*
X50024000Y-44949959D01*
X50025204Y-44925455D01*
X50028804Y-44901187D01*
X50034765Y-44877388D01*
X50043030Y-44854289D01*
X50053520Y-44832110D01*
X50066132Y-44811067D01*
X50080747Y-44791361D01*
X50097223Y-44773183D01*
X50115401Y-44756707D01*
X50135107Y-44742092D01*
X50156150Y-44729480D01*
X50178329Y-44718990D01*
X50201428Y-44710725D01*
X50225227Y-44704764D01*
X50249495Y-44701164D01*
X50273999Y-44699960D01*
X50924001Y-44699960D01*
X50948505Y-44701164D01*
X50948505Y-44701164D01*
G37*
D15*
X50599000Y-45399960D03*
D14*
G36*
X34808505Y-37088164D02*
G01*
X34832773Y-37091764D01*
X34856572Y-37097725D01*
X34879671Y-37105990D01*
X34901850Y-37116480D01*
X34922893Y-37129092D01*
X34942599Y-37143707D01*
X34960777Y-37160183D01*
X34977253Y-37178361D01*
X34991868Y-37198067D01*
X35004480Y-37219110D01*
X35014970Y-37241289D01*
X35023235Y-37264388D01*
X35029196Y-37288187D01*
X35032796Y-37312455D01*
X35034000Y-37336959D01*
X35034000Y-37986961D01*
X35032796Y-38011465D01*
X35029196Y-38035733D01*
X35023235Y-38059532D01*
X35014970Y-38082631D01*
X35004480Y-38104810D01*
X34991868Y-38125853D01*
X34977253Y-38145559D01*
X34960777Y-38163737D01*
X34942599Y-38180213D01*
X34922893Y-38194828D01*
X34901850Y-38207440D01*
X34879671Y-38217930D01*
X34856572Y-38226195D01*
X34832773Y-38232156D01*
X34808505Y-38235756D01*
X34784001Y-38236960D01*
X33883999Y-38236960D01*
X33859495Y-38235756D01*
X33835227Y-38232156D01*
X33811428Y-38226195D01*
X33788329Y-38217930D01*
X33766150Y-38207440D01*
X33745107Y-38194828D01*
X33725401Y-38180213D01*
X33707223Y-38163737D01*
X33690747Y-38145559D01*
X33676132Y-38125853D01*
X33663520Y-38104810D01*
X33653030Y-38082631D01*
X33644765Y-38059532D01*
X33638804Y-38035733D01*
X33635204Y-38011465D01*
X33634000Y-37986961D01*
X33634000Y-37336959D01*
X33635204Y-37312455D01*
X33638804Y-37288187D01*
X33644765Y-37264388D01*
X33653030Y-37241289D01*
X33663520Y-37219110D01*
X33676132Y-37198067D01*
X33690747Y-37178361D01*
X33707223Y-37160183D01*
X33725401Y-37143707D01*
X33745107Y-37129092D01*
X33766150Y-37116480D01*
X33788329Y-37105990D01*
X33811428Y-37097725D01*
X33835227Y-37091764D01*
X33859495Y-37088164D01*
X33883999Y-37086960D01*
X34784001Y-37086960D01*
X34808505Y-37088164D01*
X34808505Y-37088164D01*
G37*
D15*
X34334000Y-37661960D03*
D14*
G36*
X34808505Y-35038164D02*
G01*
X34832773Y-35041764D01*
X34856572Y-35047725D01*
X34879671Y-35055990D01*
X34901850Y-35066480D01*
X34922893Y-35079092D01*
X34942599Y-35093707D01*
X34960777Y-35110183D01*
X34977253Y-35128361D01*
X34991868Y-35148067D01*
X35004480Y-35169110D01*
X35014970Y-35191289D01*
X35023235Y-35214388D01*
X35029196Y-35238187D01*
X35032796Y-35262455D01*
X35034000Y-35286959D01*
X35034000Y-35936961D01*
X35032796Y-35961465D01*
X35029196Y-35985733D01*
X35023235Y-36009532D01*
X35014970Y-36032631D01*
X35004480Y-36054810D01*
X34991868Y-36075853D01*
X34977253Y-36095559D01*
X34960777Y-36113737D01*
X34942599Y-36130213D01*
X34922893Y-36144828D01*
X34901850Y-36157440D01*
X34879671Y-36167930D01*
X34856572Y-36176195D01*
X34832773Y-36182156D01*
X34808505Y-36185756D01*
X34784001Y-36186960D01*
X33883999Y-36186960D01*
X33859495Y-36185756D01*
X33835227Y-36182156D01*
X33811428Y-36176195D01*
X33788329Y-36167930D01*
X33766150Y-36157440D01*
X33745107Y-36144828D01*
X33725401Y-36130213D01*
X33707223Y-36113737D01*
X33690747Y-36095559D01*
X33676132Y-36075853D01*
X33663520Y-36054810D01*
X33653030Y-36032631D01*
X33644765Y-36009532D01*
X33638804Y-35985733D01*
X33635204Y-35961465D01*
X33634000Y-35936961D01*
X33634000Y-35286959D01*
X33635204Y-35262455D01*
X33638804Y-35238187D01*
X33644765Y-35214388D01*
X33653030Y-35191289D01*
X33663520Y-35169110D01*
X33676132Y-35148067D01*
X33690747Y-35128361D01*
X33707223Y-35110183D01*
X33725401Y-35093707D01*
X33745107Y-35079092D01*
X33766150Y-35066480D01*
X33788329Y-35055990D01*
X33811428Y-35047725D01*
X33835227Y-35041764D01*
X33859495Y-35038164D01*
X33883999Y-35036960D01*
X34784001Y-35036960D01*
X34808505Y-35038164D01*
X34808505Y-35038164D01*
G37*
D15*
X34334000Y-35611960D03*
D14*
G36*
X48898505Y-32636164D02*
G01*
X48922773Y-32639764D01*
X48946572Y-32645725D01*
X48969671Y-32653990D01*
X48991850Y-32664480D01*
X49012893Y-32677092D01*
X49032599Y-32691707D01*
X49050777Y-32708183D01*
X49067253Y-32726361D01*
X49081868Y-32746067D01*
X49094480Y-32767110D01*
X49104970Y-32789289D01*
X49113235Y-32812388D01*
X49119196Y-32836187D01*
X49122796Y-32860455D01*
X49124000Y-32884959D01*
X49124000Y-33784961D01*
X49122796Y-33809465D01*
X49119196Y-33833733D01*
X49113235Y-33857532D01*
X49104970Y-33880631D01*
X49094480Y-33902810D01*
X49081868Y-33923853D01*
X49067253Y-33943559D01*
X49050777Y-33961737D01*
X49032599Y-33978213D01*
X49012893Y-33992828D01*
X48991850Y-34005440D01*
X48969671Y-34015930D01*
X48946572Y-34024195D01*
X48922773Y-34030156D01*
X48898505Y-34033756D01*
X48874001Y-34034960D01*
X48223999Y-34034960D01*
X48199495Y-34033756D01*
X48175227Y-34030156D01*
X48151428Y-34024195D01*
X48128329Y-34015930D01*
X48106150Y-34005440D01*
X48085107Y-33992828D01*
X48065401Y-33978213D01*
X48047223Y-33961737D01*
X48030747Y-33943559D01*
X48016132Y-33923853D01*
X48003520Y-33902810D01*
X47993030Y-33880631D01*
X47984765Y-33857532D01*
X47978804Y-33833733D01*
X47975204Y-33809465D01*
X47974000Y-33784961D01*
X47974000Y-32884959D01*
X47975204Y-32860455D01*
X47978804Y-32836187D01*
X47984765Y-32812388D01*
X47993030Y-32789289D01*
X48003520Y-32767110D01*
X48016132Y-32746067D01*
X48030747Y-32726361D01*
X48047223Y-32708183D01*
X48065401Y-32691707D01*
X48085107Y-32677092D01*
X48106150Y-32664480D01*
X48128329Y-32653990D01*
X48151428Y-32645725D01*
X48175227Y-32639764D01*
X48199495Y-32636164D01*
X48223999Y-32634960D01*
X48874001Y-32634960D01*
X48898505Y-32636164D01*
X48898505Y-32636164D01*
G37*
D15*
X48549000Y-33334960D03*
D14*
G36*
X50948505Y-32636164D02*
G01*
X50972773Y-32639764D01*
X50996572Y-32645725D01*
X51019671Y-32653990D01*
X51041850Y-32664480D01*
X51062893Y-32677092D01*
X51082599Y-32691707D01*
X51100777Y-32708183D01*
X51117253Y-32726361D01*
X51131868Y-32746067D01*
X51144480Y-32767110D01*
X51154970Y-32789289D01*
X51163235Y-32812388D01*
X51169196Y-32836187D01*
X51172796Y-32860455D01*
X51174000Y-32884959D01*
X51174000Y-33784961D01*
X51172796Y-33809465D01*
X51169196Y-33833733D01*
X51163235Y-33857532D01*
X51154970Y-33880631D01*
X51144480Y-33902810D01*
X51131868Y-33923853D01*
X51117253Y-33943559D01*
X51100777Y-33961737D01*
X51082599Y-33978213D01*
X51062893Y-33992828D01*
X51041850Y-34005440D01*
X51019671Y-34015930D01*
X50996572Y-34024195D01*
X50972773Y-34030156D01*
X50948505Y-34033756D01*
X50924001Y-34034960D01*
X50273999Y-34034960D01*
X50249495Y-34033756D01*
X50225227Y-34030156D01*
X50201428Y-34024195D01*
X50178329Y-34015930D01*
X50156150Y-34005440D01*
X50135107Y-33992828D01*
X50115401Y-33978213D01*
X50097223Y-33961737D01*
X50080747Y-33943559D01*
X50066132Y-33923853D01*
X50053520Y-33902810D01*
X50043030Y-33880631D01*
X50034765Y-33857532D01*
X50028804Y-33833733D01*
X50025204Y-33809465D01*
X50024000Y-33784961D01*
X50024000Y-32884959D01*
X50025204Y-32860455D01*
X50028804Y-32836187D01*
X50034765Y-32812388D01*
X50043030Y-32789289D01*
X50053520Y-32767110D01*
X50066132Y-32746067D01*
X50080747Y-32726361D01*
X50097223Y-32708183D01*
X50115401Y-32691707D01*
X50135107Y-32677092D01*
X50156150Y-32664480D01*
X50178329Y-32653990D01*
X50201428Y-32645725D01*
X50225227Y-32639764D01*
X50249495Y-32636164D01*
X50273999Y-32634960D01*
X50924001Y-32634960D01*
X50948505Y-32636164D01*
X50948505Y-32636164D01*
G37*
D15*
X50599000Y-33334960D03*
D14*
G36*
X34674505Y-44828164D02*
G01*
X34698773Y-44831764D01*
X34722572Y-44837725D01*
X34745671Y-44845990D01*
X34767850Y-44856480D01*
X34788893Y-44869092D01*
X34808599Y-44883707D01*
X34826777Y-44900183D01*
X34843253Y-44918361D01*
X34857868Y-44938067D01*
X34870480Y-44959110D01*
X34880970Y-44981289D01*
X34889235Y-45004388D01*
X34895196Y-45028187D01*
X34898796Y-45052455D01*
X34900000Y-45076959D01*
X34900000Y-45976961D01*
X34898796Y-46001465D01*
X34895196Y-46025733D01*
X34889235Y-46049532D01*
X34880970Y-46072631D01*
X34870480Y-46094810D01*
X34857868Y-46115853D01*
X34843253Y-46135559D01*
X34826777Y-46153737D01*
X34808599Y-46170213D01*
X34788893Y-46184828D01*
X34767850Y-46197440D01*
X34745671Y-46207930D01*
X34722572Y-46216195D01*
X34698773Y-46222156D01*
X34674505Y-46225756D01*
X34650001Y-46226960D01*
X33999999Y-46226960D01*
X33975495Y-46225756D01*
X33951227Y-46222156D01*
X33927428Y-46216195D01*
X33904329Y-46207930D01*
X33882150Y-46197440D01*
X33861107Y-46184828D01*
X33841401Y-46170213D01*
X33823223Y-46153737D01*
X33806747Y-46135559D01*
X33792132Y-46115853D01*
X33779520Y-46094810D01*
X33769030Y-46072631D01*
X33760765Y-46049532D01*
X33754804Y-46025733D01*
X33751204Y-46001465D01*
X33750000Y-45976961D01*
X33750000Y-45076959D01*
X33751204Y-45052455D01*
X33754804Y-45028187D01*
X33760765Y-45004388D01*
X33769030Y-44981289D01*
X33779520Y-44959110D01*
X33792132Y-44938067D01*
X33806747Y-44918361D01*
X33823223Y-44900183D01*
X33841401Y-44883707D01*
X33861107Y-44869092D01*
X33882150Y-44856480D01*
X33904329Y-44845990D01*
X33927428Y-44837725D01*
X33951227Y-44831764D01*
X33975495Y-44828164D01*
X33999999Y-44826960D01*
X34650001Y-44826960D01*
X34674505Y-44828164D01*
X34674505Y-44828164D01*
G37*
D15*
X34325000Y-45526960D03*
D14*
G36*
X36724505Y-44828164D02*
G01*
X36748773Y-44831764D01*
X36772572Y-44837725D01*
X36795671Y-44845990D01*
X36817850Y-44856480D01*
X36838893Y-44869092D01*
X36858599Y-44883707D01*
X36876777Y-44900183D01*
X36893253Y-44918361D01*
X36907868Y-44938067D01*
X36920480Y-44959110D01*
X36930970Y-44981289D01*
X36939235Y-45004388D01*
X36945196Y-45028187D01*
X36948796Y-45052455D01*
X36950000Y-45076959D01*
X36950000Y-45976961D01*
X36948796Y-46001465D01*
X36945196Y-46025733D01*
X36939235Y-46049532D01*
X36930970Y-46072631D01*
X36920480Y-46094810D01*
X36907868Y-46115853D01*
X36893253Y-46135559D01*
X36876777Y-46153737D01*
X36858599Y-46170213D01*
X36838893Y-46184828D01*
X36817850Y-46197440D01*
X36795671Y-46207930D01*
X36772572Y-46216195D01*
X36748773Y-46222156D01*
X36724505Y-46225756D01*
X36700001Y-46226960D01*
X36049999Y-46226960D01*
X36025495Y-46225756D01*
X36001227Y-46222156D01*
X35977428Y-46216195D01*
X35954329Y-46207930D01*
X35932150Y-46197440D01*
X35911107Y-46184828D01*
X35891401Y-46170213D01*
X35873223Y-46153737D01*
X35856747Y-46135559D01*
X35842132Y-46115853D01*
X35829520Y-46094810D01*
X35819030Y-46072631D01*
X35810765Y-46049532D01*
X35804804Y-46025733D01*
X35801204Y-46001465D01*
X35800000Y-45976961D01*
X35800000Y-45076959D01*
X35801204Y-45052455D01*
X35804804Y-45028187D01*
X35810765Y-45004388D01*
X35819030Y-44981289D01*
X35829520Y-44959110D01*
X35842132Y-44938067D01*
X35856747Y-44918361D01*
X35873223Y-44900183D01*
X35891401Y-44883707D01*
X35911107Y-44869092D01*
X35932150Y-44856480D01*
X35954329Y-44845990D01*
X35977428Y-44837725D01*
X36001227Y-44831764D01*
X36025495Y-44828164D01*
X36049999Y-44826960D01*
X36700001Y-44826960D01*
X36724505Y-44828164D01*
X36724505Y-44828164D01*
G37*
D15*
X36375000Y-45526960D03*
D14*
G36*
X35570505Y-49262164D02*
G01*
X35594773Y-49265764D01*
X35618572Y-49271725D01*
X35641671Y-49279990D01*
X35663850Y-49290480D01*
X35684893Y-49303092D01*
X35704599Y-49317707D01*
X35722777Y-49334183D01*
X35739253Y-49352361D01*
X35753868Y-49372067D01*
X35766480Y-49393110D01*
X35776970Y-49415289D01*
X35785235Y-49438388D01*
X35791196Y-49462187D01*
X35794796Y-49486455D01*
X35796000Y-49510959D01*
X35796000Y-50160961D01*
X35794796Y-50185465D01*
X35791196Y-50209733D01*
X35785235Y-50233532D01*
X35776970Y-50256631D01*
X35766480Y-50278810D01*
X35753868Y-50299853D01*
X35739253Y-50319559D01*
X35722777Y-50337737D01*
X35704599Y-50354213D01*
X35684893Y-50368828D01*
X35663850Y-50381440D01*
X35641671Y-50391930D01*
X35618572Y-50400195D01*
X35594773Y-50406156D01*
X35570505Y-50409756D01*
X35546001Y-50410960D01*
X34645999Y-50410960D01*
X34621495Y-50409756D01*
X34597227Y-50406156D01*
X34573428Y-50400195D01*
X34550329Y-50391930D01*
X34528150Y-50381440D01*
X34507107Y-50368828D01*
X34487401Y-50354213D01*
X34469223Y-50337737D01*
X34452747Y-50319559D01*
X34438132Y-50299853D01*
X34425520Y-50278810D01*
X34415030Y-50256631D01*
X34406765Y-50233532D01*
X34400804Y-50209733D01*
X34397204Y-50185465D01*
X34396000Y-50160961D01*
X34396000Y-49510959D01*
X34397204Y-49486455D01*
X34400804Y-49462187D01*
X34406765Y-49438388D01*
X34415030Y-49415289D01*
X34425520Y-49393110D01*
X34438132Y-49372067D01*
X34452747Y-49352361D01*
X34469223Y-49334183D01*
X34487401Y-49317707D01*
X34507107Y-49303092D01*
X34528150Y-49290480D01*
X34550329Y-49279990D01*
X34573428Y-49271725D01*
X34597227Y-49265764D01*
X34621495Y-49262164D01*
X34645999Y-49260960D01*
X35546001Y-49260960D01*
X35570505Y-49262164D01*
X35570505Y-49262164D01*
G37*
D15*
X35096000Y-49835960D03*
D14*
G36*
X35570505Y-51312164D02*
G01*
X35594773Y-51315764D01*
X35618572Y-51321725D01*
X35641671Y-51329990D01*
X35663850Y-51340480D01*
X35684893Y-51353092D01*
X35704599Y-51367707D01*
X35722777Y-51384183D01*
X35739253Y-51402361D01*
X35753868Y-51422067D01*
X35766480Y-51443110D01*
X35776970Y-51465289D01*
X35785235Y-51488388D01*
X35791196Y-51512187D01*
X35794796Y-51536455D01*
X35796000Y-51560959D01*
X35796000Y-52210961D01*
X35794796Y-52235465D01*
X35791196Y-52259733D01*
X35785235Y-52283532D01*
X35776970Y-52306631D01*
X35766480Y-52328810D01*
X35753868Y-52349853D01*
X35739253Y-52369559D01*
X35722777Y-52387737D01*
X35704599Y-52404213D01*
X35684893Y-52418828D01*
X35663850Y-52431440D01*
X35641671Y-52441930D01*
X35618572Y-52450195D01*
X35594773Y-52456156D01*
X35570505Y-52459756D01*
X35546001Y-52460960D01*
X34645999Y-52460960D01*
X34621495Y-52459756D01*
X34597227Y-52456156D01*
X34573428Y-52450195D01*
X34550329Y-52441930D01*
X34528150Y-52431440D01*
X34507107Y-52418828D01*
X34487401Y-52404213D01*
X34469223Y-52387737D01*
X34452747Y-52369559D01*
X34438132Y-52349853D01*
X34425520Y-52328810D01*
X34415030Y-52306631D01*
X34406765Y-52283532D01*
X34400804Y-52259733D01*
X34397204Y-52235465D01*
X34396000Y-52210961D01*
X34396000Y-51560959D01*
X34397204Y-51536455D01*
X34400804Y-51512187D01*
X34406765Y-51488388D01*
X34415030Y-51465289D01*
X34425520Y-51443110D01*
X34438132Y-51422067D01*
X34452747Y-51402361D01*
X34469223Y-51384183D01*
X34487401Y-51367707D01*
X34507107Y-51353092D01*
X34528150Y-51340480D01*
X34550329Y-51329990D01*
X34573428Y-51321725D01*
X34597227Y-51315764D01*
X34621495Y-51312164D01*
X34645999Y-51310960D01*
X35546001Y-51310960D01*
X35570505Y-51312164D01*
X35570505Y-51312164D01*
G37*
D15*
X35096000Y-51885960D03*
D14*
G36*
X39634505Y-49262164D02*
G01*
X39658773Y-49265764D01*
X39682572Y-49271725D01*
X39705671Y-49279990D01*
X39727850Y-49290480D01*
X39748893Y-49303092D01*
X39768599Y-49317707D01*
X39786777Y-49334183D01*
X39803253Y-49352361D01*
X39817868Y-49372067D01*
X39830480Y-49393110D01*
X39840970Y-49415289D01*
X39849235Y-49438388D01*
X39855196Y-49462187D01*
X39858796Y-49486455D01*
X39860000Y-49510959D01*
X39860000Y-50160961D01*
X39858796Y-50185465D01*
X39855196Y-50209733D01*
X39849235Y-50233532D01*
X39840970Y-50256631D01*
X39830480Y-50278810D01*
X39817868Y-50299853D01*
X39803253Y-50319559D01*
X39786777Y-50337737D01*
X39768599Y-50354213D01*
X39748893Y-50368828D01*
X39727850Y-50381440D01*
X39705671Y-50391930D01*
X39682572Y-50400195D01*
X39658773Y-50406156D01*
X39634505Y-50409756D01*
X39610001Y-50410960D01*
X38709999Y-50410960D01*
X38685495Y-50409756D01*
X38661227Y-50406156D01*
X38637428Y-50400195D01*
X38614329Y-50391930D01*
X38592150Y-50381440D01*
X38571107Y-50368828D01*
X38551401Y-50354213D01*
X38533223Y-50337737D01*
X38516747Y-50319559D01*
X38502132Y-50299853D01*
X38489520Y-50278810D01*
X38479030Y-50256631D01*
X38470765Y-50233532D01*
X38464804Y-50209733D01*
X38461204Y-50185465D01*
X38460000Y-50160961D01*
X38460000Y-49510959D01*
X38461204Y-49486455D01*
X38464804Y-49462187D01*
X38470765Y-49438388D01*
X38479030Y-49415289D01*
X38489520Y-49393110D01*
X38502132Y-49372067D01*
X38516747Y-49352361D01*
X38533223Y-49334183D01*
X38551401Y-49317707D01*
X38571107Y-49303092D01*
X38592150Y-49290480D01*
X38614329Y-49279990D01*
X38637428Y-49271725D01*
X38661227Y-49265764D01*
X38685495Y-49262164D01*
X38709999Y-49260960D01*
X39610001Y-49260960D01*
X39634505Y-49262164D01*
X39634505Y-49262164D01*
G37*
D15*
X39160000Y-49835960D03*
D14*
G36*
X39634505Y-51312164D02*
G01*
X39658773Y-51315764D01*
X39682572Y-51321725D01*
X39705671Y-51329990D01*
X39727850Y-51340480D01*
X39748893Y-51353092D01*
X39768599Y-51367707D01*
X39786777Y-51384183D01*
X39803253Y-51402361D01*
X39817868Y-51422067D01*
X39830480Y-51443110D01*
X39840970Y-51465289D01*
X39849235Y-51488388D01*
X39855196Y-51512187D01*
X39858796Y-51536455D01*
X39860000Y-51560959D01*
X39860000Y-52210961D01*
X39858796Y-52235465D01*
X39855196Y-52259733D01*
X39849235Y-52283532D01*
X39840970Y-52306631D01*
X39830480Y-52328810D01*
X39817868Y-52349853D01*
X39803253Y-52369559D01*
X39786777Y-52387737D01*
X39768599Y-52404213D01*
X39748893Y-52418828D01*
X39727850Y-52431440D01*
X39705671Y-52441930D01*
X39682572Y-52450195D01*
X39658773Y-52456156D01*
X39634505Y-52459756D01*
X39610001Y-52460960D01*
X38709999Y-52460960D01*
X38685495Y-52459756D01*
X38661227Y-52456156D01*
X38637428Y-52450195D01*
X38614329Y-52441930D01*
X38592150Y-52431440D01*
X38571107Y-52418828D01*
X38551401Y-52404213D01*
X38533223Y-52387737D01*
X38516747Y-52369559D01*
X38502132Y-52349853D01*
X38489520Y-52328810D01*
X38479030Y-52306631D01*
X38470765Y-52283532D01*
X38464804Y-52259733D01*
X38461204Y-52235465D01*
X38460000Y-52210961D01*
X38460000Y-51560959D01*
X38461204Y-51536455D01*
X38464804Y-51512187D01*
X38470765Y-51488388D01*
X38479030Y-51465289D01*
X38489520Y-51443110D01*
X38502132Y-51422067D01*
X38516747Y-51402361D01*
X38533223Y-51384183D01*
X38551401Y-51367707D01*
X38571107Y-51353092D01*
X38592150Y-51340480D01*
X38614329Y-51329990D01*
X38637428Y-51321725D01*
X38661227Y-51315764D01*
X38685495Y-51312164D01*
X38709999Y-51310960D01*
X39610001Y-51310960D01*
X39634505Y-51312164D01*
X39634505Y-51312164D01*
G37*
D15*
X39160000Y-51885960D03*
D14*
G36*
X55382505Y-49262164D02*
G01*
X55406773Y-49265764D01*
X55430572Y-49271725D01*
X55453671Y-49279990D01*
X55475850Y-49290480D01*
X55496893Y-49303092D01*
X55516599Y-49317707D01*
X55534777Y-49334183D01*
X55551253Y-49352361D01*
X55565868Y-49372067D01*
X55578480Y-49393110D01*
X55588970Y-49415289D01*
X55597235Y-49438388D01*
X55603196Y-49462187D01*
X55606796Y-49486455D01*
X55608000Y-49510959D01*
X55608000Y-50160961D01*
X55606796Y-50185465D01*
X55603196Y-50209733D01*
X55597235Y-50233532D01*
X55588970Y-50256631D01*
X55578480Y-50278810D01*
X55565868Y-50299853D01*
X55551253Y-50319559D01*
X55534777Y-50337737D01*
X55516599Y-50354213D01*
X55496893Y-50368828D01*
X55475850Y-50381440D01*
X55453671Y-50391930D01*
X55430572Y-50400195D01*
X55406773Y-50406156D01*
X55382505Y-50409756D01*
X55358001Y-50410960D01*
X54457999Y-50410960D01*
X54433495Y-50409756D01*
X54409227Y-50406156D01*
X54385428Y-50400195D01*
X54362329Y-50391930D01*
X54340150Y-50381440D01*
X54319107Y-50368828D01*
X54299401Y-50354213D01*
X54281223Y-50337737D01*
X54264747Y-50319559D01*
X54250132Y-50299853D01*
X54237520Y-50278810D01*
X54227030Y-50256631D01*
X54218765Y-50233532D01*
X54212804Y-50209733D01*
X54209204Y-50185465D01*
X54208000Y-50160961D01*
X54208000Y-49510959D01*
X54209204Y-49486455D01*
X54212804Y-49462187D01*
X54218765Y-49438388D01*
X54227030Y-49415289D01*
X54237520Y-49393110D01*
X54250132Y-49372067D01*
X54264747Y-49352361D01*
X54281223Y-49334183D01*
X54299401Y-49317707D01*
X54319107Y-49303092D01*
X54340150Y-49290480D01*
X54362329Y-49279990D01*
X54385428Y-49271725D01*
X54409227Y-49265764D01*
X54433495Y-49262164D01*
X54457999Y-49260960D01*
X55358001Y-49260960D01*
X55382505Y-49262164D01*
X55382505Y-49262164D01*
G37*
D15*
X54908000Y-49835960D03*
D14*
G36*
X55382505Y-51312164D02*
G01*
X55406773Y-51315764D01*
X55430572Y-51321725D01*
X55453671Y-51329990D01*
X55475850Y-51340480D01*
X55496893Y-51353092D01*
X55516599Y-51367707D01*
X55534777Y-51384183D01*
X55551253Y-51402361D01*
X55565868Y-51422067D01*
X55578480Y-51443110D01*
X55588970Y-51465289D01*
X55597235Y-51488388D01*
X55603196Y-51512187D01*
X55606796Y-51536455D01*
X55608000Y-51560959D01*
X55608000Y-52210961D01*
X55606796Y-52235465D01*
X55603196Y-52259733D01*
X55597235Y-52283532D01*
X55588970Y-52306631D01*
X55578480Y-52328810D01*
X55565868Y-52349853D01*
X55551253Y-52369559D01*
X55534777Y-52387737D01*
X55516599Y-52404213D01*
X55496893Y-52418828D01*
X55475850Y-52431440D01*
X55453671Y-52441930D01*
X55430572Y-52450195D01*
X55406773Y-52456156D01*
X55382505Y-52459756D01*
X55358001Y-52460960D01*
X54457999Y-52460960D01*
X54433495Y-52459756D01*
X54409227Y-52456156D01*
X54385428Y-52450195D01*
X54362329Y-52441930D01*
X54340150Y-52431440D01*
X54319107Y-52418828D01*
X54299401Y-52404213D01*
X54281223Y-52387737D01*
X54264747Y-52369559D01*
X54250132Y-52349853D01*
X54237520Y-52328810D01*
X54227030Y-52306631D01*
X54218765Y-52283532D01*
X54212804Y-52259733D01*
X54209204Y-52235465D01*
X54208000Y-52210961D01*
X54208000Y-51560959D01*
X54209204Y-51536455D01*
X54212804Y-51512187D01*
X54218765Y-51488388D01*
X54227030Y-51465289D01*
X54237520Y-51443110D01*
X54250132Y-51422067D01*
X54264747Y-51402361D01*
X54281223Y-51384183D01*
X54299401Y-51367707D01*
X54319107Y-51353092D01*
X54340150Y-51340480D01*
X54362329Y-51329990D01*
X54385428Y-51321725D01*
X54409227Y-51315764D01*
X54433495Y-51312164D01*
X54457999Y-51310960D01*
X55358001Y-51310960D01*
X55382505Y-51312164D01*
X55382505Y-51312164D01*
G37*
D15*
X54908000Y-51885960D03*
D14*
G36*
X23886505Y-51312164D02*
G01*
X23910773Y-51315764D01*
X23934572Y-51321725D01*
X23957671Y-51329990D01*
X23979850Y-51340480D01*
X24000893Y-51353092D01*
X24020599Y-51367707D01*
X24038777Y-51384183D01*
X24055253Y-51402361D01*
X24069868Y-51422067D01*
X24082480Y-51443110D01*
X24092970Y-51465289D01*
X24101235Y-51488388D01*
X24107196Y-51512187D01*
X24110796Y-51536455D01*
X24112000Y-51560959D01*
X24112000Y-52210961D01*
X24110796Y-52235465D01*
X24107196Y-52259733D01*
X24101235Y-52283532D01*
X24092970Y-52306631D01*
X24082480Y-52328810D01*
X24069868Y-52349853D01*
X24055253Y-52369559D01*
X24038777Y-52387737D01*
X24020599Y-52404213D01*
X24000893Y-52418828D01*
X23979850Y-52431440D01*
X23957671Y-52441930D01*
X23934572Y-52450195D01*
X23910773Y-52456156D01*
X23886505Y-52459756D01*
X23862001Y-52460960D01*
X22961999Y-52460960D01*
X22937495Y-52459756D01*
X22913227Y-52456156D01*
X22889428Y-52450195D01*
X22866329Y-52441930D01*
X22844150Y-52431440D01*
X22823107Y-52418828D01*
X22803401Y-52404213D01*
X22785223Y-52387737D01*
X22768747Y-52369559D01*
X22754132Y-52349853D01*
X22741520Y-52328810D01*
X22731030Y-52306631D01*
X22722765Y-52283532D01*
X22716804Y-52259733D01*
X22713204Y-52235465D01*
X22712000Y-52210961D01*
X22712000Y-51560959D01*
X22713204Y-51536455D01*
X22716804Y-51512187D01*
X22722765Y-51488388D01*
X22731030Y-51465289D01*
X22741520Y-51443110D01*
X22754132Y-51422067D01*
X22768747Y-51402361D01*
X22785223Y-51384183D01*
X22803401Y-51367707D01*
X22823107Y-51353092D01*
X22844150Y-51340480D01*
X22866329Y-51329990D01*
X22889428Y-51321725D01*
X22913227Y-51315764D01*
X22937495Y-51312164D01*
X22961999Y-51310960D01*
X23862001Y-51310960D01*
X23886505Y-51312164D01*
X23886505Y-51312164D01*
G37*
D15*
X23412000Y-51885960D03*
D14*
G36*
X23886505Y-49262164D02*
G01*
X23910773Y-49265764D01*
X23934572Y-49271725D01*
X23957671Y-49279990D01*
X23979850Y-49290480D01*
X24000893Y-49303092D01*
X24020599Y-49317707D01*
X24038777Y-49334183D01*
X24055253Y-49352361D01*
X24069868Y-49372067D01*
X24082480Y-49393110D01*
X24092970Y-49415289D01*
X24101235Y-49438388D01*
X24107196Y-49462187D01*
X24110796Y-49486455D01*
X24112000Y-49510959D01*
X24112000Y-50160961D01*
X24110796Y-50185465D01*
X24107196Y-50209733D01*
X24101235Y-50233532D01*
X24092970Y-50256631D01*
X24082480Y-50278810D01*
X24069868Y-50299853D01*
X24055253Y-50319559D01*
X24038777Y-50337737D01*
X24020599Y-50354213D01*
X24000893Y-50368828D01*
X23979850Y-50381440D01*
X23957671Y-50391930D01*
X23934572Y-50400195D01*
X23910773Y-50406156D01*
X23886505Y-50409756D01*
X23862001Y-50410960D01*
X22961999Y-50410960D01*
X22937495Y-50409756D01*
X22913227Y-50406156D01*
X22889428Y-50400195D01*
X22866329Y-50391930D01*
X22844150Y-50381440D01*
X22823107Y-50368828D01*
X22803401Y-50354213D01*
X22785223Y-50337737D01*
X22768747Y-50319559D01*
X22754132Y-50299853D01*
X22741520Y-50278810D01*
X22731030Y-50256631D01*
X22722765Y-50233532D01*
X22716804Y-50209733D01*
X22713204Y-50185465D01*
X22712000Y-50160961D01*
X22712000Y-49510959D01*
X22713204Y-49486455D01*
X22716804Y-49462187D01*
X22722765Y-49438388D01*
X22731030Y-49415289D01*
X22741520Y-49393110D01*
X22754132Y-49372067D01*
X22768747Y-49352361D01*
X22785223Y-49334183D01*
X22803401Y-49317707D01*
X22823107Y-49303092D01*
X22844150Y-49290480D01*
X22866329Y-49279990D01*
X22889428Y-49271725D01*
X22913227Y-49265764D01*
X22937495Y-49262164D01*
X22961999Y-49260960D01*
X23862001Y-49260960D01*
X23886505Y-49262164D01*
X23886505Y-49262164D01*
G37*
D15*
X23412000Y-49835960D03*
D14*
G36*
X67320505Y-49262164D02*
G01*
X67344773Y-49265764D01*
X67368572Y-49271725D01*
X67391671Y-49279990D01*
X67413850Y-49290480D01*
X67434893Y-49303092D01*
X67454599Y-49317707D01*
X67472777Y-49334183D01*
X67489253Y-49352361D01*
X67503868Y-49372067D01*
X67516480Y-49393110D01*
X67526970Y-49415289D01*
X67535235Y-49438388D01*
X67541196Y-49462187D01*
X67544796Y-49486455D01*
X67546000Y-49510959D01*
X67546000Y-50160961D01*
X67544796Y-50185465D01*
X67541196Y-50209733D01*
X67535235Y-50233532D01*
X67526970Y-50256631D01*
X67516480Y-50278810D01*
X67503868Y-50299853D01*
X67489253Y-50319559D01*
X67472777Y-50337737D01*
X67454599Y-50354213D01*
X67434893Y-50368828D01*
X67413850Y-50381440D01*
X67391671Y-50391930D01*
X67368572Y-50400195D01*
X67344773Y-50406156D01*
X67320505Y-50409756D01*
X67296001Y-50410960D01*
X66395999Y-50410960D01*
X66371495Y-50409756D01*
X66347227Y-50406156D01*
X66323428Y-50400195D01*
X66300329Y-50391930D01*
X66278150Y-50381440D01*
X66257107Y-50368828D01*
X66237401Y-50354213D01*
X66219223Y-50337737D01*
X66202747Y-50319559D01*
X66188132Y-50299853D01*
X66175520Y-50278810D01*
X66165030Y-50256631D01*
X66156765Y-50233532D01*
X66150804Y-50209733D01*
X66147204Y-50185465D01*
X66146000Y-50160961D01*
X66146000Y-49510959D01*
X66147204Y-49486455D01*
X66150804Y-49462187D01*
X66156765Y-49438388D01*
X66165030Y-49415289D01*
X66175520Y-49393110D01*
X66188132Y-49372067D01*
X66202747Y-49352361D01*
X66219223Y-49334183D01*
X66237401Y-49317707D01*
X66257107Y-49303092D01*
X66278150Y-49290480D01*
X66300329Y-49279990D01*
X66323428Y-49271725D01*
X66347227Y-49265764D01*
X66371495Y-49262164D01*
X66395999Y-49260960D01*
X67296001Y-49260960D01*
X67320505Y-49262164D01*
X67320505Y-49262164D01*
G37*
D15*
X66846000Y-49835960D03*
D14*
G36*
X67320505Y-51312164D02*
G01*
X67344773Y-51315764D01*
X67368572Y-51321725D01*
X67391671Y-51329990D01*
X67413850Y-51340480D01*
X67434893Y-51353092D01*
X67454599Y-51367707D01*
X67472777Y-51384183D01*
X67489253Y-51402361D01*
X67503868Y-51422067D01*
X67516480Y-51443110D01*
X67526970Y-51465289D01*
X67535235Y-51488388D01*
X67541196Y-51512187D01*
X67544796Y-51536455D01*
X67546000Y-51560959D01*
X67546000Y-52210961D01*
X67544796Y-52235465D01*
X67541196Y-52259733D01*
X67535235Y-52283532D01*
X67526970Y-52306631D01*
X67516480Y-52328810D01*
X67503868Y-52349853D01*
X67489253Y-52369559D01*
X67472777Y-52387737D01*
X67454599Y-52404213D01*
X67434893Y-52418828D01*
X67413850Y-52431440D01*
X67391671Y-52441930D01*
X67368572Y-52450195D01*
X67344773Y-52456156D01*
X67320505Y-52459756D01*
X67296001Y-52460960D01*
X66395999Y-52460960D01*
X66371495Y-52459756D01*
X66347227Y-52456156D01*
X66323428Y-52450195D01*
X66300329Y-52441930D01*
X66278150Y-52431440D01*
X66257107Y-52418828D01*
X66237401Y-52404213D01*
X66219223Y-52387737D01*
X66202747Y-52369559D01*
X66188132Y-52349853D01*
X66175520Y-52328810D01*
X66165030Y-52306631D01*
X66156765Y-52283532D01*
X66150804Y-52259733D01*
X66147204Y-52235465D01*
X66146000Y-52210961D01*
X66146000Y-51560959D01*
X66147204Y-51536455D01*
X66150804Y-51512187D01*
X66156765Y-51488388D01*
X66165030Y-51465289D01*
X66175520Y-51443110D01*
X66188132Y-51422067D01*
X66202747Y-51402361D01*
X66219223Y-51384183D01*
X66237401Y-51367707D01*
X66257107Y-51353092D01*
X66278150Y-51340480D01*
X66300329Y-51329990D01*
X66323428Y-51321725D01*
X66347227Y-51315764D01*
X66371495Y-51312164D01*
X66395999Y-51310960D01*
X67296001Y-51310960D01*
X67320505Y-51312164D01*
X67320505Y-51312164D01*
G37*
D15*
X66846000Y-51885960D03*
D16*
X18586000Y-34350960D03*
X18586000Y-36890960D03*
X18586000Y-39430960D03*
X18586000Y-41970960D03*
D17*
X18586000Y-44510960D03*
X15665000Y-44510960D03*
D16*
X15665000Y-41970960D03*
X15665000Y-39430960D03*
X15665000Y-36890960D03*
X15665000Y-34350960D03*
D18*
X26056000Y-53146960D03*
X26056000Y-48646960D03*
X32556000Y-53146960D03*
X32556000Y-48646960D03*
X48304000Y-48646960D03*
X48304000Y-53146960D03*
X41804000Y-48646960D03*
X41804000Y-53146960D03*
X64052000Y-48646960D03*
X64052000Y-53146960D03*
X57552000Y-48646960D03*
X57552000Y-53146960D03*
X76117000Y-43390960D03*
X71617000Y-43390960D03*
X76117000Y-36890960D03*
X71617000Y-36890960D03*
D14*
G36*
X48737977Y-43156622D02*
G01*
X48751325Y-43158602D01*
X48764414Y-43161881D01*
X48777119Y-43166427D01*
X48789317Y-43172196D01*
X48800891Y-43179133D01*
X48811729Y-43187171D01*
X48821727Y-43196233D01*
X48830789Y-43206231D01*
X48838827Y-43217069D01*
X48845764Y-43228643D01*
X48851533Y-43240841D01*
X48856079Y-43253546D01*
X48859358Y-43266635D01*
X48861338Y-43279983D01*
X48862000Y-43293460D01*
X48862000Y-43568460D01*
X48861338Y-43581937D01*
X48859358Y-43595285D01*
X48856079Y-43608374D01*
X48851533Y-43621079D01*
X48845764Y-43633277D01*
X48838827Y-43644851D01*
X48830789Y-43655689D01*
X48821727Y-43665687D01*
X48811729Y-43674749D01*
X48800891Y-43682787D01*
X48789317Y-43689724D01*
X48777119Y-43695493D01*
X48764414Y-43700039D01*
X48751325Y-43703318D01*
X48737977Y-43705298D01*
X48724500Y-43705960D01*
X47524500Y-43705960D01*
X47511023Y-43705298D01*
X47497675Y-43703318D01*
X47484586Y-43700039D01*
X47471881Y-43695493D01*
X47459683Y-43689724D01*
X47448109Y-43682787D01*
X47437271Y-43674749D01*
X47427273Y-43665687D01*
X47418211Y-43655689D01*
X47410173Y-43644851D01*
X47403236Y-43633277D01*
X47397467Y-43621079D01*
X47392921Y-43608374D01*
X47389642Y-43595285D01*
X47387662Y-43581937D01*
X47387000Y-43568460D01*
X47387000Y-43293460D01*
X47387662Y-43279983D01*
X47389642Y-43266635D01*
X47392921Y-43253546D01*
X47397467Y-43240841D01*
X47403236Y-43228643D01*
X47410173Y-43217069D01*
X47418211Y-43206231D01*
X47427273Y-43196233D01*
X47437271Y-43187171D01*
X47448109Y-43179133D01*
X47459683Y-43172196D01*
X47471881Y-43166427D01*
X47484586Y-43161881D01*
X47497675Y-43158602D01*
X47511023Y-43156622D01*
X47524500Y-43155960D01*
X48724500Y-43155960D01*
X48737977Y-43156622D01*
X48737977Y-43156622D01*
G37*
D19*
X48124500Y-43430960D03*
D14*
G36*
X48737977Y-42356622D02*
G01*
X48751325Y-42358602D01*
X48764414Y-42361881D01*
X48777119Y-42366427D01*
X48789317Y-42372196D01*
X48800891Y-42379133D01*
X48811729Y-42387171D01*
X48821727Y-42396233D01*
X48830789Y-42406231D01*
X48838827Y-42417069D01*
X48845764Y-42428643D01*
X48851533Y-42440841D01*
X48856079Y-42453546D01*
X48859358Y-42466635D01*
X48861338Y-42479983D01*
X48862000Y-42493460D01*
X48862000Y-42768460D01*
X48861338Y-42781937D01*
X48859358Y-42795285D01*
X48856079Y-42808374D01*
X48851533Y-42821079D01*
X48845764Y-42833277D01*
X48838827Y-42844851D01*
X48830789Y-42855689D01*
X48821727Y-42865687D01*
X48811729Y-42874749D01*
X48800891Y-42882787D01*
X48789317Y-42889724D01*
X48777119Y-42895493D01*
X48764414Y-42900039D01*
X48751325Y-42903318D01*
X48737977Y-42905298D01*
X48724500Y-42905960D01*
X47524500Y-42905960D01*
X47511023Y-42905298D01*
X47497675Y-42903318D01*
X47484586Y-42900039D01*
X47471881Y-42895493D01*
X47459683Y-42889724D01*
X47448109Y-42882787D01*
X47437271Y-42874749D01*
X47427273Y-42865687D01*
X47418211Y-42855689D01*
X47410173Y-42844851D01*
X47403236Y-42833277D01*
X47397467Y-42821079D01*
X47392921Y-42808374D01*
X47389642Y-42795285D01*
X47387662Y-42781937D01*
X47387000Y-42768460D01*
X47387000Y-42493460D01*
X47387662Y-42479983D01*
X47389642Y-42466635D01*
X47392921Y-42453546D01*
X47397467Y-42440841D01*
X47403236Y-42428643D01*
X47410173Y-42417069D01*
X47418211Y-42406231D01*
X47427273Y-42396233D01*
X47437271Y-42387171D01*
X47448109Y-42379133D01*
X47459683Y-42372196D01*
X47471881Y-42366427D01*
X47484586Y-42361881D01*
X47497675Y-42358602D01*
X47511023Y-42356622D01*
X47524500Y-42355960D01*
X48724500Y-42355960D01*
X48737977Y-42356622D01*
X48737977Y-42356622D01*
G37*
D19*
X48124500Y-42630960D03*
D14*
G36*
X48737977Y-41556622D02*
G01*
X48751325Y-41558602D01*
X48764414Y-41561881D01*
X48777119Y-41566427D01*
X48789317Y-41572196D01*
X48800891Y-41579133D01*
X48811729Y-41587171D01*
X48821727Y-41596233D01*
X48830789Y-41606231D01*
X48838827Y-41617069D01*
X48845764Y-41628643D01*
X48851533Y-41640841D01*
X48856079Y-41653546D01*
X48859358Y-41666635D01*
X48861338Y-41679983D01*
X48862000Y-41693460D01*
X48862000Y-41968460D01*
X48861338Y-41981937D01*
X48859358Y-41995285D01*
X48856079Y-42008374D01*
X48851533Y-42021079D01*
X48845764Y-42033277D01*
X48838827Y-42044851D01*
X48830789Y-42055689D01*
X48821727Y-42065687D01*
X48811729Y-42074749D01*
X48800891Y-42082787D01*
X48789317Y-42089724D01*
X48777119Y-42095493D01*
X48764414Y-42100039D01*
X48751325Y-42103318D01*
X48737977Y-42105298D01*
X48724500Y-42105960D01*
X47524500Y-42105960D01*
X47511023Y-42105298D01*
X47497675Y-42103318D01*
X47484586Y-42100039D01*
X47471881Y-42095493D01*
X47459683Y-42089724D01*
X47448109Y-42082787D01*
X47437271Y-42074749D01*
X47427273Y-42065687D01*
X47418211Y-42055689D01*
X47410173Y-42044851D01*
X47403236Y-42033277D01*
X47397467Y-42021079D01*
X47392921Y-42008374D01*
X47389642Y-41995285D01*
X47387662Y-41981937D01*
X47387000Y-41968460D01*
X47387000Y-41693460D01*
X47387662Y-41679983D01*
X47389642Y-41666635D01*
X47392921Y-41653546D01*
X47397467Y-41640841D01*
X47403236Y-41628643D01*
X47410173Y-41617069D01*
X47418211Y-41606231D01*
X47427273Y-41596233D01*
X47437271Y-41587171D01*
X47448109Y-41579133D01*
X47459683Y-41572196D01*
X47471881Y-41566427D01*
X47484586Y-41561881D01*
X47497675Y-41558602D01*
X47511023Y-41556622D01*
X47524500Y-41555960D01*
X48724500Y-41555960D01*
X48737977Y-41556622D01*
X48737977Y-41556622D01*
G37*
D19*
X48124500Y-41830960D03*
D14*
G36*
X48737977Y-40756622D02*
G01*
X48751325Y-40758602D01*
X48764414Y-40761881D01*
X48777119Y-40766427D01*
X48789317Y-40772196D01*
X48800891Y-40779133D01*
X48811729Y-40787171D01*
X48821727Y-40796233D01*
X48830789Y-40806231D01*
X48838827Y-40817069D01*
X48845764Y-40828643D01*
X48851533Y-40840841D01*
X48856079Y-40853546D01*
X48859358Y-40866635D01*
X48861338Y-40879983D01*
X48862000Y-40893460D01*
X48862000Y-41168460D01*
X48861338Y-41181937D01*
X48859358Y-41195285D01*
X48856079Y-41208374D01*
X48851533Y-41221079D01*
X48845764Y-41233277D01*
X48838827Y-41244851D01*
X48830789Y-41255689D01*
X48821727Y-41265687D01*
X48811729Y-41274749D01*
X48800891Y-41282787D01*
X48789317Y-41289724D01*
X48777119Y-41295493D01*
X48764414Y-41300039D01*
X48751325Y-41303318D01*
X48737977Y-41305298D01*
X48724500Y-41305960D01*
X47524500Y-41305960D01*
X47511023Y-41305298D01*
X47497675Y-41303318D01*
X47484586Y-41300039D01*
X47471881Y-41295493D01*
X47459683Y-41289724D01*
X47448109Y-41282787D01*
X47437271Y-41274749D01*
X47427273Y-41265687D01*
X47418211Y-41255689D01*
X47410173Y-41244851D01*
X47403236Y-41233277D01*
X47397467Y-41221079D01*
X47392921Y-41208374D01*
X47389642Y-41195285D01*
X47387662Y-41181937D01*
X47387000Y-41168460D01*
X47387000Y-40893460D01*
X47387662Y-40879983D01*
X47389642Y-40866635D01*
X47392921Y-40853546D01*
X47397467Y-40840841D01*
X47403236Y-40828643D01*
X47410173Y-40817069D01*
X47418211Y-40806231D01*
X47427273Y-40796233D01*
X47437271Y-40787171D01*
X47448109Y-40779133D01*
X47459683Y-40772196D01*
X47471881Y-40766427D01*
X47484586Y-40761881D01*
X47497675Y-40758602D01*
X47511023Y-40756622D01*
X47524500Y-40755960D01*
X48724500Y-40755960D01*
X48737977Y-40756622D01*
X48737977Y-40756622D01*
G37*
D19*
X48124500Y-41030960D03*
D14*
G36*
X48737977Y-39956622D02*
G01*
X48751325Y-39958602D01*
X48764414Y-39961881D01*
X48777119Y-39966427D01*
X48789317Y-39972196D01*
X48800891Y-39979133D01*
X48811729Y-39987171D01*
X48821727Y-39996233D01*
X48830789Y-40006231D01*
X48838827Y-40017069D01*
X48845764Y-40028643D01*
X48851533Y-40040841D01*
X48856079Y-40053546D01*
X48859358Y-40066635D01*
X48861338Y-40079983D01*
X48862000Y-40093460D01*
X48862000Y-40368460D01*
X48861338Y-40381937D01*
X48859358Y-40395285D01*
X48856079Y-40408374D01*
X48851533Y-40421079D01*
X48845764Y-40433277D01*
X48838827Y-40444851D01*
X48830789Y-40455689D01*
X48821727Y-40465687D01*
X48811729Y-40474749D01*
X48800891Y-40482787D01*
X48789317Y-40489724D01*
X48777119Y-40495493D01*
X48764414Y-40500039D01*
X48751325Y-40503318D01*
X48737977Y-40505298D01*
X48724500Y-40505960D01*
X47524500Y-40505960D01*
X47511023Y-40505298D01*
X47497675Y-40503318D01*
X47484586Y-40500039D01*
X47471881Y-40495493D01*
X47459683Y-40489724D01*
X47448109Y-40482787D01*
X47437271Y-40474749D01*
X47427273Y-40465687D01*
X47418211Y-40455689D01*
X47410173Y-40444851D01*
X47403236Y-40433277D01*
X47397467Y-40421079D01*
X47392921Y-40408374D01*
X47389642Y-40395285D01*
X47387662Y-40381937D01*
X47387000Y-40368460D01*
X47387000Y-40093460D01*
X47387662Y-40079983D01*
X47389642Y-40066635D01*
X47392921Y-40053546D01*
X47397467Y-40040841D01*
X47403236Y-40028643D01*
X47410173Y-40017069D01*
X47418211Y-40006231D01*
X47427273Y-39996233D01*
X47437271Y-39987171D01*
X47448109Y-39979133D01*
X47459683Y-39972196D01*
X47471881Y-39966427D01*
X47484586Y-39961881D01*
X47497675Y-39958602D01*
X47511023Y-39956622D01*
X47524500Y-39955960D01*
X48724500Y-39955960D01*
X48737977Y-39956622D01*
X48737977Y-39956622D01*
G37*
D19*
X48124500Y-40230960D03*
D14*
G36*
X48737977Y-39156622D02*
G01*
X48751325Y-39158602D01*
X48764414Y-39161881D01*
X48777119Y-39166427D01*
X48789317Y-39172196D01*
X48800891Y-39179133D01*
X48811729Y-39187171D01*
X48821727Y-39196233D01*
X48830789Y-39206231D01*
X48838827Y-39217069D01*
X48845764Y-39228643D01*
X48851533Y-39240841D01*
X48856079Y-39253546D01*
X48859358Y-39266635D01*
X48861338Y-39279983D01*
X48862000Y-39293460D01*
X48862000Y-39568460D01*
X48861338Y-39581937D01*
X48859358Y-39595285D01*
X48856079Y-39608374D01*
X48851533Y-39621079D01*
X48845764Y-39633277D01*
X48838827Y-39644851D01*
X48830789Y-39655689D01*
X48821727Y-39665687D01*
X48811729Y-39674749D01*
X48800891Y-39682787D01*
X48789317Y-39689724D01*
X48777119Y-39695493D01*
X48764414Y-39700039D01*
X48751325Y-39703318D01*
X48737977Y-39705298D01*
X48724500Y-39705960D01*
X47524500Y-39705960D01*
X47511023Y-39705298D01*
X47497675Y-39703318D01*
X47484586Y-39700039D01*
X47471881Y-39695493D01*
X47459683Y-39689724D01*
X47448109Y-39682787D01*
X47437271Y-39674749D01*
X47427273Y-39665687D01*
X47418211Y-39655689D01*
X47410173Y-39644851D01*
X47403236Y-39633277D01*
X47397467Y-39621079D01*
X47392921Y-39608374D01*
X47389642Y-39595285D01*
X47387662Y-39581937D01*
X47387000Y-39568460D01*
X47387000Y-39293460D01*
X47387662Y-39279983D01*
X47389642Y-39266635D01*
X47392921Y-39253546D01*
X47397467Y-39240841D01*
X47403236Y-39228643D01*
X47410173Y-39217069D01*
X47418211Y-39206231D01*
X47427273Y-39196233D01*
X47437271Y-39187171D01*
X47448109Y-39179133D01*
X47459683Y-39172196D01*
X47471881Y-39166427D01*
X47484586Y-39161881D01*
X47497675Y-39158602D01*
X47511023Y-39156622D01*
X47524500Y-39155960D01*
X48724500Y-39155960D01*
X48737977Y-39156622D01*
X48737977Y-39156622D01*
G37*
D19*
X48124500Y-39430960D03*
D14*
G36*
X48737977Y-38356622D02*
G01*
X48751325Y-38358602D01*
X48764414Y-38361881D01*
X48777119Y-38366427D01*
X48789317Y-38372196D01*
X48800891Y-38379133D01*
X48811729Y-38387171D01*
X48821727Y-38396233D01*
X48830789Y-38406231D01*
X48838827Y-38417069D01*
X48845764Y-38428643D01*
X48851533Y-38440841D01*
X48856079Y-38453546D01*
X48859358Y-38466635D01*
X48861338Y-38479983D01*
X48862000Y-38493460D01*
X48862000Y-38768460D01*
X48861338Y-38781937D01*
X48859358Y-38795285D01*
X48856079Y-38808374D01*
X48851533Y-38821079D01*
X48845764Y-38833277D01*
X48838827Y-38844851D01*
X48830789Y-38855689D01*
X48821727Y-38865687D01*
X48811729Y-38874749D01*
X48800891Y-38882787D01*
X48789317Y-38889724D01*
X48777119Y-38895493D01*
X48764414Y-38900039D01*
X48751325Y-38903318D01*
X48737977Y-38905298D01*
X48724500Y-38905960D01*
X47524500Y-38905960D01*
X47511023Y-38905298D01*
X47497675Y-38903318D01*
X47484586Y-38900039D01*
X47471881Y-38895493D01*
X47459683Y-38889724D01*
X47448109Y-38882787D01*
X47437271Y-38874749D01*
X47427273Y-38865687D01*
X47418211Y-38855689D01*
X47410173Y-38844851D01*
X47403236Y-38833277D01*
X47397467Y-38821079D01*
X47392921Y-38808374D01*
X47389642Y-38795285D01*
X47387662Y-38781937D01*
X47387000Y-38768460D01*
X47387000Y-38493460D01*
X47387662Y-38479983D01*
X47389642Y-38466635D01*
X47392921Y-38453546D01*
X47397467Y-38440841D01*
X47403236Y-38428643D01*
X47410173Y-38417069D01*
X47418211Y-38406231D01*
X47427273Y-38396233D01*
X47437271Y-38387171D01*
X47448109Y-38379133D01*
X47459683Y-38372196D01*
X47471881Y-38366427D01*
X47484586Y-38361881D01*
X47497675Y-38358602D01*
X47511023Y-38356622D01*
X47524500Y-38355960D01*
X48724500Y-38355960D01*
X48737977Y-38356622D01*
X48737977Y-38356622D01*
G37*
D19*
X48124500Y-38630960D03*
D14*
G36*
X48737977Y-37556622D02*
G01*
X48751325Y-37558602D01*
X48764414Y-37561881D01*
X48777119Y-37566427D01*
X48789317Y-37572196D01*
X48800891Y-37579133D01*
X48811729Y-37587171D01*
X48821727Y-37596233D01*
X48830789Y-37606231D01*
X48838827Y-37617069D01*
X48845764Y-37628643D01*
X48851533Y-37640841D01*
X48856079Y-37653546D01*
X48859358Y-37666635D01*
X48861338Y-37679983D01*
X48862000Y-37693460D01*
X48862000Y-37968460D01*
X48861338Y-37981937D01*
X48859358Y-37995285D01*
X48856079Y-38008374D01*
X48851533Y-38021079D01*
X48845764Y-38033277D01*
X48838827Y-38044851D01*
X48830789Y-38055689D01*
X48821727Y-38065687D01*
X48811729Y-38074749D01*
X48800891Y-38082787D01*
X48789317Y-38089724D01*
X48777119Y-38095493D01*
X48764414Y-38100039D01*
X48751325Y-38103318D01*
X48737977Y-38105298D01*
X48724500Y-38105960D01*
X47524500Y-38105960D01*
X47511023Y-38105298D01*
X47497675Y-38103318D01*
X47484586Y-38100039D01*
X47471881Y-38095493D01*
X47459683Y-38089724D01*
X47448109Y-38082787D01*
X47437271Y-38074749D01*
X47427273Y-38065687D01*
X47418211Y-38055689D01*
X47410173Y-38044851D01*
X47403236Y-38033277D01*
X47397467Y-38021079D01*
X47392921Y-38008374D01*
X47389642Y-37995285D01*
X47387662Y-37981937D01*
X47387000Y-37968460D01*
X47387000Y-37693460D01*
X47387662Y-37679983D01*
X47389642Y-37666635D01*
X47392921Y-37653546D01*
X47397467Y-37640841D01*
X47403236Y-37628643D01*
X47410173Y-37617069D01*
X47418211Y-37606231D01*
X47427273Y-37596233D01*
X47437271Y-37587171D01*
X47448109Y-37579133D01*
X47459683Y-37572196D01*
X47471881Y-37566427D01*
X47484586Y-37561881D01*
X47497675Y-37558602D01*
X47511023Y-37556622D01*
X47524500Y-37555960D01*
X48724500Y-37555960D01*
X48737977Y-37556622D01*
X48737977Y-37556622D01*
G37*
D19*
X48124500Y-37830960D03*
D14*
G36*
X48737977Y-36756622D02*
G01*
X48751325Y-36758602D01*
X48764414Y-36761881D01*
X48777119Y-36766427D01*
X48789317Y-36772196D01*
X48800891Y-36779133D01*
X48811729Y-36787171D01*
X48821727Y-36796233D01*
X48830789Y-36806231D01*
X48838827Y-36817069D01*
X48845764Y-36828643D01*
X48851533Y-36840841D01*
X48856079Y-36853546D01*
X48859358Y-36866635D01*
X48861338Y-36879983D01*
X48862000Y-36893460D01*
X48862000Y-37168460D01*
X48861338Y-37181937D01*
X48859358Y-37195285D01*
X48856079Y-37208374D01*
X48851533Y-37221079D01*
X48845764Y-37233277D01*
X48838827Y-37244851D01*
X48830789Y-37255689D01*
X48821727Y-37265687D01*
X48811729Y-37274749D01*
X48800891Y-37282787D01*
X48789317Y-37289724D01*
X48777119Y-37295493D01*
X48764414Y-37300039D01*
X48751325Y-37303318D01*
X48737977Y-37305298D01*
X48724500Y-37305960D01*
X47524500Y-37305960D01*
X47511023Y-37305298D01*
X47497675Y-37303318D01*
X47484586Y-37300039D01*
X47471881Y-37295493D01*
X47459683Y-37289724D01*
X47448109Y-37282787D01*
X47437271Y-37274749D01*
X47427273Y-37265687D01*
X47418211Y-37255689D01*
X47410173Y-37244851D01*
X47403236Y-37233277D01*
X47397467Y-37221079D01*
X47392921Y-37208374D01*
X47389642Y-37195285D01*
X47387662Y-37181937D01*
X47387000Y-37168460D01*
X47387000Y-36893460D01*
X47387662Y-36879983D01*
X47389642Y-36866635D01*
X47392921Y-36853546D01*
X47397467Y-36840841D01*
X47403236Y-36828643D01*
X47410173Y-36817069D01*
X47418211Y-36806231D01*
X47427273Y-36796233D01*
X47437271Y-36787171D01*
X47448109Y-36779133D01*
X47459683Y-36772196D01*
X47471881Y-36766427D01*
X47484586Y-36761881D01*
X47497675Y-36758602D01*
X47511023Y-36756622D01*
X47524500Y-36755960D01*
X48724500Y-36755960D01*
X48737977Y-36756622D01*
X48737977Y-36756622D01*
G37*
D19*
X48124500Y-37030960D03*
D14*
G36*
X48737977Y-35956622D02*
G01*
X48751325Y-35958602D01*
X48764414Y-35961881D01*
X48777119Y-35966427D01*
X48789317Y-35972196D01*
X48800891Y-35979133D01*
X48811729Y-35987171D01*
X48821727Y-35996233D01*
X48830789Y-36006231D01*
X48838827Y-36017069D01*
X48845764Y-36028643D01*
X48851533Y-36040841D01*
X48856079Y-36053546D01*
X48859358Y-36066635D01*
X48861338Y-36079983D01*
X48862000Y-36093460D01*
X48862000Y-36368460D01*
X48861338Y-36381937D01*
X48859358Y-36395285D01*
X48856079Y-36408374D01*
X48851533Y-36421079D01*
X48845764Y-36433277D01*
X48838827Y-36444851D01*
X48830789Y-36455689D01*
X48821727Y-36465687D01*
X48811729Y-36474749D01*
X48800891Y-36482787D01*
X48789317Y-36489724D01*
X48777119Y-36495493D01*
X48764414Y-36500039D01*
X48751325Y-36503318D01*
X48737977Y-36505298D01*
X48724500Y-36505960D01*
X47524500Y-36505960D01*
X47511023Y-36505298D01*
X47497675Y-36503318D01*
X47484586Y-36500039D01*
X47471881Y-36495493D01*
X47459683Y-36489724D01*
X47448109Y-36482787D01*
X47437271Y-36474749D01*
X47427273Y-36465687D01*
X47418211Y-36455689D01*
X47410173Y-36444851D01*
X47403236Y-36433277D01*
X47397467Y-36421079D01*
X47392921Y-36408374D01*
X47389642Y-36395285D01*
X47387662Y-36381937D01*
X47387000Y-36368460D01*
X47387000Y-36093460D01*
X47387662Y-36079983D01*
X47389642Y-36066635D01*
X47392921Y-36053546D01*
X47397467Y-36040841D01*
X47403236Y-36028643D01*
X47410173Y-36017069D01*
X47418211Y-36006231D01*
X47427273Y-35996233D01*
X47437271Y-35987171D01*
X47448109Y-35979133D01*
X47459683Y-35972196D01*
X47471881Y-35966427D01*
X47484586Y-35961881D01*
X47497675Y-35958602D01*
X47511023Y-35956622D01*
X47524500Y-35955960D01*
X48724500Y-35955960D01*
X48737977Y-35956622D01*
X48737977Y-35956622D01*
G37*
D19*
X48124500Y-36230960D03*
D14*
G36*
X48737977Y-35156622D02*
G01*
X48751325Y-35158602D01*
X48764414Y-35161881D01*
X48777119Y-35166427D01*
X48789317Y-35172196D01*
X48800891Y-35179133D01*
X48811729Y-35187171D01*
X48821727Y-35196233D01*
X48830789Y-35206231D01*
X48838827Y-35217069D01*
X48845764Y-35228643D01*
X48851533Y-35240841D01*
X48856079Y-35253546D01*
X48859358Y-35266635D01*
X48861338Y-35279983D01*
X48862000Y-35293460D01*
X48862000Y-35568460D01*
X48861338Y-35581937D01*
X48859358Y-35595285D01*
X48856079Y-35608374D01*
X48851533Y-35621079D01*
X48845764Y-35633277D01*
X48838827Y-35644851D01*
X48830789Y-35655689D01*
X48821727Y-35665687D01*
X48811729Y-35674749D01*
X48800891Y-35682787D01*
X48789317Y-35689724D01*
X48777119Y-35695493D01*
X48764414Y-35700039D01*
X48751325Y-35703318D01*
X48737977Y-35705298D01*
X48724500Y-35705960D01*
X47524500Y-35705960D01*
X47511023Y-35705298D01*
X47497675Y-35703318D01*
X47484586Y-35700039D01*
X47471881Y-35695493D01*
X47459683Y-35689724D01*
X47448109Y-35682787D01*
X47437271Y-35674749D01*
X47427273Y-35665687D01*
X47418211Y-35655689D01*
X47410173Y-35644851D01*
X47403236Y-35633277D01*
X47397467Y-35621079D01*
X47392921Y-35608374D01*
X47389642Y-35595285D01*
X47387662Y-35581937D01*
X47387000Y-35568460D01*
X47387000Y-35293460D01*
X47387662Y-35279983D01*
X47389642Y-35266635D01*
X47392921Y-35253546D01*
X47397467Y-35240841D01*
X47403236Y-35228643D01*
X47410173Y-35217069D01*
X47418211Y-35206231D01*
X47427273Y-35196233D01*
X47437271Y-35187171D01*
X47448109Y-35179133D01*
X47459683Y-35172196D01*
X47471881Y-35166427D01*
X47484586Y-35161881D01*
X47497675Y-35158602D01*
X47511023Y-35156622D01*
X47524500Y-35155960D01*
X48724500Y-35155960D01*
X48737977Y-35156622D01*
X48737977Y-35156622D01*
G37*
D19*
X48124500Y-35430960D03*
D14*
G36*
X46612977Y-33031622D02*
G01*
X46626325Y-33033602D01*
X46639414Y-33036881D01*
X46652119Y-33041427D01*
X46664317Y-33047196D01*
X46675891Y-33054133D01*
X46686729Y-33062171D01*
X46696727Y-33071233D01*
X46705789Y-33081231D01*
X46713827Y-33092069D01*
X46720764Y-33103643D01*
X46726533Y-33115841D01*
X46731079Y-33128546D01*
X46734358Y-33141635D01*
X46736338Y-33154983D01*
X46737000Y-33168460D01*
X46737000Y-34368460D01*
X46736338Y-34381937D01*
X46734358Y-34395285D01*
X46731079Y-34408374D01*
X46726533Y-34421079D01*
X46720764Y-34433277D01*
X46713827Y-34444851D01*
X46705789Y-34455689D01*
X46696727Y-34465687D01*
X46686729Y-34474749D01*
X46675891Y-34482787D01*
X46664317Y-34489724D01*
X46652119Y-34495493D01*
X46639414Y-34500039D01*
X46626325Y-34503318D01*
X46612977Y-34505298D01*
X46599500Y-34505960D01*
X46324500Y-34505960D01*
X46311023Y-34505298D01*
X46297675Y-34503318D01*
X46284586Y-34500039D01*
X46271881Y-34495493D01*
X46259683Y-34489724D01*
X46248109Y-34482787D01*
X46237271Y-34474749D01*
X46227273Y-34465687D01*
X46218211Y-34455689D01*
X46210173Y-34444851D01*
X46203236Y-34433277D01*
X46197467Y-34421079D01*
X46192921Y-34408374D01*
X46189642Y-34395285D01*
X46187662Y-34381937D01*
X46187000Y-34368460D01*
X46187000Y-33168460D01*
X46187662Y-33154983D01*
X46189642Y-33141635D01*
X46192921Y-33128546D01*
X46197467Y-33115841D01*
X46203236Y-33103643D01*
X46210173Y-33092069D01*
X46218211Y-33081231D01*
X46227273Y-33071233D01*
X46237271Y-33062171D01*
X46248109Y-33054133D01*
X46259683Y-33047196D01*
X46271881Y-33041427D01*
X46284586Y-33036881D01*
X46297675Y-33033602D01*
X46311023Y-33031622D01*
X46324500Y-33030960D01*
X46599500Y-33030960D01*
X46612977Y-33031622D01*
X46612977Y-33031622D01*
G37*
D19*
X46462000Y-33768460D03*
D14*
G36*
X45812977Y-33031622D02*
G01*
X45826325Y-33033602D01*
X45839414Y-33036881D01*
X45852119Y-33041427D01*
X45864317Y-33047196D01*
X45875891Y-33054133D01*
X45886729Y-33062171D01*
X45896727Y-33071233D01*
X45905789Y-33081231D01*
X45913827Y-33092069D01*
X45920764Y-33103643D01*
X45926533Y-33115841D01*
X45931079Y-33128546D01*
X45934358Y-33141635D01*
X45936338Y-33154983D01*
X45937000Y-33168460D01*
X45937000Y-34368460D01*
X45936338Y-34381937D01*
X45934358Y-34395285D01*
X45931079Y-34408374D01*
X45926533Y-34421079D01*
X45920764Y-34433277D01*
X45913827Y-34444851D01*
X45905789Y-34455689D01*
X45896727Y-34465687D01*
X45886729Y-34474749D01*
X45875891Y-34482787D01*
X45864317Y-34489724D01*
X45852119Y-34495493D01*
X45839414Y-34500039D01*
X45826325Y-34503318D01*
X45812977Y-34505298D01*
X45799500Y-34505960D01*
X45524500Y-34505960D01*
X45511023Y-34505298D01*
X45497675Y-34503318D01*
X45484586Y-34500039D01*
X45471881Y-34495493D01*
X45459683Y-34489724D01*
X45448109Y-34482787D01*
X45437271Y-34474749D01*
X45427273Y-34465687D01*
X45418211Y-34455689D01*
X45410173Y-34444851D01*
X45403236Y-34433277D01*
X45397467Y-34421079D01*
X45392921Y-34408374D01*
X45389642Y-34395285D01*
X45387662Y-34381937D01*
X45387000Y-34368460D01*
X45387000Y-33168460D01*
X45387662Y-33154983D01*
X45389642Y-33141635D01*
X45392921Y-33128546D01*
X45397467Y-33115841D01*
X45403236Y-33103643D01*
X45410173Y-33092069D01*
X45418211Y-33081231D01*
X45427273Y-33071233D01*
X45437271Y-33062171D01*
X45448109Y-33054133D01*
X45459683Y-33047196D01*
X45471881Y-33041427D01*
X45484586Y-33036881D01*
X45497675Y-33033602D01*
X45511023Y-33031622D01*
X45524500Y-33030960D01*
X45799500Y-33030960D01*
X45812977Y-33031622D01*
X45812977Y-33031622D01*
G37*
D19*
X45662000Y-33768460D03*
D14*
G36*
X45012977Y-33031622D02*
G01*
X45026325Y-33033602D01*
X45039414Y-33036881D01*
X45052119Y-33041427D01*
X45064317Y-33047196D01*
X45075891Y-33054133D01*
X45086729Y-33062171D01*
X45096727Y-33071233D01*
X45105789Y-33081231D01*
X45113827Y-33092069D01*
X45120764Y-33103643D01*
X45126533Y-33115841D01*
X45131079Y-33128546D01*
X45134358Y-33141635D01*
X45136338Y-33154983D01*
X45137000Y-33168460D01*
X45137000Y-34368460D01*
X45136338Y-34381937D01*
X45134358Y-34395285D01*
X45131079Y-34408374D01*
X45126533Y-34421079D01*
X45120764Y-34433277D01*
X45113827Y-34444851D01*
X45105789Y-34455689D01*
X45096727Y-34465687D01*
X45086729Y-34474749D01*
X45075891Y-34482787D01*
X45064317Y-34489724D01*
X45052119Y-34495493D01*
X45039414Y-34500039D01*
X45026325Y-34503318D01*
X45012977Y-34505298D01*
X44999500Y-34505960D01*
X44724500Y-34505960D01*
X44711023Y-34505298D01*
X44697675Y-34503318D01*
X44684586Y-34500039D01*
X44671881Y-34495493D01*
X44659683Y-34489724D01*
X44648109Y-34482787D01*
X44637271Y-34474749D01*
X44627273Y-34465687D01*
X44618211Y-34455689D01*
X44610173Y-34444851D01*
X44603236Y-34433277D01*
X44597467Y-34421079D01*
X44592921Y-34408374D01*
X44589642Y-34395285D01*
X44587662Y-34381937D01*
X44587000Y-34368460D01*
X44587000Y-33168460D01*
X44587662Y-33154983D01*
X44589642Y-33141635D01*
X44592921Y-33128546D01*
X44597467Y-33115841D01*
X44603236Y-33103643D01*
X44610173Y-33092069D01*
X44618211Y-33081231D01*
X44627273Y-33071233D01*
X44637271Y-33062171D01*
X44648109Y-33054133D01*
X44659683Y-33047196D01*
X44671881Y-33041427D01*
X44684586Y-33036881D01*
X44697675Y-33033602D01*
X44711023Y-33031622D01*
X44724500Y-33030960D01*
X44999500Y-33030960D01*
X45012977Y-33031622D01*
X45012977Y-33031622D01*
G37*
D19*
X44862000Y-33768460D03*
D14*
G36*
X44212977Y-33031622D02*
G01*
X44226325Y-33033602D01*
X44239414Y-33036881D01*
X44252119Y-33041427D01*
X44264317Y-33047196D01*
X44275891Y-33054133D01*
X44286729Y-33062171D01*
X44296727Y-33071233D01*
X44305789Y-33081231D01*
X44313827Y-33092069D01*
X44320764Y-33103643D01*
X44326533Y-33115841D01*
X44331079Y-33128546D01*
X44334358Y-33141635D01*
X44336338Y-33154983D01*
X44337000Y-33168460D01*
X44337000Y-34368460D01*
X44336338Y-34381937D01*
X44334358Y-34395285D01*
X44331079Y-34408374D01*
X44326533Y-34421079D01*
X44320764Y-34433277D01*
X44313827Y-34444851D01*
X44305789Y-34455689D01*
X44296727Y-34465687D01*
X44286729Y-34474749D01*
X44275891Y-34482787D01*
X44264317Y-34489724D01*
X44252119Y-34495493D01*
X44239414Y-34500039D01*
X44226325Y-34503318D01*
X44212977Y-34505298D01*
X44199500Y-34505960D01*
X43924500Y-34505960D01*
X43911023Y-34505298D01*
X43897675Y-34503318D01*
X43884586Y-34500039D01*
X43871881Y-34495493D01*
X43859683Y-34489724D01*
X43848109Y-34482787D01*
X43837271Y-34474749D01*
X43827273Y-34465687D01*
X43818211Y-34455689D01*
X43810173Y-34444851D01*
X43803236Y-34433277D01*
X43797467Y-34421079D01*
X43792921Y-34408374D01*
X43789642Y-34395285D01*
X43787662Y-34381937D01*
X43787000Y-34368460D01*
X43787000Y-33168460D01*
X43787662Y-33154983D01*
X43789642Y-33141635D01*
X43792921Y-33128546D01*
X43797467Y-33115841D01*
X43803236Y-33103643D01*
X43810173Y-33092069D01*
X43818211Y-33081231D01*
X43827273Y-33071233D01*
X43837271Y-33062171D01*
X43848109Y-33054133D01*
X43859683Y-33047196D01*
X43871881Y-33041427D01*
X43884586Y-33036881D01*
X43897675Y-33033602D01*
X43911023Y-33031622D01*
X43924500Y-33030960D01*
X44199500Y-33030960D01*
X44212977Y-33031622D01*
X44212977Y-33031622D01*
G37*
D19*
X44062000Y-33768460D03*
D14*
G36*
X43412977Y-33031622D02*
G01*
X43426325Y-33033602D01*
X43439414Y-33036881D01*
X43452119Y-33041427D01*
X43464317Y-33047196D01*
X43475891Y-33054133D01*
X43486729Y-33062171D01*
X43496727Y-33071233D01*
X43505789Y-33081231D01*
X43513827Y-33092069D01*
X43520764Y-33103643D01*
X43526533Y-33115841D01*
X43531079Y-33128546D01*
X43534358Y-33141635D01*
X43536338Y-33154983D01*
X43537000Y-33168460D01*
X43537000Y-34368460D01*
X43536338Y-34381937D01*
X43534358Y-34395285D01*
X43531079Y-34408374D01*
X43526533Y-34421079D01*
X43520764Y-34433277D01*
X43513827Y-34444851D01*
X43505789Y-34455689D01*
X43496727Y-34465687D01*
X43486729Y-34474749D01*
X43475891Y-34482787D01*
X43464317Y-34489724D01*
X43452119Y-34495493D01*
X43439414Y-34500039D01*
X43426325Y-34503318D01*
X43412977Y-34505298D01*
X43399500Y-34505960D01*
X43124500Y-34505960D01*
X43111023Y-34505298D01*
X43097675Y-34503318D01*
X43084586Y-34500039D01*
X43071881Y-34495493D01*
X43059683Y-34489724D01*
X43048109Y-34482787D01*
X43037271Y-34474749D01*
X43027273Y-34465687D01*
X43018211Y-34455689D01*
X43010173Y-34444851D01*
X43003236Y-34433277D01*
X42997467Y-34421079D01*
X42992921Y-34408374D01*
X42989642Y-34395285D01*
X42987662Y-34381937D01*
X42987000Y-34368460D01*
X42987000Y-33168460D01*
X42987662Y-33154983D01*
X42989642Y-33141635D01*
X42992921Y-33128546D01*
X42997467Y-33115841D01*
X43003236Y-33103643D01*
X43010173Y-33092069D01*
X43018211Y-33081231D01*
X43027273Y-33071233D01*
X43037271Y-33062171D01*
X43048109Y-33054133D01*
X43059683Y-33047196D01*
X43071881Y-33041427D01*
X43084586Y-33036881D01*
X43097675Y-33033602D01*
X43111023Y-33031622D01*
X43124500Y-33030960D01*
X43399500Y-33030960D01*
X43412977Y-33031622D01*
X43412977Y-33031622D01*
G37*
D19*
X43262000Y-33768460D03*
D14*
G36*
X42612977Y-33031622D02*
G01*
X42626325Y-33033602D01*
X42639414Y-33036881D01*
X42652119Y-33041427D01*
X42664317Y-33047196D01*
X42675891Y-33054133D01*
X42686729Y-33062171D01*
X42696727Y-33071233D01*
X42705789Y-33081231D01*
X42713827Y-33092069D01*
X42720764Y-33103643D01*
X42726533Y-33115841D01*
X42731079Y-33128546D01*
X42734358Y-33141635D01*
X42736338Y-33154983D01*
X42737000Y-33168460D01*
X42737000Y-34368460D01*
X42736338Y-34381937D01*
X42734358Y-34395285D01*
X42731079Y-34408374D01*
X42726533Y-34421079D01*
X42720764Y-34433277D01*
X42713827Y-34444851D01*
X42705789Y-34455689D01*
X42696727Y-34465687D01*
X42686729Y-34474749D01*
X42675891Y-34482787D01*
X42664317Y-34489724D01*
X42652119Y-34495493D01*
X42639414Y-34500039D01*
X42626325Y-34503318D01*
X42612977Y-34505298D01*
X42599500Y-34505960D01*
X42324500Y-34505960D01*
X42311023Y-34505298D01*
X42297675Y-34503318D01*
X42284586Y-34500039D01*
X42271881Y-34495493D01*
X42259683Y-34489724D01*
X42248109Y-34482787D01*
X42237271Y-34474749D01*
X42227273Y-34465687D01*
X42218211Y-34455689D01*
X42210173Y-34444851D01*
X42203236Y-34433277D01*
X42197467Y-34421079D01*
X42192921Y-34408374D01*
X42189642Y-34395285D01*
X42187662Y-34381937D01*
X42187000Y-34368460D01*
X42187000Y-33168460D01*
X42187662Y-33154983D01*
X42189642Y-33141635D01*
X42192921Y-33128546D01*
X42197467Y-33115841D01*
X42203236Y-33103643D01*
X42210173Y-33092069D01*
X42218211Y-33081231D01*
X42227273Y-33071233D01*
X42237271Y-33062171D01*
X42248109Y-33054133D01*
X42259683Y-33047196D01*
X42271881Y-33041427D01*
X42284586Y-33036881D01*
X42297675Y-33033602D01*
X42311023Y-33031622D01*
X42324500Y-33030960D01*
X42599500Y-33030960D01*
X42612977Y-33031622D01*
X42612977Y-33031622D01*
G37*
D19*
X42462000Y-33768460D03*
D14*
G36*
X41812977Y-33031622D02*
G01*
X41826325Y-33033602D01*
X41839414Y-33036881D01*
X41852119Y-33041427D01*
X41864317Y-33047196D01*
X41875891Y-33054133D01*
X41886729Y-33062171D01*
X41896727Y-33071233D01*
X41905789Y-33081231D01*
X41913827Y-33092069D01*
X41920764Y-33103643D01*
X41926533Y-33115841D01*
X41931079Y-33128546D01*
X41934358Y-33141635D01*
X41936338Y-33154983D01*
X41937000Y-33168460D01*
X41937000Y-34368460D01*
X41936338Y-34381937D01*
X41934358Y-34395285D01*
X41931079Y-34408374D01*
X41926533Y-34421079D01*
X41920764Y-34433277D01*
X41913827Y-34444851D01*
X41905789Y-34455689D01*
X41896727Y-34465687D01*
X41886729Y-34474749D01*
X41875891Y-34482787D01*
X41864317Y-34489724D01*
X41852119Y-34495493D01*
X41839414Y-34500039D01*
X41826325Y-34503318D01*
X41812977Y-34505298D01*
X41799500Y-34505960D01*
X41524500Y-34505960D01*
X41511023Y-34505298D01*
X41497675Y-34503318D01*
X41484586Y-34500039D01*
X41471881Y-34495493D01*
X41459683Y-34489724D01*
X41448109Y-34482787D01*
X41437271Y-34474749D01*
X41427273Y-34465687D01*
X41418211Y-34455689D01*
X41410173Y-34444851D01*
X41403236Y-34433277D01*
X41397467Y-34421079D01*
X41392921Y-34408374D01*
X41389642Y-34395285D01*
X41387662Y-34381937D01*
X41387000Y-34368460D01*
X41387000Y-33168460D01*
X41387662Y-33154983D01*
X41389642Y-33141635D01*
X41392921Y-33128546D01*
X41397467Y-33115841D01*
X41403236Y-33103643D01*
X41410173Y-33092069D01*
X41418211Y-33081231D01*
X41427273Y-33071233D01*
X41437271Y-33062171D01*
X41448109Y-33054133D01*
X41459683Y-33047196D01*
X41471881Y-33041427D01*
X41484586Y-33036881D01*
X41497675Y-33033602D01*
X41511023Y-33031622D01*
X41524500Y-33030960D01*
X41799500Y-33030960D01*
X41812977Y-33031622D01*
X41812977Y-33031622D01*
G37*
D19*
X41662000Y-33768460D03*
D14*
G36*
X41012977Y-33031622D02*
G01*
X41026325Y-33033602D01*
X41039414Y-33036881D01*
X41052119Y-33041427D01*
X41064317Y-33047196D01*
X41075891Y-33054133D01*
X41086729Y-33062171D01*
X41096727Y-33071233D01*
X41105789Y-33081231D01*
X41113827Y-33092069D01*
X41120764Y-33103643D01*
X41126533Y-33115841D01*
X41131079Y-33128546D01*
X41134358Y-33141635D01*
X41136338Y-33154983D01*
X41137000Y-33168460D01*
X41137000Y-34368460D01*
X41136338Y-34381937D01*
X41134358Y-34395285D01*
X41131079Y-34408374D01*
X41126533Y-34421079D01*
X41120764Y-34433277D01*
X41113827Y-34444851D01*
X41105789Y-34455689D01*
X41096727Y-34465687D01*
X41086729Y-34474749D01*
X41075891Y-34482787D01*
X41064317Y-34489724D01*
X41052119Y-34495493D01*
X41039414Y-34500039D01*
X41026325Y-34503318D01*
X41012977Y-34505298D01*
X40999500Y-34505960D01*
X40724500Y-34505960D01*
X40711023Y-34505298D01*
X40697675Y-34503318D01*
X40684586Y-34500039D01*
X40671881Y-34495493D01*
X40659683Y-34489724D01*
X40648109Y-34482787D01*
X40637271Y-34474749D01*
X40627273Y-34465687D01*
X40618211Y-34455689D01*
X40610173Y-34444851D01*
X40603236Y-34433277D01*
X40597467Y-34421079D01*
X40592921Y-34408374D01*
X40589642Y-34395285D01*
X40587662Y-34381937D01*
X40587000Y-34368460D01*
X40587000Y-33168460D01*
X40587662Y-33154983D01*
X40589642Y-33141635D01*
X40592921Y-33128546D01*
X40597467Y-33115841D01*
X40603236Y-33103643D01*
X40610173Y-33092069D01*
X40618211Y-33081231D01*
X40627273Y-33071233D01*
X40637271Y-33062171D01*
X40648109Y-33054133D01*
X40659683Y-33047196D01*
X40671881Y-33041427D01*
X40684586Y-33036881D01*
X40697675Y-33033602D01*
X40711023Y-33031622D01*
X40724500Y-33030960D01*
X40999500Y-33030960D01*
X41012977Y-33031622D01*
X41012977Y-33031622D01*
G37*
D19*
X40862000Y-33768460D03*
D14*
G36*
X40212977Y-33031622D02*
G01*
X40226325Y-33033602D01*
X40239414Y-33036881D01*
X40252119Y-33041427D01*
X40264317Y-33047196D01*
X40275891Y-33054133D01*
X40286729Y-33062171D01*
X40296727Y-33071233D01*
X40305789Y-33081231D01*
X40313827Y-33092069D01*
X40320764Y-33103643D01*
X40326533Y-33115841D01*
X40331079Y-33128546D01*
X40334358Y-33141635D01*
X40336338Y-33154983D01*
X40337000Y-33168460D01*
X40337000Y-34368460D01*
X40336338Y-34381937D01*
X40334358Y-34395285D01*
X40331079Y-34408374D01*
X40326533Y-34421079D01*
X40320764Y-34433277D01*
X40313827Y-34444851D01*
X40305789Y-34455689D01*
X40296727Y-34465687D01*
X40286729Y-34474749D01*
X40275891Y-34482787D01*
X40264317Y-34489724D01*
X40252119Y-34495493D01*
X40239414Y-34500039D01*
X40226325Y-34503318D01*
X40212977Y-34505298D01*
X40199500Y-34505960D01*
X39924500Y-34505960D01*
X39911023Y-34505298D01*
X39897675Y-34503318D01*
X39884586Y-34500039D01*
X39871881Y-34495493D01*
X39859683Y-34489724D01*
X39848109Y-34482787D01*
X39837271Y-34474749D01*
X39827273Y-34465687D01*
X39818211Y-34455689D01*
X39810173Y-34444851D01*
X39803236Y-34433277D01*
X39797467Y-34421079D01*
X39792921Y-34408374D01*
X39789642Y-34395285D01*
X39787662Y-34381937D01*
X39787000Y-34368460D01*
X39787000Y-33168460D01*
X39787662Y-33154983D01*
X39789642Y-33141635D01*
X39792921Y-33128546D01*
X39797467Y-33115841D01*
X39803236Y-33103643D01*
X39810173Y-33092069D01*
X39818211Y-33081231D01*
X39827273Y-33071233D01*
X39837271Y-33062171D01*
X39848109Y-33054133D01*
X39859683Y-33047196D01*
X39871881Y-33041427D01*
X39884586Y-33036881D01*
X39897675Y-33033602D01*
X39911023Y-33031622D01*
X39924500Y-33030960D01*
X40199500Y-33030960D01*
X40212977Y-33031622D01*
X40212977Y-33031622D01*
G37*
D19*
X40062000Y-33768460D03*
D14*
G36*
X39412977Y-33031622D02*
G01*
X39426325Y-33033602D01*
X39439414Y-33036881D01*
X39452119Y-33041427D01*
X39464317Y-33047196D01*
X39475891Y-33054133D01*
X39486729Y-33062171D01*
X39496727Y-33071233D01*
X39505789Y-33081231D01*
X39513827Y-33092069D01*
X39520764Y-33103643D01*
X39526533Y-33115841D01*
X39531079Y-33128546D01*
X39534358Y-33141635D01*
X39536338Y-33154983D01*
X39537000Y-33168460D01*
X39537000Y-34368460D01*
X39536338Y-34381937D01*
X39534358Y-34395285D01*
X39531079Y-34408374D01*
X39526533Y-34421079D01*
X39520764Y-34433277D01*
X39513827Y-34444851D01*
X39505789Y-34455689D01*
X39496727Y-34465687D01*
X39486729Y-34474749D01*
X39475891Y-34482787D01*
X39464317Y-34489724D01*
X39452119Y-34495493D01*
X39439414Y-34500039D01*
X39426325Y-34503318D01*
X39412977Y-34505298D01*
X39399500Y-34505960D01*
X39124500Y-34505960D01*
X39111023Y-34505298D01*
X39097675Y-34503318D01*
X39084586Y-34500039D01*
X39071881Y-34495493D01*
X39059683Y-34489724D01*
X39048109Y-34482787D01*
X39037271Y-34474749D01*
X39027273Y-34465687D01*
X39018211Y-34455689D01*
X39010173Y-34444851D01*
X39003236Y-34433277D01*
X38997467Y-34421079D01*
X38992921Y-34408374D01*
X38989642Y-34395285D01*
X38987662Y-34381937D01*
X38987000Y-34368460D01*
X38987000Y-33168460D01*
X38987662Y-33154983D01*
X38989642Y-33141635D01*
X38992921Y-33128546D01*
X38997467Y-33115841D01*
X39003236Y-33103643D01*
X39010173Y-33092069D01*
X39018211Y-33081231D01*
X39027273Y-33071233D01*
X39037271Y-33062171D01*
X39048109Y-33054133D01*
X39059683Y-33047196D01*
X39071881Y-33041427D01*
X39084586Y-33036881D01*
X39097675Y-33033602D01*
X39111023Y-33031622D01*
X39124500Y-33030960D01*
X39399500Y-33030960D01*
X39412977Y-33031622D01*
X39412977Y-33031622D01*
G37*
D19*
X39262000Y-33768460D03*
D14*
G36*
X38612977Y-33031622D02*
G01*
X38626325Y-33033602D01*
X38639414Y-33036881D01*
X38652119Y-33041427D01*
X38664317Y-33047196D01*
X38675891Y-33054133D01*
X38686729Y-33062171D01*
X38696727Y-33071233D01*
X38705789Y-33081231D01*
X38713827Y-33092069D01*
X38720764Y-33103643D01*
X38726533Y-33115841D01*
X38731079Y-33128546D01*
X38734358Y-33141635D01*
X38736338Y-33154983D01*
X38737000Y-33168460D01*
X38737000Y-34368460D01*
X38736338Y-34381937D01*
X38734358Y-34395285D01*
X38731079Y-34408374D01*
X38726533Y-34421079D01*
X38720764Y-34433277D01*
X38713827Y-34444851D01*
X38705789Y-34455689D01*
X38696727Y-34465687D01*
X38686729Y-34474749D01*
X38675891Y-34482787D01*
X38664317Y-34489724D01*
X38652119Y-34495493D01*
X38639414Y-34500039D01*
X38626325Y-34503318D01*
X38612977Y-34505298D01*
X38599500Y-34505960D01*
X38324500Y-34505960D01*
X38311023Y-34505298D01*
X38297675Y-34503318D01*
X38284586Y-34500039D01*
X38271881Y-34495493D01*
X38259683Y-34489724D01*
X38248109Y-34482787D01*
X38237271Y-34474749D01*
X38227273Y-34465687D01*
X38218211Y-34455689D01*
X38210173Y-34444851D01*
X38203236Y-34433277D01*
X38197467Y-34421079D01*
X38192921Y-34408374D01*
X38189642Y-34395285D01*
X38187662Y-34381937D01*
X38187000Y-34368460D01*
X38187000Y-33168460D01*
X38187662Y-33154983D01*
X38189642Y-33141635D01*
X38192921Y-33128546D01*
X38197467Y-33115841D01*
X38203236Y-33103643D01*
X38210173Y-33092069D01*
X38218211Y-33081231D01*
X38227273Y-33071233D01*
X38237271Y-33062171D01*
X38248109Y-33054133D01*
X38259683Y-33047196D01*
X38271881Y-33041427D01*
X38284586Y-33036881D01*
X38297675Y-33033602D01*
X38311023Y-33031622D01*
X38324500Y-33030960D01*
X38599500Y-33030960D01*
X38612977Y-33031622D01*
X38612977Y-33031622D01*
G37*
D19*
X38462000Y-33768460D03*
D14*
G36*
X37412977Y-35156622D02*
G01*
X37426325Y-35158602D01*
X37439414Y-35161881D01*
X37452119Y-35166427D01*
X37464317Y-35172196D01*
X37475891Y-35179133D01*
X37486729Y-35187171D01*
X37496727Y-35196233D01*
X37505789Y-35206231D01*
X37513827Y-35217069D01*
X37520764Y-35228643D01*
X37526533Y-35240841D01*
X37531079Y-35253546D01*
X37534358Y-35266635D01*
X37536338Y-35279983D01*
X37537000Y-35293460D01*
X37537000Y-35568460D01*
X37536338Y-35581937D01*
X37534358Y-35595285D01*
X37531079Y-35608374D01*
X37526533Y-35621079D01*
X37520764Y-35633277D01*
X37513827Y-35644851D01*
X37505789Y-35655689D01*
X37496727Y-35665687D01*
X37486729Y-35674749D01*
X37475891Y-35682787D01*
X37464317Y-35689724D01*
X37452119Y-35695493D01*
X37439414Y-35700039D01*
X37426325Y-35703318D01*
X37412977Y-35705298D01*
X37399500Y-35705960D01*
X36199500Y-35705960D01*
X36186023Y-35705298D01*
X36172675Y-35703318D01*
X36159586Y-35700039D01*
X36146881Y-35695493D01*
X36134683Y-35689724D01*
X36123109Y-35682787D01*
X36112271Y-35674749D01*
X36102273Y-35665687D01*
X36093211Y-35655689D01*
X36085173Y-35644851D01*
X36078236Y-35633277D01*
X36072467Y-35621079D01*
X36067921Y-35608374D01*
X36064642Y-35595285D01*
X36062662Y-35581937D01*
X36062000Y-35568460D01*
X36062000Y-35293460D01*
X36062662Y-35279983D01*
X36064642Y-35266635D01*
X36067921Y-35253546D01*
X36072467Y-35240841D01*
X36078236Y-35228643D01*
X36085173Y-35217069D01*
X36093211Y-35206231D01*
X36102273Y-35196233D01*
X36112271Y-35187171D01*
X36123109Y-35179133D01*
X36134683Y-35172196D01*
X36146881Y-35166427D01*
X36159586Y-35161881D01*
X36172675Y-35158602D01*
X36186023Y-35156622D01*
X36199500Y-35155960D01*
X37399500Y-35155960D01*
X37412977Y-35156622D01*
X37412977Y-35156622D01*
G37*
D19*
X36799500Y-35430960D03*
D14*
G36*
X37412977Y-35956622D02*
G01*
X37426325Y-35958602D01*
X37439414Y-35961881D01*
X37452119Y-35966427D01*
X37464317Y-35972196D01*
X37475891Y-35979133D01*
X37486729Y-35987171D01*
X37496727Y-35996233D01*
X37505789Y-36006231D01*
X37513827Y-36017069D01*
X37520764Y-36028643D01*
X37526533Y-36040841D01*
X37531079Y-36053546D01*
X37534358Y-36066635D01*
X37536338Y-36079983D01*
X37537000Y-36093460D01*
X37537000Y-36368460D01*
X37536338Y-36381937D01*
X37534358Y-36395285D01*
X37531079Y-36408374D01*
X37526533Y-36421079D01*
X37520764Y-36433277D01*
X37513827Y-36444851D01*
X37505789Y-36455689D01*
X37496727Y-36465687D01*
X37486729Y-36474749D01*
X37475891Y-36482787D01*
X37464317Y-36489724D01*
X37452119Y-36495493D01*
X37439414Y-36500039D01*
X37426325Y-36503318D01*
X37412977Y-36505298D01*
X37399500Y-36505960D01*
X36199500Y-36505960D01*
X36186023Y-36505298D01*
X36172675Y-36503318D01*
X36159586Y-36500039D01*
X36146881Y-36495493D01*
X36134683Y-36489724D01*
X36123109Y-36482787D01*
X36112271Y-36474749D01*
X36102273Y-36465687D01*
X36093211Y-36455689D01*
X36085173Y-36444851D01*
X36078236Y-36433277D01*
X36072467Y-36421079D01*
X36067921Y-36408374D01*
X36064642Y-36395285D01*
X36062662Y-36381937D01*
X36062000Y-36368460D01*
X36062000Y-36093460D01*
X36062662Y-36079983D01*
X36064642Y-36066635D01*
X36067921Y-36053546D01*
X36072467Y-36040841D01*
X36078236Y-36028643D01*
X36085173Y-36017069D01*
X36093211Y-36006231D01*
X36102273Y-35996233D01*
X36112271Y-35987171D01*
X36123109Y-35979133D01*
X36134683Y-35972196D01*
X36146881Y-35966427D01*
X36159586Y-35961881D01*
X36172675Y-35958602D01*
X36186023Y-35956622D01*
X36199500Y-35955960D01*
X37399500Y-35955960D01*
X37412977Y-35956622D01*
X37412977Y-35956622D01*
G37*
D19*
X36799500Y-36230960D03*
D14*
G36*
X37412977Y-36756622D02*
G01*
X37426325Y-36758602D01*
X37439414Y-36761881D01*
X37452119Y-36766427D01*
X37464317Y-36772196D01*
X37475891Y-36779133D01*
X37486729Y-36787171D01*
X37496727Y-36796233D01*
X37505789Y-36806231D01*
X37513827Y-36817069D01*
X37520764Y-36828643D01*
X37526533Y-36840841D01*
X37531079Y-36853546D01*
X37534358Y-36866635D01*
X37536338Y-36879983D01*
X37537000Y-36893460D01*
X37537000Y-37168460D01*
X37536338Y-37181937D01*
X37534358Y-37195285D01*
X37531079Y-37208374D01*
X37526533Y-37221079D01*
X37520764Y-37233277D01*
X37513827Y-37244851D01*
X37505789Y-37255689D01*
X37496727Y-37265687D01*
X37486729Y-37274749D01*
X37475891Y-37282787D01*
X37464317Y-37289724D01*
X37452119Y-37295493D01*
X37439414Y-37300039D01*
X37426325Y-37303318D01*
X37412977Y-37305298D01*
X37399500Y-37305960D01*
X36199500Y-37305960D01*
X36186023Y-37305298D01*
X36172675Y-37303318D01*
X36159586Y-37300039D01*
X36146881Y-37295493D01*
X36134683Y-37289724D01*
X36123109Y-37282787D01*
X36112271Y-37274749D01*
X36102273Y-37265687D01*
X36093211Y-37255689D01*
X36085173Y-37244851D01*
X36078236Y-37233277D01*
X36072467Y-37221079D01*
X36067921Y-37208374D01*
X36064642Y-37195285D01*
X36062662Y-37181937D01*
X36062000Y-37168460D01*
X36062000Y-36893460D01*
X36062662Y-36879983D01*
X36064642Y-36866635D01*
X36067921Y-36853546D01*
X36072467Y-36840841D01*
X36078236Y-36828643D01*
X36085173Y-36817069D01*
X36093211Y-36806231D01*
X36102273Y-36796233D01*
X36112271Y-36787171D01*
X36123109Y-36779133D01*
X36134683Y-36772196D01*
X36146881Y-36766427D01*
X36159586Y-36761881D01*
X36172675Y-36758602D01*
X36186023Y-36756622D01*
X36199500Y-36755960D01*
X37399500Y-36755960D01*
X37412977Y-36756622D01*
X37412977Y-36756622D01*
G37*
D19*
X36799500Y-37030960D03*
D14*
G36*
X37412977Y-37556622D02*
G01*
X37426325Y-37558602D01*
X37439414Y-37561881D01*
X37452119Y-37566427D01*
X37464317Y-37572196D01*
X37475891Y-37579133D01*
X37486729Y-37587171D01*
X37496727Y-37596233D01*
X37505789Y-37606231D01*
X37513827Y-37617069D01*
X37520764Y-37628643D01*
X37526533Y-37640841D01*
X37531079Y-37653546D01*
X37534358Y-37666635D01*
X37536338Y-37679983D01*
X37537000Y-37693460D01*
X37537000Y-37968460D01*
X37536338Y-37981937D01*
X37534358Y-37995285D01*
X37531079Y-38008374D01*
X37526533Y-38021079D01*
X37520764Y-38033277D01*
X37513827Y-38044851D01*
X37505789Y-38055689D01*
X37496727Y-38065687D01*
X37486729Y-38074749D01*
X37475891Y-38082787D01*
X37464317Y-38089724D01*
X37452119Y-38095493D01*
X37439414Y-38100039D01*
X37426325Y-38103318D01*
X37412977Y-38105298D01*
X37399500Y-38105960D01*
X36199500Y-38105960D01*
X36186023Y-38105298D01*
X36172675Y-38103318D01*
X36159586Y-38100039D01*
X36146881Y-38095493D01*
X36134683Y-38089724D01*
X36123109Y-38082787D01*
X36112271Y-38074749D01*
X36102273Y-38065687D01*
X36093211Y-38055689D01*
X36085173Y-38044851D01*
X36078236Y-38033277D01*
X36072467Y-38021079D01*
X36067921Y-38008374D01*
X36064642Y-37995285D01*
X36062662Y-37981937D01*
X36062000Y-37968460D01*
X36062000Y-37693460D01*
X36062662Y-37679983D01*
X36064642Y-37666635D01*
X36067921Y-37653546D01*
X36072467Y-37640841D01*
X36078236Y-37628643D01*
X36085173Y-37617069D01*
X36093211Y-37606231D01*
X36102273Y-37596233D01*
X36112271Y-37587171D01*
X36123109Y-37579133D01*
X36134683Y-37572196D01*
X36146881Y-37566427D01*
X36159586Y-37561881D01*
X36172675Y-37558602D01*
X36186023Y-37556622D01*
X36199500Y-37555960D01*
X37399500Y-37555960D01*
X37412977Y-37556622D01*
X37412977Y-37556622D01*
G37*
D19*
X36799500Y-37830960D03*
D14*
G36*
X37412977Y-38356622D02*
G01*
X37426325Y-38358602D01*
X37439414Y-38361881D01*
X37452119Y-38366427D01*
X37464317Y-38372196D01*
X37475891Y-38379133D01*
X37486729Y-38387171D01*
X37496727Y-38396233D01*
X37505789Y-38406231D01*
X37513827Y-38417069D01*
X37520764Y-38428643D01*
X37526533Y-38440841D01*
X37531079Y-38453546D01*
X37534358Y-38466635D01*
X37536338Y-38479983D01*
X37537000Y-38493460D01*
X37537000Y-38768460D01*
X37536338Y-38781937D01*
X37534358Y-38795285D01*
X37531079Y-38808374D01*
X37526533Y-38821079D01*
X37520764Y-38833277D01*
X37513827Y-38844851D01*
X37505789Y-38855689D01*
X37496727Y-38865687D01*
X37486729Y-38874749D01*
X37475891Y-38882787D01*
X37464317Y-38889724D01*
X37452119Y-38895493D01*
X37439414Y-38900039D01*
X37426325Y-38903318D01*
X37412977Y-38905298D01*
X37399500Y-38905960D01*
X36199500Y-38905960D01*
X36186023Y-38905298D01*
X36172675Y-38903318D01*
X36159586Y-38900039D01*
X36146881Y-38895493D01*
X36134683Y-38889724D01*
X36123109Y-38882787D01*
X36112271Y-38874749D01*
X36102273Y-38865687D01*
X36093211Y-38855689D01*
X36085173Y-38844851D01*
X36078236Y-38833277D01*
X36072467Y-38821079D01*
X36067921Y-38808374D01*
X36064642Y-38795285D01*
X36062662Y-38781937D01*
X36062000Y-38768460D01*
X36062000Y-38493460D01*
X36062662Y-38479983D01*
X36064642Y-38466635D01*
X36067921Y-38453546D01*
X36072467Y-38440841D01*
X36078236Y-38428643D01*
X36085173Y-38417069D01*
X36093211Y-38406231D01*
X36102273Y-38396233D01*
X36112271Y-38387171D01*
X36123109Y-38379133D01*
X36134683Y-38372196D01*
X36146881Y-38366427D01*
X36159586Y-38361881D01*
X36172675Y-38358602D01*
X36186023Y-38356622D01*
X36199500Y-38355960D01*
X37399500Y-38355960D01*
X37412977Y-38356622D01*
X37412977Y-38356622D01*
G37*
D19*
X36799500Y-38630960D03*
D14*
G36*
X37412977Y-39156622D02*
G01*
X37426325Y-39158602D01*
X37439414Y-39161881D01*
X37452119Y-39166427D01*
X37464317Y-39172196D01*
X37475891Y-39179133D01*
X37486729Y-39187171D01*
X37496727Y-39196233D01*
X37505789Y-39206231D01*
X37513827Y-39217069D01*
X37520764Y-39228643D01*
X37526533Y-39240841D01*
X37531079Y-39253546D01*
X37534358Y-39266635D01*
X37536338Y-39279983D01*
X37537000Y-39293460D01*
X37537000Y-39568460D01*
X37536338Y-39581937D01*
X37534358Y-39595285D01*
X37531079Y-39608374D01*
X37526533Y-39621079D01*
X37520764Y-39633277D01*
X37513827Y-39644851D01*
X37505789Y-39655689D01*
X37496727Y-39665687D01*
X37486729Y-39674749D01*
X37475891Y-39682787D01*
X37464317Y-39689724D01*
X37452119Y-39695493D01*
X37439414Y-39700039D01*
X37426325Y-39703318D01*
X37412977Y-39705298D01*
X37399500Y-39705960D01*
X36199500Y-39705960D01*
X36186023Y-39705298D01*
X36172675Y-39703318D01*
X36159586Y-39700039D01*
X36146881Y-39695493D01*
X36134683Y-39689724D01*
X36123109Y-39682787D01*
X36112271Y-39674749D01*
X36102273Y-39665687D01*
X36093211Y-39655689D01*
X36085173Y-39644851D01*
X36078236Y-39633277D01*
X36072467Y-39621079D01*
X36067921Y-39608374D01*
X36064642Y-39595285D01*
X36062662Y-39581937D01*
X36062000Y-39568460D01*
X36062000Y-39293460D01*
X36062662Y-39279983D01*
X36064642Y-39266635D01*
X36067921Y-39253546D01*
X36072467Y-39240841D01*
X36078236Y-39228643D01*
X36085173Y-39217069D01*
X36093211Y-39206231D01*
X36102273Y-39196233D01*
X36112271Y-39187171D01*
X36123109Y-39179133D01*
X36134683Y-39172196D01*
X36146881Y-39166427D01*
X36159586Y-39161881D01*
X36172675Y-39158602D01*
X36186023Y-39156622D01*
X36199500Y-39155960D01*
X37399500Y-39155960D01*
X37412977Y-39156622D01*
X37412977Y-39156622D01*
G37*
D19*
X36799500Y-39430960D03*
D14*
G36*
X37412977Y-39956622D02*
G01*
X37426325Y-39958602D01*
X37439414Y-39961881D01*
X37452119Y-39966427D01*
X37464317Y-39972196D01*
X37475891Y-39979133D01*
X37486729Y-39987171D01*
X37496727Y-39996233D01*
X37505789Y-40006231D01*
X37513827Y-40017069D01*
X37520764Y-40028643D01*
X37526533Y-40040841D01*
X37531079Y-40053546D01*
X37534358Y-40066635D01*
X37536338Y-40079983D01*
X37537000Y-40093460D01*
X37537000Y-40368460D01*
X37536338Y-40381937D01*
X37534358Y-40395285D01*
X37531079Y-40408374D01*
X37526533Y-40421079D01*
X37520764Y-40433277D01*
X37513827Y-40444851D01*
X37505789Y-40455689D01*
X37496727Y-40465687D01*
X37486729Y-40474749D01*
X37475891Y-40482787D01*
X37464317Y-40489724D01*
X37452119Y-40495493D01*
X37439414Y-40500039D01*
X37426325Y-40503318D01*
X37412977Y-40505298D01*
X37399500Y-40505960D01*
X36199500Y-40505960D01*
X36186023Y-40505298D01*
X36172675Y-40503318D01*
X36159586Y-40500039D01*
X36146881Y-40495493D01*
X36134683Y-40489724D01*
X36123109Y-40482787D01*
X36112271Y-40474749D01*
X36102273Y-40465687D01*
X36093211Y-40455689D01*
X36085173Y-40444851D01*
X36078236Y-40433277D01*
X36072467Y-40421079D01*
X36067921Y-40408374D01*
X36064642Y-40395285D01*
X36062662Y-40381937D01*
X36062000Y-40368460D01*
X36062000Y-40093460D01*
X36062662Y-40079983D01*
X36064642Y-40066635D01*
X36067921Y-40053546D01*
X36072467Y-40040841D01*
X36078236Y-40028643D01*
X36085173Y-40017069D01*
X36093211Y-40006231D01*
X36102273Y-39996233D01*
X36112271Y-39987171D01*
X36123109Y-39979133D01*
X36134683Y-39972196D01*
X36146881Y-39966427D01*
X36159586Y-39961881D01*
X36172675Y-39958602D01*
X36186023Y-39956622D01*
X36199500Y-39955960D01*
X37399500Y-39955960D01*
X37412977Y-39956622D01*
X37412977Y-39956622D01*
G37*
D19*
X36799500Y-40230960D03*
D14*
G36*
X37412977Y-40756622D02*
G01*
X37426325Y-40758602D01*
X37439414Y-40761881D01*
X37452119Y-40766427D01*
X37464317Y-40772196D01*
X37475891Y-40779133D01*
X37486729Y-40787171D01*
X37496727Y-40796233D01*
X37505789Y-40806231D01*
X37513827Y-40817069D01*
X37520764Y-40828643D01*
X37526533Y-40840841D01*
X37531079Y-40853546D01*
X37534358Y-40866635D01*
X37536338Y-40879983D01*
X37537000Y-40893460D01*
X37537000Y-41168460D01*
X37536338Y-41181937D01*
X37534358Y-41195285D01*
X37531079Y-41208374D01*
X37526533Y-41221079D01*
X37520764Y-41233277D01*
X37513827Y-41244851D01*
X37505789Y-41255689D01*
X37496727Y-41265687D01*
X37486729Y-41274749D01*
X37475891Y-41282787D01*
X37464317Y-41289724D01*
X37452119Y-41295493D01*
X37439414Y-41300039D01*
X37426325Y-41303318D01*
X37412977Y-41305298D01*
X37399500Y-41305960D01*
X36199500Y-41305960D01*
X36186023Y-41305298D01*
X36172675Y-41303318D01*
X36159586Y-41300039D01*
X36146881Y-41295493D01*
X36134683Y-41289724D01*
X36123109Y-41282787D01*
X36112271Y-41274749D01*
X36102273Y-41265687D01*
X36093211Y-41255689D01*
X36085173Y-41244851D01*
X36078236Y-41233277D01*
X36072467Y-41221079D01*
X36067921Y-41208374D01*
X36064642Y-41195285D01*
X36062662Y-41181937D01*
X36062000Y-41168460D01*
X36062000Y-40893460D01*
X36062662Y-40879983D01*
X36064642Y-40866635D01*
X36067921Y-40853546D01*
X36072467Y-40840841D01*
X36078236Y-40828643D01*
X36085173Y-40817069D01*
X36093211Y-40806231D01*
X36102273Y-40796233D01*
X36112271Y-40787171D01*
X36123109Y-40779133D01*
X36134683Y-40772196D01*
X36146881Y-40766427D01*
X36159586Y-40761881D01*
X36172675Y-40758602D01*
X36186023Y-40756622D01*
X36199500Y-40755960D01*
X37399500Y-40755960D01*
X37412977Y-40756622D01*
X37412977Y-40756622D01*
G37*
D19*
X36799500Y-41030960D03*
D14*
G36*
X37412977Y-41556622D02*
G01*
X37426325Y-41558602D01*
X37439414Y-41561881D01*
X37452119Y-41566427D01*
X37464317Y-41572196D01*
X37475891Y-41579133D01*
X37486729Y-41587171D01*
X37496727Y-41596233D01*
X37505789Y-41606231D01*
X37513827Y-41617069D01*
X37520764Y-41628643D01*
X37526533Y-41640841D01*
X37531079Y-41653546D01*
X37534358Y-41666635D01*
X37536338Y-41679983D01*
X37537000Y-41693460D01*
X37537000Y-41968460D01*
X37536338Y-41981937D01*
X37534358Y-41995285D01*
X37531079Y-42008374D01*
X37526533Y-42021079D01*
X37520764Y-42033277D01*
X37513827Y-42044851D01*
X37505789Y-42055689D01*
X37496727Y-42065687D01*
X37486729Y-42074749D01*
X37475891Y-42082787D01*
X37464317Y-42089724D01*
X37452119Y-42095493D01*
X37439414Y-42100039D01*
X37426325Y-42103318D01*
X37412977Y-42105298D01*
X37399500Y-42105960D01*
X36199500Y-42105960D01*
X36186023Y-42105298D01*
X36172675Y-42103318D01*
X36159586Y-42100039D01*
X36146881Y-42095493D01*
X36134683Y-42089724D01*
X36123109Y-42082787D01*
X36112271Y-42074749D01*
X36102273Y-42065687D01*
X36093211Y-42055689D01*
X36085173Y-42044851D01*
X36078236Y-42033277D01*
X36072467Y-42021079D01*
X36067921Y-42008374D01*
X36064642Y-41995285D01*
X36062662Y-41981937D01*
X36062000Y-41968460D01*
X36062000Y-41693460D01*
X36062662Y-41679983D01*
X36064642Y-41666635D01*
X36067921Y-41653546D01*
X36072467Y-41640841D01*
X36078236Y-41628643D01*
X36085173Y-41617069D01*
X36093211Y-41606231D01*
X36102273Y-41596233D01*
X36112271Y-41587171D01*
X36123109Y-41579133D01*
X36134683Y-41572196D01*
X36146881Y-41566427D01*
X36159586Y-41561881D01*
X36172675Y-41558602D01*
X36186023Y-41556622D01*
X36199500Y-41555960D01*
X37399500Y-41555960D01*
X37412977Y-41556622D01*
X37412977Y-41556622D01*
G37*
D19*
X36799500Y-41830960D03*
D14*
G36*
X37412977Y-42356622D02*
G01*
X37426325Y-42358602D01*
X37439414Y-42361881D01*
X37452119Y-42366427D01*
X37464317Y-42372196D01*
X37475891Y-42379133D01*
X37486729Y-42387171D01*
X37496727Y-42396233D01*
X37505789Y-42406231D01*
X37513827Y-42417069D01*
X37520764Y-42428643D01*
X37526533Y-42440841D01*
X37531079Y-42453546D01*
X37534358Y-42466635D01*
X37536338Y-42479983D01*
X37537000Y-42493460D01*
X37537000Y-42768460D01*
X37536338Y-42781937D01*
X37534358Y-42795285D01*
X37531079Y-42808374D01*
X37526533Y-42821079D01*
X37520764Y-42833277D01*
X37513827Y-42844851D01*
X37505789Y-42855689D01*
X37496727Y-42865687D01*
X37486729Y-42874749D01*
X37475891Y-42882787D01*
X37464317Y-42889724D01*
X37452119Y-42895493D01*
X37439414Y-42900039D01*
X37426325Y-42903318D01*
X37412977Y-42905298D01*
X37399500Y-42905960D01*
X36199500Y-42905960D01*
X36186023Y-42905298D01*
X36172675Y-42903318D01*
X36159586Y-42900039D01*
X36146881Y-42895493D01*
X36134683Y-42889724D01*
X36123109Y-42882787D01*
X36112271Y-42874749D01*
X36102273Y-42865687D01*
X36093211Y-42855689D01*
X36085173Y-42844851D01*
X36078236Y-42833277D01*
X36072467Y-42821079D01*
X36067921Y-42808374D01*
X36064642Y-42795285D01*
X36062662Y-42781937D01*
X36062000Y-42768460D01*
X36062000Y-42493460D01*
X36062662Y-42479983D01*
X36064642Y-42466635D01*
X36067921Y-42453546D01*
X36072467Y-42440841D01*
X36078236Y-42428643D01*
X36085173Y-42417069D01*
X36093211Y-42406231D01*
X36102273Y-42396233D01*
X36112271Y-42387171D01*
X36123109Y-42379133D01*
X36134683Y-42372196D01*
X36146881Y-42366427D01*
X36159586Y-42361881D01*
X36172675Y-42358602D01*
X36186023Y-42356622D01*
X36199500Y-42355960D01*
X37399500Y-42355960D01*
X37412977Y-42356622D01*
X37412977Y-42356622D01*
G37*
D19*
X36799500Y-42630960D03*
D14*
G36*
X37412977Y-43156622D02*
G01*
X37426325Y-43158602D01*
X37439414Y-43161881D01*
X37452119Y-43166427D01*
X37464317Y-43172196D01*
X37475891Y-43179133D01*
X37486729Y-43187171D01*
X37496727Y-43196233D01*
X37505789Y-43206231D01*
X37513827Y-43217069D01*
X37520764Y-43228643D01*
X37526533Y-43240841D01*
X37531079Y-43253546D01*
X37534358Y-43266635D01*
X37536338Y-43279983D01*
X37537000Y-43293460D01*
X37537000Y-43568460D01*
X37536338Y-43581937D01*
X37534358Y-43595285D01*
X37531079Y-43608374D01*
X37526533Y-43621079D01*
X37520764Y-43633277D01*
X37513827Y-43644851D01*
X37505789Y-43655689D01*
X37496727Y-43665687D01*
X37486729Y-43674749D01*
X37475891Y-43682787D01*
X37464317Y-43689724D01*
X37452119Y-43695493D01*
X37439414Y-43700039D01*
X37426325Y-43703318D01*
X37412977Y-43705298D01*
X37399500Y-43705960D01*
X36199500Y-43705960D01*
X36186023Y-43705298D01*
X36172675Y-43703318D01*
X36159586Y-43700039D01*
X36146881Y-43695493D01*
X36134683Y-43689724D01*
X36123109Y-43682787D01*
X36112271Y-43674749D01*
X36102273Y-43665687D01*
X36093211Y-43655689D01*
X36085173Y-43644851D01*
X36078236Y-43633277D01*
X36072467Y-43621079D01*
X36067921Y-43608374D01*
X36064642Y-43595285D01*
X36062662Y-43581937D01*
X36062000Y-43568460D01*
X36062000Y-43293460D01*
X36062662Y-43279983D01*
X36064642Y-43266635D01*
X36067921Y-43253546D01*
X36072467Y-43240841D01*
X36078236Y-43228643D01*
X36085173Y-43217069D01*
X36093211Y-43206231D01*
X36102273Y-43196233D01*
X36112271Y-43187171D01*
X36123109Y-43179133D01*
X36134683Y-43172196D01*
X36146881Y-43166427D01*
X36159586Y-43161881D01*
X36172675Y-43158602D01*
X36186023Y-43156622D01*
X36199500Y-43155960D01*
X37399500Y-43155960D01*
X37412977Y-43156622D01*
X37412977Y-43156622D01*
G37*
D19*
X36799500Y-43430960D03*
D14*
G36*
X38612977Y-44356622D02*
G01*
X38626325Y-44358602D01*
X38639414Y-44361881D01*
X38652119Y-44366427D01*
X38664317Y-44372196D01*
X38675891Y-44379133D01*
X38686729Y-44387171D01*
X38696727Y-44396233D01*
X38705789Y-44406231D01*
X38713827Y-44417069D01*
X38720764Y-44428643D01*
X38726533Y-44440841D01*
X38731079Y-44453546D01*
X38734358Y-44466635D01*
X38736338Y-44479983D01*
X38737000Y-44493460D01*
X38737000Y-45693460D01*
X38736338Y-45706937D01*
X38734358Y-45720285D01*
X38731079Y-45733374D01*
X38726533Y-45746079D01*
X38720764Y-45758277D01*
X38713827Y-45769851D01*
X38705789Y-45780689D01*
X38696727Y-45790687D01*
X38686729Y-45799749D01*
X38675891Y-45807787D01*
X38664317Y-45814724D01*
X38652119Y-45820493D01*
X38639414Y-45825039D01*
X38626325Y-45828318D01*
X38612977Y-45830298D01*
X38599500Y-45830960D01*
X38324500Y-45830960D01*
X38311023Y-45830298D01*
X38297675Y-45828318D01*
X38284586Y-45825039D01*
X38271881Y-45820493D01*
X38259683Y-45814724D01*
X38248109Y-45807787D01*
X38237271Y-45799749D01*
X38227273Y-45790687D01*
X38218211Y-45780689D01*
X38210173Y-45769851D01*
X38203236Y-45758277D01*
X38197467Y-45746079D01*
X38192921Y-45733374D01*
X38189642Y-45720285D01*
X38187662Y-45706937D01*
X38187000Y-45693460D01*
X38187000Y-44493460D01*
X38187662Y-44479983D01*
X38189642Y-44466635D01*
X38192921Y-44453546D01*
X38197467Y-44440841D01*
X38203236Y-44428643D01*
X38210173Y-44417069D01*
X38218211Y-44406231D01*
X38227273Y-44396233D01*
X38237271Y-44387171D01*
X38248109Y-44379133D01*
X38259683Y-44372196D01*
X38271881Y-44366427D01*
X38284586Y-44361881D01*
X38297675Y-44358602D01*
X38311023Y-44356622D01*
X38324500Y-44355960D01*
X38599500Y-44355960D01*
X38612977Y-44356622D01*
X38612977Y-44356622D01*
G37*
D19*
X38462000Y-45093460D03*
D14*
G36*
X39412977Y-44356622D02*
G01*
X39426325Y-44358602D01*
X39439414Y-44361881D01*
X39452119Y-44366427D01*
X39464317Y-44372196D01*
X39475891Y-44379133D01*
X39486729Y-44387171D01*
X39496727Y-44396233D01*
X39505789Y-44406231D01*
X39513827Y-44417069D01*
X39520764Y-44428643D01*
X39526533Y-44440841D01*
X39531079Y-44453546D01*
X39534358Y-44466635D01*
X39536338Y-44479983D01*
X39537000Y-44493460D01*
X39537000Y-45693460D01*
X39536338Y-45706937D01*
X39534358Y-45720285D01*
X39531079Y-45733374D01*
X39526533Y-45746079D01*
X39520764Y-45758277D01*
X39513827Y-45769851D01*
X39505789Y-45780689D01*
X39496727Y-45790687D01*
X39486729Y-45799749D01*
X39475891Y-45807787D01*
X39464317Y-45814724D01*
X39452119Y-45820493D01*
X39439414Y-45825039D01*
X39426325Y-45828318D01*
X39412977Y-45830298D01*
X39399500Y-45830960D01*
X39124500Y-45830960D01*
X39111023Y-45830298D01*
X39097675Y-45828318D01*
X39084586Y-45825039D01*
X39071881Y-45820493D01*
X39059683Y-45814724D01*
X39048109Y-45807787D01*
X39037271Y-45799749D01*
X39027273Y-45790687D01*
X39018211Y-45780689D01*
X39010173Y-45769851D01*
X39003236Y-45758277D01*
X38997467Y-45746079D01*
X38992921Y-45733374D01*
X38989642Y-45720285D01*
X38987662Y-45706937D01*
X38987000Y-45693460D01*
X38987000Y-44493460D01*
X38987662Y-44479983D01*
X38989642Y-44466635D01*
X38992921Y-44453546D01*
X38997467Y-44440841D01*
X39003236Y-44428643D01*
X39010173Y-44417069D01*
X39018211Y-44406231D01*
X39027273Y-44396233D01*
X39037271Y-44387171D01*
X39048109Y-44379133D01*
X39059683Y-44372196D01*
X39071881Y-44366427D01*
X39084586Y-44361881D01*
X39097675Y-44358602D01*
X39111023Y-44356622D01*
X39124500Y-44355960D01*
X39399500Y-44355960D01*
X39412977Y-44356622D01*
X39412977Y-44356622D01*
G37*
D19*
X39262000Y-45093460D03*
D14*
G36*
X40212977Y-44356622D02*
G01*
X40226325Y-44358602D01*
X40239414Y-44361881D01*
X40252119Y-44366427D01*
X40264317Y-44372196D01*
X40275891Y-44379133D01*
X40286729Y-44387171D01*
X40296727Y-44396233D01*
X40305789Y-44406231D01*
X40313827Y-44417069D01*
X40320764Y-44428643D01*
X40326533Y-44440841D01*
X40331079Y-44453546D01*
X40334358Y-44466635D01*
X40336338Y-44479983D01*
X40337000Y-44493460D01*
X40337000Y-45693460D01*
X40336338Y-45706937D01*
X40334358Y-45720285D01*
X40331079Y-45733374D01*
X40326533Y-45746079D01*
X40320764Y-45758277D01*
X40313827Y-45769851D01*
X40305789Y-45780689D01*
X40296727Y-45790687D01*
X40286729Y-45799749D01*
X40275891Y-45807787D01*
X40264317Y-45814724D01*
X40252119Y-45820493D01*
X40239414Y-45825039D01*
X40226325Y-45828318D01*
X40212977Y-45830298D01*
X40199500Y-45830960D01*
X39924500Y-45830960D01*
X39911023Y-45830298D01*
X39897675Y-45828318D01*
X39884586Y-45825039D01*
X39871881Y-45820493D01*
X39859683Y-45814724D01*
X39848109Y-45807787D01*
X39837271Y-45799749D01*
X39827273Y-45790687D01*
X39818211Y-45780689D01*
X39810173Y-45769851D01*
X39803236Y-45758277D01*
X39797467Y-45746079D01*
X39792921Y-45733374D01*
X39789642Y-45720285D01*
X39787662Y-45706937D01*
X39787000Y-45693460D01*
X39787000Y-44493460D01*
X39787662Y-44479983D01*
X39789642Y-44466635D01*
X39792921Y-44453546D01*
X39797467Y-44440841D01*
X39803236Y-44428643D01*
X39810173Y-44417069D01*
X39818211Y-44406231D01*
X39827273Y-44396233D01*
X39837271Y-44387171D01*
X39848109Y-44379133D01*
X39859683Y-44372196D01*
X39871881Y-44366427D01*
X39884586Y-44361881D01*
X39897675Y-44358602D01*
X39911023Y-44356622D01*
X39924500Y-44355960D01*
X40199500Y-44355960D01*
X40212977Y-44356622D01*
X40212977Y-44356622D01*
G37*
D19*
X40062000Y-45093460D03*
D14*
G36*
X41012977Y-44356622D02*
G01*
X41026325Y-44358602D01*
X41039414Y-44361881D01*
X41052119Y-44366427D01*
X41064317Y-44372196D01*
X41075891Y-44379133D01*
X41086729Y-44387171D01*
X41096727Y-44396233D01*
X41105789Y-44406231D01*
X41113827Y-44417069D01*
X41120764Y-44428643D01*
X41126533Y-44440841D01*
X41131079Y-44453546D01*
X41134358Y-44466635D01*
X41136338Y-44479983D01*
X41137000Y-44493460D01*
X41137000Y-45693460D01*
X41136338Y-45706937D01*
X41134358Y-45720285D01*
X41131079Y-45733374D01*
X41126533Y-45746079D01*
X41120764Y-45758277D01*
X41113827Y-45769851D01*
X41105789Y-45780689D01*
X41096727Y-45790687D01*
X41086729Y-45799749D01*
X41075891Y-45807787D01*
X41064317Y-45814724D01*
X41052119Y-45820493D01*
X41039414Y-45825039D01*
X41026325Y-45828318D01*
X41012977Y-45830298D01*
X40999500Y-45830960D01*
X40724500Y-45830960D01*
X40711023Y-45830298D01*
X40697675Y-45828318D01*
X40684586Y-45825039D01*
X40671881Y-45820493D01*
X40659683Y-45814724D01*
X40648109Y-45807787D01*
X40637271Y-45799749D01*
X40627273Y-45790687D01*
X40618211Y-45780689D01*
X40610173Y-45769851D01*
X40603236Y-45758277D01*
X40597467Y-45746079D01*
X40592921Y-45733374D01*
X40589642Y-45720285D01*
X40587662Y-45706937D01*
X40587000Y-45693460D01*
X40587000Y-44493460D01*
X40587662Y-44479983D01*
X40589642Y-44466635D01*
X40592921Y-44453546D01*
X40597467Y-44440841D01*
X40603236Y-44428643D01*
X40610173Y-44417069D01*
X40618211Y-44406231D01*
X40627273Y-44396233D01*
X40637271Y-44387171D01*
X40648109Y-44379133D01*
X40659683Y-44372196D01*
X40671881Y-44366427D01*
X40684586Y-44361881D01*
X40697675Y-44358602D01*
X40711023Y-44356622D01*
X40724500Y-44355960D01*
X40999500Y-44355960D01*
X41012977Y-44356622D01*
X41012977Y-44356622D01*
G37*
D19*
X40862000Y-45093460D03*
D14*
G36*
X41812977Y-44356622D02*
G01*
X41826325Y-44358602D01*
X41839414Y-44361881D01*
X41852119Y-44366427D01*
X41864317Y-44372196D01*
X41875891Y-44379133D01*
X41886729Y-44387171D01*
X41896727Y-44396233D01*
X41905789Y-44406231D01*
X41913827Y-44417069D01*
X41920764Y-44428643D01*
X41926533Y-44440841D01*
X41931079Y-44453546D01*
X41934358Y-44466635D01*
X41936338Y-44479983D01*
X41937000Y-44493460D01*
X41937000Y-45693460D01*
X41936338Y-45706937D01*
X41934358Y-45720285D01*
X41931079Y-45733374D01*
X41926533Y-45746079D01*
X41920764Y-45758277D01*
X41913827Y-45769851D01*
X41905789Y-45780689D01*
X41896727Y-45790687D01*
X41886729Y-45799749D01*
X41875891Y-45807787D01*
X41864317Y-45814724D01*
X41852119Y-45820493D01*
X41839414Y-45825039D01*
X41826325Y-45828318D01*
X41812977Y-45830298D01*
X41799500Y-45830960D01*
X41524500Y-45830960D01*
X41511023Y-45830298D01*
X41497675Y-45828318D01*
X41484586Y-45825039D01*
X41471881Y-45820493D01*
X41459683Y-45814724D01*
X41448109Y-45807787D01*
X41437271Y-45799749D01*
X41427273Y-45790687D01*
X41418211Y-45780689D01*
X41410173Y-45769851D01*
X41403236Y-45758277D01*
X41397467Y-45746079D01*
X41392921Y-45733374D01*
X41389642Y-45720285D01*
X41387662Y-45706937D01*
X41387000Y-45693460D01*
X41387000Y-44493460D01*
X41387662Y-44479983D01*
X41389642Y-44466635D01*
X41392921Y-44453546D01*
X41397467Y-44440841D01*
X41403236Y-44428643D01*
X41410173Y-44417069D01*
X41418211Y-44406231D01*
X41427273Y-44396233D01*
X41437271Y-44387171D01*
X41448109Y-44379133D01*
X41459683Y-44372196D01*
X41471881Y-44366427D01*
X41484586Y-44361881D01*
X41497675Y-44358602D01*
X41511023Y-44356622D01*
X41524500Y-44355960D01*
X41799500Y-44355960D01*
X41812977Y-44356622D01*
X41812977Y-44356622D01*
G37*
D19*
X41662000Y-45093460D03*
D14*
G36*
X42612977Y-44356622D02*
G01*
X42626325Y-44358602D01*
X42639414Y-44361881D01*
X42652119Y-44366427D01*
X42664317Y-44372196D01*
X42675891Y-44379133D01*
X42686729Y-44387171D01*
X42696727Y-44396233D01*
X42705789Y-44406231D01*
X42713827Y-44417069D01*
X42720764Y-44428643D01*
X42726533Y-44440841D01*
X42731079Y-44453546D01*
X42734358Y-44466635D01*
X42736338Y-44479983D01*
X42737000Y-44493460D01*
X42737000Y-45693460D01*
X42736338Y-45706937D01*
X42734358Y-45720285D01*
X42731079Y-45733374D01*
X42726533Y-45746079D01*
X42720764Y-45758277D01*
X42713827Y-45769851D01*
X42705789Y-45780689D01*
X42696727Y-45790687D01*
X42686729Y-45799749D01*
X42675891Y-45807787D01*
X42664317Y-45814724D01*
X42652119Y-45820493D01*
X42639414Y-45825039D01*
X42626325Y-45828318D01*
X42612977Y-45830298D01*
X42599500Y-45830960D01*
X42324500Y-45830960D01*
X42311023Y-45830298D01*
X42297675Y-45828318D01*
X42284586Y-45825039D01*
X42271881Y-45820493D01*
X42259683Y-45814724D01*
X42248109Y-45807787D01*
X42237271Y-45799749D01*
X42227273Y-45790687D01*
X42218211Y-45780689D01*
X42210173Y-45769851D01*
X42203236Y-45758277D01*
X42197467Y-45746079D01*
X42192921Y-45733374D01*
X42189642Y-45720285D01*
X42187662Y-45706937D01*
X42187000Y-45693460D01*
X42187000Y-44493460D01*
X42187662Y-44479983D01*
X42189642Y-44466635D01*
X42192921Y-44453546D01*
X42197467Y-44440841D01*
X42203236Y-44428643D01*
X42210173Y-44417069D01*
X42218211Y-44406231D01*
X42227273Y-44396233D01*
X42237271Y-44387171D01*
X42248109Y-44379133D01*
X42259683Y-44372196D01*
X42271881Y-44366427D01*
X42284586Y-44361881D01*
X42297675Y-44358602D01*
X42311023Y-44356622D01*
X42324500Y-44355960D01*
X42599500Y-44355960D01*
X42612977Y-44356622D01*
X42612977Y-44356622D01*
G37*
D19*
X42462000Y-45093460D03*
D14*
G36*
X43412977Y-44356622D02*
G01*
X43426325Y-44358602D01*
X43439414Y-44361881D01*
X43452119Y-44366427D01*
X43464317Y-44372196D01*
X43475891Y-44379133D01*
X43486729Y-44387171D01*
X43496727Y-44396233D01*
X43505789Y-44406231D01*
X43513827Y-44417069D01*
X43520764Y-44428643D01*
X43526533Y-44440841D01*
X43531079Y-44453546D01*
X43534358Y-44466635D01*
X43536338Y-44479983D01*
X43537000Y-44493460D01*
X43537000Y-45693460D01*
X43536338Y-45706937D01*
X43534358Y-45720285D01*
X43531079Y-45733374D01*
X43526533Y-45746079D01*
X43520764Y-45758277D01*
X43513827Y-45769851D01*
X43505789Y-45780689D01*
X43496727Y-45790687D01*
X43486729Y-45799749D01*
X43475891Y-45807787D01*
X43464317Y-45814724D01*
X43452119Y-45820493D01*
X43439414Y-45825039D01*
X43426325Y-45828318D01*
X43412977Y-45830298D01*
X43399500Y-45830960D01*
X43124500Y-45830960D01*
X43111023Y-45830298D01*
X43097675Y-45828318D01*
X43084586Y-45825039D01*
X43071881Y-45820493D01*
X43059683Y-45814724D01*
X43048109Y-45807787D01*
X43037271Y-45799749D01*
X43027273Y-45790687D01*
X43018211Y-45780689D01*
X43010173Y-45769851D01*
X43003236Y-45758277D01*
X42997467Y-45746079D01*
X42992921Y-45733374D01*
X42989642Y-45720285D01*
X42987662Y-45706937D01*
X42987000Y-45693460D01*
X42987000Y-44493460D01*
X42987662Y-44479983D01*
X42989642Y-44466635D01*
X42992921Y-44453546D01*
X42997467Y-44440841D01*
X43003236Y-44428643D01*
X43010173Y-44417069D01*
X43018211Y-44406231D01*
X43027273Y-44396233D01*
X43037271Y-44387171D01*
X43048109Y-44379133D01*
X43059683Y-44372196D01*
X43071881Y-44366427D01*
X43084586Y-44361881D01*
X43097675Y-44358602D01*
X43111023Y-44356622D01*
X43124500Y-44355960D01*
X43399500Y-44355960D01*
X43412977Y-44356622D01*
X43412977Y-44356622D01*
G37*
D19*
X43262000Y-45093460D03*
D14*
G36*
X44212977Y-44356622D02*
G01*
X44226325Y-44358602D01*
X44239414Y-44361881D01*
X44252119Y-44366427D01*
X44264317Y-44372196D01*
X44275891Y-44379133D01*
X44286729Y-44387171D01*
X44296727Y-44396233D01*
X44305789Y-44406231D01*
X44313827Y-44417069D01*
X44320764Y-44428643D01*
X44326533Y-44440841D01*
X44331079Y-44453546D01*
X44334358Y-44466635D01*
X44336338Y-44479983D01*
X44337000Y-44493460D01*
X44337000Y-45693460D01*
X44336338Y-45706937D01*
X44334358Y-45720285D01*
X44331079Y-45733374D01*
X44326533Y-45746079D01*
X44320764Y-45758277D01*
X44313827Y-45769851D01*
X44305789Y-45780689D01*
X44296727Y-45790687D01*
X44286729Y-45799749D01*
X44275891Y-45807787D01*
X44264317Y-45814724D01*
X44252119Y-45820493D01*
X44239414Y-45825039D01*
X44226325Y-45828318D01*
X44212977Y-45830298D01*
X44199500Y-45830960D01*
X43924500Y-45830960D01*
X43911023Y-45830298D01*
X43897675Y-45828318D01*
X43884586Y-45825039D01*
X43871881Y-45820493D01*
X43859683Y-45814724D01*
X43848109Y-45807787D01*
X43837271Y-45799749D01*
X43827273Y-45790687D01*
X43818211Y-45780689D01*
X43810173Y-45769851D01*
X43803236Y-45758277D01*
X43797467Y-45746079D01*
X43792921Y-45733374D01*
X43789642Y-45720285D01*
X43787662Y-45706937D01*
X43787000Y-45693460D01*
X43787000Y-44493460D01*
X43787662Y-44479983D01*
X43789642Y-44466635D01*
X43792921Y-44453546D01*
X43797467Y-44440841D01*
X43803236Y-44428643D01*
X43810173Y-44417069D01*
X43818211Y-44406231D01*
X43827273Y-44396233D01*
X43837271Y-44387171D01*
X43848109Y-44379133D01*
X43859683Y-44372196D01*
X43871881Y-44366427D01*
X43884586Y-44361881D01*
X43897675Y-44358602D01*
X43911023Y-44356622D01*
X43924500Y-44355960D01*
X44199500Y-44355960D01*
X44212977Y-44356622D01*
X44212977Y-44356622D01*
G37*
D19*
X44062000Y-45093460D03*
D14*
G36*
X45012977Y-44356622D02*
G01*
X45026325Y-44358602D01*
X45039414Y-44361881D01*
X45052119Y-44366427D01*
X45064317Y-44372196D01*
X45075891Y-44379133D01*
X45086729Y-44387171D01*
X45096727Y-44396233D01*
X45105789Y-44406231D01*
X45113827Y-44417069D01*
X45120764Y-44428643D01*
X45126533Y-44440841D01*
X45131079Y-44453546D01*
X45134358Y-44466635D01*
X45136338Y-44479983D01*
X45137000Y-44493460D01*
X45137000Y-45693460D01*
X45136338Y-45706937D01*
X45134358Y-45720285D01*
X45131079Y-45733374D01*
X45126533Y-45746079D01*
X45120764Y-45758277D01*
X45113827Y-45769851D01*
X45105789Y-45780689D01*
X45096727Y-45790687D01*
X45086729Y-45799749D01*
X45075891Y-45807787D01*
X45064317Y-45814724D01*
X45052119Y-45820493D01*
X45039414Y-45825039D01*
X45026325Y-45828318D01*
X45012977Y-45830298D01*
X44999500Y-45830960D01*
X44724500Y-45830960D01*
X44711023Y-45830298D01*
X44697675Y-45828318D01*
X44684586Y-45825039D01*
X44671881Y-45820493D01*
X44659683Y-45814724D01*
X44648109Y-45807787D01*
X44637271Y-45799749D01*
X44627273Y-45790687D01*
X44618211Y-45780689D01*
X44610173Y-45769851D01*
X44603236Y-45758277D01*
X44597467Y-45746079D01*
X44592921Y-45733374D01*
X44589642Y-45720285D01*
X44587662Y-45706937D01*
X44587000Y-45693460D01*
X44587000Y-44493460D01*
X44587662Y-44479983D01*
X44589642Y-44466635D01*
X44592921Y-44453546D01*
X44597467Y-44440841D01*
X44603236Y-44428643D01*
X44610173Y-44417069D01*
X44618211Y-44406231D01*
X44627273Y-44396233D01*
X44637271Y-44387171D01*
X44648109Y-44379133D01*
X44659683Y-44372196D01*
X44671881Y-44366427D01*
X44684586Y-44361881D01*
X44697675Y-44358602D01*
X44711023Y-44356622D01*
X44724500Y-44355960D01*
X44999500Y-44355960D01*
X45012977Y-44356622D01*
X45012977Y-44356622D01*
G37*
D19*
X44862000Y-45093460D03*
D14*
G36*
X45812977Y-44356622D02*
G01*
X45826325Y-44358602D01*
X45839414Y-44361881D01*
X45852119Y-44366427D01*
X45864317Y-44372196D01*
X45875891Y-44379133D01*
X45886729Y-44387171D01*
X45896727Y-44396233D01*
X45905789Y-44406231D01*
X45913827Y-44417069D01*
X45920764Y-44428643D01*
X45926533Y-44440841D01*
X45931079Y-44453546D01*
X45934358Y-44466635D01*
X45936338Y-44479983D01*
X45937000Y-44493460D01*
X45937000Y-45693460D01*
X45936338Y-45706937D01*
X45934358Y-45720285D01*
X45931079Y-45733374D01*
X45926533Y-45746079D01*
X45920764Y-45758277D01*
X45913827Y-45769851D01*
X45905789Y-45780689D01*
X45896727Y-45790687D01*
X45886729Y-45799749D01*
X45875891Y-45807787D01*
X45864317Y-45814724D01*
X45852119Y-45820493D01*
X45839414Y-45825039D01*
X45826325Y-45828318D01*
X45812977Y-45830298D01*
X45799500Y-45830960D01*
X45524500Y-45830960D01*
X45511023Y-45830298D01*
X45497675Y-45828318D01*
X45484586Y-45825039D01*
X45471881Y-45820493D01*
X45459683Y-45814724D01*
X45448109Y-45807787D01*
X45437271Y-45799749D01*
X45427273Y-45790687D01*
X45418211Y-45780689D01*
X45410173Y-45769851D01*
X45403236Y-45758277D01*
X45397467Y-45746079D01*
X45392921Y-45733374D01*
X45389642Y-45720285D01*
X45387662Y-45706937D01*
X45387000Y-45693460D01*
X45387000Y-44493460D01*
X45387662Y-44479983D01*
X45389642Y-44466635D01*
X45392921Y-44453546D01*
X45397467Y-44440841D01*
X45403236Y-44428643D01*
X45410173Y-44417069D01*
X45418211Y-44406231D01*
X45427273Y-44396233D01*
X45437271Y-44387171D01*
X45448109Y-44379133D01*
X45459683Y-44372196D01*
X45471881Y-44366427D01*
X45484586Y-44361881D01*
X45497675Y-44358602D01*
X45511023Y-44356622D01*
X45524500Y-44355960D01*
X45799500Y-44355960D01*
X45812977Y-44356622D01*
X45812977Y-44356622D01*
G37*
D19*
X45662000Y-45093460D03*
D14*
G36*
X46612977Y-44356622D02*
G01*
X46626325Y-44358602D01*
X46639414Y-44361881D01*
X46652119Y-44366427D01*
X46664317Y-44372196D01*
X46675891Y-44379133D01*
X46686729Y-44387171D01*
X46696727Y-44396233D01*
X46705789Y-44406231D01*
X46713827Y-44417069D01*
X46720764Y-44428643D01*
X46726533Y-44440841D01*
X46731079Y-44453546D01*
X46734358Y-44466635D01*
X46736338Y-44479983D01*
X46737000Y-44493460D01*
X46737000Y-45693460D01*
X46736338Y-45706937D01*
X46734358Y-45720285D01*
X46731079Y-45733374D01*
X46726533Y-45746079D01*
X46720764Y-45758277D01*
X46713827Y-45769851D01*
X46705789Y-45780689D01*
X46696727Y-45790687D01*
X46686729Y-45799749D01*
X46675891Y-45807787D01*
X46664317Y-45814724D01*
X46652119Y-45820493D01*
X46639414Y-45825039D01*
X46626325Y-45828318D01*
X46612977Y-45830298D01*
X46599500Y-45830960D01*
X46324500Y-45830960D01*
X46311023Y-45830298D01*
X46297675Y-45828318D01*
X46284586Y-45825039D01*
X46271881Y-45820493D01*
X46259683Y-45814724D01*
X46248109Y-45807787D01*
X46237271Y-45799749D01*
X46227273Y-45790687D01*
X46218211Y-45780689D01*
X46210173Y-45769851D01*
X46203236Y-45758277D01*
X46197467Y-45746079D01*
X46192921Y-45733374D01*
X46189642Y-45720285D01*
X46187662Y-45706937D01*
X46187000Y-45693460D01*
X46187000Y-44493460D01*
X46187662Y-44479983D01*
X46189642Y-44466635D01*
X46192921Y-44453546D01*
X46197467Y-44440841D01*
X46203236Y-44428643D01*
X46210173Y-44417069D01*
X46218211Y-44406231D01*
X46227273Y-44396233D01*
X46237271Y-44387171D01*
X46248109Y-44379133D01*
X46259683Y-44372196D01*
X46271881Y-44366427D01*
X46284586Y-44361881D01*
X46297675Y-44358602D01*
X46311023Y-44356622D01*
X46324500Y-44355960D01*
X46599500Y-44355960D01*
X46612977Y-44356622D01*
X46612977Y-44356622D01*
G37*
D19*
X46462000Y-45093460D03*
D20*
X48329400Y-31556960D03*
X44062200Y-31556960D03*
X50844000Y-44129960D03*
X44052000Y-35200960D03*
X39252000Y-43600960D03*
X39261600Y-37856160D03*
D21*
X23920000Y-32572960D03*
X29254000Y-32826960D03*
X32708400Y-43393360D03*
X31384707Y-32722922D03*
X33523630Y-32217352D03*
X32543299Y-37132259D03*
X41662000Y-32572960D03*
X62223200Y-34274760D03*
X62223200Y-37754560D03*
X64814000Y-36890960D03*
X38906000Y-48066960D03*
X51352000Y-47558960D03*
X67455600Y-34604960D03*
X55441400Y-38033960D03*
X45713198Y-48244760D03*
X53892000Y-33309560D03*
X49574000Y-39430960D03*
D20*
X29254000Y-50098960D03*
D21*
X33521202Y-33155620D03*
X26968000Y-34706560D03*
X33445000Y-41081960D03*
X32556000Y-41843960D03*
X33445000Y-42605960D03*
X38017000Y-45653960D03*
X40049000Y-46288960D03*
X40049000Y-47304960D03*
X26282200Y-45298360D03*
X53257000Y-49463960D03*
X49574000Y-35366960D03*
X33521200Y-34173160D03*
X61232600Y-34935160D03*
X51479000Y-34731960D03*
X49554715Y-36238955D03*
X62121612Y-42758360D03*
D22*
X48324000Y-33334960D02*
X48324000Y-31562360D01*
X48324000Y-31562360D02*
X48329400Y-31556960D01*
X44062000Y-33580960D02*
X44062000Y-31557160D01*
X44062000Y-31557160D02*
X44062200Y-31556960D01*
X54908000Y-52210960D02*
X55082000Y-52210960D01*
X37890000Y-47050960D02*
X37890000Y-51368960D01*
X50824000Y-45399960D02*
X50824000Y-44149960D01*
X50824000Y-44149960D02*
X50844000Y-44129960D01*
X35096000Y-52210960D02*
X35096000Y-52130960D01*
X38318000Y-51368960D02*
X37890000Y-51368960D01*
X38318000Y-51368960D02*
X39160000Y-52210960D01*
X37890000Y-51368960D02*
X35938000Y-51368960D01*
X35938000Y-51368960D02*
X35096000Y-52210960D01*
X37890000Y-47050960D02*
X38144000Y-47050960D01*
X36600000Y-45526960D02*
X36600000Y-46522960D01*
X37128000Y-47050960D02*
X38144000Y-47050960D01*
X36600000Y-46522960D02*
X37128000Y-47050960D01*
X48324000Y-33528960D02*
X48324000Y-33334960D01*
X44062000Y-33580960D02*
X44062000Y-35190960D01*
X44062000Y-35190960D02*
X44052000Y-35200960D01*
X39262000Y-43610960D02*
X39262000Y-45280960D01*
X39252000Y-43600960D02*
X39262000Y-43610960D01*
X54908000Y-52210960D02*
X54908000Y-52130960D01*
X38144000Y-47050960D02*
X38652000Y-47050960D01*
X38652000Y-47050960D02*
X39262000Y-46440960D01*
X39262000Y-46440960D02*
X39262000Y-45280960D01*
X39160000Y-52210960D02*
X39160000Y-52130960D01*
X39160000Y-52130960D02*
X39922000Y-51368960D01*
X54066000Y-51368960D02*
X54908000Y-52210960D01*
X39922000Y-51368960D02*
X54066000Y-51368960D01*
X36600000Y-45780960D02*
X36600000Y-45292960D01*
X47796000Y-33334960D02*
X48832000Y-33334960D01*
X34334000Y-37886960D02*
X34364800Y-37856160D01*
X38722785Y-37856160D02*
X38245600Y-37856160D01*
X39261600Y-37856160D02*
X38722785Y-37856160D01*
X34364800Y-37856160D02*
X38245600Y-37856160D01*
X38245600Y-37856160D02*
X38666596Y-37856160D01*
D23*
X23412000Y-32064960D02*
X23412000Y-29270960D01*
X23920000Y-32572960D02*
X23412000Y-32064960D01*
X36612000Y-40230960D02*
X32340000Y-40230960D01*
X32340000Y-40230960D02*
X30778000Y-38668960D01*
X30778000Y-38668960D02*
X30778000Y-37906960D01*
X30778000Y-37906960D02*
X29990567Y-37119527D01*
X29254000Y-33293933D02*
X29254000Y-32826960D01*
X29990567Y-37119527D02*
X29990567Y-34030500D01*
X29990567Y-34030500D02*
X29254000Y-33293933D01*
X32683000Y-39430960D02*
X31209778Y-37957738D01*
X36612000Y-39430960D02*
X32683000Y-39430960D01*
X26801999Y-30120959D02*
X25952000Y-29270960D01*
X30343295Y-33576608D02*
X30343295Y-32519255D01*
X30396978Y-36364040D02*
X30396978Y-33630291D01*
X31209778Y-37176840D02*
X30396978Y-36364040D01*
X30343295Y-32519255D02*
X28720600Y-30896560D01*
X30396978Y-33630291D02*
X30343295Y-33576608D01*
X27577600Y-30896560D02*
X26801999Y-30120959D01*
X28720600Y-30896560D02*
X27577600Y-30896560D01*
X31209778Y-37957738D02*
X31209778Y-37176840D01*
X28492000Y-29270960D02*
X28492000Y-29778960D01*
X30803389Y-36195699D02*
X30803389Y-33081406D01*
X30803389Y-33081406D02*
X30749706Y-33027723D01*
X30749706Y-31528666D02*
X29341999Y-30120959D01*
X36612000Y-38630960D02*
X32517998Y-38630960D01*
X29341999Y-30120959D02*
X28492000Y-29270960D01*
X30749706Y-33027723D02*
X30749706Y-31528666D01*
X31616189Y-37008499D02*
X30803389Y-36195699D01*
X32517998Y-38630960D02*
X31616189Y-37729151D01*
X31616189Y-37729151D02*
X31616189Y-37008499D01*
X33572000Y-29270960D02*
X35096000Y-30794960D01*
X38462000Y-32636960D02*
X38462000Y-33580960D01*
X36620000Y-30794960D02*
X38462000Y-32636960D01*
X35096000Y-30794960D02*
X36620000Y-30794960D01*
X36761900Y-43393360D02*
X36799500Y-43430960D01*
X32708400Y-43393360D02*
X36761900Y-43393360D01*
X33523630Y-30863817D02*
X33523630Y-31750379D01*
X33572000Y-26730960D02*
X32302000Y-28000960D01*
X32302000Y-28000960D02*
X32302000Y-29642187D01*
X32302000Y-29642187D02*
X33523630Y-30863817D01*
X33523630Y-31750379D02*
X33523630Y-32217352D01*
X31384707Y-32722922D02*
X31384707Y-35973667D01*
X32213100Y-36802060D02*
X32543299Y-37132259D01*
X31384707Y-35973667D02*
X32213100Y-36802060D01*
X19856000Y-49336960D02*
X20033800Y-49514760D01*
X13252000Y-33461960D02*
X13252000Y-33334960D01*
X18078000Y-31556960D02*
X19602000Y-30032960D01*
X19602000Y-30032960D02*
X19602000Y-29524960D01*
X20364000Y-25460960D02*
X34080000Y-25460960D01*
X19602000Y-29524960D02*
X19602000Y-26222960D01*
X19602000Y-26222960D02*
X20364000Y-25460960D01*
X34080000Y-25460960D02*
X34842000Y-26222960D01*
X34842000Y-26222960D02*
X34842000Y-28000960D01*
X36112000Y-29270960D02*
X34842000Y-28000960D01*
X19856000Y-49336960D02*
X17443000Y-46923960D01*
X17443000Y-46923960D02*
X14014000Y-46923960D01*
X14014000Y-46923960D02*
X13252000Y-46161960D01*
X13252000Y-46161960D02*
X13252000Y-33461960D01*
X17570000Y-32064960D02*
X18078000Y-31556960D01*
X14522000Y-32064960D02*
X17570000Y-32064960D01*
X13252000Y-33334960D02*
X14522000Y-32064960D01*
X20033800Y-49514760D02*
X20868200Y-49514760D01*
X20868200Y-49514760D02*
X20872000Y-49510960D01*
X36112000Y-29270960D02*
X36112000Y-29524960D01*
X36112000Y-29524960D02*
X39262000Y-32674960D01*
X39262000Y-32674960D02*
X39262000Y-33580960D01*
X40862000Y-33580960D02*
X40862000Y-31480960D01*
X40862000Y-31480960D02*
X38652000Y-29270960D01*
X38652000Y-26730960D02*
X37382000Y-28000960D01*
X40062000Y-32712960D02*
X40062000Y-33580960D01*
X37382000Y-30032960D02*
X40062000Y-32712960D01*
X37382000Y-28000960D02*
X37382000Y-30032960D01*
X41662000Y-33580960D02*
X41662000Y-32572960D01*
X41662000Y-32572960D02*
X41662000Y-31518960D01*
X39922000Y-28000960D02*
X41192000Y-26730960D01*
X39922000Y-29778960D02*
X39922000Y-28000960D01*
X41662000Y-31518960D02*
X39922000Y-29778960D01*
X62223200Y-34274760D02*
X62223200Y-34741733D01*
X62223200Y-34741733D02*
X62223200Y-37754560D01*
X43732000Y-29270960D02*
X43732000Y-30794960D01*
X43262000Y-31264960D02*
X43262000Y-33580960D01*
X43732000Y-30794960D02*
X43262000Y-31264960D01*
X46272000Y-29270960D02*
X46272000Y-30286960D01*
X44862000Y-31696960D02*
X44862000Y-33580960D01*
X46272000Y-30286960D02*
X44862000Y-31696960D01*
X45662000Y-33580960D02*
X45662000Y-32216960D01*
X45662000Y-32216960D02*
X48608000Y-29270960D01*
X48608000Y-29270960D02*
X48812000Y-29270960D01*
X48812000Y-26730960D02*
X50082000Y-28000960D01*
X46462000Y-32382960D02*
X46462000Y-33580960D01*
X48304000Y-30540960D02*
X46462000Y-32382960D01*
X49320000Y-30540960D02*
X48304000Y-30540960D01*
X50082000Y-29778960D02*
X49320000Y-30540960D01*
X50082000Y-28000960D02*
X50082000Y-29778960D01*
X50590000Y-36636960D02*
X52622000Y-34604960D01*
X52622000Y-28000960D02*
X51352000Y-26730960D01*
X50590000Y-37144960D02*
X50590000Y-36636960D01*
X49904000Y-37830960D02*
X50590000Y-37144960D01*
X48312000Y-37830960D02*
X49904000Y-37830960D01*
X52622000Y-34604960D02*
X52622000Y-28000960D01*
X52114000Y-38147956D02*
X52114000Y-37398960D01*
X52114000Y-37398960D02*
X56432000Y-33080960D01*
X50030996Y-40230960D02*
X52114000Y-38147956D01*
X48312000Y-40230960D02*
X50030996Y-40230960D01*
X56432000Y-30473041D02*
X56432000Y-29270960D01*
X56432000Y-33080960D02*
X56432000Y-30473041D01*
X49315200Y-42630960D02*
X52190178Y-39755982D01*
X52190178Y-39755982D02*
X52190178Y-39221280D01*
X52190178Y-39221280D02*
X52952178Y-38459280D01*
X52952178Y-38459280D02*
X52952178Y-38084782D01*
X52952178Y-38084782D02*
X58972000Y-32064960D01*
X58972000Y-32064960D02*
X58972000Y-30473041D01*
X58972000Y-30473041D02*
X58972000Y-29270960D01*
X48312000Y-42630960D02*
X49315200Y-42630960D01*
X48312000Y-41830960D02*
X49315200Y-41830960D01*
X49315200Y-41830960D02*
X51783767Y-39362393D01*
X51783767Y-39362393D02*
X51783767Y-39052940D01*
X57702000Y-28000960D02*
X58122001Y-27580959D01*
X58122001Y-27580959D02*
X58972000Y-26730960D01*
X57702000Y-32572960D02*
X57702000Y-28000960D01*
X52545767Y-37729193D02*
X57702000Y-32572960D01*
X52545767Y-38290940D02*
X52545767Y-37729193D01*
X51783767Y-39052940D02*
X52545767Y-38290940D01*
X61512000Y-30473041D02*
X61512000Y-29270960D01*
X61512000Y-30474209D02*
X61512000Y-30473041D01*
X52596589Y-39389620D02*
X61512000Y-30474209D01*
X52596589Y-40149571D02*
X52596589Y-39389620D01*
X49315200Y-43430960D02*
X52596589Y-40149571D01*
X48312000Y-43430960D02*
X49315200Y-43430960D01*
X43262000Y-45280960D02*
X43262000Y-47342960D01*
X43262000Y-47342960D02*
X46653000Y-50733960D01*
X64052000Y-48646960D02*
X64052000Y-48574960D01*
X64052000Y-48574960D02*
X65322000Y-47304960D01*
X53685000Y-50733960D02*
X54908000Y-49510960D01*
X46653000Y-50733960D02*
X53685000Y-50733960D01*
X65322000Y-37398960D02*
X65322000Y-47304960D01*
X57552000Y-48646960D02*
X55772000Y-48646960D01*
X55772000Y-48646960D02*
X54908000Y-49510960D01*
X64814000Y-36890960D02*
X65322000Y-37398960D01*
X41662000Y-45280960D02*
X41662000Y-46707960D01*
X41662000Y-46707960D02*
X40303000Y-48066960D01*
X32556000Y-48646960D02*
X34232000Y-48646960D01*
X34232000Y-48646960D02*
X35096000Y-49510960D01*
X40303000Y-48066960D02*
X38906000Y-48066960D01*
X64052000Y-26730960D02*
X62782000Y-28000960D01*
X62782000Y-28000960D02*
X62782000Y-29778960D01*
X62782000Y-29778960D02*
X53003000Y-39557960D01*
X53003000Y-39557960D02*
X53003000Y-45907960D01*
X51682199Y-47228761D02*
X51352000Y-47558960D01*
X53003000Y-45907960D02*
X51682199Y-47228761D01*
X41804000Y-48646960D02*
X41804000Y-47454960D01*
X41804000Y-47454960D02*
X42462000Y-46796960D01*
X42462000Y-45280960D02*
X42462000Y-46796960D01*
X41804000Y-48646960D02*
X40024000Y-48646960D01*
X40024000Y-48646960D02*
X39160000Y-49510960D01*
X48304000Y-48646960D02*
X48486000Y-48646960D01*
X49303999Y-49646959D02*
X48304000Y-48646960D01*
X51804001Y-49646959D02*
X49303999Y-49646959D01*
X55670000Y-45780960D02*
X51804001Y-49646959D01*
X55670000Y-39290600D02*
X55670000Y-45780960D01*
X65703000Y-34604960D02*
X65322000Y-34223960D01*
X67455600Y-34604960D02*
X65703000Y-34604960D01*
X65322000Y-34223960D02*
X65322000Y-32064960D01*
X65322000Y-32064960D02*
X65068000Y-31810960D01*
X65068000Y-31810960D02*
X63149640Y-31810960D01*
X63149640Y-31810960D02*
X55670000Y-39290600D01*
X65322000Y-29778960D02*
X65322000Y-28000960D01*
X64306000Y-30794960D02*
X65322000Y-29778960D01*
X65322000Y-28000960D02*
X66592000Y-26730960D01*
X64306000Y-30794960D02*
X62680400Y-30794960D01*
X54146000Y-39329360D02*
X55441400Y-38033960D01*
X54146000Y-45780960D02*
X54146000Y-39329360D01*
X46462000Y-46224960D02*
X46780000Y-46542960D01*
X46462000Y-45589960D02*
X46462000Y-46224960D01*
X46780000Y-46542960D02*
X49320000Y-46542960D01*
X49320000Y-46542960D02*
X51098000Y-48320960D01*
X51098000Y-48320960D02*
X51606000Y-48320960D01*
X51606000Y-48320960D02*
X54146000Y-45780960D01*
X62680400Y-30794960D02*
X55441400Y-38033960D01*
X46399000Y-47177960D02*
X45662000Y-46440960D01*
X50897478Y-48828960D02*
X49159576Y-47177960D01*
X51860000Y-48828960D02*
X50897478Y-48828960D01*
X55162000Y-45526960D02*
X51860000Y-48828960D01*
X55162000Y-39223850D02*
X55162000Y-45526960D01*
X59924500Y-34461350D02*
X55162000Y-39223850D01*
X59924500Y-34414460D02*
X59924500Y-34461350D01*
X63036000Y-31302960D02*
X59924500Y-34414460D01*
X45662000Y-46440960D02*
X45662000Y-45280960D01*
X67862000Y-28000960D02*
X67862000Y-30032960D01*
X49159576Y-47177960D02*
X46399000Y-47177960D01*
X69132000Y-26730960D02*
X67862000Y-28000960D01*
X67862000Y-30032960D02*
X67354000Y-30540960D01*
X67354000Y-30540960D02*
X65576000Y-30540960D01*
X65576000Y-30540960D02*
X64814000Y-31302960D01*
X64814000Y-31302960D02*
X63036000Y-31302960D01*
X20872000Y-52210960D02*
X20872000Y-52050960D01*
X20872000Y-52050960D02*
X23412000Y-49510960D01*
X66846000Y-49510960D02*
X66846000Y-49670960D01*
X66973000Y-49797960D02*
X69513000Y-52337960D01*
X69386000Y-41208960D02*
X69386000Y-34858960D01*
X69894000Y-25460960D02*
X47542000Y-25460960D01*
X70402000Y-25968960D02*
X69894000Y-25460960D01*
X70402000Y-29270960D02*
X70402000Y-25968960D01*
X71164000Y-30032960D02*
X70402000Y-29270960D01*
X71164000Y-33080960D02*
X71164000Y-30032960D01*
X69386000Y-34858960D02*
X71164000Y-33080960D01*
X47542000Y-25460960D02*
X46272000Y-26730960D01*
X69386000Y-41208960D02*
X69386000Y-49510960D01*
X45382999Y-47914561D02*
X45713198Y-48244760D01*
X44862000Y-47393562D02*
X45382999Y-47914561D01*
X44862000Y-45280960D02*
X44862000Y-47393562D01*
X53892000Y-33309560D02*
X53892000Y-29270960D01*
X50082000Y-38630960D02*
X48124500Y-38630960D01*
X51098000Y-36890960D02*
X53892000Y-34096960D01*
X51098000Y-37614960D02*
X51098000Y-36890960D01*
X50082000Y-38630960D02*
X51098000Y-37614960D01*
X53892000Y-34096960D02*
X53892000Y-33309560D01*
X55162000Y-28000960D02*
X53892000Y-26730960D01*
X55162000Y-33588960D02*
X55162000Y-28000960D01*
X49574000Y-39430960D02*
X50082000Y-39430960D01*
X50082000Y-39430960D02*
X51606000Y-37906960D01*
X51606000Y-37906960D02*
X51606000Y-37144960D01*
X51606000Y-37144960D02*
X55162000Y-33588960D01*
X48312000Y-39430960D02*
X49574000Y-39430960D01*
D24*
X22142000Y-32064960D02*
X22142000Y-32572960D01*
X22142000Y-32572960D02*
X23920000Y-34350960D01*
X20872000Y-26730960D02*
X22142000Y-26730960D01*
X22142000Y-26730960D02*
X22142000Y-27746960D01*
X22142000Y-31810960D02*
X22142000Y-32064960D01*
X22142000Y-32064960D02*
X22142000Y-30794960D01*
X22142000Y-26730960D02*
X23412000Y-26730960D01*
D22*
X22142000Y-29347160D02*
X22142000Y-27746960D01*
X22142000Y-30794960D02*
X22142000Y-29347160D01*
D23*
X69132000Y-29270960D02*
X69132000Y-29626560D01*
X69132000Y-29626560D02*
X67887400Y-30871160D01*
X67609559Y-35594001D02*
X64100800Y-35594001D01*
X68395400Y-34808160D02*
X67609559Y-35594001D01*
X68395400Y-33614360D02*
X68395400Y-34808160D01*
X67887400Y-33106360D02*
X68395400Y-33614360D01*
X67887400Y-30871160D02*
X67887400Y-33106360D01*
D22*
X25952000Y-26730960D02*
X24682000Y-28000960D01*
X39287000Y-39684960D02*
X45256000Y-39684960D01*
X38271000Y-40700960D02*
X39287000Y-39684960D01*
X38271000Y-43621960D02*
X38271000Y-40700960D01*
X37509000Y-44383960D02*
X38271000Y-43621960D01*
X42462000Y-36890960D02*
X45256000Y-39684960D01*
X64052000Y-53146960D02*
X65910000Y-53146960D01*
X65910000Y-53146960D02*
X66846000Y-52210960D01*
X23412000Y-52210960D02*
X23492000Y-52210960D01*
X23492000Y-52210960D02*
X24428000Y-53146960D01*
X24428000Y-53146960D02*
X26056000Y-53146960D01*
X31032000Y-29270960D02*
X31032000Y-29524960D01*
X48324000Y-45399960D02*
X48324000Y-45292960D01*
X48324000Y-45292960D02*
X46602000Y-43570960D01*
X46602000Y-43570960D02*
X46602000Y-41030960D01*
X34100000Y-45780960D02*
X34207000Y-45780960D01*
X34207000Y-45780960D02*
X35604000Y-44383960D01*
X35604000Y-44383960D02*
X37509000Y-44383960D01*
X34334000Y-35386960D02*
X34334000Y-34858960D01*
X42462000Y-37030960D02*
X42462000Y-36890960D01*
X46602000Y-41030960D02*
X48312000Y-41030960D01*
X45256000Y-39684960D02*
X46602000Y-41030960D01*
X42462000Y-33580960D02*
X42462000Y-36890960D01*
D24*
X51352000Y-29270960D02*
X51352000Y-30794960D01*
X51352000Y-30794960D02*
X50824000Y-31322960D01*
X50824000Y-31322960D02*
X50824000Y-33334960D01*
D22*
X42462000Y-28000960D02*
X43732000Y-26730960D01*
X42462000Y-33580960D02*
X42462000Y-28000960D01*
X51352000Y-33314960D02*
X51332000Y-33334960D01*
X24682000Y-28000960D02*
X24682000Y-30540960D01*
D25*
X34334000Y-35386960D02*
X33227933Y-35386960D01*
X33227933Y-35386960D02*
X32299117Y-34458144D01*
X32299117Y-31740158D02*
X31032000Y-30473041D01*
X31032000Y-30473041D02*
X31032000Y-29270960D01*
D22*
X42334698Y-36903658D02*
X42462000Y-37030960D01*
X35362698Y-36903658D02*
X42334698Y-36903658D01*
X34334000Y-35386960D02*
X34334000Y-35874960D01*
X34334000Y-35874960D02*
X35362698Y-36903658D01*
D24*
X21380000Y-44510960D02*
X15792000Y-44510960D01*
D25*
X32299117Y-34458144D02*
X32299117Y-31740158D01*
D22*
X50336000Y-34604960D02*
X47288000Y-34604960D01*
X44862000Y-37030960D02*
X42462000Y-37030960D01*
X50824000Y-33334960D02*
X50824000Y-34116960D01*
X50824000Y-34116960D02*
X50336000Y-34604960D01*
X47288000Y-34604960D02*
X44862000Y-37030960D01*
D24*
X30270000Y-49082960D02*
X29254000Y-50098960D01*
X28390400Y-40091360D02*
X30270000Y-41970960D01*
X24682000Y-30540960D02*
X28390400Y-34249360D01*
X28390400Y-34249360D02*
X28390400Y-40091360D01*
X32657600Y-45526960D02*
X30397000Y-45526960D01*
X32657600Y-45526960D02*
X31794000Y-45526960D01*
X34325000Y-45526960D02*
X32657600Y-45526960D01*
X30270000Y-46568360D02*
X30270000Y-41970960D01*
X30270000Y-49082960D02*
X30270000Y-46568360D01*
X21380000Y-46376960D02*
X21380000Y-44510960D01*
X21571400Y-46568360D02*
X21380000Y-46376960D01*
X30270000Y-46568360D02*
X21571400Y-46568360D01*
D23*
X36612000Y-35430960D02*
X36612000Y-35358960D01*
X36620000Y-35422960D02*
X36612000Y-35430960D01*
X36799500Y-35430960D02*
X34524160Y-33155620D01*
X33988175Y-33155620D02*
X33521202Y-33155620D01*
X34524160Y-33155620D02*
X33988175Y-33155620D01*
X15792000Y-37017960D02*
X15792000Y-36890960D01*
X16935000Y-38160960D02*
X15792000Y-37017960D01*
X22269000Y-38160960D02*
X16935000Y-38160960D01*
X23920000Y-39430960D02*
X23539000Y-39430960D01*
X23539000Y-39430960D02*
X22269000Y-38160960D01*
X25825000Y-38668960D02*
X25063000Y-39430960D01*
X23920000Y-39430960D02*
X25063000Y-39430960D01*
X25825000Y-35849560D02*
X26968000Y-34706560D01*
X25825000Y-38668960D02*
X25825000Y-35849560D01*
X33496000Y-41030960D02*
X33445000Y-41081960D01*
X33496000Y-41030960D02*
X36612000Y-41030960D01*
X36612000Y-41830960D02*
X32569000Y-41830960D01*
X32569000Y-41830960D02*
X32556000Y-41843960D01*
X36612000Y-42630960D02*
X33470000Y-42630960D01*
X33470000Y-42630960D02*
X33445000Y-42605960D01*
X38462000Y-45280960D02*
X38390000Y-45280960D01*
X38390000Y-45280960D02*
X38017000Y-45653960D01*
X38462000Y-45280960D02*
X38462000Y-45716960D01*
X40062000Y-45280960D02*
X40062000Y-46275960D01*
X40062000Y-46275960D02*
X40049000Y-46288960D01*
X15792000Y-42097960D02*
X15792000Y-41970960D01*
X16935000Y-43240960D02*
X15792000Y-42097960D01*
X22904000Y-43240960D02*
X16935000Y-43240960D01*
X23920000Y-44510960D02*
X23920000Y-44256960D01*
X23920000Y-44256960D02*
X22904000Y-43240960D01*
X40862000Y-45280960D02*
X40862000Y-46491960D01*
X40862000Y-46491960D02*
X40049000Y-47304960D01*
X23412000Y-41970960D02*
X22142000Y-40700960D01*
X16935000Y-40700960D02*
X15792000Y-39557960D01*
X15792000Y-39557960D02*
X15792000Y-39430960D01*
X22142000Y-40700960D02*
X16935000Y-40700960D01*
X26282200Y-44333160D02*
X23920000Y-41970960D01*
X26282200Y-45298360D02*
X26282200Y-44333160D01*
X22650000Y-35620960D02*
X23920000Y-36890960D01*
X17011200Y-35620960D02*
X22650000Y-35620960D01*
X15792000Y-34350960D02*
X15792000Y-34401760D01*
X15792000Y-34401760D02*
X17011200Y-35620960D01*
X46652996Y-50098960D02*
X52622000Y-50098960D01*
X52926801Y-49794159D02*
X53257000Y-49463960D01*
X44062000Y-45280960D02*
X44062000Y-47507964D01*
X44062000Y-47507964D02*
X46652996Y-50098960D01*
X52622000Y-50098960D02*
X52926801Y-49794159D01*
X48312000Y-35430960D02*
X49510000Y-35430960D01*
X49510000Y-35430960D02*
X49574000Y-35366960D01*
X36612000Y-36230960D02*
X35680600Y-36230960D01*
X35680600Y-36230960D02*
X35654799Y-36205159D01*
X35654799Y-35280986D02*
X34546973Y-34173160D01*
X35654799Y-36205159D02*
X35654799Y-35280986D01*
X33988173Y-34173160D02*
X33521200Y-34173160D01*
X34546973Y-34173160D02*
X33988173Y-34173160D01*
X48198000Y-37144960D02*
X48312000Y-37030960D01*
X50183590Y-36408370D02*
X51021800Y-35570160D01*
X49815000Y-37030960D02*
X50183590Y-36662370D01*
X48124500Y-37030960D02*
X49815000Y-37030960D01*
X50183590Y-36662370D02*
X50183590Y-36408370D01*
X51021800Y-35570160D02*
X51021800Y-35189160D01*
X51021800Y-35189160D02*
X51479000Y-34731960D01*
X51606000Y-34731960D02*
X51479000Y-34731960D01*
X64100800Y-43214001D02*
X61232600Y-40345801D01*
X61232600Y-35402133D02*
X61232600Y-34935160D01*
X61232600Y-40345801D02*
X61232600Y-35402133D01*
X48312000Y-36230960D02*
X49546720Y-36230960D01*
X49546720Y-36230960D02*
X49554715Y-36238955D01*
X64100800Y-45754001D02*
X62121612Y-43774813D01*
X62121612Y-43774813D02*
X62121612Y-43225333D01*
X62121612Y-43225333D02*
X62121612Y-42758360D01*
X31032000Y-26730960D02*
X31032000Y-27238960D01*
X28492000Y-26730960D02*
X28492000Y-27238960D01*
D26*
G36*
X42589000Y-34982210D02*
G01*
X42747750Y-35140960D01*
X42864668Y-35131129D01*
X42921702Y-35113510D01*
X42973193Y-35129130D01*
X43036000Y-35135316D01*
X43036000Y-35301027D01*
X43075044Y-35497316D01*
X43151632Y-35682216D01*
X43262821Y-35848622D01*
X43404338Y-35990139D01*
X43570744Y-36101328D01*
X43755644Y-36177916D01*
X43951933Y-36216960D01*
X44152067Y-36216960D01*
X44348356Y-36177916D01*
X44533256Y-36101328D01*
X44699662Y-35990139D01*
X44841179Y-35848622D01*
X44952368Y-35682216D01*
X45028956Y-35497316D01*
X45068000Y-35301027D01*
X45068000Y-35137286D01*
X45150807Y-35129130D01*
X45262000Y-35095400D01*
X45373193Y-35129130D01*
X45524500Y-35144032D01*
X45799500Y-35144032D01*
X45950807Y-35129130D01*
X46062000Y-35095400D01*
X46173193Y-35129130D01*
X46324500Y-35144032D01*
X46599500Y-35144032D01*
X46750807Y-35129130D01*
X46769501Y-35123459D01*
X46763830Y-35142153D01*
X46748928Y-35293460D01*
X46748928Y-35568460D01*
X46763830Y-35719767D01*
X46797560Y-35830960D01*
X46763830Y-35942153D01*
X46748928Y-36093460D01*
X46748928Y-36368460D01*
X46763830Y-36519767D01*
X46797560Y-36630960D01*
X46763830Y-36742153D01*
X46748928Y-36893460D01*
X46748928Y-37168460D01*
X46763830Y-37319767D01*
X46797560Y-37430960D01*
X46763830Y-37542153D01*
X46748928Y-37693460D01*
X46748928Y-37968460D01*
X46763830Y-38119767D01*
X46797560Y-38230960D01*
X46763830Y-38342153D01*
X46748928Y-38493460D01*
X46748928Y-38768460D01*
X46763830Y-38919767D01*
X46797560Y-39030960D01*
X46763830Y-39142153D01*
X46748928Y-39293460D01*
X46748928Y-39568460D01*
X46763830Y-39719767D01*
X46797560Y-39830960D01*
X46763830Y-39942153D01*
X46748928Y-40093460D01*
X46748928Y-40368460D01*
X46763830Y-40519767D01*
X46779450Y-40571258D01*
X46761831Y-40628292D01*
X46752000Y-40745210D01*
X46910750Y-40903960D01*
X46965491Y-40903960D01*
X46975000Y-40915546D01*
X46975000Y-41146374D01*
X46965491Y-41157960D01*
X46910750Y-41157960D01*
X46752000Y-41316710D01*
X46761831Y-41433628D01*
X46779450Y-41490662D01*
X46763830Y-41542153D01*
X46748928Y-41693460D01*
X46748928Y-41968460D01*
X46763830Y-42119767D01*
X46797560Y-42230960D01*
X46763830Y-42342153D01*
X46748928Y-42493460D01*
X46748928Y-42768460D01*
X46763830Y-42919767D01*
X46797560Y-43030960D01*
X46763830Y-43142153D01*
X46748928Y-43293460D01*
X46748928Y-43568460D01*
X46763830Y-43719767D01*
X46769501Y-43738461D01*
X46750807Y-43732790D01*
X46599500Y-43717888D01*
X46324500Y-43717888D01*
X46173193Y-43732790D01*
X46062000Y-43766520D01*
X45950807Y-43732790D01*
X45799500Y-43717888D01*
X45524500Y-43717888D01*
X45373193Y-43732790D01*
X45262000Y-43766520D01*
X45150807Y-43732790D01*
X44999500Y-43717888D01*
X44724500Y-43717888D01*
X44573193Y-43732790D01*
X44462000Y-43766520D01*
X44350807Y-43732790D01*
X44199500Y-43717888D01*
X43924500Y-43717888D01*
X43773193Y-43732790D01*
X43662000Y-43766520D01*
X43550807Y-43732790D01*
X43399500Y-43717888D01*
X43124500Y-43717888D01*
X42973193Y-43732790D01*
X42862000Y-43766520D01*
X42750807Y-43732790D01*
X42599500Y-43717888D01*
X42324500Y-43717888D01*
X42173193Y-43732790D01*
X42062000Y-43766520D01*
X41950807Y-43732790D01*
X41799500Y-43717888D01*
X41524500Y-43717888D01*
X41373193Y-43732790D01*
X41262000Y-43766520D01*
X41150807Y-43732790D01*
X40999500Y-43717888D01*
X40724500Y-43717888D01*
X40573193Y-43732790D01*
X40462000Y-43766520D01*
X40350807Y-43732790D01*
X40263394Y-43724181D01*
X40268000Y-43701027D01*
X40268000Y-43500893D01*
X40228956Y-43304604D01*
X40152368Y-43119704D01*
X40041179Y-42953298D01*
X39899662Y-42811781D01*
X39733256Y-42700592D01*
X39548356Y-42624004D01*
X39352067Y-42584960D01*
X39151933Y-42584960D01*
X38955644Y-42624004D01*
X38770744Y-42700592D01*
X38604338Y-42811781D01*
X38462821Y-42953298D01*
X38351632Y-43119704D01*
X38275044Y-43304604D01*
X38236000Y-43500893D01*
X38236000Y-43701027D01*
X38240990Y-43726113D01*
X38173193Y-43732790D01*
X38154499Y-43738461D01*
X38160170Y-43719767D01*
X38175072Y-43568460D01*
X38175072Y-43293460D01*
X38160170Y-43142153D01*
X38126440Y-43030960D01*
X38160170Y-42919767D01*
X38175072Y-42768460D01*
X38175072Y-42493460D01*
X38160170Y-42342153D01*
X38126440Y-42230960D01*
X38160170Y-42119767D01*
X38175072Y-41968460D01*
X38175072Y-41693460D01*
X38160170Y-41542153D01*
X38126440Y-41430960D01*
X38160170Y-41319767D01*
X38175072Y-41168460D01*
X38175072Y-40893460D01*
X38160170Y-40742153D01*
X38126440Y-40630960D01*
X38160170Y-40519767D01*
X38175072Y-40368460D01*
X38175072Y-40093460D01*
X38160170Y-39942153D01*
X38126440Y-39830960D01*
X38160170Y-39719767D01*
X38175072Y-39568460D01*
X38175072Y-39293460D01*
X38160170Y-39142153D01*
X38126440Y-39030960D01*
X38160170Y-38919767D01*
X38169880Y-38821173D01*
X38181197Y-38834963D01*
X38200443Y-38850757D01*
X38222399Y-38862493D01*
X38246224Y-38869720D01*
X38273152Y-38872142D01*
X39091695Y-38858268D01*
X39161533Y-38872160D01*
X39361667Y-38872160D01*
X39463158Y-38851972D01*
X39771752Y-38846742D01*
X39796484Y-38843882D01*
X39820182Y-38836252D01*
X39847033Y-38820423D01*
X40177233Y-38566423D01*
X40195384Y-38549383D01*
X40214885Y-38519466D01*
X40392685Y-38138466D01*
X40400952Y-38114982D01*
X40404600Y-38084760D01*
X40404600Y-37602160D01*
X40399439Y-37566325D01*
X40272439Y-37134525D01*
X40263107Y-37111444D01*
X40249451Y-37090627D01*
X40231997Y-37072874D01*
X40217160Y-37062199D01*
X39886960Y-36858999D01*
X39864580Y-36848092D01*
X39840502Y-36841761D01*
X39820400Y-36840160D01*
X38271000Y-36840160D01*
X38246224Y-36842600D01*
X38222399Y-36849827D01*
X38200443Y-36861563D01*
X38181197Y-36877357D01*
X38165403Y-36896603D01*
X38161472Y-36903958D01*
X38013252Y-36903958D01*
X38172000Y-36745210D01*
X38162169Y-36628292D01*
X38144550Y-36571258D01*
X38160170Y-36519767D01*
X38175072Y-36368460D01*
X38175072Y-36093460D01*
X38160170Y-35942153D01*
X38126440Y-35830960D01*
X38160170Y-35719767D01*
X38175072Y-35568460D01*
X38175072Y-35293460D01*
X38160170Y-35142153D01*
X38154499Y-35123459D01*
X38173193Y-35129130D01*
X38324500Y-35144032D01*
X38599500Y-35144032D01*
X38750807Y-35129130D01*
X38862000Y-35095400D01*
X38973193Y-35129130D01*
X39124500Y-35144032D01*
X39399500Y-35144032D01*
X39550807Y-35129130D01*
X39662000Y-35095400D01*
X39773193Y-35129130D01*
X39924500Y-35144032D01*
X40199500Y-35144032D01*
X40350807Y-35129130D01*
X40462000Y-35095400D01*
X40573193Y-35129130D01*
X40724500Y-35144032D01*
X40999500Y-35144032D01*
X41150807Y-35129130D01*
X41262000Y-35095400D01*
X41373193Y-35129130D01*
X41524500Y-35144032D01*
X41799500Y-35144032D01*
X41950807Y-35129130D01*
X42002298Y-35113510D01*
X42059332Y-35131129D01*
X42176250Y-35140960D01*
X42335000Y-34982210D01*
X42335000Y-34927960D01*
X42589000Y-34927960D01*
X42589000Y-34982210D01*
X42589000Y-34982210D01*
G37*
X42589000Y-34982210D02*
X42747750Y-35140960D01*
X42864668Y-35131129D01*
X42921702Y-35113510D01*
X42973193Y-35129130D01*
X43036000Y-35135316D01*
X43036000Y-35301027D01*
X43075044Y-35497316D01*
X43151632Y-35682216D01*
X43262821Y-35848622D01*
X43404338Y-35990139D01*
X43570744Y-36101328D01*
X43755644Y-36177916D01*
X43951933Y-36216960D01*
X44152067Y-36216960D01*
X44348356Y-36177916D01*
X44533256Y-36101328D01*
X44699662Y-35990139D01*
X44841179Y-35848622D01*
X44952368Y-35682216D01*
X45028956Y-35497316D01*
X45068000Y-35301027D01*
X45068000Y-35137286D01*
X45150807Y-35129130D01*
X45262000Y-35095400D01*
X45373193Y-35129130D01*
X45524500Y-35144032D01*
X45799500Y-35144032D01*
X45950807Y-35129130D01*
X46062000Y-35095400D01*
X46173193Y-35129130D01*
X46324500Y-35144032D01*
X46599500Y-35144032D01*
X46750807Y-35129130D01*
X46769501Y-35123459D01*
X46763830Y-35142153D01*
X46748928Y-35293460D01*
X46748928Y-35568460D01*
X46763830Y-35719767D01*
X46797560Y-35830960D01*
X46763830Y-35942153D01*
X46748928Y-36093460D01*
X46748928Y-36368460D01*
X46763830Y-36519767D01*
X46797560Y-36630960D01*
X46763830Y-36742153D01*
X46748928Y-36893460D01*
X46748928Y-37168460D01*
X46763830Y-37319767D01*
X46797560Y-37430960D01*
X46763830Y-37542153D01*
X46748928Y-37693460D01*
X46748928Y-37968460D01*
X46763830Y-38119767D01*
X46797560Y-38230960D01*
X46763830Y-38342153D01*
X46748928Y-38493460D01*
X46748928Y-38768460D01*
X46763830Y-38919767D01*
X46797560Y-39030960D01*
X46763830Y-39142153D01*
X46748928Y-39293460D01*
X46748928Y-39568460D01*
X46763830Y-39719767D01*
X46797560Y-39830960D01*
X46763830Y-39942153D01*
X46748928Y-40093460D01*
X46748928Y-40368460D01*
X46763830Y-40519767D01*
X46779450Y-40571258D01*
X46761831Y-40628292D01*
X46752000Y-40745210D01*
X46910750Y-40903960D01*
X46965491Y-40903960D01*
X46975000Y-40915546D01*
X46975000Y-41146374D01*
X46965491Y-41157960D01*
X46910750Y-41157960D01*
X46752000Y-41316710D01*
X46761831Y-41433628D01*
X46779450Y-41490662D01*
X46763830Y-41542153D01*
X46748928Y-41693460D01*
X46748928Y-41968460D01*
X46763830Y-42119767D01*
X46797560Y-42230960D01*
X46763830Y-42342153D01*
X46748928Y-42493460D01*
X46748928Y-42768460D01*
X46763830Y-42919767D01*
X46797560Y-43030960D01*
X46763830Y-43142153D01*
X46748928Y-43293460D01*
X46748928Y-43568460D01*
X46763830Y-43719767D01*
X46769501Y-43738461D01*
X46750807Y-43732790D01*
X46599500Y-43717888D01*
X46324500Y-43717888D01*
X46173193Y-43732790D01*
X46062000Y-43766520D01*
X45950807Y-43732790D01*
X45799500Y-43717888D01*
X45524500Y-43717888D01*
X45373193Y-43732790D01*
X45262000Y-43766520D01*
X45150807Y-43732790D01*
X44999500Y-43717888D01*
X44724500Y-43717888D01*
X44573193Y-43732790D01*
X44462000Y-43766520D01*
X44350807Y-43732790D01*
X44199500Y-43717888D01*
X43924500Y-43717888D01*
X43773193Y-43732790D01*
X43662000Y-43766520D01*
X43550807Y-43732790D01*
X43399500Y-43717888D01*
X43124500Y-43717888D01*
X42973193Y-43732790D01*
X42862000Y-43766520D01*
X42750807Y-43732790D01*
X42599500Y-43717888D01*
X42324500Y-43717888D01*
X42173193Y-43732790D01*
X42062000Y-43766520D01*
X41950807Y-43732790D01*
X41799500Y-43717888D01*
X41524500Y-43717888D01*
X41373193Y-43732790D01*
X41262000Y-43766520D01*
X41150807Y-43732790D01*
X40999500Y-43717888D01*
X40724500Y-43717888D01*
X40573193Y-43732790D01*
X40462000Y-43766520D01*
X40350807Y-43732790D01*
X40263394Y-43724181D01*
X40268000Y-43701027D01*
X40268000Y-43500893D01*
X40228956Y-43304604D01*
X40152368Y-43119704D01*
X40041179Y-42953298D01*
X39899662Y-42811781D01*
X39733256Y-42700592D01*
X39548356Y-42624004D01*
X39352067Y-42584960D01*
X39151933Y-42584960D01*
X38955644Y-42624004D01*
X38770744Y-42700592D01*
X38604338Y-42811781D01*
X38462821Y-42953298D01*
X38351632Y-43119704D01*
X38275044Y-43304604D01*
X38236000Y-43500893D01*
X38236000Y-43701027D01*
X38240990Y-43726113D01*
X38173193Y-43732790D01*
X38154499Y-43738461D01*
X38160170Y-43719767D01*
X38175072Y-43568460D01*
X38175072Y-43293460D01*
X38160170Y-43142153D01*
X38126440Y-43030960D01*
X38160170Y-42919767D01*
X38175072Y-42768460D01*
X38175072Y-42493460D01*
X38160170Y-42342153D01*
X38126440Y-42230960D01*
X38160170Y-42119767D01*
X38175072Y-41968460D01*
X38175072Y-41693460D01*
X38160170Y-41542153D01*
X38126440Y-41430960D01*
X38160170Y-41319767D01*
X38175072Y-41168460D01*
X38175072Y-40893460D01*
X38160170Y-40742153D01*
X38126440Y-40630960D01*
X38160170Y-40519767D01*
X38175072Y-40368460D01*
X38175072Y-40093460D01*
X38160170Y-39942153D01*
X38126440Y-39830960D01*
X38160170Y-39719767D01*
X38175072Y-39568460D01*
X38175072Y-39293460D01*
X38160170Y-39142153D01*
X38126440Y-39030960D01*
X38160170Y-38919767D01*
X38169880Y-38821173D01*
X38181197Y-38834963D01*
X38200443Y-38850757D01*
X38222399Y-38862493D01*
X38246224Y-38869720D01*
X38273152Y-38872142D01*
X39091695Y-38858268D01*
X39161533Y-38872160D01*
X39361667Y-38872160D01*
X39463158Y-38851972D01*
X39771752Y-38846742D01*
X39796484Y-38843882D01*
X39820182Y-38836252D01*
X39847033Y-38820423D01*
X40177233Y-38566423D01*
X40195384Y-38549383D01*
X40214885Y-38519466D01*
X40392685Y-38138466D01*
X40400952Y-38114982D01*
X40404600Y-38084760D01*
X40404600Y-37602160D01*
X40399439Y-37566325D01*
X40272439Y-37134525D01*
X40263107Y-37111444D01*
X40249451Y-37090627D01*
X40231997Y-37072874D01*
X40217160Y-37062199D01*
X39886960Y-36858999D01*
X39864580Y-36848092D01*
X39840502Y-36841761D01*
X39820400Y-36840160D01*
X38271000Y-36840160D01*
X38246224Y-36842600D01*
X38222399Y-36849827D01*
X38200443Y-36861563D01*
X38181197Y-36877357D01*
X38165403Y-36896603D01*
X38161472Y-36903958D01*
X38013252Y-36903958D01*
X38172000Y-36745210D01*
X38162169Y-36628292D01*
X38144550Y-36571258D01*
X38160170Y-36519767D01*
X38175072Y-36368460D01*
X38175072Y-36093460D01*
X38160170Y-35942153D01*
X38126440Y-35830960D01*
X38160170Y-35719767D01*
X38175072Y-35568460D01*
X38175072Y-35293460D01*
X38160170Y-35142153D01*
X38154499Y-35123459D01*
X38173193Y-35129130D01*
X38324500Y-35144032D01*
X38599500Y-35144032D01*
X38750807Y-35129130D01*
X38862000Y-35095400D01*
X38973193Y-35129130D01*
X39124500Y-35144032D01*
X39399500Y-35144032D01*
X39550807Y-35129130D01*
X39662000Y-35095400D01*
X39773193Y-35129130D01*
X39924500Y-35144032D01*
X40199500Y-35144032D01*
X40350807Y-35129130D01*
X40462000Y-35095400D01*
X40573193Y-35129130D01*
X40724500Y-35144032D01*
X40999500Y-35144032D01*
X41150807Y-35129130D01*
X41262000Y-35095400D01*
X41373193Y-35129130D01*
X41524500Y-35144032D01*
X41799500Y-35144032D01*
X41950807Y-35129130D01*
X42002298Y-35113510D01*
X42059332Y-35131129D01*
X42176250Y-35140960D01*
X42335000Y-34982210D01*
X42335000Y-34927960D01*
X42589000Y-34927960D01*
X42589000Y-34982210D01*
M02*
