G04 #@! TF.GenerationSoftware,KiCad,Pcbnew,5.1.5+dfsg1-2build2*
G04 #@! TF.CreationDate,2022-05-20T21:03:13-04:00*
G04 #@! TF.ProjectId,analog,616e616c-6f67-42e6-9b69-6361645f7063,rev?*
G04 #@! TF.SameCoordinates,Original*
G04 #@! TF.FileFunction,Copper,L2,Bot*
G04 #@! TF.FilePolarity,Positive*
%FSLAX46Y46*%
G04 Gerber Fmt 4.6, Leading zero omitted, Abs format (unit mm)*
G04 Created by KiCad (PCBNEW 5.1.5+dfsg1-2build2) date 2022-05-20 21:03:13*
%MOMM*%
%LPD*%
G04 APERTURE LIST*
%ADD10C,0.100000*%
%ADD11O,1.700000X1.700000*%
%ADD12R,1.700000X1.700000*%
%ADD13R,1.000000X1.500000*%
%ADD14R,1.500000X1.000000*%
%ADD15O,1.300000X0.800000*%
%ADD16R,5.500000X1.750000*%
%ADD17C,0.762000*%
%ADD18C,0.660400*%
%ADD19C,0.761000*%
%ADD20C,0.381000*%
%ADD21C,1.016000*%
%ADD22C,0.762000*%
%ADD23C,0.203200*%
%ADD24C,0.254000*%
G04 APERTURE END LIST*
D10*
G36*
X30132000Y-33284440D02*
G01*
X30632000Y-33284440D01*
X30632000Y-32684440D01*
X30132000Y-32684440D01*
X30132000Y-33284440D01*
G37*
G36*
X34176240Y-44865720D02*
G01*
X34176240Y-45365720D01*
X34776240Y-45365720D01*
X34776240Y-44865720D01*
X34176240Y-44865720D01*
G37*
D11*
X66617400Y-45730160D03*
X66617400Y-43190160D03*
X66617400Y-40650160D03*
D12*
X66617400Y-38110160D03*
X76040800Y-45500960D03*
G04 #@! TA.AperFunction,SMDPad,CuDef*
D10*
G36*
X35505983Y-34734942D02*
G01*
X35520544Y-34737102D01*
X35534823Y-34740679D01*
X35548683Y-34745638D01*
X35561990Y-34751932D01*
X35574616Y-34759500D01*
X35586439Y-34768268D01*
X35597346Y-34778154D01*
X35607232Y-34789061D01*
X35616000Y-34800884D01*
X35623568Y-34813510D01*
X35629862Y-34826817D01*
X35634821Y-34840677D01*
X35638398Y-34854956D01*
X35640558Y-34869517D01*
X35641280Y-34884220D01*
X35641280Y-35184220D01*
X35640558Y-35198923D01*
X35638398Y-35213484D01*
X35634821Y-35227763D01*
X35629862Y-35241623D01*
X35623568Y-35254930D01*
X35616000Y-35267556D01*
X35607232Y-35279379D01*
X35597346Y-35290286D01*
X35586439Y-35300172D01*
X35574616Y-35308940D01*
X35561990Y-35316508D01*
X35548683Y-35322802D01*
X35534823Y-35327761D01*
X35520544Y-35331338D01*
X35505983Y-35333498D01*
X35491280Y-35334220D01*
X33841280Y-35334220D01*
X33826577Y-35333498D01*
X33812016Y-35331338D01*
X33797737Y-35327761D01*
X33783877Y-35322802D01*
X33770570Y-35316508D01*
X33757944Y-35308940D01*
X33746121Y-35300172D01*
X33735214Y-35290286D01*
X33725328Y-35279379D01*
X33716560Y-35267556D01*
X33708992Y-35254930D01*
X33702698Y-35241623D01*
X33697739Y-35227763D01*
X33694162Y-35213484D01*
X33692002Y-35198923D01*
X33691280Y-35184220D01*
X33691280Y-34884220D01*
X33692002Y-34869517D01*
X33694162Y-34854956D01*
X33697739Y-34840677D01*
X33702698Y-34826817D01*
X33708992Y-34813510D01*
X33716560Y-34800884D01*
X33725328Y-34789061D01*
X33735214Y-34778154D01*
X33746121Y-34768268D01*
X33757944Y-34759500D01*
X33770570Y-34751932D01*
X33783877Y-34745638D01*
X33797737Y-34740679D01*
X33812016Y-34737102D01*
X33826577Y-34734942D01*
X33841280Y-34734220D01*
X35491280Y-34734220D01*
X35505983Y-34734942D01*
G37*
G04 #@! TD.AperFunction*
G04 #@! TA.AperFunction,SMDPad,CuDef*
G36*
X35505983Y-36004942D02*
G01*
X35520544Y-36007102D01*
X35534823Y-36010679D01*
X35548683Y-36015638D01*
X35561990Y-36021932D01*
X35574616Y-36029500D01*
X35586439Y-36038268D01*
X35597346Y-36048154D01*
X35607232Y-36059061D01*
X35616000Y-36070884D01*
X35623568Y-36083510D01*
X35629862Y-36096817D01*
X35634821Y-36110677D01*
X35638398Y-36124956D01*
X35640558Y-36139517D01*
X35641280Y-36154220D01*
X35641280Y-36454220D01*
X35640558Y-36468923D01*
X35638398Y-36483484D01*
X35634821Y-36497763D01*
X35629862Y-36511623D01*
X35623568Y-36524930D01*
X35616000Y-36537556D01*
X35607232Y-36549379D01*
X35597346Y-36560286D01*
X35586439Y-36570172D01*
X35574616Y-36578940D01*
X35561990Y-36586508D01*
X35548683Y-36592802D01*
X35534823Y-36597761D01*
X35520544Y-36601338D01*
X35505983Y-36603498D01*
X35491280Y-36604220D01*
X33841280Y-36604220D01*
X33826577Y-36603498D01*
X33812016Y-36601338D01*
X33797737Y-36597761D01*
X33783877Y-36592802D01*
X33770570Y-36586508D01*
X33757944Y-36578940D01*
X33746121Y-36570172D01*
X33735214Y-36560286D01*
X33725328Y-36549379D01*
X33716560Y-36537556D01*
X33708992Y-36524930D01*
X33702698Y-36511623D01*
X33697739Y-36497763D01*
X33694162Y-36483484D01*
X33692002Y-36468923D01*
X33691280Y-36454220D01*
X33691280Y-36154220D01*
X33692002Y-36139517D01*
X33694162Y-36124956D01*
X33697739Y-36110677D01*
X33702698Y-36096817D01*
X33708992Y-36083510D01*
X33716560Y-36070884D01*
X33725328Y-36059061D01*
X33735214Y-36048154D01*
X33746121Y-36038268D01*
X33757944Y-36029500D01*
X33770570Y-36021932D01*
X33783877Y-36015638D01*
X33797737Y-36010679D01*
X33812016Y-36007102D01*
X33826577Y-36004942D01*
X33841280Y-36004220D01*
X35491280Y-36004220D01*
X35505983Y-36004942D01*
G37*
G04 #@! TD.AperFunction*
G04 #@! TA.AperFunction,SMDPad,CuDef*
G36*
X35505983Y-37274942D02*
G01*
X35520544Y-37277102D01*
X35534823Y-37280679D01*
X35548683Y-37285638D01*
X35561990Y-37291932D01*
X35574616Y-37299500D01*
X35586439Y-37308268D01*
X35597346Y-37318154D01*
X35607232Y-37329061D01*
X35616000Y-37340884D01*
X35623568Y-37353510D01*
X35629862Y-37366817D01*
X35634821Y-37380677D01*
X35638398Y-37394956D01*
X35640558Y-37409517D01*
X35641280Y-37424220D01*
X35641280Y-37724220D01*
X35640558Y-37738923D01*
X35638398Y-37753484D01*
X35634821Y-37767763D01*
X35629862Y-37781623D01*
X35623568Y-37794930D01*
X35616000Y-37807556D01*
X35607232Y-37819379D01*
X35597346Y-37830286D01*
X35586439Y-37840172D01*
X35574616Y-37848940D01*
X35561990Y-37856508D01*
X35548683Y-37862802D01*
X35534823Y-37867761D01*
X35520544Y-37871338D01*
X35505983Y-37873498D01*
X35491280Y-37874220D01*
X33841280Y-37874220D01*
X33826577Y-37873498D01*
X33812016Y-37871338D01*
X33797737Y-37867761D01*
X33783877Y-37862802D01*
X33770570Y-37856508D01*
X33757944Y-37848940D01*
X33746121Y-37840172D01*
X33735214Y-37830286D01*
X33725328Y-37819379D01*
X33716560Y-37807556D01*
X33708992Y-37794930D01*
X33702698Y-37781623D01*
X33697739Y-37767763D01*
X33694162Y-37753484D01*
X33692002Y-37738923D01*
X33691280Y-37724220D01*
X33691280Y-37424220D01*
X33692002Y-37409517D01*
X33694162Y-37394956D01*
X33697739Y-37380677D01*
X33702698Y-37366817D01*
X33708992Y-37353510D01*
X33716560Y-37340884D01*
X33725328Y-37329061D01*
X33735214Y-37318154D01*
X33746121Y-37308268D01*
X33757944Y-37299500D01*
X33770570Y-37291932D01*
X33783877Y-37285638D01*
X33797737Y-37280679D01*
X33812016Y-37277102D01*
X33826577Y-37274942D01*
X33841280Y-37274220D01*
X35491280Y-37274220D01*
X35505983Y-37274942D01*
G37*
G04 #@! TD.AperFunction*
G04 #@! TA.AperFunction,SMDPad,CuDef*
G36*
X35505983Y-38544942D02*
G01*
X35520544Y-38547102D01*
X35534823Y-38550679D01*
X35548683Y-38555638D01*
X35561990Y-38561932D01*
X35574616Y-38569500D01*
X35586439Y-38578268D01*
X35597346Y-38588154D01*
X35607232Y-38599061D01*
X35616000Y-38610884D01*
X35623568Y-38623510D01*
X35629862Y-38636817D01*
X35634821Y-38650677D01*
X35638398Y-38664956D01*
X35640558Y-38679517D01*
X35641280Y-38694220D01*
X35641280Y-38994220D01*
X35640558Y-39008923D01*
X35638398Y-39023484D01*
X35634821Y-39037763D01*
X35629862Y-39051623D01*
X35623568Y-39064930D01*
X35616000Y-39077556D01*
X35607232Y-39089379D01*
X35597346Y-39100286D01*
X35586439Y-39110172D01*
X35574616Y-39118940D01*
X35561990Y-39126508D01*
X35548683Y-39132802D01*
X35534823Y-39137761D01*
X35520544Y-39141338D01*
X35505983Y-39143498D01*
X35491280Y-39144220D01*
X33841280Y-39144220D01*
X33826577Y-39143498D01*
X33812016Y-39141338D01*
X33797737Y-39137761D01*
X33783877Y-39132802D01*
X33770570Y-39126508D01*
X33757944Y-39118940D01*
X33746121Y-39110172D01*
X33735214Y-39100286D01*
X33725328Y-39089379D01*
X33716560Y-39077556D01*
X33708992Y-39064930D01*
X33702698Y-39051623D01*
X33697739Y-39037763D01*
X33694162Y-39023484D01*
X33692002Y-39008923D01*
X33691280Y-38994220D01*
X33691280Y-38694220D01*
X33692002Y-38679517D01*
X33694162Y-38664956D01*
X33697739Y-38650677D01*
X33702698Y-38636817D01*
X33708992Y-38623510D01*
X33716560Y-38610884D01*
X33725328Y-38599061D01*
X33735214Y-38588154D01*
X33746121Y-38578268D01*
X33757944Y-38569500D01*
X33770570Y-38561932D01*
X33783877Y-38555638D01*
X33797737Y-38550679D01*
X33812016Y-38547102D01*
X33826577Y-38544942D01*
X33841280Y-38544220D01*
X35491280Y-38544220D01*
X35505983Y-38544942D01*
G37*
G04 #@! TD.AperFunction*
G04 #@! TA.AperFunction,SMDPad,CuDef*
G36*
X35505983Y-39814942D02*
G01*
X35520544Y-39817102D01*
X35534823Y-39820679D01*
X35548683Y-39825638D01*
X35561990Y-39831932D01*
X35574616Y-39839500D01*
X35586439Y-39848268D01*
X35597346Y-39858154D01*
X35607232Y-39869061D01*
X35616000Y-39880884D01*
X35623568Y-39893510D01*
X35629862Y-39906817D01*
X35634821Y-39920677D01*
X35638398Y-39934956D01*
X35640558Y-39949517D01*
X35641280Y-39964220D01*
X35641280Y-40264220D01*
X35640558Y-40278923D01*
X35638398Y-40293484D01*
X35634821Y-40307763D01*
X35629862Y-40321623D01*
X35623568Y-40334930D01*
X35616000Y-40347556D01*
X35607232Y-40359379D01*
X35597346Y-40370286D01*
X35586439Y-40380172D01*
X35574616Y-40388940D01*
X35561990Y-40396508D01*
X35548683Y-40402802D01*
X35534823Y-40407761D01*
X35520544Y-40411338D01*
X35505983Y-40413498D01*
X35491280Y-40414220D01*
X33841280Y-40414220D01*
X33826577Y-40413498D01*
X33812016Y-40411338D01*
X33797737Y-40407761D01*
X33783877Y-40402802D01*
X33770570Y-40396508D01*
X33757944Y-40388940D01*
X33746121Y-40380172D01*
X33735214Y-40370286D01*
X33725328Y-40359379D01*
X33716560Y-40347556D01*
X33708992Y-40334930D01*
X33702698Y-40321623D01*
X33697739Y-40307763D01*
X33694162Y-40293484D01*
X33692002Y-40278923D01*
X33691280Y-40264220D01*
X33691280Y-39964220D01*
X33692002Y-39949517D01*
X33694162Y-39934956D01*
X33697739Y-39920677D01*
X33702698Y-39906817D01*
X33708992Y-39893510D01*
X33716560Y-39880884D01*
X33725328Y-39869061D01*
X33735214Y-39858154D01*
X33746121Y-39848268D01*
X33757944Y-39839500D01*
X33770570Y-39831932D01*
X33783877Y-39825638D01*
X33797737Y-39820679D01*
X33812016Y-39817102D01*
X33826577Y-39814942D01*
X33841280Y-39814220D01*
X35491280Y-39814220D01*
X35505983Y-39814942D01*
G37*
G04 #@! TD.AperFunction*
G04 #@! TA.AperFunction,SMDPad,CuDef*
G36*
X35505983Y-41084942D02*
G01*
X35520544Y-41087102D01*
X35534823Y-41090679D01*
X35548683Y-41095638D01*
X35561990Y-41101932D01*
X35574616Y-41109500D01*
X35586439Y-41118268D01*
X35597346Y-41128154D01*
X35607232Y-41139061D01*
X35616000Y-41150884D01*
X35623568Y-41163510D01*
X35629862Y-41176817D01*
X35634821Y-41190677D01*
X35638398Y-41204956D01*
X35640558Y-41219517D01*
X35641280Y-41234220D01*
X35641280Y-41534220D01*
X35640558Y-41548923D01*
X35638398Y-41563484D01*
X35634821Y-41577763D01*
X35629862Y-41591623D01*
X35623568Y-41604930D01*
X35616000Y-41617556D01*
X35607232Y-41629379D01*
X35597346Y-41640286D01*
X35586439Y-41650172D01*
X35574616Y-41658940D01*
X35561990Y-41666508D01*
X35548683Y-41672802D01*
X35534823Y-41677761D01*
X35520544Y-41681338D01*
X35505983Y-41683498D01*
X35491280Y-41684220D01*
X33841280Y-41684220D01*
X33826577Y-41683498D01*
X33812016Y-41681338D01*
X33797737Y-41677761D01*
X33783877Y-41672802D01*
X33770570Y-41666508D01*
X33757944Y-41658940D01*
X33746121Y-41650172D01*
X33735214Y-41640286D01*
X33725328Y-41629379D01*
X33716560Y-41617556D01*
X33708992Y-41604930D01*
X33702698Y-41591623D01*
X33697739Y-41577763D01*
X33694162Y-41563484D01*
X33692002Y-41548923D01*
X33691280Y-41534220D01*
X33691280Y-41234220D01*
X33692002Y-41219517D01*
X33694162Y-41204956D01*
X33697739Y-41190677D01*
X33702698Y-41176817D01*
X33708992Y-41163510D01*
X33716560Y-41150884D01*
X33725328Y-41139061D01*
X33735214Y-41128154D01*
X33746121Y-41118268D01*
X33757944Y-41109500D01*
X33770570Y-41101932D01*
X33783877Y-41095638D01*
X33797737Y-41090679D01*
X33812016Y-41087102D01*
X33826577Y-41084942D01*
X33841280Y-41084220D01*
X35491280Y-41084220D01*
X35505983Y-41084942D01*
G37*
G04 #@! TD.AperFunction*
G04 #@! TA.AperFunction,SMDPad,CuDef*
G36*
X35505983Y-42354942D02*
G01*
X35520544Y-42357102D01*
X35534823Y-42360679D01*
X35548683Y-42365638D01*
X35561990Y-42371932D01*
X35574616Y-42379500D01*
X35586439Y-42388268D01*
X35597346Y-42398154D01*
X35607232Y-42409061D01*
X35616000Y-42420884D01*
X35623568Y-42433510D01*
X35629862Y-42446817D01*
X35634821Y-42460677D01*
X35638398Y-42474956D01*
X35640558Y-42489517D01*
X35641280Y-42504220D01*
X35641280Y-42804220D01*
X35640558Y-42818923D01*
X35638398Y-42833484D01*
X35634821Y-42847763D01*
X35629862Y-42861623D01*
X35623568Y-42874930D01*
X35616000Y-42887556D01*
X35607232Y-42899379D01*
X35597346Y-42910286D01*
X35586439Y-42920172D01*
X35574616Y-42928940D01*
X35561990Y-42936508D01*
X35548683Y-42942802D01*
X35534823Y-42947761D01*
X35520544Y-42951338D01*
X35505983Y-42953498D01*
X35491280Y-42954220D01*
X33841280Y-42954220D01*
X33826577Y-42953498D01*
X33812016Y-42951338D01*
X33797737Y-42947761D01*
X33783877Y-42942802D01*
X33770570Y-42936508D01*
X33757944Y-42928940D01*
X33746121Y-42920172D01*
X33735214Y-42910286D01*
X33725328Y-42899379D01*
X33716560Y-42887556D01*
X33708992Y-42874930D01*
X33702698Y-42861623D01*
X33697739Y-42847763D01*
X33694162Y-42833484D01*
X33692002Y-42818923D01*
X33691280Y-42804220D01*
X33691280Y-42504220D01*
X33692002Y-42489517D01*
X33694162Y-42474956D01*
X33697739Y-42460677D01*
X33702698Y-42446817D01*
X33708992Y-42433510D01*
X33716560Y-42420884D01*
X33725328Y-42409061D01*
X33735214Y-42398154D01*
X33746121Y-42388268D01*
X33757944Y-42379500D01*
X33770570Y-42371932D01*
X33783877Y-42365638D01*
X33797737Y-42360679D01*
X33812016Y-42357102D01*
X33826577Y-42354942D01*
X33841280Y-42354220D01*
X35491280Y-42354220D01*
X35505983Y-42354942D01*
G37*
G04 #@! TD.AperFunction*
G04 #@! TA.AperFunction,SMDPad,CuDef*
G36*
X30555983Y-42354942D02*
G01*
X30570544Y-42357102D01*
X30584823Y-42360679D01*
X30598683Y-42365638D01*
X30611990Y-42371932D01*
X30624616Y-42379500D01*
X30636439Y-42388268D01*
X30647346Y-42398154D01*
X30657232Y-42409061D01*
X30666000Y-42420884D01*
X30673568Y-42433510D01*
X30679862Y-42446817D01*
X30684821Y-42460677D01*
X30688398Y-42474956D01*
X30690558Y-42489517D01*
X30691280Y-42504220D01*
X30691280Y-42804220D01*
X30690558Y-42818923D01*
X30688398Y-42833484D01*
X30684821Y-42847763D01*
X30679862Y-42861623D01*
X30673568Y-42874930D01*
X30666000Y-42887556D01*
X30657232Y-42899379D01*
X30647346Y-42910286D01*
X30636439Y-42920172D01*
X30624616Y-42928940D01*
X30611990Y-42936508D01*
X30598683Y-42942802D01*
X30584823Y-42947761D01*
X30570544Y-42951338D01*
X30555983Y-42953498D01*
X30541280Y-42954220D01*
X28891280Y-42954220D01*
X28876577Y-42953498D01*
X28862016Y-42951338D01*
X28847737Y-42947761D01*
X28833877Y-42942802D01*
X28820570Y-42936508D01*
X28807944Y-42928940D01*
X28796121Y-42920172D01*
X28785214Y-42910286D01*
X28775328Y-42899379D01*
X28766560Y-42887556D01*
X28758992Y-42874930D01*
X28752698Y-42861623D01*
X28747739Y-42847763D01*
X28744162Y-42833484D01*
X28742002Y-42818923D01*
X28741280Y-42804220D01*
X28741280Y-42504220D01*
X28742002Y-42489517D01*
X28744162Y-42474956D01*
X28747739Y-42460677D01*
X28752698Y-42446817D01*
X28758992Y-42433510D01*
X28766560Y-42420884D01*
X28775328Y-42409061D01*
X28785214Y-42398154D01*
X28796121Y-42388268D01*
X28807944Y-42379500D01*
X28820570Y-42371932D01*
X28833877Y-42365638D01*
X28847737Y-42360679D01*
X28862016Y-42357102D01*
X28876577Y-42354942D01*
X28891280Y-42354220D01*
X30541280Y-42354220D01*
X30555983Y-42354942D01*
G37*
G04 #@! TD.AperFunction*
G04 #@! TA.AperFunction,SMDPad,CuDef*
G36*
X30555983Y-41084942D02*
G01*
X30570544Y-41087102D01*
X30584823Y-41090679D01*
X30598683Y-41095638D01*
X30611990Y-41101932D01*
X30624616Y-41109500D01*
X30636439Y-41118268D01*
X30647346Y-41128154D01*
X30657232Y-41139061D01*
X30666000Y-41150884D01*
X30673568Y-41163510D01*
X30679862Y-41176817D01*
X30684821Y-41190677D01*
X30688398Y-41204956D01*
X30690558Y-41219517D01*
X30691280Y-41234220D01*
X30691280Y-41534220D01*
X30690558Y-41548923D01*
X30688398Y-41563484D01*
X30684821Y-41577763D01*
X30679862Y-41591623D01*
X30673568Y-41604930D01*
X30666000Y-41617556D01*
X30657232Y-41629379D01*
X30647346Y-41640286D01*
X30636439Y-41650172D01*
X30624616Y-41658940D01*
X30611990Y-41666508D01*
X30598683Y-41672802D01*
X30584823Y-41677761D01*
X30570544Y-41681338D01*
X30555983Y-41683498D01*
X30541280Y-41684220D01*
X28891280Y-41684220D01*
X28876577Y-41683498D01*
X28862016Y-41681338D01*
X28847737Y-41677761D01*
X28833877Y-41672802D01*
X28820570Y-41666508D01*
X28807944Y-41658940D01*
X28796121Y-41650172D01*
X28785214Y-41640286D01*
X28775328Y-41629379D01*
X28766560Y-41617556D01*
X28758992Y-41604930D01*
X28752698Y-41591623D01*
X28747739Y-41577763D01*
X28744162Y-41563484D01*
X28742002Y-41548923D01*
X28741280Y-41534220D01*
X28741280Y-41234220D01*
X28742002Y-41219517D01*
X28744162Y-41204956D01*
X28747739Y-41190677D01*
X28752698Y-41176817D01*
X28758992Y-41163510D01*
X28766560Y-41150884D01*
X28775328Y-41139061D01*
X28785214Y-41128154D01*
X28796121Y-41118268D01*
X28807944Y-41109500D01*
X28820570Y-41101932D01*
X28833877Y-41095638D01*
X28847737Y-41090679D01*
X28862016Y-41087102D01*
X28876577Y-41084942D01*
X28891280Y-41084220D01*
X30541280Y-41084220D01*
X30555983Y-41084942D01*
G37*
G04 #@! TD.AperFunction*
G04 #@! TA.AperFunction,SMDPad,CuDef*
G36*
X30555983Y-39814942D02*
G01*
X30570544Y-39817102D01*
X30584823Y-39820679D01*
X30598683Y-39825638D01*
X30611990Y-39831932D01*
X30624616Y-39839500D01*
X30636439Y-39848268D01*
X30647346Y-39858154D01*
X30657232Y-39869061D01*
X30666000Y-39880884D01*
X30673568Y-39893510D01*
X30679862Y-39906817D01*
X30684821Y-39920677D01*
X30688398Y-39934956D01*
X30690558Y-39949517D01*
X30691280Y-39964220D01*
X30691280Y-40264220D01*
X30690558Y-40278923D01*
X30688398Y-40293484D01*
X30684821Y-40307763D01*
X30679862Y-40321623D01*
X30673568Y-40334930D01*
X30666000Y-40347556D01*
X30657232Y-40359379D01*
X30647346Y-40370286D01*
X30636439Y-40380172D01*
X30624616Y-40388940D01*
X30611990Y-40396508D01*
X30598683Y-40402802D01*
X30584823Y-40407761D01*
X30570544Y-40411338D01*
X30555983Y-40413498D01*
X30541280Y-40414220D01*
X28891280Y-40414220D01*
X28876577Y-40413498D01*
X28862016Y-40411338D01*
X28847737Y-40407761D01*
X28833877Y-40402802D01*
X28820570Y-40396508D01*
X28807944Y-40388940D01*
X28796121Y-40380172D01*
X28785214Y-40370286D01*
X28775328Y-40359379D01*
X28766560Y-40347556D01*
X28758992Y-40334930D01*
X28752698Y-40321623D01*
X28747739Y-40307763D01*
X28744162Y-40293484D01*
X28742002Y-40278923D01*
X28741280Y-40264220D01*
X28741280Y-39964220D01*
X28742002Y-39949517D01*
X28744162Y-39934956D01*
X28747739Y-39920677D01*
X28752698Y-39906817D01*
X28758992Y-39893510D01*
X28766560Y-39880884D01*
X28775328Y-39869061D01*
X28785214Y-39858154D01*
X28796121Y-39848268D01*
X28807944Y-39839500D01*
X28820570Y-39831932D01*
X28833877Y-39825638D01*
X28847737Y-39820679D01*
X28862016Y-39817102D01*
X28876577Y-39814942D01*
X28891280Y-39814220D01*
X30541280Y-39814220D01*
X30555983Y-39814942D01*
G37*
G04 #@! TD.AperFunction*
G04 #@! TA.AperFunction,SMDPad,CuDef*
G36*
X30555983Y-38544942D02*
G01*
X30570544Y-38547102D01*
X30584823Y-38550679D01*
X30598683Y-38555638D01*
X30611990Y-38561932D01*
X30624616Y-38569500D01*
X30636439Y-38578268D01*
X30647346Y-38588154D01*
X30657232Y-38599061D01*
X30666000Y-38610884D01*
X30673568Y-38623510D01*
X30679862Y-38636817D01*
X30684821Y-38650677D01*
X30688398Y-38664956D01*
X30690558Y-38679517D01*
X30691280Y-38694220D01*
X30691280Y-38994220D01*
X30690558Y-39008923D01*
X30688398Y-39023484D01*
X30684821Y-39037763D01*
X30679862Y-39051623D01*
X30673568Y-39064930D01*
X30666000Y-39077556D01*
X30657232Y-39089379D01*
X30647346Y-39100286D01*
X30636439Y-39110172D01*
X30624616Y-39118940D01*
X30611990Y-39126508D01*
X30598683Y-39132802D01*
X30584823Y-39137761D01*
X30570544Y-39141338D01*
X30555983Y-39143498D01*
X30541280Y-39144220D01*
X28891280Y-39144220D01*
X28876577Y-39143498D01*
X28862016Y-39141338D01*
X28847737Y-39137761D01*
X28833877Y-39132802D01*
X28820570Y-39126508D01*
X28807944Y-39118940D01*
X28796121Y-39110172D01*
X28785214Y-39100286D01*
X28775328Y-39089379D01*
X28766560Y-39077556D01*
X28758992Y-39064930D01*
X28752698Y-39051623D01*
X28747739Y-39037763D01*
X28744162Y-39023484D01*
X28742002Y-39008923D01*
X28741280Y-38994220D01*
X28741280Y-38694220D01*
X28742002Y-38679517D01*
X28744162Y-38664956D01*
X28747739Y-38650677D01*
X28752698Y-38636817D01*
X28758992Y-38623510D01*
X28766560Y-38610884D01*
X28775328Y-38599061D01*
X28785214Y-38588154D01*
X28796121Y-38578268D01*
X28807944Y-38569500D01*
X28820570Y-38561932D01*
X28833877Y-38555638D01*
X28847737Y-38550679D01*
X28862016Y-38547102D01*
X28876577Y-38544942D01*
X28891280Y-38544220D01*
X30541280Y-38544220D01*
X30555983Y-38544942D01*
G37*
G04 #@! TD.AperFunction*
G04 #@! TA.AperFunction,SMDPad,CuDef*
G36*
X30555983Y-37274942D02*
G01*
X30570544Y-37277102D01*
X30584823Y-37280679D01*
X30598683Y-37285638D01*
X30611990Y-37291932D01*
X30624616Y-37299500D01*
X30636439Y-37308268D01*
X30647346Y-37318154D01*
X30657232Y-37329061D01*
X30666000Y-37340884D01*
X30673568Y-37353510D01*
X30679862Y-37366817D01*
X30684821Y-37380677D01*
X30688398Y-37394956D01*
X30690558Y-37409517D01*
X30691280Y-37424220D01*
X30691280Y-37724220D01*
X30690558Y-37738923D01*
X30688398Y-37753484D01*
X30684821Y-37767763D01*
X30679862Y-37781623D01*
X30673568Y-37794930D01*
X30666000Y-37807556D01*
X30657232Y-37819379D01*
X30647346Y-37830286D01*
X30636439Y-37840172D01*
X30624616Y-37848940D01*
X30611990Y-37856508D01*
X30598683Y-37862802D01*
X30584823Y-37867761D01*
X30570544Y-37871338D01*
X30555983Y-37873498D01*
X30541280Y-37874220D01*
X28891280Y-37874220D01*
X28876577Y-37873498D01*
X28862016Y-37871338D01*
X28847737Y-37867761D01*
X28833877Y-37862802D01*
X28820570Y-37856508D01*
X28807944Y-37848940D01*
X28796121Y-37840172D01*
X28785214Y-37830286D01*
X28775328Y-37819379D01*
X28766560Y-37807556D01*
X28758992Y-37794930D01*
X28752698Y-37781623D01*
X28747739Y-37767763D01*
X28744162Y-37753484D01*
X28742002Y-37738923D01*
X28741280Y-37724220D01*
X28741280Y-37424220D01*
X28742002Y-37409517D01*
X28744162Y-37394956D01*
X28747739Y-37380677D01*
X28752698Y-37366817D01*
X28758992Y-37353510D01*
X28766560Y-37340884D01*
X28775328Y-37329061D01*
X28785214Y-37318154D01*
X28796121Y-37308268D01*
X28807944Y-37299500D01*
X28820570Y-37291932D01*
X28833877Y-37285638D01*
X28847737Y-37280679D01*
X28862016Y-37277102D01*
X28876577Y-37274942D01*
X28891280Y-37274220D01*
X30541280Y-37274220D01*
X30555983Y-37274942D01*
G37*
G04 #@! TD.AperFunction*
G04 #@! TA.AperFunction,SMDPad,CuDef*
G36*
X30555983Y-36004942D02*
G01*
X30570544Y-36007102D01*
X30584823Y-36010679D01*
X30598683Y-36015638D01*
X30611990Y-36021932D01*
X30624616Y-36029500D01*
X30636439Y-36038268D01*
X30647346Y-36048154D01*
X30657232Y-36059061D01*
X30666000Y-36070884D01*
X30673568Y-36083510D01*
X30679862Y-36096817D01*
X30684821Y-36110677D01*
X30688398Y-36124956D01*
X30690558Y-36139517D01*
X30691280Y-36154220D01*
X30691280Y-36454220D01*
X30690558Y-36468923D01*
X30688398Y-36483484D01*
X30684821Y-36497763D01*
X30679862Y-36511623D01*
X30673568Y-36524930D01*
X30666000Y-36537556D01*
X30657232Y-36549379D01*
X30647346Y-36560286D01*
X30636439Y-36570172D01*
X30624616Y-36578940D01*
X30611990Y-36586508D01*
X30598683Y-36592802D01*
X30584823Y-36597761D01*
X30570544Y-36601338D01*
X30555983Y-36603498D01*
X30541280Y-36604220D01*
X28891280Y-36604220D01*
X28876577Y-36603498D01*
X28862016Y-36601338D01*
X28847737Y-36597761D01*
X28833877Y-36592802D01*
X28820570Y-36586508D01*
X28807944Y-36578940D01*
X28796121Y-36570172D01*
X28785214Y-36560286D01*
X28775328Y-36549379D01*
X28766560Y-36537556D01*
X28758992Y-36524930D01*
X28752698Y-36511623D01*
X28747739Y-36497763D01*
X28744162Y-36483484D01*
X28742002Y-36468923D01*
X28741280Y-36454220D01*
X28741280Y-36154220D01*
X28742002Y-36139517D01*
X28744162Y-36124956D01*
X28747739Y-36110677D01*
X28752698Y-36096817D01*
X28758992Y-36083510D01*
X28766560Y-36070884D01*
X28775328Y-36059061D01*
X28785214Y-36048154D01*
X28796121Y-36038268D01*
X28807944Y-36029500D01*
X28820570Y-36021932D01*
X28833877Y-36015638D01*
X28847737Y-36010679D01*
X28862016Y-36007102D01*
X28876577Y-36004942D01*
X28891280Y-36004220D01*
X30541280Y-36004220D01*
X30555983Y-36004942D01*
G37*
G04 #@! TD.AperFunction*
G04 #@! TA.AperFunction,SMDPad,CuDef*
G36*
X30555983Y-34734942D02*
G01*
X30570544Y-34737102D01*
X30584823Y-34740679D01*
X30598683Y-34745638D01*
X30611990Y-34751932D01*
X30624616Y-34759500D01*
X30636439Y-34768268D01*
X30647346Y-34778154D01*
X30657232Y-34789061D01*
X30666000Y-34800884D01*
X30673568Y-34813510D01*
X30679862Y-34826817D01*
X30684821Y-34840677D01*
X30688398Y-34854956D01*
X30690558Y-34869517D01*
X30691280Y-34884220D01*
X30691280Y-35184220D01*
X30690558Y-35198923D01*
X30688398Y-35213484D01*
X30684821Y-35227763D01*
X30679862Y-35241623D01*
X30673568Y-35254930D01*
X30666000Y-35267556D01*
X30657232Y-35279379D01*
X30647346Y-35290286D01*
X30636439Y-35300172D01*
X30624616Y-35308940D01*
X30611990Y-35316508D01*
X30598683Y-35322802D01*
X30584823Y-35327761D01*
X30570544Y-35331338D01*
X30555983Y-35333498D01*
X30541280Y-35334220D01*
X28891280Y-35334220D01*
X28876577Y-35333498D01*
X28862016Y-35331338D01*
X28847737Y-35327761D01*
X28833877Y-35322802D01*
X28820570Y-35316508D01*
X28807944Y-35308940D01*
X28796121Y-35300172D01*
X28785214Y-35290286D01*
X28775328Y-35279379D01*
X28766560Y-35267556D01*
X28758992Y-35254930D01*
X28752698Y-35241623D01*
X28747739Y-35227763D01*
X28744162Y-35213484D01*
X28742002Y-35198923D01*
X28741280Y-35184220D01*
X28741280Y-34884220D01*
X28742002Y-34869517D01*
X28744162Y-34854956D01*
X28747739Y-34840677D01*
X28752698Y-34826817D01*
X28758992Y-34813510D01*
X28766560Y-34800884D01*
X28775328Y-34789061D01*
X28785214Y-34778154D01*
X28796121Y-34768268D01*
X28807944Y-34759500D01*
X28820570Y-34751932D01*
X28833877Y-34745638D01*
X28847737Y-34740679D01*
X28862016Y-34737102D01*
X28876577Y-34734942D01*
X28891280Y-34734220D01*
X30541280Y-34734220D01*
X30555983Y-34734942D01*
G37*
G04 #@! TD.AperFunction*
D12*
X40353800Y-34376360D03*
D11*
X37813800Y-34376360D03*
X40353800Y-36916360D03*
X37813800Y-36916360D03*
X40353800Y-39456360D03*
X37813800Y-39456360D03*
X40353800Y-41996360D03*
X37813800Y-41996360D03*
X40353800Y-44536360D03*
X37813800Y-44536360D03*
X40353800Y-47076360D03*
X37813800Y-47076360D03*
G04 #@! TA.AperFunction,SMDPad,CuDef*
D10*
G36*
X30282000Y-33734440D02*
G01*
X29732000Y-33734440D01*
X29732000Y-33733838D01*
X29707466Y-33733838D01*
X29658635Y-33729028D01*
X29610510Y-33719456D01*
X29563555Y-33705212D01*
X29518222Y-33686435D01*
X29474949Y-33663304D01*
X29434150Y-33636044D01*
X29396221Y-33604916D01*
X29361524Y-33570219D01*
X29330396Y-33532290D01*
X29303136Y-33491491D01*
X29280005Y-33448218D01*
X29261228Y-33402885D01*
X29246984Y-33355930D01*
X29237412Y-33307805D01*
X29232602Y-33258974D01*
X29232602Y-33234440D01*
X29232000Y-33234440D01*
X29232000Y-32734440D01*
X29232602Y-32734440D01*
X29232602Y-32709906D01*
X29237412Y-32661075D01*
X29246984Y-32612950D01*
X29261228Y-32565995D01*
X29280005Y-32520662D01*
X29303136Y-32477389D01*
X29330396Y-32436590D01*
X29361524Y-32398661D01*
X29396221Y-32363964D01*
X29434150Y-32332836D01*
X29474949Y-32305576D01*
X29518222Y-32282445D01*
X29563555Y-32263668D01*
X29610510Y-32249424D01*
X29658635Y-32239852D01*
X29707466Y-32235042D01*
X29732000Y-32235042D01*
X29732000Y-32234440D01*
X30282000Y-32234440D01*
X30282000Y-33734440D01*
G37*
G04 #@! TD.AperFunction*
D13*
X31032000Y-32984440D03*
G04 #@! TA.AperFunction,SMDPad,CuDef*
D10*
G36*
X32332000Y-32235042D02*
G01*
X32356534Y-32235042D01*
X32405365Y-32239852D01*
X32453490Y-32249424D01*
X32500445Y-32263668D01*
X32545778Y-32282445D01*
X32589051Y-32305576D01*
X32629850Y-32332836D01*
X32667779Y-32363964D01*
X32702476Y-32398661D01*
X32733604Y-32436590D01*
X32760864Y-32477389D01*
X32783995Y-32520662D01*
X32802772Y-32565995D01*
X32817016Y-32612950D01*
X32826588Y-32661075D01*
X32831398Y-32709906D01*
X32831398Y-32734440D01*
X32832000Y-32734440D01*
X32832000Y-33234440D01*
X32831398Y-33234440D01*
X32831398Y-33258974D01*
X32826588Y-33307805D01*
X32817016Y-33355930D01*
X32802772Y-33402885D01*
X32783995Y-33448218D01*
X32760864Y-33491491D01*
X32733604Y-33532290D01*
X32702476Y-33570219D01*
X32667779Y-33604916D01*
X32629850Y-33636044D01*
X32589051Y-33663304D01*
X32545778Y-33686435D01*
X32500445Y-33705212D01*
X32453490Y-33719456D01*
X32405365Y-33729028D01*
X32356534Y-33733838D01*
X32332000Y-33733838D01*
X32332000Y-33734440D01*
X31782000Y-33734440D01*
X31782000Y-32234440D01*
X32332000Y-32234440D01*
X32332000Y-32235042D01*
G37*
G04 #@! TD.AperFunction*
G04 #@! TA.AperFunction,SMDPad,CuDef*
G36*
X35225638Y-47065720D02*
G01*
X35225638Y-47090254D01*
X35220828Y-47139085D01*
X35211256Y-47187210D01*
X35197012Y-47234165D01*
X35178235Y-47279498D01*
X35155104Y-47322771D01*
X35127844Y-47363570D01*
X35096716Y-47401499D01*
X35062019Y-47436196D01*
X35024090Y-47467324D01*
X34983291Y-47494584D01*
X34940018Y-47517715D01*
X34894685Y-47536492D01*
X34847730Y-47550736D01*
X34799605Y-47560308D01*
X34750774Y-47565118D01*
X34726240Y-47565118D01*
X34726240Y-47565720D01*
X34226240Y-47565720D01*
X34226240Y-47565118D01*
X34201706Y-47565118D01*
X34152875Y-47560308D01*
X34104750Y-47550736D01*
X34057795Y-47536492D01*
X34012462Y-47517715D01*
X33969189Y-47494584D01*
X33928390Y-47467324D01*
X33890461Y-47436196D01*
X33855764Y-47401499D01*
X33824636Y-47363570D01*
X33797376Y-47322771D01*
X33774245Y-47279498D01*
X33755468Y-47234165D01*
X33741224Y-47187210D01*
X33731652Y-47139085D01*
X33726842Y-47090254D01*
X33726842Y-47065720D01*
X33726240Y-47065720D01*
X33726240Y-46515720D01*
X35226240Y-46515720D01*
X35226240Y-47065720D01*
X35225638Y-47065720D01*
G37*
G04 #@! TD.AperFunction*
D14*
X34476240Y-45765720D03*
G04 #@! TA.AperFunction,SMDPad,CuDef*
D10*
G36*
X33726240Y-45015720D02*
G01*
X33726240Y-44465720D01*
X33726842Y-44465720D01*
X33726842Y-44441186D01*
X33731652Y-44392355D01*
X33741224Y-44344230D01*
X33755468Y-44297275D01*
X33774245Y-44251942D01*
X33797376Y-44208669D01*
X33824636Y-44167870D01*
X33855764Y-44129941D01*
X33890461Y-44095244D01*
X33928390Y-44064116D01*
X33969189Y-44036856D01*
X34012462Y-44013725D01*
X34057795Y-43994948D01*
X34104750Y-43980704D01*
X34152875Y-43971132D01*
X34201706Y-43966322D01*
X34226240Y-43966322D01*
X34226240Y-43965720D01*
X34726240Y-43965720D01*
X34726240Y-43966322D01*
X34750774Y-43966322D01*
X34799605Y-43971132D01*
X34847730Y-43980704D01*
X34894685Y-43994948D01*
X34940018Y-44013725D01*
X34983291Y-44036856D01*
X35024090Y-44064116D01*
X35062019Y-44095244D01*
X35096716Y-44129941D01*
X35127844Y-44167870D01*
X35155104Y-44208669D01*
X35178235Y-44251942D01*
X35197012Y-44297275D01*
X35211256Y-44344230D01*
X35220828Y-44392355D01*
X35225638Y-44441186D01*
X35225638Y-44465720D01*
X35226240Y-44465720D01*
X35226240Y-45015720D01*
X33726240Y-45015720D01*
G37*
G04 #@! TD.AperFunction*
D12*
X76040800Y-32801560D03*
G04 #@! TA.AperFunction,ComponentPad*
D10*
G36*
X72624203Y-41901923D02*
G01*
X72643618Y-41904803D01*
X72662657Y-41909572D01*
X72681137Y-41916184D01*
X72698879Y-41924576D01*
X72715714Y-41934666D01*
X72731479Y-41946358D01*
X72746021Y-41959539D01*
X72759202Y-41974081D01*
X72770894Y-41989846D01*
X72780984Y-42006681D01*
X72789376Y-42024423D01*
X72795988Y-42042903D01*
X72800757Y-42061942D01*
X72803637Y-42081357D01*
X72804600Y-42100960D01*
X72804600Y-42500960D01*
X72803637Y-42520563D01*
X72800757Y-42539978D01*
X72795988Y-42559017D01*
X72789376Y-42577497D01*
X72780984Y-42595239D01*
X72770894Y-42612074D01*
X72759202Y-42627839D01*
X72746021Y-42642381D01*
X72731479Y-42655562D01*
X72715714Y-42667254D01*
X72698879Y-42677344D01*
X72681137Y-42685736D01*
X72662657Y-42692348D01*
X72643618Y-42697117D01*
X72624203Y-42699997D01*
X72604600Y-42700960D01*
X71704600Y-42700960D01*
X71684997Y-42699997D01*
X71665582Y-42697117D01*
X71646543Y-42692348D01*
X71628063Y-42685736D01*
X71610321Y-42677344D01*
X71593486Y-42667254D01*
X71577721Y-42655562D01*
X71563179Y-42642381D01*
X71549998Y-42627839D01*
X71538306Y-42612074D01*
X71528216Y-42595239D01*
X71519824Y-42577497D01*
X71513212Y-42559017D01*
X71508443Y-42539978D01*
X71505563Y-42520563D01*
X71504600Y-42500960D01*
X71504600Y-42100960D01*
X71505563Y-42081357D01*
X71508443Y-42061942D01*
X71513212Y-42042903D01*
X71519824Y-42024423D01*
X71528216Y-42006681D01*
X71538306Y-41989846D01*
X71549998Y-41974081D01*
X71563179Y-41959539D01*
X71577721Y-41946358D01*
X71593486Y-41934666D01*
X71610321Y-41924576D01*
X71628063Y-41916184D01*
X71646543Y-41909572D01*
X71665582Y-41904803D01*
X71684997Y-41901923D01*
X71704600Y-41900960D01*
X72604600Y-41900960D01*
X72624203Y-41901923D01*
G37*
G04 #@! TD.AperFunction*
D15*
X72154600Y-41050960D03*
X72154600Y-39800960D03*
X72154600Y-38550960D03*
X72154600Y-37300960D03*
X72154600Y-36050960D03*
D16*
X78602000Y-41740960D03*
X78602000Y-39200960D03*
X78602000Y-36660960D03*
D17*
X54180400Y-35408758D03*
X45103600Y-50403760D03*
X58540200Y-50096420D03*
X56626462Y-34209840D03*
X48016990Y-37938823D03*
X58514800Y-53670254D03*
X51910800Y-43850560D03*
X39354200Y-52546360D03*
X55350532Y-49273471D03*
X60269937Y-39578284D03*
D18*
X63810700Y-42076260D03*
D17*
X64012400Y-51684960D03*
D18*
X69386000Y-40387160D03*
X69373300Y-38347760D03*
X63823400Y-37876260D03*
D17*
X31120900Y-38864540D03*
X34331458Y-49131220D03*
X43831060Y-45374560D03*
X62286700Y-48036480D03*
X61754774Y-45272973D03*
D18*
X59530809Y-40319969D03*
X41772377Y-43795964D03*
X60518860Y-44879270D03*
X47040402Y-37709336D03*
X45281433Y-47037002D03*
X70757600Y-36332160D03*
X73802000Y-40300960D03*
X73802000Y-41869360D03*
X53272240Y-37449760D03*
X67849300Y-41920160D03*
X67854380Y-46898560D03*
X46019561Y-39883148D03*
X45942342Y-48803018D03*
X50158200Y-52092860D03*
X49818223Y-50498525D03*
D17*
X55720800Y-39634160D03*
X33978400Y-32420560D03*
X52114000Y-33436560D03*
X43427216Y-37932360D03*
X60447740Y-34432240D03*
X61623760Y-34432240D03*
D19*
X62799780Y-34432240D03*
D17*
X48865340Y-45417740D03*
X55873200Y-45730160D03*
X35959612Y-32420560D03*
X34943602Y-32420560D03*
X33132580Y-38823900D03*
D18*
X69386001Y-44425760D03*
X50496184Y-51133535D03*
X46907000Y-52600860D03*
X46627600Y-38618160D03*
X44367043Y-44277280D03*
X46561560Y-35590480D03*
X44951200Y-49032156D03*
X49787933Y-49222665D03*
X59607004Y-42123360D03*
X50100738Y-48301598D03*
X58895801Y-39367460D03*
X42449300Y-39263320D03*
X42106400Y-49184560D03*
X43147810Y-40172873D03*
X43020800Y-47711360D03*
X39363200Y-53553360D03*
X54116070Y-41168937D03*
X56036342Y-49946495D03*
X47862038Y-39806880D03*
X47026380Y-47289720D03*
X31557780Y-35044380D03*
X33378960Y-45742860D03*
D20*
X61893000Y-51673760D02*
X61881800Y-51684960D01*
X37890000Y-44612560D02*
X37813800Y-44536360D01*
X59497780Y-38468300D02*
X59497780Y-37081158D01*
X59497780Y-37081158D02*
X57007461Y-34590839D01*
X57007461Y-34590839D02*
X56626462Y-34209840D01*
X54180400Y-35408758D02*
X54180400Y-38761560D01*
X54180400Y-38761560D02*
X53094440Y-39847520D01*
X45103600Y-50403760D02*
X46784574Y-50403760D01*
X50134183Y-37938823D02*
X48016990Y-37938823D01*
X51910800Y-43850560D02*
X51910800Y-39715440D01*
X51910800Y-39715440D02*
X50134183Y-37938823D01*
X52042880Y-39847520D02*
X51910800Y-39715440D01*
X53094440Y-39847520D02*
X52042880Y-39847520D01*
D21*
X37813800Y-44536360D02*
X37813800Y-44536362D01*
D20*
X48644306Y-52263492D02*
X48644306Y-53657554D01*
X46784574Y-50403760D02*
X48644306Y-52263492D01*
X51910800Y-45833739D02*
X54969533Y-48892472D01*
X54969533Y-48892472D02*
X55350532Y-49273471D01*
X51910800Y-43850560D02*
X51910800Y-45833739D01*
X59497780Y-38468300D02*
X58164786Y-38468300D01*
X57689299Y-38943787D02*
X57689299Y-41845942D01*
X58540200Y-49557605D02*
X58540200Y-50096420D01*
X58164786Y-38468300D02*
X57689299Y-38943787D01*
X57689299Y-41845942D02*
X58540200Y-42696843D01*
X58540200Y-42696843D02*
X58540200Y-49557605D01*
X60269937Y-39578284D02*
X61754774Y-41063121D01*
X63792826Y-42058386D02*
X63810700Y-42076260D01*
X61754774Y-42058386D02*
X63792826Y-42058386D01*
X61754774Y-41063121D02*
X61754774Y-42058386D01*
X64184000Y-51684960D02*
X64012400Y-51684960D01*
X63473585Y-51684960D02*
X64012400Y-51684960D01*
X61904200Y-51684960D02*
X63473585Y-51684960D01*
X61893000Y-51673760D02*
X61904200Y-51684960D01*
X69386000Y-40387160D02*
X69386000Y-38360460D01*
X69386000Y-38360460D02*
X69373300Y-38347760D01*
X61971961Y-37876260D02*
X60269937Y-39578284D01*
X63823400Y-37876260D02*
X61971961Y-37876260D01*
X59497780Y-38806127D02*
X60269937Y-39578284D01*
X59497780Y-38468300D02*
X59497780Y-38806127D01*
X31100580Y-38844220D02*
X31120900Y-38864540D01*
X29716280Y-38844220D02*
X31100580Y-38844220D01*
X39354200Y-52546360D02*
X35939060Y-49131220D01*
X35939060Y-49131220D02*
X34583255Y-49131220D01*
D21*
X37813800Y-44536360D02*
X36213600Y-46136560D01*
X36213600Y-46136560D02*
X36213600Y-48856680D01*
X35939060Y-49131220D02*
X34331458Y-49131220D01*
X36213600Y-48856680D02*
X35939060Y-49131220D01*
D20*
X44557523Y-47773289D02*
X44557523Y-46101023D01*
X45983986Y-47773289D02*
X44557523Y-47773289D01*
X46784574Y-48573877D02*
X45983986Y-47773289D01*
X46784574Y-50403760D02*
X46784574Y-48573877D01*
X44557523Y-46101023D02*
X43831060Y-45374560D01*
X61905701Y-48417479D02*
X62286700Y-48036480D01*
X61893000Y-48430180D02*
X61905701Y-48417479D01*
X61893000Y-51673760D02*
X61893000Y-48430180D01*
X61754774Y-44734158D02*
X61754774Y-45272973D01*
X61754774Y-42058386D02*
X61754774Y-44734158D01*
X64012400Y-51684960D02*
X67092150Y-48605210D01*
X67092150Y-48605210D02*
X68187350Y-48605210D01*
X70342200Y-40387160D02*
X69386000Y-40387160D01*
X70757600Y-40802560D02*
X70342200Y-40387160D01*
D22*
X39354200Y-52546360D02*
X41099400Y-52546360D01*
X41099400Y-52546360D02*
X42210594Y-53657554D01*
D21*
X48657006Y-53670254D02*
X58514800Y-53670254D01*
X48644306Y-53657554D02*
X48657006Y-53670254D01*
X62027106Y-53670254D02*
X64012400Y-51684960D01*
X58514800Y-53670254D02*
X62027106Y-53670254D01*
X46985794Y-53657554D02*
X42210594Y-53657554D01*
X48644306Y-53657554D02*
X46985794Y-53657554D01*
D20*
X70757600Y-40802560D02*
X70757600Y-41843960D01*
X71214600Y-42300960D02*
X72154600Y-42300960D01*
X70757600Y-41843960D02*
X71214600Y-42300960D01*
X68187350Y-48605210D02*
X68187350Y-48592510D01*
X68187350Y-48592510D02*
X72154600Y-44625260D01*
X72154600Y-44625260D02*
X72154600Y-43456860D01*
X72154600Y-43456860D02*
X72154600Y-42300960D01*
X76727000Y-41740960D02*
X78602000Y-41740960D01*
X75011100Y-43456860D02*
X76727000Y-41740960D01*
X72154600Y-43456860D02*
X75011100Y-43456860D01*
D23*
X36221220Y-40114220D02*
X34666280Y-40114220D01*
X36221220Y-40114220D02*
X36221220Y-37912040D01*
X35883400Y-37574220D02*
X34666280Y-37574220D01*
X36221220Y-37912040D02*
X35883400Y-37574220D01*
X41258013Y-43281600D02*
X41442178Y-43465765D01*
X41442178Y-43465765D02*
X41772377Y-43795964D01*
X36221220Y-40114220D02*
X36858760Y-40751760D01*
X36858760Y-40751760D02*
X38753600Y-40751760D01*
X38753600Y-40751760D02*
X39058400Y-41056560D01*
X39058400Y-41056560D02*
X39058400Y-42885360D01*
X39454640Y-43281600D02*
X41258013Y-43281600D01*
X39058400Y-42885360D02*
X39454640Y-43281600D01*
X60518860Y-44412297D02*
X60518860Y-44879270D01*
X59530809Y-40319969D02*
X60518860Y-41308020D01*
X60518860Y-41308020D02*
X60518860Y-44412297D01*
D20*
X73185600Y-37300960D02*
X72154600Y-37300960D01*
X73825600Y-36660960D02*
X78602000Y-36660960D01*
X73185600Y-37300960D02*
X73825600Y-36660960D01*
D23*
X47040402Y-37709336D02*
X47262601Y-37931535D01*
X47186400Y-39306095D02*
X47186400Y-45132035D01*
X47262601Y-37931535D02*
X47262601Y-39229894D01*
X47186400Y-45132035D02*
X45611632Y-46706803D01*
X45611632Y-46706803D02*
X45281433Y-47037002D01*
X47262601Y-39229894D02*
X47186400Y-39306095D01*
X70757600Y-36332160D02*
X70757600Y-38051740D01*
X71256820Y-38550960D02*
X72154600Y-38550960D01*
X70757600Y-38051740D02*
X71256820Y-38550960D01*
X73802000Y-40300960D02*
X73802000Y-41869360D01*
X42870952Y-38745170D02*
X42337542Y-38211760D01*
X44057110Y-38745170D02*
X42870952Y-38745170D01*
X52805267Y-37449760D02*
X50310986Y-34955479D01*
X53272240Y-37449760D02*
X52805267Y-37449760D01*
X50310986Y-34955479D02*
X46256759Y-34955479D01*
X46256759Y-34955479D02*
X44857220Y-36355018D01*
X44857220Y-36355018D02*
X44857220Y-37945060D01*
X44857220Y-37945060D02*
X44057110Y-38745170D01*
X42337542Y-38211760D02*
X37290560Y-38211760D01*
X37290560Y-38211760D02*
X36020560Y-36941760D01*
X36020560Y-36941760D02*
X33462780Y-36941760D01*
X33462780Y-36941760D02*
X33460240Y-36944300D01*
X29716280Y-40114220D02*
X31644140Y-40114220D01*
X31806701Y-39951659D02*
X31806701Y-37708841D01*
X31644140Y-40114220D02*
X31806701Y-39951659D01*
X31672080Y-37574220D02*
X29716280Y-37574220D01*
X31806701Y-37708841D02*
X31672080Y-37574220D01*
X32573782Y-36941760D02*
X31806701Y-37708841D01*
X33462780Y-36941760D02*
X32573782Y-36941760D01*
X67849300Y-41920160D02*
X67849300Y-46893480D01*
X67849300Y-46893480D02*
X67854380Y-46898560D01*
D20*
X79577000Y-39200960D02*
X79396000Y-39019960D01*
X75471000Y-39200960D02*
X78602000Y-39200960D01*
X73830626Y-39200960D02*
X75471000Y-39200960D01*
X73230626Y-39800960D02*
X73830626Y-39200960D01*
X72154600Y-39800960D02*
X73230626Y-39800960D01*
D23*
X45612143Y-48472819D02*
X45942342Y-48803018D01*
X45485144Y-48345820D02*
X45612143Y-48472819D01*
X44172731Y-48345820D02*
X45485144Y-48345820D01*
X43732016Y-44458618D02*
X43145259Y-45045375D01*
X43732016Y-42170693D02*
X43732016Y-44458618D01*
X44062212Y-48235301D02*
X44172731Y-48345820D01*
X44062212Y-47238219D02*
X44062212Y-48235301D01*
X43145259Y-45045375D02*
X43145259Y-46321266D01*
X46019561Y-39883148D02*
X43732016Y-42170693D01*
X43145259Y-46321266D02*
X44062212Y-47238219D01*
X63035966Y-46771594D02*
X61138890Y-46771594D01*
X61054844Y-51016160D02*
X59279644Y-52791360D01*
X66617400Y-43190160D02*
X63035966Y-46771594D01*
X61054844Y-46855640D02*
X61054844Y-51016160D01*
X50856700Y-52791360D02*
X50488399Y-52423059D01*
X61138890Y-46771594D02*
X61054844Y-46855640D01*
X59279644Y-52791360D02*
X50856700Y-52791360D01*
X50488399Y-52423059D02*
X50158200Y-52092860D01*
X51726993Y-50498525D02*
X50285196Y-50498525D01*
X58942964Y-51978538D02*
X53207006Y-51978538D01*
X64941000Y-43101735D02*
X62083960Y-45958775D01*
X65564200Y-38110160D02*
X64941000Y-38733360D01*
X62083960Y-45958775D02*
X60802207Y-45958775D01*
X60802207Y-45958775D02*
X60242022Y-46518960D01*
X60242022Y-46518960D02*
X60242022Y-50679480D01*
X53207006Y-51978538D02*
X51726993Y-50498525D01*
X50285196Y-50498525D02*
X49818223Y-50498525D01*
X60242022Y-50679480D02*
X58942964Y-51978538D01*
X66617400Y-38110160D02*
X65564200Y-38110160D01*
X64941000Y-38733360D02*
X64941000Y-43101735D01*
D21*
X42219800Y-34376360D02*
X43427200Y-35583760D01*
X40353800Y-34376360D02*
X42219800Y-34376360D01*
X43427200Y-35583760D02*
X45574400Y-33436560D01*
X52977600Y-33436560D02*
X54704800Y-33436560D01*
X45574400Y-33436560D02*
X52114000Y-33436560D01*
X52114000Y-33436560D02*
X52977600Y-33436560D01*
X43427200Y-35583760D02*
X43427216Y-35583776D01*
X43427216Y-35583776D02*
X43427216Y-37393545D01*
X43427216Y-37393545D02*
X43427216Y-37932360D01*
X55327102Y-32814258D02*
X54704800Y-33436560D01*
X62799780Y-34432240D02*
X58736800Y-34432240D01*
X58736800Y-34432240D02*
X57118818Y-32814258D01*
X57118818Y-32814258D02*
X55327102Y-32814258D01*
X54704800Y-33436560D02*
X55436320Y-34168080D01*
X55720800Y-37721540D02*
X55436320Y-37437060D01*
X55720800Y-39634160D02*
X55720800Y-37721540D01*
X55436320Y-34168080D02*
X55436320Y-37437060D01*
X55720800Y-39634160D02*
X55720800Y-45577760D01*
X55720800Y-45577760D02*
X55873200Y-45730160D01*
X40353800Y-34376360D02*
X40353800Y-32510360D01*
X40264000Y-32420560D02*
X33978400Y-32420560D01*
X40353800Y-32510360D02*
X40264000Y-32420560D01*
D20*
X57643580Y-50264060D02*
X57643580Y-47500540D01*
X49404155Y-45417740D02*
X54656820Y-50670405D01*
X54656820Y-50670405D02*
X57237235Y-50670405D01*
X56254199Y-46111159D02*
X55873200Y-45730160D01*
X48865340Y-45417740D02*
X49404155Y-45417740D01*
X57643580Y-47500540D02*
X56254199Y-46111159D01*
X57237235Y-50670405D02*
X57643580Y-50264060D01*
X34645960Y-38823900D02*
X34666280Y-38844220D01*
X33132580Y-38823900D02*
X34645960Y-38823900D01*
D23*
X69055802Y-44095561D02*
X69386001Y-44425760D01*
X68682420Y-43722179D02*
X69055802Y-44095561D01*
X68682420Y-36548060D02*
X68682420Y-43722179D01*
X62799780Y-34432240D02*
X66566600Y-34432240D01*
X66566600Y-34432240D02*
X68682420Y-36548060D01*
X62252300Y-46365183D02*
X60970550Y-46365183D01*
X59111304Y-52384949D02*
X51747598Y-52384949D01*
X60648433Y-50847820D02*
X59111304Y-52384949D01*
X60648433Y-46687300D02*
X60648433Y-50847820D01*
X60970550Y-46365183D02*
X60648433Y-46687300D01*
X65347411Y-43270072D02*
X62252300Y-46365183D01*
X66617400Y-40650160D02*
X65347411Y-41920149D01*
X50826383Y-51463734D02*
X50496184Y-51133535D01*
X65347411Y-41920149D02*
X65347411Y-43270072D01*
X51747598Y-52384949D02*
X50826383Y-51463734D01*
X35906260Y-41384220D02*
X34666280Y-41384220D01*
X36272020Y-41749980D02*
X35906260Y-41384220D01*
X36272020Y-42471340D02*
X36272020Y-41749980D01*
X37064500Y-43263820D02*
X36272020Y-42471340D01*
X37064500Y-43279060D02*
X37064500Y-43263820D01*
X45751300Y-51445160D02*
X42093700Y-51445160D01*
X46907000Y-52600860D02*
X45751300Y-51445160D01*
X42093700Y-51445160D02*
X39071100Y-48422560D01*
X39071100Y-48422560D02*
X39071100Y-43837860D01*
X39071100Y-43837860D02*
X38512300Y-43279060D01*
X38512300Y-43279060D02*
X37064500Y-43279060D01*
X33591280Y-41384220D02*
X29716280Y-41384220D01*
X34666280Y-41384220D02*
X33591280Y-41384220D01*
X46729200Y-41915123D02*
X44697242Y-43947081D01*
X44697242Y-43947081D02*
X44367043Y-44277280D01*
X46729200Y-39186733D02*
X46729200Y-41915123D01*
X46627600Y-39085133D02*
X46729200Y-39186733D01*
X46627600Y-38618160D02*
X46627600Y-39085133D01*
X42738848Y-46489606D02*
X43655801Y-47406559D01*
X43655801Y-47406559D02*
X43655801Y-48610134D01*
X43655801Y-48610134D02*
X44077823Y-49032156D01*
X44077823Y-49032156D02*
X44484227Y-49032156D01*
X44484227Y-49032156D02*
X44951200Y-49032156D01*
X42738848Y-44877035D02*
X42738848Y-46489606D01*
X43325605Y-44290278D02*
X42738848Y-44877035D01*
X43325605Y-40934882D02*
X43325605Y-44290278D01*
X46231361Y-38029126D02*
X43325605Y-40934882D01*
X46231361Y-35920679D02*
X46231361Y-38029126D01*
X46561560Y-35590480D02*
X46231361Y-35920679D01*
X59797498Y-50549253D02*
X59797498Y-42313854D01*
X58774624Y-51572127D02*
X59797498Y-50549253D01*
X49787933Y-49222665D02*
X51145878Y-49222665D01*
X51145878Y-49222665D02*
X53495340Y-51572127D01*
X59797498Y-42313854D02*
X59607004Y-42123360D01*
X53495340Y-51572127D02*
X58774624Y-51572127D01*
X58606284Y-51165716D02*
X59276800Y-50495200D01*
X58527480Y-39735781D02*
X58565602Y-39697659D01*
X58527480Y-41983648D02*
X58527480Y-39735781D01*
X53812829Y-51165716D02*
X58606284Y-51165716D01*
X58565602Y-39697659D02*
X58895801Y-39367460D01*
X59276800Y-50495200D02*
X59276800Y-42732968D01*
X50100738Y-48301598D02*
X50948711Y-48301598D01*
X50948711Y-48301598D02*
X53812829Y-51165716D01*
X59276800Y-42732968D02*
X58527480Y-41983648D01*
X42449300Y-39263320D02*
X42449300Y-44017082D01*
X42449300Y-44017082D02*
X41776201Y-44690181D01*
X41776201Y-44690181D02*
X41776201Y-48854361D01*
X41776201Y-48854361D02*
X42106400Y-49184560D01*
X42919194Y-44121939D02*
X42332437Y-44708695D01*
X42332437Y-44708695D02*
X42332437Y-47022997D01*
X42332437Y-47022997D02*
X42690601Y-47381161D01*
X42690601Y-47381161D02*
X43020800Y-47711360D01*
X43147810Y-40172873D02*
X42919194Y-40401489D01*
X42919194Y-40401489D02*
X42919194Y-44121939D01*
X34666280Y-36304220D02*
X29716280Y-36304220D01*
X34143500Y-53553360D02*
X39363200Y-53553360D01*
X28522480Y-36304220D02*
X28189740Y-36636960D01*
X29716280Y-36304220D02*
X28522480Y-36304220D01*
X28189740Y-36636960D02*
X28189740Y-43202860D01*
X28189740Y-43202860D02*
X28601220Y-43614340D01*
X28601220Y-43614340D02*
X31976880Y-43614340D01*
X32337549Y-51747409D02*
X32361690Y-51771550D01*
X32337549Y-43975009D02*
X32337549Y-51747409D01*
X31976880Y-43614340D02*
X32337549Y-43975009D01*
X32361690Y-51771550D02*
X34143500Y-53553360D01*
X56036342Y-47430002D02*
X56036342Y-49946495D01*
X54730200Y-46123860D02*
X56036342Y-47430002D01*
X54730200Y-42224960D02*
X54730200Y-46123860D01*
X54116070Y-41168937D02*
X54116070Y-41610830D01*
X54116070Y-41610830D02*
X54730200Y-42224960D01*
X47862038Y-39806880D02*
X47862038Y-46454062D01*
X47862038Y-46454062D02*
X47356579Y-46959521D01*
X47356579Y-46959521D02*
X47026380Y-47289720D01*
X32616500Y-32984440D02*
X32332000Y-32984440D01*
X34666280Y-35034220D02*
X32616500Y-32984440D01*
X29732000Y-35018500D02*
X29716280Y-35034220D01*
X29732000Y-32984440D02*
X29732000Y-35018500D01*
X34654040Y-42666460D02*
X34666280Y-42654220D01*
X34666280Y-44275680D02*
X34476240Y-44465720D01*
X34666280Y-42654220D02*
X34666280Y-44275680D01*
X34476240Y-47065720D02*
X33345460Y-47065720D01*
X32743959Y-46464219D02*
X32743959Y-43131739D01*
X33345460Y-47065720D02*
X32743959Y-46464219D01*
X32266440Y-42654220D02*
X29716280Y-42654220D01*
X32743959Y-43131739D02*
X32266440Y-42654220D01*
X31032000Y-33937640D02*
X31032000Y-32984440D01*
X31032000Y-34051627D02*
X31032000Y-33937640D01*
X31557780Y-34577407D02*
X31032000Y-34051627D01*
X31557780Y-35044380D02*
X31557780Y-34577407D01*
X34623560Y-45742860D02*
X34654040Y-45773340D01*
X33378960Y-45742860D02*
X34623560Y-45742860D01*
X34453380Y-45742860D02*
X34476240Y-45765720D01*
X33378960Y-45742860D02*
X34453380Y-45742860D01*
D24*
G36*
X74552728Y-33651560D02*
G01*
X74564988Y-33776042D01*
X74601298Y-33895740D01*
X74660263Y-34006054D01*
X74739615Y-34102745D01*
X74836306Y-34182097D01*
X74946620Y-34241062D01*
X75066318Y-34277372D01*
X75190800Y-34289632D01*
X76803601Y-34289632D01*
X76803601Y-34906583D01*
X76800286Y-34940240D01*
X76813512Y-35074523D01*
X76835767Y-35147888D01*
X75852000Y-35147888D01*
X75727518Y-35160148D01*
X75607820Y-35196458D01*
X75497506Y-35255423D01*
X75400815Y-35334775D01*
X75321463Y-35431466D01*
X75262498Y-35541780D01*
X75226188Y-35661478D01*
X75213928Y-35785960D01*
X75213928Y-35835460D01*
X73866150Y-35835460D01*
X73825600Y-35831466D01*
X73785049Y-35835460D01*
X73785047Y-35835460D01*
X73663774Y-35847404D01*
X73513441Y-35893007D01*
X73508166Y-35894607D01*
X73433157Y-35934700D01*
X73424624Y-35848065D01*
X73365441Y-35652967D01*
X73269334Y-35473163D01*
X73139996Y-35315564D01*
X72982397Y-35186226D01*
X72802593Y-35090119D01*
X72607495Y-35030936D01*
X72455438Y-35015960D01*
X71853762Y-35015960D01*
X71701705Y-35030936D01*
X71506607Y-35090119D01*
X71326803Y-35186226D01*
X71169204Y-35315564D01*
X71082010Y-35421810D01*
X71039138Y-35404052D01*
X70852664Y-35366960D01*
X70662536Y-35366960D01*
X70476062Y-35404052D01*
X70300406Y-35476811D01*
X70142321Y-35582440D01*
X70007880Y-35716881D01*
X69902251Y-35874966D01*
X69829492Y-36050622D01*
X69792400Y-36237096D01*
X69792400Y-36427224D01*
X69829492Y-36613698D01*
X69902251Y-36789354D01*
X70007880Y-36947439D01*
X70021000Y-36960559D01*
X70021001Y-38015547D01*
X70017436Y-38051740D01*
X70027748Y-38156427D01*
X70031659Y-38196139D01*
X70039442Y-38221795D01*
X70073778Y-38334987D01*
X70142176Y-38462952D01*
X70207111Y-38542075D01*
X70234226Y-38575115D01*
X70262332Y-38598181D01*
X70710379Y-39046228D01*
X70733445Y-39074335D01*
X70845607Y-39166384D01*
X70973571Y-39234782D01*
X71025272Y-39250466D01*
X70943759Y-39402967D01*
X70884576Y-39598065D01*
X70864593Y-39800960D01*
X70884576Y-40003855D01*
X70943759Y-40198953D01*
X71039866Y-40378757D01*
X71078604Y-40425960D01*
X71039866Y-40473163D01*
X70943759Y-40652967D01*
X70884576Y-40848065D01*
X70864593Y-41050960D01*
X70884576Y-41253855D01*
X70943759Y-41448953D01*
X71039866Y-41628757D01*
X71169204Y-41786356D01*
X71326803Y-41915694D01*
X71506607Y-42011801D01*
X71701705Y-42070984D01*
X71853762Y-42085960D01*
X72455438Y-42085960D01*
X72607495Y-42070984D01*
X72802593Y-42011801D01*
X72842031Y-41990721D01*
X72873892Y-42150898D01*
X72946651Y-42326554D01*
X73052280Y-42484639D01*
X73186721Y-42619080D01*
X73344806Y-42724709D01*
X73520462Y-42797468D01*
X73706936Y-42834560D01*
X73897064Y-42834560D01*
X74083538Y-42797468D01*
X74259194Y-42724709D01*
X74417279Y-42619080D01*
X74551720Y-42484639D01*
X74657349Y-42326554D01*
X74730108Y-42150898D01*
X74767200Y-41964424D01*
X74767200Y-41774296D01*
X74730108Y-41587822D01*
X74657349Y-41412166D01*
X74551720Y-41254081D01*
X74538600Y-41240961D01*
X74538600Y-41000680D01*
X80717001Y-41000680D01*
X80717001Y-42751540D01*
X77522247Y-42751540D01*
X77488600Y-42748226D01*
X77454953Y-42751540D01*
X77354317Y-42761452D01*
X77225194Y-42800621D01*
X77106193Y-42864228D01*
X77001889Y-42949829D01*
X76916288Y-43054133D01*
X76852681Y-43173134D01*
X76813512Y-43302257D01*
X76800286Y-43436540D01*
X76803600Y-43470187D01*
X76803600Y-44012888D01*
X75190800Y-44012888D01*
X75066318Y-44025148D01*
X74946620Y-44061458D01*
X74836306Y-44120423D01*
X74739615Y-44199775D01*
X74660263Y-44296466D01*
X74601298Y-44406780D01*
X74564988Y-44526478D01*
X74552728Y-44650960D01*
X74552728Y-46289760D01*
X74137394Y-46289760D01*
X74066810Y-46289423D01*
X74034205Y-46292463D01*
X74001456Y-46292234D01*
X73991938Y-46293168D01*
X73395320Y-46355874D01*
X73334509Y-46368357D01*
X73273518Y-46379992D01*
X73264362Y-46382756D01*
X72691286Y-46560153D01*
X72634032Y-46584221D01*
X72576488Y-46607470D01*
X72568043Y-46611960D01*
X72040338Y-46897289D01*
X71988881Y-46931997D01*
X71936917Y-46966002D01*
X71929505Y-46972047D01*
X71467271Y-47354441D01*
X71423524Y-47398494D01*
X71379167Y-47441932D01*
X71373070Y-47449302D01*
X70993913Y-47914194D01*
X70959557Y-47965905D01*
X70924480Y-48017133D01*
X70919934Y-48025542D01*
X70919931Y-48025546D01*
X70919931Y-48025547D01*
X70638293Y-48555231D01*
X70614639Y-48612620D01*
X70590176Y-48669696D01*
X70587348Y-48678833D01*
X70413957Y-49253133D01*
X70401900Y-49314026D01*
X70388990Y-49374763D01*
X70387990Y-49384275D01*
X70329450Y-49981316D01*
X70329450Y-49981324D01*
X70326181Y-50014514D01*
X70326182Y-50954346D01*
X70326177Y-50954396D01*
X70326182Y-50992219D01*
X70326182Y-51021608D01*
X70326185Y-51021639D01*
X70326519Y-53808160D01*
X40296627Y-53808160D01*
X40328400Y-53648424D01*
X40328400Y-53458296D01*
X40291308Y-53271822D01*
X40218549Y-53096166D01*
X40112920Y-52938081D01*
X39978479Y-52803640D01*
X39820394Y-52698011D01*
X39644738Y-52625252D01*
X39458264Y-52588160D01*
X39268136Y-52588160D01*
X39081662Y-52625252D01*
X38906006Y-52698011D01*
X38747921Y-52803640D01*
X38734801Y-52816760D01*
X34448610Y-52816760D01*
X33074149Y-51442300D01*
X33074149Y-47753163D01*
X33156759Y-47778223D01*
X33201061Y-47791662D01*
X33345460Y-47805884D01*
X33363902Y-47804068D01*
X33388550Y-47834102D01*
X33457858Y-47903410D01*
X33554549Y-47982762D01*
X33636048Y-48037218D01*
X33746365Y-48096184D01*
X33836921Y-48133693D01*
X33956617Y-48170002D01*
X34052750Y-48189124D01*
X34177231Y-48201384D01*
X34201790Y-48201384D01*
X34226240Y-48203792D01*
X34726240Y-48203792D01*
X34750690Y-48201384D01*
X34775249Y-48201384D01*
X34899730Y-48189124D01*
X34995863Y-48170002D01*
X35115559Y-48133693D01*
X35206115Y-48096184D01*
X35316432Y-48037218D01*
X35397931Y-47982762D01*
X35494622Y-47903410D01*
X35563930Y-47834102D01*
X35643282Y-47737411D01*
X35697738Y-47655912D01*
X35756704Y-47545595D01*
X35794213Y-47455039D01*
X35830522Y-47335343D01*
X35849644Y-47239210D01*
X35861904Y-47114729D01*
X35861904Y-47090170D01*
X35864312Y-47065720D01*
X35864312Y-46515720D01*
X35852052Y-46391238D01*
X35851895Y-46390720D01*
X35852052Y-46390202D01*
X35864312Y-46265720D01*
X35864312Y-45265720D01*
X35852052Y-45141238D01*
X35851895Y-45140720D01*
X35852052Y-45140202D01*
X35864312Y-45015720D01*
X35864312Y-44465720D01*
X35861904Y-44441270D01*
X35861904Y-44416711D01*
X35849644Y-44292230D01*
X35830522Y-44196097D01*
X35794213Y-44076401D01*
X35756704Y-43985845D01*
X35697738Y-43875528D01*
X35643282Y-43794029D01*
X35563930Y-43697338D01*
X35494622Y-43628030D01*
X35451075Y-43592292D01*
X35491280Y-43592292D01*
X35645025Y-43577149D01*
X35792862Y-43532304D01*
X35929109Y-43459478D01*
X36048531Y-43361471D01*
X36080945Y-43321974D01*
X36448884Y-43689914D01*
X36449076Y-43690273D01*
X36541125Y-43802435D01*
X36630189Y-43875528D01*
X36653287Y-43894484D01*
X36781251Y-43962882D01*
X36920101Y-44005002D01*
X37064500Y-44019224D01*
X37100686Y-44015660D01*
X38207191Y-44015660D01*
X38334501Y-44142971D01*
X38334501Y-45684689D01*
X38246958Y-45648428D01*
X37960060Y-45591360D01*
X37667540Y-45591360D01*
X37380642Y-45648428D01*
X37110389Y-45760370D01*
X36867168Y-45922885D01*
X36660325Y-46129728D01*
X36497810Y-46372949D01*
X36385868Y-46643202D01*
X36328800Y-46930100D01*
X36328800Y-47222620D01*
X36385868Y-47509518D01*
X36497810Y-47779771D01*
X36660325Y-48022992D01*
X36867168Y-48229835D01*
X37110389Y-48392350D01*
X37380642Y-48504292D01*
X37667540Y-48561360D01*
X37960060Y-48561360D01*
X38246958Y-48504292D01*
X38335379Y-48467667D01*
X38345158Y-48566958D01*
X38387278Y-48705808D01*
X38421022Y-48768938D01*
X38455676Y-48833772D01*
X38524204Y-48917273D01*
X38547725Y-48945934D01*
X38575832Y-48969001D01*
X41547257Y-51940427D01*
X41570325Y-51968535D01*
X41598431Y-51991601D01*
X41598432Y-51991602D01*
X41621065Y-52010176D01*
X41682487Y-52060584D01*
X41810451Y-52128982D01*
X41949301Y-52171102D01*
X42093700Y-52185324D01*
X42129886Y-52181760D01*
X45446191Y-52181760D01*
X45941800Y-52677370D01*
X45941800Y-52695924D01*
X45978892Y-52882398D01*
X46051651Y-53058054D01*
X46157280Y-53216139D01*
X46291721Y-53350580D01*
X46449806Y-53456209D01*
X46625462Y-53528968D01*
X46811936Y-53566060D01*
X47002064Y-53566060D01*
X47188538Y-53528968D01*
X47364194Y-53456209D01*
X47522279Y-53350580D01*
X47656720Y-53216139D01*
X47762349Y-53058054D01*
X47835108Y-52882398D01*
X47872200Y-52695924D01*
X47872200Y-52505796D01*
X47835108Y-52319322D01*
X47762349Y-52143666D01*
X47656720Y-51985581D01*
X47522279Y-51851140D01*
X47364194Y-51745511D01*
X47188538Y-51672752D01*
X47002064Y-51635660D01*
X46983510Y-51635660D01*
X46297745Y-50949896D01*
X46274675Y-50921785D01*
X46162513Y-50829736D01*
X46034549Y-50761338D01*
X45895699Y-50719218D01*
X45787486Y-50708560D01*
X45787483Y-50708560D01*
X45751300Y-50704996D01*
X45715117Y-50708560D01*
X42398810Y-50708560D01*
X41787401Y-50097151D01*
X41824862Y-50112668D01*
X42011336Y-50149760D01*
X42201464Y-50149760D01*
X42387938Y-50112668D01*
X42563594Y-50039909D01*
X42721679Y-49934280D01*
X42856120Y-49799839D01*
X42961749Y-49641754D01*
X43034508Y-49466098D01*
X43071600Y-49279624D01*
X43071600Y-49089496D01*
X43063696Y-49049760D01*
X43097661Y-49091146D01*
X43132427Y-49133509D01*
X43160533Y-49156575D01*
X43531377Y-49527419D01*
X43554448Y-49555531D01*
X43666610Y-49647580D01*
X43794574Y-49715978D01*
X43933424Y-49758098D01*
X44041637Y-49768756D01*
X44041646Y-49768756D01*
X44077822Y-49772319D01*
X44113998Y-49768756D01*
X44322801Y-49768756D01*
X44335921Y-49781876D01*
X44494006Y-49887505D01*
X44669662Y-49960264D01*
X44856136Y-49997356D01*
X45046264Y-49997356D01*
X45232738Y-49960264D01*
X45408394Y-49887505D01*
X45566479Y-49781876D01*
X45629992Y-49718363D01*
X45660804Y-49731126D01*
X45847278Y-49768218D01*
X46037406Y-49768218D01*
X46223880Y-49731126D01*
X46399536Y-49658367D01*
X46557621Y-49552738D01*
X46692062Y-49418297D01*
X46797691Y-49260212D01*
X46870450Y-49084556D01*
X46907542Y-48898082D01*
X46907542Y-48707954D01*
X46870450Y-48521480D01*
X46797691Y-48345824D01*
X46699663Y-48199114D01*
X46744842Y-48217828D01*
X46931316Y-48254920D01*
X47121444Y-48254920D01*
X47307918Y-48217828D01*
X47483574Y-48145069D01*
X47641659Y-48039440D01*
X47776100Y-47904999D01*
X47881729Y-47746914D01*
X47954488Y-47571258D01*
X47991580Y-47384784D01*
X47991580Y-47366229D01*
X48357306Y-47000503D01*
X48385413Y-46977437D01*
X48420459Y-46934734D01*
X48477462Y-46865275D01*
X48495409Y-46831698D01*
X48545860Y-46737311D01*
X48587980Y-46598461D01*
X48598638Y-46490248D01*
X48602202Y-46454062D01*
X48598638Y-46417876D01*
X48598638Y-46400595D01*
X48765273Y-46433740D01*
X48965407Y-46433740D01*
X49161696Y-46394696D01*
X49198453Y-46379471D01*
X50155381Y-47336398D01*
X50005674Y-47336398D01*
X49819200Y-47373490D01*
X49643544Y-47446249D01*
X49485459Y-47551878D01*
X49351018Y-47686319D01*
X49245389Y-47844404D01*
X49172630Y-48020060D01*
X49135538Y-48206534D01*
X49135538Y-48396662D01*
X49154352Y-48491247D01*
X49038213Y-48607386D01*
X48932584Y-48765471D01*
X48859825Y-48941127D01*
X48822733Y-49127601D01*
X48822733Y-49317729D01*
X48859825Y-49504203D01*
X48932584Y-49679859D01*
X49038213Y-49837944D01*
X49076009Y-49875740D01*
X49068503Y-49883246D01*
X48962874Y-50041331D01*
X48890115Y-50216987D01*
X48853023Y-50403461D01*
X48853023Y-50593589D01*
X48890115Y-50780063D01*
X48962874Y-50955719D01*
X49068503Y-51113804D01*
X49202944Y-51248245D01*
X49361029Y-51353874D01*
X49482056Y-51404005D01*
X49408480Y-51477581D01*
X49302851Y-51635666D01*
X49230092Y-51811322D01*
X49193000Y-51997796D01*
X49193000Y-52187924D01*
X49230092Y-52374398D01*
X49302851Y-52550054D01*
X49408480Y-52708139D01*
X49542921Y-52842580D01*
X49701006Y-52948209D01*
X49876662Y-53020968D01*
X50063136Y-53058060D01*
X50081691Y-53058060D01*
X50310254Y-53286623D01*
X50333325Y-53314735D01*
X50445487Y-53406784D01*
X50573451Y-53475182D01*
X50712301Y-53517302D01*
X50820514Y-53527960D01*
X50820523Y-53527960D01*
X50856699Y-53531523D01*
X50892875Y-53527960D01*
X59243461Y-53527960D01*
X59279644Y-53531524D01*
X59315827Y-53527960D01*
X59315830Y-53527960D01*
X59424043Y-53517302D01*
X59562893Y-53475182D01*
X59690857Y-53406784D01*
X59803019Y-53314735D01*
X59826089Y-53286624D01*
X61550113Y-51562601D01*
X61578219Y-51539535D01*
X61610748Y-51499899D01*
X61670268Y-51427373D01*
X61682001Y-51405422D01*
X61738666Y-51299409D01*
X61780786Y-51160559D01*
X61791444Y-51052346D01*
X61795008Y-51016160D01*
X61791444Y-50979974D01*
X61791444Y-47508194D01*
X62999783Y-47508194D01*
X63035966Y-47511758D01*
X63072149Y-47508194D01*
X63072152Y-47508194D01*
X63180365Y-47497536D01*
X63319215Y-47455416D01*
X63447179Y-47387018D01*
X63559341Y-47294969D01*
X63582412Y-47266857D01*
X65132400Y-45716869D01*
X65132400Y-45876420D01*
X65189468Y-46163318D01*
X65301410Y-46433571D01*
X65463925Y-46676792D01*
X65670768Y-46883635D01*
X65913989Y-47046150D01*
X66184242Y-47158092D01*
X66471140Y-47215160D01*
X66763660Y-47215160D01*
X66927311Y-47182607D01*
X66999031Y-47355754D01*
X67104660Y-47513839D01*
X67239101Y-47648280D01*
X67397186Y-47753909D01*
X67572842Y-47826668D01*
X67759316Y-47863760D01*
X67949444Y-47863760D01*
X68135918Y-47826668D01*
X68311574Y-47753909D01*
X68469659Y-47648280D01*
X68604100Y-47513839D01*
X68709729Y-47355754D01*
X68782488Y-47180098D01*
X68819580Y-46993624D01*
X68819580Y-46803496D01*
X68782488Y-46617022D01*
X68709729Y-46441366D01*
X68604100Y-46283281D01*
X68585900Y-46265081D01*
X68585900Y-44965638D01*
X68636281Y-45041039D01*
X68770722Y-45175480D01*
X68928807Y-45281109D01*
X69104463Y-45353868D01*
X69290937Y-45390960D01*
X69481065Y-45390960D01*
X69667539Y-45353868D01*
X69843195Y-45281109D01*
X70001280Y-45175480D01*
X70135721Y-45041039D01*
X70241350Y-44882954D01*
X70314109Y-44707298D01*
X70351201Y-44520824D01*
X70351201Y-44330696D01*
X70314109Y-44144222D01*
X70241350Y-43968566D01*
X70135721Y-43810481D01*
X70001280Y-43676040D01*
X69843195Y-43570411D01*
X69667539Y-43497652D01*
X69481065Y-43460560D01*
X69462510Y-43460560D01*
X69419020Y-43417070D01*
X69419020Y-36584235D01*
X69422583Y-36548059D01*
X69419020Y-36511883D01*
X69419020Y-36511874D01*
X69408362Y-36403661D01*
X69366242Y-36264811D01*
X69297844Y-36136847D01*
X69205794Y-36024685D01*
X69177688Y-36001619D01*
X67450029Y-34273960D01*
X72120953Y-34273960D01*
X72154600Y-34277274D01*
X72188247Y-34273960D01*
X72288883Y-34264048D01*
X72418006Y-34224879D01*
X72537007Y-34161272D01*
X72641311Y-34075671D01*
X72726912Y-33971367D01*
X72790519Y-33852366D01*
X72829688Y-33723243D01*
X72842914Y-33588960D01*
X72839600Y-33555313D01*
X72839600Y-32013360D01*
X74552728Y-32013360D01*
X74552728Y-33651560D01*
G37*
X74552728Y-33651560D02*
X74564988Y-33776042D01*
X74601298Y-33895740D01*
X74660263Y-34006054D01*
X74739615Y-34102745D01*
X74836306Y-34182097D01*
X74946620Y-34241062D01*
X75066318Y-34277372D01*
X75190800Y-34289632D01*
X76803601Y-34289632D01*
X76803601Y-34906583D01*
X76800286Y-34940240D01*
X76813512Y-35074523D01*
X76835767Y-35147888D01*
X75852000Y-35147888D01*
X75727518Y-35160148D01*
X75607820Y-35196458D01*
X75497506Y-35255423D01*
X75400815Y-35334775D01*
X75321463Y-35431466D01*
X75262498Y-35541780D01*
X75226188Y-35661478D01*
X75213928Y-35785960D01*
X75213928Y-35835460D01*
X73866150Y-35835460D01*
X73825600Y-35831466D01*
X73785049Y-35835460D01*
X73785047Y-35835460D01*
X73663774Y-35847404D01*
X73513441Y-35893007D01*
X73508166Y-35894607D01*
X73433157Y-35934700D01*
X73424624Y-35848065D01*
X73365441Y-35652967D01*
X73269334Y-35473163D01*
X73139996Y-35315564D01*
X72982397Y-35186226D01*
X72802593Y-35090119D01*
X72607495Y-35030936D01*
X72455438Y-35015960D01*
X71853762Y-35015960D01*
X71701705Y-35030936D01*
X71506607Y-35090119D01*
X71326803Y-35186226D01*
X71169204Y-35315564D01*
X71082010Y-35421810D01*
X71039138Y-35404052D01*
X70852664Y-35366960D01*
X70662536Y-35366960D01*
X70476062Y-35404052D01*
X70300406Y-35476811D01*
X70142321Y-35582440D01*
X70007880Y-35716881D01*
X69902251Y-35874966D01*
X69829492Y-36050622D01*
X69792400Y-36237096D01*
X69792400Y-36427224D01*
X69829492Y-36613698D01*
X69902251Y-36789354D01*
X70007880Y-36947439D01*
X70021000Y-36960559D01*
X70021001Y-38015547D01*
X70017436Y-38051740D01*
X70027748Y-38156427D01*
X70031659Y-38196139D01*
X70039442Y-38221795D01*
X70073778Y-38334987D01*
X70142176Y-38462952D01*
X70207111Y-38542075D01*
X70234226Y-38575115D01*
X70262332Y-38598181D01*
X70710379Y-39046228D01*
X70733445Y-39074335D01*
X70845607Y-39166384D01*
X70973571Y-39234782D01*
X71025272Y-39250466D01*
X70943759Y-39402967D01*
X70884576Y-39598065D01*
X70864593Y-39800960D01*
X70884576Y-40003855D01*
X70943759Y-40198953D01*
X71039866Y-40378757D01*
X71078604Y-40425960D01*
X71039866Y-40473163D01*
X70943759Y-40652967D01*
X70884576Y-40848065D01*
X70864593Y-41050960D01*
X70884576Y-41253855D01*
X70943759Y-41448953D01*
X71039866Y-41628757D01*
X71169204Y-41786356D01*
X71326803Y-41915694D01*
X71506607Y-42011801D01*
X71701705Y-42070984D01*
X71853762Y-42085960D01*
X72455438Y-42085960D01*
X72607495Y-42070984D01*
X72802593Y-42011801D01*
X72842031Y-41990721D01*
X72873892Y-42150898D01*
X72946651Y-42326554D01*
X73052280Y-42484639D01*
X73186721Y-42619080D01*
X73344806Y-42724709D01*
X73520462Y-42797468D01*
X73706936Y-42834560D01*
X73897064Y-42834560D01*
X74083538Y-42797468D01*
X74259194Y-42724709D01*
X74417279Y-42619080D01*
X74551720Y-42484639D01*
X74657349Y-42326554D01*
X74730108Y-42150898D01*
X74767200Y-41964424D01*
X74767200Y-41774296D01*
X74730108Y-41587822D01*
X74657349Y-41412166D01*
X74551720Y-41254081D01*
X74538600Y-41240961D01*
X74538600Y-41000680D01*
X80717001Y-41000680D01*
X80717001Y-42751540D01*
X77522247Y-42751540D01*
X77488600Y-42748226D01*
X77454953Y-42751540D01*
X77354317Y-42761452D01*
X77225194Y-42800621D01*
X77106193Y-42864228D01*
X77001889Y-42949829D01*
X76916288Y-43054133D01*
X76852681Y-43173134D01*
X76813512Y-43302257D01*
X76800286Y-43436540D01*
X76803600Y-43470187D01*
X76803600Y-44012888D01*
X75190800Y-44012888D01*
X75066318Y-44025148D01*
X74946620Y-44061458D01*
X74836306Y-44120423D01*
X74739615Y-44199775D01*
X74660263Y-44296466D01*
X74601298Y-44406780D01*
X74564988Y-44526478D01*
X74552728Y-44650960D01*
X74552728Y-46289760D01*
X74137394Y-46289760D01*
X74066810Y-46289423D01*
X74034205Y-46292463D01*
X74001456Y-46292234D01*
X73991938Y-46293168D01*
X73395320Y-46355874D01*
X73334509Y-46368357D01*
X73273518Y-46379992D01*
X73264362Y-46382756D01*
X72691286Y-46560153D01*
X72634032Y-46584221D01*
X72576488Y-46607470D01*
X72568043Y-46611960D01*
X72040338Y-46897289D01*
X71988881Y-46931997D01*
X71936917Y-46966002D01*
X71929505Y-46972047D01*
X71467271Y-47354441D01*
X71423524Y-47398494D01*
X71379167Y-47441932D01*
X71373070Y-47449302D01*
X70993913Y-47914194D01*
X70959557Y-47965905D01*
X70924480Y-48017133D01*
X70919934Y-48025542D01*
X70919931Y-48025546D01*
X70919931Y-48025547D01*
X70638293Y-48555231D01*
X70614639Y-48612620D01*
X70590176Y-48669696D01*
X70587348Y-48678833D01*
X70413957Y-49253133D01*
X70401900Y-49314026D01*
X70388990Y-49374763D01*
X70387990Y-49384275D01*
X70329450Y-49981316D01*
X70329450Y-49981324D01*
X70326181Y-50014514D01*
X70326182Y-50954346D01*
X70326177Y-50954396D01*
X70326182Y-50992219D01*
X70326182Y-51021608D01*
X70326185Y-51021639D01*
X70326519Y-53808160D01*
X40296627Y-53808160D01*
X40328400Y-53648424D01*
X40328400Y-53458296D01*
X40291308Y-53271822D01*
X40218549Y-53096166D01*
X40112920Y-52938081D01*
X39978479Y-52803640D01*
X39820394Y-52698011D01*
X39644738Y-52625252D01*
X39458264Y-52588160D01*
X39268136Y-52588160D01*
X39081662Y-52625252D01*
X38906006Y-52698011D01*
X38747921Y-52803640D01*
X38734801Y-52816760D01*
X34448610Y-52816760D01*
X33074149Y-51442300D01*
X33074149Y-47753163D01*
X33156759Y-47778223D01*
X33201061Y-47791662D01*
X33345460Y-47805884D01*
X33363902Y-47804068D01*
X33388550Y-47834102D01*
X33457858Y-47903410D01*
X33554549Y-47982762D01*
X33636048Y-48037218D01*
X33746365Y-48096184D01*
X33836921Y-48133693D01*
X33956617Y-48170002D01*
X34052750Y-48189124D01*
X34177231Y-48201384D01*
X34201790Y-48201384D01*
X34226240Y-48203792D01*
X34726240Y-48203792D01*
X34750690Y-48201384D01*
X34775249Y-48201384D01*
X34899730Y-48189124D01*
X34995863Y-48170002D01*
X35115559Y-48133693D01*
X35206115Y-48096184D01*
X35316432Y-48037218D01*
X35397931Y-47982762D01*
X35494622Y-47903410D01*
X35563930Y-47834102D01*
X35643282Y-47737411D01*
X35697738Y-47655912D01*
X35756704Y-47545595D01*
X35794213Y-47455039D01*
X35830522Y-47335343D01*
X35849644Y-47239210D01*
X35861904Y-47114729D01*
X35861904Y-47090170D01*
X35864312Y-47065720D01*
X35864312Y-46515720D01*
X35852052Y-46391238D01*
X35851895Y-46390720D01*
X35852052Y-46390202D01*
X35864312Y-46265720D01*
X35864312Y-45265720D01*
X35852052Y-45141238D01*
X35851895Y-45140720D01*
X35852052Y-45140202D01*
X35864312Y-45015720D01*
X35864312Y-44465720D01*
X35861904Y-44441270D01*
X35861904Y-44416711D01*
X35849644Y-44292230D01*
X35830522Y-44196097D01*
X35794213Y-44076401D01*
X35756704Y-43985845D01*
X35697738Y-43875528D01*
X35643282Y-43794029D01*
X35563930Y-43697338D01*
X35494622Y-43628030D01*
X35451075Y-43592292D01*
X35491280Y-43592292D01*
X35645025Y-43577149D01*
X35792862Y-43532304D01*
X35929109Y-43459478D01*
X36048531Y-43361471D01*
X36080945Y-43321974D01*
X36448884Y-43689914D01*
X36449076Y-43690273D01*
X36541125Y-43802435D01*
X36630189Y-43875528D01*
X36653287Y-43894484D01*
X36781251Y-43962882D01*
X36920101Y-44005002D01*
X37064500Y-44019224D01*
X37100686Y-44015660D01*
X38207191Y-44015660D01*
X38334501Y-44142971D01*
X38334501Y-45684689D01*
X38246958Y-45648428D01*
X37960060Y-45591360D01*
X37667540Y-45591360D01*
X37380642Y-45648428D01*
X37110389Y-45760370D01*
X36867168Y-45922885D01*
X36660325Y-46129728D01*
X36497810Y-46372949D01*
X36385868Y-46643202D01*
X36328800Y-46930100D01*
X36328800Y-47222620D01*
X36385868Y-47509518D01*
X36497810Y-47779771D01*
X36660325Y-48022992D01*
X36867168Y-48229835D01*
X37110389Y-48392350D01*
X37380642Y-48504292D01*
X37667540Y-48561360D01*
X37960060Y-48561360D01*
X38246958Y-48504292D01*
X38335379Y-48467667D01*
X38345158Y-48566958D01*
X38387278Y-48705808D01*
X38421022Y-48768938D01*
X38455676Y-48833772D01*
X38524204Y-48917273D01*
X38547725Y-48945934D01*
X38575832Y-48969001D01*
X41547257Y-51940427D01*
X41570325Y-51968535D01*
X41598431Y-51991601D01*
X41598432Y-51991602D01*
X41621065Y-52010176D01*
X41682487Y-52060584D01*
X41810451Y-52128982D01*
X41949301Y-52171102D01*
X42093700Y-52185324D01*
X42129886Y-52181760D01*
X45446191Y-52181760D01*
X45941800Y-52677370D01*
X45941800Y-52695924D01*
X45978892Y-52882398D01*
X46051651Y-53058054D01*
X46157280Y-53216139D01*
X46291721Y-53350580D01*
X46449806Y-53456209D01*
X46625462Y-53528968D01*
X46811936Y-53566060D01*
X47002064Y-53566060D01*
X47188538Y-53528968D01*
X47364194Y-53456209D01*
X47522279Y-53350580D01*
X47656720Y-53216139D01*
X47762349Y-53058054D01*
X47835108Y-52882398D01*
X47872200Y-52695924D01*
X47872200Y-52505796D01*
X47835108Y-52319322D01*
X47762349Y-52143666D01*
X47656720Y-51985581D01*
X47522279Y-51851140D01*
X47364194Y-51745511D01*
X47188538Y-51672752D01*
X47002064Y-51635660D01*
X46983510Y-51635660D01*
X46297745Y-50949896D01*
X46274675Y-50921785D01*
X46162513Y-50829736D01*
X46034549Y-50761338D01*
X45895699Y-50719218D01*
X45787486Y-50708560D01*
X45787483Y-50708560D01*
X45751300Y-50704996D01*
X45715117Y-50708560D01*
X42398810Y-50708560D01*
X41787401Y-50097151D01*
X41824862Y-50112668D01*
X42011336Y-50149760D01*
X42201464Y-50149760D01*
X42387938Y-50112668D01*
X42563594Y-50039909D01*
X42721679Y-49934280D01*
X42856120Y-49799839D01*
X42961749Y-49641754D01*
X43034508Y-49466098D01*
X43071600Y-49279624D01*
X43071600Y-49089496D01*
X43063696Y-49049760D01*
X43097661Y-49091146D01*
X43132427Y-49133509D01*
X43160533Y-49156575D01*
X43531377Y-49527419D01*
X43554448Y-49555531D01*
X43666610Y-49647580D01*
X43794574Y-49715978D01*
X43933424Y-49758098D01*
X44041637Y-49768756D01*
X44041646Y-49768756D01*
X44077822Y-49772319D01*
X44113998Y-49768756D01*
X44322801Y-49768756D01*
X44335921Y-49781876D01*
X44494006Y-49887505D01*
X44669662Y-49960264D01*
X44856136Y-49997356D01*
X45046264Y-49997356D01*
X45232738Y-49960264D01*
X45408394Y-49887505D01*
X45566479Y-49781876D01*
X45629992Y-49718363D01*
X45660804Y-49731126D01*
X45847278Y-49768218D01*
X46037406Y-49768218D01*
X46223880Y-49731126D01*
X46399536Y-49658367D01*
X46557621Y-49552738D01*
X46692062Y-49418297D01*
X46797691Y-49260212D01*
X46870450Y-49084556D01*
X46907542Y-48898082D01*
X46907542Y-48707954D01*
X46870450Y-48521480D01*
X46797691Y-48345824D01*
X46699663Y-48199114D01*
X46744842Y-48217828D01*
X46931316Y-48254920D01*
X47121444Y-48254920D01*
X47307918Y-48217828D01*
X47483574Y-48145069D01*
X47641659Y-48039440D01*
X47776100Y-47904999D01*
X47881729Y-47746914D01*
X47954488Y-47571258D01*
X47991580Y-47384784D01*
X47991580Y-47366229D01*
X48357306Y-47000503D01*
X48385413Y-46977437D01*
X48420459Y-46934734D01*
X48477462Y-46865275D01*
X48495409Y-46831698D01*
X48545860Y-46737311D01*
X48587980Y-46598461D01*
X48598638Y-46490248D01*
X48602202Y-46454062D01*
X48598638Y-46417876D01*
X48598638Y-46400595D01*
X48765273Y-46433740D01*
X48965407Y-46433740D01*
X49161696Y-46394696D01*
X49198453Y-46379471D01*
X50155381Y-47336398D01*
X50005674Y-47336398D01*
X49819200Y-47373490D01*
X49643544Y-47446249D01*
X49485459Y-47551878D01*
X49351018Y-47686319D01*
X49245389Y-47844404D01*
X49172630Y-48020060D01*
X49135538Y-48206534D01*
X49135538Y-48396662D01*
X49154352Y-48491247D01*
X49038213Y-48607386D01*
X48932584Y-48765471D01*
X48859825Y-48941127D01*
X48822733Y-49127601D01*
X48822733Y-49317729D01*
X48859825Y-49504203D01*
X48932584Y-49679859D01*
X49038213Y-49837944D01*
X49076009Y-49875740D01*
X49068503Y-49883246D01*
X48962874Y-50041331D01*
X48890115Y-50216987D01*
X48853023Y-50403461D01*
X48853023Y-50593589D01*
X48890115Y-50780063D01*
X48962874Y-50955719D01*
X49068503Y-51113804D01*
X49202944Y-51248245D01*
X49361029Y-51353874D01*
X49482056Y-51404005D01*
X49408480Y-51477581D01*
X49302851Y-51635666D01*
X49230092Y-51811322D01*
X49193000Y-51997796D01*
X49193000Y-52187924D01*
X49230092Y-52374398D01*
X49302851Y-52550054D01*
X49408480Y-52708139D01*
X49542921Y-52842580D01*
X49701006Y-52948209D01*
X49876662Y-53020968D01*
X50063136Y-53058060D01*
X50081691Y-53058060D01*
X50310254Y-53286623D01*
X50333325Y-53314735D01*
X50445487Y-53406784D01*
X50573451Y-53475182D01*
X50712301Y-53517302D01*
X50820514Y-53527960D01*
X50820523Y-53527960D01*
X50856699Y-53531523D01*
X50892875Y-53527960D01*
X59243461Y-53527960D01*
X59279644Y-53531524D01*
X59315827Y-53527960D01*
X59315830Y-53527960D01*
X59424043Y-53517302D01*
X59562893Y-53475182D01*
X59690857Y-53406784D01*
X59803019Y-53314735D01*
X59826089Y-53286624D01*
X61550113Y-51562601D01*
X61578219Y-51539535D01*
X61610748Y-51499899D01*
X61670268Y-51427373D01*
X61682001Y-51405422D01*
X61738666Y-51299409D01*
X61780786Y-51160559D01*
X61791444Y-51052346D01*
X61795008Y-51016160D01*
X61791444Y-50979974D01*
X61791444Y-47508194D01*
X62999783Y-47508194D01*
X63035966Y-47511758D01*
X63072149Y-47508194D01*
X63072152Y-47508194D01*
X63180365Y-47497536D01*
X63319215Y-47455416D01*
X63447179Y-47387018D01*
X63559341Y-47294969D01*
X63582412Y-47266857D01*
X65132400Y-45716869D01*
X65132400Y-45876420D01*
X65189468Y-46163318D01*
X65301410Y-46433571D01*
X65463925Y-46676792D01*
X65670768Y-46883635D01*
X65913989Y-47046150D01*
X66184242Y-47158092D01*
X66471140Y-47215160D01*
X66763660Y-47215160D01*
X66927311Y-47182607D01*
X66999031Y-47355754D01*
X67104660Y-47513839D01*
X67239101Y-47648280D01*
X67397186Y-47753909D01*
X67572842Y-47826668D01*
X67759316Y-47863760D01*
X67949444Y-47863760D01*
X68135918Y-47826668D01*
X68311574Y-47753909D01*
X68469659Y-47648280D01*
X68604100Y-47513839D01*
X68709729Y-47355754D01*
X68782488Y-47180098D01*
X68819580Y-46993624D01*
X68819580Y-46803496D01*
X68782488Y-46617022D01*
X68709729Y-46441366D01*
X68604100Y-46283281D01*
X68585900Y-46265081D01*
X68585900Y-44965638D01*
X68636281Y-45041039D01*
X68770722Y-45175480D01*
X68928807Y-45281109D01*
X69104463Y-45353868D01*
X69290937Y-45390960D01*
X69481065Y-45390960D01*
X69667539Y-45353868D01*
X69843195Y-45281109D01*
X70001280Y-45175480D01*
X70135721Y-45041039D01*
X70241350Y-44882954D01*
X70314109Y-44707298D01*
X70351201Y-44520824D01*
X70351201Y-44330696D01*
X70314109Y-44144222D01*
X70241350Y-43968566D01*
X70135721Y-43810481D01*
X70001280Y-43676040D01*
X69843195Y-43570411D01*
X69667539Y-43497652D01*
X69481065Y-43460560D01*
X69462510Y-43460560D01*
X69419020Y-43417070D01*
X69419020Y-36584235D01*
X69422583Y-36548059D01*
X69419020Y-36511883D01*
X69419020Y-36511874D01*
X69408362Y-36403661D01*
X69366242Y-36264811D01*
X69297844Y-36136847D01*
X69205794Y-36024685D01*
X69177688Y-36001619D01*
X67450029Y-34273960D01*
X72120953Y-34273960D01*
X72154600Y-34277274D01*
X72188247Y-34273960D01*
X72288883Y-34264048D01*
X72418006Y-34224879D01*
X72537007Y-34161272D01*
X72641311Y-34075671D01*
X72726912Y-33971367D01*
X72790519Y-33852366D01*
X72829688Y-33723243D01*
X72842914Y-33588960D01*
X72839600Y-33555313D01*
X72839600Y-32013360D01*
X74552728Y-32013360D01*
X74552728Y-33651560D01*
G36*
X57888877Y-35200763D02*
G01*
X57924667Y-35244373D01*
X58098711Y-35387208D01*
X58297277Y-35493343D01*
X58417575Y-35529835D01*
X58512732Y-35558701D01*
X58535400Y-35560934D01*
X58680654Y-35575240D01*
X58680660Y-35575240D01*
X58736799Y-35580769D01*
X58792938Y-35575240D01*
X62855926Y-35575240D01*
X63023847Y-35558701D01*
X63239303Y-35493343D01*
X63437869Y-35387208D01*
X63611913Y-35244373D01*
X63673902Y-35168840D01*
X66261491Y-35168840D01*
X67824013Y-36731362D01*
X67821894Y-36729623D01*
X67711580Y-36670658D01*
X67591882Y-36634348D01*
X67467400Y-36622088D01*
X65767400Y-36622088D01*
X65642918Y-36634348D01*
X65523220Y-36670658D01*
X65412906Y-36729623D01*
X65316215Y-36808975D01*
X65236863Y-36905666D01*
X65177898Y-37015980D01*
X65141588Y-37135678D01*
X65129328Y-37260160D01*
X65129328Y-37514152D01*
X65091955Y-37544824D01*
X65040825Y-37586785D01*
X65017759Y-37614891D01*
X64445732Y-38186919D01*
X64417625Y-38209986D01*
X64394559Y-38238092D01*
X64394558Y-38238093D01*
X64370251Y-38267711D01*
X64325576Y-38322148D01*
X64257178Y-38450112D01*
X64215058Y-38588962D01*
X64204691Y-38694220D01*
X64200836Y-38733360D01*
X64204400Y-38769543D01*
X64204401Y-42796624D01*
X61778851Y-45222175D01*
X61421549Y-45222175D01*
X61446968Y-45160808D01*
X61484060Y-44974334D01*
X61484060Y-44784206D01*
X61446968Y-44597732D01*
X61374209Y-44422076D01*
X61268580Y-44263991D01*
X61255460Y-44250871D01*
X61255460Y-41344195D01*
X61259023Y-41308019D01*
X61255460Y-41271843D01*
X61255460Y-41271834D01*
X61244802Y-41163621D01*
X61202682Y-41024771D01*
X61134284Y-40896807D01*
X61115304Y-40873680D01*
X61065302Y-40812752D01*
X61065297Y-40812747D01*
X61042234Y-40784645D01*
X61014133Y-40761583D01*
X60496009Y-40243460D01*
X60496009Y-40224905D01*
X60458917Y-40038431D01*
X60386158Y-39862775D01*
X60280529Y-39704690D01*
X60146088Y-39570249D01*
X59988003Y-39464620D01*
X59861001Y-39412014D01*
X59861001Y-39272396D01*
X59823909Y-39085922D01*
X59751150Y-38910266D01*
X59645521Y-38752181D01*
X59511080Y-38617740D01*
X59352995Y-38512111D01*
X59177339Y-38439352D01*
X58990865Y-38402260D01*
X58800737Y-38402260D01*
X58614263Y-38439352D01*
X58438607Y-38512111D01*
X58280522Y-38617740D01*
X58146081Y-38752181D01*
X58040452Y-38910266D01*
X57967693Y-39085922D01*
X57930601Y-39272396D01*
X57930601Y-39301972D01*
X57912056Y-39324569D01*
X57843658Y-39452534D01*
X57830368Y-39496345D01*
X57801882Y-39590253D01*
X57801539Y-39591383D01*
X57787316Y-39735781D01*
X57790881Y-39771974D01*
X57790880Y-41947464D01*
X57787316Y-41983648D01*
X57790880Y-42019831D01*
X57790880Y-42019833D01*
X57801538Y-42128046D01*
X57843658Y-42266896D01*
X57899287Y-42370971D01*
X57912056Y-42394860D01*
X57974822Y-42471340D01*
X58004105Y-42507022D01*
X58032212Y-42530089D01*
X58540201Y-43038079D01*
X58540200Y-50190090D01*
X58472460Y-50257830D01*
X58469080Y-50223510D01*
X58469080Y-47541082D01*
X58473073Y-47500539D01*
X58469080Y-47459996D01*
X58469080Y-47459987D01*
X58457136Y-47338714D01*
X58409933Y-47183106D01*
X58333279Y-47039698D01*
X58333278Y-47039696D01*
X58286594Y-46982812D01*
X58230121Y-46913999D01*
X58198619Y-46888146D01*
X57019664Y-45709192D01*
X56999661Y-45506093D01*
X56934302Y-45290637D01*
X56863800Y-45158736D01*
X56863800Y-37777678D01*
X56869329Y-37721539D01*
X56863800Y-37665400D01*
X56863800Y-37665394D01*
X56847890Y-37503855D01*
X56847261Y-37497472D01*
X56808591Y-37369996D01*
X56781903Y-37282017D01*
X56675768Y-37083451D01*
X56579320Y-36965929D01*
X56579320Y-34224219D01*
X56584849Y-34168080D01*
X56579320Y-34111941D01*
X56579320Y-34111934D01*
X56564086Y-33957258D01*
X56645373Y-33957258D01*
X57888877Y-35200763D01*
G37*
X57888877Y-35200763D02*
X57924667Y-35244373D01*
X58098711Y-35387208D01*
X58297277Y-35493343D01*
X58417575Y-35529835D01*
X58512732Y-35558701D01*
X58535400Y-35560934D01*
X58680654Y-35575240D01*
X58680660Y-35575240D01*
X58736799Y-35580769D01*
X58792938Y-35575240D01*
X62855926Y-35575240D01*
X63023847Y-35558701D01*
X63239303Y-35493343D01*
X63437869Y-35387208D01*
X63611913Y-35244373D01*
X63673902Y-35168840D01*
X66261491Y-35168840D01*
X67824013Y-36731362D01*
X67821894Y-36729623D01*
X67711580Y-36670658D01*
X67591882Y-36634348D01*
X67467400Y-36622088D01*
X65767400Y-36622088D01*
X65642918Y-36634348D01*
X65523220Y-36670658D01*
X65412906Y-36729623D01*
X65316215Y-36808975D01*
X65236863Y-36905666D01*
X65177898Y-37015980D01*
X65141588Y-37135678D01*
X65129328Y-37260160D01*
X65129328Y-37514152D01*
X65091955Y-37544824D01*
X65040825Y-37586785D01*
X65017759Y-37614891D01*
X64445732Y-38186919D01*
X64417625Y-38209986D01*
X64394559Y-38238092D01*
X64394558Y-38238093D01*
X64370251Y-38267711D01*
X64325576Y-38322148D01*
X64257178Y-38450112D01*
X64215058Y-38588962D01*
X64204691Y-38694220D01*
X64200836Y-38733360D01*
X64204400Y-38769543D01*
X64204401Y-42796624D01*
X61778851Y-45222175D01*
X61421549Y-45222175D01*
X61446968Y-45160808D01*
X61484060Y-44974334D01*
X61484060Y-44784206D01*
X61446968Y-44597732D01*
X61374209Y-44422076D01*
X61268580Y-44263991D01*
X61255460Y-44250871D01*
X61255460Y-41344195D01*
X61259023Y-41308019D01*
X61255460Y-41271843D01*
X61255460Y-41271834D01*
X61244802Y-41163621D01*
X61202682Y-41024771D01*
X61134284Y-40896807D01*
X61115304Y-40873680D01*
X61065302Y-40812752D01*
X61065297Y-40812747D01*
X61042234Y-40784645D01*
X61014133Y-40761583D01*
X60496009Y-40243460D01*
X60496009Y-40224905D01*
X60458917Y-40038431D01*
X60386158Y-39862775D01*
X60280529Y-39704690D01*
X60146088Y-39570249D01*
X59988003Y-39464620D01*
X59861001Y-39412014D01*
X59861001Y-39272396D01*
X59823909Y-39085922D01*
X59751150Y-38910266D01*
X59645521Y-38752181D01*
X59511080Y-38617740D01*
X59352995Y-38512111D01*
X59177339Y-38439352D01*
X58990865Y-38402260D01*
X58800737Y-38402260D01*
X58614263Y-38439352D01*
X58438607Y-38512111D01*
X58280522Y-38617740D01*
X58146081Y-38752181D01*
X58040452Y-38910266D01*
X57967693Y-39085922D01*
X57930601Y-39272396D01*
X57930601Y-39301972D01*
X57912056Y-39324569D01*
X57843658Y-39452534D01*
X57830368Y-39496345D01*
X57801882Y-39590253D01*
X57801539Y-39591383D01*
X57787316Y-39735781D01*
X57790881Y-39771974D01*
X57790880Y-41947464D01*
X57787316Y-41983648D01*
X57790880Y-42019831D01*
X57790880Y-42019833D01*
X57801538Y-42128046D01*
X57843658Y-42266896D01*
X57899287Y-42370971D01*
X57912056Y-42394860D01*
X57974822Y-42471340D01*
X58004105Y-42507022D01*
X58032212Y-42530089D01*
X58540201Y-43038079D01*
X58540200Y-50190090D01*
X58472460Y-50257830D01*
X58469080Y-50223510D01*
X58469080Y-47541082D01*
X58473073Y-47500539D01*
X58469080Y-47459996D01*
X58469080Y-47459987D01*
X58457136Y-47338714D01*
X58409933Y-47183106D01*
X58333279Y-47039698D01*
X58333278Y-47039696D01*
X58286594Y-46982812D01*
X58230121Y-46913999D01*
X58198619Y-46888146D01*
X57019664Y-45709192D01*
X56999661Y-45506093D01*
X56934302Y-45290637D01*
X56863800Y-45158736D01*
X56863800Y-37777678D01*
X56869329Y-37721539D01*
X56863800Y-37665400D01*
X56863800Y-37665394D01*
X56847890Y-37503855D01*
X56847261Y-37497472D01*
X56808591Y-37369996D01*
X56781903Y-37282017D01*
X56675768Y-37083451D01*
X56579320Y-36965929D01*
X56579320Y-34224219D01*
X56584849Y-34168080D01*
X56579320Y-34111941D01*
X56579320Y-34111934D01*
X56564086Y-33957258D01*
X56645373Y-33957258D01*
X57888877Y-35200763D01*
G36*
X54293320Y-34641525D02*
G01*
X54293321Y-37380912D01*
X54287791Y-37437060D01*
X54309859Y-37661127D01*
X54353321Y-37804400D01*
X54375218Y-37876583D01*
X54481353Y-38075149D01*
X54551782Y-38160966D01*
X54577801Y-38192671D01*
X54577800Y-39578014D01*
X54577800Y-40316619D01*
X54573264Y-40313588D01*
X54397608Y-40240829D01*
X54211134Y-40203737D01*
X54021006Y-40203737D01*
X53834532Y-40240829D01*
X53658876Y-40313588D01*
X53500791Y-40419217D01*
X53366350Y-40553658D01*
X53260721Y-40711743D01*
X53187962Y-40887399D01*
X53150870Y-41073873D01*
X53150870Y-41264001D01*
X53187962Y-41450475D01*
X53260721Y-41626131D01*
X53366350Y-41784216D01*
X53413104Y-41830970D01*
X53432248Y-41894079D01*
X53500646Y-42022043D01*
X53592696Y-42134205D01*
X53620802Y-42157271D01*
X53993600Y-42530070D01*
X53993601Y-46087667D01*
X53990036Y-46123860D01*
X54001291Y-46238127D01*
X54004259Y-46268259D01*
X54010784Y-46289768D01*
X54045452Y-46404052D01*
X54046379Y-46407109D01*
X54049570Y-46413079D01*
X54114776Y-46535072D01*
X54182031Y-46617022D01*
X54206826Y-46647235D01*
X54234932Y-46670301D01*
X55299742Y-47735112D01*
X55299743Y-49318095D01*
X55286622Y-49331216D01*
X55180993Y-49489301D01*
X55108234Y-49664957D01*
X55072440Y-49844905D01*
X54998753Y-49844905D01*
X50016553Y-44862706D01*
X49990696Y-44831199D01*
X49864997Y-44728041D01*
X49721589Y-44651387D01*
X49565981Y-44604184D01*
X49461053Y-44593850D01*
X49346596Y-44517372D01*
X49161696Y-44440784D01*
X48965407Y-44401740D01*
X48765273Y-44401740D01*
X48598638Y-44434885D01*
X48598638Y-40435279D01*
X48611758Y-40422159D01*
X48717387Y-40264074D01*
X48790146Y-40088418D01*
X48827238Y-39901944D01*
X48827238Y-39711816D01*
X48790146Y-39525342D01*
X48717387Y-39349686D01*
X48611758Y-39191601D01*
X48477317Y-39057160D01*
X48319232Y-38951531D01*
X48143576Y-38878772D01*
X47999201Y-38850054D01*
X47999201Y-37967721D01*
X48002765Y-37931535D01*
X47995330Y-37856042D01*
X48005602Y-37804400D01*
X48005602Y-37614272D01*
X47968510Y-37427798D01*
X47895751Y-37252142D01*
X47790122Y-37094057D01*
X47655681Y-36959616D01*
X47497596Y-36853987D01*
X47321940Y-36781228D01*
X47135466Y-36744136D01*
X46967961Y-36744136D01*
X46967961Y-36466868D01*
X47018754Y-36445829D01*
X47176839Y-36340200D01*
X47311280Y-36205759D01*
X47416909Y-36047674D01*
X47489668Y-35872018D01*
X47525460Y-35692079D01*
X50005877Y-35692079D01*
X52258826Y-37945029D01*
X52281892Y-37973135D01*
X52309998Y-37996201D01*
X52309999Y-37996202D01*
X52394053Y-38065184D01*
X52454691Y-38097595D01*
X52522018Y-38133582D01*
X52621128Y-38163647D01*
X52656961Y-38199480D01*
X52815046Y-38305109D01*
X52990702Y-38377868D01*
X53177176Y-38414960D01*
X53367304Y-38414960D01*
X53553778Y-38377868D01*
X53729434Y-38305109D01*
X53887519Y-38199480D01*
X54021960Y-38065039D01*
X54127589Y-37906954D01*
X54200348Y-37731298D01*
X54237440Y-37544824D01*
X54237440Y-37354696D01*
X54200348Y-37168222D01*
X54127589Y-36992566D01*
X54021960Y-36834481D01*
X53887519Y-36700040D01*
X53729434Y-36594411D01*
X53553778Y-36521652D01*
X53367304Y-36484560D01*
X53177176Y-36484560D01*
X52990702Y-36521652D01*
X52939908Y-36542691D01*
X50976776Y-34579560D01*
X54231355Y-34579560D01*
X54293320Y-34641525D01*
G37*
X54293320Y-34641525D02*
X54293321Y-37380912D01*
X54287791Y-37437060D01*
X54309859Y-37661127D01*
X54353321Y-37804400D01*
X54375218Y-37876583D01*
X54481353Y-38075149D01*
X54551782Y-38160966D01*
X54577801Y-38192671D01*
X54577800Y-39578014D01*
X54577800Y-40316619D01*
X54573264Y-40313588D01*
X54397608Y-40240829D01*
X54211134Y-40203737D01*
X54021006Y-40203737D01*
X53834532Y-40240829D01*
X53658876Y-40313588D01*
X53500791Y-40419217D01*
X53366350Y-40553658D01*
X53260721Y-40711743D01*
X53187962Y-40887399D01*
X53150870Y-41073873D01*
X53150870Y-41264001D01*
X53187962Y-41450475D01*
X53260721Y-41626131D01*
X53366350Y-41784216D01*
X53413104Y-41830970D01*
X53432248Y-41894079D01*
X53500646Y-42022043D01*
X53592696Y-42134205D01*
X53620802Y-42157271D01*
X53993600Y-42530070D01*
X53993601Y-46087667D01*
X53990036Y-46123860D01*
X54001291Y-46238127D01*
X54004259Y-46268259D01*
X54010784Y-46289768D01*
X54045452Y-46404052D01*
X54046379Y-46407109D01*
X54049570Y-46413079D01*
X54114776Y-46535072D01*
X54182031Y-46617022D01*
X54206826Y-46647235D01*
X54234932Y-46670301D01*
X55299742Y-47735112D01*
X55299743Y-49318095D01*
X55286622Y-49331216D01*
X55180993Y-49489301D01*
X55108234Y-49664957D01*
X55072440Y-49844905D01*
X54998753Y-49844905D01*
X50016553Y-44862706D01*
X49990696Y-44831199D01*
X49864997Y-44728041D01*
X49721589Y-44651387D01*
X49565981Y-44604184D01*
X49461053Y-44593850D01*
X49346596Y-44517372D01*
X49161696Y-44440784D01*
X48965407Y-44401740D01*
X48765273Y-44401740D01*
X48598638Y-44434885D01*
X48598638Y-40435279D01*
X48611758Y-40422159D01*
X48717387Y-40264074D01*
X48790146Y-40088418D01*
X48827238Y-39901944D01*
X48827238Y-39711816D01*
X48790146Y-39525342D01*
X48717387Y-39349686D01*
X48611758Y-39191601D01*
X48477317Y-39057160D01*
X48319232Y-38951531D01*
X48143576Y-38878772D01*
X47999201Y-38850054D01*
X47999201Y-37967721D01*
X48002765Y-37931535D01*
X47995330Y-37856042D01*
X48005602Y-37804400D01*
X48005602Y-37614272D01*
X47968510Y-37427798D01*
X47895751Y-37252142D01*
X47790122Y-37094057D01*
X47655681Y-36959616D01*
X47497596Y-36853987D01*
X47321940Y-36781228D01*
X47135466Y-36744136D01*
X46967961Y-36744136D01*
X46967961Y-36466868D01*
X47018754Y-36445829D01*
X47176839Y-36340200D01*
X47311280Y-36205759D01*
X47416909Y-36047674D01*
X47489668Y-35872018D01*
X47525460Y-35692079D01*
X50005877Y-35692079D01*
X52258826Y-37945029D01*
X52281892Y-37973135D01*
X52309998Y-37996201D01*
X52309999Y-37996202D01*
X52394053Y-38065184D01*
X52454691Y-38097595D01*
X52522018Y-38133582D01*
X52621128Y-38163647D01*
X52656961Y-38199480D01*
X52815046Y-38305109D01*
X52990702Y-38377868D01*
X53177176Y-38414960D01*
X53367304Y-38414960D01*
X53553778Y-38377868D01*
X53729434Y-38305109D01*
X53887519Y-38199480D01*
X54021960Y-38065039D01*
X54127589Y-37906954D01*
X54200348Y-37731298D01*
X54237440Y-37544824D01*
X54237440Y-37354696D01*
X54200348Y-37168222D01*
X54127589Y-36992566D01*
X54021960Y-36834481D01*
X53887519Y-36700040D01*
X53729434Y-36594411D01*
X53553778Y-36521652D01*
X53367304Y-36484560D01*
X53177176Y-36484560D01*
X52990702Y-36521652D01*
X52939908Y-36542691D01*
X50976776Y-34579560D01*
X54231355Y-34579560D01*
X54293320Y-34641525D01*
G36*
X46098272Y-47571258D02*
G01*
X46171031Y-47746914D01*
X46269059Y-47893624D01*
X46223880Y-47874910D01*
X46037406Y-47837818D01*
X46021135Y-47837818D01*
X46008519Y-47822445D01*
X45927489Y-47755945D01*
X46031153Y-47652281D01*
X46095294Y-47556287D01*
X46098272Y-47571258D01*
G37*
X46098272Y-47571258D02*
X46171031Y-47746914D01*
X46269059Y-47893624D01*
X46223880Y-47874910D01*
X46037406Y-47837818D01*
X46021135Y-47837818D01*
X46008519Y-47822445D01*
X45927489Y-47755945D01*
X46031153Y-47652281D01*
X46095294Y-47556287D01*
X46098272Y-47571258D01*
G36*
X46449801Y-44826924D02*
G01*
X45204924Y-46071802D01*
X45186369Y-46071802D01*
X44999895Y-46108894D01*
X44824239Y-46181653D01*
X44666154Y-46287282D01*
X44531713Y-46421723D01*
X44433865Y-46568163D01*
X43881859Y-46016157D01*
X43881859Y-45350484D01*
X44044104Y-45188239D01*
X44085505Y-45205388D01*
X44271979Y-45242480D01*
X44462107Y-45242480D01*
X44648581Y-45205388D01*
X44824237Y-45132629D01*
X44982322Y-45027000D01*
X45116763Y-44892559D01*
X45222392Y-44734474D01*
X45295151Y-44558818D01*
X45332243Y-44372344D01*
X45332243Y-44353789D01*
X46449801Y-43236232D01*
X46449801Y-44826924D01*
G37*
X46449801Y-44826924D02*
X45204924Y-46071802D01*
X45186369Y-46071802D01*
X44999895Y-46108894D01*
X44824239Y-46181653D01*
X44666154Y-46287282D01*
X44531713Y-46421723D01*
X44433865Y-46568163D01*
X43881859Y-46016157D01*
X43881859Y-45350484D01*
X44044104Y-45188239D01*
X44085505Y-45205388D01*
X44271979Y-45242480D01*
X44462107Y-45242480D01*
X44648581Y-45205388D01*
X44824237Y-45132629D01*
X44982322Y-45027000D01*
X45116763Y-44892559D01*
X45222392Y-44734474D01*
X45295151Y-44558818D01*
X45332243Y-44372344D01*
X45332243Y-44353789D01*
X46449801Y-43236232D01*
X46449801Y-44826924D01*
G36*
X29843280Y-38717220D02*
G01*
X29863280Y-38717220D01*
X29863280Y-38971220D01*
X29843280Y-38971220D01*
X29843280Y-38991220D01*
X29589280Y-38991220D01*
X29589280Y-38971220D01*
X29569280Y-38971220D01*
X29569280Y-38717220D01*
X29589280Y-38717220D01*
X29589280Y-38697220D01*
X29843280Y-38697220D01*
X29843280Y-38717220D01*
G37*
X29843280Y-38717220D02*
X29863280Y-38717220D01*
X29863280Y-38971220D01*
X29843280Y-38971220D01*
X29843280Y-38991220D01*
X29589280Y-38991220D01*
X29589280Y-38971220D01*
X29569280Y-38971220D01*
X29569280Y-38717220D01*
X29589280Y-38717220D01*
X29589280Y-38697220D01*
X29843280Y-38697220D01*
X29843280Y-38717220D01*
M02*
