G04 #@! TF.GenerationSoftware,KiCad,Pcbnew,5.1.5+dfsg1-2build2*
G04 #@! TF.CreationDate,2022-04-20T15:49:33-04:00*
G04 #@! TF.ProjectId,analog,616e616c-6f67-42e6-9b69-6361645f7063,rev?*
G04 #@! TF.SameCoordinates,Original*
G04 #@! TF.FileFunction,Legend,Top*
G04 #@! TF.FilePolarity,Positive*
%FSLAX46Y46*%
G04 Gerber Fmt 4.6, Leading zero omitted, Abs format (unit mm)*
G04 Created by KiCad (PCBNEW 5.1.5+dfsg1-2build2) date 2022-04-20 15:49:33*
%MOMM*%
%LPD*%
G04 APERTURE LIST*
%ADD10C,0.100000*%
%ADD11C,0.150000*%
%ADD12C,0.120000*%
G04 APERTURE END LIST*
D10*
X74559142Y-42215245D02*
X74559142Y-42415245D01*
X74873428Y-42415245D02*
X74273428Y-42415245D01*
X74273428Y-42129531D01*
X74873428Y-41900960D02*
X74473428Y-41900960D01*
X74273428Y-41900960D02*
X74302000Y-41929531D01*
X74330571Y-41900960D01*
X74302000Y-41872388D01*
X74273428Y-41900960D01*
X74330571Y-41900960D01*
X74473428Y-41700960D02*
X74473428Y-41472388D01*
X74273428Y-41615245D02*
X74787714Y-41615245D01*
X74844857Y-41586674D01*
X74873428Y-41529531D01*
X74873428Y-41472388D01*
X74273428Y-40786674D02*
X74387714Y-40843817D01*
X74873428Y-40529531D02*
X74273428Y-40529531D01*
X74273428Y-40300960D01*
X74302000Y-40243817D01*
X74330571Y-40215245D01*
X74387714Y-40186674D01*
X74473428Y-40186674D01*
X74530571Y-40215245D01*
X74559142Y-40243817D01*
X74587714Y-40300960D01*
X74587714Y-40529531D01*
X74273428Y-39986674D02*
X74273428Y-39615245D01*
X74502000Y-39815245D01*
X74502000Y-39729531D01*
X74530571Y-39672388D01*
X74559142Y-39643817D01*
X74616285Y-39615245D01*
X74759142Y-39615245D01*
X74816285Y-39643817D01*
X74844857Y-39672388D01*
X74873428Y-39729531D01*
X74873428Y-39900960D01*
X74844857Y-39958102D01*
X74816285Y-39986674D01*
X74273428Y-39329531D02*
X74387714Y-39386674D01*
X74873428Y-38529531D02*
X74844857Y-38586674D01*
X74816285Y-38615245D01*
X74759142Y-38643817D01*
X74587714Y-38643817D01*
X74530571Y-38615245D01*
X74502000Y-38586674D01*
X74473428Y-38529531D01*
X74473428Y-38443817D01*
X74502000Y-38386674D01*
X74530571Y-38358102D01*
X74587714Y-38329531D01*
X74759142Y-38329531D01*
X74816285Y-38358102D01*
X74844857Y-38386674D01*
X74873428Y-38443817D01*
X74873428Y-38529531D01*
X74873428Y-38072388D02*
X74473428Y-38072388D01*
X74587714Y-38072388D02*
X74530571Y-38043817D01*
X74502000Y-38015245D01*
X74473428Y-37958102D01*
X74473428Y-37900960D01*
X74273428Y-37215245D02*
X74387714Y-37272388D01*
X74873428Y-36958102D02*
X74273428Y-36958102D01*
X74273428Y-36729531D01*
X74302000Y-36672388D01*
X74330571Y-36643817D01*
X74387714Y-36615245D01*
X74473428Y-36615245D01*
X74530571Y-36643817D01*
X74559142Y-36672388D01*
X74587714Y-36729531D01*
X74587714Y-36958102D01*
X74473428Y-36100960D02*
X74873428Y-36100960D01*
X74244857Y-36243817D02*
X74673428Y-36386674D01*
X74673428Y-36015245D01*
X74273428Y-35758102D02*
X74387714Y-35815245D01*
D11*
X27780800Y-48320960D02*
X36315200Y-45882560D01*
X27780800Y-45831760D02*
X36315200Y-48371760D01*
X43863028Y-43659007D02*
G75*
G03X43863028Y-43659007I-263108J0D01*
G01*
X39083800Y-45755560D02*
X41496800Y-45755560D01*
X38702800Y-45349160D02*
X39083800Y-45755560D01*
X56431808Y-49999900D02*
G75*
G03X56431808Y-49999900I-418908J0D01*
G01*
X39541000Y-43215560D02*
X41700000Y-43215560D01*
X39617200Y-38237160D02*
X41598400Y-38237160D01*
X39566400Y-40726360D02*
X41547600Y-40726360D01*
X39058400Y-35620960D02*
X41573000Y-35620960D01*
X38626600Y-35189160D02*
X39058400Y-35620960D01*
X39033000Y-43215560D02*
X38626600Y-42809160D01*
X39541000Y-43215560D02*
X39033000Y-43215560D01*
X39058400Y-40726360D02*
X38601200Y-40269160D01*
X39566400Y-40726360D02*
X39058400Y-40726360D01*
X39134600Y-38237160D02*
X38626600Y-37729160D01*
X39617200Y-38237160D02*
X39134600Y-38237160D01*
X45224766Y-48981360D02*
G75*
G03X45224766Y-48981360I-273566J0D01*
G01*
X41933371Y-43794940D02*
X41933371Y-43128274D01*
X41933371Y-43318750D02*
X41980990Y-43223512D01*
X42028609Y-43175893D01*
X42123847Y-43128274D01*
X42219085Y-43128274D01*
X42365123Y-41229540D02*
X42031790Y-40753350D01*
X41793695Y-41229540D02*
X41793695Y-40229540D01*
X42174647Y-40229540D01*
X42269885Y-40277160D01*
X42317504Y-40324779D01*
X42365123Y-40420017D01*
X42365123Y-40562874D01*
X42317504Y-40658112D01*
X42269885Y-40705731D01*
X42174647Y-40753350D01*
X41793695Y-40753350D01*
X42342904Y-37787960D02*
X42247666Y-37740340D01*
X42104809Y-37740340D01*
X41961952Y-37787960D01*
X41866714Y-37883198D01*
X41819095Y-37978436D01*
X41771476Y-38168912D01*
X41771476Y-38311769D01*
X41819095Y-38502245D01*
X41866714Y-38597483D01*
X41961952Y-38692721D01*
X42104809Y-38740340D01*
X42200047Y-38740340D01*
X42342904Y-38692721D01*
X42390523Y-38645102D01*
X42390523Y-38311769D01*
X42200047Y-38311769D01*
X58661928Y-35819080D02*
G75*
G03X58661928Y-35819080I-418908J0D01*
G01*
X46729200Y-34173160D02*
G75*
G03X46729200Y-34173160I-401609J0D01*
G01*
X41969880Y-45284140D02*
X42065119Y-45284140D01*
X42160357Y-45331760D01*
X42207976Y-45379379D01*
X42255595Y-45474617D01*
X42303214Y-45665093D01*
X42303214Y-45903188D01*
X42255595Y-46093664D01*
X42207976Y-46188902D01*
X42160357Y-46236521D01*
X42065119Y-46284140D01*
X41969880Y-46284140D01*
X41874642Y-46236521D01*
X41827023Y-46188902D01*
X41779404Y-46093664D01*
X41731785Y-45903188D01*
X41731785Y-45665093D01*
X41779404Y-45474617D01*
X41827023Y-45379379D01*
X41874642Y-45331760D01*
X41969880Y-45284140D01*
X42101628Y-35447931D02*
X42244485Y-35495550D01*
X42292104Y-35543169D01*
X42339723Y-35638407D01*
X42339723Y-35781264D01*
X42292104Y-35876502D01*
X42244485Y-35924121D01*
X42149247Y-35971740D01*
X41768295Y-35971740D01*
X41768295Y-34971740D01*
X42101628Y-34971740D01*
X42196866Y-35019360D01*
X42244485Y-35066979D01*
X42292104Y-35162217D01*
X42292104Y-35257455D01*
X42244485Y-35352693D01*
X42196866Y-35400312D01*
X42101628Y-35447931D01*
X41768295Y-35447931D01*
X42244485Y-44068074D02*
X42244485Y-44877598D01*
X42196866Y-44972836D01*
X42149247Y-45020455D01*
X42054009Y-45068074D01*
X41911152Y-45068074D01*
X41815914Y-45020455D01*
X42244485Y-44687121D02*
X42149247Y-44734740D01*
X41958771Y-44734740D01*
X41863533Y-44687121D01*
X41815914Y-44639502D01*
X41768295Y-44544264D01*
X41768295Y-44258550D01*
X41815914Y-44163312D01*
X41863533Y-44115693D01*
X41958771Y-44068074D01*
X42149247Y-44068074D01*
X42244485Y-44115693D01*
X41790514Y-42524940D02*
X41790514Y-41524940D01*
X41790514Y-41905893D02*
X41885752Y-41858274D01*
X42076228Y-41858274D01*
X42171466Y-41905893D01*
X42219085Y-41953512D01*
X42266704Y-42048750D01*
X42266704Y-42334464D01*
X42219085Y-42429702D01*
X42171466Y-42477321D01*
X42076228Y-42524940D01*
X41885752Y-42524940D01*
X41790514Y-42477321D01*
X41795285Y-39984940D02*
X41795285Y-38984940D01*
X41795285Y-39461131D02*
X42366714Y-39461131D01*
X42366714Y-39984940D02*
X42366714Y-38984940D01*
X41722266Y-36444940D02*
X42055600Y-37444940D01*
X42388933Y-36444940D01*
X42268295Y-33600140D02*
X41792104Y-33600140D01*
X41744485Y-34076331D01*
X41792104Y-34028712D01*
X41887342Y-33981093D01*
X42125438Y-33981093D01*
X42220676Y-34028712D01*
X42268295Y-34076331D01*
X42315914Y-34171569D01*
X42315914Y-34409664D01*
X42268295Y-34504902D01*
X42220676Y-34552521D01*
X42125438Y-34600140D01*
X41887342Y-34600140D01*
X41792104Y-34552521D01*
X41744485Y-34504902D01*
D12*
X47034000Y-42367360D02*
X48984000Y-42367360D01*
X47034000Y-42367360D02*
X45084000Y-42367360D01*
X47034000Y-33497360D02*
X48984000Y-33497360D01*
X47034000Y-33497360D02*
X43584000Y-33497360D01*
X53789200Y-45127812D02*
X53789200Y-44605308D01*
X52369200Y-45127812D02*
X52369200Y-44605308D01*
X65287400Y-36780160D02*
X66617400Y-36780160D01*
X65287400Y-38110160D02*
X65287400Y-36780160D01*
X65287400Y-39380160D02*
X67947400Y-39380160D01*
X67947400Y-39380160D02*
X67947400Y-47060160D01*
X65287400Y-39380160D02*
X65287400Y-47060160D01*
X65287400Y-47060160D02*
X67947400Y-47060160D01*
X64245200Y-49209960D02*
X64245200Y-47259960D01*
X64245200Y-49209960D02*
X64245200Y-51159960D01*
X55375200Y-49209960D02*
X55375200Y-47259960D01*
X55375200Y-49209960D02*
X55375200Y-52659960D01*
D11*
X44163700Y-53485160D02*
X47872300Y-53485160D01*
X42493000Y-48085160D02*
X47876600Y-48085160D01*
D12*
X68676000Y-45189508D02*
X68676000Y-45712012D01*
X70096000Y-45189508D02*
X70096000Y-45712012D01*
X68676000Y-41673412D02*
X68676000Y-41150908D01*
X70096000Y-41673412D02*
X70096000Y-41150908D01*
X68663300Y-37061508D02*
X68663300Y-37584012D01*
X70083300Y-37061508D02*
X70083300Y-37584012D01*
X63113400Y-39162512D02*
X63113400Y-38640008D01*
X64533400Y-39162512D02*
X64533400Y-38640008D01*
X57490812Y-32274440D02*
X56968308Y-32274440D01*
X57490812Y-33694440D02*
X56968308Y-33694440D01*
X38752400Y-51260108D02*
X38752400Y-51782612D01*
X37332400Y-51260108D02*
X37332400Y-51782612D01*
X28848800Y-51158508D02*
X28848800Y-51681012D01*
X30268800Y-51158508D02*
X30268800Y-51681012D01*
X32964400Y-49839760D02*
X32964400Y-50769760D01*
X32964400Y-52999760D02*
X32964400Y-52069760D01*
X32964400Y-52999760D02*
X36124400Y-52999760D01*
X32964400Y-49839760D02*
X34424400Y-49839760D01*
X52487748Y-52967960D02*
X53010252Y-52967960D01*
X52487748Y-51547960D02*
X53010252Y-51547960D01*
X52633500Y-37379008D02*
X52633500Y-37901512D01*
X51213500Y-37379008D02*
X51213500Y-37901512D01*
X41343200Y-51260108D02*
X41343200Y-51782612D01*
X39923200Y-51260108D02*
X39923200Y-51782612D01*
X63100700Y-43362512D02*
X63100700Y-42840008D01*
X64520700Y-43362512D02*
X64520700Y-42840008D01*
X52856048Y-33704460D02*
X53378552Y-33704460D01*
X52856048Y-35124460D02*
X53378552Y-35124460D01*
X54678200Y-39436408D02*
X54678200Y-39958912D01*
X53258200Y-39436408D02*
X53258200Y-39958912D01*
X58908500Y-44018360D02*
X60858500Y-44018360D01*
X58908500Y-44018360D02*
X56958500Y-44018360D01*
X58908500Y-35148360D02*
X60858500Y-35148360D01*
X58908500Y-35148360D02*
X55458500Y-35148360D01*
X52487748Y-50935960D02*
X53010252Y-50935960D01*
X52487748Y-49515960D02*
X53010252Y-49515960D01*
X53010252Y-48903960D02*
X52487748Y-48903960D01*
X53010252Y-47483960D02*
X52487748Y-47483960D01*
X51452400Y-45137972D02*
X51452400Y-44615468D01*
X50032400Y-45137972D02*
X50032400Y-44615468D01*
X45397400Y-46992180D02*
X47197400Y-46992180D01*
X47197400Y-43772180D02*
X44247400Y-43772180D01*
X66939612Y-48014820D02*
X66417108Y-48014820D01*
X66939612Y-49434820D02*
X66417108Y-49434820D01*
X66949772Y-50100160D02*
X66427268Y-50100160D01*
X66949772Y-51520160D02*
X66427268Y-51520160D01*
X66949772Y-53669000D02*
X66427268Y-53669000D01*
X66949772Y-52249000D02*
X66427268Y-52249000D01*
X27723800Y-33166360D02*
X36353800Y-33166360D01*
X27723800Y-33284455D02*
X36353800Y-33284455D01*
X27723800Y-33402550D02*
X36353800Y-33402550D01*
X27723800Y-33520645D02*
X36353800Y-33520645D01*
X27723800Y-33638740D02*
X36353800Y-33638740D01*
X27723800Y-33756835D02*
X36353800Y-33756835D01*
X27723800Y-33874930D02*
X36353800Y-33874930D01*
X27723800Y-33993025D02*
X36353800Y-33993025D01*
X27723800Y-34111120D02*
X36353800Y-34111120D01*
X27723800Y-34229215D02*
X36353800Y-34229215D01*
X27723800Y-34347310D02*
X36353800Y-34347310D01*
X27723800Y-34465405D02*
X36353800Y-34465405D01*
X27723800Y-34583500D02*
X36353800Y-34583500D01*
X27723800Y-34701595D02*
X36353800Y-34701595D01*
X27723800Y-34819690D02*
X36353800Y-34819690D01*
X27723800Y-34937785D02*
X36353800Y-34937785D01*
X27723800Y-35055880D02*
X36353800Y-35055880D01*
X27723800Y-35173975D02*
X36353800Y-35173975D01*
X27723800Y-35292070D02*
X36353800Y-35292070D01*
X27723800Y-35410165D02*
X36353800Y-35410165D01*
X27723800Y-35528260D02*
X36353800Y-35528260D01*
X36353800Y-34016360D02*
X36763800Y-34016360D01*
X38863800Y-34016360D02*
X39243800Y-34016360D01*
X36353800Y-34736360D02*
X36763800Y-34736360D01*
X38863800Y-34736360D02*
X39243800Y-34736360D01*
X36353800Y-36556360D02*
X36763800Y-36556360D01*
X38863800Y-36556360D02*
X39303800Y-36556360D01*
X36353800Y-37276360D02*
X36763800Y-37276360D01*
X38863800Y-37276360D02*
X39303800Y-37276360D01*
X36353800Y-39096360D02*
X36763800Y-39096360D01*
X38863800Y-39096360D02*
X39303800Y-39096360D01*
X36353800Y-39816360D02*
X36763800Y-39816360D01*
X38863800Y-39816360D02*
X39303800Y-39816360D01*
X36353800Y-41636360D02*
X36763800Y-41636360D01*
X38863800Y-41636360D02*
X39303800Y-41636360D01*
X36353800Y-42356360D02*
X36763800Y-42356360D01*
X38863800Y-42356360D02*
X39303800Y-42356360D01*
X36353800Y-44176360D02*
X36763800Y-44176360D01*
X38863800Y-44176360D02*
X39303800Y-44176360D01*
X36353800Y-44896360D02*
X36763800Y-44896360D01*
X38863800Y-44896360D02*
X39303800Y-44896360D01*
X36353800Y-46716360D02*
X36763800Y-46716360D01*
X38863800Y-46716360D02*
X39303800Y-46716360D01*
X36353800Y-47436360D02*
X36763800Y-47436360D01*
X38863800Y-47436360D02*
X39303800Y-47436360D01*
X27723800Y-35646360D02*
X36353800Y-35646360D01*
X27723800Y-38186360D02*
X36353800Y-38186360D01*
X27723800Y-40726360D02*
X36353800Y-40726360D01*
X27723800Y-43266360D02*
X36353800Y-43266360D01*
X27723800Y-45806360D02*
X36353800Y-45806360D01*
X27723800Y-33046360D02*
X36353800Y-33046360D01*
X36353800Y-33046360D02*
X36353800Y-48406360D01*
X27723800Y-48406360D02*
X36353800Y-48406360D01*
X27723800Y-33046360D02*
X27723800Y-48406360D01*
X41463800Y-33046360D02*
X41463800Y-34376360D01*
X40353800Y-33046360D02*
X41463800Y-33046360D01*
X63275200Y-34011360D02*
X63275200Y-36011360D01*
X63275200Y-36011360D02*
X67175200Y-36011360D01*
X63275200Y-34011360D02*
X67175200Y-34011360D01*
X71004600Y-42550960D02*
X70704600Y-42550960D01*
X70704600Y-42550960D02*
X70704600Y-43050960D01*
X71294600Y-39175960D02*
X71294600Y-42840960D01*
X71294600Y-42840960D02*
X70994600Y-42840960D01*
X70994600Y-42840960D02*
X70994600Y-43910960D01*
X70994600Y-43910960D02*
X76714600Y-43910960D01*
X71294600Y-39175960D02*
X71294600Y-35510960D01*
X71294600Y-35510960D02*
X70994600Y-35510960D01*
X70994600Y-35510960D02*
X70994600Y-34440960D01*
X70994600Y-34440960D02*
X76714600Y-34440960D01*
X76714600Y-34440960D02*
X76714600Y-35040960D01*
X76714600Y-43910960D02*
X76713900Y-43347440D01*
X79502000Y-35200960D02*
X75502000Y-35200960D01*
X75502000Y-35200960D02*
X75502000Y-43200960D01*
X75502000Y-43200960D02*
X79502000Y-43200960D01*
X79502000Y-35200960D02*
X81262000Y-35200960D01*
X79502000Y-43200960D02*
X81262000Y-43200960D01*
D11*
X46315095Y-32078340D02*
X46315095Y-32887864D01*
X46362714Y-32983102D01*
X46410333Y-33030721D01*
X46505571Y-33078340D01*
X46696047Y-33078340D01*
X46791285Y-33030721D01*
X46838904Y-32983102D01*
X46886523Y-32887864D01*
X46886523Y-32078340D01*
X47886523Y-33078340D02*
X47315095Y-33078340D01*
X47600809Y-33078340D02*
X47600809Y-32078340D01*
X47505571Y-32221198D01*
X47410333Y-32316436D01*
X47315095Y-32364055D01*
D10*
X54930571Y-43892626D02*
X54971047Y-43933102D01*
X55011523Y-44054531D01*
X55011523Y-44135483D01*
X54971047Y-44256912D01*
X54890095Y-44337864D01*
X54809142Y-44378340D01*
X54647238Y-44418817D01*
X54525809Y-44418817D01*
X54363904Y-44378340D01*
X54282952Y-44337864D01*
X54202000Y-44256912D01*
X54161523Y-44135483D01*
X54161523Y-44054531D01*
X54202000Y-43933102D01*
X54242476Y-43892626D01*
X54161523Y-43609293D02*
X54161523Y-43083102D01*
X54485333Y-43366436D01*
X54485333Y-43245007D01*
X54525809Y-43164055D01*
X54566285Y-43123579D01*
X54647238Y-43083102D01*
X54849619Y-43083102D01*
X54930571Y-43123579D01*
X54971047Y-43164055D01*
X55011523Y-43245007D01*
X55011523Y-43487864D01*
X54971047Y-43568817D01*
X54930571Y-43609293D01*
D12*
X67116733Y-36826626D02*
X67116733Y-36126626D01*
X67383400Y-36126626D01*
X67450066Y-36159960D01*
X67483400Y-36193293D01*
X67516733Y-36259960D01*
X67516733Y-36359960D01*
X67483400Y-36426626D01*
X67450066Y-36459960D01*
X67383400Y-36493293D01*
X67116733Y-36493293D01*
X67783400Y-36193293D02*
X67816733Y-36159960D01*
X67883400Y-36126626D01*
X68050066Y-36126626D01*
X68116733Y-36159960D01*
X68150066Y-36193293D01*
X68183400Y-36259960D01*
X68183400Y-36326626D01*
X68150066Y-36426626D01*
X67750066Y-36826626D01*
X68183400Y-36826626D01*
D11*
X59940095Y-53153340D02*
X59940095Y-53962864D01*
X59987714Y-54058102D01*
X60035333Y-54105721D01*
X60130571Y-54153340D01*
X60321047Y-54153340D01*
X60416285Y-54105721D01*
X60463904Y-54058102D01*
X60511523Y-53962864D01*
X60511523Y-53153340D01*
X60892476Y-53153340D02*
X61511523Y-53153340D01*
X61178190Y-53534293D01*
X61321047Y-53534293D01*
X61416285Y-53581912D01*
X61463904Y-53629531D01*
X61511523Y-53724769D01*
X61511523Y-53962864D01*
X61463904Y-54058102D01*
X61416285Y-54105721D01*
X61321047Y-54153340D01*
X61035333Y-54153340D01*
X60940095Y-54105721D01*
X60892476Y-54058102D01*
X42106495Y-46808140D02*
X42106495Y-47617664D01*
X42154114Y-47712902D01*
X42201733Y-47760521D01*
X42296971Y-47808140D01*
X42487447Y-47808140D01*
X42582685Y-47760521D01*
X42630304Y-47712902D01*
X42677923Y-47617664D01*
X42677923Y-46808140D01*
X43582685Y-47141474D02*
X43582685Y-47808140D01*
X43344590Y-46760521D02*
X43106495Y-47474807D01*
X43725542Y-47474807D01*
X44634142Y-54478340D02*
X44634142Y-53478340D01*
X44967476Y-54192626D01*
X45300809Y-53478340D01*
X45300809Y-54478340D01*
X45729380Y-54192626D02*
X46205571Y-54192626D01*
X45634142Y-54478340D02*
X45967476Y-53478340D01*
X46300809Y-54478340D01*
X46538904Y-53478340D02*
X47205571Y-54478340D01*
X47205571Y-53478340D02*
X46538904Y-54478340D01*
X48062714Y-53478340D02*
X47586523Y-53478340D01*
X47538904Y-53954531D01*
X47586523Y-53906912D01*
X47681761Y-53859293D01*
X47919857Y-53859293D01*
X48015095Y-53906912D01*
X48062714Y-53954531D01*
X48110333Y-54049769D01*
X48110333Y-54287864D01*
X48062714Y-54383102D01*
X48015095Y-54430721D01*
X47919857Y-54478340D01*
X47681761Y-54478340D01*
X47586523Y-54430721D01*
X47538904Y-54383102D01*
X48491285Y-53573579D02*
X48538904Y-53525960D01*
X48634142Y-53478340D01*
X48872238Y-53478340D01*
X48967476Y-53525960D01*
X49015095Y-53573579D01*
X49062714Y-53668817D01*
X49062714Y-53764055D01*
X49015095Y-53906912D01*
X48443666Y-54478340D01*
X49062714Y-54478340D01*
X49967476Y-53478340D02*
X49491285Y-53478340D01*
X49443666Y-53954531D01*
X49491285Y-53906912D01*
X49586523Y-53859293D01*
X49824619Y-53859293D01*
X49919857Y-53906912D01*
X49967476Y-53954531D01*
X50015095Y-54049769D01*
X50015095Y-54287864D01*
X49967476Y-54383102D01*
X49919857Y-54430721D01*
X49824619Y-54478340D01*
X49586523Y-54478340D01*
X49491285Y-54430721D01*
X49443666Y-54383102D01*
X50491285Y-54478340D02*
X50681761Y-54478340D01*
X50777000Y-54430721D01*
X50824619Y-54383102D01*
X50919857Y-54240245D01*
X50967476Y-54049769D01*
X50967476Y-53668817D01*
X50919857Y-53573579D01*
X50872238Y-53525960D01*
X50777000Y-53478340D01*
X50586523Y-53478340D01*
X50491285Y-53525960D01*
X50443666Y-53573579D01*
X50396047Y-53668817D01*
X50396047Y-53906912D01*
X50443666Y-54002150D01*
X50491285Y-54049769D01*
X50586523Y-54097388D01*
X50777000Y-54097388D01*
X50872238Y-54049769D01*
X50919857Y-54002150D01*
X50967476Y-53906912D01*
D10*
X70993666Y-45237864D02*
X70727000Y-44856912D01*
X70536523Y-45237864D02*
X70536523Y-44437864D01*
X70841285Y-44437864D01*
X70917476Y-44475960D01*
X70955571Y-44514055D01*
X70993666Y-44590245D01*
X70993666Y-44704531D01*
X70955571Y-44780721D01*
X70917476Y-44818817D01*
X70841285Y-44856912D01*
X70536523Y-44856912D01*
X71679380Y-44704531D02*
X71679380Y-45237864D01*
X71488904Y-44399769D02*
X71298428Y-44971198D01*
X71793666Y-44971198D01*
X71023428Y-42000960D02*
X70737714Y-42200960D01*
X71023428Y-42343817D02*
X70423428Y-42343817D01*
X70423428Y-42115245D01*
X70452000Y-42058102D01*
X70480571Y-42029531D01*
X70537714Y-42000960D01*
X70623428Y-42000960D01*
X70680571Y-42029531D01*
X70709142Y-42058102D01*
X70737714Y-42115245D01*
X70737714Y-42343817D01*
X70423428Y-41486674D02*
X70423428Y-41600960D01*
X70452000Y-41658102D01*
X70480571Y-41686674D01*
X70566285Y-41743817D01*
X70680571Y-41772388D01*
X70909142Y-41772388D01*
X70966285Y-41743817D01*
X70994857Y-41715245D01*
X71023428Y-41658102D01*
X71023428Y-41543817D01*
X70994857Y-41486674D01*
X70966285Y-41458102D01*
X70909142Y-41429531D01*
X70766285Y-41429531D01*
X70709142Y-41458102D01*
X70680571Y-41486674D01*
X70652000Y-41543817D01*
X70652000Y-41658102D01*
X70680571Y-41715245D01*
X70709142Y-41743817D01*
X70766285Y-41772388D01*
D11*
X69270133Y-35374840D02*
X68936800Y-34898650D01*
X68698704Y-35374840D02*
X68698704Y-34374840D01*
X69079657Y-34374840D01*
X69174895Y-34422460D01*
X69222514Y-34470079D01*
X69270133Y-34565317D01*
X69270133Y-34708174D01*
X69222514Y-34803412D01*
X69174895Y-34851031D01*
X69079657Y-34898650D01*
X68698704Y-34898650D01*
X69603466Y-34374840D02*
X70270133Y-34374840D01*
X69841561Y-35374840D01*
D12*
X63681333Y-37004426D02*
X63448000Y-36671093D01*
X63281333Y-37004426D02*
X63281333Y-36304426D01*
X63548000Y-36304426D01*
X63614666Y-36337760D01*
X63648000Y-36371093D01*
X63681333Y-36437760D01*
X63681333Y-36537760D01*
X63648000Y-36604426D01*
X63614666Y-36637760D01*
X63548000Y-36671093D01*
X63281333Y-36671093D01*
X64081333Y-36604426D02*
X64014666Y-36571093D01*
X63981333Y-36537760D01*
X63948000Y-36471093D01*
X63948000Y-36437760D01*
X63981333Y-36371093D01*
X64014666Y-36337760D01*
X64081333Y-36304426D01*
X64214666Y-36304426D01*
X64281333Y-36337760D01*
X64314666Y-36371093D01*
X64348000Y-36437760D01*
X64348000Y-36471093D01*
X64314666Y-36537760D01*
X64281333Y-36571093D01*
X64214666Y-36604426D01*
X64081333Y-36604426D01*
X64014666Y-36637760D01*
X63981333Y-36671093D01*
X63948000Y-36737760D01*
X63948000Y-36871093D01*
X63981333Y-36937760D01*
X64014666Y-36971093D01*
X64081333Y-37004426D01*
X64214666Y-37004426D01*
X64281333Y-36971093D01*
X64314666Y-36937760D01*
X64348000Y-36871093D01*
X64348000Y-36737760D01*
X64314666Y-36671093D01*
X64281333Y-36637760D01*
X64214666Y-36604426D01*
D10*
X55180571Y-32742626D02*
X55221047Y-32783102D01*
X55261523Y-32904531D01*
X55261523Y-32985483D01*
X55221047Y-33106912D01*
X55140095Y-33187864D01*
X55059142Y-33228340D01*
X54897238Y-33268817D01*
X54775809Y-33268817D01*
X54613904Y-33228340D01*
X54532952Y-33187864D01*
X54452000Y-33106912D01*
X54411523Y-32985483D01*
X54411523Y-32904531D01*
X54452000Y-32783102D01*
X54492476Y-32742626D01*
X54694857Y-32014055D02*
X55261523Y-32014055D01*
X54371047Y-32216436D02*
X54978190Y-32418817D01*
X54978190Y-31892626D01*
D11*
X37910333Y-49383102D02*
X37862714Y-49430721D01*
X37719857Y-49478340D01*
X37624619Y-49478340D01*
X37481761Y-49430721D01*
X37386523Y-49335483D01*
X37338904Y-49240245D01*
X37291285Y-49049769D01*
X37291285Y-48906912D01*
X37338904Y-48716436D01*
X37386523Y-48621198D01*
X37481761Y-48525960D01*
X37624619Y-48478340D01*
X37719857Y-48478340D01*
X37862714Y-48525960D01*
X37910333Y-48573579D01*
X38243666Y-48478340D02*
X38910333Y-48478340D01*
X38481761Y-49478340D01*
X29235333Y-49408102D02*
X29187714Y-49455721D01*
X29044857Y-49503340D01*
X28949619Y-49503340D01*
X28806761Y-49455721D01*
X28711523Y-49360483D01*
X28663904Y-49265245D01*
X28616285Y-49074769D01*
X28616285Y-48931912D01*
X28663904Y-48741436D01*
X28711523Y-48646198D01*
X28806761Y-48550960D01*
X28949619Y-48503340D01*
X29044857Y-48503340D01*
X29187714Y-48550960D01*
X29235333Y-48598579D01*
X30092476Y-48503340D02*
X29902000Y-48503340D01*
X29806761Y-48550960D01*
X29759142Y-48598579D01*
X29663904Y-48741436D01*
X29616285Y-48931912D01*
X29616285Y-49312864D01*
X29663904Y-49408102D01*
X29711523Y-49455721D01*
X29806761Y-49503340D01*
X29997238Y-49503340D01*
X30092476Y-49455721D01*
X30140095Y-49408102D01*
X30187714Y-49312864D01*
X30187714Y-49074769D01*
X30140095Y-48979531D01*
X30092476Y-48931912D01*
X29997238Y-48884293D01*
X29806761Y-48884293D01*
X29711523Y-48931912D01*
X29663904Y-48979531D01*
X29616285Y-49074769D01*
X32140095Y-53378340D02*
X32140095Y-54187864D01*
X32187714Y-54283102D01*
X32235333Y-54330721D01*
X32330571Y-54378340D01*
X32521047Y-54378340D01*
X32616285Y-54330721D01*
X32663904Y-54283102D01*
X32711523Y-54187864D01*
X32711523Y-53378340D01*
X33663904Y-53378340D02*
X33187714Y-53378340D01*
X33140095Y-53854531D01*
X33187714Y-53806912D01*
X33282952Y-53759293D01*
X33521047Y-53759293D01*
X33616285Y-53806912D01*
X33663904Y-53854531D01*
X33711523Y-53949769D01*
X33711523Y-54187864D01*
X33663904Y-54283102D01*
X33616285Y-54330721D01*
X33521047Y-54378340D01*
X33282952Y-54378340D01*
X33187714Y-54330721D01*
X33140095Y-54283102D01*
X50718542Y-52462726D02*
X50766161Y-52510345D01*
X50813780Y-52653202D01*
X50813780Y-52748440D01*
X50766161Y-52891298D01*
X50670923Y-52986536D01*
X50575685Y-53034155D01*
X50385209Y-53081774D01*
X50242352Y-53081774D01*
X50051876Y-53034155D01*
X49956638Y-52986536D01*
X49861400Y-52891298D01*
X49813780Y-52748440D01*
X49813780Y-52653202D01*
X49861400Y-52510345D01*
X49909019Y-52462726D01*
X50242352Y-51891298D02*
X50194733Y-51986536D01*
X50147114Y-52034155D01*
X50051876Y-52081774D01*
X50004257Y-52081774D01*
X49909019Y-52034155D01*
X49861400Y-51986536D01*
X49813780Y-51891298D01*
X49813780Y-51700821D01*
X49861400Y-51605583D01*
X49909019Y-51557964D01*
X50004257Y-51510345D01*
X50051876Y-51510345D01*
X50147114Y-51557964D01*
X50194733Y-51605583D01*
X50242352Y-51700821D01*
X50242352Y-51891298D01*
X50289971Y-51986536D01*
X50337590Y-52034155D01*
X50432828Y-52081774D01*
X50623304Y-52081774D01*
X50718542Y-52034155D01*
X50766161Y-51986536D01*
X50813780Y-51891298D01*
X50813780Y-51700821D01*
X50766161Y-51605583D01*
X50718542Y-51557964D01*
X50623304Y-51510345D01*
X50432828Y-51510345D01*
X50337590Y-51557964D01*
X50289971Y-51605583D01*
X50242352Y-51700821D01*
D10*
X52730571Y-40392626D02*
X52771047Y-40433102D01*
X52811523Y-40554531D01*
X52811523Y-40635483D01*
X52771047Y-40756912D01*
X52690095Y-40837864D01*
X52609142Y-40878340D01*
X52447238Y-40918817D01*
X52325809Y-40918817D01*
X52163904Y-40878340D01*
X52082952Y-40837864D01*
X52002000Y-40756912D01*
X51961523Y-40635483D01*
X51961523Y-40554531D01*
X52002000Y-40433102D01*
X52042476Y-40392626D01*
X52811523Y-39583102D02*
X52811523Y-40068817D01*
X52811523Y-39825960D02*
X51961523Y-39825960D01*
X52082952Y-39906912D01*
X52163904Y-39987864D01*
X52204380Y-40068817D01*
D11*
X40460333Y-49333102D02*
X40412714Y-49380721D01*
X40269857Y-49428340D01*
X40174619Y-49428340D01*
X40031761Y-49380721D01*
X39936523Y-49285483D01*
X39888904Y-49190245D01*
X39841285Y-48999769D01*
X39841285Y-48856912D01*
X39888904Y-48666436D01*
X39936523Y-48571198D01*
X40031761Y-48475960D01*
X40174619Y-48428340D01*
X40269857Y-48428340D01*
X40412714Y-48475960D01*
X40460333Y-48523579D01*
X41365095Y-48428340D02*
X40888904Y-48428340D01*
X40841285Y-48904531D01*
X40888904Y-48856912D01*
X40984142Y-48809293D01*
X41222238Y-48809293D01*
X41317476Y-48856912D01*
X41365095Y-48904531D01*
X41412714Y-48999769D01*
X41412714Y-49237864D01*
X41365095Y-49333102D01*
X41317476Y-49380721D01*
X41222238Y-49428340D01*
X40984142Y-49428340D01*
X40888904Y-49380721D01*
X40841285Y-49333102D01*
D12*
X64460333Y-45667626D02*
X64227000Y-45334293D01*
X64060333Y-45667626D02*
X64060333Y-44967626D01*
X64327000Y-44967626D01*
X64393666Y-45000960D01*
X64427000Y-45034293D01*
X64460333Y-45100960D01*
X64460333Y-45200960D01*
X64427000Y-45267626D01*
X64393666Y-45300960D01*
X64327000Y-45334293D01*
X64060333Y-45334293D01*
X64727000Y-45034293D02*
X64760333Y-45000960D01*
X64827000Y-44967626D01*
X64993666Y-44967626D01*
X65060333Y-45000960D01*
X65093666Y-45034293D01*
X65127000Y-45100960D01*
X65127000Y-45167626D01*
X65093666Y-45267626D01*
X64693666Y-45667626D01*
X65127000Y-45667626D01*
D10*
X51835333Y-32229531D02*
X51794857Y-32270007D01*
X51673428Y-32310483D01*
X51592476Y-32310483D01*
X51471047Y-32270007D01*
X51390095Y-32189055D01*
X51349619Y-32108102D01*
X51309142Y-31946198D01*
X51309142Y-31824769D01*
X51349619Y-31662864D01*
X51390095Y-31581912D01*
X51471047Y-31500960D01*
X51592476Y-31460483D01*
X51673428Y-31460483D01*
X51794857Y-31500960D01*
X51835333Y-31541436D01*
X52159142Y-31541436D02*
X52199619Y-31500960D01*
X52280571Y-31460483D01*
X52482952Y-31460483D01*
X52563904Y-31500960D01*
X52604380Y-31541436D01*
X52644857Y-31622388D01*
X52644857Y-31703340D01*
X52604380Y-31824769D01*
X52118666Y-32310483D01*
X52644857Y-32310483D01*
D11*
X53810333Y-37528340D02*
X53477000Y-37052150D01*
X53238904Y-37528340D02*
X53238904Y-36528340D01*
X53619857Y-36528340D01*
X53715095Y-36575960D01*
X53762714Y-36623579D01*
X53810333Y-36718817D01*
X53810333Y-36861674D01*
X53762714Y-36956912D01*
X53715095Y-37004531D01*
X53619857Y-37052150D01*
X53238904Y-37052150D01*
X54762714Y-37528340D02*
X54191285Y-37528340D01*
X54477000Y-37528340D02*
X54477000Y-36528340D01*
X54381761Y-36671198D01*
X54286523Y-36766436D01*
X54191285Y-36814055D01*
X59265095Y-33803340D02*
X59265095Y-34612864D01*
X59312714Y-34708102D01*
X59360333Y-34755721D01*
X59455571Y-34803340D01*
X59646047Y-34803340D01*
X59741285Y-34755721D01*
X59788904Y-34708102D01*
X59836523Y-34612864D01*
X59836523Y-33803340D01*
X60265095Y-33898579D02*
X60312714Y-33850960D01*
X60407952Y-33803340D01*
X60646047Y-33803340D01*
X60741285Y-33850960D01*
X60788904Y-33898579D01*
X60836523Y-33993817D01*
X60836523Y-34089055D01*
X60788904Y-34231912D01*
X60217476Y-34803340D01*
X60836523Y-34803340D01*
X50718542Y-50456126D02*
X50766161Y-50503745D01*
X50813780Y-50646602D01*
X50813780Y-50741840D01*
X50766161Y-50884698D01*
X50670923Y-50979936D01*
X50575685Y-51027555D01*
X50385209Y-51075174D01*
X50242352Y-51075174D01*
X50051876Y-51027555D01*
X49956638Y-50979936D01*
X49861400Y-50884698D01*
X49813780Y-50741840D01*
X49813780Y-50646602D01*
X49861400Y-50503745D01*
X49909019Y-50456126D01*
X50813780Y-49979936D02*
X50813780Y-49789460D01*
X50766161Y-49694221D01*
X50718542Y-49646602D01*
X50575685Y-49551364D01*
X50385209Y-49503745D01*
X50004257Y-49503745D01*
X49909019Y-49551364D01*
X49861400Y-49598983D01*
X49813780Y-49694221D01*
X49813780Y-49884698D01*
X49861400Y-49979936D01*
X49909019Y-50027555D01*
X50004257Y-50075174D01*
X50242352Y-50075174D01*
X50337590Y-50027555D01*
X50385209Y-49979936D01*
X50432828Y-49884698D01*
X50432828Y-49694221D01*
X50385209Y-49598983D01*
X50337590Y-49551364D01*
X50242352Y-49503745D01*
X50879380Y-48242626D02*
X50403190Y-48575960D01*
X50879380Y-48814055D02*
X49879380Y-48814055D01*
X49879380Y-48433102D01*
X49927000Y-48337864D01*
X49974619Y-48290245D01*
X50069857Y-48242626D01*
X50212714Y-48242626D01*
X50307952Y-48290245D01*
X50355571Y-48337864D01*
X50403190Y-48433102D01*
X50403190Y-48814055D01*
X49879380Y-47337864D02*
X49879380Y-47814055D01*
X50355571Y-47861674D01*
X50307952Y-47814055D01*
X50260333Y-47718817D01*
X50260333Y-47480721D01*
X50307952Y-47385483D01*
X50355571Y-47337864D01*
X50450809Y-47290245D01*
X50688904Y-47290245D01*
X50784142Y-47337864D01*
X50831761Y-47385483D01*
X50879380Y-47480721D01*
X50879380Y-47718817D01*
X50831761Y-47814055D01*
X50784142Y-47861674D01*
X49754380Y-46417626D02*
X49278190Y-46750960D01*
X49754380Y-46989055D02*
X48754380Y-46989055D01*
X48754380Y-46608102D01*
X48802000Y-46512864D01*
X48849619Y-46465245D01*
X48944857Y-46417626D01*
X49087714Y-46417626D01*
X49182952Y-46465245D01*
X49230571Y-46512864D01*
X49278190Y-46608102D01*
X49278190Y-46989055D01*
X48754380Y-46084293D02*
X48754380Y-45465245D01*
X49135333Y-45798579D01*
X49135333Y-45655721D01*
X49182952Y-45560483D01*
X49230571Y-45512864D01*
X49325809Y-45465245D01*
X49563904Y-45465245D01*
X49659142Y-45512864D01*
X49706761Y-45560483D01*
X49754380Y-45655721D01*
X49754380Y-45941436D01*
X49706761Y-46036674D01*
X49659142Y-46084293D01*
X45690095Y-42619680D02*
X45690095Y-43429204D01*
X45737714Y-43524442D01*
X45785333Y-43572061D01*
X45880571Y-43619680D01*
X46071047Y-43619680D01*
X46166285Y-43572061D01*
X46213904Y-43524442D01*
X46261523Y-43429204D01*
X46261523Y-42619680D01*
X47166285Y-42619680D02*
X46975809Y-42619680D01*
X46880571Y-42667300D01*
X46832952Y-42714919D01*
X46737714Y-42857776D01*
X46690095Y-43048252D01*
X46690095Y-43429204D01*
X46737714Y-43524442D01*
X46785333Y-43572061D01*
X46880571Y-43619680D01*
X47071047Y-43619680D01*
X47166285Y-43572061D01*
X47213904Y-43524442D01*
X47261523Y-43429204D01*
X47261523Y-43191109D01*
X47213904Y-43095871D01*
X47166285Y-43048252D01*
X47071047Y-43000633D01*
X46880571Y-43000633D01*
X46785333Y-43048252D01*
X46737714Y-43095871D01*
X46690095Y-43191109D01*
D10*
X69186226Y-48812864D02*
X68919560Y-48431912D01*
X68729083Y-48812864D02*
X68729083Y-48012864D01*
X69033845Y-48012864D01*
X69110036Y-48050960D01*
X69148131Y-48089055D01*
X69186226Y-48165245D01*
X69186226Y-48279531D01*
X69148131Y-48355721D01*
X69110036Y-48393817D01*
X69033845Y-48431912D01*
X68729083Y-48431912D01*
X69567179Y-48812864D02*
X69719560Y-48812864D01*
X69795750Y-48774769D01*
X69833845Y-48736674D01*
X69910036Y-48622388D01*
X69948131Y-48470007D01*
X69948131Y-48165245D01*
X69910036Y-48089055D01*
X69871940Y-48050960D01*
X69795750Y-48012864D01*
X69643369Y-48012864D01*
X69567179Y-48050960D01*
X69529083Y-48089055D01*
X69490988Y-48165245D01*
X69490988Y-48355721D01*
X69529083Y-48431912D01*
X69567179Y-48470007D01*
X69643369Y-48508102D01*
X69795750Y-48508102D01*
X69871940Y-48470007D01*
X69910036Y-48431912D01*
X69948131Y-48355721D01*
X69187714Y-51162864D02*
X68921047Y-50781912D01*
X68730571Y-51162864D02*
X68730571Y-50362864D01*
X69035333Y-50362864D01*
X69111523Y-50400960D01*
X69149619Y-50439055D01*
X69187714Y-50515245D01*
X69187714Y-50629531D01*
X69149619Y-50705721D01*
X69111523Y-50743817D01*
X69035333Y-50781912D01*
X68730571Y-50781912D01*
X69949619Y-51162864D02*
X69492476Y-51162864D01*
X69721047Y-51162864D02*
X69721047Y-50362864D01*
X69644857Y-50477150D01*
X69568666Y-50553340D01*
X69492476Y-50591436D01*
X70444857Y-50362864D02*
X70521047Y-50362864D01*
X70597238Y-50400960D01*
X70635333Y-50439055D01*
X70673428Y-50515245D01*
X70711523Y-50667626D01*
X70711523Y-50858102D01*
X70673428Y-51010483D01*
X70635333Y-51086674D01*
X70597238Y-51124769D01*
X70521047Y-51162864D01*
X70444857Y-51162864D01*
X70368666Y-51124769D01*
X70330571Y-51086674D01*
X70292476Y-51010483D01*
X70254380Y-50858102D01*
X70254380Y-50667626D01*
X70292476Y-50515245D01*
X70330571Y-50439055D01*
X70368666Y-50400960D01*
X70444857Y-50362864D01*
X69169857Y-53315245D02*
X68919857Y-52958102D01*
X68741285Y-53315245D02*
X68741285Y-52565245D01*
X69027000Y-52565245D01*
X69098428Y-52600960D01*
X69134142Y-52636674D01*
X69169857Y-52708102D01*
X69169857Y-52815245D01*
X69134142Y-52886674D01*
X69098428Y-52922388D01*
X69027000Y-52958102D01*
X68741285Y-52958102D01*
X69884142Y-53315245D02*
X69455571Y-53315245D01*
X69669857Y-53315245D02*
X69669857Y-52565245D01*
X69598428Y-52672388D01*
X69527000Y-52743817D01*
X69455571Y-52779531D01*
X70598428Y-53315245D02*
X70169857Y-53315245D01*
X70384142Y-53315245D02*
X70384142Y-52565245D01*
X70312714Y-52672388D01*
X70241285Y-52743817D01*
X70169857Y-52779531D01*
D11*
X32122704Y-32771340D02*
X32122704Y-31771340D01*
X32503657Y-31771340D01*
X32598895Y-31818960D01*
X32646514Y-31866579D01*
X32694133Y-31961817D01*
X32694133Y-32104674D01*
X32646514Y-32199912D01*
X32598895Y-32247531D01*
X32503657Y-32295150D01*
X32122704Y-32295150D01*
X33646514Y-32771340D02*
X33075085Y-32771340D01*
X33360800Y-32771340D02*
X33360800Y-31771340D01*
X33265561Y-31914198D01*
X33170323Y-32009436D01*
X33075085Y-32057055D01*
D12*
X61734323Y-34814464D02*
X61734323Y-34014464D01*
X61924800Y-34014464D01*
X62039085Y-34052560D01*
X62115276Y-34128750D01*
X62153371Y-34204940D01*
X62191466Y-34357321D01*
X62191466Y-34471607D01*
X62153371Y-34623988D01*
X62115276Y-34700179D01*
X62039085Y-34776369D01*
X61924800Y-34814464D01*
X61734323Y-34814464D01*
X62953371Y-34814464D02*
X62496228Y-34814464D01*
X62724800Y-34814464D02*
X62724800Y-34014464D01*
X62648609Y-34128750D01*
X62572419Y-34204940D01*
X62496228Y-34243036D01*
D11*
X74104380Y-45939055D02*
X73104380Y-45939055D01*
X73104380Y-45558102D01*
X73152000Y-45462864D01*
X73199619Y-45415245D01*
X73294857Y-45367626D01*
X73437714Y-45367626D01*
X73532952Y-45415245D01*
X73580571Y-45462864D01*
X73628190Y-45558102D01*
X73628190Y-45939055D01*
X73104380Y-45034293D02*
X73104380Y-44415245D01*
X73485333Y-44748579D01*
X73485333Y-44605721D01*
X73532952Y-44510483D01*
X73580571Y-44462864D01*
X73675809Y-44415245D01*
X73913904Y-44415245D01*
X74009142Y-44462864D01*
X74056761Y-44510483D01*
X74104380Y-44605721D01*
X74104380Y-44891436D01*
X74056761Y-44986674D01*
X74009142Y-45034293D01*
M02*
