G04 #@! TF.GenerationSoftware,KiCad,Pcbnew,(5.1.4)-1*
G04 #@! TF.CreationDate,2020-02-28T00:57:03+00:00*
G04 #@! TF.ProjectId,analog,616e616c-6f67-42e6-9b69-6361645f7063,rev?*
G04 #@! TF.SameCoordinates,Original*
G04 #@! TF.FileFunction,Legend,Top*
G04 #@! TF.FilePolarity,Positive*
%FSLAX46Y46*%
G04 Gerber Fmt 4.6, Leading zero omitted, Abs format (unit mm)*
G04 Created by KiCad (PCBNEW (5.1.4)-1) date 2020-02-28 00:57:03*
%MOMM*%
%LPD*%
G04 APERTURE LIST*
%ADD10C,0.100000*%
%ADD11C,0.150000*%
%ADD12C,0.120000*%
G04 APERTURE END LIST*
D10*
X75210542Y-42088045D02*
X75210542Y-42288045D01*
X75524828Y-42288045D02*
X74924828Y-42288045D01*
X74924828Y-42002331D01*
X75524828Y-41773760D02*
X75124828Y-41773760D01*
X74924828Y-41773760D02*
X74953400Y-41802331D01*
X74981971Y-41773760D01*
X74953400Y-41745188D01*
X74924828Y-41773760D01*
X74981971Y-41773760D01*
X75124828Y-41573760D02*
X75124828Y-41345188D01*
X74924828Y-41488045D02*
X75439114Y-41488045D01*
X75496257Y-41459474D01*
X75524828Y-41402331D01*
X75524828Y-41345188D01*
X74924828Y-40659474D02*
X75039114Y-40716617D01*
X75524828Y-40402331D02*
X74924828Y-40402331D01*
X74924828Y-40173760D01*
X74953400Y-40116617D01*
X74981971Y-40088045D01*
X75039114Y-40059474D01*
X75124828Y-40059474D01*
X75181971Y-40088045D01*
X75210542Y-40116617D01*
X75239114Y-40173760D01*
X75239114Y-40402331D01*
X74924828Y-39859474D02*
X74924828Y-39488045D01*
X75153400Y-39688045D01*
X75153400Y-39602331D01*
X75181971Y-39545188D01*
X75210542Y-39516617D01*
X75267685Y-39488045D01*
X75410542Y-39488045D01*
X75467685Y-39516617D01*
X75496257Y-39545188D01*
X75524828Y-39602331D01*
X75524828Y-39773760D01*
X75496257Y-39830902D01*
X75467685Y-39859474D01*
X74924828Y-39202331D02*
X75039114Y-39259474D01*
X75524828Y-38402331D02*
X75496257Y-38459474D01*
X75467685Y-38488045D01*
X75410542Y-38516617D01*
X75239114Y-38516617D01*
X75181971Y-38488045D01*
X75153400Y-38459474D01*
X75124828Y-38402331D01*
X75124828Y-38316617D01*
X75153400Y-38259474D01*
X75181971Y-38230902D01*
X75239114Y-38202331D01*
X75410542Y-38202331D01*
X75467685Y-38230902D01*
X75496257Y-38259474D01*
X75524828Y-38316617D01*
X75524828Y-38402331D01*
X75524828Y-37945188D02*
X75124828Y-37945188D01*
X75239114Y-37945188D02*
X75181971Y-37916617D01*
X75153400Y-37888045D01*
X75124828Y-37830902D01*
X75124828Y-37773760D01*
X74924828Y-37088045D02*
X75039114Y-37145188D01*
X75524828Y-36830902D02*
X74924828Y-36830902D01*
X74924828Y-36602331D01*
X74953400Y-36545188D01*
X74981971Y-36516617D01*
X75039114Y-36488045D01*
X75124828Y-36488045D01*
X75181971Y-36516617D01*
X75210542Y-36545188D01*
X75239114Y-36602331D01*
X75239114Y-36830902D01*
X75124828Y-35973760D02*
X75524828Y-35973760D01*
X74896257Y-36116617D02*
X75324828Y-36259474D01*
X75324828Y-35888045D01*
X74924828Y-35630902D02*
X75039114Y-35688045D01*
D11*
X27780800Y-48320960D02*
X36315200Y-45882560D01*
X27780800Y-45831760D02*
X36315200Y-48371760D01*
X43863028Y-43659007D02*
G75*
G03X43863028Y-43659007I-263108J0D01*
G01*
X39083800Y-45755560D02*
X41496800Y-45755560D01*
X38702800Y-45349160D02*
X39083800Y-45755560D01*
X56431808Y-49999900D02*
G75*
G03X56431808Y-49999900I-418908J0D01*
G01*
X39541000Y-43215560D02*
X41700000Y-43215560D01*
X39617200Y-38237160D02*
X41598400Y-38237160D01*
X39566400Y-40726360D02*
X41547600Y-40726360D01*
X39058400Y-35620960D02*
X41573000Y-35620960D01*
X38626600Y-35189160D02*
X39058400Y-35620960D01*
X39033000Y-43215560D02*
X38626600Y-42809160D01*
X39541000Y-43215560D02*
X39033000Y-43215560D01*
X39058400Y-40726360D02*
X38601200Y-40269160D01*
X39566400Y-40726360D02*
X39058400Y-40726360D01*
X39134600Y-38237160D02*
X38626600Y-37729160D01*
X39617200Y-38237160D02*
X39134600Y-38237160D01*
X45224766Y-48981360D02*
G75*
G03X45224766Y-48981360I-273566J0D01*
G01*
X41933371Y-43794940D02*
X41933371Y-43128274D01*
X41933371Y-43318750D02*
X41980990Y-43223512D01*
X42028609Y-43175893D01*
X42123847Y-43128274D01*
X42219085Y-43128274D01*
X42365123Y-41229540D02*
X42031790Y-40753350D01*
X41793695Y-41229540D02*
X41793695Y-40229540D01*
X42174647Y-40229540D01*
X42269885Y-40277160D01*
X42317504Y-40324779D01*
X42365123Y-40420017D01*
X42365123Y-40562874D01*
X42317504Y-40658112D01*
X42269885Y-40705731D01*
X42174647Y-40753350D01*
X41793695Y-40753350D01*
X42342904Y-37787960D02*
X42247666Y-37740340D01*
X42104809Y-37740340D01*
X41961952Y-37787960D01*
X41866714Y-37883198D01*
X41819095Y-37978436D01*
X41771476Y-38168912D01*
X41771476Y-38311769D01*
X41819095Y-38502245D01*
X41866714Y-38597483D01*
X41961952Y-38692721D01*
X42104809Y-38740340D01*
X42200047Y-38740340D01*
X42342904Y-38692721D01*
X42390523Y-38645102D01*
X42390523Y-38311769D01*
X42200047Y-38311769D01*
X58661928Y-35819080D02*
G75*
G03X58661928Y-35819080I-418908J0D01*
G01*
X46729200Y-34173160D02*
G75*
G03X46729200Y-34173160I-401609J0D01*
G01*
X41969880Y-45284140D02*
X42065119Y-45284140D01*
X42160357Y-45331760D01*
X42207976Y-45379379D01*
X42255595Y-45474617D01*
X42303214Y-45665093D01*
X42303214Y-45903188D01*
X42255595Y-46093664D01*
X42207976Y-46188902D01*
X42160357Y-46236521D01*
X42065119Y-46284140D01*
X41969880Y-46284140D01*
X41874642Y-46236521D01*
X41827023Y-46188902D01*
X41779404Y-46093664D01*
X41731785Y-45903188D01*
X41731785Y-45665093D01*
X41779404Y-45474617D01*
X41827023Y-45379379D01*
X41874642Y-45331760D01*
X41969880Y-45284140D01*
X42101628Y-35447931D02*
X42244485Y-35495550D01*
X42292104Y-35543169D01*
X42339723Y-35638407D01*
X42339723Y-35781264D01*
X42292104Y-35876502D01*
X42244485Y-35924121D01*
X42149247Y-35971740D01*
X41768295Y-35971740D01*
X41768295Y-34971740D01*
X42101628Y-34971740D01*
X42196866Y-35019360D01*
X42244485Y-35066979D01*
X42292104Y-35162217D01*
X42292104Y-35257455D01*
X42244485Y-35352693D01*
X42196866Y-35400312D01*
X42101628Y-35447931D01*
X41768295Y-35447931D01*
X42244485Y-44068074D02*
X42244485Y-44877598D01*
X42196866Y-44972836D01*
X42149247Y-45020455D01*
X42054009Y-45068074D01*
X41911152Y-45068074D01*
X41815914Y-45020455D01*
X42244485Y-44687121D02*
X42149247Y-44734740D01*
X41958771Y-44734740D01*
X41863533Y-44687121D01*
X41815914Y-44639502D01*
X41768295Y-44544264D01*
X41768295Y-44258550D01*
X41815914Y-44163312D01*
X41863533Y-44115693D01*
X41958771Y-44068074D01*
X42149247Y-44068074D01*
X42244485Y-44115693D01*
X41790514Y-42524940D02*
X41790514Y-41524940D01*
X41790514Y-41905893D02*
X41885752Y-41858274D01*
X42076228Y-41858274D01*
X42171466Y-41905893D01*
X42219085Y-41953512D01*
X42266704Y-42048750D01*
X42266704Y-42334464D01*
X42219085Y-42429702D01*
X42171466Y-42477321D01*
X42076228Y-42524940D01*
X41885752Y-42524940D01*
X41790514Y-42477321D01*
X41795285Y-39984940D02*
X41795285Y-38984940D01*
X41795285Y-39461131D02*
X42366714Y-39461131D01*
X42366714Y-39984940D02*
X42366714Y-38984940D01*
X41722266Y-36444940D02*
X42055600Y-37444940D01*
X42388933Y-36444940D01*
X42268295Y-33600140D02*
X41792104Y-33600140D01*
X41744485Y-34076331D01*
X41792104Y-34028712D01*
X41887342Y-33981093D01*
X42125438Y-33981093D01*
X42220676Y-34028712D01*
X42268295Y-34076331D01*
X42315914Y-34171569D01*
X42315914Y-34409664D01*
X42268295Y-34504902D01*
X42220676Y-34552521D01*
X42125438Y-34600140D01*
X41887342Y-34600140D01*
X41792104Y-34552521D01*
X41744485Y-34504902D01*
D12*
X47034000Y-42367360D02*
X48984000Y-42367360D01*
X47034000Y-42367360D02*
X45084000Y-42367360D01*
X47034000Y-33497360D02*
X48984000Y-33497360D01*
X47034000Y-33497360D02*
X43584000Y-33497360D01*
X53789200Y-45127812D02*
X53789200Y-44605308D01*
X52369200Y-45127812D02*
X52369200Y-44605308D01*
X65287400Y-36780160D02*
X66617400Y-36780160D01*
X65287400Y-38110160D02*
X65287400Y-36780160D01*
X65287400Y-39380160D02*
X67947400Y-39380160D01*
X67947400Y-39380160D02*
X67947400Y-47060160D01*
X65287400Y-39380160D02*
X65287400Y-47060160D01*
X65287400Y-47060160D02*
X67947400Y-47060160D01*
X64245200Y-49209960D02*
X64245200Y-47259960D01*
X64245200Y-49209960D02*
X64245200Y-51159960D01*
X55375200Y-49209960D02*
X55375200Y-47259960D01*
X55375200Y-49209960D02*
X55375200Y-52659960D01*
D11*
X44163700Y-53485160D02*
X47872300Y-53485160D01*
X42493000Y-48085160D02*
X47876600Y-48085160D01*
D12*
X68676000Y-45189508D02*
X68676000Y-45712012D01*
X70096000Y-45189508D02*
X70096000Y-45712012D01*
X68676000Y-41673412D02*
X68676000Y-41150908D01*
X70096000Y-41673412D02*
X70096000Y-41150908D01*
X68663300Y-37061508D02*
X68663300Y-37584012D01*
X70083300Y-37061508D02*
X70083300Y-37584012D01*
X63113400Y-39162512D02*
X63113400Y-38640008D01*
X64533400Y-39162512D02*
X64533400Y-38640008D01*
X57490812Y-32274440D02*
X56968308Y-32274440D01*
X57490812Y-33694440D02*
X56968308Y-33694440D01*
X38752400Y-51260108D02*
X38752400Y-51782612D01*
X37332400Y-51260108D02*
X37332400Y-51782612D01*
X28848800Y-51158508D02*
X28848800Y-51681012D01*
X30268800Y-51158508D02*
X30268800Y-51681012D01*
X32964400Y-49839760D02*
X32964400Y-50769760D01*
X32964400Y-52999760D02*
X32964400Y-52069760D01*
X32964400Y-52999760D02*
X36124400Y-52999760D01*
X32964400Y-49839760D02*
X34424400Y-49839760D01*
X52487748Y-52967960D02*
X53010252Y-52967960D01*
X52487748Y-51547960D02*
X53010252Y-51547960D01*
X52633500Y-37379008D02*
X52633500Y-37901512D01*
X51213500Y-37379008D02*
X51213500Y-37901512D01*
X41343200Y-51260108D02*
X41343200Y-51782612D01*
X39923200Y-51260108D02*
X39923200Y-51782612D01*
X63100700Y-43362512D02*
X63100700Y-42840008D01*
X64520700Y-43362512D02*
X64520700Y-42840008D01*
X52856048Y-33704460D02*
X53378552Y-33704460D01*
X52856048Y-35124460D02*
X53378552Y-35124460D01*
X54678200Y-39436408D02*
X54678200Y-39958912D01*
X53258200Y-39436408D02*
X53258200Y-39958912D01*
X58908500Y-44018360D02*
X60858500Y-44018360D01*
X58908500Y-44018360D02*
X56958500Y-44018360D01*
X58908500Y-35148360D02*
X60858500Y-35148360D01*
X58908500Y-35148360D02*
X55458500Y-35148360D01*
X52487748Y-50935960D02*
X53010252Y-50935960D01*
X52487748Y-49515960D02*
X53010252Y-49515960D01*
X53010252Y-48903960D02*
X52487748Y-48903960D01*
X53010252Y-47483960D02*
X52487748Y-47483960D01*
X51452400Y-45137972D02*
X51452400Y-44615468D01*
X50032400Y-45137972D02*
X50032400Y-44615468D01*
X45397400Y-46992180D02*
X47197400Y-46992180D01*
X47197400Y-43772180D02*
X44247400Y-43772180D01*
X66939612Y-49434820D02*
X66417108Y-49434820D01*
X66939612Y-48014820D02*
X66417108Y-48014820D01*
X66949772Y-50100160D02*
X66427268Y-50100160D01*
X66949772Y-51520160D02*
X66427268Y-51520160D01*
X66949772Y-53669000D02*
X66427268Y-53669000D01*
X66949772Y-52249000D02*
X66427268Y-52249000D01*
X27723800Y-33166360D02*
X36353800Y-33166360D01*
X27723800Y-33284455D02*
X36353800Y-33284455D01*
X27723800Y-33402550D02*
X36353800Y-33402550D01*
X27723800Y-33520645D02*
X36353800Y-33520645D01*
X27723800Y-33638740D02*
X36353800Y-33638740D01*
X27723800Y-33756835D02*
X36353800Y-33756835D01*
X27723800Y-33874930D02*
X36353800Y-33874930D01*
X27723800Y-33993025D02*
X36353800Y-33993025D01*
X27723800Y-34111120D02*
X36353800Y-34111120D01*
X27723800Y-34229215D02*
X36353800Y-34229215D01*
X27723800Y-34347310D02*
X36353800Y-34347310D01*
X27723800Y-34465405D02*
X36353800Y-34465405D01*
X27723800Y-34583500D02*
X36353800Y-34583500D01*
X27723800Y-34701595D02*
X36353800Y-34701595D01*
X27723800Y-34819690D02*
X36353800Y-34819690D01*
X27723800Y-34937785D02*
X36353800Y-34937785D01*
X27723800Y-35055880D02*
X36353800Y-35055880D01*
X27723800Y-35173975D02*
X36353800Y-35173975D01*
X27723800Y-35292070D02*
X36353800Y-35292070D01*
X27723800Y-35410165D02*
X36353800Y-35410165D01*
X27723800Y-35528260D02*
X36353800Y-35528260D01*
X36353800Y-34016360D02*
X36763800Y-34016360D01*
X38863800Y-34016360D02*
X39243800Y-34016360D01*
X36353800Y-34736360D02*
X36763800Y-34736360D01*
X38863800Y-34736360D02*
X39243800Y-34736360D01*
X36353800Y-36556360D02*
X36763800Y-36556360D01*
X38863800Y-36556360D02*
X39303800Y-36556360D01*
X36353800Y-37276360D02*
X36763800Y-37276360D01*
X38863800Y-37276360D02*
X39303800Y-37276360D01*
X36353800Y-39096360D02*
X36763800Y-39096360D01*
X38863800Y-39096360D02*
X39303800Y-39096360D01*
X36353800Y-39816360D02*
X36763800Y-39816360D01*
X38863800Y-39816360D02*
X39303800Y-39816360D01*
X36353800Y-41636360D02*
X36763800Y-41636360D01*
X38863800Y-41636360D02*
X39303800Y-41636360D01*
X36353800Y-42356360D02*
X36763800Y-42356360D01*
X38863800Y-42356360D02*
X39303800Y-42356360D01*
X36353800Y-44176360D02*
X36763800Y-44176360D01*
X38863800Y-44176360D02*
X39303800Y-44176360D01*
X36353800Y-44896360D02*
X36763800Y-44896360D01*
X38863800Y-44896360D02*
X39303800Y-44896360D01*
X36353800Y-46716360D02*
X36763800Y-46716360D01*
X38863800Y-46716360D02*
X39303800Y-46716360D01*
X36353800Y-47436360D02*
X36763800Y-47436360D01*
X38863800Y-47436360D02*
X39303800Y-47436360D01*
X27723800Y-35646360D02*
X36353800Y-35646360D01*
X27723800Y-38186360D02*
X36353800Y-38186360D01*
X27723800Y-40726360D02*
X36353800Y-40726360D01*
X27723800Y-43266360D02*
X36353800Y-43266360D01*
X27723800Y-45806360D02*
X36353800Y-45806360D01*
X27723800Y-33046360D02*
X36353800Y-33046360D01*
X36353800Y-33046360D02*
X36353800Y-48406360D01*
X27723800Y-48406360D02*
X36353800Y-48406360D01*
X27723800Y-33046360D02*
X27723800Y-48406360D01*
X41463800Y-33046360D02*
X41463800Y-34376360D01*
X40353800Y-33046360D02*
X41463800Y-33046360D01*
X63275200Y-34011360D02*
X63275200Y-36011360D01*
X63275200Y-36011360D02*
X67175200Y-36011360D01*
X63275200Y-34011360D02*
X67175200Y-34011360D01*
X81655200Y-35200960D02*
X77655200Y-35200960D01*
X77655200Y-35200960D02*
X77655200Y-43200960D01*
X77655200Y-43200960D02*
X81655200Y-43200960D01*
X76714600Y-34440960D02*
X76714600Y-39175960D01*
X70994600Y-34440960D02*
X76714600Y-34440960D01*
X70994600Y-35510960D02*
X70994600Y-34440960D01*
X71294600Y-35510960D02*
X70994600Y-35510960D01*
X71294600Y-39175960D02*
X71294600Y-35510960D01*
X76714600Y-43910960D02*
X76714600Y-39175960D01*
X70994600Y-43910960D02*
X76714600Y-43910960D01*
X70994600Y-42840960D02*
X70994600Y-43910960D01*
X71294600Y-42840960D02*
X70994600Y-42840960D01*
X71294600Y-39175960D02*
X71294600Y-42840960D01*
X70704600Y-42550960D02*
X70704600Y-43050960D01*
X71004600Y-42550960D02*
X70704600Y-42550960D01*
D11*
X43782895Y-32253940D02*
X43782895Y-33063464D01*
X43830514Y-33158702D01*
X43878133Y-33206321D01*
X43973371Y-33253940D01*
X44163847Y-33253940D01*
X44259085Y-33206321D01*
X44306704Y-33158702D01*
X44354323Y-33063464D01*
X44354323Y-32253940D01*
X45354323Y-33253940D02*
X44782895Y-33253940D01*
X45068609Y-33253940D02*
X45068609Y-32253940D01*
X44973371Y-32396798D01*
X44878133Y-32492036D01*
X44782895Y-32539655D01*
X54776893Y-45353242D02*
X54729274Y-45400861D01*
X54586417Y-45448480D01*
X54491179Y-45448480D01*
X54348321Y-45400861D01*
X54253083Y-45305623D01*
X54205464Y-45210385D01*
X54157845Y-45019909D01*
X54157845Y-44877052D01*
X54205464Y-44686576D01*
X54253083Y-44591338D01*
X54348321Y-44496100D01*
X54491179Y-44448480D01*
X54586417Y-44448480D01*
X54729274Y-44496100D01*
X54776893Y-44543719D01*
X55110226Y-44448480D02*
X55729274Y-44448480D01*
X55395940Y-44829433D01*
X55538798Y-44829433D01*
X55634036Y-44877052D01*
X55681655Y-44924671D01*
X55729274Y-45019909D01*
X55729274Y-45258004D01*
X55681655Y-45353242D01*
X55634036Y-45400861D01*
X55538798Y-45448480D01*
X55253083Y-45448480D01*
X55157845Y-45400861D01*
X55110226Y-45353242D01*
D12*
X67116733Y-36826626D02*
X67116733Y-36126626D01*
X67383400Y-36126626D01*
X67450066Y-36159960D01*
X67483400Y-36193293D01*
X67516733Y-36259960D01*
X67516733Y-36359960D01*
X67483400Y-36426626D01*
X67450066Y-36459960D01*
X67383400Y-36493293D01*
X67116733Y-36493293D01*
X67783400Y-36193293D02*
X67816733Y-36159960D01*
X67883400Y-36126626D01*
X68050066Y-36126626D01*
X68116733Y-36159960D01*
X68150066Y-36193293D01*
X68183400Y-36259960D01*
X68183400Y-36326626D01*
X68150066Y-36426626D01*
X67750066Y-36826626D01*
X68183400Y-36826626D01*
D11*
X55301795Y-53056540D02*
X55301795Y-53866064D01*
X55349414Y-53961302D01*
X55397033Y-54008921D01*
X55492271Y-54056540D01*
X55682747Y-54056540D01*
X55777985Y-54008921D01*
X55825604Y-53961302D01*
X55873223Y-53866064D01*
X55873223Y-53056540D01*
X56254176Y-53056540D02*
X56873223Y-53056540D01*
X56539890Y-53437493D01*
X56682747Y-53437493D01*
X56777985Y-53485112D01*
X56825604Y-53532731D01*
X56873223Y-53627969D01*
X56873223Y-53866064D01*
X56825604Y-53961302D01*
X56777985Y-54008921D01*
X56682747Y-54056540D01*
X56397033Y-54056540D01*
X56301795Y-54008921D01*
X56254176Y-53961302D01*
X42106495Y-46808140D02*
X42106495Y-47617664D01*
X42154114Y-47712902D01*
X42201733Y-47760521D01*
X42296971Y-47808140D01*
X42487447Y-47808140D01*
X42582685Y-47760521D01*
X42630304Y-47712902D01*
X42677923Y-47617664D01*
X42677923Y-46808140D01*
X43582685Y-47141474D02*
X43582685Y-47808140D01*
X43344590Y-46760521D02*
X43106495Y-47474807D01*
X43725542Y-47474807D01*
D10*
X70979866Y-47044564D02*
X70713200Y-46663612D01*
X70522723Y-47044564D02*
X70522723Y-46244564D01*
X70827485Y-46244564D01*
X70903676Y-46282660D01*
X70941771Y-46320755D01*
X70979866Y-46396945D01*
X70979866Y-46511231D01*
X70941771Y-46587421D01*
X70903676Y-46625517D01*
X70827485Y-46663612D01*
X70522723Y-46663612D01*
X71665580Y-46511231D02*
X71665580Y-47044564D01*
X71475104Y-46206469D02*
X71284628Y-46777898D01*
X71779866Y-46777898D01*
X70902028Y-41486760D02*
X70616314Y-41686760D01*
X70902028Y-41829617D02*
X70302028Y-41829617D01*
X70302028Y-41601045D01*
X70330600Y-41543902D01*
X70359171Y-41515331D01*
X70416314Y-41486760D01*
X70502028Y-41486760D01*
X70559171Y-41515331D01*
X70587742Y-41543902D01*
X70616314Y-41601045D01*
X70616314Y-41829617D01*
X70302028Y-40972474D02*
X70302028Y-41086760D01*
X70330600Y-41143902D01*
X70359171Y-41172474D01*
X70444885Y-41229617D01*
X70559171Y-41258188D01*
X70787742Y-41258188D01*
X70844885Y-41229617D01*
X70873457Y-41201045D01*
X70902028Y-41143902D01*
X70902028Y-41029617D01*
X70873457Y-40972474D01*
X70844885Y-40943902D01*
X70787742Y-40915331D01*
X70644885Y-40915331D01*
X70587742Y-40943902D01*
X70559171Y-40972474D01*
X70530600Y-41029617D01*
X70530600Y-41143902D01*
X70559171Y-41201045D01*
X70587742Y-41229617D01*
X70644885Y-41258188D01*
D11*
X69270133Y-35374840D02*
X68936800Y-34898650D01*
X68698704Y-35374840D02*
X68698704Y-34374840D01*
X69079657Y-34374840D01*
X69174895Y-34422460D01*
X69222514Y-34470079D01*
X69270133Y-34565317D01*
X69270133Y-34708174D01*
X69222514Y-34803412D01*
X69174895Y-34851031D01*
X69079657Y-34898650D01*
X68698704Y-34898650D01*
X69603466Y-34374840D02*
X70270133Y-34374840D01*
X69841561Y-35374840D01*
D12*
X63681333Y-37004426D02*
X63448000Y-36671093D01*
X63281333Y-37004426D02*
X63281333Y-36304426D01*
X63548000Y-36304426D01*
X63614666Y-36337760D01*
X63648000Y-36371093D01*
X63681333Y-36437760D01*
X63681333Y-36537760D01*
X63648000Y-36604426D01*
X63614666Y-36637760D01*
X63548000Y-36671093D01*
X63281333Y-36671093D01*
X64081333Y-36604426D02*
X64014666Y-36571093D01*
X63981333Y-36537760D01*
X63948000Y-36471093D01*
X63948000Y-36437760D01*
X63981333Y-36371093D01*
X64014666Y-36337760D01*
X64081333Y-36304426D01*
X64214666Y-36304426D01*
X64281333Y-36337760D01*
X64314666Y-36371093D01*
X64348000Y-36437760D01*
X64348000Y-36471093D01*
X64314666Y-36537760D01*
X64281333Y-36571093D01*
X64214666Y-36604426D01*
X64081333Y-36604426D01*
X64014666Y-36637760D01*
X63981333Y-36671093D01*
X63948000Y-36737760D01*
X63948000Y-36871093D01*
X63981333Y-36937760D01*
X64014666Y-36971093D01*
X64081333Y-37004426D01*
X64214666Y-37004426D01*
X64281333Y-36971093D01*
X64314666Y-36937760D01*
X64348000Y-36871093D01*
X64348000Y-36737760D01*
X64314666Y-36671093D01*
X64281333Y-36637760D01*
X64214666Y-36604426D01*
D11*
X54284133Y-32777702D02*
X54236514Y-32825321D01*
X54093657Y-32872940D01*
X53998419Y-32872940D01*
X53855561Y-32825321D01*
X53760323Y-32730083D01*
X53712704Y-32634845D01*
X53665085Y-32444369D01*
X53665085Y-32301512D01*
X53712704Y-32111036D01*
X53760323Y-32015798D01*
X53855561Y-31920560D01*
X53998419Y-31872940D01*
X54093657Y-31872940D01*
X54236514Y-31920560D01*
X54284133Y-31968179D01*
X55141276Y-32206274D02*
X55141276Y-32872940D01*
X54903180Y-31825321D02*
X54665085Y-32539607D01*
X55284133Y-32539607D01*
X37799533Y-49427402D02*
X37751914Y-49475021D01*
X37609057Y-49522640D01*
X37513819Y-49522640D01*
X37370961Y-49475021D01*
X37275723Y-49379783D01*
X37228104Y-49284545D01*
X37180485Y-49094069D01*
X37180485Y-48951212D01*
X37228104Y-48760736D01*
X37275723Y-48665498D01*
X37370961Y-48570260D01*
X37513819Y-48522640D01*
X37609057Y-48522640D01*
X37751914Y-48570260D01*
X37799533Y-48617879D01*
X38132866Y-48522640D02*
X38799533Y-48522640D01*
X38370961Y-49522640D01*
X30865333Y-49605202D02*
X30817714Y-49652821D01*
X30674857Y-49700440D01*
X30579619Y-49700440D01*
X30436761Y-49652821D01*
X30341523Y-49557583D01*
X30293904Y-49462345D01*
X30246285Y-49271869D01*
X30246285Y-49129012D01*
X30293904Y-48938536D01*
X30341523Y-48843298D01*
X30436761Y-48748060D01*
X30579619Y-48700440D01*
X30674857Y-48700440D01*
X30817714Y-48748060D01*
X30865333Y-48795679D01*
X31722476Y-48700440D02*
X31532000Y-48700440D01*
X31436761Y-48748060D01*
X31389142Y-48795679D01*
X31293904Y-48938536D01*
X31246285Y-49129012D01*
X31246285Y-49509964D01*
X31293904Y-49605202D01*
X31341523Y-49652821D01*
X31436761Y-49700440D01*
X31627238Y-49700440D01*
X31722476Y-49652821D01*
X31770095Y-49605202D01*
X31817714Y-49509964D01*
X31817714Y-49271869D01*
X31770095Y-49176631D01*
X31722476Y-49129012D01*
X31627238Y-49081393D01*
X31436761Y-49081393D01*
X31341523Y-49129012D01*
X31293904Y-49176631D01*
X31246285Y-49271869D01*
X30968595Y-52535840D02*
X30968595Y-53345364D01*
X31016214Y-53440602D01*
X31063833Y-53488221D01*
X31159071Y-53535840D01*
X31349547Y-53535840D01*
X31444785Y-53488221D01*
X31492404Y-53440602D01*
X31540023Y-53345364D01*
X31540023Y-52535840D01*
X32492404Y-52535840D02*
X32016214Y-52535840D01*
X31968595Y-53012031D01*
X32016214Y-52964412D01*
X32111452Y-52916793D01*
X32349547Y-52916793D01*
X32444785Y-52964412D01*
X32492404Y-53012031D01*
X32540023Y-53107269D01*
X32540023Y-53345364D01*
X32492404Y-53440602D01*
X32444785Y-53488221D01*
X32349547Y-53535840D01*
X32111452Y-53535840D01*
X32016214Y-53488221D01*
X31968595Y-53440602D01*
X50718542Y-52462726D02*
X50766161Y-52510345D01*
X50813780Y-52653202D01*
X50813780Y-52748440D01*
X50766161Y-52891298D01*
X50670923Y-52986536D01*
X50575685Y-53034155D01*
X50385209Y-53081774D01*
X50242352Y-53081774D01*
X50051876Y-53034155D01*
X49956638Y-52986536D01*
X49861400Y-52891298D01*
X49813780Y-52748440D01*
X49813780Y-52653202D01*
X49861400Y-52510345D01*
X49909019Y-52462726D01*
X50242352Y-51891298D02*
X50194733Y-51986536D01*
X50147114Y-52034155D01*
X50051876Y-52081774D01*
X50004257Y-52081774D01*
X49909019Y-52034155D01*
X49861400Y-51986536D01*
X49813780Y-51891298D01*
X49813780Y-51700821D01*
X49861400Y-51605583D01*
X49909019Y-51557964D01*
X50004257Y-51510345D01*
X50051876Y-51510345D01*
X50147114Y-51557964D01*
X50194733Y-51605583D01*
X50242352Y-51700821D01*
X50242352Y-51891298D01*
X50289971Y-51986536D01*
X50337590Y-52034155D01*
X50432828Y-52081774D01*
X50623304Y-52081774D01*
X50718542Y-52034155D01*
X50766161Y-51986536D01*
X50813780Y-51891298D01*
X50813780Y-51700821D01*
X50766161Y-51605583D01*
X50718542Y-51557964D01*
X50623304Y-51510345D01*
X50432828Y-51510345D01*
X50337590Y-51557964D01*
X50289971Y-51605583D01*
X50242352Y-51700821D01*
X51680633Y-40579202D02*
X51633014Y-40626821D01*
X51490157Y-40674440D01*
X51394919Y-40674440D01*
X51252061Y-40626821D01*
X51156823Y-40531583D01*
X51109204Y-40436345D01*
X51061585Y-40245869D01*
X51061585Y-40103012D01*
X51109204Y-39912536D01*
X51156823Y-39817298D01*
X51252061Y-39722060D01*
X51394919Y-39674440D01*
X51490157Y-39674440D01*
X51633014Y-39722060D01*
X51680633Y-39769679D01*
X52633014Y-40674440D02*
X52061585Y-40674440D01*
X52347300Y-40674440D02*
X52347300Y-39674440D01*
X52252061Y-39817298D01*
X52156823Y-39912536D01*
X52061585Y-39960155D01*
X40415733Y-49427402D02*
X40368114Y-49475021D01*
X40225257Y-49522640D01*
X40130019Y-49522640D01*
X39987161Y-49475021D01*
X39891923Y-49379783D01*
X39844304Y-49284545D01*
X39796685Y-49094069D01*
X39796685Y-48951212D01*
X39844304Y-48760736D01*
X39891923Y-48665498D01*
X39987161Y-48570260D01*
X40130019Y-48522640D01*
X40225257Y-48522640D01*
X40368114Y-48570260D01*
X40415733Y-48617879D01*
X41320495Y-48522640D02*
X40844304Y-48522640D01*
X40796685Y-48998831D01*
X40844304Y-48951212D01*
X40939542Y-48903593D01*
X41177638Y-48903593D01*
X41272876Y-48951212D01*
X41320495Y-48998831D01*
X41368114Y-49094069D01*
X41368114Y-49332164D01*
X41320495Y-49427402D01*
X41272876Y-49475021D01*
X41177638Y-49522640D01*
X40939542Y-49522640D01*
X40844304Y-49475021D01*
X40796685Y-49427402D01*
D12*
X62055733Y-44827626D02*
X61822400Y-44494293D01*
X61655733Y-44827626D02*
X61655733Y-44127626D01*
X61922400Y-44127626D01*
X61989066Y-44160960D01*
X62022400Y-44194293D01*
X62055733Y-44260960D01*
X62055733Y-44360960D01*
X62022400Y-44427626D01*
X61989066Y-44460960D01*
X61922400Y-44494293D01*
X61655733Y-44494293D01*
X62322400Y-44194293D02*
X62355733Y-44160960D01*
X62422400Y-44127626D01*
X62589066Y-44127626D01*
X62655733Y-44160960D01*
X62689066Y-44194293D01*
X62722400Y-44260960D01*
X62722400Y-44327626D01*
X62689066Y-44427626D01*
X62289066Y-44827626D01*
X62722400Y-44827626D01*
D11*
X51845733Y-33234902D02*
X51798114Y-33282521D01*
X51655257Y-33330140D01*
X51560019Y-33330140D01*
X51417161Y-33282521D01*
X51321923Y-33187283D01*
X51274304Y-33092045D01*
X51226685Y-32901569D01*
X51226685Y-32758712D01*
X51274304Y-32568236D01*
X51321923Y-32472998D01*
X51417161Y-32377760D01*
X51560019Y-32330140D01*
X51655257Y-32330140D01*
X51798114Y-32377760D01*
X51845733Y-32425379D01*
X52226685Y-32425379D02*
X52274304Y-32377760D01*
X52369542Y-32330140D01*
X52607638Y-32330140D01*
X52702876Y-32377760D01*
X52750495Y-32425379D01*
X52798114Y-32520617D01*
X52798114Y-32615855D01*
X52750495Y-32758712D01*
X52179066Y-33330140D01*
X52798114Y-33330140D01*
X53852333Y-42817040D02*
X53519000Y-42340850D01*
X53280904Y-42817040D02*
X53280904Y-41817040D01*
X53661857Y-41817040D01*
X53757095Y-41864660D01*
X53804714Y-41912279D01*
X53852333Y-42007517D01*
X53852333Y-42150374D01*
X53804714Y-42245612D01*
X53757095Y-42293231D01*
X53661857Y-42340850D01*
X53280904Y-42340850D01*
X54804714Y-42817040D02*
X54233285Y-42817040D01*
X54519000Y-42817040D02*
X54519000Y-41817040D01*
X54423761Y-41959898D01*
X54328523Y-42055136D01*
X54233285Y-42102755D01*
X53518715Y-35845500D02*
X53518715Y-36655024D01*
X53566334Y-36750262D01*
X53613953Y-36797881D01*
X53709191Y-36845500D01*
X53899667Y-36845500D01*
X53994905Y-36797881D01*
X54042524Y-36750262D01*
X54090143Y-36655024D01*
X54090143Y-35845500D01*
X54518715Y-35940739D02*
X54566334Y-35893120D01*
X54661572Y-35845500D01*
X54899667Y-35845500D01*
X54994905Y-35893120D01*
X55042524Y-35940739D01*
X55090143Y-36035977D01*
X55090143Y-36131215D01*
X55042524Y-36274072D01*
X54471096Y-36845500D01*
X55090143Y-36845500D01*
X50718542Y-50456126D02*
X50766161Y-50503745D01*
X50813780Y-50646602D01*
X50813780Y-50741840D01*
X50766161Y-50884698D01*
X50670923Y-50979936D01*
X50575685Y-51027555D01*
X50385209Y-51075174D01*
X50242352Y-51075174D01*
X50051876Y-51027555D01*
X49956638Y-50979936D01*
X49861400Y-50884698D01*
X49813780Y-50741840D01*
X49813780Y-50646602D01*
X49861400Y-50503745D01*
X49909019Y-50456126D01*
X50813780Y-49979936D02*
X50813780Y-49789460D01*
X50766161Y-49694221D01*
X50718542Y-49646602D01*
X50575685Y-49551364D01*
X50385209Y-49503745D01*
X50004257Y-49503745D01*
X49909019Y-49551364D01*
X49861400Y-49598983D01*
X49813780Y-49694221D01*
X49813780Y-49884698D01*
X49861400Y-49979936D01*
X49909019Y-50027555D01*
X50004257Y-50075174D01*
X50242352Y-50075174D01*
X50337590Y-50027555D01*
X50385209Y-49979936D01*
X50432828Y-49884698D01*
X50432828Y-49694221D01*
X50385209Y-49598983D01*
X50337590Y-49551364D01*
X50242352Y-49503745D01*
X50826480Y-48347926D02*
X50350290Y-48681260D01*
X50826480Y-48919355D02*
X49826480Y-48919355D01*
X49826480Y-48538402D01*
X49874100Y-48443164D01*
X49921719Y-48395545D01*
X50016957Y-48347926D01*
X50159814Y-48347926D01*
X50255052Y-48395545D01*
X50302671Y-48443164D01*
X50350290Y-48538402D01*
X50350290Y-48919355D01*
X49826480Y-47443164D02*
X49826480Y-47919355D01*
X50302671Y-47966974D01*
X50255052Y-47919355D01*
X50207433Y-47824117D01*
X50207433Y-47586021D01*
X50255052Y-47490783D01*
X50302671Y-47443164D01*
X50397909Y-47395545D01*
X50636004Y-47395545D01*
X50731242Y-47443164D01*
X50778861Y-47490783D01*
X50826480Y-47586021D01*
X50826480Y-47824117D01*
X50778861Y-47919355D01*
X50731242Y-47966974D01*
X48701213Y-43716200D02*
X48367880Y-43240010D01*
X48129784Y-43716200D02*
X48129784Y-42716200D01*
X48510737Y-42716200D01*
X48605975Y-42763820D01*
X48653594Y-42811439D01*
X48701213Y-42906677D01*
X48701213Y-43049534D01*
X48653594Y-43144772D01*
X48605975Y-43192391D01*
X48510737Y-43240010D01*
X48129784Y-43240010D01*
X49034546Y-42716200D02*
X49653594Y-42716200D01*
X49320260Y-43097153D01*
X49463118Y-43097153D01*
X49558356Y-43144772D01*
X49605975Y-43192391D01*
X49653594Y-43287629D01*
X49653594Y-43525724D01*
X49605975Y-43620962D01*
X49558356Y-43668581D01*
X49463118Y-43716200D01*
X49177403Y-43716200D01*
X49082165Y-43668581D01*
X49034546Y-43620962D01*
X44189295Y-42619680D02*
X44189295Y-43429204D01*
X44236914Y-43524442D01*
X44284533Y-43572061D01*
X44379771Y-43619680D01*
X44570247Y-43619680D01*
X44665485Y-43572061D01*
X44713104Y-43524442D01*
X44760723Y-43429204D01*
X44760723Y-42619680D01*
X45665485Y-42619680D02*
X45475009Y-42619680D01*
X45379771Y-42667300D01*
X45332152Y-42714919D01*
X45236914Y-42857776D01*
X45189295Y-43048252D01*
X45189295Y-43429204D01*
X45236914Y-43524442D01*
X45284533Y-43572061D01*
X45379771Y-43619680D01*
X45570247Y-43619680D01*
X45665485Y-43572061D01*
X45713104Y-43524442D01*
X45760723Y-43429204D01*
X45760723Y-43191109D01*
X45713104Y-43095871D01*
X45665485Y-43048252D01*
X45570247Y-43000633D01*
X45379771Y-43000633D01*
X45284533Y-43048252D01*
X45236914Y-43095871D01*
X45189295Y-43191109D01*
D10*
X69161226Y-49112124D02*
X68894560Y-48731172D01*
X68704083Y-49112124D02*
X68704083Y-48312124D01*
X69008845Y-48312124D01*
X69085036Y-48350220D01*
X69123131Y-48388315D01*
X69161226Y-48464505D01*
X69161226Y-48578791D01*
X69123131Y-48654981D01*
X69085036Y-48693077D01*
X69008845Y-48731172D01*
X68704083Y-48731172D01*
X69542179Y-49112124D02*
X69694560Y-49112124D01*
X69770750Y-49074029D01*
X69808845Y-49035934D01*
X69885036Y-48921648D01*
X69923131Y-48769267D01*
X69923131Y-48464505D01*
X69885036Y-48388315D01*
X69846940Y-48350220D01*
X69770750Y-48312124D01*
X69618369Y-48312124D01*
X69542179Y-48350220D01*
X69504083Y-48388315D01*
X69465988Y-48464505D01*
X69465988Y-48654981D01*
X69504083Y-48731172D01*
X69542179Y-48769267D01*
X69618369Y-48807362D01*
X69770750Y-48807362D01*
X69846940Y-48769267D01*
X69885036Y-48731172D01*
X69923131Y-48654981D01*
X69107934Y-51222864D02*
X68841267Y-50841912D01*
X68650791Y-51222864D02*
X68650791Y-50422864D01*
X68955553Y-50422864D01*
X69031743Y-50460960D01*
X69069839Y-50499055D01*
X69107934Y-50575245D01*
X69107934Y-50689531D01*
X69069839Y-50765721D01*
X69031743Y-50803817D01*
X68955553Y-50841912D01*
X68650791Y-50841912D01*
X69869839Y-51222864D02*
X69412696Y-51222864D01*
X69641267Y-51222864D02*
X69641267Y-50422864D01*
X69565077Y-50537150D01*
X69488886Y-50613340D01*
X69412696Y-50651436D01*
X70365077Y-50422864D02*
X70441267Y-50422864D01*
X70517458Y-50460960D01*
X70555553Y-50499055D01*
X70593648Y-50575245D01*
X70631743Y-50727626D01*
X70631743Y-50918102D01*
X70593648Y-51070483D01*
X70555553Y-51146674D01*
X70517458Y-51184769D01*
X70441267Y-51222864D01*
X70365077Y-51222864D01*
X70288886Y-51184769D01*
X70250791Y-51146674D01*
X70212696Y-51070483D01*
X70174600Y-50918102D01*
X70174600Y-50727626D01*
X70212696Y-50575245D01*
X70250791Y-50499055D01*
X70288886Y-50460960D01*
X70365077Y-50422864D01*
X69114677Y-53349085D02*
X68864677Y-52991942D01*
X68686105Y-53349085D02*
X68686105Y-52599085D01*
X68971820Y-52599085D01*
X69043248Y-52634800D01*
X69078962Y-52670514D01*
X69114677Y-52741942D01*
X69114677Y-52849085D01*
X69078962Y-52920514D01*
X69043248Y-52956228D01*
X68971820Y-52991942D01*
X68686105Y-52991942D01*
X69828962Y-53349085D02*
X69400391Y-53349085D01*
X69614677Y-53349085D02*
X69614677Y-52599085D01*
X69543248Y-52706228D01*
X69471820Y-52777657D01*
X69400391Y-52813371D01*
X70543248Y-53349085D02*
X70114677Y-53349085D01*
X70328962Y-53349085D02*
X70328962Y-52599085D01*
X70257534Y-52706228D01*
X70186105Y-52777657D01*
X70114677Y-52813371D01*
D11*
X32122704Y-32771340D02*
X32122704Y-31771340D01*
X32503657Y-31771340D01*
X32598895Y-31818960D01*
X32646514Y-31866579D01*
X32694133Y-31961817D01*
X32694133Y-32104674D01*
X32646514Y-32199912D01*
X32598895Y-32247531D01*
X32503657Y-32295150D01*
X32122704Y-32295150D01*
X33646514Y-32771340D02*
X33075085Y-32771340D01*
X33360800Y-32771340D02*
X33360800Y-31771340D01*
X33265561Y-31914198D01*
X33170323Y-32009436D01*
X33075085Y-32057055D01*
D12*
X61734323Y-34814464D02*
X61734323Y-34014464D01*
X61924800Y-34014464D01*
X62039085Y-34052560D01*
X62115276Y-34128750D01*
X62153371Y-34204940D01*
X62191466Y-34357321D01*
X62191466Y-34471607D01*
X62153371Y-34623988D01*
X62115276Y-34700179D01*
X62039085Y-34776369D01*
X61924800Y-34814464D01*
X61734323Y-34814464D01*
X62953371Y-34814464D02*
X62496228Y-34814464D01*
X62724800Y-34814464D02*
X62724800Y-34014464D01*
X62648609Y-34128750D01*
X62572419Y-34204940D01*
X62496228Y-34243036D01*
D11*
X73267380Y-45689855D02*
X72267380Y-45689855D01*
X72267380Y-45308902D01*
X72315000Y-45213664D01*
X72362619Y-45166045D01*
X72457857Y-45118426D01*
X72600714Y-45118426D01*
X72695952Y-45166045D01*
X72743571Y-45213664D01*
X72791190Y-45308902D01*
X72791190Y-45689855D01*
X72267380Y-44785093D02*
X72267380Y-44166045D01*
X72648333Y-44499379D01*
X72648333Y-44356521D01*
X72695952Y-44261283D01*
X72743571Y-44213664D01*
X72838809Y-44166045D01*
X73076904Y-44166045D01*
X73172142Y-44213664D01*
X73219761Y-44261283D01*
X73267380Y-44356521D01*
X73267380Y-44642236D01*
X73219761Y-44737474D01*
X73172142Y-44785093D01*
M02*
