G04 #@! TF.GenerationSoftware,KiCad,Pcbnew,5.1.5+dfsg1-2build2*
G04 #@! TF.CreationDate,2022-04-20T15:49:33-04:00*
G04 #@! TF.ProjectId,analog,616e616c-6f67-42e6-9b69-6361645f7063,rev?*
G04 #@! TF.SameCoordinates,Original*
G04 #@! TF.FileFunction,Copper,L1,Top*
G04 #@! TF.FilePolarity,Positive*
%FSLAX46Y46*%
G04 Gerber Fmt 4.6, Leading zero omitted, Abs format (unit mm)*
G04 Created by KiCad (PCBNEW 5.1.5+dfsg1-2build2) date 2022-04-20 15:49:33*
%MOMM*%
%LPD*%
G04 APERTURE LIST*
%ADD10C,0.100000*%
%ADD11O,1.700000X1.700000*%
%ADD12R,1.700000X1.700000*%
%ADD13R,1.600000X0.410000*%
%ADD14R,1.900000X0.800000*%
%ADD15R,1.560000X0.650000*%
%ADD16R,0.900000X1.200000*%
%ADD17O,1.300000X0.800000*%
%ADD18R,5.500000X1.750000*%
%ADD19C,0.762000*%
%ADD20C,0.660400*%
%ADD21C,0.761000*%
%ADD22C,0.203200*%
%ADD23C,0.762000*%
%ADD24C,0.381000*%
%ADD25C,1.016000*%
G04 APERTURE END LIST*
G04 #@! TA.AperFunction,SMDPad,CuDef*
D10*
G36*
X45398703Y-33823082D02*
G01*
X45413264Y-33825242D01*
X45427543Y-33828819D01*
X45441403Y-33833778D01*
X45454710Y-33840072D01*
X45467336Y-33847640D01*
X45479159Y-33856408D01*
X45490066Y-33866294D01*
X45499952Y-33877201D01*
X45508720Y-33889024D01*
X45516288Y-33901650D01*
X45522582Y-33914957D01*
X45527541Y-33928817D01*
X45531118Y-33943096D01*
X45533278Y-33957657D01*
X45534000Y-33972360D01*
X45534000Y-34272360D01*
X45533278Y-34287063D01*
X45531118Y-34301624D01*
X45527541Y-34315903D01*
X45522582Y-34329763D01*
X45516288Y-34343070D01*
X45508720Y-34355696D01*
X45499952Y-34367519D01*
X45490066Y-34378426D01*
X45479159Y-34388312D01*
X45467336Y-34397080D01*
X45454710Y-34404648D01*
X45441403Y-34410942D01*
X45427543Y-34415901D01*
X45413264Y-34419478D01*
X45398703Y-34421638D01*
X45384000Y-34422360D01*
X43734000Y-34422360D01*
X43719297Y-34421638D01*
X43704736Y-34419478D01*
X43690457Y-34415901D01*
X43676597Y-34410942D01*
X43663290Y-34404648D01*
X43650664Y-34397080D01*
X43638841Y-34388312D01*
X43627934Y-34378426D01*
X43618048Y-34367519D01*
X43609280Y-34355696D01*
X43601712Y-34343070D01*
X43595418Y-34329763D01*
X43590459Y-34315903D01*
X43586882Y-34301624D01*
X43584722Y-34287063D01*
X43584000Y-34272360D01*
X43584000Y-33972360D01*
X43584722Y-33957657D01*
X43586882Y-33943096D01*
X43590459Y-33928817D01*
X43595418Y-33914957D01*
X43601712Y-33901650D01*
X43609280Y-33889024D01*
X43618048Y-33877201D01*
X43627934Y-33866294D01*
X43638841Y-33856408D01*
X43650664Y-33847640D01*
X43663290Y-33840072D01*
X43676597Y-33833778D01*
X43690457Y-33828819D01*
X43704736Y-33825242D01*
X43719297Y-33823082D01*
X43734000Y-33822360D01*
X45384000Y-33822360D01*
X45398703Y-33823082D01*
G37*
G04 #@! TD.AperFunction*
G04 #@! TA.AperFunction,SMDPad,CuDef*
G36*
X45398703Y-35093082D02*
G01*
X45413264Y-35095242D01*
X45427543Y-35098819D01*
X45441403Y-35103778D01*
X45454710Y-35110072D01*
X45467336Y-35117640D01*
X45479159Y-35126408D01*
X45490066Y-35136294D01*
X45499952Y-35147201D01*
X45508720Y-35159024D01*
X45516288Y-35171650D01*
X45522582Y-35184957D01*
X45527541Y-35198817D01*
X45531118Y-35213096D01*
X45533278Y-35227657D01*
X45534000Y-35242360D01*
X45534000Y-35542360D01*
X45533278Y-35557063D01*
X45531118Y-35571624D01*
X45527541Y-35585903D01*
X45522582Y-35599763D01*
X45516288Y-35613070D01*
X45508720Y-35625696D01*
X45499952Y-35637519D01*
X45490066Y-35648426D01*
X45479159Y-35658312D01*
X45467336Y-35667080D01*
X45454710Y-35674648D01*
X45441403Y-35680942D01*
X45427543Y-35685901D01*
X45413264Y-35689478D01*
X45398703Y-35691638D01*
X45384000Y-35692360D01*
X43734000Y-35692360D01*
X43719297Y-35691638D01*
X43704736Y-35689478D01*
X43690457Y-35685901D01*
X43676597Y-35680942D01*
X43663290Y-35674648D01*
X43650664Y-35667080D01*
X43638841Y-35658312D01*
X43627934Y-35648426D01*
X43618048Y-35637519D01*
X43609280Y-35625696D01*
X43601712Y-35613070D01*
X43595418Y-35599763D01*
X43590459Y-35585903D01*
X43586882Y-35571624D01*
X43584722Y-35557063D01*
X43584000Y-35542360D01*
X43584000Y-35242360D01*
X43584722Y-35227657D01*
X43586882Y-35213096D01*
X43590459Y-35198817D01*
X43595418Y-35184957D01*
X43601712Y-35171650D01*
X43609280Y-35159024D01*
X43618048Y-35147201D01*
X43627934Y-35136294D01*
X43638841Y-35126408D01*
X43650664Y-35117640D01*
X43663290Y-35110072D01*
X43676597Y-35103778D01*
X43690457Y-35098819D01*
X43704736Y-35095242D01*
X43719297Y-35093082D01*
X43734000Y-35092360D01*
X45384000Y-35092360D01*
X45398703Y-35093082D01*
G37*
G04 #@! TD.AperFunction*
G04 #@! TA.AperFunction,SMDPad,CuDef*
G36*
X45398703Y-36363082D02*
G01*
X45413264Y-36365242D01*
X45427543Y-36368819D01*
X45441403Y-36373778D01*
X45454710Y-36380072D01*
X45467336Y-36387640D01*
X45479159Y-36396408D01*
X45490066Y-36406294D01*
X45499952Y-36417201D01*
X45508720Y-36429024D01*
X45516288Y-36441650D01*
X45522582Y-36454957D01*
X45527541Y-36468817D01*
X45531118Y-36483096D01*
X45533278Y-36497657D01*
X45534000Y-36512360D01*
X45534000Y-36812360D01*
X45533278Y-36827063D01*
X45531118Y-36841624D01*
X45527541Y-36855903D01*
X45522582Y-36869763D01*
X45516288Y-36883070D01*
X45508720Y-36895696D01*
X45499952Y-36907519D01*
X45490066Y-36918426D01*
X45479159Y-36928312D01*
X45467336Y-36937080D01*
X45454710Y-36944648D01*
X45441403Y-36950942D01*
X45427543Y-36955901D01*
X45413264Y-36959478D01*
X45398703Y-36961638D01*
X45384000Y-36962360D01*
X43734000Y-36962360D01*
X43719297Y-36961638D01*
X43704736Y-36959478D01*
X43690457Y-36955901D01*
X43676597Y-36950942D01*
X43663290Y-36944648D01*
X43650664Y-36937080D01*
X43638841Y-36928312D01*
X43627934Y-36918426D01*
X43618048Y-36907519D01*
X43609280Y-36895696D01*
X43601712Y-36883070D01*
X43595418Y-36869763D01*
X43590459Y-36855903D01*
X43586882Y-36841624D01*
X43584722Y-36827063D01*
X43584000Y-36812360D01*
X43584000Y-36512360D01*
X43584722Y-36497657D01*
X43586882Y-36483096D01*
X43590459Y-36468817D01*
X43595418Y-36454957D01*
X43601712Y-36441650D01*
X43609280Y-36429024D01*
X43618048Y-36417201D01*
X43627934Y-36406294D01*
X43638841Y-36396408D01*
X43650664Y-36387640D01*
X43663290Y-36380072D01*
X43676597Y-36373778D01*
X43690457Y-36368819D01*
X43704736Y-36365242D01*
X43719297Y-36363082D01*
X43734000Y-36362360D01*
X45384000Y-36362360D01*
X45398703Y-36363082D01*
G37*
G04 #@! TD.AperFunction*
G04 #@! TA.AperFunction,SMDPad,CuDef*
G36*
X45398703Y-37633082D02*
G01*
X45413264Y-37635242D01*
X45427543Y-37638819D01*
X45441403Y-37643778D01*
X45454710Y-37650072D01*
X45467336Y-37657640D01*
X45479159Y-37666408D01*
X45490066Y-37676294D01*
X45499952Y-37687201D01*
X45508720Y-37699024D01*
X45516288Y-37711650D01*
X45522582Y-37724957D01*
X45527541Y-37738817D01*
X45531118Y-37753096D01*
X45533278Y-37767657D01*
X45534000Y-37782360D01*
X45534000Y-38082360D01*
X45533278Y-38097063D01*
X45531118Y-38111624D01*
X45527541Y-38125903D01*
X45522582Y-38139763D01*
X45516288Y-38153070D01*
X45508720Y-38165696D01*
X45499952Y-38177519D01*
X45490066Y-38188426D01*
X45479159Y-38198312D01*
X45467336Y-38207080D01*
X45454710Y-38214648D01*
X45441403Y-38220942D01*
X45427543Y-38225901D01*
X45413264Y-38229478D01*
X45398703Y-38231638D01*
X45384000Y-38232360D01*
X43734000Y-38232360D01*
X43719297Y-38231638D01*
X43704736Y-38229478D01*
X43690457Y-38225901D01*
X43676597Y-38220942D01*
X43663290Y-38214648D01*
X43650664Y-38207080D01*
X43638841Y-38198312D01*
X43627934Y-38188426D01*
X43618048Y-38177519D01*
X43609280Y-38165696D01*
X43601712Y-38153070D01*
X43595418Y-38139763D01*
X43590459Y-38125903D01*
X43586882Y-38111624D01*
X43584722Y-38097063D01*
X43584000Y-38082360D01*
X43584000Y-37782360D01*
X43584722Y-37767657D01*
X43586882Y-37753096D01*
X43590459Y-37738817D01*
X43595418Y-37724957D01*
X43601712Y-37711650D01*
X43609280Y-37699024D01*
X43618048Y-37687201D01*
X43627934Y-37676294D01*
X43638841Y-37666408D01*
X43650664Y-37657640D01*
X43663290Y-37650072D01*
X43676597Y-37643778D01*
X43690457Y-37638819D01*
X43704736Y-37635242D01*
X43719297Y-37633082D01*
X43734000Y-37632360D01*
X45384000Y-37632360D01*
X45398703Y-37633082D01*
G37*
G04 #@! TD.AperFunction*
G04 #@! TA.AperFunction,SMDPad,CuDef*
G36*
X45398703Y-38903082D02*
G01*
X45413264Y-38905242D01*
X45427543Y-38908819D01*
X45441403Y-38913778D01*
X45454710Y-38920072D01*
X45467336Y-38927640D01*
X45479159Y-38936408D01*
X45490066Y-38946294D01*
X45499952Y-38957201D01*
X45508720Y-38969024D01*
X45516288Y-38981650D01*
X45522582Y-38994957D01*
X45527541Y-39008817D01*
X45531118Y-39023096D01*
X45533278Y-39037657D01*
X45534000Y-39052360D01*
X45534000Y-39352360D01*
X45533278Y-39367063D01*
X45531118Y-39381624D01*
X45527541Y-39395903D01*
X45522582Y-39409763D01*
X45516288Y-39423070D01*
X45508720Y-39435696D01*
X45499952Y-39447519D01*
X45490066Y-39458426D01*
X45479159Y-39468312D01*
X45467336Y-39477080D01*
X45454710Y-39484648D01*
X45441403Y-39490942D01*
X45427543Y-39495901D01*
X45413264Y-39499478D01*
X45398703Y-39501638D01*
X45384000Y-39502360D01*
X43734000Y-39502360D01*
X43719297Y-39501638D01*
X43704736Y-39499478D01*
X43690457Y-39495901D01*
X43676597Y-39490942D01*
X43663290Y-39484648D01*
X43650664Y-39477080D01*
X43638841Y-39468312D01*
X43627934Y-39458426D01*
X43618048Y-39447519D01*
X43609280Y-39435696D01*
X43601712Y-39423070D01*
X43595418Y-39409763D01*
X43590459Y-39395903D01*
X43586882Y-39381624D01*
X43584722Y-39367063D01*
X43584000Y-39352360D01*
X43584000Y-39052360D01*
X43584722Y-39037657D01*
X43586882Y-39023096D01*
X43590459Y-39008817D01*
X43595418Y-38994957D01*
X43601712Y-38981650D01*
X43609280Y-38969024D01*
X43618048Y-38957201D01*
X43627934Y-38946294D01*
X43638841Y-38936408D01*
X43650664Y-38927640D01*
X43663290Y-38920072D01*
X43676597Y-38913778D01*
X43690457Y-38908819D01*
X43704736Y-38905242D01*
X43719297Y-38903082D01*
X43734000Y-38902360D01*
X45384000Y-38902360D01*
X45398703Y-38903082D01*
G37*
G04 #@! TD.AperFunction*
G04 #@! TA.AperFunction,SMDPad,CuDef*
G36*
X45398703Y-40173082D02*
G01*
X45413264Y-40175242D01*
X45427543Y-40178819D01*
X45441403Y-40183778D01*
X45454710Y-40190072D01*
X45467336Y-40197640D01*
X45479159Y-40206408D01*
X45490066Y-40216294D01*
X45499952Y-40227201D01*
X45508720Y-40239024D01*
X45516288Y-40251650D01*
X45522582Y-40264957D01*
X45527541Y-40278817D01*
X45531118Y-40293096D01*
X45533278Y-40307657D01*
X45534000Y-40322360D01*
X45534000Y-40622360D01*
X45533278Y-40637063D01*
X45531118Y-40651624D01*
X45527541Y-40665903D01*
X45522582Y-40679763D01*
X45516288Y-40693070D01*
X45508720Y-40705696D01*
X45499952Y-40717519D01*
X45490066Y-40728426D01*
X45479159Y-40738312D01*
X45467336Y-40747080D01*
X45454710Y-40754648D01*
X45441403Y-40760942D01*
X45427543Y-40765901D01*
X45413264Y-40769478D01*
X45398703Y-40771638D01*
X45384000Y-40772360D01*
X43734000Y-40772360D01*
X43719297Y-40771638D01*
X43704736Y-40769478D01*
X43690457Y-40765901D01*
X43676597Y-40760942D01*
X43663290Y-40754648D01*
X43650664Y-40747080D01*
X43638841Y-40738312D01*
X43627934Y-40728426D01*
X43618048Y-40717519D01*
X43609280Y-40705696D01*
X43601712Y-40693070D01*
X43595418Y-40679763D01*
X43590459Y-40665903D01*
X43586882Y-40651624D01*
X43584722Y-40637063D01*
X43584000Y-40622360D01*
X43584000Y-40322360D01*
X43584722Y-40307657D01*
X43586882Y-40293096D01*
X43590459Y-40278817D01*
X43595418Y-40264957D01*
X43601712Y-40251650D01*
X43609280Y-40239024D01*
X43618048Y-40227201D01*
X43627934Y-40216294D01*
X43638841Y-40206408D01*
X43650664Y-40197640D01*
X43663290Y-40190072D01*
X43676597Y-40183778D01*
X43690457Y-40178819D01*
X43704736Y-40175242D01*
X43719297Y-40173082D01*
X43734000Y-40172360D01*
X45384000Y-40172360D01*
X45398703Y-40173082D01*
G37*
G04 #@! TD.AperFunction*
G04 #@! TA.AperFunction,SMDPad,CuDef*
G36*
X45398703Y-41443082D02*
G01*
X45413264Y-41445242D01*
X45427543Y-41448819D01*
X45441403Y-41453778D01*
X45454710Y-41460072D01*
X45467336Y-41467640D01*
X45479159Y-41476408D01*
X45490066Y-41486294D01*
X45499952Y-41497201D01*
X45508720Y-41509024D01*
X45516288Y-41521650D01*
X45522582Y-41534957D01*
X45527541Y-41548817D01*
X45531118Y-41563096D01*
X45533278Y-41577657D01*
X45534000Y-41592360D01*
X45534000Y-41892360D01*
X45533278Y-41907063D01*
X45531118Y-41921624D01*
X45527541Y-41935903D01*
X45522582Y-41949763D01*
X45516288Y-41963070D01*
X45508720Y-41975696D01*
X45499952Y-41987519D01*
X45490066Y-41998426D01*
X45479159Y-42008312D01*
X45467336Y-42017080D01*
X45454710Y-42024648D01*
X45441403Y-42030942D01*
X45427543Y-42035901D01*
X45413264Y-42039478D01*
X45398703Y-42041638D01*
X45384000Y-42042360D01*
X43734000Y-42042360D01*
X43719297Y-42041638D01*
X43704736Y-42039478D01*
X43690457Y-42035901D01*
X43676597Y-42030942D01*
X43663290Y-42024648D01*
X43650664Y-42017080D01*
X43638841Y-42008312D01*
X43627934Y-41998426D01*
X43618048Y-41987519D01*
X43609280Y-41975696D01*
X43601712Y-41963070D01*
X43595418Y-41949763D01*
X43590459Y-41935903D01*
X43586882Y-41921624D01*
X43584722Y-41907063D01*
X43584000Y-41892360D01*
X43584000Y-41592360D01*
X43584722Y-41577657D01*
X43586882Y-41563096D01*
X43590459Y-41548817D01*
X43595418Y-41534957D01*
X43601712Y-41521650D01*
X43609280Y-41509024D01*
X43618048Y-41497201D01*
X43627934Y-41486294D01*
X43638841Y-41476408D01*
X43650664Y-41467640D01*
X43663290Y-41460072D01*
X43676597Y-41453778D01*
X43690457Y-41448819D01*
X43704736Y-41445242D01*
X43719297Y-41443082D01*
X43734000Y-41442360D01*
X45384000Y-41442360D01*
X45398703Y-41443082D01*
G37*
G04 #@! TD.AperFunction*
G04 #@! TA.AperFunction,SMDPad,CuDef*
G36*
X50348703Y-41443082D02*
G01*
X50363264Y-41445242D01*
X50377543Y-41448819D01*
X50391403Y-41453778D01*
X50404710Y-41460072D01*
X50417336Y-41467640D01*
X50429159Y-41476408D01*
X50440066Y-41486294D01*
X50449952Y-41497201D01*
X50458720Y-41509024D01*
X50466288Y-41521650D01*
X50472582Y-41534957D01*
X50477541Y-41548817D01*
X50481118Y-41563096D01*
X50483278Y-41577657D01*
X50484000Y-41592360D01*
X50484000Y-41892360D01*
X50483278Y-41907063D01*
X50481118Y-41921624D01*
X50477541Y-41935903D01*
X50472582Y-41949763D01*
X50466288Y-41963070D01*
X50458720Y-41975696D01*
X50449952Y-41987519D01*
X50440066Y-41998426D01*
X50429159Y-42008312D01*
X50417336Y-42017080D01*
X50404710Y-42024648D01*
X50391403Y-42030942D01*
X50377543Y-42035901D01*
X50363264Y-42039478D01*
X50348703Y-42041638D01*
X50334000Y-42042360D01*
X48684000Y-42042360D01*
X48669297Y-42041638D01*
X48654736Y-42039478D01*
X48640457Y-42035901D01*
X48626597Y-42030942D01*
X48613290Y-42024648D01*
X48600664Y-42017080D01*
X48588841Y-42008312D01*
X48577934Y-41998426D01*
X48568048Y-41987519D01*
X48559280Y-41975696D01*
X48551712Y-41963070D01*
X48545418Y-41949763D01*
X48540459Y-41935903D01*
X48536882Y-41921624D01*
X48534722Y-41907063D01*
X48534000Y-41892360D01*
X48534000Y-41592360D01*
X48534722Y-41577657D01*
X48536882Y-41563096D01*
X48540459Y-41548817D01*
X48545418Y-41534957D01*
X48551712Y-41521650D01*
X48559280Y-41509024D01*
X48568048Y-41497201D01*
X48577934Y-41486294D01*
X48588841Y-41476408D01*
X48600664Y-41467640D01*
X48613290Y-41460072D01*
X48626597Y-41453778D01*
X48640457Y-41448819D01*
X48654736Y-41445242D01*
X48669297Y-41443082D01*
X48684000Y-41442360D01*
X50334000Y-41442360D01*
X50348703Y-41443082D01*
G37*
G04 #@! TD.AperFunction*
G04 #@! TA.AperFunction,SMDPad,CuDef*
G36*
X50348703Y-40173082D02*
G01*
X50363264Y-40175242D01*
X50377543Y-40178819D01*
X50391403Y-40183778D01*
X50404710Y-40190072D01*
X50417336Y-40197640D01*
X50429159Y-40206408D01*
X50440066Y-40216294D01*
X50449952Y-40227201D01*
X50458720Y-40239024D01*
X50466288Y-40251650D01*
X50472582Y-40264957D01*
X50477541Y-40278817D01*
X50481118Y-40293096D01*
X50483278Y-40307657D01*
X50484000Y-40322360D01*
X50484000Y-40622360D01*
X50483278Y-40637063D01*
X50481118Y-40651624D01*
X50477541Y-40665903D01*
X50472582Y-40679763D01*
X50466288Y-40693070D01*
X50458720Y-40705696D01*
X50449952Y-40717519D01*
X50440066Y-40728426D01*
X50429159Y-40738312D01*
X50417336Y-40747080D01*
X50404710Y-40754648D01*
X50391403Y-40760942D01*
X50377543Y-40765901D01*
X50363264Y-40769478D01*
X50348703Y-40771638D01*
X50334000Y-40772360D01*
X48684000Y-40772360D01*
X48669297Y-40771638D01*
X48654736Y-40769478D01*
X48640457Y-40765901D01*
X48626597Y-40760942D01*
X48613290Y-40754648D01*
X48600664Y-40747080D01*
X48588841Y-40738312D01*
X48577934Y-40728426D01*
X48568048Y-40717519D01*
X48559280Y-40705696D01*
X48551712Y-40693070D01*
X48545418Y-40679763D01*
X48540459Y-40665903D01*
X48536882Y-40651624D01*
X48534722Y-40637063D01*
X48534000Y-40622360D01*
X48534000Y-40322360D01*
X48534722Y-40307657D01*
X48536882Y-40293096D01*
X48540459Y-40278817D01*
X48545418Y-40264957D01*
X48551712Y-40251650D01*
X48559280Y-40239024D01*
X48568048Y-40227201D01*
X48577934Y-40216294D01*
X48588841Y-40206408D01*
X48600664Y-40197640D01*
X48613290Y-40190072D01*
X48626597Y-40183778D01*
X48640457Y-40178819D01*
X48654736Y-40175242D01*
X48669297Y-40173082D01*
X48684000Y-40172360D01*
X50334000Y-40172360D01*
X50348703Y-40173082D01*
G37*
G04 #@! TD.AperFunction*
G04 #@! TA.AperFunction,SMDPad,CuDef*
G36*
X50348703Y-38903082D02*
G01*
X50363264Y-38905242D01*
X50377543Y-38908819D01*
X50391403Y-38913778D01*
X50404710Y-38920072D01*
X50417336Y-38927640D01*
X50429159Y-38936408D01*
X50440066Y-38946294D01*
X50449952Y-38957201D01*
X50458720Y-38969024D01*
X50466288Y-38981650D01*
X50472582Y-38994957D01*
X50477541Y-39008817D01*
X50481118Y-39023096D01*
X50483278Y-39037657D01*
X50484000Y-39052360D01*
X50484000Y-39352360D01*
X50483278Y-39367063D01*
X50481118Y-39381624D01*
X50477541Y-39395903D01*
X50472582Y-39409763D01*
X50466288Y-39423070D01*
X50458720Y-39435696D01*
X50449952Y-39447519D01*
X50440066Y-39458426D01*
X50429159Y-39468312D01*
X50417336Y-39477080D01*
X50404710Y-39484648D01*
X50391403Y-39490942D01*
X50377543Y-39495901D01*
X50363264Y-39499478D01*
X50348703Y-39501638D01*
X50334000Y-39502360D01*
X48684000Y-39502360D01*
X48669297Y-39501638D01*
X48654736Y-39499478D01*
X48640457Y-39495901D01*
X48626597Y-39490942D01*
X48613290Y-39484648D01*
X48600664Y-39477080D01*
X48588841Y-39468312D01*
X48577934Y-39458426D01*
X48568048Y-39447519D01*
X48559280Y-39435696D01*
X48551712Y-39423070D01*
X48545418Y-39409763D01*
X48540459Y-39395903D01*
X48536882Y-39381624D01*
X48534722Y-39367063D01*
X48534000Y-39352360D01*
X48534000Y-39052360D01*
X48534722Y-39037657D01*
X48536882Y-39023096D01*
X48540459Y-39008817D01*
X48545418Y-38994957D01*
X48551712Y-38981650D01*
X48559280Y-38969024D01*
X48568048Y-38957201D01*
X48577934Y-38946294D01*
X48588841Y-38936408D01*
X48600664Y-38927640D01*
X48613290Y-38920072D01*
X48626597Y-38913778D01*
X48640457Y-38908819D01*
X48654736Y-38905242D01*
X48669297Y-38903082D01*
X48684000Y-38902360D01*
X50334000Y-38902360D01*
X50348703Y-38903082D01*
G37*
G04 #@! TD.AperFunction*
G04 #@! TA.AperFunction,SMDPad,CuDef*
G36*
X50348703Y-37633082D02*
G01*
X50363264Y-37635242D01*
X50377543Y-37638819D01*
X50391403Y-37643778D01*
X50404710Y-37650072D01*
X50417336Y-37657640D01*
X50429159Y-37666408D01*
X50440066Y-37676294D01*
X50449952Y-37687201D01*
X50458720Y-37699024D01*
X50466288Y-37711650D01*
X50472582Y-37724957D01*
X50477541Y-37738817D01*
X50481118Y-37753096D01*
X50483278Y-37767657D01*
X50484000Y-37782360D01*
X50484000Y-38082360D01*
X50483278Y-38097063D01*
X50481118Y-38111624D01*
X50477541Y-38125903D01*
X50472582Y-38139763D01*
X50466288Y-38153070D01*
X50458720Y-38165696D01*
X50449952Y-38177519D01*
X50440066Y-38188426D01*
X50429159Y-38198312D01*
X50417336Y-38207080D01*
X50404710Y-38214648D01*
X50391403Y-38220942D01*
X50377543Y-38225901D01*
X50363264Y-38229478D01*
X50348703Y-38231638D01*
X50334000Y-38232360D01*
X48684000Y-38232360D01*
X48669297Y-38231638D01*
X48654736Y-38229478D01*
X48640457Y-38225901D01*
X48626597Y-38220942D01*
X48613290Y-38214648D01*
X48600664Y-38207080D01*
X48588841Y-38198312D01*
X48577934Y-38188426D01*
X48568048Y-38177519D01*
X48559280Y-38165696D01*
X48551712Y-38153070D01*
X48545418Y-38139763D01*
X48540459Y-38125903D01*
X48536882Y-38111624D01*
X48534722Y-38097063D01*
X48534000Y-38082360D01*
X48534000Y-37782360D01*
X48534722Y-37767657D01*
X48536882Y-37753096D01*
X48540459Y-37738817D01*
X48545418Y-37724957D01*
X48551712Y-37711650D01*
X48559280Y-37699024D01*
X48568048Y-37687201D01*
X48577934Y-37676294D01*
X48588841Y-37666408D01*
X48600664Y-37657640D01*
X48613290Y-37650072D01*
X48626597Y-37643778D01*
X48640457Y-37638819D01*
X48654736Y-37635242D01*
X48669297Y-37633082D01*
X48684000Y-37632360D01*
X50334000Y-37632360D01*
X50348703Y-37633082D01*
G37*
G04 #@! TD.AperFunction*
G04 #@! TA.AperFunction,SMDPad,CuDef*
G36*
X50348703Y-36363082D02*
G01*
X50363264Y-36365242D01*
X50377543Y-36368819D01*
X50391403Y-36373778D01*
X50404710Y-36380072D01*
X50417336Y-36387640D01*
X50429159Y-36396408D01*
X50440066Y-36406294D01*
X50449952Y-36417201D01*
X50458720Y-36429024D01*
X50466288Y-36441650D01*
X50472582Y-36454957D01*
X50477541Y-36468817D01*
X50481118Y-36483096D01*
X50483278Y-36497657D01*
X50484000Y-36512360D01*
X50484000Y-36812360D01*
X50483278Y-36827063D01*
X50481118Y-36841624D01*
X50477541Y-36855903D01*
X50472582Y-36869763D01*
X50466288Y-36883070D01*
X50458720Y-36895696D01*
X50449952Y-36907519D01*
X50440066Y-36918426D01*
X50429159Y-36928312D01*
X50417336Y-36937080D01*
X50404710Y-36944648D01*
X50391403Y-36950942D01*
X50377543Y-36955901D01*
X50363264Y-36959478D01*
X50348703Y-36961638D01*
X50334000Y-36962360D01*
X48684000Y-36962360D01*
X48669297Y-36961638D01*
X48654736Y-36959478D01*
X48640457Y-36955901D01*
X48626597Y-36950942D01*
X48613290Y-36944648D01*
X48600664Y-36937080D01*
X48588841Y-36928312D01*
X48577934Y-36918426D01*
X48568048Y-36907519D01*
X48559280Y-36895696D01*
X48551712Y-36883070D01*
X48545418Y-36869763D01*
X48540459Y-36855903D01*
X48536882Y-36841624D01*
X48534722Y-36827063D01*
X48534000Y-36812360D01*
X48534000Y-36512360D01*
X48534722Y-36497657D01*
X48536882Y-36483096D01*
X48540459Y-36468817D01*
X48545418Y-36454957D01*
X48551712Y-36441650D01*
X48559280Y-36429024D01*
X48568048Y-36417201D01*
X48577934Y-36406294D01*
X48588841Y-36396408D01*
X48600664Y-36387640D01*
X48613290Y-36380072D01*
X48626597Y-36373778D01*
X48640457Y-36368819D01*
X48654736Y-36365242D01*
X48669297Y-36363082D01*
X48684000Y-36362360D01*
X50334000Y-36362360D01*
X50348703Y-36363082D01*
G37*
G04 #@! TD.AperFunction*
G04 #@! TA.AperFunction,SMDPad,CuDef*
G36*
X50348703Y-35093082D02*
G01*
X50363264Y-35095242D01*
X50377543Y-35098819D01*
X50391403Y-35103778D01*
X50404710Y-35110072D01*
X50417336Y-35117640D01*
X50429159Y-35126408D01*
X50440066Y-35136294D01*
X50449952Y-35147201D01*
X50458720Y-35159024D01*
X50466288Y-35171650D01*
X50472582Y-35184957D01*
X50477541Y-35198817D01*
X50481118Y-35213096D01*
X50483278Y-35227657D01*
X50484000Y-35242360D01*
X50484000Y-35542360D01*
X50483278Y-35557063D01*
X50481118Y-35571624D01*
X50477541Y-35585903D01*
X50472582Y-35599763D01*
X50466288Y-35613070D01*
X50458720Y-35625696D01*
X50449952Y-35637519D01*
X50440066Y-35648426D01*
X50429159Y-35658312D01*
X50417336Y-35667080D01*
X50404710Y-35674648D01*
X50391403Y-35680942D01*
X50377543Y-35685901D01*
X50363264Y-35689478D01*
X50348703Y-35691638D01*
X50334000Y-35692360D01*
X48684000Y-35692360D01*
X48669297Y-35691638D01*
X48654736Y-35689478D01*
X48640457Y-35685901D01*
X48626597Y-35680942D01*
X48613290Y-35674648D01*
X48600664Y-35667080D01*
X48588841Y-35658312D01*
X48577934Y-35648426D01*
X48568048Y-35637519D01*
X48559280Y-35625696D01*
X48551712Y-35613070D01*
X48545418Y-35599763D01*
X48540459Y-35585903D01*
X48536882Y-35571624D01*
X48534722Y-35557063D01*
X48534000Y-35542360D01*
X48534000Y-35242360D01*
X48534722Y-35227657D01*
X48536882Y-35213096D01*
X48540459Y-35198817D01*
X48545418Y-35184957D01*
X48551712Y-35171650D01*
X48559280Y-35159024D01*
X48568048Y-35147201D01*
X48577934Y-35136294D01*
X48588841Y-35126408D01*
X48600664Y-35117640D01*
X48613290Y-35110072D01*
X48626597Y-35103778D01*
X48640457Y-35098819D01*
X48654736Y-35095242D01*
X48669297Y-35093082D01*
X48684000Y-35092360D01*
X50334000Y-35092360D01*
X50348703Y-35093082D01*
G37*
G04 #@! TD.AperFunction*
G04 #@! TA.AperFunction,SMDPad,CuDef*
G36*
X50348703Y-33823082D02*
G01*
X50363264Y-33825242D01*
X50377543Y-33828819D01*
X50391403Y-33833778D01*
X50404710Y-33840072D01*
X50417336Y-33847640D01*
X50429159Y-33856408D01*
X50440066Y-33866294D01*
X50449952Y-33877201D01*
X50458720Y-33889024D01*
X50466288Y-33901650D01*
X50472582Y-33914957D01*
X50477541Y-33928817D01*
X50481118Y-33943096D01*
X50483278Y-33957657D01*
X50484000Y-33972360D01*
X50484000Y-34272360D01*
X50483278Y-34287063D01*
X50481118Y-34301624D01*
X50477541Y-34315903D01*
X50472582Y-34329763D01*
X50466288Y-34343070D01*
X50458720Y-34355696D01*
X50449952Y-34367519D01*
X50440066Y-34378426D01*
X50429159Y-34388312D01*
X50417336Y-34397080D01*
X50404710Y-34404648D01*
X50391403Y-34410942D01*
X50377543Y-34415901D01*
X50363264Y-34419478D01*
X50348703Y-34421638D01*
X50334000Y-34422360D01*
X48684000Y-34422360D01*
X48669297Y-34421638D01*
X48654736Y-34419478D01*
X48640457Y-34415901D01*
X48626597Y-34410942D01*
X48613290Y-34404648D01*
X48600664Y-34397080D01*
X48588841Y-34388312D01*
X48577934Y-34378426D01*
X48568048Y-34367519D01*
X48559280Y-34355696D01*
X48551712Y-34343070D01*
X48545418Y-34329763D01*
X48540459Y-34315903D01*
X48536882Y-34301624D01*
X48534722Y-34287063D01*
X48534000Y-34272360D01*
X48534000Y-33972360D01*
X48534722Y-33957657D01*
X48536882Y-33943096D01*
X48540459Y-33928817D01*
X48545418Y-33914957D01*
X48551712Y-33901650D01*
X48559280Y-33889024D01*
X48568048Y-33877201D01*
X48577934Y-33866294D01*
X48588841Y-33856408D01*
X48600664Y-33847640D01*
X48613290Y-33840072D01*
X48626597Y-33833778D01*
X48640457Y-33828819D01*
X48654736Y-33825242D01*
X48669297Y-33823082D01*
X48684000Y-33822360D01*
X50334000Y-33822360D01*
X50348703Y-33823082D01*
G37*
G04 #@! TD.AperFunction*
G04 #@! TA.AperFunction,SMDPad,CuDef*
G36*
X53553705Y-43267764D02*
G01*
X53577973Y-43271364D01*
X53601772Y-43277325D01*
X53624871Y-43285590D01*
X53647050Y-43296080D01*
X53668093Y-43308692D01*
X53687799Y-43323307D01*
X53705977Y-43339783D01*
X53722453Y-43357961D01*
X53737068Y-43377667D01*
X53749680Y-43398710D01*
X53760170Y-43420889D01*
X53768435Y-43443988D01*
X53774396Y-43467787D01*
X53777996Y-43492055D01*
X53779200Y-43516559D01*
X53779200Y-44166561D01*
X53777996Y-44191065D01*
X53774396Y-44215333D01*
X53768435Y-44239132D01*
X53760170Y-44262231D01*
X53749680Y-44284410D01*
X53737068Y-44305453D01*
X53722453Y-44325159D01*
X53705977Y-44343337D01*
X53687799Y-44359813D01*
X53668093Y-44374428D01*
X53647050Y-44387040D01*
X53624871Y-44397530D01*
X53601772Y-44405795D01*
X53577973Y-44411756D01*
X53553705Y-44415356D01*
X53529201Y-44416560D01*
X52629199Y-44416560D01*
X52604695Y-44415356D01*
X52580427Y-44411756D01*
X52556628Y-44405795D01*
X52533529Y-44397530D01*
X52511350Y-44387040D01*
X52490307Y-44374428D01*
X52470601Y-44359813D01*
X52452423Y-44343337D01*
X52435947Y-44325159D01*
X52421332Y-44305453D01*
X52408720Y-44284410D01*
X52398230Y-44262231D01*
X52389965Y-44239132D01*
X52384004Y-44215333D01*
X52380404Y-44191065D01*
X52379200Y-44166561D01*
X52379200Y-43516559D01*
X52380404Y-43492055D01*
X52384004Y-43467787D01*
X52389965Y-43443988D01*
X52398230Y-43420889D01*
X52408720Y-43398710D01*
X52421332Y-43377667D01*
X52435947Y-43357961D01*
X52452423Y-43339783D01*
X52470601Y-43323307D01*
X52490307Y-43308692D01*
X52511350Y-43296080D01*
X52533529Y-43285590D01*
X52556628Y-43277325D01*
X52580427Y-43271364D01*
X52604695Y-43267764D01*
X52629199Y-43266560D01*
X53529201Y-43266560D01*
X53553705Y-43267764D01*
G37*
G04 #@! TD.AperFunction*
G04 #@! TA.AperFunction,SMDPad,CuDef*
G36*
X53553705Y-45317764D02*
G01*
X53577973Y-45321364D01*
X53601772Y-45327325D01*
X53624871Y-45335590D01*
X53647050Y-45346080D01*
X53668093Y-45358692D01*
X53687799Y-45373307D01*
X53705977Y-45389783D01*
X53722453Y-45407961D01*
X53737068Y-45427667D01*
X53749680Y-45448710D01*
X53760170Y-45470889D01*
X53768435Y-45493988D01*
X53774396Y-45517787D01*
X53777996Y-45542055D01*
X53779200Y-45566559D01*
X53779200Y-46216561D01*
X53777996Y-46241065D01*
X53774396Y-46265333D01*
X53768435Y-46289132D01*
X53760170Y-46312231D01*
X53749680Y-46334410D01*
X53737068Y-46355453D01*
X53722453Y-46375159D01*
X53705977Y-46393337D01*
X53687799Y-46409813D01*
X53668093Y-46424428D01*
X53647050Y-46437040D01*
X53624871Y-46447530D01*
X53601772Y-46455795D01*
X53577973Y-46461756D01*
X53553705Y-46465356D01*
X53529201Y-46466560D01*
X52629199Y-46466560D01*
X52604695Y-46465356D01*
X52580427Y-46461756D01*
X52556628Y-46455795D01*
X52533529Y-46447530D01*
X52511350Y-46437040D01*
X52490307Y-46424428D01*
X52470601Y-46409813D01*
X52452423Y-46393337D01*
X52435947Y-46375159D01*
X52421332Y-46355453D01*
X52408720Y-46334410D01*
X52398230Y-46312231D01*
X52389965Y-46289132D01*
X52384004Y-46265333D01*
X52380404Y-46241065D01*
X52379200Y-46216561D01*
X52379200Y-45566559D01*
X52380404Y-45542055D01*
X52384004Y-45517787D01*
X52389965Y-45493988D01*
X52398230Y-45470889D01*
X52408720Y-45448710D01*
X52421332Y-45427667D01*
X52435947Y-45407961D01*
X52452423Y-45389783D01*
X52470601Y-45373307D01*
X52490307Y-45358692D01*
X52511350Y-45346080D01*
X52533529Y-45335590D01*
X52556628Y-45327325D01*
X52580427Y-45321364D01*
X52604695Y-45317764D01*
X52629199Y-45316560D01*
X53529201Y-45316560D01*
X53553705Y-45317764D01*
G37*
G04 #@! TD.AperFunction*
D11*
X66617400Y-45730160D03*
X66617400Y-43190160D03*
X66617400Y-40650160D03*
D12*
X66617400Y-38110160D03*
G04 #@! TA.AperFunction,SMDPad,CuDef*
D10*
G36*
X56164903Y-50710682D02*
G01*
X56179464Y-50712842D01*
X56193743Y-50716419D01*
X56207603Y-50721378D01*
X56220910Y-50727672D01*
X56233536Y-50735240D01*
X56245359Y-50744008D01*
X56256266Y-50753894D01*
X56266152Y-50764801D01*
X56274920Y-50776624D01*
X56282488Y-50789250D01*
X56288782Y-50802557D01*
X56293741Y-50816417D01*
X56297318Y-50830696D01*
X56299478Y-50845257D01*
X56300200Y-50859960D01*
X56300200Y-52509960D01*
X56299478Y-52524663D01*
X56297318Y-52539224D01*
X56293741Y-52553503D01*
X56288782Y-52567363D01*
X56282488Y-52580670D01*
X56274920Y-52593296D01*
X56266152Y-52605119D01*
X56256266Y-52616026D01*
X56245359Y-52625912D01*
X56233536Y-52634680D01*
X56220910Y-52642248D01*
X56207603Y-52648542D01*
X56193743Y-52653501D01*
X56179464Y-52657078D01*
X56164903Y-52659238D01*
X56150200Y-52659960D01*
X55850200Y-52659960D01*
X55835497Y-52659238D01*
X55820936Y-52657078D01*
X55806657Y-52653501D01*
X55792797Y-52648542D01*
X55779490Y-52642248D01*
X55766864Y-52634680D01*
X55755041Y-52625912D01*
X55744134Y-52616026D01*
X55734248Y-52605119D01*
X55725480Y-52593296D01*
X55717912Y-52580670D01*
X55711618Y-52567363D01*
X55706659Y-52553503D01*
X55703082Y-52539224D01*
X55700922Y-52524663D01*
X55700200Y-52509960D01*
X55700200Y-50859960D01*
X55700922Y-50845257D01*
X55703082Y-50830696D01*
X55706659Y-50816417D01*
X55711618Y-50802557D01*
X55717912Y-50789250D01*
X55725480Y-50776624D01*
X55734248Y-50764801D01*
X55744134Y-50753894D01*
X55755041Y-50744008D01*
X55766864Y-50735240D01*
X55779490Y-50727672D01*
X55792797Y-50721378D01*
X55806657Y-50716419D01*
X55820936Y-50712842D01*
X55835497Y-50710682D01*
X55850200Y-50709960D01*
X56150200Y-50709960D01*
X56164903Y-50710682D01*
G37*
G04 #@! TD.AperFunction*
G04 #@! TA.AperFunction,SMDPad,CuDef*
G36*
X57434903Y-50710682D02*
G01*
X57449464Y-50712842D01*
X57463743Y-50716419D01*
X57477603Y-50721378D01*
X57490910Y-50727672D01*
X57503536Y-50735240D01*
X57515359Y-50744008D01*
X57526266Y-50753894D01*
X57536152Y-50764801D01*
X57544920Y-50776624D01*
X57552488Y-50789250D01*
X57558782Y-50802557D01*
X57563741Y-50816417D01*
X57567318Y-50830696D01*
X57569478Y-50845257D01*
X57570200Y-50859960D01*
X57570200Y-52509960D01*
X57569478Y-52524663D01*
X57567318Y-52539224D01*
X57563741Y-52553503D01*
X57558782Y-52567363D01*
X57552488Y-52580670D01*
X57544920Y-52593296D01*
X57536152Y-52605119D01*
X57526266Y-52616026D01*
X57515359Y-52625912D01*
X57503536Y-52634680D01*
X57490910Y-52642248D01*
X57477603Y-52648542D01*
X57463743Y-52653501D01*
X57449464Y-52657078D01*
X57434903Y-52659238D01*
X57420200Y-52659960D01*
X57120200Y-52659960D01*
X57105497Y-52659238D01*
X57090936Y-52657078D01*
X57076657Y-52653501D01*
X57062797Y-52648542D01*
X57049490Y-52642248D01*
X57036864Y-52634680D01*
X57025041Y-52625912D01*
X57014134Y-52616026D01*
X57004248Y-52605119D01*
X56995480Y-52593296D01*
X56987912Y-52580670D01*
X56981618Y-52567363D01*
X56976659Y-52553503D01*
X56973082Y-52539224D01*
X56970922Y-52524663D01*
X56970200Y-52509960D01*
X56970200Y-50859960D01*
X56970922Y-50845257D01*
X56973082Y-50830696D01*
X56976659Y-50816417D01*
X56981618Y-50802557D01*
X56987912Y-50789250D01*
X56995480Y-50776624D01*
X57004248Y-50764801D01*
X57014134Y-50753894D01*
X57025041Y-50744008D01*
X57036864Y-50735240D01*
X57049490Y-50727672D01*
X57062797Y-50721378D01*
X57076657Y-50716419D01*
X57090936Y-50712842D01*
X57105497Y-50710682D01*
X57120200Y-50709960D01*
X57420200Y-50709960D01*
X57434903Y-50710682D01*
G37*
G04 #@! TD.AperFunction*
G04 #@! TA.AperFunction,SMDPad,CuDef*
G36*
X58704903Y-50710682D02*
G01*
X58719464Y-50712842D01*
X58733743Y-50716419D01*
X58747603Y-50721378D01*
X58760910Y-50727672D01*
X58773536Y-50735240D01*
X58785359Y-50744008D01*
X58796266Y-50753894D01*
X58806152Y-50764801D01*
X58814920Y-50776624D01*
X58822488Y-50789250D01*
X58828782Y-50802557D01*
X58833741Y-50816417D01*
X58837318Y-50830696D01*
X58839478Y-50845257D01*
X58840200Y-50859960D01*
X58840200Y-52509960D01*
X58839478Y-52524663D01*
X58837318Y-52539224D01*
X58833741Y-52553503D01*
X58828782Y-52567363D01*
X58822488Y-52580670D01*
X58814920Y-52593296D01*
X58806152Y-52605119D01*
X58796266Y-52616026D01*
X58785359Y-52625912D01*
X58773536Y-52634680D01*
X58760910Y-52642248D01*
X58747603Y-52648542D01*
X58733743Y-52653501D01*
X58719464Y-52657078D01*
X58704903Y-52659238D01*
X58690200Y-52659960D01*
X58390200Y-52659960D01*
X58375497Y-52659238D01*
X58360936Y-52657078D01*
X58346657Y-52653501D01*
X58332797Y-52648542D01*
X58319490Y-52642248D01*
X58306864Y-52634680D01*
X58295041Y-52625912D01*
X58284134Y-52616026D01*
X58274248Y-52605119D01*
X58265480Y-52593296D01*
X58257912Y-52580670D01*
X58251618Y-52567363D01*
X58246659Y-52553503D01*
X58243082Y-52539224D01*
X58240922Y-52524663D01*
X58240200Y-52509960D01*
X58240200Y-50859960D01*
X58240922Y-50845257D01*
X58243082Y-50830696D01*
X58246659Y-50816417D01*
X58251618Y-50802557D01*
X58257912Y-50789250D01*
X58265480Y-50776624D01*
X58274248Y-50764801D01*
X58284134Y-50753894D01*
X58295041Y-50744008D01*
X58306864Y-50735240D01*
X58319490Y-50727672D01*
X58332797Y-50721378D01*
X58346657Y-50716419D01*
X58360936Y-50712842D01*
X58375497Y-50710682D01*
X58390200Y-50709960D01*
X58690200Y-50709960D01*
X58704903Y-50710682D01*
G37*
G04 #@! TD.AperFunction*
G04 #@! TA.AperFunction,SMDPad,CuDef*
G36*
X59974903Y-50710682D02*
G01*
X59989464Y-50712842D01*
X60003743Y-50716419D01*
X60017603Y-50721378D01*
X60030910Y-50727672D01*
X60043536Y-50735240D01*
X60055359Y-50744008D01*
X60066266Y-50753894D01*
X60076152Y-50764801D01*
X60084920Y-50776624D01*
X60092488Y-50789250D01*
X60098782Y-50802557D01*
X60103741Y-50816417D01*
X60107318Y-50830696D01*
X60109478Y-50845257D01*
X60110200Y-50859960D01*
X60110200Y-52509960D01*
X60109478Y-52524663D01*
X60107318Y-52539224D01*
X60103741Y-52553503D01*
X60098782Y-52567363D01*
X60092488Y-52580670D01*
X60084920Y-52593296D01*
X60076152Y-52605119D01*
X60066266Y-52616026D01*
X60055359Y-52625912D01*
X60043536Y-52634680D01*
X60030910Y-52642248D01*
X60017603Y-52648542D01*
X60003743Y-52653501D01*
X59989464Y-52657078D01*
X59974903Y-52659238D01*
X59960200Y-52659960D01*
X59660200Y-52659960D01*
X59645497Y-52659238D01*
X59630936Y-52657078D01*
X59616657Y-52653501D01*
X59602797Y-52648542D01*
X59589490Y-52642248D01*
X59576864Y-52634680D01*
X59565041Y-52625912D01*
X59554134Y-52616026D01*
X59544248Y-52605119D01*
X59535480Y-52593296D01*
X59527912Y-52580670D01*
X59521618Y-52567363D01*
X59516659Y-52553503D01*
X59513082Y-52539224D01*
X59510922Y-52524663D01*
X59510200Y-52509960D01*
X59510200Y-50859960D01*
X59510922Y-50845257D01*
X59513082Y-50830696D01*
X59516659Y-50816417D01*
X59521618Y-50802557D01*
X59527912Y-50789250D01*
X59535480Y-50776624D01*
X59544248Y-50764801D01*
X59554134Y-50753894D01*
X59565041Y-50744008D01*
X59576864Y-50735240D01*
X59589490Y-50727672D01*
X59602797Y-50721378D01*
X59616657Y-50716419D01*
X59630936Y-50712842D01*
X59645497Y-50710682D01*
X59660200Y-50709960D01*
X59960200Y-50709960D01*
X59974903Y-50710682D01*
G37*
G04 #@! TD.AperFunction*
G04 #@! TA.AperFunction,SMDPad,CuDef*
G36*
X61244903Y-50710682D02*
G01*
X61259464Y-50712842D01*
X61273743Y-50716419D01*
X61287603Y-50721378D01*
X61300910Y-50727672D01*
X61313536Y-50735240D01*
X61325359Y-50744008D01*
X61336266Y-50753894D01*
X61346152Y-50764801D01*
X61354920Y-50776624D01*
X61362488Y-50789250D01*
X61368782Y-50802557D01*
X61373741Y-50816417D01*
X61377318Y-50830696D01*
X61379478Y-50845257D01*
X61380200Y-50859960D01*
X61380200Y-52509960D01*
X61379478Y-52524663D01*
X61377318Y-52539224D01*
X61373741Y-52553503D01*
X61368782Y-52567363D01*
X61362488Y-52580670D01*
X61354920Y-52593296D01*
X61346152Y-52605119D01*
X61336266Y-52616026D01*
X61325359Y-52625912D01*
X61313536Y-52634680D01*
X61300910Y-52642248D01*
X61287603Y-52648542D01*
X61273743Y-52653501D01*
X61259464Y-52657078D01*
X61244903Y-52659238D01*
X61230200Y-52659960D01*
X60930200Y-52659960D01*
X60915497Y-52659238D01*
X60900936Y-52657078D01*
X60886657Y-52653501D01*
X60872797Y-52648542D01*
X60859490Y-52642248D01*
X60846864Y-52634680D01*
X60835041Y-52625912D01*
X60824134Y-52616026D01*
X60814248Y-52605119D01*
X60805480Y-52593296D01*
X60797912Y-52580670D01*
X60791618Y-52567363D01*
X60786659Y-52553503D01*
X60783082Y-52539224D01*
X60780922Y-52524663D01*
X60780200Y-52509960D01*
X60780200Y-50859960D01*
X60780922Y-50845257D01*
X60783082Y-50830696D01*
X60786659Y-50816417D01*
X60791618Y-50802557D01*
X60797912Y-50789250D01*
X60805480Y-50776624D01*
X60814248Y-50764801D01*
X60824134Y-50753894D01*
X60835041Y-50744008D01*
X60846864Y-50735240D01*
X60859490Y-50727672D01*
X60872797Y-50721378D01*
X60886657Y-50716419D01*
X60900936Y-50712842D01*
X60915497Y-50710682D01*
X60930200Y-50709960D01*
X61230200Y-50709960D01*
X61244903Y-50710682D01*
G37*
G04 #@! TD.AperFunction*
G04 #@! TA.AperFunction,SMDPad,CuDef*
G36*
X62514903Y-50710682D02*
G01*
X62529464Y-50712842D01*
X62543743Y-50716419D01*
X62557603Y-50721378D01*
X62570910Y-50727672D01*
X62583536Y-50735240D01*
X62595359Y-50744008D01*
X62606266Y-50753894D01*
X62616152Y-50764801D01*
X62624920Y-50776624D01*
X62632488Y-50789250D01*
X62638782Y-50802557D01*
X62643741Y-50816417D01*
X62647318Y-50830696D01*
X62649478Y-50845257D01*
X62650200Y-50859960D01*
X62650200Y-52509960D01*
X62649478Y-52524663D01*
X62647318Y-52539224D01*
X62643741Y-52553503D01*
X62638782Y-52567363D01*
X62632488Y-52580670D01*
X62624920Y-52593296D01*
X62616152Y-52605119D01*
X62606266Y-52616026D01*
X62595359Y-52625912D01*
X62583536Y-52634680D01*
X62570910Y-52642248D01*
X62557603Y-52648542D01*
X62543743Y-52653501D01*
X62529464Y-52657078D01*
X62514903Y-52659238D01*
X62500200Y-52659960D01*
X62200200Y-52659960D01*
X62185497Y-52659238D01*
X62170936Y-52657078D01*
X62156657Y-52653501D01*
X62142797Y-52648542D01*
X62129490Y-52642248D01*
X62116864Y-52634680D01*
X62105041Y-52625912D01*
X62094134Y-52616026D01*
X62084248Y-52605119D01*
X62075480Y-52593296D01*
X62067912Y-52580670D01*
X62061618Y-52567363D01*
X62056659Y-52553503D01*
X62053082Y-52539224D01*
X62050922Y-52524663D01*
X62050200Y-52509960D01*
X62050200Y-50859960D01*
X62050922Y-50845257D01*
X62053082Y-50830696D01*
X62056659Y-50816417D01*
X62061618Y-50802557D01*
X62067912Y-50789250D01*
X62075480Y-50776624D01*
X62084248Y-50764801D01*
X62094134Y-50753894D01*
X62105041Y-50744008D01*
X62116864Y-50735240D01*
X62129490Y-50727672D01*
X62142797Y-50721378D01*
X62156657Y-50716419D01*
X62170936Y-50712842D01*
X62185497Y-50710682D01*
X62200200Y-50709960D01*
X62500200Y-50709960D01*
X62514903Y-50710682D01*
G37*
G04 #@! TD.AperFunction*
G04 #@! TA.AperFunction,SMDPad,CuDef*
G36*
X63784903Y-50710682D02*
G01*
X63799464Y-50712842D01*
X63813743Y-50716419D01*
X63827603Y-50721378D01*
X63840910Y-50727672D01*
X63853536Y-50735240D01*
X63865359Y-50744008D01*
X63876266Y-50753894D01*
X63886152Y-50764801D01*
X63894920Y-50776624D01*
X63902488Y-50789250D01*
X63908782Y-50802557D01*
X63913741Y-50816417D01*
X63917318Y-50830696D01*
X63919478Y-50845257D01*
X63920200Y-50859960D01*
X63920200Y-52509960D01*
X63919478Y-52524663D01*
X63917318Y-52539224D01*
X63913741Y-52553503D01*
X63908782Y-52567363D01*
X63902488Y-52580670D01*
X63894920Y-52593296D01*
X63886152Y-52605119D01*
X63876266Y-52616026D01*
X63865359Y-52625912D01*
X63853536Y-52634680D01*
X63840910Y-52642248D01*
X63827603Y-52648542D01*
X63813743Y-52653501D01*
X63799464Y-52657078D01*
X63784903Y-52659238D01*
X63770200Y-52659960D01*
X63470200Y-52659960D01*
X63455497Y-52659238D01*
X63440936Y-52657078D01*
X63426657Y-52653501D01*
X63412797Y-52648542D01*
X63399490Y-52642248D01*
X63386864Y-52634680D01*
X63375041Y-52625912D01*
X63364134Y-52616026D01*
X63354248Y-52605119D01*
X63345480Y-52593296D01*
X63337912Y-52580670D01*
X63331618Y-52567363D01*
X63326659Y-52553503D01*
X63323082Y-52539224D01*
X63320922Y-52524663D01*
X63320200Y-52509960D01*
X63320200Y-50859960D01*
X63320922Y-50845257D01*
X63323082Y-50830696D01*
X63326659Y-50816417D01*
X63331618Y-50802557D01*
X63337912Y-50789250D01*
X63345480Y-50776624D01*
X63354248Y-50764801D01*
X63364134Y-50753894D01*
X63375041Y-50744008D01*
X63386864Y-50735240D01*
X63399490Y-50727672D01*
X63412797Y-50721378D01*
X63426657Y-50716419D01*
X63440936Y-50712842D01*
X63455497Y-50710682D01*
X63470200Y-50709960D01*
X63770200Y-50709960D01*
X63784903Y-50710682D01*
G37*
G04 #@! TD.AperFunction*
G04 #@! TA.AperFunction,SMDPad,CuDef*
G36*
X63784903Y-45760682D02*
G01*
X63799464Y-45762842D01*
X63813743Y-45766419D01*
X63827603Y-45771378D01*
X63840910Y-45777672D01*
X63853536Y-45785240D01*
X63865359Y-45794008D01*
X63876266Y-45803894D01*
X63886152Y-45814801D01*
X63894920Y-45826624D01*
X63902488Y-45839250D01*
X63908782Y-45852557D01*
X63913741Y-45866417D01*
X63917318Y-45880696D01*
X63919478Y-45895257D01*
X63920200Y-45909960D01*
X63920200Y-47559960D01*
X63919478Y-47574663D01*
X63917318Y-47589224D01*
X63913741Y-47603503D01*
X63908782Y-47617363D01*
X63902488Y-47630670D01*
X63894920Y-47643296D01*
X63886152Y-47655119D01*
X63876266Y-47666026D01*
X63865359Y-47675912D01*
X63853536Y-47684680D01*
X63840910Y-47692248D01*
X63827603Y-47698542D01*
X63813743Y-47703501D01*
X63799464Y-47707078D01*
X63784903Y-47709238D01*
X63770200Y-47709960D01*
X63470200Y-47709960D01*
X63455497Y-47709238D01*
X63440936Y-47707078D01*
X63426657Y-47703501D01*
X63412797Y-47698542D01*
X63399490Y-47692248D01*
X63386864Y-47684680D01*
X63375041Y-47675912D01*
X63364134Y-47666026D01*
X63354248Y-47655119D01*
X63345480Y-47643296D01*
X63337912Y-47630670D01*
X63331618Y-47617363D01*
X63326659Y-47603503D01*
X63323082Y-47589224D01*
X63320922Y-47574663D01*
X63320200Y-47559960D01*
X63320200Y-45909960D01*
X63320922Y-45895257D01*
X63323082Y-45880696D01*
X63326659Y-45866417D01*
X63331618Y-45852557D01*
X63337912Y-45839250D01*
X63345480Y-45826624D01*
X63354248Y-45814801D01*
X63364134Y-45803894D01*
X63375041Y-45794008D01*
X63386864Y-45785240D01*
X63399490Y-45777672D01*
X63412797Y-45771378D01*
X63426657Y-45766419D01*
X63440936Y-45762842D01*
X63455497Y-45760682D01*
X63470200Y-45759960D01*
X63770200Y-45759960D01*
X63784903Y-45760682D01*
G37*
G04 #@! TD.AperFunction*
G04 #@! TA.AperFunction,SMDPad,CuDef*
G36*
X62514903Y-45760682D02*
G01*
X62529464Y-45762842D01*
X62543743Y-45766419D01*
X62557603Y-45771378D01*
X62570910Y-45777672D01*
X62583536Y-45785240D01*
X62595359Y-45794008D01*
X62606266Y-45803894D01*
X62616152Y-45814801D01*
X62624920Y-45826624D01*
X62632488Y-45839250D01*
X62638782Y-45852557D01*
X62643741Y-45866417D01*
X62647318Y-45880696D01*
X62649478Y-45895257D01*
X62650200Y-45909960D01*
X62650200Y-47559960D01*
X62649478Y-47574663D01*
X62647318Y-47589224D01*
X62643741Y-47603503D01*
X62638782Y-47617363D01*
X62632488Y-47630670D01*
X62624920Y-47643296D01*
X62616152Y-47655119D01*
X62606266Y-47666026D01*
X62595359Y-47675912D01*
X62583536Y-47684680D01*
X62570910Y-47692248D01*
X62557603Y-47698542D01*
X62543743Y-47703501D01*
X62529464Y-47707078D01*
X62514903Y-47709238D01*
X62500200Y-47709960D01*
X62200200Y-47709960D01*
X62185497Y-47709238D01*
X62170936Y-47707078D01*
X62156657Y-47703501D01*
X62142797Y-47698542D01*
X62129490Y-47692248D01*
X62116864Y-47684680D01*
X62105041Y-47675912D01*
X62094134Y-47666026D01*
X62084248Y-47655119D01*
X62075480Y-47643296D01*
X62067912Y-47630670D01*
X62061618Y-47617363D01*
X62056659Y-47603503D01*
X62053082Y-47589224D01*
X62050922Y-47574663D01*
X62050200Y-47559960D01*
X62050200Y-45909960D01*
X62050922Y-45895257D01*
X62053082Y-45880696D01*
X62056659Y-45866417D01*
X62061618Y-45852557D01*
X62067912Y-45839250D01*
X62075480Y-45826624D01*
X62084248Y-45814801D01*
X62094134Y-45803894D01*
X62105041Y-45794008D01*
X62116864Y-45785240D01*
X62129490Y-45777672D01*
X62142797Y-45771378D01*
X62156657Y-45766419D01*
X62170936Y-45762842D01*
X62185497Y-45760682D01*
X62200200Y-45759960D01*
X62500200Y-45759960D01*
X62514903Y-45760682D01*
G37*
G04 #@! TD.AperFunction*
G04 #@! TA.AperFunction,SMDPad,CuDef*
G36*
X61244903Y-45760682D02*
G01*
X61259464Y-45762842D01*
X61273743Y-45766419D01*
X61287603Y-45771378D01*
X61300910Y-45777672D01*
X61313536Y-45785240D01*
X61325359Y-45794008D01*
X61336266Y-45803894D01*
X61346152Y-45814801D01*
X61354920Y-45826624D01*
X61362488Y-45839250D01*
X61368782Y-45852557D01*
X61373741Y-45866417D01*
X61377318Y-45880696D01*
X61379478Y-45895257D01*
X61380200Y-45909960D01*
X61380200Y-47559960D01*
X61379478Y-47574663D01*
X61377318Y-47589224D01*
X61373741Y-47603503D01*
X61368782Y-47617363D01*
X61362488Y-47630670D01*
X61354920Y-47643296D01*
X61346152Y-47655119D01*
X61336266Y-47666026D01*
X61325359Y-47675912D01*
X61313536Y-47684680D01*
X61300910Y-47692248D01*
X61287603Y-47698542D01*
X61273743Y-47703501D01*
X61259464Y-47707078D01*
X61244903Y-47709238D01*
X61230200Y-47709960D01*
X60930200Y-47709960D01*
X60915497Y-47709238D01*
X60900936Y-47707078D01*
X60886657Y-47703501D01*
X60872797Y-47698542D01*
X60859490Y-47692248D01*
X60846864Y-47684680D01*
X60835041Y-47675912D01*
X60824134Y-47666026D01*
X60814248Y-47655119D01*
X60805480Y-47643296D01*
X60797912Y-47630670D01*
X60791618Y-47617363D01*
X60786659Y-47603503D01*
X60783082Y-47589224D01*
X60780922Y-47574663D01*
X60780200Y-47559960D01*
X60780200Y-45909960D01*
X60780922Y-45895257D01*
X60783082Y-45880696D01*
X60786659Y-45866417D01*
X60791618Y-45852557D01*
X60797912Y-45839250D01*
X60805480Y-45826624D01*
X60814248Y-45814801D01*
X60824134Y-45803894D01*
X60835041Y-45794008D01*
X60846864Y-45785240D01*
X60859490Y-45777672D01*
X60872797Y-45771378D01*
X60886657Y-45766419D01*
X60900936Y-45762842D01*
X60915497Y-45760682D01*
X60930200Y-45759960D01*
X61230200Y-45759960D01*
X61244903Y-45760682D01*
G37*
G04 #@! TD.AperFunction*
G04 #@! TA.AperFunction,SMDPad,CuDef*
G36*
X59974903Y-45760682D02*
G01*
X59989464Y-45762842D01*
X60003743Y-45766419D01*
X60017603Y-45771378D01*
X60030910Y-45777672D01*
X60043536Y-45785240D01*
X60055359Y-45794008D01*
X60066266Y-45803894D01*
X60076152Y-45814801D01*
X60084920Y-45826624D01*
X60092488Y-45839250D01*
X60098782Y-45852557D01*
X60103741Y-45866417D01*
X60107318Y-45880696D01*
X60109478Y-45895257D01*
X60110200Y-45909960D01*
X60110200Y-47559960D01*
X60109478Y-47574663D01*
X60107318Y-47589224D01*
X60103741Y-47603503D01*
X60098782Y-47617363D01*
X60092488Y-47630670D01*
X60084920Y-47643296D01*
X60076152Y-47655119D01*
X60066266Y-47666026D01*
X60055359Y-47675912D01*
X60043536Y-47684680D01*
X60030910Y-47692248D01*
X60017603Y-47698542D01*
X60003743Y-47703501D01*
X59989464Y-47707078D01*
X59974903Y-47709238D01*
X59960200Y-47709960D01*
X59660200Y-47709960D01*
X59645497Y-47709238D01*
X59630936Y-47707078D01*
X59616657Y-47703501D01*
X59602797Y-47698542D01*
X59589490Y-47692248D01*
X59576864Y-47684680D01*
X59565041Y-47675912D01*
X59554134Y-47666026D01*
X59544248Y-47655119D01*
X59535480Y-47643296D01*
X59527912Y-47630670D01*
X59521618Y-47617363D01*
X59516659Y-47603503D01*
X59513082Y-47589224D01*
X59510922Y-47574663D01*
X59510200Y-47559960D01*
X59510200Y-45909960D01*
X59510922Y-45895257D01*
X59513082Y-45880696D01*
X59516659Y-45866417D01*
X59521618Y-45852557D01*
X59527912Y-45839250D01*
X59535480Y-45826624D01*
X59544248Y-45814801D01*
X59554134Y-45803894D01*
X59565041Y-45794008D01*
X59576864Y-45785240D01*
X59589490Y-45777672D01*
X59602797Y-45771378D01*
X59616657Y-45766419D01*
X59630936Y-45762842D01*
X59645497Y-45760682D01*
X59660200Y-45759960D01*
X59960200Y-45759960D01*
X59974903Y-45760682D01*
G37*
G04 #@! TD.AperFunction*
G04 #@! TA.AperFunction,SMDPad,CuDef*
G36*
X58704903Y-45760682D02*
G01*
X58719464Y-45762842D01*
X58733743Y-45766419D01*
X58747603Y-45771378D01*
X58760910Y-45777672D01*
X58773536Y-45785240D01*
X58785359Y-45794008D01*
X58796266Y-45803894D01*
X58806152Y-45814801D01*
X58814920Y-45826624D01*
X58822488Y-45839250D01*
X58828782Y-45852557D01*
X58833741Y-45866417D01*
X58837318Y-45880696D01*
X58839478Y-45895257D01*
X58840200Y-45909960D01*
X58840200Y-47559960D01*
X58839478Y-47574663D01*
X58837318Y-47589224D01*
X58833741Y-47603503D01*
X58828782Y-47617363D01*
X58822488Y-47630670D01*
X58814920Y-47643296D01*
X58806152Y-47655119D01*
X58796266Y-47666026D01*
X58785359Y-47675912D01*
X58773536Y-47684680D01*
X58760910Y-47692248D01*
X58747603Y-47698542D01*
X58733743Y-47703501D01*
X58719464Y-47707078D01*
X58704903Y-47709238D01*
X58690200Y-47709960D01*
X58390200Y-47709960D01*
X58375497Y-47709238D01*
X58360936Y-47707078D01*
X58346657Y-47703501D01*
X58332797Y-47698542D01*
X58319490Y-47692248D01*
X58306864Y-47684680D01*
X58295041Y-47675912D01*
X58284134Y-47666026D01*
X58274248Y-47655119D01*
X58265480Y-47643296D01*
X58257912Y-47630670D01*
X58251618Y-47617363D01*
X58246659Y-47603503D01*
X58243082Y-47589224D01*
X58240922Y-47574663D01*
X58240200Y-47559960D01*
X58240200Y-45909960D01*
X58240922Y-45895257D01*
X58243082Y-45880696D01*
X58246659Y-45866417D01*
X58251618Y-45852557D01*
X58257912Y-45839250D01*
X58265480Y-45826624D01*
X58274248Y-45814801D01*
X58284134Y-45803894D01*
X58295041Y-45794008D01*
X58306864Y-45785240D01*
X58319490Y-45777672D01*
X58332797Y-45771378D01*
X58346657Y-45766419D01*
X58360936Y-45762842D01*
X58375497Y-45760682D01*
X58390200Y-45759960D01*
X58690200Y-45759960D01*
X58704903Y-45760682D01*
G37*
G04 #@! TD.AperFunction*
G04 #@! TA.AperFunction,SMDPad,CuDef*
G36*
X57434903Y-45760682D02*
G01*
X57449464Y-45762842D01*
X57463743Y-45766419D01*
X57477603Y-45771378D01*
X57490910Y-45777672D01*
X57503536Y-45785240D01*
X57515359Y-45794008D01*
X57526266Y-45803894D01*
X57536152Y-45814801D01*
X57544920Y-45826624D01*
X57552488Y-45839250D01*
X57558782Y-45852557D01*
X57563741Y-45866417D01*
X57567318Y-45880696D01*
X57569478Y-45895257D01*
X57570200Y-45909960D01*
X57570200Y-47559960D01*
X57569478Y-47574663D01*
X57567318Y-47589224D01*
X57563741Y-47603503D01*
X57558782Y-47617363D01*
X57552488Y-47630670D01*
X57544920Y-47643296D01*
X57536152Y-47655119D01*
X57526266Y-47666026D01*
X57515359Y-47675912D01*
X57503536Y-47684680D01*
X57490910Y-47692248D01*
X57477603Y-47698542D01*
X57463743Y-47703501D01*
X57449464Y-47707078D01*
X57434903Y-47709238D01*
X57420200Y-47709960D01*
X57120200Y-47709960D01*
X57105497Y-47709238D01*
X57090936Y-47707078D01*
X57076657Y-47703501D01*
X57062797Y-47698542D01*
X57049490Y-47692248D01*
X57036864Y-47684680D01*
X57025041Y-47675912D01*
X57014134Y-47666026D01*
X57004248Y-47655119D01*
X56995480Y-47643296D01*
X56987912Y-47630670D01*
X56981618Y-47617363D01*
X56976659Y-47603503D01*
X56973082Y-47589224D01*
X56970922Y-47574663D01*
X56970200Y-47559960D01*
X56970200Y-45909960D01*
X56970922Y-45895257D01*
X56973082Y-45880696D01*
X56976659Y-45866417D01*
X56981618Y-45852557D01*
X56987912Y-45839250D01*
X56995480Y-45826624D01*
X57004248Y-45814801D01*
X57014134Y-45803894D01*
X57025041Y-45794008D01*
X57036864Y-45785240D01*
X57049490Y-45777672D01*
X57062797Y-45771378D01*
X57076657Y-45766419D01*
X57090936Y-45762842D01*
X57105497Y-45760682D01*
X57120200Y-45759960D01*
X57420200Y-45759960D01*
X57434903Y-45760682D01*
G37*
G04 #@! TD.AperFunction*
G04 #@! TA.AperFunction,SMDPad,CuDef*
G36*
X56164903Y-45760682D02*
G01*
X56179464Y-45762842D01*
X56193743Y-45766419D01*
X56207603Y-45771378D01*
X56220910Y-45777672D01*
X56233536Y-45785240D01*
X56245359Y-45794008D01*
X56256266Y-45803894D01*
X56266152Y-45814801D01*
X56274920Y-45826624D01*
X56282488Y-45839250D01*
X56288782Y-45852557D01*
X56293741Y-45866417D01*
X56297318Y-45880696D01*
X56299478Y-45895257D01*
X56300200Y-45909960D01*
X56300200Y-47559960D01*
X56299478Y-47574663D01*
X56297318Y-47589224D01*
X56293741Y-47603503D01*
X56288782Y-47617363D01*
X56282488Y-47630670D01*
X56274920Y-47643296D01*
X56266152Y-47655119D01*
X56256266Y-47666026D01*
X56245359Y-47675912D01*
X56233536Y-47684680D01*
X56220910Y-47692248D01*
X56207603Y-47698542D01*
X56193743Y-47703501D01*
X56179464Y-47707078D01*
X56164903Y-47709238D01*
X56150200Y-47709960D01*
X55850200Y-47709960D01*
X55835497Y-47709238D01*
X55820936Y-47707078D01*
X55806657Y-47703501D01*
X55792797Y-47698542D01*
X55779490Y-47692248D01*
X55766864Y-47684680D01*
X55755041Y-47675912D01*
X55744134Y-47666026D01*
X55734248Y-47655119D01*
X55725480Y-47643296D01*
X55717912Y-47630670D01*
X55711618Y-47617363D01*
X55706659Y-47603503D01*
X55703082Y-47589224D01*
X55700922Y-47574663D01*
X55700200Y-47559960D01*
X55700200Y-45909960D01*
X55700922Y-45895257D01*
X55703082Y-45880696D01*
X55706659Y-45866417D01*
X55711618Y-45852557D01*
X55717912Y-45839250D01*
X55725480Y-45826624D01*
X55734248Y-45814801D01*
X55744134Y-45803894D01*
X55755041Y-45794008D01*
X55766864Y-45785240D01*
X55779490Y-45777672D01*
X55792797Y-45771378D01*
X55806657Y-45766419D01*
X55820936Y-45762842D01*
X55835497Y-45760682D01*
X55850200Y-45759960D01*
X56150200Y-45759960D01*
X56164903Y-45760682D01*
G37*
G04 #@! TD.AperFunction*
D13*
X43363700Y-48587660D03*
X43363700Y-49222660D03*
X43363700Y-49857660D03*
X43363700Y-50492660D03*
X43363700Y-51127660D03*
X43363700Y-51762660D03*
X43363700Y-52397660D03*
X43363700Y-53032660D03*
X48672300Y-53032660D03*
X48672300Y-52397660D03*
X48672300Y-51762660D03*
X48672300Y-51127660D03*
X48672300Y-50492660D03*
X48672300Y-49857660D03*
X48672300Y-49222660D03*
X48672300Y-48587660D03*
G04 #@! TA.AperFunction,SMDPad,CuDef*
D10*
G36*
X69860505Y-45901964D02*
G01*
X69884773Y-45905564D01*
X69908572Y-45911525D01*
X69931671Y-45919790D01*
X69953850Y-45930280D01*
X69974893Y-45942892D01*
X69994599Y-45957507D01*
X70012777Y-45973983D01*
X70029253Y-45992161D01*
X70043868Y-46011867D01*
X70056480Y-46032910D01*
X70066970Y-46055089D01*
X70075235Y-46078188D01*
X70081196Y-46101987D01*
X70084796Y-46126255D01*
X70086000Y-46150759D01*
X70086000Y-46800761D01*
X70084796Y-46825265D01*
X70081196Y-46849533D01*
X70075235Y-46873332D01*
X70066970Y-46896431D01*
X70056480Y-46918610D01*
X70043868Y-46939653D01*
X70029253Y-46959359D01*
X70012777Y-46977537D01*
X69994599Y-46994013D01*
X69974893Y-47008628D01*
X69953850Y-47021240D01*
X69931671Y-47031730D01*
X69908572Y-47039995D01*
X69884773Y-47045956D01*
X69860505Y-47049556D01*
X69836001Y-47050760D01*
X68935999Y-47050760D01*
X68911495Y-47049556D01*
X68887227Y-47045956D01*
X68863428Y-47039995D01*
X68840329Y-47031730D01*
X68818150Y-47021240D01*
X68797107Y-47008628D01*
X68777401Y-46994013D01*
X68759223Y-46977537D01*
X68742747Y-46959359D01*
X68728132Y-46939653D01*
X68715520Y-46918610D01*
X68705030Y-46896431D01*
X68696765Y-46873332D01*
X68690804Y-46849533D01*
X68687204Y-46825265D01*
X68686000Y-46800761D01*
X68686000Y-46150759D01*
X68687204Y-46126255D01*
X68690804Y-46101987D01*
X68696765Y-46078188D01*
X68705030Y-46055089D01*
X68715520Y-46032910D01*
X68728132Y-46011867D01*
X68742747Y-45992161D01*
X68759223Y-45973983D01*
X68777401Y-45957507D01*
X68797107Y-45942892D01*
X68818150Y-45930280D01*
X68840329Y-45919790D01*
X68863428Y-45911525D01*
X68887227Y-45905564D01*
X68911495Y-45901964D01*
X68935999Y-45900760D01*
X69836001Y-45900760D01*
X69860505Y-45901964D01*
G37*
G04 #@! TD.AperFunction*
G04 #@! TA.AperFunction,SMDPad,CuDef*
G36*
X69860505Y-43851964D02*
G01*
X69884773Y-43855564D01*
X69908572Y-43861525D01*
X69931671Y-43869790D01*
X69953850Y-43880280D01*
X69974893Y-43892892D01*
X69994599Y-43907507D01*
X70012777Y-43923983D01*
X70029253Y-43942161D01*
X70043868Y-43961867D01*
X70056480Y-43982910D01*
X70066970Y-44005089D01*
X70075235Y-44028188D01*
X70081196Y-44051987D01*
X70084796Y-44076255D01*
X70086000Y-44100759D01*
X70086000Y-44750761D01*
X70084796Y-44775265D01*
X70081196Y-44799533D01*
X70075235Y-44823332D01*
X70066970Y-44846431D01*
X70056480Y-44868610D01*
X70043868Y-44889653D01*
X70029253Y-44909359D01*
X70012777Y-44927537D01*
X69994599Y-44944013D01*
X69974893Y-44958628D01*
X69953850Y-44971240D01*
X69931671Y-44981730D01*
X69908572Y-44989995D01*
X69884773Y-44995956D01*
X69860505Y-44999556D01*
X69836001Y-45000760D01*
X68935999Y-45000760D01*
X68911495Y-44999556D01*
X68887227Y-44995956D01*
X68863428Y-44989995D01*
X68840329Y-44981730D01*
X68818150Y-44971240D01*
X68797107Y-44958628D01*
X68777401Y-44944013D01*
X68759223Y-44927537D01*
X68742747Y-44909359D01*
X68728132Y-44889653D01*
X68715520Y-44868610D01*
X68705030Y-44846431D01*
X68696765Y-44823332D01*
X68690804Y-44799533D01*
X68687204Y-44775265D01*
X68686000Y-44750761D01*
X68686000Y-44100759D01*
X68687204Y-44076255D01*
X68690804Y-44051987D01*
X68696765Y-44028188D01*
X68705030Y-44005089D01*
X68715520Y-43982910D01*
X68728132Y-43961867D01*
X68742747Y-43942161D01*
X68759223Y-43923983D01*
X68777401Y-43907507D01*
X68797107Y-43892892D01*
X68818150Y-43880280D01*
X68840329Y-43869790D01*
X68863428Y-43861525D01*
X68887227Y-43855564D01*
X68911495Y-43851964D01*
X68935999Y-43850760D01*
X69836001Y-43850760D01*
X69860505Y-43851964D01*
G37*
G04 #@! TD.AperFunction*
G04 #@! TA.AperFunction,SMDPad,CuDef*
G36*
X69860505Y-41863364D02*
G01*
X69884773Y-41866964D01*
X69908572Y-41872925D01*
X69931671Y-41881190D01*
X69953850Y-41891680D01*
X69974893Y-41904292D01*
X69994599Y-41918907D01*
X70012777Y-41935383D01*
X70029253Y-41953561D01*
X70043868Y-41973267D01*
X70056480Y-41994310D01*
X70066970Y-42016489D01*
X70075235Y-42039588D01*
X70081196Y-42063387D01*
X70084796Y-42087655D01*
X70086000Y-42112159D01*
X70086000Y-42762161D01*
X70084796Y-42786665D01*
X70081196Y-42810933D01*
X70075235Y-42834732D01*
X70066970Y-42857831D01*
X70056480Y-42880010D01*
X70043868Y-42901053D01*
X70029253Y-42920759D01*
X70012777Y-42938937D01*
X69994599Y-42955413D01*
X69974893Y-42970028D01*
X69953850Y-42982640D01*
X69931671Y-42993130D01*
X69908572Y-43001395D01*
X69884773Y-43007356D01*
X69860505Y-43010956D01*
X69836001Y-43012160D01*
X68935999Y-43012160D01*
X68911495Y-43010956D01*
X68887227Y-43007356D01*
X68863428Y-43001395D01*
X68840329Y-42993130D01*
X68818150Y-42982640D01*
X68797107Y-42970028D01*
X68777401Y-42955413D01*
X68759223Y-42938937D01*
X68742747Y-42920759D01*
X68728132Y-42901053D01*
X68715520Y-42880010D01*
X68705030Y-42857831D01*
X68696765Y-42834732D01*
X68690804Y-42810933D01*
X68687204Y-42786665D01*
X68686000Y-42762161D01*
X68686000Y-42112159D01*
X68687204Y-42087655D01*
X68690804Y-42063387D01*
X68696765Y-42039588D01*
X68705030Y-42016489D01*
X68715520Y-41994310D01*
X68728132Y-41973267D01*
X68742747Y-41953561D01*
X68759223Y-41935383D01*
X68777401Y-41918907D01*
X68797107Y-41904292D01*
X68818150Y-41891680D01*
X68840329Y-41881190D01*
X68863428Y-41872925D01*
X68887227Y-41866964D01*
X68911495Y-41863364D01*
X68935999Y-41862160D01*
X69836001Y-41862160D01*
X69860505Y-41863364D01*
G37*
G04 #@! TD.AperFunction*
G04 #@! TA.AperFunction,SMDPad,CuDef*
G36*
X69860505Y-39813364D02*
G01*
X69884773Y-39816964D01*
X69908572Y-39822925D01*
X69931671Y-39831190D01*
X69953850Y-39841680D01*
X69974893Y-39854292D01*
X69994599Y-39868907D01*
X70012777Y-39885383D01*
X70029253Y-39903561D01*
X70043868Y-39923267D01*
X70056480Y-39944310D01*
X70066970Y-39966489D01*
X70075235Y-39989588D01*
X70081196Y-40013387D01*
X70084796Y-40037655D01*
X70086000Y-40062159D01*
X70086000Y-40712161D01*
X70084796Y-40736665D01*
X70081196Y-40760933D01*
X70075235Y-40784732D01*
X70066970Y-40807831D01*
X70056480Y-40830010D01*
X70043868Y-40851053D01*
X70029253Y-40870759D01*
X70012777Y-40888937D01*
X69994599Y-40905413D01*
X69974893Y-40920028D01*
X69953850Y-40932640D01*
X69931671Y-40943130D01*
X69908572Y-40951395D01*
X69884773Y-40957356D01*
X69860505Y-40960956D01*
X69836001Y-40962160D01*
X68935999Y-40962160D01*
X68911495Y-40960956D01*
X68887227Y-40957356D01*
X68863428Y-40951395D01*
X68840329Y-40943130D01*
X68818150Y-40932640D01*
X68797107Y-40920028D01*
X68777401Y-40905413D01*
X68759223Y-40888937D01*
X68742747Y-40870759D01*
X68728132Y-40851053D01*
X68715520Y-40830010D01*
X68705030Y-40807831D01*
X68696765Y-40784732D01*
X68690804Y-40760933D01*
X68687204Y-40736665D01*
X68686000Y-40712161D01*
X68686000Y-40062159D01*
X68687204Y-40037655D01*
X68690804Y-40013387D01*
X68696765Y-39989588D01*
X68705030Y-39966489D01*
X68715520Y-39944310D01*
X68728132Y-39923267D01*
X68742747Y-39903561D01*
X68759223Y-39885383D01*
X68777401Y-39868907D01*
X68797107Y-39854292D01*
X68818150Y-39841680D01*
X68840329Y-39831190D01*
X68863428Y-39822925D01*
X68887227Y-39816964D01*
X68911495Y-39813364D01*
X68935999Y-39812160D01*
X69836001Y-39812160D01*
X69860505Y-39813364D01*
G37*
G04 #@! TD.AperFunction*
G04 #@! TA.AperFunction,SMDPad,CuDef*
G36*
X69847805Y-37773964D02*
G01*
X69872073Y-37777564D01*
X69895872Y-37783525D01*
X69918971Y-37791790D01*
X69941150Y-37802280D01*
X69962193Y-37814892D01*
X69981899Y-37829507D01*
X70000077Y-37845983D01*
X70016553Y-37864161D01*
X70031168Y-37883867D01*
X70043780Y-37904910D01*
X70054270Y-37927089D01*
X70062535Y-37950188D01*
X70068496Y-37973987D01*
X70072096Y-37998255D01*
X70073300Y-38022759D01*
X70073300Y-38672761D01*
X70072096Y-38697265D01*
X70068496Y-38721533D01*
X70062535Y-38745332D01*
X70054270Y-38768431D01*
X70043780Y-38790610D01*
X70031168Y-38811653D01*
X70016553Y-38831359D01*
X70000077Y-38849537D01*
X69981899Y-38866013D01*
X69962193Y-38880628D01*
X69941150Y-38893240D01*
X69918971Y-38903730D01*
X69895872Y-38911995D01*
X69872073Y-38917956D01*
X69847805Y-38921556D01*
X69823301Y-38922760D01*
X68923299Y-38922760D01*
X68898795Y-38921556D01*
X68874527Y-38917956D01*
X68850728Y-38911995D01*
X68827629Y-38903730D01*
X68805450Y-38893240D01*
X68784407Y-38880628D01*
X68764701Y-38866013D01*
X68746523Y-38849537D01*
X68730047Y-38831359D01*
X68715432Y-38811653D01*
X68702820Y-38790610D01*
X68692330Y-38768431D01*
X68684065Y-38745332D01*
X68678104Y-38721533D01*
X68674504Y-38697265D01*
X68673300Y-38672761D01*
X68673300Y-38022759D01*
X68674504Y-37998255D01*
X68678104Y-37973987D01*
X68684065Y-37950188D01*
X68692330Y-37927089D01*
X68702820Y-37904910D01*
X68715432Y-37883867D01*
X68730047Y-37864161D01*
X68746523Y-37845983D01*
X68764701Y-37829507D01*
X68784407Y-37814892D01*
X68805450Y-37802280D01*
X68827629Y-37791790D01*
X68850728Y-37783525D01*
X68874527Y-37777564D01*
X68898795Y-37773964D01*
X68923299Y-37772760D01*
X69823301Y-37772760D01*
X69847805Y-37773964D01*
G37*
G04 #@! TD.AperFunction*
G04 #@! TA.AperFunction,SMDPad,CuDef*
G36*
X69847805Y-35723964D02*
G01*
X69872073Y-35727564D01*
X69895872Y-35733525D01*
X69918971Y-35741790D01*
X69941150Y-35752280D01*
X69962193Y-35764892D01*
X69981899Y-35779507D01*
X70000077Y-35795983D01*
X70016553Y-35814161D01*
X70031168Y-35833867D01*
X70043780Y-35854910D01*
X70054270Y-35877089D01*
X70062535Y-35900188D01*
X70068496Y-35923987D01*
X70072096Y-35948255D01*
X70073300Y-35972759D01*
X70073300Y-36622761D01*
X70072096Y-36647265D01*
X70068496Y-36671533D01*
X70062535Y-36695332D01*
X70054270Y-36718431D01*
X70043780Y-36740610D01*
X70031168Y-36761653D01*
X70016553Y-36781359D01*
X70000077Y-36799537D01*
X69981899Y-36816013D01*
X69962193Y-36830628D01*
X69941150Y-36843240D01*
X69918971Y-36853730D01*
X69895872Y-36861995D01*
X69872073Y-36867956D01*
X69847805Y-36871556D01*
X69823301Y-36872760D01*
X68923299Y-36872760D01*
X68898795Y-36871556D01*
X68874527Y-36867956D01*
X68850728Y-36861995D01*
X68827629Y-36853730D01*
X68805450Y-36843240D01*
X68784407Y-36830628D01*
X68764701Y-36816013D01*
X68746523Y-36799537D01*
X68730047Y-36781359D01*
X68715432Y-36761653D01*
X68702820Y-36740610D01*
X68692330Y-36718431D01*
X68684065Y-36695332D01*
X68678104Y-36671533D01*
X68674504Y-36647265D01*
X68673300Y-36622761D01*
X68673300Y-35972759D01*
X68674504Y-35948255D01*
X68678104Y-35923987D01*
X68684065Y-35900188D01*
X68692330Y-35877089D01*
X68702820Y-35854910D01*
X68715432Y-35833867D01*
X68730047Y-35814161D01*
X68746523Y-35795983D01*
X68764701Y-35779507D01*
X68784407Y-35764892D01*
X68805450Y-35752280D01*
X68827629Y-35741790D01*
X68850728Y-35733525D01*
X68874527Y-35727564D01*
X68898795Y-35723964D01*
X68923299Y-35722760D01*
X69823301Y-35722760D01*
X69847805Y-35723964D01*
G37*
G04 #@! TD.AperFunction*
G04 #@! TA.AperFunction,SMDPad,CuDef*
G36*
X64297905Y-39352464D02*
G01*
X64322173Y-39356064D01*
X64345972Y-39362025D01*
X64369071Y-39370290D01*
X64391250Y-39380780D01*
X64412293Y-39393392D01*
X64431999Y-39408007D01*
X64450177Y-39424483D01*
X64466653Y-39442661D01*
X64481268Y-39462367D01*
X64493880Y-39483410D01*
X64504370Y-39505589D01*
X64512635Y-39528688D01*
X64518596Y-39552487D01*
X64522196Y-39576755D01*
X64523400Y-39601259D01*
X64523400Y-40251261D01*
X64522196Y-40275765D01*
X64518596Y-40300033D01*
X64512635Y-40323832D01*
X64504370Y-40346931D01*
X64493880Y-40369110D01*
X64481268Y-40390153D01*
X64466653Y-40409859D01*
X64450177Y-40428037D01*
X64431999Y-40444513D01*
X64412293Y-40459128D01*
X64391250Y-40471740D01*
X64369071Y-40482230D01*
X64345972Y-40490495D01*
X64322173Y-40496456D01*
X64297905Y-40500056D01*
X64273401Y-40501260D01*
X63373399Y-40501260D01*
X63348895Y-40500056D01*
X63324627Y-40496456D01*
X63300828Y-40490495D01*
X63277729Y-40482230D01*
X63255550Y-40471740D01*
X63234507Y-40459128D01*
X63214801Y-40444513D01*
X63196623Y-40428037D01*
X63180147Y-40409859D01*
X63165532Y-40390153D01*
X63152920Y-40369110D01*
X63142430Y-40346931D01*
X63134165Y-40323832D01*
X63128204Y-40300033D01*
X63124604Y-40275765D01*
X63123400Y-40251261D01*
X63123400Y-39601259D01*
X63124604Y-39576755D01*
X63128204Y-39552487D01*
X63134165Y-39528688D01*
X63142430Y-39505589D01*
X63152920Y-39483410D01*
X63165532Y-39462367D01*
X63180147Y-39442661D01*
X63196623Y-39424483D01*
X63214801Y-39408007D01*
X63234507Y-39393392D01*
X63255550Y-39380780D01*
X63277729Y-39370290D01*
X63300828Y-39362025D01*
X63324627Y-39356064D01*
X63348895Y-39352464D01*
X63373399Y-39351260D01*
X64273401Y-39351260D01*
X64297905Y-39352464D01*
G37*
G04 #@! TD.AperFunction*
G04 #@! TA.AperFunction,SMDPad,CuDef*
G36*
X64297905Y-37302464D02*
G01*
X64322173Y-37306064D01*
X64345972Y-37312025D01*
X64369071Y-37320290D01*
X64391250Y-37330780D01*
X64412293Y-37343392D01*
X64431999Y-37358007D01*
X64450177Y-37374483D01*
X64466653Y-37392661D01*
X64481268Y-37412367D01*
X64493880Y-37433410D01*
X64504370Y-37455589D01*
X64512635Y-37478688D01*
X64518596Y-37502487D01*
X64522196Y-37526755D01*
X64523400Y-37551259D01*
X64523400Y-38201261D01*
X64522196Y-38225765D01*
X64518596Y-38250033D01*
X64512635Y-38273832D01*
X64504370Y-38296931D01*
X64493880Y-38319110D01*
X64481268Y-38340153D01*
X64466653Y-38359859D01*
X64450177Y-38378037D01*
X64431999Y-38394513D01*
X64412293Y-38409128D01*
X64391250Y-38421740D01*
X64369071Y-38432230D01*
X64345972Y-38440495D01*
X64322173Y-38446456D01*
X64297905Y-38450056D01*
X64273401Y-38451260D01*
X63373399Y-38451260D01*
X63348895Y-38450056D01*
X63324627Y-38446456D01*
X63300828Y-38440495D01*
X63277729Y-38432230D01*
X63255550Y-38421740D01*
X63234507Y-38409128D01*
X63214801Y-38394513D01*
X63196623Y-38378037D01*
X63180147Y-38359859D01*
X63165532Y-38340153D01*
X63152920Y-38319110D01*
X63142430Y-38296931D01*
X63134165Y-38273832D01*
X63128204Y-38250033D01*
X63124604Y-38225765D01*
X63123400Y-38201261D01*
X63123400Y-37551259D01*
X63124604Y-37526755D01*
X63128204Y-37502487D01*
X63134165Y-37478688D01*
X63142430Y-37455589D01*
X63152920Y-37433410D01*
X63165532Y-37412367D01*
X63180147Y-37392661D01*
X63196623Y-37374483D01*
X63214801Y-37358007D01*
X63234507Y-37343392D01*
X63255550Y-37330780D01*
X63277729Y-37320290D01*
X63300828Y-37312025D01*
X63324627Y-37306064D01*
X63348895Y-37302464D01*
X63373399Y-37301260D01*
X64273401Y-37301260D01*
X64297905Y-37302464D01*
G37*
G04 #@! TD.AperFunction*
G04 #@! TA.AperFunction,SMDPad,CuDef*
G36*
X56554065Y-32285644D02*
G01*
X56578333Y-32289244D01*
X56602132Y-32295205D01*
X56625231Y-32303470D01*
X56647410Y-32313960D01*
X56668453Y-32326572D01*
X56688159Y-32341187D01*
X56706337Y-32357663D01*
X56722813Y-32375841D01*
X56737428Y-32395547D01*
X56750040Y-32416590D01*
X56760530Y-32438769D01*
X56768795Y-32461868D01*
X56774756Y-32485667D01*
X56778356Y-32509935D01*
X56779560Y-32534439D01*
X56779560Y-33434441D01*
X56778356Y-33458945D01*
X56774756Y-33483213D01*
X56768795Y-33507012D01*
X56760530Y-33530111D01*
X56750040Y-33552290D01*
X56737428Y-33573333D01*
X56722813Y-33593039D01*
X56706337Y-33611217D01*
X56688159Y-33627693D01*
X56668453Y-33642308D01*
X56647410Y-33654920D01*
X56625231Y-33665410D01*
X56602132Y-33673675D01*
X56578333Y-33679636D01*
X56554065Y-33683236D01*
X56529561Y-33684440D01*
X55879559Y-33684440D01*
X55855055Y-33683236D01*
X55830787Y-33679636D01*
X55806988Y-33673675D01*
X55783889Y-33665410D01*
X55761710Y-33654920D01*
X55740667Y-33642308D01*
X55720961Y-33627693D01*
X55702783Y-33611217D01*
X55686307Y-33593039D01*
X55671692Y-33573333D01*
X55659080Y-33552290D01*
X55648590Y-33530111D01*
X55640325Y-33507012D01*
X55634364Y-33483213D01*
X55630764Y-33458945D01*
X55629560Y-33434441D01*
X55629560Y-32534439D01*
X55630764Y-32509935D01*
X55634364Y-32485667D01*
X55640325Y-32461868D01*
X55648590Y-32438769D01*
X55659080Y-32416590D01*
X55671692Y-32395547D01*
X55686307Y-32375841D01*
X55702783Y-32357663D01*
X55720961Y-32341187D01*
X55740667Y-32326572D01*
X55761710Y-32313960D01*
X55783889Y-32303470D01*
X55806988Y-32295205D01*
X55830787Y-32289244D01*
X55855055Y-32285644D01*
X55879559Y-32284440D01*
X56529561Y-32284440D01*
X56554065Y-32285644D01*
G37*
G04 #@! TD.AperFunction*
G04 #@! TA.AperFunction,SMDPad,CuDef*
G36*
X58604065Y-32285644D02*
G01*
X58628333Y-32289244D01*
X58652132Y-32295205D01*
X58675231Y-32303470D01*
X58697410Y-32313960D01*
X58718453Y-32326572D01*
X58738159Y-32341187D01*
X58756337Y-32357663D01*
X58772813Y-32375841D01*
X58787428Y-32395547D01*
X58800040Y-32416590D01*
X58810530Y-32438769D01*
X58818795Y-32461868D01*
X58824756Y-32485667D01*
X58828356Y-32509935D01*
X58829560Y-32534439D01*
X58829560Y-33434441D01*
X58828356Y-33458945D01*
X58824756Y-33483213D01*
X58818795Y-33507012D01*
X58810530Y-33530111D01*
X58800040Y-33552290D01*
X58787428Y-33573333D01*
X58772813Y-33593039D01*
X58756337Y-33611217D01*
X58738159Y-33627693D01*
X58718453Y-33642308D01*
X58697410Y-33654920D01*
X58675231Y-33665410D01*
X58652132Y-33673675D01*
X58628333Y-33679636D01*
X58604065Y-33683236D01*
X58579561Y-33684440D01*
X57929559Y-33684440D01*
X57905055Y-33683236D01*
X57880787Y-33679636D01*
X57856988Y-33673675D01*
X57833889Y-33665410D01*
X57811710Y-33654920D01*
X57790667Y-33642308D01*
X57770961Y-33627693D01*
X57752783Y-33611217D01*
X57736307Y-33593039D01*
X57721692Y-33573333D01*
X57709080Y-33552290D01*
X57698590Y-33530111D01*
X57690325Y-33507012D01*
X57684364Y-33483213D01*
X57680764Y-33458945D01*
X57679560Y-33434441D01*
X57679560Y-32534439D01*
X57680764Y-32509935D01*
X57684364Y-32485667D01*
X57690325Y-32461868D01*
X57698590Y-32438769D01*
X57709080Y-32416590D01*
X57721692Y-32395547D01*
X57736307Y-32375841D01*
X57752783Y-32357663D01*
X57770961Y-32341187D01*
X57790667Y-32326572D01*
X57811710Y-32313960D01*
X57833889Y-32303470D01*
X57856988Y-32295205D01*
X57880787Y-32289244D01*
X57905055Y-32285644D01*
X57929559Y-32284440D01*
X58579561Y-32284440D01*
X58604065Y-32285644D01*
G37*
G04 #@! TD.AperFunction*
G04 #@! TA.AperFunction,SMDPad,CuDef*
G36*
X38516905Y-49922564D02*
G01*
X38541173Y-49926164D01*
X38564972Y-49932125D01*
X38588071Y-49940390D01*
X38610250Y-49950880D01*
X38631293Y-49963492D01*
X38650999Y-49978107D01*
X38669177Y-49994583D01*
X38685653Y-50012761D01*
X38700268Y-50032467D01*
X38712880Y-50053510D01*
X38723370Y-50075689D01*
X38731635Y-50098788D01*
X38737596Y-50122587D01*
X38741196Y-50146855D01*
X38742400Y-50171359D01*
X38742400Y-50821361D01*
X38741196Y-50845865D01*
X38737596Y-50870133D01*
X38731635Y-50893932D01*
X38723370Y-50917031D01*
X38712880Y-50939210D01*
X38700268Y-50960253D01*
X38685653Y-50979959D01*
X38669177Y-50998137D01*
X38650999Y-51014613D01*
X38631293Y-51029228D01*
X38610250Y-51041840D01*
X38588071Y-51052330D01*
X38564972Y-51060595D01*
X38541173Y-51066556D01*
X38516905Y-51070156D01*
X38492401Y-51071360D01*
X37592399Y-51071360D01*
X37567895Y-51070156D01*
X37543627Y-51066556D01*
X37519828Y-51060595D01*
X37496729Y-51052330D01*
X37474550Y-51041840D01*
X37453507Y-51029228D01*
X37433801Y-51014613D01*
X37415623Y-50998137D01*
X37399147Y-50979959D01*
X37384532Y-50960253D01*
X37371920Y-50939210D01*
X37361430Y-50917031D01*
X37353165Y-50893932D01*
X37347204Y-50870133D01*
X37343604Y-50845865D01*
X37342400Y-50821361D01*
X37342400Y-50171359D01*
X37343604Y-50146855D01*
X37347204Y-50122587D01*
X37353165Y-50098788D01*
X37361430Y-50075689D01*
X37371920Y-50053510D01*
X37384532Y-50032467D01*
X37399147Y-50012761D01*
X37415623Y-49994583D01*
X37433801Y-49978107D01*
X37453507Y-49963492D01*
X37474550Y-49950880D01*
X37496729Y-49940390D01*
X37519828Y-49932125D01*
X37543627Y-49926164D01*
X37567895Y-49922564D01*
X37592399Y-49921360D01*
X38492401Y-49921360D01*
X38516905Y-49922564D01*
G37*
G04 #@! TD.AperFunction*
G04 #@! TA.AperFunction,SMDPad,CuDef*
G36*
X38516905Y-51972564D02*
G01*
X38541173Y-51976164D01*
X38564972Y-51982125D01*
X38588071Y-51990390D01*
X38610250Y-52000880D01*
X38631293Y-52013492D01*
X38650999Y-52028107D01*
X38669177Y-52044583D01*
X38685653Y-52062761D01*
X38700268Y-52082467D01*
X38712880Y-52103510D01*
X38723370Y-52125689D01*
X38731635Y-52148788D01*
X38737596Y-52172587D01*
X38741196Y-52196855D01*
X38742400Y-52221359D01*
X38742400Y-52871361D01*
X38741196Y-52895865D01*
X38737596Y-52920133D01*
X38731635Y-52943932D01*
X38723370Y-52967031D01*
X38712880Y-52989210D01*
X38700268Y-53010253D01*
X38685653Y-53029959D01*
X38669177Y-53048137D01*
X38650999Y-53064613D01*
X38631293Y-53079228D01*
X38610250Y-53091840D01*
X38588071Y-53102330D01*
X38564972Y-53110595D01*
X38541173Y-53116556D01*
X38516905Y-53120156D01*
X38492401Y-53121360D01*
X37592399Y-53121360D01*
X37567895Y-53120156D01*
X37543627Y-53116556D01*
X37519828Y-53110595D01*
X37496729Y-53102330D01*
X37474550Y-53091840D01*
X37453507Y-53079228D01*
X37433801Y-53064613D01*
X37415623Y-53048137D01*
X37399147Y-53029959D01*
X37384532Y-53010253D01*
X37371920Y-52989210D01*
X37361430Y-52967031D01*
X37353165Y-52943932D01*
X37347204Y-52920133D01*
X37343604Y-52895865D01*
X37342400Y-52871361D01*
X37342400Y-52221359D01*
X37343604Y-52196855D01*
X37347204Y-52172587D01*
X37353165Y-52148788D01*
X37361430Y-52125689D01*
X37371920Y-52103510D01*
X37384532Y-52082467D01*
X37399147Y-52062761D01*
X37415623Y-52044583D01*
X37433801Y-52028107D01*
X37453507Y-52013492D01*
X37474550Y-52000880D01*
X37496729Y-51990390D01*
X37519828Y-51982125D01*
X37543627Y-51976164D01*
X37567895Y-51972564D01*
X37592399Y-51971360D01*
X38492401Y-51971360D01*
X38516905Y-51972564D01*
G37*
G04 #@! TD.AperFunction*
D12*
X76040800Y-45500960D03*
G04 #@! TA.AperFunction,SMDPad,CuDef*
D10*
G36*
X30033305Y-51870964D02*
G01*
X30057573Y-51874564D01*
X30081372Y-51880525D01*
X30104471Y-51888790D01*
X30126650Y-51899280D01*
X30147693Y-51911892D01*
X30167399Y-51926507D01*
X30185577Y-51942983D01*
X30202053Y-51961161D01*
X30216668Y-51980867D01*
X30229280Y-52001910D01*
X30239770Y-52024089D01*
X30248035Y-52047188D01*
X30253996Y-52070987D01*
X30257596Y-52095255D01*
X30258800Y-52119759D01*
X30258800Y-52769761D01*
X30257596Y-52794265D01*
X30253996Y-52818533D01*
X30248035Y-52842332D01*
X30239770Y-52865431D01*
X30229280Y-52887610D01*
X30216668Y-52908653D01*
X30202053Y-52928359D01*
X30185577Y-52946537D01*
X30167399Y-52963013D01*
X30147693Y-52977628D01*
X30126650Y-52990240D01*
X30104471Y-53000730D01*
X30081372Y-53008995D01*
X30057573Y-53014956D01*
X30033305Y-53018556D01*
X30008801Y-53019760D01*
X29108799Y-53019760D01*
X29084295Y-53018556D01*
X29060027Y-53014956D01*
X29036228Y-53008995D01*
X29013129Y-53000730D01*
X28990950Y-52990240D01*
X28969907Y-52977628D01*
X28950201Y-52963013D01*
X28932023Y-52946537D01*
X28915547Y-52928359D01*
X28900932Y-52908653D01*
X28888320Y-52887610D01*
X28877830Y-52865431D01*
X28869565Y-52842332D01*
X28863604Y-52818533D01*
X28860004Y-52794265D01*
X28858800Y-52769761D01*
X28858800Y-52119759D01*
X28860004Y-52095255D01*
X28863604Y-52070987D01*
X28869565Y-52047188D01*
X28877830Y-52024089D01*
X28888320Y-52001910D01*
X28900932Y-51980867D01*
X28915547Y-51961161D01*
X28932023Y-51942983D01*
X28950201Y-51926507D01*
X28969907Y-51911892D01*
X28990950Y-51899280D01*
X29013129Y-51888790D01*
X29036228Y-51880525D01*
X29060027Y-51874564D01*
X29084295Y-51870964D01*
X29108799Y-51869760D01*
X30008801Y-51869760D01*
X30033305Y-51870964D01*
G37*
G04 #@! TD.AperFunction*
G04 #@! TA.AperFunction,SMDPad,CuDef*
G36*
X30033305Y-49820964D02*
G01*
X30057573Y-49824564D01*
X30081372Y-49830525D01*
X30104471Y-49838790D01*
X30126650Y-49849280D01*
X30147693Y-49861892D01*
X30167399Y-49876507D01*
X30185577Y-49892983D01*
X30202053Y-49911161D01*
X30216668Y-49930867D01*
X30229280Y-49951910D01*
X30239770Y-49974089D01*
X30248035Y-49997188D01*
X30253996Y-50020987D01*
X30257596Y-50045255D01*
X30258800Y-50069759D01*
X30258800Y-50719761D01*
X30257596Y-50744265D01*
X30253996Y-50768533D01*
X30248035Y-50792332D01*
X30239770Y-50815431D01*
X30229280Y-50837610D01*
X30216668Y-50858653D01*
X30202053Y-50878359D01*
X30185577Y-50896537D01*
X30167399Y-50913013D01*
X30147693Y-50927628D01*
X30126650Y-50940240D01*
X30104471Y-50950730D01*
X30081372Y-50958995D01*
X30057573Y-50964956D01*
X30033305Y-50968556D01*
X30008801Y-50969760D01*
X29108799Y-50969760D01*
X29084295Y-50968556D01*
X29060027Y-50964956D01*
X29036228Y-50958995D01*
X29013129Y-50950730D01*
X28990950Y-50940240D01*
X28969907Y-50927628D01*
X28950201Y-50913013D01*
X28932023Y-50896537D01*
X28915547Y-50878359D01*
X28900932Y-50858653D01*
X28888320Y-50837610D01*
X28877830Y-50815431D01*
X28869565Y-50792332D01*
X28863604Y-50768533D01*
X28860004Y-50744265D01*
X28858800Y-50719761D01*
X28858800Y-50069759D01*
X28860004Y-50045255D01*
X28863604Y-50020987D01*
X28869565Y-49997188D01*
X28877830Y-49974089D01*
X28888320Y-49951910D01*
X28900932Y-49930867D01*
X28915547Y-49911161D01*
X28932023Y-49892983D01*
X28950201Y-49876507D01*
X28969907Y-49861892D01*
X28990950Y-49849280D01*
X29013129Y-49838790D01*
X29036228Y-49830525D01*
X29060027Y-49824564D01*
X29084295Y-49820964D01*
X29108799Y-49819760D01*
X30008801Y-49819760D01*
X30033305Y-49820964D01*
G37*
G04 #@! TD.AperFunction*
D14*
X35224400Y-52369760D03*
X35224400Y-50469760D03*
X32224400Y-51419760D03*
G04 #@! TA.AperFunction,SMDPad,CuDef*
D10*
G36*
X54123505Y-51559164D02*
G01*
X54147773Y-51562764D01*
X54171572Y-51568725D01*
X54194671Y-51576990D01*
X54216850Y-51587480D01*
X54237893Y-51600092D01*
X54257599Y-51614707D01*
X54275777Y-51631183D01*
X54292253Y-51649361D01*
X54306868Y-51669067D01*
X54319480Y-51690110D01*
X54329970Y-51712289D01*
X54338235Y-51735388D01*
X54344196Y-51759187D01*
X54347796Y-51783455D01*
X54349000Y-51807959D01*
X54349000Y-52707961D01*
X54347796Y-52732465D01*
X54344196Y-52756733D01*
X54338235Y-52780532D01*
X54329970Y-52803631D01*
X54319480Y-52825810D01*
X54306868Y-52846853D01*
X54292253Y-52866559D01*
X54275777Y-52884737D01*
X54257599Y-52901213D01*
X54237893Y-52915828D01*
X54216850Y-52928440D01*
X54194671Y-52938930D01*
X54171572Y-52947195D01*
X54147773Y-52953156D01*
X54123505Y-52956756D01*
X54099001Y-52957960D01*
X53448999Y-52957960D01*
X53424495Y-52956756D01*
X53400227Y-52953156D01*
X53376428Y-52947195D01*
X53353329Y-52938930D01*
X53331150Y-52928440D01*
X53310107Y-52915828D01*
X53290401Y-52901213D01*
X53272223Y-52884737D01*
X53255747Y-52866559D01*
X53241132Y-52846853D01*
X53228520Y-52825810D01*
X53218030Y-52803631D01*
X53209765Y-52780532D01*
X53203804Y-52756733D01*
X53200204Y-52732465D01*
X53199000Y-52707961D01*
X53199000Y-51807959D01*
X53200204Y-51783455D01*
X53203804Y-51759187D01*
X53209765Y-51735388D01*
X53218030Y-51712289D01*
X53228520Y-51690110D01*
X53241132Y-51669067D01*
X53255747Y-51649361D01*
X53272223Y-51631183D01*
X53290401Y-51614707D01*
X53310107Y-51600092D01*
X53331150Y-51587480D01*
X53353329Y-51576990D01*
X53376428Y-51568725D01*
X53400227Y-51562764D01*
X53424495Y-51559164D01*
X53448999Y-51557960D01*
X54099001Y-51557960D01*
X54123505Y-51559164D01*
G37*
G04 #@! TD.AperFunction*
G04 #@! TA.AperFunction,SMDPad,CuDef*
G36*
X52073505Y-51559164D02*
G01*
X52097773Y-51562764D01*
X52121572Y-51568725D01*
X52144671Y-51576990D01*
X52166850Y-51587480D01*
X52187893Y-51600092D01*
X52207599Y-51614707D01*
X52225777Y-51631183D01*
X52242253Y-51649361D01*
X52256868Y-51669067D01*
X52269480Y-51690110D01*
X52279970Y-51712289D01*
X52288235Y-51735388D01*
X52294196Y-51759187D01*
X52297796Y-51783455D01*
X52299000Y-51807959D01*
X52299000Y-52707961D01*
X52297796Y-52732465D01*
X52294196Y-52756733D01*
X52288235Y-52780532D01*
X52279970Y-52803631D01*
X52269480Y-52825810D01*
X52256868Y-52846853D01*
X52242253Y-52866559D01*
X52225777Y-52884737D01*
X52207599Y-52901213D01*
X52187893Y-52915828D01*
X52166850Y-52928440D01*
X52144671Y-52938930D01*
X52121572Y-52947195D01*
X52097773Y-52953156D01*
X52073505Y-52956756D01*
X52049001Y-52957960D01*
X51398999Y-52957960D01*
X51374495Y-52956756D01*
X51350227Y-52953156D01*
X51326428Y-52947195D01*
X51303329Y-52938930D01*
X51281150Y-52928440D01*
X51260107Y-52915828D01*
X51240401Y-52901213D01*
X51222223Y-52884737D01*
X51205747Y-52866559D01*
X51191132Y-52846853D01*
X51178520Y-52825810D01*
X51168030Y-52803631D01*
X51159765Y-52780532D01*
X51153804Y-52756733D01*
X51150204Y-52732465D01*
X51149000Y-52707961D01*
X51149000Y-51807959D01*
X51150204Y-51783455D01*
X51153804Y-51759187D01*
X51159765Y-51735388D01*
X51168030Y-51712289D01*
X51178520Y-51690110D01*
X51191132Y-51669067D01*
X51205747Y-51649361D01*
X51222223Y-51631183D01*
X51240401Y-51614707D01*
X51260107Y-51600092D01*
X51281150Y-51587480D01*
X51303329Y-51576990D01*
X51326428Y-51568725D01*
X51350227Y-51562764D01*
X51374495Y-51559164D01*
X51398999Y-51557960D01*
X52049001Y-51557960D01*
X52073505Y-51559164D01*
G37*
G04 #@! TD.AperFunction*
G04 #@! TA.AperFunction,SMDPad,CuDef*
G36*
X52398005Y-36041464D02*
G01*
X52422273Y-36045064D01*
X52446072Y-36051025D01*
X52469171Y-36059290D01*
X52491350Y-36069780D01*
X52512393Y-36082392D01*
X52532099Y-36097007D01*
X52550277Y-36113483D01*
X52566753Y-36131661D01*
X52581368Y-36151367D01*
X52593980Y-36172410D01*
X52604470Y-36194589D01*
X52612735Y-36217688D01*
X52618696Y-36241487D01*
X52622296Y-36265755D01*
X52623500Y-36290259D01*
X52623500Y-36940261D01*
X52622296Y-36964765D01*
X52618696Y-36989033D01*
X52612735Y-37012832D01*
X52604470Y-37035931D01*
X52593980Y-37058110D01*
X52581368Y-37079153D01*
X52566753Y-37098859D01*
X52550277Y-37117037D01*
X52532099Y-37133513D01*
X52512393Y-37148128D01*
X52491350Y-37160740D01*
X52469171Y-37171230D01*
X52446072Y-37179495D01*
X52422273Y-37185456D01*
X52398005Y-37189056D01*
X52373501Y-37190260D01*
X51473499Y-37190260D01*
X51448995Y-37189056D01*
X51424727Y-37185456D01*
X51400928Y-37179495D01*
X51377829Y-37171230D01*
X51355650Y-37160740D01*
X51334607Y-37148128D01*
X51314901Y-37133513D01*
X51296723Y-37117037D01*
X51280247Y-37098859D01*
X51265632Y-37079153D01*
X51253020Y-37058110D01*
X51242530Y-37035931D01*
X51234265Y-37012832D01*
X51228304Y-36989033D01*
X51224704Y-36964765D01*
X51223500Y-36940261D01*
X51223500Y-36290259D01*
X51224704Y-36265755D01*
X51228304Y-36241487D01*
X51234265Y-36217688D01*
X51242530Y-36194589D01*
X51253020Y-36172410D01*
X51265632Y-36151367D01*
X51280247Y-36131661D01*
X51296723Y-36113483D01*
X51314901Y-36097007D01*
X51334607Y-36082392D01*
X51355650Y-36069780D01*
X51377829Y-36059290D01*
X51400928Y-36051025D01*
X51424727Y-36045064D01*
X51448995Y-36041464D01*
X51473499Y-36040260D01*
X52373501Y-36040260D01*
X52398005Y-36041464D01*
G37*
G04 #@! TD.AperFunction*
G04 #@! TA.AperFunction,SMDPad,CuDef*
G36*
X52398005Y-38091464D02*
G01*
X52422273Y-38095064D01*
X52446072Y-38101025D01*
X52469171Y-38109290D01*
X52491350Y-38119780D01*
X52512393Y-38132392D01*
X52532099Y-38147007D01*
X52550277Y-38163483D01*
X52566753Y-38181661D01*
X52581368Y-38201367D01*
X52593980Y-38222410D01*
X52604470Y-38244589D01*
X52612735Y-38267688D01*
X52618696Y-38291487D01*
X52622296Y-38315755D01*
X52623500Y-38340259D01*
X52623500Y-38990261D01*
X52622296Y-39014765D01*
X52618696Y-39039033D01*
X52612735Y-39062832D01*
X52604470Y-39085931D01*
X52593980Y-39108110D01*
X52581368Y-39129153D01*
X52566753Y-39148859D01*
X52550277Y-39167037D01*
X52532099Y-39183513D01*
X52512393Y-39198128D01*
X52491350Y-39210740D01*
X52469171Y-39221230D01*
X52446072Y-39229495D01*
X52422273Y-39235456D01*
X52398005Y-39239056D01*
X52373501Y-39240260D01*
X51473499Y-39240260D01*
X51448995Y-39239056D01*
X51424727Y-39235456D01*
X51400928Y-39229495D01*
X51377829Y-39221230D01*
X51355650Y-39210740D01*
X51334607Y-39198128D01*
X51314901Y-39183513D01*
X51296723Y-39167037D01*
X51280247Y-39148859D01*
X51265632Y-39129153D01*
X51253020Y-39108110D01*
X51242530Y-39085931D01*
X51234265Y-39062832D01*
X51228304Y-39039033D01*
X51224704Y-39014765D01*
X51223500Y-38990261D01*
X51223500Y-38340259D01*
X51224704Y-38315755D01*
X51228304Y-38291487D01*
X51234265Y-38267688D01*
X51242530Y-38244589D01*
X51253020Y-38222410D01*
X51265632Y-38201367D01*
X51280247Y-38181661D01*
X51296723Y-38163483D01*
X51314901Y-38147007D01*
X51334607Y-38132392D01*
X51355650Y-38119780D01*
X51377829Y-38109290D01*
X51400928Y-38101025D01*
X51424727Y-38095064D01*
X51448995Y-38091464D01*
X51473499Y-38090260D01*
X52373501Y-38090260D01*
X52398005Y-38091464D01*
G37*
G04 #@! TD.AperFunction*
G04 #@! TA.AperFunction,SMDPad,CuDef*
G36*
X41107705Y-49922564D02*
G01*
X41131973Y-49926164D01*
X41155772Y-49932125D01*
X41178871Y-49940390D01*
X41201050Y-49950880D01*
X41222093Y-49963492D01*
X41241799Y-49978107D01*
X41259977Y-49994583D01*
X41276453Y-50012761D01*
X41291068Y-50032467D01*
X41303680Y-50053510D01*
X41314170Y-50075689D01*
X41322435Y-50098788D01*
X41328396Y-50122587D01*
X41331996Y-50146855D01*
X41333200Y-50171359D01*
X41333200Y-50821361D01*
X41331996Y-50845865D01*
X41328396Y-50870133D01*
X41322435Y-50893932D01*
X41314170Y-50917031D01*
X41303680Y-50939210D01*
X41291068Y-50960253D01*
X41276453Y-50979959D01*
X41259977Y-50998137D01*
X41241799Y-51014613D01*
X41222093Y-51029228D01*
X41201050Y-51041840D01*
X41178871Y-51052330D01*
X41155772Y-51060595D01*
X41131973Y-51066556D01*
X41107705Y-51070156D01*
X41083201Y-51071360D01*
X40183199Y-51071360D01*
X40158695Y-51070156D01*
X40134427Y-51066556D01*
X40110628Y-51060595D01*
X40087529Y-51052330D01*
X40065350Y-51041840D01*
X40044307Y-51029228D01*
X40024601Y-51014613D01*
X40006423Y-50998137D01*
X39989947Y-50979959D01*
X39975332Y-50960253D01*
X39962720Y-50939210D01*
X39952230Y-50917031D01*
X39943965Y-50893932D01*
X39938004Y-50870133D01*
X39934404Y-50845865D01*
X39933200Y-50821361D01*
X39933200Y-50171359D01*
X39934404Y-50146855D01*
X39938004Y-50122587D01*
X39943965Y-50098788D01*
X39952230Y-50075689D01*
X39962720Y-50053510D01*
X39975332Y-50032467D01*
X39989947Y-50012761D01*
X40006423Y-49994583D01*
X40024601Y-49978107D01*
X40044307Y-49963492D01*
X40065350Y-49950880D01*
X40087529Y-49940390D01*
X40110628Y-49932125D01*
X40134427Y-49926164D01*
X40158695Y-49922564D01*
X40183199Y-49921360D01*
X41083201Y-49921360D01*
X41107705Y-49922564D01*
G37*
G04 #@! TD.AperFunction*
G04 #@! TA.AperFunction,SMDPad,CuDef*
G36*
X41107705Y-51972564D02*
G01*
X41131973Y-51976164D01*
X41155772Y-51982125D01*
X41178871Y-51990390D01*
X41201050Y-52000880D01*
X41222093Y-52013492D01*
X41241799Y-52028107D01*
X41259977Y-52044583D01*
X41276453Y-52062761D01*
X41291068Y-52082467D01*
X41303680Y-52103510D01*
X41314170Y-52125689D01*
X41322435Y-52148788D01*
X41328396Y-52172587D01*
X41331996Y-52196855D01*
X41333200Y-52221359D01*
X41333200Y-52871361D01*
X41331996Y-52895865D01*
X41328396Y-52920133D01*
X41322435Y-52943932D01*
X41314170Y-52967031D01*
X41303680Y-52989210D01*
X41291068Y-53010253D01*
X41276453Y-53029959D01*
X41259977Y-53048137D01*
X41241799Y-53064613D01*
X41222093Y-53079228D01*
X41201050Y-53091840D01*
X41178871Y-53102330D01*
X41155772Y-53110595D01*
X41131973Y-53116556D01*
X41107705Y-53120156D01*
X41083201Y-53121360D01*
X40183199Y-53121360D01*
X40158695Y-53120156D01*
X40134427Y-53116556D01*
X40110628Y-53110595D01*
X40087529Y-53102330D01*
X40065350Y-53091840D01*
X40044307Y-53079228D01*
X40024601Y-53064613D01*
X40006423Y-53048137D01*
X39989947Y-53029959D01*
X39975332Y-53010253D01*
X39962720Y-52989210D01*
X39952230Y-52967031D01*
X39943965Y-52943932D01*
X39938004Y-52920133D01*
X39934404Y-52895865D01*
X39933200Y-52871361D01*
X39933200Y-52221359D01*
X39934404Y-52196855D01*
X39938004Y-52172587D01*
X39943965Y-52148788D01*
X39952230Y-52125689D01*
X39962720Y-52103510D01*
X39975332Y-52082467D01*
X39989947Y-52062761D01*
X40006423Y-52044583D01*
X40024601Y-52028107D01*
X40044307Y-52013492D01*
X40065350Y-52000880D01*
X40087529Y-51990390D01*
X40110628Y-51982125D01*
X40134427Y-51976164D01*
X40158695Y-51972564D01*
X40183199Y-51971360D01*
X41083201Y-51971360D01*
X41107705Y-51972564D01*
G37*
G04 #@! TD.AperFunction*
G04 #@! TA.AperFunction,SMDPad,CuDef*
G36*
X64285205Y-43552464D02*
G01*
X64309473Y-43556064D01*
X64333272Y-43562025D01*
X64356371Y-43570290D01*
X64378550Y-43580780D01*
X64399593Y-43593392D01*
X64419299Y-43608007D01*
X64437477Y-43624483D01*
X64453953Y-43642661D01*
X64468568Y-43662367D01*
X64481180Y-43683410D01*
X64491670Y-43705589D01*
X64499935Y-43728688D01*
X64505896Y-43752487D01*
X64509496Y-43776755D01*
X64510700Y-43801259D01*
X64510700Y-44451261D01*
X64509496Y-44475765D01*
X64505896Y-44500033D01*
X64499935Y-44523832D01*
X64491670Y-44546931D01*
X64481180Y-44569110D01*
X64468568Y-44590153D01*
X64453953Y-44609859D01*
X64437477Y-44628037D01*
X64419299Y-44644513D01*
X64399593Y-44659128D01*
X64378550Y-44671740D01*
X64356371Y-44682230D01*
X64333272Y-44690495D01*
X64309473Y-44696456D01*
X64285205Y-44700056D01*
X64260701Y-44701260D01*
X63360699Y-44701260D01*
X63336195Y-44700056D01*
X63311927Y-44696456D01*
X63288128Y-44690495D01*
X63265029Y-44682230D01*
X63242850Y-44671740D01*
X63221807Y-44659128D01*
X63202101Y-44644513D01*
X63183923Y-44628037D01*
X63167447Y-44609859D01*
X63152832Y-44590153D01*
X63140220Y-44569110D01*
X63129730Y-44546931D01*
X63121465Y-44523832D01*
X63115504Y-44500033D01*
X63111904Y-44475765D01*
X63110700Y-44451261D01*
X63110700Y-43801259D01*
X63111904Y-43776755D01*
X63115504Y-43752487D01*
X63121465Y-43728688D01*
X63129730Y-43705589D01*
X63140220Y-43683410D01*
X63152832Y-43662367D01*
X63167447Y-43642661D01*
X63183923Y-43624483D01*
X63202101Y-43608007D01*
X63221807Y-43593392D01*
X63242850Y-43580780D01*
X63265029Y-43570290D01*
X63288128Y-43562025D01*
X63311927Y-43556064D01*
X63336195Y-43552464D01*
X63360699Y-43551260D01*
X64260701Y-43551260D01*
X64285205Y-43552464D01*
G37*
G04 #@! TD.AperFunction*
G04 #@! TA.AperFunction,SMDPad,CuDef*
G36*
X64285205Y-41502464D02*
G01*
X64309473Y-41506064D01*
X64333272Y-41512025D01*
X64356371Y-41520290D01*
X64378550Y-41530780D01*
X64399593Y-41543392D01*
X64419299Y-41558007D01*
X64437477Y-41574483D01*
X64453953Y-41592661D01*
X64468568Y-41612367D01*
X64481180Y-41633410D01*
X64491670Y-41655589D01*
X64499935Y-41678688D01*
X64505896Y-41702487D01*
X64509496Y-41726755D01*
X64510700Y-41751259D01*
X64510700Y-42401261D01*
X64509496Y-42425765D01*
X64505896Y-42450033D01*
X64499935Y-42473832D01*
X64491670Y-42496931D01*
X64481180Y-42519110D01*
X64468568Y-42540153D01*
X64453953Y-42559859D01*
X64437477Y-42578037D01*
X64419299Y-42594513D01*
X64399593Y-42609128D01*
X64378550Y-42621740D01*
X64356371Y-42632230D01*
X64333272Y-42640495D01*
X64309473Y-42646456D01*
X64285205Y-42650056D01*
X64260701Y-42651260D01*
X63360699Y-42651260D01*
X63336195Y-42650056D01*
X63311927Y-42646456D01*
X63288128Y-42640495D01*
X63265029Y-42632230D01*
X63242850Y-42621740D01*
X63221807Y-42609128D01*
X63202101Y-42594513D01*
X63183923Y-42578037D01*
X63167447Y-42559859D01*
X63152832Y-42540153D01*
X63140220Y-42519110D01*
X63129730Y-42496931D01*
X63121465Y-42473832D01*
X63115504Y-42450033D01*
X63111904Y-42425765D01*
X63110700Y-42401261D01*
X63110700Y-41751259D01*
X63111904Y-41726755D01*
X63115504Y-41702487D01*
X63121465Y-41678688D01*
X63129730Y-41655589D01*
X63140220Y-41633410D01*
X63152832Y-41612367D01*
X63167447Y-41592661D01*
X63183923Y-41574483D01*
X63202101Y-41558007D01*
X63221807Y-41543392D01*
X63242850Y-41530780D01*
X63265029Y-41520290D01*
X63288128Y-41512025D01*
X63311927Y-41506064D01*
X63336195Y-41502464D01*
X63360699Y-41501260D01*
X64260701Y-41501260D01*
X64285205Y-41502464D01*
G37*
G04 #@! TD.AperFunction*
G04 #@! TA.AperFunction,SMDPad,CuDef*
G36*
X52441805Y-33715664D02*
G01*
X52466073Y-33719264D01*
X52489872Y-33725225D01*
X52512971Y-33733490D01*
X52535150Y-33743980D01*
X52556193Y-33756592D01*
X52575899Y-33771207D01*
X52594077Y-33787683D01*
X52610553Y-33805861D01*
X52625168Y-33825567D01*
X52637780Y-33846610D01*
X52648270Y-33868789D01*
X52656535Y-33891888D01*
X52662496Y-33915687D01*
X52666096Y-33939955D01*
X52667300Y-33964459D01*
X52667300Y-34864461D01*
X52666096Y-34888965D01*
X52662496Y-34913233D01*
X52656535Y-34937032D01*
X52648270Y-34960131D01*
X52637780Y-34982310D01*
X52625168Y-35003353D01*
X52610553Y-35023059D01*
X52594077Y-35041237D01*
X52575899Y-35057713D01*
X52556193Y-35072328D01*
X52535150Y-35084940D01*
X52512971Y-35095430D01*
X52489872Y-35103695D01*
X52466073Y-35109656D01*
X52441805Y-35113256D01*
X52417301Y-35114460D01*
X51767299Y-35114460D01*
X51742795Y-35113256D01*
X51718527Y-35109656D01*
X51694728Y-35103695D01*
X51671629Y-35095430D01*
X51649450Y-35084940D01*
X51628407Y-35072328D01*
X51608701Y-35057713D01*
X51590523Y-35041237D01*
X51574047Y-35023059D01*
X51559432Y-35003353D01*
X51546820Y-34982310D01*
X51536330Y-34960131D01*
X51528065Y-34937032D01*
X51522104Y-34913233D01*
X51518504Y-34888965D01*
X51517300Y-34864461D01*
X51517300Y-33964459D01*
X51518504Y-33939955D01*
X51522104Y-33915687D01*
X51528065Y-33891888D01*
X51536330Y-33868789D01*
X51546820Y-33846610D01*
X51559432Y-33825567D01*
X51574047Y-33805861D01*
X51590523Y-33787683D01*
X51608701Y-33771207D01*
X51628407Y-33756592D01*
X51649450Y-33743980D01*
X51671629Y-33733490D01*
X51694728Y-33725225D01*
X51718527Y-33719264D01*
X51742795Y-33715664D01*
X51767299Y-33714460D01*
X52417301Y-33714460D01*
X52441805Y-33715664D01*
G37*
G04 #@! TD.AperFunction*
G04 #@! TA.AperFunction,SMDPad,CuDef*
G36*
X54491805Y-33715664D02*
G01*
X54516073Y-33719264D01*
X54539872Y-33725225D01*
X54562971Y-33733490D01*
X54585150Y-33743980D01*
X54606193Y-33756592D01*
X54625899Y-33771207D01*
X54644077Y-33787683D01*
X54660553Y-33805861D01*
X54675168Y-33825567D01*
X54687780Y-33846610D01*
X54698270Y-33868789D01*
X54706535Y-33891888D01*
X54712496Y-33915687D01*
X54716096Y-33939955D01*
X54717300Y-33964459D01*
X54717300Y-34864461D01*
X54716096Y-34888965D01*
X54712496Y-34913233D01*
X54706535Y-34937032D01*
X54698270Y-34960131D01*
X54687780Y-34982310D01*
X54675168Y-35003353D01*
X54660553Y-35023059D01*
X54644077Y-35041237D01*
X54625899Y-35057713D01*
X54606193Y-35072328D01*
X54585150Y-35084940D01*
X54562971Y-35095430D01*
X54539872Y-35103695D01*
X54516073Y-35109656D01*
X54491805Y-35113256D01*
X54467301Y-35114460D01*
X53817299Y-35114460D01*
X53792795Y-35113256D01*
X53768527Y-35109656D01*
X53744728Y-35103695D01*
X53721629Y-35095430D01*
X53699450Y-35084940D01*
X53678407Y-35072328D01*
X53658701Y-35057713D01*
X53640523Y-35041237D01*
X53624047Y-35023059D01*
X53609432Y-35003353D01*
X53596820Y-34982310D01*
X53586330Y-34960131D01*
X53578065Y-34937032D01*
X53572104Y-34913233D01*
X53568504Y-34888965D01*
X53567300Y-34864461D01*
X53567300Y-33964459D01*
X53568504Y-33939955D01*
X53572104Y-33915687D01*
X53578065Y-33891888D01*
X53586330Y-33868789D01*
X53596820Y-33846610D01*
X53609432Y-33825567D01*
X53624047Y-33805861D01*
X53640523Y-33787683D01*
X53658701Y-33771207D01*
X53678407Y-33756592D01*
X53699450Y-33743980D01*
X53721629Y-33733490D01*
X53744728Y-33725225D01*
X53768527Y-33719264D01*
X53792795Y-33715664D01*
X53817299Y-33714460D01*
X54467301Y-33714460D01*
X54491805Y-33715664D01*
G37*
G04 #@! TD.AperFunction*
G04 #@! TA.AperFunction,SMDPad,CuDef*
G36*
X54442705Y-38098864D02*
G01*
X54466973Y-38102464D01*
X54490772Y-38108425D01*
X54513871Y-38116690D01*
X54536050Y-38127180D01*
X54557093Y-38139792D01*
X54576799Y-38154407D01*
X54594977Y-38170883D01*
X54611453Y-38189061D01*
X54626068Y-38208767D01*
X54638680Y-38229810D01*
X54649170Y-38251989D01*
X54657435Y-38275088D01*
X54663396Y-38298887D01*
X54666996Y-38323155D01*
X54668200Y-38347659D01*
X54668200Y-38997661D01*
X54666996Y-39022165D01*
X54663396Y-39046433D01*
X54657435Y-39070232D01*
X54649170Y-39093331D01*
X54638680Y-39115510D01*
X54626068Y-39136553D01*
X54611453Y-39156259D01*
X54594977Y-39174437D01*
X54576799Y-39190913D01*
X54557093Y-39205528D01*
X54536050Y-39218140D01*
X54513871Y-39228630D01*
X54490772Y-39236895D01*
X54466973Y-39242856D01*
X54442705Y-39246456D01*
X54418201Y-39247660D01*
X53518199Y-39247660D01*
X53493695Y-39246456D01*
X53469427Y-39242856D01*
X53445628Y-39236895D01*
X53422529Y-39228630D01*
X53400350Y-39218140D01*
X53379307Y-39205528D01*
X53359601Y-39190913D01*
X53341423Y-39174437D01*
X53324947Y-39156259D01*
X53310332Y-39136553D01*
X53297720Y-39115510D01*
X53287230Y-39093331D01*
X53278965Y-39070232D01*
X53273004Y-39046433D01*
X53269404Y-39022165D01*
X53268200Y-38997661D01*
X53268200Y-38347659D01*
X53269404Y-38323155D01*
X53273004Y-38298887D01*
X53278965Y-38275088D01*
X53287230Y-38251989D01*
X53297720Y-38229810D01*
X53310332Y-38208767D01*
X53324947Y-38189061D01*
X53341423Y-38170883D01*
X53359601Y-38154407D01*
X53379307Y-38139792D01*
X53400350Y-38127180D01*
X53422529Y-38116690D01*
X53445628Y-38108425D01*
X53469427Y-38102464D01*
X53493695Y-38098864D01*
X53518199Y-38097660D01*
X54418201Y-38097660D01*
X54442705Y-38098864D01*
G37*
G04 #@! TD.AperFunction*
G04 #@! TA.AperFunction,SMDPad,CuDef*
G36*
X54442705Y-40148864D02*
G01*
X54466973Y-40152464D01*
X54490772Y-40158425D01*
X54513871Y-40166690D01*
X54536050Y-40177180D01*
X54557093Y-40189792D01*
X54576799Y-40204407D01*
X54594977Y-40220883D01*
X54611453Y-40239061D01*
X54626068Y-40258767D01*
X54638680Y-40279810D01*
X54649170Y-40301989D01*
X54657435Y-40325088D01*
X54663396Y-40348887D01*
X54666996Y-40373155D01*
X54668200Y-40397659D01*
X54668200Y-41047661D01*
X54666996Y-41072165D01*
X54663396Y-41096433D01*
X54657435Y-41120232D01*
X54649170Y-41143331D01*
X54638680Y-41165510D01*
X54626068Y-41186553D01*
X54611453Y-41206259D01*
X54594977Y-41224437D01*
X54576799Y-41240913D01*
X54557093Y-41255528D01*
X54536050Y-41268140D01*
X54513871Y-41278630D01*
X54490772Y-41286895D01*
X54466973Y-41292856D01*
X54442705Y-41296456D01*
X54418201Y-41297660D01*
X53518199Y-41297660D01*
X53493695Y-41296456D01*
X53469427Y-41292856D01*
X53445628Y-41286895D01*
X53422529Y-41278630D01*
X53400350Y-41268140D01*
X53379307Y-41255528D01*
X53359601Y-41240913D01*
X53341423Y-41224437D01*
X53324947Y-41206259D01*
X53310332Y-41186553D01*
X53297720Y-41165510D01*
X53287230Y-41143331D01*
X53278965Y-41120232D01*
X53273004Y-41096433D01*
X53269404Y-41072165D01*
X53268200Y-41047661D01*
X53268200Y-40397659D01*
X53269404Y-40373155D01*
X53273004Y-40348887D01*
X53278965Y-40325088D01*
X53287230Y-40301989D01*
X53297720Y-40279810D01*
X53310332Y-40258767D01*
X53324947Y-40239061D01*
X53341423Y-40220883D01*
X53359601Y-40204407D01*
X53379307Y-40189792D01*
X53400350Y-40177180D01*
X53422529Y-40166690D01*
X53445628Y-40158425D01*
X53469427Y-40152464D01*
X53493695Y-40148864D01*
X53518199Y-40147660D01*
X54418201Y-40147660D01*
X54442705Y-40148864D01*
G37*
G04 #@! TD.AperFunction*
G04 #@! TA.AperFunction,SMDPad,CuDef*
G36*
X57273203Y-35474082D02*
G01*
X57287764Y-35476242D01*
X57302043Y-35479819D01*
X57315903Y-35484778D01*
X57329210Y-35491072D01*
X57341836Y-35498640D01*
X57353659Y-35507408D01*
X57364566Y-35517294D01*
X57374452Y-35528201D01*
X57383220Y-35540024D01*
X57390788Y-35552650D01*
X57397082Y-35565957D01*
X57402041Y-35579817D01*
X57405618Y-35594096D01*
X57407778Y-35608657D01*
X57408500Y-35623360D01*
X57408500Y-35923360D01*
X57407778Y-35938063D01*
X57405618Y-35952624D01*
X57402041Y-35966903D01*
X57397082Y-35980763D01*
X57390788Y-35994070D01*
X57383220Y-36006696D01*
X57374452Y-36018519D01*
X57364566Y-36029426D01*
X57353659Y-36039312D01*
X57341836Y-36048080D01*
X57329210Y-36055648D01*
X57315903Y-36061942D01*
X57302043Y-36066901D01*
X57287764Y-36070478D01*
X57273203Y-36072638D01*
X57258500Y-36073360D01*
X55608500Y-36073360D01*
X55593797Y-36072638D01*
X55579236Y-36070478D01*
X55564957Y-36066901D01*
X55551097Y-36061942D01*
X55537790Y-36055648D01*
X55525164Y-36048080D01*
X55513341Y-36039312D01*
X55502434Y-36029426D01*
X55492548Y-36018519D01*
X55483780Y-36006696D01*
X55476212Y-35994070D01*
X55469918Y-35980763D01*
X55464959Y-35966903D01*
X55461382Y-35952624D01*
X55459222Y-35938063D01*
X55458500Y-35923360D01*
X55458500Y-35623360D01*
X55459222Y-35608657D01*
X55461382Y-35594096D01*
X55464959Y-35579817D01*
X55469918Y-35565957D01*
X55476212Y-35552650D01*
X55483780Y-35540024D01*
X55492548Y-35528201D01*
X55502434Y-35517294D01*
X55513341Y-35507408D01*
X55525164Y-35498640D01*
X55537790Y-35491072D01*
X55551097Y-35484778D01*
X55564957Y-35479819D01*
X55579236Y-35476242D01*
X55593797Y-35474082D01*
X55608500Y-35473360D01*
X57258500Y-35473360D01*
X57273203Y-35474082D01*
G37*
G04 #@! TD.AperFunction*
G04 #@! TA.AperFunction,SMDPad,CuDef*
G36*
X57273203Y-36744082D02*
G01*
X57287764Y-36746242D01*
X57302043Y-36749819D01*
X57315903Y-36754778D01*
X57329210Y-36761072D01*
X57341836Y-36768640D01*
X57353659Y-36777408D01*
X57364566Y-36787294D01*
X57374452Y-36798201D01*
X57383220Y-36810024D01*
X57390788Y-36822650D01*
X57397082Y-36835957D01*
X57402041Y-36849817D01*
X57405618Y-36864096D01*
X57407778Y-36878657D01*
X57408500Y-36893360D01*
X57408500Y-37193360D01*
X57407778Y-37208063D01*
X57405618Y-37222624D01*
X57402041Y-37236903D01*
X57397082Y-37250763D01*
X57390788Y-37264070D01*
X57383220Y-37276696D01*
X57374452Y-37288519D01*
X57364566Y-37299426D01*
X57353659Y-37309312D01*
X57341836Y-37318080D01*
X57329210Y-37325648D01*
X57315903Y-37331942D01*
X57302043Y-37336901D01*
X57287764Y-37340478D01*
X57273203Y-37342638D01*
X57258500Y-37343360D01*
X55608500Y-37343360D01*
X55593797Y-37342638D01*
X55579236Y-37340478D01*
X55564957Y-37336901D01*
X55551097Y-37331942D01*
X55537790Y-37325648D01*
X55525164Y-37318080D01*
X55513341Y-37309312D01*
X55502434Y-37299426D01*
X55492548Y-37288519D01*
X55483780Y-37276696D01*
X55476212Y-37264070D01*
X55469918Y-37250763D01*
X55464959Y-37236903D01*
X55461382Y-37222624D01*
X55459222Y-37208063D01*
X55458500Y-37193360D01*
X55458500Y-36893360D01*
X55459222Y-36878657D01*
X55461382Y-36864096D01*
X55464959Y-36849817D01*
X55469918Y-36835957D01*
X55476212Y-36822650D01*
X55483780Y-36810024D01*
X55492548Y-36798201D01*
X55502434Y-36787294D01*
X55513341Y-36777408D01*
X55525164Y-36768640D01*
X55537790Y-36761072D01*
X55551097Y-36754778D01*
X55564957Y-36749819D01*
X55579236Y-36746242D01*
X55593797Y-36744082D01*
X55608500Y-36743360D01*
X57258500Y-36743360D01*
X57273203Y-36744082D01*
G37*
G04 #@! TD.AperFunction*
G04 #@! TA.AperFunction,SMDPad,CuDef*
G36*
X57273203Y-38014082D02*
G01*
X57287764Y-38016242D01*
X57302043Y-38019819D01*
X57315903Y-38024778D01*
X57329210Y-38031072D01*
X57341836Y-38038640D01*
X57353659Y-38047408D01*
X57364566Y-38057294D01*
X57374452Y-38068201D01*
X57383220Y-38080024D01*
X57390788Y-38092650D01*
X57397082Y-38105957D01*
X57402041Y-38119817D01*
X57405618Y-38134096D01*
X57407778Y-38148657D01*
X57408500Y-38163360D01*
X57408500Y-38463360D01*
X57407778Y-38478063D01*
X57405618Y-38492624D01*
X57402041Y-38506903D01*
X57397082Y-38520763D01*
X57390788Y-38534070D01*
X57383220Y-38546696D01*
X57374452Y-38558519D01*
X57364566Y-38569426D01*
X57353659Y-38579312D01*
X57341836Y-38588080D01*
X57329210Y-38595648D01*
X57315903Y-38601942D01*
X57302043Y-38606901D01*
X57287764Y-38610478D01*
X57273203Y-38612638D01*
X57258500Y-38613360D01*
X55608500Y-38613360D01*
X55593797Y-38612638D01*
X55579236Y-38610478D01*
X55564957Y-38606901D01*
X55551097Y-38601942D01*
X55537790Y-38595648D01*
X55525164Y-38588080D01*
X55513341Y-38579312D01*
X55502434Y-38569426D01*
X55492548Y-38558519D01*
X55483780Y-38546696D01*
X55476212Y-38534070D01*
X55469918Y-38520763D01*
X55464959Y-38506903D01*
X55461382Y-38492624D01*
X55459222Y-38478063D01*
X55458500Y-38463360D01*
X55458500Y-38163360D01*
X55459222Y-38148657D01*
X55461382Y-38134096D01*
X55464959Y-38119817D01*
X55469918Y-38105957D01*
X55476212Y-38092650D01*
X55483780Y-38080024D01*
X55492548Y-38068201D01*
X55502434Y-38057294D01*
X55513341Y-38047408D01*
X55525164Y-38038640D01*
X55537790Y-38031072D01*
X55551097Y-38024778D01*
X55564957Y-38019819D01*
X55579236Y-38016242D01*
X55593797Y-38014082D01*
X55608500Y-38013360D01*
X57258500Y-38013360D01*
X57273203Y-38014082D01*
G37*
G04 #@! TD.AperFunction*
G04 #@! TA.AperFunction,SMDPad,CuDef*
G36*
X57273203Y-39284082D02*
G01*
X57287764Y-39286242D01*
X57302043Y-39289819D01*
X57315903Y-39294778D01*
X57329210Y-39301072D01*
X57341836Y-39308640D01*
X57353659Y-39317408D01*
X57364566Y-39327294D01*
X57374452Y-39338201D01*
X57383220Y-39350024D01*
X57390788Y-39362650D01*
X57397082Y-39375957D01*
X57402041Y-39389817D01*
X57405618Y-39404096D01*
X57407778Y-39418657D01*
X57408500Y-39433360D01*
X57408500Y-39733360D01*
X57407778Y-39748063D01*
X57405618Y-39762624D01*
X57402041Y-39776903D01*
X57397082Y-39790763D01*
X57390788Y-39804070D01*
X57383220Y-39816696D01*
X57374452Y-39828519D01*
X57364566Y-39839426D01*
X57353659Y-39849312D01*
X57341836Y-39858080D01*
X57329210Y-39865648D01*
X57315903Y-39871942D01*
X57302043Y-39876901D01*
X57287764Y-39880478D01*
X57273203Y-39882638D01*
X57258500Y-39883360D01*
X55608500Y-39883360D01*
X55593797Y-39882638D01*
X55579236Y-39880478D01*
X55564957Y-39876901D01*
X55551097Y-39871942D01*
X55537790Y-39865648D01*
X55525164Y-39858080D01*
X55513341Y-39849312D01*
X55502434Y-39839426D01*
X55492548Y-39828519D01*
X55483780Y-39816696D01*
X55476212Y-39804070D01*
X55469918Y-39790763D01*
X55464959Y-39776903D01*
X55461382Y-39762624D01*
X55459222Y-39748063D01*
X55458500Y-39733360D01*
X55458500Y-39433360D01*
X55459222Y-39418657D01*
X55461382Y-39404096D01*
X55464959Y-39389817D01*
X55469918Y-39375957D01*
X55476212Y-39362650D01*
X55483780Y-39350024D01*
X55492548Y-39338201D01*
X55502434Y-39327294D01*
X55513341Y-39317408D01*
X55525164Y-39308640D01*
X55537790Y-39301072D01*
X55551097Y-39294778D01*
X55564957Y-39289819D01*
X55579236Y-39286242D01*
X55593797Y-39284082D01*
X55608500Y-39283360D01*
X57258500Y-39283360D01*
X57273203Y-39284082D01*
G37*
G04 #@! TD.AperFunction*
G04 #@! TA.AperFunction,SMDPad,CuDef*
G36*
X57273203Y-40554082D02*
G01*
X57287764Y-40556242D01*
X57302043Y-40559819D01*
X57315903Y-40564778D01*
X57329210Y-40571072D01*
X57341836Y-40578640D01*
X57353659Y-40587408D01*
X57364566Y-40597294D01*
X57374452Y-40608201D01*
X57383220Y-40620024D01*
X57390788Y-40632650D01*
X57397082Y-40645957D01*
X57402041Y-40659817D01*
X57405618Y-40674096D01*
X57407778Y-40688657D01*
X57408500Y-40703360D01*
X57408500Y-41003360D01*
X57407778Y-41018063D01*
X57405618Y-41032624D01*
X57402041Y-41046903D01*
X57397082Y-41060763D01*
X57390788Y-41074070D01*
X57383220Y-41086696D01*
X57374452Y-41098519D01*
X57364566Y-41109426D01*
X57353659Y-41119312D01*
X57341836Y-41128080D01*
X57329210Y-41135648D01*
X57315903Y-41141942D01*
X57302043Y-41146901D01*
X57287764Y-41150478D01*
X57273203Y-41152638D01*
X57258500Y-41153360D01*
X55608500Y-41153360D01*
X55593797Y-41152638D01*
X55579236Y-41150478D01*
X55564957Y-41146901D01*
X55551097Y-41141942D01*
X55537790Y-41135648D01*
X55525164Y-41128080D01*
X55513341Y-41119312D01*
X55502434Y-41109426D01*
X55492548Y-41098519D01*
X55483780Y-41086696D01*
X55476212Y-41074070D01*
X55469918Y-41060763D01*
X55464959Y-41046903D01*
X55461382Y-41032624D01*
X55459222Y-41018063D01*
X55458500Y-41003360D01*
X55458500Y-40703360D01*
X55459222Y-40688657D01*
X55461382Y-40674096D01*
X55464959Y-40659817D01*
X55469918Y-40645957D01*
X55476212Y-40632650D01*
X55483780Y-40620024D01*
X55492548Y-40608201D01*
X55502434Y-40597294D01*
X55513341Y-40587408D01*
X55525164Y-40578640D01*
X55537790Y-40571072D01*
X55551097Y-40564778D01*
X55564957Y-40559819D01*
X55579236Y-40556242D01*
X55593797Y-40554082D01*
X55608500Y-40553360D01*
X57258500Y-40553360D01*
X57273203Y-40554082D01*
G37*
G04 #@! TD.AperFunction*
G04 #@! TA.AperFunction,SMDPad,CuDef*
G36*
X57273203Y-41824082D02*
G01*
X57287764Y-41826242D01*
X57302043Y-41829819D01*
X57315903Y-41834778D01*
X57329210Y-41841072D01*
X57341836Y-41848640D01*
X57353659Y-41857408D01*
X57364566Y-41867294D01*
X57374452Y-41878201D01*
X57383220Y-41890024D01*
X57390788Y-41902650D01*
X57397082Y-41915957D01*
X57402041Y-41929817D01*
X57405618Y-41944096D01*
X57407778Y-41958657D01*
X57408500Y-41973360D01*
X57408500Y-42273360D01*
X57407778Y-42288063D01*
X57405618Y-42302624D01*
X57402041Y-42316903D01*
X57397082Y-42330763D01*
X57390788Y-42344070D01*
X57383220Y-42356696D01*
X57374452Y-42368519D01*
X57364566Y-42379426D01*
X57353659Y-42389312D01*
X57341836Y-42398080D01*
X57329210Y-42405648D01*
X57315903Y-42411942D01*
X57302043Y-42416901D01*
X57287764Y-42420478D01*
X57273203Y-42422638D01*
X57258500Y-42423360D01*
X55608500Y-42423360D01*
X55593797Y-42422638D01*
X55579236Y-42420478D01*
X55564957Y-42416901D01*
X55551097Y-42411942D01*
X55537790Y-42405648D01*
X55525164Y-42398080D01*
X55513341Y-42389312D01*
X55502434Y-42379426D01*
X55492548Y-42368519D01*
X55483780Y-42356696D01*
X55476212Y-42344070D01*
X55469918Y-42330763D01*
X55464959Y-42316903D01*
X55461382Y-42302624D01*
X55459222Y-42288063D01*
X55458500Y-42273360D01*
X55458500Y-41973360D01*
X55459222Y-41958657D01*
X55461382Y-41944096D01*
X55464959Y-41929817D01*
X55469918Y-41915957D01*
X55476212Y-41902650D01*
X55483780Y-41890024D01*
X55492548Y-41878201D01*
X55502434Y-41867294D01*
X55513341Y-41857408D01*
X55525164Y-41848640D01*
X55537790Y-41841072D01*
X55551097Y-41834778D01*
X55564957Y-41829819D01*
X55579236Y-41826242D01*
X55593797Y-41824082D01*
X55608500Y-41823360D01*
X57258500Y-41823360D01*
X57273203Y-41824082D01*
G37*
G04 #@! TD.AperFunction*
G04 #@! TA.AperFunction,SMDPad,CuDef*
G36*
X57273203Y-43094082D02*
G01*
X57287764Y-43096242D01*
X57302043Y-43099819D01*
X57315903Y-43104778D01*
X57329210Y-43111072D01*
X57341836Y-43118640D01*
X57353659Y-43127408D01*
X57364566Y-43137294D01*
X57374452Y-43148201D01*
X57383220Y-43160024D01*
X57390788Y-43172650D01*
X57397082Y-43185957D01*
X57402041Y-43199817D01*
X57405618Y-43214096D01*
X57407778Y-43228657D01*
X57408500Y-43243360D01*
X57408500Y-43543360D01*
X57407778Y-43558063D01*
X57405618Y-43572624D01*
X57402041Y-43586903D01*
X57397082Y-43600763D01*
X57390788Y-43614070D01*
X57383220Y-43626696D01*
X57374452Y-43638519D01*
X57364566Y-43649426D01*
X57353659Y-43659312D01*
X57341836Y-43668080D01*
X57329210Y-43675648D01*
X57315903Y-43681942D01*
X57302043Y-43686901D01*
X57287764Y-43690478D01*
X57273203Y-43692638D01*
X57258500Y-43693360D01*
X55608500Y-43693360D01*
X55593797Y-43692638D01*
X55579236Y-43690478D01*
X55564957Y-43686901D01*
X55551097Y-43681942D01*
X55537790Y-43675648D01*
X55525164Y-43668080D01*
X55513341Y-43659312D01*
X55502434Y-43649426D01*
X55492548Y-43638519D01*
X55483780Y-43626696D01*
X55476212Y-43614070D01*
X55469918Y-43600763D01*
X55464959Y-43586903D01*
X55461382Y-43572624D01*
X55459222Y-43558063D01*
X55458500Y-43543360D01*
X55458500Y-43243360D01*
X55459222Y-43228657D01*
X55461382Y-43214096D01*
X55464959Y-43199817D01*
X55469918Y-43185957D01*
X55476212Y-43172650D01*
X55483780Y-43160024D01*
X55492548Y-43148201D01*
X55502434Y-43137294D01*
X55513341Y-43127408D01*
X55525164Y-43118640D01*
X55537790Y-43111072D01*
X55551097Y-43104778D01*
X55564957Y-43099819D01*
X55579236Y-43096242D01*
X55593797Y-43094082D01*
X55608500Y-43093360D01*
X57258500Y-43093360D01*
X57273203Y-43094082D01*
G37*
G04 #@! TD.AperFunction*
G04 #@! TA.AperFunction,SMDPad,CuDef*
G36*
X62223203Y-43094082D02*
G01*
X62237764Y-43096242D01*
X62252043Y-43099819D01*
X62265903Y-43104778D01*
X62279210Y-43111072D01*
X62291836Y-43118640D01*
X62303659Y-43127408D01*
X62314566Y-43137294D01*
X62324452Y-43148201D01*
X62333220Y-43160024D01*
X62340788Y-43172650D01*
X62347082Y-43185957D01*
X62352041Y-43199817D01*
X62355618Y-43214096D01*
X62357778Y-43228657D01*
X62358500Y-43243360D01*
X62358500Y-43543360D01*
X62357778Y-43558063D01*
X62355618Y-43572624D01*
X62352041Y-43586903D01*
X62347082Y-43600763D01*
X62340788Y-43614070D01*
X62333220Y-43626696D01*
X62324452Y-43638519D01*
X62314566Y-43649426D01*
X62303659Y-43659312D01*
X62291836Y-43668080D01*
X62279210Y-43675648D01*
X62265903Y-43681942D01*
X62252043Y-43686901D01*
X62237764Y-43690478D01*
X62223203Y-43692638D01*
X62208500Y-43693360D01*
X60558500Y-43693360D01*
X60543797Y-43692638D01*
X60529236Y-43690478D01*
X60514957Y-43686901D01*
X60501097Y-43681942D01*
X60487790Y-43675648D01*
X60475164Y-43668080D01*
X60463341Y-43659312D01*
X60452434Y-43649426D01*
X60442548Y-43638519D01*
X60433780Y-43626696D01*
X60426212Y-43614070D01*
X60419918Y-43600763D01*
X60414959Y-43586903D01*
X60411382Y-43572624D01*
X60409222Y-43558063D01*
X60408500Y-43543360D01*
X60408500Y-43243360D01*
X60409222Y-43228657D01*
X60411382Y-43214096D01*
X60414959Y-43199817D01*
X60419918Y-43185957D01*
X60426212Y-43172650D01*
X60433780Y-43160024D01*
X60442548Y-43148201D01*
X60452434Y-43137294D01*
X60463341Y-43127408D01*
X60475164Y-43118640D01*
X60487790Y-43111072D01*
X60501097Y-43104778D01*
X60514957Y-43099819D01*
X60529236Y-43096242D01*
X60543797Y-43094082D01*
X60558500Y-43093360D01*
X62208500Y-43093360D01*
X62223203Y-43094082D01*
G37*
G04 #@! TD.AperFunction*
G04 #@! TA.AperFunction,SMDPad,CuDef*
G36*
X62223203Y-41824082D02*
G01*
X62237764Y-41826242D01*
X62252043Y-41829819D01*
X62265903Y-41834778D01*
X62279210Y-41841072D01*
X62291836Y-41848640D01*
X62303659Y-41857408D01*
X62314566Y-41867294D01*
X62324452Y-41878201D01*
X62333220Y-41890024D01*
X62340788Y-41902650D01*
X62347082Y-41915957D01*
X62352041Y-41929817D01*
X62355618Y-41944096D01*
X62357778Y-41958657D01*
X62358500Y-41973360D01*
X62358500Y-42273360D01*
X62357778Y-42288063D01*
X62355618Y-42302624D01*
X62352041Y-42316903D01*
X62347082Y-42330763D01*
X62340788Y-42344070D01*
X62333220Y-42356696D01*
X62324452Y-42368519D01*
X62314566Y-42379426D01*
X62303659Y-42389312D01*
X62291836Y-42398080D01*
X62279210Y-42405648D01*
X62265903Y-42411942D01*
X62252043Y-42416901D01*
X62237764Y-42420478D01*
X62223203Y-42422638D01*
X62208500Y-42423360D01*
X60558500Y-42423360D01*
X60543797Y-42422638D01*
X60529236Y-42420478D01*
X60514957Y-42416901D01*
X60501097Y-42411942D01*
X60487790Y-42405648D01*
X60475164Y-42398080D01*
X60463341Y-42389312D01*
X60452434Y-42379426D01*
X60442548Y-42368519D01*
X60433780Y-42356696D01*
X60426212Y-42344070D01*
X60419918Y-42330763D01*
X60414959Y-42316903D01*
X60411382Y-42302624D01*
X60409222Y-42288063D01*
X60408500Y-42273360D01*
X60408500Y-41973360D01*
X60409222Y-41958657D01*
X60411382Y-41944096D01*
X60414959Y-41929817D01*
X60419918Y-41915957D01*
X60426212Y-41902650D01*
X60433780Y-41890024D01*
X60442548Y-41878201D01*
X60452434Y-41867294D01*
X60463341Y-41857408D01*
X60475164Y-41848640D01*
X60487790Y-41841072D01*
X60501097Y-41834778D01*
X60514957Y-41829819D01*
X60529236Y-41826242D01*
X60543797Y-41824082D01*
X60558500Y-41823360D01*
X62208500Y-41823360D01*
X62223203Y-41824082D01*
G37*
G04 #@! TD.AperFunction*
G04 #@! TA.AperFunction,SMDPad,CuDef*
G36*
X62223203Y-40554082D02*
G01*
X62237764Y-40556242D01*
X62252043Y-40559819D01*
X62265903Y-40564778D01*
X62279210Y-40571072D01*
X62291836Y-40578640D01*
X62303659Y-40587408D01*
X62314566Y-40597294D01*
X62324452Y-40608201D01*
X62333220Y-40620024D01*
X62340788Y-40632650D01*
X62347082Y-40645957D01*
X62352041Y-40659817D01*
X62355618Y-40674096D01*
X62357778Y-40688657D01*
X62358500Y-40703360D01*
X62358500Y-41003360D01*
X62357778Y-41018063D01*
X62355618Y-41032624D01*
X62352041Y-41046903D01*
X62347082Y-41060763D01*
X62340788Y-41074070D01*
X62333220Y-41086696D01*
X62324452Y-41098519D01*
X62314566Y-41109426D01*
X62303659Y-41119312D01*
X62291836Y-41128080D01*
X62279210Y-41135648D01*
X62265903Y-41141942D01*
X62252043Y-41146901D01*
X62237764Y-41150478D01*
X62223203Y-41152638D01*
X62208500Y-41153360D01*
X60558500Y-41153360D01*
X60543797Y-41152638D01*
X60529236Y-41150478D01*
X60514957Y-41146901D01*
X60501097Y-41141942D01*
X60487790Y-41135648D01*
X60475164Y-41128080D01*
X60463341Y-41119312D01*
X60452434Y-41109426D01*
X60442548Y-41098519D01*
X60433780Y-41086696D01*
X60426212Y-41074070D01*
X60419918Y-41060763D01*
X60414959Y-41046903D01*
X60411382Y-41032624D01*
X60409222Y-41018063D01*
X60408500Y-41003360D01*
X60408500Y-40703360D01*
X60409222Y-40688657D01*
X60411382Y-40674096D01*
X60414959Y-40659817D01*
X60419918Y-40645957D01*
X60426212Y-40632650D01*
X60433780Y-40620024D01*
X60442548Y-40608201D01*
X60452434Y-40597294D01*
X60463341Y-40587408D01*
X60475164Y-40578640D01*
X60487790Y-40571072D01*
X60501097Y-40564778D01*
X60514957Y-40559819D01*
X60529236Y-40556242D01*
X60543797Y-40554082D01*
X60558500Y-40553360D01*
X62208500Y-40553360D01*
X62223203Y-40554082D01*
G37*
G04 #@! TD.AperFunction*
G04 #@! TA.AperFunction,SMDPad,CuDef*
G36*
X62223203Y-39284082D02*
G01*
X62237764Y-39286242D01*
X62252043Y-39289819D01*
X62265903Y-39294778D01*
X62279210Y-39301072D01*
X62291836Y-39308640D01*
X62303659Y-39317408D01*
X62314566Y-39327294D01*
X62324452Y-39338201D01*
X62333220Y-39350024D01*
X62340788Y-39362650D01*
X62347082Y-39375957D01*
X62352041Y-39389817D01*
X62355618Y-39404096D01*
X62357778Y-39418657D01*
X62358500Y-39433360D01*
X62358500Y-39733360D01*
X62357778Y-39748063D01*
X62355618Y-39762624D01*
X62352041Y-39776903D01*
X62347082Y-39790763D01*
X62340788Y-39804070D01*
X62333220Y-39816696D01*
X62324452Y-39828519D01*
X62314566Y-39839426D01*
X62303659Y-39849312D01*
X62291836Y-39858080D01*
X62279210Y-39865648D01*
X62265903Y-39871942D01*
X62252043Y-39876901D01*
X62237764Y-39880478D01*
X62223203Y-39882638D01*
X62208500Y-39883360D01*
X60558500Y-39883360D01*
X60543797Y-39882638D01*
X60529236Y-39880478D01*
X60514957Y-39876901D01*
X60501097Y-39871942D01*
X60487790Y-39865648D01*
X60475164Y-39858080D01*
X60463341Y-39849312D01*
X60452434Y-39839426D01*
X60442548Y-39828519D01*
X60433780Y-39816696D01*
X60426212Y-39804070D01*
X60419918Y-39790763D01*
X60414959Y-39776903D01*
X60411382Y-39762624D01*
X60409222Y-39748063D01*
X60408500Y-39733360D01*
X60408500Y-39433360D01*
X60409222Y-39418657D01*
X60411382Y-39404096D01*
X60414959Y-39389817D01*
X60419918Y-39375957D01*
X60426212Y-39362650D01*
X60433780Y-39350024D01*
X60442548Y-39338201D01*
X60452434Y-39327294D01*
X60463341Y-39317408D01*
X60475164Y-39308640D01*
X60487790Y-39301072D01*
X60501097Y-39294778D01*
X60514957Y-39289819D01*
X60529236Y-39286242D01*
X60543797Y-39284082D01*
X60558500Y-39283360D01*
X62208500Y-39283360D01*
X62223203Y-39284082D01*
G37*
G04 #@! TD.AperFunction*
G04 #@! TA.AperFunction,SMDPad,CuDef*
G36*
X62223203Y-38014082D02*
G01*
X62237764Y-38016242D01*
X62252043Y-38019819D01*
X62265903Y-38024778D01*
X62279210Y-38031072D01*
X62291836Y-38038640D01*
X62303659Y-38047408D01*
X62314566Y-38057294D01*
X62324452Y-38068201D01*
X62333220Y-38080024D01*
X62340788Y-38092650D01*
X62347082Y-38105957D01*
X62352041Y-38119817D01*
X62355618Y-38134096D01*
X62357778Y-38148657D01*
X62358500Y-38163360D01*
X62358500Y-38463360D01*
X62357778Y-38478063D01*
X62355618Y-38492624D01*
X62352041Y-38506903D01*
X62347082Y-38520763D01*
X62340788Y-38534070D01*
X62333220Y-38546696D01*
X62324452Y-38558519D01*
X62314566Y-38569426D01*
X62303659Y-38579312D01*
X62291836Y-38588080D01*
X62279210Y-38595648D01*
X62265903Y-38601942D01*
X62252043Y-38606901D01*
X62237764Y-38610478D01*
X62223203Y-38612638D01*
X62208500Y-38613360D01*
X60558500Y-38613360D01*
X60543797Y-38612638D01*
X60529236Y-38610478D01*
X60514957Y-38606901D01*
X60501097Y-38601942D01*
X60487790Y-38595648D01*
X60475164Y-38588080D01*
X60463341Y-38579312D01*
X60452434Y-38569426D01*
X60442548Y-38558519D01*
X60433780Y-38546696D01*
X60426212Y-38534070D01*
X60419918Y-38520763D01*
X60414959Y-38506903D01*
X60411382Y-38492624D01*
X60409222Y-38478063D01*
X60408500Y-38463360D01*
X60408500Y-38163360D01*
X60409222Y-38148657D01*
X60411382Y-38134096D01*
X60414959Y-38119817D01*
X60419918Y-38105957D01*
X60426212Y-38092650D01*
X60433780Y-38080024D01*
X60442548Y-38068201D01*
X60452434Y-38057294D01*
X60463341Y-38047408D01*
X60475164Y-38038640D01*
X60487790Y-38031072D01*
X60501097Y-38024778D01*
X60514957Y-38019819D01*
X60529236Y-38016242D01*
X60543797Y-38014082D01*
X60558500Y-38013360D01*
X62208500Y-38013360D01*
X62223203Y-38014082D01*
G37*
G04 #@! TD.AperFunction*
G04 #@! TA.AperFunction,SMDPad,CuDef*
G36*
X62223203Y-36744082D02*
G01*
X62237764Y-36746242D01*
X62252043Y-36749819D01*
X62265903Y-36754778D01*
X62279210Y-36761072D01*
X62291836Y-36768640D01*
X62303659Y-36777408D01*
X62314566Y-36787294D01*
X62324452Y-36798201D01*
X62333220Y-36810024D01*
X62340788Y-36822650D01*
X62347082Y-36835957D01*
X62352041Y-36849817D01*
X62355618Y-36864096D01*
X62357778Y-36878657D01*
X62358500Y-36893360D01*
X62358500Y-37193360D01*
X62357778Y-37208063D01*
X62355618Y-37222624D01*
X62352041Y-37236903D01*
X62347082Y-37250763D01*
X62340788Y-37264070D01*
X62333220Y-37276696D01*
X62324452Y-37288519D01*
X62314566Y-37299426D01*
X62303659Y-37309312D01*
X62291836Y-37318080D01*
X62279210Y-37325648D01*
X62265903Y-37331942D01*
X62252043Y-37336901D01*
X62237764Y-37340478D01*
X62223203Y-37342638D01*
X62208500Y-37343360D01*
X60558500Y-37343360D01*
X60543797Y-37342638D01*
X60529236Y-37340478D01*
X60514957Y-37336901D01*
X60501097Y-37331942D01*
X60487790Y-37325648D01*
X60475164Y-37318080D01*
X60463341Y-37309312D01*
X60452434Y-37299426D01*
X60442548Y-37288519D01*
X60433780Y-37276696D01*
X60426212Y-37264070D01*
X60419918Y-37250763D01*
X60414959Y-37236903D01*
X60411382Y-37222624D01*
X60409222Y-37208063D01*
X60408500Y-37193360D01*
X60408500Y-36893360D01*
X60409222Y-36878657D01*
X60411382Y-36864096D01*
X60414959Y-36849817D01*
X60419918Y-36835957D01*
X60426212Y-36822650D01*
X60433780Y-36810024D01*
X60442548Y-36798201D01*
X60452434Y-36787294D01*
X60463341Y-36777408D01*
X60475164Y-36768640D01*
X60487790Y-36761072D01*
X60501097Y-36754778D01*
X60514957Y-36749819D01*
X60529236Y-36746242D01*
X60543797Y-36744082D01*
X60558500Y-36743360D01*
X62208500Y-36743360D01*
X62223203Y-36744082D01*
G37*
G04 #@! TD.AperFunction*
G04 #@! TA.AperFunction,SMDPad,CuDef*
G36*
X62223203Y-35474082D02*
G01*
X62237764Y-35476242D01*
X62252043Y-35479819D01*
X62265903Y-35484778D01*
X62279210Y-35491072D01*
X62291836Y-35498640D01*
X62303659Y-35507408D01*
X62314566Y-35517294D01*
X62324452Y-35528201D01*
X62333220Y-35540024D01*
X62340788Y-35552650D01*
X62347082Y-35565957D01*
X62352041Y-35579817D01*
X62355618Y-35594096D01*
X62357778Y-35608657D01*
X62358500Y-35623360D01*
X62358500Y-35923360D01*
X62357778Y-35938063D01*
X62355618Y-35952624D01*
X62352041Y-35966903D01*
X62347082Y-35980763D01*
X62340788Y-35994070D01*
X62333220Y-36006696D01*
X62324452Y-36018519D01*
X62314566Y-36029426D01*
X62303659Y-36039312D01*
X62291836Y-36048080D01*
X62279210Y-36055648D01*
X62265903Y-36061942D01*
X62252043Y-36066901D01*
X62237764Y-36070478D01*
X62223203Y-36072638D01*
X62208500Y-36073360D01*
X60558500Y-36073360D01*
X60543797Y-36072638D01*
X60529236Y-36070478D01*
X60514957Y-36066901D01*
X60501097Y-36061942D01*
X60487790Y-36055648D01*
X60475164Y-36048080D01*
X60463341Y-36039312D01*
X60452434Y-36029426D01*
X60442548Y-36018519D01*
X60433780Y-36006696D01*
X60426212Y-35994070D01*
X60419918Y-35980763D01*
X60414959Y-35966903D01*
X60411382Y-35952624D01*
X60409222Y-35938063D01*
X60408500Y-35923360D01*
X60408500Y-35623360D01*
X60409222Y-35608657D01*
X60411382Y-35594096D01*
X60414959Y-35579817D01*
X60419918Y-35565957D01*
X60426212Y-35552650D01*
X60433780Y-35540024D01*
X60442548Y-35528201D01*
X60452434Y-35517294D01*
X60463341Y-35507408D01*
X60475164Y-35498640D01*
X60487790Y-35491072D01*
X60501097Y-35484778D01*
X60514957Y-35479819D01*
X60529236Y-35476242D01*
X60543797Y-35474082D01*
X60558500Y-35473360D01*
X62208500Y-35473360D01*
X62223203Y-35474082D01*
G37*
G04 #@! TD.AperFunction*
G04 #@! TA.AperFunction,SMDPad,CuDef*
G36*
X54123505Y-49527164D02*
G01*
X54147773Y-49530764D01*
X54171572Y-49536725D01*
X54194671Y-49544990D01*
X54216850Y-49555480D01*
X54237893Y-49568092D01*
X54257599Y-49582707D01*
X54275777Y-49599183D01*
X54292253Y-49617361D01*
X54306868Y-49637067D01*
X54319480Y-49658110D01*
X54329970Y-49680289D01*
X54338235Y-49703388D01*
X54344196Y-49727187D01*
X54347796Y-49751455D01*
X54349000Y-49775959D01*
X54349000Y-50675961D01*
X54347796Y-50700465D01*
X54344196Y-50724733D01*
X54338235Y-50748532D01*
X54329970Y-50771631D01*
X54319480Y-50793810D01*
X54306868Y-50814853D01*
X54292253Y-50834559D01*
X54275777Y-50852737D01*
X54257599Y-50869213D01*
X54237893Y-50883828D01*
X54216850Y-50896440D01*
X54194671Y-50906930D01*
X54171572Y-50915195D01*
X54147773Y-50921156D01*
X54123505Y-50924756D01*
X54099001Y-50925960D01*
X53448999Y-50925960D01*
X53424495Y-50924756D01*
X53400227Y-50921156D01*
X53376428Y-50915195D01*
X53353329Y-50906930D01*
X53331150Y-50896440D01*
X53310107Y-50883828D01*
X53290401Y-50869213D01*
X53272223Y-50852737D01*
X53255747Y-50834559D01*
X53241132Y-50814853D01*
X53228520Y-50793810D01*
X53218030Y-50771631D01*
X53209765Y-50748532D01*
X53203804Y-50724733D01*
X53200204Y-50700465D01*
X53199000Y-50675961D01*
X53199000Y-49775959D01*
X53200204Y-49751455D01*
X53203804Y-49727187D01*
X53209765Y-49703388D01*
X53218030Y-49680289D01*
X53228520Y-49658110D01*
X53241132Y-49637067D01*
X53255747Y-49617361D01*
X53272223Y-49599183D01*
X53290401Y-49582707D01*
X53310107Y-49568092D01*
X53331150Y-49555480D01*
X53353329Y-49544990D01*
X53376428Y-49536725D01*
X53400227Y-49530764D01*
X53424495Y-49527164D01*
X53448999Y-49525960D01*
X54099001Y-49525960D01*
X54123505Y-49527164D01*
G37*
G04 #@! TD.AperFunction*
G04 #@! TA.AperFunction,SMDPad,CuDef*
G36*
X52073505Y-49527164D02*
G01*
X52097773Y-49530764D01*
X52121572Y-49536725D01*
X52144671Y-49544990D01*
X52166850Y-49555480D01*
X52187893Y-49568092D01*
X52207599Y-49582707D01*
X52225777Y-49599183D01*
X52242253Y-49617361D01*
X52256868Y-49637067D01*
X52269480Y-49658110D01*
X52279970Y-49680289D01*
X52288235Y-49703388D01*
X52294196Y-49727187D01*
X52297796Y-49751455D01*
X52299000Y-49775959D01*
X52299000Y-50675961D01*
X52297796Y-50700465D01*
X52294196Y-50724733D01*
X52288235Y-50748532D01*
X52279970Y-50771631D01*
X52269480Y-50793810D01*
X52256868Y-50814853D01*
X52242253Y-50834559D01*
X52225777Y-50852737D01*
X52207599Y-50869213D01*
X52187893Y-50883828D01*
X52166850Y-50896440D01*
X52144671Y-50906930D01*
X52121572Y-50915195D01*
X52097773Y-50921156D01*
X52073505Y-50924756D01*
X52049001Y-50925960D01*
X51398999Y-50925960D01*
X51374495Y-50924756D01*
X51350227Y-50921156D01*
X51326428Y-50915195D01*
X51303329Y-50906930D01*
X51281150Y-50896440D01*
X51260107Y-50883828D01*
X51240401Y-50869213D01*
X51222223Y-50852737D01*
X51205747Y-50834559D01*
X51191132Y-50814853D01*
X51178520Y-50793810D01*
X51168030Y-50771631D01*
X51159765Y-50748532D01*
X51153804Y-50724733D01*
X51150204Y-50700465D01*
X51149000Y-50675961D01*
X51149000Y-49775959D01*
X51150204Y-49751455D01*
X51153804Y-49727187D01*
X51159765Y-49703388D01*
X51168030Y-49680289D01*
X51178520Y-49658110D01*
X51191132Y-49637067D01*
X51205747Y-49617361D01*
X51222223Y-49599183D01*
X51240401Y-49582707D01*
X51260107Y-49568092D01*
X51281150Y-49555480D01*
X51303329Y-49544990D01*
X51326428Y-49536725D01*
X51350227Y-49530764D01*
X51374495Y-49527164D01*
X51398999Y-49525960D01*
X52049001Y-49525960D01*
X52073505Y-49527164D01*
G37*
G04 #@! TD.AperFunction*
G04 #@! TA.AperFunction,SMDPad,CuDef*
G36*
X54123505Y-47495164D02*
G01*
X54147773Y-47498764D01*
X54171572Y-47504725D01*
X54194671Y-47512990D01*
X54216850Y-47523480D01*
X54237893Y-47536092D01*
X54257599Y-47550707D01*
X54275777Y-47567183D01*
X54292253Y-47585361D01*
X54306868Y-47605067D01*
X54319480Y-47626110D01*
X54329970Y-47648289D01*
X54338235Y-47671388D01*
X54344196Y-47695187D01*
X54347796Y-47719455D01*
X54349000Y-47743959D01*
X54349000Y-48643961D01*
X54347796Y-48668465D01*
X54344196Y-48692733D01*
X54338235Y-48716532D01*
X54329970Y-48739631D01*
X54319480Y-48761810D01*
X54306868Y-48782853D01*
X54292253Y-48802559D01*
X54275777Y-48820737D01*
X54257599Y-48837213D01*
X54237893Y-48851828D01*
X54216850Y-48864440D01*
X54194671Y-48874930D01*
X54171572Y-48883195D01*
X54147773Y-48889156D01*
X54123505Y-48892756D01*
X54099001Y-48893960D01*
X53448999Y-48893960D01*
X53424495Y-48892756D01*
X53400227Y-48889156D01*
X53376428Y-48883195D01*
X53353329Y-48874930D01*
X53331150Y-48864440D01*
X53310107Y-48851828D01*
X53290401Y-48837213D01*
X53272223Y-48820737D01*
X53255747Y-48802559D01*
X53241132Y-48782853D01*
X53228520Y-48761810D01*
X53218030Y-48739631D01*
X53209765Y-48716532D01*
X53203804Y-48692733D01*
X53200204Y-48668465D01*
X53199000Y-48643961D01*
X53199000Y-47743959D01*
X53200204Y-47719455D01*
X53203804Y-47695187D01*
X53209765Y-47671388D01*
X53218030Y-47648289D01*
X53228520Y-47626110D01*
X53241132Y-47605067D01*
X53255747Y-47585361D01*
X53272223Y-47567183D01*
X53290401Y-47550707D01*
X53310107Y-47536092D01*
X53331150Y-47523480D01*
X53353329Y-47512990D01*
X53376428Y-47504725D01*
X53400227Y-47498764D01*
X53424495Y-47495164D01*
X53448999Y-47493960D01*
X54099001Y-47493960D01*
X54123505Y-47495164D01*
G37*
G04 #@! TD.AperFunction*
G04 #@! TA.AperFunction,SMDPad,CuDef*
G36*
X52073505Y-47495164D02*
G01*
X52097773Y-47498764D01*
X52121572Y-47504725D01*
X52144671Y-47512990D01*
X52166850Y-47523480D01*
X52187893Y-47536092D01*
X52207599Y-47550707D01*
X52225777Y-47567183D01*
X52242253Y-47585361D01*
X52256868Y-47605067D01*
X52269480Y-47626110D01*
X52279970Y-47648289D01*
X52288235Y-47671388D01*
X52294196Y-47695187D01*
X52297796Y-47719455D01*
X52299000Y-47743959D01*
X52299000Y-48643961D01*
X52297796Y-48668465D01*
X52294196Y-48692733D01*
X52288235Y-48716532D01*
X52279970Y-48739631D01*
X52269480Y-48761810D01*
X52256868Y-48782853D01*
X52242253Y-48802559D01*
X52225777Y-48820737D01*
X52207599Y-48837213D01*
X52187893Y-48851828D01*
X52166850Y-48864440D01*
X52144671Y-48874930D01*
X52121572Y-48883195D01*
X52097773Y-48889156D01*
X52073505Y-48892756D01*
X52049001Y-48893960D01*
X51398999Y-48893960D01*
X51374495Y-48892756D01*
X51350227Y-48889156D01*
X51326428Y-48883195D01*
X51303329Y-48874930D01*
X51281150Y-48864440D01*
X51260107Y-48851828D01*
X51240401Y-48837213D01*
X51222223Y-48820737D01*
X51205747Y-48802559D01*
X51191132Y-48782853D01*
X51178520Y-48761810D01*
X51168030Y-48739631D01*
X51159765Y-48716532D01*
X51153804Y-48692733D01*
X51150204Y-48668465D01*
X51149000Y-48643961D01*
X51149000Y-47743959D01*
X51150204Y-47719455D01*
X51153804Y-47695187D01*
X51159765Y-47671388D01*
X51168030Y-47648289D01*
X51178520Y-47626110D01*
X51191132Y-47605067D01*
X51205747Y-47585361D01*
X51222223Y-47567183D01*
X51240401Y-47550707D01*
X51260107Y-47536092D01*
X51281150Y-47523480D01*
X51303329Y-47512990D01*
X51326428Y-47504725D01*
X51350227Y-47498764D01*
X51374495Y-47495164D01*
X51398999Y-47493960D01*
X52049001Y-47493960D01*
X52073505Y-47495164D01*
G37*
G04 #@! TD.AperFunction*
G04 #@! TA.AperFunction,SMDPad,CuDef*
G36*
X51216905Y-43277924D02*
G01*
X51241173Y-43281524D01*
X51264972Y-43287485D01*
X51288071Y-43295750D01*
X51310250Y-43306240D01*
X51331293Y-43318852D01*
X51350999Y-43333467D01*
X51369177Y-43349943D01*
X51385653Y-43368121D01*
X51400268Y-43387827D01*
X51412880Y-43408870D01*
X51423370Y-43431049D01*
X51431635Y-43454148D01*
X51437596Y-43477947D01*
X51441196Y-43502215D01*
X51442400Y-43526719D01*
X51442400Y-44176721D01*
X51441196Y-44201225D01*
X51437596Y-44225493D01*
X51431635Y-44249292D01*
X51423370Y-44272391D01*
X51412880Y-44294570D01*
X51400268Y-44315613D01*
X51385653Y-44335319D01*
X51369177Y-44353497D01*
X51350999Y-44369973D01*
X51331293Y-44384588D01*
X51310250Y-44397200D01*
X51288071Y-44407690D01*
X51264972Y-44415955D01*
X51241173Y-44421916D01*
X51216905Y-44425516D01*
X51192401Y-44426720D01*
X50292399Y-44426720D01*
X50267895Y-44425516D01*
X50243627Y-44421916D01*
X50219828Y-44415955D01*
X50196729Y-44407690D01*
X50174550Y-44397200D01*
X50153507Y-44384588D01*
X50133801Y-44369973D01*
X50115623Y-44353497D01*
X50099147Y-44335319D01*
X50084532Y-44315613D01*
X50071920Y-44294570D01*
X50061430Y-44272391D01*
X50053165Y-44249292D01*
X50047204Y-44225493D01*
X50043604Y-44201225D01*
X50042400Y-44176721D01*
X50042400Y-43526719D01*
X50043604Y-43502215D01*
X50047204Y-43477947D01*
X50053165Y-43454148D01*
X50061430Y-43431049D01*
X50071920Y-43408870D01*
X50084532Y-43387827D01*
X50099147Y-43368121D01*
X50115623Y-43349943D01*
X50133801Y-43333467D01*
X50153507Y-43318852D01*
X50174550Y-43306240D01*
X50196729Y-43295750D01*
X50219828Y-43287485D01*
X50243627Y-43281524D01*
X50267895Y-43277924D01*
X50292399Y-43276720D01*
X51192401Y-43276720D01*
X51216905Y-43277924D01*
G37*
G04 #@! TD.AperFunction*
G04 #@! TA.AperFunction,SMDPad,CuDef*
G36*
X51216905Y-45327924D02*
G01*
X51241173Y-45331524D01*
X51264972Y-45337485D01*
X51288071Y-45345750D01*
X51310250Y-45356240D01*
X51331293Y-45368852D01*
X51350999Y-45383467D01*
X51369177Y-45399943D01*
X51385653Y-45418121D01*
X51400268Y-45437827D01*
X51412880Y-45458870D01*
X51423370Y-45481049D01*
X51431635Y-45504148D01*
X51437596Y-45527947D01*
X51441196Y-45552215D01*
X51442400Y-45576719D01*
X51442400Y-46226721D01*
X51441196Y-46251225D01*
X51437596Y-46275493D01*
X51431635Y-46299292D01*
X51423370Y-46322391D01*
X51412880Y-46344570D01*
X51400268Y-46365613D01*
X51385653Y-46385319D01*
X51369177Y-46403497D01*
X51350999Y-46419973D01*
X51331293Y-46434588D01*
X51310250Y-46447200D01*
X51288071Y-46457690D01*
X51264972Y-46465955D01*
X51241173Y-46471916D01*
X51216905Y-46475516D01*
X51192401Y-46476720D01*
X50292399Y-46476720D01*
X50267895Y-46475516D01*
X50243627Y-46471916D01*
X50219828Y-46465955D01*
X50196729Y-46457690D01*
X50174550Y-46447200D01*
X50153507Y-46434588D01*
X50133801Y-46419973D01*
X50115623Y-46403497D01*
X50099147Y-46385319D01*
X50084532Y-46365613D01*
X50071920Y-46344570D01*
X50061430Y-46322391D01*
X50053165Y-46299292D01*
X50047204Y-46275493D01*
X50043604Y-46251225D01*
X50042400Y-46226721D01*
X50042400Y-45576719D01*
X50043604Y-45552215D01*
X50047204Y-45527947D01*
X50053165Y-45504148D01*
X50061430Y-45481049D01*
X50071920Y-45458870D01*
X50084532Y-45437827D01*
X50099147Y-45418121D01*
X50115623Y-45399943D01*
X50133801Y-45383467D01*
X50153507Y-45368852D01*
X50174550Y-45356240D01*
X50196729Y-45345750D01*
X50219828Y-45337485D01*
X50243627Y-45331524D01*
X50267895Y-45327924D01*
X50292399Y-45326720D01*
X51192401Y-45326720D01*
X51216905Y-45327924D01*
G37*
G04 #@! TD.AperFunction*
D15*
X44947400Y-44432180D03*
X44947400Y-45382180D03*
X44947400Y-46332180D03*
X47647400Y-46332180D03*
X47647400Y-44432180D03*
X47647400Y-45382180D03*
G04 #@! TA.AperFunction,SMDPad,CuDef*
D10*
G36*
X66002865Y-48026024D02*
G01*
X66027133Y-48029624D01*
X66050932Y-48035585D01*
X66074031Y-48043850D01*
X66096210Y-48054340D01*
X66117253Y-48066952D01*
X66136959Y-48081567D01*
X66155137Y-48098043D01*
X66171613Y-48116221D01*
X66186228Y-48135927D01*
X66198840Y-48156970D01*
X66209330Y-48179149D01*
X66217595Y-48202248D01*
X66223556Y-48226047D01*
X66227156Y-48250315D01*
X66228360Y-48274819D01*
X66228360Y-49174821D01*
X66227156Y-49199325D01*
X66223556Y-49223593D01*
X66217595Y-49247392D01*
X66209330Y-49270491D01*
X66198840Y-49292670D01*
X66186228Y-49313713D01*
X66171613Y-49333419D01*
X66155137Y-49351597D01*
X66136959Y-49368073D01*
X66117253Y-49382688D01*
X66096210Y-49395300D01*
X66074031Y-49405790D01*
X66050932Y-49414055D01*
X66027133Y-49420016D01*
X66002865Y-49423616D01*
X65978361Y-49424820D01*
X65328359Y-49424820D01*
X65303855Y-49423616D01*
X65279587Y-49420016D01*
X65255788Y-49414055D01*
X65232689Y-49405790D01*
X65210510Y-49395300D01*
X65189467Y-49382688D01*
X65169761Y-49368073D01*
X65151583Y-49351597D01*
X65135107Y-49333419D01*
X65120492Y-49313713D01*
X65107880Y-49292670D01*
X65097390Y-49270491D01*
X65089125Y-49247392D01*
X65083164Y-49223593D01*
X65079564Y-49199325D01*
X65078360Y-49174821D01*
X65078360Y-48274819D01*
X65079564Y-48250315D01*
X65083164Y-48226047D01*
X65089125Y-48202248D01*
X65097390Y-48179149D01*
X65107880Y-48156970D01*
X65120492Y-48135927D01*
X65135107Y-48116221D01*
X65151583Y-48098043D01*
X65169761Y-48081567D01*
X65189467Y-48066952D01*
X65210510Y-48054340D01*
X65232689Y-48043850D01*
X65255788Y-48035585D01*
X65279587Y-48029624D01*
X65303855Y-48026024D01*
X65328359Y-48024820D01*
X65978361Y-48024820D01*
X66002865Y-48026024D01*
G37*
G04 #@! TD.AperFunction*
G04 #@! TA.AperFunction,SMDPad,CuDef*
G36*
X68052865Y-48026024D02*
G01*
X68077133Y-48029624D01*
X68100932Y-48035585D01*
X68124031Y-48043850D01*
X68146210Y-48054340D01*
X68167253Y-48066952D01*
X68186959Y-48081567D01*
X68205137Y-48098043D01*
X68221613Y-48116221D01*
X68236228Y-48135927D01*
X68248840Y-48156970D01*
X68259330Y-48179149D01*
X68267595Y-48202248D01*
X68273556Y-48226047D01*
X68277156Y-48250315D01*
X68278360Y-48274819D01*
X68278360Y-49174821D01*
X68277156Y-49199325D01*
X68273556Y-49223593D01*
X68267595Y-49247392D01*
X68259330Y-49270491D01*
X68248840Y-49292670D01*
X68236228Y-49313713D01*
X68221613Y-49333419D01*
X68205137Y-49351597D01*
X68186959Y-49368073D01*
X68167253Y-49382688D01*
X68146210Y-49395300D01*
X68124031Y-49405790D01*
X68100932Y-49414055D01*
X68077133Y-49420016D01*
X68052865Y-49423616D01*
X68028361Y-49424820D01*
X67378359Y-49424820D01*
X67353855Y-49423616D01*
X67329587Y-49420016D01*
X67305788Y-49414055D01*
X67282689Y-49405790D01*
X67260510Y-49395300D01*
X67239467Y-49382688D01*
X67219761Y-49368073D01*
X67201583Y-49351597D01*
X67185107Y-49333419D01*
X67170492Y-49313713D01*
X67157880Y-49292670D01*
X67147390Y-49270491D01*
X67139125Y-49247392D01*
X67133164Y-49223593D01*
X67129564Y-49199325D01*
X67128360Y-49174821D01*
X67128360Y-48274819D01*
X67129564Y-48250315D01*
X67133164Y-48226047D01*
X67139125Y-48202248D01*
X67147390Y-48179149D01*
X67157880Y-48156970D01*
X67170492Y-48135927D01*
X67185107Y-48116221D01*
X67201583Y-48098043D01*
X67219761Y-48081567D01*
X67239467Y-48066952D01*
X67260510Y-48054340D01*
X67282689Y-48043850D01*
X67305788Y-48035585D01*
X67329587Y-48029624D01*
X67353855Y-48026024D01*
X67378359Y-48024820D01*
X68028361Y-48024820D01*
X68052865Y-48026024D01*
G37*
G04 #@! TD.AperFunction*
G04 #@! TA.AperFunction,SMDPad,CuDef*
G36*
X66013025Y-50111364D02*
G01*
X66037293Y-50114964D01*
X66061092Y-50120925D01*
X66084191Y-50129190D01*
X66106370Y-50139680D01*
X66127413Y-50152292D01*
X66147119Y-50166907D01*
X66165297Y-50183383D01*
X66181773Y-50201561D01*
X66196388Y-50221267D01*
X66209000Y-50242310D01*
X66219490Y-50264489D01*
X66227755Y-50287588D01*
X66233716Y-50311387D01*
X66237316Y-50335655D01*
X66238520Y-50360159D01*
X66238520Y-51260161D01*
X66237316Y-51284665D01*
X66233716Y-51308933D01*
X66227755Y-51332732D01*
X66219490Y-51355831D01*
X66209000Y-51378010D01*
X66196388Y-51399053D01*
X66181773Y-51418759D01*
X66165297Y-51436937D01*
X66147119Y-51453413D01*
X66127413Y-51468028D01*
X66106370Y-51480640D01*
X66084191Y-51491130D01*
X66061092Y-51499395D01*
X66037293Y-51505356D01*
X66013025Y-51508956D01*
X65988521Y-51510160D01*
X65338519Y-51510160D01*
X65314015Y-51508956D01*
X65289747Y-51505356D01*
X65265948Y-51499395D01*
X65242849Y-51491130D01*
X65220670Y-51480640D01*
X65199627Y-51468028D01*
X65179921Y-51453413D01*
X65161743Y-51436937D01*
X65145267Y-51418759D01*
X65130652Y-51399053D01*
X65118040Y-51378010D01*
X65107550Y-51355831D01*
X65099285Y-51332732D01*
X65093324Y-51308933D01*
X65089724Y-51284665D01*
X65088520Y-51260161D01*
X65088520Y-50360159D01*
X65089724Y-50335655D01*
X65093324Y-50311387D01*
X65099285Y-50287588D01*
X65107550Y-50264489D01*
X65118040Y-50242310D01*
X65130652Y-50221267D01*
X65145267Y-50201561D01*
X65161743Y-50183383D01*
X65179921Y-50166907D01*
X65199627Y-50152292D01*
X65220670Y-50139680D01*
X65242849Y-50129190D01*
X65265948Y-50120925D01*
X65289747Y-50114964D01*
X65314015Y-50111364D01*
X65338519Y-50110160D01*
X65988521Y-50110160D01*
X66013025Y-50111364D01*
G37*
G04 #@! TD.AperFunction*
G04 #@! TA.AperFunction,SMDPad,CuDef*
G36*
X68063025Y-50111364D02*
G01*
X68087293Y-50114964D01*
X68111092Y-50120925D01*
X68134191Y-50129190D01*
X68156370Y-50139680D01*
X68177413Y-50152292D01*
X68197119Y-50166907D01*
X68215297Y-50183383D01*
X68231773Y-50201561D01*
X68246388Y-50221267D01*
X68259000Y-50242310D01*
X68269490Y-50264489D01*
X68277755Y-50287588D01*
X68283716Y-50311387D01*
X68287316Y-50335655D01*
X68288520Y-50360159D01*
X68288520Y-51260161D01*
X68287316Y-51284665D01*
X68283716Y-51308933D01*
X68277755Y-51332732D01*
X68269490Y-51355831D01*
X68259000Y-51378010D01*
X68246388Y-51399053D01*
X68231773Y-51418759D01*
X68215297Y-51436937D01*
X68197119Y-51453413D01*
X68177413Y-51468028D01*
X68156370Y-51480640D01*
X68134191Y-51491130D01*
X68111092Y-51499395D01*
X68087293Y-51505356D01*
X68063025Y-51508956D01*
X68038521Y-51510160D01*
X67388519Y-51510160D01*
X67364015Y-51508956D01*
X67339747Y-51505356D01*
X67315948Y-51499395D01*
X67292849Y-51491130D01*
X67270670Y-51480640D01*
X67249627Y-51468028D01*
X67229921Y-51453413D01*
X67211743Y-51436937D01*
X67195267Y-51418759D01*
X67180652Y-51399053D01*
X67168040Y-51378010D01*
X67157550Y-51355831D01*
X67149285Y-51332732D01*
X67143324Y-51308933D01*
X67139724Y-51284665D01*
X67138520Y-51260161D01*
X67138520Y-50360159D01*
X67139724Y-50335655D01*
X67143324Y-50311387D01*
X67149285Y-50287588D01*
X67157550Y-50264489D01*
X67168040Y-50242310D01*
X67180652Y-50221267D01*
X67195267Y-50201561D01*
X67211743Y-50183383D01*
X67229921Y-50166907D01*
X67249627Y-50152292D01*
X67270670Y-50139680D01*
X67292849Y-50129190D01*
X67315948Y-50120925D01*
X67339747Y-50114964D01*
X67364015Y-50111364D01*
X67388519Y-50110160D01*
X68038521Y-50110160D01*
X68063025Y-50111364D01*
G37*
G04 #@! TD.AperFunction*
G04 #@! TA.AperFunction,SMDPad,CuDef*
G36*
X68063025Y-52260204D02*
G01*
X68087293Y-52263804D01*
X68111092Y-52269765D01*
X68134191Y-52278030D01*
X68156370Y-52288520D01*
X68177413Y-52301132D01*
X68197119Y-52315747D01*
X68215297Y-52332223D01*
X68231773Y-52350401D01*
X68246388Y-52370107D01*
X68259000Y-52391150D01*
X68269490Y-52413329D01*
X68277755Y-52436428D01*
X68283716Y-52460227D01*
X68287316Y-52484495D01*
X68288520Y-52508999D01*
X68288520Y-53409001D01*
X68287316Y-53433505D01*
X68283716Y-53457773D01*
X68277755Y-53481572D01*
X68269490Y-53504671D01*
X68259000Y-53526850D01*
X68246388Y-53547893D01*
X68231773Y-53567599D01*
X68215297Y-53585777D01*
X68197119Y-53602253D01*
X68177413Y-53616868D01*
X68156370Y-53629480D01*
X68134191Y-53639970D01*
X68111092Y-53648235D01*
X68087293Y-53654196D01*
X68063025Y-53657796D01*
X68038521Y-53659000D01*
X67388519Y-53659000D01*
X67364015Y-53657796D01*
X67339747Y-53654196D01*
X67315948Y-53648235D01*
X67292849Y-53639970D01*
X67270670Y-53629480D01*
X67249627Y-53616868D01*
X67229921Y-53602253D01*
X67211743Y-53585777D01*
X67195267Y-53567599D01*
X67180652Y-53547893D01*
X67168040Y-53526850D01*
X67157550Y-53504671D01*
X67149285Y-53481572D01*
X67143324Y-53457773D01*
X67139724Y-53433505D01*
X67138520Y-53409001D01*
X67138520Y-52508999D01*
X67139724Y-52484495D01*
X67143324Y-52460227D01*
X67149285Y-52436428D01*
X67157550Y-52413329D01*
X67168040Y-52391150D01*
X67180652Y-52370107D01*
X67195267Y-52350401D01*
X67211743Y-52332223D01*
X67229921Y-52315747D01*
X67249627Y-52301132D01*
X67270670Y-52288520D01*
X67292849Y-52278030D01*
X67315948Y-52269765D01*
X67339747Y-52263804D01*
X67364015Y-52260204D01*
X67388519Y-52259000D01*
X68038521Y-52259000D01*
X68063025Y-52260204D01*
G37*
G04 #@! TD.AperFunction*
G04 #@! TA.AperFunction,SMDPad,CuDef*
G36*
X66013025Y-52260204D02*
G01*
X66037293Y-52263804D01*
X66061092Y-52269765D01*
X66084191Y-52278030D01*
X66106370Y-52288520D01*
X66127413Y-52301132D01*
X66147119Y-52315747D01*
X66165297Y-52332223D01*
X66181773Y-52350401D01*
X66196388Y-52370107D01*
X66209000Y-52391150D01*
X66219490Y-52413329D01*
X66227755Y-52436428D01*
X66233716Y-52460227D01*
X66237316Y-52484495D01*
X66238520Y-52508999D01*
X66238520Y-53409001D01*
X66237316Y-53433505D01*
X66233716Y-53457773D01*
X66227755Y-53481572D01*
X66219490Y-53504671D01*
X66209000Y-53526850D01*
X66196388Y-53547893D01*
X66181773Y-53567599D01*
X66165297Y-53585777D01*
X66147119Y-53602253D01*
X66127413Y-53616868D01*
X66106370Y-53629480D01*
X66084191Y-53639970D01*
X66061092Y-53648235D01*
X66037293Y-53654196D01*
X66013025Y-53657796D01*
X65988521Y-53659000D01*
X65338519Y-53659000D01*
X65314015Y-53657796D01*
X65289747Y-53654196D01*
X65265948Y-53648235D01*
X65242849Y-53639970D01*
X65220670Y-53629480D01*
X65199627Y-53616868D01*
X65179921Y-53602253D01*
X65161743Y-53585777D01*
X65145267Y-53567599D01*
X65130652Y-53547893D01*
X65118040Y-53526850D01*
X65107550Y-53504671D01*
X65099285Y-53481572D01*
X65093324Y-53457773D01*
X65089724Y-53433505D01*
X65088520Y-53409001D01*
X65088520Y-52508999D01*
X65089724Y-52484495D01*
X65093324Y-52460227D01*
X65099285Y-52436428D01*
X65107550Y-52413329D01*
X65118040Y-52391150D01*
X65130652Y-52370107D01*
X65145267Y-52350401D01*
X65161743Y-52332223D01*
X65179921Y-52315747D01*
X65199627Y-52301132D01*
X65220670Y-52288520D01*
X65242849Y-52278030D01*
X65265948Y-52269765D01*
X65289747Y-52263804D01*
X65314015Y-52260204D01*
X65338519Y-52259000D01*
X65988521Y-52259000D01*
X66013025Y-52260204D01*
G37*
G04 #@! TD.AperFunction*
D12*
X40353800Y-34376360D03*
D11*
X37813800Y-34376360D03*
X40353800Y-36916360D03*
X37813800Y-36916360D03*
X40353800Y-39456360D03*
X37813800Y-39456360D03*
X40353800Y-41996360D03*
X37813800Y-41996360D03*
X40353800Y-44536360D03*
X37813800Y-44536360D03*
X40353800Y-47076360D03*
X37813800Y-47076360D03*
D16*
X63875200Y-35011360D03*
X67175200Y-35011360D03*
D12*
X76040800Y-32801560D03*
G04 #@! TA.AperFunction,ComponentPad*
D10*
G36*
X72624203Y-41901923D02*
G01*
X72643618Y-41904803D01*
X72662657Y-41909572D01*
X72681137Y-41916184D01*
X72698879Y-41924576D01*
X72715714Y-41934666D01*
X72731479Y-41946358D01*
X72746021Y-41959539D01*
X72759202Y-41974081D01*
X72770894Y-41989846D01*
X72780984Y-42006681D01*
X72789376Y-42024423D01*
X72795988Y-42042903D01*
X72800757Y-42061942D01*
X72803637Y-42081357D01*
X72804600Y-42100960D01*
X72804600Y-42500960D01*
X72803637Y-42520563D01*
X72800757Y-42539978D01*
X72795988Y-42559017D01*
X72789376Y-42577497D01*
X72780984Y-42595239D01*
X72770894Y-42612074D01*
X72759202Y-42627839D01*
X72746021Y-42642381D01*
X72731479Y-42655562D01*
X72715714Y-42667254D01*
X72698879Y-42677344D01*
X72681137Y-42685736D01*
X72662657Y-42692348D01*
X72643618Y-42697117D01*
X72624203Y-42699997D01*
X72604600Y-42700960D01*
X71704600Y-42700960D01*
X71684997Y-42699997D01*
X71665582Y-42697117D01*
X71646543Y-42692348D01*
X71628063Y-42685736D01*
X71610321Y-42677344D01*
X71593486Y-42667254D01*
X71577721Y-42655562D01*
X71563179Y-42642381D01*
X71549998Y-42627839D01*
X71538306Y-42612074D01*
X71528216Y-42595239D01*
X71519824Y-42577497D01*
X71513212Y-42559017D01*
X71508443Y-42539978D01*
X71505563Y-42520563D01*
X71504600Y-42500960D01*
X71504600Y-42100960D01*
X71505563Y-42081357D01*
X71508443Y-42061942D01*
X71513212Y-42042903D01*
X71519824Y-42024423D01*
X71528216Y-42006681D01*
X71538306Y-41989846D01*
X71549998Y-41974081D01*
X71563179Y-41959539D01*
X71577721Y-41946358D01*
X71593486Y-41934666D01*
X71610321Y-41924576D01*
X71628063Y-41916184D01*
X71646543Y-41909572D01*
X71665582Y-41904803D01*
X71684997Y-41901923D01*
X71704600Y-41900960D01*
X72604600Y-41900960D01*
X72624203Y-41901923D01*
G37*
G04 #@! TD.AperFunction*
D17*
X72154600Y-41050960D03*
X72154600Y-39800960D03*
X72154600Y-38550960D03*
X72154600Y-37300960D03*
X72154600Y-36050960D03*
D18*
X78602000Y-36660960D03*
X78602000Y-39200960D03*
X78602000Y-41740960D03*
D19*
X54180400Y-35408758D03*
X45103600Y-50403760D03*
X58540200Y-50096420D03*
X56626462Y-34209840D03*
X48016990Y-37938823D03*
X58514800Y-53670254D03*
X51910800Y-43850560D03*
X39354200Y-52546360D03*
X55350532Y-49273471D03*
X60269937Y-39578284D03*
D20*
X63810700Y-42076260D03*
D19*
X64012400Y-51684960D03*
D20*
X69386000Y-40387160D03*
X69373300Y-38347760D03*
X63823400Y-37876260D03*
D19*
X31120900Y-38864540D03*
X34331458Y-49131220D03*
X43831060Y-45374560D03*
X62286700Y-48036480D03*
X61754774Y-45272973D03*
D20*
X59530809Y-40319969D03*
X41772377Y-43795964D03*
X60518860Y-44879270D03*
X47040402Y-37709336D03*
X45281433Y-47037002D03*
X70757600Y-36332160D03*
X73802000Y-40300960D03*
X73802000Y-41869360D03*
X53272240Y-37449760D03*
X67849300Y-41920160D03*
X67854380Y-46898560D03*
X46019561Y-39883148D03*
X45942342Y-48803018D03*
X50158200Y-52092860D03*
X49818223Y-50498525D03*
D19*
X55720800Y-39634160D03*
X33978400Y-32420560D03*
X52114000Y-33436560D03*
X43427216Y-37932360D03*
X60447740Y-34432240D03*
X61623760Y-34432240D03*
D21*
X62799780Y-34432240D03*
D19*
X48865340Y-45417740D03*
X55873200Y-45730160D03*
X35959612Y-32420560D03*
X34943602Y-32420560D03*
X33132580Y-38823900D03*
D20*
X69386001Y-44425760D03*
X50496184Y-51133535D03*
X46907000Y-52600860D03*
X46627600Y-38618160D03*
X44367043Y-44277280D03*
X46561560Y-35590480D03*
X44951200Y-49032156D03*
X49787933Y-49222665D03*
X59607004Y-42123360D03*
X50100738Y-48301598D03*
X58895801Y-39367460D03*
X42449300Y-39263320D03*
X42106400Y-49184560D03*
X43147810Y-40172873D03*
X43020800Y-47711360D03*
X39363200Y-53553360D03*
X54116070Y-41168937D03*
X56036342Y-49946495D03*
X47862038Y-39806880D03*
X47026380Y-47289720D03*
X31557780Y-35044380D03*
X33378960Y-45742860D03*
D22*
X62350200Y-47381160D02*
X62324800Y-47406560D01*
X62350200Y-46734960D02*
X62350200Y-47381160D01*
D23*
X54180400Y-34452560D02*
X54142300Y-34414460D01*
X54180400Y-35408758D02*
X54180400Y-34452560D01*
D24*
X58540200Y-50096420D02*
X58540200Y-51684960D01*
X56204560Y-33787938D02*
X56245463Y-33828841D01*
X56204560Y-32984440D02*
X56204560Y-33787938D01*
X56245463Y-33828841D02*
X56626462Y-34209840D01*
X52848060Y-43851720D02*
X52853140Y-43856800D01*
X48023453Y-37932360D02*
X48016990Y-37938823D01*
X49509000Y-37932360D02*
X48023453Y-37932360D01*
X58540200Y-51684960D02*
X58540200Y-53644854D01*
X58540200Y-53644854D02*
X58514800Y-53670254D01*
X53069040Y-43851720D02*
X53079200Y-43841560D01*
X50742400Y-43851720D02*
X53069040Y-43851720D01*
X44811500Y-51762660D02*
X43516100Y-51762660D01*
X45103600Y-50403760D02*
X45103600Y-51470560D01*
X45103600Y-51470560D02*
X44811500Y-51762660D01*
X45103600Y-50098960D02*
X45103600Y-50403760D01*
X43516100Y-49857660D02*
X44862300Y-49857660D01*
X44862300Y-49857660D02*
X45103600Y-50098960D01*
D23*
X30358800Y-52444760D02*
X31416600Y-53502560D01*
X29558800Y-52444760D02*
X30358800Y-52444760D01*
X37086200Y-53502560D02*
X38042400Y-52546360D01*
X35197600Y-52396560D02*
X35224400Y-52369760D01*
X35197600Y-53502560D02*
X35197600Y-52396560D01*
X35197600Y-53502560D02*
X37086200Y-53502560D01*
X31416600Y-53502560D02*
X35197600Y-53502560D01*
D24*
X41386200Y-52546360D02*
X40633200Y-52546360D01*
X43363700Y-51762660D02*
X42169900Y-51762660D01*
X42169900Y-51762660D02*
X41386200Y-52546360D01*
D23*
X38042400Y-52546360D02*
X39354200Y-52546360D01*
X39354200Y-52546360D02*
X40633200Y-52546360D01*
D24*
X53774000Y-52257960D02*
X53774000Y-50225960D01*
X54811717Y-49273471D02*
X55350532Y-49273471D01*
X54726489Y-49273471D02*
X54811717Y-49273471D01*
X53774000Y-50225960D02*
X54726489Y-49273471D01*
X55401409Y-49222594D02*
X55350532Y-49273471D01*
X57666374Y-49222594D02*
X55401409Y-49222594D01*
X58540200Y-50096420D02*
X57666374Y-49222594D01*
D22*
X61904200Y-39583360D02*
X61899124Y-39578284D01*
X61899124Y-39578284D02*
X60808752Y-39578284D01*
X60808752Y-39578284D02*
X60269937Y-39578284D01*
X62116300Y-39583360D02*
X61383500Y-39583360D01*
X63823400Y-37876260D02*
X62116300Y-39583360D01*
D24*
X63620200Y-51684960D02*
X64012400Y-51684960D01*
X31120900Y-45920662D02*
X33950459Y-48750221D01*
X33950459Y-48750221D02*
X34331458Y-49131220D01*
X31120900Y-38864540D02*
X31120900Y-45920662D01*
X44947400Y-45382180D02*
X44939780Y-45374560D01*
X44369875Y-45374560D02*
X43831060Y-45374560D01*
X44939780Y-45374560D02*
X44369875Y-45374560D01*
X61754774Y-45272973D02*
X62096213Y-45272973D01*
X62350200Y-45526960D02*
X62350200Y-46734960D01*
X62096213Y-45272973D02*
X62350200Y-45526960D01*
X62286700Y-46798460D02*
X62350200Y-46734960D01*
X62286700Y-48036480D02*
X62286700Y-46798460D01*
X62286700Y-48036480D02*
X61265620Y-48036480D01*
X61080200Y-47851060D02*
X61080200Y-46734960D01*
X61265620Y-48036480D02*
X61080200Y-47851060D01*
X61754774Y-45272973D02*
X61614148Y-45272973D01*
X61080200Y-46734960D02*
X61080200Y-45349160D01*
X61156387Y-45272973D02*
X61754774Y-45272973D01*
X61080200Y-45349160D02*
X61156387Y-45272973D01*
D22*
X42002260Y-41104820D02*
X40353800Y-39456360D01*
X45758920Y-41104820D02*
X42002260Y-41104820D01*
X46371060Y-41716960D02*
X45758920Y-41104820D01*
X49509000Y-41742360D02*
X49483600Y-41716960D01*
X49483600Y-41716960D02*
X46371060Y-41716960D01*
X50968460Y-33449260D02*
X50429980Y-32910780D01*
X50968460Y-35173920D02*
X50968460Y-33449260D01*
X39279380Y-32910780D02*
X37813800Y-34376360D01*
X54958800Y-35773360D02*
X54637601Y-36094559D01*
X56954200Y-35773360D02*
X54958800Y-35773360D01*
X54637601Y-36094559D02*
X53461359Y-36094559D01*
X53461359Y-36094559D02*
X52926800Y-35560000D01*
X52926800Y-35560000D02*
X51354540Y-35560000D01*
X50429980Y-32910780D02*
X39279380Y-32910780D01*
X51354540Y-35560000D02*
X50968460Y-35173920D01*
X43484000Y-34122360D02*
X44559000Y-34122360D01*
X42995400Y-34122360D02*
X43484000Y-34122360D01*
X41471400Y-35646360D02*
X42995400Y-34122360D01*
X37813800Y-36916360D02*
X39083800Y-35646360D01*
X39083800Y-35646360D02*
X41471400Y-35646360D01*
X36391400Y-38033960D02*
X36391400Y-33715960D01*
X37813800Y-39456360D02*
X36391400Y-38033960D01*
X36391400Y-33715960D02*
X38017000Y-32090360D01*
X38017000Y-32090360D02*
X52842980Y-32090360D01*
X52842980Y-32090360D02*
X52931880Y-32090360D01*
X53483060Y-32090360D02*
X52842980Y-32090360D01*
X56350720Y-34958020D02*
X53483060Y-32090360D01*
X57757060Y-34958020D02*
X56350720Y-34958020D01*
X58572400Y-35773360D02*
X57757060Y-34958020D01*
X61383500Y-35773360D02*
X58572400Y-35773360D01*
X39116820Y-43299380D02*
X38663799Y-42846359D01*
X41039600Y-43299380D02*
X39116820Y-43299380D01*
X41479020Y-42859960D02*
X41039600Y-43299380D01*
X51329140Y-42859960D02*
X41479020Y-42859960D01*
X59467300Y-43393360D02*
X58776431Y-44084229D01*
X38663799Y-42846359D02*
X37813800Y-41996360D01*
X61383500Y-43393360D02*
X59467300Y-43393360D01*
X58776431Y-44084229D02*
X55217869Y-44084229D01*
X55217869Y-44084229D02*
X53750409Y-42616769D01*
X53750409Y-42616769D02*
X51572331Y-42616769D01*
X51572331Y-42616769D02*
X51329140Y-42859960D01*
X42065050Y-41742360D02*
X43484000Y-41742360D01*
X41076075Y-40753385D02*
X42065050Y-41742360D01*
X37100975Y-40753385D02*
X41076075Y-40753385D01*
X39731500Y-44536360D02*
X38486900Y-43291760D01*
X40353800Y-44536360D02*
X39731500Y-44536360D01*
X43484000Y-41742360D02*
X44559000Y-41742360D01*
X38486900Y-43291760D02*
X37102600Y-43291760D01*
X37102600Y-43291760D02*
X36442200Y-42631360D01*
X36442200Y-42631360D02*
X36442200Y-41412160D01*
X36442200Y-41412160D02*
X37100975Y-40753385D01*
X55777600Y-43393360D02*
X56852600Y-43393360D01*
X55879200Y-43393360D02*
X56954200Y-43393360D01*
X55149300Y-43393360D02*
X53966298Y-42210358D01*
X56433500Y-43393360D02*
X55149300Y-43393360D01*
X53966298Y-42210358D02*
X51224340Y-42210358D01*
X41555881Y-41996360D02*
X40353800Y-41996360D01*
X51224340Y-42210358D02*
X50981149Y-42453549D01*
X50981149Y-42453549D02*
X42013070Y-42453549D01*
X42013070Y-42453549D02*
X41555881Y-41996360D01*
X40353800Y-36916360D02*
X41080950Y-36916360D01*
X41203799Y-36066361D02*
X40353800Y-36916360D01*
X41739739Y-36066361D02*
X41203799Y-36066361D01*
X43051280Y-34754820D02*
X41739739Y-36066361D01*
X46269460Y-34754820D02*
X43051280Y-34754820D01*
X49509000Y-34122360D02*
X46901920Y-34122360D01*
X46901920Y-34122360D02*
X46269460Y-34754820D01*
D23*
X40606600Y-50469760D02*
X40633200Y-50496360D01*
X35224400Y-50469760D02*
X40606600Y-50469760D01*
D24*
X43360000Y-50496360D02*
X43363700Y-50492660D01*
X41945000Y-50496360D02*
X41945000Y-50953560D01*
X41945000Y-50496360D02*
X43360000Y-50496360D01*
X40633200Y-50496360D02*
X41945000Y-50496360D01*
X42119100Y-51127660D02*
X43363700Y-51127660D01*
X41945000Y-50953560D02*
X42119100Y-51127660D01*
X72154600Y-40847960D02*
X72404600Y-40847960D01*
D22*
X71530280Y-41050960D02*
X72154600Y-41050960D01*
X70747440Y-41833800D02*
X71530280Y-41050960D01*
X70747440Y-43037760D02*
X70747440Y-41833800D01*
X70341040Y-43444160D02*
X70747440Y-43037760D01*
X68395400Y-43444160D02*
X70341040Y-43444160D01*
X65165900Y-43935760D02*
X65703000Y-44472860D01*
X50584000Y-39202360D02*
X53185587Y-41803947D01*
X53185587Y-41803947D02*
X54220287Y-41803947D01*
X67366700Y-44472860D02*
X68395400Y-43444160D01*
X54220287Y-41803947D02*
X55174700Y-42758360D01*
X65703000Y-44472860D02*
X67366700Y-44472860D01*
X55174700Y-42758360D02*
X62620600Y-42758360D01*
X63798000Y-43935760D02*
X65165900Y-43935760D01*
X49509000Y-39202360D02*
X50584000Y-39202360D01*
X62620600Y-42758360D02*
X63798000Y-43935760D01*
D24*
X74152000Y-41050960D02*
X72154600Y-41050960D01*
X74842000Y-41740960D02*
X74152000Y-41050960D01*
X78602000Y-41740960D02*
X74842000Y-41740960D01*
D22*
X59530809Y-39091051D02*
X59530809Y-39852996D01*
X61383500Y-40853360D02*
X60064200Y-40853360D01*
X60064200Y-40853360D02*
X59861008Y-40650168D01*
X59861008Y-40650168D02*
X59530809Y-40319969D01*
X59530809Y-39852996D02*
X59530809Y-40319969D01*
X61383500Y-38313360D02*
X60308500Y-38313360D01*
X60308500Y-38313360D02*
X59530809Y-39091051D01*
X62458500Y-40853360D02*
X61383500Y-40853360D01*
X62578800Y-40853360D02*
X62458500Y-40853360D01*
X63505900Y-39926260D02*
X62578800Y-40853360D01*
X63823400Y-39926260D02*
X63505900Y-39926260D01*
X63823400Y-39926260D02*
X64864800Y-39926260D01*
X64864800Y-39926260D02*
X65423600Y-39367460D01*
X67769400Y-52892960D02*
X67794800Y-52867560D01*
X60188661Y-45209469D02*
X60518860Y-44879270D01*
X55238010Y-47829393D02*
X55589876Y-48181259D01*
X55238010Y-47387148D02*
X55238010Y-47829393D01*
X57902660Y-47906940D02*
X57902660Y-45483780D01*
X41772377Y-43795964D02*
X42102576Y-43465765D01*
X42102576Y-43465765D02*
X48490705Y-43465765D01*
X55589876Y-48181259D02*
X57628341Y-48181259D01*
X57628341Y-48181259D02*
X57902660Y-47906940D01*
X57902660Y-45483780D02*
X58176971Y-45209469D01*
X48490705Y-43465765D02*
X49891500Y-44866560D01*
X52266400Y-47000160D02*
X54851022Y-47000160D01*
X54851022Y-47000160D02*
X55238010Y-47387148D01*
X51910800Y-46644560D02*
X52266400Y-47000160D01*
X51910800Y-45120560D02*
X51910800Y-46644560D01*
X51656800Y-44866560D02*
X51910800Y-45120560D01*
X49891500Y-44866560D02*
X51656800Y-44866560D01*
X60518860Y-44879270D02*
X60584891Y-44945301D01*
X59393631Y-45209469D02*
X60188661Y-45209469D01*
X58176971Y-45209469D02*
X59393631Y-45209469D01*
X67713520Y-52553980D02*
X67713520Y-52959000D01*
X64704780Y-51600100D02*
X64992830Y-51888150D01*
X64704780Y-50995580D02*
X64704780Y-51600100D01*
X67047690Y-51888150D02*
X67713520Y-52553980D01*
X59177740Y-45425360D02*
X59177740Y-47988220D01*
X64992830Y-51888150D02*
X67047690Y-51888150D01*
X59393631Y-45209469D02*
X59177740Y-45425360D01*
X59177740Y-47988220D02*
X59222750Y-47988220D01*
X59222750Y-47988220D02*
X60918420Y-49683890D01*
X60918420Y-49683890D02*
X63393090Y-49683890D01*
X63393090Y-49683890D02*
X64704780Y-50995580D01*
X65423600Y-39367460D02*
X70358820Y-39367460D01*
X70358820Y-39367460D02*
X70742360Y-38983920D01*
X70742360Y-38983920D02*
X70742360Y-37805360D01*
X71246760Y-37300960D02*
X72154600Y-37300960D01*
X70742360Y-37805360D02*
X71246760Y-37300960D01*
X50780500Y-37297360D02*
X48390513Y-37297360D01*
X44951234Y-46706803D02*
X45281433Y-47037002D01*
X44614660Y-46365200D02*
X44614660Y-46370229D01*
X44614660Y-46370229D02*
X44951234Y-46706803D01*
X54904300Y-36615260D02*
X51923500Y-36615260D01*
X55111200Y-36408360D02*
X54904300Y-36615260D01*
X68116000Y-36408360D02*
X55111200Y-36408360D01*
X69373300Y-36297760D02*
X68226600Y-36297760D01*
X68226600Y-36297760D02*
X68116000Y-36408360D01*
X50839228Y-37238632D02*
X50780500Y-37297360D01*
X51300128Y-37238632D02*
X50839228Y-37238632D01*
X51923500Y-36615260D02*
X51300128Y-37238632D01*
X47370601Y-37379137D02*
X47040402Y-37709336D01*
X47496716Y-37253022D02*
X47370601Y-37379137D01*
X48346175Y-37253022D02*
X47496716Y-37253022D01*
X48390513Y-37297360D02*
X48346175Y-37253022D01*
X69407700Y-36332160D02*
X69373300Y-36297760D01*
X70757600Y-36332160D02*
X69407700Y-36332160D01*
X67713520Y-50810160D02*
X73802000Y-44721680D01*
X73802000Y-44721680D02*
X73802000Y-42336333D01*
X73802000Y-42336333D02*
X73802000Y-41869360D01*
X73802000Y-38700960D02*
X73952000Y-38550960D01*
X73802000Y-40300960D02*
X73802000Y-38700960D01*
D24*
X73952000Y-38550960D02*
X72154600Y-38550960D01*
X74152000Y-38550960D02*
X73952000Y-38550960D01*
X78602000Y-39200960D02*
X74802000Y-39200960D01*
X74802000Y-39200960D02*
X74152000Y-38550960D01*
D22*
X54986740Y-37449760D02*
X53272240Y-37449760D01*
X55850340Y-38313360D02*
X54986740Y-37449760D01*
X56433500Y-40853360D02*
X57917900Y-40853360D01*
X58121100Y-38592760D02*
X58121100Y-40853360D01*
X57841700Y-38313360D02*
X58121100Y-38592760D01*
X56433500Y-38313360D02*
X57841700Y-38313360D01*
X57917900Y-40853360D02*
X58121100Y-40853360D01*
X65677600Y-41920160D02*
X67849300Y-41920160D01*
X58540200Y-40853360D02*
X59175200Y-41488360D01*
X58121100Y-40853360D02*
X58540200Y-40853360D01*
X59175200Y-41488360D02*
X62578800Y-41488360D01*
X62578800Y-41488360D02*
X63036000Y-41031160D01*
X63036000Y-41031160D02*
X64788600Y-41031160D01*
X64788600Y-41031160D02*
X65677600Y-41920160D01*
X67837805Y-48709755D02*
X67718600Y-48828960D01*
X67703360Y-48724820D02*
X67703360Y-47049580D01*
X67703360Y-47049580D02*
X67854380Y-46898560D01*
X68366300Y-42437160D02*
X69386000Y-42437160D01*
X67849300Y-41920160D02*
X68366300Y-42437160D01*
X71904600Y-39597960D02*
X72154600Y-39597960D01*
X69386000Y-42437160D02*
X72022200Y-39800960D01*
X72022200Y-39800960D02*
X72154600Y-39800960D01*
X46349760Y-40213347D02*
X46019561Y-39883148D01*
X49509000Y-40472360D02*
X46608773Y-40472360D01*
X46608773Y-40472360D02*
X46349760Y-40213347D01*
X43516100Y-53032660D02*
X44960645Y-53032660D01*
X46272541Y-51720764D02*
X46272541Y-49133217D01*
X44960645Y-53032660D02*
X46272541Y-51720764D01*
X46272541Y-49133217D02*
X45942342Y-48803018D01*
X49828001Y-51762661D02*
X50158200Y-52092860D01*
X48824700Y-51762660D02*
X49828001Y-51762661D01*
X47827365Y-50498525D02*
X49351250Y-50498525D01*
X47034000Y-49705160D02*
X47827365Y-50498525D01*
X47647400Y-44432180D02*
X46664200Y-44432180D01*
X46274540Y-44821840D02*
X46274540Y-47967900D01*
X46274540Y-47967900D02*
X47034000Y-48727360D01*
X46664200Y-44432180D02*
X46274540Y-44821840D01*
X49351250Y-50498525D02*
X49818223Y-50498525D01*
X47034000Y-48727360D02*
X47034000Y-49705160D01*
X56903400Y-39634160D02*
X56954200Y-39583360D01*
X55720800Y-39634160D02*
X56903400Y-39634160D01*
D23*
X52114000Y-34392760D02*
X52092300Y-34414460D01*
X52114000Y-33436560D02*
X52114000Y-34392760D01*
D24*
X44559000Y-37932360D02*
X43427216Y-37932360D01*
D25*
X61623760Y-34432240D02*
X60447740Y-34432240D01*
X62799780Y-34432240D02*
X61623760Y-34432240D01*
X58254560Y-33910380D02*
X58254560Y-32984440D01*
X60447740Y-34432240D02*
X58776420Y-34432240D01*
X58776420Y-34432240D02*
X58254560Y-33910380D01*
D24*
X47647400Y-45382180D02*
X48829780Y-45382180D01*
X48829780Y-45382180D02*
X48865340Y-45417740D01*
X28725680Y-39296340D02*
X28682500Y-39339520D01*
D25*
X28682500Y-39339520D02*
X28682500Y-37200840D01*
D24*
X55711800Y-45891560D02*
X55873200Y-45730160D01*
X53079200Y-45891560D02*
X55711800Y-45891560D01*
D25*
X28682500Y-49518460D02*
X29558800Y-50394760D01*
X28682500Y-39339520D02*
X28682500Y-49518460D01*
D23*
X32224400Y-51419760D02*
X32224400Y-50884960D01*
X31734200Y-50394760D02*
X29558800Y-50394760D01*
X32224400Y-50884960D02*
X31734200Y-50394760D01*
D25*
X35959612Y-32420560D02*
X33978400Y-32420560D01*
X28682500Y-34058860D02*
X28682500Y-37200840D01*
X33978400Y-32420560D02*
X30320800Y-32420560D01*
X30320800Y-32420560D02*
X28682500Y-34058860D01*
X63467800Y-35100260D02*
X62799780Y-34432240D01*
D24*
X28682500Y-37200840D02*
X31509520Y-37200840D01*
X32751581Y-38442901D02*
X33132580Y-38823900D01*
X31509520Y-37200840D02*
X32751581Y-38442901D01*
D22*
X69386000Y-44425760D02*
X69386001Y-44425760D01*
X50742400Y-46576720D02*
X50742400Y-45901720D01*
X50742400Y-47176160D02*
X50742400Y-46576720D01*
X51633200Y-48066960D02*
X50742400Y-47176160D01*
X48824700Y-51127660D02*
X48830575Y-51133535D01*
X50029211Y-51133535D02*
X50496184Y-51133535D01*
X48830575Y-51133535D02*
X50029211Y-51133535D01*
X50496184Y-51133535D02*
X50496184Y-49421776D01*
X51100628Y-48817332D02*
X51724000Y-48193960D01*
X50496184Y-49421776D02*
X51100628Y-48817332D01*
X47338800Y-53032660D02*
X47237199Y-52931059D01*
X48672300Y-53032660D02*
X47338800Y-53032660D01*
X47237199Y-52931059D02*
X46907000Y-52600860D01*
D24*
X57270200Y-53068220D02*
X57270200Y-51684960D01*
X56658060Y-53680360D02*
X57270200Y-53068220D01*
X48824700Y-53032660D02*
X50094700Y-53032660D01*
X50094700Y-53032660D02*
X50742400Y-53680360D01*
X51724000Y-53536960D02*
X51724000Y-52257960D01*
X51580600Y-53680360D02*
X51724000Y-53536960D01*
X51580600Y-53680360D02*
X56658060Y-53680360D01*
X50742400Y-53680360D02*
X51580600Y-53680360D01*
D22*
X52087000Y-38659960D02*
X52063200Y-38636160D01*
X48324708Y-38646091D02*
X47846404Y-38646091D01*
X48403439Y-38567360D02*
X48324708Y-38646091D01*
X51194400Y-38567360D02*
X48403439Y-38567360D01*
X51263200Y-38636160D02*
X51194400Y-38567360D01*
X52063200Y-38636160D02*
X51263200Y-38636160D01*
X47846404Y-38646091D02*
X46655531Y-38646091D01*
X46655531Y-38646091D02*
X46627600Y-38618160D01*
X44580016Y-44277280D02*
X44367043Y-44277280D01*
X44614660Y-44311924D02*
X44580016Y-44277280D01*
X44614660Y-44465200D02*
X44614660Y-44311924D01*
X53960800Y-38665260D02*
X53968200Y-38672660D01*
X51923500Y-38665260D02*
X53960800Y-38665260D01*
X57270200Y-45295820D02*
X57270200Y-45659960D01*
X59518100Y-44244260D02*
X59266640Y-44495720D01*
X61964120Y-44244260D02*
X59518100Y-44244260D01*
X64869219Y-45184060D02*
X62903920Y-45184060D01*
X65415319Y-45730160D02*
X64869219Y-45184060D01*
X66617400Y-45730160D02*
X65415319Y-45730160D01*
X57270200Y-45659960D02*
X57270200Y-46734960D01*
X58070300Y-44495720D02*
X57270200Y-45295820D01*
X59266640Y-44495720D02*
X58070300Y-44495720D01*
X62903920Y-45184060D02*
X61964120Y-44244260D01*
X68640400Y-45730160D02*
X69386000Y-46475760D01*
X66617400Y-45730160D02*
X68640400Y-45730160D01*
X49509000Y-35392360D02*
X46759680Y-35392360D01*
X46759680Y-35392360D02*
X46561560Y-35590480D01*
X44989300Y-52397660D02*
X43516100Y-52397660D01*
X45789401Y-51597559D02*
X44989300Y-52397660D01*
X44951200Y-49032156D02*
X45789401Y-49870357D01*
X45789401Y-49870357D02*
X45789401Y-51597559D01*
X48824700Y-49222660D02*
X48824705Y-49222665D01*
X49320960Y-49222665D02*
X49787933Y-49222665D01*
X48824705Y-49222665D02*
X49320960Y-49222665D01*
X56433500Y-42123360D02*
X61383500Y-42123360D01*
X49932527Y-48301598D02*
X50100738Y-48301598D01*
X49621065Y-48587660D02*
X49633765Y-48600360D01*
X49633765Y-48600360D02*
X49932527Y-48301598D01*
X48824700Y-48587660D02*
X49621065Y-48587660D01*
X56433500Y-37043360D02*
X61383500Y-37043360D01*
X59302200Y-37043360D02*
X58895801Y-37449759D01*
X58895801Y-37449759D02*
X58895801Y-38900487D01*
X58895801Y-38900487D02*
X58895801Y-39367460D01*
X41745721Y-37130639D02*
X41745721Y-38559741D01*
X41745721Y-38559741D02*
X42119101Y-38933121D01*
X43484000Y-35392360D02*
X41745721Y-37130639D01*
X44559000Y-35392360D02*
X43484000Y-35392360D01*
X42119101Y-38933121D02*
X42449300Y-39263320D01*
X43516100Y-49222660D02*
X43478000Y-49184560D01*
X42573373Y-49184560D02*
X42106400Y-49184560D01*
X43478000Y-49184560D02*
X42573373Y-49184560D01*
X44559000Y-40472360D02*
X43447297Y-40472360D01*
X43447297Y-40472360D02*
X43147810Y-40172873D01*
X43516100Y-48206660D02*
X43350999Y-48041559D01*
X43350999Y-48041559D02*
X43020800Y-47711360D01*
X43516100Y-48587660D02*
X43516100Y-48206660D01*
D25*
X71839640Y-34612580D02*
X67917880Y-34612580D01*
X67917880Y-34612580D02*
X67430200Y-35100260D01*
D23*
X72030420Y-34612580D02*
X71839640Y-34612580D01*
X72053000Y-34635160D02*
X72030420Y-34612580D01*
X72103800Y-34635160D02*
X72053000Y-34635160D01*
X72154600Y-36050960D02*
X72154600Y-34685960D01*
X72154600Y-34685960D02*
X72103800Y-34635160D01*
D25*
X72634660Y-34612580D02*
X71839640Y-34612580D01*
X74683040Y-36660960D02*
X72634660Y-34612580D01*
X78602000Y-36660960D02*
X74683040Y-36660960D01*
D22*
X39528300Y-53718460D02*
X39363200Y-53553360D01*
X47211802Y-51965858D02*
X46640298Y-51965858D01*
X46640298Y-51965858D02*
X45052796Y-53553360D01*
X39830173Y-53553360D02*
X39363200Y-53553360D01*
X47643604Y-52397660D02*
X47211802Y-51965858D01*
X48824700Y-52397660D02*
X47643604Y-52397660D01*
X45052796Y-53553360D02*
X39830173Y-53553360D01*
X58540200Y-47809960D02*
X58540200Y-46734960D01*
X58540200Y-48069960D02*
X58540200Y-47809960D01*
X61080200Y-51684960D02*
X61080200Y-50609960D01*
X58540200Y-48069960D02*
X58022490Y-48587670D01*
X53756000Y-48193960D02*
X53774000Y-48193960D01*
X51724000Y-50225960D02*
X53756000Y-48193960D01*
X58022490Y-48587670D02*
X55174710Y-48587670D01*
X54781000Y-48193960D02*
X53774000Y-48193960D01*
X55174710Y-48587670D02*
X54781000Y-48193960D01*
X61830540Y-50090300D02*
X60560540Y-50090300D01*
X62350200Y-50609960D02*
X61830540Y-50090300D01*
X62350200Y-51684960D02*
X62350200Y-50609960D01*
X61080200Y-50609960D02*
X60560540Y-50090300D01*
X60560540Y-50090300D02*
X58540200Y-48069960D01*
X54171400Y-40709960D02*
X54116070Y-40765290D01*
X54116070Y-40765290D02*
X54116070Y-41168937D01*
X56000200Y-51684960D02*
X56000200Y-49982637D01*
X56000200Y-49982637D02*
X56036342Y-49946495D01*
X49585200Y-36586160D02*
X49509000Y-36662360D01*
X50089400Y-36662360D02*
X49509000Y-36662360D01*
X44559000Y-36662360D02*
X45987520Y-36662360D01*
X45695420Y-39202360D02*
X44559000Y-39202360D01*
X45987520Y-38910260D02*
X45695420Y-39202360D01*
X45987520Y-38178740D02*
X45987520Y-38910260D01*
X45987520Y-36662360D02*
X45987520Y-38178740D01*
X45987520Y-36662360D02*
X49509000Y-36662360D01*
X46884140Y-39806880D02*
X47862038Y-39806880D01*
X45987520Y-38910260D02*
X46884140Y-39806880D01*
X47026380Y-46653480D02*
X47314660Y-46365200D01*
X47026380Y-47289720D02*
X47026380Y-46653480D01*
X65653360Y-47834440D02*
X65653360Y-48724820D01*
X63620200Y-46734960D02*
X64553880Y-46734960D01*
X64553880Y-46734960D02*
X65653360Y-47834440D01*
X63992200Y-49138840D02*
X65663520Y-50810160D01*
X60948120Y-49138840D02*
X63992200Y-49138840D01*
X59810200Y-46734960D02*
X59810200Y-48000920D01*
X59810200Y-48000920D02*
X60948120Y-49138840D01*
X64384000Y-53553360D02*
X60292800Y-53553360D01*
X59810200Y-53070760D02*
X59810200Y-51684960D01*
X60292800Y-53553360D02*
X59810200Y-53070760D01*
X64978360Y-52959000D02*
X65663520Y-52959000D01*
X64384000Y-53553360D02*
X64978360Y-52959000D01*
X35426200Y-38912800D02*
X31887979Y-35374579D01*
X31887979Y-35374579D02*
X31557780Y-35044380D01*
X35426200Y-44485560D02*
X35426200Y-38912800D01*
X36759700Y-45819060D02*
X35426200Y-44485560D01*
X39096500Y-45819060D02*
X36759700Y-45819060D01*
X40353800Y-47076360D02*
X39096500Y-45819060D01*
X37813800Y-47076360D02*
X34712460Y-47076360D01*
X33709159Y-46073059D02*
X33378960Y-45742860D01*
X34712460Y-47076360D02*
X33709159Y-46073059D01*
M02*
