G04 #@! TF.GenerationSoftware,KiCad,Pcbnew,(5.1.4)-1*
G04 #@! TF.CreationDate,2020-02-28T00:57:03+00:00*
G04 #@! TF.ProjectId,analog,616e616c-6f67-42e6-9b69-6361645f7063,rev?*
G04 #@! TF.SameCoordinates,Original*
G04 #@! TF.FileFunction,Soldermask,Top*
G04 #@! TF.FilePolarity,Negative*
%FSLAX46Y46*%
G04 Gerber Fmt 4.6, Leading zero omitted, Abs format (unit mm)*
G04 Created by KiCad (PCBNEW (5.1.4)-1) date 2020-02-28 00:57:03*
%MOMM*%
%LPD*%
G04 APERTURE LIST*
%ADD10C,0.100000*%
G04 APERTURE END LIST*
D10*
G36*
X68243821Y-52114262D02*
G01*
X68289050Y-52127982D01*
X68330734Y-52150262D01*
X68367271Y-52180249D01*
X68397258Y-52216786D01*
X68419538Y-52258470D01*
X68433258Y-52303699D01*
X68438520Y-52357125D01*
X68438520Y-53560875D01*
X68433258Y-53614301D01*
X68419538Y-53659530D01*
X68397258Y-53701214D01*
X68367271Y-53737751D01*
X68330734Y-53767738D01*
X68289050Y-53790018D01*
X68243821Y-53803738D01*
X68190395Y-53809000D01*
X67236645Y-53809000D01*
X67183219Y-53803738D01*
X67137990Y-53790018D01*
X67096306Y-53767738D01*
X67059769Y-53737751D01*
X67029782Y-53701214D01*
X67007502Y-53659530D01*
X66993782Y-53614301D01*
X66988520Y-53560875D01*
X66988520Y-52357125D01*
X66993782Y-52303699D01*
X67007502Y-52258470D01*
X67029782Y-52216786D01*
X67059769Y-52180249D01*
X67096306Y-52150262D01*
X67137990Y-52127982D01*
X67183219Y-52114262D01*
X67236645Y-52109000D01*
X68190395Y-52109000D01*
X68243821Y-52114262D01*
X68243821Y-52114262D01*
G37*
G36*
X66193821Y-52114262D02*
G01*
X66239050Y-52127982D01*
X66280734Y-52150262D01*
X66317271Y-52180249D01*
X66347258Y-52216786D01*
X66369538Y-52258470D01*
X66383258Y-52303699D01*
X66388520Y-52357125D01*
X66388520Y-53560875D01*
X66383258Y-53614301D01*
X66369538Y-53659530D01*
X66347258Y-53701214D01*
X66317271Y-53737751D01*
X66280734Y-53767738D01*
X66239050Y-53790018D01*
X66193821Y-53803738D01*
X66140395Y-53809000D01*
X65186645Y-53809000D01*
X65133219Y-53803738D01*
X65087990Y-53790018D01*
X65046306Y-53767738D01*
X65009769Y-53737751D01*
X64979782Y-53701214D01*
X64957502Y-53659530D01*
X64943782Y-53614301D01*
X64938520Y-53560875D01*
X64938520Y-52357125D01*
X64943782Y-52303699D01*
X64957502Y-52258470D01*
X64979782Y-52216786D01*
X65009769Y-52180249D01*
X65046306Y-52150262D01*
X65087990Y-52127982D01*
X65133219Y-52114262D01*
X65186645Y-52109000D01*
X66140395Y-52109000D01*
X66193821Y-52114262D01*
X66193821Y-52114262D01*
G37*
G36*
X44313700Y-53387660D02*
G01*
X42413700Y-53387660D01*
X42413700Y-48232660D01*
X44313700Y-48232660D01*
X44313700Y-53387660D01*
X44313700Y-53387660D01*
G37*
G36*
X49622300Y-53387660D02*
G01*
X47722300Y-53387660D01*
X47722300Y-48232660D01*
X49622300Y-48232660D01*
X49622300Y-53387660D01*
X49622300Y-53387660D01*
G37*
G36*
X41288501Y-51826622D02*
G01*
X41333730Y-51840342D01*
X41375414Y-51862622D01*
X41411951Y-51892609D01*
X41441938Y-51929146D01*
X41464218Y-51970830D01*
X41477938Y-52016059D01*
X41483200Y-52069485D01*
X41483200Y-53023235D01*
X41477938Y-53076661D01*
X41464218Y-53121890D01*
X41441938Y-53163574D01*
X41411951Y-53200111D01*
X41375414Y-53230098D01*
X41333730Y-53252378D01*
X41288501Y-53266098D01*
X41235075Y-53271360D01*
X40031325Y-53271360D01*
X39977899Y-53266098D01*
X39932670Y-53252378D01*
X39890986Y-53230098D01*
X39854449Y-53200111D01*
X39824462Y-53163574D01*
X39802182Y-53121890D01*
X39788462Y-53076661D01*
X39783200Y-53023235D01*
X39783200Y-52069485D01*
X39788462Y-52016059D01*
X39802182Y-51970830D01*
X39824462Y-51929146D01*
X39854449Y-51892609D01*
X39890986Y-51862622D01*
X39932670Y-51840342D01*
X39977899Y-51826622D01*
X40031325Y-51821360D01*
X41235075Y-51821360D01*
X41288501Y-51826622D01*
X41288501Y-51826622D01*
G37*
G36*
X38697701Y-51826622D02*
G01*
X38742930Y-51840342D01*
X38784614Y-51862622D01*
X38821151Y-51892609D01*
X38851138Y-51929146D01*
X38873418Y-51970830D01*
X38887138Y-52016059D01*
X38892400Y-52069485D01*
X38892400Y-53023235D01*
X38887138Y-53076661D01*
X38873418Y-53121890D01*
X38851138Y-53163574D01*
X38821151Y-53200111D01*
X38784614Y-53230098D01*
X38742930Y-53252378D01*
X38697701Y-53266098D01*
X38644275Y-53271360D01*
X37440525Y-53271360D01*
X37387099Y-53266098D01*
X37341870Y-53252378D01*
X37300186Y-53230098D01*
X37263649Y-53200111D01*
X37233662Y-53163574D01*
X37211382Y-53121890D01*
X37197662Y-53076661D01*
X37192400Y-53023235D01*
X37192400Y-52069485D01*
X37197662Y-52016059D01*
X37211382Y-51970830D01*
X37233662Y-51929146D01*
X37263649Y-51892609D01*
X37300186Y-51862622D01*
X37341870Y-51840342D01*
X37387099Y-51826622D01*
X37440525Y-51821360D01*
X38644275Y-51821360D01*
X38697701Y-51826622D01*
X38697701Y-51826622D01*
G37*
G36*
X30214101Y-51725022D02*
G01*
X30259330Y-51738742D01*
X30301014Y-51761022D01*
X30337551Y-51791009D01*
X30367538Y-51827546D01*
X30389818Y-51869230D01*
X30403538Y-51914459D01*
X30408800Y-51967885D01*
X30408800Y-52921635D01*
X30403538Y-52975061D01*
X30389818Y-53020290D01*
X30367538Y-53061974D01*
X30337551Y-53098511D01*
X30301014Y-53128498D01*
X30259330Y-53150778D01*
X30214101Y-53164498D01*
X30160675Y-53169760D01*
X28956925Y-53169760D01*
X28903499Y-53164498D01*
X28858270Y-53150778D01*
X28816586Y-53128498D01*
X28780049Y-53098511D01*
X28750062Y-53061974D01*
X28727782Y-53020290D01*
X28714062Y-52975061D01*
X28708800Y-52921635D01*
X28708800Y-51967885D01*
X28714062Y-51914459D01*
X28727782Y-51869230D01*
X28750062Y-51827546D01*
X28780049Y-51791009D01*
X28816586Y-51761022D01*
X28858270Y-51738742D01*
X28903499Y-51725022D01*
X28956925Y-51719760D01*
X30160675Y-51719760D01*
X30214101Y-51725022D01*
X30214101Y-51725022D01*
G37*
G36*
X52254301Y-51413222D02*
G01*
X52299530Y-51426942D01*
X52341214Y-51449222D01*
X52377751Y-51479209D01*
X52407738Y-51515746D01*
X52430018Y-51557430D01*
X52443738Y-51602659D01*
X52449000Y-51656085D01*
X52449000Y-52859835D01*
X52443738Y-52913261D01*
X52430018Y-52958490D01*
X52407738Y-53000174D01*
X52377751Y-53036711D01*
X52341214Y-53066698D01*
X52299530Y-53088978D01*
X52254301Y-53102698D01*
X52200875Y-53107960D01*
X51247125Y-53107960D01*
X51193699Y-53102698D01*
X51148470Y-53088978D01*
X51106786Y-53066698D01*
X51070249Y-53036711D01*
X51040262Y-53000174D01*
X51017982Y-52958490D01*
X51004262Y-52913261D01*
X50999000Y-52859835D01*
X50999000Y-51656085D01*
X51004262Y-51602659D01*
X51017982Y-51557430D01*
X51040262Y-51515746D01*
X51070249Y-51479209D01*
X51106786Y-51449222D01*
X51148470Y-51426942D01*
X51193699Y-51413222D01*
X51247125Y-51407960D01*
X52200875Y-51407960D01*
X52254301Y-51413222D01*
X52254301Y-51413222D01*
G37*
G36*
X54304301Y-51413222D02*
G01*
X54349530Y-51426942D01*
X54391214Y-51449222D01*
X54427751Y-51479209D01*
X54457738Y-51515746D01*
X54480018Y-51557430D01*
X54493738Y-51602659D01*
X54499000Y-51656085D01*
X54499000Y-52859835D01*
X54493738Y-52913261D01*
X54480018Y-52958490D01*
X54457738Y-53000174D01*
X54427751Y-53036711D01*
X54391214Y-53066698D01*
X54349530Y-53088978D01*
X54304301Y-53102698D01*
X54250875Y-53107960D01*
X53297125Y-53107960D01*
X53243699Y-53102698D01*
X53198470Y-53088978D01*
X53156786Y-53066698D01*
X53120249Y-53036711D01*
X53090262Y-53000174D01*
X53067982Y-52958490D01*
X53054262Y-52913261D01*
X53049000Y-52859835D01*
X53049000Y-51656085D01*
X53054262Y-51602659D01*
X53067982Y-51557430D01*
X53090262Y-51515746D01*
X53120249Y-51479209D01*
X53156786Y-51449222D01*
X53198470Y-51426942D01*
X53243699Y-51413222D01*
X53297125Y-51407960D01*
X54250875Y-51407960D01*
X54304301Y-51413222D01*
X54304301Y-51413222D01*
G37*
G36*
X36324400Y-52919760D02*
G01*
X34124400Y-52919760D01*
X34124400Y-51819760D01*
X36324400Y-51819760D01*
X36324400Y-52919760D01*
X36324400Y-52919760D01*
G37*
G36*
X56321292Y-50563651D02*
G01*
X56351187Y-50572720D01*
X56378742Y-50587448D01*
X56402892Y-50607268D01*
X56422712Y-50631418D01*
X56437440Y-50658973D01*
X56446509Y-50688868D01*
X56450200Y-50726346D01*
X56450200Y-52643574D01*
X56446509Y-52681052D01*
X56437440Y-52710947D01*
X56422712Y-52738502D01*
X56402892Y-52762652D01*
X56378742Y-52782472D01*
X56351187Y-52797200D01*
X56321292Y-52806269D01*
X56283814Y-52809960D01*
X55716586Y-52809960D01*
X55679108Y-52806269D01*
X55649213Y-52797200D01*
X55621658Y-52782472D01*
X55597508Y-52762652D01*
X55577688Y-52738502D01*
X55562960Y-52710947D01*
X55553891Y-52681052D01*
X55550200Y-52643574D01*
X55550200Y-50726346D01*
X55553891Y-50688868D01*
X55562960Y-50658973D01*
X55577688Y-50631418D01*
X55597508Y-50607268D01*
X55621658Y-50587448D01*
X55649213Y-50572720D01*
X55679108Y-50563651D01*
X55716586Y-50559960D01*
X56283814Y-50559960D01*
X56321292Y-50563651D01*
X56321292Y-50563651D01*
G37*
G36*
X58861292Y-50563651D02*
G01*
X58891187Y-50572720D01*
X58918742Y-50587448D01*
X58942892Y-50607268D01*
X58962712Y-50631418D01*
X58977440Y-50658973D01*
X58986509Y-50688868D01*
X58990200Y-50726346D01*
X58990200Y-52643574D01*
X58986509Y-52681052D01*
X58977440Y-52710947D01*
X58962712Y-52738502D01*
X58942892Y-52762652D01*
X58918742Y-52782472D01*
X58891187Y-52797200D01*
X58861292Y-52806269D01*
X58823814Y-52809960D01*
X58256586Y-52809960D01*
X58219108Y-52806269D01*
X58189213Y-52797200D01*
X58161658Y-52782472D01*
X58137508Y-52762652D01*
X58117688Y-52738502D01*
X58102960Y-52710947D01*
X58093891Y-52681052D01*
X58090200Y-52643574D01*
X58090200Y-50726346D01*
X58093891Y-50688868D01*
X58102960Y-50658973D01*
X58117688Y-50631418D01*
X58137508Y-50607268D01*
X58161658Y-50587448D01*
X58189213Y-50572720D01*
X58219108Y-50563651D01*
X58256586Y-50559960D01*
X58823814Y-50559960D01*
X58861292Y-50563651D01*
X58861292Y-50563651D01*
G37*
G36*
X60131292Y-50563651D02*
G01*
X60161187Y-50572720D01*
X60188742Y-50587448D01*
X60212892Y-50607268D01*
X60232712Y-50631418D01*
X60247440Y-50658973D01*
X60256509Y-50688868D01*
X60260200Y-50726346D01*
X60260200Y-52643574D01*
X60256509Y-52681052D01*
X60247440Y-52710947D01*
X60232712Y-52738502D01*
X60212892Y-52762652D01*
X60188742Y-52782472D01*
X60161187Y-52797200D01*
X60131292Y-52806269D01*
X60093814Y-52809960D01*
X59526586Y-52809960D01*
X59489108Y-52806269D01*
X59459213Y-52797200D01*
X59431658Y-52782472D01*
X59407508Y-52762652D01*
X59387688Y-52738502D01*
X59372960Y-52710947D01*
X59363891Y-52681052D01*
X59360200Y-52643574D01*
X59360200Y-50726346D01*
X59363891Y-50688868D01*
X59372960Y-50658973D01*
X59387688Y-50631418D01*
X59407508Y-50607268D01*
X59431658Y-50587448D01*
X59459213Y-50572720D01*
X59489108Y-50563651D01*
X59526586Y-50559960D01*
X60093814Y-50559960D01*
X60131292Y-50563651D01*
X60131292Y-50563651D01*
G37*
G36*
X61401292Y-50563651D02*
G01*
X61431187Y-50572720D01*
X61458742Y-50587448D01*
X61482892Y-50607268D01*
X61502712Y-50631418D01*
X61517440Y-50658973D01*
X61526509Y-50688868D01*
X61530200Y-50726346D01*
X61530200Y-52643574D01*
X61526509Y-52681052D01*
X61517440Y-52710947D01*
X61502712Y-52738502D01*
X61482892Y-52762652D01*
X61458742Y-52782472D01*
X61431187Y-52797200D01*
X61401292Y-52806269D01*
X61363814Y-52809960D01*
X60796586Y-52809960D01*
X60759108Y-52806269D01*
X60729213Y-52797200D01*
X60701658Y-52782472D01*
X60677508Y-52762652D01*
X60657688Y-52738502D01*
X60642960Y-52710947D01*
X60633891Y-52681052D01*
X60630200Y-52643574D01*
X60630200Y-50726346D01*
X60633891Y-50688868D01*
X60642960Y-50658973D01*
X60657688Y-50631418D01*
X60677508Y-50607268D01*
X60701658Y-50587448D01*
X60729213Y-50572720D01*
X60759108Y-50563651D01*
X60796586Y-50559960D01*
X61363814Y-50559960D01*
X61401292Y-50563651D01*
X61401292Y-50563651D01*
G37*
G36*
X62671292Y-50563651D02*
G01*
X62701187Y-50572720D01*
X62728742Y-50587448D01*
X62752892Y-50607268D01*
X62772712Y-50631418D01*
X62787440Y-50658973D01*
X62796509Y-50688868D01*
X62800200Y-50726346D01*
X62800200Y-52643574D01*
X62796509Y-52681052D01*
X62787440Y-52710947D01*
X62772712Y-52738502D01*
X62752892Y-52762652D01*
X62728742Y-52782472D01*
X62701187Y-52797200D01*
X62671292Y-52806269D01*
X62633814Y-52809960D01*
X62066586Y-52809960D01*
X62029108Y-52806269D01*
X61999213Y-52797200D01*
X61971658Y-52782472D01*
X61947508Y-52762652D01*
X61927688Y-52738502D01*
X61912960Y-52710947D01*
X61903891Y-52681052D01*
X61900200Y-52643574D01*
X61900200Y-50726346D01*
X61903891Y-50688868D01*
X61912960Y-50658973D01*
X61927688Y-50631418D01*
X61947508Y-50607268D01*
X61971658Y-50587448D01*
X61999213Y-50572720D01*
X62029108Y-50563651D01*
X62066586Y-50559960D01*
X62633814Y-50559960D01*
X62671292Y-50563651D01*
X62671292Y-50563651D01*
G37*
G36*
X63941292Y-50563651D02*
G01*
X63971187Y-50572720D01*
X63998742Y-50587448D01*
X64022892Y-50607268D01*
X64042712Y-50631418D01*
X64057440Y-50658973D01*
X64066509Y-50688868D01*
X64070200Y-50726346D01*
X64070200Y-52643574D01*
X64066509Y-52681052D01*
X64057440Y-52710947D01*
X64042712Y-52738502D01*
X64022892Y-52762652D01*
X63998742Y-52782472D01*
X63971187Y-52797200D01*
X63941292Y-52806269D01*
X63903814Y-52809960D01*
X63336586Y-52809960D01*
X63299108Y-52806269D01*
X63269213Y-52797200D01*
X63241658Y-52782472D01*
X63217508Y-52762652D01*
X63197688Y-52738502D01*
X63182960Y-52710947D01*
X63173891Y-52681052D01*
X63170200Y-52643574D01*
X63170200Y-50726346D01*
X63173891Y-50688868D01*
X63182960Y-50658973D01*
X63197688Y-50631418D01*
X63217508Y-50607268D01*
X63241658Y-50587448D01*
X63269213Y-50572720D01*
X63299108Y-50563651D01*
X63336586Y-50559960D01*
X63903814Y-50559960D01*
X63941292Y-50563651D01*
X63941292Y-50563651D01*
G37*
G36*
X57591292Y-50563651D02*
G01*
X57621187Y-50572720D01*
X57648742Y-50587448D01*
X57672892Y-50607268D01*
X57692712Y-50631418D01*
X57707440Y-50658973D01*
X57716509Y-50688868D01*
X57720200Y-50726346D01*
X57720200Y-52643574D01*
X57716509Y-52681052D01*
X57707440Y-52710947D01*
X57692712Y-52738502D01*
X57672892Y-52762652D01*
X57648742Y-52782472D01*
X57621187Y-52797200D01*
X57591292Y-52806269D01*
X57553814Y-52809960D01*
X56986586Y-52809960D01*
X56949108Y-52806269D01*
X56919213Y-52797200D01*
X56891658Y-52782472D01*
X56867508Y-52762652D01*
X56847688Y-52738502D01*
X56832960Y-52710947D01*
X56823891Y-52681052D01*
X56820200Y-52643574D01*
X56820200Y-50726346D01*
X56823891Y-50688868D01*
X56832960Y-50658973D01*
X56847688Y-50631418D01*
X56867508Y-50607268D01*
X56891658Y-50587448D01*
X56919213Y-50572720D01*
X56949108Y-50563651D01*
X56986586Y-50559960D01*
X57553814Y-50559960D01*
X57591292Y-50563651D01*
X57591292Y-50563651D01*
G37*
G36*
X33324400Y-51969760D02*
G01*
X31124400Y-51969760D01*
X31124400Y-50869760D01*
X33324400Y-50869760D01*
X33324400Y-51969760D01*
X33324400Y-51969760D01*
G37*
G36*
X66193821Y-49965422D02*
G01*
X66239050Y-49979142D01*
X66280734Y-50001422D01*
X66317271Y-50031409D01*
X66347258Y-50067946D01*
X66369538Y-50109630D01*
X66383258Y-50154859D01*
X66388520Y-50208285D01*
X66388520Y-51412035D01*
X66383258Y-51465461D01*
X66369538Y-51510690D01*
X66347258Y-51552374D01*
X66317271Y-51588911D01*
X66280734Y-51618898D01*
X66239050Y-51641178D01*
X66193821Y-51654898D01*
X66140395Y-51660160D01*
X65186645Y-51660160D01*
X65133219Y-51654898D01*
X65087990Y-51641178D01*
X65046306Y-51618898D01*
X65009769Y-51588911D01*
X64979782Y-51552374D01*
X64957502Y-51510690D01*
X64943782Y-51465461D01*
X64938520Y-51412035D01*
X64938520Y-50208285D01*
X64943782Y-50154859D01*
X64957502Y-50109630D01*
X64979782Y-50067946D01*
X65009769Y-50031409D01*
X65046306Y-50001422D01*
X65087990Y-49979142D01*
X65133219Y-49965422D01*
X65186645Y-49960160D01*
X66140395Y-49960160D01*
X66193821Y-49965422D01*
X66193821Y-49965422D01*
G37*
G36*
X68243821Y-49965422D02*
G01*
X68289050Y-49979142D01*
X68330734Y-50001422D01*
X68367271Y-50031409D01*
X68397258Y-50067946D01*
X68419538Y-50109630D01*
X68433258Y-50154859D01*
X68438520Y-50208285D01*
X68438520Y-51412035D01*
X68433258Y-51465461D01*
X68419538Y-51510690D01*
X68397258Y-51552374D01*
X68367271Y-51588911D01*
X68330734Y-51618898D01*
X68289050Y-51641178D01*
X68243821Y-51654898D01*
X68190395Y-51660160D01*
X67236645Y-51660160D01*
X67183219Y-51654898D01*
X67137990Y-51641178D01*
X67096306Y-51618898D01*
X67059769Y-51588911D01*
X67029782Y-51552374D01*
X67007502Y-51510690D01*
X66993782Y-51465461D01*
X66988520Y-51412035D01*
X66988520Y-50208285D01*
X66993782Y-50154859D01*
X67007502Y-50109630D01*
X67029782Y-50067946D01*
X67059769Y-50031409D01*
X67096306Y-50001422D01*
X67137990Y-49979142D01*
X67183219Y-49965422D01*
X67236645Y-49960160D01*
X68190395Y-49960160D01*
X68243821Y-49965422D01*
X68243821Y-49965422D01*
G37*
G36*
X41288501Y-49776622D02*
G01*
X41333730Y-49790342D01*
X41375414Y-49812622D01*
X41411951Y-49842609D01*
X41441938Y-49879146D01*
X41464218Y-49920830D01*
X41477938Y-49966059D01*
X41483200Y-50019485D01*
X41483200Y-50973235D01*
X41477938Y-51026661D01*
X41464218Y-51071890D01*
X41441938Y-51113574D01*
X41411951Y-51150111D01*
X41375414Y-51180098D01*
X41333730Y-51202378D01*
X41288501Y-51216098D01*
X41235075Y-51221360D01*
X40031325Y-51221360D01*
X39977899Y-51216098D01*
X39932670Y-51202378D01*
X39890986Y-51180098D01*
X39854449Y-51150111D01*
X39824462Y-51113574D01*
X39802182Y-51071890D01*
X39788462Y-51026661D01*
X39783200Y-50973235D01*
X39783200Y-50019485D01*
X39788462Y-49966059D01*
X39802182Y-49920830D01*
X39824462Y-49879146D01*
X39854449Y-49842609D01*
X39890986Y-49812622D01*
X39932670Y-49790342D01*
X39977899Y-49776622D01*
X40031325Y-49771360D01*
X41235075Y-49771360D01*
X41288501Y-49776622D01*
X41288501Y-49776622D01*
G37*
G36*
X38697701Y-49776622D02*
G01*
X38742930Y-49790342D01*
X38784614Y-49812622D01*
X38821151Y-49842609D01*
X38851138Y-49879146D01*
X38873418Y-49920830D01*
X38887138Y-49966059D01*
X38892400Y-50019485D01*
X38892400Y-50973235D01*
X38887138Y-51026661D01*
X38873418Y-51071890D01*
X38851138Y-51113574D01*
X38821151Y-51150111D01*
X38784614Y-51180098D01*
X38742930Y-51202378D01*
X38697701Y-51216098D01*
X38644275Y-51221360D01*
X37440525Y-51221360D01*
X37387099Y-51216098D01*
X37341870Y-51202378D01*
X37300186Y-51180098D01*
X37263649Y-51150111D01*
X37233662Y-51113574D01*
X37211382Y-51071890D01*
X37197662Y-51026661D01*
X37192400Y-50973235D01*
X37192400Y-50019485D01*
X37197662Y-49966059D01*
X37211382Y-49920830D01*
X37233662Y-49879146D01*
X37263649Y-49842609D01*
X37300186Y-49812622D01*
X37341870Y-49790342D01*
X37387099Y-49776622D01*
X37440525Y-49771360D01*
X38644275Y-49771360D01*
X38697701Y-49776622D01*
X38697701Y-49776622D01*
G37*
G36*
X30214101Y-49675022D02*
G01*
X30259330Y-49688742D01*
X30301014Y-49711022D01*
X30337551Y-49741009D01*
X30367538Y-49777546D01*
X30389818Y-49819230D01*
X30403538Y-49864459D01*
X30408800Y-49917885D01*
X30408800Y-50871635D01*
X30403538Y-50925061D01*
X30389818Y-50970290D01*
X30367538Y-51011974D01*
X30337551Y-51048511D01*
X30301014Y-51078498D01*
X30259330Y-51100778D01*
X30214101Y-51114498D01*
X30160675Y-51119760D01*
X28956925Y-51119760D01*
X28903499Y-51114498D01*
X28858270Y-51100778D01*
X28816586Y-51078498D01*
X28780049Y-51048511D01*
X28750062Y-51011974D01*
X28727782Y-50970290D01*
X28714062Y-50925061D01*
X28708800Y-50871635D01*
X28708800Y-49917885D01*
X28714062Y-49864459D01*
X28727782Y-49819230D01*
X28750062Y-49777546D01*
X28780049Y-49741009D01*
X28816586Y-49711022D01*
X28858270Y-49688742D01*
X28903499Y-49675022D01*
X28956925Y-49669760D01*
X30160675Y-49669760D01*
X30214101Y-49675022D01*
X30214101Y-49675022D01*
G37*
G36*
X52254301Y-49381222D02*
G01*
X52299530Y-49394942D01*
X52341214Y-49417222D01*
X52377751Y-49447209D01*
X52407738Y-49483746D01*
X52430018Y-49525430D01*
X52443738Y-49570659D01*
X52449000Y-49624085D01*
X52449000Y-50827835D01*
X52443738Y-50881261D01*
X52430018Y-50926490D01*
X52407738Y-50968174D01*
X52377751Y-51004711D01*
X52341214Y-51034698D01*
X52299530Y-51056978D01*
X52254301Y-51070698D01*
X52200875Y-51075960D01*
X51247125Y-51075960D01*
X51193699Y-51070698D01*
X51148470Y-51056978D01*
X51106786Y-51034698D01*
X51070249Y-51004711D01*
X51040262Y-50968174D01*
X51017982Y-50926490D01*
X51004262Y-50881261D01*
X50999000Y-50827835D01*
X50999000Y-49624085D01*
X51004262Y-49570659D01*
X51017982Y-49525430D01*
X51040262Y-49483746D01*
X51070249Y-49447209D01*
X51106786Y-49417222D01*
X51148470Y-49394942D01*
X51193699Y-49381222D01*
X51247125Y-49375960D01*
X52200875Y-49375960D01*
X52254301Y-49381222D01*
X52254301Y-49381222D01*
G37*
G36*
X54304301Y-49381222D02*
G01*
X54349530Y-49394942D01*
X54391214Y-49417222D01*
X54427751Y-49447209D01*
X54457738Y-49483746D01*
X54480018Y-49525430D01*
X54493738Y-49570659D01*
X54499000Y-49624085D01*
X54499000Y-50827835D01*
X54493738Y-50881261D01*
X54480018Y-50926490D01*
X54457738Y-50968174D01*
X54427751Y-51004711D01*
X54391214Y-51034698D01*
X54349530Y-51056978D01*
X54304301Y-51070698D01*
X54250875Y-51075960D01*
X53297125Y-51075960D01*
X53243699Y-51070698D01*
X53198470Y-51056978D01*
X53156786Y-51034698D01*
X53120249Y-51004711D01*
X53090262Y-50968174D01*
X53067982Y-50926490D01*
X53054262Y-50881261D01*
X53049000Y-50827835D01*
X53049000Y-49624085D01*
X53054262Y-49570659D01*
X53067982Y-49525430D01*
X53090262Y-49483746D01*
X53120249Y-49447209D01*
X53156786Y-49417222D01*
X53198470Y-49394942D01*
X53243699Y-49381222D01*
X53297125Y-49375960D01*
X54250875Y-49375960D01*
X54304301Y-49381222D01*
X54304301Y-49381222D01*
G37*
G36*
X36324400Y-51019760D02*
G01*
X34124400Y-51019760D01*
X34124400Y-49919760D01*
X36324400Y-49919760D01*
X36324400Y-51019760D01*
X36324400Y-51019760D01*
G37*
G36*
X68233661Y-47880082D02*
G01*
X68278890Y-47893802D01*
X68320574Y-47916082D01*
X68357111Y-47946069D01*
X68387098Y-47982606D01*
X68409378Y-48024290D01*
X68423098Y-48069519D01*
X68428360Y-48122945D01*
X68428360Y-49326695D01*
X68423098Y-49380121D01*
X68409378Y-49425350D01*
X68387098Y-49467034D01*
X68357111Y-49503571D01*
X68320574Y-49533558D01*
X68278890Y-49555838D01*
X68233661Y-49569558D01*
X68180235Y-49574820D01*
X67226485Y-49574820D01*
X67173059Y-49569558D01*
X67127830Y-49555838D01*
X67086146Y-49533558D01*
X67049609Y-49503571D01*
X67019622Y-49467034D01*
X66997342Y-49425350D01*
X66983622Y-49380121D01*
X66978360Y-49326695D01*
X66978360Y-48122945D01*
X66983622Y-48069519D01*
X66997342Y-48024290D01*
X67019622Y-47982606D01*
X67049609Y-47946069D01*
X67086146Y-47916082D01*
X67127830Y-47893802D01*
X67173059Y-47880082D01*
X67226485Y-47874820D01*
X68180235Y-47874820D01*
X68233661Y-47880082D01*
X68233661Y-47880082D01*
G37*
G36*
X66183661Y-47880082D02*
G01*
X66228890Y-47893802D01*
X66270574Y-47916082D01*
X66307111Y-47946069D01*
X66337098Y-47982606D01*
X66359378Y-48024290D01*
X66373098Y-48069519D01*
X66378360Y-48122945D01*
X66378360Y-49326695D01*
X66373098Y-49380121D01*
X66359378Y-49425350D01*
X66337098Y-49467034D01*
X66307111Y-49503571D01*
X66270574Y-49533558D01*
X66228890Y-49555838D01*
X66183661Y-49569558D01*
X66130235Y-49574820D01*
X65176485Y-49574820D01*
X65123059Y-49569558D01*
X65077830Y-49555838D01*
X65036146Y-49533558D01*
X64999609Y-49503571D01*
X64969622Y-49467034D01*
X64947342Y-49425350D01*
X64933622Y-49380121D01*
X64928360Y-49326695D01*
X64928360Y-48122945D01*
X64933622Y-48069519D01*
X64947342Y-48024290D01*
X64969622Y-47982606D01*
X64999609Y-47946069D01*
X65036146Y-47916082D01*
X65077830Y-47893802D01*
X65123059Y-47880082D01*
X65176485Y-47874820D01*
X66130235Y-47874820D01*
X66183661Y-47880082D01*
X66183661Y-47880082D01*
G37*
G36*
X54304301Y-47349222D02*
G01*
X54349530Y-47362942D01*
X54391214Y-47385222D01*
X54427751Y-47415209D01*
X54457738Y-47451746D01*
X54480018Y-47493430D01*
X54493738Y-47538659D01*
X54499000Y-47592085D01*
X54499000Y-48795835D01*
X54493738Y-48849261D01*
X54480018Y-48894490D01*
X54457738Y-48936174D01*
X54427751Y-48972711D01*
X54391214Y-49002698D01*
X54349530Y-49024978D01*
X54304301Y-49038698D01*
X54250875Y-49043960D01*
X53297125Y-49043960D01*
X53243699Y-49038698D01*
X53198470Y-49024978D01*
X53156786Y-49002698D01*
X53120249Y-48972711D01*
X53090262Y-48936174D01*
X53067982Y-48894490D01*
X53054262Y-48849261D01*
X53049000Y-48795835D01*
X53049000Y-47592085D01*
X53054262Y-47538659D01*
X53067982Y-47493430D01*
X53090262Y-47451746D01*
X53120249Y-47415209D01*
X53156786Y-47385222D01*
X53198470Y-47362942D01*
X53243699Y-47349222D01*
X53297125Y-47343960D01*
X54250875Y-47343960D01*
X54304301Y-47349222D01*
X54304301Y-47349222D01*
G37*
G36*
X52254301Y-47349222D02*
G01*
X52299530Y-47362942D01*
X52341214Y-47385222D01*
X52377751Y-47415209D01*
X52407738Y-47451746D01*
X52430018Y-47493430D01*
X52443738Y-47538659D01*
X52449000Y-47592085D01*
X52449000Y-48795835D01*
X52443738Y-48849261D01*
X52430018Y-48894490D01*
X52407738Y-48936174D01*
X52377751Y-48972711D01*
X52341214Y-49002698D01*
X52299530Y-49024978D01*
X52254301Y-49038698D01*
X52200875Y-49043960D01*
X51247125Y-49043960D01*
X51193699Y-49038698D01*
X51148470Y-49024978D01*
X51106786Y-49002698D01*
X51070249Y-48972711D01*
X51040262Y-48936174D01*
X51017982Y-48894490D01*
X51004262Y-48849261D01*
X50999000Y-48795835D01*
X50999000Y-47592085D01*
X51004262Y-47538659D01*
X51017982Y-47493430D01*
X51040262Y-47451746D01*
X51070249Y-47415209D01*
X51106786Y-47385222D01*
X51148470Y-47362942D01*
X51193699Y-47349222D01*
X51247125Y-47343960D01*
X52200875Y-47343960D01*
X52254301Y-47349222D01*
X52254301Y-47349222D01*
G37*
G36*
X38009836Y-46090830D02*
G01*
X38198332Y-46148009D01*
X38372058Y-46240868D01*
X38524328Y-46365832D01*
X38649292Y-46518102D01*
X38742151Y-46691828D01*
X38799330Y-46880324D01*
X38818638Y-47076360D01*
X38799330Y-47272396D01*
X38742151Y-47460892D01*
X38649292Y-47634618D01*
X38524328Y-47786888D01*
X38372058Y-47911852D01*
X38198332Y-48004711D01*
X38009836Y-48061890D01*
X37862920Y-48076360D01*
X37764680Y-48076360D01*
X37617764Y-48061890D01*
X37429268Y-48004711D01*
X37255542Y-47911852D01*
X37103272Y-47786888D01*
X36978308Y-47634618D01*
X36885449Y-47460892D01*
X36828270Y-47272396D01*
X36808962Y-47076360D01*
X36828270Y-46880324D01*
X36885449Y-46691828D01*
X36978308Y-46518102D01*
X37103272Y-46365832D01*
X37255542Y-46240868D01*
X37429268Y-46148009D01*
X37617764Y-46090830D01*
X37764680Y-46076360D01*
X37862920Y-46076360D01*
X38009836Y-46090830D01*
X38009836Y-46090830D01*
G37*
G36*
X40549836Y-46090830D02*
G01*
X40738332Y-46148009D01*
X40912058Y-46240868D01*
X41064328Y-46365832D01*
X41189292Y-46518102D01*
X41282151Y-46691828D01*
X41339330Y-46880324D01*
X41358638Y-47076360D01*
X41339330Y-47272396D01*
X41282151Y-47460892D01*
X41189292Y-47634618D01*
X41064328Y-47786888D01*
X40912058Y-47911852D01*
X40738332Y-48004711D01*
X40549836Y-48061890D01*
X40402920Y-48076360D01*
X40304680Y-48076360D01*
X40157764Y-48061890D01*
X39969268Y-48004711D01*
X39795542Y-47911852D01*
X39643272Y-47786888D01*
X39518308Y-47634618D01*
X39425449Y-47460892D01*
X39368270Y-47272396D01*
X39348962Y-47076360D01*
X39368270Y-46880324D01*
X39425449Y-46691828D01*
X39518308Y-46518102D01*
X39643272Y-46365832D01*
X39795542Y-46240868D01*
X39969268Y-46148009D01*
X40157764Y-46090830D01*
X40304680Y-46076360D01*
X40402920Y-46076360D01*
X40549836Y-46090830D01*
X40549836Y-46090830D01*
G37*
G36*
X63941292Y-45613651D02*
G01*
X63971187Y-45622720D01*
X63998742Y-45637448D01*
X64022892Y-45657268D01*
X64042712Y-45681418D01*
X64057440Y-45708973D01*
X64066509Y-45738868D01*
X64070200Y-45776346D01*
X64070200Y-47693574D01*
X64066509Y-47731052D01*
X64057440Y-47760947D01*
X64042712Y-47788502D01*
X64022892Y-47812652D01*
X63998742Y-47832472D01*
X63971187Y-47847200D01*
X63941292Y-47856269D01*
X63903814Y-47859960D01*
X63336586Y-47859960D01*
X63299108Y-47856269D01*
X63269213Y-47847200D01*
X63241658Y-47832472D01*
X63217508Y-47812652D01*
X63197688Y-47788502D01*
X63182960Y-47760947D01*
X63173891Y-47731052D01*
X63170200Y-47693574D01*
X63170200Y-45776346D01*
X63173891Y-45738868D01*
X63182960Y-45708973D01*
X63197688Y-45681418D01*
X63217508Y-45657268D01*
X63241658Y-45637448D01*
X63269213Y-45622720D01*
X63299108Y-45613651D01*
X63336586Y-45609960D01*
X63903814Y-45609960D01*
X63941292Y-45613651D01*
X63941292Y-45613651D01*
G37*
G36*
X58861292Y-45613651D02*
G01*
X58891187Y-45622720D01*
X58918742Y-45637448D01*
X58942892Y-45657268D01*
X58962712Y-45681418D01*
X58977440Y-45708973D01*
X58986509Y-45738868D01*
X58990200Y-45776346D01*
X58990200Y-47693574D01*
X58986509Y-47731052D01*
X58977440Y-47760947D01*
X58962712Y-47788502D01*
X58942892Y-47812652D01*
X58918742Y-47832472D01*
X58891187Y-47847200D01*
X58861292Y-47856269D01*
X58823814Y-47859960D01*
X58256586Y-47859960D01*
X58219108Y-47856269D01*
X58189213Y-47847200D01*
X58161658Y-47832472D01*
X58137508Y-47812652D01*
X58117688Y-47788502D01*
X58102960Y-47760947D01*
X58093891Y-47731052D01*
X58090200Y-47693574D01*
X58090200Y-45776346D01*
X58093891Y-45738868D01*
X58102960Y-45708973D01*
X58117688Y-45681418D01*
X58137508Y-45657268D01*
X58161658Y-45637448D01*
X58189213Y-45622720D01*
X58219108Y-45613651D01*
X58256586Y-45609960D01*
X58823814Y-45609960D01*
X58861292Y-45613651D01*
X58861292Y-45613651D01*
G37*
G36*
X62671292Y-45613651D02*
G01*
X62701187Y-45622720D01*
X62728742Y-45637448D01*
X62752892Y-45657268D01*
X62772712Y-45681418D01*
X62787440Y-45708973D01*
X62796509Y-45738868D01*
X62800200Y-45776346D01*
X62800200Y-47693574D01*
X62796509Y-47731052D01*
X62787440Y-47760947D01*
X62772712Y-47788502D01*
X62752892Y-47812652D01*
X62728742Y-47832472D01*
X62701187Y-47847200D01*
X62671292Y-47856269D01*
X62633814Y-47859960D01*
X62066586Y-47859960D01*
X62029108Y-47856269D01*
X61999213Y-47847200D01*
X61971658Y-47832472D01*
X61947508Y-47812652D01*
X61927688Y-47788502D01*
X61912960Y-47760947D01*
X61903891Y-47731052D01*
X61900200Y-47693574D01*
X61900200Y-45776346D01*
X61903891Y-45738868D01*
X61912960Y-45708973D01*
X61927688Y-45681418D01*
X61947508Y-45657268D01*
X61971658Y-45637448D01*
X61999213Y-45622720D01*
X62029108Y-45613651D01*
X62066586Y-45609960D01*
X62633814Y-45609960D01*
X62671292Y-45613651D01*
X62671292Y-45613651D01*
G37*
G36*
X61401292Y-45613651D02*
G01*
X61431187Y-45622720D01*
X61458742Y-45637448D01*
X61482892Y-45657268D01*
X61502712Y-45681418D01*
X61517440Y-45708973D01*
X61526509Y-45738868D01*
X61530200Y-45776346D01*
X61530200Y-47693574D01*
X61526509Y-47731052D01*
X61517440Y-47760947D01*
X61502712Y-47788502D01*
X61482892Y-47812652D01*
X61458742Y-47832472D01*
X61431187Y-47847200D01*
X61401292Y-47856269D01*
X61363814Y-47859960D01*
X60796586Y-47859960D01*
X60759108Y-47856269D01*
X60729213Y-47847200D01*
X60701658Y-47832472D01*
X60677508Y-47812652D01*
X60657688Y-47788502D01*
X60642960Y-47760947D01*
X60633891Y-47731052D01*
X60630200Y-47693574D01*
X60630200Y-45776346D01*
X60633891Y-45738868D01*
X60642960Y-45708973D01*
X60657688Y-45681418D01*
X60677508Y-45657268D01*
X60701658Y-45637448D01*
X60729213Y-45622720D01*
X60759108Y-45613651D01*
X60796586Y-45609960D01*
X61363814Y-45609960D01*
X61401292Y-45613651D01*
X61401292Y-45613651D01*
G37*
G36*
X60131292Y-45613651D02*
G01*
X60161187Y-45622720D01*
X60188742Y-45637448D01*
X60212892Y-45657268D01*
X60232712Y-45681418D01*
X60247440Y-45708973D01*
X60256509Y-45738868D01*
X60260200Y-45776346D01*
X60260200Y-47693574D01*
X60256509Y-47731052D01*
X60247440Y-47760947D01*
X60232712Y-47788502D01*
X60212892Y-47812652D01*
X60188742Y-47832472D01*
X60161187Y-47847200D01*
X60131292Y-47856269D01*
X60093814Y-47859960D01*
X59526586Y-47859960D01*
X59489108Y-47856269D01*
X59459213Y-47847200D01*
X59431658Y-47832472D01*
X59407508Y-47812652D01*
X59387688Y-47788502D01*
X59372960Y-47760947D01*
X59363891Y-47731052D01*
X59360200Y-47693574D01*
X59360200Y-45776346D01*
X59363891Y-45738868D01*
X59372960Y-45708973D01*
X59387688Y-45681418D01*
X59407508Y-45657268D01*
X59431658Y-45637448D01*
X59459213Y-45622720D01*
X59489108Y-45613651D01*
X59526586Y-45609960D01*
X60093814Y-45609960D01*
X60131292Y-45613651D01*
X60131292Y-45613651D01*
G37*
G36*
X57591292Y-45613651D02*
G01*
X57621187Y-45622720D01*
X57648742Y-45637448D01*
X57672892Y-45657268D01*
X57692712Y-45681418D01*
X57707440Y-45708973D01*
X57716509Y-45738868D01*
X57720200Y-45776346D01*
X57720200Y-47693574D01*
X57716509Y-47731052D01*
X57707440Y-47760947D01*
X57692712Y-47788502D01*
X57672892Y-47812652D01*
X57648742Y-47832472D01*
X57621187Y-47847200D01*
X57591292Y-47856269D01*
X57553814Y-47859960D01*
X56986586Y-47859960D01*
X56949108Y-47856269D01*
X56919213Y-47847200D01*
X56891658Y-47832472D01*
X56867508Y-47812652D01*
X56847688Y-47788502D01*
X56832960Y-47760947D01*
X56823891Y-47731052D01*
X56820200Y-47693574D01*
X56820200Y-45776346D01*
X56823891Y-45738868D01*
X56832960Y-45708973D01*
X56847688Y-45681418D01*
X56867508Y-45657268D01*
X56891658Y-45637448D01*
X56919213Y-45622720D01*
X56949108Y-45613651D01*
X56986586Y-45609960D01*
X57553814Y-45609960D01*
X57591292Y-45613651D01*
X57591292Y-45613651D01*
G37*
G36*
X56321292Y-45613651D02*
G01*
X56351187Y-45622720D01*
X56378742Y-45637448D01*
X56402892Y-45657268D01*
X56422712Y-45681418D01*
X56437440Y-45708973D01*
X56446509Y-45738868D01*
X56450200Y-45776346D01*
X56450200Y-47693574D01*
X56446509Y-47731052D01*
X56437440Y-47760947D01*
X56422712Y-47788502D01*
X56402892Y-47812652D01*
X56378742Y-47832472D01*
X56351187Y-47847200D01*
X56321292Y-47856269D01*
X56283814Y-47859960D01*
X55716586Y-47859960D01*
X55679108Y-47856269D01*
X55649213Y-47847200D01*
X55621658Y-47832472D01*
X55597508Y-47812652D01*
X55577688Y-47788502D01*
X55562960Y-47760947D01*
X55553891Y-47731052D01*
X55550200Y-47693574D01*
X55550200Y-45776346D01*
X55553891Y-45738868D01*
X55562960Y-45708973D01*
X55577688Y-45681418D01*
X55597508Y-45657268D01*
X55621658Y-45637448D01*
X55649213Y-45622720D01*
X55679108Y-45613651D01*
X55716586Y-45609960D01*
X56283814Y-45609960D01*
X56321292Y-45613651D01*
X56321292Y-45613651D01*
G37*
G36*
X70041301Y-45756022D02*
G01*
X70086530Y-45769742D01*
X70128214Y-45792022D01*
X70164751Y-45822009D01*
X70194738Y-45858546D01*
X70217018Y-45900230D01*
X70230738Y-45945459D01*
X70236000Y-45998885D01*
X70236000Y-46952635D01*
X70230738Y-47006061D01*
X70217018Y-47051290D01*
X70194738Y-47092974D01*
X70164751Y-47129511D01*
X70128214Y-47159498D01*
X70086530Y-47181778D01*
X70041301Y-47195498D01*
X69987875Y-47200760D01*
X68784125Y-47200760D01*
X68730699Y-47195498D01*
X68685470Y-47181778D01*
X68643786Y-47159498D01*
X68607249Y-47129511D01*
X68577262Y-47092974D01*
X68554982Y-47051290D01*
X68541262Y-47006061D01*
X68536000Y-46952635D01*
X68536000Y-45998885D01*
X68541262Y-45945459D01*
X68554982Y-45900230D01*
X68577262Y-45858546D01*
X68607249Y-45822009D01*
X68643786Y-45792022D01*
X68685470Y-45769742D01*
X68730699Y-45756022D01*
X68784125Y-45750760D01*
X69987875Y-45750760D01*
X70041301Y-45756022D01*
X70041301Y-45756022D01*
G37*
G36*
X48577400Y-46807180D02*
G01*
X46717400Y-46807180D01*
X46717400Y-43957180D01*
X48577400Y-43957180D01*
X48577400Y-46807180D01*
X48577400Y-46807180D01*
G37*
G36*
X45877400Y-46807180D02*
G01*
X44017400Y-46807180D01*
X44017400Y-43957180D01*
X45877400Y-43957180D01*
X45877400Y-46807180D01*
X45877400Y-46807180D01*
G37*
G36*
X66813436Y-44744630D02*
G01*
X67001932Y-44801809D01*
X67175658Y-44894668D01*
X67327928Y-45019632D01*
X67452892Y-45171902D01*
X67545751Y-45345628D01*
X67602930Y-45534124D01*
X67622238Y-45730160D01*
X67602930Y-45926196D01*
X67545751Y-46114692D01*
X67452892Y-46288418D01*
X67327928Y-46440688D01*
X67175658Y-46565652D01*
X67001932Y-46658511D01*
X66813436Y-46715690D01*
X66666520Y-46730160D01*
X66568280Y-46730160D01*
X66421364Y-46715690D01*
X66232868Y-46658511D01*
X66059142Y-46565652D01*
X65906872Y-46440688D01*
X65781908Y-46288418D01*
X65689049Y-46114692D01*
X65631870Y-45926196D01*
X65612562Y-45730160D01*
X65631870Y-45534124D01*
X65689049Y-45345628D01*
X65781908Y-45171902D01*
X65906872Y-45019632D01*
X66059142Y-44894668D01*
X66232868Y-44801809D01*
X66421364Y-44744630D01*
X66568280Y-44730160D01*
X66666520Y-44730160D01*
X66813436Y-44744630D01*
X66813436Y-44744630D01*
G37*
G36*
X51397701Y-45181982D02*
G01*
X51442930Y-45195702D01*
X51484614Y-45217982D01*
X51521151Y-45247969D01*
X51551138Y-45284506D01*
X51573418Y-45326190D01*
X51587138Y-45371419D01*
X51592400Y-45424845D01*
X51592400Y-46378595D01*
X51587138Y-46432021D01*
X51573418Y-46477250D01*
X51551138Y-46518934D01*
X51521151Y-46555471D01*
X51484614Y-46585458D01*
X51442930Y-46607738D01*
X51397701Y-46621458D01*
X51344275Y-46626720D01*
X50140525Y-46626720D01*
X50087099Y-46621458D01*
X50041870Y-46607738D01*
X50000186Y-46585458D01*
X49963649Y-46555471D01*
X49933662Y-46518934D01*
X49911382Y-46477250D01*
X49897662Y-46432021D01*
X49892400Y-46378595D01*
X49892400Y-45424845D01*
X49897662Y-45371419D01*
X49911382Y-45326190D01*
X49933662Y-45284506D01*
X49963649Y-45247969D01*
X50000186Y-45217982D01*
X50041870Y-45195702D01*
X50087099Y-45181982D01*
X50140525Y-45176720D01*
X51344275Y-45176720D01*
X51397701Y-45181982D01*
X51397701Y-45181982D01*
G37*
G36*
X53734501Y-45171822D02*
G01*
X53779730Y-45185542D01*
X53821414Y-45207822D01*
X53857951Y-45237809D01*
X53887938Y-45274346D01*
X53910218Y-45316030D01*
X53923938Y-45361259D01*
X53929200Y-45414685D01*
X53929200Y-46368435D01*
X53923938Y-46421861D01*
X53910218Y-46467090D01*
X53887938Y-46508774D01*
X53857951Y-46545311D01*
X53821414Y-46575298D01*
X53779730Y-46597578D01*
X53734501Y-46611298D01*
X53681075Y-46616560D01*
X52477325Y-46616560D01*
X52423899Y-46611298D01*
X52378670Y-46597578D01*
X52336986Y-46575298D01*
X52300449Y-46545311D01*
X52270462Y-46508774D01*
X52248182Y-46467090D01*
X52234462Y-46421861D01*
X52229200Y-46368435D01*
X52229200Y-45414685D01*
X52234462Y-45361259D01*
X52248182Y-45316030D01*
X52270462Y-45274346D01*
X52300449Y-45237809D01*
X52336986Y-45207822D01*
X52378670Y-45185542D01*
X52423899Y-45171822D01*
X52477325Y-45166560D01*
X53681075Y-45166560D01*
X53734501Y-45171822D01*
X53734501Y-45171822D01*
G37*
G36*
X77040800Y-46500960D02*
G01*
X75040800Y-46500960D01*
X75040800Y-44500960D01*
X77040800Y-44500960D01*
X77040800Y-46500960D01*
X77040800Y-46500960D01*
G37*
G36*
X40549836Y-43550830D02*
G01*
X40738332Y-43608009D01*
X40912058Y-43700868D01*
X41064328Y-43825832D01*
X41189292Y-43978102D01*
X41282151Y-44151828D01*
X41339330Y-44340324D01*
X41358638Y-44536360D01*
X41339330Y-44732396D01*
X41282151Y-44920892D01*
X41189292Y-45094618D01*
X41064328Y-45246888D01*
X40912058Y-45371852D01*
X40738332Y-45464711D01*
X40549836Y-45521890D01*
X40402920Y-45536360D01*
X40304680Y-45536360D01*
X40157764Y-45521890D01*
X39969268Y-45464711D01*
X39795542Y-45371852D01*
X39643272Y-45246888D01*
X39518308Y-45094618D01*
X39425449Y-44920892D01*
X39368270Y-44732396D01*
X39348962Y-44536360D01*
X39368270Y-44340324D01*
X39425449Y-44151828D01*
X39518308Y-43978102D01*
X39643272Y-43825832D01*
X39795542Y-43700868D01*
X39969268Y-43608009D01*
X40157764Y-43550830D01*
X40304680Y-43536360D01*
X40402920Y-43536360D01*
X40549836Y-43550830D01*
X40549836Y-43550830D01*
G37*
G36*
X38009836Y-43550830D02*
G01*
X38198332Y-43608009D01*
X38372058Y-43700868D01*
X38524328Y-43825832D01*
X38649292Y-43978102D01*
X38742151Y-44151828D01*
X38799330Y-44340324D01*
X38818638Y-44536360D01*
X38799330Y-44732396D01*
X38742151Y-44920892D01*
X38649292Y-45094618D01*
X38524328Y-45246888D01*
X38372058Y-45371852D01*
X38198332Y-45464711D01*
X38009836Y-45521890D01*
X37862920Y-45536360D01*
X37764680Y-45536360D01*
X37617764Y-45521890D01*
X37429268Y-45464711D01*
X37255542Y-45371852D01*
X37103272Y-45246888D01*
X36978308Y-45094618D01*
X36885449Y-44920892D01*
X36828270Y-44732396D01*
X36808962Y-44536360D01*
X36828270Y-44340324D01*
X36885449Y-44151828D01*
X36978308Y-43978102D01*
X37103272Y-43825832D01*
X37255542Y-43700868D01*
X37429268Y-43608009D01*
X37617764Y-43550830D01*
X37764680Y-43536360D01*
X37862920Y-43536360D01*
X38009836Y-43550830D01*
X38009836Y-43550830D01*
G37*
G36*
X70041301Y-43706022D02*
G01*
X70086530Y-43719742D01*
X70128214Y-43742022D01*
X70164751Y-43772009D01*
X70194738Y-43808546D01*
X70217018Y-43850230D01*
X70230738Y-43895459D01*
X70236000Y-43948885D01*
X70236000Y-44902635D01*
X70230738Y-44956061D01*
X70217018Y-45001290D01*
X70194738Y-45042974D01*
X70164751Y-45079511D01*
X70128214Y-45109498D01*
X70086530Y-45131778D01*
X70041301Y-45145498D01*
X69987875Y-45150760D01*
X68784125Y-45150760D01*
X68730699Y-45145498D01*
X68685470Y-45131778D01*
X68643786Y-45109498D01*
X68607249Y-45079511D01*
X68577262Y-45042974D01*
X68554982Y-45001290D01*
X68541262Y-44956061D01*
X68536000Y-44902635D01*
X68536000Y-43948885D01*
X68541262Y-43895459D01*
X68554982Y-43850230D01*
X68577262Y-43808546D01*
X68607249Y-43772009D01*
X68643786Y-43742022D01*
X68685470Y-43719742D01*
X68730699Y-43706022D01*
X68784125Y-43700760D01*
X69987875Y-43700760D01*
X70041301Y-43706022D01*
X70041301Y-43706022D01*
G37*
G36*
X64466001Y-43406522D02*
G01*
X64511230Y-43420242D01*
X64552914Y-43442522D01*
X64589451Y-43472509D01*
X64619438Y-43509046D01*
X64641718Y-43550730D01*
X64655438Y-43595959D01*
X64660700Y-43649385D01*
X64660700Y-44603135D01*
X64655438Y-44656561D01*
X64641718Y-44701790D01*
X64619438Y-44743474D01*
X64589451Y-44780011D01*
X64552914Y-44809998D01*
X64511230Y-44832278D01*
X64466001Y-44845998D01*
X64412575Y-44851260D01*
X63208825Y-44851260D01*
X63155399Y-44845998D01*
X63110170Y-44832278D01*
X63068486Y-44809998D01*
X63031949Y-44780011D01*
X63001962Y-44743474D01*
X62979682Y-44701790D01*
X62965962Y-44656561D01*
X62960700Y-44603135D01*
X62960700Y-43649385D01*
X62965962Y-43595959D01*
X62979682Y-43550730D01*
X63001962Y-43509046D01*
X63031949Y-43472509D01*
X63068486Y-43442522D01*
X63110170Y-43420242D01*
X63155399Y-43406522D01*
X63208825Y-43401260D01*
X64412575Y-43401260D01*
X64466001Y-43406522D01*
X64466001Y-43406522D01*
G37*
G36*
X51397701Y-43131982D02*
G01*
X51442930Y-43145702D01*
X51484614Y-43167982D01*
X51521151Y-43197969D01*
X51551138Y-43234506D01*
X51573418Y-43276190D01*
X51587138Y-43321419D01*
X51592400Y-43374845D01*
X51592400Y-44328595D01*
X51587138Y-44382021D01*
X51573418Y-44427250D01*
X51551138Y-44468934D01*
X51521151Y-44505471D01*
X51484614Y-44535458D01*
X51442930Y-44557738D01*
X51397701Y-44571458D01*
X51344275Y-44576720D01*
X50140525Y-44576720D01*
X50087099Y-44571458D01*
X50041870Y-44557738D01*
X50000186Y-44535458D01*
X49963649Y-44505471D01*
X49933662Y-44468934D01*
X49911382Y-44427250D01*
X49897662Y-44382021D01*
X49892400Y-44328595D01*
X49892400Y-43374845D01*
X49897662Y-43321419D01*
X49911382Y-43276190D01*
X49933662Y-43234506D01*
X49963649Y-43197969D01*
X50000186Y-43167982D01*
X50041870Y-43145702D01*
X50087099Y-43131982D01*
X50140525Y-43126720D01*
X51344275Y-43126720D01*
X51397701Y-43131982D01*
X51397701Y-43131982D01*
G37*
G36*
X53734501Y-43121822D02*
G01*
X53779730Y-43135542D01*
X53821414Y-43157822D01*
X53857951Y-43187809D01*
X53887938Y-43224346D01*
X53910218Y-43266030D01*
X53923938Y-43311259D01*
X53929200Y-43364685D01*
X53929200Y-44318435D01*
X53923938Y-44371861D01*
X53910218Y-44417090D01*
X53887938Y-44458774D01*
X53857951Y-44495311D01*
X53821414Y-44525298D01*
X53779730Y-44547578D01*
X53734501Y-44561298D01*
X53681075Y-44566560D01*
X52477325Y-44566560D01*
X52423899Y-44561298D01*
X52378670Y-44547578D01*
X52336986Y-44525298D01*
X52300449Y-44495311D01*
X52270462Y-44458774D01*
X52248182Y-44417090D01*
X52234462Y-44371861D01*
X52229200Y-44318435D01*
X52229200Y-43364685D01*
X52234462Y-43311259D01*
X52248182Y-43266030D01*
X52270462Y-43224346D01*
X52300449Y-43187809D01*
X52336986Y-43157822D01*
X52378670Y-43135542D01*
X52423899Y-43121822D01*
X52477325Y-43116560D01*
X53681075Y-43116560D01*
X53734501Y-43121822D01*
X53734501Y-43121822D01*
G37*
G36*
X66813436Y-42204630D02*
G01*
X67001932Y-42261809D01*
X67175658Y-42354668D01*
X67327928Y-42479632D01*
X67452892Y-42631902D01*
X67545751Y-42805628D01*
X67602930Y-42994124D01*
X67622238Y-43190160D01*
X67602930Y-43386196D01*
X67545751Y-43574692D01*
X67452892Y-43748418D01*
X67327928Y-43900688D01*
X67175658Y-44025652D01*
X67001932Y-44118511D01*
X66813436Y-44175690D01*
X66666520Y-44190160D01*
X66568280Y-44190160D01*
X66421364Y-44175690D01*
X66232868Y-44118511D01*
X66059142Y-44025652D01*
X65906872Y-43900688D01*
X65781908Y-43748418D01*
X65689049Y-43574692D01*
X65631870Y-43386196D01*
X65612562Y-43190160D01*
X65631870Y-42994124D01*
X65689049Y-42805628D01*
X65781908Y-42631902D01*
X65906872Y-42479632D01*
X66059142Y-42354668D01*
X66232868Y-42261809D01*
X66421364Y-42204630D01*
X66568280Y-42190160D01*
X66666520Y-42190160D01*
X66813436Y-42204630D01*
X66813436Y-42204630D01*
G37*
G36*
X57429592Y-42947051D02*
G01*
X57459487Y-42956120D01*
X57487042Y-42970848D01*
X57511192Y-42990668D01*
X57531012Y-43014818D01*
X57545740Y-43042373D01*
X57554809Y-43072268D01*
X57558500Y-43109746D01*
X57558500Y-43676974D01*
X57554809Y-43714452D01*
X57545740Y-43744347D01*
X57531012Y-43771902D01*
X57511192Y-43796052D01*
X57487042Y-43815872D01*
X57459487Y-43830600D01*
X57429592Y-43839669D01*
X57392114Y-43843360D01*
X55474886Y-43843360D01*
X55437408Y-43839669D01*
X55407513Y-43830600D01*
X55379958Y-43815872D01*
X55355808Y-43796052D01*
X55335988Y-43771902D01*
X55321260Y-43744347D01*
X55312191Y-43714452D01*
X55308500Y-43676974D01*
X55308500Y-43109746D01*
X55312191Y-43072268D01*
X55321260Y-43042373D01*
X55335988Y-43014818D01*
X55355808Y-42990668D01*
X55379958Y-42970848D01*
X55407513Y-42956120D01*
X55437408Y-42947051D01*
X55474886Y-42943360D01*
X57392114Y-42943360D01*
X57429592Y-42947051D01*
X57429592Y-42947051D01*
G37*
G36*
X62379592Y-42947051D02*
G01*
X62409487Y-42956120D01*
X62437042Y-42970848D01*
X62461192Y-42990668D01*
X62481012Y-43014818D01*
X62495740Y-43042373D01*
X62504809Y-43072268D01*
X62508500Y-43109746D01*
X62508500Y-43676974D01*
X62504809Y-43714452D01*
X62495740Y-43744347D01*
X62481012Y-43771902D01*
X62461192Y-43796052D01*
X62437042Y-43815872D01*
X62409487Y-43830600D01*
X62379592Y-43839669D01*
X62342114Y-43843360D01*
X60424886Y-43843360D01*
X60387408Y-43839669D01*
X60357513Y-43830600D01*
X60329958Y-43815872D01*
X60305808Y-43796052D01*
X60285988Y-43771902D01*
X60271260Y-43744347D01*
X60262191Y-43714452D01*
X60258500Y-43676974D01*
X60258500Y-43109746D01*
X60262191Y-43072268D01*
X60271260Y-43042373D01*
X60285988Y-43014818D01*
X60305808Y-42990668D01*
X60329958Y-42970848D01*
X60357513Y-42956120D01*
X60387408Y-42947051D01*
X60424886Y-42943360D01*
X62342114Y-42943360D01*
X62379592Y-42947051D01*
X62379592Y-42947051D01*
G37*
G36*
X70041301Y-41717422D02*
G01*
X70086530Y-41731142D01*
X70128214Y-41753422D01*
X70164751Y-41783409D01*
X70194738Y-41819946D01*
X70217018Y-41861630D01*
X70230738Y-41906859D01*
X70236000Y-41960285D01*
X70236000Y-42914035D01*
X70230738Y-42967461D01*
X70217018Y-43012690D01*
X70194738Y-43054374D01*
X70164751Y-43090911D01*
X70128214Y-43120898D01*
X70086530Y-43143178D01*
X70041301Y-43156898D01*
X69987875Y-43162160D01*
X68784125Y-43162160D01*
X68730699Y-43156898D01*
X68685470Y-43143178D01*
X68643786Y-43120898D01*
X68607249Y-43090911D01*
X68577262Y-43054374D01*
X68554982Y-43012690D01*
X68541262Y-42967461D01*
X68536000Y-42914035D01*
X68536000Y-41960285D01*
X68541262Y-41906859D01*
X68554982Y-41861630D01*
X68577262Y-41819946D01*
X68607249Y-41783409D01*
X68643786Y-41753422D01*
X68685470Y-41731142D01*
X68730699Y-41717422D01*
X68784125Y-41712160D01*
X69987875Y-41712160D01*
X70041301Y-41717422D01*
X70041301Y-41717422D01*
G37*
G36*
X38009836Y-41010830D02*
G01*
X38198332Y-41068009D01*
X38372058Y-41160868D01*
X38524328Y-41285832D01*
X38649292Y-41438102D01*
X38742151Y-41611828D01*
X38799330Y-41800324D01*
X38818638Y-41996360D01*
X38799330Y-42192396D01*
X38742151Y-42380892D01*
X38649292Y-42554618D01*
X38524328Y-42706888D01*
X38372058Y-42831852D01*
X38198332Y-42924711D01*
X38009836Y-42981890D01*
X37862920Y-42996360D01*
X37764680Y-42996360D01*
X37617764Y-42981890D01*
X37429268Y-42924711D01*
X37255542Y-42831852D01*
X37103272Y-42706888D01*
X36978308Y-42554618D01*
X36885449Y-42380892D01*
X36828270Y-42192396D01*
X36808962Y-41996360D01*
X36828270Y-41800324D01*
X36885449Y-41611828D01*
X36978308Y-41438102D01*
X37103272Y-41285832D01*
X37255542Y-41160868D01*
X37429268Y-41068009D01*
X37617764Y-41010830D01*
X37764680Y-40996360D01*
X37862920Y-40996360D01*
X38009836Y-41010830D01*
X38009836Y-41010830D01*
G37*
G36*
X40549836Y-41010830D02*
G01*
X40738332Y-41068009D01*
X40912058Y-41160868D01*
X41064328Y-41285832D01*
X41189292Y-41438102D01*
X41282151Y-41611828D01*
X41339330Y-41800324D01*
X41358638Y-41996360D01*
X41339330Y-42192396D01*
X41282151Y-42380892D01*
X41189292Y-42554618D01*
X41064328Y-42706888D01*
X40912058Y-42831852D01*
X40738332Y-42924711D01*
X40549836Y-42981890D01*
X40402920Y-42996360D01*
X40304680Y-42996360D01*
X40157764Y-42981890D01*
X39969268Y-42924711D01*
X39795542Y-42831852D01*
X39643272Y-42706888D01*
X39518308Y-42554618D01*
X39425449Y-42380892D01*
X39368270Y-42192396D01*
X39348962Y-41996360D01*
X39368270Y-41800324D01*
X39425449Y-41611828D01*
X39518308Y-41438102D01*
X39643272Y-41285832D01*
X39795542Y-41160868D01*
X39969268Y-41068009D01*
X40157764Y-41010830D01*
X40304680Y-40996360D01*
X40402920Y-40996360D01*
X40549836Y-41010830D01*
X40549836Y-41010830D01*
G37*
G36*
X72512420Y-35508918D02*
G01*
X72616093Y-35540367D01*
X72663868Y-35565904D01*
X72711642Y-35591439D01*
X72711644Y-35591440D01*
X72711643Y-35591440D01*
X72795390Y-35660170D01*
X72864120Y-35743917D01*
X72915193Y-35839467D01*
X72946642Y-35943140D01*
X72957261Y-36050960D01*
X72946642Y-36158780D01*
X72915193Y-36262453D01*
X72915192Y-36262454D01*
X72864121Y-36358002D01*
X72795390Y-36441750D01*
X72711642Y-36510481D01*
X72671704Y-36531828D01*
X72616545Y-36561311D01*
X72595356Y-36575469D01*
X72577335Y-36593489D01*
X72563177Y-36614679D01*
X72553425Y-36638223D01*
X72548453Y-36663218D01*
X72548453Y-36688702D01*
X72553425Y-36713697D01*
X72563177Y-36737241D01*
X72577335Y-36758430D01*
X72595355Y-36776451D01*
X72616545Y-36790609D01*
X72711642Y-36841439D01*
X72795390Y-36910170D01*
X72864121Y-36993918D01*
X72879537Y-37022760D01*
X72915193Y-37089467D01*
X72946642Y-37193140D01*
X72957261Y-37300960D01*
X72946642Y-37408780D01*
X72915193Y-37512453D01*
X72905991Y-37529668D01*
X72864121Y-37608002D01*
X72795390Y-37691750D01*
X72711642Y-37760481D01*
X72627771Y-37805311D01*
X72616545Y-37811311D01*
X72595356Y-37825469D01*
X72577335Y-37843489D01*
X72563177Y-37864679D01*
X72553425Y-37888223D01*
X72548453Y-37913218D01*
X72548453Y-37938702D01*
X72553425Y-37963697D01*
X72563177Y-37987241D01*
X72577335Y-38008430D01*
X72595355Y-38026451D01*
X72616545Y-38040609D01*
X72711642Y-38091439D01*
X72795390Y-38160170D01*
X72864121Y-38243918D01*
X72874254Y-38262876D01*
X72915193Y-38339467D01*
X72946642Y-38443140D01*
X72957261Y-38550960D01*
X72946642Y-38658780D01*
X72915193Y-38762453D01*
X72895301Y-38799668D01*
X72864121Y-38858002D01*
X72795390Y-38941750D01*
X72711642Y-39010481D01*
X72640015Y-39048766D01*
X72616545Y-39061311D01*
X72595356Y-39075469D01*
X72577335Y-39093489D01*
X72563177Y-39114679D01*
X72553425Y-39138223D01*
X72548453Y-39163218D01*
X72548453Y-39188702D01*
X72553425Y-39213697D01*
X72563177Y-39237241D01*
X72577335Y-39258430D01*
X72595355Y-39276451D01*
X72616545Y-39290609D01*
X72711642Y-39341439D01*
X72795390Y-39410170D01*
X72833298Y-39456360D01*
X72864120Y-39493917D01*
X72915193Y-39589467D01*
X72946642Y-39693140D01*
X72957261Y-39800960D01*
X72946642Y-39908780D01*
X72915193Y-40012453D01*
X72904018Y-40033360D01*
X72864121Y-40108002D01*
X72795390Y-40191750D01*
X72711642Y-40260481D01*
X72652950Y-40291852D01*
X72616545Y-40311311D01*
X72595356Y-40325469D01*
X72577335Y-40343489D01*
X72563177Y-40364679D01*
X72553425Y-40388223D01*
X72548453Y-40413218D01*
X72548453Y-40438702D01*
X72553425Y-40463697D01*
X72563177Y-40487241D01*
X72577335Y-40508430D01*
X72595355Y-40526451D01*
X72616545Y-40540609D01*
X72711642Y-40591439D01*
X72795390Y-40660170D01*
X72861936Y-40741255D01*
X72864120Y-40743917D01*
X72915193Y-40839467D01*
X72946642Y-40943140D01*
X72957261Y-41050960D01*
X72946642Y-41158780D01*
X72915193Y-41262453D01*
X72892387Y-41305120D01*
X72864121Y-41358002D01*
X72795390Y-41441750D01*
X72711642Y-41510481D01*
X72711640Y-41510482D01*
X72709733Y-41512047D01*
X72692632Y-41523474D01*
X72674611Y-41541495D01*
X72660453Y-41562684D01*
X72650701Y-41586228D01*
X72645729Y-41611223D01*
X72645729Y-41636707D01*
X72650701Y-41661702D01*
X72660453Y-41685246D01*
X72674611Y-41706435D01*
X72692632Y-41724456D01*
X72713821Y-41738614D01*
X72737365Y-41748366D01*
X72762359Y-41753338D01*
X72785448Y-41755612D01*
X72824722Y-41767526D01*
X72860921Y-41786875D01*
X72892648Y-41812912D01*
X72918685Y-41844639D01*
X72938034Y-41880838D01*
X72949948Y-41920113D01*
X72954600Y-41967346D01*
X72954600Y-42634574D01*
X72949948Y-42681807D01*
X72938034Y-42721082D01*
X72918685Y-42757281D01*
X72892648Y-42789008D01*
X72860921Y-42815045D01*
X72824722Y-42834394D01*
X72785447Y-42846308D01*
X72738214Y-42850960D01*
X71570986Y-42850960D01*
X71523753Y-42846308D01*
X71484478Y-42834394D01*
X71448279Y-42815045D01*
X71416552Y-42789008D01*
X71390515Y-42757281D01*
X71371166Y-42721082D01*
X71359252Y-42681807D01*
X71354600Y-42634574D01*
X71354600Y-41967346D01*
X71359252Y-41920113D01*
X71371166Y-41880838D01*
X71390515Y-41844639D01*
X71416552Y-41812912D01*
X71448279Y-41786875D01*
X71484478Y-41767526D01*
X71523752Y-41755612D01*
X71546841Y-41753338D01*
X71571835Y-41748366D01*
X71595380Y-41738614D01*
X71616569Y-41724455D01*
X71634589Y-41706435D01*
X71648747Y-41685246D01*
X71658499Y-41661701D01*
X71663471Y-41636707D01*
X71663471Y-41611222D01*
X71658499Y-41586228D01*
X71648747Y-41562683D01*
X71634588Y-41541494D01*
X71616568Y-41523474D01*
X71599467Y-41512047D01*
X71597560Y-41510482D01*
X71597558Y-41510481D01*
X71513810Y-41441750D01*
X71445079Y-41358002D01*
X71416813Y-41305120D01*
X71394007Y-41262453D01*
X71362558Y-41158780D01*
X71351939Y-41050960D01*
X71362558Y-40943140D01*
X71394007Y-40839467D01*
X71445080Y-40743917D01*
X71447265Y-40741255D01*
X71513810Y-40660170D01*
X71597558Y-40591439D01*
X71692655Y-40540609D01*
X71713844Y-40526451D01*
X71731865Y-40508431D01*
X71746023Y-40487241D01*
X71755775Y-40463697D01*
X71760747Y-40438702D01*
X71760747Y-40413218D01*
X71755775Y-40388223D01*
X71746023Y-40364679D01*
X71731865Y-40343490D01*
X71713845Y-40325469D01*
X71692655Y-40311311D01*
X71656250Y-40291852D01*
X71597558Y-40260481D01*
X71513810Y-40191750D01*
X71445079Y-40108002D01*
X71405182Y-40033360D01*
X71394007Y-40012453D01*
X71362558Y-39908780D01*
X71351939Y-39800960D01*
X71362558Y-39693140D01*
X71394007Y-39589467D01*
X71445080Y-39493917D01*
X71475903Y-39456360D01*
X71513810Y-39410170D01*
X71597558Y-39341439D01*
X71692655Y-39290609D01*
X71713844Y-39276451D01*
X71731865Y-39258431D01*
X71746023Y-39237241D01*
X71755775Y-39213697D01*
X71760747Y-39188702D01*
X71760747Y-39163218D01*
X71755775Y-39138223D01*
X71746023Y-39114679D01*
X71731865Y-39093490D01*
X71713845Y-39075469D01*
X71692655Y-39061311D01*
X71669185Y-39048766D01*
X71597558Y-39010481D01*
X71513810Y-38941750D01*
X71445079Y-38858002D01*
X71413899Y-38799668D01*
X71394007Y-38762453D01*
X71362558Y-38658780D01*
X71351939Y-38550960D01*
X71362558Y-38443140D01*
X71394007Y-38339467D01*
X71434946Y-38262876D01*
X71445079Y-38243918D01*
X71513810Y-38160170D01*
X71597558Y-38091439D01*
X71692655Y-38040609D01*
X71713844Y-38026451D01*
X71731865Y-38008431D01*
X71746023Y-37987241D01*
X71755775Y-37963697D01*
X71760747Y-37938702D01*
X71760747Y-37913218D01*
X71755775Y-37888223D01*
X71746023Y-37864679D01*
X71731865Y-37843490D01*
X71713845Y-37825469D01*
X71692655Y-37811311D01*
X71681429Y-37805311D01*
X71597558Y-37760481D01*
X71513810Y-37691750D01*
X71445079Y-37608002D01*
X71403209Y-37529668D01*
X71394007Y-37512453D01*
X71362558Y-37408780D01*
X71351939Y-37300960D01*
X71362558Y-37193140D01*
X71394007Y-37089467D01*
X71429663Y-37022760D01*
X71445079Y-36993918D01*
X71513810Y-36910170D01*
X71597558Y-36841439D01*
X71692655Y-36790609D01*
X71713844Y-36776451D01*
X71731865Y-36758431D01*
X71746023Y-36737241D01*
X71755775Y-36713697D01*
X71760747Y-36688702D01*
X71760747Y-36663218D01*
X71755775Y-36638223D01*
X71746023Y-36614679D01*
X71731865Y-36593490D01*
X71713845Y-36575469D01*
X71692655Y-36561311D01*
X71637496Y-36531828D01*
X71597558Y-36510481D01*
X71513810Y-36441750D01*
X71445079Y-36358002D01*
X71394008Y-36262454D01*
X71394007Y-36262453D01*
X71362558Y-36158780D01*
X71351939Y-36050960D01*
X71362558Y-35943140D01*
X71394007Y-35839467D01*
X71445080Y-35743917D01*
X71513810Y-35660170D01*
X71597557Y-35591440D01*
X71597556Y-35591440D01*
X71597558Y-35591439D01*
X71645332Y-35565903D01*
X71693107Y-35540367D01*
X71796780Y-35508918D01*
X71877582Y-35500960D01*
X72431618Y-35500960D01*
X72512420Y-35508918D01*
X72512420Y-35508918D01*
G37*
G36*
X64466001Y-41356522D02*
G01*
X64511230Y-41370242D01*
X64552914Y-41392522D01*
X64589451Y-41422509D01*
X64619438Y-41459046D01*
X64641718Y-41500730D01*
X64655438Y-41545959D01*
X64660700Y-41599385D01*
X64660700Y-42553135D01*
X64655438Y-42606561D01*
X64641718Y-42651790D01*
X64619438Y-42693474D01*
X64589451Y-42730011D01*
X64552914Y-42759998D01*
X64511230Y-42782278D01*
X64466001Y-42795998D01*
X64412575Y-42801260D01*
X63208825Y-42801260D01*
X63155399Y-42795998D01*
X63110170Y-42782278D01*
X63068486Y-42759998D01*
X63031949Y-42730011D01*
X63001962Y-42693474D01*
X62979682Y-42651790D01*
X62965962Y-42606561D01*
X62960700Y-42553135D01*
X62960700Y-41599385D01*
X62965962Y-41545959D01*
X62979682Y-41500730D01*
X63001962Y-41459046D01*
X63031949Y-41422509D01*
X63068486Y-41392522D01*
X63110170Y-41370242D01*
X63155399Y-41356522D01*
X63208825Y-41351260D01*
X64412575Y-41351260D01*
X64466001Y-41356522D01*
X64466001Y-41356522D01*
G37*
G36*
X82030200Y-42765960D02*
G01*
X78230200Y-42765960D01*
X78230200Y-40715960D01*
X82030200Y-40715960D01*
X82030200Y-42765960D01*
X82030200Y-42765960D01*
G37*
G36*
X62379592Y-41677051D02*
G01*
X62409487Y-41686120D01*
X62437042Y-41700848D01*
X62461192Y-41720668D01*
X62481012Y-41744818D01*
X62495740Y-41772373D01*
X62504809Y-41802268D01*
X62508500Y-41839746D01*
X62508500Y-42406974D01*
X62504809Y-42444452D01*
X62495740Y-42474347D01*
X62481012Y-42501902D01*
X62461192Y-42526052D01*
X62437042Y-42545872D01*
X62409487Y-42560600D01*
X62379592Y-42569669D01*
X62342114Y-42573360D01*
X60424886Y-42573360D01*
X60387408Y-42569669D01*
X60357513Y-42560600D01*
X60329958Y-42545872D01*
X60305808Y-42526052D01*
X60285988Y-42501902D01*
X60271260Y-42474347D01*
X60262191Y-42444452D01*
X60258500Y-42406974D01*
X60258500Y-41839746D01*
X60262191Y-41802268D01*
X60271260Y-41772373D01*
X60285988Y-41744818D01*
X60305808Y-41720668D01*
X60329958Y-41700848D01*
X60357513Y-41686120D01*
X60387408Y-41677051D01*
X60424886Y-41673360D01*
X62342114Y-41673360D01*
X62379592Y-41677051D01*
X62379592Y-41677051D01*
G37*
G36*
X57429592Y-41677051D02*
G01*
X57459487Y-41686120D01*
X57487042Y-41700848D01*
X57511192Y-41720668D01*
X57531012Y-41744818D01*
X57545740Y-41772373D01*
X57554809Y-41802268D01*
X57558500Y-41839746D01*
X57558500Y-42406974D01*
X57554809Y-42444452D01*
X57545740Y-42474347D01*
X57531012Y-42501902D01*
X57511192Y-42526052D01*
X57487042Y-42545872D01*
X57459487Y-42560600D01*
X57429592Y-42569669D01*
X57392114Y-42573360D01*
X55474886Y-42573360D01*
X55437408Y-42569669D01*
X55407513Y-42560600D01*
X55379958Y-42545872D01*
X55355808Y-42526052D01*
X55335988Y-42501902D01*
X55321260Y-42474347D01*
X55312191Y-42444452D01*
X55308500Y-42406974D01*
X55308500Y-41839746D01*
X55312191Y-41802268D01*
X55321260Y-41772373D01*
X55335988Y-41744818D01*
X55355808Y-41720668D01*
X55379958Y-41700848D01*
X55407513Y-41686120D01*
X55437408Y-41677051D01*
X55474886Y-41673360D01*
X57392114Y-41673360D01*
X57429592Y-41677051D01*
X57429592Y-41677051D01*
G37*
G36*
X50505092Y-41296051D02*
G01*
X50534987Y-41305120D01*
X50562542Y-41319848D01*
X50586692Y-41339668D01*
X50606512Y-41363818D01*
X50621240Y-41391373D01*
X50630309Y-41421268D01*
X50634000Y-41458746D01*
X50634000Y-42025974D01*
X50630309Y-42063452D01*
X50621240Y-42093347D01*
X50606512Y-42120902D01*
X50586692Y-42145052D01*
X50562542Y-42164872D01*
X50534987Y-42179600D01*
X50505092Y-42188669D01*
X50467614Y-42192360D01*
X48550386Y-42192360D01*
X48512908Y-42188669D01*
X48483013Y-42179600D01*
X48455458Y-42164872D01*
X48431308Y-42145052D01*
X48411488Y-42120902D01*
X48396760Y-42093347D01*
X48387691Y-42063452D01*
X48384000Y-42025974D01*
X48384000Y-41458746D01*
X48387691Y-41421268D01*
X48396760Y-41391373D01*
X48411488Y-41363818D01*
X48431308Y-41339668D01*
X48455458Y-41319848D01*
X48483013Y-41305120D01*
X48512908Y-41296051D01*
X48550386Y-41292360D01*
X50467614Y-41292360D01*
X50505092Y-41296051D01*
X50505092Y-41296051D01*
G37*
G36*
X45555092Y-41296051D02*
G01*
X45584987Y-41305120D01*
X45612542Y-41319848D01*
X45636692Y-41339668D01*
X45656512Y-41363818D01*
X45671240Y-41391373D01*
X45680309Y-41421268D01*
X45684000Y-41458746D01*
X45684000Y-42025974D01*
X45680309Y-42063452D01*
X45671240Y-42093347D01*
X45656512Y-42120902D01*
X45636692Y-42145052D01*
X45612542Y-42164872D01*
X45584987Y-42179600D01*
X45555092Y-42188669D01*
X45517614Y-42192360D01*
X43600386Y-42192360D01*
X43562908Y-42188669D01*
X43533013Y-42179600D01*
X43505458Y-42164872D01*
X43481308Y-42145052D01*
X43461488Y-42120902D01*
X43446760Y-42093347D01*
X43437691Y-42063452D01*
X43434000Y-42025974D01*
X43434000Y-41458746D01*
X43437691Y-41421268D01*
X43446760Y-41391373D01*
X43461488Y-41363818D01*
X43481308Y-41339668D01*
X43505458Y-41319848D01*
X43533013Y-41305120D01*
X43562908Y-41296051D01*
X43600386Y-41292360D01*
X45517614Y-41292360D01*
X45555092Y-41296051D01*
X45555092Y-41296051D01*
G37*
G36*
X66813436Y-39664630D02*
G01*
X67001932Y-39721809D01*
X67175658Y-39814668D01*
X67327928Y-39939632D01*
X67452892Y-40091902D01*
X67545751Y-40265628D01*
X67602930Y-40454124D01*
X67622238Y-40650160D01*
X67602930Y-40846196D01*
X67545751Y-41034692D01*
X67452892Y-41208418D01*
X67327928Y-41360688D01*
X67175658Y-41485652D01*
X67001932Y-41578511D01*
X66813436Y-41635690D01*
X66666520Y-41650160D01*
X66568280Y-41650160D01*
X66421364Y-41635690D01*
X66232868Y-41578511D01*
X66059142Y-41485652D01*
X65906872Y-41360688D01*
X65781908Y-41208418D01*
X65689049Y-41034692D01*
X65631870Y-40846196D01*
X65612562Y-40650160D01*
X65631870Y-40454124D01*
X65689049Y-40265628D01*
X65781908Y-40091902D01*
X65906872Y-39939632D01*
X66059142Y-39814668D01*
X66232868Y-39721809D01*
X66421364Y-39664630D01*
X66568280Y-39650160D01*
X66666520Y-39650160D01*
X66813436Y-39664630D01*
X66813436Y-39664630D01*
G37*
G36*
X54623501Y-40002922D02*
G01*
X54668730Y-40016642D01*
X54710414Y-40038922D01*
X54746951Y-40068909D01*
X54776938Y-40105446D01*
X54799218Y-40147130D01*
X54812938Y-40192359D01*
X54818200Y-40245785D01*
X54818200Y-41199535D01*
X54812938Y-41252961D01*
X54799218Y-41298190D01*
X54776938Y-41339874D01*
X54746951Y-41376411D01*
X54710414Y-41406398D01*
X54668730Y-41428678D01*
X54623501Y-41442398D01*
X54570075Y-41447660D01*
X53366325Y-41447660D01*
X53312899Y-41442398D01*
X53267670Y-41428678D01*
X53225986Y-41406398D01*
X53189449Y-41376411D01*
X53159462Y-41339874D01*
X53137182Y-41298190D01*
X53123462Y-41252961D01*
X53118200Y-41199535D01*
X53118200Y-40245785D01*
X53123462Y-40192359D01*
X53137182Y-40147130D01*
X53159462Y-40105446D01*
X53189449Y-40068909D01*
X53225986Y-40038922D01*
X53267670Y-40016642D01*
X53312899Y-40002922D01*
X53366325Y-39997660D01*
X54570075Y-39997660D01*
X54623501Y-40002922D01*
X54623501Y-40002922D01*
G37*
G36*
X62379592Y-40407051D02*
G01*
X62409487Y-40416120D01*
X62437042Y-40430848D01*
X62461192Y-40450668D01*
X62481012Y-40474818D01*
X62495740Y-40502373D01*
X62504809Y-40532268D01*
X62508500Y-40569746D01*
X62508500Y-41136974D01*
X62504809Y-41174452D01*
X62495740Y-41204347D01*
X62481012Y-41231902D01*
X62461192Y-41256052D01*
X62437042Y-41275872D01*
X62409487Y-41290600D01*
X62379592Y-41299669D01*
X62342114Y-41303360D01*
X60424886Y-41303360D01*
X60387408Y-41299669D01*
X60357513Y-41290600D01*
X60329958Y-41275872D01*
X60305808Y-41256052D01*
X60285988Y-41231902D01*
X60271260Y-41204347D01*
X60262191Y-41174452D01*
X60258500Y-41136974D01*
X60258500Y-40569746D01*
X60262191Y-40532268D01*
X60271260Y-40502373D01*
X60285988Y-40474818D01*
X60305808Y-40450668D01*
X60329958Y-40430848D01*
X60357513Y-40416120D01*
X60387408Y-40407051D01*
X60424886Y-40403360D01*
X62342114Y-40403360D01*
X62379592Y-40407051D01*
X62379592Y-40407051D01*
G37*
G36*
X57429592Y-40407051D02*
G01*
X57459487Y-40416120D01*
X57487042Y-40430848D01*
X57511192Y-40450668D01*
X57531012Y-40474818D01*
X57545740Y-40502373D01*
X57554809Y-40532268D01*
X57558500Y-40569746D01*
X57558500Y-41136974D01*
X57554809Y-41174452D01*
X57545740Y-41204347D01*
X57531012Y-41231902D01*
X57511192Y-41256052D01*
X57487042Y-41275872D01*
X57459487Y-41290600D01*
X57429592Y-41299669D01*
X57392114Y-41303360D01*
X55474886Y-41303360D01*
X55437408Y-41299669D01*
X55407513Y-41290600D01*
X55379958Y-41275872D01*
X55355808Y-41256052D01*
X55335988Y-41231902D01*
X55321260Y-41204347D01*
X55312191Y-41174452D01*
X55308500Y-41136974D01*
X55308500Y-40569746D01*
X55312191Y-40532268D01*
X55321260Y-40502373D01*
X55335988Y-40474818D01*
X55355808Y-40450668D01*
X55379958Y-40430848D01*
X55407513Y-40416120D01*
X55437408Y-40407051D01*
X55474886Y-40403360D01*
X57392114Y-40403360D01*
X57429592Y-40407051D01*
X57429592Y-40407051D01*
G37*
G36*
X70041301Y-39667422D02*
G01*
X70086530Y-39681142D01*
X70128214Y-39703422D01*
X70164751Y-39733409D01*
X70194738Y-39769946D01*
X70217018Y-39811630D01*
X70230738Y-39856859D01*
X70236000Y-39910285D01*
X70236000Y-40864035D01*
X70230738Y-40917461D01*
X70217018Y-40962690D01*
X70194738Y-41004374D01*
X70164751Y-41040911D01*
X70128214Y-41070898D01*
X70086530Y-41093178D01*
X70041301Y-41106898D01*
X69987875Y-41112160D01*
X68784125Y-41112160D01*
X68730699Y-41106898D01*
X68685470Y-41093178D01*
X68643786Y-41070898D01*
X68607249Y-41040911D01*
X68577262Y-41004374D01*
X68554982Y-40962690D01*
X68541262Y-40917461D01*
X68536000Y-40864035D01*
X68536000Y-39910285D01*
X68541262Y-39856859D01*
X68554982Y-39811630D01*
X68577262Y-39769946D01*
X68607249Y-39733409D01*
X68643786Y-39703422D01*
X68685470Y-39681142D01*
X68730699Y-39667422D01*
X68784125Y-39662160D01*
X69987875Y-39662160D01*
X70041301Y-39667422D01*
X70041301Y-39667422D01*
G37*
G36*
X45555092Y-40026051D02*
G01*
X45584987Y-40035120D01*
X45612542Y-40049848D01*
X45636692Y-40069668D01*
X45656512Y-40093818D01*
X45671240Y-40121373D01*
X45680309Y-40151268D01*
X45684000Y-40188746D01*
X45684000Y-40755974D01*
X45680309Y-40793452D01*
X45671240Y-40823347D01*
X45656512Y-40850902D01*
X45636692Y-40875052D01*
X45612542Y-40894872D01*
X45584987Y-40909600D01*
X45555092Y-40918669D01*
X45517614Y-40922360D01*
X43600386Y-40922360D01*
X43562908Y-40918669D01*
X43533013Y-40909600D01*
X43505458Y-40894872D01*
X43481308Y-40875052D01*
X43461488Y-40850902D01*
X43446760Y-40823347D01*
X43437691Y-40793452D01*
X43434000Y-40755974D01*
X43434000Y-40188746D01*
X43437691Y-40151268D01*
X43446760Y-40121373D01*
X43461488Y-40093818D01*
X43481308Y-40069668D01*
X43505458Y-40049848D01*
X43533013Y-40035120D01*
X43562908Y-40026051D01*
X43600386Y-40022360D01*
X45517614Y-40022360D01*
X45555092Y-40026051D01*
X45555092Y-40026051D01*
G37*
G36*
X50505092Y-40026051D02*
G01*
X50534987Y-40035120D01*
X50562542Y-40049848D01*
X50586692Y-40069668D01*
X50606512Y-40093818D01*
X50621240Y-40121373D01*
X50630309Y-40151268D01*
X50634000Y-40188746D01*
X50634000Y-40755974D01*
X50630309Y-40793452D01*
X50621240Y-40823347D01*
X50606512Y-40850902D01*
X50586692Y-40875052D01*
X50562542Y-40894872D01*
X50534987Y-40909600D01*
X50505092Y-40918669D01*
X50467614Y-40922360D01*
X48550386Y-40922360D01*
X48512908Y-40918669D01*
X48483013Y-40909600D01*
X48455458Y-40894872D01*
X48431308Y-40875052D01*
X48411488Y-40850902D01*
X48396760Y-40823347D01*
X48387691Y-40793452D01*
X48384000Y-40755974D01*
X48384000Y-40188746D01*
X48387691Y-40151268D01*
X48396760Y-40121373D01*
X48411488Y-40093818D01*
X48431308Y-40069668D01*
X48455458Y-40049848D01*
X48483013Y-40035120D01*
X48512908Y-40026051D01*
X48550386Y-40022360D01*
X50467614Y-40022360D01*
X50505092Y-40026051D01*
X50505092Y-40026051D01*
G37*
G36*
X64478701Y-39206522D02*
G01*
X64523930Y-39220242D01*
X64565614Y-39242522D01*
X64602151Y-39272509D01*
X64632138Y-39309046D01*
X64654418Y-39350730D01*
X64668138Y-39395959D01*
X64673400Y-39449385D01*
X64673400Y-40403135D01*
X64668138Y-40456561D01*
X64654418Y-40501790D01*
X64632138Y-40543474D01*
X64602151Y-40580011D01*
X64565614Y-40609998D01*
X64523930Y-40632278D01*
X64478701Y-40645998D01*
X64425275Y-40651260D01*
X63221525Y-40651260D01*
X63168099Y-40645998D01*
X63122870Y-40632278D01*
X63081186Y-40609998D01*
X63044649Y-40580011D01*
X63014662Y-40543474D01*
X62992382Y-40501790D01*
X62978662Y-40456561D01*
X62973400Y-40403135D01*
X62973400Y-39449385D01*
X62978662Y-39395959D01*
X62992382Y-39350730D01*
X63014662Y-39309046D01*
X63044649Y-39272509D01*
X63081186Y-39242522D01*
X63122870Y-39220242D01*
X63168099Y-39206522D01*
X63221525Y-39201260D01*
X64425275Y-39201260D01*
X64478701Y-39206522D01*
X64478701Y-39206522D01*
G37*
G36*
X40549836Y-38470830D02*
G01*
X40738332Y-38528009D01*
X40912058Y-38620868D01*
X41064328Y-38745832D01*
X41189292Y-38898102D01*
X41282151Y-39071828D01*
X41339330Y-39260324D01*
X41358638Y-39456360D01*
X41339330Y-39652396D01*
X41282151Y-39840892D01*
X41189292Y-40014618D01*
X41064328Y-40166888D01*
X40912058Y-40291852D01*
X40738332Y-40384711D01*
X40549836Y-40441890D01*
X40402920Y-40456360D01*
X40304680Y-40456360D01*
X40157764Y-40441890D01*
X39969268Y-40384711D01*
X39795542Y-40291852D01*
X39643272Y-40166888D01*
X39518308Y-40014618D01*
X39425449Y-39840892D01*
X39368270Y-39652396D01*
X39348962Y-39456360D01*
X39368270Y-39260324D01*
X39425449Y-39071828D01*
X39518308Y-38898102D01*
X39643272Y-38745832D01*
X39795542Y-38620868D01*
X39969268Y-38528009D01*
X40157764Y-38470830D01*
X40304680Y-38456360D01*
X40402920Y-38456360D01*
X40549836Y-38470830D01*
X40549836Y-38470830D01*
G37*
G36*
X38009836Y-38470830D02*
G01*
X38198332Y-38528009D01*
X38372058Y-38620868D01*
X38524328Y-38745832D01*
X38649292Y-38898102D01*
X38742151Y-39071828D01*
X38799330Y-39260324D01*
X38818638Y-39456360D01*
X38799330Y-39652396D01*
X38742151Y-39840892D01*
X38649292Y-40014618D01*
X38524328Y-40166888D01*
X38372058Y-40291852D01*
X38198332Y-40384711D01*
X38009836Y-40441890D01*
X37862920Y-40456360D01*
X37764680Y-40456360D01*
X37617764Y-40441890D01*
X37429268Y-40384711D01*
X37255542Y-40291852D01*
X37103272Y-40166888D01*
X36978308Y-40014618D01*
X36885449Y-39840892D01*
X36828270Y-39652396D01*
X36808962Y-39456360D01*
X36828270Y-39260324D01*
X36885449Y-39071828D01*
X36978308Y-38898102D01*
X37103272Y-38745832D01*
X37255542Y-38620868D01*
X37429268Y-38528009D01*
X37617764Y-38470830D01*
X37764680Y-38456360D01*
X37862920Y-38456360D01*
X38009836Y-38470830D01*
X38009836Y-38470830D01*
G37*
G36*
X82030200Y-40225960D02*
G01*
X78230200Y-40225960D01*
X78230200Y-38175960D01*
X82030200Y-38175960D01*
X82030200Y-40225960D01*
X82030200Y-40225960D01*
G37*
G36*
X57429592Y-39137051D02*
G01*
X57459487Y-39146120D01*
X57487042Y-39160848D01*
X57511192Y-39180668D01*
X57531012Y-39204818D01*
X57545740Y-39232373D01*
X57554809Y-39262268D01*
X57558500Y-39299746D01*
X57558500Y-39866974D01*
X57554809Y-39904452D01*
X57545740Y-39934347D01*
X57531012Y-39961902D01*
X57511192Y-39986052D01*
X57487042Y-40005872D01*
X57459487Y-40020600D01*
X57429592Y-40029669D01*
X57392114Y-40033360D01*
X55474886Y-40033360D01*
X55437408Y-40029669D01*
X55407513Y-40020600D01*
X55379958Y-40005872D01*
X55355808Y-39986052D01*
X55335988Y-39961902D01*
X55321260Y-39934347D01*
X55312191Y-39904452D01*
X55308500Y-39866974D01*
X55308500Y-39299746D01*
X55312191Y-39262268D01*
X55321260Y-39232373D01*
X55335988Y-39204818D01*
X55355808Y-39180668D01*
X55379958Y-39160848D01*
X55407513Y-39146120D01*
X55437408Y-39137051D01*
X55474886Y-39133360D01*
X57392114Y-39133360D01*
X57429592Y-39137051D01*
X57429592Y-39137051D01*
G37*
G36*
X62379592Y-39137051D02*
G01*
X62409487Y-39146120D01*
X62437042Y-39160848D01*
X62461192Y-39180668D01*
X62481012Y-39204818D01*
X62495740Y-39232373D01*
X62504809Y-39262268D01*
X62508500Y-39299746D01*
X62508500Y-39866974D01*
X62504809Y-39904452D01*
X62495740Y-39934347D01*
X62481012Y-39961902D01*
X62461192Y-39986052D01*
X62437042Y-40005872D01*
X62409487Y-40020600D01*
X62379592Y-40029669D01*
X62342114Y-40033360D01*
X60424886Y-40033360D01*
X60387408Y-40029669D01*
X60357513Y-40020600D01*
X60329958Y-40005872D01*
X60305808Y-39986052D01*
X60285988Y-39961902D01*
X60271260Y-39934347D01*
X60262191Y-39904452D01*
X60258500Y-39866974D01*
X60258500Y-39299746D01*
X60262191Y-39262268D01*
X60271260Y-39232373D01*
X60285988Y-39204818D01*
X60305808Y-39180668D01*
X60329958Y-39160848D01*
X60357513Y-39146120D01*
X60387408Y-39137051D01*
X60424886Y-39133360D01*
X62342114Y-39133360D01*
X62379592Y-39137051D01*
X62379592Y-39137051D01*
G37*
G36*
X50505092Y-38756051D02*
G01*
X50534987Y-38765120D01*
X50562542Y-38779848D01*
X50586692Y-38799668D01*
X50606512Y-38823818D01*
X50621240Y-38851373D01*
X50630309Y-38881268D01*
X50634000Y-38918746D01*
X50634000Y-39485974D01*
X50630309Y-39523452D01*
X50621240Y-39553347D01*
X50606512Y-39580902D01*
X50586692Y-39605052D01*
X50562542Y-39624872D01*
X50534987Y-39639600D01*
X50505092Y-39648669D01*
X50467614Y-39652360D01*
X48550386Y-39652360D01*
X48512908Y-39648669D01*
X48483013Y-39639600D01*
X48455458Y-39624872D01*
X48431308Y-39605052D01*
X48411488Y-39580902D01*
X48396760Y-39553347D01*
X48387691Y-39523452D01*
X48384000Y-39485974D01*
X48384000Y-38918746D01*
X48387691Y-38881268D01*
X48396760Y-38851373D01*
X48411488Y-38823818D01*
X48431308Y-38799668D01*
X48455458Y-38779848D01*
X48483013Y-38765120D01*
X48512908Y-38756051D01*
X48550386Y-38752360D01*
X50467614Y-38752360D01*
X50505092Y-38756051D01*
X50505092Y-38756051D01*
G37*
G36*
X45555092Y-38756051D02*
G01*
X45584987Y-38765120D01*
X45612542Y-38779848D01*
X45636692Y-38799668D01*
X45656512Y-38823818D01*
X45671240Y-38851373D01*
X45680309Y-38881268D01*
X45684000Y-38918746D01*
X45684000Y-39485974D01*
X45680309Y-39523452D01*
X45671240Y-39553347D01*
X45656512Y-39580902D01*
X45636692Y-39605052D01*
X45612542Y-39624872D01*
X45584987Y-39639600D01*
X45555092Y-39648669D01*
X45517614Y-39652360D01*
X43600386Y-39652360D01*
X43562908Y-39648669D01*
X43533013Y-39639600D01*
X43505458Y-39624872D01*
X43481308Y-39605052D01*
X43461488Y-39580902D01*
X43446760Y-39553347D01*
X43437691Y-39523452D01*
X43434000Y-39485974D01*
X43434000Y-38918746D01*
X43437691Y-38881268D01*
X43446760Y-38851373D01*
X43461488Y-38823818D01*
X43481308Y-38799668D01*
X43505458Y-38779848D01*
X43533013Y-38765120D01*
X43562908Y-38756051D01*
X43600386Y-38752360D01*
X45517614Y-38752360D01*
X45555092Y-38756051D01*
X45555092Y-38756051D01*
G37*
G36*
X54623501Y-37952922D02*
G01*
X54668730Y-37966642D01*
X54710414Y-37988922D01*
X54746951Y-38018909D01*
X54776938Y-38055446D01*
X54799218Y-38097130D01*
X54812938Y-38142359D01*
X54818200Y-38195785D01*
X54818200Y-39149535D01*
X54812938Y-39202961D01*
X54799218Y-39248190D01*
X54776938Y-39289874D01*
X54746951Y-39326411D01*
X54710414Y-39356398D01*
X54668730Y-39378678D01*
X54623501Y-39392398D01*
X54570075Y-39397660D01*
X53366325Y-39397660D01*
X53312899Y-39392398D01*
X53267670Y-39378678D01*
X53225986Y-39356398D01*
X53189449Y-39326411D01*
X53159462Y-39289874D01*
X53137182Y-39248190D01*
X53123462Y-39202961D01*
X53118200Y-39149535D01*
X53118200Y-38195785D01*
X53123462Y-38142359D01*
X53137182Y-38097130D01*
X53159462Y-38055446D01*
X53189449Y-38018909D01*
X53225986Y-37988922D01*
X53267670Y-37966642D01*
X53312899Y-37952922D01*
X53366325Y-37947660D01*
X54570075Y-37947660D01*
X54623501Y-37952922D01*
X54623501Y-37952922D01*
G37*
G36*
X52578801Y-37945522D02*
G01*
X52624030Y-37959242D01*
X52665714Y-37981522D01*
X52702251Y-38011509D01*
X52732238Y-38048046D01*
X52754518Y-38089730D01*
X52768238Y-38134959D01*
X52773500Y-38188385D01*
X52773500Y-39142135D01*
X52768238Y-39195561D01*
X52754518Y-39240790D01*
X52732238Y-39282474D01*
X52702251Y-39319011D01*
X52665714Y-39348998D01*
X52624030Y-39371278D01*
X52578801Y-39384998D01*
X52525375Y-39390260D01*
X51321625Y-39390260D01*
X51268199Y-39384998D01*
X51222970Y-39371278D01*
X51181286Y-39348998D01*
X51144749Y-39319011D01*
X51114762Y-39282474D01*
X51092482Y-39240790D01*
X51078762Y-39195561D01*
X51073500Y-39142135D01*
X51073500Y-38188385D01*
X51078762Y-38134959D01*
X51092482Y-38089730D01*
X51114762Y-38048046D01*
X51144749Y-38011509D01*
X51181286Y-37981522D01*
X51222970Y-37959242D01*
X51268199Y-37945522D01*
X51321625Y-37940260D01*
X52525375Y-37940260D01*
X52578801Y-37945522D01*
X52578801Y-37945522D01*
G37*
G36*
X67617400Y-39110160D02*
G01*
X65617400Y-39110160D01*
X65617400Y-37110160D01*
X67617400Y-37110160D01*
X67617400Y-39110160D01*
X67617400Y-39110160D01*
G37*
G36*
X70028601Y-37628022D02*
G01*
X70073830Y-37641742D01*
X70115514Y-37664022D01*
X70152051Y-37694009D01*
X70182038Y-37730546D01*
X70204318Y-37772230D01*
X70218038Y-37817459D01*
X70223300Y-37870885D01*
X70223300Y-38824635D01*
X70218038Y-38878061D01*
X70204318Y-38923290D01*
X70182038Y-38964974D01*
X70152051Y-39001511D01*
X70115514Y-39031498D01*
X70073830Y-39053778D01*
X70028601Y-39067498D01*
X69975175Y-39072760D01*
X68771425Y-39072760D01*
X68717999Y-39067498D01*
X68672770Y-39053778D01*
X68631086Y-39031498D01*
X68594549Y-39001511D01*
X68564562Y-38964974D01*
X68542282Y-38923290D01*
X68528562Y-38878061D01*
X68523300Y-38824635D01*
X68523300Y-37870885D01*
X68528562Y-37817459D01*
X68542282Y-37772230D01*
X68564562Y-37730546D01*
X68594549Y-37694009D01*
X68631086Y-37664022D01*
X68672770Y-37641742D01*
X68717999Y-37628022D01*
X68771425Y-37622760D01*
X69975175Y-37622760D01*
X70028601Y-37628022D01*
X70028601Y-37628022D01*
G37*
G36*
X57429592Y-37867051D02*
G01*
X57459487Y-37876120D01*
X57487042Y-37890848D01*
X57511192Y-37910668D01*
X57531012Y-37934818D01*
X57545740Y-37962373D01*
X57554809Y-37992268D01*
X57558500Y-38029746D01*
X57558500Y-38596974D01*
X57554809Y-38634452D01*
X57545740Y-38664347D01*
X57531012Y-38691902D01*
X57511192Y-38716052D01*
X57487042Y-38735872D01*
X57459487Y-38750600D01*
X57429592Y-38759669D01*
X57392114Y-38763360D01*
X55474886Y-38763360D01*
X55437408Y-38759669D01*
X55407513Y-38750600D01*
X55379958Y-38735872D01*
X55355808Y-38716052D01*
X55335988Y-38691902D01*
X55321260Y-38664347D01*
X55312191Y-38634452D01*
X55308500Y-38596974D01*
X55308500Y-38029746D01*
X55312191Y-37992268D01*
X55321260Y-37962373D01*
X55335988Y-37934818D01*
X55355808Y-37910668D01*
X55379958Y-37890848D01*
X55407513Y-37876120D01*
X55437408Y-37867051D01*
X55474886Y-37863360D01*
X57392114Y-37863360D01*
X57429592Y-37867051D01*
X57429592Y-37867051D01*
G37*
G36*
X62379592Y-37867051D02*
G01*
X62409487Y-37876120D01*
X62437042Y-37890848D01*
X62461192Y-37910668D01*
X62481012Y-37934818D01*
X62495740Y-37962373D01*
X62504809Y-37992268D01*
X62508500Y-38029746D01*
X62508500Y-38596974D01*
X62504809Y-38634452D01*
X62495740Y-38664347D01*
X62481012Y-38691902D01*
X62461192Y-38716052D01*
X62437042Y-38735872D01*
X62409487Y-38750600D01*
X62379592Y-38759669D01*
X62342114Y-38763360D01*
X60424886Y-38763360D01*
X60387408Y-38759669D01*
X60357513Y-38750600D01*
X60329958Y-38735872D01*
X60305808Y-38716052D01*
X60285988Y-38691902D01*
X60271260Y-38664347D01*
X60262191Y-38634452D01*
X60258500Y-38596974D01*
X60258500Y-38029746D01*
X60262191Y-37992268D01*
X60271260Y-37962373D01*
X60285988Y-37934818D01*
X60305808Y-37910668D01*
X60329958Y-37890848D01*
X60357513Y-37876120D01*
X60387408Y-37867051D01*
X60424886Y-37863360D01*
X62342114Y-37863360D01*
X62379592Y-37867051D01*
X62379592Y-37867051D01*
G37*
G36*
X64478701Y-37156522D02*
G01*
X64523930Y-37170242D01*
X64565614Y-37192522D01*
X64602151Y-37222509D01*
X64632138Y-37259046D01*
X64654418Y-37300730D01*
X64668138Y-37345959D01*
X64673400Y-37399385D01*
X64673400Y-38353135D01*
X64668138Y-38406561D01*
X64654418Y-38451790D01*
X64632138Y-38493474D01*
X64602151Y-38530011D01*
X64565614Y-38559998D01*
X64523930Y-38582278D01*
X64478701Y-38595998D01*
X64425275Y-38601260D01*
X63221525Y-38601260D01*
X63168099Y-38595998D01*
X63122870Y-38582278D01*
X63081186Y-38559998D01*
X63044649Y-38530011D01*
X63014662Y-38493474D01*
X62992382Y-38451790D01*
X62978662Y-38406561D01*
X62973400Y-38353135D01*
X62973400Y-37399385D01*
X62978662Y-37345959D01*
X62992382Y-37300730D01*
X63014662Y-37259046D01*
X63044649Y-37222509D01*
X63081186Y-37192522D01*
X63122870Y-37170242D01*
X63168099Y-37156522D01*
X63221525Y-37151260D01*
X64425275Y-37151260D01*
X64478701Y-37156522D01*
X64478701Y-37156522D01*
G37*
G36*
X50505092Y-37486051D02*
G01*
X50534987Y-37495120D01*
X50562542Y-37509848D01*
X50586692Y-37529668D01*
X50606512Y-37553818D01*
X50621240Y-37581373D01*
X50630309Y-37611268D01*
X50634000Y-37648746D01*
X50634000Y-38215974D01*
X50630309Y-38253452D01*
X50621240Y-38283347D01*
X50606512Y-38310902D01*
X50586692Y-38335052D01*
X50562542Y-38354872D01*
X50534987Y-38369600D01*
X50505092Y-38378669D01*
X50467614Y-38382360D01*
X48550386Y-38382360D01*
X48512908Y-38378669D01*
X48483013Y-38369600D01*
X48455458Y-38354872D01*
X48431308Y-38335052D01*
X48411488Y-38310902D01*
X48396760Y-38283347D01*
X48387691Y-38253452D01*
X48384000Y-38215974D01*
X48384000Y-37648746D01*
X48387691Y-37611268D01*
X48396760Y-37581373D01*
X48411488Y-37553818D01*
X48431308Y-37529668D01*
X48455458Y-37509848D01*
X48483013Y-37495120D01*
X48512908Y-37486051D01*
X48550386Y-37482360D01*
X50467614Y-37482360D01*
X50505092Y-37486051D01*
X50505092Y-37486051D01*
G37*
G36*
X45555092Y-37486051D02*
G01*
X45584987Y-37495120D01*
X45612542Y-37509848D01*
X45636692Y-37529668D01*
X45656512Y-37553818D01*
X45671240Y-37581373D01*
X45680309Y-37611268D01*
X45684000Y-37648746D01*
X45684000Y-38215974D01*
X45680309Y-38253452D01*
X45671240Y-38283347D01*
X45656512Y-38310902D01*
X45636692Y-38335052D01*
X45612542Y-38354872D01*
X45584987Y-38369600D01*
X45555092Y-38378669D01*
X45517614Y-38382360D01*
X43600386Y-38382360D01*
X43562908Y-38378669D01*
X43533013Y-38369600D01*
X43505458Y-38354872D01*
X43481308Y-38335052D01*
X43461488Y-38310902D01*
X43446760Y-38283347D01*
X43437691Y-38253452D01*
X43434000Y-38215974D01*
X43434000Y-37648746D01*
X43437691Y-37611268D01*
X43446760Y-37581373D01*
X43461488Y-37553818D01*
X43481308Y-37529668D01*
X43505458Y-37509848D01*
X43533013Y-37495120D01*
X43562908Y-37486051D01*
X43600386Y-37482360D01*
X45517614Y-37482360D01*
X45555092Y-37486051D01*
X45555092Y-37486051D01*
G37*
G36*
X40549836Y-35930830D02*
G01*
X40738332Y-35988009D01*
X40912058Y-36080868D01*
X41064328Y-36205832D01*
X41189292Y-36358102D01*
X41282151Y-36531828D01*
X41339330Y-36720324D01*
X41358638Y-36916360D01*
X41339330Y-37112396D01*
X41282151Y-37300892D01*
X41189292Y-37474618D01*
X41064328Y-37626888D01*
X40912058Y-37751852D01*
X40738332Y-37844711D01*
X40549836Y-37901890D01*
X40402920Y-37916360D01*
X40304680Y-37916360D01*
X40157764Y-37901890D01*
X39969268Y-37844711D01*
X39795542Y-37751852D01*
X39643272Y-37626888D01*
X39518308Y-37474618D01*
X39425449Y-37300892D01*
X39368270Y-37112396D01*
X39348962Y-36916360D01*
X39368270Y-36720324D01*
X39425449Y-36531828D01*
X39518308Y-36358102D01*
X39643272Y-36205832D01*
X39795542Y-36080868D01*
X39969268Y-35988009D01*
X40157764Y-35930830D01*
X40304680Y-35916360D01*
X40402920Y-35916360D01*
X40549836Y-35930830D01*
X40549836Y-35930830D01*
G37*
G36*
X38009836Y-35930830D02*
G01*
X38198332Y-35988009D01*
X38372058Y-36080868D01*
X38524328Y-36205832D01*
X38649292Y-36358102D01*
X38742151Y-36531828D01*
X38799330Y-36720324D01*
X38818638Y-36916360D01*
X38799330Y-37112396D01*
X38742151Y-37300892D01*
X38649292Y-37474618D01*
X38524328Y-37626888D01*
X38372058Y-37751852D01*
X38198332Y-37844711D01*
X38009836Y-37901890D01*
X37862920Y-37916360D01*
X37764680Y-37916360D01*
X37617764Y-37901890D01*
X37429268Y-37844711D01*
X37255542Y-37751852D01*
X37103272Y-37626888D01*
X36978308Y-37474618D01*
X36885449Y-37300892D01*
X36828270Y-37112396D01*
X36808962Y-36916360D01*
X36828270Y-36720324D01*
X36885449Y-36531828D01*
X36978308Y-36358102D01*
X37103272Y-36205832D01*
X37255542Y-36080868D01*
X37429268Y-35988009D01*
X37617764Y-35930830D01*
X37764680Y-35916360D01*
X37862920Y-35916360D01*
X38009836Y-35930830D01*
X38009836Y-35930830D01*
G37*
G36*
X82030200Y-37685960D02*
G01*
X78230200Y-37685960D01*
X78230200Y-35635960D01*
X82030200Y-35635960D01*
X82030200Y-37685960D01*
X82030200Y-37685960D01*
G37*
G36*
X62379592Y-36597051D02*
G01*
X62409487Y-36606120D01*
X62437042Y-36620848D01*
X62461192Y-36640668D01*
X62481012Y-36664818D01*
X62495740Y-36692373D01*
X62504809Y-36722268D01*
X62508500Y-36759746D01*
X62508500Y-37326974D01*
X62504809Y-37364452D01*
X62495740Y-37394347D01*
X62481012Y-37421902D01*
X62461192Y-37446052D01*
X62437042Y-37465872D01*
X62409487Y-37480600D01*
X62379592Y-37489669D01*
X62342114Y-37493360D01*
X60424886Y-37493360D01*
X60387408Y-37489669D01*
X60357513Y-37480600D01*
X60329958Y-37465872D01*
X60305808Y-37446052D01*
X60285988Y-37421902D01*
X60271260Y-37394347D01*
X60262191Y-37364452D01*
X60258500Y-37326974D01*
X60258500Y-36759746D01*
X60262191Y-36722268D01*
X60271260Y-36692373D01*
X60285988Y-36664818D01*
X60305808Y-36640668D01*
X60329958Y-36620848D01*
X60357513Y-36606120D01*
X60387408Y-36597051D01*
X60424886Y-36593360D01*
X62342114Y-36593360D01*
X62379592Y-36597051D01*
X62379592Y-36597051D01*
G37*
G36*
X57429592Y-36597051D02*
G01*
X57459487Y-36606120D01*
X57487042Y-36620848D01*
X57511192Y-36640668D01*
X57531012Y-36664818D01*
X57545740Y-36692373D01*
X57554809Y-36722268D01*
X57558500Y-36759746D01*
X57558500Y-37326974D01*
X57554809Y-37364452D01*
X57545740Y-37394347D01*
X57531012Y-37421902D01*
X57511192Y-37446052D01*
X57487042Y-37465872D01*
X57459487Y-37480600D01*
X57429592Y-37489669D01*
X57392114Y-37493360D01*
X55474886Y-37493360D01*
X55437408Y-37489669D01*
X55407513Y-37480600D01*
X55379958Y-37465872D01*
X55355808Y-37446052D01*
X55335988Y-37421902D01*
X55321260Y-37394347D01*
X55312191Y-37364452D01*
X55308500Y-37326974D01*
X55308500Y-36759746D01*
X55312191Y-36722268D01*
X55321260Y-36692373D01*
X55335988Y-36664818D01*
X55355808Y-36640668D01*
X55379958Y-36620848D01*
X55407513Y-36606120D01*
X55437408Y-36597051D01*
X55474886Y-36593360D01*
X57392114Y-36593360D01*
X57429592Y-36597051D01*
X57429592Y-36597051D01*
G37*
G36*
X52578801Y-35895522D02*
G01*
X52624030Y-35909242D01*
X52665714Y-35931522D01*
X52702251Y-35961509D01*
X52732238Y-35998046D01*
X52754518Y-36039730D01*
X52768238Y-36084959D01*
X52773500Y-36138385D01*
X52773500Y-37092135D01*
X52768238Y-37145561D01*
X52754518Y-37190790D01*
X52732238Y-37232474D01*
X52702251Y-37269011D01*
X52665714Y-37298998D01*
X52624030Y-37321278D01*
X52578801Y-37334998D01*
X52525375Y-37340260D01*
X51321625Y-37340260D01*
X51268199Y-37334998D01*
X51222970Y-37321278D01*
X51181286Y-37298998D01*
X51144749Y-37269011D01*
X51114762Y-37232474D01*
X51092482Y-37190790D01*
X51078762Y-37145561D01*
X51073500Y-37092135D01*
X51073500Y-36138385D01*
X51078762Y-36084959D01*
X51092482Y-36039730D01*
X51114762Y-35998046D01*
X51144749Y-35961509D01*
X51181286Y-35931522D01*
X51222970Y-35909242D01*
X51268199Y-35895522D01*
X51321625Y-35890260D01*
X52525375Y-35890260D01*
X52578801Y-35895522D01*
X52578801Y-35895522D01*
G37*
G36*
X45555092Y-36216051D02*
G01*
X45584987Y-36225120D01*
X45612542Y-36239848D01*
X45636692Y-36259668D01*
X45656512Y-36283818D01*
X45671240Y-36311373D01*
X45680309Y-36341268D01*
X45684000Y-36378746D01*
X45684000Y-36945974D01*
X45680309Y-36983452D01*
X45671240Y-37013347D01*
X45656512Y-37040902D01*
X45636692Y-37065052D01*
X45612542Y-37084872D01*
X45584987Y-37099600D01*
X45555092Y-37108669D01*
X45517614Y-37112360D01*
X43600386Y-37112360D01*
X43562908Y-37108669D01*
X43533013Y-37099600D01*
X43505458Y-37084872D01*
X43481308Y-37065052D01*
X43461488Y-37040902D01*
X43446760Y-37013347D01*
X43437691Y-36983452D01*
X43434000Y-36945974D01*
X43434000Y-36378746D01*
X43437691Y-36341268D01*
X43446760Y-36311373D01*
X43461488Y-36283818D01*
X43481308Y-36259668D01*
X43505458Y-36239848D01*
X43533013Y-36225120D01*
X43562908Y-36216051D01*
X43600386Y-36212360D01*
X45517614Y-36212360D01*
X45555092Y-36216051D01*
X45555092Y-36216051D01*
G37*
G36*
X50505092Y-36216051D02*
G01*
X50534987Y-36225120D01*
X50562542Y-36239848D01*
X50586692Y-36259668D01*
X50606512Y-36283818D01*
X50621240Y-36311373D01*
X50630309Y-36341268D01*
X50634000Y-36378746D01*
X50634000Y-36945974D01*
X50630309Y-36983452D01*
X50621240Y-37013347D01*
X50606512Y-37040902D01*
X50586692Y-37065052D01*
X50562542Y-37084872D01*
X50534987Y-37099600D01*
X50505092Y-37108669D01*
X50467614Y-37112360D01*
X48550386Y-37112360D01*
X48512908Y-37108669D01*
X48483013Y-37099600D01*
X48455458Y-37084872D01*
X48431308Y-37065052D01*
X48411488Y-37040902D01*
X48396760Y-37013347D01*
X48387691Y-36983452D01*
X48384000Y-36945974D01*
X48384000Y-36378746D01*
X48387691Y-36341268D01*
X48396760Y-36311373D01*
X48411488Y-36283818D01*
X48431308Y-36259668D01*
X48455458Y-36239848D01*
X48483013Y-36225120D01*
X48512908Y-36216051D01*
X48550386Y-36212360D01*
X50467614Y-36212360D01*
X50505092Y-36216051D01*
X50505092Y-36216051D01*
G37*
G36*
X70028601Y-35578022D02*
G01*
X70073830Y-35591742D01*
X70115514Y-35614022D01*
X70152051Y-35644009D01*
X70182038Y-35680546D01*
X70204318Y-35722230D01*
X70218038Y-35767459D01*
X70223300Y-35820885D01*
X70223300Y-36774635D01*
X70218038Y-36828061D01*
X70204318Y-36873290D01*
X70182038Y-36914974D01*
X70152051Y-36951511D01*
X70115514Y-36981498D01*
X70073830Y-37003778D01*
X70028601Y-37017498D01*
X69975175Y-37022760D01*
X68771425Y-37022760D01*
X68717999Y-37017498D01*
X68672770Y-37003778D01*
X68631086Y-36981498D01*
X68594549Y-36951511D01*
X68564562Y-36914974D01*
X68542282Y-36873290D01*
X68528562Y-36828061D01*
X68523300Y-36774635D01*
X68523300Y-35820885D01*
X68528562Y-35767459D01*
X68542282Y-35722230D01*
X68564562Y-35680546D01*
X68594549Y-35644009D01*
X68631086Y-35614022D01*
X68672770Y-35591742D01*
X68717999Y-35578022D01*
X68771425Y-35572760D01*
X69975175Y-35572760D01*
X70028601Y-35578022D01*
X70028601Y-35578022D01*
G37*
G36*
X62379592Y-35327051D02*
G01*
X62409487Y-35336120D01*
X62437042Y-35350848D01*
X62461192Y-35370668D01*
X62481012Y-35394818D01*
X62495740Y-35422373D01*
X62504809Y-35452268D01*
X62508500Y-35489746D01*
X62508500Y-36056974D01*
X62504809Y-36094452D01*
X62495740Y-36124347D01*
X62481012Y-36151902D01*
X62461192Y-36176052D01*
X62437042Y-36195872D01*
X62409487Y-36210600D01*
X62379592Y-36219669D01*
X62342114Y-36223360D01*
X60424886Y-36223360D01*
X60387408Y-36219669D01*
X60357513Y-36210600D01*
X60329958Y-36195872D01*
X60305808Y-36176052D01*
X60285988Y-36151902D01*
X60271260Y-36124347D01*
X60262191Y-36094452D01*
X60258500Y-36056974D01*
X60258500Y-35489746D01*
X60262191Y-35452268D01*
X60271260Y-35422373D01*
X60285988Y-35394818D01*
X60305808Y-35370668D01*
X60329958Y-35350848D01*
X60357513Y-35336120D01*
X60387408Y-35327051D01*
X60424886Y-35323360D01*
X62342114Y-35323360D01*
X62379592Y-35327051D01*
X62379592Y-35327051D01*
G37*
G36*
X57429592Y-35327051D02*
G01*
X57459487Y-35336120D01*
X57487042Y-35350848D01*
X57511192Y-35370668D01*
X57531012Y-35394818D01*
X57545740Y-35422373D01*
X57554809Y-35452268D01*
X57558500Y-35489746D01*
X57558500Y-36056974D01*
X57554809Y-36094452D01*
X57545740Y-36124347D01*
X57531012Y-36151902D01*
X57511192Y-36176052D01*
X57487042Y-36195872D01*
X57459487Y-36210600D01*
X57429592Y-36219669D01*
X57392114Y-36223360D01*
X55474886Y-36223360D01*
X55437408Y-36219669D01*
X55407513Y-36210600D01*
X55379958Y-36195872D01*
X55355808Y-36176052D01*
X55335988Y-36151902D01*
X55321260Y-36124347D01*
X55312191Y-36094452D01*
X55308500Y-36056974D01*
X55308500Y-35489746D01*
X55312191Y-35452268D01*
X55321260Y-35422373D01*
X55335988Y-35394818D01*
X55355808Y-35370668D01*
X55379958Y-35350848D01*
X55407513Y-35336120D01*
X55437408Y-35327051D01*
X55474886Y-35323360D01*
X57392114Y-35323360D01*
X57429592Y-35327051D01*
X57429592Y-35327051D01*
G37*
G36*
X50505092Y-34946051D02*
G01*
X50534987Y-34955120D01*
X50562542Y-34969848D01*
X50586692Y-34989668D01*
X50606512Y-35013818D01*
X50621240Y-35041373D01*
X50630309Y-35071268D01*
X50634000Y-35108746D01*
X50634000Y-35675974D01*
X50630309Y-35713452D01*
X50621240Y-35743347D01*
X50606512Y-35770902D01*
X50586692Y-35795052D01*
X50562542Y-35814872D01*
X50534987Y-35829600D01*
X50505092Y-35838669D01*
X50467614Y-35842360D01*
X48550386Y-35842360D01*
X48512908Y-35838669D01*
X48483013Y-35829600D01*
X48455458Y-35814872D01*
X48431308Y-35795052D01*
X48411488Y-35770902D01*
X48396760Y-35743347D01*
X48387691Y-35713452D01*
X48384000Y-35675974D01*
X48384000Y-35108746D01*
X48387691Y-35071268D01*
X48396760Y-35041373D01*
X48411488Y-35013818D01*
X48431308Y-34989668D01*
X48455458Y-34969848D01*
X48483013Y-34955120D01*
X48512908Y-34946051D01*
X48550386Y-34942360D01*
X50467614Y-34942360D01*
X50505092Y-34946051D01*
X50505092Y-34946051D01*
G37*
G36*
X45555092Y-34946051D02*
G01*
X45584987Y-34955120D01*
X45612542Y-34969848D01*
X45636692Y-34989668D01*
X45656512Y-35013818D01*
X45671240Y-35041373D01*
X45680309Y-35071268D01*
X45684000Y-35108746D01*
X45684000Y-35675974D01*
X45680309Y-35713452D01*
X45671240Y-35743347D01*
X45656512Y-35770902D01*
X45636692Y-35795052D01*
X45612542Y-35814872D01*
X45584987Y-35829600D01*
X45555092Y-35838669D01*
X45517614Y-35842360D01*
X43600386Y-35842360D01*
X43562908Y-35838669D01*
X43533013Y-35829600D01*
X43505458Y-35814872D01*
X43481308Y-35795052D01*
X43461488Y-35770902D01*
X43446760Y-35743347D01*
X43437691Y-35713452D01*
X43434000Y-35675974D01*
X43434000Y-35108746D01*
X43437691Y-35071268D01*
X43446760Y-35041373D01*
X43461488Y-35013818D01*
X43481308Y-34989668D01*
X43505458Y-34969848D01*
X43533013Y-34955120D01*
X43562908Y-34946051D01*
X43600386Y-34942360D01*
X45517614Y-34942360D01*
X45555092Y-34946051D01*
X45555092Y-34946051D01*
G37*
G36*
X67775200Y-35761360D02*
G01*
X66575200Y-35761360D01*
X66575200Y-34261360D01*
X67775200Y-34261360D01*
X67775200Y-35761360D01*
X67775200Y-35761360D01*
G37*
G36*
X64475200Y-35761360D02*
G01*
X63275200Y-35761360D01*
X63275200Y-34261360D01*
X64475200Y-34261360D01*
X64475200Y-35761360D01*
X64475200Y-35761360D01*
G37*
G36*
X38009836Y-33390830D02*
G01*
X38198332Y-33448009D01*
X38372058Y-33540868D01*
X38524328Y-33665832D01*
X38649292Y-33818102D01*
X38742151Y-33991828D01*
X38799330Y-34180324D01*
X38818638Y-34376360D01*
X38799330Y-34572396D01*
X38742151Y-34760892D01*
X38649292Y-34934618D01*
X38524328Y-35086888D01*
X38372058Y-35211852D01*
X38198332Y-35304711D01*
X38009836Y-35361890D01*
X37862920Y-35376360D01*
X37764680Y-35376360D01*
X37617764Y-35361890D01*
X37429268Y-35304711D01*
X37255542Y-35211852D01*
X37103272Y-35086888D01*
X36978308Y-34934618D01*
X36885449Y-34760892D01*
X36828270Y-34572396D01*
X36808962Y-34376360D01*
X36828270Y-34180324D01*
X36885449Y-33991828D01*
X36978308Y-33818102D01*
X37103272Y-33665832D01*
X37255542Y-33540868D01*
X37429268Y-33448009D01*
X37617764Y-33390830D01*
X37764680Y-33376360D01*
X37862920Y-33376360D01*
X38009836Y-33390830D01*
X38009836Y-33390830D01*
G37*
G36*
X41353800Y-35376360D02*
G01*
X39353800Y-35376360D01*
X39353800Y-33376360D01*
X41353800Y-33376360D01*
X41353800Y-35376360D01*
X41353800Y-35376360D01*
G37*
G36*
X54672601Y-33569722D02*
G01*
X54717830Y-33583442D01*
X54759514Y-33605722D01*
X54796051Y-33635709D01*
X54826038Y-33672246D01*
X54848318Y-33713930D01*
X54862038Y-33759159D01*
X54867300Y-33812585D01*
X54867300Y-35016335D01*
X54862038Y-35069761D01*
X54848318Y-35114990D01*
X54826038Y-35156674D01*
X54796051Y-35193211D01*
X54759514Y-35223198D01*
X54717830Y-35245478D01*
X54672601Y-35259198D01*
X54619175Y-35264460D01*
X53665425Y-35264460D01*
X53611999Y-35259198D01*
X53566770Y-35245478D01*
X53525086Y-35223198D01*
X53488549Y-35193211D01*
X53458562Y-35156674D01*
X53436282Y-35114990D01*
X53422562Y-35069761D01*
X53417300Y-35016335D01*
X53417300Y-33812585D01*
X53422562Y-33759159D01*
X53436282Y-33713930D01*
X53458562Y-33672246D01*
X53488549Y-33635709D01*
X53525086Y-33605722D01*
X53566770Y-33583442D01*
X53611999Y-33569722D01*
X53665425Y-33564460D01*
X54619175Y-33564460D01*
X54672601Y-33569722D01*
X54672601Y-33569722D01*
G37*
G36*
X52622601Y-33569722D02*
G01*
X52667830Y-33583442D01*
X52709514Y-33605722D01*
X52746051Y-33635709D01*
X52776038Y-33672246D01*
X52798318Y-33713930D01*
X52812038Y-33759159D01*
X52817300Y-33812585D01*
X52817300Y-35016335D01*
X52812038Y-35069761D01*
X52798318Y-35114990D01*
X52776038Y-35156674D01*
X52746051Y-35193211D01*
X52709514Y-35223198D01*
X52667830Y-35245478D01*
X52622601Y-35259198D01*
X52569175Y-35264460D01*
X51615425Y-35264460D01*
X51561999Y-35259198D01*
X51516770Y-35245478D01*
X51475086Y-35223198D01*
X51438549Y-35193211D01*
X51408562Y-35156674D01*
X51386282Y-35114990D01*
X51372562Y-35069761D01*
X51367300Y-35016335D01*
X51367300Y-33812585D01*
X51372562Y-33759159D01*
X51386282Y-33713930D01*
X51408562Y-33672246D01*
X51438549Y-33635709D01*
X51475086Y-33605722D01*
X51516770Y-33583442D01*
X51561999Y-33569722D01*
X51615425Y-33564460D01*
X52569175Y-33564460D01*
X52622601Y-33569722D01*
X52622601Y-33569722D01*
G37*
G36*
X45555092Y-33676051D02*
G01*
X45584987Y-33685120D01*
X45612542Y-33699848D01*
X45636692Y-33719668D01*
X45656512Y-33743818D01*
X45671240Y-33771373D01*
X45680309Y-33801268D01*
X45684000Y-33838746D01*
X45684000Y-34405974D01*
X45680309Y-34443452D01*
X45671240Y-34473347D01*
X45656512Y-34500902D01*
X45636692Y-34525052D01*
X45612542Y-34544872D01*
X45584987Y-34559600D01*
X45555092Y-34568669D01*
X45517614Y-34572360D01*
X43600386Y-34572360D01*
X43562908Y-34568669D01*
X43533013Y-34559600D01*
X43505458Y-34544872D01*
X43481308Y-34525052D01*
X43461488Y-34500902D01*
X43446760Y-34473347D01*
X43437691Y-34443452D01*
X43434000Y-34405974D01*
X43434000Y-33838746D01*
X43437691Y-33801268D01*
X43446760Y-33771373D01*
X43461488Y-33743818D01*
X43481308Y-33719668D01*
X43505458Y-33699848D01*
X43533013Y-33685120D01*
X43562908Y-33676051D01*
X43600386Y-33672360D01*
X45517614Y-33672360D01*
X45555092Y-33676051D01*
X45555092Y-33676051D01*
G37*
G36*
X50505092Y-33676051D02*
G01*
X50534987Y-33685120D01*
X50562542Y-33699848D01*
X50586692Y-33719668D01*
X50606512Y-33743818D01*
X50621240Y-33771373D01*
X50630309Y-33801268D01*
X50634000Y-33838746D01*
X50634000Y-34405974D01*
X50630309Y-34443452D01*
X50621240Y-34473347D01*
X50606512Y-34500902D01*
X50586692Y-34525052D01*
X50562542Y-34544872D01*
X50534987Y-34559600D01*
X50505092Y-34568669D01*
X50467614Y-34572360D01*
X48550386Y-34572360D01*
X48512908Y-34568669D01*
X48483013Y-34559600D01*
X48455458Y-34544872D01*
X48431308Y-34525052D01*
X48411488Y-34500902D01*
X48396760Y-34473347D01*
X48387691Y-34443452D01*
X48384000Y-34405974D01*
X48384000Y-33838746D01*
X48387691Y-33801268D01*
X48396760Y-33771373D01*
X48411488Y-33743818D01*
X48431308Y-33719668D01*
X48455458Y-33699848D01*
X48483013Y-33685120D01*
X48512908Y-33676051D01*
X48550386Y-33672360D01*
X50467614Y-33672360D01*
X50505092Y-33676051D01*
X50505092Y-33676051D01*
G37*
G36*
X58784861Y-32139702D02*
G01*
X58830090Y-32153422D01*
X58871774Y-32175702D01*
X58908311Y-32205689D01*
X58938298Y-32242226D01*
X58960578Y-32283910D01*
X58974298Y-32329139D01*
X58979560Y-32382565D01*
X58979560Y-33586315D01*
X58974298Y-33639741D01*
X58960578Y-33684970D01*
X58938298Y-33726654D01*
X58908311Y-33763191D01*
X58871774Y-33793178D01*
X58830090Y-33815458D01*
X58784861Y-33829178D01*
X58731435Y-33834440D01*
X57777685Y-33834440D01*
X57724259Y-33829178D01*
X57679030Y-33815458D01*
X57637346Y-33793178D01*
X57600809Y-33763191D01*
X57570822Y-33726654D01*
X57548542Y-33684970D01*
X57534822Y-33639741D01*
X57529560Y-33586315D01*
X57529560Y-32382565D01*
X57534822Y-32329139D01*
X57548542Y-32283910D01*
X57570822Y-32242226D01*
X57600809Y-32205689D01*
X57637346Y-32175702D01*
X57679030Y-32153422D01*
X57724259Y-32139702D01*
X57777685Y-32134440D01*
X58731435Y-32134440D01*
X58784861Y-32139702D01*
X58784861Y-32139702D01*
G37*
G36*
X56734861Y-32139702D02*
G01*
X56780090Y-32153422D01*
X56821774Y-32175702D01*
X56858311Y-32205689D01*
X56888298Y-32242226D01*
X56910578Y-32283910D01*
X56924298Y-32329139D01*
X56929560Y-32382565D01*
X56929560Y-33586315D01*
X56924298Y-33639741D01*
X56910578Y-33684970D01*
X56888298Y-33726654D01*
X56858311Y-33763191D01*
X56821774Y-33793178D01*
X56780090Y-33815458D01*
X56734861Y-33829178D01*
X56681435Y-33834440D01*
X55727685Y-33834440D01*
X55674259Y-33829178D01*
X55629030Y-33815458D01*
X55587346Y-33793178D01*
X55550809Y-33763191D01*
X55520822Y-33726654D01*
X55498542Y-33684970D01*
X55484822Y-33639741D01*
X55479560Y-33586315D01*
X55479560Y-32382565D01*
X55484822Y-32329139D01*
X55498542Y-32283910D01*
X55520822Y-32242226D01*
X55550809Y-32205689D01*
X55587346Y-32175702D01*
X55629030Y-32153422D01*
X55674259Y-32139702D01*
X55727685Y-32134440D01*
X56681435Y-32134440D01*
X56734861Y-32139702D01*
X56734861Y-32139702D01*
G37*
G36*
X77040800Y-33801560D02*
G01*
X75040800Y-33801560D01*
X75040800Y-31801560D01*
X77040800Y-31801560D01*
X77040800Y-33801560D01*
X77040800Y-33801560D01*
G37*
M02*
