G04 #@! TF.GenerationSoftware,KiCad,Pcbnew,(5.1.4)-1*
G04 #@! TF.CreationDate,2020-10-15T03:44:07+01:00*
G04 #@! TF.ProjectId,buffer,62756666-6572-42e6-9b69-6361645f7063,rev?*
G04 #@! TF.SameCoordinates,Original*
G04 #@! TF.FileFunction,Soldermask,Bot*
G04 #@! TF.FilePolarity,Negative*
%FSLAX46Y46*%
G04 Gerber Fmt 4.6, Leading zero omitted, Abs format (unit mm)*
G04 Created by KiCad (PCBNEW (5.1.4)-1) date 2020-10-15 03:44:07*
%MOMM*%
%LPD*%
G04 APERTURE LIST*
%ADD10C,0.100000*%
G04 APERTURE END LIST*
D10*
G36*
X40549836Y-46090830D02*
G01*
X40738332Y-46148009D01*
X40912058Y-46240868D01*
X41064328Y-46365832D01*
X41189292Y-46518102D01*
X41282151Y-46691828D01*
X41339330Y-46880324D01*
X41358638Y-47076360D01*
X41339330Y-47272396D01*
X41282151Y-47460892D01*
X41189292Y-47634618D01*
X41064328Y-47786888D01*
X40912058Y-47911852D01*
X40738332Y-48004711D01*
X40549836Y-48061890D01*
X40402920Y-48076360D01*
X40304680Y-48076360D01*
X40157764Y-48061890D01*
X39969268Y-48004711D01*
X39795542Y-47911852D01*
X39643272Y-47786888D01*
X39518308Y-47634618D01*
X39425449Y-47460892D01*
X39368270Y-47272396D01*
X39348962Y-47076360D01*
X39368270Y-46880324D01*
X39425449Y-46691828D01*
X39518308Y-46518102D01*
X39643272Y-46365832D01*
X39795542Y-46240868D01*
X39969268Y-46148009D01*
X40157764Y-46090830D01*
X40304680Y-46076360D01*
X40402920Y-46076360D01*
X40549836Y-46090830D01*
X40549836Y-46090830D01*
G37*
G36*
X38009836Y-46090830D02*
G01*
X38198332Y-46148009D01*
X38372058Y-46240868D01*
X38524328Y-46365832D01*
X38649292Y-46518102D01*
X38742151Y-46691828D01*
X38799330Y-46880324D01*
X38818638Y-47076360D01*
X38799330Y-47272396D01*
X38742151Y-47460892D01*
X38649292Y-47634618D01*
X38524328Y-47786888D01*
X38372058Y-47911852D01*
X38198332Y-48004711D01*
X38009836Y-48061890D01*
X37862920Y-48076360D01*
X37764680Y-48076360D01*
X37617764Y-48061890D01*
X37429268Y-48004711D01*
X37255542Y-47911852D01*
X37103272Y-47786888D01*
X36978308Y-47634618D01*
X36885449Y-47460892D01*
X36828270Y-47272396D01*
X36808962Y-47076360D01*
X36828270Y-46880324D01*
X36885449Y-46691828D01*
X36978308Y-46518102D01*
X37103272Y-46365832D01*
X37255542Y-46240868D01*
X37429268Y-46148009D01*
X37617764Y-46090830D01*
X37764680Y-46076360D01*
X37862920Y-46076360D01*
X38009836Y-46090830D01*
X38009836Y-46090830D01*
G37*
G36*
X66813436Y-44744630D02*
G01*
X67001932Y-44801809D01*
X67175658Y-44894668D01*
X67327928Y-45019632D01*
X67452892Y-45171902D01*
X67545751Y-45345628D01*
X67602930Y-45534124D01*
X67622238Y-45730160D01*
X67602930Y-45926196D01*
X67545751Y-46114692D01*
X67452892Y-46288418D01*
X67327928Y-46440688D01*
X67175658Y-46565652D01*
X67001932Y-46658511D01*
X66813436Y-46715690D01*
X66666520Y-46730160D01*
X66568280Y-46730160D01*
X66421364Y-46715690D01*
X66232868Y-46658511D01*
X66059142Y-46565652D01*
X65906872Y-46440688D01*
X65781908Y-46288418D01*
X65689049Y-46114692D01*
X65631870Y-45926196D01*
X65612562Y-45730160D01*
X65631870Y-45534124D01*
X65689049Y-45345628D01*
X65781908Y-45171902D01*
X65906872Y-45019632D01*
X66059142Y-44894668D01*
X66232868Y-44801809D01*
X66421364Y-44744630D01*
X66568280Y-44730160D01*
X66666520Y-44730160D01*
X66813436Y-44744630D01*
X66813436Y-44744630D01*
G37*
G36*
X59972800Y-46629360D02*
G01*
X58072800Y-46629360D01*
X58072800Y-44729360D01*
X59972800Y-44729360D01*
X59972800Y-46629360D01*
X59972800Y-46629360D01*
G37*
G36*
X57128000Y-46629360D02*
G01*
X55228000Y-46629360D01*
X55228000Y-44729360D01*
X57128000Y-44729360D01*
X57128000Y-46629360D01*
X57128000Y-46629360D01*
G37*
G36*
X77033180Y-46504100D02*
G01*
X75033180Y-46504100D01*
X75033180Y-44504100D01*
X77033180Y-44504100D01*
X77033180Y-46504100D01*
X77033180Y-46504100D01*
G37*
G36*
X38009836Y-43550830D02*
G01*
X38198332Y-43608009D01*
X38372058Y-43700868D01*
X38524328Y-43825832D01*
X38649292Y-43978102D01*
X38742151Y-44151828D01*
X38799330Y-44340324D01*
X38818638Y-44536360D01*
X38799330Y-44732396D01*
X38742151Y-44920892D01*
X38649292Y-45094618D01*
X38524328Y-45246888D01*
X38372058Y-45371852D01*
X38198332Y-45464711D01*
X38009836Y-45521890D01*
X37862920Y-45536360D01*
X37764680Y-45536360D01*
X37617764Y-45521890D01*
X37429268Y-45464711D01*
X37255542Y-45371852D01*
X37103272Y-45246888D01*
X36978308Y-45094618D01*
X36885449Y-44920892D01*
X36828270Y-44732396D01*
X36808962Y-44536360D01*
X36828270Y-44340324D01*
X36885449Y-44151828D01*
X36978308Y-43978102D01*
X37103272Y-43825832D01*
X37255542Y-43700868D01*
X37429268Y-43608009D01*
X37617764Y-43550830D01*
X37764680Y-43536360D01*
X37862920Y-43536360D01*
X38009836Y-43550830D01*
X38009836Y-43550830D01*
G37*
G36*
X40549836Y-43550830D02*
G01*
X40738332Y-43608009D01*
X40912058Y-43700868D01*
X41064328Y-43825832D01*
X41189292Y-43978102D01*
X41282151Y-44151828D01*
X41339330Y-44340324D01*
X41358638Y-44536360D01*
X41339330Y-44732396D01*
X41282151Y-44920892D01*
X41189292Y-45094618D01*
X41064328Y-45246888D01*
X40912058Y-45371852D01*
X40738332Y-45464711D01*
X40549836Y-45521890D01*
X40402920Y-45536360D01*
X40304680Y-45536360D01*
X40157764Y-45521890D01*
X39969268Y-45464711D01*
X39795542Y-45371852D01*
X39643272Y-45246888D01*
X39518308Y-45094618D01*
X39425449Y-44920892D01*
X39368270Y-44732396D01*
X39348962Y-44536360D01*
X39368270Y-44340324D01*
X39425449Y-44151828D01*
X39518308Y-43978102D01*
X39643272Y-43825832D01*
X39795542Y-43700868D01*
X39969268Y-43608009D01*
X40157764Y-43550830D01*
X40304680Y-43536360D01*
X40402920Y-43536360D01*
X40549836Y-43550830D01*
X40549836Y-43550830D01*
G37*
G36*
X81502000Y-45180960D02*
G01*
X77702000Y-45180960D01*
X77702000Y-33220960D01*
X81502000Y-33220960D01*
X81502000Y-45180960D01*
X81502000Y-45180960D01*
G37*
G36*
X66813436Y-42204630D02*
G01*
X67001932Y-42261809D01*
X67175658Y-42354668D01*
X67327928Y-42479632D01*
X67452892Y-42631902D01*
X67545751Y-42805628D01*
X67602930Y-42994124D01*
X67622238Y-43190160D01*
X67602930Y-43386196D01*
X67545751Y-43574692D01*
X67452892Y-43748418D01*
X67327928Y-43900688D01*
X67175658Y-44025652D01*
X67001932Y-44118511D01*
X66813436Y-44175690D01*
X66666520Y-44190160D01*
X66568280Y-44190160D01*
X66421364Y-44175690D01*
X66232868Y-44118511D01*
X66059142Y-44025652D01*
X65906872Y-43900688D01*
X65781908Y-43748418D01*
X65689049Y-43574692D01*
X65631870Y-43386196D01*
X65612562Y-43190160D01*
X65631870Y-42994124D01*
X65689049Y-42805628D01*
X65781908Y-42631902D01*
X65906872Y-42479632D01*
X66059142Y-42354668D01*
X66232868Y-42261809D01*
X66421364Y-42204630D01*
X66568280Y-42190160D01*
X66666520Y-42190160D01*
X66813436Y-42204630D01*
X66813436Y-42204630D01*
G37*
G36*
X59209033Y-42203106D02*
G01*
X59298570Y-42230267D01*
X59388108Y-42257428D01*
X59553145Y-42345642D01*
X59697801Y-42464359D01*
X59816518Y-42609015D01*
X59904732Y-42774052D01*
X59959054Y-42953128D01*
X59977396Y-43139360D01*
X59959054Y-43325592D01*
X59904732Y-43504668D01*
X59816518Y-43669705D01*
X59697801Y-43814361D01*
X59553145Y-43933078D01*
X59388108Y-44021292D01*
X59298570Y-44048453D01*
X59209033Y-44075614D01*
X59069465Y-44089360D01*
X58976135Y-44089360D01*
X58836567Y-44075614D01*
X58747030Y-44048453D01*
X58657492Y-44021292D01*
X58492455Y-43933078D01*
X58347799Y-43814361D01*
X58229082Y-43669705D01*
X58140868Y-43504668D01*
X58086546Y-43325592D01*
X58068204Y-43139360D01*
X58086546Y-42953128D01*
X58140868Y-42774052D01*
X58229082Y-42609015D01*
X58347799Y-42464359D01*
X58492455Y-42345642D01*
X58657492Y-42257428D01*
X58747030Y-42230267D01*
X58836567Y-42203106D01*
X58976135Y-42189360D01*
X59069465Y-42189360D01*
X59209033Y-42203106D01*
X59209033Y-42203106D01*
G37*
G36*
X56364233Y-42203106D02*
G01*
X56453770Y-42230267D01*
X56543308Y-42257428D01*
X56708345Y-42345642D01*
X56853001Y-42464359D01*
X56971718Y-42609015D01*
X57059932Y-42774052D01*
X57114254Y-42953128D01*
X57132596Y-43139360D01*
X57114254Y-43325592D01*
X57059932Y-43504668D01*
X56971718Y-43669705D01*
X56853001Y-43814361D01*
X56708345Y-43933078D01*
X56543308Y-44021292D01*
X56453770Y-44048453D01*
X56364233Y-44075614D01*
X56224665Y-44089360D01*
X56131335Y-44089360D01*
X55991767Y-44075614D01*
X55902230Y-44048453D01*
X55812692Y-44021292D01*
X55647655Y-43933078D01*
X55502999Y-43814361D01*
X55384282Y-43669705D01*
X55296068Y-43504668D01*
X55241746Y-43325592D01*
X55223404Y-43139360D01*
X55241746Y-42953128D01*
X55296068Y-42774052D01*
X55384282Y-42609015D01*
X55502999Y-42464359D01*
X55647655Y-42345642D01*
X55812692Y-42257428D01*
X55902230Y-42230267D01*
X55991767Y-42203106D01*
X56131335Y-42189360D01*
X56224665Y-42189360D01*
X56364233Y-42203106D01*
X56364233Y-42203106D01*
G37*
G36*
X40549836Y-41010830D02*
G01*
X40738332Y-41068009D01*
X40912058Y-41160868D01*
X41064328Y-41285832D01*
X41189292Y-41438102D01*
X41282151Y-41611828D01*
X41339330Y-41800324D01*
X41358638Y-41996360D01*
X41339330Y-42192396D01*
X41282151Y-42380892D01*
X41189292Y-42554618D01*
X41064328Y-42706888D01*
X40912058Y-42831852D01*
X40738332Y-42924711D01*
X40549836Y-42981890D01*
X40402920Y-42996360D01*
X40304680Y-42996360D01*
X40157764Y-42981890D01*
X39969268Y-42924711D01*
X39795542Y-42831852D01*
X39643272Y-42706888D01*
X39518308Y-42554618D01*
X39425449Y-42380892D01*
X39368270Y-42192396D01*
X39348962Y-41996360D01*
X39368270Y-41800324D01*
X39425449Y-41611828D01*
X39518308Y-41438102D01*
X39643272Y-41285832D01*
X39795542Y-41160868D01*
X39969268Y-41068009D01*
X40157764Y-41010830D01*
X40304680Y-40996360D01*
X40402920Y-40996360D01*
X40549836Y-41010830D01*
X40549836Y-41010830D01*
G37*
G36*
X38009836Y-41010830D02*
G01*
X38198332Y-41068009D01*
X38372058Y-41160868D01*
X38524328Y-41285832D01*
X38649292Y-41438102D01*
X38742151Y-41611828D01*
X38799330Y-41800324D01*
X38818638Y-41996360D01*
X38799330Y-42192396D01*
X38742151Y-42380892D01*
X38649292Y-42554618D01*
X38524328Y-42706888D01*
X38372058Y-42831852D01*
X38198332Y-42924711D01*
X38009836Y-42981890D01*
X37862920Y-42996360D01*
X37764680Y-42996360D01*
X37617764Y-42981890D01*
X37429268Y-42924711D01*
X37255542Y-42831852D01*
X37103272Y-42706888D01*
X36978308Y-42554618D01*
X36885449Y-42380892D01*
X36828270Y-42192396D01*
X36808962Y-41996360D01*
X36828270Y-41800324D01*
X36885449Y-41611828D01*
X36978308Y-41438102D01*
X37103272Y-41285832D01*
X37255542Y-41160868D01*
X37429268Y-41068009D01*
X37617764Y-41010830D01*
X37764680Y-40996360D01*
X37862920Y-40996360D01*
X38009836Y-41010830D01*
X38009836Y-41010830D01*
G37*
G36*
X66813436Y-39664630D02*
G01*
X67001932Y-39721809D01*
X67175658Y-39814668D01*
X67327928Y-39939632D01*
X67452892Y-40091902D01*
X67545751Y-40265628D01*
X67602930Y-40454124D01*
X67622238Y-40650160D01*
X67602930Y-40846196D01*
X67545751Y-41034692D01*
X67452892Y-41208418D01*
X67327928Y-41360688D01*
X67175658Y-41485652D01*
X67001932Y-41578511D01*
X66813436Y-41635690D01*
X66666520Y-41650160D01*
X66568280Y-41650160D01*
X66421364Y-41635690D01*
X66232868Y-41578511D01*
X66059142Y-41485652D01*
X65906872Y-41360688D01*
X65781908Y-41208418D01*
X65689049Y-41034692D01*
X65631870Y-40846196D01*
X65612562Y-40650160D01*
X65631870Y-40454124D01*
X65689049Y-40265628D01*
X65781908Y-40091902D01*
X65906872Y-39939632D01*
X66059142Y-39814668D01*
X66232868Y-39721809D01*
X66421364Y-39664630D01*
X66568280Y-39650160D01*
X66666520Y-39650160D01*
X66813436Y-39664630D01*
X66813436Y-39664630D01*
G37*
G36*
X59209033Y-39663106D02*
G01*
X59298570Y-39690267D01*
X59388108Y-39717428D01*
X59553145Y-39805642D01*
X59697801Y-39924359D01*
X59816518Y-40069015D01*
X59904732Y-40234052D01*
X59959054Y-40413128D01*
X59977396Y-40599360D01*
X59959054Y-40785592D01*
X59904732Y-40964668D01*
X59816518Y-41129705D01*
X59697801Y-41274361D01*
X59553145Y-41393078D01*
X59388108Y-41481292D01*
X59298570Y-41508453D01*
X59209033Y-41535614D01*
X59069465Y-41549360D01*
X58976135Y-41549360D01*
X58836567Y-41535614D01*
X58747030Y-41508453D01*
X58657492Y-41481292D01*
X58492455Y-41393078D01*
X58347799Y-41274361D01*
X58229082Y-41129705D01*
X58140868Y-40964668D01*
X58086546Y-40785592D01*
X58068204Y-40599360D01*
X58086546Y-40413128D01*
X58140868Y-40234052D01*
X58229082Y-40069015D01*
X58347799Y-39924359D01*
X58492455Y-39805642D01*
X58657492Y-39717428D01*
X58747030Y-39690267D01*
X58836567Y-39663106D01*
X58976135Y-39649360D01*
X59069465Y-39649360D01*
X59209033Y-39663106D01*
X59209033Y-39663106D01*
G37*
G36*
X56364233Y-39663106D02*
G01*
X56453770Y-39690267D01*
X56543308Y-39717428D01*
X56708345Y-39805642D01*
X56853001Y-39924359D01*
X56971718Y-40069015D01*
X57059932Y-40234052D01*
X57114254Y-40413128D01*
X57132596Y-40599360D01*
X57114254Y-40785592D01*
X57059932Y-40964668D01*
X56971718Y-41129705D01*
X56853001Y-41274361D01*
X56708345Y-41393078D01*
X56543308Y-41481292D01*
X56453770Y-41508453D01*
X56364233Y-41535614D01*
X56224665Y-41549360D01*
X56131335Y-41549360D01*
X55991767Y-41535614D01*
X55902230Y-41508453D01*
X55812692Y-41481292D01*
X55647655Y-41393078D01*
X55502999Y-41274361D01*
X55384282Y-41129705D01*
X55296068Y-40964668D01*
X55241746Y-40785592D01*
X55223404Y-40599360D01*
X55241746Y-40413128D01*
X55296068Y-40234052D01*
X55384282Y-40069015D01*
X55502999Y-39924359D01*
X55647655Y-39805642D01*
X55812692Y-39717428D01*
X55902230Y-39690267D01*
X55991767Y-39663106D01*
X56131335Y-39649360D01*
X56224665Y-39649360D01*
X56364233Y-39663106D01*
X56364233Y-39663106D01*
G37*
G36*
X40549836Y-38470830D02*
G01*
X40738332Y-38528009D01*
X40912058Y-38620868D01*
X41064328Y-38745832D01*
X41189292Y-38898102D01*
X41282151Y-39071828D01*
X41339330Y-39260324D01*
X41358638Y-39456360D01*
X41339330Y-39652396D01*
X41282151Y-39840892D01*
X41189292Y-40014618D01*
X41064328Y-40166888D01*
X40912058Y-40291852D01*
X40738332Y-40384711D01*
X40549836Y-40441890D01*
X40402920Y-40456360D01*
X40304680Y-40456360D01*
X40157764Y-40441890D01*
X39969268Y-40384711D01*
X39795542Y-40291852D01*
X39643272Y-40166888D01*
X39518308Y-40014618D01*
X39425449Y-39840892D01*
X39368270Y-39652396D01*
X39348962Y-39456360D01*
X39368270Y-39260324D01*
X39425449Y-39071828D01*
X39518308Y-38898102D01*
X39643272Y-38745832D01*
X39795542Y-38620868D01*
X39969268Y-38528009D01*
X40157764Y-38470830D01*
X40304680Y-38456360D01*
X40402920Y-38456360D01*
X40549836Y-38470830D01*
X40549836Y-38470830D01*
G37*
G36*
X38009836Y-38470830D02*
G01*
X38198332Y-38528009D01*
X38372058Y-38620868D01*
X38524328Y-38745832D01*
X38649292Y-38898102D01*
X38742151Y-39071828D01*
X38799330Y-39260324D01*
X38818638Y-39456360D01*
X38799330Y-39652396D01*
X38742151Y-39840892D01*
X38649292Y-40014618D01*
X38524328Y-40166888D01*
X38372058Y-40291852D01*
X38198332Y-40384711D01*
X38009836Y-40441890D01*
X37862920Y-40456360D01*
X37764680Y-40456360D01*
X37617764Y-40441890D01*
X37429268Y-40384711D01*
X37255542Y-40291852D01*
X37103272Y-40166888D01*
X36978308Y-40014618D01*
X36885449Y-39840892D01*
X36828270Y-39652396D01*
X36808962Y-39456360D01*
X36828270Y-39260324D01*
X36885449Y-39071828D01*
X36978308Y-38898102D01*
X37103272Y-38745832D01*
X37255542Y-38620868D01*
X37429268Y-38528009D01*
X37617764Y-38470830D01*
X37764680Y-38456360D01*
X37862920Y-38456360D01*
X38009836Y-38470830D01*
X38009836Y-38470830D01*
G37*
G36*
X67617400Y-39110160D02*
G01*
X65617400Y-39110160D01*
X65617400Y-37110160D01*
X67617400Y-37110160D01*
X67617400Y-39110160D01*
X67617400Y-39110160D01*
G37*
G36*
X56364233Y-37123106D02*
G01*
X56453770Y-37150267D01*
X56543308Y-37177428D01*
X56708345Y-37265642D01*
X56853001Y-37384359D01*
X56971718Y-37529015D01*
X57059932Y-37694052D01*
X57114254Y-37873128D01*
X57132596Y-38059360D01*
X57114254Y-38245592D01*
X57059932Y-38424668D01*
X56971718Y-38589705D01*
X56853001Y-38734361D01*
X56708345Y-38853078D01*
X56543308Y-38941292D01*
X56453770Y-38968453D01*
X56364233Y-38995614D01*
X56224665Y-39009360D01*
X56131335Y-39009360D01*
X55991767Y-38995614D01*
X55902230Y-38968453D01*
X55812692Y-38941292D01*
X55647655Y-38853078D01*
X55502999Y-38734361D01*
X55384282Y-38589705D01*
X55296068Y-38424668D01*
X55241746Y-38245592D01*
X55223404Y-38059360D01*
X55241746Y-37873128D01*
X55296068Y-37694052D01*
X55384282Y-37529015D01*
X55502999Y-37384359D01*
X55647655Y-37265642D01*
X55812692Y-37177428D01*
X55902230Y-37150267D01*
X55991767Y-37123106D01*
X56131335Y-37109360D01*
X56224665Y-37109360D01*
X56364233Y-37123106D01*
X56364233Y-37123106D01*
G37*
G36*
X59209033Y-37123106D02*
G01*
X59298570Y-37150267D01*
X59388108Y-37177428D01*
X59553145Y-37265642D01*
X59697801Y-37384359D01*
X59816518Y-37529015D01*
X59904732Y-37694052D01*
X59959054Y-37873128D01*
X59977396Y-38059360D01*
X59959054Y-38245592D01*
X59904732Y-38424668D01*
X59816518Y-38589705D01*
X59697801Y-38734361D01*
X59553145Y-38853078D01*
X59388108Y-38941292D01*
X59298570Y-38968453D01*
X59209033Y-38995614D01*
X59069465Y-39009360D01*
X58976135Y-39009360D01*
X58836567Y-38995614D01*
X58747030Y-38968453D01*
X58657492Y-38941292D01*
X58492455Y-38853078D01*
X58347799Y-38734361D01*
X58229082Y-38589705D01*
X58140868Y-38424668D01*
X58086546Y-38245592D01*
X58068204Y-38059360D01*
X58086546Y-37873128D01*
X58140868Y-37694052D01*
X58229082Y-37529015D01*
X58347799Y-37384359D01*
X58492455Y-37265642D01*
X58657492Y-37177428D01*
X58747030Y-37150267D01*
X58836567Y-37123106D01*
X58976135Y-37109360D01*
X59069465Y-37109360D01*
X59209033Y-37123106D01*
X59209033Y-37123106D01*
G37*
G36*
X40549836Y-35930830D02*
G01*
X40738332Y-35988009D01*
X40912058Y-36080868D01*
X41064328Y-36205832D01*
X41189292Y-36358102D01*
X41282151Y-36531828D01*
X41339330Y-36720324D01*
X41358638Y-36916360D01*
X41339330Y-37112396D01*
X41282151Y-37300892D01*
X41189292Y-37474618D01*
X41064328Y-37626888D01*
X40912058Y-37751852D01*
X40738332Y-37844711D01*
X40549836Y-37901890D01*
X40402920Y-37916360D01*
X40304680Y-37916360D01*
X40157764Y-37901890D01*
X39969268Y-37844711D01*
X39795542Y-37751852D01*
X39643272Y-37626888D01*
X39518308Y-37474618D01*
X39425449Y-37300892D01*
X39368270Y-37112396D01*
X39348962Y-36916360D01*
X39368270Y-36720324D01*
X39425449Y-36531828D01*
X39518308Y-36358102D01*
X39643272Y-36205832D01*
X39795542Y-36080868D01*
X39969268Y-35988009D01*
X40157764Y-35930830D01*
X40304680Y-35916360D01*
X40402920Y-35916360D01*
X40549836Y-35930830D01*
X40549836Y-35930830D01*
G37*
G36*
X38009836Y-35930830D02*
G01*
X38198332Y-35988009D01*
X38372058Y-36080868D01*
X38524328Y-36205832D01*
X38649292Y-36358102D01*
X38742151Y-36531828D01*
X38799330Y-36720324D01*
X38818638Y-36916360D01*
X38799330Y-37112396D01*
X38742151Y-37300892D01*
X38649292Y-37474618D01*
X38524328Y-37626888D01*
X38372058Y-37751852D01*
X38198332Y-37844711D01*
X38009836Y-37901890D01*
X37862920Y-37916360D01*
X37764680Y-37916360D01*
X37617764Y-37901890D01*
X37429268Y-37844711D01*
X37255542Y-37751852D01*
X37103272Y-37626888D01*
X36978308Y-37474618D01*
X36885449Y-37300892D01*
X36828270Y-37112396D01*
X36808962Y-36916360D01*
X36828270Y-36720324D01*
X36885449Y-36531828D01*
X36978308Y-36358102D01*
X37103272Y-36205832D01*
X37255542Y-36080868D01*
X37429268Y-35988009D01*
X37617764Y-35930830D01*
X37764680Y-35916360D01*
X37862920Y-35916360D01*
X38009836Y-35930830D01*
X38009836Y-35930830D01*
G37*
G36*
X56364233Y-34583106D02*
G01*
X56453770Y-34610267D01*
X56543308Y-34637428D01*
X56708345Y-34725642D01*
X56853001Y-34844359D01*
X56971718Y-34989015D01*
X57059932Y-35154052D01*
X57114254Y-35333128D01*
X57132596Y-35519360D01*
X57114254Y-35705592D01*
X57059932Y-35884668D01*
X56971718Y-36049705D01*
X56853001Y-36194361D01*
X56708345Y-36313078D01*
X56543308Y-36401292D01*
X56453770Y-36428453D01*
X56364233Y-36455614D01*
X56224665Y-36469360D01*
X56131335Y-36469360D01*
X55991767Y-36455614D01*
X55902230Y-36428453D01*
X55812692Y-36401292D01*
X55647655Y-36313078D01*
X55502999Y-36194361D01*
X55384282Y-36049705D01*
X55296068Y-35884668D01*
X55241746Y-35705592D01*
X55223404Y-35519360D01*
X55241746Y-35333128D01*
X55296068Y-35154052D01*
X55384282Y-34989015D01*
X55502999Y-34844359D01*
X55647655Y-34725642D01*
X55812692Y-34637428D01*
X55902230Y-34610267D01*
X55991767Y-34583106D01*
X56131335Y-34569360D01*
X56224665Y-34569360D01*
X56364233Y-34583106D01*
X56364233Y-34583106D01*
G37*
G36*
X59209033Y-34583106D02*
G01*
X59298570Y-34610267D01*
X59388108Y-34637428D01*
X59553145Y-34725642D01*
X59697801Y-34844359D01*
X59816518Y-34989015D01*
X59904732Y-35154052D01*
X59959054Y-35333128D01*
X59977396Y-35519360D01*
X59959054Y-35705592D01*
X59904732Y-35884668D01*
X59816518Y-36049705D01*
X59697801Y-36194361D01*
X59553145Y-36313078D01*
X59388108Y-36401292D01*
X59298570Y-36428453D01*
X59209033Y-36455614D01*
X59069465Y-36469360D01*
X58976135Y-36469360D01*
X58836567Y-36455614D01*
X58747030Y-36428453D01*
X58657492Y-36401292D01*
X58492455Y-36313078D01*
X58347799Y-36194361D01*
X58229082Y-36049705D01*
X58140868Y-35884668D01*
X58086546Y-35705592D01*
X58068204Y-35519360D01*
X58086546Y-35333128D01*
X58140868Y-35154052D01*
X58229082Y-34989015D01*
X58347799Y-34844359D01*
X58492455Y-34725642D01*
X58657492Y-34637428D01*
X58747030Y-34610267D01*
X58836567Y-34583106D01*
X58976135Y-34569360D01*
X59069465Y-34569360D01*
X59209033Y-34583106D01*
X59209033Y-34583106D01*
G37*
G36*
X38009836Y-33390830D02*
G01*
X38198332Y-33448009D01*
X38372058Y-33540868D01*
X38524328Y-33665832D01*
X38649292Y-33818102D01*
X38742151Y-33991828D01*
X38799330Y-34180324D01*
X38818638Y-34376360D01*
X38799330Y-34572396D01*
X38742151Y-34760892D01*
X38649292Y-34934618D01*
X38524328Y-35086888D01*
X38372058Y-35211852D01*
X38198332Y-35304711D01*
X38009836Y-35361890D01*
X37862920Y-35376360D01*
X37764680Y-35376360D01*
X37617764Y-35361890D01*
X37429268Y-35304711D01*
X37255542Y-35211852D01*
X37103272Y-35086888D01*
X36978308Y-34934618D01*
X36885449Y-34760892D01*
X36828270Y-34572396D01*
X36808962Y-34376360D01*
X36828270Y-34180324D01*
X36885449Y-33991828D01*
X36978308Y-33818102D01*
X37103272Y-33665832D01*
X37255542Y-33540868D01*
X37429268Y-33448009D01*
X37617764Y-33390830D01*
X37764680Y-33376360D01*
X37862920Y-33376360D01*
X38009836Y-33390830D01*
X38009836Y-33390830D01*
G37*
G36*
X41353800Y-35376360D02*
G01*
X39353800Y-35376360D01*
X39353800Y-33376360D01*
X41353800Y-33376360D01*
X41353800Y-35376360D01*
X41353800Y-35376360D01*
G37*
G36*
X77040800Y-33801560D02*
G01*
X75040800Y-33801560D01*
X75040800Y-31801560D01*
X77040800Y-31801560D01*
X77040800Y-33801560D01*
X77040800Y-33801560D01*
G37*
M02*
