G04 #@! TF.GenerationSoftware,KiCad,Pcbnew,(5.1.4)-1*
G04 #@! TF.CreationDate,2019-12-07T15:53:33+00:00*
G04 #@! TF.ProjectId,analog,616e616c-6f67-42e6-9b69-6361645f7063,rev?*
G04 #@! TF.SameCoordinates,Original*
G04 #@! TF.FileFunction,Soldermask,Bot*
G04 #@! TF.FilePolarity,Negative*
%FSLAX46Y46*%
G04 Gerber Fmt 4.6, Leading zero omitted, Abs format (unit mm)*
G04 Created by KiCad (PCBNEW (5.1.4)-1) date 2019-12-07 15:53:33*
%MOMM*%
%LPD*%
G04 APERTURE LIST*
%ADD10C,0.100000*%
G04 APERTURE END LIST*
D10*
G36*
X77040800Y-47314360D02*
G01*
X75040800Y-47314360D01*
X75040800Y-45314360D01*
X77040800Y-45314360D01*
X77040800Y-47314360D01*
X77040800Y-47314360D01*
G37*
G36*
X66813436Y-44744630D02*
G01*
X67001932Y-44801809D01*
X67175658Y-44894668D01*
X67327928Y-45019632D01*
X67452892Y-45171902D01*
X67545751Y-45345628D01*
X67602930Y-45534124D01*
X67622238Y-45730160D01*
X67602930Y-45926196D01*
X67545751Y-46114692D01*
X67452892Y-46288418D01*
X67327928Y-46440688D01*
X67175658Y-46565652D01*
X67001932Y-46658511D01*
X66813436Y-46715690D01*
X66666520Y-46730160D01*
X66568280Y-46730160D01*
X66421364Y-46715690D01*
X66232868Y-46658511D01*
X66059142Y-46565652D01*
X65906872Y-46440688D01*
X65781908Y-46288418D01*
X65689049Y-46114692D01*
X65631870Y-45926196D01*
X65612562Y-45730160D01*
X65631870Y-45534124D01*
X65689049Y-45345628D01*
X65781908Y-45171902D01*
X65906872Y-45019632D01*
X66059142Y-44894668D01*
X66232868Y-44801809D01*
X66421364Y-44744630D01*
X66568280Y-44730160D01*
X66666520Y-44730160D01*
X66813436Y-44744630D01*
X66813436Y-44744630D01*
G37*
G36*
X40549836Y-43550830D02*
G01*
X40738332Y-43608009D01*
X40912058Y-43700868D01*
X41064328Y-43825832D01*
X41189292Y-43978102D01*
X41282151Y-44151828D01*
X41339330Y-44340324D01*
X41358638Y-44536360D01*
X41339330Y-44732396D01*
X41282151Y-44920892D01*
X41189292Y-45094618D01*
X41064328Y-45246888D01*
X40912058Y-45371852D01*
X40738332Y-45464711D01*
X40549836Y-45521890D01*
X40402920Y-45536360D01*
X40304680Y-45536360D01*
X40157764Y-45521890D01*
X39969268Y-45464711D01*
X39795542Y-45371852D01*
X39643272Y-45246888D01*
X39518308Y-45094618D01*
X39425449Y-44920892D01*
X39368270Y-44732396D01*
X39348962Y-44536360D01*
X39368270Y-44340324D01*
X39425449Y-44151828D01*
X39518308Y-43978102D01*
X39643272Y-43825832D01*
X39795542Y-43700868D01*
X39969268Y-43608009D01*
X40157764Y-43550830D01*
X40304680Y-43536360D01*
X40402920Y-43536360D01*
X40549836Y-43550830D01*
X40549836Y-43550830D01*
G37*
G36*
X38009836Y-43550830D02*
G01*
X38198332Y-43608009D01*
X38372058Y-43700868D01*
X38524328Y-43825832D01*
X38649292Y-43978102D01*
X38742151Y-44151828D01*
X38799330Y-44340324D01*
X38818638Y-44536360D01*
X38799330Y-44732396D01*
X38742151Y-44920892D01*
X38649292Y-45094618D01*
X38524328Y-45246888D01*
X38372058Y-45371852D01*
X38198332Y-45464711D01*
X38009836Y-45521890D01*
X37862920Y-45536360D01*
X37764680Y-45536360D01*
X37617764Y-45521890D01*
X37429268Y-45464711D01*
X37255542Y-45371852D01*
X37103272Y-45246888D01*
X36978308Y-45094618D01*
X36885449Y-44920892D01*
X36828270Y-44732396D01*
X36808962Y-44536360D01*
X36828270Y-44340324D01*
X36885449Y-44151828D01*
X36978308Y-43978102D01*
X37103272Y-43825832D01*
X37255542Y-43700868D01*
X37429268Y-43608009D01*
X37617764Y-43550830D01*
X37764680Y-43536360D01*
X37862920Y-43536360D01*
X38009836Y-43550830D01*
X38009836Y-43550830D01*
G37*
G36*
X72360020Y-37074718D02*
G01*
X72463693Y-37106167D01*
X72511468Y-37131704D01*
X72559242Y-37157239D01*
X72642990Y-37225970D01*
X72704478Y-37300892D01*
X72711720Y-37309717D01*
X72762793Y-37405267D01*
X72794242Y-37508940D01*
X72804861Y-37616760D01*
X72794242Y-37724580D01*
X72762793Y-37828253D01*
X72762792Y-37828254D01*
X72711721Y-37923802D01*
X72642990Y-38007550D01*
X72559242Y-38076281D01*
X72475371Y-38121111D01*
X72464145Y-38127111D01*
X72442956Y-38141269D01*
X72424935Y-38159289D01*
X72410777Y-38180479D01*
X72401025Y-38204023D01*
X72396053Y-38229018D01*
X72396053Y-38254502D01*
X72401025Y-38279497D01*
X72410777Y-38303041D01*
X72424935Y-38324230D01*
X72442955Y-38342251D01*
X72464145Y-38356409D01*
X72559242Y-38407239D01*
X72559244Y-38407240D01*
X72559243Y-38407240D01*
X72642990Y-38475970D01*
X72711720Y-38559717D01*
X72762793Y-38655267D01*
X72794242Y-38758940D01*
X72804861Y-38866760D01*
X72794242Y-38974580D01*
X72762793Y-39078253D01*
X72745738Y-39110160D01*
X72711721Y-39173802D01*
X72642990Y-39257550D01*
X72559242Y-39326281D01*
X72475371Y-39371111D01*
X72464145Y-39377111D01*
X72442956Y-39391269D01*
X72424935Y-39409289D01*
X72410777Y-39430479D01*
X72401025Y-39454023D01*
X72396053Y-39479018D01*
X72396053Y-39504502D01*
X72401025Y-39529497D01*
X72410777Y-39553041D01*
X72424935Y-39574230D01*
X72442955Y-39592251D01*
X72464145Y-39606409D01*
X72559242Y-39657239D01*
X72642990Y-39725970D01*
X72711721Y-39809718D01*
X72728384Y-39840892D01*
X72762793Y-39905267D01*
X72794242Y-40008940D01*
X72804861Y-40116760D01*
X72794242Y-40224580D01*
X72762793Y-40328253D01*
X72762792Y-40328254D01*
X72711721Y-40423802D01*
X72642990Y-40507550D01*
X72559242Y-40576281D01*
X72475371Y-40621111D01*
X72464145Y-40627111D01*
X72442956Y-40641269D01*
X72424935Y-40659289D01*
X72410777Y-40680479D01*
X72401025Y-40704023D01*
X72396053Y-40729018D01*
X72396053Y-40754502D01*
X72401025Y-40779497D01*
X72410777Y-40803041D01*
X72424935Y-40824230D01*
X72442955Y-40842251D01*
X72464145Y-40856409D01*
X72559242Y-40907239D01*
X72642990Y-40975970D01*
X72711721Y-41059718D01*
X72737256Y-41107492D01*
X72762793Y-41155267D01*
X72794242Y-41258940D01*
X72804861Y-41366760D01*
X72794242Y-41474580D01*
X72762793Y-41578253D01*
X72737256Y-41626028D01*
X72711721Y-41673802D01*
X72642990Y-41757550D01*
X72559242Y-41826281D01*
X72475371Y-41871111D01*
X72464145Y-41877111D01*
X72442956Y-41891269D01*
X72424935Y-41909289D01*
X72410777Y-41930479D01*
X72401025Y-41954023D01*
X72396053Y-41979018D01*
X72396053Y-42004502D01*
X72401025Y-42029497D01*
X72410777Y-42053041D01*
X72424935Y-42074230D01*
X72442955Y-42092251D01*
X72464145Y-42106409D01*
X72559242Y-42157239D01*
X72559244Y-42157240D01*
X72559243Y-42157240D01*
X72642990Y-42225970D01*
X72711720Y-42309717D01*
X72762793Y-42405267D01*
X72794242Y-42508940D01*
X72804861Y-42616760D01*
X72794242Y-42724580D01*
X72762793Y-42828253D01*
X72762792Y-42828254D01*
X72711721Y-42923802D01*
X72642990Y-43007550D01*
X72559242Y-43076281D01*
X72559240Y-43076282D01*
X72557333Y-43077847D01*
X72540232Y-43089274D01*
X72522211Y-43107295D01*
X72508053Y-43128484D01*
X72498301Y-43152028D01*
X72493329Y-43177023D01*
X72493329Y-43202507D01*
X72498301Y-43227502D01*
X72508053Y-43251046D01*
X72522211Y-43272235D01*
X72540232Y-43290256D01*
X72561421Y-43304414D01*
X72584965Y-43314166D01*
X72609959Y-43319138D01*
X72633048Y-43321412D01*
X72672322Y-43333326D01*
X72708521Y-43352675D01*
X72740248Y-43378712D01*
X72766285Y-43410439D01*
X72785634Y-43446638D01*
X72797548Y-43485913D01*
X72802200Y-43533146D01*
X72802200Y-44200374D01*
X72797548Y-44247607D01*
X72785634Y-44286882D01*
X72766285Y-44323081D01*
X72740248Y-44354808D01*
X72708521Y-44380845D01*
X72672322Y-44400194D01*
X72633047Y-44412108D01*
X72585814Y-44416760D01*
X71418586Y-44416760D01*
X71371353Y-44412108D01*
X71332078Y-44400194D01*
X71295879Y-44380845D01*
X71264152Y-44354808D01*
X71238115Y-44323081D01*
X71218766Y-44286882D01*
X71206852Y-44247607D01*
X71202200Y-44200374D01*
X71202200Y-43533146D01*
X71206852Y-43485913D01*
X71218766Y-43446638D01*
X71238115Y-43410439D01*
X71264152Y-43378712D01*
X71295879Y-43352675D01*
X71332078Y-43333326D01*
X71371352Y-43321412D01*
X71394441Y-43319138D01*
X71419435Y-43314166D01*
X71442980Y-43304414D01*
X71464169Y-43290255D01*
X71482189Y-43272235D01*
X71496347Y-43251046D01*
X71506099Y-43227501D01*
X71511071Y-43202507D01*
X71511071Y-43177022D01*
X71506099Y-43152028D01*
X71496347Y-43128483D01*
X71482188Y-43107294D01*
X71464168Y-43089274D01*
X71447067Y-43077847D01*
X71445160Y-43076282D01*
X71445158Y-43076281D01*
X71361410Y-43007550D01*
X71292679Y-42923802D01*
X71241608Y-42828254D01*
X71241607Y-42828253D01*
X71210158Y-42724580D01*
X71199539Y-42616760D01*
X71210158Y-42508940D01*
X71241607Y-42405267D01*
X71292680Y-42309717D01*
X71361410Y-42225970D01*
X71445157Y-42157240D01*
X71445156Y-42157240D01*
X71445158Y-42157239D01*
X71540255Y-42106409D01*
X71561444Y-42092251D01*
X71579465Y-42074231D01*
X71593623Y-42053041D01*
X71603375Y-42029497D01*
X71608347Y-42004502D01*
X71608347Y-41979018D01*
X71603375Y-41954023D01*
X71593623Y-41930479D01*
X71579465Y-41909290D01*
X71561445Y-41891269D01*
X71540255Y-41877111D01*
X71529029Y-41871111D01*
X71445158Y-41826281D01*
X71361410Y-41757550D01*
X71292679Y-41673802D01*
X71267144Y-41626028D01*
X71241607Y-41578253D01*
X71210158Y-41474580D01*
X71199539Y-41366760D01*
X71210158Y-41258940D01*
X71241607Y-41155267D01*
X71267144Y-41107492D01*
X71292679Y-41059718D01*
X71361410Y-40975970D01*
X71445158Y-40907239D01*
X71540255Y-40856409D01*
X71561444Y-40842251D01*
X71579465Y-40824231D01*
X71593623Y-40803041D01*
X71603375Y-40779497D01*
X71608347Y-40754502D01*
X71608347Y-40729018D01*
X71603375Y-40704023D01*
X71593623Y-40680479D01*
X71579465Y-40659290D01*
X71561445Y-40641269D01*
X71540255Y-40627111D01*
X71529029Y-40621111D01*
X71445158Y-40576281D01*
X71361410Y-40507550D01*
X71292679Y-40423802D01*
X71241608Y-40328254D01*
X71241607Y-40328253D01*
X71210158Y-40224580D01*
X71199539Y-40116760D01*
X71210158Y-40008940D01*
X71241607Y-39905267D01*
X71276016Y-39840892D01*
X71292679Y-39809718D01*
X71361410Y-39725970D01*
X71445158Y-39657239D01*
X71540255Y-39606409D01*
X71561444Y-39592251D01*
X71579465Y-39574231D01*
X71593623Y-39553041D01*
X71603375Y-39529497D01*
X71608347Y-39504502D01*
X71608347Y-39479018D01*
X71603375Y-39454023D01*
X71593623Y-39430479D01*
X71579465Y-39409290D01*
X71561445Y-39391269D01*
X71540255Y-39377111D01*
X71529029Y-39371111D01*
X71445158Y-39326281D01*
X71361410Y-39257550D01*
X71292679Y-39173802D01*
X71258662Y-39110160D01*
X71241607Y-39078253D01*
X71210158Y-38974580D01*
X71199539Y-38866760D01*
X71210158Y-38758940D01*
X71241607Y-38655267D01*
X71292680Y-38559717D01*
X71361410Y-38475970D01*
X71445157Y-38407240D01*
X71445156Y-38407240D01*
X71445158Y-38407239D01*
X71540255Y-38356409D01*
X71561444Y-38342251D01*
X71579465Y-38324231D01*
X71593623Y-38303041D01*
X71603375Y-38279497D01*
X71608347Y-38254502D01*
X71608347Y-38229018D01*
X71603375Y-38204023D01*
X71593623Y-38180479D01*
X71579465Y-38159290D01*
X71561445Y-38141269D01*
X71540255Y-38127111D01*
X71529029Y-38121111D01*
X71445158Y-38076281D01*
X71361410Y-38007550D01*
X71292679Y-37923802D01*
X71241608Y-37828254D01*
X71241607Y-37828253D01*
X71210158Y-37724580D01*
X71199539Y-37616760D01*
X71210158Y-37508940D01*
X71241607Y-37405267D01*
X71292680Y-37309717D01*
X71299923Y-37300892D01*
X71361410Y-37225970D01*
X71445158Y-37157239D01*
X71492932Y-37131704D01*
X71540707Y-37106167D01*
X71644380Y-37074718D01*
X71725182Y-37066760D01*
X72279218Y-37066760D01*
X72360020Y-37074718D01*
X72360020Y-37074718D01*
G37*
G36*
X66813436Y-42204630D02*
G01*
X67001932Y-42261809D01*
X67175658Y-42354668D01*
X67327928Y-42479632D01*
X67452892Y-42631902D01*
X67545751Y-42805628D01*
X67602930Y-42994124D01*
X67622238Y-43190160D01*
X67602930Y-43386196D01*
X67545751Y-43574692D01*
X67452892Y-43748418D01*
X67327928Y-43900688D01*
X67175658Y-44025652D01*
X67001932Y-44118511D01*
X66813436Y-44175690D01*
X66666520Y-44190160D01*
X66568280Y-44190160D01*
X66421364Y-44175690D01*
X66232868Y-44118511D01*
X66059142Y-44025652D01*
X65906872Y-43900688D01*
X65781908Y-43748418D01*
X65689049Y-43574692D01*
X65631870Y-43386196D01*
X65612562Y-43190160D01*
X65631870Y-42994124D01*
X65689049Y-42805628D01*
X65781908Y-42631902D01*
X65906872Y-42479632D01*
X66059142Y-42354668D01*
X66232868Y-42261809D01*
X66421364Y-42204630D01*
X66568280Y-42190160D01*
X66666520Y-42190160D01*
X66813436Y-42204630D01*
X66813436Y-42204630D01*
G37*
G36*
X75923200Y-43021760D02*
G01*
X73923200Y-43021760D01*
X73923200Y-41021760D01*
X75923200Y-41021760D01*
X75923200Y-43021760D01*
X75923200Y-43021760D01*
G37*
G36*
X38009836Y-41010830D02*
G01*
X38198332Y-41068009D01*
X38372058Y-41160868D01*
X38524328Y-41285832D01*
X38649292Y-41438102D01*
X38742151Y-41611828D01*
X38799330Y-41800324D01*
X38818638Y-41996360D01*
X38799330Y-42192396D01*
X38742151Y-42380892D01*
X38649292Y-42554618D01*
X38524328Y-42706888D01*
X38372058Y-42831852D01*
X38198332Y-42924711D01*
X38009836Y-42981890D01*
X37862920Y-42996360D01*
X37764680Y-42996360D01*
X37617764Y-42981890D01*
X37429268Y-42924711D01*
X37255542Y-42831852D01*
X37103272Y-42706888D01*
X36978308Y-42554618D01*
X36885449Y-42380892D01*
X36828270Y-42192396D01*
X36808962Y-41996360D01*
X36828270Y-41800324D01*
X36885449Y-41611828D01*
X36978308Y-41438102D01*
X37103272Y-41285832D01*
X37255542Y-41160868D01*
X37429268Y-41068009D01*
X37617764Y-41010830D01*
X37764680Y-40996360D01*
X37862920Y-40996360D01*
X38009836Y-41010830D01*
X38009836Y-41010830D01*
G37*
G36*
X40549836Y-41010830D02*
G01*
X40738332Y-41068009D01*
X40912058Y-41160868D01*
X41064328Y-41285832D01*
X41189292Y-41438102D01*
X41282151Y-41611828D01*
X41339330Y-41800324D01*
X41358638Y-41996360D01*
X41339330Y-42192396D01*
X41282151Y-42380892D01*
X41189292Y-42554618D01*
X41064328Y-42706888D01*
X40912058Y-42831852D01*
X40738332Y-42924711D01*
X40549836Y-42981890D01*
X40402920Y-42996360D01*
X40304680Y-42996360D01*
X40157764Y-42981890D01*
X39969268Y-42924711D01*
X39795542Y-42831852D01*
X39643272Y-42706888D01*
X39518308Y-42554618D01*
X39425449Y-42380892D01*
X39368270Y-42192396D01*
X39348962Y-41996360D01*
X39368270Y-41800324D01*
X39425449Y-41611828D01*
X39518308Y-41438102D01*
X39643272Y-41285832D01*
X39795542Y-41160868D01*
X39969268Y-41068009D01*
X40157764Y-41010830D01*
X40304680Y-40996360D01*
X40402920Y-40996360D01*
X40549836Y-41010830D01*
X40549836Y-41010830D01*
G37*
G36*
X66813436Y-39664630D02*
G01*
X67001932Y-39721809D01*
X67175658Y-39814668D01*
X67327928Y-39939632D01*
X67452892Y-40091902D01*
X67545751Y-40265628D01*
X67602930Y-40454124D01*
X67622238Y-40650160D01*
X67602930Y-40846196D01*
X67545751Y-41034692D01*
X67452892Y-41208418D01*
X67327928Y-41360688D01*
X67175658Y-41485652D01*
X67001932Y-41578511D01*
X66813436Y-41635690D01*
X66666520Y-41650160D01*
X66568280Y-41650160D01*
X66421364Y-41635690D01*
X66232868Y-41578511D01*
X66059142Y-41485652D01*
X65906872Y-41360688D01*
X65781908Y-41208418D01*
X65689049Y-41034692D01*
X65631870Y-40846196D01*
X65612562Y-40650160D01*
X65631870Y-40454124D01*
X65689049Y-40265628D01*
X65781908Y-40091902D01*
X65906872Y-39939632D01*
X66059142Y-39814668D01*
X66232868Y-39721809D01*
X66421364Y-39664630D01*
X66568280Y-39650160D01*
X66666520Y-39650160D01*
X66813436Y-39664630D01*
X66813436Y-39664630D01*
G37*
G36*
X75119236Y-38496230D02*
G01*
X75307732Y-38553409D01*
X75481458Y-38646268D01*
X75633728Y-38771232D01*
X75758692Y-38923502D01*
X75851551Y-39097228D01*
X75908730Y-39285724D01*
X75928038Y-39481760D01*
X75908730Y-39677796D01*
X75851551Y-39866292D01*
X75758692Y-40040018D01*
X75633728Y-40192288D01*
X75481458Y-40317252D01*
X75307732Y-40410111D01*
X75119236Y-40467290D01*
X74972320Y-40481760D01*
X74874080Y-40481760D01*
X74727164Y-40467290D01*
X74538668Y-40410111D01*
X74364942Y-40317252D01*
X74212672Y-40192288D01*
X74087708Y-40040018D01*
X73994849Y-39866292D01*
X73937670Y-39677796D01*
X73918362Y-39481760D01*
X73937670Y-39285724D01*
X73994849Y-39097228D01*
X74087708Y-38923502D01*
X74212672Y-38771232D01*
X74364942Y-38646268D01*
X74538668Y-38553409D01*
X74727164Y-38496230D01*
X74874080Y-38481760D01*
X74972320Y-38481760D01*
X75119236Y-38496230D01*
X75119236Y-38496230D01*
G37*
G36*
X40549836Y-38470830D02*
G01*
X40738332Y-38528009D01*
X40912058Y-38620868D01*
X41064328Y-38745832D01*
X41189292Y-38898102D01*
X41282151Y-39071828D01*
X41339330Y-39260324D01*
X41358638Y-39456360D01*
X41339330Y-39652396D01*
X41282151Y-39840892D01*
X41189292Y-40014618D01*
X41064328Y-40166888D01*
X40912058Y-40291852D01*
X40738332Y-40384711D01*
X40549836Y-40441890D01*
X40402920Y-40456360D01*
X40304680Y-40456360D01*
X40157764Y-40441890D01*
X39969268Y-40384711D01*
X39795542Y-40291852D01*
X39643272Y-40166888D01*
X39518308Y-40014618D01*
X39425449Y-39840892D01*
X39368270Y-39652396D01*
X39348962Y-39456360D01*
X39368270Y-39260324D01*
X39425449Y-39071828D01*
X39518308Y-38898102D01*
X39643272Y-38745832D01*
X39795542Y-38620868D01*
X39969268Y-38528009D01*
X40157764Y-38470830D01*
X40304680Y-38456360D01*
X40402920Y-38456360D01*
X40549836Y-38470830D01*
X40549836Y-38470830D01*
G37*
G36*
X38009836Y-38470830D02*
G01*
X38198332Y-38528009D01*
X38372058Y-38620868D01*
X38524328Y-38745832D01*
X38649292Y-38898102D01*
X38742151Y-39071828D01*
X38799330Y-39260324D01*
X38818638Y-39456360D01*
X38799330Y-39652396D01*
X38742151Y-39840892D01*
X38649292Y-40014618D01*
X38524328Y-40166888D01*
X38372058Y-40291852D01*
X38198332Y-40384711D01*
X38009836Y-40441890D01*
X37862920Y-40456360D01*
X37764680Y-40456360D01*
X37617764Y-40441890D01*
X37429268Y-40384711D01*
X37255542Y-40291852D01*
X37103272Y-40166888D01*
X36978308Y-40014618D01*
X36885449Y-39840892D01*
X36828270Y-39652396D01*
X36808962Y-39456360D01*
X36828270Y-39260324D01*
X36885449Y-39071828D01*
X36978308Y-38898102D01*
X37103272Y-38745832D01*
X37255542Y-38620868D01*
X37429268Y-38528009D01*
X37617764Y-38470830D01*
X37764680Y-38456360D01*
X37862920Y-38456360D01*
X38009836Y-38470830D01*
X38009836Y-38470830D01*
G37*
G36*
X67617400Y-39110160D02*
G01*
X65617400Y-39110160D01*
X65617400Y-37110160D01*
X67617400Y-37110160D01*
X67617400Y-39110160D01*
X67617400Y-39110160D01*
G37*
G36*
X38009836Y-35930830D02*
G01*
X38198332Y-35988009D01*
X38372058Y-36080868D01*
X38524328Y-36205832D01*
X38649292Y-36358102D01*
X38742151Y-36531828D01*
X38799330Y-36720324D01*
X38818638Y-36916360D01*
X38799330Y-37112396D01*
X38742151Y-37300892D01*
X38649292Y-37474618D01*
X38524328Y-37626888D01*
X38372058Y-37751852D01*
X38198332Y-37844711D01*
X38009836Y-37901890D01*
X37862920Y-37916360D01*
X37764680Y-37916360D01*
X37617764Y-37901890D01*
X37429268Y-37844711D01*
X37255542Y-37751852D01*
X37103272Y-37626888D01*
X36978308Y-37474618D01*
X36885449Y-37300892D01*
X36828270Y-37112396D01*
X36808962Y-36916360D01*
X36828270Y-36720324D01*
X36885449Y-36531828D01*
X36978308Y-36358102D01*
X37103272Y-36205832D01*
X37255542Y-36080868D01*
X37429268Y-35988009D01*
X37617764Y-35930830D01*
X37764680Y-35916360D01*
X37862920Y-35916360D01*
X38009836Y-35930830D01*
X38009836Y-35930830D01*
G37*
G36*
X40549836Y-35930830D02*
G01*
X40738332Y-35988009D01*
X40912058Y-36080868D01*
X41064328Y-36205832D01*
X41189292Y-36358102D01*
X41282151Y-36531828D01*
X41339330Y-36720324D01*
X41358638Y-36916360D01*
X41339330Y-37112396D01*
X41282151Y-37300892D01*
X41189292Y-37474618D01*
X41064328Y-37626888D01*
X40912058Y-37751852D01*
X40738332Y-37844711D01*
X40549836Y-37901890D01*
X40402920Y-37916360D01*
X40304680Y-37916360D01*
X40157764Y-37901890D01*
X39969268Y-37844711D01*
X39795542Y-37751852D01*
X39643272Y-37626888D01*
X39518308Y-37474618D01*
X39425449Y-37300892D01*
X39368270Y-37112396D01*
X39348962Y-36916360D01*
X39368270Y-36720324D01*
X39425449Y-36531828D01*
X39518308Y-36358102D01*
X39643272Y-36205832D01*
X39795542Y-36080868D01*
X39969268Y-35988009D01*
X40157764Y-35930830D01*
X40304680Y-35916360D01*
X40402920Y-35916360D01*
X40549836Y-35930830D01*
X40549836Y-35930830D01*
G37*
G36*
X77040800Y-36189160D02*
G01*
X75040800Y-36189160D01*
X75040800Y-34189160D01*
X77040800Y-34189160D01*
X77040800Y-36189160D01*
X77040800Y-36189160D01*
G37*
G36*
X38009836Y-33390830D02*
G01*
X38198332Y-33448009D01*
X38372058Y-33540868D01*
X38524328Y-33665832D01*
X38649292Y-33818102D01*
X38742151Y-33991828D01*
X38799330Y-34180324D01*
X38818638Y-34376360D01*
X38799330Y-34572396D01*
X38742151Y-34760892D01*
X38649292Y-34934618D01*
X38524328Y-35086888D01*
X38372058Y-35211852D01*
X38198332Y-35304711D01*
X38009836Y-35361890D01*
X37862920Y-35376360D01*
X37764680Y-35376360D01*
X37617764Y-35361890D01*
X37429268Y-35304711D01*
X37255542Y-35211852D01*
X37103272Y-35086888D01*
X36978308Y-34934618D01*
X36885449Y-34760892D01*
X36828270Y-34572396D01*
X36808962Y-34376360D01*
X36828270Y-34180324D01*
X36885449Y-33991828D01*
X36978308Y-33818102D01*
X37103272Y-33665832D01*
X37255542Y-33540868D01*
X37429268Y-33448009D01*
X37617764Y-33390830D01*
X37764680Y-33376360D01*
X37862920Y-33376360D01*
X38009836Y-33390830D01*
X38009836Y-33390830D01*
G37*
G36*
X41353800Y-35376360D02*
G01*
X39353800Y-35376360D01*
X39353800Y-33376360D01*
X41353800Y-33376360D01*
X41353800Y-35376360D01*
X41353800Y-35376360D01*
G37*
M02*
