G04 #@! TF.GenerationSoftware,KiCad,Pcbnew,(5.1.4)-1*
G04 #@! TF.CreationDate,2019-12-07T15:53:33+00:00*
G04 #@! TF.ProjectId,analog,616e616c-6f67-42e6-9b69-6361645f7063,rev?*
G04 #@! TF.SameCoordinates,Original*
G04 #@! TF.FileFunction,Legend,Top*
G04 #@! TF.FilePolarity,Positive*
%FSLAX46Y46*%
G04 Gerber Fmt 4.6, Leading zero omitted, Abs format (unit mm)*
G04 Created by KiCad (PCBNEW (5.1.4)-1) date 2019-12-07 15:53:33*
%MOMM*%
%LPD*%
G04 APERTURE LIST*
%ADD10C,0.150000*%
%ADD11C,0.200000*%
%ADD12C,0.100000*%
%ADD13C,0.120000*%
G04 APERTURE END LIST*
D10*
X39083800Y-45755560D02*
X41496800Y-45755560D01*
X38702800Y-45349160D02*
X39083800Y-45755560D01*
X56520708Y-49870360D02*
G75*
G03X56520708Y-49870360I-418908J0D01*
G01*
D11*
X28043228Y-42638036D02*
X28043228Y-41388036D01*
X28459895Y-42280893D01*
X28876561Y-41388036D01*
X28876561Y-42638036D01*
X29412276Y-42280893D02*
X30007514Y-42280893D01*
X29293228Y-42638036D02*
X29709895Y-41388036D01*
X30126561Y-42638036D01*
X30424180Y-41388036D02*
X31257514Y-42638036D01*
X31257514Y-41388036D02*
X30424180Y-42638036D01*
X31793228Y-42638036D02*
X32031323Y-42638036D01*
X32150371Y-42578512D01*
X32209895Y-42518988D01*
X32328942Y-42340417D01*
X32388466Y-42102321D01*
X32388466Y-41626131D01*
X32328942Y-41507083D01*
X32269419Y-41447560D01*
X32150371Y-41388036D01*
X31912276Y-41388036D01*
X31793228Y-41447560D01*
X31733704Y-41507083D01*
X31674180Y-41626131D01*
X31674180Y-41923750D01*
X31733704Y-42042798D01*
X31793228Y-42102321D01*
X31912276Y-42161845D01*
X32150371Y-42161845D01*
X32269419Y-42102321D01*
X32328942Y-42042798D01*
X32388466Y-41923750D01*
X33578942Y-42638036D02*
X32864657Y-42638036D01*
X33221800Y-42638036D02*
X33221800Y-41388036D01*
X33102752Y-41566607D01*
X32983704Y-41685655D01*
X32864657Y-41745179D01*
X34650371Y-41804702D02*
X34650371Y-42638036D01*
X34352752Y-41328512D02*
X34055133Y-42221369D01*
X34828942Y-42221369D01*
X35840847Y-41804702D02*
X35840847Y-42638036D01*
X35543228Y-41328512D02*
X35245609Y-42221369D01*
X36019419Y-42221369D01*
X28017828Y-40148836D02*
X28017828Y-38898836D01*
X28434495Y-39791693D01*
X28851161Y-38898836D01*
X28851161Y-40148836D01*
X29386876Y-39791693D02*
X29982114Y-39791693D01*
X29267828Y-40148836D02*
X29684495Y-38898836D01*
X30101161Y-40148836D01*
X30398780Y-38898836D02*
X31232114Y-40148836D01*
X31232114Y-38898836D02*
X30398780Y-40148836D01*
X31767828Y-40148836D02*
X32005923Y-40148836D01*
X32124971Y-40089312D01*
X32184495Y-40029788D01*
X32303542Y-39851217D01*
X32363066Y-39613121D01*
X32363066Y-39136931D01*
X32303542Y-39017883D01*
X32244019Y-38958360D01*
X32124971Y-38898836D01*
X31886876Y-38898836D01*
X31767828Y-38958360D01*
X31708304Y-39017883D01*
X31648780Y-39136931D01*
X31648780Y-39434550D01*
X31708304Y-39553598D01*
X31767828Y-39613121D01*
X31886876Y-39672645D01*
X32124971Y-39672645D01*
X32244019Y-39613121D01*
X32303542Y-39553598D01*
X32363066Y-39434550D01*
X33553542Y-40148836D02*
X32839257Y-40148836D01*
X33196400Y-40148836D02*
X33196400Y-38898836D01*
X33077352Y-39077407D01*
X32958304Y-39196455D01*
X32839257Y-39255979D01*
X34327352Y-38898836D02*
X34446400Y-38898836D01*
X34565447Y-38958360D01*
X34624971Y-39017883D01*
X34684495Y-39136931D01*
X34744019Y-39375026D01*
X34744019Y-39672645D01*
X34684495Y-39910740D01*
X34624971Y-40029788D01*
X34565447Y-40089312D01*
X34446400Y-40148836D01*
X34327352Y-40148836D01*
X34208304Y-40089312D01*
X34148780Y-40029788D01*
X34089257Y-39910740D01*
X34029733Y-39672645D01*
X34029733Y-39375026D01*
X34089257Y-39136931D01*
X34148780Y-39017883D01*
X34208304Y-38958360D01*
X34327352Y-38898836D01*
X35458304Y-39434550D02*
X35339257Y-39375026D01*
X35279733Y-39315502D01*
X35220209Y-39196455D01*
X35220209Y-39136931D01*
X35279733Y-39017883D01*
X35339257Y-38958360D01*
X35458304Y-38898836D01*
X35696400Y-38898836D01*
X35815447Y-38958360D01*
X35874971Y-39017883D01*
X35934495Y-39136931D01*
X35934495Y-39196455D01*
X35874971Y-39315502D01*
X35815447Y-39375026D01*
X35696400Y-39434550D01*
X35458304Y-39434550D01*
X35339257Y-39494074D01*
X35279733Y-39553598D01*
X35220209Y-39672645D01*
X35220209Y-39910740D01*
X35279733Y-40029788D01*
X35339257Y-40089312D01*
X35458304Y-40148836D01*
X35696400Y-40148836D01*
X35815447Y-40089312D01*
X35874971Y-40029788D01*
X35934495Y-39910740D01*
X35934495Y-39672645D01*
X35874971Y-39553598D01*
X35815447Y-39494074D01*
X35696400Y-39434550D01*
D10*
X39541000Y-43215560D02*
X41700000Y-43215560D01*
X39617200Y-38237160D02*
X41598400Y-38237160D01*
X39566400Y-40726360D02*
X41547600Y-40726360D01*
X39058400Y-35620960D02*
X41573000Y-35620960D01*
X38626600Y-35189160D02*
X39058400Y-35620960D01*
X39033000Y-43215560D02*
X38626600Y-42809160D01*
X39541000Y-43215560D02*
X39033000Y-43215560D01*
X39058400Y-40726360D02*
X38601200Y-40269160D01*
X39566400Y-40726360D02*
X39058400Y-40726360D01*
X39134600Y-38237160D02*
X38626600Y-37729160D01*
X39617200Y-38237160D02*
X39134600Y-38237160D01*
D12*
X76995685Y-42743807D02*
X76995685Y-42910474D01*
X77257590Y-42910474D02*
X76757590Y-42910474D01*
X76757590Y-42672379D01*
X77257590Y-42481902D02*
X76924257Y-42481902D01*
X76757590Y-42481902D02*
X76781400Y-42505712D01*
X76805209Y-42481902D01*
X76781400Y-42458093D01*
X76757590Y-42481902D01*
X76805209Y-42481902D01*
X76924257Y-42315236D02*
X76924257Y-42124760D01*
X76757590Y-42243807D02*
X77186161Y-42243807D01*
X77233780Y-42219998D01*
X77257590Y-42172379D01*
X77257590Y-42124760D01*
X77257590Y-41577140D02*
X76757590Y-41577140D01*
X76757590Y-41386664D01*
X76781400Y-41339045D01*
X76805209Y-41315236D01*
X76852828Y-41291426D01*
X76924257Y-41291426D01*
X76971876Y-41315236D01*
X76995685Y-41339045D01*
X77019495Y-41386664D01*
X77019495Y-41577140D01*
X76757590Y-41124760D02*
X76757590Y-40815236D01*
X76948066Y-40981902D01*
X76948066Y-40910474D01*
X76971876Y-40862855D01*
X76995685Y-40839045D01*
X77043304Y-40815236D01*
X77162352Y-40815236D01*
X77209971Y-40839045D01*
X77233780Y-40862855D01*
X77257590Y-40910474D01*
X77257590Y-41053331D01*
X77233780Y-41100950D01*
X77209971Y-41124760D01*
X77257590Y-40148569D02*
X77233780Y-40196188D01*
X77209971Y-40219998D01*
X77162352Y-40243807D01*
X77019495Y-40243807D01*
X76971876Y-40219998D01*
X76948066Y-40196188D01*
X76924257Y-40148569D01*
X76924257Y-40077140D01*
X76948066Y-40029521D01*
X76971876Y-40005712D01*
X77019495Y-39981902D01*
X77162352Y-39981902D01*
X77209971Y-40005712D01*
X77233780Y-40029521D01*
X77257590Y-40077140D01*
X77257590Y-40148569D01*
X77257590Y-39767617D02*
X76924257Y-39767617D01*
X77019495Y-39767617D02*
X76971876Y-39743807D01*
X76948066Y-39719998D01*
X76924257Y-39672379D01*
X76924257Y-39624760D01*
X77257590Y-39077140D02*
X76757590Y-39077140D01*
X76757590Y-38886664D01*
X76781400Y-38839045D01*
X76805209Y-38815236D01*
X76852828Y-38791426D01*
X76924257Y-38791426D01*
X76971876Y-38815236D01*
X76995685Y-38839045D01*
X77019495Y-38886664D01*
X77019495Y-39077140D01*
X76924257Y-38362855D02*
X77257590Y-38362855D01*
X76733780Y-38481902D02*
X77090923Y-38600950D01*
X77090923Y-38291426D01*
D10*
X67785800Y-37475160D02*
X68141400Y-37195760D01*
X45859766Y-47996594D02*
G75*
G03X45859766Y-47996594I-273566J0D01*
G01*
X41933371Y-43794940D02*
X41933371Y-43128274D01*
X41933371Y-43318750D02*
X41980990Y-43223512D01*
X42028609Y-43175893D01*
X42123847Y-43128274D01*
X42219085Y-43128274D01*
X42365123Y-41229540D02*
X42031790Y-40753350D01*
X41793695Y-41229540D02*
X41793695Y-40229540D01*
X42174647Y-40229540D01*
X42269885Y-40277160D01*
X42317504Y-40324779D01*
X42365123Y-40420017D01*
X42365123Y-40562874D01*
X42317504Y-40658112D01*
X42269885Y-40705731D01*
X42174647Y-40753350D01*
X41793695Y-40753350D01*
X42342904Y-37787960D02*
X42247666Y-37740340D01*
X42104809Y-37740340D01*
X41961952Y-37787960D01*
X41866714Y-37883198D01*
X41819095Y-37978436D01*
X41771476Y-38168912D01*
X41771476Y-38311769D01*
X41819095Y-38502245D01*
X41866714Y-38597483D01*
X41961952Y-38692721D01*
X42104809Y-38740340D01*
X42200047Y-38740340D01*
X42342904Y-38692721D01*
X42390523Y-38645102D01*
X42390523Y-38311769D01*
X42200047Y-38311769D01*
X59136908Y-35773360D02*
G75*
G03X59136908Y-35773360I-418908J0D01*
G01*
X46729200Y-34173160D02*
G75*
G03X46729200Y-34173160I-401609J0D01*
G01*
X41969880Y-45284140D02*
X42065119Y-45284140D01*
X42160357Y-45331760D01*
X42207976Y-45379379D01*
X42255595Y-45474617D01*
X42303214Y-45665093D01*
X42303214Y-45903188D01*
X42255595Y-46093664D01*
X42207976Y-46188902D01*
X42160357Y-46236521D01*
X42065119Y-46284140D01*
X41969880Y-46284140D01*
X41874642Y-46236521D01*
X41827023Y-46188902D01*
X41779404Y-46093664D01*
X41731785Y-45903188D01*
X41731785Y-45665093D01*
X41779404Y-45474617D01*
X41827023Y-45379379D01*
X41874642Y-45331760D01*
X41969880Y-45284140D01*
X42101628Y-35447931D02*
X42244485Y-35495550D01*
X42292104Y-35543169D01*
X42339723Y-35638407D01*
X42339723Y-35781264D01*
X42292104Y-35876502D01*
X42244485Y-35924121D01*
X42149247Y-35971740D01*
X41768295Y-35971740D01*
X41768295Y-34971740D01*
X42101628Y-34971740D01*
X42196866Y-35019360D01*
X42244485Y-35066979D01*
X42292104Y-35162217D01*
X42292104Y-35257455D01*
X42244485Y-35352693D01*
X42196866Y-35400312D01*
X42101628Y-35447931D01*
X41768295Y-35447931D01*
X42244485Y-44068074D02*
X42244485Y-44877598D01*
X42196866Y-44972836D01*
X42149247Y-45020455D01*
X42054009Y-45068074D01*
X41911152Y-45068074D01*
X41815914Y-45020455D01*
X42244485Y-44687121D02*
X42149247Y-44734740D01*
X41958771Y-44734740D01*
X41863533Y-44687121D01*
X41815914Y-44639502D01*
X41768295Y-44544264D01*
X41768295Y-44258550D01*
X41815914Y-44163312D01*
X41863533Y-44115693D01*
X41958771Y-44068074D01*
X42149247Y-44068074D01*
X42244485Y-44115693D01*
X41790514Y-42524940D02*
X41790514Y-41524940D01*
X41790514Y-41905893D02*
X41885752Y-41858274D01*
X42076228Y-41858274D01*
X42171466Y-41905893D01*
X42219085Y-41953512D01*
X42266704Y-42048750D01*
X42266704Y-42334464D01*
X42219085Y-42429702D01*
X42171466Y-42477321D01*
X42076228Y-42524940D01*
X41885752Y-42524940D01*
X41790514Y-42477321D01*
X41795285Y-39984940D02*
X41795285Y-38984940D01*
X41795285Y-39461131D02*
X42366714Y-39461131D01*
X42366714Y-39984940D02*
X42366714Y-38984940D01*
X41722266Y-36444940D02*
X42055600Y-37444940D01*
X42388933Y-36444940D01*
X42268295Y-33600140D02*
X41792104Y-33600140D01*
X41744485Y-34076331D01*
X41792104Y-34028712D01*
X41887342Y-33981093D01*
X42125438Y-33981093D01*
X42220676Y-34028712D01*
X42268295Y-34076331D01*
X42315914Y-34171569D01*
X42315914Y-34409664D01*
X42268295Y-34504902D01*
X42220676Y-34552521D01*
X42125438Y-34600140D01*
X41887342Y-34600140D01*
X41792104Y-34552521D01*
X41744485Y-34504902D01*
D13*
X53594452Y-45553560D02*
X53071948Y-45553560D01*
X53594452Y-46973560D02*
X53071948Y-46973560D01*
D10*
X45001900Y-52875560D02*
X48710500Y-52875560D01*
X43331200Y-47475560D02*
X48714800Y-47475560D01*
D13*
X65287400Y-36780160D02*
X66617400Y-36780160D01*
X65287400Y-38110160D02*
X65287400Y-36780160D01*
X65287400Y-39380160D02*
X67947400Y-39380160D01*
X67947400Y-39380160D02*
X67947400Y-47060160D01*
X65287400Y-39380160D02*
X65287400Y-47060160D01*
X65287400Y-47060160D02*
X67947400Y-47060160D01*
X76253200Y-38151760D02*
X73593200Y-38151760D01*
X76253200Y-40751760D02*
X76253200Y-38151760D01*
X73593200Y-40751760D02*
X73593200Y-38151760D01*
X76253200Y-40751760D02*
X73593200Y-40751760D01*
X76253200Y-42021760D02*
X76253200Y-43351760D01*
X76253200Y-43351760D02*
X74923200Y-43351760D01*
X64245200Y-49209960D02*
X64245200Y-47259960D01*
X64245200Y-49209960D02*
X64245200Y-51159960D01*
X55375200Y-49209960D02*
X55375200Y-47259960D01*
X55375200Y-49209960D02*
X55375200Y-52659960D01*
X68676000Y-45189508D02*
X68676000Y-45712012D01*
X70096000Y-45189508D02*
X70096000Y-45712012D01*
X67234252Y-49284960D02*
X66711748Y-49284960D01*
X67234252Y-47864960D02*
X66711748Y-47864960D01*
X67234252Y-49896960D02*
X66711748Y-49896960D01*
X67234252Y-51316960D02*
X66711748Y-51316960D01*
X67234252Y-53348960D02*
X66711748Y-53348960D01*
X67234252Y-51928960D02*
X66711748Y-51928960D01*
X47034000Y-42367360D02*
X48984000Y-42367360D01*
X47034000Y-42367360D02*
X45084000Y-42367360D01*
X47034000Y-33497360D02*
X48984000Y-33497360D01*
X47034000Y-33497360D02*
X43584000Y-33497360D01*
X27723800Y-33166360D02*
X36353800Y-33166360D01*
X27723800Y-33284455D02*
X36353800Y-33284455D01*
X27723800Y-33402550D02*
X36353800Y-33402550D01*
X27723800Y-33520645D02*
X36353800Y-33520645D01*
X27723800Y-33638740D02*
X36353800Y-33638740D01*
X27723800Y-33756835D02*
X36353800Y-33756835D01*
X27723800Y-33874930D02*
X36353800Y-33874930D01*
X27723800Y-33993025D02*
X36353800Y-33993025D01*
X27723800Y-34111120D02*
X36353800Y-34111120D01*
X27723800Y-34229215D02*
X36353800Y-34229215D01*
X27723800Y-34347310D02*
X36353800Y-34347310D01*
X27723800Y-34465405D02*
X36353800Y-34465405D01*
X27723800Y-34583500D02*
X36353800Y-34583500D01*
X27723800Y-34701595D02*
X36353800Y-34701595D01*
X27723800Y-34819690D02*
X36353800Y-34819690D01*
X27723800Y-34937785D02*
X36353800Y-34937785D01*
X27723800Y-35055880D02*
X36353800Y-35055880D01*
X27723800Y-35173975D02*
X36353800Y-35173975D01*
X27723800Y-35292070D02*
X36353800Y-35292070D01*
X27723800Y-35410165D02*
X36353800Y-35410165D01*
X27723800Y-35528260D02*
X36353800Y-35528260D01*
X36353800Y-34016360D02*
X36763800Y-34016360D01*
X38863800Y-34016360D02*
X39243800Y-34016360D01*
X36353800Y-34736360D02*
X36763800Y-34736360D01*
X38863800Y-34736360D02*
X39243800Y-34736360D01*
X36353800Y-36556360D02*
X36763800Y-36556360D01*
X38863800Y-36556360D02*
X39303800Y-36556360D01*
X36353800Y-37276360D02*
X36763800Y-37276360D01*
X38863800Y-37276360D02*
X39303800Y-37276360D01*
X36353800Y-39096360D02*
X36763800Y-39096360D01*
X38863800Y-39096360D02*
X39303800Y-39096360D01*
X36353800Y-39816360D02*
X36763800Y-39816360D01*
X38863800Y-39816360D02*
X39303800Y-39816360D01*
X36353800Y-41636360D02*
X36763800Y-41636360D01*
X38863800Y-41636360D02*
X39303800Y-41636360D01*
X36353800Y-42356360D02*
X36763800Y-42356360D01*
X38863800Y-42356360D02*
X39303800Y-42356360D01*
X36353800Y-44176360D02*
X36763800Y-44176360D01*
X38863800Y-44176360D02*
X39303800Y-44176360D01*
X36353800Y-44896360D02*
X36763800Y-44896360D01*
X38863800Y-44896360D02*
X39303800Y-44896360D01*
X27723800Y-35646360D02*
X36353800Y-35646360D01*
X27723800Y-38186360D02*
X36353800Y-38186360D01*
X27723800Y-40726360D02*
X36353800Y-40726360D01*
X27723800Y-43266360D02*
X36353800Y-43266360D01*
X27723800Y-33046360D02*
X36353800Y-33046360D01*
X36353800Y-33046360D02*
X36353800Y-45866360D01*
X27723800Y-45866360D02*
X36353800Y-45866360D01*
X27723800Y-33046360D02*
X27723800Y-45866360D01*
X41463800Y-33046360D02*
X41463800Y-34376360D01*
X40353800Y-33046360D02*
X41463800Y-33046360D01*
X65822748Y-35797560D02*
X66345252Y-35797560D01*
X65822748Y-34377560D02*
X66345252Y-34377560D01*
X39184200Y-51869708D02*
X39184200Y-52392212D01*
X37764200Y-51869708D02*
X37764200Y-52392212D01*
X36568000Y-52392212D02*
X36568000Y-51869708D01*
X35148000Y-52392212D02*
X35148000Y-51869708D01*
X30932400Y-49230160D02*
X30932400Y-50160160D01*
X30932400Y-52390160D02*
X30932400Y-51460160D01*
X30932400Y-52390160D02*
X34092400Y-52390160D01*
X30932400Y-49230160D02*
X32392400Y-49230160D01*
X32519400Y-46660560D02*
G75*
G02X33219400Y-47360560I0J-700000D01*
G01*
X33219400Y-47960560D02*
G75*
G02X32519400Y-48660560I-700000J0D01*
G01*
X31119400Y-48660560D02*
G75*
G02X30419400Y-47960560I0J700000D01*
G01*
X30419400Y-47360560D02*
G75*
G02X31119400Y-46660560I700000J0D01*
G01*
X30419400Y-47960560D02*
X30419400Y-47360560D01*
X32519400Y-48660560D02*
X31119400Y-48660560D01*
X33219400Y-47360560D02*
X33219400Y-47960560D01*
X31119400Y-46660560D02*
X32519400Y-46660560D01*
X52919548Y-53856960D02*
X53442052Y-53856960D01*
X52919548Y-52436960D02*
X53442052Y-52436960D01*
X52773200Y-37349908D02*
X52773200Y-37872412D01*
X51353200Y-37349908D02*
X51353200Y-37872412D01*
X42003600Y-51869708D02*
X42003600Y-52392212D01*
X40583600Y-51869708D02*
X40583600Y-52392212D01*
X70121400Y-41074708D02*
X70121400Y-41597212D01*
X68701400Y-41074708D02*
X68701400Y-41597212D01*
X52856048Y-33704460D02*
X53378552Y-33704460D01*
X52856048Y-35124460D02*
X53378552Y-35124460D01*
X54881400Y-39423708D02*
X54881400Y-39946212D01*
X53461400Y-39423708D02*
X53461400Y-39946212D01*
X59429200Y-44018360D02*
X61379200Y-44018360D01*
X59429200Y-44018360D02*
X57479200Y-44018360D01*
X59429200Y-35148360D02*
X61379200Y-35148360D01*
X59429200Y-35148360D02*
X55979200Y-35148360D01*
X40107052Y-48065760D02*
X39584548Y-48065760D01*
X40107052Y-46645760D02*
X39584548Y-46645760D01*
X40081652Y-48576160D02*
X39559148Y-48576160D01*
X40081652Y-49996160D02*
X39559148Y-49996160D01*
X49676800Y-45187612D02*
X49676800Y-44665108D01*
X51096800Y-45187612D02*
X51096800Y-44665108D01*
X49039400Y-45204012D02*
X49039400Y-44681508D01*
X47619400Y-45204012D02*
X47619400Y-44681508D01*
X35571348Y-47280760D02*
X36093852Y-47280760D01*
X35571348Y-48700760D02*
X36093852Y-48700760D01*
X45536600Y-45178612D02*
X45536600Y-44656108D01*
X46956600Y-45178612D02*
X46956600Y-44656108D01*
X70852200Y-44116760D02*
X70552200Y-44116760D01*
X70552200Y-44116760D02*
X70552200Y-44616760D01*
X71142200Y-40741760D02*
X71142200Y-44406760D01*
X71142200Y-44406760D02*
X70842200Y-44406760D01*
X70842200Y-44406760D02*
X70842200Y-45476760D01*
X70842200Y-45476760D02*
X76562200Y-45476760D01*
X76562200Y-45476760D02*
X76562200Y-40741760D01*
X71142200Y-40741760D02*
X71142200Y-37076760D01*
X71142200Y-37076760D02*
X70842200Y-37076760D01*
X70842200Y-37076760D02*
X70842200Y-36006760D01*
X70842200Y-36006760D02*
X76562200Y-36006760D01*
X76562200Y-36006760D02*
X76562200Y-40741760D01*
D10*
X53318933Y-45122102D02*
X53271314Y-45169721D01*
X53128457Y-45217340D01*
X53033219Y-45217340D01*
X52890361Y-45169721D01*
X52795123Y-45074483D01*
X52747504Y-44979245D01*
X52699885Y-44788769D01*
X52699885Y-44645912D01*
X52747504Y-44455436D01*
X52795123Y-44360198D01*
X52890361Y-44264960D01*
X53033219Y-44217340D01*
X53128457Y-44217340D01*
X53271314Y-44264960D01*
X53318933Y-44312579D01*
X54223695Y-44217340D02*
X53747504Y-44217340D01*
X53699885Y-44693531D01*
X53747504Y-44645912D01*
X53842742Y-44598293D01*
X54080838Y-44598293D01*
X54176076Y-44645912D01*
X54223695Y-44693531D01*
X54271314Y-44788769D01*
X54271314Y-45026864D01*
X54223695Y-45122102D01*
X54176076Y-45169721D01*
X54080838Y-45217340D01*
X53842742Y-45217340D01*
X53747504Y-45169721D01*
X53699885Y-45122102D01*
X43579695Y-46249340D02*
X43579695Y-47058864D01*
X43627314Y-47154102D01*
X43674933Y-47201721D01*
X43770171Y-47249340D01*
X43960647Y-47249340D01*
X44055885Y-47201721D01*
X44103504Y-47154102D01*
X44151123Y-47058864D01*
X44151123Y-46249340D01*
X45055885Y-46582674D02*
X45055885Y-47249340D01*
X44817790Y-46201721D02*
X44579695Y-46916007D01*
X45198742Y-46916007D01*
X68482804Y-37495740D02*
X68482804Y-36495740D01*
X68863757Y-36495740D01*
X68958995Y-36543360D01*
X69006614Y-36590979D01*
X69054233Y-36686217D01*
X69054233Y-36829074D01*
X69006614Y-36924312D01*
X68958995Y-36971931D01*
X68863757Y-37019550D01*
X68482804Y-37019550D01*
X69435185Y-36590979D02*
X69482804Y-36543360D01*
X69578042Y-36495740D01*
X69816138Y-36495740D01*
X69911376Y-36543360D01*
X69958995Y-36590979D01*
X70006614Y-36686217D01*
X70006614Y-36781455D01*
X69958995Y-36924312D01*
X69387566Y-37495740D01*
X70006614Y-37495740D01*
X74235904Y-44607740D02*
X74235904Y-43607740D01*
X74616857Y-43607740D01*
X74712095Y-43655360D01*
X74759714Y-43702979D01*
X74807333Y-43798217D01*
X74807333Y-43941074D01*
X74759714Y-44036312D01*
X74712095Y-44083931D01*
X74616857Y-44131550D01*
X74235904Y-44131550D01*
X75664476Y-43941074D02*
X75664476Y-44607740D01*
X75426380Y-43560121D02*
X75188285Y-44274407D01*
X75807333Y-44274407D01*
X54106380Y-51114864D02*
X54915904Y-51114864D01*
X55011142Y-51067245D01*
X55058761Y-51019626D01*
X55106380Y-50924388D01*
X55106380Y-50733912D01*
X55058761Y-50638674D01*
X55011142Y-50591055D01*
X54915904Y-50543436D01*
X54106380Y-50543436D01*
X54106380Y-50162483D02*
X54106380Y-49543436D01*
X54487333Y-49876769D01*
X54487333Y-49733912D01*
X54534952Y-49638674D01*
X54582571Y-49591055D01*
X54677809Y-49543436D01*
X54915904Y-49543436D01*
X55011142Y-49591055D01*
X55058761Y-49638674D01*
X55106380Y-49733912D01*
X55106380Y-50019626D01*
X55058761Y-50114864D01*
X55011142Y-50162483D01*
X70997333Y-47808140D02*
X70664000Y-47331950D01*
X70425904Y-47808140D02*
X70425904Y-46808140D01*
X70806857Y-46808140D01*
X70902095Y-46855760D01*
X70949714Y-46903379D01*
X70997333Y-46998617D01*
X70997333Y-47141474D01*
X70949714Y-47236712D01*
X70902095Y-47284331D01*
X70806857Y-47331950D01*
X70425904Y-47331950D01*
X71330666Y-46808140D02*
X71949714Y-46808140D01*
X71616380Y-47189093D01*
X71759238Y-47189093D01*
X71854476Y-47236712D01*
X71902095Y-47284331D01*
X71949714Y-47379569D01*
X71949714Y-47617664D01*
X71902095Y-47712902D01*
X71854476Y-47760521D01*
X71759238Y-47808140D01*
X71473523Y-47808140D01*
X71378285Y-47760521D01*
X71330666Y-47712902D01*
X69473333Y-49103540D02*
X69140000Y-48627350D01*
X68901904Y-49103540D02*
X68901904Y-48103540D01*
X69282857Y-48103540D01*
X69378095Y-48151160D01*
X69425714Y-48198779D01*
X69473333Y-48294017D01*
X69473333Y-48436874D01*
X69425714Y-48532112D01*
X69378095Y-48579731D01*
X69282857Y-48627350D01*
X68901904Y-48627350D01*
X70330476Y-48436874D02*
X70330476Y-49103540D01*
X70092380Y-48055921D02*
X69854285Y-48770207D01*
X70473333Y-48770207D01*
X69498733Y-51110140D02*
X69165400Y-50633950D01*
X68927304Y-51110140D02*
X68927304Y-50110140D01*
X69308257Y-50110140D01*
X69403495Y-50157760D01*
X69451114Y-50205379D01*
X69498733Y-50300617D01*
X69498733Y-50443474D01*
X69451114Y-50538712D01*
X69403495Y-50586331D01*
X69308257Y-50633950D01*
X68927304Y-50633950D01*
X70403495Y-50110140D02*
X69927304Y-50110140D01*
X69879685Y-50586331D01*
X69927304Y-50538712D01*
X70022542Y-50491093D01*
X70260638Y-50491093D01*
X70355876Y-50538712D01*
X70403495Y-50586331D01*
X70451114Y-50681569D01*
X70451114Y-50919664D01*
X70403495Y-51014902D01*
X70355876Y-51062521D01*
X70260638Y-51110140D01*
X70022542Y-51110140D01*
X69927304Y-51062521D01*
X69879685Y-51014902D01*
X69498733Y-53243740D02*
X69165400Y-52767550D01*
X68927304Y-53243740D02*
X68927304Y-52243740D01*
X69308257Y-52243740D01*
X69403495Y-52291360D01*
X69451114Y-52338979D01*
X69498733Y-52434217D01*
X69498733Y-52577074D01*
X69451114Y-52672312D01*
X69403495Y-52719931D01*
X69308257Y-52767550D01*
X68927304Y-52767550D01*
X70355876Y-52243740D02*
X70165400Y-52243740D01*
X70070161Y-52291360D01*
X70022542Y-52338979D01*
X69927304Y-52481836D01*
X69879685Y-52672312D01*
X69879685Y-53053264D01*
X69927304Y-53148502D01*
X69974923Y-53196121D01*
X70070161Y-53243740D01*
X70260638Y-53243740D01*
X70355876Y-53196121D01*
X70403495Y-53148502D01*
X70451114Y-53053264D01*
X70451114Y-52815169D01*
X70403495Y-52719931D01*
X70355876Y-52672312D01*
X70260638Y-52624693D01*
X70070161Y-52624693D01*
X69974923Y-52672312D01*
X69927304Y-52719931D01*
X69879685Y-52815169D01*
X43782895Y-32253940D02*
X43782895Y-33063464D01*
X43830514Y-33158702D01*
X43878133Y-33206321D01*
X43973371Y-33253940D01*
X44163847Y-33253940D01*
X44259085Y-33206321D01*
X44306704Y-33158702D01*
X44354323Y-33063464D01*
X44354323Y-32253940D01*
X45354323Y-33253940D02*
X44782895Y-33253940D01*
X45068609Y-33253940D02*
X45068609Y-32253940D01*
X44973371Y-32396798D01*
X44878133Y-32492036D01*
X44782895Y-32539655D01*
X29417604Y-32745940D02*
X29417604Y-31745940D01*
X29798557Y-31745940D01*
X29893795Y-31793560D01*
X29941414Y-31841179D01*
X29989033Y-31936417D01*
X29989033Y-32079274D01*
X29941414Y-32174512D01*
X29893795Y-32222131D01*
X29798557Y-32269750D01*
X29417604Y-32269750D01*
X30941414Y-32745940D02*
X30369985Y-32745940D01*
X30655700Y-32745940D02*
X30655700Y-31745940D01*
X30560461Y-31888798D01*
X30465223Y-31984036D01*
X30369985Y-32031655D01*
X69168533Y-35444702D02*
X69120914Y-35492321D01*
X68978057Y-35539940D01*
X68882819Y-35539940D01*
X68739961Y-35492321D01*
X68644723Y-35397083D01*
X68597104Y-35301845D01*
X68549485Y-35111369D01*
X68549485Y-34968512D01*
X68597104Y-34778036D01*
X68644723Y-34682798D01*
X68739961Y-34587560D01*
X68882819Y-34539940D01*
X68978057Y-34539940D01*
X69120914Y-34587560D01*
X69168533Y-34635179D01*
X69501866Y-34539940D02*
X70168533Y-34539940D01*
X69739961Y-35539940D01*
D13*
X40098571Y-52272626D02*
X40139047Y-52313102D01*
X40179523Y-52434531D01*
X40179523Y-52515483D01*
X40139047Y-52636912D01*
X40058095Y-52717864D01*
X39977142Y-52758340D01*
X39815238Y-52798817D01*
X39693809Y-52798817D01*
X39531904Y-52758340D01*
X39450952Y-52717864D01*
X39370000Y-52636912D01*
X39329523Y-52515483D01*
X39329523Y-52434531D01*
X39370000Y-52313102D01*
X39410476Y-52272626D01*
X39410476Y-51948817D02*
X39370000Y-51908340D01*
X39329523Y-51827388D01*
X39329523Y-51625007D01*
X39370000Y-51544055D01*
X39410476Y-51503579D01*
X39491428Y-51463102D01*
X39572380Y-51463102D01*
X39693809Y-51503579D01*
X40179523Y-51989293D01*
X40179523Y-51463102D01*
D10*
X33786333Y-53681902D02*
X33738714Y-53729521D01*
X33595857Y-53777140D01*
X33500619Y-53777140D01*
X33357761Y-53729521D01*
X33262523Y-53634283D01*
X33214904Y-53539045D01*
X33167285Y-53348569D01*
X33167285Y-53205712D01*
X33214904Y-53015236D01*
X33262523Y-52919998D01*
X33357761Y-52824760D01*
X33500619Y-52777140D01*
X33595857Y-52777140D01*
X33738714Y-52824760D01*
X33786333Y-52872379D01*
X34738714Y-53777140D02*
X34167285Y-53777140D01*
X34453000Y-53777140D02*
X34453000Y-52777140D01*
X34357761Y-52919998D01*
X34262523Y-53015236D01*
X34167285Y-53062855D01*
X29050895Y-51964340D02*
X29050895Y-52773864D01*
X29098514Y-52869102D01*
X29146133Y-52916721D01*
X29241371Y-52964340D01*
X29431847Y-52964340D01*
X29527085Y-52916721D01*
X29574704Y-52869102D01*
X29622323Y-52773864D01*
X29622323Y-51964340D01*
X30574704Y-51964340D02*
X30098514Y-51964340D01*
X30050895Y-52440531D01*
X30098514Y-52392912D01*
X30193752Y-52345293D01*
X30431847Y-52345293D01*
X30527085Y-52392912D01*
X30574704Y-52440531D01*
X30622323Y-52535769D01*
X30622323Y-52773864D01*
X30574704Y-52869102D01*
X30527085Y-52916721D01*
X30431847Y-52964340D01*
X30193752Y-52964340D01*
X30098514Y-52916721D01*
X30050895Y-52869102D01*
X29138180Y-48519293D02*
X29852466Y-48519293D01*
X29995323Y-48566912D01*
X30090561Y-48662150D01*
X30138180Y-48805007D01*
X30138180Y-48900245D01*
X30138180Y-48043102D02*
X29138180Y-48043102D01*
X29138180Y-47662150D01*
X29185800Y-47566912D01*
X29233419Y-47519293D01*
X29328657Y-47471674D01*
X29471514Y-47471674D01*
X29566752Y-47519293D01*
X29614371Y-47566912D01*
X29661990Y-47662150D01*
X29661990Y-48043102D01*
X30138180Y-46519293D02*
X30138180Y-47090721D01*
X30138180Y-46805007D02*
X29138180Y-46805007D01*
X29281038Y-46900245D01*
X29376276Y-46995483D01*
X29423895Y-47090721D01*
X52429933Y-51954702D02*
X52382314Y-52002321D01*
X52239457Y-52049940D01*
X52144219Y-52049940D01*
X52001361Y-52002321D01*
X51906123Y-51907083D01*
X51858504Y-51811845D01*
X51810885Y-51621369D01*
X51810885Y-51478512D01*
X51858504Y-51288036D01*
X51906123Y-51192798D01*
X52001361Y-51097560D01*
X52144219Y-51049940D01*
X52239457Y-51049940D01*
X52382314Y-51097560D01*
X52429933Y-51145179D01*
X52763266Y-51049940D02*
X53382314Y-51049940D01*
X53048980Y-51430893D01*
X53191838Y-51430893D01*
X53287076Y-51478512D01*
X53334695Y-51526131D01*
X53382314Y-51621369D01*
X53382314Y-51859464D01*
X53334695Y-51954702D01*
X53287076Y-52002321D01*
X53191838Y-52049940D01*
X52906123Y-52049940D01*
X52810885Y-52002321D01*
X52763266Y-51954702D01*
X51415571Y-40550102D02*
X51367952Y-40597721D01*
X51225095Y-40645340D01*
X51129857Y-40645340D01*
X50987000Y-40597721D01*
X50891761Y-40502483D01*
X50844142Y-40407245D01*
X50796523Y-40216769D01*
X50796523Y-40073912D01*
X50844142Y-39883436D01*
X50891761Y-39788198D01*
X50987000Y-39692960D01*
X51129857Y-39645340D01*
X51225095Y-39645340D01*
X51367952Y-39692960D01*
X51415571Y-39740579D01*
X52320333Y-40645340D02*
X51844142Y-40645340D01*
X51844142Y-39645340D01*
X53177476Y-40645340D02*
X52606047Y-40645340D01*
X52891761Y-40645340D02*
X52891761Y-39645340D01*
X52796523Y-39788198D01*
X52701285Y-39883436D01*
X52606047Y-39931055D01*
X43031933Y-53935902D02*
X42984314Y-53983521D01*
X42841457Y-54031140D01*
X42746219Y-54031140D01*
X42603361Y-53983521D01*
X42508123Y-53888283D01*
X42460504Y-53793045D01*
X42412885Y-53602569D01*
X42412885Y-53459712D01*
X42460504Y-53269236D01*
X42508123Y-53173998D01*
X42603361Y-53078760D01*
X42746219Y-53031140D01*
X42841457Y-53031140D01*
X42984314Y-53078760D01*
X43031933Y-53126379D01*
X43889076Y-53364474D02*
X43889076Y-54031140D01*
X43650980Y-52983521D02*
X43412885Y-53697807D01*
X44031933Y-53697807D01*
X69219333Y-39375340D02*
X68886000Y-38899150D01*
X68647904Y-39375340D02*
X68647904Y-38375340D01*
X69028857Y-38375340D01*
X69124095Y-38422960D01*
X69171714Y-38470579D01*
X69219333Y-38565817D01*
X69219333Y-38708674D01*
X69171714Y-38803912D01*
X69124095Y-38851531D01*
X69028857Y-38899150D01*
X68647904Y-38899150D01*
X69600285Y-38470579D02*
X69647904Y-38422960D01*
X69743142Y-38375340D01*
X69981238Y-38375340D01*
X70076476Y-38422960D01*
X70124095Y-38470579D01*
X70171714Y-38565817D01*
X70171714Y-38661055D01*
X70124095Y-38803912D01*
X69552666Y-39375340D01*
X70171714Y-39375340D01*
X52874433Y-33222202D02*
X52826814Y-33269821D01*
X52683957Y-33317440D01*
X52588719Y-33317440D01*
X52445861Y-33269821D01*
X52350623Y-33174583D01*
X52303004Y-33079345D01*
X52255385Y-32888869D01*
X52255385Y-32746012D01*
X52303004Y-32555536D01*
X52350623Y-32460298D01*
X52445861Y-32365060D01*
X52588719Y-32317440D01*
X52683957Y-32317440D01*
X52826814Y-32365060D01*
X52874433Y-32412679D01*
X53731576Y-32317440D02*
X53541100Y-32317440D01*
X53445861Y-32365060D01*
X53398242Y-32412679D01*
X53303004Y-32555536D01*
X53255385Y-32746012D01*
X53255385Y-33126964D01*
X53303004Y-33222202D01*
X53350623Y-33269821D01*
X53445861Y-33317440D01*
X53636338Y-33317440D01*
X53731576Y-33269821D01*
X53779195Y-33222202D01*
X53826814Y-33126964D01*
X53826814Y-32888869D01*
X53779195Y-32793631D01*
X53731576Y-32746012D01*
X53636338Y-32698393D01*
X53445861Y-32698393D01*
X53350623Y-32746012D01*
X53303004Y-32793631D01*
X53255385Y-32888869D01*
X54055533Y-42804340D02*
X53722200Y-42328150D01*
X53484104Y-42804340D02*
X53484104Y-41804340D01*
X53865057Y-41804340D01*
X53960295Y-41851960D01*
X54007914Y-41899579D01*
X54055533Y-41994817D01*
X54055533Y-42137674D01*
X54007914Y-42232912D01*
X53960295Y-42280531D01*
X53865057Y-42328150D01*
X53484104Y-42328150D01*
X55007914Y-42804340D02*
X54436485Y-42804340D01*
X54722200Y-42804340D02*
X54722200Y-41804340D01*
X54626961Y-41947198D01*
X54531723Y-42042436D01*
X54436485Y-42090055D01*
X56152695Y-33904940D02*
X56152695Y-34714464D01*
X56200314Y-34809702D01*
X56247933Y-34857321D01*
X56343171Y-34904940D01*
X56533647Y-34904940D01*
X56628885Y-34857321D01*
X56676504Y-34809702D01*
X56724123Y-34714464D01*
X56724123Y-33904940D01*
X57152695Y-34000179D02*
X57200314Y-33952560D01*
X57295552Y-33904940D01*
X57533647Y-33904940D01*
X57628885Y-33952560D01*
X57676504Y-34000179D01*
X57724123Y-34095417D01*
X57724123Y-34190655D01*
X57676504Y-34333512D01*
X57105076Y-34904940D01*
X57724123Y-34904940D01*
D12*
X36728000Y-46869160D02*
X36694666Y-46902493D01*
X36594666Y-46935826D01*
X36528000Y-46935826D01*
X36428000Y-46902493D01*
X36361333Y-46835826D01*
X36328000Y-46769160D01*
X36294666Y-46635826D01*
X36294666Y-46535826D01*
X36328000Y-46402493D01*
X36361333Y-46335826D01*
X36428000Y-46269160D01*
X36528000Y-46235826D01*
X36594666Y-46235826D01*
X36694666Y-46269160D01*
X36728000Y-46302493D01*
X36961333Y-46935826D02*
X37328000Y-46469160D01*
X36961333Y-46469160D02*
X37328000Y-46935826D01*
X37561333Y-46302493D02*
X37594666Y-46269160D01*
X37661333Y-46235826D01*
X37828000Y-46235826D01*
X37894666Y-46269160D01*
X37928000Y-46302493D01*
X37961333Y-46369160D01*
X37961333Y-46435826D01*
X37928000Y-46535826D01*
X37528000Y-46935826D01*
X37961333Y-46935826D01*
X36677200Y-49637760D02*
X36643866Y-49671093D01*
X36543866Y-49704426D01*
X36477200Y-49704426D01*
X36377200Y-49671093D01*
X36310533Y-49604426D01*
X36277200Y-49537760D01*
X36243866Y-49404426D01*
X36243866Y-49304426D01*
X36277200Y-49171093D01*
X36310533Y-49104426D01*
X36377200Y-49037760D01*
X36477200Y-49004426D01*
X36543866Y-49004426D01*
X36643866Y-49037760D01*
X36677200Y-49071093D01*
X36910533Y-49704426D02*
X37277200Y-49237760D01*
X36910533Y-49237760D02*
X37277200Y-49704426D01*
X37477200Y-49004426D02*
X37910533Y-49004426D01*
X37677200Y-49271093D01*
X37777200Y-49271093D01*
X37843866Y-49304426D01*
X37877200Y-49337760D01*
X37910533Y-49404426D01*
X37910533Y-49571093D01*
X37877200Y-49637760D01*
X37843866Y-49671093D01*
X37777200Y-49704426D01*
X37577200Y-49704426D01*
X37510533Y-49671093D01*
X37477200Y-49637760D01*
X51790200Y-43668760D02*
X51756866Y-43702093D01*
X51656866Y-43735426D01*
X51590200Y-43735426D01*
X51490200Y-43702093D01*
X51423533Y-43635426D01*
X51390200Y-43568760D01*
X51356866Y-43435426D01*
X51356866Y-43335426D01*
X51390200Y-43202093D01*
X51423533Y-43135426D01*
X51490200Y-43068760D01*
X51590200Y-43035426D01*
X51656866Y-43035426D01*
X51756866Y-43068760D01*
X51790200Y-43102093D01*
X52023533Y-43735426D02*
X52390200Y-43268760D01*
X52023533Y-43268760D02*
X52390200Y-43735426D01*
X52956866Y-43035426D02*
X52823533Y-43035426D01*
X52756866Y-43068760D01*
X52723533Y-43102093D01*
X52656866Y-43202093D01*
X52623533Y-43335426D01*
X52623533Y-43602093D01*
X52656866Y-43668760D01*
X52690200Y-43702093D01*
X52756866Y-43735426D01*
X52890200Y-43735426D01*
X52956866Y-43702093D01*
X52990200Y-43668760D01*
X53023533Y-43602093D01*
X53023533Y-43435426D01*
X52990200Y-43368760D01*
X52956866Y-43335426D01*
X52890200Y-43302093D01*
X52756866Y-43302093D01*
X52690200Y-43335426D01*
X52656866Y-43368760D01*
X52623533Y-43435426D01*
X47935742Y-43023445D02*
X47907171Y-43052017D01*
X47821457Y-43080588D01*
X47764314Y-43080588D01*
X47678600Y-43052017D01*
X47621457Y-42994874D01*
X47592885Y-42937731D01*
X47564314Y-42823445D01*
X47564314Y-42737731D01*
X47592885Y-42623445D01*
X47621457Y-42566302D01*
X47678600Y-42509160D01*
X47764314Y-42480588D01*
X47821457Y-42480588D01*
X47907171Y-42509160D01*
X47935742Y-42537731D01*
X48135742Y-43080588D02*
X48450028Y-42680588D01*
X48135742Y-42680588D02*
X48450028Y-43080588D01*
X48964314Y-42480588D02*
X48678600Y-42480588D01*
X48650028Y-42766302D01*
X48678600Y-42737731D01*
X48735742Y-42709160D01*
X48878600Y-42709160D01*
X48935742Y-42737731D01*
X48964314Y-42766302D01*
X48992885Y-42823445D01*
X48992885Y-42966302D01*
X48964314Y-43023445D01*
X48935742Y-43052017D01*
X48878600Y-43080588D01*
X48735742Y-43080588D01*
X48678600Y-43052017D01*
X48650028Y-43023445D01*
X34518200Y-46869160D02*
X34484866Y-46902493D01*
X34384866Y-46935826D01*
X34318200Y-46935826D01*
X34218200Y-46902493D01*
X34151533Y-46835826D01*
X34118200Y-46769160D01*
X34084866Y-46635826D01*
X34084866Y-46535826D01*
X34118200Y-46402493D01*
X34151533Y-46335826D01*
X34218200Y-46269160D01*
X34318200Y-46235826D01*
X34384866Y-46235826D01*
X34484866Y-46269160D01*
X34518200Y-46302493D01*
X34751533Y-46935826D02*
X35118200Y-46469160D01*
X34751533Y-46469160D02*
X35118200Y-46935826D01*
X35751533Y-46935826D02*
X35351533Y-46935826D01*
X35551533Y-46935826D02*
X35551533Y-46235826D01*
X35484866Y-46335826D01*
X35418200Y-46402493D01*
X35351533Y-46435826D01*
X43941600Y-43668760D02*
X43908266Y-43702093D01*
X43808266Y-43735426D01*
X43741600Y-43735426D01*
X43641600Y-43702093D01*
X43574933Y-43635426D01*
X43541600Y-43568760D01*
X43508266Y-43435426D01*
X43508266Y-43335426D01*
X43541600Y-43202093D01*
X43574933Y-43135426D01*
X43641600Y-43068760D01*
X43741600Y-43035426D01*
X43808266Y-43035426D01*
X43908266Y-43068760D01*
X43941600Y-43102093D01*
X44174933Y-43735426D02*
X44541600Y-43268760D01*
X44174933Y-43268760D02*
X44541600Y-43735426D01*
X45108266Y-43268760D02*
X45108266Y-43735426D01*
X44941600Y-43002093D02*
X44774933Y-43502093D01*
X45208266Y-43502093D01*
D10*
X72229304Y-46665140D02*
X72229304Y-45665140D01*
X72610257Y-45665140D01*
X72705495Y-45712760D01*
X72753114Y-45760379D01*
X72800733Y-45855617D01*
X72800733Y-45998474D01*
X72753114Y-46093712D01*
X72705495Y-46141331D01*
X72610257Y-46188950D01*
X72229304Y-46188950D01*
X73134066Y-45665140D02*
X73753114Y-45665140D01*
X73419780Y-46046093D01*
X73562638Y-46046093D01*
X73657876Y-46093712D01*
X73705495Y-46141331D01*
X73753114Y-46236569D01*
X73753114Y-46474664D01*
X73705495Y-46569902D01*
X73657876Y-46617521D01*
X73562638Y-46665140D01*
X73276923Y-46665140D01*
X73181685Y-46617521D01*
X73134066Y-46569902D01*
M02*
