G04 #@! TF.GenerationSoftware,KiCad,Pcbnew,(5.1.4)-1*
G04 #@! TF.CreationDate,2019-12-07T15:53:33+00:00*
G04 #@! TF.ProjectId,analog,616e616c-6f67-42e6-9b69-6361645f7063,rev?*
G04 #@! TF.SameCoordinates,Original*
G04 #@! TF.FileFunction,Copper,L1,Top*
G04 #@! TF.FilePolarity,Positive*
%FSLAX46Y46*%
G04 Gerber Fmt 4.6, Leading zero omitted, Abs format (unit mm)*
G04 Created by KiCad (PCBNEW (5.1.4)-1) date 2019-12-07 15:53:33*
%MOMM*%
%LPD*%
G04 APERTURE LIST*
%ADD10C,0.100000*%
%ADD11C,1.150000*%
%ADD12R,1.600000X0.410000*%
%ADD13O,1.700000X1.700000*%
%ADD14R,1.700000X1.700000*%
%ADD15C,0.600000*%
%ADD16R,1.900000X0.800000*%
%ADD17C,0.500000*%
%ADD18C,0.800000*%
%ADD19O,1.300000X0.800000*%
%ADD20C,0.762000*%
%ADD21C,0.660400*%
%ADD22C,0.203200*%
%ADD23C,0.381000*%
%ADD24C,0.635000*%
%ADD25C,0.762000*%
%ADD26C,1.016000*%
G04 APERTURE END LIST*
D10*
G36*
X52657705Y-45564764D02*
G01*
X52681973Y-45568364D01*
X52705772Y-45574325D01*
X52728871Y-45582590D01*
X52751050Y-45593080D01*
X52772093Y-45605692D01*
X52791799Y-45620307D01*
X52809977Y-45636783D01*
X52826453Y-45654961D01*
X52841068Y-45674667D01*
X52853680Y-45695710D01*
X52864170Y-45717889D01*
X52872435Y-45740988D01*
X52878396Y-45764787D01*
X52881996Y-45789055D01*
X52883200Y-45813559D01*
X52883200Y-46713561D01*
X52881996Y-46738065D01*
X52878396Y-46762333D01*
X52872435Y-46786132D01*
X52864170Y-46809231D01*
X52853680Y-46831410D01*
X52841068Y-46852453D01*
X52826453Y-46872159D01*
X52809977Y-46890337D01*
X52791799Y-46906813D01*
X52772093Y-46921428D01*
X52751050Y-46934040D01*
X52728871Y-46944530D01*
X52705772Y-46952795D01*
X52681973Y-46958756D01*
X52657705Y-46962356D01*
X52633201Y-46963560D01*
X51983199Y-46963560D01*
X51958695Y-46962356D01*
X51934427Y-46958756D01*
X51910628Y-46952795D01*
X51887529Y-46944530D01*
X51865350Y-46934040D01*
X51844307Y-46921428D01*
X51824601Y-46906813D01*
X51806423Y-46890337D01*
X51789947Y-46872159D01*
X51775332Y-46852453D01*
X51762720Y-46831410D01*
X51752230Y-46809231D01*
X51743965Y-46786132D01*
X51738004Y-46762333D01*
X51734404Y-46738065D01*
X51733200Y-46713561D01*
X51733200Y-45813559D01*
X51734404Y-45789055D01*
X51738004Y-45764787D01*
X51743965Y-45740988D01*
X51752230Y-45717889D01*
X51762720Y-45695710D01*
X51775332Y-45674667D01*
X51789947Y-45654961D01*
X51806423Y-45636783D01*
X51824601Y-45620307D01*
X51844307Y-45605692D01*
X51865350Y-45593080D01*
X51887529Y-45582590D01*
X51910628Y-45574325D01*
X51934427Y-45568364D01*
X51958695Y-45564764D01*
X51983199Y-45563560D01*
X52633201Y-45563560D01*
X52657705Y-45564764D01*
X52657705Y-45564764D01*
G37*
D11*
X52308200Y-46263560D03*
D10*
G36*
X54707705Y-45564764D02*
G01*
X54731973Y-45568364D01*
X54755772Y-45574325D01*
X54778871Y-45582590D01*
X54801050Y-45593080D01*
X54822093Y-45605692D01*
X54841799Y-45620307D01*
X54859977Y-45636783D01*
X54876453Y-45654961D01*
X54891068Y-45674667D01*
X54903680Y-45695710D01*
X54914170Y-45717889D01*
X54922435Y-45740988D01*
X54928396Y-45764787D01*
X54931996Y-45789055D01*
X54933200Y-45813559D01*
X54933200Y-46713561D01*
X54931996Y-46738065D01*
X54928396Y-46762333D01*
X54922435Y-46786132D01*
X54914170Y-46809231D01*
X54903680Y-46831410D01*
X54891068Y-46852453D01*
X54876453Y-46872159D01*
X54859977Y-46890337D01*
X54841799Y-46906813D01*
X54822093Y-46921428D01*
X54801050Y-46934040D01*
X54778871Y-46944530D01*
X54755772Y-46952795D01*
X54731973Y-46958756D01*
X54707705Y-46962356D01*
X54683201Y-46963560D01*
X54033199Y-46963560D01*
X54008695Y-46962356D01*
X53984427Y-46958756D01*
X53960628Y-46952795D01*
X53937529Y-46944530D01*
X53915350Y-46934040D01*
X53894307Y-46921428D01*
X53874601Y-46906813D01*
X53856423Y-46890337D01*
X53839947Y-46872159D01*
X53825332Y-46852453D01*
X53812720Y-46831410D01*
X53802230Y-46809231D01*
X53793965Y-46786132D01*
X53788004Y-46762333D01*
X53784404Y-46738065D01*
X53783200Y-46713561D01*
X53783200Y-45813559D01*
X53784404Y-45789055D01*
X53788004Y-45764787D01*
X53793965Y-45740988D01*
X53802230Y-45717889D01*
X53812720Y-45695710D01*
X53825332Y-45674667D01*
X53839947Y-45654961D01*
X53856423Y-45636783D01*
X53874601Y-45620307D01*
X53894307Y-45605692D01*
X53915350Y-45593080D01*
X53937529Y-45582590D01*
X53960628Y-45574325D01*
X53984427Y-45568364D01*
X54008695Y-45564764D01*
X54033199Y-45563560D01*
X54683201Y-45563560D01*
X54707705Y-45564764D01*
X54707705Y-45564764D01*
G37*
D11*
X54358200Y-46263560D03*
D12*
X44201900Y-47978060D03*
X44201900Y-48613060D03*
X44201900Y-49248060D03*
X44201900Y-49883060D03*
X44201900Y-50518060D03*
X44201900Y-51153060D03*
X44201900Y-51788060D03*
X44201900Y-52423060D03*
X49510500Y-52423060D03*
X49510500Y-51788060D03*
X49510500Y-51153060D03*
X49510500Y-50518060D03*
X49510500Y-49883060D03*
X49510500Y-49248060D03*
X49510500Y-48613060D03*
X49510500Y-47978060D03*
D13*
X66617400Y-45730160D03*
X66617400Y-43190160D03*
X66617400Y-40650160D03*
D14*
X66617400Y-38110160D03*
X74923200Y-42021760D03*
D13*
X74923200Y-39481760D03*
D10*
G36*
X56164903Y-50710682D02*
G01*
X56179464Y-50712842D01*
X56193743Y-50716419D01*
X56207603Y-50721378D01*
X56220910Y-50727672D01*
X56233536Y-50735240D01*
X56245359Y-50744008D01*
X56256266Y-50753894D01*
X56266152Y-50764801D01*
X56274920Y-50776624D01*
X56282488Y-50789250D01*
X56288782Y-50802557D01*
X56293741Y-50816417D01*
X56297318Y-50830696D01*
X56299478Y-50845257D01*
X56300200Y-50859960D01*
X56300200Y-52509960D01*
X56299478Y-52524663D01*
X56297318Y-52539224D01*
X56293741Y-52553503D01*
X56288782Y-52567363D01*
X56282488Y-52580670D01*
X56274920Y-52593296D01*
X56266152Y-52605119D01*
X56256266Y-52616026D01*
X56245359Y-52625912D01*
X56233536Y-52634680D01*
X56220910Y-52642248D01*
X56207603Y-52648542D01*
X56193743Y-52653501D01*
X56179464Y-52657078D01*
X56164903Y-52659238D01*
X56150200Y-52659960D01*
X55850200Y-52659960D01*
X55835497Y-52659238D01*
X55820936Y-52657078D01*
X55806657Y-52653501D01*
X55792797Y-52648542D01*
X55779490Y-52642248D01*
X55766864Y-52634680D01*
X55755041Y-52625912D01*
X55744134Y-52616026D01*
X55734248Y-52605119D01*
X55725480Y-52593296D01*
X55717912Y-52580670D01*
X55711618Y-52567363D01*
X55706659Y-52553503D01*
X55703082Y-52539224D01*
X55700922Y-52524663D01*
X55700200Y-52509960D01*
X55700200Y-50859960D01*
X55700922Y-50845257D01*
X55703082Y-50830696D01*
X55706659Y-50816417D01*
X55711618Y-50802557D01*
X55717912Y-50789250D01*
X55725480Y-50776624D01*
X55734248Y-50764801D01*
X55744134Y-50753894D01*
X55755041Y-50744008D01*
X55766864Y-50735240D01*
X55779490Y-50727672D01*
X55792797Y-50721378D01*
X55806657Y-50716419D01*
X55820936Y-50712842D01*
X55835497Y-50710682D01*
X55850200Y-50709960D01*
X56150200Y-50709960D01*
X56164903Y-50710682D01*
X56164903Y-50710682D01*
G37*
D15*
X56000200Y-51684960D03*
D10*
G36*
X57434903Y-50710682D02*
G01*
X57449464Y-50712842D01*
X57463743Y-50716419D01*
X57477603Y-50721378D01*
X57490910Y-50727672D01*
X57503536Y-50735240D01*
X57515359Y-50744008D01*
X57526266Y-50753894D01*
X57536152Y-50764801D01*
X57544920Y-50776624D01*
X57552488Y-50789250D01*
X57558782Y-50802557D01*
X57563741Y-50816417D01*
X57567318Y-50830696D01*
X57569478Y-50845257D01*
X57570200Y-50859960D01*
X57570200Y-52509960D01*
X57569478Y-52524663D01*
X57567318Y-52539224D01*
X57563741Y-52553503D01*
X57558782Y-52567363D01*
X57552488Y-52580670D01*
X57544920Y-52593296D01*
X57536152Y-52605119D01*
X57526266Y-52616026D01*
X57515359Y-52625912D01*
X57503536Y-52634680D01*
X57490910Y-52642248D01*
X57477603Y-52648542D01*
X57463743Y-52653501D01*
X57449464Y-52657078D01*
X57434903Y-52659238D01*
X57420200Y-52659960D01*
X57120200Y-52659960D01*
X57105497Y-52659238D01*
X57090936Y-52657078D01*
X57076657Y-52653501D01*
X57062797Y-52648542D01*
X57049490Y-52642248D01*
X57036864Y-52634680D01*
X57025041Y-52625912D01*
X57014134Y-52616026D01*
X57004248Y-52605119D01*
X56995480Y-52593296D01*
X56987912Y-52580670D01*
X56981618Y-52567363D01*
X56976659Y-52553503D01*
X56973082Y-52539224D01*
X56970922Y-52524663D01*
X56970200Y-52509960D01*
X56970200Y-50859960D01*
X56970922Y-50845257D01*
X56973082Y-50830696D01*
X56976659Y-50816417D01*
X56981618Y-50802557D01*
X56987912Y-50789250D01*
X56995480Y-50776624D01*
X57004248Y-50764801D01*
X57014134Y-50753894D01*
X57025041Y-50744008D01*
X57036864Y-50735240D01*
X57049490Y-50727672D01*
X57062797Y-50721378D01*
X57076657Y-50716419D01*
X57090936Y-50712842D01*
X57105497Y-50710682D01*
X57120200Y-50709960D01*
X57420200Y-50709960D01*
X57434903Y-50710682D01*
X57434903Y-50710682D01*
G37*
D15*
X57270200Y-51684960D03*
D10*
G36*
X58704903Y-50710682D02*
G01*
X58719464Y-50712842D01*
X58733743Y-50716419D01*
X58747603Y-50721378D01*
X58760910Y-50727672D01*
X58773536Y-50735240D01*
X58785359Y-50744008D01*
X58796266Y-50753894D01*
X58806152Y-50764801D01*
X58814920Y-50776624D01*
X58822488Y-50789250D01*
X58828782Y-50802557D01*
X58833741Y-50816417D01*
X58837318Y-50830696D01*
X58839478Y-50845257D01*
X58840200Y-50859960D01*
X58840200Y-52509960D01*
X58839478Y-52524663D01*
X58837318Y-52539224D01*
X58833741Y-52553503D01*
X58828782Y-52567363D01*
X58822488Y-52580670D01*
X58814920Y-52593296D01*
X58806152Y-52605119D01*
X58796266Y-52616026D01*
X58785359Y-52625912D01*
X58773536Y-52634680D01*
X58760910Y-52642248D01*
X58747603Y-52648542D01*
X58733743Y-52653501D01*
X58719464Y-52657078D01*
X58704903Y-52659238D01*
X58690200Y-52659960D01*
X58390200Y-52659960D01*
X58375497Y-52659238D01*
X58360936Y-52657078D01*
X58346657Y-52653501D01*
X58332797Y-52648542D01*
X58319490Y-52642248D01*
X58306864Y-52634680D01*
X58295041Y-52625912D01*
X58284134Y-52616026D01*
X58274248Y-52605119D01*
X58265480Y-52593296D01*
X58257912Y-52580670D01*
X58251618Y-52567363D01*
X58246659Y-52553503D01*
X58243082Y-52539224D01*
X58240922Y-52524663D01*
X58240200Y-52509960D01*
X58240200Y-50859960D01*
X58240922Y-50845257D01*
X58243082Y-50830696D01*
X58246659Y-50816417D01*
X58251618Y-50802557D01*
X58257912Y-50789250D01*
X58265480Y-50776624D01*
X58274248Y-50764801D01*
X58284134Y-50753894D01*
X58295041Y-50744008D01*
X58306864Y-50735240D01*
X58319490Y-50727672D01*
X58332797Y-50721378D01*
X58346657Y-50716419D01*
X58360936Y-50712842D01*
X58375497Y-50710682D01*
X58390200Y-50709960D01*
X58690200Y-50709960D01*
X58704903Y-50710682D01*
X58704903Y-50710682D01*
G37*
D15*
X58540200Y-51684960D03*
D10*
G36*
X59974903Y-50710682D02*
G01*
X59989464Y-50712842D01*
X60003743Y-50716419D01*
X60017603Y-50721378D01*
X60030910Y-50727672D01*
X60043536Y-50735240D01*
X60055359Y-50744008D01*
X60066266Y-50753894D01*
X60076152Y-50764801D01*
X60084920Y-50776624D01*
X60092488Y-50789250D01*
X60098782Y-50802557D01*
X60103741Y-50816417D01*
X60107318Y-50830696D01*
X60109478Y-50845257D01*
X60110200Y-50859960D01*
X60110200Y-52509960D01*
X60109478Y-52524663D01*
X60107318Y-52539224D01*
X60103741Y-52553503D01*
X60098782Y-52567363D01*
X60092488Y-52580670D01*
X60084920Y-52593296D01*
X60076152Y-52605119D01*
X60066266Y-52616026D01*
X60055359Y-52625912D01*
X60043536Y-52634680D01*
X60030910Y-52642248D01*
X60017603Y-52648542D01*
X60003743Y-52653501D01*
X59989464Y-52657078D01*
X59974903Y-52659238D01*
X59960200Y-52659960D01*
X59660200Y-52659960D01*
X59645497Y-52659238D01*
X59630936Y-52657078D01*
X59616657Y-52653501D01*
X59602797Y-52648542D01*
X59589490Y-52642248D01*
X59576864Y-52634680D01*
X59565041Y-52625912D01*
X59554134Y-52616026D01*
X59544248Y-52605119D01*
X59535480Y-52593296D01*
X59527912Y-52580670D01*
X59521618Y-52567363D01*
X59516659Y-52553503D01*
X59513082Y-52539224D01*
X59510922Y-52524663D01*
X59510200Y-52509960D01*
X59510200Y-50859960D01*
X59510922Y-50845257D01*
X59513082Y-50830696D01*
X59516659Y-50816417D01*
X59521618Y-50802557D01*
X59527912Y-50789250D01*
X59535480Y-50776624D01*
X59544248Y-50764801D01*
X59554134Y-50753894D01*
X59565041Y-50744008D01*
X59576864Y-50735240D01*
X59589490Y-50727672D01*
X59602797Y-50721378D01*
X59616657Y-50716419D01*
X59630936Y-50712842D01*
X59645497Y-50710682D01*
X59660200Y-50709960D01*
X59960200Y-50709960D01*
X59974903Y-50710682D01*
X59974903Y-50710682D01*
G37*
D15*
X59810200Y-51684960D03*
D10*
G36*
X61244903Y-50710682D02*
G01*
X61259464Y-50712842D01*
X61273743Y-50716419D01*
X61287603Y-50721378D01*
X61300910Y-50727672D01*
X61313536Y-50735240D01*
X61325359Y-50744008D01*
X61336266Y-50753894D01*
X61346152Y-50764801D01*
X61354920Y-50776624D01*
X61362488Y-50789250D01*
X61368782Y-50802557D01*
X61373741Y-50816417D01*
X61377318Y-50830696D01*
X61379478Y-50845257D01*
X61380200Y-50859960D01*
X61380200Y-52509960D01*
X61379478Y-52524663D01*
X61377318Y-52539224D01*
X61373741Y-52553503D01*
X61368782Y-52567363D01*
X61362488Y-52580670D01*
X61354920Y-52593296D01*
X61346152Y-52605119D01*
X61336266Y-52616026D01*
X61325359Y-52625912D01*
X61313536Y-52634680D01*
X61300910Y-52642248D01*
X61287603Y-52648542D01*
X61273743Y-52653501D01*
X61259464Y-52657078D01*
X61244903Y-52659238D01*
X61230200Y-52659960D01*
X60930200Y-52659960D01*
X60915497Y-52659238D01*
X60900936Y-52657078D01*
X60886657Y-52653501D01*
X60872797Y-52648542D01*
X60859490Y-52642248D01*
X60846864Y-52634680D01*
X60835041Y-52625912D01*
X60824134Y-52616026D01*
X60814248Y-52605119D01*
X60805480Y-52593296D01*
X60797912Y-52580670D01*
X60791618Y-52567363D01*
X60786659Y-52553503D01*
X60783082Y-52539224D01*
X60780922Y-52524663D01*
X60780200Y-52509960D01*
X60780200Y-50859960D01*
X60780922Y-50845257D01*
X60783082Y-50830696D01*
X60786659Y-50816417D01*
X60791618Y-50802557D01*
X60797912Y-50789250D01*
X60805480Y-50776624D01*
X60814248Y-50764801D01*
X60824134Y-50753894D01*
X60835041Y-50744008D01*
X60846864Y-50735240D01*
X60859490Y-50727672D01*
X60872797Y-50721378D01*
X60886657Y-50716419D01*
X60900936Y-50712842D01*
X60915497Y-50710682D01*
X60930200Y-50709960D01*
X61230200Y-50709960D01*
X61244903Y-50710682D01*
X61244903Y-50710682D01*
G37*
D15*
X61080200Y-51684960D03*
D10*
G36*
X62514903Y-50710682D02*
G01*
X62529464Y-50712842D01*
X62543743Y-50716419D01*
X62557603Y-50721378D01*
X62570910Y-50727672D01*
X62583536Y-50735240D01*
X62595359Y-50744008D01*
X62606266Y-50753894D01*
X62616152Y-50764801D01*
X62624920Y-50776624D01*
X62632488Y-50789250D01*
X62638782Y-50802557D01*
X62643741Y-50816417D01*
X62647318Y-50830696D01*
X62649478Y-50845257D01*
X62650200Y-50859960D01*
X62650200Y-52509960D01*
X62649478Y-52524663D01*
X62647318Y-52539224D01*
X62643741Y-52553503D01*
X62638782Y-52567363D01*
X62632488Y-52580670D01*
X62624920Y-52593296D01*
X62616152Y-52605119D01*
X62606266Y-52616026D01*
X62595359Y-52625912D01*
X62583536Y-52634680D01*
X62570910Y-52642248D01*
X62557603Y-52648542D01*
X62543743Y-52653501D01*
X62529464Y-52657078D01*
X62514903Y-52659238D01*
X62500200Y-52659960D01*
X62200200Y-52659960D01*
X62185497Y-52659238D01*
X62170936Y-52657078D01*
X62156657Y-52653501D01*
X62142797Y-52648542D01*
X62129490Y-52642248D01*
X62116864Y-52634680D01*
X62105041Y-52625912D01*
X62094134Y-52616026D01*
X62084248Y-52605119D01*
X62075480Y-52593296D01*
X62067912Y-52580670D01*
X62061618Y-52567363D01*
X62056659Y-52553503D01*
X62053082Y-52539224D01*
X62050922Y-52524663D01*
X62050200Y-52509960D01*
X62050200Y-50859960D01*
X62050922Y-50845257D01*
X62053082Y-50830696D01*
X62056659Y-50816417D01*
X62061618Y-50802557D01*
X62067912Y-50789250D01*
X62075480Y-50776624D01*
X62084248Y-50764801D01*
X62094134Y-50753894D01*
X62105041Y-50744008D01*
X62116864Y-50735240D01*
X62129490Y-50727672D01*
X62142797Y-50721378D01*
X62156657Y-50716419D01*
X62170936Y-50712842D01*
X62185497Y-50710682D01*
X62200200Y-50709960D01*
X62500200Y-50709960D01*
X62514903Y-50710682D01*
X62514903Y-50710682D01*
G37*
D15*
X62350200Y-51684960D03*
D10*
G36*
X63784903Y-50710682D02*
G01*
X63799464Y-50712842D01*
X63813743Y-50716419D01*
X63827603Y-50721378D01*
X63840910Y-50727672D01*
X63853536Y-50735240D01*
X63865359Y-50744008D01*
X63876266Y-50753894D01*
X63886152Y-50764801D01*
X63894920Y-50776624D01*
X63902488Y-50789250D01*
X63908782Y-50802557D01*
X63913741Y-50816417D01*
X63917318Y-50830696D01*
X63919478Y-50845257D01*
X63920200Y-50859960D01*
X63920200Y-52509960D01*
X63919478Y-52524663D01*
X63917318Y-52539224D01*
X63913741Y-52553503D01*
X63908782Y-52567363D01*
X63902488Y-52580670D01*
X63894920Y-52593296D01*
X63886152Y-52605119D01*
X63876266Y-52616026D01*
X63865359Y-52625912D01*
X63853536Y-52634680D01*
X63840910Y-52642248D01*
X63827603Y-52648542D01*
X63813743Y-52653501D01*
X63799464Y-52657078D01*
X63784903Y-52659238D01*
X63770200Y-52659960D01*
X63470200Y-52659960D01*
X63455497Y-52659238D01*
X63440936Y-52657078D01*
X63426657Y-52653501D01*
X63412797Y-52648542D01*
X63399490Y-52642248D01*
X63386864Y-52634680D01*
X63375041Y-52625912D01*
X63364134Y-52616026D01*
X63354248Y-52605119D01*
X63345480Y-52593296D01*
X63337912Y-52580670D01*
X63331618Y-52567363D01*
X63326659Y-52553503D01*
X63323082Y-52539224D01*
X63320922Y-52524663D01*
X63320200Y-52509960D01*
X63320200Y-50859960D01*
X63320922Y-50845257D01*
X63323082Y-50830696D01*
X63326659Y-50816417D01*
X63331618Y-50802557D01*
X63337912Y-50789250D01*
X63345480Y-50776624D01*
X63354248Y-50764801D01*
X63364134Y-50753894D01*
X63375041Y-50744008D01*
X63386864Y-50735240D01*
X63399490Y-50727672D01*
X63412797Y-50721378D01*
X63426657Y-50716419D01*
X63440936Y-50712842D01*
X63455497Y-50710682D01*
X63470200Y-50709960D01*
X63770200Y-50709960D01*
X63784903Y-50710682D01*
X63784903Y-50710682D01*
G37*
D15*
X63620200Y-51684960D03*
D10*
G36*
X63784903Y-45760682D02*
G01*
X63799464Y-45762842D01*
X63813743Y-45766419D01*
X63827603Y-45771378D01*
X63840910Y-45777672D01*
X63853536Y-45785240D01*
X63865359Y-45794008D01*
X63876266Y-45803894D01*
X63886152Y-45814801D01*
X63894920Y-45826624D01*
X63902488Y-45839250D01*
X63908782Y-45852557D01*
X63913741Y-45866417D01*
X63917318Y-45880696D01*
X63919478Y-45895257D01*
X63920200Y-45909960D01*
X63920200Y-47559960D01*
X63919478Y-47574663D01*
X63917318Y-47589224D01*
X63913741Y-47603503D01*
X63908782Y-47617363D01*
X63902488Y-47630670D01*
X63894920Y-47643296D01*
X63886152Y-47655119D01*
X63876266Y-47666026D01*
X63865359Y-47675912D01*
X63853536Y-47684680D01*
X63840910Y-47692248D01*
X63827603Y-47698542D01*
X63813743Y-47703501D01*
X63799464Y-47707078D01*
X63784903Y-47709238D01*
X63770200Y-47709960D01*
X63470200Y-47709960D01*
X63455497Y-47709238D01*
X63440936Y-47707078D01*
X63426657Y-47703501D01*
X63412797Y-47698542D01*
X63399490Y-47692248D01*
X63386864Y-47684680D01*
X63375041Y-47675912D01*
X63364134Y-47666026D01*
X63354248Y-47655119D01*
X63345480Y-47643296D01*
X63337912Y-47630670D01*
X63331618Y-47617363D01*
X63326659Y-47603503D01*
X63323082Y-47589224D01*
X63320922Y-47574663D01*
X63320200Y-47559960D01*
X63320200Y-45909960D01*
X63320922Y-45895257D01*
X63323082Y-45880696D01*
X63326659Y-45866417D01*
X63331618Y-45852557D01*
X63337912Y-45839250D01*
X63345480Y-45826624D01*
X63354248Y-45814801D01*
X63364134Y-45803894D01*
X63375041Y-45794008D01*
X63386864Y-45785240D01*
X63399490Y-45777672D01*
X63412797Y-45771378D01*
X63426657Y-45766419D01*
X63440936Y-45762842D01*
X63455497Y-45760682D01*
X63470200Y-45759960D01*
X63770200Y-45759960D01*
X63784903Y-45760682D01*
X63784903Y-45760682D01*
G37*
D15*
X63620200Y-46734960D03*
D10*
G36*
X62514903Y-45760682D02*
G01*
X62529464Y-45762842D01*
X62543743Y-45766419D01*
X62557603Y-45771378D01*
X62570910Y-45777672D01*
X62583536Y-45785240D01*
X62595359Y-45794008D01*
X62606266Y-45803894D01*
X62616152Y-45814801D01*
X62624920Y-45826624D01*
X62632488Y-45839250D01*
X62638782Y-45852557D01*
X62643741Y-45866417D01*
X62647318Y-45880696D01*
X62649478Y-45895257D01*
X62650200Y-45909960D01*
X62650200Y-47559960D01*
X62649478Y-47574663D01*
X62647318Y-47589224D01*
X62643741Y-47603503D01*
X62638782Y-47617363D01*
X62632488Y-47630670D01*
X62624920Y-47643296D01*
X62616152Y-47655119D01*
X62606266Y-47666026D01*
X62595359Y-47675912D01*
X62583536Y-47684680D01*
X62570910Y-47692248D01*
X62557603Y-47698542D01*
X62543743Y-47703501D01*
X62529464Y-47707078D01*
X62514903Y-47709238D01*
X62500200Y-47709960D01*
X62200200Y-47709960D01*
X62185497Y-47709238D01*
X62170936Y-47707078D01*
X62156657Y-47703501D01*
X62142797Y-47698542D01*
X62129490Y-47692248D01*
X62116864Y-47684680D01*
X62105041Y-47675912D01*
X62094134Y-47666026D01*
X62084248Y-47655119D01*
X62075480Y-47643296D01*
X62067912Y-47630670D01*
X62061618Y-47617363D01*
X62056659Y-47603503D01*
X62053082Y-47589224D01*
X62050922Y-47574663D01*
X62050200Y-47559960D01*
X62050200Y-45909960D01*
X62050922Y-45895257D01*
X62053082Y-45880696D01*
X62056659Y-45866417D01*
X62061618Y-45852557D01*
X62067912Y-45839250D01*
X62075480Y-45826624D01*
X62084248Y-45814801D01*
X62094134Y-45803894D01*
X62105041Y-45794008D01*
X62116864Y-45785240D01*
X62129490Y-45777672D01*
X62142797Y-45771378D01*
X62156657Y-45766419D01*
X62170936Y-45762842D01*
X62185497Y-45760682D01*
X62200200Y-45759960D01*
X62500200Y-45759960D01*
X62514903Y-45760682D01*
X62514903Y-45760682D01*
G37*
D15*
X62350200Y-46734960D03*
D10*
G36*
X61244903Y-45760682D02*
G01*
X61259464Y-45762842D01*
X61273743Y-45766419D01*
X61287603Y-45771378D01*
X61300910Y-45777672D01*
X61313536Y-45785240D01*
X61325359Y-45794008D01*
X61336266Y-45803894D01*
X61346152Y-45814801D01*
X61354920Y-45826624D01*
X61362488Y-45839250D01*
X61368782Y-45852557D01*
X61373741Y-45866417D01*
X61377318Y-45880696D01*
X61379478Y-45895257D01*
X61380200Y-45909960D01*
X61380200Y-47559960D01*
X61379478Y-47574663D01*
X61377318Y-47589224D01*
X61373741Y-47603503D01*
X61368782Y-47617363D01*
X61362488Y-47630670D01*
X61354920Y-47643296D01*
X61346152Y-47655119D01*
X61336266Y-47666026D01*
X61325359Y-47675912D01*
X61313536Y-47684680D01*
X61300910Y-47692248D01*
X61287603Y-47698542D01*
X61273743Y-47703501D01*
X61259464Y-47707078D01*
X61244903Y-47709238D01*
X61230200Y-47709960D01*
X60930200Y-47709960D01*
X60915497Y-47709238D01*
X60900936Y-47707078D01*
X60886657Y-47703501D01*
X60872797Y-47698542D01*
X60859490Y-47692248D01*
X60846864Y-47684680D01*
X60835041Y-47675912D01*
X60824134Y-47666026D01*
X60814248Y-47655119D01*
X60805480Y-47643296D01*
X60797912Y-47630670D01*
X60791618Y-47617363D01*
X60786659Y-47603503D01*
X60783082Y-47589224D01*
X60780922Y-47574663D01*
X60780200Y-47559960D01*
X60780200Y-45909960D01*
X60780922Y-45895257D01*
X60783082Y-45880696D01*
X60786659Y-45866417D01*
X60791618Y-45852557D01*
X60797912Y-45839250D01*
X60805480Y-45826624D01*
X60814248Y-45814801D01*
X60824134Y-45803894D01*
X60835041Y-45794008D01*
X60846864Y-45785240D01*
X60859490Y-45777672D01*
X60872797Y-45771378D01*
X60886657Y-45766419D01*
X60900936Y-45762842D01*
X60915497Y-45760682D01*
X60930200Y-45759960D01*
X61230200Y-45759960D01*
X61244903Y-45760682D01*
X61244903Y-45760682D01*
G37*
D15*
X61080200Y-46734960D03*
D10*
G36*
X59974903Y-45760682D02*
G01*
X59989464Y-45762842D01*
X60003743Y-45766419D01*
X60017603Y-45771378D01*
X60030910Y-45777672D01*
X60043536Y-45785240D01*
X60055359Y-45794008D01*
X60066266Y-45803894D01*
X60076152Y-45814801D01*
X60084920Y-45826624D01*
X60092488Y-45839250D01*
X60098782Y-45852557D01*
X60103741Y-45866417D01*
X60107318Y-45880696D01*
X60109478Y-45895257D01*
X60110200Y-45909960D01*
X60110200Y-47559960D01*
X60109478Y-47574663D01*
X60107318Y-47589224D01*
X60103741Y-47603503D01*
X60098782Y-47617363D01*
X60092488Y-47630670D01*
X60084920Y-47643296D01*
X60076152Y-47655119D01*
X60066266Y-47666026D01*
X60055359Y-47675912D01*
X60043536Y-47684680D01*
X60030910Y-47692248D01*
X60017603Y-47698542D01*
X60003743Y-47703501D01*
X59989464Y-47707078D01*
X59974903Y-47709238D01*
X59960200Y-47709960D01*
X59660200Y-47709960D01*
X59645497Y-47709238D01*
X59630936Y-47707078D01*
X59616657Y-47703501D01*
X59602797Y-47698542D01*
X59589490Y-47692248D01*
X59576864Y-47684680D01*
X59565041Y-47675912D01*
X59554134Y-47666026D01*
X59544248Y-47655119D01*
X59535480Y-47643296D01*
X59527912Y-47630670D01*
X59521618Y-47617363D01*
X59516659Y-47603503D01*
X59513082Y-47589224D01*
X59510922Y-47574663D01*
X59510200Y-47559960D01*
X59510200Y-45909960D01*
X59510922Y-45895257D01*
X59513082Y-45880696D01*
X59516659Y-45866417D01*
X59521618Y-45852557D01*
X59527912Y-45839250D01*
X59535480Y-45826624D01*
X59544248Y-45814801D01*
X59554134Y-45803894D01*
X59565041Y-45794008D01*
X59576864Y-45785240D01*
X59589490Y-45777672D01*
X59602797Y-45771378D01*
X59616657Y-45766419D01*
X59630936Y-45762842D01*
X59645497Y-45760682D01*
X59660200Y-45759960D01*
X59960200Y-45759960D01*
X59974903Y-45760682D01*
X59974903Y-45760682D01*
G37*
D15*
X59810200Y-46734960D03*
D10*
G36*
X58704903Y-45760682D02*
G01*
X58719464Y-45762842D01*
X58733743Y-45766419D01*
X58747603Y-45771378D01*
X58760910Y-45777672D01*
X58773536Y-45785240D01*
X58785359Y-45794008D01*
X58796266Y-45803894D01*
X58806152Y-45814801D01*
X58814920Y-45826624D01*
X58822488Y-45839250D01*
X58828782Y-45852557D01*
X58833741Y-45866417D01*
X58837318Y-45880696D01*
X58839478Y-45895257D01*
X58840200Y-45909960D01*
X58840200Y-47559960D01*
X58839478Y-47574663D01*
X58837318Y-47589224D01*
X58833741Y-47603503D01*
X58828782Y-47617363D01*
X58822488Y-47630670D01*
X58814920Y-47643296D01*
X58806152Y-47655119D01*
X58796266Y-47666026D01*
X58785359Y-47675912D01*
X58773536Y-47684680D01*
X58760910Y-47692248D01*
X58747603Y-47698542D01*
X58733743Y-47703501D01*
X58719464Y-47707078D01*
X58704903Y-47709238D01*
X58690200Y-47709960D01*
X58390200Y-47709960D01*
X58375497Y-47709238D01*
X58360936Y-47707078D01*
X58346657Y-47703501D01*
X58332797Y-47698542D01*
X58319490Y-47692248D01*
X58306864Y-47684680D01*
X58295041Y-47675912D01*
X58284134Y-47666026D01*
X58274248Y-47655119D01*
X58265480Y-47643296D01*
X58257912Y-47630670D01*
X58251618Y-47617363D01*
X58246659Y-47603503D01*
X58243082Y-47589224D01*
X58240922Y-47574663D01*
X58240200Y-47559960D01*
X58240200Y-45909960D01*
X58240922Y-45895257D01*
X58243082Y-45880696D01*
X58246659Y-45866417D01*
X58251618Y-45852557D01*
X58257912Y-45839250D01*
X58265480Y-45826624D01*
X58274248Y-45814801D01*
X58284134Y-45803894D01*
X58295041Y-45794008D01*
X58306864Y-45785240D01*
X58319490Y-45777672D01*
X58332797Y-45771378D01*
X58346657Y-45766419D01*
X58360936Y-45762842D01*
X58375497Y-45760682D01*
X58390200Y-45759960D01*
X58690200Y-45759960D01*
X58704903Y-45760682D01*
X58704903Y-45760682D01*
G37*
D15*
X58540200Y-46734960D03*
D10*
G36*
X57434903Y-45760682D02*
G01*
X57449464Y-45762842D01*
X57463743Y-45766419D01*
X57477603Y-45771378D01*
X57490910Y-45777672D01*
X57503536Y-45785240D01*
X57515359Y-45794008D01*
X57526266Y-45803894D01*
X57536152Y-45814801D01*
X57544920Y-45826624D01*
X57552488Y-45839250D01*
X57558782Y-45852557D01*
X57563741Y-45866417D01*
X57567318Y-45880696D01*
X57569478Y-45895257D01*
X57570200Y-45909960D01*
X57570200Y-47559960D01*
X57569478Y-47574663D01*
X57567318Y-47589224D01*
X57563741Y-47603503D01*
X57558782Y-47617363D01*
X57552488Y-47630670D01*
X57544920Y-47643296D01*
X57536152Y-47655119D01*
X57526266Y-47666026D01*
X57515359Y-47675912D01*
X57503536Y-47684680D01*
X57490910Y-47692248D01*
X57477603Y-47698542D01*
X57463743Y-47703501D01*
X57449464Y-47707078D01*
X57434903Y-47709238D01*
X57420200Y-47709960D01*
X57120200Y-47709960D01*
X57105497Y-47709238D01*
X57090936Y-47707078D01*
X57076657Y-47703501D01*
X57062797Y-47698542D01*
X57049490Y-47692248D01*
X57036864Y-47684680D01*
X57025041Y-47675912D01*
X57014134Y-47666026D01*
X57004248Y-47655119D01*
X56995480Y-47643296D01*
X56987912Y-47630670D01*
X56981618Y-47617363D01*
X56976659Y-47603503D01*
X56973082Y-47589224D01*
X56970922Y-47574663D01*
X56970200Y-47559960D01*
X56970200Y-45909960D01*
X56970922Y-45895257D01*
X56973082Y-45880696D01*
X56976659Y-45866417D01*
X56981618Y-45852557D01*
X56987912Y-45839250D01*
X56995480Y-45826624D01*
X57004248Y-45814801D01*
X57014134Y-45803894D01*
X57025041Y-45794008D01*
X57036864Y-45785240D01*
X57049490Y-45777672D01*
X57062797Y-45771378D01*
X57076657Y-45766419D01*
X57090936Y-45762842D01*
X57105497Y-45760682D01*
X57120200Y-45759960D01*
X57420200Y-45759960D01*
X57434903Y-45760682D01*
X57434903Y-45760682D01*
G37*
D15*
X57270200Y-46734960D03*
D10*
G36*
X56164903Y-45760682D02*
G01*
X56179464Y-45762842D01*
X56193743Y-45766419D01*
X56207603Y-45771378D01*
X56220910Y-45777672D01*
X56233536Y-45785240D01*
X56245359Y-45794008D01*
X56256266Y-45803894D01*
X56266152Y-45814801D01*
X56274920Y-45826624D01*
X56282488Y-45839250D01*
X56288782Y-45852557D01*
X56293741Y-45866417D01*
X56297318Y-45880696D01*
X56299478Y-45895257D01*
X56300200Y-45909960D01*
X56300200Y-47559960D01*
X56299478Y-47574663D01*
X56297318Y-47589224D01*
X56293741Y-47603503D01*
X56288782Y-47617363D01*
X56282488Y-47630670D01*
X56274920Y-47643296D01*
X56266152Y-47655119D01*
X56256266Y-47666026D01*
X56245359Y-47675912D01*
X56233536Y-47684680D01*
X56220910Y-47692248D01*
X56207603Y-47698542D01*
X56193743Y-47703501D01*
X56179464Y-47707078D01*
X56164903Y-47709238D01*
X56150200Y-47709960D01*
X55850200Y-47709960D01*
X55835497Y-47709238D01*
X55820936Y-47707078D01*
X55806657Y-47703501D01*
X55792797Y-47698542D01*
X55779490Y-47692248D01*
X55766864Y-47684680D01*
X55755041Y-47675912D01*
X55744134Y-47666026D01*
X55734248Y-47655119D01*
X55725480Y-47643296D01*
X55717912Y-47630670D01*
X55711618Y-47617363D01*
X55706659Y-47603503D01*
X55703082Y-47589224D01*
X55700922Y-47574663D01*
X55700200Y-47559960D01*
X55700200Y-45909960D01*
X55700922Y-45895257D01*
X55703082Y-45880696D01*
X55706659Y-45866417D01*
X55711618Y-45852557D01*
X55717912Y-45839250D01*
X55725480Y-45826624D01*
X55734248Y-45814801D01*
X55744134Y-45803894D01*
X55755041Y-45794008D01*
X55766864Y-45785240D01*
X55779490Y-45777672D01*
X55792797Y-45771378D01*
X55806657Y-45766419D01*
X55820936Y-45762842D01*
X55835497Y-45760682D01*
X55850200Y-45759960D01*
X56150200Y-45759960D01*
X56164903Y-45760682D01*
X56164903Y-45760682D01*
G37*
D15*
X56000200Y-46734960D03*
D10*
G36*
X69860505Y-45901964D02*
G01*
X69884773Y-45905564D01*
X69908572Y-45911525D01*
X69931671Y-45919790D01*
X69953850Y-45930280D01*
X69974893Y-45942892D01*
X69994599Y-45957507D01*
X70012777Y-45973983D01*
X70029253Y-45992161D01*
X70043868Y-46011867D01*
X70056480Y-46032910D01*
X70066970Y-46055089D01*
X70075235Y-46078188D01*
X70081196Y-46101987D01*
X70084796Y-46126255D01*
X70086000Y-46150759D01*
X70086000Y-46800761D01*
X70084796Y-46825265D01*
X70081196Y-46849533D01*
X70075235Y-46873332D01*
X70066970Y-46896431D01*
X70056480Y-46918610D01*
X70043868Y-46939653D01*
X70029253Y-46959359D01*
X70012777Y-46977537D01*
X69994599Y-46994013D01*
X69974893Y-47008628D01*
X69953850Y-47021240D01*
X69931671Y-47031730D01*
X69908572Y-47039995D01*
X69884773Y-47045956D01*
X69860505Y-47049556D01*
X69836001Y-47050760D01*
X68935999Y-47050760D01*
X68911495Y-47049556D01*
X68887227Y-47045956D01*
X68863428Y-47039995D01*
X68840329Y-47031730D01*
X68818150Y-47021240D01*
X68797107Y-47008628D01*
X68777401Y-46994013D01*
X68759223Y-46977537D01*
X68742747Y-46959359D01*
X68728132Y-46939653D01*
X68715520Y-46918610D01*
X68705030Y-46896431D01*
X68696765Y-46873332D01*
X68690804Y-46849533D01*
X68687204Y-46825265D01*
X68686000Y-46800761D01*
X68686000Y-46150759D01*
X68687204Y-46126255D01*
X68690804Y-46101987D01*
X68696765Y-46078188D01*
X68705030Y-46055089D01*
X68715520Y-46032910D01*
X68728132Y-46011867D01*
X68742747Y-45992161D01*
X68759223Y-45973983D01*
X68777401Y-45957507D01*
X68797107Y-45942892D01*
X68818150Y-45930280D01*
X68840329Y-45919790D01*
X68863428Y-45911525D01*
X68887227Y-45905564D01*
X68911495Y-45901964D01*
X68935999Y-45900760D01*
X69836001Y-45900760D01*
X69860505Y-45901964D01*
X69860505Y-45901964D01*
G37*
D11*
X69386000Y-46475760D03*
D10*
G36*
X69860505Y-43851964D02*
G01*
X69884773Y-43855564D01*
X69908572Y-43861525D01*
X69931671Y-43869790D01*
X69953850Y-43880280D01*
X69974893Y-43892892D01*
X69994599Y-43907507D01*
X70012777Y-43923983D01*
X70029253Y-43942161D01*
X70043868Y-43961867D01*
X70056480Y-43982910D01*
X70066970Y-44005089D01*
X70075235Y-44028188D01*
X70081196Y-44051987D01*
X70084796Y-44076255D01*
X70086000Y-44100759D01*
X70086000Y-44750761D01*
X70084796Y-44775265D01*
X70081196Y-44799533D01*
X70075235Y-44823332D01*
X70066970Y-44846431D01*
X70056480Y-44868610D01*
X70043868Y-44889653D01*
X70029253Y-44909359D01*
X70012777Y-44927537D01*
X69994599Y-44944013D01*
X69974893Y-44958628D01*
X69953850Y-44971240D01*
X69931671Y-44981730D01*
X69908572Y-44989995D01*
X69884773Y-44995956D01*
X69860505Y-44999556D01*
X69836001Y-45000760D01*
X68935999Y-45000760D01*
X68911495Y-44999556D01*
X68887227Y-44995956D01*
X68863428Y-44989995D01*
X68840329Y-44981730D01*
X68818150Y-44971240D01*
X68797107Y-44958628D01*
X68777401Y-44944013D01*
X68759223Y-44927537D01*
X68742747Y-44909359D01*
X68728132Y-44889653D01*
X68715520Y-44868610D01*
X68705030Y-44846431D01*
X68696765Y-44823332D01*
X68690804Y-44799533D01*
X68687204Y-44775265D01*
X68686000Y-44750761D01*
X68686000Y-44100759D01*
X68687204Y-44076255D01*
X68690804Y-44051987D01*
X68696765Y-44028188D01*
X68705030Y-44005089D01*
X68715520Y-43982910D01*
X68728132Y-43961867D01*
X68742747Y-43942161D01*
X68759223Y-43923983D01*
X68777401Y-43907507D01*
X68797107Y-43892892D01*
X68818150Y-43880280D01*
X68840329Y-43869790D01*
X68863428Y-43861525D01*
X68887227Y-43855564D01*
X68911495Y-43851964D01*
X68935999Y-43850760D01*
X69836001Y-43850760D01*
X69860505Y-43851964D01*
X69860505Y-43851964D01*
G37*
D11*
X69386000Y-44425760D03*
D10*
G36*
X68347505Y-47876164D02*
G01*
X68371773Y-47879764D01*
X68395572Y-47885725D01*
X68418671Y-47893990D01*
X68440850Y-47904480D01*
X68461893Y-47917092D01*
X68481599Y-47931707D01*
X68499777Y-47948183D01*
X68516253Y-47966361D01*
X68530868Y-47986067D01*
X68543480Y-48007110D01*
X68553970Y-48029289D01*
X68562235Y-48052388D01*
X68568196Y-48076187D01*
X68571796Y-48100455D01*
X68573000Y-48124959D01*
X68573000Y-49024961D01*
X68571796Y-49049465D01*
X68568196Y-49073733D01*
X68562235Y-49097532D01*
X68553970Y-49120631D01*
X68543480Y-49142810D01*
X68530868Y-49163853D01*
X68516253Y-49183559D01*
X68499777Y-49201737D01*
X68481599Y-49218213D01*
X68461893Y-49232828D01*
X68440850Y-49245440D01*
X68418671Y-49255930D01*
X68395572Y-49264195D01*
X68371773Y-49270156D01*
X68347505Y-49273756D01*
X68323001Y-49274960D01*
X67672999Y-49274960D01*
X67648495Y-49273756D01*
X67624227Y-49270156D01*
X67600428Y-49264195D01*
X67577329Y-49255930D01*
X67555150Y-49245440D01*
X67534107Y-49232828D01*
X67514401Y-49218213D01*
X67496223Y-49201737D01*
X67479747Y-49183559D01*
X67465132Y-49163853D01*
X67452520Y-49142810D01*
X67442030Y-49120631D01*
X67433765Y-49097532D01*
X67427804Y-49073733D01*
X67424204Y-49049465D01*
X67423000Y-49024961D01*
X67423000Y-48124959D01*
X67424204Y-48100455D01*
X67427804Y-48076187D01*
X67433765Y-48052388D01*
X67442030Y-48029289D01*
X67452520Y-48007110D01*
X67465132Y-47986067D01*
X67479747Y-47966361D01*
X67496223Y-47948183D01*
X67514401Y-47931707D01*
X67534107Y-47917092D01*
X67555150Y-47904480D01*
X67577329Y-47893990D01*
X67600428Y-47885725D01*
X67624227Y-47879764D01*
X67648495Y-47876164D01*
X67672999Y-47874960D01*
X68323001Y-47874960D01*
X68347505Y-47876164D01*
X68347505Y-47876164D01*
G37*
D11*
X67998000Y-48574960D03*
D10*
G36*
X66297505Y-47876164D02*
G01*
X66321773Y-47879764D01*
X66345572Y-47885725D01*
X66368671Y-47893990D01*
X66390850Y-47904480D01*
X66411893Y-47917092D01*
X66431599Y-47931707D01*
X66449777Y-47948183D01*
X66466253Y-47966361D01*
X66480868Y-47986067D01*
X66493480Y-48007110D01*
X66503970Y-48029289D01*
X66512235Y-48052388D01*
X66518196Y-48076187D01*
X66521796Y-48100455D01*
X66523000Y-48124959D01*
X66523000Y-49024961D01*
X66521796Y-49049465D01*
X66518196Y-49073733D01*
X66512235Y-49097532D01*
X66503970Y-49120631D01*
X66493480Y-49142810D01*
X66480868Y-49163853D01*
X66466253Y-49183559D01*
X66449777Y-49201737D01*
X66431599Y-49218213D01*
X66411893Y-49232828D01*
X66390850Y-49245440D01*
X66368671Y-49255930D01*
X66345572Y-49264195D01*
X66321773Y-49270156D01*
X66297505Y-49273756D01*
X66273001Y-49274960D01*
X65622999Y-49274960D01*
X65598495Y-49273756D01*
X65574227Y-49270156D01*
X65550428Y-49264195D01*
X65527329Y-49255930D01*
X65505150Y-49245440D01*
X65484107Y-49232828D01*
X65464401Y-49218213D01*
X65446223Y-49201737D01*
X65429747Y-49183559D01*
X65415132Y-49163853D01*
X65402520Y-49142810D01*
X65392030Y-49120631D01*
X65383765Y-49097532D01*
X65377804Y-49073733D01*
X65374204Y-49049465D01*
X65373000Y-49024961D01*
X65373000Y-48124959D01*
X65374204Y-48100455D01*
X65377804Y-48076187D01*
X65383765Y-48052388D01*
X65392030Y-48029289D01*
X65402520Y-48007110D01*
X65415132Y-47986067D01*
X65429747Y-47966361D01*
X65446223Y-47948183D01*
X65464401Y-47931707D01*
X65484107Y-47917092D01*
X65505150Y-47904480D01*
X65527329Y-47893990D01*
X65550428Y-47885725D01*
X65574227Y-47879764D01*
X65598495Y-47876164D01*
X65622999Y-47874960D01*
X66273001Y-47874960D01*
X66297505Y-47876164D01*
X66297505Y-47876164D01*
G37*
D11*
X65948000Y-48574960D03*
D10*
G36*
X66297505Y-49908164D02*
G01*
X66321773Y-49911764D01*
X66345572Y-49917725D01*
X66368671Y-49925990D01*
X66390850Y-49936480D01*
X66411893Y-49949092D01*
X66431599Y-49963707D01*
X66449777Y-49980183D01*
X66466253Y-49998361D01*
X66480868Y-50018067D01*
X66493480Y-50039110D01*
X66503970Y-50061289D01*
X66512235Y-50084388D01*
X66518196Y-50108187D01*
X66521796Y-50132455D01*
X66523000Y-50156959D01*
X66523000Y-51056961D01*
X66521796Y-51081465D01*
X66518196Y-51105733D01*
X66512235Y-51129532D01*
X66503970Y-51152631D01*
X66493480Y-51174810D01*
X66480868Y-51195853D01*
X66466253Y-51215559D01*
X66449777Y-51233737D01*
X66431599Y-51250213D01*
X66411893Y-51264828D01*
X66390850Y-51277440D01*
X66368671Y-51287930D01*
X66345572Y-51296195D01*
X66321773Y-51302156D01*
X66297505Y-51305756D01*
X66273001Y-51306960D01*
X65622999Y-51306960D01*
X65598495Y-51305756D01*
X65574227Y-51302156D01*
X65550428Y-51296195D01*
X65527329Y-51287930D01*
X65505150Y-51277440D01*
X65484107Y-51264828D01*
X65464401Y-51250213D01*
X65446223Y-51233737D01*
X65429747Y-51215559D01*
X65415132Y-51195853D01*
X65402520Y-51174810D01*
X65392030Y-51152631D01*
X65383765Y-51129532D01*
X65377804Y-51105733D01*
X65374204Y-51081465D01*
X65373000Y-51056961D01*
X65373000Y-50156959D01*
X65374204Y-50132455D01*
X65377804Y-50108187D01*
X65383765Y-50084388D01*
X65392030Y-50061289D01*
X65402520Y-50039110D01*
X65415132Y-50018067D01*
X65429747Y-49998361D01*
X65446223Y-49980183D01*
X65464401Y-49963707D01*
X65484107Y-49949092D01*
X65505150Y-49936480D01*
X65527329Y-49925990D01*
X65550428Y-49917725D01*
X65574227Y-49911764D01*
X65598495Y-49908164D01*
X65622999Y-49906960D01*
X66273001Y-49906960D01*
X66297505Y-49908164D01*
X66297505Y-49908164D01*
G37*
D11*
X65948000Y-50606960D03*
D10*
G36*
X68347505Y-49908164D02*
G01*
X68371773Y-49911764D01*
X68395572Y-49917725D01*
X68418671Y-49925990D01*
X68440850Y-49936480D01*
X68461893Y-49949092D01*
X68481599Y-49963707D01*
X68499777Y-49980183D01*
X68516253Y-49998361D01*
X68530868Y-50018067D01*
X68543480Y-50039110D01*
X68553970Y-50061289D01*
X68562235Y-50084388D01*
X68568196Y-50108187D01*
X68571796Y-50132455D01*
X68573000Y-50156959D01*
X68573000Y-51056961D01*
X68571796Y-51081465D01*
X68568196Y-51105733D01*
X68562235Y-51129532D01*
X68553970Y-51152631D01*
X68543480Y-51174810D01*
X68530868Y-51195853D01*
X68516253Y-51215559D01*
X68499777Y-51233737D01*
X68481599Y-51250213D01*
X68461893Y-51264828D01*
X68440850Y-51277440D01*
X68418671Y-51287930D01*
X68395572Y-51296195D01*
X68371773Y-51302156D01*
X68347505Y-51305756D01*
X68323001Y-51306960D01*
X67672999Y-51306960D01*
X67648495Y-51305756D01*
X67624227Y-51302156D01*
X67600428Y-51296195D01*
X67577329Y-51287930D01*
X67555150Y-51277440D01*
X67534107Y-51264828D01*
X67514401Y-51250213D01*
X67496223Y-51233737D01*
X67479747Y-51215559D01*
X67465132Y-51195853D01*
X67452520Y-51174810D01*
X67442030Y-51152631D01*
X67433765Y-51129532D01*
X67427804Y-51105733D01*
X67424204Y-51081465D01*
X67423000Y-51056961D01*
X67423000Y-50156959D01*
X67424204Y-50132455D01*
X67427804Y-50108187D01*
X67433765Y-50084388D01*
X67442030Y-50061289D01*
X67452520Y-50039110D01*
X67465132Y-50018067D01*
X67479747Y-49998361D01*
X67496223Y-49980183D01*
X67514401Y-49963707D01*
X67534107Y-49949092D01*
X67555150Y-49936480D01*
X67577329Y-49925990D01*
X67600428Y-49917725D01*
X67624227Y-49911764D01*
X67648495Y-49908164D01*
X67672999Y-49906960D01*
X68323001Y-49906960D01*
X68347505Y-49908164D01*
X68347505Y-49908164D01*
G37*
D11*
X67998000Y-50606960D03*
D10*
G36*
X68347505Y-51940164D02*
G01*
X68371773Y-51943764D01*
X68395572Y-51949725D01*
X68418671Y-51957990D01*
X68440850Y-51968480D01*
X68461893Y-51981092D01*
X68481599Y-51995707D01*
X68499777Y-52012183D01*
X68516253Y-52030361D01*
X68530868Y-52050067D01*
X68543480Y-52071110D01*
X68553970Y-52093289D01*
X68562235Y-52116388D01*
X68568196Y-52140187D01*
X68571796Y-52164455D01*
X68573000Y-52188959D01*
X68573000Y-53088961D01*
X68571796Y-53113465D01*
X68568196Y-53137733D01*
X68562235Y-53161532D01*
X68553970Y-53184631D01*
X68543480Y-53206810D01*
X68530868Y-53227853D01*
X68516253Y-53247559D01*
X68499777Y-53265737D01*
X68481599Y-53282213D01*
X68461893Y-53296828D01*
X68440850Y-53309440D01*
X68418671Y-53319930D01*
X68395572Y-53328195D01*
X68371773Y-53334156D01*
X68347505Y-53337756D01*
X68323001Y-53338960D01*
X67672999Y-53338960D01*
X67648495Y-53337756D01*
X67624227Y-53334156D01*
X67600428Y-53328195D01*
X67577329Y-53319930D01*
X67555150Y-53309440D01*
X67534107Y-53296828D01*
X67514401Y-53282213D01*
X67496223Y-53265737D01*
X67479747Y-53247559D01*
X67465132Y-53227853D01*
X67452520Y-53206810D01*
X67442030Y-53184631D01*
X67433765Y-53161532D01*
X67427804Y-53137733D01*
X67424204Y-53113465D01*
X67423000Y-53088961D01*
X67423000Y-52188959D01*
X67424204Y-52164455D01*
X67427804Y-52140187D01*
X67433765Y-52116388D01*
X67442030Y-52093289D01*
X67452520Y-52071110D01*
X67465132Y-52050067D01*
X67479747Y-52030361D01*
X67496223Y-52012183D01*
X67514401Y-51995707D01*
X67534107Y-51981092D01*
X67555150Y-51968480D01*
X67577329Y-51957990D01*
X67600428Y-51949725D01*
X67624227Y-51943764D01*
X67648495Y-51940164D01*
X67672999Y-51938960D01*
X68323001Y-51938960D01*
X68347505Y-51940164D01*
X68347505Y-51940164D01*
G37*
D11*
X67998000Y-52638960D03*
D10*
G36*
X66297505Y-51940164D02*
G01*
X66321773Y-51943764D01*
X66345572Y-51949725D01*
X66368671Y-51957990D01*
X66390850Y-51968480D01*
X66411893Y-51981092D01*
X66431599Y-51995707D01*
X66449777Y-52012183D01*
X66466253Y-52030361D01*
X66480868Y-52050067D01*
X66493480Y-52071110D01*
X66503970Y-52093289D01*
X66512235Y-52116388D01*
X66518196Y-52140187D01*
X66521796Y-52164455D01*
X66523000Y-52188959D01*
X66523000Y-53088961D01*
X66521796Y-53113465D01*
X66518196Y-53137733D01*
X66512235Y-53161532D01*
X66503970Y-53184631D01*
X66493480Y-53206810D01*
X66480868Y-53227853D01*
X66466253Y-53247559D01*
X66449777Y-53265737D01*
X66431599Y-53282213D01*
X66411893Y-53296828D01*
X66390850Y-53309440D01*
X66368671Y-53319930D01*
X66345572Y-53328195D01*
X66321773Y-53334156D01*
X66297505Y-53337756D01*
X66273001Y-53338960D01*
X65622999Y-53338960D01*
X65598495Y-53337756D01*
X65574227Y-53334156D01*
X65550428Y-53328195D01*
X65527329Y-53319930D01*
X65505150Y-53309440D01*
X65484107Y-53296828D01*
X65464401Y-53282213D01*
X65446223Y-53265737D01*
X65429747Y-53247559D01*
X65415132Y-53227853D01*
X65402520Y-53206810D01*
X65392030Y-53184631D01*
X65383765Y-53161532D01*
X65377804Y-53137733D01*
X65374204Y-53113465D01*
X65373000Y-53088961D01*
X65373000Y-52188959D01*
X65374204Y-52164455D01*
X65377804Y-52140187D01*
X65383765Y-52116388D01*
X65392030Y-52093289D01*
X65402520Y-52071110D01*
X65415132Y-52050067D01*
X65429747Y-52030361D01*
X65446223Y-52012183D01*
X65464401Y-51995707D01*
X65484107Y-51981092D01*
X65505150Y-51968480D01*
X65527329Y-51957990D01*
X65550428Y-51949725D01*
X65574227Y-51943764D01*
X65598495Y-51940164D01*
X65622999Y-51938960D01*
X66273001Y-51938960D01*
X66297505Y-51940164D01*
X66297505Y-51940164D01*
G37*
D11*
X65948000Y-52638960D03*
D14*
X76040800Y-35189160D03*
D10*
G36*
X45398703Y-33823082D02*
G01*
X45413264Y-33825242D01*
X45427543Y-33828819D01*
X45441403Y-33833778D01*
X45454710Y-33840072D01*
X45467336Y-33847640D01*
X45479159Y-33856408D01*
X45490066Y-33866294D01*
X45499952Y-33877201D01*
X45508720Y-33889024D01*
X45516288Y-33901650D01*
X45522582Y-33914957D01*
X45527541Y-33928817D01*
X45531118Y-33943096D01*
X45533278Y-33957657D01*
X45534000Y-33972360D01*
X45534000Y-34272360D01*
X45533278Y-34287063D01*
X45531118Y-34301624D01*
X45527541Y-34315903D01*
X45522582Y-34329763D01*
X45516288Y-34343070D01*
X45508720Y-34355696D01*
X45499952Y-34367519D01*
X45490066Y-34378426D01*
X45479159Y-34388312D01*
X45467336Y-34397080D01*
X45454710Y-34404648D01*
X45441403Y-34410942D01*
X45427543Y-34415901D01*
X45413264Y-34419478D01*
X45398703Y-34421638D01*
X45384000Y-34422360D01*
X43734000Y-34422360D01*
X43719297Y-34421638D01*
X43704736Y-34419478D01*
X43690457Y-34415901D01*
X43676597Y-34410942D01*
X43663290Y-34404648D01*
X43650664Y-34397080D01*
X43638841Y-34388312D01*
X43627934Y-34378426D01*
X43618048Y-34367519D01*
X43609280Y-34355696D01*
X43601712Y-34343070D01*
X43595418Y-34329763D01*
X43590459Y-34315903D01*
X43586882Y-34301624D01*
X43584722Y-34287063D01*
X43584000Y-34272360D01*
X43584000Y-33972360D01*
X43584722Y-33957657D01*
X43586882Y-33943096D01*
X43590459Y-33928817D01*
X43595418Y-33914957D01*
X43601712Y-33901650D01*
X43609280Y-33889024D01*
X43618048Y-33877201D01*
X43627934Y-33866294D01*
X43638841Y-33856408D01*
X43650664Y-33847640D01*
X43663290Y-33840072D01*
X43676597Y-33833778D01*
X43690457Y-33828819D01*
X43704736Y-33825242D01*
X43719297Y-33823082D01*
X43734000Y-33822360D01*
X45384000Y-33822360D01*
X45398703Y-33823082D01*
X45398703Y-33823082D01*
G37*
D15*
X44559000Y-34122360D03*
D10*
G36*
X45398703Y-35093082D02*
G01*
X45413264Y-35095242D01*
X45427543Y-35098819D01*
X45441403Y-35103778D01*
X45454710Y-35110072D01*
X45467336Y-35117640D01*
X45479159Y-35126408D01*
X45490066Y-35136294D01*
X45499952Y-35147201D01*
X45508720Y-35159024D01*
X45516288Y-35171650D01*
X45522582Y-35184957D01*
X45527541Y-35198817D01*
X45531118Y-35213096D01*
X45533278Y-35227657D01*
X45534000Y-35242360D01*
X45534000Y-35542360D01*
X45533278Y-35557063D01*
X45531118Y-35571624D01*
X45527541Y-35585903D01*
X45522582Y-35599763D01*
X45516288Y-35613070D01*
X45508720Y-35625696D01*
X45499952Y-35637519D01*
X45490066Y-35648426D01*
X45479159Y-35658312D01*
X45467336Y-35667080D01*
X45454710Y-35674648D01*
X45441403Y-35680942D01*
X45427543Y-35685901D01*
X45413264Y-35689478D01*
X45398703Y-35691638D01*
X45384000Y-35692360D01*
X43734000Y-35692360D01*
X43719297Y-35691638D01*
X43704736Y-35689478D01*
X43690457Y-35685901D01*
X43676597Y-35680942D01*
X43663290Y-35674648D01*
X43650664Y-35667080D01*
X43638841Y-35658312D01*
X43627934Y-35648426D01*
X43618048Y-35637519D01*
X43609280Y-35625696D01*
X43601712Y-35613070D01*
X43595418Y-35599763D01*
X43590459Y-35585903D01*
X43586882Y-35571624D01*
X43584722Y-35557063D01*
X43584000Y-35542360D01*
X43584000Y-35242360D01*
X43584722Y-35227657D01*
X43586882Y-35213096D01*
X43590459Y-35198817D01*
X43595418Y-35184957D01*
X43601712Y-35171650D01*
X43609280Y-35159024D01*
X43618048Y-35147201D01*
X43627934Y-35136294D01*
X43638841Y-35126408D01*
X43650664Y-35117640D01*
X43663290Y-35110072D01*
X43676597Y-35103778D01*
X43690457Y-35098819D01*
X43704736Y-35095242D01*
X43719297Y-35093082D01*
X43734000Y-35092360D01*
X45384000Y-35092360D01*
X45398703Y-35093082D01*
X45398703Y-35093082D01*
G37*
D15*
X44559000Y-35392360D03*
D10*
G36*
X45398703Y-36363082D02*
G01*
X45413264Y-36365242D01*
X45427543Y-36368819D01*
X45441403Y-36373778D01*
X45454710Y-36380072D01*
X45467336Y-36387640D01*
X45479159Y-36396408D01*
X45490066Y-36406294D01*
X45499952Y-36417201D01*
X45508720Y-36429024D01*
X45516288Y-36441650D01*
X45522582Y-36454957D01*
X45527541Y-36468817D01*
X45531118Y-36483096D01*
X45533278Y-36497657D01*
X45534000Y-36512360D01*
X45534000Y-36812360D01*
X45533278Y-36827063D01*
X45531118Y-36841624D01*
X45527541Y-36855903D01*
X45522582Y-36869763D01*
X45516288Y-36883070D01*
X45508720Y-36895696D01*
X45499952Y-36907519D01*
X45490066Y-36918426D01*
X45479159Y-36928312D01*
X45467336Y-36937080D01*
X45454710Y-36944648D01*
X45441403Y-36950942D01*
X45427543Y-36955901D01*
X45413264Y-36959478D01*
X45398703Y-36961638D01*
X45384000Y-36962360D01*
X43734000Y-36962360D01*
X43719297Y-36961638D01*
X43704736Y-36959478D01*
X43690457Y-36955901D01*
X43676597Y-36950942D01*
X43663290Y-36944648D01*
X43650664Y-36937080D01*
X43638841Y-36928312D01*
X43627934Y-36918426D01*
X43618048Y-36907519D01*
X43609280Y-36895696D01*
X43601712Y-36883070D01*
X43595418Y-36869763D01*
X43590459Y-36855903D01*
X43586882Y-36841624D01*
X43584722Y-36827063D01*
X43584000Y-36812360D01*
X43584000Y-36512360D01*
X43584722Y-36497657D01*
X43586882Y-36483096D01*
X43590459Y-36468817D01*
X43595418Y-36454957D01*
X43601712Y-36441650D01*
X43609280Y-36429024D01*
X43618048Y-36417201D01*
X43627934Y-36406294D01*
X43638841Y-36396408D01*
X43650664Y-36387640D01*
X43663290Y-36380072D01*
X43676597Y-36373778D01*
X43690457Y-36368819D01*
X43704736Y-36365242D01*
X43719297Y-36363082D01*
X43734000Y-36362360D01*
X45384000Y-36362360D01*
X45398703Y-36363082D01*
X45398703Y-36363082D01*
G37*
D15*
X44559000Y-36662360D03*
D10*
G36*
X45398703Y-37633082D02*
G01*
X45413264Y-37635242D01*
X45427543Y-37638819D01*
X45441403Y-37643778D01*
X45454710Y-37650072D01*
X45467336Y-37657640D01*
X45479159Y-37666408D01*
X45490066Y-37676294D01*
X45499952Y-37687201D01*
X45508720Y-37699024D01*
X45516288Y-37711650D01*
X45522582Y-37724957D01*
X45527541Y-37738817D01*
X45531118Y-37753096D01*
X45533278Y-37767657D01*
X45534000Y-37782360D01*
X45534000Y-38082360D01*
X45533278Y-38097063D01*
X45531118Y-38111624D01*
X45527541Y-38125903D01*
X45522582Y-38139763D01*
X45516288Y-38153070D01*
X45508720Y-38165696D01*
X45499952Y-38177519D01*
X45490066Y-38188426D01*
X45479159Y-38198312D01*
X45467336Y-38207080D01*
X45454710Y-38214648D01*
X45441403Y-38220942D01*
X45427543Y-38225901D01*
X45413264Y-38229478D01*
X45398703Y-38231638D01*
X45384000Y-38232360D01*
X43734000Y-38232360D01*
X43719297Y-38231638D01*
X43704736Y-38229478D01*
X43690457Y-38225901D01*
X43676597Y-38220942D01*
X43663290Y-38214648D01*
X43650664Y-38207080D01*
X43638841Y-38198312D01*
X43627934Y-38188426D01*
X43618048Y-38177519D01*
X43609280Y-38165696D01*
X43601712Y-38153070D01*
X43595418Y-38139763D01*
X43590459Y-38125903D01*
X43586882Y-38111624D01*
X43584722Y-38097063D01*
X43584000Y-38082360D01*
X43584000Y-37782360D01*
X43584722Y-37767657D01*
X43586882Y-37753096D01*
X43590459Y-37738817D01*
X43595418Y-37724957D01*
X43601712Y-37711650D01*
X43609280Y-37699024D01*
X43618048Y-37687201D01*
X43627934Y-37676294D01*
X43638841Y-37666408D01*
X43650664Y-37657640D01*
X43663290Y-37650072D01*
X43676597Y-37643778D01*
X43690457Y-37638819D01*
X43704736Y-37635242D01*
X43719297Y-37633082D01*
X43734000Y-37632360D01*
X45384000Y-37632360D01*
X45398703Y-37633082D01*
X45398703Y-37633082D01*
G37*
D15*
X44559000Y-37932360D03*
D10*
G36*
X45398703Y-38903082D02*
G01*
X45413264Y-38905242D01*
X45427543Y-38908819D01*
X45441403Y-38913778D01*
X45454710Y-38920072D01*
X45467336Y-38927640D01*
X45479159Y-38936408D01*
X45490066Y-38946294D01*
X45499952Y-38957201D01*
X45508720Y-38969024D01*
X45516288Y-38981650D01*
X45522582Y-38994957D01*
X45527541Y-39008817D01*
X45531118Y-39023096D01*
X45533278Y-39037657D01*
X45534000Y-39052360D01*
X45534000Y-39352360D01*
X45533278Y-39367063D01*
X45531118Y-39381624D01*
X45527541Y-39395903D01*
X45522582Y-39409763D01*
X45516288Y-39423070D01*
X45508720Y-39435696D01*
X45499952Y-39447519D01*
X45490066Y-39458426D01*
X45479159Y-39468312D01*
X45467336Y-39477080D01*
X45454710Y-39484648D01*
X45441403Y-39490942D01*
X45427543Y-39495901D01*
X45413264Y-39499478D01*
X45398703Y-39501638D01*
X45384000Y-39502360D01*
X43734000Y-39502360D01*
X43719297Y-39501638D01*
X43704736Y-39499478D01*
X43690457Y-39495901D01*
X43676597Y-39490942D01*
X43663290Y-39484648D01*
X43650664Y-39477080D01*
X43638841Y-39468312D01*
X43627934Y-39458426D01*
X43618048Y-39447519D01*
X43609280Y-39435696D01*
X43601712Y-39423070D01*
X43595418Y-39409763D01*
X43590459Y-39395903D01*
X43586882Y-39381624D01*
X43584722Y-39367063D01*
X43584000Y-39352360D01*
X43584000Y-39052360D01*
X43584722Y-39037657D01*
X43586882Y-39023096D01*
X43590459Y-39008817D01*
X43595418Y-38994957D01*
X43601712Y-38981650D01*
X43609280Y-38969024D01*
X43618048Y-38957201D01*
X43627934Y-38946294D01*
X43638841Y-38936408D01*
X43650664Y-38927640D01*
X43663290Y-38920072D01*
X43676597Y-38913778D01*
X43690457Y-38908819D01*
X43704736Y-38905242D01*
X43719297Y-38903082D01*
X43734000Y-38902360D01*
X45384000Y-38902360D01*
X45398703Y-38903082D01*
X45398703Y-38903082D01*
G37*
D15*
X44559000Y-39202360D03*
D10*
G36*
X45398703Y-40173082D02*
G01*
X45413264Y-40175242D01*
X45427543Y-40178819D01*
X45441403Y-40183778D01*
X45454710Y-40190072D01*
X45467336Y-40197640D01*
X45479159Y-40206408D01*
X45490066Y-40216294D01*
X45499952Y-40227201D01*
X45508720Y-40239024D01*
X45516288Y-40251650D01*
X45522582Y-40264957D01*
X45527541Y-40278817D01*
X45531118Y-40293096D01*
X45533278Y-40307657D01*
X45534000Y-40322360D01*
X45534000Y-40622360D01*
X45533278Y-40637063D01*
X45531118Y-40651624D01*
X45527541Y-40665903D01*
X45522582Y-40679763D01*
X45516288Y-40693070D01*
X45508720Y-40705696D01*
X45499952Y-40717519D01*
X45490066Y-40728426D01*
X45479159Y-40738312D01*
X45467336Y-40747080D01*
X45454710Y-40754648D01*
X45441403Y-40760942D01*
X45427543Y-40765901D01*
X45413264Y-40769478D01*
X45398703Y-40771638D01*
X45384000Y-40772360D01*
X43734000Y-40772360D01*
X43719297Y-40771638D01*
X43704736Y-40769478D01*
X43690457Y-40765901D01*
X43676597Y-40760942D01*
X43663290Y-40754648D01*
X43650664Y-40747080D01*
X43638841Y-40738312D01*
X43627934Y-40728426D01*
X43618048Y-40717519D01*
X43609280Y-40705696D01*
X43601712Y-40693070D01*
X43595418Y-40679763D01*
X43590459Y-40665903D01*
X43586882Y-40651624D01*
X43584722Y-40637063D01*
X43584000Y-40622360D01*
X43584000Y-40322360D01*
X43584722Y-40307657D01*
X43586882Y-40293096D01*
X43590459Y-40278817D01*
X43595418Y-40264957D01*
X43601712Y-40251650D01*
X43609280Y-40239024D01*
X43618048Y-40227201D01*
X43627934Y-40216294D01*
X43638841Y-40206408D01*
X43650664Y-40197640D01*
X43663290Y-40190072D01*
X43676597Y-40183778D01*
X43690457Y-40178819D01*
X43704736Y-40175242D01*
X43719297Y-40173082D01*
X43734000Y-40172360D01*
X45384000Y-40172360D01*
X45398703Y-40173082D01*
X45398703Y-40173082D01*
G37*
D15*
X44559000Y-40472360D03*
D10*
G36*
X45398703Y-41443082D02*
G01*
X45413264Y-41445242D01*
X45427543Y-41448819D01*
X45441403Y-41453778D01*
X45454710Y-41460072D01*
X45467336Y-41467640D01*
X45479159Y-41476408D01*
X45490066Y-41486294D01*
X45499952Y-41497201D01*
X45508720Y-41509024D01*
X45516288Y-41521650D01*
X45522582Y-41534957D01*
X45527541Y-41548817D01*
X45531118Y-41563096D01*
X45533278Y-41577657D01*
X45534000Y-41592360D01*
X45534000Y-41892360D01*
X45533278Y-41907063D01*
X45531118Y-41921624D01*
X45527541Y-41935903D01*
X45522582Y-41949763D01*
X45516288Y-41963070D01*
X45508720Y-41975696D01*
X45499952Y-41987519D01*
X45490066Y-41998426D01*
X45479159Y-42008312D01*
X45467336Y-42017080D01*
X45454710Y-42024648D01*
X45441403Y-42030942D01*
X45427543Y-42035901D01*
X45413264Y-42039478D01*
X45398703Y-42041638D01*
X45384000Y-42042360D01*
X43734000Y-42042360D01*
X43719297Y-42041638D01*
X43704736Y-42039478D01*
X43690457Y-42035901D01*
X43676597Y-42030942D01*
X43663290Y-42024648D01*
X43650664Y-42017080D01*
X43638841Y-42008312D01*
X43627934Y-41998426D01*
X43618048Y-41987519D01*
X43609280Y-41975696D01*
X43601712Y-41963070D01*
X43595418Y-41949763D01*
X43590459Y-41935903D01*
X43586882Y-41921624D01*
X43584722Y-41907063D01*
X43584000Y-41892360D01*
X43584000Y-41592360D01*
X43584722Y-41577657D01*
X43586882Y-41563096D01*
X43590459Y-41548817D01*
X43595418Y-41534957D01*
X43601712Y-41521650D01*
X43609280Y-41509024D01*
X43618048Y-41497201D01*
X43627934Y-41486294D01*
X43638841Y-41476408D01*
X43650664Y-41467640D01*
X43663290Y-41460072D01*
X43676597Y-41453778D01*
X43690457Y-41448819D01*
X43704736Y-41445242D01*
X43719297Y-41443082D01*
X43734000Y-41442360D01*
X45384000Y-41442360D01*
X45398703Y-41443082D01*
X45398703Y-41443082D01*
G37*
D15*
X44559000Y-41742360D03*
D10*
G36*
X50348703Y-41443082D02*
G01*
X50363264Y-41445242D01*
X50377543Y-41448819D01*
X50391403Y-41453778D01*
X50404710Y-41460072D01*
X50417336Y-41467640D01*
X50429159Y-41476408D01*
X50440066Y-41486294D01*
X50449952Y-41497201D01*
X50458720Y-41509024D01*
X50466288Y-41521650D01*
X50472582Y-41534957D01*
X50477541Y-41548817D01*
X50481118Y-41563096D01*
X50483278Y-41577657D01*
X50484000Y-41592360D01*
X50484000Y-41892360D01*
X50483278Y-41907063D01*
X50481118Y-41921624D01*
X50477541Y-41935903D01*
X50472582Y-41949763D01*
X50466288Y-41963070D01*
X50458720Y-41975696D01*
X50449952Y-41987519D01*
X50440066Y-41998426D01*
X50429159Y-42008312D01*
X50417336Y-42017080D01*
X50404710Y-42024648D01*
X50391403Y-42030942D01*
X50377543Y-42035901D01*
X50363264Y-42039478D01*
X50348703Y-42041638D01*
X50334000Y-42042360D01*
X48684000Y-42042360D01*
X48669297Y-42041638D01*
X48654736Y-42039478D01*
X48640457Y-42035901D01*
X48626597Y-42030942D01*
X48613290Y-42024648D01*
X48600664Y-42017080D01*
X48588841Y-42008312D01*
X48577934Y-41998426D01*
X48568048Y-41987519D01*
X48559280Y-41975696D01*
X48551712Y-41963070D01*
X48545418Y-41949763D01*
X48540459Y-41935903D01*
X48536882Y-41921624D01*
X48534722Y-41907063D01*
X48534000Y-41892360D01*
X48534000Y-41592360D01*
X48534722Y-41577657D01*
X48536882Y-41563096D01*
X48540459Y-41548817D01*
X48545418Y-41534957D01*
X48551712Y-41521650D01*
X48559280Y-41509024D01*
X48568048Y-41497201D01*
X48577934Y-41486294D01*
X48588841Y-41476408D01*
X48600664Y-41467640D01*
X48613290Y-41460072D01*
X48626597Y-41453778D01*
X48640457Y-41448819D01*
X48654736Y-41445242D01*
X48669297Y-41443082D01*
X48684000Y-41442360D01*
X50334000Y-41442360D01*
X50348703Y-41443082D01*
X50348703Y-41443082D01*
G37*
D15*
X49509000Y-41742360D03*
D10*
G36*
X50348703Y-40173082D02*
G01*
X50363264Y-40175242D01*
X50377543Y-40178819D01*
X50391403Y-40183778D01*
X50404710Y-40190072D01*
X50417336Y-40197640D01*
X50429159Y-40206408D01*
X50440066Y-40216294D01*
X50449952Y-40227201D01*
X50458720Y-40239024D01*
X50466288Y-40251650D01*
X50472582Y-40264957D01*
X50477541Y-40278817D01*
X50481118Y-40293096D01*
X50483278Y-40307657D01*
X50484000Y-40322360D01*
X50484000Y-40622360D01*
X50483278Y-40637063D01*
X50481118Y-40651624D01*
X50477541Y-40665903D01*
X50472582Y-40679763D01*
X50466288Y-40693070D01*
X50458720Y-40705696D01*
X50449952Y-40717519D01*
X50440066Y-40728426D01*
X50429159Y-40738312D01*
X50417336Y-40747080D01*
X50404710Y-40754648D01*
X50391403Y-40760942D01*
X50377543Y-40765901D01*
X50363264Y-40769478D01*
X50348703Y-40771638D01*
X50334000Y-40772360D01*
X48684000Y-40772360D01*
X48669297Y-40771638D01*
X48654736Y-40769478D01*
X48640457Y-40765901D01*
X48626597Y-40760942D01*
X48613290Y-40754648D01*
X48600664Y-40747080D01*
X48588841Y-40738312D01*
X48577934Y-40728426D01*
X48568048Y-40717519D01*
X48559280Y-40705696D01*
X48551712Y-40693070D01*
X48545418Y-40679763D01*
X48540459Y-40665903D01*
X48536882Y-40651624D01*
X48534722Y-40637063D01*
X48534000Y-40622360D01*
X48534000Y-40322360D01*
X48534722Y-40307657D01*
X48536882Y-40293096D01*
X48540459Y-40278817D01*
X48545418Y-40264957D01*
X48551712Y-40251650D01*
X48559280Y-40239024D01*
X48568048Y-40227201D01*
X48577934Y-40216294D01*
X48588841Y-40206408D01*
X48600664Y-40197640D01*
X48613290Y-40190072D01*
X48626597Y-40183778D01*
X48640457Y-40178819D01*
X48654736Y-40175242D01*
X48669297Y-40173082D01*
X48684000Y-40172360D01*
X50334000Y-40172360D01*
X50348703Y-40173082D01*
X50348703Y-40173082D01*
G37*
D15*
X49509000Y-40472360D03*
D10*
G36*
X50348703Y-38903082D02*
G01*
X50363264Y-38905242D01*
X50377543Y-38908819D01*
X50391403Y-38913778D01*
X50404710Y-38920072D01*
X50417336Y-38927640D01*
X50429159Y-38936408D01*
X50440066Y-38946294D01*
X50449952Y-38957201D01*
X50458720Y-38969024D01*
X50466288Y-38981650D01*
X50472582Y-38994957D01*
X50477541Y-39008817D01*
X50481118Y-39023096D01*
X50483278Y-39037657D01*
X50484000Y-39052360D01*
X50484000Y-39352360D01*
X50483278Y-39367063D01*
X50481118Y-39381624D01*
X50477541Y-39395903D01*
X50472582Y-39409763D01*
X50466288Y-39423070D01*
X50458720Y-39435696D01*
X50449952Y-39447519D01*
X50440066Y-39458426D01*
X50429159Y-39468312D01*
X50417336Y-39477080D01*
X50404710Y-39484648D01*
X50391403Y-39490942D01*
X50377543Y-39495901D01*
X50363264Y-39499478D01*
X50348703Y-39501638D01*
X50334000Y-39502360D01*
X48684000Y-39502360D01*
X48669297Y-39501638D01*
X48654736Y-39499478D01*
X48640457Y-39495901D01*
X48626597Y-39490942D01*
X48613290Y-39484648D01*
X48600664Y-39477080D01*
X48588841Y-39468312D01*
X48577934Y-39458426D01*
X48568048Y-39447519D01*
X48559280Y-39435696D01*
X48551712Y-39423070D01*
X48545418Y-39409763D01*
X48540459Y-39395903D01*
X48536882Y-39381624D01*
X48534722Y-39367063D01*
X48534000Y-39352360D01*
X48534000Y-39052360D01*
X48534722Y-39037657D01*
X48536882Y-39023096D01*
X48540459Y-39008817D01*
X48545418Y-38994957D01*
X48551712Y-38981650D01*
X48559280Y-38969024D01*
X48568048Y-38957201D01*
X48577934Y-38946294D01*
X48588841Y-38936408D01*
X48600664Y-38927640D01*
X48613290Y-38920072D01*
X48626597Y-38913778D01*
X48640457Y-38908819D01*
X48654736Y-38905242D01*
X48669297Y-38903082D01*
X48684000Y-38902360D01*
X50334000Y-38902360D01*
X50348703Y-38903082D01*
X50348703Y-38903082D01*
G37*
D15*
X49509000Y-39202360D03*
D10*
G36*
X50348703Y-37633082D02*
G01*
X50363264Y-37635242D01*
X50377543Y-37638819D01*
X50391403Y-37643778D01*
X50404710Y-37650072D01*
X50417336Y-37657640D01*
X50429159Y-37666408D01*
X50440066Y-37676294D01*
X50449952Y-37687201D01*
X50458720Y-37699024D01*
X50466288Y-37711650D01*
X50472582Y-37724957D01*
X50477541Y-37738817D01*
X50481118Y-37753096D01*
X50483278Y-37767657D01*
X50484000Y-37782360D01*
X50484000Y-38082360D01*
X50483278Y-38097063D01*
X50481118Y-38111624D01*
X50477541Y-38125903D01*
X50472582Y-38139763D01*
X50466288Y-38153070D01*
X50458720Y-38165696D01*
X50449952Y-38177519D01*
X50440066Y-38188426D01*
X50429159Y-38198312D01*
X50417336Y-38207080D01*
X50404710Y-38214648D01*
X50391403Y-38220942D01*
X50377543Y-38225901D01*
X50363264Y-38229478D01*
X50348703Y-38231638D01*
X50334000Y-38232360D01*
X48684000Y-38232360D01*
X48669297Y-38231638D01*
X48654736Y-38229478D01*
X48640457Y-38225901D01*
X48626597Y-38220942D01*
X48613290Y-38214648D01*
X48600664Y-38207080D01*
X48588841Y-38198312D01*
X48577934Y-38188426D01*
X48568048Y-38177519D01*
X48559280Y-38165696D01*
X48551712Y-38153070D01*
X48545418Y-38139763D01*
X48540459Y-38125903D01*
X48536882Y-38111624D01*
X48534722Y-38097063D01*
X48534000Y-38082360D01*
X48534000Y-37782360D01*
X48534722Y-37767657D01*
X48536882Y-37753096D01*
X48540459Y-37738817D01*
X48545418Y-37724957D01*
X48551712Y-37711650D01*
X48559280Y-37699024D01*
X48568048Y-37687201D01*
X48577934Y-37676294D01*
X48588841Y-37666408D01*
X48600664Y-37657640D01*
X48613290Y-37650072D01*
X48626597Y-37643778D01*
X48640457Y-37638819D01*
X48654736Y-37635242D01*
X48669297Y-37633082D01*
X48684000Y-37632360D01*
X50334000Y-37632360D01*
X50348703Y-37633082D01*
X50348703Y-37633082D01*
G37*
D15*
X49509000Y-37932360D03*
D10*
G36*
X50348703Y-36363082D02*
G01*
X50363264Y-36365242D01*
X50377543Y-36368819D01*
X50391403Y-36373778D01*
X50404710Y-36380072D01*
X50417336Y-36387640D01*
X50429159Y-36396408D01*
X50440066Y-36406294D01*
X50449952Y-36417201D01*
X50458720Y-36429024D01*
X50466288Y-36441650D01*
X50472582Y-36454957D01*
X50477541Y-36468817D01*
X50481118Y-36483096D01*
X50483278Y-36497657D01*
X50484000Y-36512360D01*
X50484000Y-36812360D01*
X50483278Y-36827063D01*
X50481118Y-36841624D01*
X50477541Y-36855903D01*
X50472582Y-36869763D01*
X50466288Y-36883070D01*
X50458720Y-36895696D01*
X50449952Y-36907519D01*
X50440066Y-36918426D01*
X50429159Y-36928312D01*
X50417336Y-36937080D01*
X50404710Y-36944648D01*
X50391403Y-36950942D01*
X50377543Y-36955901D01*
X50363264Y-36959478D01*
X50348703Y-36961638D01*
X50334000Y-36962360D01*
X48684000Y-36962360D01*
X48669297Y-36961638D01*
X48654736Y-36959478D01*
X48640457Y-36955901D01*
X48626597Y-36950942D01*
X48613290Y-36944648D01*
X48600664Y-36937080D01*
X48588841Y-36928312D01*
X48577934Y-36918426D01*
X48568048Y-36907519D01*
X48559280Y-36895696D01*
X48551712Y-36883070D01*
X48545418Y-36869763D01*
X48540459Y-36855903D01*
X48536882Y-36841624D01*
X48534722Y-36827063D01*
X48534000Y-36812360D01*
X48534000Y-36512360D01*
X48534722Y-36497657D01*
X48536882Y-36483096D01*
X48540459Y-36468817D01*
X48545418Y-36454957D01*
X48551712Y-36441650D01*
X48559280Y-36429024D01*
X48568048Y-36417201D01*
X48577934Y-36406294D01*
X48588841Y-36396408D01*
X48600664Y-36387640D01*
X48613290Y-36380072D01*
X48626597Y-36373778D01*
X48640457Y-36368819D01*
X48654736Y-36365242D01*
X48669297Y-36363082D01*
X48684000Y-36362360D01*
X50334000Y-36362360D01*
X50348703Y-36363082D01*
X50348703Y-36363082D01*
G37*
D15*
X49509000Y-36662360D03*
D10*
G36*
X50348703Y-35093082D02*
G01*
X50363264Y-35095242D01*
X50377543Y-35098819D01*
X50391403Y-35103778D01*
X50404710Y-35110072D01*
X50417336Y-35117640D01*
X50429159Y-35126408D01*
X50440066Y-35136294D01*
X50449952Y-35147201D01*
X50458720Y-35159024D01*
X50466288Y-35171650D01*
X50472582Y-35184957D01*
X50477541Y-35198817D01*
X50481118Y-35213096D01*
X50483278Y-35227657D01*
X50484000Y-35242360D01*
X50484000Y-35542360D01*
X50483278Y-35557063D01*
X50481118Y-35571624D01*
X50477541Y-35585903D01*
X50472582Y-35599763D01*
X50466288Y-35613070D01*
X50458720Y-35625696D01*
X50449952Y-35637519D01*
X50440066Y-35648426D01*
X50429159Y-35658312D01*
X50417336Y-35667080D01*
X50404710Y-35674648D01*
X50391403Y-35680942D01*
X50377543Y-35685901D01*
X50363264Y-35689478D01*
X50348703Y-35691638D01*
X50334000Y-35692360D01*
X48684000Y-35692360D01*
X48669297Y-35691638D01*
X48654736Y-35689478D01*
X48640457Y-35685901D01*
X48626597Y-35680942D01*
X48613290Y-35674648D01*
X48600664Y-35667080D01*
X48588841Y-35658312D01*
X48577934Y-35648426D01*
X48568048Y-35637519D01*
X48559280Y-35625696D01*
X48551712Y-35613070D01*
X48545418Y-35599763D01*
X48540459Y-35585903D01*
X48536882Y-35571624D01*
X48534722Y-35557063D01*
X48534000Y-35542360D01*
X48534000Y-35242360D01*
X48534722Y-35227657D01*
X48536882Y-35213096D01*
X48540459Y-35198817D01*
X48545418Y-35184957D01*
X48551712Y-35171650D01*
X48559280Y-35159024D01*
X48568048Y-35147201D01*
X48577934Y-35136294D01*
X48588841Y-35126408D01*
X48600664Y-35117640D01*
X48613290Y-35110072D01*
X48626597Y-35103778D01*
X48640457Y-35098819D01*
X48654736Y-35095242D01*
X48669297Y-35093082D01*
X48684000Y-35092360D01*
X50334000Y-35092360D01*
X50348703Y-35093082D01*
X50348703Y-35093082D01*
G37*
D15*
X49509000Y-35392360D03*
D10*
G36*
X50348703Y-33823082D02*
G01*
X50363264Y-33825242D01*
X50377543Y-33828819D01*
X50391403Y-33833778D01*
X50404710Y-33840072D01*
X50417336Y-33847640D01*
X50429159Y-33856408D01*
X50440066Y-33866294D01*
X50449952Y-33877201D01*
X50458720Y-33889024D01*
X50466288Y-33901650D01*
X50472582Y-33914957D01*
X50477541Y-33928817D01*
X50481118Y-33943096D01*
X50483278Y-33957657D01*
X50484000Y-33972360D01*
X50484000Y-34272360D01*
X50483278Y-34287063D01*
X50481118Y-34301624D01*
X50477541Y-34315903D01*
X50472582Y-34329763D01*
X50466288Y-34343070D01*
X50458720Y-34355696D01*
X50449952Y-34367519D01*
X50440066Y-34378426D01*
X50429159Y-34388312D01*
X50417336Y-34397080D01*
X50404710Y-34404648D01*
X50391403Y-34410942D01*
X50377543Y-34415901D01*
X50363264Y-34419478D01*
X50348703Y-34421638D01*
X50334000Y-34422360D01*
X48684000Y-34422360D01*
X48669297Y-34421638D01*
X48654736Y-34419478D01*
X48640457Y-34415901D01*
X48626597Y-34410942D01*
X48613290Y-34404648D01*
X48600664Y-34397080D01*
X48588841Y-34388312D01*
X48577934Y-34378426D01*
X48568048Y-34367519D01*
X48559280Y-34355696D01*
X48551712Y-34343070D01*
X48545418Y-34329763D01*
X48540459Y-34315903D01*
X48536882Y-34301624D01*
X48534722Y-34287063D01*
X48534000Y-34272360D01*
X48534000Y-33972360D01*
X48534722Y-33957657D01*
X48536882Y-33943096D01*
X48540459Y-33928817D01*
X48545418Y-33914957D01*
X48551712Y-33901650D01*
X48559280Y-33889024D01*
X48568048Y-33877201D01*
X48577934Y-33866294D01*
X48588841Y-33856408D01*
X48600664Y-33847640D01*
X48613290Y-33840072D01*
X48626597Y-33833778D01*
X48640457Y-33828819D01*
X48654736Y-33825242D01*
X48669297Y-33823082D01*
X48684000Y-33822360D01*
X50334000Y-33822360D01*
X50348703Y-33823082D01*
X50348703Y-33823082D01*
G37*
D15*
X49509000Y-34122360D03*
D14*
X40353800Y-34376360D03*
D13*
X37813800Y-34376360D03*
X40353800Y-36916360D03*
X37813800Y-36916360D03*
X40353800Y-39456360D03*
X37813800Y-39456360D03*
X40353800Y-41996360D03*
X37813800Y-41996360D03*
X40353800Y-44536360D03*
X37813800Y-44536360D03*
D10*
G36*
X67458505Y-34388764D02*
G01*
X67482773Y-34392364D01*
X67506572Y-34398325D01*
X67529671Y-34406590D01*
X67551850Y-34417080D01*
X67572893Y-34429692D01*
X67592599Y-34444307D01*
X67610777Y-34460783D01*
X67627253Y-34478961D01*
X67641868Y-34498667D01*
X67654480Y-34519710D01*
X67664970Y-34541889D01*
X67673235Y-34564988D01*
X67679196Y-34588787D01*
X67682796Y-34613055D01*
X67684000Y-34637559D01*
X67684000Y-35537561D01*
X67682796Y-35562065D01*
X67679196Y-35586333D01*
X67673235Y-35610132D01*
X67664970Y-35633231D01*
X67654480Y-35655410D01*
X67641868Y-35676453D01*
X67627253Y-35696159D01*
X67610777Y-35714337D01*
X67592599Y-35730813D01*
X67572893Y-35745428D01*
X67551850Y-35758040D01*
X67529671Y-35768530D01*
X67506572Y-35776795D01*
X67482773Y-35782756D01*
X67458505Y-35786356D01*
X67434001Y-35787560D01*
X66783999Y-35787560D01*
X66759495Y-35786356D01*
X66735227Y-35782756D01*
X66711428Y-35776795D01*
X66688329Y-35768530D01*
X66666150Y-35758040D01*
X66645107Y-35745428D01*
X66625401Y-35730813D01*
X66607223Y-35714337D01*
X66590747Y-35696159D01*
X66576132Y-35676453D01*
X66563520Y-35655410D01*
X66553030Y-35633231D01*
X66544765Y-35610132D01*
X66538804Y-35586333D01*
X66535204Y-35562065D01*
X66534000Y-35537561D01*
X66534000Y-34637559D01*
X66535204Y-34613055D01*
X66538804Y-34588787D01*
X66544765Y-34564988D01*
X66553030Y-34541889D01*
X66563520Y-34519710D01*
X66576132Y-34498667D01*
X66590747Y-34478961D01*
X66607223Y-34460783D01*
X66625401Y-34444307D01*
X66645107Y-34429692D01*
X66666150Y-34417080D01*
X66688329Y-34406590D01*
X66711428Y-34398325D01*
X66735227Y-34392364D01*
X66759495Y-34388764D01*
X66783999Y-34387560D01*
X67434001Y-34387560D01*
X67458505Y-34388764D01*
X67458505Y-34388764D01*
G37*
D11*
X67109000Y-35087560D03*
D10*
G36*
X65408505Y-34388764D02*
G01*
X65432773Y-34392364D01*
X65456572Y-34398325D01*
X65479671Y-34406590D01*
X65501850Y-34417080D01*
X65522893Y-34429692D01*
X65542599Y-34444307D01*
X65560777Y-34460783D01*
X65577253Y-34478961D01*
X65591868Y-34498667D01*
X65604480Y-34519710D01*
X65614970Y-34541889D01*
X65623235Y-34564988D01*
X65629196Y-34588787D01*
X65632796Y-34613055D01*
X65634000Y-34637559D01*
X65634000Y-35537561D01*
X65632796Y-35562065D01*
X65629196Y-35586333D01*
X65623235Y-35610132D01*
X65614970Y-35633231D01*
X65604480Y-35655410D01*
X65591868Y-35676453D01*
X65577253Y-35696159D01*
X65560777Y-35714337D01*
X65542599Y-35730813D01*
X65522893Y-35745428D01*
X65501850Y-35758040D01*
X65479671Y-35768530D01*
X65456572Y-35776795D01*
X65432773Y-35782756D01*
X65408505Y-35786356D01*
X65384001Y-35787560D01*
X64733999Y-35787560D01*
X64709495Y-35786356D01*
X64685227Y-35782756D01*
X64661428Y-35776795D01*
X64638329Y-35768530D01*
X64616150Y-35758040D01*
X64595107Y-35745428D01*
X64575401Y-35730813D01*
X64557223Y-35714337D01*
X64540747Y-35696159D01*
X64526132Y-35676453D01*
X64513520Y-35655410D01*
X64503030Y-35633231D01*
X64494765Y-35610132D01*
X64488804Y-35586333D01*
X64485204Y-35562065D01*
X64484000Y-35537561D01*
X64484000Y-34637559D01*
X64485204Y-34613055D01*
X64488804Y-34588787D01*
X64494765Y-34564988D01*
X64503030Y-34541889D01*
X64513520Y-34519710D01*
X64526132Y-34498667D01*
X64540747Y-34478961D01*
X64557223Y-34460783D01*
X64575401Y-34444307D01*
X64595107Y-34429692D01*
X64616150Y-34417080D01*
X64638329Y-34406590D01*
X64661428Y-34398325D01*
X64685227Y-34392364D01*
X64709495Y-34388764D01*
X64733999Y-34387560D01*
X65384001Y-34387560D01*
X65408505Y-34388764D01*
X65408505Y-34388764D01*
G37*
D11*
X65059000Y-35087560D03*
D10*
G36*
X38948705Y-50532164D02*
G01*
X38972973Y-50535764D01*
X38996772Y-50541725D01*
X39019871Y-50549990D01*
X39042050Y-50560480D01*
X39063093Y-50573092D01*
X39082799Y-50587707D01*
X39100977Y-50604183D01*
X39117453Y-50622361D01*
X39132068Y-50642067D01*
X39144680Y-50663110D01*
X39155170Y-50685289D01*
X39163435Y-50708388D01*
X39169396Y-50732187D01*
X39172996Y-50756455D01*
X39174200Y-50780959D01*
X39174200Y-51430961D01*
X39172996Y-51455465D01*
X39169396Y-51479733D01*
X39163435Y-51503532D01*
X39155170Y-51526631D01*
X39144680Y-51548810D01*
X39132068Y-51569853D01*
X39117453Y-51589559D01*
X39100977Y-51607737D01*
X39082799Y-51624213D01*
X39063093Y-51638828D01*
X39042050Y-51651440D01*
X39019871Y-51661930D01*
X38996772Y-51670195D01*
X38972973Y-51676156D01*
X38948705Y-51679756D01*
X38924201Y-51680960D01*
X38024199Y-51680960D01*
X37999695Y-51679756D01*
X37975427Y-51676156D01*
X37951628Y-51670195D01*
X37928529Y-51661930D01*
X37906350Y-51651440D01*
X37885307Y-51638828D01*
X37865601Y-51624213D01*
X37847423Y-51607737D01*
X37830947Y-51589559D01*
X37816332Y-51569853D01*
X37803720Y-51548810D01*
X37793230Y-51526631D01*
X37784965Y-51503532D01*
X37779004Y-51479733D01*
X37775404Y-51455465D01*
X37774200Y-51430961D01*
X37774200Y-50780959D01*
X37775404Y-50756455D01*
X37779004Y-50732187D01*
X37784965Y-50708388D01*
X37793230Y-50685289D01*
X37803720Y-50663110D01*
X37816332Y-50642067D01*
X37830947Y-50622361D01*
X37847423Y-50604183D01*
X37865601Y-50587707D01*
X37885307Y-50573092D01*
X37906350Y-50560480D01*
X37928529Y-50549990D01*
X37951628Y-50541725D01*
X37975427Y-50535764D01*
X37999695Y-50532164D01*
X38024199Y-50530960D01*
X38924201Y-50530960D01*
X38948705Y-50532164D01*
X38948705Y-50532164D01*
G37*
D11*
X38474200Y-51105960D03*
D10*
G36*
X38948705Y-52582164D02*
G01*
X38972973Y-52585764D01*
X38996772Y-52591725D01*
X39019871Y-52599990D01*
X39042050Y-52610480D01*
X39063093Y-52623092D01*
X39082799Y-52637707D01*
X39100977Y-52654183D01*
X39117453Y-52672361D01*
X39132068Y-52692067D01*
X39144680Y-52713110D01*
X39155170Y-52735289D01*
X39163435Y-52758388D01*
X39169396Y-52782187D01*
X39172996Y-52806455D01*
X39174200Y-52830959D01*
X39174200Y-53480961D01*
X39172996Y-53505465D01*
X39169396Y-53529733D01*
X39163435Y-53553532D01*
X39155170Y-53576631D01*
X39144680Y-53598810D01*
X39132068Y-53619853D01*
X39117453Y-53639559D01*
X39100977Y-53657737D01*
X39082799Y-53674213D01*
X39063093Y-53688828D01*
X39042050Y-53701440D01*
X39019871Y-53711930D01*
X38996772Y-53720195D01*
X38972973Y-53726156D01*
X38948705Y-53729756D01*
X38924201Y-53730960D01*
X38024199Y-53730960D01*
X37999695Y-53729756D01*
X37975427Y-53726156D01*
X37951628Y-53720195D01*
X37928529Y-53711930D01*
X37906350Y-53701440D01*
X37885307Y-53688828D01*
X37865601Y-53674213D01*
X37847423Y-53657737D01*
X37830947Y-53639559D01*
X37816332Y-53619853D01*
X37803720Y-53598810D01*
X37793230Y-53576631D01*
X37784965Y-53553532D01*
X37779004Y-53529733D01*
X37775404Y-53505465D01*
X37774200Y-53480961D01*
X37774200Y-52830959D01*
X37775404Y-52806455D01*
X37779004Y-52782187D01*
X37784965Y-52758388D01*
X37793230Y-52735289D01*
X37803720Y-52713110D01*
X37816332Y-52692067D01*
X37830947Y-52672361D01*
X37847423Y-52654183D01*
X37865601Y-52637707D01*
X37885307Y-52623092D01*
X37906350Y-52610480D01*
X37928529Y-52599990D01*
X37951628Y-52591725D01*
X37975427Y-52585764D01*
X37999695Y-52582164D01*
X38024199Y-52580960D01*
X38924201Y-52580960D01*
X38948705Y-52582164D01*
X38948705Y-52582164D01*
G37*
D11*
X38474200Y-53155960D03*
D14*
X76040800Y-46314360D03*
D10*
G36*
X36332505Y-50532164D02*
G01*
X36356773Y-50535764D01*
X36380572Y-50541725D01*
X36403671Y-50549990D01*
X36425850Y-50560480D01*
X36446893Y-50573092D01*
X36466599Y-50587707D01*
X36484777Y-50604183D01*
X36501253Y-50622361D01*
X36515868Y-50642067D01*
X36528480Y-50663110D01*
X36538970Y-50685289D01*
X36547235Y-50708388D01*
X36553196Y-50732187D01*
X36556796Y-50756455D01*
X36558000Y-50780959D01*
X36558000Y-51430961D01*
X36556796Y-51455465D01*
X36553196Y-51479733D01*
X36547235Y-51503532D01*
X36538970Y-51526631D01*
X36528480Y-51548810D01*
X36515868Y-51569853D01*
X36501253Y-51589559D01*
X36484777Y-51607737D01*
X36466599Y-51624213D01*
X36446893Y-51638828D01*
X36425850Y-51651440D01*
X36403671Y-51661930D01*
X36380572Y-51670195D01*
X36356773Y-51676156D01*
X36332505Y-51679756D01*
X36308001Y-51680960D01*
X35407999Y-51680960D01*
X35383495Y-51679756D01*
X35359227Y-51676156D01*
X35335428Y-51670195D01*
X35312329Y-51661930D01*
X35290150Y-51651440D01*
X35269107Y-51638828D01*
X35249401Y-51624213D01*
X35231223Y-51607737D01*
X35214747Y-51589559D01*
X35200132Y-51569853D01*
X35187520Y-51548810D01*
X35177030Y-51526631D01*
X35168765Y-51503532D01*
X35162804Y-51479733D01*
X35159204Y-51455465D01*
X35158000Y-51430961D01*
X35158000Y-50780959D01*
X35159204Y-50756455D01*
X35162804Y-50732187D01*
X35168765Y-50708388D01*
X35177030Y-50685289D01*
X35187520Y-50663110D01*
X35200132Y-50642067D01*
X35214747Y-50622361D01*
X35231223Y-50604183D01*
X35249401Y-50587707D01*
X35269107Y-50573092D01*
X35290150Y-50560480D01*
X35312329Y-50549990D01*
X35335428Y-50541725D01*
X35359227Y-50535764D01*
X35383495Y-50532164D01*
X35407999Y-50530960D01*
X36308001Y-50530960D01*
X36332505Y-50532164D01*
X36332505Y-50532164D01*
G37*
D11*
X35858000Y-51105960D03*
D10*
G36*
X36332505Y-52582164D02*
G01*
X36356773Y-52585764D01*
X36380572Y-52591725D01*
X36403671Y-52599990D01*
X36425850Y-52610480D01*
X36446893Y-52623092D01*
X36466599Y-52637707D01*
X36484777Y-52654183D01*
X36501253Y-52672361D01*
X36515868Y-52692067D01*
X36528480Y-52713110D01*
X36538970Y-52735289D01*
X36547235Y-52758388D01*
X36553196Y-52782187D01*
X36556796Y-52806455D01*
X36558000Y-52830959D01*
X36558000Y-53480961D01*
X36556796Y-53505465D01*
X36553196Y-53529733D01*
X36547235Y-53553532D01*
X36538970Y-53576631D01*
X36528480Y-53598810D01*
X36515868Y-53619853D01*
X36501253Y-53639559D01*
X36484777Y-53657737D01*
X36466599Y-53674213D01*
X36446893Y-53688828D01*
X36425850Y-53701440D01*
X36403671Y-53711930D01*
X36380572Y-53720195D01*
X36356773Y-53726156D01*
X36332505Y-53729756D01*
X36308001Y-53730960D01*
X35407999Y-53730960D01*
X35383495Y-53729756D01*
X35359227Y-53726156D01*
X35335428Y-53720195D01*
X35312329Y-53711930D01*
X35290150Y-53701440D01*
X35269107Y-53688828D01*
X35249401Y-53674213D01*
X35231223Y-53657737D01*
X35214747Y-53639559D01*
X35200132Y-53619853D01*
X35187520Y-53598810D01*
X35177030Y-53576631D01*
X35168765Y-53553532D01*
X35162804Y-53529733D01*
X35159204Y-53505465D01*
X35158000Y-53480961D01*
X35158000Y-52830959D01*
X35159204Y-52806455D01*
X35162804Y-52782187D01*
X35168765Y-52758388D01*
X35177030Y-52735289D01*
X35187520Y-52713110D01*
X35200132Y-52692067D01*
X35214747Y-52672361D01*
X35231223Y-52654183D01*
X35249401Y-52637707D01*
X35269107Y-52623092D01*
X35290150Y-52610480D01*
X35312329Y-52599990D01*
X35335428Y-52591725D01*
X35359227Y-52585764D01*
X35383495Y-52582164D01*
X35407999Y-52580960D01*
X36308001Y-52580960D01*
X36332505Y-52582164D01*
X36332505Y-52582164D01*
G37*
D11*
X35858000Y-53155960D03*
D16*
X33192400Y-51760160D03*
X33192400Y-49860160D03*
X30192400Y-50810160D03*
D17*
X31169400Y-47660560D03*
D10*
G36*
X31669400Y-48410560D02*
G01*
X31169400Y-48410560D01*
X31169400Y-48409958D01*
X31144866Y-48409958D01*
X31096035Y-48405148D01*
X31047910Y-48395576D01*
X31000955Y-48381332D01*
X30955622Y-48362555D01*
X30912349Y-48339424D01*
X30871550Y-48312164D01*
X30833621Y-48281036D01*
X30798924Y-48246339D01*
X30767796Y-48208410D01*
X30740536Y-48167611D01*
X30717405Y-48124338D01*
X30698628Y-48079005D01*
X30684384Y-48032050D01*
X30674812Y-47983925D01*
X30670002Y-47935094D01*
X30670002Y-47910560D01*
X30669400Y-47910560D01*
X30669400Y-47410560D01*
X30670002Y-47410560D01*
X30670002Y-47386026D01*
X30674812Y-47337195D01*
X30684384Y-47289070D01*
X30698628Y-47242115D01*
X30717405Y-47196782D01*
X30740536Y-47153509D01*
X30767796Y-47112710D01*
X30798924Y-47074781D01*
X30833621Y-47040084D01*
X30871550Y-47008956D01*
X30912349Y-46981696D01*
X30955622Y-46958565D01*
X31000955Y-46939788D01*
X31047910Y-46925544D01*
X31096035Y-46915972D01*
X31144866Y-46911162D01*
X31169400Y-46911162D01*
X31169400Y-46910560D01*
X31669400Y-46910560D01*
X31669400Y-48410560D01*
X31669400Y-48410560D01*
G37*
D17*
X32469400Y-47660560D03*
D10*
G36*
X32469400Y-46911162D02*
G01*
X32493934Y-46911162D01*
X32542765Y-46915972D01*
X32590890Y-46925544D01*
X32637845Y-46939788D01*
X32683178Y-46958565D01*
X32726451Y-46981696D01*
X32767250Y-47008956D01*
X32805179Y-47040084D01*
X32839876Y-47074781D01*
X32871004Y-47112710D01*
X32898264Y-47153509D01*
X32921395Y-47196782D01*
X32940172Y-47242115D01*
X32954416Y-47289070D01*
X32963988Y-47337195D01*
X32968798Y-47386026D01*
X32968798Y-47410560D01*
X32969400Y-47410560D01*
X32969400Y-47910560D01*
X32968798Y-47910560D01*
X32968798Y-47935094D01*
X32963988Y-47983925D01*
X32954416Y-48032050D01*
X32940172Y-48079005D01*
X32921395Y-48124338D01*
X32898264Y-48167611D01*
X32871004Y-48208410D01*
X32839876Y-48246339D01*
X32805179Y-48281036D01*
X32767250Y-48312164D01*
X32726451Y-48339424D01*
X32683178Y-48362555D01*
X32637845Y-48381332D01*
X32590890Y-48395576D01*
X32542765Y-48405148D01*
X32493934Y-48409958D01*
X32469400Y-48409958D01*
X32469400Y-48410560D01*
X31969400Y-48410560D01*
X31969400Y-46910560D01*
X32469400Y-46910560D01*
X32469400Y-46911162D01*
X32469400Y-46911162D01*
G37*
G36*
X54555305Y-52448164D02*
G01*
X54579573Y-52451764D01*
X54603372Y-52457725D01*
X54626471Y-52465990D01*
X54648650Y-52476480D01*
X54669693Y-52489092D01*
X54689399Y-52503707D01*
X54707577Y-52520183D01*
X54724053Y-52538361D01*
X54738668Y-52558067D01*
X54751280Y-52579110D01*
X54761770Y-52601289D01*
X54770035Y-52624388D01*
X54775996Y-52648187D01*
X54779596Y-52672455D01*
X54780800Y-52696959D01*
X54780800Y-53596961D01*
X54779596Y-53621465D01*
X54775996Y-53645733D01*
X54770035Y-53669532D01*
X54761770Y-53692631D01*
X54751280Y-53714810D01*
X54738668Y-53735853D01*
X54724053Y-53755559D01*
X54707577Y-53773737D01*
X54689399Y-53790213D01*
X54669693Y-53804828D01*
X54648650Y-53817440D01*
X54626471Y-53827930D01*
X54603372Y-53836195D01*
X54579573Y-53842156D01*
X54555305Y-53845756D01*
X54530801Y-53846960D01*
X53880799Y-53846960D01*
X53856295Y-53845756D01*
X53832027Y-53842156D01*
X53808228Y-53836195D01*
X53785129Y-53827930D01*
X53762950Y-53817440D01*
X53741907Y-53804828D01*
X53722201Y-53790213D01*
X53704023Y-53773737D01*
X53687547Y-53755559D01*
X53672932Y-53735853D01*
X53660320Y-53714810D01*
X53649830Y-53692631D01*
X53641565Y-53669532D01*
X53635604Y-53645733D01*
X53632004Y-53621465D01*
X53630800Y-53596961D01*
X53630800Y-52696959D01*
X53632004Y-52672455D01*
X53635604Y-52648187D01*
X53641565Y-52624388D01*
X53649830Y-52601289D01*
X53660320Y-52579110D01*
X53672932Y-52558067D01*
X53687547Y-52538361D01*
X53704023Y-52520183D01*
X53722201Y-52503707D01*
X53741907Y-52489092D01*
X53762950Y-52476480D01*
X53785129Y-52465990D01*
X53808228Y-52457725D01*
X53832027Y-52451764D01*
X53856295Y-52448164D01*
X53880799Y-52446960D01*
X54530801Y-52446960D01*
X54555305Y-52448164D01*
X54555305Y-52448164D01*
G37*
D11*
X54205800Y-53146960D03*
D10*
G36*
X52505305Y-52448164D02*
G01*
X52529573Y-52451764D01*
X52553372Y-52457725D01*
X52576471Y-52465990D01*
X52598650Y-52476480D01*
X52619693Y-52489092D01*
X52639399Y-52503707D01*
X52657577Y-52520183D01*
X52674053Y-52538361D01*
X52688668Y-52558067D01*
X52701280Y-52579110D01*
X52711770Y-52601289D01*
X52720035Y-52624388D01*
X52725996Y-52648187D01*
X52729596Y-52672455D01*
X52730800Y-52696959D01*
X52730800Y-53596961D01*
X52729596Y-53621465D01*
X52725996Y-53645733D01*
X52720035Y-53669532D01*
X52711770Y-53692631D01*
X52701280Y-53714810D01*
X52688668Y-53735853D01*
X52674053Y-53755559D01*
X52657577Y-53773737D01*
X52639399Y-53790213D01*
X52619693Y-53804828D01*
X52598650Y-53817440D01*
X52576471Y-53827930D01*
X52553372Y-53836195D01*
X52529573Y-53842156D01*
X52505305Y-53845756D01*
X52480801Y-53846960D01*
X51830799Y-53846960D01*
X51806295Y-53845756D01*
X51782027Y-53842156D01*
X51758228Y-53836195D01*
X51735129Y-53827930D01*
X51712950Y-53817440D01*
X51691907Y-53804828D01*
X51672201Y-53790213D01*
X51654023Y-53773737D01*
X51637547Y-53755559D01*
X51622932Y-53735853D01*
X51610320Y-53714810D01*
X51599830Y-53692631D01*
X51591565Y-53669532D01*
X51585604Y-53645733D01*
X51582004Y-53621465D01*
X51580800Y-53596961D01*
X51580800Y-52696959D01*
X51582004Y-52672455D01*
X51585604Y-52648187D01*
X51591565Y-52624388D01*
X51599830Y-52601289D01*
X51610320Y-52579110D01*
X51622932Y-52558067D01*
X51637547Y-52538361D01*
X51654023Y-52520183D01*
X51672201Y-52503707D01*
X51691907Y-52489092D01*
X51712950Y-52476480D01*
X51735129Y-52465990D01*
X51758228Y-52457725D01*
X51782027Y-52451764D01*
X51806295Y-52448164D01*
X51830799Y-52446960D01*
X52480801Y-52446960D01*
X52505305Y-52448164D01*
X52505305Y-52448164D01*
G37*
D11*
X52155800Y-53146960D03*
D10*
G36*
X52537705Y-36012364D02*
G01*
X52561973Y-36015964D01*
X52585772Y-36021925D01*
X52608871Y-36030190D01*
X52631050Y-36040680D01*
X52652093Y-36053292D01*
X52671799Y-36067907D01*
X52689977Y-36084383D01*
X52706453Y-36102561D01*
X52721068Y-36122267D01*
X52733680Y-36143310D01*
X52744170Y-36165489D01*
X52752435Y-36188588D01*
X52758396Y-36212387D01*
X52761996Y-36236655D01*
X52763200Y-36261159D01*
X52763200Y-36911161D01*
X52761996Y-36935665D01*
X52758396Y-36959933D01*
X52752435Y-36983732D01*
X52744170Y-37006831D01*
X52733680Y-37029010D01*
X52721068Y-37050053D01*
X52706453Y-37069759D01*
X52689977Y-37087937D01*
X52671799Y-37104413D01*
X52652093Y-37119028D01*
X52631050Y-37131640D01*
X52608871Y-37142130D01*
X52585772Y-37150395D01*
X52561973Y-37156356D01*
X52537705Y-37159956D01*
X52513201Y-37161160D01*
X51613199Y-37161160D01*
X51588695Y-37159956D01*
X51564427Y-37156356D01*
X51540628Y-37150395D01*
X51517529Y-37142130D01*
X51495350Y-37131640D01*
X51474307Y-37119028D01*
X51454601Y-37104413D01*
X51436423Y-37087937D01*
X51419947Y-37069759D01*
X51405332Y-37050053D01*
X51392720Y-37029010D01*
X51382230Y-37006831D01*
X51373965Y-36983732D01*
X51368004Y-36959933D01*
X51364404Y-36935665D01*
X51363200Y-36911161D01*
X51363200Y-36261159D01*
X51364404Y-36236655D01*
X51368004Y-36212387D01*
X51373965Y-36188588D01*
X51382230Y-36165489D01*
X51392720Y-36143310D01*
X51405332Y-36122267D01*
X51419947Y-36102561D01*
X51436423Y-36084383D01*
X51454601Y-36067907D01*
X51474307Y-36053292D01*
X51495350Y-36040680D01*
X51517529Y-36030190D01*
X51540628Y-36021925D01*
X51564427Y-36015964D01*
X51588695Y-36012364D01*
X51613199Y-36011160D01*
X52513201Y-36011160D01*
X52537705Y-36012364D01*
X52537705Y-36012364D01*
G37*
D11*
X52063200Y-36586160D03*
D10*
G36*
X52537705Y-38062364D02*
G01*
X52561973Y-38065964D01*
X52585772Y-38071925D01*
X52608871Y-38080190D01*
X52631050Y-38090680D01*
X52652093Y-38103292D01*
X52671799Y-38117907D01*
X52689977Y-38134383D01*
X52706453Y-38152561D01*
X52721068Y-38172267D01*
X52733680Y-38193310D01*
X52744170Y-38215489D01*
X52752435Y-38238588D01*
X52758396Y-38262387D01*
X52761996Y-38286655D01*
X52763200Y-38311159D01*
X52763200Y-38961161D01*
X52761996Y-38985665D01*
X52758396Y-39009933D01*
X52752435Y-39033732D01*
X52744170Y-39056831D01*
X52733680Y-39079010D01*
X52721068Y-39100053D01*
X52706453Y-39119759D01*
X52689977Y-39137937D01*
X52671799Y-39154413D01*
X52652093Y-39169028D01*
X52631050Y-39181640D01*
X52608871Y-39192130D01*
X52585772Y-39200395D01*
X52561973Y-39206356D01*
X52537705Y-39209956D01*
X52513201Y-39211160D01*
X51613199Y-39211160D01*
X51588695Y-39209956D01*
X51564427Y-39206356D01*
X51540628Y-39200395D01*
X51517529Y-39192130D01*
X51495350Y-39181640D01*
X51474307Y-39169028D01*
X51454601Y-39154413D01*
X51436423Y-39137937D01*
X51419947Y-39119759D01*
X51405332Y-39100053D01*
X51392720Y-39079010D01*
X51382230Y-39056831D01*
X51373965Y-39033732D01*
X51368004Y-39009933D01*
X51364404Y-38985665D01*
X51363200Y-38961161D01*
X51363200Y-38311159D01*
X51364404Y-38286655D01*
X51368004Y-38262387D01*
X51373965Y-38238588D01*
X51382230Y-38215489D01*
X51392720Y-38193310D01*
X51405332Y-38172267D01*
X51419947Y-38152561D01*
X51436423Y-38134383D01*
X51454601Y-38117907D01*
X51474307Y-38103292D01*
X51495350Y-38090680D01*
X51517529Y-38080190D01*
X51540628Y-38071925D01*
X51564427Y-38065964D01*
X51588695Y-38062364D01*
X51613199Y-38061160D01*
X52513201Y-38061160D01*
X52537705Y-38062364D01*
X52537705Y-38062364D01*
G37*
D11*
X52063200Y-38636160D03*
D10*
G36*
X41768105Y-50532164D02*
G01*
X41792373Y-50535764D01*
X41816172Y-50541725D01*
X41839271Y-50549990D01*
X41861450Y-50560480D01*
X41882493Y-50573092D01*
X41902199Y-50587707D01*
X41920377Y-50604183D01*
X41936853Y-50622361D01*
X41951468Y-50642067D01*
X41964080Y-50663110D01*
X41974570Y-50685289D01*
X41982835Y-50708388D01*
X41988796Y-50732187D01*
X41992396Y-50756455D01*
X41993600Y-50780959D01*
X41993600Y-51430961D01*
X41992396Y-51455465D01*
X41988796Y-51479733D01*
X41982835Y-51503532D01*
X41974570Y-51526631D01*
X41964080Y-51548810D01*
X41951468Y-51569853D01*
X41936853Y-51589559D01*
X41920377Y-51607737D01*
X41902199Y-51624213D01*
X41882493Y-51638828D01*
X41861450Y-51651440D01*
X41839271Y-51661930D01*
X41816172Y-51670195D01*
X41792373Y-51676156D01*
X41768105Y-51679756D01*
X41743601Y-51680960D01*
X40843599Y-51680960D01*
X40819095Y-51679756D01*
X40794827Y-51676156D01*
X40771028Y-51670195D01*
X40747929Y-51661930D01*
X40725750Y-51651440D01*
X40704707Y-51638828D01*
X40685001Y-51624213D01*
X40666823Y-51607737D01*
X40650347Y-51589559D01*
X40635732Y-51569853D01*
X40623120Y-51548810D01*
X40612630Y-51526631D01*
X40604365Y-51503532D01*
X40598404Y-51479733D01*
X40594804Y-51455465D01*
X40593600Y-51430961D01*
X40593600Y-50780959D01*
X40594804Y-50756455D01*
X40598404Y-50732187D01*
X40604365Y-50708388D01*
X40612630Y-50685289D01*
X40623120Y-50663110D01*
X40635732Y-50642067D01*
X40650347Y-50622361D01*
X40666823Y-50604183D01*
X40685001Y-50587707D01*
X40704707Y-50573092D01*
X40725750Y-50560480D01*
X40747929Y-50549990D01*
X40771028Y-50541725D01*
X40794827Y-50535764D01*
X40819095Y-50532164D01*
X40843599Y-50530960D01*
X41743601Y-50530960D01*
X41768105Y-50532164D01*
X41768105Y-50532164D01*
G37*
D11*
X41293600Y-51105960D03*
D10*
G36*
X41768105Y-52582164D02*
G01*
X41792373Y-52585764D01*
X41816172Y-52591725D01*
X41839271Y-52599990D01*
X41861450Y-52610480D01*
X41882493Y-52623092D01*
X41902199Y-52637707D01*
X41920377Y-52654183D01*
X41936853Y-52672361D01*
X41951468Y-52692067D01*
X41964080Y-52713110D01*
X41974570Y-52735289D01*
X41982835Y-52758388D01*
X41988796Y-52782187D01*
X41992396Y-52806455D01*
X41993600Y-52830959D01*
X41993600Y-53480961D01*
X41992396Y-53505465D01*
X41988796Y-53529733D01*
X41982835Y-53553532D01*
X41974570Y-53576631D01*
X41964080Y-53598810D01*
X41951468Y-53619853D01*
X41936853Y-53639559D01*
X41920377Y-53657737D01*
X41902199Y-53674213D01*
X41882493Y-53688828D01*
X41861450Y-53701440D01*
X41839271Y-53711930D01*
X41816172Y-53720195D01*
X41792373Y-53726156D01*
X41768105Y-53729756D01*
X41743601Y-53730960D01*
X40843599Y-53730960D01*
X40819095Y-53729756D01*
X40794827Y-53726156D01*
X40771028Y-53720195D01*
X40747929Y-53711930D01*
X40725750Y-53701440D01*
X40704707Y-53688828D01*
X40685001Y-53674213D01*
X40666823Y-53657737D01*
X40650347Y-53639559D01*
X40635732Y-53619853D01*
X40623120Y-53598810D01*
X40612630Y-53576631D01*
X40604365Y-53553532D01*
X40598404Y-53529733D01*
X40594804Y-53505465D01*
X40593600Y-53480961D01*
X40593600Y-52830959D01*
X40594804Y-52806455D01*
X40598404Y-52782187D01*
X40604365Y-52758388D01*
X40612630Y-52735289D01*
X40623120Y-52713110D01*
X40635732Y-52692067D01*
X40650347Y-52672361D01*
X40666823Y-52654183D01*
X40685001Y-52637707D01*
X40704707Y-52623092D01*
X40725750Y-52610480D01*
X40747929Y-52599990D01*
X40771028Y-52591725D01*
X40794827Y-52585764D01*
X40819095Y-52582164D01*
X40843599Y-52580960D01*
X41743601Y-52580960D01*
X41768105Y-52582164D01*
X41768105Y-52582164D01*
G37*
D11*
X41293600Y-53155960D03*
D10*
G36*
X69885905Y-39737164D02*
G01*
X69910173Y-39740764D01*
X69933972Y-39746725D01*
X69957071Y-39754990D01*
X69979250Y-39765480D01*
X70000293Y-39778092D01*
X70019999Y-39792707D01*
X70038177Y-39809183D01*
X70054653Y-39827361D01*
X70069268Y-39847067D01*
X70081880Y-39868110D01*
X70092370Y-39890289D01*
X70100635Y-39913388D01*
X70106596Y-39937187D01*
X70110196Y-39961455D01*
X70111400Y-39985959D01*
X70111400Y-40635961D01*
X70110196Y-40660465D01*
X70106596Y-40684733D01*
X70100635Y-40708532D01*
X70092370Y-40731631D01*
X70081880Y-40753810D01*
X70069268Y-40774853D01*
X70054653Y-40794559D01*
X70038177Y-40812737D01*
X70019999Y-40829213D01*
X70000293Y-40843828D01*
X69979250Y-40856440D01*
X69957071Y-40866930D01*
X69933972Y-40875195D01*
X69910173Y-40881156D01*
X69885905Y-40884756D01*
X69861401Y-40885960D01*
X68961399Y-40885960D01*
X68936895Y-40884756D01*
X68912627Y-40881156D01*
X68888828Y-40875195D01*
X68865729Y-40866930D01*
X68843550Y-40856440D01*
X68822507Y-40843828D01*
X68802801Y-40829213D01*
X68784623Y-40812737D01*
X68768147Y-40794559D01*
X68753532Y-40774853D01*
X68740920Y-40753810D01*
X68730430Y-40731631D01*
X68722165Y-40708532D01*
X68716204Y-40684733D01*
X68712604Y-40660465D01*
X68711400Y-40635961D01*
X68711400Y-39985959D01*
X68712604Y-39961455D01*
X68716204Y-39937187D01*
X68722165Y-39913388D01*
X68730430Y-39890289D01*
X68740920Y-39868110D01*
X68753532Y-39847067D01*
X68768147Y-39827361D01*
X68784623Y-39809183D01*
X68802801Y-39792707D01*
X68822507Y-39778092D01*
X68843550Y-39765480D01*
X68865729Y-39754990D01*
X68888828Y-39746725D01*
X68912627Y-39740764D01*
X68936895Y-39737164D01*
X68961399Y-39735960D01*
X69861401Y-39735960D01*
X69885905Y-39737164D01*
X69885905Y-39737164D01*
G37*
D11*
X69411400Y-40310960D03*
D10*
G36*
X69885905Y-41787164D02*
G01*
X69910173Y-41790764D01*
X69933972Y-41796725D01*
X69957071Y-41804990D01*
X69979250Y-41815480D01*
X70000293Y-41828092D01*
X70019999Y-41842707D01*
X70038177Y-41859183D01*
X70054653Y-41877361D01*
X70069268Y-41897067D01*
X70081880Y-41918110D01*
X70092370Y-41940289D01*
X70100635Y-41963388D01*
X70106596Y-41987187D01*
X70110196Y-42011455D01*
X70111400Y-42035959D01*
X70111400Y-42685961D01*
X70110196Y-42710465D01*
X70106596Y-42734733D01*
X70100635Y-42758532D01*
X70092370Y-42781631D01*
X70081880Y-42803810D01*
X70069268Y-42824853D01*
X70054653Y-42844559D01*
X70038177Y-42862737D01*
X70019999Y-42879213D01*
X70000293Y-42893828D01*
X69979250Y-42906440D01*
X69957071Y-42916930D01*
X69933972Y-42925195D01*
X69910173Y-42931156D01*
X69885905Y-42934756D01*
X69861401Y-42935960D01*
X68961399Y-42935960D01*
X68936895Y-42934756D01*
X68912627Y-42931156D01*
X68888828Y-42925195D01*
X68865729Y-42916930D01*
X68843550Y-42906440D01*
X68822507Y-42893828D01*
X68802801Y-42879213D01*
X68784623Y-42862737D01*
X68768147Y-42844559D01*
X68753532Y-42824853D01*
X68740920Y-42803810D01*
X68730430Y-42781631D01*
X68722165Y-42758532D01*
X68716204Y-42734733D01*
X68712604Y-42710465D01*
X68711400Y-42685961D01*
X68711400Y-42035959D01*
X68712604Y-42011455D01*
X68716204Y-41987187D01*
X68722165Y-41963388D01*
X68730430Y-41940289D01*
X68740920Y-41918110D01*
X68753532Y-41897067D01*
X68768147Y-41877361D01*
X68784623Y-41859183D01*
X68802801Y-41842707D01*
X68822507Y-41828092D01*
X68843550Y-41815480D01*
X68865729Y-41804990D01*
X68888828Y-41796725D01*
X68912627Y-41790764D01*
X68936895Y-41787164D01*
X68961399Y-41785960D01*
X69861401Y-41785960D01*
X69885905Y-41787164D01*
X69885905Y-41787164D01*
G37*
D11*
X69411400Y-42360960D03*
D10*
G36*
X52441805Y-33715664D02*
G01*
X52466073Y-33719264D01*
X52489872Y-33725225D01*
X52512971Y-33733490D01*
X52535150Y-33743980D01*
X52556193Y-33756592D01*
X52575899Y-33771207D01*
X52594077Y-33787683D01*
X52610553Y-33805861D01*
X52625168Y-33825567D01*
X52637780Y-33846610D01*
X52648270Y-33868789D01*
X52656535Y-33891888D01*
X52662496Y-33915687D01*
X52666096Y-33939955D01*
X52667300Y-33964459D01*
X52667300Y-34864461D01*
X52666096Y-34888965D01*
X52662496Y-34913233D01*
X52656535Y-34937032D01*
X52648270Y-34960131D01*
X52637780Y-34982310D01*
X52625168Y-35003353D01*
X52610553Y-35023059D01*
X52594077Y-35041237D01*
X52575899Y-35057713D01*
X52556193Y-35072328D01*
X52535150Y-35084940D01*
X52512971Y-35095430D01*
X52489872Y-35103695D01*
X52466073Y-35109656D01*
X52441805Y-35113256D01*
X52417301Y-35114460D01*
X51767299Y-35114460D01*
X51742795Y-35113256D01*
X51718527Y-35109656D01*
X51694728Y-35103695D01*
X51671629Y-35095430D01*
X51649450Y-35084940D01*
X51628407Y-35072328D01*
X51608701Y-35057713D01*
X51590523Y-35041237D01*
X51574047Y-35023059D01*
X51559432Y-35003353D01*
X51546820Y-34982310D01*
X51536330Y-34960131D01*
X51528065Y-34937032D01*
X51522104Y-34913233D01*
X51518504Y-34888965D01*
X51517300Y-34864461D01*
X51517300Y-33964459D01*
X51518504Y-33939955D01*
X51522104Y-33915687D01*
X51528065Y-33891888D01*
X51536330Y-33868789D01*
X51546820Y-33846610D01*
X51559432Y-33825567D01*
X51574047Y-33805861D01*
X51590523Y-33787683D01*
X51608701Y-33771207D01*
X51628407Y-33756592D01*
X51649450Y-33743980D01*
X51671629Y-33733490D01*
X51694728Y-33725225D01*
X51718527Y-33719264D01*
X51742795Y-33715664D01*
X51767299Y-33714460D01*
X52417301Y-33714460D01*
X52441805Y-33715664D01*
X52441805Y-33715664D01*
G37*
D11*
X52092300Y-34414460D03*
D10*
G36*
X54491805Y-33715664D02*
G01*
X54516073Y-33719264D01*
X54539872Y-33725225D01*
X54562971Y-33733490D01*
X54585150Y-33743980D01*
X54606193Y-33756592D01*
X54625899Y-33771207D01*
X54644077Y-33787683D01*
X54660553Y-33805861D01*
X54675168Y-33825567D01*
X54687780Y-33846610D01*
X54698270Y-33868789D01*
X54706535Y-33891888D01*
X54712496Y-33915687D01*
X54716096Y-33939955D01*
X54717300Y-33964459D01*
X54717300Y-34864461D01*
X54716096Y-34888965D01*
X54712496Y-34913233D01*
X54706535Y-34937032D01*
X54698270Y-34960131D01*
X54687780Y-34982310D01*
X54675168Y-35003353D01*
X54660553Y-35023059D01*
X54644077Y-35041237D01*
X54625899Y-35057713D01*
X54606193Y-35072328D01*
X54585150Y-35084940D01*
X54562971Y-35095430D01*
X54539872Y-35103695D01*
X54516073Y-35109656D01*
X54491805Y-35113256D01*
X54467301Y-35114460D01*
X53817299Y-35114460D01*
X53792795Y-35113256D01*
X53768527Y-35109656D01*
X53744728Y-35103695D01*
X53721629Y-35095430D01*
X53699450Y-35084940D01*
X53678407Y-35072328D01*
X53658701Y-35057713D01*
X53640523Y-35041237D01*
X53624047Y-35023059D01*
X53609432Y-35003353D01*
X53596820Y-34982310D01*
X53586330Y-34960131D01*
X53578065Y-34937032D01*
X53572104Y-34913233D01*
X53568504Y-34888965D01*
X53567300Y-34864461D01*
X53567300Y-33964459D01*
X53568504Y-33939955D01*
X53572104Y-33915687D01*
X53578065Y-33891888D01*
X53586330Y-33868789D01*
X53596820Y-33846610D01*
X53609432Y-33825567D01*
X53624047Y-33805861D01*
X53640523Y-33787683D01*
X53658701Y-33771207D01*
X53678407Y-33756592D01*
X53699450Y-33743980D01*
X53721629Y-33733490D01*
X53744728Y-33725225D01*
X53768527Y-33719264D01*
X53792795Y-33715664D01*
X53817299Y-33714460D01*
X54467301Y-33714460D01*
X54491805Y-33715664D01*
X54491805Y-33715664D01*
G37*
D11*
X54142300Y-34414460D03*
D10*
G36*
X54645905Y-38086164D02*
G01*
X54670173Y-38089764D01*
X54693972Y-38095725D01*
X54717071Y-38103990D01*
X54739250Y-38114480D01*
X54760293Y-38127092D01*
X54779999Y-38141707D01*
X54798177Y-38158183D01*
X54814653Y-38176361D01*
X54829268Y-38196067D01*
X54841880Y-38217110D01*
X54852370Y-38239289D01*
X54860635Y-38262388D01*
X54866596Y-38286187D01*
X54870196Y-38310455D01*
X54871400Y-38334959D01*
X54871400Y-38984961D01*
X54870196Y-39009465D01*
X54866596Y-39033733D01*
X54860635Y-39057532D01*
X54852370Y-39080631D01*
X54841880Y-39102810D01*
X54829268Y-39123853D01*
X54814653Y-39143559D01*
X54798177Y-39161737D01*
X54779999Y-39178213D01*
X54760293Y-39192828D01*
X54739250Y-39205440D01*
X54717071Y-39215930D01*
X54693972Y-39224195D01*
X54670173Y-39230156D01*
X54645905Y-39233756D01*
X54621401Y-39234960D01*
X53721399Y-39234960D01*
X53696895Y-39233756D01*
X53672627Y-39230156D01*
X53648828Y-39224195D01*
X53625729Y-39215930D01*
X53603550Y-39205440D01*
X53582507Y-39192828D01*
X53562801Y-39178213D01*
X53544623Y-39161737D01*
X53528147Y-39143559D01*
X53513532Y-39123853D01*
X53500920Y-39102810D01*
X53490430Y-39080631D01*
X53482165Y-39057532D01*
X53476204Y-39033733D01*
X53472604Y-39009465D01*
X53471400Y-38984961D01*
X53471400Y-38334959D01*
X53472604Y-38310455D01*
X53476204Y-38286187D01*
X53482165Y-38262388D01*
X53490430Y-38239289D01*
X53500920Y-38217110D01*
X53513532Y-38196067D01*
X53528147Y-38176361D01*
X53544623Y-38158183D01*
X53562801Y-38141707D01*
X53582507Y-38127092D01*
X53603550Y-38114480D01*
X53625729Y-38103990D01*
X53648828Y-38095725D01*
X53672627Y-38089764D01*
X53696895Y-38086164D01*
X53721399Y-38084960D01*
X54621401Y-38084960D01*
X54645905Y-38086164D01*
X54645905Y-38086164D01*
G37*
D11*
X54171400Y-38659960D03*
D10*
G36*
X54645905Y-40136164D02*
G01*
X54670173Y-40139764D01*
X54693972Y-40145725D01*
X54717071Y-40153990D01*
X54739250Y-40164480D01*
X54760293Y-40177092D01*
X54779999Y-40191707D01*
X54798177Y-40208183D01*
X54814653Y-40226361D01*
X54829268Y-40246067D01*
X54841880Y-40267110D01*
X54852370Y-40289289D01*
X54860635Y-40312388D01*
X54866596Y-40336187D01*
X54870196Y-40360455D01*
X54871400Y-40384959D01*
X54871400Y-41034961D01*
X54870196Y-41059465D01*
X54866596Y-41083733D01*
X54860635Y-41107532D01*
X54852370Y-41130631D01*
X54841880Y-41152810D01*
X54829268Y-41173853D01*
X54814653Y-41193559D01*
X54798177Y-41211737D01*
X54779999Y-41228213D01*
X54760293Y-41242828D01*
X54739250Y-41255440D01*
X54717071Y-41265930D01*
X54693972Y-41274195D01*
X54670173Y-41280156D01*
X54645905Y-41283756D01*
X54621401Y-41284960D01*
X53721399Y-41284960D01*
X53696895Y-41283756D01*
X53672627Y-41280156D01*
X53648828Y-41274195D01*
X53625729Y-41265930D01*
X53603550Y-41255440D01*
X53582507Y-41242828D01*
X53562801Y-41228213D01*
X53544623Y-41211737D01*
X53528147Y-41193559D01*
X53513532Y-41173853D01*
X53500920Y-41152810D01*
X53490430Y-41130631D01*
X53482165Y-41107532D01*
X53476204Y-41083733D01*
X53472604Y-41059465D01*
X53471400Y-41034961D01*
X53471400Y-40384959D01*
X53472604Y-40360455D01*
X53476204Y-40336187D01*
X53482165Y-40312388D01*
X53490430Y-40289289D01*
X53500920Y-40267110D01*
X53513532Y-40246067D01*
X53528147Y-40226361D01*
X53544623Y-40208183D01*
X53562801Y-40191707D01*
X53582507Y-40177092D01*
X53603550Y-40164480D01*
X53625729Y-40153990D01*
X53648828Y-40145725D01*
X53672627Y-40139764D01*
X53696895Y-40136164D01*
X53721399Y-40134960D01*
X54621401Y-40134960D01*
X54645905Y-40136164D01*
X54645905Y-40136164D01*
G37*
D11*
X54171400Y-40709960D03*
D10*
G36*
X57793903Y-35474082D02*
G01*
X57808464Y-35476242D01*
X57822743Y-35479819D01*
X57836603Y-35484778D01*
X57849910Y-35491072D01*
X57862536Y-35498640D01*
X57874359Y-35507408D01*
X57885266Y-35517294D01*
X57895152Y-35528201D01*
X57903920Y-35540024D01*
X57911488Y-35552650D01*
X57917782Y-35565957D01*
X57922741Y-35579817D01*
X57926318Y-35594096D01*
X57928478Y-35608657D01*
X57929200Y-35623360D01*
X57929200Y-35923360D01*
X57928478Y-35938063D01*
X57926318Y-35952624D01*
X57922741Y-35966903D01*
X57917782Y-35980763D01*
X57911488Y-35994070D01*
X57903920Y-36006696D01*
X57895152Y-36018519D01*
X57885266Y-36029426D01*
X57874359Y-36039312D01*
X57862536Y-36048080D01*
X57849910Y-36055648D01*
X57836603Y-36061942D01*
X57822743Y-36066901D01*
X57808464Y-36070478D01*
X57793903Y-36072638D01*
X57779200Y-36073360D01*
X56129200Y-36073360D01*
X56114497Y-36072638D01*
X56099936Y-36070478D01*
X56085657Y-36066901D01*
X56071797Y-36061942D01*
X56058490Y-36055648D01*
X56045864Y-36048080D01*
X56034041Y-36039312D01*
X56023134Y-36029426D01*
X56013248Y-36018519D01*
X56004480Y-36006696D01*
X55996912Y-35994070D01*
X55990618Y-35980763D01*
X55985659Y-35966903D01*
X55982082Y-35952624D01*
X55979922Y-35938063D01*
X55979200Y-35923360D01*
X55979200Y-35623360D01*
X55979922Y-35608657D01*
X55982082Y-35594096D01*
X55985659Y-35579817D01*
X55990618Y-35565957D01*
X55996912Y-35552650D01*
X56004480Y-35540024D01*
X56013248Y-35528201D01*
X56023134Y-35517294D01*
X56034041Y-35507408D01*
X56045864Y-35498640D01*
X56058490Y-35491072D01*
X56071797Y-35484778D01*
X56085657Y-35479819D01*
X56099936Y-35476242D01*
X56114497Y-35474082D01*
X56129200Y-35473360D01*
X57779200Y-35473360D01*
X57793903Y-35474082D01*
X57793903Y-35474082D01*
G37*
D15*
X56954200Y-35773360D03*
D10*
G36*
X57793903Y-36744082D02*
G01*
X57808464Y-36746242D01*
X57822743Y-36749819D01*
X57836603Y-36754778D01*
X57849910Y-36761072D01*
X57862536Y-36768640D01*
X57874359Y-36777408D01*
X57885266Y-36787294D01*
X57895152Y-36798201D01*
X57903920Y-36810024D01*
X57911488Y-36822650D01*
X57917782Y-36835957D01*
X57922741Y-36849817D01*
X57926318Y-36864096D01*
X57928478Y-36878657D01*
X57929200Y-36893360D01*
X57929200Y-37193360D01*
X57928478Y-37208063D01*
X57926318Y-37222624D01*
X57922741Y-37236903D01*
X57917782Y-37250763D01*
X57911488Y-37264070D01*
X57903920Y-37276696D01*
X57895152Y-37288519D01*
X57885266Y-37299426D01*
X57874359Y-37309312D01*
X57862536Y-37318080D01*
X57849910Y-37325648D01*
X57836603Y-37331942D01*
X57822743Y-37336901D01*
X57808464Y-37340478D01*
X57793903Y-37342638D01*
X57779200Y-37343360D01*
X56129200Y-37343360D01*
X56114497Y-37342638D01*
X56099936Y-37340478D01*
X56085657Y-37336901D01*
X56071797Y-37331942D01*
X56058490Y-37325648D01*
X56045864Y-37318080D01*
X56034041Y-37309312D01*
X56023134Y-37299426D01*
X56013248Y-37288519D01*
X56004480Y-37276696D01*
X55996912Y-37264070D01*
X55990618Y-37250763D01*
X55985659Y-37236903D01*
X55982082Y-37222624D01*
X55979922Y-37208063D01*
X55979200Y-37193360D01*
X55979200Y-36893360D01*
X55979922Y-36878657D01*
X55982082Y-36864096D01*
X55985659Y-36849817D01*
X55990618Y-36835957D01*
X55996912Y-36822650D01*
X56004480Y-36810024D01*
X56013248Y-36798201D01*
X56023134Y-36787294D01*
X56034041Y-36777408D01*
X56045864Y-36768640D01*
X56058490Y-36761072D01*
X56071797Y-36754778D01*
X56085657Y-36749819D01*
X56099936Y-36746242D01*
X56114497Y-36744082D01*
X56129200Y-36743360D01*
X57779200Y-36743360D01*
X57793903Y-36744082D01*
X57793903Y-36744082D01*
G37*
D15*
X56954200Y-37043360D03*
D10*
G36*
X57793903Y-38014082D02*
G01*
X57808464Y-38016242D01*
X57822743Y-38019819D01*
X57836603Y-38024778D01*
X57849910Y-38031072D01*
X57862536Y-38038640D01*
X57874359Y-38047408D01*
X57885266Y-38057294D01*
X57895152Y-38068201D01*
X57903920Y-38080024D01*
X57911488Y-38092650D01*
X57917782Y-38105957D01*
X57922741Y-38119817D01*
X57926318Y-38134096D01*
X57928478Y-38148657D01*
X57929200Y-38163360D01*
X57929200Y-38463360D01*
X57928478Y-38478063D01*
X57926318Y-38492624D01*
X57922741Y-38506903D01*
X57917782Y-38520763D01*
X57911488Y-38534070D01*
X57903920Y-38546696D01*
X57895152Y-38558519D01*
X57885266Y-38569426D01*
X57874359Y-38579312D01*
X57862536Y-38588080D01*
X57849910Y-38595648D01*
X57836603Y-38601942D01*
X57822743Y-38606901D01*
X57808464Y-38610478D01*
X57793903Y-38612638D01*
X57779200Y-38613360D01*
X56129200Y-38613360D01*
X56114497Y-38612638D01*
X56099936Y-38610478D01*
X56085657Y-38606901D01*
X56071797Y-38601942D01*
X56058490Y-38595648D01*
X56045864Y-38588080D01*
X56034041Y-38579312D01*
X56023134Y-38569426D01*
X56013248Y-38558519D01*
X56004480Y-38546696D01*
X55996912Y-38534070D01*
X55990618Y-38520763D01*
X55985659Y-38506903D01*
X55982082Y-38492624D01*
X55979922Y-38478063D01*
X55979200Y-38463360D01*
X55979200Y-38163360D01*
X55979922Y-38148657D01*
X55982082Y-38134096D01*
X55985659Y-38119817D01*
X55990618Y-38105957D01*
X55996912Y-38092650D01*
X56004480Y-38080024D01*
X56013248Y-38068201D01*
X56023134Y-38057294D01*
X56034041Y-38047408D01*
X56045864Y-38038640D01*
X56058490Y-38031072D01*
X56071797Y-38024778D01*
X56085657Y-38019819D01*
X56099936Y-38016242D01*
X56114497Y-38014082D01*
X56129200Y-38013360D01*
X57779200Y-38013360D01*
X57793903Y-38014082D01*
X57793903Y-38014082D01*
G37*
D15*
X56954200Y-38313360D03*
D10*
G36*
X57793903Y-39284082D02*
G01*
X57808464Y-39286242D01*
X57822743Y-39289819D01*
X57836603Y-39294778D01*
X57849910Y-39301072D01*
X57862536Y-39308640D01*
X57874359Y-39317408D01*
X57885266Y-39327294D01*
X57895152Y-39338201D01*
X57903920Y-39350024D01*
X57911488Y-39362650D01*
X57917782Y-39375957D01*
X57922741Y-39389817D01*
X57926318Y-39404096D01*
X57928478Y-39418657D01*
X57929200Y-39433360D01*
X57929200Y-39733360D01*
X57928478Y-39748063D01*
X57926318Y-39762624D01*
X57922741Y-39776903D01*
X57917782Y-39790763D01*
X57911488Y-39804070D01*
X57903920Y-39816696D01*
X57895152Y-39828519D01*
X57885266Y-39839426D01*
X57874359Y-39849312D01*
X57862536Y-39858080D01*
X57849910Y-39865648D01*
X57836603Y-39871942D01*
X57822743Y-39876901D01*
X57808464Y-39880478D01*
X57793903Y-39882638D01*
X57779200Y-39883360D01*
X56129200Y-39883360D01*
X56114497Y-39882638D01*
X56099936Y-39880478D01*
X56085657Y-39876901D01*
X56071797Y-39871942D01*
X56058490Y-39865648D01*
X56045864Y-39858080D01*
X56034041Y-39849312D01*
X56023134Y-39839426D01*
X56013248Y-39828519D01*
X56004480Y-39816696D01*
X55996912Y-39804070D01*
X55990618Y-39790763D01*
X55985659Y-39776903D01*
X55982082Y-39762624D01*
X55979922Y-39748063D01*
X55979200Y-39733360D01*
X55979200Y-39433360D01*
X55979922Y-39418657D01*
X55982082Y-39404096D01*
X55985659Y-39389817D01*
X55990618Y-39375957D01*
X55996912Y-39362650D01*
X56004480Y-39350024D01*
X56013248Y-39338201D01*
X56023134Y-39327294D01*
X56034041Y-39317408D01*
X56045864Y-39308640D01*
X56058490Y-39301072D01*
X56071797Y-39294778D01*
X56085657Y-39289819D01*
X56099936Y-39286242D01*
X56114497Y-39284082D01*
X56129200Y-39283360D01*
X57779200Y-39283360D01*
X57793903Y-39284082D01*
X57793903Y-39284082D01*
G37*
D15*
X56954200Y-39583360D03*
D10*
G36*
X57793903Y-40554082D02*
G01*
X57808464Y-40556242D01*
X57822743Y-40559819D01*
X57836603Y-40564778D01*
X57849910Y-40571072D01*
X57862536Y-40578640D01*
X57874359Y-40587408D01*
X57885266Y-40597294D01*
X57895152Y-40608201D01*
X57903920Y-40620024D01*
X57911488Y-40632650D01*
X57917782Y-40645957D01*
X57922741Y-40659817D01*
X57926318Y-40674096D01*
X57928478Y-40688657D01*
X57929200Y-40703360D01*
X57929200Y-41003360D01*
X57928478Y-41018063D01*
X57926318Y-41032624D01*
X57922741Y-41046903D01*
X57917782Y-41060763D01*
X57911488Y-41074070D01*
X57903920Y-41086696D01*
X57895152Y-41098519D01*
X57885266Y-41109426D01*
X57874359Y-41119312D01*
X57862536Y-41128080D01*
X57849910Y-41135648D01*
X57836603Y-41141942D01*
X57822743Y-41146901D01*
X57808464Y-41150478D01*
X57793903Y-41152638D01*
X57779200Y-41153360D01*
X56129200Y-41153360D01*
X56114497Y-41152638D01*
X56099936Y-41150478D01*
X56085657Y-41146901D01*
X56071797Y-41141942D01*
X56058490Y-41135648D01*
X56045864Y-41128080D01*
X56034041Y-41119312D01*
X56023134Y-41109426D01*
X56013248Y-41098519D01*
X56004480Y-41086696D01*
X55996912Y-41074070D01*
X55990618Y-41060763D01*
X55985659Y-41046903D01*
X55982082Y-41032624D01*
X55979922Y-41018063D01*
X55979200Y-41003360D01*
X55979200Y-40703360D01*
X55979922Y-40688657D01*
X55982082Y-40674096D01*
X55985659Y-40659817D01*
X55990618Y-40645957D01*
X55996912Y-40632650D01*
X56004480Y-40620024D01*
X56013248Y-40608201D01*
X56023134Y-40597294D01*
X56034041Y-40587408D01*
X56045864Y-40578640D01*
X56058490Y-40571072D01*
X56071797Y-40564778D01*
X56085657Y-40559819D01*
X56099936Y-40556242D01*
X56114497Y-40554082D01*
X56129200Y-40553360D01*
X57779200Y-40553360D01*
X57793903Y-40554082D01*
X57793903Y-40554082D01*
G37*
D15*
X56954200Y-40853360D03*
D10*
G36*
X57793903Y-41824082D02*
G01*
X57808464Y-41826242D01*
X57822743Y-41829819D01*
X57836603Y-41834778D01*
X57849910Y-41841072D01*
X57862536Y-41848640D01*
X57874359Y-41857408D01*
X57885266Y-41867294D01*
X57895152Y-41878201D01*
X57903920Y-41890024D01*
X57911488Y-41902650D01*
X57917782Y-41915957D01*
X57922741Y-41929817D01*
X57926318Y-41944096D01*
X57928478Y-41958657D01*
X57929200Y-41973360D01*
X57929200Y-42273360D01*
X57928478Y-42288063D01*
X57926318Y-42302624D01*
X57922741Y-42316903D01*
X57917782Y-42330763D01*
X57911488Y-42344070D01*
X57903920Y-42356696D01*
X57895152Y-42368519D01*
X57885266Y-42379426D01*
X57874359Y-42389312D01*
X57862536Y-42398080D01*
X57849910Y-42405648D01*
X57836603Y-42411942D01*
X57822743Y-42416901D01*
X57808464Y-42420478D01*
X57793903Y-42422638D01*
X57779200Y-42423360D01*
X56129200Y-42423360D01*
X56114497Y-42422638D01*
X56099936Y-42420478D01*
X56085657Y-42416901D01*
X56071797Y-42411942D01*
X56058490Y-42405648D01*
X56045864Y-42398080D01*
X56034041Y-42389312D01*
X56023134Y-42379426D01*
X56013248Y-42368519D01*
X56004480Y-42356696D01*
X55996912Y-42344070D01*
X55990618Y-42330763D01*
X55985659Y-42316903D01*
X55982082Y-42302624D01*
X55979922Y-42288063D01*
X55979200Y-42273360D01*
X55979200Y-41973360D01*
X55979922Y-41958657D01*
X55982082Y-41944096D01*
X55985659Y-41929817D01*
X55990618Y-41915957D01*
X55996912Y-41902650D01*
X56004480Y-41890024D01*
X56013248Y-41878201D01*
X56023134Y-41867294D01*
X56034041Y-41857408D01*
X56045864Y-41848640D01*
X56058490Y-41841072D01*
X56071797Y-41834778D01*
X56085657Y-41829819D01*
X56099936Y-41826242D01*
X56114497Y-41824082D01*
X56129200Y-41823360D01*
X57779200Y-41823360D01*
X57793903Y-41824082D01*
X57793903Y-41824082D01*
G37*
D15*
X56954200Y-42123360D03*
D10*
G36*
X57793903Y-43094082D02*
G01*
X57808464Y-43096242D01*
X57822743Y-43099819D01*
X57836603Y-43104778D01*
X57849910Y-43111072D01*
X57862536Y-43118640D01*
X57874359Y-43127408D01*
X57885266Y-43137294D01*
X57895152Y-43148201D01*
X57903920Y-43160024D01*
X57911488Y-43172650D01*
X57917782Y-43185957D01*
X57922741Y-43199817D01*
X57926318Y-43214096D01*
X57928478Y-43228657D01*
X57929200Y-43243360D01*
X57929200Y-43543360D01*
X57928478Y-43558063D01*
X57926318Y-43572624D01*
X57922741Y-43586903D01*
X57917782Y-43600763D01*
X57911488Y-43614070D01*
X57903920Y-43626696D01*
X57895152Y-43638519D01*
X57885266Y-43649426D01*
X57874359Y-43659312D01*
X57862536Y-43668080D01*
X57849910Y-43675648D01*
X57836603Y-43681942D01*
X57822743Y-43686901D01*
X57808464Y-43690478D01*
X57793903Y-43692638D01*
X57779200Y-43693360D01*
X56129200Y-43693360D01*
X56114497Y-43692638D01*
X56099936Y-43690478D01*
X56085657Y-43686901D01*
X56071797Y-43681942D01*
X56058490Y-43675648D01*
X56045864Y-43668080D01*
X56034041Y-43659312D01*
X56023134Y-43649426D01*
X56013248Y-43638519D01*
X56004480Y-43626696D01*
X55996912Y-43614070D01*
X55990618Y-43600763D01*
X55985659Y-43586903D01*
X55982082Y-43572624D01*
X55979922Y-43558063D01*
X55979200Y-43543360D01*
X55979200Y-43243360D01*
X55979922Y-43228657D01*
X55982082Y-43214096D01*
X55985659Y-43199817D01*
X55990618Y-43185957D01*
X55996912Y-43172650D01*
X56004480Y-43160024D01*
X56013248Y-43148201D01*
X56023134Y-43137294D01*
X56034041Y-43127408D01*
X56045864Y-43118640D01*
X56058490Y-43111072D01*
X56071797Y-43104778D01*
X56085657Y-43099819D01*
X56099936Y-43096242D01*
X56114497Y-43094082D01*
X56129200Y-43093360D01*
X57779200Y-43093360D01*
X57793903Y-43094082D01*
X57793903Y-43094082D01*
G37*
D15*
X56954200Y-43393360D03*
D10*
G36*
X62743903Y-43094082D02*
G01*
X62758464Y-43096242D01*
X62772743Y-43099819D01*
X62786603Y-43104778D01*
X62799910Y-43111072D01*
X62812536Y-43118640D01*
X62824359Y-43127408D01*
X62835266Y-43137294D01*
X62845152Y-43148201D01*
X62853920Y-43160024D01*
X62861488Y-43172650D01*
X62867782Y-43185957D01*
X62872741Y-43199817D01*
X62876318Y-43214096D01*
X62878478Y-43228657D01*
X62879200Y-43243360D01*
X62879200Y-43543360D01*
X62878478Y-43558063D01*
X62876318Y-43572624D01*
X62872741Y-43586903D01*
X62867782Y-43600763D01*
X62861488Y-43614070D01*
X62853920Y-43626696D01*
X62845152Y-43638519D01*
X62835266Y-43649426D01*
X62824359Y-43659312D01*
X62812536Y-43668080D01*
X62799910Y-43675648D01*
X62786603Y-43681942D01*
X62772743Y-43686901D01*
X62758464Y-43690478D01*
X62743903Y-43692638D01*
X62729200Y-43693360D01*
X61079200Y-43693360D01*
X61064497Y-43692638D01*
X61049936Y-43690478D01*
X61035657Y-43686901D01*
X61021797Y-43681942D01*
X61008490Y-43675648D01*
X60995864Y-43668080D01*
X60984041Y-43659312D01*
X60973134Y-43649426D01*
X60963248Y-43638519D01*
X60954480Y-43626696D01*
X60946912Y-43614070D01*
X60940618Y-43600763D01*
X60935659Y-43586903D01*
X60932082Y-43572624D01*
X60929922Y-43558063D01*
X60929200Y-43543360D01*
X60929200Y-43243360D01*
X60929922Y-43228657D01*
X60932082Y-43214096D01*
X60935659Y-43199817D01*
X60940618Y-43185957D01*
X60946912Y-43172650D01*
X60954480Y-43160024D01*
X60963248Y-43148201D01*
X60973134Y-43137294D01*
X60984041Y-43127408D01*
X60995864Y-43118640D01*
X61008490Y-43111072D01*
X61021797Y-43104778D01*
X61035657Y-43099819D01*
X61049936Y-43096242D01*
X61064497Y-43094082D01*
X61079200Y-43093360D01*
X62729200Y-43093360D01*
X62743903Y-43094082D01*
X62743903Y-43094082D01*
G37*
D15*
X61904200Y-43393360D03*
D10*
G36*
X62743903Y-41824082D02*
G01*
X62758464Y-41826242D01*
X62772743Y-41829819D01*
X62786603Y-41834778D01*
X62799910Y-41841072D01*
X62812536Y-41848640D01*
X62824359Y-41857408D01*
X62835266Y-41867294D01*
X62845152Y-41878201D01*
X62853920Y-41890024D01*
X62861488Y-41902650D01*
X62867782Y-41915957D01*
X62872741Y-41929817D01*
X62876318Y-41944096D01*
X62878478Y-41958657D01*
X62879200Y-41973360D01*
X62879200Y-42273360D01*
X62878478Y-42288063D01*
X62876318Y-42302624D01*
X62872741Y-42316903D01*
X62867782Y-42330763D01*
X62861488Y-42344070D01*
X62853920Y-42356696D01*
X62845152Y-42368519D01*
X62835266Y-42379426D01*
X62824359Y-42389312D01*
X62812536Y-42398080D01*
X62799910Y-42405648D01*
X62786603Y-42411942D01*
X62772743Y-42416901D01*
X62758464Y-42420478D01*
X62743903Y-42422638D01*
X62729200Y-42423360D01*
X61079200Y-42423360D01*
X61064497Y-42422638D01*
X61049936Y-42420478D01*
X61035657Y-42416901D01*
X61021797Y-42411942D01*
X61008490Y-42405648D01*
X60995864Y-42398080D01*
X60984041Y-42389312D01*
X60973134Y-42379426D01*
X60963248Y-42368519D01*
X60954480Y-42356696D01*
X60946912Y-42344070D01*
X60940618Y-42330763D01*
X60935659Y-42316903D01*
X60932082Y-42302624D01*
X60929922Y-42288063D01*
X60929200Y-42273360D01*
X60929200Y-41973360D01*
X60929922Y-41958657D01*
X60932082Y-41944096D01*
X60935659Y-41929817D01*
X60940618Y-41915957D01*
X60946912Y-41902650D01*
X60954480Y-41890024D01*
X60963248Y-41878201D01*
X60973134Y-41867294D01*
X60984041Y-41857408D01*
X60995864Y-41848640D01*
X61008490Y-41841072D01*
X61021797Y-41834778D01*
X61035657Y-41829819D01*
X61049936Y-41826242D01*
X61064497Y-41824082D01*
X61079200Y-41823360D01*
X62729200Y-41823360D01*
X62743903Y-41824082D01*
X62743903Y-41824082D01*
G37*
D15*
X61904200Y-42123360D03*
D10*
G36*
X62743903Y-40554082D02*
G01*
X62758464Y-40556242D01*
X62772743Y-40559819D01*
X62786603Y-40564778D01*
X62799910Y-40571072D01*
X62812536Y-40578640D01*
X62824359Y-40587408D01*
X62835266Y-40597294D01*
X62845152Y-40608201D01*
X62853920Y-40620024D01*
X62861488Y-40632650D01*
X62867782Y-40645957D01*
X62872741Y-40659817D01*
X62876318Y-40674096D01*
X62878478Y-40688657D01*
X62879200Y-40703360D01*
X62879200Y-41003360D01*
X62878478Y-41018063D01*
X62876318Y-41032624D01*
X62872741Y-41046903D01*
X62867782Y-41060763D01*
X62861488Y-41074070D01*
X62853920Y-41086696D01*
X62845152Y-41098519D01*
X62835266Y-41109426D01*
X62824359Y-41119312D01*
X62812536Y-41128080D01*
X62799910Y-41135648D01*
X62786603Y-41141942D01*
X62772743Y-41146901D01*
X62758464Y-41150478D01*
X62743903Y-41152638D01*
X62729200Y-41153360D01*
X61079200Y-41153360D01*
X61064497Y-41152638D01*
X61049936Y-41150478D01*
X61035657Y-41146901D01*
X61021797Y-41141942D01*
X61008490Y-41135648D01*
X60995864Y-41128080D01*
X60984041Y-41119312D01*
X60973134Y-41109426D01*
X60963248Y-41098519D01*
X60954480Y-41086696D01*
X60946912Y-41074070D01*
X60940618Y-41060763D01*
X60935659Y-41046903D01*
X60932082Y-41032624D01*
X60929922Y-41018063D01*
X60929200Y-41003360D01*
X60929200Y-40703360D01*
X60929922Y-40688657D01*
X60932082Y-40674096D01*
X60935659Y-40659817D01*
X60940618Y-40645957D01*
X60946912Y-40632650D01*
X60954480Y-40620024D01*
X60963248Y-40608201D01*
X60973134Y-40597294D01*
X60984041Y-40587408D01*
X60995864Y-40578640D01*
X61008490Y-40571072D01*
X61021797Y-40564778D01*
X61035657Y-40559819D01*
X61049936Y-40556242D01*
X61064497Y-40554082D01*
X61079200Y-40553360D01*
X62729200Y-40553360D01*
X62743903Y-40554082D01*
X62743903Y-40554082D01*
G37*
D15*
X61904200Y-40853360D03*
D10*
G36*
X62743903Y-39284082D02*
G01*
X62758464Y-39286242D01*
X62772743Y-39289819D01*
X62786603Y-39294778D01*
X62799910Y-39301072D01*
X62812536Y-39308640D01*
X62824359Y-39317408D01*
X62835266Y-39327294D01*
X62845152Y-39338201D01*
X62853920Y-39350024D01*
X62861488Y-39362650D01*
X62867782Y-39375957D01*
X62872741Y-39389817D01*
X62876318Y-39404096D01*
X62878478Y-39418657D01*
X62879200Y-39433360D01*
X62879200Y-39733360D01*
X62878478Y-39748063D01*
X62876318Y-39762624D01*
X62872741Y-39776903D01*
X62867782Y-39790763D01*
X62861488Y-39804070D01*
X62853920Y-39816696D01*
X62845152Y-39828519D01*
X62835266Y-39839426D01*
X62824359Y-39849312D01*
X62812536Y-39858080D01*
X62799910Y-39865648D01*
X62786603Y-39871942D01*
X62772743Y-39876901D01*
X62758464Y-39880478D01*
X62743903Y-39882638D01*
X62729200Y-39883360D01*
X61079200Y-39883360D01*
X61064497Y-39882638D01*
X61049936Y-39880478D01*
X61035657Y-39876901D01*
X61021797Y-39871942D01*
X61008490Y-39865648D01*
X60995864Y-39858080D01*
X60984041Y-39849312D01*
X60973134Y-39839426D01*
X60963248Y-39828519D01*
X60954480Y-39816696D01*
X60946912Y-39804070D01*
X60940618Y-39790763D01*
X60935659Y-39776903D01*
X60932082Y-39762624D01*
X60929922Y-39748063D01*
X60929200Y-39733360D01*
X60929200Y-39433360D01*
X60929922Y-39418657D01*
X60932082Y-39404096D01*
X60935659Y-39389817D01*
X60940618Y-39375957D01*
X60946912Y-39362650D01*
X60954480Y-39350024D01*
X60963248Y-39338201D01*
X60973134Y-39327294D01*
X60984041Y-39317408D01*
X60995864Y-39308640D01*
X61008490Y-39301072D01*
X61021797Y-39294778D01*
X61035657Y-39289819D01*
X61049936Y-39286242D01*
X61064497Y-39284082D01*
X61079200Y-39283360D01*
X62729200Y-39283360D01*
X62743903Y-39284082D01*
X62743903Y-39284082D01*
G37*
D15*
X61904200Y-39583360D03*
D10*
G36*
X62743903Y-38014082D02*
G01*
X62758464Y-38016242D01*
X62772743Y-38019819D01*
X62786603Y-38024778D01*
X62799910Y-38031072D01*
X62812536Y-38038640D01*
X62824359Y-38047408D01*
X62835266Y-38057294D01*
X62845152Y-38068201D01*
X62853920Y-38080024D01*
X62861488Y-38092650D01*
X62867782Y-38105957D01*
X62872741Y-38119817D01*
X62876318Y-38134096D01*
X62878478Y-38148657D01*
X62879200Y-38163360D01*
X62879200Y-38463360D01*
X62878478Y-38478063D01*
X62876318Y-38492624D01*
X62872741Y-38506903D01*
X62867782Y-38520763D01*
X62861488Y-38534070D01*
X62853920Y-38546696D01*
X62845152Y-38558519D01*
X62835266Y-38569426D01*
X62824359Y-38579312D01*
X62812536Y-38588080D01*
X62799910Y-38595648D01*
X62786603Y-38601942D01*
X62772743Y-38606901D01*
X62758464Y-38610478D01*
X62743903Y-38612638D01*
X62729200Y-38613360D01*
X61079200Y-38613360D01*
X61064497Y-38612638D01*
X61049936Y-38610478D01*
X61035657Y-38606901D01*
X61021797Y-38601942D01*
X61008490Y-38595648D01*
X60995864Y-38588080D01*
X60984041Y-38579312D01*
X60973134Y-38569426D01*
X60963248Y-38558519D01*
X60954480Y-38546696D01*
X60946912Y-38534070D01*
X60940618Y-38520763D01*
X60935659Y-38506903D01*
X60932082Y-38492624D01*
X60929922Y-38478063D01*
X60929200Y-38463360D01*
X60929200Y-38163360D01*
X60929922Y-38148657D01*
X60932082Y-38134096D01*
X60935659Y-38119817D01*
X60940618Y-38105957D01*
X60946912Y-38092650D01*
X60954480Y-38080024D01*
X60963248Y-38068201D01*
X60973134Y-38057294D01*
X60984041Y-38047408D01*
X60995864Y-38038640D01*
X61008490Y-38031072D01*
X61021797Y-38024778D01*
X61035657Y-38019819D01*
X61049936Y-38016242D01*
X61064497Y-38014082D01*
X61079200Y-38013360D01*
X62729200Y-38013360D01*
X62743903Y-38014082D01*
X62743903Y-38014082D01*
G37*
D15*
X61904200Y-38313360D03*
D10*
G36*
X62743903Y-36744082D02*
G01*
X62758464Y-36746242D01*
X62772743Y-36749819D01*
X62786603Y-36754778D01*
X62799910Y-36761072D01*
X62812536Y-36768640D01*
X62824359Y-36777408D01*
X62835266Y-36787294D01*
X62845152Y-36798201D01*
X62853920Y-36810024D01*
X62861488Y-36822650D01*
X62867782Y-36835957D01*
X62872741Y-36849817D01*
X62876318Y-36864096D01*
X62878478Y-36878657D01*
X62879200Y-36893360D01*
X62879200Y-37193360D01*
X62878478Y-37208063D01*
X62876318Y-37222624D01*
X62872741Y-37236903D01*
X62867782Y-37250763D01*
X62861488Y-37264070D01*
X62853920Y-37276696D01*
X62845152Y-37288519D01*
X62835266Y-37299426D01*
X62824359Y-37309312D01*
X62812536Y-37318080D01*
X62799910Y-37325648D01*
X62786603Y-37331942D01*
X62772743Y-37336901D01*
X62758464Y-37340478D01*
X62743903Y-37342638D01*
X62729200Y-37343360D01*
X61079200Y-37343360D01*
X61064497Y-37342638D01*
X61049936Y-37340478D01*
X61035657Y-37336901D01*
X61021797Y-37331942D01*
X61008490Y-37325648D01*
X60995864Y-37318080D01*
X60984041Y-37309312D01*
X60973134Y-37299426D01*
X60963248Y-37288519D01*
X60954480Y-37276696D01*
X60946912Y-37264070D01*
X60940618Y-37250763D01*
X60935659Y-37236903D01*
X60932082Y-37222624D01*
X60929922Y-37208063D01*
X60929200Y-37193360D01*
X60929200Y-36893360D01*
X60929922Y-36878657D01*
X60932082Y-36864096D01*
X60935659Y-36849817D01*
X60940618Y-36835957D01*
X60946912Y-36822650D01*
X60954480Y-36810024D01*
X60963248Y-36798201D01*
X60973134Y-36787294D01*
X60984041Y-36777408D01*
X60995864Y-36768640D01*
X61008490Y-36761072D01*
X61021797Y-36754778D01*
X61035657Y-36749819D01*
X61049936Y-36746242D01*
X61064497Y-36744082D01*
X61079200Y-36743360D01*
X62729200Y-36743360D01*
X62743903Y-36744082D01*
X62743903Y-36744082D01*
G37*
D15*
X61904200Y-37043360D03*
D10*
G36*
X62743903Y-35474082D02*
G01*
X62758464Y-35476242D01*
X62772743Y-35479819D01*
X62786603Y-35484778D01*
X62799910Y-35491072D01*
X62812536Y-35498640D01*
X62824359Y-35507408D01*
X62835266Y-35517294D01*
X62845152Y-35528201D01*
X62853920Y-35540024D01*
X62861488Y-35552650D01*
X62867782Y-35565957D01*
X62872741Y-35579817D01*
X62876318Y-35594096D01*
X62878478Y-35608657D01*
X62879200Y-35623360D01*
X62879200Y-35923360D01*
X62878478Y-35938063D01*
X62876318Y-35952624D01*
X62872741Y-35966903D01*
X62867782Y-35980763D01*
X62861488Y-35994070D01*
X62853920Y-36006696D01*
X62845152Y-36018519D01*
X62835266Y-36029426D01*
X62824359Y-36039312D01*
X62812536Y-36048080D01*
X62799910Y-36055648D01*
X62786603Y-36061942D01*
X62772743Y-36066901D01*
X62758464Y-36070478D01*
X62743903Y-36072638D01*
X62729200Y-36073360D01*
X61079200Y-36073360D01*
X61064497Y-36072638D01*
X61049936Y-36070478D01*
X61035657Y-36066901D01*
X61021797Y-36061942D01*
X61008490Y-36055648D01*
X60995864Y-36048080D01*
X60984041Y-36039312D01*
X60973134Y-36029426D01*
X60963248Y-36018519D01*
X60954480Y-36006696D01*
X60946912Y-35994070D01*
X60940618Y-35980763D01*
X60935659Y-35966903D01*
X60932082Y-35952624D01*
X60929922Y-35938063D01*
X60929200Y-35923360D01*
X60929200Y-35623360D01*
X60929922Y-35608657D01*
X60932082Y-35594096D01*
X60935659Y-35579817D01*
X60940618Y-35565957D01*
X60946912Y-35552650D01*
X60954480Y-35540024D01*
X60963248Y-35528201D01*
X60973134Y-35517294D01*
X60984041Y-35507408D01*
X60995864Y-35498640D01*
X61008490Y-35491072D01*
X61021797Y-35484778D01*
X61035657Y-35479819D01*
X61049936Y-35476242D01*
X61064497Y-35474082D01*
X61079200Y-35473360D01*
X62729200Y-35473360D01*
X62743903Y-35474082D01*
X62743903Y-35474082D01*
G37*
D15*
X61904200Y-35773360D03*
D10*
G36*
X41220305Y-46656964D02*
G01*
X41244573Y-46660564D01*
X41268372Y-46666525D01*
X41291471Y-46674790D01*
X41313650Y-46685280D01*
X41334693Y-46697892D01*
X41354399Y-46712507D01*
X41372577Y-46728983D01*
X41389053Y-46747161D01*
X41403668Y-46766867D01*
X41416280Y-46787910D01*
X41426770Y-46810089D01*
X41435035Y-46833188D01*
X41440996Y-46856987D01*
X41444596Y-46881255D01*
X41445800Y-46905759D01*
X41445800Y-47805761D01*
X41444596Y-47830265D01*
X41440996Y-47854533D01*
X41435035Y-47878332D01*
X41426770Y-47901431D01*
X41416280Y-47923610D01*
X41403668Y-47944653D01*
X41389053Y-47964359D01*
X41372577Y-47982537D01*
X41354399Y-47999013D01*
X41334693Y-48013628D01*
X41313650Y-48026240D01*
X41291471Y-48036730D01*
X41268372Y-48044995D01*
X41244573Y-48050956D01*
X41220305Y-48054556D01*
X41195801Y-48055760D01*
X40545799Y-48055760D01*
X40521295Y-48054556D01*
X40497027Y-48050956D01*
X40473228Y-48044995D01*
X40450129Y-48036730D01*
X40427950Y-48026240D01*
X40406907Y-48013628D01*
X40387201Y-47999013D01*
X40369023Y-47982537D01*
X40352547Y-47964359D01*
X40337932Y-47944653D01*
X40325320Y-47923610D01*
X40314830Y-47901431D01*
X40306565Y-47878332D01*
X40300604Y-47854533D01*
X40297004Y-47830265D01*
X40295800Y-47805761D01*
X40295800Y-46905759D01*
X40297004Y-46881255D01*
X40300604Y-46856987D01*
X40306565Y-46833188D01*
X40314830Y-46810089D01*
X40325320Y-46787910D01*
X40337932Y-46766867D01*
X40352547Y-46747161D01*
X40369023Y-46728983D01*
X40387201Y-46712507D01*
X40406907Y-46697892D01*
X40427950Y-46685280D01*
X40450129Y-46674790D01*
X40473228Y-46666525D01*
X40497027Y-46660564D01*
X40521295Y-46656964D01*
X40545799Y-46655760D01*
X41195801Y-46655760D01*
X41220305Y-46656964D01*
X41220305Y-46656964D01*
G37*
D11*
X40870800Y-47355760D03*
D10*
G36*
X39170305Y-46656964D02*
G01*
X39194573Y-46660564D01*
X39218372Y-46666525D01*
X39241471Y-46674790D01*
X39263650Y-46685280D01*
X39284693Y-46697892D01*
X39304399Y-46712507D01*
X39322577Y-46728983D01*
X39339053Y-46747161D01*
X39353668Y-46766867D01*
X39366280Y-46787910D01*
X39376770Y-46810089D01*
X39385035Y-46833188D01*
X39390996Y-46856987D01*
X39394596Y-46881255D01*
X39395800Y-46905759D01*
X39395800Y-47805761D01*
X39394596Y-47830265D01*
X39390996Y-47854533D01*
X39385035Y-47878332D01*
X39376770Y-47901431D01*
X39366280Y-47923610D01*
X39353668Y-47944653D01*
X39339053Y-47964359D01*
X39322577Y-47982537D01*
X39304399Y-47999013D01*
X39284693Y-48013628D01*
X39263650Y-48026240D01*
X39241471Y-48036730D01*
X39218372Y-48044995D01*
X39194573Y-48050956D01*
X39170305Y-48054556D01*
X39145801Y-48055760D01*
X38495799Y-48055760D01*
X38471295Y-48054556D01*
X38447027Y-48050956D01*
X38423228Y-48044995D01*
X38400129Y-48036730D01*
X38377950Y-48026240D01*
X38356907Y-48013628D01*
X38337201Y-47999013D01*
X38319023Y-47982537D01*
X38302547Y-47964359D01*
X38287932Y-47944653D01*
X38275320Y-47923610D01*
X38264830Y-47901431D01*
X38256565Y-47878332D01*
X38250604Y-47854533D01*
X38247004Y-47830265D01*
X38245800Y-47805761D01*
X38245800Y-46905759D01*
X38247004Y-46881255D01*
X38250604Y-46856987D01*
X38256565Y-46833188D01*
X38264830Y-46810089D01*
X38275320Y-46787910D01*
X38287932Y-46766867D01*
X38302547Y-46747161D01*
X38319023Y-46728983D01*
X38337201Y-46712507D01*
X38356907Y-46697892D01*
X38377950Y-46685280D01*
X38400129Y-46674790D01*
X38423228Y-46666525D01*
X38447027Y-46660564D01*
X38471295Y-46656964D01*
X38495799Y-46655760D01*
X39145801Y-46655760D01*
X39170305Y-46656964D01*
X39170305Y-46656964D01*
G37*
D11*
X38820800Y-47355760D03*
D10*
G36*
X39144905Y-48587364D02*
G01*
X39169173Y-48590964D01*
X39192972Y-48596925D01*
X39216071Y-48605190D01*
X39238250Y-48615680D01*
X39259293Y-48628292D01*
X39278999Y-48642907D01*
X39297177Y-48659383D01*
X39313653Y-48677561D01*
X39328268Y-48697267D01*
X39340880Y-48718310D01*
X39351370Y-48740489D01*
X39359635Y-48763588D01*
X39365596Y-48787387D01*
X39369196Y-48811655D01*
X39370400Y-48836159D01*
X39370400Y-49736161D01*
X39369196Y-49760665D01*
X39365596Y-49784933D01*
X39359635Y-49808732D01*
X39351370Y-49831831D01*
X39340880Y-49854010D01*
X39328268Y-49875053D01*
X39313653Y-49894759D01*
X39297177Y-49912937D01*
X39278999Y-49929413D01*
X39259293Y-49944028D01*
X39238250Y-49956640D01*
X39216071Y-49967130D01*
X39192972Y-49975395D01*
X39169173Y-49981356D01*
X39144905Y-49984956D01*
X39120401Y-49986160D01*
X38470399Y-49986160D01*
X38445895Y-49984956D01*
X38421627Y-49981356D01*
X38397828Y-49975395D01*
X38374729Y-49967130D01*
X38352550Y-49956640D01*
X38331507Y-49944028D01*
X38311801Y-49929413D01*
X38293623Y-49912937D01*
X38277147Y-49894759D01*
X38262532Y-49875053D01*
X38249920Y-49854010D01*
X38239430Y-49831831D01*
X38231165Y-49808732D01*
X38225204Y-49784933D01*
X38221604Y-49760665D01*
X38220400Y-49736161D01*
X38220400Y-48836159D01*
X38221604Y-48811655D01*
X38225204Y-48787387D01*
X38231165Y-48763588D01*
X38239430Y-48740489D01*
X38249920Y-48718310D01*
X38262532Y-48697267D01*
X38277147Y-48677561D01*
X38293623Y-48659383D01*
X38311801Y-48642907D01*
X38331507Y-48628292D01*
X38352550Y-48615680D01*
X38374729Y-48605190D01*
X38397828Y-48596925D01*
X38421627Y-48590964D01*
X38445895Y-48587364D01*
X38470399Y-48586160D01*
X39120401Y-48586160D01*
X39144905Y-48587364D01*
X39144905Y-48587364D01*
G37*
D11*
X38795400Y-49286160D03*
D10*
G36*
X41194905Y-48587364D02*
G01*
X41219173Y-48590964D01*
X41242972Y-48596925D01*
X41266071Y-48605190D01*
X41288250Y-48615680D01*
X41309293Y-48628292D01*
X41328999Y-48642907D01*
X41347177Y-48659383D01*
X41363653Y-48677561D01*
X41378268Y-48697267D01*
X41390880Y-48718310D01*
X41401370Y-48740489D01*
X41409635Y-48763588D01*
X41415596Y-48787387D01*
X41419196Y-48811655D01*
X41420400Y-48836159D01*
X41420400Y-49736161D01*
X41419196Y-49760665D01*
X41415596Y-49784933D01*
X41409635Y-49808732D01*
X41401370Y-49831831D01*
X41390880Y-49854010D01*
X41378268Y-49875053D01*
X41363653Y-49894759D01*
X41347177Y-49912937D01*
X41328999Y-49929413D01*
X41309293Y-49944028D01*
X41288250Y-49956640D01*
X41266071Y-49967130D01*
X41242972Y-49975395D01*
X41219173Y-49981356D01*
X41194905Y-49984956D01*
X41170401Y-49986160D01*
X40520399Y-49986160D01*
X40495895Y-49984956D01*
X40471627Y-49981356D01*
X40447828Y-49975395D01*
X40424729Y-49967130D01*
X40402550Y-49956640D01*
X40381507Y-49944028D01*
X40361801Y-49929413D01*
X40343623Y-49912937D01*
X40327147Y-49894759D01*
X40312532Y-49875053D01*
X40299920Y-49854010D01*
X40289430Y-49831831D01*
X40281165Y-49808732D01*
X40275204Y-49784933D01*
X40271604Y-49760665D01*
X40270400Y-49736161D01*
X40270400Y-48836159D01*
X40271604Y-48811655D01*
X40275204Y-48787387D01*
X40281165Y-48763588D01*
X40289430Y-48740489D01*
X40299920Y-48718310D01*
X40312532Y-48697267D01*
X40327147Y-48677561D01*
X40343623Y-48659383D01*
X40361801Y-48642907D01*
X40381507Y-48628292D01*
X40402550Y-48615680D01*
X40424729Y-48605190D01*
X40447828Y-48596925D01*
X40471627Y-48590964D01*
X40495895Y-48587364D01*
X40520399Y-48586160D01*
X41170401Y-48586160D01*
X41194905Y-48587364D01*
X41194905Y-48587364D01*
G37*
D11*
X40845400Y-49286160D03*
D10*
G36*
X50861305Y-45377564D02*
G01*
X50885573Y-45381164D01*
X50909372Y-45387125D01*
X50932471Y-45395390D01*
X50954650Y-45405880D01*
X50975693Y-45418492D01*
X50995399Y-45433107D01*
X51013577Y-45449583D01*
X51030053Y-45467761D01*
X51044668Y-45487467D01*
X51057280Y-45508510D01*
X51067770Y-45530689D01*
X51076035Y-45553788D01*
X51081996Y-45577587D01*
X51085596Y-45601855D01*
X51086800Y-45626359D01*
X51086800Y-46276361D01*
X51085596Y-46300865D01*
X51081996Y-46325133D01*
X51076035Y-46348932D01*
X51067770Y-46372031D01*
X51057280Y-46394210D01*
X51044668Y-46415253D01*
X51030053Y-46434959D01*
X51013577Y-46453137D01*
X50995399Y-46469613D01*
X50975693Y-46484228D01*
X50954650Y-46496840D01*
X50932471Y-46507330D01*
X50909372Y-46515595D01*
X50885573Y-46521556D01*
X50861305Y-46525156D01*
X50836801Y-46526360D01*
X49936799Y-46526360D01*
X49912295Y-46525156D01*
X49888027Y-46521556D01*
X49864228Y-46515595D01*
X49841129Y-46507330D01*
X49818950Y-46496840D01*
X49797907Y-46484228D01*
X49778201Y-46469613D01*
X49760023Y-46453137D01*
X49743547Y-46434959D01*
X49728932Y-46415253D01*
X49716320Y-46394210D01*
X49705830Y-46372031D01*
X49697565Y-46348932D01*
X49691604Y-46325133D01*
X49688004Y-46300865D01*
X49686800Y-46276361D01*
X49686800Y-45626359D01*
X49688004Y-45601855D01*
X49691604Y-45577587D01*
X49697565Y-45553788D01*
X49705830Y-45530689D01*
X49716320Y-45508510D01*
X49728932Y-45487467D01*
X49743547Y-45467761D01*
X49760023Y-45449583D01*
X49778201Y-45433107D01*
X49797907Y-45418492D01*
X49818950Y-45405880D01*
X49841129Y-45395390D01*
X49864228Y-45387125D01*
X49888027Y-45381164D01*
X49912295Y-45377564D01*
X49936799Y-45376360D01*
X50836801Y-45376360D01*
X50861305Y-45377564D01*
X50861305Y-45377564D01*
G37*
D11*
X50386800Y-45951360D03*
D10*
G36*
X50861305Y-43327564D02*
G01*
X50885573Y-43331164D01*
X50909372Y-43337125D01*
X50932471Y-43345390D01*
X50954650Y-43355880D01*
X50975693Y-43368492D01*
X50995399Y-43383107D01*
X51013577Y-43399583D01*
X51030053Y-43417761D01*
X51044668Y-43437467D01*
X51057280Y-43458510D01*
X51067770Y-43480689D01*
X51076035Y-43503788D01*
X51081996Y-43527587D01*
X51085596Y-43551855D01*
X51086800Y-43576359D01*
X51086800Y-44226361D01*
X51085596Y-44250865D01*
X51081996Y-44275133D01*
X51076035Y-44298932D01*
X51067770Y-44322031D01*
X51057280Y-44344210D01*
X51044668Y-44365253D01*
X51030053Y-44384959D01*
X51013577Y-44403137D01*
X50995399Y-44419613D01*
X50975693Y-44434228D01*
X50954650Y-44446840D01*
X50932471Y-44457330D01*
X50909372Y-44465595D01*
X50885573Y-44471556D01*
X50861305Y-44475156D01*
X50836801Y-44476360D01*
X49936799Y-44476360D01*
X49912295Y-44475156D01*
X49888027Y-44471556D01*
X49864228Y-44465595D01*
X49841129Y-44457330D01*
X49818950Y-44446840D01*
X49797907Y-44434228D01*
X49778201Y-44419613D01*
X49760023Y-44403137D01*
X49743547Y-44384959D01*
X49728932Y-44365253D01*
X49716320Y-44344210D01*
X49705830Y-44322031D01*
X49697565Y-44298932D01*
X49691604Y-44275133D01*
X49688004Y-44250865D01*
X49686800Y-44226361D01*
X49686800Y-43576359D01*
X49688004Y-43551855D01*
X49691604Y-43527587D01*
X49697565Y-43503788D01*
X49705830Y-43480689D01*
X49716320Y-43458510D01*
X49728932Y-43437467D01*
X49743547Y-43417761D01*
X49760023Y-43399583D01*
X49778201Y-43383107D01*
X49797907Y-43368492D01*
X49818950Y-43355880D01*
X49841129Y-43345390D01*
X49864228Y-43337125D01*
X49888027Y-43331164D01*
X49912295Y-43327564D01*
X49936799Y-43326360D01*
X50836801Y-43326360D01*
X50861305Y-43327564D01*
X50861305Y-43327564D01*
G37*
D11*
X50386800Y-43901360D03*
D10*
G36*
X48803905Y-43343964D02*
G01*
X48828173Y-43347564D01*
X48851972Y-43353525D01*
X48875071Y-43361790D01*
X48897250Y-43372280D01*
X48918293Y-43384892D01*
X48937999Y-43399507D01*
X48956177Y-43415983D01*
X48972653Y-43434161D01*
X48987268Y-43453867D01*
X48999880Y-43474910D01*
X49010370Y-43497089D01*
X49018635Y-43520188D01*
X49024596Y-43543987D01*
X49028196Y-43568255D01*
X49029400Y-43592759D01*
X49029400Y-44242761D01*
X49028196Y-44267265D01*
X49024596Y-44291533D01*
X49018635Y-44315332D01*
X49010370Y-44338431D01*
X48999880Y-44360610D01*
X48987268Y-44381653D01*
X48972653Y-44401359D01*
X48956177Y-44419537D01*
X48937999Y-44436013D01*
X48918293Y-44450628D01*
X48897250Y-44463240D01*
X48875071Y-44473730D01*
X48851972Y-44481995D01*
X48828173Y-44487956D01*
X48803905Y-44491556D01*
X48779401Y-44492760D01*
X47879399Y-44492760D01*
X47854895Y-44491556D01*
X47830627Y-44487956D01*
X47806828Y-44481995D01*
X47783729Y-44473730D01*
X47761550Y-44463240D01*
X47740507Y-44450628D01*
X47720801Y-44436013D01*
X47702623Y-44419537D01*
X47686147Y-44401359D01*
X47671532Y-44381653D01*
X47658920Y-44360610D01*
X47648430Y-44338431D01*
X47640165Y-44315332D01*
X47634204Y-44291533D01*
X47630604Y-44267265D01*
X47629400Y-44242761D01*
X47629400Y-43592759D01*
X47630604Y-43568255D01*
X47634204Y-43543987D01*
X47640165Y-43520188D01*
X47648430Y-43497089D01*
X47658920Y-43474910D01*
X47671532Y-43453867D01*
X47686147Y-43434161D01*
X47702623Y-43415983D01*
X47720801Y-43399507D01*
X47740507Y-43384892D01*
X47761550Y-43372280D01*
X47783729Y-43361790D01*
X47806828Y-43353525D01*
X47830627Y-43347564D01*
X47854895Y-43343964D01*
X47879399Y-43342760D01*
X48779401Y-43342760D01*
X48803905Y-43343964D01*
X48803905Y-43343964D01*
G37*
D11*
X48329400Y-43917760D03*
D10*
G36*
X48803905Y-45393964D02*
G01*
X48828173Y-45397564D01*
X48851972Y-45403525D01*
X48875071Y-45411790D01*
X48897250Y-45422280D01*
X48918293Y-45434892D01*
X48937999Y-45449507D01*
X48956177Y-45465983D01*
X48972653Y-45484161D01*
X48987268Y-45503867D01*
X48999880Y-45524910D01*
X49010370Y-45547089D01*
X49018635Y-45570188D01*
X49024596Y-45593987D01*
X49028196Y-45618255D01*
X49029400Y-45642759D01*
X49029400Y-46292761D01*
X49028196Y-46317265D01*
X49024596Y-46341533D01*
X49018635Y-46365332D01*
X49010370Y-46388431D01*
X48999880Y-46410610D01*
X48987268Y-46431653D01*
X48972653Y-46451359D01*
X48956177Y-46469537D01*
X48937999Y-46486013D01*
X48918293Y-46500628D01*
X48897250Y-46513240D01*
X48875071Y-46523730D01*
X48851972Y-46531995D01*
X48828173Y-46537956D01*
X48803905Y-46541556D01*
X48779401Y-46542760D01*
X47879399Y-46542760D01*
X47854895Y-46541556D01*
X47830627Y-46537956D01*
X47806828Y-46531995D01*
X47783729Y-46523730D01*
X47761550Y-46513240D01*
X47740507Y-46500628D01*
X47720801Y-46486013D01*
X47702623Y-46469537D01*
X47686147Y-46451359D01*
X47671532Y-46431653D01*
X47658920Y-46410610D01*
X47648430Y-46388431D01*
X47640165Y-46365332D01*
X47634204Y-46341533D01*
X47630604Y-46317265D01*
X47629400Y-46292761D01*
X47629400Y-45642759D01*
X47630604Y-45618255D01*
X47634204Y-45593987D01*
X47640165Y-45570188D01*
X47648430Y-45547089D01*
X47658920Y-45524910D01*
X47671532Y-45503867D01*
X47686147Y-45484161D01*
X47702623Y-45465983D01*
X47720801Y-45449507D01*
X47740507Y-45434892D01*
X47761550Y-45422280D01*
X47783729Y-45411790D01*
X47806828Y-45403525D01*
X47830627Y-45397564D01*
X47854895Y-45393964D01*
X47879399Y-45392760D01*
X48779401Y-45392760D01*
X48803905Y-45393964D01*
X48803905Y-45393964D01*
G37*
D11*
X48329400Y-45967760D03*
D10*
G36*
X35157105Y-47291964D02*
G01*
X35181373Y-47295564D01*
X35205172Y-47301525D01*
X35228271Y-47309790D01*
X35250450Y-47320280D01*
X35271493Y-47332892D01*
X35291199Y-47347507D01*
X35309377Y-47363983D01*
X35325853Y-47382161D01*
X35340468Y-47401867D01*
X35353080Y-47422910D01*
X35363570Y-47445089D01*
X35371835Y-47468188D01*
X35377796Y-47491987D01*
X35381396Y-47516255D01*
X35382600Y-47540759D01*
X35382600Y-48440761D01*
X35381396Y-48465265D01*
X35377796Y-48489533D01*
X35371835Y-48513332D01*
X35363570Y-48536431D01*
X35353080Y-48558610D01*
X35340468Y-48579653D01*
X35325853Y-48599359D01*
X35309377Y-48617537D01*
X35291199Y-48634013D01*
X35271493Y-48648628D01*
X35250450Y-48661240D01*
X35228271Y-48671730D01*
X35205172Y-48679995D01*
X35181373Y-48685956D01*
X35157105Y-48689556D01*
X35132601Y-48690760D01*
X34482599Y-48690760D01*
X34458095Y-48689556D01*
X34433827Y-48685956D01*
X34410028Y-48679995D01*
X34386929Y-48671730D01*
X34364750Y-48661240D01*
X34343707Y-48648628D01*
X34324001Y-48634013D01*
X34305823Y-48617537D01*
X34289347Y-48599359D01*
X34274732Y-48579653D01*
X34262120Y-48558610D01*
X34251630Y-48536431D01*
X34243365Y-48513332D01*
X34237404Y-48489533D01*
X34233804Y-48465265D01*
X34232600Y-48440761D01*
X34232600Y-47540759D01*
X34233804Y-47516255D01*
X34237404Y-47491987D01*
X34243365Y-47468188D01*
X34251630Y-47445089D01*
X34262120Y-47422910D01*
X34274732Y-47401867D01*
X34289347Y-47382161D01*
X34305823Y-47363983D01*
X34324001Y-47347507D01*
X34343707Y-47332892D01*
X34364750Y-47320280D01*
X34386929Y-47309790D01*
X34410028Y-47301525D01*
X34433827Y-47295564D01*
X34458095Y-47291964D01*
X34482599Y-47290760D01*
X35132601Y-47290760D01*
X35157105Y-47291964D01*
X35157105Y-47291964D01*
G37*
D11*
X34807600Y-47990760D03*
D10*
G36*
X37207105Y-47291964D02*
G01*
X37231373Y-47295564D01*
X37255172Y-47301525D01*
X37278271Y-47309790D01*
X37300450Y-47320280D01*
X37321493Y-47332892D01*
X37341199Y-47347507D01*
X37359377Y-47363983D01*
X37375853Y-47382161D01*
X37390468Y-47401867D01*
X37403080Y-47422910D01*
X37413570Y-47445089D01*
X37421835Y-47468188D01*
X37427796Y-47491987D01*
X37431396Y-47516255D01*
X37432600Y-47540759D01*
X37432600Y-48440761D01*
X37431396Y-48465265D01*
X37427796Y-48489533D01*
X37421835Y-48513332D01*
X37413570Y-48536431D01*
X37403080Y-48558610D01*
X37390468Y-48579653D01*
X37375853Y-48599359D01*
X37359377Y-48617537D01*
X37341199Y-48634013D01*
X37321493Y-48648628D01*
X37300450Y-48661240D01*
X37278271Y-48671730D01*
X37255172Y-48679995D01*
X37231373Y-48685956D01*
X37207105Y-48689556D01*
X37182601Y-48690760D01*
X36532599Y-48690760D01*
X36508095Y-48689556D01*
X36483827Y-48685956D01*
X36460028Y-48679995D01*
X36436929Y-48671730D01*
X36414750Y-48661240D01*
X36393707Y-48648628D01*
X36374001Y-48634013D01*
X36355823Y-48617537D01*
X36339347Y-48599359D01*
X36324732Y-48579653D01*
X36312120Y-48558610D01*
X36301630Y-48536431D01*
X36293365Y-48513332D01*
X36287404Y-48489533D01*
X36283804Y-48465265D01*
X36282600Y-48440761D01*
X36282600Y-47540759D01*
X36283804Y-47516255D01*
X36287404Y-47491987D01*
X36293365Y-47468188D01*
X36301630Y-47445089D01*
X36312120Y-47422910D01*
X36324732Y-47401867D01*
X36339347Y-47382161D01*
X36355823Y-47363983D01*
X36374001Y-47347507D01*
X36393707Y-47332892D01*
X36414750Y-47320280D01*
X36436929Y-47309790D01*
X36460028Y-47301525D01*
X36483827Y-47295564D01*
X36508095Y-47291964D01*
X36532599Y-47290760D01*
X37182601Y-47290760D01*
X37207105Y-47291964D01*
X37207105Y-47291964D01*
G37*
D11*
X36857600Y-47990760D03*
D10*
G36*
X46721105Y-45368564D02*
G01*
X46745373Y-45372164D01*
X46769172Y-45378125D01*
X46792271Y-45386390D01*
X46814450Y-45396880D01*
X46835493Y-45409492D01*
X46855199Y-45424107D01*
X46873377Y-45440583D01*
X46889853Y-45458761D01*
X46904468Y-45478467D01*
X46917080Y-45499510D01*
X46927570Y-45521689D01*
X46935835Y-45544788D01*
X46941796Y-45568587D01*
X46945396Y-45592855D01*
X46946600Y-45617359D01*
X46946600Y-46267361D01*
X46945396Y-46291865D01*
X46941796Y-46316133D01*
X46935835Y-46339932D01*
X46927570Y-46363031D01*
X46917080Y-46385210D01*
X46904468Y-46406253D01*
X46889853Y-46425959D01*
X46873377Y-46444137D01*
X46855199Y-46460613D01*
X46835493Y-46475228D01*
X46814450Y-46487840D01*
X46792271Y-46498330D01*
X46769172Y-46506595D01*
X46745373Y-46512556D01*
X46721105Y-46516156D01*
X46696601Y-46517360D01*
X45796599Y-46517360D01*
X45772095Y-46516156D01*
X45747827Y-46512556D01*
X45724028Y-46506595D01*
X45700929Y-46498330D01*
X45678750Y-46487840D01*
X45657707Y-46475228D01*
X45638001Y-46460613D01*
X45619823Y-46444137D01*
X45603347Y-46425959D01*
X45588732Y-46406253D01*
X45576120Y-46385210D01*
X45565630Y-46363031D01*
X45557365Y-46339932D01*
X45551404Y-46316133D01*
X45547804Y-46291865D01*
X45546600Y-46267361D01*
X45546600Y-45617359D01*
X45547804Y-45592855D01*
X45551404Y-45568587D01*
X45557365Y-45544788D01*
X45565630Y-45521689D01*
X45576120Y-45499510D01*
X45588732Y-45478467D01*
X45603347Y-45458761D01*
X45619823Y-45440583D01*
X45638001Y-45424107D01*
X45657707Y-45409492D01*
X45678750Y-45396880D01*
X45700929Y-45386390D01*
X45724028Y-45378125D01*
X45747827Y-45372164D01*
X45772095Y-45368564D01*
X45796599Y-45367360D01*
X46696601Y-45367360D01*
X46721105Y-45368564D01*
X46721105Y-45368564D01*
G37*
D11*
X46246600Y-45942360D03*
D10*
G36*
X46721105Y-43318564D02*
G01*
X46745373Y-43322164D01*
X46769172Y-43328125D01*
X46792271Y-43336390D01*
X46814450Y-43346880D01*
X46835493Y-43359492D01*
X46855199Y-43374107D01*
X46873377Y-43390583D01*
X46889853Y-43408761D01*
X46904468Y-43428467D01*
X46917080Y-43449510D01*
X46927570Y-43471689D01*
X46935835Y-43494788D01*
X46941796Y-43518587D01*
X46945396Y-43542855D01*
X46946600Y-43567359D01*
X46946600Y-44217361D01*
X46945396Y-44241865D01*
X46941796Y-44266133D01*
X46935835Y-44289932D01*
X46927570Y-44313031D01*
X46917080Y-44335210D01*
X46904468Y-44356253D01*
X46889853Y-44375959D01*
X46873377Y-44394137D01*
X46855199Y-44410613D01*
X46835493Y-44425228D01*
X46814450Y-44437840D01*
X46792271Y-44448330D01*
X46769172Y-44456595D01*
X46745373Y-44462556D01*
X46721105Y-44466156D01*
X46696601Y-44467360D01*
X45796599Y-44467360D01*
X45772095Y-44466156D01*
X45747827Y-44462556D01*
X45724028Y-44456595D01*
X45700929Y-44448330D01*
X45678750Y-44437840D01*
X45657707Y-44425228D01*
X45638001Y-44410613D01*
X45619823Y-44394137D01*
X45603347Y-44375959D01*
X45588732Y-44356253D01*
X45576120Y-44335210D01*
X45565630Y-44313031D01*
X45557365Y-44289932D01*
X45551404Y-44266133D01*
X45547804Y-44241865D01*
X45546600Y-44217361D01*
X45546600Y-43567359D01*
X45547804Y-43542855D01*
X45551404Y-43518587D01*
X45557365Y-43494788D01*
X45565630Y-43471689D01*
X45576120Y-43449510D01*
X45588732Y-43428467D01*
X45603347Y-43408761D01*
X45619823Y-43390583D01*
X45638001Y-43374107D01*
X45657707Y-43359492D01*
X45678750Y-43346880D01*
X45700929Y-43336390D01*
X45724028Y-43328125D01*
X45747827Y-43322164D01*
X45772095Y-43318564D01*
X45796599Y-43317360D01*
X46696601Y-43317360D01*
X46721105Y-43318564D01*
X46721105Y-43318564D01*
G37*
D11*
X46246600Y-43892360D03*
D10*
G36*
X72471803Y-43467723D02*
G01*
X72491218Y-43470603D01*
X72510257Y-43475372D01*
X72528737Y-43481984D01*
X72546479Y-43490376D01*
X72563314Y-43500466D01*
X72579079Y-43512158D01*
X72593621Y-43525339D01*
X72606802Y-43539881D01*
X72618494Y-43555646D01*
X72628584Y-43572481D01*
X72636976Y-43590223D01*
X72643588Y-43608703D01*
X72648357Y-43627742D01*
X72651237Y-43647157D01*
X72652200Y-43666760D01*
X72652200Y-44066760D01*
X72651237Y-44086363D01*
X72648357Y-44105778D01*
X72643588Y-44124817D01*
X72636976Y-44143297D01*
X72628584Y-44161039D01*
X72618494Y-44177874D01*
X72606802Y-44193639D01*
X72593621Y-44208181D01*
X72579079Y-44221362D01*
X72563314Y-44233054D01*
X72546479Y-44243144D01*
X72528737Y-44251536D01*
X72510257Y-44258148D01*
X72491218Y-44262917D01*
X72471803Y-44265797D01*
X72452200Y-44266760D01*
X71552200Y-44266760D01*
X71532597Y-44265797D01*
X71513182Y-44262917D01*
X71494143Y-44258148D01*
X71475663Y-44251536D01*
X71457921Y-44243144D01*
X71441086Y-44233054D01*
X71425321Y-44221362D01*
X71410779Y-44208181D01*
X71397598Y-44193639D01*
X71385906Y-44177874D01*
X71375816Y-44161039D01*
X71367424Y-44143297D01*
X71360812Y-44124817D01*
X71356043Y-44105778D01*
X71353163Y-44086363D01*
X71352200Y-44066760D01*
X71352200Y-43666760D01*
X71353163Y-43647157D01*
X71356043Y-43627742D01*
X71360812Y-43608703D01*
X71367424Y-43590223D01*
X71375816Y-43572481D01*
X71385906Y-43555646D01*
X71397598Y-43539881D01*
X71410779Y-43525339D01*
X71425321Y-43512158D01*
X71441086Y-43500466D01*
X71457921Y-43490376D01*
X71475663Y-43481984D01*
X71494143Y-43475372D01*
X71513182Y-43470603D01*
X71532597Y-43467723D01*
X71552200Y-43466760D01*
X72452200Y-43466760D01*
X72471803Y-43467723D01*
X72471803Y-43467723D01*
G37*
D18*
X72002200Y-43866760D03*
D19*
X72002200Y-42616760D03*
X72002200Y-41366760D03*
X72002200Y-40116760D03*
X72002200Y-38866760D03*
X72002200Y-37616760D03*
D20*
X61893000Y-48320960D03*
X61816800Y-44739560D03*
X60724600Y-39532560D03*
X64153600Y-51673760D03*
X39862200Y-53155960D03*
X37890000Y-47990760D03*
X52368000Y-45323760D03*
X54180400Y-35408758D03*
X68039800Y-35722539D03*
X57894000Y-51684960D03*
X48151602Y-37932360D03*
X54779157Y-52014803D03*
X45967198Y-49248060D03*
D21*
X71660700Y-46082710D03*
X47618200Y-40446960D03*
X43681200Y-45552360D03*
X51529800Y-50606958D03*
X52606038Y-49287104D03*
D20*
X55720800Y-39634160D03*
X63798000Y-34935160D03*
X32327400Y-32420560D03*
X52114000Y-33436560D03*
X33140200Y-32420560D03*
X33953000Y-32420560D03*
X55176198Y-46734960D03*
D21*
X68184020Y-44426580D03*
X69142870Y-37286490D03*
D20*
X43427216Y-37932360D03*
D21*
X53307800Y-49971950D03*
X54146000Y-41335960D03*
X53536400Y-43571160D03*
X46754610Y-38059360D03*
X43046200Y-46492160D03*
X60013400Y-42093170D03*
X54654000Y-48625760D03*
X59276800Y-39507160D03*
X53028400Y-47990760D03*
X42766800Y-38846760D03*
X42208008Y-48508535D03*
X42868400Y-40421560D03*
X42538200Y-47406562D03*
D22*
X62350200Y-47381160D02*
X62324800Y-47406560D01*
X62350200Y-46734960D02*
X62350200Y-47381160D01*
X61853400Y-39532560D02*
X61904200Y-39583360D01*
X60724600Y-39532560D02*
X61853400Y-39532560D01*
X53901000Y-52994560D02*
X53901000Y-52833160D01*
D23*
X62350200Y-45272960D02*
X62350200Y-46734960D01*
X61816800Y-44739560D02*
X62350200Y-45272960D01*
X62350200Y-47863760D02*
X61893000Y-48320960D01*
X62350200Y-46734960D02*
X62350200Y-47863760D01*
X63631400Y-51673760D02*
X63620200Y-51684960D01*
X64153600Y-51673760D02*
X63631400Y-51673760D01*
X57270200Y-51684960D02*
X58540200Y-51684960D01*
D24*
X33192400Y-51760160D02*
X34196800Y-51760160D01*
X34851000Y-51105960D02*
X35858000Y-51105960D01*
X34196800Y-51760160D02*
X34851000Y-51105960D01*
X38474200Y-53155960D02*
X39862200Y-53155960D01*
X39862200Y-53155960D02*
X41293600Y-53155960D01*
X38000600Y-53155960D02*
X38474200Y-53155960D01*
X35858000Y-51105960D02*
X35950600Y-51105960D01*
X35950600Y-51105960D02*
X38000600Y-53155960D01*
D23*
X43109700Y-51153060D02*
X44201900Y-51153060D01*
X42716000Y-51546760D02*
X43109700Y-51153060D01*
X42716000Y-52533560D02*
X42716000Y-51546760D01*
X41293600Y-53155960D02*
X42093600Y-53155960D01*
X42093600Y-53155960D02*
X42716000Y-52533560D01*
D25*
X38795400Y-47381160D02*
X38820800Y-47355760D01*
X38677400Y-47990760D02*
X38795400Y-48108760D01*
X36857600Y-47990760D02*
X37890000Y-47990760D01*
X38795400Y-49286160D02*
X38795400Y-48108760D01*
X38795400Y-48108760D02*
X38795400Y-47381160D01*
X37890000Y-47990760D02*
X38677400Y-47990760D01*
D23*
X52368000Y-45323760D02*
X52368000Y-44510960D01*
X51749400Y-43892360D02*
X46246600Y-43892360D01*
X52368000Y-44510960D02*
X51749400Y-43892360D01*
X52368000Y-46203760D02*
X52308200Y-46263560D01*
X52368000Y-45323760D02*
X52368000Y-46203760D01*
D22*
X71205600Y-43866760D02*
X72002200Y-43866760D01*
X70554400Y-43215560D02*
X71205600Y-43866760D01*
X70554400Y-42504360D02*
X70554400Y-43215560D01*
X69411400Y-42360960D02*
X70411000Y-42360960D01*
X70411000Y-42360960D02*
X70554400Y-42504360D01*
D23*
X67743979Y-35722539D02*
X68039800Y-35722539D01*
X67109000Y-35087560D02*
X67743979Y-35722539D01*
D25*
X54180400Y-34452560D02*
X54142300Y-34414460D01*
X54180400Y-35408758D02*
X54180400Y-34452560D01*
D23*
X49509000Y-37932360D02*
X48151602Y-37932360D01*
X53926400Y-52867560D02*
X54779157Y-52014803D01*
X44201900Y-49248060D02*
X45967198Y-49248060D01*
D22*
X49483600Y-41716960D02*
X49509000Y-41742360D01*
X47338800Y-41716960D02*
X49483600Y-41716960D01*
X46759390Y-41137550D02*
X47338800Y-41716960D01*
X40353800Y-39456360D02*
X42034990Y-41137550D01*
X42034990Y-41137550D02*
X46759390Y-41137550D01*
X55187411Y-32649171D02*
X56852600Y-34314360D01*
X56852600Y-34314360D02*
X56852600Y-35773360D01*
X39540989Y-32649171D02*
X55187411Y-32649171D01*
X37813800Y-34376360D02*
X39540989Y-32649171D01*
X43484000Y-34122360D02*
X44559000Y-34122360D01*
X42995400Y-34122360D02*
X43484000Y-34122360D01*
X41471400Y-35646360D02*
X42995400Y-34122360D01*
X37813800Y-36916360D02*
X39083800Y-35646360D01*
X39083800Y-35646360D02*
X41471400Y-35646360D01*
X59746700Y-35773360D02*
X61802600Y-35773360D01*
X56063700Y-32090360D02*
X59746700Y-35773360D01*
X38017000Y-32090360D02*
X56063700Y-32090360D01*
X36391400Y-33715960D02*
X38017000Y-32090360D01*
X37813800Y-39456360D02*
X36391400Y-38033960D01*
X36391400Y-38033960D02*
X36391400Y-33715960D01*
X60267400Y-43393360D02*
X61904200Y-43393360D01*
X59632402Y-44028358D02*
X60267400Y-43393360D01*
X39096500Y-43279060D02*
X43795500Y-43279060D01*
X37813800Y-41996360D02*
X39096500Y-43279060D01*
X43795500Y-43279060D02*
X44214600Y-42859960D01*
X44214600Y-42859960D02*
X53790404Y-42859960D01*
X53790404Y-42859960D02*
X54958802Y-44028358D01*
X54958802Y-44028358D02*
X59632402Y-44028358D01*
X42065050Y-41742360D02*
X43484000Y-41742360D01*
X41076075Y-40753385D02*
X42065050Y-41742360D01*
X37100975Y-40753385D02*
X41076075Y-40753385D01*
X39731500Y-44536360D02*
X38486900Y-43291760D01*
X40353800Y-44536360D02*
X39731500Y-44536360D01*
X43484000Y-41742360D02*
X44559000Y-41742360D01*
X38486900Y-43291760D02*
X37102600Y-43291760D01*
X37102600Y-43291760D02*
X36442200Y-42631360D01*
X36442200Y-42631360D02*
X36442200Y-41412160D01*
X36442200Y-41412160D02*
X37100975Y-40753385D01*
X55777600Y-43393360D02*
X56852600Y-43393360D01*
X55765799Y-43381559D02*
X55777600Y-43393360D01*
X41555881Y-41996360D02*
X42013070Y-42453549D01*
X55879200Y-43393360D02*
X56954200Y-43393360D01*
X42013070Y-42453549D02*
X53958744Y-42453549D01*
X40353800Y-41996360D02*
X41555881Y-41996360D01*
X53958744Y-42453549D02*
X54898555Y-43393360D01*
X54898555Y-43393360D02*
X55879200Y-43393360D01*
X46907000Y-34122360D02*
X49509000Y-34122360D01*
X46302190Y-34727170D02*
X46907000Y-34122360D01*
X43270140Y-34727170D02*
X46302190Y-34727170D01*
X40353800Y-36916360D02*
X41080950Y-36916360D01*
X41080950Y-36916360D02*
X43270140Y-34727170D01*
D24*
X38474200Y-51105960D02*
X41293600Y-51105960D01*
D25*
X33192400Y-48383560D02*
X32469400Y-47660560D01*
X33192400Y-49860160D02*
X33192400Y-48383560D01*
D23*
X41293600Y-51105960D02*
X41881500Y-50518060D01*
X42627100Y-50518060D02*
X42627100Y-50060860D01*
X42627100Y-50518060D02*
X44201900Y-50518060D01*
X41881500Y-50518060D02*
X42627100Y-50518060D01*
X42804900Y-49883060D02*
X44201900Y-49883060D01*
X42627100Y-50060860D02*
X42804900Y-49883060D01*
D24*
X36762200Y-49860160D02*
X33192400Y-49860160D01*
X38474200Y-51105960D02*
X38008000Y-51105960D01*
X38008000Y-51105960D02*
X36762200Y-49860160D01*
D22*
X71091400Y-41990960D02*
X69411400Y-40310960D01*
X71752200Y-42616760D02*
X72002200Y-42616760D01*
X71126400Y-41990960D02*
X71752200Y-42616760D01*
X71091400Y-41990960D02*
X71126400Y-41990960D01*
X51148800Y-40859818D02*
X51148800Y-39767160D01*
X67252400Y-44460160D02*
X65245800Y-44460160D01*
X54808116Y-42728170D02*
X54127084Y-42047138D01*
X68141400Y-41631310D02*
X68141400Y-43571160D01*
X54127084Y-42047138D02*
X52336120Y-42047138D01*
X68788028Y-40984682D02*
X68141400Y-41631310D01*
X68788028Y-40934332D02*
X68788028Y-40984682D01*
X50584000Y-39202360D02*
X49509000Y-39202360D01*
X52336120Y-42047138D02*
X51148800Y-40859818D01*
X69411400Y-40310960D02*
X68788028Y-40934332D01*
X63513810Y-42728170D02*
X54808116Y-42728170D01*
X68141400Y-43571160D02*
X67252400Y-44460160D01*
X51148800Y-39767160D02*
X50584000Y-39202360D01*
X65245800Y-44460160D02*
X63513810Y-42728170D01*
X62877600Y-38313360D02*
X61802600Y-38313360D01*
X62877600Y-40853360D02*
X61802600Y-40853360D01*
X63925000Y-39520958D02*
X63930801Y-39526759D01*
X63925000Y-38872160D02*
X63925000Y-39520958D01*
X61904200Y-38313360D02*
X63366200Y-38313360D01*
X63366200Y-38313360D02*
X63925000Y-38872160D01*
X63391600Y-40853360D02*
X61904200Y-40853360D01*
X63930801Y-39526759D02*
X63930801Y-40314159D01*
X63930801Y-40314159D02*
X63391600Y-40853360D01*
X67998000Y-52638960D02*
X69284400Y-51352560D01*
X69284400Y-51352560D02*
X69284400Y-50022760D01*
X69284400Y-50022760D02*
X71660700Y-47646460D01*
X71660700Y-46549683D02*
X71660700Y-46082710D01*
X71660700Y-47646460D02*
X71660700Y-46549683D01*
X64090100Y-39367460D02*
X63930801Y-39526759D01*
X67747700Y-39367460D02*
X64090100Y-39367460D01*
X68598600Y-38516560D02*
X67747700Y-39367460D01*
X70798800Y-38516560D02*
X68598600Y-38516560D01*
X72002200Y-38866760D02*
X71149000Y-38866760D01*
X71149000Y-38866760D02*
X70798800Y-38516560D01*
X50584000Y-36662360D02*
X49509000Y-36662360D01*
X49585200Y-36586160D02*
X49509000Y-36662360D01*
X52063200Y-36586160D02*
X49585200Y-36586160D01*
X67998000Y-50606960D02*
X68125000Y-50733960D01*
X73338018Y-39492142D02*
X73348400Y-39481760D01*
X73348400Y-39481760D02*
X74923200Y-39481760D01*
X73338018Y-39568342D02*
X73338018Y-39492142D01*
X73246800Y-40116760D02*
X73338018Y-40207978D01*
X72002200Y-40116760D02*
X73246800Y-40116760D01*
X73338018Y-40207978D02*
X73338018Y-39568342D01*
X67998000Y-50606960D02*
X71011611Y-47593349D01*
X73551611Y-44577700D02*
X73551611Y-40421571D01*
X73551611Y-40421571D02*
X73338018Y-40207978D01*
X72881740Y-45247571D02*
X73551611Y-44577700D01*
X71306939Y-45247571D02*
X72881740Y-45247571D01*
X71011611Y-45542899D02*
X71306939Y-45247571D01*
X71011611Y-47593349D02*
X71011611Y-45542899D01*
X73338018Y-37261578D02*
X73338018Y-39568342D01*
X72738800Y-36662360D02*
X73338018Y-37261578D01*
X71316400Y-36662360D02*
X72738800Y-36662360D01*
X54323800Y-36586160D02*
X54471410Y-36438550D01*
X63853590Y-36438550D02*
X64229800Y-36814760D01*
X64229800Y-36814760D02*
X67773100Y-36814760D01*
X52063200Y-36586160D02*
X54323800Y-36586160D01*
X54471410Y-36438550D02*
X63853590Y-36438550D01*
X67773100Y-36814760D02*
X68992301Y-38033961D01*
X68992301Y-38033961D02*
X69944799Y-38033961D01*
X69944799Y-38033961D02*
X71316400Y-36662360D01*
X57927600Y-38313360D02*
X56852600Y-38313360D01*
X58540200Y-40853360D02*
X56954200Y-40853360D01*
X71123600Y-40740960D02*
X70996800Y-40614160D01*
X70996800Y-40614160D02*
X70884600Y-40501960D01*
X71752200Y-41366760D02*
X72002200Y-41366760D01*
X71126400Y-40740960D02*
X71752200Y-41366760D01*
X71123600Y-40740960D02*
X71126400Y-40740960D01*
X73145200Y-44409360D02*
X73145200Y-41513760D01*
X72713400Y-44841160D02*
X73145200Y-44409360D01*
X71138600Y-44841160D02*
X72713400Y-44841160D01*
X70605200Y-45374560D02*
X71138600Y-44841160D01*
X70605200Y-47127160D02*
X70605200Y-45374560D01*
X69157400Y-48574960D02*
X70605200Y-47127160D01*
X73145200Y-41513760D02*
X72998200Y-41366760D01*
X67998000Y-48574960D02*
X69157400Y-48574960D01*
X72998200Y-41366760D02*
X72002200Y-41366760D01*
X58235400Y-38313360D02*
X56954200Y-38313360D01*
X58540200Y-40853360D02*
X58540200Y-38618160D01*
X58540200Y-38618160D02*
X58235400Y-38313360D01*
X59962600Y-40853360D02*
X58540200Y-40853360D01*
X68014400Y-41183560D02*
X67280497Y-41917463D01*
X60567410Y-41458170D02*
X59962600Y-40853360D01*
X63437610Y-41458170D02*
X60567410Y-41458170D01*
X70732200Y-40349560D02*
X70732200Y-39684960D01*
X63896903Y-41917463D02*
X63437610Y-41458170D01*
X70996800Y-40614160D02*
X70732200Y-40349560D01*
X67280497Y-41917463D02*
X63896903Y-41917463D01*
X70732200Y-39684960D02*
X70274990Y-39227750D01*
X70274990Y-39227750D02*
X68636710Y-39227750D01*
X68636710Y-39227750D02*
X68014400Y-39850060D01*
X68014400Y-39850060D02*
X68014400Y-41183560D01*
X47643600Y-40472360D02*
X47618200Y-40446960D01*
X49509000Y-40472360D02*
X47643600Y-40472360D01*
X44071200Y-45942360D02*
X43681200Y-45552360D01*
X46246600Y-45942360D02*
X44071200Y-45942360D01*
X47186412Y-51536285D02*
X47186412Y-46882172D01*
X44201900Y-52423060D02*
X46299637Y-52423060D01*
X46869972Y-46565732D02*
X46246600Y-45942360D01*
X47186412Y-46882172D02*
X46869972Y-46565732D01*
X46299637Y-52423060D02*
X47186412Y-51536285D01*
X57273600Y-47813360D02*
X57273600Y-50146360D01*
X57270200Y-47809960D02*
X57273600Y-47813360D01*
X57270200Y-46734960D02*
X57270200Y-47809960D01*
X61080200Y-50403760D02*
X61080200Y-51684960D01*
X57273600Y-50146360D02*
X60822800Y-50146360D01*
X60822800Y-50146360D02*
X61080200Y-50403760D01*
X51009100Y-52423060D02*
X49510500Y-52423060D01*
X51633569Y-51798591D02*
X51009100Y-52423060D01*
X53716369Y-51798591D02*
X51633569Y-51798591D01*
X57273600Y-50146360D02*
X55368600Y-50146360D01*
X55368600Y-50146360D02*
X53716369Y-51798591D01*
X61080200Y-50403760D02*
X61156400Y-50403760D01*
X61156400Y-50403760D02*
X61423100Y-50137060D01*
X61423100Y-50137060D02*
X62147000Y-50137060D01*
X62350200Y-50340260D02*
X62350200Y-51684960D01*
X62147000Y-50137060D02*
X62350200Y-50340260D01*
X50983698Y-51153060D02*
X51199601Y-50937157D01*
X49510500Y-51153060D02*
X50983698Y-51153060D01*
X51199601Y-50937157D02*
X51529800Y-50606958D01*
X52533100Y-49324260D02*
X52568882Y-49324260D01*
X52568882Y-49324260D02*
X52606038Y-49287104D01*
X52139065Y-49287104D02*
X52606038Y-49287104D01*
X51300256Y-49287104D02*
X52139065Y-49287104D01*
X49510500Y-49883060D02*
X50704300Y-49883060D01*
X50704300Y-49883060D02*
X51300256Y-49287104D01*
X56903400Y-39634160D02*
X56954200Y-39583360D01*
X55720800Y-39634160D02*
X56903400Y-39634160D01*
D26*
X64906600Y-34935160D02*
X65059000Y-35087560D01*
X63798000Y-34935160D02*
X64906600Y-34935160D01*
X35058000Y-53155960D02*
X35858000Y-53155960D01*
X31122200Y-53155960D02*
X35058000Y-53155960D01*
X30192400Y-52226160D02*
X31122200Y-53155960D01*
X30192400Y-50810160D02*
X30192400Y-52226160D01*
X30473200Y-47660560D02*
X31169400Y-47660560D01*
X30192400Y-47941360D02*
X30473200Y-47660560D01*
X30192400Y-47941360D02*
X30192400Y-50810160D01*
X30192400Y-47941360D02*
X30192400Y-33209360D01*
X30192400Y-33209360D02*
X31006600Y-32395160D01*
X31032000Y-32420560D02*
X33953000Y-32420560D01*
X31006600Y-32395160D02*
X31032000Y-32420560D01*
D24*
X54804200Y-46734960D02*
X54637600Y-46568360D01*
X56000200Y-46734960D02*
X54804200Y-46734960D01*
D22*
X55238196Y-46796958D02*
X55176198Y-46734960D01*
X55517598Y-46796958D02*
X55238196Y-46796958D01*
D23*
X56000200Y-46734960D02*
X55176198Y-46734960D01*
D22*
X69386000Y-44425760D02*
X68184840Y-44425760D01*
X68184840Y-44425760D02*
X68184020Y-44426580D01*
X66379789Y-36408349D02*
X68264729Y-36408349D01*
X68264729Y-36408349D02*
X68812671Y-36956291D01*
X68812671Y-36956291D02*
X69142870Y-37286490D01*
X65059000Y-35087560D02*
X66379789Y-36408349D01*
D25*
X52114000Y-34392760D02*
X52092300Y-34414460D01*
X52114000Y-33436560D02*
X52114000Y-34392760D01*
D23*
X44559000Y-37932360D02*
X43427216Y-37932360D01*
D22*
X51250410Y-49971950D02*
X52840827Y-49971950D01*
X52840827Y-49971950D02*
X53307800Y-49971950D01*
X50704300Y-50518060D02*
X51250410Y-49971950D01*
X49510500Y-50518060D02*
X50704300Y-50518060D01*
D23*
X51480800Y-53146960D02*
X51252200Y-53375560D01*
X52155800Y-53146960D02*
X51480800Y-53146960D01*
X51252200Y-53375560D02*
X48202400Y-53375560D01*
X48202400Y-53375560D02*
X47694400Y-52867560D01*
X47694400Y-52867560D02*
X47694400Y-52105560D01*
X48011900Y-51788060D02*
X49510500Y-51788060D01*
X47694400Y-52105560D02*
X48011900Y-51788060D01*
D22*
X58921200Y-45247560D02*
X56889200Y-45247560D01*
X59480000Y-48219360D02*
X59205390Y-47944750D01*
X60670800Y-48219360D02*
X59480000Y-48219360D01*
X56889200Y-45247560D02*
X56665390Y-45471370D01*
X56665390Y-45471370D02*
X56665390Y-48189170D01*
X56665390Y-48189170D02*
X53462380Y-51392180D01*
X51465229Y-51392180D02*
X51069349Y-51788060D01*
X53462380Y-51392180D02*
X51465229Y-51392180D01*
X59205390Y-47944750D02*
X59205390Y-45531750D01*
X51069349Y-51788060D02*
X50513700Y-51788060D01*
X50513700Y-51788060D02*
X49510500Y-51788060D01*
X61080200Y-46734960D02*
X61080200Y-47809960D01*
X61080200Y-47809960D02*
X60670800Y-48219360D01*
X59205390Y-45531750D02*
X58921200Y-45247560D01*
X52087000Y-38659960D02*
X52063200Y-38636160D01*
X54171400Y-38659960D02*
X52087000Y-38659960D01*
X45634000Y-36662360D02*
X44559000Y-36662360D01*
X46119600Y-37147960D02*
X45634000Y-36662360D01*
X46119600Y-39176960D02*
X46145000Y-39202360D01*
X46119600Y-37147960D02*
X46119600Y-39176960D01*
X46145000Y-39202360D02*
X44559000Y-39202360D01*
X51224590Y-38597550D02*
X51263200Y-38636160D01*
X46145000Y-39202360D02*
X47313400Y-39202360D01*
X51263200Y-38636160D02*
X52063200Y-38636160D01*
X48514096Y-38597550D02*
X51224590Y-38597550D01*
X48493485Y-38618161D02*
X48514096Y-38597550D01*
X47897599Y-38618161D02*
X48493485Y-38618161D01*
X47313400Y-39202360D02*
X47897599Y-38618161D01*
X68486198Y-46475760D02*
X69386000Y-46475760D01*
X66617400Y-45730160D02*
X67363000Y-46475760D01*
X67363000Y-46475760D02*
X68486198Y-46475760D01*
X59403800Y-49184560D02*
X58540200Y-48320960D01*
X58540200Y-48320960D02*
X58540200Y-46734960D01*
X62299400Y-49184560D02*
X59403800Y-49184560D01*
X64636200Y-45730160D02*
X64153600Y-45247560D01*
X66617400Y-45730160D02*
X64636200Y-45730160D01*
X64153600Y-45247560D02*
X63213800Y-45247560D01*
X63213800Y-45247560D02*
X62955010Y-45506350D01*
X62955010Y-45506350D02*
X62955010Y-48528950D01*
X62955010Y-48528950D02*
X62299400Y-49184560D01*
X54146000Y-40735360D02*
X54171400Y-40709960D01*
X54146000Y-41335960D02*
X54146000Y-40735360D01*
X53866599Y-43901359D02*
X53536400Y-43571160D01*
X54552393Y-44587153D02*
X53866599Y-43901359D01*
X59327593Y-44587153D02*
X54552393Y-44587153D01*
X59810200Y-46734960D02*
X59810200Y-45069760D01*
X59810200Y-45069760D02*
X59327593Y-44587153D01*
X46754610Y-37592387D02*
X46754610Y-38059360D01*
X46754610Y-36255950D02*
X46754610Y-37592387D01*
X49509000Y-35392360D02*
X47618200Y-35392360D01*
X47618200Y-35392360D02*
X46754610Y-36255950D01*
X36636399Y-46161961D02*
X42716001Y-46161961D01*
X34807600Y-47990760D02*
X36636399Y-46161961D01*
X42716001Y-46161961D02*
X43046200Y-46492160D01*
X43513173Y-46492160D02*
X43046200Y-46492160D01*
X44468600Y-46492160D02*
X43513173Y-46492160D01*
X46780001Y-48803561D02*
X44468600Y-46492160D01*
X46780001Y-51266345D02*
X46780001Y-48803561D01*
X44201900Y-51788060D02*
X46258286Y-51788060D01*
X46258286Y-51788060D02*
X46780001Y-51266345D01*
X60013400Y-42123360D02*
X60013400Y-42093170D01*
X60013400Y-42123360D02*
X61904200Y-42123360D01*
X56954200Y-42123360D02*
X60013400Y-42123360D01*
X49523200Y-48625760D02*
X49510500Y-48613060D01*
X54654000Y-48625760D02*
X49523200Y-48625760D01*
X48329400Y-46642760D02*
X48329400Y-45967760D01*
X48329400Y-48435160D02*
X48329400Y-46642760D01*
X48507300Y-48613060D02*
X48329400Y-48435160D01*
X49510500Y-48613060D02*
X48507300Y-48613060D01*
X59302200Y-39481760D02*
X59276800Y-39507160D01*
X59302200Y-37043360D02*
X59302200Y-39481760D01*
X59302200Y-37043360D02*
X61904200Y-37043360D01*
X56954200Y-37043360D02*
X59302200Y-37043360D01*
X49523200Y-47990760D02*
X49510500Y-47978060D01*
X53028400Y-47990760D02*
X49523200Y-47990760D01*
X50386800Y-46693560D02*
X50386800Y-45951360D01*
X49510500Y-47978060D02*
X49510500Y-47569860D01*
X49510500Y-47569860D02*
X50386800Y-46693560D01*
X44559000Y-35392360D02*
X43515550Y-35392360D01*
X44201900Y-48613060D02*
X42312533Y-48613060D01*
X42312533Y-48613060D02*
X42208008Y-48508535D01*
X42220706Y-48495837D02*
X42208008Y-48508535D01*
X41897356Y-49286160D02*
X40845400Y-49286160D01*
X42208008Y-48508535D02*
X42208008Y-48975508D01*
X42208008Y-48975508D02*
X41897356Y-49286160D01*
X43515550Y-35392360D02*
X42246100Y-36661810D01*
X42246100Y-38326060D02*
X42766800Y-38846760D01*
X42246100Y-36661810D02*
X42246100Y-38326060D01*
X44559000Y-40472360D02*
X42919200Y-40472360D01*
X42919200Y-40472360D02*
X42868400Y-40421560D01*
X43109698Y-47978060D02*
X42868399Y-47736761D01*
X42868399Y-47736761D02*
X42538200Y-47406562D01*
X44201900Y-47978060D02*
X43109698Y-47978060D01*
X40921602Y-47406562D02*
X40870800Y-47355760D01*
X42538200Y-47406562D02*
X40921602Y-47406562D01*
X64179000Y-48574960D02*
X65948000Y-48574960D01*
X63620200Y-46734960D02*
X63620200Y-48016160D01*
X63620200Y-48016160D02*
X64179000Y-48574960D01*
X64382200Y-50098960D02*
X64890200Y-50606960D01*
X63417000Y-50098960D02*
X64382200Y-50098960D01*
X59810200Y-52892960D02*
X60013400Y-53096160D01*
X59810200Y-51684960D02*
X59810200Y-52892960D01*
X60013400Y-53096160D02*
X62731200Y-53096160D01*
X64890200Y-50606960D02*
X65948000Y-50606960D01*
X62731200Y-53096160D02*
X62955010Y-52872350D01*
X62955010Y-52872350D02*
X62955010Y-50560950D01*
X62955010Y-50560950D02*
X63417000Y-50098960D01*
X65324628Y-53262332D02*
X65948000Y-52638960D01*
X65084389Y-53502571D02*
X65324628Y-53262332D01*
X56742811Y-53502571D02*
X65084389Y-53502571D01*
X56000200Y-51684960D02*
X56000200Y-52759960D01*
X56000200Y-52759960D02*
X56742811Y-53502571D01*
M02*
