G04 #@! TF.GenerationSoftware,KiCad,Pcbnew,(5.1.4)-1*
G04 #@! TF.CreationDate,2019-12-07T15:53:33+00:00*
G04 #@! TF.ProjectId,analog,616e616c-6f67-42e6-9b69-6361645f7063,rev?*
G04 #@! TF.SameCoordinates,Original*
G04 #@! TF.FileFunction,Legend,Bot*
G04 #@! TF.FilePolarity,Positive*
%FSLAX46Y46*%
G04 Gerber Fmt 4.6, Leading zero omitted, Abs format (unit mm)*
G04 Created by KiCad (PCBNEW (5.1.4)-1) date 2019-12-07 15:53:33*
%MOMM*%
%LPD*%
G04 APERTURE LIST*
%ADD10C,0.100000*%
%ADD11C,0.120000*%
%ADD12C,0.150000*%
G04 APERTURE END LIST*
D10*
X70909085Y-37681131D02*
X70337657Y-37681131D01*
X70623371Y-37966845D02*
X70623371Y-37395417D01*
X69623371Y-37216845D02*
X69980514Y-37216845D01*
X70016228Y-37573988D01*
X69980514Y-37538274D01*
X69909085Y-37502560D01*
X69730514Y-37502560D01*
X69659085Y-37538274D01*
X69623371Y-37573988D01*
X69587657Y-37645417D01*
X69587657Y-37823988D01*
X69623371Y-37895417D01*
X69659085Y-37931131D01*
X69730514Y-37966845D01*
X69909085Y-37966845D01*
X69980514Y-37931131D01*
X70016228Y-37895417D01*
X69373371Y-37216845D02*
X69123371Y-37966845D01*
X68873371Y-37216845D01*
D11*
X67530471Y-51946764D02*
X67530471Y-51413431D01*
X67530471Y-51489621D02*
X67492376Y-51451526D01*
X67416185Y-51413431D01*
X67301900Y-51413431D01*
X67225709Y-51451526D01*
X67187614Y-51527717D01*
X67187614Y-51946764D01*
X67187614Y-51527717D02*
X67149519Y-51451526D01*
X67073328Y-51413431D01*
X66959042Y-51413431D01*
X66882852Y-51451526D01*
X66844757Y-51527717D01*
X66844757Y-51946764D01*
X66349519Y-51946764D02*
X66425709Y-51908669D01*
X66463804Y-51870574D01*
X66501900Y-51794383D01*
X66501900Y-51565812D01*
X66463804Y-51489621D01*
X66425709Y-51451526D01*
X66349519Y-51413431D01*
X66235233Y-51413431D01*
X66159042Y-51451526D01*
X66120947Y-51489621D01*
X66082852Y-51565812D01*
X66082852Y-51794383D01*
X66120947Y-51870574D01*
X66159042Y-51908669D01*
X66235233Y-51946764D01*
X66349519Y-51946764D01*
X65739995Y-51413431D02*
X65739995Y-51946764D01*
X65739995Y-51489621D02*
X65701900Y-51451526D01*
X65625709Y-51413431D01*
X65511423Y-51413431D01*
X65435233Y-51451526D01*
X65397138Y-51527717D01*
X65397138Y-51946764D01*
X64901900Y-51946764D02*
X64978090Y-51908669D01*
X65016185Y-51870574D01*
X65054280Y-51794383D01*
X65054280Y-51565812D01*
X65016185Y-51489621D01*
X64978090Y-51451526D01*
X64901900Y-51413431D01*
X64787614Y-51413431D01*
X64711423Y-51451526D01*
X64673328Y-51489621D01*
X64635233Y-51565812D01*
X64635233Y-51794383D01*
X64673328Y-51870574D01*
X64711423Y-51908669D01*
X64787614Y-51946764D01*
X64901900Y-51946764D01*
X63949519Y-51908669D02*
X64025709Y-51946764D01*
X64178090Y-51946764D01*
X64254280Y-51908669D01*
X64292376Y-51870574D01*
X64330471Y-51794383D01*
X64330471Y-51565812D01*
X64292376Y-51489621D01*
X64254280Y-51451526D01*
X64178090Y-51413431D01*
X64025709Y-51413431D01*
X63949519Y-51451526D01*
X63606661Y-51946764D02*
X63606661Y-51146764D01*
X63263804Y-51946764D02*
X63263804Y-51527717D01*
X63301900Y-51451526D01*
X63378090Y-51413431D01*
X63492376Y-51413431D01*
X63568566Y-51451526D01*
X63606661Y-51489621D01*
X62882852Y-51946764D02*
X62882852Y-51413431D01*
X62882852Y-51565812D02*
X62844757Y-51489621D01*
X62806661Y-51451526D01*
X62730471Y-51413431D01*
X62654280Y-51413431D01*
X62273328Y-51946764D02*
X62349519Y-51908669D01*
X62387614Y-51870574D01*
X62425709Y-51794383D01*
X62425709Y-51565812D01*
X62387614Y-51489621D01*
X62349519Y-51451526D01*
X62273328Y-51413431D01*
X62159042Y-51413431D01*
X62082852Y-51451526D01*
X62044757Y-51489621D01*
X62006661Y-51565812D01*
X62006661Y-51794383D01*
X62044757Y-51870574D01*
X62082852Y-51908669D01*
X62159042Y-51946764D01*
X62273328Y-51946764D01*
X61663804Y-51946764D02*
X61663804Y-51413431D01*
X61663804Y-51489621D02*
X61625709Y-51451526D01*
X61549519Y-51413431D01*
X61435233Y-51413431D01*
X61359042Y-51451526D01*
X61320947Y-51527717D01*
X61320947Y-51946764D01*
X61320947Y-51527717D02*
X61282852Y-51451526D01*
X61206661Y-51413431D01*
X61092376Y-51413431D01*
X61016185Y-51451526D01*
X60978090Y-51527717D01*
X60978090Y-51946764D01*
X60292376Y-51908669D02*
X60368566Y-51946764D01*
X60520947Y-51946764D01*
X60597138Y-51908669D01*
X60635233Y-51832479D01*
X60635233Y-51527717D01*
X60597138Y-51451526D01*
X60520947Y-51413431D01*
X60368566Y-51413431D01*
X60292376Y-51451526D01*
X60254280Y-51527717D01*
X60254280Y-51603907D01*
X60635233Y-51680098D01*
X59301900Y-51946764D02*
X59301900Y-51413431D01*
X59301900Y-51146764D02*
X59339995Y-51184860D01*
X59301900Y-51222955D01*
X59263804Y-51184860D01*
X59301900Y-51146764D01*
X59301900Y-51222955D01*
X58920947Y-51413431D02*
X58920947Y-51946764D01*
X58920947Y-51489621D02*
X58882852Y-51451526D01*
X58806661Y-51413431D01*
X58692376Y-51413431D01*
X58616185Y-51451526D01*
X58578090Y-51527717D01*
X58578090Y-51946764D01*
X58311423Y-51413431D02*
X58006661Y-51413431D01*
X58197138Y-51146764D02*
X58197138Y-51832479D01*
X58159042Y-51908669D01*
X58082852Y-51946764D01*
X58006661Y-51946764D01*
X57435233Y-51908669D02*
X57511423Y-51946764D01*
X57663804Y-51946764D01*
X57739995Y-51908669D01*
X57778090Y-51832479D01*
X57778090Y-51527717D01*
X57739995Y-51451526D01*
X57663804Y-51413431D01*
X57511423Y-51413431D01*
X57435233Y-51451526D01*
X57397138Y-51527717D01*
X57397138Y-51603907D01*
X57778090Y-51680098D01*
X57054280Y-51946764D02*
X57054280Y-51413431D01*
X57054280Y-51565812D02*
X57016185Y-51489621D01*
X56978090Y-51451526D01*
X56901900Y-51413431D01*
X56825709Y-51413431D01*
X56673328Y-51413431D02*
X56368566Y-51413431D01*
X56559042Y-51946764D02*
X56559042Y-51261050D01*
X56520947Y-51184860D01*
X56444757Y-51146764D01*
X56368566Y-51146764D01*
X55759042Y-51946764D02*
X55759042Y-51527717D01*
X55797138Y-51451526D01*
X55873328Y-51413431D01*
X56025709Y-51413431D01*
X56101900Y-51451526D01*
X55759042Y-51908669D02*
X55835233Y-51946764D01*
X56025709Y-51946764D01*
X56101900Y-51908669D01*
X56139995Y-51832479D01*
X56139995Y-51756288D01*
X56101900Y-51680098D01*
X56025709Y-51642002D01*
X55835233Y-51642002D01*
X55759042Y-51603907D01*
X55035233Y-51908669D02*
X55111423Y-51946764D01*
X55263804Y-51946764D01*
X55339995Y-51908669D01*
X55378090Y-51870574D01*
X55416185Y-51794383D01*
X55416185Y-51565812D01*
X55378090Y-51489621D01*
X55339995Y-51451526D01*
X55263804Y-51413431D01*
X55111423Y-51413431D01*
X55035233Y-51451526D01*
X54387614Y-51908669D02*
X54463804Y-51946764D01*
X54616185Y-51946764D01*
X54692376Y-51908669D01*
X54730471Y-51832479D01*
X54730471Y-51527717D01*
X54692376Y-51451526D01*
X54616185Y-51413431D01*
X54463804Y-51413431D01*
X54387614Y-51451526D01*
X54349519Y-51527717D01*
X54349519Y-51603907D01*
X54730471Y-51680098D01*
X53511423Y-51413431D02*
X53206661Y-51413431D01*
X53397138Y-51946764D02*
X53397138Y-51261050D01*
X53359042Y-51184860D01*
X53282852Y-51146764D01*
X53206661Y-51146764D01*
X52825709Y-51946764D02*
X52901900Y-51908669D01*
X52939995Y-51870574D01*
X52978090Y-51794383D01*
X52978090Y-51565812D01*
X52939995Y-51489621D01*
X52901900Y-51451526D01*
X52825709Y-51413431D01*
X52711423Y-51413431D01*
X52635233Y-51451526D01*
X52597138Y-51489621D01*
X52559042Y-51565812D01*
X52559042Y-51794383D01*
X52597138Y-51870574D01*
X52635233Y-51908669D01*
X52711423Y-51946764D01*
X52825709Y-51946764D01*
X52216185Y-51946764D02*
X52216185Y-51413431D01*
X52216185Y-51565812D02*
X52178090Y-51489621D01*
X52139995Y-51451526D01*
X52063804Y-51413431D01*
X51987614Y-51413431D01*
X50654280Y-51946764D02*
X50920947Y-51565812D01*
X51111423Y-51946764D02*
X51111423Y-51146764D01*
X50806661Y-51146764D01*
X50730471Y-51184860D01*
X50692376Y-51222955D01*
X50654280Y-51299145D01*
X50654280Y-51413431D01*
X50692376Y-51489621D01*
X50730471Y-51527717D01*
X50806661Y-51565812D01*
X51111423Y-51565812D01*
X49892376Y-51184860D02*
X49968566Y-51146764D01*
X50082852Y-51146764D01*
X50197138Y-51184860D01*
X50273328Y-51261050D01*
X50311423Y-51337240D01*
X50349519Y-51489621D01*
X50349519Y-51603907D01*
X50311423Y-51756288D01*
X50273328Y-51832479D01*
X50197138Y-51908669D01*
X50082852Y-51946764D01*
X50006661Y-51946764D01*
X49892376Y-51908669D01*
X49854280Y-51870574D01*
X49854280Y-51603907D01*
X50006661Y-51603907D01*
X49244757Y-51527717D02*
X49130471Y-51565812D01*
X49092376Y-51603907D01*
X49054280Y-51680098D01*
X49054280Y-51794383D01*
X49092376Y-51870574D01*
X49130471Y-51908669D01*
X49206661Y-51946764D01*
X49511423Y-51946764D01*
X49511423Y-51146764D01*
X49244757Y-51146764D01*
X49168566Y-51184860D01*
X49130471Y-51222955D01*
X49092376Y-51299145D01*
X49092376Y-51375336D01*
X49130471Y-51451526D01*
X49168566Y-51489621D01*
X49244757Y-51527717D01*
X49511423Y-51527717D01*
X48825709Y-51413431D02*
X48520947Y-51413431D01*
X48711423Y-51146764D02*
X48711423Y-51832479D01*
X48673328Y-51908669D01*
X48597138Y-51946764D01*
X48520947Y-51946764D01*
X48139995Y-51946764D02*
X48216185Y-51908669D01*
X48254280Y-51870574D01*
X48292376Y-51794383D01*
X48292376Y-51565812D01*
X48254280Y-51489621D01*
X48216185Y-51451526D01*
X48139995Y-51413431D01*
X48025709Y-51413431D01*
X47949519Y-51451526D01*
X47911423Y-51489621D01*
X47873328Y-51565812D01*
X47873328Y-51794383D01*
X47911423Y-51870574D01*
X47949519Y-51908669D01*
X48025709Y-51946764D01*
X48139995Y-51946764D01*
X47530471Y-51946764D02*
X47530471Y-51146764D01*
X47530471Y-51527717D02*
X47073328Y-51527717D01*
X47073328Y-51946764D02*
X47073328Y-51146764D01*
X46692376Y-51946764D02*
X46692376Y-51146764D01*
X46501900Y-51146764D01*
X46387614Y-51184860D01*
X46311423Y-51261050D01*
X46273328Y-51337240D01*
X46235233Y-51489621D01*
X46235233Y-51603907D01*
X46273328Y-51756288D01*
X46311423Y-51832479D01*
X46387614Y-51908669D01*
X46501900Y-51946764D01*
X46692376Y-51946764D01*
X69441557Y-49571964D02*
X68984414Y-49571964D01*
X69212985Y-50371964D02*
X69212985Y-49571964D01*
X68717747Y-50371964D02*
X68717747Y-49571964D01*
X68374890Y-50371964D02*
X68374890Y-49952917D01*
X68412985Y-49876726D01*
X68489176Y-49838631D01*
X68603461Y-49838631D01*
X68679652Y-49876726D01*
X68717747Y-49914821D01*
X67993938Y-50371964D02*
X67993938Y-49838631D01*
X67993938Y-49991012D02*
X67955842Y-49914821D01*
X67917747Y-49876726D01*
X67841557Y-49838631D01*
X67765366Y-49838631D01*
X67193938Y-50333869D02*
X67270128Y-50371964D01*
X67422509Y-50371964D01*
X67498700Y-50333869D01*
X67536795Y-50257679D01*
X67536795Y-49952917D01*
X67498700Y-49876726D01*
X67422509Y-49838631D01*
X67270128Y-49838631D01*
X67193938Y-49876726D01*
X67155842Y-49952917D01*
X67155842Y-50029107D01*
X67536795Y-50105298D01*
X66508223Y-50333869D02*
X66584414Y-50371964D01*
X66736795Y-50371964D01*
X66812985Y-50333869D01*
X66851080Y-50257679D01*
X66851080Y-49952917D01*
X66812985Y-49876726D01*
X66736795Y-49838631D01*
X66584414Y-49838631D01*
X66508223Y-49876726D01*
X66470128Y-49952917D01*
X66470128Y-50029107D01*
X66851080Y-50105298D01*
X65403461Y-50371964D02*
X65479652Y-50333869D01*
X65517747Y-50257679D01*
X65517747Y-49571964D01*
X64793938Y-50333869D02*
X64870128Y-50371964D01*
X65022509Y-50371964D01*
X65098700Y-50333869D01*
X65136795Y-50257679D01*
X65136795Y-49952917D01*
X65098700Y-49876726D01*
X65022509Y-49838631D01*
X64870128Y-49838631D01*
X64793938Y-49876726D01*
X64755842Y-49952917D01*
X64755842Y-50029107D01*
X65136795Y-50105298D01*
X64489176Y-49838631D02*
X64298700Y-50371964D01*
X64108223Y-49838631D01*
X63498700Y-50333869D02*
X63574890Y-50371964D01*
X63727271Y-50371964D01*
X63803461Y-50333869D01*
X63841557Y-50257679D01*
X63841557Y-49952917D01*
X63803461Y-49876726D01*
X63727271Y-49838631D01*
X63574890Y-49838631D01*
X63498700Y-49876726D01*
X63460604Y-49952917D01*
X63460604Y-50029107D01*
X63841557Y-50105298D01*
X63003461Y-50371964D02*
X63079652Y-50333869D01*
X63117747Y-50257679D01*
X63117747Y-49571964D01*
X61746319Y-50371964D02*
X61746319Y-49952917D01*
X61784414Y-49876726D01*
X61860604Y-49838631D01*
X62012985Y-49838631D01*
X62089176Y-49876726D01*
X61746319Y-50333869D02*
X61822509Y-50371964D01*
X62012985Y-50371964D01*
X62089176Y-50333869D01*
X62127271Y-50257679D01*
X62127271Y-50181488D01*
X62089176Y-50105298D01*
X62012985Y-50067202D01*
X61822509Y-50067202D01*
X61746319Y-50029107D01*
X61365366Y-49838631D02*
X61365366Y-50371964D01*
X61365366Y-49914821D02*
X61327271Y-49876726D01*
X61251080Y-49838631D01*
X61136795Y-49838631D01*
X61060604Y-49876726D01*
X61022509Y-49952917D01*
X61022509Y-50371964D01*
X60298700Y-50371964D02*
X60298700Y-49952917D01*
X60336795Y-49876726D01*
X60412985Y-49838631D01*
X60565366Y-49838631D01*
X60641557Y-49876726D01*
X60298700Y-50333869D02*
X60374890Y-50371964D01*
X60565366Y-50371964D01*
X60641557Y-50333869D01*
X60679652Y-50257679D01*
X60679652Y-50181488D01*
X60641557Y-50105298D01*
X60565366Y-50067202D01*
X60374890Y-50067202D01*
X60298700Y-50029107D01*
X59803461Y-50371964D02*
X59879652Y-50333869D01*
X59917747Y-50257679D01*
X59917747Y-49571964D01*
X59384414Y-50371964D02*
X59460604Y-50333869D01*
X59498700Y-50295774D01*
X59536795Y-50219583D01*
X59536795Y-49991012D01*
X59498700Y-49914821D01*
X59460604Y-49876726D01*
X59384414Y-49838631D01*
X59270128Y-49838631D01*
X59193938Y-49876726D01*
X59155842Y-49914821D01*
X59117747Y-49991012D01*
X59117747Y-50219583D01*
X59155842Y-50295774D01*
X59193938Y-50333869D01*
X59270128Y-50371964D01*
X59384414Y-50371964D01*
X58432033Y-49838631D02*
X58432033Y-50486250D01*
X58470128Y-50562440D01*
X58508223Y-50600536D01*
X58584414Y-50638631D01*
X58698700Y-50638631D01*
X58774890Y-50600536D01*
X58432033Y-50333869D02*
X58508223Y-50371964D01*
X58660604Y-50371964D01*
X58736795Y-50333869D01*
X58774890Y-50295774D01*
X58812985Y-50219583D01*
X58812985Y-49991012D01*
X58774890Y-49914821D01*
X58736795Y-49876726D01*
X58660604Y-49838631D01*
X58508223Y-49838631D01*
X58432033Y-49876726D01*
X56984414Y-50371964D02*
X57251080Y-49991012D01*
X57441557Y-50371964D02*
X57441557Y-49571964D01*
X57136795Y-49571964D01*
X57060604Y-49610060D01*
X57022509Y-49648155D01*
X56984414Y-49724345D01*
X56984414Y-49838631D01*
X57022509Y-49914821D01*
X57060604Y-49952917D01*
X57136795Y-49991012D01*
X57441557Y-49991012D01*
X56222509Y-49610060D02*
X56298700Y-49571964D01*
X56412985Y-49571964D01*
X56527271Y-49610060D01*
X56603461Y-49686250D01*
X56641557Y-49762440D01*
X56679652Y-49914821D01*
X56679652Y-50029107D01*
X56641557Y-50181488D01*
X56603461Y-50257679D01*
X56527271Y-50333869D01*
X56412985Y-50371964D01*
X56336795Y-50371964D01*
X56222509Y-50333869D01*
X56184414Y-50295774D01*
X56184414Y-50029107D01*
X56336795Y-50029107D01*
X55574890Y-49952917D02*
X55460604Y-49991012D01*
X55422509Y-50029107D01*
X55384414Y-50105298D01*
X55384414Y-50219583D01*
X55422509Y-50295774D01*
X55460604Y-50333869D01*
X55536795Y-50371964D01*
X55841557Y-50371964D01*
X55841557Y-49571964D01*
X55574890Y-49571964D01*
X55498700Y-49610060D01*
X55460604Y-49648155D01*
X55422509Y-49724345D01*
X55422509Y-49800536D01*
X55460604Y-49876726D01*
X55498700Y-49914821D01*
X55574890Y-49952917D01*
X55841557Y-49952917D01*
X54470128Y-49533869D02*
X55155842Y-50562440D01*
X54051080Y-49991012D02*
X54051080Y-50371964D01*
X54317747Y-49571964D02*
X54051080Y-49991012D01*
X53784414Y-49571964D01*
X53517747Y-49571964D02*
X53517747Y-50219583D01*
X53479652Y-50295774D01*
X53441557Y-50333869D01*
X53365366Y-50371964D01*
X53212985Y-50371964D01*
X53136795Y-50333869D01*
X53098700Y-50295774D01*
X53060604Y-50219583D01*
X53060604Y-49571964D01*
X52793938Y-49571964D02*
X52527271Y-50371964D01*
X52260604Y-49571964D01*
X50736795Y-50371964D02*
X50774890Y-50371964D01*
X50851080Y-50333869D01*
X50965366Y-50219583D01*
X51155842Y-49991012D01*
X51232033Y-49876726D01*
X51270128Y-49762440D01*
X51270128Y-49686250D01*
X51232033Y-49610060D01*
X51155842Y-49571964D01*
X51117747Y-49571964D01*
X51041557Y-49610060D01*
X51003461Y-49686250D01*
X51003461Y-49724345D01*
X51041557Y-49800536D01*
X51079652Y-49838631D01*
X51308223Y-49991012D01*
X51346319Y-50029107D01*
X51384414Y-50105298D01*
X51384414Y-50219583D01*
X51346319Y-50295774D01*
X51308223Y-50333869D01*
X51232033Y-50371964D01*
X51117747Y-50371964D01*
X51041557Y-50333869D01*
X51003461Y-50295774D01*
X50889176Y-50143393D01*
X50851080Y-50029107D01*
X50851080Y-49952917D01*
X49441557Y-50333869D02*
X49517747Y-50371964D01*
X49670128Y-50371964D01*
X49746319Y-50333869D01*
X49784414Y-50295774D01*
X49822509Y-50219583D01*
X49822509Y-49991012D01*
X49784414Y-49914821D01*
X49746319Y-49876726D01*
X49670128Y-49838631D01*
X49517747Y-49838631D01*
X49441557Y-49876726D01*
X48984414Y-50371964D02*
X49060604Y-50333869D01*
X49098700Y-50295774D01*
X49136795Y-50219583D01*
X49136795Y-49991012D01*
X49098700Y-49914821D01*
X49060604Y-49876726D01*
X48984414Y-49838631D01*
X48870128Y-49838631D01*
X48793938Y-49876726D01*
X48755842Y-49914821D01*
X48717747Y-49991012D01*
X48717747Y-50219583D01*
X48755842Y-50295774D01*
X48793938Y-50333869D01*
X48870128Y-50371964D01*
X48984414Y-50371964D01*
X48374890Y-50371964D02*
X48374890Y-49838631D01*
X48374890Y-49914821D02*
X48336795Y-49876726D01*
X48260604Y-49838631D01*
X48146319Y-49838631D01*
X48070128Y-49876726D01*
X48032033Y-49952917D01*
X48032033Y-50371964D01*
X48032033Y-49952917D02*
X47993938Y-49876726D01*
X47917747Y-49838631D01*
X47803461Y-49838631D01*
X47727271Y-49876726D01*
X47689176Y-49952917D01*
X47689176Y-50371964D01*
X47308223Y-49838631D02*
X47308223Y-50638631D01*
X47308223Y-49876726D02*
X47232033Y-49838631D01*
X47079652Y-49838631D01*
X47003461Y-49876726D01*
X46965366Y-49914821D01*
X46927271Y-49991012D01*
X46927271Y-50219583D01*
X46965366Y-50295774D01*
X47003461Y-50333869D01*
X47079652Y-50371964D01*
X47232033Y-50371964D01*
X47308223Y-50333869D01*
X46470128Y-50371964D02*
X46546319Y-50333869D01*
X46584414Y-50295774D01*
X46622509Y-50219583D01*
X46622509Y-49991012D01*
X46584414Y-49914821D01*
X46546319Y-49876726D01*
X46470128Y-49838631D01*
X46355842Y-49838631D01*
X46279652Y-49876726D01*
X46241557Y-49914821D01*
X46203461Y-49991012D01*
X46203461Y-50219583D01*
X46241557Y-50295774D01*
X46279652Y-50333869D01*
X46355842Y-50371964D01*
X46470128Y-50371964D01*
X45898700Y-50333869D02*
X45822509Y-50371964D01*
X45670128Y-50371964D01*
X45593938Y-50333869D01*
X45555842Y-50257679D01*
X45555842Y-50219583D01*
X45593938Y-50143393D01*
X45670128Y-50105298D01*
X45784414Y-50105298D01*
X45860604Y-50067202D01*
X45898700Y-49991012D01*
X45898700Y-49952917D01*
X45860604Y-49876726D01*
X45784414Y-49838631D01*
X45670128Y-49838631D01*
X45593938Y-49876726D01*
X45212985Y-50371964D02*
X45212985Y-49838631D01*
X45212985Y-49571964D02*
X45251080Y-49610060D01*
X45212985Y-49648155D01*
X45174890Y-49610060D01*
X45212985Y-49571964D01*
X45212985Y-49648155D01*
X44946319Y-49838631D02*
X44641557Y-49838631D01*
X44832033Y-49571964D02*
X44832033Y-50257679D01*
X44793938Y-50333869D01*
X44717747Y-50371964D01*
X44641557Y-50371964D01*
X44070128Y-50333869D02*
X44146319Y-50371964D01*
X44298700Y-50371964D01*
X44374890Y-50333869D01*
X44412985Y-50257679D01*
X44412985Y-49952917D01*
X44374890Y-49876726D01*
X44298700Y-49838631D01*
X44146319Y-49838631D01*
X44070128Y-49876726D01*
X44032033Y-49952917D01*
X44032033Y-50029107D01*
X44412985Y-50105298D01*
D12*
X65063085Y-46233340D02*
X65063085Y-45233340D01*
X64682133Y-45233340D01*
X64586895Y-45280960D01*
X64539276Y-45328579D01*
X64491657Y-45423817D01*
X64491657Y-45566674D01*
X64539276Y-45661912D01*
X64586895Y-45709531D01*
X64682133Y-45757150D01*
X65063085Y-45757150D01*
X63539276Y-46233340D02*
X64110704Y-46233340D01*
X63824990Y-46233340D02*
X63824990Y-45233340D01*
X63920228Y-45376198D01*
X64015466Y-45471436D01*
X64110704Y-45519055D01*
X63063085Y-46233340D02*
X62872609Y-46233340D01*
X62777371Y-46185721D01*
X62729752Y-46138102D01*
X62634514Y-45995245D01*
X62586895Y-45804769D01*
X62586895Y-45423817D01*
X62634514Y-45328579D01*
X62682133Y-45280960D01*
X62777371Y-45233340D01*
X62967847Y-45233340D01*
X63063085Y-45280960D01*
X63110704Y-45328579D01*
X63158323Y-45423817D01*
X63158323Y-45661912D01*
X63110704Y-45757150D01*
X63063085Y-45804769D01*
X62967847Y-45852388D01*
X62777371Y-45852388D01*
X62682133Y-45804769D01*
X62634514Y-45757150D01*
X62586895Y-45661912D01*
D11*
X69727285Y-53597764D02*
X69727285Y-52797764D01*
X69460619Y-53369193D01*
X69193952Y-52797764D01*
X69193952Y-53597764D01*
X68851095Y-53369193D02*
X68470142Y-53369193D01*
X68927285Y-53597764D02*
X68660619Y-52797764D01*
X68393952Y-53597764D01*
X68203476Y-52797764D02*
X67670142Y-53597764D01*
X67670142Y-52797764D02*
X68203476Y-53597764D01*
X67327285Y-53597764D02*
X67174904Y-53597764D01*
X67098714Y-53559669D01*
X67060619Y-53521574D01*
X66984428Y-53407288D01*
X66946333Y-53254907D01*
X66946333Y-52950145D01*
X66984428Y-52873955D01*
X67022523Y-52835860D01*
X67098714Y-52797764D01*
X67251095Y-52797764D01*
X67327285Y-52835860D01*
X67365380Y-52873955D01*
X67403476Y-52950145D01*
X67403476Y-53140621D01*
X67365380Y-53216812D01*
X67327285Y-53254907D01*
X67251095Y-53293002D01*
X67098714Y-53293002D01*
X67022523Y-53254907D01*
X66984428Y-53216812D01*
X66946333Y-53140621D01*
X66184428Y-53597764D02*
X66641571Y-53597764D01*
X66413000Y-53597764D02*
X66413000Y-52797764D01*
X66489190Y-52912050D01*
X66565380Y-52988240D01*
X66641571Y-53026336D01*
X65689190Y-52797764D02*
X65613000Y-52797764D01*
X65536809Y-52835860D01*
X65498714Y-52873955D01*
X65460619Y-52950145D01*
X65422523Y-53102526D01*
X65422523Y-53293002D01*
X65460619Y-53445383D01*
X65498714Y-53521574D01*
X65536809Y-53559669D01*
X65613000Y-53597764D01*
X65689190Y-53597764D01*
X65765380Y-53559669D01*
X65803476Y-53521574D01*
X65841571Y-53445383D01*
X65879666Y-53293002D01*
X65879666Y-53102526D01*
X65841571Y-52950145D01*
X65803476Y-52873955D01*
X65765380Y-52835860D01*
X65689190Y-52797764D01*
X64965380Y-53140621D02*
X65041571Y-53102526D01*
X65079666Y-53064431D01*
X65117761Y-52988240D01*
X65117761Y-52950145D01*
X65079666Y-52873955D01*
X65041571Y-52835860D01*
X64965380Y-52797764D01*
X64813000Y-52797764D01*
X64736809Y-52835860D01*
X64698714Y-52873955D01*
X64660619Y-52950145D01*
X64660619Y-52988240D01*
X64698714Y-53064431D01*
X64736809Y-53102526D01*
X64813000Y-53140621D01*
X64965380Y-53140621D01*
X65041571Y-53178717D01*
X65079666Y-53216812D01*
X65117761Y-53293002D01*
X65117761Y-53445383D01*
X65079666Y-53521574D01*
X65041571Y-53559669D01*
X64965380Y-53597764D01*
X64813000Y-53597764D01*
X64736809Y-53559669D01*
X64698714Y-53521574D01*
X64660619Y-53445383D01*
X64660619Y-53293002D01*
X64698714Y-53216812D01*
X64736809Y-53178717D01*
X64813000Y-53140621D01*
X63136809Y-52759669D02*
X63822523Y-53788240D01*
X62260619Y-53597764D02*
X62260619Y-52797764D01*
X61993952Y-53369193D01*
X61727285Y-52797764D01*
X61727285Y-53597764D01*
X61384428Y-53369193D02*
X61003476Y-53369193D01*
X61460619Y-53597764D02*
X61193952Y-52797764D01*
X60927285Y-53597764D01*
X60736809Y-52797764D02*
X60203476Y-53597764D01*
X60203476Y-52797764D02*
X60736809Y-53597764D01*
X59860619Y-53597764D02*
X59708238Y-53597764D01*
X59632047Y-53559669D01*
X59593952Y-53521574D01*
X59517761Y-53407288D01*
X59479666Y-53254907D01*
X59479666Y-52950145D01*
X59517761Y-52873955D01*
X59555857Y-52835860D01*
X59632047Y-52797764D01*
X59784428Y-52797764D01*
X59860619Y-52835860D01*
X59898714Y-52873955D01*
X59936809Y-52950145D01*
X59936809Y-53140621D01*
X59898714Y-53216812D01*
X59860619Y-53254907D01*
X59784428Y-53293002D01*
X59632047Y-53293002D01*
X59555857Y-53254907D01*
X59517761Y-53216812D01*
X59479666Y-53140621D01*
X58717761Y-53597764D02*
X59174904Y-53597764D01*
X58946333Y-53597764D02*
X58946333Y-52797764D01*
X59022523Y-52912050D01*
X59098714Y-52988240D01*
X59174904Y-53026336D01*
X58032047Y-53064431D02*
X58032047Y-53597764D01*
X58222523Y-52759669D02*
X58413000Y-53331098D01*
X57917761Y-53331098D01*
X57270142Y-53064431D02*
X57270142Y-53597764D01*
X57460619Y-52759669D02*
X57651095Y-53331098D01*
X57155857Y-53331098D01*
X56241571Y-53597764D02*
X56241571Y-52797764D01*
X55898714Y-53559669D02*
X55822523Y-53597764D01*
X55670142Y-53597764D01*
X55593952Y-53559669D01*
X55555857Y-53483479D01*
X55555857Y-53445383D01*
X55593952Y-53369193D01*
X55670142Y-53331098D01*
X55784428Y-53331098D01*
X55860619Y-53293002D01*
X55898714Y-53216812D01*
X55898714Y-53178717D01*
X55860619Y-53102526D01*
X55784428Y-53064431D01*
X55670142Y-53064431D01*
X55593952Y-53102526D01*
X55251095Y-53559669D02*
X55174904Y-53597764D01*
X55022523Y-53597764D01*
X54946333Y-53559669D01*
X54908238Y-53483479D01*
X54908238Y-53445383D01*
X54946333Y-53369193D01*
X55022523Y-53331098D01*
X55136809Y-53331098D01*
X55213000Y-53293002D01*
X55251095Y-53216812D01*
X55251095Y-53178717D01*
X55213000Y-53102526D01*
X55136809Y-53064431D01*
X55022523Y-53064431D01*
X54946333Y-53102526D01*
X54222523Y-53064431D02*
X54222523Y-53597764D01*
X54565380Y-53064431D02*
X54565380Y-53483479D01*
X54527285Y-53559669D01*
X54451095Y-53597764D01*
X54336809Y-53597764D01*
X54260619Y-53559669D01*
X54222523Y-53521574D01*
X53536809Y-53559669D02*
X53613000Y-53597764D01*
X53765380Y-53597764D01*
X53841571Y-53559669D01*
X53879666Y-53483479D01*
X53879666Y-53178717D01*
X53841571Y-53102526D01*
X53765380Y-53064431D01*
X53613000Y-53064431D01*
X53536809Y-53102526D01*
X53498714Y-53178717D01*
X53498714Y-53254907D01*
X53879666Y-53331098D01*
X52584428Y-52873955D02*
X52546333Y-52835860D01*
X52470142Y-52797764D01*
X52279666Y-52797764D01*
X52203476Y-52835860D01*
X52165380Y-52873955D01*
X52127285Y-52950145D01*
X52127285Y-53026336D01*
X52165380Y-53140621D01*
X52622523Y-53597764D01*
X52127285Y-53597764D01*
X50527285Y-52988240D02*
X50603476Y-52950145D01*
X50755857Y-52950145D01*
X50832047Y-52988240D01*
X50908238Y-53064431D01*
X50946333Y-53140621D01*
X50946333Y-53293002D01*
X50908238Y-53369193D01*
X50832047Y-53445383D01*
X50755857Y-53483479D01*
X50603476Y-53483479D01*
X50527285Y-53445383D01*
X50679666Y-52683479D02*
X50870142Y-52721574D01*
X51060619Y-52835860D01*
X51174904Y-53026336D01*
X51213000Y-53216812D01*
X51174904Y-53407288D01*
X51060619Y-53597764D01*
X50870142Y-53712050D01*
X50679666Y-53750145D01*
X50489190Y-53712050D01*
X50298714Y-53597764D01*
X50184428Y-53407288D01*
X50146333Y-53216812D01*
X50184428Y-53026336D01*
X50298714Y-52835860D01*
X50489190Y-52721574D01*
X50679666Y-52683479D01*
X49841571Y-52873955D02*
X49803476Y-52835860D01*
X49727285Y-52797764D01*
X49536809Y-52797764D01*
X49460619Y-52835860D01*
X49422523Y-52873955D01*
X49384428Y-52950145D01*
X49384428Y-53026336D01*
X49422523Y-53140621D01*
X49879666Y-53597764D01*
X49384428Y-53597764D01*
X48889190Y-52797764D02*
X48813000Y-52797764D01*
X48736809Y-52835860D01*
X48698714Y-52873955D01*
X48660619Y-52950145D01*
X48622523Y-53102526D01*
X48622523Y-53293002D01*
X48660619Y-53445383D01*
X48698714Y-53521574D01*
X48736809Y-53559669D01*
X48813000Y-53597764D01*
X48889190Y-53597764D01*
X48965380Y-53559669D01*
X49003476Y-53521574D01*
X49041571Y-53445383D01*
X49079666Y-53293002D01*
X49079666Y-53102526D01*
X49041571Y-52950145D01*
X49003476Y-52873955D01*
X48965380Y-52835860D01*
X48889190Y-52797764D01*
X47860619Y-53597764D02*
X48317761Y-53597764D01*
X48089190Y-53597764D02*
X48089190Y-52797764D01*
X48165380Y-52912050D01*
X48241571Y-52988240D01*
X48317761Y-53026336D01*
X47479666Y-53597764D02*
X47327285Y-53597764D01*
X47251095Y-53559669D01*
X47213000Y-53521574D01*
X47136809Y-53407288D01*
X47098714Y-53254907D01*
X47098714Y-52950145D01*
X47136809Y-52873955D01*
X47174904Y-52835860D01*
X47251095Y-52797764D01*
X47403476Y-52797764D01*
X47479666Y-52835860D01*
X47517761Y-52873955D01*
X47555857Y-52950145D01*
X47555857Y-53140621D01*
X47517761Y-53216812D01*
X47479666Y-53254907D01*
X47403476Y-53293002D01*
X47251095Y-53293002D01*
X47174904Y-53254907D01*
X47136809Y-53216812D01*
X47098714Y-53140621D01*
X46146333Y-53597764D02*
X46146333Y-52797764D01*
X45422523Y-53597764D02*
X45422523Y-53178717D01*
X45460619Y-53102526D01*
X45536809Y-53064431D01*
X45689190Y-53064431D01*
X45765380Y-53102526D01*
X45422523Y-53559669D02*
X45498714Y-53597764D01*
X45689190Y-53597764D01*
X45765380Y-53559669D01*
X45803476Y-53483479D01*
X45803476Y-53407288D01*
X45765380Y-53331098D01*
X45689190Y-53293002D01*
X45498714Y-53293002D01*
X45422523Y-53254907D01*
X45041571Y-53064431D02*
X45041571Y-53597764D01*
X45041571Y-53140621D02*
X45003476Y-53102526D01*
X44927285Y-53064431D01*
X44813000Y-53064431D01*
X44736809Y-53102526D01*
X44698714Y-53178717D01*
X44698714Y-53597764D01*
X44051095Y-53178717D02*
X43936809Y-53216812D01*
X43898714Y-53254907D01*
X43860619Y-53331098D01*
X43860619Y-53445383D01*
X43898714Y-53521574D01*
X43936809Y-53559669D01*
X44013000Y-53597764D01*
X44317761Y-53597764D01*
X44317761Y-52797764D01*
X44051095Y-52797764D01*
X43974904Y-52835860D01*
X43936809Y-52873955D01*
X43898714Y-52950145D01*
X43898714Y-53026336D01*
X43936809Y-53102526D01*
X43974904Y-53140621D01*
X44051095Y-53178717D01*
X44317761Y-53178717D01*
D10*
X70426942Y-43551760D02*
X70498371Y-43516045D01*
X70605514Y-43516045D01*
X70712657Y-43551760D01*
X70784085Y-43623188D01*
X70819800Y-43694617D01*
X70855514Y-43837474D01*
X70855514Y-43944617D01*
X70819800Y-44087474D01*
X70784085Y-44158902D01*
X70712657Y-44230331D01*
X70605514Y-44266045D01*
X70534085Y-44266045D01*
X70426942Y-44230331D01*
X70391228Y-44194617D01*
X70391228Y-43944617D01*
X70534085Y-43944617D01*
X70069800Y-43766045D02*
X70069800Y-44266045D01*
X70069800Y-43837474D02*
X70034085Y-43801760D01*
X69962657Y-43766045D01*
X69855514Y-43766045D01*
X69784085Y-43801760D01*
X69748371Y-43873188D01*
X69748371Y-44266045D01*
X69069800Y-44266045D02*
X69069800Y-43516045D01*
X69069800Y-44230331D02*
X69141228Y-44266045D01*
X69284085Y-44266045D01*
X69355514Y-44230331D01*
X69391228Y-44194617D01*
X69426942Y-44123188D01*
X69426942Y-43908902D01*
X69391228Y-43837474D01*
X69355514Y-43801760D01*
X69284085Y-43766045D01*
X69141228Y-43766045D01*
X69069800Y-43801760D01*
X70851514Y-42909531D02*
X70744371Y-42945245D01*
X70565800Y-42945245D01*
X70494371Y-42909531D01*
X70458657Y-42873817D01*
X70422942Y-42802388D01*
X70422942Y-42730960D01*
X70458657Y-42659531D01*
X70494371Y-42623817D01*
X70565800Y-42588102D01*
X70708657Y-42552388D01*
X70780085Y-42516674D01*
X70815800Y-42480960D01*
X70851514Y-42409531D01*
X70851514Y-42338102D01*
X70815800Y-42266674D01*
X70780085Y-42230960D01*
X70708657Y-42195245D01*
X70530085Y-42195245D01*
X70422942Y-42230960D01*
X70172942Y-42445245D02*
X69994371Y-42945245D01*
X69815800Y-42445245D02*
X69994371Y-42945245D01*
X70065800Y-43123817D01*
X70101514Y-43159531D01*
X70172942Y-43195245D01*
X69530085Y-42445245D02*
X69530085Y-42945245D01*
X69530085Y-42516674D02*
X69494371Y-42480960D01*
X69422942Y-42445245D01*
X69315800Y-42445245D01*
X69244371Y-42480960D01*
X69208657Y-42552388D01*
X69208657Y-42945245D01*
X68530085Y-42909531D02*
X68601514Y-42945245D01*
X68744371Y-42945245D01*
X68815800Y-42909531D01*
X68851514Y-42873817D01*
X68887228Y-42802388D01*
X68887228Y-42588102D01*
X68851514Y-42516674D01*
X68815800Y-42480960D01*
X68744371Y-42445245D01*
X68601514Y-42445245D01*
X68530085Y-42480960D01*
X70398771Y-39236845D02*
X70648771Y-38879702D01*
X70827342Y-39236845D02*
X70827342Y-38486845D01*
X70541628Y-38486845D01*
X70470200Y-38522560D01*
X70434485Y-38558274D01*
X70398771Y-38629702D01*
X70398771Y-38736845D01*
X70434485Y-38808274D01*
X70470200Y-38843988D01*
X70541628Y-38879702D01*
X70827342Y-38879702D01*
X69791628Y-39201131D02*
X69863057Y-39236845D01*
X70005914Y-39236845D01*
X70077342Y-39201131D01*
X70113057Y-39129702D01*
X70113057Y-38843988D01*
X70077342Y-38772560D01*
X70005914Y-38736845D01*
X69863057Y-38736845D01*
X69791628Y-38772560D01*
X69755914Y-38843988D01*
X69755914Y-38915417D01*
X70113057Y-38986845D01*
X69113057Y-39236845D02*
X69113057Y-38486845D01*
X69113057Y-39201131D02*
X69184485Y-39236845D01*
X69327342Y-39236845D01*
X69398771Y-39201131D01*
X69434485Y-39165417D01*
X69470200Y-39093988D01*
X69470200Y-38879702D01*
X69434485Y-38808274D01*
X69398771Y-38772560D01*
X69327342Y-38736845D01*
X69184485Y-38736845D01*
X69113057Y-38772560D01*
X70454657Y-39767160D02*
X70526085Y-39731445D01*
X70633228Y-39731445D01*
X70740371Y-39767160D01*
X70811800Y-39838588D01*
X70847514Y-39910017D01*
X70883228Y-40052874D01*
X70883228Y-40160017D01*
X70847514Y-40302874D01*
X70811800Y-40374302D01*
X70740371Y-40445731D01*
X70633228Y-40481445D01*
X70561800Y-40481445D01*
X70454657Y-40445731D01*
X70418942Y-40410017D01*
X70418942Y-40160017D01*
X70561800Y-40160017D01*
X70097514Y-40481445D02*
X70097514Y-39981445D01*
X70097514Y-40124302D02*
X70061800Y-40052874D01*
X70026085Y-40017160D01*
X69954657Y-39981445D01*
X69883228Y-39981445D01*
X69347514Y-40445731D02*
X69418942Y-40481445D01*
X69561800Y-40481445D01*
X69633228Y-40445731D01*
X69668942Y-40374302D01*
X69668942Y-40088588D01*
X69633228Y-40017160D01*
X69561800Y-39981445D01*
X69418942Y-39981445D01*
X69347514Y-40017160D01*
X69311800Y-40088588D01*
X69311800Y-40160017D01*
X69668942Y-40231445D01*
X68704657Y-40445731D02*
X68776085Y-40481445D01*
X68918942Y-40481445D01*
X68990371Y-40445731D01*
X69026085Y-40374302D01*
X69026085Y-40088588D01*
X68990371Y-40017160D01*
X68918942Y-39981445D01*
X68776085Y-39981445D01*
X68704657Y-40017160D01*
X68668942Y-40088588D01*
X68668942Y-40160017D01*
X69026085Y-40231445D01*
X68347514Y-39981445D02*
X68347514Y-40481445D01*
X68347514Y-40052874D02*
X68311800Y-40017160D01*
X68240371Y-39981445D01*
X68133228Y-39981445D01*
X68061800Y-40017160D01*
X68026085Y-40088588D01*
X68026085Y-40481445D01*
X70621371Y-41307788D02*
X70514228Y-41343502D01*
X70478514Y-41379217D01*
X70442800Y-41450645D01*
X70442800Y-41557788D01*
X70478514Y-41629217D01*
X70514228Y-41664931D01*
X70585657Y-41700645D01*
X70871371Y-41700645D01*
X70871371Y-40950645D01*
X70621371Y-40950645D01*
X70549942Y-40986360D01*
X70514228Y-41022074D01*
X70478514Y-41093502D01*
X70478514Y-41164931D01*
X70514228Y-41236360D01*
X70549942Y-41272074D01*
X70621371Y-41307788D01*
X70871371Y-41307788D01*
X70014228Y-41700645D02*
X70085657Y-41664931D01*
X70121371Y-41593502D01*
X70121371Y-40950645D01*
X69407085Y-41200645D02*
X69407085Y-41700645D01*
X69728514Y-41200645D02*
X69728514Y-41593502D01*
X69692800Y-41664931D01*
X69621371Y-41700645D01*
X69514228Y-41700645D01*
X69442800Y-41664931D01*
X69407085Y-41629217D01*
X68764228Y-41664931D02*
X68835657Y-41700645D01*
X68978514Y-41700645D01*
X69049942Y-41664931D01*
X69085657Y-41593502D01*
X69085657Y-41307788D01*
X69049942Y-41236360D01*
X68978514Y-41200645D01*
X68835657Y-41200645D01*
X68764228Y-41236360D01*
X68728514Y-41307788D01*
X68728514Y-41379217D01*
X69085657Y-41450645D01*
D12*
X65066266Y-43645721D02*
X64923409Y-43693340D01*
X64685314Y-43693340D01*
X64590076Y-43645721D01*
X64542457Y-43598102D01*
X64494838Y-43502864D01*
X64494838Y-43407626D01*
X64542457Y-43312388D01*
X64590076Y-43264769D01*
X64685314Y-43217150D01*
X64875790Y-43169531D01*
X64971028Y-43121912D01*
X65018647Y-43074293D01*
X65066266Y-42979055D01*
X65066266Y-42883817D01*
X65018647Y-42788579D01*
X64971028Y-42740960D01*
X64875790Y-42693340D01*
X64637695Y-42693340D01*
X64494838Y-42740960D01*
X64209123Y-42693340D02*
X63637695Y-42693340D01*
X63923409Y-43693340D02*
X63923409Y-42693340D01*
X62971028Y-43169531D02*
X62828171Y-43217150D01*
X62780552Y-43264769D01*
X62732933Y-43360007D01*
X62732933Y-43502864D01*
X62780552Y-43598102D01*
X62828171Y-43645721D01*
X62923409Y-43693340D01*
X63304361Y-43693340D01*
X63304361Y-42693340D01*
X62971028Y-42693340D01*
X62875790Y-42740960D01*
X62828171Y-42788579D01*
X62780552Y-42883817D01*
X62780552Y-42979055D01*
X62828171Y-43074293D01*
X62875790Y-43121912D01*
X62971028Y-43169531D01*
X63304361Y-43169531D01*
X64469438Y-41058102D02*
X64517057Y-41105721D01*
X64659914Y-41153340D01*
X64755152Y-41153340D01*
X64898009Y-41105721D01*
X64993247Y-41010483D01*
X65040866Y-40915245D01*
X65088485Y-40724769D01*
X65088485Y-40581912D01*
X65040866Y-40391436D01*
X64993247Y-40296198D01*
X64898009Y-40200960D01*
X64755152Y-40153340D01*
X64659914Y-40153340D01*
X64517057Y-40200960D01*
X64469438Y-40248579D01*
X63564676Y-41153340D02*
X64040866Y-41153340D01*
X64040866Y-40153340D01*
X63231342Y-41153340D02*
X63231342Y-40153340D01*
X62659914Y-41153340D02*
X63088485Y-40581912D01*
X62659914Y-40153340D02*
X63231342Y-40724769D01*
X65072628Y-38638740D02*
X65072628Y-37638740D01*
X64834533Y-37638740D01*
X64691676Y-37686360D01*
X64596438Y-37781598D01*
X64548819Y-37876836D01*
X64501200Y-38067312D01*
X64501200Y-38210169D01*
X64548819Y-38400645D01*
X64596438Y-38495883D01*
X64691676Y-38591121D01*
X64834533Y-38638740D01*
X65072628Y-38638740D01*
X64120247Y-38353026D02*
X63644057Y-38353026D01*
X64215485Y-38638740D02*
X63882152Y-37638740D01*
X63548819Y-38638740D01*
X63358342Y-37638740D02*
X62786914Y-37638740D01*
X63072628Y-38638740D02*
X63072628Y-37638740D01*
D11*
X74710800Y-33859160D02*
X77370800Y-33859160D01*
X74710800Y-33919160D02*
X74710800Y-33859160D01*
X77370800Y-33919160D02*
X77370800Y-33859160D01*
X74710800Y-33919160D02*
X77370800Y-33919160D01*
X74710800Y-35189160D02*
X74710800Y-36519160D01*
X74710800Y-36519160D02*
X76040800Y-36519160D01*
X74710800Y-44984360D02*
X77370800Y-44984360D01*
X74710800Y-45044360D02*
X74710800Y-44984360D01*
X77370800Y-45044360D02*
X77370800Y-44984360D01*
X74710800Y-45044360D02*
X77370800Y-45044360D01*
X74710800Y-46314360D02*
X74710800Y-47644360D01*
X74710800Y-47644360D02*
X76040800Y-47644360D01*
D12*
X74486580Y-34374864D02*
X73486580Y-34374864D01*
X73486580Y-34755817D01*
X73534200Y-34851055D01*
X73581819Y-34898674D01*
X73677057Y-34946293D01*
X73819914Y-34946293D01*
X73915152Y-34898674D01*
X73962771Y-34851055D01*
X74010390Y-34755817D01*
X74010390Y-34374864D01*
X73486580Y-35279626D02*
X73486580Y-35946293D01*
X74486580Y-35517721D01*
X74511980Y-45601664D02*
X73511980Y-45601664D01*
X73511980Y-45982617D01*
X73559600Y-46077855D01*
X73607219Y-46125474D01*
X73702457Y-46173093D01*
X73845314Y-46173093D01*
X73940552Y-46125474D01*
X73988171Y-46077855D01*
X74035790Y-45982617D01*
X74035790Y-45601664D01*
X73511980Y-47030236D02*
X73511980Y-46839760D01*
X73559600Y-46744521D01*
X73607219Y-46696902D01*
X73750076Y-46601664D01*
X73940552Y-46554045D01*
X74321504Y-46554045D01*
X74416742Y-46601664D01*
X74464361Y-46649283D01*
X74511980Y-46744521D01*
X74511980Y-46934998D01*
X74464361Y-47030236D01*
X74416742Y-47077855D01*
X74321504Y-47125474D01*
X74083409Y-47125474D01*
X73988171Y-47077855D01*
X73940552Y-47030236D01*
X73892933Y-46934998D01*
X73892933Y-46744521D01*
X73940552Y-46649283D01*
X73988171Y-46601664D01*
X74083409Y-46554045D01*
M02*
