M48
; DRILL file {KiCad (5.1.4)-1} date 20/11/2019 21:09:24
; FORMAT={-:-/ absolute / inch / decimal}
; #@! TF.CreationDate,2019-11-20T21:09:24+00:00
; #@! TF.GenerationSoftware,Kicad,Pcbnew,(5.1.4)-1
FMAT,2
INCH
T1C0.0120
T2C0.0150
T3C0.0315
T4C0.0354
T5C0.0394
T6C0.0433
T7C0.1083
%
G90
G05
T1
X0.9417Y-1.2824
X0.9977Y-1.3424
X1.0227Y-1.7834
X1.0967Y-1.3814
X1.0987Y-1.2804
X1.1757Y-1.6024
X1.1817Y-1.2874
X1.207Y-1.7107
X1.2077Y-1.8024
X1.2288Y-1.6036
X1.2447Y-1.6844
X1.2548Y-1.2809
X1.2727Y-1.3354
X1.2747Y-1.7094
X1.2757Y-1.4904
X1.3279Y-2.0262
X1.4872Y-1.9828
X1.5046Y-1.2744
X1.5276Y-1.8618
X1.5695Y-1.9024
X1.5717Y-1.0004
X1.5859Y-1.8191
X1.6124Y-1.2687
X1.6431Y-1.2834
X1.7997Y-1.8994
X1.951Y-1.4267
X1.9517Y-1.3924
X1.9517Y-1.5524
X2.0217Y-1.8724
X2.0267Y-1.3674
X2.0967Y-1.9474
X2.1217Y-1.3114
X2.1827Y-1.4974
X2.2377Y-1.7474
X2.2957Y-1.8064
X2.4107Y-1.3754
X2.4457Y-1.6834
X2.4517Y-1.5024
X2.4617Y-1.3294
X2.6157Y-1.4314
X2.6559Y-1.3622
X2.7087Y-1.3634
X2.7717Y-1.3374
X2.8887Y-1.7504
T2
X1.1507Y-2.052
X1.5454Y-1.7166
X1.5457Y-1.4904
X1.7343Y-1.3859
X1.7347Y-1.2424
X1.9027Y-1.2424
X2.0017Y-1.7374
T3
X0.7097Y-1.3524
X0.7097Y-1.4524
X0.7097Y-1.5524
X0.7097Y-1.6524
X0.7097Y-1.7524
X0.5947Y-1.3524
X0.5947Y-1.4524
X0.5947Y-1.5524
X0.5947Y-1.6524
X0.5947Y-1.7524
T4
X2.7267Y-1.9524
X2.7267Y-2.0524
X0.8217Y-1.9524
X0.8217Y-2.0524
T5
X0.8217Y-1.3524
X0.8217Y-1.4524
X0.8217Y-1.5524
X0.8217Y-1.6524
X0.8217Y-1.7524
X0.9217Y-1.3524
X0.9217Y-1.4524
X0.9217Y-1.5524
X0.9217Y-1.6524
X0.9217Y-1.7524
X2.6217Y-1.2524
X2.7217Y-1.2524
X2.5237Y-1.3013
X2.5237Y-1.4013
X2.5237Y-1.5013
X2.5237Y-1.6013
X2.5237Y-1.7013
X2.5237Y-1.8013
X0.8217Y-1.0524
X0.8217Y-1.1524
X0.9217Y-1.0524
X0.9217Y-1.1524
X1.0217Y-1.0524
X1.0217Y-1.1524
X1.1217Y-1.0524
X1.1217Y-1.1524
X1.2217Y-1.0524
X1.2217Y-1.1524
X1.3217Y-1.0524
X1.3217Y-1.1524
X1.4217Y-1.0524
X1.4217Y-1.1524
X1.5217Y-1.0524
X1.5217Y-1.1524
X1.6217Y-1.0524
X1.6217Y-1.1524
X1.7217Y-1.0524
X1.7217Y-1.1524
X1.8217Y-1.0524
X1.8217Y-1.1524
X1.9217Y-1.0524
X1.9217Y-1.1524
X2.0217Y-1.0524
X2.0217Y-1.1524
X2.1217Y-1.0524
X2.1217Y-1.1524
X2.2217Y-1.0524
X2.2217Y-1.1524
X2.3217Y-1.0524
X2.3217Y-1.1524
X2.4217Y-1.0524
X2.4217Y-1.1524
X2.5217Y-1.0524
X2.5217Y-1.1524
X2.6217Y-1.0524
X2.6217Y-1.1524
X2.7217Y-1.0524
X2.7217Y-1.1524
X2.6217Y-1.5014
X2.6217Y-1.6014
X2.6217Y-1.7014
X2.6217Y-1.8014
T6
X1.6458Y-1.9152
X1.6458Y-2.0924
X1.9017Y-1.9152
X1.9017Y-2.0924
X1.0258Y-1.9152
X1.0258Y-2.0924
X1.2817Y-1.9152
X1.2817Y-2.0924
X2.8196Y-1.4524
X2.8196Y-1.7083
X2.9967Y-1.4524
X2.9967Y-1.7083
X2.2658Y-1.9152
X2.2658Y-2.0924
X2.5217Y-1.9152
X2.5217Y-2.0924
T7
X2.9134Y-1.1024
X0.6299Y-2.0079
X0.6299Y-1.1024
X2.9134Y-2.0079
T0
M30
