G04 #@! TF.GenerationSoftware,KiCad,Pcbnew,(5.1.4)-1*
G04 #@! TF.CreationDate,2019-11-20T21:09:20+00:00*
G04 #@! TF.ProjectId,rgb-to-hdmi,7267622d-746f-42d6-9864-6d692e6b6963,rev?*
G04 #@! TF.SameCoordinates,Original*
G04 #@! TF.FileFunction,Legend,Bot*
G04 #@! TF.FilePolarity,Positive*
%FSLAX46Y46*%
G04 Gerber Fmt 4.6, Leading zero omitted, Abs format (unit mm)*
G04 Created by KiCad (PCBNEW (5.1.4)-1) date 2019-11-20 21:09:20*
%MOMM*%
%LPD*%
G04 APERTURE LIST*
%ADD10C,0.150000*%
%ADD11C,0.120000*%
G04 APERTURE END LIST*
D10*
X54439523Y-39645340D02*
X53868095Y-39645340D01*
X54153809Y-40645340D02*
X54153809Y-39645340D01*
X53534761Y-40645340D02*
X53534761Y-39645340D01*
X53296666Y-39645340D01*
X53153809Y-39692960D01*
X53058571Y-39788198D01*
X53010952Y-39883436D01*
X52963333Y-40073912D01*
X52963333Y-40216769D01*
X53010952Y-40407245D01*
X53058571Y-40502483D01*
X53153809Y-40597721D01*
X53296666Y-40645340D01*
X53534761Y-40645340D01*
X52344285Y-39645340D02*
X52153809Y-39645340D01*
X52058571Y-39692960D01*
X51963333Y-39788198D01*
X51915714Y-39978674D01*
X51915714Y-40312007D01*
X51963333Y-40502483D01*
X52058571Y-40597721D01*
X52153809Y-40645340D01*
X52344285Y-40645340D01*
X52439523Y-40597721D01*
X52534761Y-40502483D01*
X52582380Y-40312007D01*
X52582380Y-39978674D01*
X52534761Y-39788198D01*
X52439523Y-39692960D01*
X52344285Y-39645340D01*
X54407809Y-33549340D02*
X53836380Y-33549340D01*
X54122095Y-34549340D02*
X54122095Y-33549340D01*
X53503047Y-34549340D02*
X53503047Y-33549340D01*
X53264952Y-33549340D01*
X53122095Y-33596960D01*
X53026857Y-33692198D01*
X52979238Y-33787436D01*
X52931619Y-33977912D01*
X52931619Y-34120769D01*
X52979238Y-34311245D01*
X53026857Y-34406483D01*
X53122095Y-34501721D01*
X53264952Y-34549340D01*
X53503047Y-34549340D01*
X52503047Y-34549340D02*
X52503047Y-33549340D01*
X54415714Y-36597340D02*
X53844285Y-36597340D01*
X54130000Y-37597340D02*
X54130000Y-36597340D01*
X52939523Y-37502102D02*
X52987142Y-37549721D01*
X53130000Y-37597340D01*
X53225238Y-37597340D01*
X53368095Y-37549721D01*
X53463333Y-37454483D01*
X53510952Y-37359245D01*
X53558571Y-37168769D01*
X53558571Y-37025912D01*
X53510952Y-36835436D01*
X53463333Y-36740198D01*
X53368095Y-36644960D01*
X53225238Y-36597340D01*
X53130000Y-36597340D01*
X52987142Y-36644960D01*
X52939523Y-36692579D01*
X52510952Y-37597340D02*
X52510952Y-36597340D01*
X51939523Y-37597340D02*
X52368095Y-37025912D01*
X51939523Y-36597340D02*
X52510952Y-37168769D01*
X54463333Y-42693340D02*
X53891904Y-42693340D01*
X54177619Y-43693340D02*
X54177619Y-42693340D01*
X53558571Y-43693340D02*
X53558571Y-42693340D01*
X53225238Y-43407626D01*
X52891904Y-42693340D01*
X52891904Y-43693340D01*
X52463333Y-43645721D02*
X52320476Y-43693340D01*
X52082380Y-43693340D01*
X51987142Y-43645721D01*
X51939523Y-43598102D01*
X51891904Y-43502864D01*
X51891904Y-43407626D01*
X51939523Y-43312388D01*
X51987142Y-43264769D01*
X52082380Y-43217150D01*
X52272857Y-43169531D01*
X52368095Y-43121912D01*
X52415714Y-43074293D01*
X52463333Y-42979055D01*
X52463333Y-42883817D01*
X52415714Y-42788579D01*
X52368095Y-42740960D01*
X52272857Y-42693340D01*
X52034761Y-42693340D01*
X51891904Y-42740960D01*
D11*
X19427200Y-43240960D02*
X16627200Y-43240960D01*
X19427200Y-32910960D02*
X19427200Y-45950960D01*
X16627200Y-32910960D02*
X19427200Y-32910960D01*
X16627200Y-45950960D02*
X16627200Y-32910960D01*
X19427200Y-45950960D02*
X16627200Y-45950960D01*
X24852000Y-45840960D02*
X24852000Y-33020960D01*
X24852000Y-33020960D02*
X27512000Y-33020960D01*
X27512000Y-33020960D02*
X27512000Y-45840960D01*
X27512000Y-45840960D02*
X24852000Y-45840960D01*
X27512000Y-44890960D02*
X33512000Y-44890960D01*
X33512000Y-44890960D02*
X33512000Y-44130960D01*
X33512000Y-44130960D02*
X27512000Y-44130960D01*
X27512000Y-44830960D02*
X33512000Y-44830960D01*
X27512000Y-44710960D02*
X33512000Y-44710960D01*
X27512000Y-44590960D02*
X33512000Y-44590960D01*
X27512000Y-44470960D02*
X33512000Y-44470960D01*
X27512000Y-44350960D02*
X33512000Y-44350960D01*
X27512000Y-44230960D02*
X33512000Y-44230960D01*
X24454929Y-44890960D02*
X24852000Y-44890960D01*
X24454929Y-44130960D02*
X24852000Y-44130960D01*
X21982000Y-44890960D02*
X22369071Y-44890960D01*
X21982000Y-44130960D02*
X22369071Y-44130960D01*
X24852000Y-43240960D02*
X27512000Y-43240960D01*
X27512000Y-42350960D02*
X33512000Y-42350960D01*
X33512000Y-42350960D02*
X33512000Y-41590960D01*
X33512000Y-41590960D02*
X27512000Y-41590960D01*
X24454929Y-42350960D02*
X24852000Y-42350960D01*
X24454929Y-41590960D02*
X24852000Y-41590960D01*
X21914929Y-42350960D02*
X22369071Y-42350960D01*
X21914929Y-41590960D02*
X22369071Y-41590960D01*
X24852000Y-40700960D02*
X27512000Y-40700960D01*
X27512000Y-39810960D02*
X33512000Y-39810960D01*
X33512000Y-39810960D02*
X33512000Y-39050960D01*
X33512000Y-39050960D02*
X27512000Y-39050960D01*
X24454929Y-39810960D02*
X24852000Y-39810960D01*
X24454929Y-39050960D02*
X24852000Y-39050960D01*
X21914929Y-39810960D02*
X22369071Y-39810960D01*
X21914929Y-39050960D02*
X22369071Y-39050960D01*
X24852000Y-38160960D02*
X27512000Y-38160960D01*
X27512000Y-37270960D02*
X33512000Y-37270960D01*
X33512000Y-37270960D02*
X33512000Y-36510960D01*
X33512000Y-36510960D02*
X27512000Y-36510960D01*
X24454929Y-37270960D02*
X24852000Y-37270960D01*
X24454929Y-36510960D02*
X24852000Y-36510960D01*
X21914929Y-37270960D02*
X22369071Y-37270960D01*
X21914929Y-36510960D02*
X22369071Y-36510960D01*
X24852000Y-35620960D02*
X27512000Y-35620960D01*
X27512000Y-34730960D02*
X33512000Y-34730960D01*
X33512000Y-34730960D02*
X33512000Y-33970960D01*
X33512000Y-33970960D02*
X27512000Y-33970960D01*
X24454929Y-34730960D02*
X24852000Y-34730960D01*
X24454929Y-33970960D02*
X24852000Y-33970960D01*
X21914929Y-34730960D02*
X22369071Y-34730960D01*
X21914929Y-33970960D02*
X22369071Y-33970960D01*
X19602000Y-44510960D02*
X19602000Y-45780960D01*
X19602000Y-45780960D02*
X20872000Y-45780960D01*
X71071800Y-47141360D02*
X71071800Y-45741360D01*
X70371800Y-45041360D02*
X69771800Y-45041360D01*
X69071800Y-45741360D02*
X69071800Y-47141360D01*
X69771800Y-47841360D02*
X70371800Y-47841360D01*
X70371800Y-47841360D02*
G75*
G03X71071800Y-47141360I0J700000D01*
G01*
X69071800Y-47141360D02*
G75*
G03X69771800Y-47841360I700000J0D01*
G01*
X69771800Y-45041360D02*
G75*
G03X69071800Y-45741360I0J-700000D01*
G01*
X71071800Y-45741360D02*
G75*
G03X70371800Y-45041360I-700000J0D01*
G01*
X67922000Y-39405560D02*
X65262000Y-39405560D01*
X67922000Y-39405560D02*
X67922000Y-47085560D01*
X67922000Y-47085560D02*
X65262000Y-47085560D01*
X65262000Y-39405560D02*
X65262000Y-47085560D01*
X65262000Y-36805560D02*
X65262000Y-38135560D01*
X66592000Y-36805560D02*
X65262000Y-36805560D01*
X19542000Y-29270960D02*
X19542000Y-30600960D01*
X19542000Y-30600960D02*
X20872000Y-30600960D01*
X19542000Y-28000960D02*
X22142000Y-28000960D01*
X22142000Y-28000960D02*
X22142000Y-30600960D01*
X22142000Y-30600960D02*
X70462000Y-30600960D01*
X70462000Y-25400960D02*
X70462000Y-30600960D01*
X19542000Y-25400960D02*
X70462000Y-25400960D01*
X19542000Y-25400960D02*
X19542000Y-28000960D01*
X59926000Y-38144960D02*
G75*
G03X60626000Y-37444960I0J700000D01*
G01*
X60626000Y-36844960D02*
G75*
G03X59926000Y-36144960I-700000J0D01*
G01*
X58526000Y-36144960D02*
G75*
G03X57826000Y-36844960I0J-700000D01*
G01*
X57826000Y-37444960D02*
G75*
G03X58526000Y-38144960I700000J0D01*
G01*
X57826000Y-36844960D02*
X57826000Y-37444960D01*
X59926000Y-36144960D02*
X58526000Y-36144960D01*
X60626000Y-37444960D02*
X60626000Y-36844960D01*
X58526000Y-38144960D02*
X59926000Y-38144960D01*
X58526000Y-35096960D02*
X59926000Y-35096960D01*
X60626000Y-34396960D02*
X60626000Y-33796960D01*
X59926000Y-33096960D02*
X58526000Y-33096960D01*
X57826000Y-33796960D02*
X57826000Y-34396960D01*
X57826000Y-34396960D02*
G75*
G03X58526000Y-35096960I700000J0D01*
G01*
X58526000Y-33096960D02*
G75*
G03X57826000Y-33796960I0J-700000D01*
G01*
X60626000Y-33796960D02*
G75*
G03X59926000Y-33096960I-700000J0D01*
G01*
X59926000Y-35096960D02*
G75*
G03X60626000Y-34396960I0J700000D01*
G01*
X59911000Y-44240960D02*
G75*
G03X60611000Y-43540960I0J700000D01*
G01*
X60611000Y-42940960D02*
G75*
G03X59911000Y-42240960I-700000J0D01*
G01*
X58511000Y-42240960D02*
G75*
G03X57811000Y-42940960I0J-700000D01*
G01*
X57811000Y-43540960D02*
G75*
G03X58511000Y-44240960I700000J0D01*
G01*
X57811000Y-42940960D02*
X57811000Y-43540960D01*
X59911000Y-42240960D02*
X58511000Y-42240960D01*
X60611000Y-43540960D02*
X60611000Y-42940960D01*
X58511000Y-44240960D02*
X59911000Y-44240960D01*
X58526000Y-41192960D02*
X59926000Y-41192960D01*
X60626000Y-40492960D02*
X60626000Y-39892960D01*
X59926000Y-39192960D02*
X58526000Y-39192960D01*
X57826000Y-39892960D02*
X57826000Y-40492960D01*
X57826000Y-40492960D02*
G75*
G03X58526000Y-41192960I700000J0D01*
G01*
X58526000Y-39192960D02*
G75*
G03X57826000Y-39892960I0J-700000D01*
G01*
X60626000Y-39892960D02*
G75*
G03X59926000Y-39192960I-700000J0D01*
G01*
X59926000Y-41192960D02*
G75*
G03X60626000Y-40492960I0J700000D01*
G01*
X67862000Y-30480960D02*
X67862000Y-33140960D01*
X67862000Y-30480960D02*
X70462000Y-30480960D01*
X70462000Y-30480960D02*
X70462000Y-33140960D01*
X67862000Y-33140960D02*
X70462000Y-33140960D01*
X65262000Y-33140960D02*
X66592000Y-33140960D01*
X65262000Y-31810960D02*
X65262000Y-33140960D01*
X16506200Y-45950960D02*
X13706200Y-45950960D01*
X13706200Y-45950960D02*
X13706200Y-32910960D01*
X13706200Y-32910960D02*
X16506200Y-32910960D01*
X16506200Y-32910960D02*
X16506200Y-45950960D01*
X16506200Y-43240960D02*
X13706200Y-43240960D01*
D10*
X18809780Y-46817683D02*
X18333590Y-46484350D01*
X18809780Y-46246255D02*
X17809780Y-46246255D01*
X17809780Y-46627207D01*
X17857400Y-46722445D01*
X17905019Y-46770064D01*
X18000257Y-46817683D01*
X18143114Y-46817683D01*
X18238352Y-46770064D01*
X18285971Y-46722445D01*
X18333590Y-46627207D01*
X18333590Y-46246255D01*
X18809780Y-47246255D02*
X17809780Y-47246255D01*
X18809780Y-47817683D01*
X17809780Y-47817683D01*
X18809780Y-48817683D02*
X18809780Y-48246255D01*
X18809780Y-48531969D02*
X17809780Y-48531969D01*
X17952638Y-48436731D01*
X18047876Y-48341493D01*
X18095495Y-48246255D01*
X21635495Y-47096940D02*
X21635495Y-46096940D01*
X21254542Y-46096940D01*
X21159304Y-46144560D01*
X21111685Y-46192179D01*
X21064066Y-46287417D01*
X21064066Y-46430274D01*
X21111685Y-46525512D01*
X21159304Y-46573131D01*
X21254542Y-46620750D01*
X21635495Y-46620750D01*
X20683114Y-46192179D02*
X20635495Y-46144560D01*
X20540257Y-46096940D01*
X20302161Y-46096940D01*
X20206923Y-46144560D01*
X20159304Y-46192179D01*
X20111685Y-46287417D01*
X20111685Y-46382655D01*
X20159304Y-46525512D01*
X20730733Y-47096940D01*
X20111685Y-47096940D01*
X71324180Y-45608026D02*
X72038466Y-45608026D01*
X72181323Y-45560407D01*
X72276561Y-45465169D01*
X72324180Y-45322312D01*
X72324180Y-45227074D01*
X72324180Y-46084217D02*
X71324180Y-46084217D01*
X71324180Y-46465169D01*
X71371800Y-46560407D01*
X71419419Y-46608026D01*
X71514657Y-46655645D01*
X71657514Y-46655645D01*
X71752752Y-46608026D01*
X71800371Y-46560407D01*
X71847990Y-46465169D01*
X71847990Y-46084217D01*
X71324180Y-47560407D02*
X71324180Y-47084217D01*
X71800371Y-47036598D01*
X71752752Y-47084217D01*
X71705133Y-47179455D01*
X71705133Y-47417550D01*
X71752752Y-47512788D01*
X71800371Y-47560407D01*
X71895609Y-47608026D01*
X72133704Y-47608026D01*
X72228942Y-47560407D01*
X72276561Y-47512788D01*
X72324180Y-47417550D01*
X72324180Y-47179455D01*
X72276561Y-47084217D01*
X72228942Y-47036598D01*
X70124095Y-38638740D02*
X70124095Y-37638740D01*
X69743142Y-37638740D01*
X69647904Y-37686360D01*
X69600285Y-37733979D01*
X69552666Y-37829217D01*
X69552666Y-37972074D01*
X69600285Y-38067312D01*
X69647904Y-38114931D01*
X69743142Y-38162550D01*
X70124095Y-38162550D01*
X68647904Y-37638740D02*
X69124095Y-37638740D01*
X69171714Y-38114931D01*
X69124095Y-38067312D01*
X69028857Y-38019693D01*
X68790761Y-38019693D01*
X68695523Y-38067312D01*
X68647904Y-38114931D01*
X68600285Y-38210169D01*
X68600285Y-38448264D01*
X68647904Y-38543502D01*
X68695523Y-38591121D01*
X68790761Y-38638740D01*
X69028857Y-38638740D01*
X69124095Y-38591121D01*
X69171714Y-38543502D01*
X21584695Y-31806140D02*
X21584695Y-30806140D01*
X21203742Y-30806140D01*
X21108504Y-30853760D01*
X21060885Y-30901379D01*
X21013266Y-30996617D01*
X21013266Y-31139474D01*
X21060885Y-31234712D01*
X21108504Y-31282331D01*
X21203742Y-31329950D01*
X21584695Y-31329950D01*
X20060885Y-31806140D02*
X20632314Y-31806140D01*
X20346600Y-31806140D02*
X20346600Y-30806140D01*
X20441838Y-30948998D01*
X20537076Y-31044236D01*
X20632314Y-31091855D01*
X56996333Y-36597340D02*
X56996333Y-37311626D01*
X57043952Y-37454483D01*
X57139190Y-37549721D01*
X57282047Y-37597340D01*
X57377285Y-37597340D01*
X56520142Y-37597340D02*
X56520142Y-36597340D01*
X56139190Y-36597340D01*
X56043952Y-36644960D01*
X55996333Y-36692579D01*
X55948714Y-36787817D01*
X55948714Y-36930674D01*
X55996333Y-37025912D01*
X56043952Y-37073531D01*
X56139190Y-37121150D01*
X56520142Y-37121150D01*
X55567761Y-36692579D02*
X55520142Y-36644960D01*
X55424904Y-36597340D01*
X55186809Y-36597340D01*
X55091571Y-36644960D01*
X55043952Y-36692579D01*
X54996333Y-36787817D01*
X54996333Y-36883055D01*
X55043952Y-37025912D01*
X55615380Y-37597340D01*
X54996333Y-37597340D01*
X57011333Y-33549340D02*
X57011333Y-34263626D01*
X57058952Y-34406483D01*
X57154190Y-34501721D01*
X57297047Y-34549340D01*
X57392285Y-34549340D01*
X56535142Y-34549340D02*
X56535142Y-33549340D01*
X56154190Y-33549340D01*
X56058952Y-33596960D01*
X56011333Y-33644579D01*
X55963714Y-33739817D01*
X55963714Y-33882674D01*
X56011333Y-33977912D01*
X56058952Y-34025531D01*
X56154190Y-34073150D01*
X56535142Y-34073150D01*
X55011333Y-34549340D02*
X55582761Y-34549340D01*
X55297047Y-34549340D02*
X55297047Y-33549340D01*
X55392285Y-33692198D01*
X55487523Y-33787436D01*
X55582761Y-33835055D01*
X57011333Y-42693340D02*
X57011333Y-43407626D01*
X57058952Y-43550483D01*
X57154190Y-43645721D01*
X57297047Y-43693340D01*
X57392285Y-43693340D01*
X56535142Y-43693340D02*
X56535142Y-42693340D01*
X56154190Y-42693340D01*
X56058952Y-42740960D01*
X56011333Y-42788579D01*
X55963714Y-42883817D01*
X55963714Y-43026674D01*
X56011333Y-43121912D01*
X56058952Y-43169531D01*
X56154190Y-43217150D01*
X56535142Y-43217150D01*
X55106571Y-43026674D02*
X55106571Y-43693340D01*
X55344666Y-42645721D02*
X55582761Y-43360007D01*
X54963714Y-43360007D01*
X56996333Y-39645340D02*
X56996333Y-40359626D01*
X57043952Y-40502483D01*
X57139190Y-40597721D01*
X57282047Y-40645340D01*
X57377285Y-40645340D01*
X56520142Y-40645340D02*
X56520142Y-39645340D01*
X56139190Y-39645340D01*
X56043952Y-39692960D01*
X55996333Y-39740579D01*
X55948714Y-39835817D01*
X55948714Y-39978674D01*
X55996333Y-40073912D01*
X56043952Y-40121531D01*
X56139190Y-40169150D01*
X56520142Y-40169150D01*
X55615380Y-39645340D02*
X54996333Y-39645340D01*
X55329666Y-40026293D01*
X55186809Y-40026293D01*
X55091571Y-40073912D01*
X55043952Y-40121531D01*
X54996333Y-40216769D01*
X54996333Y-40454864D01*
X55043952Y-40550102D01*
X55091571Y-40597721D01*
X55186809Y-40645340D01*
X55472523Y-40645340D01*
X55567761Y-40597721D01*
X55615380Y-40550102D01*
X71997380Y-31072864D02*
X70997380Y-31072864D01*
X70997380Y-31453817D01*
X71045000Y-31549055D01*
X71092619Y-31596674D01*
X71187857Y-31644293D01*
X71330714Y-31644293D01*
X71425952Y-31596674D01*
X71473571Y-31549055D01*
X71521190Y-31453817D01*
X71521190Y-31072864D01*
X71330714Y-32501436D02*
X71997380Y-32501436D01*
X70949761Y-32263340D02*
X71664047Y-32025245D01*
X71664047Y-32644293D01*
X13450380Y-38664283D02*
X12974190Y-38330950D01*
X13450380Y-38092855D02*
X12450380Y-38092855D01*
X12450380Y-38473807D01*
X12498000Y-38569045D01*
X12545619Y-38616664D01*
X12640857Y-38664283D01*
X12783714Y-38664283D01*
X12878952Y-38616664D01*
X12926571Y-38569045D01*
X12974190Y-38473807D01*
X12974190Y-38092855D01*
X13450380Y-39092855D02*
X12450380Y-39092855D01*
X13450380Y-39664283D01*
X12450380Y-39664283D01*
X12545619Y-40092855D02*
X12498000Y-40140474D01*
X12450380Y-40235712D01*
X12450380Y-40473807D01*
X12498000Y-40569045D01*
X12545619Y-40616664D01*
X12640857Y-40664283D01*
X12736095Y-40664283D01*
X12878952Y-40616664D01*
X13450380Y-40045236D01*
X13450380Y-40664283D01*
M02*
