G04 #@! TF.GenerationSoftware,KiCad,Pcbnew,(5.1.4)-1*
G04 #@! TF.CreationDate,2019-11-20T21:09:20+00:00*
G04 #@! TF.ProjectId,rgb-to-hdmi,7267622d-746f-42d6-9864-6d692e6b6963,rev?*
G04 #@! TF.SameCoordinates,Original*
G04 #@! TF.FileFunction,Soldermask,Top*
G04 #@! TF.FilePolarity,Negative*
%FSLAX46Y46*%
G04 Gerber Fmt 4.6, Leading zero omitted, Abs format (unit mm)*
G04 Created by KiCad (PCBNEW (5.1.4)-1) date 2019-11-20 21:09:20*
%MOMM*%
%LPD*%
G04 APERTURE LIST*
%ADD10C,0.100000*%
G04 APERTURE END LIST*
D10*
G36*
X64387443Y-52041154D02*
G01*
X64596728Y-52127842D01*
X64785081Y-52253696D01*
X64945264Y-52413879D01*
X65071118Y-52602232D01*
X65157806Y-52811517D01*
X65202000Y-53033695D01*
X65202000Y-53260225D01*
X65157806Y-53482403D01*
X65071118Y-53691688D01*
X64945264Y-53880041D01*
X64785081Y-54040224D01*
X64596728Y-54166078D01*
X64387443Y-54252766D01*
X64165265Y-54296960D01*
X63938735Y-54296960D01*
X63716557Y-54252766D01*
X63507272Y-54166078D01*
X63318919Y-54040224D01*
X63158736Y-53880041D01*
X63032882Y-53691688D01*
X62946194Y-53482403D01*
X62902000Y-53260225D01*
X62902000Y-53033695D01*
X62946194Y-52811517D01*
X63032882Y-52602232D01*
X63158736Y-52413879D01*
X63318919Y-52253696D01*
X63507272Y-52127842D01*
X63716557Y-52041154D01*
X63938735Y-51996960D01*
X64165265Y-51996960D01*
X64387443Y-52041154D01*
X64387443Y-52041154D01*
G37*
G36*
X42139443Y-52041154D02*
G01*
X42348728Y-52127842D01*
X42537081Y-52253696D01*
X42697264Y-52413879D01*
X42823118Y-52602232D01*
X42909806Y-52811517D01*
X42954000Y-53033695D01*
X42954000Y-53260225D01*
X42909806Y-53482403D01*
X42823118Y-53691688D01*
X42697264Y-53880041D01*
X42537081Y-54040224D01*
X42348728Y-54166078D01*
X42139443Y-54252766D01*
X41917265Y-54296960D01*
X41690735Y-54296960D01*
X41468557Y-54252766D01*
X41259272Y-54166078D01*
X41070919Y-54040224D01*
X40910736Y-53880041D01*
X40784882Y-53691688D01*
X40698194Y-53482403D01*
X40654000Y-53260225D01*
X40654000Y-53033695D01*
X40698194Y-52811517D01*
X40784882Y-52602232D01*
X40910736Y-52413879D01*
X41070919Y-52253696D01*
X41259272Y-52127842D01*
X41468557Y-52041154D01*
X41690735Y-51996960D01*
X41917265Y-51996960D01*
X42139443Y-52041154D01*
X42139443Y-52041154D01*
G37*
G36*
X57887443Y-52041154D02*
G01*
X58096728Y-52127842D01*
X58285081Y-52253696D01*
X58445264Y-52413879D01*
X58571118Y-52602232D01*
X58657806Y-52811517D01*
X58702000Y-53033695D01*
X58702000Y-53260225D01*
X58657806Y-53482403D01*
X58571118Y-53691688D01*
X58445264Y-53880041D01*
X58285081Y-54040224D01*
X58096728Y-54166078D01*
X57887443Y-54252766D01*
X57665265Y-54296960D01*
X57438735Y-54296960D01*
X57216557Y-54252766D01*
X57007272Y-54166078D01*
X56818919Y-54040224D01*
X56658736Y-53880041D01*
X56532882Y-53691688D01*
X56446194Y-53482403D01*
X56402000Y-53260225D01*
X56402000Y-53033695D01*
X56446194Y-52811517D01*
X56532882Y-52602232D01*
X56658736Y-52413879D01*
X56818919Y-52253696D01*
X57007272Y-52127842D01*
X57216557Y-52041154D01*
X57438735Y-51996960D01*
X57665265Y-51996960D01*
X57887443Y-52041154D01*
X57887443Y-52041154D01*
G37*
G36*
X48639443Y-52041154D02*
G01*
X48848728Y-52127842D01*
X49037081Y-52253696D01*
X49197264Y-52413879D01*
X49323118Y-52602232D01*
X49409806Y-52811517D01*
X49454000Y-53033695D01*
X49454000Y-53260225D01*
X49409806Y-53482403D01*
X49323118Y-53691688D01*
X49197264Y-53880041D01*
X49037081Y-54040224D01*
X48848728Y-54166078D01*
X48639443Y-54252766D01*
X48417265Y-54296960D01*
X48190735Y-54296960D01*
X47968557Y-54252766D01*
X47759272Y-54166078D01*
X47570919Y-54040224D01*
X47410736Y-53880041D01*
X47284882Y-53691688D01*
X47198194Y-53482403D01*
X47154000Y-53260225D01*
X47154000Y-53033695D01*
X47198194Y-52811517D01*
X47284882Y-52602232D01*
X47410736Y-52413879D01*
X47570919Y-52253696D01*
X47759272Y-52127842D01*
X47968557Y-52041154D01*
X48190735Y-51996960D01*
X48417265Y-51996960D01*
X48639443Y-52041154D01*
X48639443Y-52041154D01*
G37*
G36*
X26391443Y-52041154D02*
G01*
X26600728Y-52127842D01*
X26789081Y-52253696D01*
X26949264Y-52413879D01*
X27075118Y-52602232D01*
X27161806Y-52811517D01*
X27206000Y-53033695D01*
X27206000Y-53260225D01*
X27161806Y-53482403D01*
X27075118Y-53691688D01*
X26949264Y-53880041D01*
X26789081Y-54040224D01*
X26600728Y-54166078D01*
X26391443Y-54252766D01*
X26169265Y-54296960D01*
X25942735Y-54296960D01*
X25720557Y-54252766D01*
X25511272Y-54166078D01*
X25322919Y-54040224D01*
X25162736Y-53880041D01*
X25036882Y-53691688D01*
X24950194Y-53482403D01*
X24906000Y-53260225D01*
X24906000Y-53033695D01*
X24950194Y-52811517D01*
X25036882Y-52602232D01*
X25162736Y-52413879D01*
X25322919Y-52253696D01*
X25511272Y-52127842D01*
X25720557Y-52041154D01*
X25942735Y-51996960D01*
X26169265Y-51996960D01*
X26391443Y-52041154D01*
X26391443Y-52041154D01*
G37*
G36*
X32891443Y-52041154D02*
G01*
X33100728Y-52127842D01*
X33289081Y-52253696D01*
X33449264Y-52413879D01*
X33575118Y-52602232D01*
X33661806Y-52811517D01*
X33706000Y-53033695D01*
X33706000Y-53260225D01*
X33661806Y-53482403D01*
X33575118Y-53691688D01*
X33449264Y-53880041D01*
X33289081Y-54040224D01*
X33100728Y-54166078D01*
X32891443Y-54252766D01*
X32669265Y-54296960D01*
X32442735Y-54296960D01*
X32220557Y-54252766D01*
X32011272Y-54166078D01*
X31822919Y-54040224D01*
X31662736Y-53880041D01*
X31536882Y-53691688D01*
X31450194Y-53482403D01*
X31406000Y-53260225D01*
X31406000Y-53033695D01*
X31450194Y-52811517D01*
X31536882Y-52602232D01*
X31662736Y-52413879D01*
X31822919Y-52253696D01*
X32011272Y-52127842D01*
X32220557Y-52041154D01*
X32442735Y-51996960D01*
X32669265Y-51996960D01*
X32891443Y-52041154D01*
X32891443Y-52041154D01*
G37*
G36*
X74904237Y-48019131D02*
G01*
X75468401Y-48252815D01*
X75976135Y-48592072D01*
X76407928Y-49023865D01*
X76747185Y-49531599D01*
X76977786Y-50088320D01*
X76980869Y-50095763D01*
X77068630Y-50536966D01*
X77100000Y-50694677D01*
X77100000Y-51305323D01*
X76980869Y-51904237D01*
X76747185Y-52468401D01*
X76407928Y-52976135D01*
X75976135Y-53407928D01*
X75468401Y-53747185D01*
X74904237Y-53980869D01*
X74305324Y-54100000D01*
X73694676Y-54100000D01*
X73095763Y-53980869D01*
X72531599Y-53747185D01*
X72023865Y-53407928D01*
X71592072Y-52976135D01*
X71252815Y-52468401D01*
X71019131Y-51904237D01*
X70900000Y-51305323D01*
X70900000Y-50694677D01*
X70931371Y-50536966D01*
X71019131Y-50095763D01*
X71022214Y-50088320D01*
X71252815Y-49531599D01*
X71592072Y-49023865D01*
X72023865Y-48592072D01*
X72531599Y-48252815D01*
X73095763Y-48019131D01*
X73694676Y-47900000D01*
X74305324Y-47900000D01*
X74904237Y-48019131D01*
X74904237Y-48019131D01*
G37*
G36*
X16904237Y-48019131D02*
G01*
X17468401Y-48252815D01*
X17976135Y-48592072D01*
X18407928Y-49023865D01*
X18747185Y-49531599D01*
X18977786Y-50088320D01*
X18980869Y-50095763D01*
X19068630Y-50536966D01*
X19100000Y-50694677D01*
X19100000Y-51305323D01*
X18980869Y-51904237D01*
X18747185Y-52468401D01*
X18407928Y-52976135D01*
X17976135Y-53407928D01*
X17468401Y-53747185D01*
X16904237Y-53980869D01*
X16305324Y-54100000D01*
X15694676Y-54100000D01*
X15095763Y-53980869D01*
X14531599Y-53747185D01*
X14023865Y-53407928D01*
X13592072Y-52976135D01*
X13252815Y-52468401D01*
X13019131Y-51904237D01*
X12900000Y-51305323D01*
X12900000Y-50694677D01*
X12931371Y-50536966D01*
X13019131Y-50095763D01*
X13022214Y-50088320D01*
X13252815Y-49531599D01*
X13592072Y-49023865D01*
X14023865Y-48592072D01*
X14531599Y-48252815D01*
X15095763Y-48019131D01*
X15694676Y-47900000D01*
X16305324Y-47900000D01*
X16904237Y-48019131D01*
X16904237Y-48019131D01*
G37*
G36*
X70309000Y-53180960D02*
G01*
X68209000Y-53180960D01*
X68209000Y-51080960D01*
X70309000Y-51080960D01*
X70309000Y-53180960D01*
X70309000Y-53180960D01*
G37*
G36*
X21922000Y-53180960D02*
G01*
X19822000Y-53180960D01*
X19822000Y-51080960D01*
X21922000Y-51080960D01*
X21922000Y-53180960D01*
X21922000Y-53180960D01*
G37*
G36*
X39847080Y-51165794D02*
G01*
X39884825Y-51177244D01*
X39919613Y-51195838D01*
X39950101Y-51220859D01*
X39975122Y-51251347D01*
X39993716Y-51286135D01*
X40005166Y-51323880D01*
X40010000Y-51372960D01*
X40010000Y-52398960D01*
X40005166Y-52448040D01*
X39993716Y-52485785D01*
X39975122Y-52520573D01*
X39950101Y-52551061D01*
X39919613Y-52576082D01*
X39884825Y-52594676D01*
X39847080Y-52606126D01*
X39798000Y-52610960D01*
X38522000Y-52610960D01*
X38472920Y-52606126D01*
X38435175Y-52594676D01*
X38400387Y-52576082D01*
X38369899Y-52551061D01*
X38344878Y-52520573D01*
X38326284Y-52485785D01*
X38314834Y-52448040D01*
X38310000Y-52398960D01*
X38310000Y-51372960D01*
X38314834Y-51323880D01*
X38326284Y-51286135D01*
X38344878Y-51251347D01*
X38369899Y-51220859D01*
X38400387Y-51195838D01*
X38435175Y-51177244D01*
X38472920Y-51165794D01*
X38522000Y-51160960D01*
X39798000Y-51160960D01*
X39847080Y-51165794D01*
X39847080Y-51165794D01*
G37*
G36*
X35783080Y-51165794D02*
G01*
X35820825Y-51177244D01*
X35855613Y-51195838D01*
X35886101Y-51220859D01*
X35911122Y-51251347D01*
X35929716Y-51286135D01*
X35941166Y-51323880D01*
X35946000Y-51372960D01*
X35946000Y-52398960D01*
X35941166Y-52448040D01*
X35929716Y-52485785D01*
X35911122Y-52520573D01*
X35886101Y-52551061D01*
X35855613Y-52576082D01*
X35820825Y-52594676D01*
X35783080Y-52606126D01*
X35734000Y-52610960D01*
X34458000Y-52610960D01*
X34408920Y-52606126D01*
X34371175Y-52594676D01*
X34336387Y-52576082D01*
X34305899Y-52551061D01*
X34280878Y-52520573D01*
X34262284Y-52485785D01*
X34250834Y-52448040D01*
X34246000Y-52398960D01*
X34246000Y-51372960D01*
X34250834Y-51323880D01*
X34262284Y-51286135D01*
X34280878Y-51251347D01*
X34305899Y-51220859D01*
X34336387Y-51195838D01*
X34371175Y-51177244D01*
X34408920Y-51165794D01*
X34458000Y-51160960D01*
X35734000Y-51160960D01*
X35783080Y-51165794D01*
X35783080Y-51165794D01*
G37*
G36*
X67533080Y-51165794D02*
G01*
X67570825Y-51177244D01*
X67605613Y-51195838D01*
X67636101Y-51220859D01*
X67661122Y-51251347D01*
X67679716Y-51286135D01*
X67691166Y-51323880D01*
X67696000Y-51372960D01*
X67696000Y-52398960D01*
X67691166Y-52448040D01*
X67679716Y-52485785D01*
X67661122Y-52520573D01*
X67636101Y-52551061D01*
X67605613Y-52576082D01*
X67570825Y-52594676D01*
X67533080Y-52606126D01*
X67484000Y-52610960D01*
X66208000Y-52610960D01*
X66158920Y-52606126D01*
X66121175Y-52594676D01*
X66086387Y-52576082D01*
X66055899Y-52551061D01*
X66030878Y-52520573D01*
X66012284Y-52485785D01*
X66000834Y-52448040D01*
X65996000Y-52398960D01*
X65996000Y-51372960D01*
X66000834Y-51323880D01*
X66012284Y-51286135D01*
X66030878Y-51251347D01*
X66055899Y-51220859D01*
X66086387Y-51195838D01*
X66121175Y-51177244D01*
X66158920Y-51165794D01*
X66208000Y-51160960D01*
X67484000Y-51160960D01*
X67533080Y-51165794D01*
X67533080Y-51165794D01*
G37*
G36*
X55595080Y-51165794D02*
G01*
X55632825Y-51177244D01*
X55667613Y-51195838D01*
X55698101Y-51220859D01*
X55723122Y-51251347D01*
X55741716Y-51286135D01*
X55753166Y-51323880D01*
X55758000Y-51372960D01*
X55758000Y-52398960D01*
X55753166Y-52448040D01*
X55741716Y-52485785D01*
X55723122Y-52520573D01*
X55698101Y-52551061D01*
X55667613Y-52576082D01*
X55632825Y-52594676D01*
X55595080Y-52606126D01*
X55546000Y-52610960D01*
X54270000Y-52610960D01*
X54220920Y-52606126D01*
X54183175Y-52594676D01*
X54148387Y-52576082D01*
X54117899Y-52551061D01*
X54092878Y-52520573D01*
X54074284Y-52485785D01*
X54062834Y-52448040D01*
X54058000Y-52398960D01*
X54058000Y-51372960D01*
X54062834Y-51323880D01*
X54074284Y-51286135D01*
X54092878Y-51251347D01*
X54117899Y-51220859D01*
X54148387Y-51195838D01*
X54183175Y-51177244D01*
X54220920Y-51165794D01*
X54270000Y-51160960D01*
X55546000Y-51160960D01*
X55595080Y-51165794D01*
X55595080Y-51165794D01*
G37*
G36*
X24099080Y-51165794D02*
G01*
X24136825Y-51177244D01*
X24171613Y-51195838D01*
X24202101Y-51220859D01*
X24227122Y-51251347D01*
X24245716Y-51286135D01*
X24257166Y-51323880D01*
X24262000Y-51372960D01*
X24262000Y-52398960D01*
X24257166Y-52448040D01*
X24245716Y-52485785D01*
X24227122Y-52520573D01*
X24202101Y-52551061D01*
X24171613Y-52576082D01*
X24136825Y-52594676D01*
X24099080Y-52606126D01*
X24050000Y-52610960D01*
X22774000Y-52610960D01*
X22724920Y-52606126D01*
X22687175Y-52594676D01*
X22652387Y-52576082D01*
X22621899Y-52551061D01*
X22596878Y-52520573D01*
X22578284Y-52485785D01*
X22566834Y-52448040D01*
X22562000Y-52398960D01*
X22562000Y-51372960D01*
X22566834Y-51323880D01*
X22578284Y-51286135D01*
X22596878Y-51251347D01*
X22621899Y-51220859D01*
X22652387Y-51195838D01*
X22687175Y-51177244D01*
X22724920Y-51165794D01*
X22774000Y-51160960D01*
X24050000Y-51160960D01*
X24099080Y-51165794D01*
X24099080Y-51165794D01*
G37*
G36*
X69565274Y-48581310D02*
G01*
X69756362Y-48660462D01*
X69928336Y-48775371D01*
X70074589Y-48921624D01*
X70189498Y-49093598D01*
X70268650Y-49284686D01*
X70309000Y-49487544D01*
X70309000Y-49694376D01*
X70268650Y-49897234D01*
X70189498Y-50088322D01*
X70074589Y-50260296D01*
X69928336Y-50406549D01*
X69756362Y-50521458D01*
X69565274Y-50600610D01*
X69362416Y-50640960D01*
X69155584Y-50640960D01*
X68952726Y-50600610D01*
X68761638Y-50521458D01*
X68589664Y-50406549D01*
X68443411Y-50260296D01*
X68328502Y-50088322D01*
X68249350Y-49897234D01*
X68209000Y-49694376D01*
X68209000Y-49487544D01*
X68249350Y-49284686D01*
X68328502Y-49093598D01*
X68443411Y-48921624D01*
X68589664Y-48775371D01*
X68761638Y-48660462D01*
X68952726Y-48581310D01*
X69155584Y-48540960D01*
X69362416Y-48540960D01*
X69565274Y-48581310D01*
X69565274Y-48581310D01*
G37*
G36*
X21178274Y-48581310D02*
G01*
X21369362Y-48660462D01*
X21541336Y-48775371D01*
X21687589Y-48921624D01*
X21802498Y-49093598D01*
X21881650Y-49284686D01*
X21922000Y-49487544D01*
X21922000Y-49694376D01*
X21881650Y-49897234D01*
X21802498Y-50088322D01*
X21687589Y-50260296D01*
X21541336Y-50406549D01*
X21369362Y-50521458D01*
X21178274Y-50600610D01*
X20975416Y-50640960D01*
X20768584Y-50640960D01*
X20565726Y-50600610D01*
X20374638Y-50521458D01*
X20202664Y-50406549D01*
X20056411Y-50260296D01*
X19941502Y-50088322D01*
X19862350Y-49897234D01*
X19822000Y-49694376D01*
X19822000Y-49487544D01*
X19862350Y-49284686D01*
X19941502Y-49093598D01*
X20056411Y-48921624D01*
X20202664Y-48775371D01*
X20374638Y-48660462D01*
X20565726Y-48581310D01*
X20768584Y-48540960D01*
X20975416Y-48540960D01*
X21178274Y-48581310D01*
X21178274Y-48581310D01*
G37*
G36*
X55595080Y-49115794D02*
G01*
X55632825Y-49127244D01*
X55667613Y-49145838D01*
X55698101Y-49170859D01*
X55723122Y-49201347D01*
X55741716Y-49236135D01*
X55753166Y-49273880D01*
X55758000Y-49322960D01*
X55758000Y-50348960D01*
X55753166Y-50398040D01*
X55741716Y-50435785D01*
X55723122Y-50470573D01*
X55698101Y-50501061D01*
X55667613Y-50526082D01*
X55632825Y-50544676D01*
X55595080Y-50556126D01*
X55546000Y-50560960D01*
X54270000Y-50560960D01*
X54220920Y-50556126D01*
X54183175Y-50544676D01*
X54148387Y-50526082D01*
X54117899Y-50501061D01*
X54092878Y-50470573D01*
X54074284Y-50435785D01*
X54062834Y-50398040D01*
X54058000Y-50348960D01*
X54058000Y-49322960D01*
X54062834Y-49273880D01*
X54074284Y-49236135D01*
X54092878Y-49201347D01*
X54117899Y-49170859D01*
X54148387Y-49145838D01*
X54183175Y-49127244D01*
X54220920Y-49115794D01*
X54270000Y-49110960D01*
X55546000Y-49110960D01*
X55595080Y-49115794D01*
X55595080Y-49115794D01*
G37*
G36*
X35783080Y-49115794D02*
G01*
X35820825Y-49127244D01*
X35855613Y-49145838D01*
X35886101Y-49170859D01*
X35911122Y-49201347D01*
X35929716Y-49236135D01*
X35941166Y-49273880D01*
X35946000Y-49322960D01*
X35946000Y-50348960D01*
X35941166Y-50398040D01*
X35929716Y-50435785D01*
X35911122Y-50470573D01*
X35886101Y-50501061D01*
X35855613Y-50526082D01*
X35820825Y-50544676D01*
X35783080Y-50556126D01*
X35734000Y-50560960D01*
X34458000Y-50560960D01*
X34408920Y-50556126D01*
X34371175Y-50544676D01*
X34336387Y-50526082D01*
X34305899Y-50501061D01*
X34280878Y-50470573D01*
X34262284Y-50435785D01*
X34250834Y-50398040D01*
X34246000Y-50348960D01*
X34246000Y-49322960D01*
X34250834Y-49273880D01*
X34262284Y-49236135D01*
X34280878Y-49201347D01*
X34305899Y-49170859D01*
X34336387Y-49145838D01*
X34371175Y-49127244D01*
X34408920Y-49115794D01*
X34458000Y-49110960D01*
X35734000Y-49110960D01*
X35783080Y-49115794D01*
X35783080Y-49115794D01*
G37*
G36*
X39847080Y-49115794D02*
G01*
X39884825Y-49127244D01*
X39919613Y-49145838D01*
X39950101Y-49170859D01*
X39975122Y-49201347D01*
X39993716Y-49236135D01*
X40005166Y-49273880D01*
X40010000Y-49322960D01*
X40010000Y-50348960D01*
X40005166Y-50398040D01*
X39993716Y-50435785D01*
X39975122Y-50470573D01*
X39950101Y-50501061D01*
X39919613Y-50526082D01*
X39884825Y-50544676D01*
X39847080Y-50556126D01*
X39798000Y-50560960D01*
X38522000Y-50560960D01*
X38472920Y-50556126D01*
X38435175Y-50544676D01*
X38400387Y-50526082D01*
X38369899Y-50501061D01*
X38344878Y-50470573D01*
X38326284Y-50435785D01*
X38314834Y-50398040D01*
X38310000Y-50348960D01*
X38310000Y-49322960D01*
X38314834Y-49273880D01*
X38326284Y-49236135D01*
X38344878Y-49201347D01*
X38369899Y-49170859D01*
X38400387Y-49145838D01*
X38435175Y-49127244D01*
X38472920Y-49115794D01*
X38522000Y-49110960D01*
X39798000Y-49110960D01*
X39847080Y-49115794D01*
X39847080Y-49115794D01*
G37*
G36*
X24099080Y-49115794D02*
G01*
X24136825Y-49127244D01*
X24171613Y-49145838D01*
X24202101Y-49170859D01*
X24227122Y-49201347D01*
X24245716Y-49236135D01*
X24257166Y-49273880D01*
X24262000Y-49322960D01*
X24262000Y-50348960D01*
X24257166Y-50398040D01*
X24245716Y-50435785D01*
X24227122Y-50470573D01*
X24202101Y-50501061D01*
X24171613Y-50526082D01*
X24136825Y-50544676D01*
X24099080Y-50556126D01*
X24050000Y-50560960D01*
X22774000Y-50560960D01*
X22724920Y-50556126D01*
X22687175Y-50544676D01*
X22652387Y-50526082D01*
X22621899Y-50501061D01*
X22596878Y-50470573D01*
X22578284Y-50435785D01*
X22566834Y-50398040D01*
X22562000Y-50348960D01*
X22562000Y-49322960D01*
X22566834Y-49273880D01*
X22578284Y-49236135D01*
X22596878Y-49201347D01*
X22621899Y-49170859D01*
X22652387Y-49145838D01*
X22687175Y-49127244D01*
X22724920Y-49115794D01*
X22774000Y-49110960D01*
X24050000Y-49110960D01*
X24099080Y-49115794D01*
X24099080Y-49115794D01*
G37*
G36*
X67533080Y-49115794D02*
G01*
X67570825Y-49127244D01*
X67605613Y-49145838D01*
X67636101Y-49170859D01*
X67661122Y-49201347D01*
X67679716Y-49236135D01*
X67691166Y-49273880D01*
X67696000Y-49322960D01*
X67696000Y-50348960D01*
X67691166Y-50398040D01*
X67679716Y-50435785D01*
X67661122Y-50470573D01*
X67636101Y-50501061D01*
X67605613Y-50526082D01*
X67570825Y-50544676D01*
X67533080Y-50556126D01*
X67484000Y-50560960D01*
X66208000Y-50560960D01*
X66158920Y-50556126D01*
X66121175Y-50544676D01*
X66086387Y-50526082D01*
X66055899Y-50501061D01*
X66030878Y-50470573D01*
X66012284Y-50435785D01*
X66000834Y-50398040D01*
X65996000Y-50348960D01*
X65996000Y-49322960D01*
X66000834Y-49273880D01*
X66012284Y-49236135D01*
X66030878Y-49201347D01*
X66055899Y-49170859D01*
X66086387Y-49145838D01*
X66121175Y-49127244D01*
X66158920Y-49115794D01*
X66208000Y-49110960D01*
X67484000Y-49110960D01*
X67533080Y-49115794D01*
X67533080Y-49115794D01*
G37*
G36*
X32891443Y-47541154D02*
G01*
X33100728Y-47627842D01*
X33289081Y-47753696D01*
X33449264Y-47913879D01*
X33575118Y-48102232D01*
X33661806Y-48311517D01*
X33706000Y-48533695D01*
X33706000Y-48760225D01*
X33661806Y-48982403D01*
X33575118Y-49191688D01*
X33449264Y-49380041D01*
X33289081Y-49540224D01*
X33100728Y-49666078D01*
X32891443Y-49752766D01*
X32669265Y-49796960D01*
X32442735Y-49796960D01*
X32220557Y-49752766D01*
X32011272Y-49666078D01*
X31822919Y-49540224D01*
X31662736Y-49380041D01*
X31536882Y-49191688D01*
X31450194Y-48982403D01*
X31406000Y-48760225D01*
X31406000Y-48533695D01*
X31450194Y-48311517D01*
X31536882Y-48102232D01*
X31662736Y-47913879D01*
X31822919Y-47753696D01*
X32011272Y-47627842D01*
X32220557Y-47541154D01*
X32442735Y-47496960D01*
X32669265Y-47496960D01*
X32891443Y-47541154D01*
X32891443Y-47541154D01*
G37*
G36*
X57887443Y-47541154D02*
G01*
X58096728Y-47627842D01*
X58285081Y-47753696D01*
X58445264Y-47913879D01*
X58571118Y-48102232D01*
X58657806Y-48311517D01*
X58702000Y-48533695D01*
X58702000Y-48760225D01*
X58657806Y-48982403D01*
X58571118Y-49191688D01*
X58445264Y-49380041D01*
X58285081Y-49540224D01*
X58096728Y-49666078D01*
X57887443Y-49752766D01*
X57665265Y-49796960D01*
X57438735Y-49796960D01*
X57216557Y-49752766D01*
X57007272Y-49666078D01*
X56818919Y-49540224D01*
X56658736Y-49380041D01*
X56532882Y-49191688D01*
X56446194Y-48982403D01*
X56402000Y-48760225D01*
X56402000Y-48533695D01*
X56446194Y-48311517D01*
X56532882Y-48102232D01*
X56658736Y-47913879D01*
X56818919Y-47753696D01*
X57007272Y-47627842D01*
X57216557Y-47541154D01*
X57438735Y-47496960D01*
X57665265Y-47496960D01*
X57887443Y-47541154D01*
X57887443Y-47541154D01*
G37*
G36*
X48639443Y-47541154D02*
G01*
X48848728Y-47627842D01*
X49037081Y-47753696D01*
X49197264Y-47913879D01*
X49323118Y-48102232D01*
X49409806Y-48311517D01*
X49454000Y-48533695D01*
X49454000Y-48760225D01*
X49409806Y-48982403D01*
X49323118Y-49191688D01*
X49197264Y-49380041D01*
X49037081Y-49540224D01*
X48848728Y-49666078D01*
X48639443Y-49752766D01*
X48417265Y-49796960D01*
X48190735Y-49796960D01*
X47968557Y-49752766D01*
X47759272Y-49666078D01*
X47570919Y-49540224D01*
X47410736Y-49380041D01*
X47284882Y-49191688D01*
X47198194Y-48982403D01*
X47154000Y-48760225D01*
X47154000Y-48533695D01*
X47198194Y-48311517D01*
X47284882Y-48102232D01*
X47410736Y-47913879D01*
X47570919Y-47753696D01*
X47759272Y-47627842D01*
X47968557Y-47541154D01*
X48190735Y-47496960D01*
X48417265Y-47496960D01*
X48639443Y-47541154D01*
X48639443Y-47541154D01*
G37*
G36*
X42139443Y-47541154D02*
G01*
X42348728Y-47627842D01*
X42537081Y-47753696D01*
X42697264Y-47913879D01*
X42823118Y-48102232D01*
X42909806Y-48311517D01*
X42954000Y-48533695D01*
X42954000Y-48760225D01*
X42909806Y-48982403D01*
X42823118Y-49191688D01*
X42697264Y-49380041D01*
X42537081Y-49540224D01*
X42348728Y-49666078D01*
X42139443Y-49752766D01*
X41917265Y-49796960D01*
X41690735Y-49796960D01*
X41468557Y-49752766D01*
X41259272Y-49666078D01*
X41070919Y-49540224D01*
X40910736Y-49380041D01*
X40784882Y-49191688D01*
X40698194Y-48982403D01*
X40654000Y-48760225D01*
X40654000Y-48533695D01*
X40698194Y-48311517D01*
X40784882Y-48102232D01*
X40910736Y-47913879D01*
X41070919Y-47753696D01*
X41259272Y-47627842D01*
X41468557Y-47541154D01*
X41690735Y-47496960D01*
X41917265Y-47496960D01*
X42139443Y-47541154D01*
X42139443Y-47541154D01*
G37*
G36*
X64387443Y-47541154D02*
G01*
X64596728Y-47627842D01*
X64785081Y-47753696D01*
X64945264Y-47913879D01*
X65071118Y-48102232D01*
X65157806Y-48311517D01*
X65202000Y-48533695D01*
X65202000Y-48760225D01*
X65157806Y-48982403D01*
X65071118Y-49191688D01*
X64945264Y-49380041D01*
X64785081Y-49540224D01*
X64596728Y-49666078D01*
X64387443Y-49752766D01*
X64165265Y-49796960D01*
X63938735Y-49796960D01*
X63716557Y-49752766D01*
X63507272Y-49666078D01*
X63318919Y-49540224D01*
X63158736Y-49380041D01*
X63032882Y-49191688D01*
X62946194Y-48982403D01*
X62902000Y-48760225D01*
X62902000Y-48533695D01*
X62946194Y-48311517D01*
X63032882Y-48102232D01*
X63158736Y-47913879D01*
X63318919Y-47753696D01*
X63507272Y-47627842D01*
X63716557Y-47541154D01*
X63938735Y-47496960D01*
X64165265Y-47496960D01*
X64387443Y-47541154D01*
X64387443Y-47541154D01*
G37*
G36*
X26391443Y-47541154D02*
G01*
X26600728Y-47627842D01*
X26789081Y-47753696D01*
X26949264Y-47913879D01*
X27075118Y-48102232D01*
X27161806Y-48311517D01*
X27206000Y-48533695D01*
X27206000Y-48760225D01*
X27161806Y-48982403D01*
X27075118Y-49191688D01*
X26949264Y-49380041D01*
X26789081Y-49540224D01*
X26600728Y-49666078D01*
X26391443Y-49752766D01*
X26169265Y-49796960D01*
X25942735Y-49796960D01*
X25720557Y-49752766D01*
X25511272Y-49666078D01*
X25322919Y-49540224D01*
X25162736Y-49380041D01*
X25036882Y-49191688D01*
X24950194Y-48982403D01*
X24906000Y-48760225D01*
X24906000Y-48533695D01*
X24950194Y-48311517D01*
X25036882Y-48102232D01*
X25162736Y-47913879D01*
X25322919Y-47753696D01*
X25511272Y-47627842D01*
X25720557Y-47541154D01*
X25942735Y-47496960D01*
X26169265Y-47496960D01*
X26391443Y-47541154D01*
X26391443Y-47541154D01*
G37*
G36*
X72301280Y-45164394D02*
G01*
X72339025Y-45175844D01*
X72373813Y-45194438D01*
X72404301Y-45219459D01*
X72429322Y-45249947D01*
X72447916Y-45284735D01*
X72459366Y-45322480D01*
X72464200Y-45371560D01*
X72464200Y-46647560D01*
X72459366Y-46696640D01*
X72447916Y-46734385D01*
X72429322Y-46769173D01*
X72404301Y-46799661D01*
X72373813Y-46824682D01*
X72339025Y-46843276D01*
X72301280Y-46854726D01*
X72252200Y-46859560D01*
X71226200Y-46859560D01*
X71177120Y-46854726D01*
X71139375Y-46843276D01*
X71104587Y-46824682D01*
X71074099Y-46799661D01*
X71049078Y-46769173D01*
X71030484Y-46734385D01*
X71019034Y-46696640D01*
X71014200Y-46647560D01*
X71014200Y-45371560D01*
X71019034Y-45322480D01*
X71030484Y-45284735D01*
X71049078Y-45249947D01*
X71074099Y-45219459D01*
X71104587Y-45194438D01*
X71139375Y-45175844D01*
X71177120Y-45164394D01*
X71226200Y-45159560D01*
X72252200Y-45159560D01*
X72301280Y-45164394D01*
X72301280Y-45164394D01*
G37*
G36*
X74351280Y-45164394D02*
G01*
X74389025Y-45175844D01*
X74423813Y-45194438D01*
X74454301Y-45219459D01*
X74479322Y-45249947D01*
X74497916Y-45284735D01*
X74509366Y-45322480D01*
X74514200Y-45371560D01*
X74514200Y-46647560D01*
X74509366Y-46696640D01*
X74497916Y-46734385D01*
X74479322Y-46769173D01*
X74454301Y-46799661D01*
X74423813Y-46824682D01*
X74389025Y-46843276D01*
X74351280Y-46854726D01*
X74302200Y-46859560D01*
X73276200Y-46859560D01*
X73227120Y-46854726D01*
X73189375Y-46843276D01*
X73154587Y-46824682D01*
X73124099Y-46799661D01*
X73099078Y-46769173D01*
X73080484Y-46734385D01*
X73069034Y-46696640D01*
X73064200Y-46647560D01*
X73064200Y-45371560D01*
X73069034Y-45322480D01*
X73080484Y-45284735D01*
X73099078Y-45249947D01*
X73124099Y-45219459D01*
X73154587Y-45194438D01*
X73189375Y-45175844D01*
X73227120Y-45164394D01*
X73276200Y-45159560D01*
X74302200Y-45159560D01*
X74351280Y-45164394D01*
X74351280Y-45164394D01*
G37*
G36*
X66788036Y-44770029D02*
G01*
X66976533Y-44827209D01*
X67138265Y-44913658D01*
X67150258Y-44920068D01*
X67302528Y-45045032D01*
X67427492Y-45197302D01*
X67427493Y-45197304D01*
X67520351Y-45371027D01*
X67577531Y-45559524D01*
X67596838Y-45755560D01*
X67577531Y-45951596D01*
X67520351Y-46140093D01*
X67443091Y-46284635D01*
X67427492Y-46313818D01*
X67302528Y-46466088D01*
X67150258Y-46591052D01*
X67150256Y-46591053D01*
X66976533Y-46683911D01*
X66788036Y-46741091D01*
X66641125Y-46755560D01*
X66542875Y-46755560D01*
X66395964Y-46741091D01*
X66207467Y-46683911D01*
X66033744Y-46591053D01*
X66033742Y-46591052D01*
X65881472Y-46466088D01*
X65756508Y-46313818D01*
X65740909Y-46284635D01*
X65663649Y-46140093D01*
X65606469Y-45951596D01*
X65587162Y-45755560D01*
X65606469Y-45559524D01*
X65663649Y-45371027D01*
X65756507Y-45197304D01*
X65756508Y-45197302D01*
X65881472Y-45045032D01*
X66033742Y-44920068D01*
X66045735Y-44913658D01*
X66207467Y-44827209D01*
X66395964Y-44770029D01*
X66542875Y-44755560D01*
X66641125Y-44755560D01*
X66788036Y-44770029D01*
X66788036Y-44770029D01*
G37*
G36*
X64296836Y-44768470D02*
G01*
X64485333Y-44825650D01*
X64603776Y-44888960D01*
X64659058Y-44918509D01*
X64811328Y-45043473D01*
X64936292Y-45195743D01*
X64936293Y-45195745D01*
X65029151Y-45369468D01*
X65086331Y-45557965D01*
X65105638Y-45754001D01*
X65086331Y-45950037D01*
X65029151Y-46138534D01*
X64942702Y-46300266D01*
X64936292Y-46312259D01*
X64811328Y-46464529D01*
X64659058Y-46589493D01*
X64659056Y-46589494D01*
X64485333Y-46682352D01*
X64296836Y-46739532D01*
X64149925Y-46754001D01*
X64051675Y-46754001D01*
X63904764Y-46739532D01*
X63716267Y-46682352D01*
X63542544Y-46589494D01*
X63542542Y-46589493D01*
X63390272Y-46464529D01*
X63265308Y-46312259D01*
X63258898Y-46300266D01*
X63172449Y-46138534D01*
X63115269Y-45950037D01*
X63095962Y-45754001D01*
X63115269Y-45557965D01*
X63172449Y-45369468D01*
X63265307Y-45195745D01*
X63265308Y-45195743D01*
X63390272Y-45043473D01*
X63542542Y-44918509D01*
X63597824Y-44888960D01*
X63716267Y-44825650D01*
X63904764Y-44768470D01*
X64051675Y-44754001D01*
X64149925Y-44754001D01*
X64296836Y-44768470D01*
X64296836Y-44768470D01*
G37*
G36*
X35039480Y-44681794D02*
G01*
X35077225Y-44693244D01*
X35112013Y-44711838D01*
X35142501Y-44736859D01*
X35167522Y-44767347D01*
X35186116Y-44802135D01*
X35197566Y-44839880D01*
X35202400Y-44888960D01*
X35202400Y-46164960D01*
X35197566Y-46214040D01*
X35186116Y-46251785D01*
X35167522Y-46286573D01*
X35142501Y-46317061D01*
X35112013Y-46342082D01*
X35077225Y-46360676D01*
X35039480Y-46372126D01*
X34990400Y-46376960D01*
X33964400Y-46376960D01*
X33915320Y-46372126D01*
X33877575Y-46360676D01*
X33842787Y-46342082D01*
X33812299Y-46317061D01*
X33787278Y-46286573D01*
X33768684Y-46251785D01*
X33757234Y-46214040D01*
X33752400Y-46164960D01*
X33752400Y-44888960D01*
X33757234Y-44839880D01*
X33768684Y-44802135D01*
X33787278Y-44767347D01*
X33812299Y-44736859D01*
X33842787Y-44711838D01*
X33877575Y-44693244D01*
X33915320Y-44681794D01*
X33964400Y-44676960D01*
X34990400Y-44676960D01*
X35039480Y-44681794D01*
X35039480Y-44681794D01*
G37*
G36*
X37089480Y-44681794D02*
G01*
X37127225Y-44693244D01*
X37162013Y-44711838D01*
X37192501Y-44736859D01*
X37217522Y-44767347D01*
X37236116Y-44802135D01*
X37247566Y-44839880D01*
X37252400Y-44888960D01*
X37252400Y-46164960D01*
X37247566Y-46214040D01*
X37236116Y-46251785D01*
X37217522Y-46286573D01*
X37192501Y-46317061D01*
X37162013Y-46342082D01*
X37127225Y-46360676D01*
X37089480Y-46372126D01*
X37040400Y-46376960D01*
X36014400Y-46376960D01*
X35965320Y-46372126D01*
X35927575Y-46360676D01*
X35892787Y-46342082D01*
X35862299Y-46317061D01*
X35837278Y-46286573D01*
X35818684Y-46251785D01*
X35807234Y-46214040D01*
X35802400Y-46164960D01*
X35802400Y-44888960D01*
X35807234Y-44839880D01*
X35818684Y-44802135D01*
X35837278Y-44767347D01*
X35862299Y-44736859D01*
X35892787Y-44711838D01*
X35927575Y-44693244D01*
X35965320Y-44681794D01*
X36014400Y-44676960D01*
X37040400Y-44676960D01*
X37089480Y-44681794D01*
X37089480Y-44681794D01*
G37*
G36*
X51161080Y-44554794D02*
G01*
X51198825Y-44566244D01*
X51233613Y-44584838D01*
X51264101Y-44609859D01*
X51289122Y-44640347D01*
X51307716Y-44675135D01*
X51319166Y-44712880D01*
X51324000Y-44761960D01*
X51324000Y-46037960D01*
X51319166Y-46087040D01*
X51307716Y-46124785D01*
X51289122Y-46159573D01*
X51264101Y-46190061D01*
X51233613Y-46215082D01*
X51198825Y-46233676D01*
X51161080Y-46245126D01*
X51112000Y-46249960D01*
X50086000Y-46249960D01*
X50036920Y-46245126D01*
X49999175Y-46233676D01*
X49964387Y-46215082D01*
X49933899Y-46190061D01*
X49908878Y-46159573D01*
X49890284Y-46124785D01*
X49878834Y-46087040D01*
X49874000Y-46037960D01*
X49874000Y-44761960D01*
X49878834Y-44712880D01*
X49890284Y-44675135D01*
X49908878Y-44640347D01*
X49933899Y-44609859D01*
X49964387Y-44584838D01*
X49999175Y-44566244D01*
X50036920Y-44554794D01*
X50086000Y-44549960D01*
X51112000Y-44549960D01*
X51161080Y-44554794D01*
X51161080Y-44554794D01*
G37*
G36*
X49111080Y-44554794D02*
G01*
X49148825Y-44566244D01*
X49183613Y-44584838D01*
X49214101Y-44609859D01*
X49239122Y-44640347D01*
X49257716Y-44675135D01*
X49269166Y-44712880D01*
X49274000Y-44761960D01*
X49274000Y-46037960D01*
X49269166Y-46087040D01*
X49257716Y-46124785D01*
X49239122Y-46159573D01*
X49214101Y-46190061D01*
X49183613Y-46215082D01*
X49148825Y-46233676D01*
X49111080Y-46245126D01*
X49062000Y-46249960D01*
X48036000Y-46249960D01*
X47986920Y-46245126D01*
X47949175Y-46233676D01*
X47914387Y-46215082D01*
X47883899Y-46190061D01*
X47858878Y-46159573D01*
X47840284Y-46124785D01*
X47828834Y-46087040D01*
X47824000Y-46037960D01*
X47824000Y-44761960D01*
X47828834Y-44712880D01*
X47840284Y-44675135D01*
X47858878Y-44640347D01*
X47883899Y-44609859D01*
X47914387Y-44584838D01*
X47949175Y-44566244D01*
X47986920Y-44554794D01*
X48036000Y-44549960D01*
X49062000Y-44549960D01*
X49111080Y-44554794D01*
X49111080Y-44554794D01*
G37*
G36*
X38796260Y-44209071D02*
G01*
X38803943Y-44211402D01*
X38842397Y-44219051D01*
X38881603Y-44219051D01*
X38920057Y-44211402D01*
X38927740Y-44209071D01*
X38959328Y-44205960D01*
X39564672Y-44205960D01*
X39596260Y-44209071D01*
X39603943Y-44211402D01*
X39642397Y-44219051D01*
X39681603Y-44219051D01*
X39720057Y-44211402D01*
X39727740Y-44209071D01*
X39759328Y-44205960D01*
X40364672Y-44205960D01*
X40396260Y-44209071D01*
X40403943Y-44211402D01*
X40442397Y-44219051D01*
X40481603Y-44219051D01*
X40520057Y-44211402D01*
X40527740Y-44209071D01*
X40559328Y-44205960D01*
X41164672Y-44205960D01*
X41196260Y-44209071D01*
X41203943Y-44211402D01*
X41242397Y-44219051D01*
X41281603Y-44219051D01*
X41320057Y-44211402D01*
X41327740Y-44209071D01*
X41359328Y-44205960D01*
X41964672Y-44205960D01*
X41996260Y-44209071D01*
X42003943Y-44211402D01*
X42042397Y-44219051D01*
X42081603Y-44219051D01*
X42120057Y-44211402D01*
X42127740Y-44209071D01*
X42159328Y-44205960D01*
X42764672Y-44205960D01*
X42796260Y-44209071D01*
X42803943Y-44211402D01*
X42842397Y-44219051D01*
X42881603Y-44219051D01*
X42920057Y-44211402D01*
X42927740Y-44209071D01*
X42959328Y-44205960D01*
X43564672Y-44205960D01*
X43596260Y-44209071D01*
X43603943Y-44211402D01*
X43642397Y-44219051D01*
X43681603Y-44219051D01*
X43720057Y-44211402D01*
X43727740Y-44209071D01*
X43759328Y-44205960D01*
X44364672Y-44205960D01*
X44396260Y-44209071D01*
X44403943Y-44211402D01*
X44442397Y-44219051D01*
X44481603Y-44219051D01*
X44520057Y-44211402D01*
X44527740Y-44209071D01*
X44559328Y-44205960D01*
X45164672Y-44205960D01*
X45196260Y-44209071D01*
X45203943Y-44211402D01*
X45242397Y-44219051D01*
X45281603Y-44219051D01*
X45320057Y-44211402D01*
X45327740Y-44209071D01*
X45359328Y-44205960D01*
X45964672Y-44205960D01*
X45996260Y-44209071D01*
X46003943Y-44211402D01*
X46042397Y-44219051D01*
X46081603Y-44219051D01*
X46120057Y-44211402D01*
X46127740Y-44209071D01*
X46159328Y-44205960D01*
X46764672Y-44205960D01*
X46796259Y-44209071D01*
X46817182Y-44215418D01*
X46836461Y-44225723D01*
X46853365Y-44239595D01*
X46867237Y-44256499D01*
X46877542Y-44275778D01*
X46883889Y-44296701D01*
X46887000Y-44328288D01*
X46887000Y-45858632D01*
X46883889Y-45890219D01*
X46877542Y-45911142D01*
X46867237Y-45930421D01*
X46853365Y-45947325D01*
X46836461Y-45961197D01*
X46817182Y-45971502D01*
X46796259Y-45977849D01*
X46764672Y-45980960D01*
X46159328Y-45980960D01*
X46127740Y-45977849D01*
X46120057Y-45975518D01*
X46081603Y-45967869D01*
X46042397Y-45967869D01*
X46003943Y-45975518D01*
X45996260Y-45977849D01*
X45964672Y-45980960D01*
X45359328Y-45980960D01*
X45327740Y-45977849D01*
X45320057Y-45975518D01*
X45281603Y-45967869D01*
X45242397Y-45967869D01*
X45203943Y-45975518D01*
X45196260Y-45977849D01*
X45164672Y-45980960D01*
X44559328Y-45980960D01*
X44527740Y-45977849D01*
X44520057Y-45975518D01*
X44481603Y-45967869D01*
X44442397Y-45967869D01*
X44403943Y-45975518D01*
X44396260Y-45977849D01*
X44364672Y-45980960D01*
X43759328Y-45980960D01*
X43727740Y-45977849D01*
X43720057Y-45975518D01*
X43681603Y-45967869D01*
X43642397Y-45967869D01*
X43603943Y-45975518D01*
X43596260Y-45977849D01*
X43564672Y-45980960D01*
X42959328Y-45980960D01*
X42927740Y-45977849D01*
X42920057Y-45975518D01*
X42881603Y-45967869D01*
X42842397Y-45967869D01*
X42803943Y-45975518D01*
X42796260Y-45977849D01*
X42764672Y-45980960D01*
X42159328Y-45980960D01*
X42127740Y-45977849D01*
X42120057Y-45975518D01*
X42081603Y-45967869D01*
X42042397Y-45967869D01*
X42003943Y-45975518D01*
X41996260Y-45977849D01*
X41964672Y-45980960D01*
X41359328Y-45980960D01*
X41327740Y-45977849D01*
X41320057Y-45975518D01*
X41281603Y-45967869D01*
X41242397Y-45967869D01*
X41203943Y-45975518D01*
X41196260Y-45977849D01*
X41164672Y-45980960D01*
X40559328Y-45980960D01*
X40527740Y-45977849D01*
X40520057Y-45975518D01*
X40481603Y-45967869D01*
X40442397Y-45967869D01*
X40403943Y-45975518D01*
X40396260Y-45977849D01*
X40364672Y-45980960D01*
X39759328Y-45980960D01*
X39727740Y-45977849D01*
X39720057Y-45975518D01*
X39681603Y-45967869D01*
X39642397Y-45967869D01*
X39603943Y-45975518D01*
X39596260Y-45977849D01*
X39564672Y-45980960D01*
X38959328Y-45980960D01*
X38927740Y-45977849D01*
X38920057Y-45975518D01*
X38881603Y-45967869D01*
X38842397Y-45967869D01*
X38803943Y-45975518D01*
X38796260Y-45977849D01*
X38764672Y-45980960D01*
X38159328Y-45980960D01*
X38127741Y-45977849D01*
X38106818Y-45971502D01*
X38087539Y-45961197D01*
X38070635Y-45947325D01*
X38056763Y-45930421D01*
X38046458Y-45911142D01*
X38040111Y-45890219D01*
X38037000Y-45858632D01*
X38037000Y-44328288D01*
X38040111Y-44296701D01*
X38046458Y-44275778D01*
X38056763Y-44256499D01*
X38070635Y-44239595D01*
X38087539Y-44225723D01*
X38106818Y-44215418D01*
X38127741Y-44209071D01*
X38159328Y-44205960D01*
X38764672Y-44205960D01*
X38796260Y-44209071D01*
X38796260Y-44209071D01*
G37*
G36*
X23608036Y-43525429D02*
G01*
X23796533Y-43582609D01*
X23958265Y-43669058D01*
X23970258Y-43675468D01*
X24122528Y-43800432D01*
X24247492Y-43952702D01*
X24247493Y-43952704D01*
X24340351Y-44126427D01*
X24397531Y-44314924D01*
X24416838Y-44510960D01*
X24397531Y-44706996D01*
X24340351Y-44895493D01*
X24288672Y-44992176D01*
X24247492Y-45069218D01*
X24122528Y-45221488D01*
X23970258Y-45346452D01*
X23970256Y-45346453D01*
X23796533Y-45439311D01*
X23608036Y-45496491D01*
X23461125Y-45510960D01*
X23362875Y-45510960D01*
X23215964Y-45496491D01*
X23027467Y-45439311D01*
X22853744Y-45346453D01*
X22853742Y-45346452D01*
X22701472Y-45221488D01*
X22576508Y-45069218D01*
X22535328Y-44992176D01*
X22483649Y-44895493D01*
X22426469Y-44706996D01*
X22407162Y-44510960D01*
X22426469Y-44314924D01*
X22483649Y-44126427D01*
X22576507Y-43952704D01*
X22576508Y-43952702D01*
X22701472Y-43800432D01*
X22853742Y-43675468D01*
X22865735Y-43669058D01*
X23027467Y-43582609D01*
X23215964Y-43525429D01*
X23362875Y-43510960D01*
X23461125Y-43510960D01*
X23608036Y-43525429D01*
X23608036Y-43525429D01*
G37*
G36*
X21872000Y-45510960D02*
G01*
X19872000Y-45510960D01*
X19872000Y-43510960D01*
X21872000Y-43510960D01*
X21872000Y-45510960D01*
X21872000Y-45510960D01*
G37*
G36*
X18977200Y-45460960D02*
G01*
X17077200Y-45460960D01*
X17077200Y-43560960D01*
X18977200Y-43560960D01*
X18977200Y-45460960D01*
X18977200Y-45460960D01*
G37*
G36*
X16056200Y-45460960D02*
G01*
X14156200Y-45460960D01*
X14156200Y-43560960D01*
X16056200Y-43560960D01*
X16056200Y-45460960D01*
X16056200Y-45460960D01*
G37*
G36*
X76452443Y-42285154D02*
G01*
X76661728Y-42371842D01*
X76850081Y-42497696D01*
X77010264Y-42657879D01*
X77136118Y-42846232D01*
X77222806Y-43055517D01*
X77267000Y-43277695D01*
X77267000Y-43504225D01*
X77222806Y-43726403D01*
X77136118Y-43935688D01*
X77010264Y-44124041D01*
X76850081Y-44284224D01*
X76661728Y-44410078D01*
X76452443Y-44496766D01*
X76230265Y-44540960D01*
X76003735Y-44540960D01*
X75781557Y-44496766D01*
X75572272Y-44410078D01*
X75383919Y-44284224D01*
X75223736Y-44124041D01*
X75097882Y-43935688D01*
X75011194Y-43726403D01*
X74967000Y-43504225D01*
X74967000Y-43277695D01*
X75011194Y-43055517D01*
X75097882Y-42846232D01*
X75223736Y-42657879D01*
X75383919Y-42497696D01*
X75572272Y-42371842D01*
X75781557Y-42285154D01*
X76003735Y-42240960D01*
X76230265Y-42240960D01*
X76452443Y-42285154D01*
X76452443Y-42285154D01*
G37*
G36*
X71952443Y-42285154D02*
G01*
X72161728Y-42371842D01*
X72350081Y-42497696D01*
X72510264Y-42657879D01*
X72636118Y-42846232D01*
X72722806Y-43055517D01*
X72767000Y-43277695D01*
X72767000Y-43504225D01*
X72722806Y-43726403D01*
X72636118Y-43935688D01*
X72510264Y-44124041D01*
X72350081Y-44284224D01*
X72161728Y-44410078D01*
X71952443Y-44496766D01*
X71730265Y-44540960D01*
X71503735Y-44540960D01*
X71281557Y-44496766D01*
X71072272Y-44410078D01*
X70883919Y-44284224D01*
X70723736Y-44124041D01*
X70597882Y-43935688D01*
X70511194Y-43726403D01*
X70467000Y-43504225D01*
X70467000Y-43277695D01*
X70511194Y-43055517D01*
X70597882Y-42846232D01*
X70723736Y-42657879D01*
X70883919Y-42497696D01*
X71072272Y-42371842D01*
X71281557Y-42285154D01*
X71503735Y-42240960D01*
X71730265Y-42240960D01*
X71952443Y-42285154D01*
X71952443Y-42285154D01*
G37*
G36*
X66788036Y-42230029D02*
G01*
X66976533Y-42287209D01*
X67134868Y-42371842D01*
X67150258Y-42380068D01*
X67302528Y-42505032D01*
X67427492Y-42657302D01*
X67427493Y-42657304D01*
X67520351Y-42831027D01*
X67577531Y-43019524D01*
X67596838Y-43215560D01*
X67577531Y-43411596D01*
X67520351Y-43600093D01*
X67452836Y-43726403D01*
X67427492Y-43773818D01*
X67302528Y-43926088D01*
X67150258Y-44051052D01*
X67150256Y-44051053D01*
X66976533Y-44143911D01*
X66788036Y-44201091D01*
X66641125Y-44215560D01*
X66542875Y-44215560D01*
X66395964Y-44201091D01*
X66207467Y-44143911D01*
X66033744Y-44051053D01*
X66033742Y-44051052D01*
X65881472Y-43926088D01*
X65756508Y-43773818D01*
X65731164Y-43726403D01*
X65663649Y-43600093D01*
X65606469Y-43411596D01*
X65587162Y-43215560D01*
X65606469Y-43019524D01*
X65663649Y-42831027D01*
X65756507Y-42657304D01*
X65756508Y-42657302D01*
X65881472Y-42505032D01*
X66033742Y-42380068D01*
X66049132Y-42371842D01*
X66207467Y-42287209D01*
X66395964Y-42230029D01*
X66542875Y-42215560D01*
X66641125Y-42215560D01*
X66788036Y-42230029D01*
X66788036Y-42230029D01*
G37*
G36*
X64296836Y-42228470D02*
G01*
X64485333Y-42285650D01*
X64615998Y-42355493D01*
X64659058Y-42378509D01*
X64811328Y-42503473D01*
X64936292Y-42655743D01*
X64936293Y-42655745D01*
X65029151Y-42829468D01*
X65086331Y-43017965D01*
X65105638Y-43214001D01*
X65086331Y-43410037D01*
X65029151Y-43598534D01*
X64961670Y-43724780D01*
X64936292Y-43772259D01*
X64811328Y-43924529D01*
X64659058Y-44049493D01*
X64659056Y-44049494D01*
X64485333Y-44142352D01*
X64296836Y-44199532D01*
X64149925Y-44214001D01*
X64051675Y-44214001D01*
X63904764Y-44199532D01*
X63716267Y-44142352D01*
X63542544Y-44049494D01*
X63542542Y-44049493D01*
X63390272Y-43924529D01*
X63265308Y-43772259D01*
X63239930Y-43724780D01*
X63172449Y-43598534D01*
X63115269Y-43410037D01*
X63095962Y-43214001D01*
X63115269Y-43017965D01*
X63172449Y-42829468D01*
X63265307Y-42655745D01*
X63265308Y-42655743D01*
X63390272Y-42503473D01*
X63542542Y-42378509D01*
X63585602Y-42355493D01*
X63716267Y-42285650D01*
X63904764Y-42228470D01*
X64051675Y-42214001D01*
X64149925Y-42214001D01*
X64296836Y-42228470D01*
X64296836Y-42228470D01*
G37*
G36*
X37596259Y-35009071D02*
G01*
X37617182Y-35015418D01*
X37636461Y-35025723D01*
X37653365Y-35039595D01*
X37667237Y-35056499D01*
X37677542Y-35075778D01*
X37683889Y-35096701D01*
X37687000Y-35128288D01*
X37687000Y-35733632D01*
X37683889Y-35765220D01*
X37681558Y-35772903D01*
X37673909Y-35811357D01*
X37673909Y-35850563D01*
X37681558Y-35889017D01*
X37683889Y-35896700D01*
X37687000Y-35928288D01*
X37687000Y-36533632D01*
X37683889Y-36565220D01*
X37681558Y-36572903D01*
X37673909Y-36611357D01*
X37673909Y-36650563D01*
X37681558Y-36689017D01*
X37683889Y-36696700D01*
X37687000Y-36728288D01*
X37687000Y-37333632D01*
X37683889Y-37365220D01*
X37681558Y-37372903D01*
X37673909Y-37411357D01*
X37673909Y-37450563D01*
X37681558Y-37489017D01*
X37683889Y-37496700D01*
X37687000Y-37528288D01*
X37687000Y-38133632D01*
X37683889Y-38165220D01*
X37681558Y-38172903D01*
X37673909Y-38211357D01*
X37673909Y-38250563D01*
X37681558Y-38289017D01*
X37683889Y-38296700D01*
X37687000Y-38328288D01*
X37687000Y-38933632D01*
X37683889Y-38965220D01*
X37681558Y-38972903D01*
X37673909Y-39011357D01*
X37673909Y-39050563D01*
X37681558Y-39089017D01*
X37683889Y-39096700D01*
X37687000Y-39128288D01*
X37687000Y-39733632D01*
X37683889Y-39765220D01*
X37681558Y-39772903D01*
X37673909Y-39811357D01*
X37673909Y-39850563D01*
X37681558Y-39889017D01*
X37683889Y-39896700D01*
X37687000Y-39928288D01*
X37687000Y-40533632D01*
X37683889Y-40565216D01*
X37681558Y-40572900D01*
X37673909Y-40611354D01*
X37673909Y-40650560D01*
X37681557Y-40689014D01*
X37683889Y-40696701D01*
X37687000Y-40728288D01*
X37687000Y-41333632D01*
X37683889Y-41365220D01*
X37681558Y-41372903D01*
X37673909Y-41411357D01*
X37673909Y-41450563D01*
X37681558Y-41489017D01*
X37683889Y-41496700D01*
X37687000Y-41528288D01*
X37687000Y-42133632D01*
X37683889Y-42165220D01*
X37681558Y-42172903D01*
X37673909Y-42211357D01*
X37673909Y-42250563D01*
X37681558Y-42289017D01*
X37683889Y-42296700D01*
X37687000Y-42328288D01*
X37687000Y-42933632D01*
X37683889Y-42965220D01*
X37681558Y-42972903D01*
X37673909Y-43011357D01*
X37673909Y-43050563D01*
X37681558Y-43089017D01*
X37683889Y-43096700D01*
X37687000Y-43128288D01*
X37687000Y-43733632D01*
X37683889Y-43765219D01*
X37677542Y-43786142D01*
X37667237Y-43805421D01*
X37653365Y-43822325D01*
X37636461Y-43836197D01*
X37617182Y-43846502D01*
X37596259Y-43852849D01*
X37564672Y-43855960D01*
X36034328Y-43855960D01*
X36002741Y-43852849D01*
X35981818Y-43846502D01*
X35962539Y-43836197D01*
X35945635Y-43822325D01*
X35931763Y-43805421D01*
X35921458Y-43786142D01*
X35915111Y-43765219D01*
X35912000Y-43733632D01*
X35912000Y-43128288D01*
X35915111Y-43096700D01*
X35917442Y-43089017D01*
X35925091Y-43050563D01*
X35925091Y-43011357D01*
X35917442Y-42972903D01*
X35915111Y-42965220D01*
X35912000Y-42933632D01*
X35912000Y-42328288D01*
X35915111Y-42296700D01*
X35917442Y-42289017D01*
X35925091Y-42250563D01*
X35925091Y-42211357D01*
X35917442Y-42172903D01*
X35915111Y-42165220D01*
X35912000Y-42133632D01*
X35912000Y-41528288D01*
X35915111Y-41496700D01*
X35917442Y-41489017D01*
X35925091Y-41450563D01*
X35925091Y-41411357D01*
X35917442Y-41372903D01*
X35915111Y-41365220D01*
X35912000Y-41333632D01*
X35912000Y-40728288D01*
X35915111Y-40696701D01*
X35917443Y-40689014D01*
X35925091Y-40650560D01*
X35925091Y-40611354D01*
X35917442Y-40572900D01*
X35915111Y-40565216D01*
X35912000Y-40533632D01*
X35912000Y-39928288D01*
X35915111Y-39896700D01*
X35917442Y-39889017D01*
X35925091Y-39850563D01*
X35925091Y-39811357D01*
X35917442Y-39772903D01*
X35915111Y-39765220D01*
X35912000Y-39733632D01*
X35912000Y-39128288D01*
X35915111Y-39096700D01*
X35917442Y-39089017D01*
X35925091Y-39050563D01*
X35925091Y-39011357D01*
X35917442Y-38972903D01*
X35915111Y-38965220D01*
X35912000Y-38933632D01*
X35912000Y-38328288D01*
X35915111Y-38296700D01*
X35917442Y-38289017D01*
X35925091Y-38250563D01*
X35925091Y-38211357D01*
X35917442Y-38172903D01*
X35915111Y-38165220D01*
X35912000Y-38133632D01*
X35912000Y-37528288D01*
X35915111Y-37496700D01*
X35917442Y-37489017D01*
X35925091Y-37450563D01*
X35925091Y-37411357D01*
X35917442Y-37372903D01*
X35915111Y-37365220D01*
X35912000Y-37333632D01*
X35912000Y-36728288D01*
X35915111Y-36696700D01*
X35917442Y-36689017D01*
X35925091Y-36650563D01*
X35925091Y-36611357D01*
X35917442Y-36572903D01*
X35915111Y-36565220D01*
X35912000Y-36533632D01*
X35912000Y-35928288D01*
X35915111Y-35896700D01*
X35917442Y-35889017D01*
X35925091Y-35850563D01*
X35925091Y-35811357D01*
X35917442Y-35772903D01*
X35915111Y-35765220D01*
X35912000Y-35733632D01*
X35912000Y-35128288D01*
X35915111Y-35096701D01*
X35921458Y-35075778D01*
X35931763Y-35056499D01*
X35945635Y-35039595D01*
X35962539Y-35025723D01*
X35981818Y-35015418D01*
X36002741Y-35009071D01*
X36034328Y-35005960D01*
X37564672Y-35005960D01*
X37596259Y-35009071D01*
X37596259Y-35009071D01*
G37*
G36*
X48921259Y-35009071D02*
G01*
X48942182Y-35015418D01*
X48961461Y-35025723D01*
X48978365Y-35039595D01*
X48992237Y-35056499D01*
X49002542Y-35075778D01*
X49008889Y-35096701D01*
X49012000Y-35128288D01*
X49012000Y-35733632D01*
X49008889Y-35765220D01*
X49006558Y-35772903D01*
X48998909Y-35811357D01*
X48998909Y-35850563D01*
X49006558Y-35889017D01*
X49008889Y-35896700D01*
X49012000Y-35928288D01*
X49012000Y-36533632D01*
X49008889Y-36565220D01*
X49006558Y-36572903D01*
X48998909Y-36611357D01*
X48998909Y-36650563D01*
X49006558Y-36689017D01*
X49008889Y-36696700D01*
X49012000Y-36728288D01*
X49012000Y-37333632D01*
X49008889Y-37365220D01*
X49006558Y-37372903D01*
X48998909Y-37411357D01*
X48998909Y-37450563D01*
X49006558Y-37489017D01*
X49008889Y-37496700D01*
X49012000Y-37528288D01*
X49012000Y-38133632D01*
X49008889Y-38165220D01*
X49006558Y-38172903D01*
X48998909Y-38211357D01*
X48998909Y-38250563D01*
X49006558Y-38289017D01*
X49008889Y-38296700D01*
X49012000Y-38328288D01*
X49012000Y-38933632D01*
X49008889Y-38965220D01*
X49006558Y-38972903D01*
X48998909Y-39011357D01*
X48998909Y-39050563D01*
X49006558Y-39089017D01*
X49008889Y-39096700D01*
X49012000Y-39128288D01*
X49012000Y-39733632D01*
X49008889Y-39765220D01*
X49006558Y-39772903D01*
X48998909Y-39811357D01*
X48998909Y-39850563D01*
X49006558Y-39889017D01*
X49008889Y-39896700D01*
X49012000Y-39928288D01*
X49012000Y-40533632D01*
X49008889Y-40565216D01*
X49006558Y-40572900D01*
X48998909Y-40611354D01*
X48998909Y-40650560D01*
X49006557Y-40689014D01*
X49008889Y-40696701D01*
X49012000Y-40728288D01*
X49012000Y-41333632D01*
X49008889Y-41365220D01*
X49006558Y-41372903D01*
X48998909Y-41411357D01*
X48998909Y-41450563D01*
X49006558Y-41489017D01*
X49008889Y-41496700D01*
X49012000Y-41528288D01*
X49012000Y-42133632D01*
X49008889Y-42165220D01*
X49006558Y-42172903D01*
X48998909Y-42211357D01*
X48998909Y-42250563D01*
X49006558Y-42289017D01*
X49008889Y-42296700D01*
X49012000Y-42328288D01*
X49012000Y-42933632D01*
X49008889Y-42965220D01*
X49006558Y-42972903D01*
X48998909Y-43011357D01*
X48998909Y-43050563D01*
X49006558Y-43089017D01*
X49008889Y-43096700D01*
X49012000Y-43128288D01*
X49012000Y-43733632D01*
X49008889Y-43765219D01*
X49002542Y-43786142D01*
X48992237Y-43805421D01*
X48978365Y-43822325D01*
X48961461Y-43836197D01*
X48942182Y-43846502D01*
X48921259Y-43852849D01*
X48889672Y-43855960D01*
X47359328Y-43855960D01*
X47327741Y-43852849D01*
X47306818Y-43846502D01*
X47287539Y-43836197D01*
X47270635Y-43822325D01*
X47256763Y-43805421D01*
X47246458Y-43786142D01*
X47240111Y-43765219D01*
X47237000Y-43733632D01*
X47237000Y-43128288D01*
X47240111Y-43096700D01*
X47242442Y-43089017D01*
X47250091Y-43050563D01*
X47250091Y-43011357D01*
X47242442Y-42972903D01*
X47240111Y-42965220D01*
X47237000Y-42933632D01*
X47237000Y-42328288D01*
X47240111Y-42296700D01*
X47242442Y-42289017D01*
X47250091Y-42250563D01*
X47250091Y-42211357D01*
X47242442Y-42172903D01*
X47240111Y-42165220D01*
X47237000Y-42133632D01*
X47237000Y-41528288D01*
X47240111Y-41496700D01*
X47242442Y-41489017D01*
X47250091Y-41450563D01*
X47250091Y-41411357D01*
X47242442Y-41372903D01*
X47240111Y-41365220D01*
X47237000Y-41333632D01*
X47237000Y-40728288D01*
X47240111Y-40696701D01*
X47242443Y-40689014D01*
X47250091Y-40650560D01*
X47250091Y-40611354D01*
X47242442Y-40572900D01*
X47240111Y-40565216D01*
X47237000Y-40533632D01*
X47237000Y-39928288D01*
X47240111Y-39896700D01*
X47242442Y-39889017D01*
X47250091Y-39850563D01*
X47250091Y-39811357D01*
X47242442Y-39772903D01*
X47240111Y-39765220D01*
X47237000Y-39733632D01*
X47237000Y-39128288D01*
X47240111Y-39096700D01*
X47242442Y-39089017D01*
X47250091Y-39050563D01*
X47250091Y-39011357D01*
X47242442Y-38972903D01*
X47240111Y-38965220D01*
X47237000Y-38933632D01*
X47237000Y-38328288D01*
X47240111Y-38296700D01*
X47242442Y-38289017D01*
X47250091Y-38250563D01*
X47250091Y-38211357D01*
X47242442Y-38172903D01*
X47240111Y-38165220D01*
X47237000Y-38133632D01*
X47237000Y-37528288D01*
X47240111Y-37496700D01*
X47242442Y-37489017D01*
X47250091Y-37450563D01*
X47250091Y-37411357D01*
X47242442Y-37372903D01*
X47240111Y-37365220D01*
X47237000Y-37333632D01*
X47237000Y-36728288D01*
X47240111Y-36696700D01*
X47242442Y-36689017D01*
X47250091Y-36650563D01*
X47250091Y-36611357D01*
X47242442Y-36572903D01*
X47240111Y-36565220D01*
X47237000Y-36533632D01*
X47237000Y-35928288D01*
X47240111Y-35896700D01*
X47242442Y-35889017D01*
X47250091Y-35850563D01*
X47250091Y-35811357D01*
X47242442Y-35772903D01*
X47240111Y-35765220D01*
X47237000Y-35733632D01*
X47237000Y-35128288D01*
X47240111Y-35096701D01*
X47246458Y-35075778D01*
X47256763Y-35056499D01*
X47270635Y-35039595D01*
X47287539Y-35025723D01*
X47306818Y-35015418D01*
X47327741Y-35009071D01*
X47359328Y-35005960D01*
X48889672Y-35005960D01*
X48921259Y-35009071D01*
X48921259Y-35009071D01*
G37*
G36*
X23608036Y-40985429D02*
G01*
X23796533Y-41042609D01*
X23958265Y-41129058D01*
X23970258Y-41135468D01*
X24122528Y-41260432D01*
X24247492Y-41412702D01*
X24247493Y-41412704D01*
X24340351Y-41586427D01*
X24397531Y-41774924D01*
X24416838Y-41970960D01*
X24397531Y-42166996D01*
X24340351Y-42355493D01*
X24262412Y-42501305D01*
X24247492Y-42529218D01*
X24122528Y-42681488D01*
X23970258Y-42806452D01*
X23970256Y-42806453D01*
X23796533Y-42899311D01*
X23608036Y-42956491D01*
X23461125Y-42970960D01*
X23362875Y-42970960D01*
X23215964Y-42956491D01*
X23027467Y-42899311D01*
X22853744Y-42806453D01*
X22853742Y-42806452D01*
X22701472Y-42681488D01*
X22576508Y-42529218D01*
X22561588Y-42501305D01*
X22483649Y-42355493D01*
X22426469Y-42166996D01*
X22407162Y-41970960D01*
X22426469Y-41774924D01*
X22483649Y-41586427D01*
X22576507Y-41412704D01*
X22576508Y-41412702D01*
X22701472Y-41260432D01*
X22853742Y-41135468D01*
X22865735Y-41129058D01*
X23027467Y-41042609D01*
X23215964Y-40985429D01*
X23362875Y-40970960D01*
X23461125Y-40970960D01*
X23608036Y-40985429D01*
X23608036Y-40985429D01*
G37*
G36*
X21068036Y-40985429D02*
G01*
X21256533Y-41042609D01*
X21418265Y-41129058D01*
X21430258Y-41135468D01*
X21582528Y-41260432D01*
X21707492Y-41412702D01*
X21707493Y-41412704D01*
X21800351Y-41586427D01*
X21857531Y-41774924D01*
X21876838Y-41970960D01*
X21857531Y-42166996D01*
X21800351Y-42355493D01*
X21722412Y-42501305D01*
X21707492Y-42529218D01*
X21582528Y-42681488D01*
X21430258Y-42806452D01*
X21430256Y-42806453D01*
X21256533Y-42899311D01*
X21068036Y-42956491D01*
X20921125Y-42970960D01*
X20822875Y-42970960D01*
X20675964Y-42956491D01*
X20487467Y-42899311D01*
X20313744Y-42806453D01*
X20313742Y-42806452D01*
X20161472Y-42681488D01*
X20036508Y-42529218D01*
X20021588Y-42501305D01*
X19943649Y-42355493D01*
X19886469Y-42166996D01*
X19867162Y-41970960D01*
X19886469Y-41774924D01*
X19943649Y-41586427D01*
X20036507Y-41412704D01*
X20036508Y-41412702D01*
X20161472Y-41260432D01*
X20313742Y-41135468D01*
X20325735Y-41129058D01*
X20487467Y-41042609D01*
X20675964Y-40985429D01*
X20822875Y-40970960D01*
X20921125Y-40970960D01*
X21068036Y-40985429D01*
X21068036Y-40985429D01*
G37*
G36*
X18213434Y-41034706D02*
G01*
X18392509Y-41089028D01*
X18557542Y-41177240D01*
X18557543Y-41177241D01*
X18557545Y-41177242D01*
X18702201Y-41295959D01*
X18805753Y-41422136D01*
X18820920Y-41440618D01*
X18909132Y-41605651D01*
X18963454Y-41784726D01*
X18981796Y-41970960D01*
X18963454Y-42157194D01*
X18909132Y-42336269D01*
X18865200Y-42418460D01*
X18820918Y-42501305D01*
X18702201Y-42645961D01*
X18557545Y-42764678D01*
X18557543Y-42764679D01*
X18557542Y-42764680D01*
X18392509Y-42852892D01*
X18213434Y-42907214D01*
X18073865Y-42920960D01*
X17980535Y-42920960D01*
X17840966Y-42907214D01*
X17661891Y-42852892D01*
X17496858Y-42764680D01*
X17496857Y-42764679D01*
X17496855Y-42764678D01*
X17352199Y-42645961D01*
X17233482Y-42501305D01*
X17189200Y-42418460D01*
X17145268Y-42336269D01*
X17090946Y-42157194D01*
X17072604Y-41970960D01*
X17090946Y-41784726D01*
X17145268Y-41605651D01*
X17233480Y-41440618D01*
X17248648Y-41422136D01*
X17352199Y-41295959D01*
X17496855Y-41177242D01*
X17496857Y-41177241D01*
X17496858Y-41177240D01*
X17661891Y-41089028D01*
X17840966Y-41034706D01*
X17980535Y-41020960D01*
X18073865Y-41020960D01*
X18213434Y-41034706D01*
X18213434Y-41034706D01*
G37*
G36*
X15292434Y-41034706D02*
G01*
X15471509Y-41089028D01*
X15636542Y-41177240D01*
X15636543Y-41177241D01*
X15636545Y-41177242D01*
X15781201Y-41295959D01*
X15884753Y-41422136D01*
X15899920Y-41440618D01*
X15988132Y-41605651D01*
X16042454Y-41784726D01*
X16060796Y-41970960D01*
X16042454Y-42157194D01*
X15988132Y-42336269D01*
X15944200Y-42418460D01*
X15899918Y-42501305D01*
X15781201Y-42645961D01*
X15636545Y-42764678D01*
X15636543Y-42764679D01*
X15636542Y-42764680D01*
X15471509Y-42852892D01*
X15292434Y-42907214D01*
X15152865Y-42920960D01*
X15059535Y-42920960D01*
X14919966Y-42907214D01*
X14740891Y-42852892D01*
X14575858Y-42764680D01*
X14575857Y-42764679D01*
X14575855Y-42764678D01*
X14431199Y-42645961D01*
X14312482Y-42501305D01*
X14268200Y-42418460D01*
X14224268Y-42336269D01*
X14169946Y-42157194D01*
X14151604Y-41970960D01*
X14169946Y-41784726D01*
X14224268Y-41605651D01*
X14312480Y-41440618D01*
X14327648Y-41422136D01*
X14431199Y-41295959D01*
X14575855Y-41177242D01*
X14575857Y-41177241D01*
X14575858Y-41177240D01*
X14740891Y-41089028D01*
X14919966Y-41034706D01*
X15059535Y-41020960D01*
X15152865Y-41020960D01*
X15292434Y-41034706D01*
X15292434Y-41034706D01*
G37*
G36*
X66788036Y-39690029D02*
G01*
X66976533Y-39747209D01*
X67116710Y-39822136D01*
X67150258Y-39840068D01*
X67302528Y-39965032D01*
X67427492Y-40117302D01*
X67427493Y-40117304D01*
X67520351Y-40291027D01*
X67577531Y-40479524D01*
X67596838Y-40675560D01*
X67577531Y-40871596D01*
X67520351Y-41060093D01*
X67457734Y-41177240D01*
X67427492Y-41233818D01*
X67302528Y-41386088D01*
X67150258Y-41511052D01*
X67150256Y-41511053D01*
X66976533Y-41603911D01*
X66788036Y-41661091D01*
X66641125Y-41675560D01*
X66542875Y-41675560D01*
X66395964Y-41661091D01*
X66207467Y-41603911D01*
X66033744Y-41511053D01*
X66033742Y-41511052D01*
X65881472Y-41386088D01*
X65756508Y-41233818D01*
X65726266Y-41177240D01*
X65663649Y-41060093D01*
X65606469Y-40871596D01*
X65587162Y-40675560D01*
X65606469Y-40479524D01*
X65663649Y-40291027D01*
X65756507Y-40117304D01*
X65756508Y-40117302D01*
X65881472Y-39965032D01*
X66033742Y-39840068D01*
X66067290Y-39822136D01*
X66207467Y-39747209D01*
X66395964Y-39690029D01*
X66542875Y-39675560D01*
X66641125Y-39675560D01*
X66788036Y-39690029D01*
X66788036Y-39690029D01*
G37*
G36*
X64296836Y-39688470D02*
G01*
X64485333Y-39745650D01*
X64647065Y-39832099D01*
X64659058Y-39838509D01*
X64811328Y-39963473D01*
X64936292Y-40115743D01*
X64936293Y-40115745D01*
X65029151Y-40289468D01*
X65086331Y-40477965D01*
X65105638Y-40674001D01*
X65086331Y-40870037D01*
X65029151Y-41058534D01*
X64965699Y-41177242D01*
X64936292Y-41232259D01*
X64811328Y-41384529D01*
X64659058Y-41509493D01*
X64659056Y-41509494D01*
X64485333Y-41602352D01*
X64296836Y-41659532D01*
X64149925Y-41674001D01*
X64051675Y-41674001D01*
X63904764Y-41659532D01*
X63716267Y-41602352D01*
X63542544Y-41509494D01*
X63542542Y-41509493D01*
X63390272Y-41384529D01*
X63265308Y-41232259D01*
X63235901Y-41177242D01*
X63172449Y-41058534D01*
X63115269Y-40870037D01*
X63095962Y-40674001D01*
X63115269Y-40477965D01*
X63172449Y-40289468D01*
X63265307Y-40115745D01*
X63265308Y-40115743D01*
X63390272Y-39963473D01*
X63542542Y-39838509D01*
X63554535Y-39832099D01*
X63716267Y-39745650D01*
X63904764Y-39688470D01*
X64051675Y-39674001D01*
X64149925Y-39674001D01*
X64296836Y-39688470D01*
X64296836Y-39688470D01*
G37*
G36*
X21068036Y-38445429D02*
G01*
X21256533Y-38502609D01*
X21418265Y-38589058D01*
X21430258Y-38595468D01*
X21582528Y-38720432D01*
X21707492Y-38872702D01*
X21707493Y-38872704D01*
X21800351Y-39046427D01*
X21857531Y-39234924D01*
X21876838Y-39430960D01*
X21857531Y-39626996D01*
X21800351Y-39815493D01*
X21722412Y-39961305D01*
X21707492Y-39989218D01*
X21582528Y-40141488D01*
X21430258Y-40266452D01*
X21430256Y-40266453D01*
X21256533Y-40359311D01*
X21068036Y-40416491D01*
X20921125Y-40430960D01*
X20822875Y-40430960D01*
X20675964Y-40416491D01*
X20487467Y-40359311D01*
X20313744Y-40266453D01*
X20313742Y-40266452D01*
X20161472Y-40141488D01*
X20036508Y-39989218D01*
X20021588Y-39961305D01*
X19943649Y-39815493D01*
X19886469Y-39626996D01*
X19867162Y-39430960D01*
X19886469Y-39234924D01*
X19943649Y-39046427D01*
X20036507Y-38872704D01*
X20036508Y-38872702D01*
X20161472Y-38720432D01*
X20313742Y-38595468D01*
X20325735Y-38589058D01*
X20487467Y-38502609D01*
X20675964Y-38445429D01*
X20822875Y-38430960D01*
X20921125Y-38430960D01*
X21068036Y-38445429D01*
X21068036Y-38445429D01*
G37*
G36*
X23608036Y-38445429D02*
G01*
X23796533Y-38502609D01*
X23958265Y-38589058D01*
X23970258Y-38595468D01*
X24122528Y-38720432D01*
X24247492Y-38872702D01*
X24247493Y-38872704D01*
X24340351Y-39046427D01*
X24397531Y-39234924D01*
X24416838Y-39430960D01*
X24397531Y-39626996D01*
X24340351Y-39815493D01*
X24262412Y-39961305D01*
X24247492Y-39989218D01*
X24122528Y-40141488D01*
X23970258Y-40266452D01*
X23970256Y-40266453D01*
X23796533Y-40359311D01*
X23608036Y-40416491D01*
X23461125Y-40430960D01*
X23362875Y-40430960D01*
X23215964Y-40416491D01*
X23027467Y-40359311D01*
X22853744Y-40266453D01*
X22853742Y-40266452D01*
X22701472Y-40141488D01*
X22576508Y-39989218D01*
X22561588Y-39961305D01*
X22483649Y-39815493D01*
X22426469Y-39626996D01*
X22407162Y-39430960D01*
X22426469Y-39234924D01*
X22483649Y-39046427D01*
X22576507Y-38872704D01*
X22576508Y-38872702D01*
X22701472Y-38720432D01*
X22853742Y-38595468D01*
X22865735Y-38589058D01*
X23027467Y-38502609D01*
X23215964Y-38445429D01*
X23362875Y-38430960D01*
X23461125Y-38430960D01*
X23608036Y-38445429D01*
X23608036Y-38445429D01*
G37*
G36*
X18213434Y-38494706D02*
G01*
X18392509Y-38549028D01*
X18557542Y-38637240D01*
X18557543Y-38637241D01*
X18557545Y-38637242D01*
X18702201Y-38755959D01*
X18808035Y-38884917D01*
X18820920Y-38900618D01*
X18909132Y-39065651D01*
X18963454Y-39244726D01*
X18981796Y-39430960D01*
X18963454Y-39617194D01*
X18909132Y-39796269D01*
X18820920Y-39961302D01*
X18820918Y-39961305D01*
X18702201Y-40105961D01*
X18557545Y-40224678D01*
X18557543Y-40224679D01*
X18557542Y-40224680D01*
X18392509Y-40312892D01*
X18213434Y-40367214D01*
X18073865Y-40380960D01*
X17980535Y-40380960D01*
X17840966Y-40367214D01*
X17661891Y-40312892D01*
X17496858Y-40224680D01*
X17496857Y-40224679D01*
X17496855Y-40224678D01*
X17352199Y-40105961D01*
X17233482Y-39961305D01*
X17233480Y-39961302D01*
X17145268Y-39796269D01*
X17090946Y-39617194D01*
X17072604Y-39430960D01*
X17090946Y-39244726D01*
X17145268Y-39065651D01*
X17233480Y-38900618D01*
X17246366Y-38884917D01*
X17352199Y-38755959D01*
X17496855Y-38637242D01*
X17496857Y-38637241D01*
X17496858Y-38637240D01*
X17661891Y-38549028D01*
X17840966Y-38494706D01*
X17980535Y-38480960D01*
X18073865Y-38480960D01*
X18213434Y-38494706D01*
X18213434Y-38494706D01*
G37*
G36*
X15292434Y-38494706D02*
G01*
X15471509Y-38549028D01*
X15636542Y-38637240D01*
X15636543Y-38637241D01*
X15636545Y-38637242D01*
X15781201Y-38755959D01*
X15887035Y-38884917D01*
X15899920Y-38900618D01*
X15988132Y-39065651D01*
X16042454Y-39244726D01*
X16060796Y-39430960D01*
X16042454Y-39617194D01*
X15988132Y-39796269D01*
X15899920Y-39961302D01*
X15899918Y-39961305D01*
X15781201Y-40105961D01*
X15636545Y-40224678D01*
X15636543Y-40224679D01*
X15636542Y-40224680D01*
X15471509Y-40312892D01*
X15292434Y-40367214D01*
X15152865Y-40380960D01*
X15059535Y-40380960D01*
X14919966Y-40367214D01*
X14740891Y-40312892D01*
X14575858Y-40224680D01*
X14575857Y-40224679D01*
X14575855Y-40224678D01*
X14431199Y-40105961D01*
X14312482Y-39961305D01*
X14312480Y-39961302D01*
X14224268Y-39796269D01*
X14169946Y-39617194D01*
X14151604Y-39430960D01*
X14169946Y-39244726D01*
X14224268Y-39065651D01*
X14312480Y-38900618D01*
X14325366Y-38884917D01*
X14431199Y-38755959D01*
X14575855Y-38637242D01*
X14575857Y-38637241D01*
X14575858Y-38637240D01*
X14740891Y-38549028D01*
X14919966Y-38494706D01*
X15059535Y-38480960D01*
X15152865Y-38480960D01*
X15292434Y-38494706D01*
X15292434Y-38494706D01*
G37*
G36*
X67592000Y-39135560D02*
G01*
X65592000Y-39135560D01*
X65592000Y-37135560D01*
X67592000Y-37135560D01*
X67592000Y-39135560D01*
X67592000Y-39135560D01*
G37*
G36*
X64296836Y-37148470D02*
G01*
X64485333Y-37205650D01*
X64580031Y-37256268D01*
X64659058Y-37298509D01*
X64811328Y-37423473D01*
X64936292Y-37575743D01*
X64936293Y-37575745D01*
X65029151Y-37749468D01*
X65086331Y-37937965D01*
X65105638Y-38134001D01*
X65086331Y-38330037D01*
X65029151Y-38518534D01*
X64965699Y-38637242D01*
X64936292Y-38692259D01*
X64811328Y-38844529D01*
X64659058Y-38969493D01*
X64659056Y-38969494D01*
X64485333Y-39062352D01*
X64296836Y-39119532D01*
X64149925Y-39134001D01*
X64051675Y-39134001D01*
X63904764Y-39119532D01*
X63716267Y-39062352D01*
X63542544Y-38969494D01*
X63542542Y-38969493D01*
X63390272Y-38844529D01*
X63265308Y-38692259D01*
X63235901Y-38637242D01*
X63172449Y-38518534D01*
X63115269Y-38330037D01*
X63095962Y-38134001D01*
X63115269Y-37937965D01*
X63172449Y-37749468D01*
X63265307Y-37575745D01*
X63265308Y-37575743D01*
X63390272Y-37423473D01*
X63542542Y-37298509D01*
X63621569Y-37256268D01*
X63716267Y-37205650D01*
X63904764Y-37148470D01*
X64051675Y-37134001D01*
X64149925Y-37134001D01*
X64296836Y-37148470D01*
X64296836Y-37148470D01*
G37*
G36*
X35021080Y-36941794D02*
G01*
X35058825Y-36953244D01*
X35093613Y-36971838D01*
X35124101Y-36996859D01*
X35149122Y-37027347D01*
X35167716Y-37062135D01*
X35179166Y-37099880D01*
X35184000Y-37148960D01*
X35184000Y-38174960D01*
X35179166Y-38224040D01*
X35167716Y-38261785D01*
X35149122Y-38296573D01*
X35124101Y-38327061D01*
X35093613Y-38352082D01*
X35058825Y-38370676D01*
X35021080Y-38382126D01*
X34972000Y-38386960D01*
X33696000Y-38386960D01*
X33646920Y-38382126D01*
X33609175Y-38370676D01*
X33574387Y-38352082D01*
X33543899Y-38327061D01*
X33518878Y-38296573D01*
X33500284Y-38261785D01*
X33488834Y-38224040D01*
X33484000Y-38174960D01*
X33484000Y-37148960D01*
X33488834Y-37099880D01*
X33500284Y-37062135D01*
X33518878Y-37027347D01*
X33543899Y-36996859D01*
X33574387Y-36971838D01*
X33609175Y-36953244D01*
X33646920Y-36941794D01*
X33696000Y-36936960D01*
X34972000Y-36936960D01*
X35021080Y-36941794D01*
X35021080Y-36941794D01*
G37*
G36*
X76452443Y-35785154D02*
G01*
X76661728Y-35871842D01*
X76850081Y-35997696D01*
X77010264Y-36157879D01*
X77136118Y-36346232D01*
X77222806Y-36555517D01*
X77267000Y-36777695D01*
X77267000Y-37004225D01*
X77222806Y-37226403D01*
X77136118Y-37435688D01*
X77010264Y-37624041D01*
X76850081Y-37784224D01*
X76661728Y-37910078D01*
X76452443Y-37996766D01*
X76230265Y-38040960D01*
X76003735Y-38040960D01*
X75781557Y-37996766D01*
X75572272Y-37910078D01*
X75383919Y-37784224D01*
X75223736Y-37624041D01*
X75097882Y-37435688D01*
X75011194Y-37226403D01*
X74967000Y-37004225D01*
X74967000Y-36777695D01*
X75011194Y-36555517D01*
X75097882Y-36346232D01*
X75223736Y-36157879D01*
X75383919Y-35997696D01*
X75572272Y-35871842D01*
X75781557Y-35785154D01*
X76003735Y-35740960D01*
X76230265Y-35740960D01*
X76452443Y-35785154D01*
X76452443Y-35785154D01*
G37*
G36*
X71952443Y-35785154D02*
G01*
X72161728Y-35871842D01*
X72350081Y-35997696D01*
X72510264Y-36157879D01*
X72636118Y-36346232D01*
X72722806Y-36555517D01*
X72767000Y-36777695D01*
X72767000Y-37004225D01*
X72722806Y-37226403D01*
X72636118Y-37435688D01*
X72510264Y-37624041D01*
X72350081Y-37784224D01*
X72161728Y-37910078D01*
X71952443Y-37996766D01*
X71730265Y-38040960D01*
X71503735Y-38040960D01*
X71281557Y-37996766D01*
X71072272Y-37910078D01*
X70883919Y-37784224D01*
X70723736Y-37624041D01*
X70597882Y-37435688D01*
X70511194Y-37226403D01*
X70467000Y-37004225D01*
X70467000Y-36777695D01*
X70511194Y-36555517D01*
X70597882Y-36346232D01*
X70723736Y-36157879D01*
X70883919Y-35997696D01*
X71072272Y-35871842D01*
X71281557Y-35785154D01*
X71503735Y-35740960D01*
X71730265Y-35740960D01*
X71952443Y-35785154D01*
X71952443Y-35785154D01*
G37*
G36*
X23608036Y-35905429D02*
G01*
X23796533Y-35962609D01*
X23907165Y-36021744D01*
X23970258Y-36055468D01*
X24122528Y-36180432D01*
X24247492Y-36332702D01*
X24247493Y-36332704D01*
X24340351Y-36506427D01*
X24397531Y-36694924D01*
X24416838Y-36890960D01*
X24397531Y-37086996D01*
X24340351Y-37275493D01*
X24262412Y-37421305D01*
X24247492Y-37449218D01*
X24122528Y-37601488D01*
X23970258Y-37726452D01*
X23970256Y-37726453D01*
X23796533Y-37819311D01*
X23608036Y-37876491D01*
X23461125Y-37890960D01*
X23362875Y-37890960D01*
X23215964Y-37876491D01*
X23027467Y-37819311D01*
X22853744Y-37726453D01*
X22853742Y-37726452D01*
X22701472Y-37601488D01*
X22576508Y-37449218D01*
X22561588Y-37421305D01*
X22483649Y-37275493D01*
X22426469Y-37086996D01*
X22407162Y-36890960D01*
X22426469Y-36694924D01*
X22483649Y-36506427D01*
X22576507Y-36332704D01*
X22576508Y-36332702D01*
X22701472Y-36180432D01*
X22853742Y-36055468D01*
X22916835Y-36021744D01*
X23027467Y-35962609D01*
X23215964Y-35905429D01*
X23362875Y-35890960D01*
X23461125Y-35890960D01*
X23608036Y-35905429D01*
X23608036Y-35905429D01*
G37*
G36*
X21068036Y-35905429D02*
G01*
X21256533Y-35962609D01*
X21367165Y-36021744D01*
X21430258Y-36055468D01*
X21582528Y-36180432D01*
X21707492Y-36332702D01*
X21707493Y-36332704D01*
X21800351Y-36506427D01*
X21857531Y-36694924D01*
X21876838Y-36890960D01*
X21857531Y-37086996D01*
X21800351Y-37275493D01*
X21722412Y-37421305D01*
X21707492Y-37449218D01*
X21582528Y-37601488D01*
X21430258Y-37726452D01*
X21430256Y-37726453D01*
X21256533Y-37819311D01*
X21068036Y-37876491D01*
X20921125Y-37890960D01*
X20822875Y-37890960D01*
X20675964Y-37876491D01*
X20487467Y-37819311D01*
X20313744Y-37726453D01*
X20313742Y-37726452D01*
X20161472Y-37601488D01*
X20036508Y-37449218D01*
X20021588Y-37421305D01*
X19943649Y-37275493D01*
X19886469Y-37086996D01*
X19867162Y-36890960D01*
X19886469Y-36694924D01*
X19943649Y-36506427D01*
X20036507Y-36332704D01*
X20036508Y-36332702D01*
X20161472Y-36180432D01*
X20313742Y-36055468D01*
X20376835Y-36021744D01*
X20487467Y-35962609D01*
X20675964Y-35905429D01*
X20822875Y-35890960D01*
X20921125Y-35890960D01*
X21068036Y-35905429D01*
X21068036Y-35905429D01*
G37*
G36*
X18213434Y-35954706D02*
G01*
X18392509Y-36009028D01*
X18557542Y-36097240D01*
X18557543Y-36097241D01*
X18557545Y-36097242D01*
X18702201Y-36215959D01*
X18801505Y-36336960D01*
X18820920Y-36360618D01*
X18909132Y-36525651D01*
X18963454Y-36704726D01*
X18981796Y-36890960D01*
X18963454Y-37077194D01*
X18909132Y-37256269D01*
X18821537Y-37420147D01*
X18820918Y-37421305D01*
X18702201Y-37565961D01*
X18557545Y-37684678D01*
X18557543Y-37684679D01*
X18557542Y-37684680D01*
X18392509Y-37772892D01*
X18213434Y-37827214D01*
X18073865Y-37840960D01*
X17980535Y-37840960D01*
X17840966Y-37827214D01*
X17661891Y-37772892D01*
X17496858Y-37684680D01*
X17496857Y-37684679D01*
X17496855Y-37684678D01*
X17352199Y-37565961D01*
X17233482Y-37421305D01*
X17232863Y-37420147D01*
X17145268Y-37256269D01*
X17090946Y-37077194D01*
X17072604Y-36890960D01*
X17090946Y-36704726D01*
X17145268Y-36525651D01*
X17233480Y-36360618D01*
X17252896Y-36336960D01*
X17352199Y-36215959D01*
X17496855Y-36097242D01*
X17496857Y-36097241D01*
X17496858Y-36097240D01*
X17661891Y-36009028D01*
X17840966Y-35954706D01*
X17980535Y-35940960D01*
X18073865Y-35940960D01*
X18213434Y-35954706D01*
X18213434Y-35954706D01*
G37*
G36*
X15292434Y-35954706D02*
G01*
X15471509Y-36009028D01*
X15636542Y-36097240D01*
X15636543Y-36097241D01*
X15636545Y-36097242D01*
X15781201Y-36215959D01*
X15880505Y-36336960D01*
X15899920Y-36360618D01*
X15988132Y-36525651D01*
X16042454Y-36704726D01*
X16060796Y-36890960D01*
X16042454Y-37077194D01*
X15988132Y-37256269D01*
X15900537Y-37420147D01*
X15899918Y-37421305D01*
X15781201Y-37565961D01*
X15636545Y-37684678D01*
X15636543Y-37684679D01*
X15636542Y-37684680D01*
X15471509Y-37772892D01*
X15292434Y-37827214D01*
X15152865Y-37840960D01*
X15059535Y-37840960D01*
X14919966Y-37827214D01*
X14740891Y-37772892D01*
X14575858Y-37684680D01*
X14575857Y-37684679D01*
X14575855Y-37684678D01*
X14431199Y-37565961D01*
X14312482Y-37421305D01*
X14311863Y-37420147D01*
X14224268Y-37256269D01*
X14169946Y-37077194D01*
X14151604Y-36890960D01*
X14169946Y-36704726D01*
X14224268Y-36525651D01*
X14312480Y-36360618D01*
X14331896Y-36336960D01*
X14431199Y-36215959D01*
X14575855Y-36097242D01*
X14575857Y-36097241D01*
X14575858Y-36097240D01*
X14740891Y-36009028D01*
X14919966Y-35954706D01*
X15059535Y-35940960D01*
X15152865Y-35940960D01*
X15292434Y-35954706D01*
X15292434Y-35954706D01*
G37*
G36*
X64296836Y-34608470D02*
G01*
X64485333Y-34665650D01*
X64580031Y-34716268D01*
X64659058Y-34758509D01*
X64811328Y-34883473D01*
X64936292Y-35035743D01*
X64936293Y-35035745D01*
X65029151Y-35209468D01*
X65086331Y-35397965D01*
X65105638Y-35594001D01*
X65086331Y-35790037D01*
X65029151Y-35978534D01*
X64965699Y-36097242D01*
X64936292Y-36152259D01*
X64811328Y-36304529D01*
X64659058Y-36429493D01*
X64659056Y-36429494D01*
X64485333Y-36522352D01*
X64296836Y-36579532D01*
X64149925Y-36594001D01*
X64051675Y-36594001D01*
X63904764Y-36579532D01*
X63716267Y-36522352D01*
X63542544Y-36429494D01*
X63542542Y-36429493D01*
X63390272Y-36304529D01*
X63265308Y-36152259D01*
X63235901Y-36097242D01*
X63172449Y-35978534D01*
X63115269Y-35790037D01*
X63095962Y-35594001D01*
X63115269Y-35397965D01*
X63172449Y-35209468D01*
X63265307Y-35035745D01*
X63265308Y-35035743D01*
X63390272Y-34883473D01*
X63542542Y-34758509D01*
X63621569Y-34716268D01*
X63716267Y-34665650D01*
X63904764Y-34608470D01*
X64051675Y-34594001D01*
X64149925Y-34594001D01*
X64296836Y-34608470D01*
X64296836Y-34608470D01*
G37*
G36*
X35021080Y-34891794D02*
G01*
X35058825Y-34903244D01*
X35093613Y-34921838D01*
X35124101Y-34946859D01*
X35149122Y-34977347D01*
X35167716Y-35012135D01*
X35179166Y-35049880D01*
X35184000Y-35098960D01*
X35184000Y-36124960D01*
X35179166Y-36174040D01*
X35167716Y-36211785D01*
X35149122Y-36246573D01*
X35124101Y-36277061D01*
X35093613Y-36302082D01*
X35058825Y-36320676D01*
X35021080Y-36332126D01*
X34972000Y-36336960D01*
X33696000Y-36336960D01*
X33646920Y-36332126D01*
X33609175Y-36320676D01*
X33574387Y-36302082D01*
X33543899Y-36277061D01*
X33518878Y-36246573D01*
X33500284Y-36211785D01*
X33488834Y-36174040D01*
X33484000Y-36124960D01*
X33484000Y-35098960D01*
X33488834Y-35049880D01*
X33500284Y-35012135D01*
X33518878Y-34977347D01*
X33543899Y-34946859D01*
X33574387Y-34921838D01*
X33609175Y-34903244D01*
X33646920Y-34891794D01*
X33696000Y-34886960D01*
X34972000Y-34886960D01*
X35021080Y-34891794D01*
X35021080Y-34891794D01*
G37*
G36*
X23608036Y-33365429D02*
G01*
X23796533Y-33422609D01*
X23958265Y-33509058D01*
X23970258Y-33515468D01*
X24122528Y-33640432D01*
X24247492Y-33792702D01*
X24247493Y-33792704D01*
X24340351Y-33966427D01*
X24397531Y-34154924D01*
X24416838Y-34350960D01*
X24397531Y-34546996D01*
X24340351Y-34735493D01*
X24262412Y-34881305D01*
X24247492Y-34909218D01*
X24122528Y-35061488D01*
X23970258Y-35186452D01*
X23970256Y-35186453D01*
X23796533Y-35279311D01*
X23608036Y-35336491D01*
X23461125Y-35350960D01*
X23362875Y-35350960D01*
X23215964Y-35336491D01*
X23027467Y-35279311D01*
X22853744Y-35186453D01*
X22853742Y-35186452D01*
X22701472Y-35061488D01*
X22576508Y-34909218D01*
X22561588Y-34881305D01*
X22483649Y-34735493D01*
X22426469Y-34546996D01*
X22407162Y-34350960D01*
X22426469Y-34154924D01*
X22483649Y-33966427D01*
X22576507Y-33792704D01*
X22576508Y-33792702D01*
X22701472Y-33640432D01*
X22853742Y-33515468D01*
X22865735Y-33509058D01*
X23027467Y-33422609D01*
X23215964Y-33365429D01*
X23362875Y-33350960D01*
X23461125Y-33350960D01*
X23608036Y-33365429D01*
X23608036Y-33365429D01*
G37*
G36*
X21068036Y-33365429D02*
G01*
X21256533Y-33422609D01*
X21418265Y-33509058D01*
X21430258Y-33515468D01*
X21582528Y-33640432D01*
X21707492Y-33792702D01*
X21707493Y-33792704D01*
X21800351Y-33966427D01*
X21857531Y-34154924D01*
X21876838Y-34350960D01*
X21857531Y-34546996D01*
X21800351Y-34735493D01*
X21722412Y-34881305D01*
X21707492Y-34909218D01*
X21582528Y-35061488D01*
X21430258Y-35186452D01*
X21430256Y-35186453D01*
X21256533Y-35279311D01*
X21068036Y-35336491D01*
X20921125Y-35350960D01*
X20822875Y-35350960D01*
X20675964Y-35336491D01*
X20487467Y-35279311D01*
X20313744Y-35186453D01*
X20313742Y-35186452D01*
X20161472Y-35061488D01*
X20036508Y-34909218D01*
X20021588Y-34881305D01*
X19943649Y-34735493D01*
X19886469Y-34546996D01*
X19867162Y-34350960D01*
X19886469Y-34154924D01*
X19943649Y-33966427D01*
X20036507Y-33792704D01*
X20036508Y-33792702D01*
X20161472Y-33640432D01*
X20313742Y-33515468D01*
X20325735Y-33509058D01*
X20487467Y-33422609D01*
X20675964Y-33365429D01*
X20822875Y-33350960D01*
X20921125Y-33350960D01*
X21068036Y-33365429D01*
X21068036Y-33365429D01*
G37*
G36*
X18213434Y-33414706D02*
G01*
X18392509Y-33469028D01*
X18557542Y-33557240D01*
X18557543Y-33557241D01*
X18557545Y-33557242D01*
X18702201Y-33675959D01*
X18798012Y-33792704D01*
X18820920Y-33820618D01*
X18909132Y-33985651D01*
X18963454Y-34164726D01*
X18981796Y-34350960D01*
X18963454Y-34537194D01*
X18909132Y-34716269D01*
X18886554Y-34758509D01*
X18820918Y-34881305D01*
X18702201Y-35025961D01*
X18557545Y-35144678D01*
X18557543Y-35144679D01*
X18557542Y-35144680D01*
X18392509Y-35232892D01*
X18213434Y-35287214D01*
X18073865Y-35300960D01*
X17980535Y-35300960D01*
X17840966Y-35287214D01*
X17661891Y-35232892D01*
X17496858Y-35144680D01*
X17496857Y-35144679D01*
X17496855Y-35144678D01*
X17352199Y-35025961D01*
X17233482Y-34881305D01*
X17167846Y-34758509D01*
X17145268Y-34716269D01*
X17090946Y-34537194D01*
X17072604Y-34350960D01*
X17090946Y-34164726D01*
X17145268Y-33985651D01*
X17233480Y-33820618D01*
X17256389Y-33792704D01*
X17352199Y-33675959D01*
X17496855Y-33557242D01*
X17496857Y-33557241D01*
X17496858Y-33557240D01*
X17661891Y-33469028D01*
X17840966Y-33414706D01*
X17980535Y-33400960D01*
X18073865Y-33400960D01*
X18213434Y-33414706D01*
X18213434Y-33414706D01*
G37*
G36*
X15292434Y-33414706D02*
G01*
X15471509Y-33469028D01*
X15636542Y-33557240D01*
X15636543Y-33557241D01*
X15636545Y-33557242D01*
X15781201Y-33675959D01*
X15877012Y-33792704D01*
X15899920Y-33820618D01*
X15988132Y-33985651D01*
X16042454Y-34164726D01*
X16060796Y-34350960D01*
X16042454Y-34537194D01*
X15988132Y-34716269D01*
X15965554Y-34758509D01*
X15899918Y-34881305D01*
X15781201Y-35025961D01*
X15636545Y-35144678D01*
X15636543Y-35144679D01*
X15636542Y-35144680D01*
X15471509Y-35232892D01*
X15292434Y-35287214D01*
X15152865Y-35300960D01*
X15059535Y-35300960D01*
X14919966Y-35287214D01*
X14740891Y-35232892D01*
X14575858Y-35144680D01*
X14575857Y-35144679D01*
X14575855Y-35144678D01*
X14431199Y-35025961D01*
X14312482Y-34881305D01*
X14246846Y-34758509D01*
X14224268Y-34716269D01*
X14169946Y-34537194D01*
X14151604Y-34350960D01*
X14169946Y-34164726D01*
X14224268Y-33985651D01*
X14312480Y-33820618D01*
X14335389Y-33792704D01*
X14431199Y-33675959D01*
X14575855Y-33557242D01*
X14575857Y-33557241D01*
X14575858Y-33557240D01*
X14740891Y-33469028D01*
X14919966Y-33414706D01*
X15059535Y-33400960D01*
X15152865Y-33400960D01*
X15292434Y-33414706D01*
X15292434Y-33414706D01*
G37*
G36*
X38796260Y-32884071D02*
G01*
X38803943Y-32886402D01*
X38842397Y-32894051D01*
X38881603Y-32894051D01*
X38920057Y-32886402D01*
X38927740Y-32884071D01*
X38959328Y-32880960D01*
X39564672Y-32880960D01*
X39596260Y-32884071D01*
X39603943Y-32886402D01*
X39642397Y-32894051D01*
X39681603Y-32894051D01*
X39720057Y-32886402D01*
X39727740Y-32884071D01*
X39759328Y-32880960D01*
X40364672Y-32880960D01*
X40396260Y-32884071D01*
X40403943Y-32886402D01*
X40442397Y-32894051D01*
X40481603Y-32894051D01*
X40520057Y-32886402D01*
X40527740Y-32884071D01*
X40559328Y-32880960D01*
X41164672Y-32880960D01*
X41196260Y-32884071D01*
X41203943Y-32886402D01*
X41242397Y-32894051D01*
X41281603Y-32894051D01*
X41320057Y-32886402D01*
X41327740Y-32884071D01*
X41359328Y-32880960D01*
X41964672Y-32880960D01*
X41996260Y-32884071D01*
X42003943Y-32886402D01*
X42042397Y-32894051D01*
X42081603Y-32894051D01*
X42120057Y-32886402D01*
X42127740Y-32884071D01*
X42159328Y-32880960D01*
X42764672Y-32880960D01*
X42796260Y-32884071D01*
X42803943Y-32886402D01*
X42842397Y-32894051D01*
X42881603Y-32894051D01*
X42920057Y-32886402D01*
X42927740Y-32884071D01*
X42959328Y-32880960D01*
X43564672Y-32880960D01*
X43596260Y-32884071D01*
X43603943Y-32886402D01*
X43642397Y-32894051D01*
X43681603Y-32894051D01*
X43720057Y-32886402D01*
X43727740Y-32884071D01*
X43759328Y-32880960D01*
X44364672Y-32880960D01*
X44396260Y-32884071D01*
X44403943Y-32886402D01*
X44442397Y-32894051D01*
X44481603Y-32894051D01*
X44520057Y-32886402D01*
X44527740Y-32884071D01*
X44559328Y-32880960D01*
X45164672Y-32880960D01*
X45196260Y-32884071D01*
X45203943Y-32886402D01*
X45242397Y-32894051D01*
X45281603Y-32894051D01*
X45320057Y-32886402D01*
X45327740Y-32884071D01*
X45359328Y-32880960D01*
X45964672Y-32880960D01*
X45996260Y-32884071D01*
X46003943Y-32886402D01*
X46042397Y-32894051D01*
X46081603Y-32894051D01*
X46120057Y-32886402D01*
X46127740Y-32884071D01*
X46159328Y-32880960D01*
X46764672Y-32880960D01*
X46796259Y-32884071D01*
X46817182Y-32890418D01*
X46836461Y-32900723D01*
X46853365Y-32914595D01*
X46867237Y-32931499D01*
X46877542Y-32950778D01*
X46883889Y-32971701D01*
X46887000Y-33003288D01*
X46887000Y-34533632D01*
X46883889Y-34565219D01*
X46877542Y-34586142D01*
X46867237Y-34605421D01*
X46853365Y-34622325D01*
X46836461Y-34636197D01*
X46817182Y-34646502D01*
X46796259Y-34652849D01*
X46764672Y-34655960D01*
X46159328Y-34655960D01*
X46127740Y-34652849D01*
X46120057Y-34650518D01*
X46081603Y-34642869D01*
X46042397Y-34642869D01*
X46003943Y-34650518D01*
X45996260Y-34652849D01*
X45964672Y-34655960D01*
X45359328Y-34655960D01*
X45327740Y-34652849D01*
X45320057Y-34650518D01*
X45281603Y-34642869D01*
X45242397Y-34642869D01*
X45203943Y-34650518D01*
X45196260Y-34652849D01*
X45164672Y-34655960D01*
X44559328Y-34655960D01*
X44527740Y-34652849D01*
X44520057Y-34650518D01*
X44481603Y-34642869D01*
X44442397Y-34642869D01*
X44403943Y-34650518D01*
X44396260Y-34652849D01*
X44364672Y-34655960D01*
X43759328Y-34655960D01*
X43727740Y-34652849D01*
X43720057Y-34650518D01*
X43681603Y-34642869D01*
X43642397Y-34642869D01*
X43603943Y-34650518D01*
X43596260Y-34652849D01*
X43564672Y-34655960D01*
X42959328Y-34655960D01*
X42927740Y-34652849D01*
X42920057Y-34650518D01*
X42881603Y-34642869D01*
X42842397Y-34642869D01*
X42803943Y-34650518D01*
X42796260Y-34652849D01*
X42764672Y-34655960D01*
X42159328Y-34655960D01*
X42127740Y-34652849D01*
X42120057Y-34650518D01*
X42081603Y-34642869D01*
X42042397Y-34642869D01*
X42003943Y-34650518D01*
X41996260Y-34652849D01*
X41964672Y-34655960D01*
X41359328Y-34655960D01*
X41327740Y-34652849D01*
X41320057Y-34650518D01*
X41281603Y-34642869D01*
X41242397Y-34642869D01*
X41203943Y-34650518D01*
X41196260Y-34652849D01*
X41164672Y-34655960D01*
X40559328Y-34655960D01*
X40527740Y-34652849D01*
X40520057Y-34650518D01*
X40481603Y-34642869D01*
X40442397Y-34642869D01*
X40403943Y-34650518D01*
X40396260Y-34652849D01*
X40364672Y-34655960D01*
X39759328Y-34655960D01*
X39727740Y-34652849D01*
X39720057Y-34650518D01*
X39681603Y-34642869D01*
X39642397Y-34642869D01*
X39603943Y-34650518D01*
X39596260Y-34652849D01*
X39564672Y-34655960D01*
X38959328Y-34655960D01*
X38927740Y-34652849D01*
X38920057Y-34650518D01*
X38881603Y-34642869D01*
X38842397Y-34642869D01*
X38803943Y-34650518D01*
X38796260Y-34652849D01*
X38764672Y-34655960D01*
X38159328Y-34655960D01*
X38127741Y-34652849D01*
X38106818Y-34646502D01*
X38087539Y-34636197D01*
X38070635Y-34622325D01*
X38056763Y-34605421D01*
X38046458Y-34586142D01*
X38040111Y-34565219D01*
X38037000Y-34533632D01*
X38037000Y-33003288D01*
X38040111Y-32971701D01*
X38046458Y-32950778D01*
X38056763Y-32931499D01*
X38070635Y-32914595D01*
X38087539Y-32900723D01*
X38106818Y-32890418D01*
X38127741Y-32884071D01*
X38159328Y-32880960D01*
X38764672Y-32880960D01*
X38796260Y-32884071D01*
X38796260Y-32884071D01*
G37*
G36*
X51161080Y-32489794D02*
G01*
X51198825Y-32501244D01*
X51233613Y-32519838D01*
X51264101Y-32544859D01*
X51289122Y-32575347D01*
X51307716Y-32610135D01*
X51319166Y-32647880D01*
X51324000Y-32696960D01*
X51324000Y-33972960D01*
X51319166Y-34022040D01*
X51307716Y-34059785D01*
X51289122Y-34094573D01*
X51264101Y-34125061D01*
X51233613Y-34150082D01*
X51198825Y-34168676D01*
X51161080Y-34180126D01*
X51112000Y-34184960D01*
X50086000Y-34184960D01*
X50036920Y-34180126D01*
X49999175Y-34168676D01*
X49964387Y-34150082D01*
X49933899Y-34125061D01*
X49908878Y-34094573D01*
X49890284Y-34059785D01*
X49878834Y-34022040D01*
X49874000Y-33972960D01*
X49874000Y-32696960D01*
X49878834Y-32647880D01*
X49890284Y-32610135D01*
X49908878Y-32575347D01*
X49933899Y-32544859D01*
X49964387Y-32519838D01*
X49999175Y-32501244D01*
X50036920Y-32489794D01*
X50086000Y-32484960D01*
X51112000Y-32484960D01*
X51161080Y-32489794D01*
X51161080Y-32489794D01*
G37*
G36*
X49111080Y-32489794D02*
G01*
X49148825Y-32501244D01*
X49183613Y-32519838D01*
X49214101Y-32544859D01*
X49239122Y-32575347D01*
X49257716Y-32610135D01*
X49269166Y-32647880D01*
X49274000Y-32696960D01*
X49274000Y-33972960D01*
X49269166Y-34022040D01*
X49257716Y-34059785D01*
X49239122Y-34094573D01*
X49214101Y-34125061D01*
X49183613Y-34150082D01*
X49148825Y-34168676D01*
X49111080Y-34180126D01*
X49062000Y-34184960D01*
X48036000Y-34184960D01*
X47986920Y-34180126D01*
X47949175Y-34168676D01*
X47914387Y-34150082D01*
X47883899Y-34125061D01*
X47858878Y-34094573D01*
X47840284Y-34059785D01*
X47828834Y-34022040D01*
X47824000Y-33972960D01*
X47824000Y-32696960D01*
X47828834Y-32647880D01*
X47840284Y-32610135D01*
X47858878Y-32575347D01*
X47883899Y-32544859D01*
X47914387Y-32519838D01*
X47949175Y-32501244D01*
X47986920Y-32489794D01*
X48036000Y-32484960D01*
X49062000Y-32484960D01*
X49111080Y-32489794D01*
X49111080Y-32489794D01*
G37*
G36*
X65100800Y-34054001D02*
G01*
X63100800Y-34054001D01*
X63100800Y-32054001D01*
X65100800Y-32054001D01*
X65100800Y-34054001D01*
X65100800Y-34054001D01*
G37*
G36*
X69328036Y-30825429D02*
G01*
X69516533Y-30882609D01*
X69678265Y-30969058D01*
X69690258Y-30975468D01*
X69842528Y-31100432D01*
X69967492Y-31252702D01*
X69967493Y-31252704D01*
X70060351Y-31426427D01*
X70117531Y-31614924D01*
X70136838Y-31810960D01*
X70117531Y-32006996D01*
X70060351Y-32195493D01*
X69973902Y-32357225D01*
X69967492Y-32369218D01*
X69842528Y-32521488D01*
X69690258Y-32646452D01*
X69690256Y-32646453D01*
X69516533Y-32739311D01*
X69328036Y-32796491D01*
X69181125Y-32810960D01*
X69082875Y-32810960D01*
X68935964Y-32796491D01*
X68747467Y-32739311D01*
X68573744Y-32646453D01*
X68573742Y-32646452D01*
X68421472Y-32521488D01*
X68296508Y-32369218D01*
X68290098Y-32357225D01*
X68203649Y-32195493D01*
X68146469Y-32006996D01*
X68127162Y-31810960D01*
X68146469Y-31614924D01*
X68203649Y-31426427D01*
X68296507Y-31252704D01*
X68296508Y-31252702D01*
X68421472Y-31100432D01*
X68573742Y-30975468D01*
X68585735Y-30969058D01*
X68747467Y-30882609D01*
X68935964Y-30825429D01*
X69082875Y-30810960D01*
X69181125Y-30810960D01*
X69328036Y-30825429D01*
X69328036Y-30825429D01*
G37*
G36*
X67592000Y-32810960D02*
G01*
X65592000Y-32810960D01*
X65592000Y-30810960D01*
X67592000Y-30810960D01*
X67592000Y-32810960D01*
X67592000Y-32810960D01*
G37*
G36*
X74904237Y-25019131D02*
G01*
X75468401Y-25252815D01*
X75976135Y-25592072D01*
X76407928Y-26023865D01*
X76747185Y-26531599D01*
X76980869Y-27095763D01*
X77100000Y-27694676D01*
X77100000Y-28305324D01*
X77092583Y-28342611D01*
X76980869Y-28904237D01*
X76747185Y-29468401D01*
X76407928Y-29976135D01*
X75976135Y-30407928D01*
X75468401Y-30747185D01*
X74917279Y-30975467D01*
X74904237Y-30980869D01*
X74305324Y-31100000D01*
X73694676Y-31100000D01*
X73095763Y-30980869D01*
X73082721Y-30975467D01*
X72531599Y-30747185D01*
X72023865Y-30407928D01*
X71592072Y-29976135D01*
X71252815Y-29468401D01*
X71019131Y-28904237D01*
X70907417Y-28342611D01*
X70900000Y-28305324D01*
X70900000Y-27694676D01*
X71019131Y-27095763D01*
X71252815Y-26531599D01*
X71592072Y-26023865D01*
X72023865Y-25592072D01*
X72531599Y-25252815D01*
X73095763Y-25019131D01*
X73694676Y-24900000D01*
X74305324Y-24900000D01*
X74904237Y-25019131D01*
X74904237Y-25019131D01*
G37*
G36*
X16904237Y-25019131D02*
G01*
X17468401Y-25252815D01*
X17976135Y-25592072D01*
X18407928Y-26023865D01*
X18747185Y-26531599D01*
X18980869Y-27095763D01*
X19100000Y-27694676D01*
X19100000Y-28305324D01*
X19092583Y-28342611D01*
X18980869Y-28904237D01*
X18747185Y-29468401D01*
X18407928Y-29976135D01*
X17976135Y-30407928D01*
X17468401Y-30747185D01*
X16917279Y-30975467D01*
X16904237Y-30980869D01*
X16305324Y-31100000D01*
X15694676Y-31100000D01*
X15095763Y-30980869D01*
X15082721Y-30975467D01*
X14531599Y-30747185D01*
X14023865Y-30407928D01*
X13592072Y-29976135D01*
X13252815Y-29468401D01*
X13019131Y-28904237D01*
X12907417Y-28342611D01*
X12900000Y-28305324D01*
X12900000Y-27694676D01*
X13019131Y-27095763D01*
X13252815Y-26531599D01*
X13592072Y-26023865D01*
X14023865Y-25592072D01*
X14531599Y-25252815D01*
X15095763Y-25019131D01*
X15694676Y-24900000D01*
X16305324Y-24900000D01*
X16904237Y-25019131D01*
X16904237Y-25019131D01*
G37*
G36*
X41388036Y-28285429D02*
G01*
X41576533Y-28342609D01*
X41738265Y-28429058D01*
X41750258Y-28435468D01*
X41902528Y-28560432D01*
X42027492Y-28712702D01*
X42027493Y-28712704D01*
X42120351Y-28886427D01*
X42177531Y-29074924D01*
X42196838Y-29270960D01*
X42177531Y-29466996D01*
X42120351Y-29655493D01*
X42033902Y-29817225D01*
X42027492Y-29829218D01*
X41902528Y-29981488D01*
X41750258Y-30106452D01*
X41750256Y-30106453D01*
X41576533Y-30199311D01*
X41388036Y-30256491D01*
X41241125Y-30270960D01*
X41142875Y-30270960D01*
X40995964Y-30256491D01*
X40807467Y-30199311D01*
X40633744Y-30106453D01*
X40633742Y-30106452D01*
X40481472Y-29981488D01*
X40356508Y-29829218D01*
X40350098Y-29817225D01*
X40263649Y-29655493D01*
X40206469Y-29466996D01*
X40187162Y-29270960D01*
X40206469Y-29074924D01*
X40263649Y-28886427D01*
X40356507Y-28712704D01*
X40356508Y-28712702D01*
X40481472Y-28560432D01*
X40633742Y-28435468D01*
X40645735Y-28429058D01*
X40807467Y-28342609D01*
X40995964Y-28285429D01*
X41142875Y-28270960D01*
X41241125Y-28270960D01*
X41388036Y-28285429D01*
X41388036Y-28285429D01*
G37*
G36*
X43928036Y-28285429D02*
G01*
X44116533Y-28342609D01*
X44278265Y-28429058D01*
X44290258Y-28435468D01*
X44442528Y-28560432D01*
X44567492Y-28712702D01*
X44567493Y-28712704D01*
X44660351Y-28886427D01*
X44717531Y-29074924D01*
X44736838Y-29270960D01*
X44717531Y-29466996D01*
X44660351Y-29655493D01*
X44573902Y-29817225D01*
X44567492Y-29829218D01*
X44442528Y-29981488D01*
X44290258Y-30106452D01*
X44290256Y-30106453D01*
X44116533Y-30199311D01*
X43928036Y-30256491D01*
X43781125Y-30270960D01*
X43682875Y-30270960D01*
X43535964Y-30256491D01*
X43347467Y-30199311D01*
X43173744Y-30106453D01*
X43173742Y-30106452D01*
X43021472Y-29981488D01*
X42896508Y-29829218D01*
X42890098Y-29817225D01*
X42803649Y-29655493D01*
X42746469Y-29466996D01*
X42727162Y-29270960D01*
X42746469Y-29074924D01*
X42803649Y-28886427D01*
X42896507Y-28712704D01*
X42896508Y-28712702D01*
X43021472Y-28560432D01*
X43173742Y-28435468D01*
X43185735Y-28429058D01*
X43347467Y-28342609D01*
X43535964Y-28285429D01*
X43682875Y-28270960D01*
X43781125Y-28270960D01*
X43928036Y-28285429D01*
X43928036Y-28285429D01*
G37*
G36*
X46468036Y-28285429D02*
G01*
X46656533Y-28342609D01*
X46818265Y-28429058D01*
X46830258Y-28435468D01*
X46982528Y-28560432D01*
X47107492Y-28712702D01*
X47107493Y-28712704D01*
X47200351Y-28886427D01*
X47257531Y-29074924D01*
X47276838Y-29270960D01*
X47257531Y-29466996D01*
X47200351Y-29655493D01*
X47113902Y-29817225D01*
X47107492Y-29829218D01*
X46982528Y-29981488D01*
X46830258Y-30106452D01*
X46830256Y-30106453D01*
X46656533Y-30199311D01*
X46468036Y-30256491D01*
X46321125Y-30270960D01*
X46222875Y-30270960D01*
X46075964Y-30256491D01*
X45887467Y-30199311D01*
X45713744Y-30106453D01*
X45713742Y-30106452D01*
X45561472Y-29981488D01*
X45436508Y-29829218D01*
X45430098Y-29817225D01*
X45343649Y-29655493D01*
X45286469Y-29466996D01*
X45267162Y-29270960D01*
X45286469Y-29074924D01*
X45343649Y-28886427D01*
X45436507Y-28712704D01*
X45436508Y-28712702D01*
X45561472Y-28560432D01*
X45713742Y-28435468D01*
X45725735Y-28429058D01*
X45887467Y-28342609D01*
X46075964Y-28285429D01*
X46222875Y-28270960D01*
X46321125Y-28270960D01*
X46468036Y-28285429D01*
X46468036Y-28285429D01*
G37*
G36*
X59168036Y-28285429D02*
G01*
X59356533Y-28342609D01*
X59518265Y-28429058D01*
X59530258Y-28435468D01*
X59682528Y-28560432D01*
X59807492Y-28712702D01*
X59807493Y-28712704D01*
X59900351Y-28886427D01*
X59957531Y-29074924D01*
X59976838Y-29270960D01*
X59957531Y-29466996D01*
X59900351Y-29655493D01*
X59813902Y-29817225D01*
X59807492Y-29829218D01*
X59682528Y-29981488D01*
X59530258Y-30106452D01*
X59530256Y-30106453D01*
X59356533Y-30199311D01*
X59168036Y-30256491D01*
X59021125Y-30270960D01*
X58922875Y-30270960D01*
X58775964Y-30256491D01*
X58587467Y-30199311D01*
X58413744Y-30106453D01*
X58413742Y-30106452D01*
X58261472Y-29981488D01*
X58136508Y-29829218D01*
X58130098Y-29817225D01*
X58043649Y-29655493D01*
X57986469Y-29466996D01*
X57967162Y-29270960D01*
X57986469Y-29074924D01*
X58043649Y-28886427D01*
X58136507Y-28712704D01*
X58136508Y-28712702D01*
X58261472Y-28560432D01*
X58413742Y-28435468D01*
X58425735Y-28429058D01*
X58587467Y-28342609D01*
X58775964Y-28285429D01*
X58922875Y-28270960D01*
X59021125Y-28270960D01*
X59168036Y-28285429D01*
X59168036Y-28285429D01*
G37*
G36*
X51548036Y-28285429D02*
G01*
X51736533Y-28342609D01*
X51898265Y-28429058D01*
X51910258Y-28435468D01*
X52062528Y-28560432D01*
X52187492Y-28712702D01*
X52187493Y-28712704D01*
X52280351Y-28886427D01*
X52337531Y-29074924D01*
X52356838Y-29270960D01*
X52337531Y-29466996D01*
X52280351Y-29655493D01*
X52193902Y-29817225D01*
X52187492Y-29829218D01*
X52062528Y-29981488D01*
X51910258Y-30106452D01*
X51910256Y-30106453D01*
X51736533Y-30199311D01*
X51548036Y-30256491D01*
X51401125Y-30270960D01*
X51302875Y-30270960D01*
X51155964Y-30256491D01*
X50967467Y-30199311D01*
X50793744Y-30106453D01*
X50793742Y-30106452D01*
X50641472Y-29981488D01*
X50516508Y-29829218D01*
X50510098Y-29817225D01*
X50423649Y-29655493D01*
X50366469Y-29466996D01*
X50347162Y-29270960D01*
X50366469Y-29074924D01*
X50423649Y-28886427D01*
X50516507Y-28712704D01*
X50516508Y-28712702D01*
X50641472Y-28560432D01*
X50793742Y-28435468D01*
X50805735Y-28429058D01*
X50967467Y-28342609D01*
X51155964Y-28285429D01*
X51302875Y-28270960D01*
X51401125Y-28270960D01*
X51548036Y-28285429D01*
X51548036Y-28285429D01*
G37*
G36*
X54088036Y-28285429D02*
G01*
X54276533Y-28342609D01*
X54438265Y-28429058D01*
X54450258Y-28435468D01*
X54602528Y-28560432D01*
X54727492Y-28712702D01*
X54727493Y-28712704D01*
X54820351Y-28886427D01*
X54877531Y-29074924D01*
X54896838Y-29270960D01*
X54877531Y-29466996D01*
X54820351Y-29655493D01*
X54733902Y-29817225D01*
X54727492Y-29829218D01*
X54602528Y-29981488D01*
X54450258Y-30106452D01*
X54450256Y-30106453D01*
X54276533Y-30199311D01*
X54088036Y-30256491D01*
X53941125Y-30270960D01*
X53842875Y-30270960D01*
X53695964Y-30256491D01*
X53507467Y-30199311D01*
X53333744Y-30106453D01*
X53333742Y-30106452D01*
X53181472Y-29981488D01*
X53056508Y-29829218D01*
X53050098Y-29817225D01*
X52963649Y-29655493D01*
X52906469Y-29466996D01*
X52887162Y-29270960D01*
X52906469Y-29074924D01*
X52963649Y-28886427D01*
X53056507Y-28712704D01*
X53056508Y-28712702D01*
X53181472Y-28560432D01*
X53333742Y-28435468D01*
X53345735Y-28429058D01*
X53507467Y-28342609D01*
X53695964Y-28285429D01*
X53842875Y-28270960D01*
X53941125Y-28270960D01*
X54088036Y-28285429D01*
X54088036Y-28285429D01*
G37*
G36*
X56628036Y-28285429D02*
G01*
X56816533Y-28342609D01*
X56978265Y-28429058D01*
X56990258Y-28435468D01*
X57142528Y-28560432D01*
X57267492Y-28712702D01*
X57267493Y-28712704D01*
X57360351Y-28886427D01*
X57417531Y-29074924D01*
X57436838Y-29270960D01*
X57417531Y-29466996D01*
X57360351Y-29655493D01*
X57273902Y-29817225D01*
X57267492Y-29829218D01*
X57142528Y-29981488D01*
X56990258Y-30106452D01*
X56990256Y-30106453D01*
X56816533Y-30199311D01*
X56628036Y-30256491D01*
X56481125Y-30270960D01*
X56382875Y-30270960D01*
X56235964Y-30256491D01*
X56047467Y-30199311D01*
X55873744Y-30106453D01*
X55873742Y-30106452D01*
X55721472Y-29981488D01*
X55596508Y-29829218D01*
X55590098Y-29817225D01*
X55503649Y-29655493D01*
X55446469Y-29466996D01*
X55427162Y-29270960D01*
X55446469Y-29074924D01*
X55503649Y-28886427D01*
X55596507Y-28712704D01*
X55596508Y-28712702D01*
X55721472Y-28560432D01*
X55873742Y-28435468D01*
X55885735Y-28429058D01*
X56047467Y-28342609D01*
X56235964Y-28285429D01*
X56382875Y-28270960D01*
X56481125Y-28270960D01*
X56628036Y-28285429D01*
X56628036Y-28285429D01*
G37*
G36*
X66788036Y-28285429D02*
G01*
X66976533Y-28342609D01*
X67138265Y-28429058D01*
X67150258Y-28435468D01*
X67302528Y-28560432D01*
X67427492Y-28712702D01*
X67427493Y-28712704D01*
X67520351Y-28886427D01*
X67577531Y-29074924D01*
X67596838Y-29270960D01*
X67577531Y-29466996D01*
X67520351Y-29655493D01*
X67433902Y-29817225D01*
X67427492Y-29829218D01*
X67302528Y-29981488D01*
X67150258Y-30106452D01*
X67150256Y-30106453D01*
X66976533Y-30199311D01*
X66788036Y-30256491D01*
X66641125Y-30270960D01*
X66542875Y-30270960D01*
X66395964Y-30256491D01*
X66207467Y-30199311D01*
X66033744Y-30106453D01*
X66033742Y-30106452D01*
X65881472Y-29981488D01*
X65756508Y-29829218D01*
X65750098Y-29817225D01*
X65663649Y-29655493D01*
X65606469Y-29466996D01*
X65587162Y-29270960D01*
X65606469Y-29074924D01*
X65663649Y-28886427D01*
X65756507Y-28712704D01*
X65756508Y-28712702D01*
X65881472Y-28560432D01*
X66033742Y-28435468D01*
X66045735Y-28429058D01*
X66207467Y-28342609D01*
X66395964Y-28285429D01*
X66542875Y-28270960D01*
X66641125Y-28270960D01*
X66788036Y-28285429D01*
X66788036Y-28285429D01*
G37*
G36*
X64248036Y-28285429D02*
G01*
X64436533Y-28342609D01*
X64598265Y-28429058D01*
X64610258Y-28435468D01*
X64762528Y-28560432D01*
X64887492Y-28712702D01*
X64887493Y-28712704D01*
X64980351Y-28886427D01*
X65037531Y-29074924D01*
X65056838Y-29270960D01*
X65037531Y-29466996D01*
X64980351Y-29655493D01*
X64893902Y-29817225D01*
X64887492Y-29829218D01*
X64762528Y-29981488D01*
X64610258Y-30106452D01*
X64610256Y-30106453D01*
X64436533Y-30199311D01*
X64248036Y-30256491D01*
X64101125Y-30270960D01*
X64002875Y-30270960D01*
X63855964Y-30256491D01*
X63667467Y-30199311D01*
X63493744Y-30106453D01*
X63493742Y-30106452D01*
X63341472Y-29981488D01*
X63216508Y-29829218D01*
X63210098Y-29817225D01*
X63123649Y-29655493D01*
X63066469Y-29466996D01*
X63047162Y-29270960D01*
X63066469Y-29074924D01*
X63123649Y-28886427D01*
X63216507Y-28712704D01*
X63216508Y-28712702D01*
X63341472Y-28560432D01*
X63493742Y-28435468D01*
X63505735Y-28429058D01*
X63667467Y-28342609D01*
X63855964Y-28285429D01*
X64002875Y-28270960D01*
X64101125Y-28270960D01*
X64248036Y-28285429D01*
X64248036Y-28285429D01*
G37*
G36*
X61708036Y-28285429D02*
G01*
X61896533Y-28342609D01*
X62058265Y-28429058D01*
X62070258Y-28435468D01*
X62222528Y-28560432D01*
X62347492Y-28712702D01*
X62347493Y-28712704D01*
X62440351Y-28886427D01*
X62497531Y-29074924D01*
X62516838Y-29270960D01*
X62497531Y-29466996D01*
X62440351Y-29655493D01*
X62353902Y-29817225D01*
X62347492Y-29829218D01*
X62222528Y-29981488D01*
X62070258Y-30106452D01*
X62070256Y-30106453D01*
X61896533Y-30199311D01*
X61708036Y-30256491D01*
X61561125Y-30270960D01*
X61462875Y-30270960D01*
X61315964Y-30256491D01*
X61127467Y-30199311D01*
X60953744Y-30106453D01*
X60953742Y-30106452D01*
X60801472Y-29981488D01*
X60676508Y-29829218D01*
X60670098Y-29817225D01*
X60583649Y-29655493D01*
X60526469Y-29466996D01*
X60507162Y-29270960D01*
X60526469Y-29074924D01*
X60583649Y-28886427D01*
X60676507Y-28712704D01*
X60676508Y-28712702D01*
X60801472Y-28560432D01*
X60953742Y-28435468D01*
X60965735Y-28429058D01*
X61127467Y-28342609D01*
X61315964Y-28285429D01*
X61462875Y-28270960D01*
X61561125Y-28270960D01*
X61708036Y-28285429D01*
X61708036Y-28285429D01*
G37*
G36*
X69328036Y-28285429D02*
G01*
X69516533Y-28342609D01*
X69678265Y-28429058D01*
X69690258Y-28435468D01*
X69842528Y-28560432D01*
X69967492Y-28712702D01*
X69967493Y-28712704D01*
X70060351Y-28886427D01*
X70117531Y-29074924D01*
X70136838Y-29270960D01*
X70117531Y-29466996D01*
X70060351Y-29655493D01*
X69973902Y-29817225D01*
X69967492Y-29829218D01*
X69842528Y-29981488D01*
X69690258Y-30106452D01*
X69690256Y-30106453D01*
X69516533Y-30199311D01*
X69328036Y-30256491D01*
X69181125Y-30270960D01*
X69082875Y-30270960D01*
X68935964Y-30256491D01*
X68747467Y-30199311D01*
X68573744Y-30106453D01*
X68573742Y-30106452D01*
X68421472Y-29981488D01*
X68296508Y-29829218D01*
X68290098Y-29817225D01*
X68203649Y-29655493D01*
X68146469Y-29466996D01*
X68127162Y-29270960D01*
X68146469Y-29074924D01*
X68203649Y-28886427D01*
X68296507Y-28712704D01*
X68296508Y-28712702D01*
X68421472Y-28560432D01*
X68573742Y-28435468D01*
X68585735Y-28429058D01*
X68747467Y-28342609D01*
X68935964Y-28285429D01*
X69082875Y-28270960D01*
X69181125Y-28270960D01*
X69328036Y-28285429D01*
X69328036Y-28285429D01*
G37*
G36*
X49008036Y-28285429D02*
G01*
X49196533Y-28342609D01*
X49358265Y-28429058D01*
X49370258Y-28435468D01*
X49522528Y-28560432D01*
X49647492Y-28712702D01*
X49647493Y-28712704D01*
X49740351Y-28886427D01*
X49797531Y-29074924D01*
X49816838Y-29270960D01*
X49797531Y-29466996D01*
X49740351Y-29655493D01*
X49653902Y-29817225D01*
X49647492Y-29829218D01*
X49522528Y-29981488D01*
X49370258Y-30106452D01*
X49370256Y-30106453D01*
X49196533Y-30199311D01*
X49008036Y-30256491D01*
X48861125Y-30270960D01*
X48762875Y-30270960D01*
X48615964Y-30256491D01*
X48427467Y-30199311D01*
X48253744Y-30106453D01*
X48253742Y-30106452D01*
X48101472Y-29981488D01*
X47976508Y-29829218D01*
X47970098Y-29817225D01*
X47883649Y-29655493D01*
X47826469Y-29466996D01*
X47807162Y-29270960D01*
X47826469Y-29074924D01*
X47883649Y-28886427D01*
X47976507Y-28712704D01*
X47976508Y-28712702D01*
X48101472Y-28560432D01*
X48253742Y-28435468D01*
X48265735Y-28429058D01*
X48427467Y-28342609D01*
X48615964Y-28285429D01*
X48762875Y-28270960D01*
X48861125Y-28270960D01*
X49008036Y-28285429D01*
X49008036Y-28285429D01*
G37*
G36*
X38848036Y-28285429D02*
G01*
X39036533Y-28342609D01*
X39198265Y-28429058D01*
X39210258Y-28435468D01*
X39362528Y-28560432D01*
X39487492Y-28712702D01*
X39487493Y-28712704D01*
X39580351Y-28886427D01*
X39637531Y-29074924D01*
X39656838Y-29270960D01*
X39637531Y-29466996D01*
X39580351Y-29655493D01*
X39493902Y-29817225D01*
X39487492Y-29829218D01*
X39362528Y-29981488D01*
X39210258Y-30106452D01*
X39210256Y-30106453D01*
X39036533Y-30199311D01*
X38848036Y-30256491D01*
X38701125Y-30270960D01*
X38602875Y-30270960D01*
X38455964Y-30256491D01*
X38267467Y-30199311D01*
X38093744Y-30106453D01*
X38093742Y-30106452D01*
X37941472Y-29981488D01*
X37816508Y-29829218D01*
X37810098Y-29817225D01*
X37723649Y-29655493D01*
X37666469Y-29466996D01*
X37647162Y-29270960D01*
X37666469Y-29074924D01*
X37723649Y-28886427D01*
X37816507Y-28712704D01*
X37816508Y-28712702D01*
X37941472Y-28560432D01*
X38093742Y-28435468D01*
X38105735Y-28429058D01*
X38267467Y-28342609D01*
X38455964Y-28285429D01*
X38602875Y-28270960D01*
X38701125Y-28270960D01*
X38848036Y-28285429D01*
X38848036Y-28285429D01*
G37*
G36*
X36308036Y-28285429D02*
G01*
X36496533Y-28342609D01*
X36658265Y-28429058D01*
X36670258Y-28435468D01*
X36822528Y-28560432D01*
X36947492Y-28712702D01*
X36947493Y-28712704D01*
X37040351Y-28886427D01*
X37097531Y-29074924D01*
X37116838Y-29270960D01*
X37097531Y-29466996D01*
X37040351Y-29655493D01*
X36953902Y-29817225D01*
X36947492Y-29829218D01*
X36822528Y-29981488D01*
X36670258Y-30106452D01*
X36670256Y-30106453D01*
X36496533Y-30199311D01*
X36308036Y-30256491D01*
X36161125Y-30270960D01*
X36062875Y-30270960D01*
X35915964Y-30256491D01*
X35727467Y-30199311D01*
X35553744Y-30106453D01*
X35553742Y-30106452D01*
X35401472Y-29981488D01*
X35276508Y-29829218D01*
X35270098Y-29817225D01*
X35183649Y-29655493D01*
X35126469Y-29466996D01*
X35107162Y-29270960D01*
X35126469Y-29074924D01*
X35183649Y-28886427D01*
X35276507Y-28712704D01*
X35276508Y-28712702D01*
X35401472Y-28560432D01*
X35553742Y-28435468D01*
X35565735Y-28429058D01*
X35727467Y-28342609D01*
X35915964Y-28285429D01*
X36062875Y-28270960D01*
X36161125Y-28270960D01*
X36308036Y-28285429D01*
X36308036Y-28285429D01*
G37*
G36*
X33768036Y-28285429D02*
G01*
X33956533Y-28342609D01*
X34118265Y-28429058D01*
X34130258Y-28435468D01*
X34282528Y-28560432D01*
X34407492Y-28712702D01*
X34407493Y-28712704D01*
X34500351Y-28886427D01*
X34557531Y-29074924D01*
X34576838Y-29270960D01*
X34557531Y-29466996D01*
X34500351Y-29655493D01*
X34413902Y-29817225D01*
X34407492Y-29829218D01*
X34282528Y-29981488D01*
X34130258Y-30106452D01*
X34130256Y-30106453D01*
X33956533Y-30199311D01*
X33768036Y-30256491D01*
X33621125Y-30270960D01*
X33522875Y-30270960D01*
X33375964Y-30256491D01*
X33187467Y-30199311D01*
X33013744Y-30106453D01*
X33013742Y-30106452D01*
X32861472Y-29981488D01*
X32736508Y-29829218D01*
X32730098Y-29817225D01*
X32643649Y-29655493D01*
X32586469Y-29466996D01*
X32567162Y-29270960D01*
X32586469Y-29074924D01*
X32643649Y-28886427D01*
X32736507Y-28712704D01*
X32736508Y-28712702D01*
X32861472Y-28560432D01*
X33013742Y-28435468D01*
X33025735Y-28429058D01*
X33187467Y-28342609D01*
X33375964Y-28285429D01*
X33522875Y-28270960D01*
X33621125Y-28270960D01*
X33768036Y-28285429D01*
X33768036Y-28285429D01*
G37*
G36*
X31228036Y-28285429D02*
G01*
X31416533Y-28342609D01*
X31578265Y-28429058D01*
X31590258Y-28435468D01*
X31742528Y-28560432D01*
X31867492Y-28712702D01*
X31867493Y-28712704D01*
X31960351Y-28886427D01*
X32017531Y-29074924D01*
X32036838Y-29270960D01*
X32017531Y-29466996D01*
X31960351Y-29655493D01*
X31873902Y-29817225D01*
X31867492Y-29829218D01*
X31742528Y-29981488D01*
X31590258Y-30106452D01*
X31590256Y-30106453D01*
X31416533Y-30199311D01*
X31228036Y-30256491D01*
X31081125Y-30270960D01*
X30982875Y-30270960D01*
X30835964Y-30256491D01*
X30647467Y-30199311D01*
X30473744Y-30106453D01*
X30473742Y-30106452D01*
X30321472Y-29981488D01*
X30196508Y-29829218D01*
X30190098Y-29817225D01*
X30103649Y-29655493D01*
X30046469Y-29466996D01*
X30027162Y-29270960D01*
X30046469Y-29074924D01*
X30103649Y-28886427D01*
X30196507Y-28712704D01*
X30196508Y-28712702D01*
X30321472Y-28560432D01*
X30473742Y-28435468D01*
X30485735Y-28429058D01*
X30647467Y-28342609D01*
X30835964Y-28285429D01*
X30982875Y-28270960D01*
X31081125Y-28270960D01*
X31228036Y-28285429D01*
X31228036Y-28285429D01*
G37*
G36*
X28688036Y-28285429D02*
G01*
X28876533Y-28342609D01*
X29038265Y-28429058D01*
X29050258Y-28435468D01*
X29202528Y-28560432D01*
X29327492Y-28712702D01*
X29327493Y-28712704D01*
X29420351Y-28886427D01*
X29477531Y-29074924D01*
X29496838Y-29270960D01*
X29477531Y-29466996D01*
X29420351Y-29655493D01*
X29333902Y-29817225D01*
X29327492Y-29829218D01*
X29202528Y-29981488D01*
X29050258Y-30106452D01*
X29050256Y-30106453D01*
X28876533Y-30199311D01*
X28688036Y-30256491D01*
X28541125Y-30270960D01*
X28442875Y-30270960D01*
X28295964Y-30256491D01*
X28107467Y-30199311D01*
X27933744Y-30106453D01*
X27933742Y-30106452D01*
X27781472Y-29981488D01*
X27656508Y-29829218D01*
X27650098Y-29817225D01*
X27563649Y-29655493D01*
X27506469Y-29466996D01*
X27487162Y-29270960D01*
X27506469Y-29074924D01*
X27563649Y-28886427D01*
X27656507Y-28712704D01*
X27656508Y-28712702D01*
X27781472Y-28560432D01*
X27933742Y-28435468D01*
X27945735Y-28429058D01*
X28107467Y-28342609D01*
X28295964Y-28285429D01*
X28442875Y-28270960D01*
X28541125Y-28270960D01*
X28688036Y-28285429D01*
X28688036Y-28285429D01*
G37*
G36*
X26148036Y-28285429D02*
G01*
X26336533Y-28342609D01*
X26498265Y-28429058D01*
X26510258Y-28435468D01*
X26662528Y-28560432D01*
X26787492Y-28712702D01*
X26787493Y-28712704D01*
X26880351Y-28886427D01*
X26937531Y-29074924D01*
X26956838Y-29270960D01*
X26937531Y-29466996D01*
X26880351Y-29655493D01*
X26793902Y-29817225D01*
X26787492Y-29829218D01*
X26662528Y-29981488D01*
X26510258Y-30106452D01*
X26510256Y-30106453D01*
X26336533Y-30199311D01*
X26148036Y-30256491D01*
X26001125Y-30270960D01*
X25902875Y-30270960D01*
X25755964Y-30256491D01*
X25567467Y-30199311D01*
X25393744Y-30106453D01*
X25393742Y-30106452D01*
X25241472Y-29981488D01*
X25116508Y-29829218D01*
X25110098Y-29817225D01*
X25023649Y-29655493D01*
X24966469Y-29466996D01*
X24947162Y-29270960D01*
X24966469Y-29074924D01*
X25023649Y-28886427D01*
X25116507Y-28712704D01*
X25116508Y-28712702D01*
X25241472Y-28560432D01*
X25393742Y-28435468D01*
X25405735Y-28429058D01*
X25567467Y-28342609D01*
X25755964Y-28285429D01*
X25902875Y-28270960D01*
X26001125Y-28270960D01*
X26148036Y-28285429D01*
X26148036Y-28285429D01*
G37*
G36*
X23608036Y-28285429D02*
G01*
X23796533Y-28342609D01*
X23958265Y-28429058D01*
X23970258Y-28435468D01*
X24122528Y-28560432D01*
X24247492Y-28712702D01*
X24247493Y-28712704D01*
X24340351Y-28886427D01*
X24397531Y-29074924D01*
X24416838Y-29270960D01*
X24397531Y-29466996D01*
X24340351Y-29655493D01*
X24253902Y-29817225D01*
X24247492Y-29829218D01*
X24122528Y-29981488D01*
X23970258Y-30106452D01*
X23970256Y-30106453D01*
X23796533Y-30199311D01*
X23608036Y-30256491D01*
X23461125Y-30270960D01*
X23362875Y-30270960D01*
X23215964Y-30256491D01*
X23027467Y-30199311D01*
X22853744Y-30106453D01*
X22853742Y-30106452D01*
X22701472Y-29981488D01*
X22576508Y-29829218D01*
X22570098Y-29817225D01*
X22483649Y-29655493D01*
X22426469Y-29466996D01*
X22407162Y-29270960D01*
X22426469Y-29074924D01*
X22483649Y-28886427D01*
X22576507Y-28712704D01*
X22576508Y-28712702D01*
X22701472Y-28560432D01*
X22853742Y-28435468D01*
X22865735Y-28429058D01*
X23027467Y-28342609D01*
X23215964Y-28285429D01*
X23362875Y-28270960D01*
X23461125Y-28270960D01*
X23608036Y-28285429D01*
X23608036Y-28285429D01*
G37*
G36*
X21872000Y-30270960D02*
G01*
X19872000Y-30270960D01*
X19872000Y-28270960D01*
X21872000Y-28270960D01*
X21872000Y-30270960D01*
X21872000Y-30270960D01*
G37*
G36*
X26148036Y-25745429D02*
G01*
X26336533Y-25802609D01*
X26498265Y-25889058D01*
X26510258Y-25895468D01*
X26662528Y-26020432D01*
X26787492Y-26172702D01*
X26787493Y-26172704D01*
X26880351Y-26346427D01*
X26937531Y-26534924D01*
X26956838Y-26730960D01*
X26937531Y-26926996D01*
X26880351Y-27115493D01*
X26793902Y-27277225D01*
X26787492Y-27289218D01*
X26662528Y-27441488D01*
X26510258Y-27566452D01*
X26510256Y-27566453D01*
X26336533Y-27659311D01*
X26148036Y-27716491D01*
X26001125Y-27730960D01*
X25902875Y-27730960D01*
X25755964Y-27716491D01*
X25567467Y-27659311D01*
X25393744Y-27566453D01*
X25393742Y-27566452D01*
X25241472Y-27441488D01*
X25116508Y-27289218D01*
X25110098Y-27277225D01*
X25023649Y-27115493D01*
X24966469Y-26926996D01*
X24947162Y-26730960D01*
X24966469Y-26534924D01*
X25023649Y-26346427D01*
X25116507Y-26172704D01*
X25116508Y-26172702D01*
X25241472Y-26020432D01*
X25393742Y-25895468D01*
X25405735Y-25889058D01*
X25567467Y-25802609D01*
X25755964Y-25745429D01*
X25902875Y-25730960D01*
X26001125Y-25730960D01*
X26148036Y-25745429D01*
X26148036Y-25745429D01*
G37*
G36*
X21068036Y-25745429D02*
G01*
X21256533Y-25802609D01*
X21418265Y-25889058D01*
X21430258Y-25895468D01*
X21582528Y-26020432D01*
X21707492Y-26172702D01*
X21707493Y-26172704D01*
X21800351Y-26346427D01*
X21857531Y-26534924D01*
X21876838Y-26730960D01*
X21857531Y-26926996D01*
X21800351Y-27115493D01*
X21713902Y-27277225D01*
X21707492Y-27289218D01*
X21582528Y-27441488D01*
X21430258Y-27566452D01*
X21430256Y-27566453D01*
X21256533Y-27659311D01*
X21068036Y-27716491D01*
X20921125Y-27730960D01*
X20822875Y-27730960D01*
X20675964Y-27716491D01*
X20487467Y-27659311D01*
X20313744Y-27566453D01*
X20313742Y-27566452D01*
X20161472Y-27441488D01*
X20036508Y-27289218D01*
X20030098Y-27277225D01*
X19943649Y-27115493D01*
X19886469Y-26926996D01*
X19867162Y-26730960D01*
X19886469Y-26534924D01*
X19943649Y-26346427D01*
X20036507Y-26172704D01*
X20036508Y-26172702D01*
X20161472Y-26020432D01*
X20313742Y-25895468D01*
X20325735Y-25889058D01*
X20487467Y-25802609D01*
X20675964Y-25745429D01*
X20822875Y-25730960D01*
X20921125Y-25730960D01*
X21068036Y-25745429D01*
X21068036Y-25745429D01*
G37*
G36*
X23608036Y-25745429D02*
G01*
X23796533Y-25802609D01*
X23958265Y-25889058D01*
X23970258Y-25895468D01*
X24122528Y-26020432D01*
X24247492Y-26172702D01*
X24247493Y-26172704D01*
X24340351Y-26346427D01*
X24397531Y-26534924D01*
X24416838Y-26730960D01*
X24397531Y-26926996D01*
X24340351Y-27115493D01*
X24253902Y-27277225D01*
X24247492Y-27289218D01*
X24122528Y-27441488D01*
X23970258Y-27566452D01*
X23970256Y-27566453D01*
X23796533Y-27659311D01*
X23608036Y-27716491D01*
X23461125Y-27730960D01*
X23362875Y-27730960D01*
X23215964Y-27716491D01*
X23027467Y-27659311D01*
X22853744Y-27566453D01*
X22853742Y-27566452D01*
X22701472Y-27441488D01*
X22576508Y-27289218D01*
X22570098Y-27277225D01*
X22483649Y-27115493D01*
X22426469Y-26926996D01*
X22407162Y-26730960D01*
X22426469Y-26534924D01*
X22483649Y-26346427D01*
X22576507Y-26172704D01*
X22576508Y-26172702D01*
X22701472Y-26020432D01*
X22853742Y-25895468D01*
X22865735Y-25889058D01*
X23027467Y-25802609D01*
X23215964Y-25745429D01*
X23362875Y-25730960D01*
X23461125Y-25730960D01*
X23608036Y-25745429D01*
X23608036Y-25745429D01*
G37*
G36*
X69328036Y-25745429D02*
G01*
X69516533Y-25802609D01*
X69678265Y-25889058D01*
X69690258Y-25895468D01*
X69842528Y-26020432D01*
X69967492Y-26172702D01*
X69967493Y-26172704D01*
X70060351Y-26346427D01*
X70117531Y-26534924D01*
X70136838Y-26730960D01*
X70117531Y-26926996D01*
X70060351Y-27115493D01*
X69973902Y-27277225D01*
X69967492Y-27289218D01*
X69842528Y-27441488D01*
X69690258Y-27566452D01*
X69690256Y-27566453D01*
X69516533Y-27659311D01*
X69328036Y-27716491D01*
X69181125Y-27730960D01*
X69082875Y-27730960D01*
X68935964Y-27716491D01*
X68747467Y-27659311D01*
X68573744Y-27566453D01*
X68573742Y-27566452D01*
X68421472Y-27441488D01*
X68296508Y-27289218D01*
X68290098Y-27277225D01*
X68203649Y-27115493D01*
X68146469Y-26926996D01*
X68127162Y-26730960D01*
X68146469Y-26534924D01*
X68203649Y-26346427D01*
X68296507Y-26172704D01*
X68296508Y-26172702D01*
X68421472Y-26020432D01*
X68573742Y-25895468D01*
X68585735Y-25889058D01*
X68747467Y-25802609D01*
X68935964Y-25745429D01*
X69082875Y-25730960D01*
X69181125Y-25730960D01*
X69328036Y-25745429D01*
X69328036Y-25745429D01*
G37*
G36*
X66788036Y-25745429D02*
G01*
X66976533Y-25802609D01*
X67138265Y-25889058D01*
X67150258Y-25895468D01*
X67302528Y-26020432D01*
X67427492Y-26172702D01*
X67427493Y-26172704D01*
X67520351Y-26346427D01*
X67577531Y-26534924D01*
X67596838Y-26730960D01*
X67577531Y-26926996D01*
X67520351Y-27115493D01*
X67433902Y-27277225D01*
X67427492Y-27289218D01*
X67302528Y-27441488D01*
X67150258Y-27566452D01*
X67150256Y-27566453D01*
X66976533Y-27659311D01*
X66788036Y-27716491D01*
X66641125Y-27730960D01*
X66542875Y-27730960D01*
X66395964Y-27716491D01*
X66207467Y-27659311D01*
X66033744Y-27566453D01*
X66033742Y-27566452D01*
X65881472Y-27441488D01*
X65756508Y-27289218D01*
X65750098Y-27277225D01*
X65663649Y-27115493D01*
X65606469Y-26926996D01*
X65587162Y-26730960D01*
X65606469Y-26534924D01*
X65663649Y-26346427D01*
X65756507Y-26172704D01*
X65756508Y-26172702D01*
X65881472Y-26020432D01*
X66033742Y-25895468D01*
X66045735Y-25889058D01*
X66207467Y-25802609D01*
X66395964Y-25745429D01*
X66542875Y-25730960D01*
X66641125Y-25730960D01*
X66788036Y-25745429D01*
X66788036Y-25745429D01*
G37*
G36*
X64248036Y-25745429D02*
G01*
X64436533Y-25802609D01*
X64598265Y-25889058D01*
X64610258Y-25895468D01*
X64762528Y-26020432D01*
X64887492Y-26172702D01*
X64887493Y-26172704D01*
X64980351Y-26346427D01*
X65037531Y-26534924D01*
X65056838Y-26730960D01*
X65037531Y-26926996D01*
X64980351Y-27115493D01*
X64893902Y-27277225D01*
X64887492Y-27289218D01*
X64762528Y-27441488D01*
X64610258Y-27566452D01*
X64610256Y-27566453D01*
X64436533Y-27659311D01*
X64248036Y-27716491D01*
X64101125Y-27730960D01*
X64002875Y-27730960D01*
X63855964Y-27716491D01*
X63667467Y-27659311D01*
X63493744Y-27566453D01*
X63493742Y-27566452D01*
X63341472Y-27441488D01*
X63216508Y-27289218D01*
X63210098Y-27277225D01*
X63123649Y-27115493D01*
X63066469Y-26926996D01*
X63047162Y-26730960D01*
X63066469Y-26534924D01*
X63123649Y-26346427D01*
X63216507Y-26172704D01*
X63216508Y-26172702D01*
X63341472Y-26020432D01*
X63493742Y-25895468D01*
X63505735Y-25889058D01*
X63667467Y-25802609D01*
X63855964Y-25745429D01*
X64002875Y-25730960D01*
X64101125Y-25730960D01*
X64248036Y-25745429D01*
X64248036Y-25745429D01*
G37*
G36*
X61708036Y-25745429D02*
G01*
X61896533Y-25802609D01*
X62058265Y-25889058D01*
X62070258Y-25895468D01*
X62222528Y-26020432D01*
X62347492Y-26172702D01*
X62347493Y-26172704D01*
X62440351Y-26346427D01*
X62497531Y-26534924D01*
X62516838Y-26730960D01*
X62497531Y-26926996D01*
X62440351Y-27115493D01*
X62353902Y-27277225D01*
X62347492Y-27289218D01*
X62222528Y-27441488D01*
X62070258Y-27566452D01*
X62070256Y-27566453D01*
X61896533Y-27659311D01*
X61708036Y-27716491D01*
X61561125Y-27730960D01*
X61462875Y-27730960D01*
X61315964Y-27716491D01*
X61127467Y-27659311D01*
X60953744Y-27566453D01*
X60953742Y-27566452D01*
X60801472Y-27441488D01*
X60676508Y-27289218D01*
X60670098Y-27277225D01*
X60583649Y-27115493D01*
X60526469Y-26926996D01*
X60507162Y-26730960D01*
X60526469Y-26534924D01*
X60583649Y-26346427D01*
X60676507Y-26172704D01*
X60676508Y-26172702D01*
X60801472Y-26020432D01*
X60953742Y-25895468D01*
X60965735Y-25889058D01*
X61127467Y-25802609D01*
X61315964Y-25745429D01*
X61462875Y-25730960D01*
X61561125Y-25730960D01*
X61708036Y-25745429D01*
X61708036Y-25745429D01*
G37*
G36*
X59168036Y-25745429D02*
G01*
X59356533Y-25802609D01*
X59518265Y-25889058D01*
X59530258Y-25895468D01*
X59682528Y-26020432D01*
X59807492Y-26172702D01*
X59807493Y-26172704D01*
X59900351Y-26346427D01*
X59957531Y-26534924D01*
X59976838Y-26730960D01*
X59957531Y-26926996D01*
X59900351Y-27115493D01*
X59813902Y-27277225D01*
X59807492Y-27289218D01*
X59682528Y-27441488D01*
X59530258Y-27566452D01*
X59530256Y-27566453D01*
X59356533Y-27659311D01*
X59168036Y-27716491D01*
X59021125Y-27730960D01*
X58922875Y-27730960D01*
X58775964Y-27716491D01*
X58587467Y-27659311D01*
X58413744Y-27566453D01*
X58413742Y-27566452D01*
X58261472Y-27441488D01*
X58136508Y-27289218D01*
X58130098Y-27277225D01*
X58043649Y-27115493D01*
X57986469Y-26926996D01*
X57967162Y-26730960D01*
X57986469Y-26534924D01*
X58043649Y-26346427D01*
X58136507Y-26172704D01*
X58136508Y-26172702D01*
X58261472Y-26020432D01*
X58413742Y-25895468D01*
X58425735Y-25889058D01*
X58587467Y-25802609D01*
X58775964Y-25745429D01*
X58922875Y-25730960D01*
X59021125Y-25730960D01*
X59168036Y-25745429D01*
X59168036Y-25745429D01*
G37*
G36*
X56628036Y-25745429D02*
G01*
X56816533Y-25802609D01*
X56978265Y-25889058D01*
X56990258Y-25895468D01*
X57142528Y-26020432D01*
X57267492Y-26172702D01*
X57267493Y-26172704D01*
X57360351Y-26346427D01*
X57417531Y-26534924D01*
X57436838Y-26730960D01*
X57417531Y-26926996D01*
X57360351Y-27115493D01*
X57273902Y-27277225D01*
X57267492Y-27289218D01*
X57142528Y-27441488D01*
X56990258Y-27566452D01*
X56990256Y-27566453D01*
X56816533Y-27659311D01*
X56628036Y-27716491D01*
X56481125Y-27730960D01*
X56382875Y-27730960D01*
X56235964Y-27716491D01*
X56047467Y-27659311D01*
X55873744Y-27566453D01*
X55873742Y-27566452D01*
X55721472Y-27441488D01*
X55596508Y-27289218D01*
X55590098Y-27277225D01*
X55503649Y-27115493D01*
X55446469Y-26926996D01*
X55427162Y-26730960D01*
X55446469Y-26534924D01*
X55503649Y-26346427D01*
X55596507Y-26172704D01*
X55596508Y-26172702D01*
X55721472Y-26020432D01*
X55873742Y-25895468D01*
X55885735Y-25889058D01*
X56047467Y-25802609D01*
X56235964Y-25745429D01*
X56382875Y-25730960D01*
X56481125Y-25730960D01*
X56628036Y-25745429D01*
X56628036Y-25745429D01*
G37*
G36*
X54088036Y-25745429D02*
G01*
X54276533Y-25802609D01*
X54438265Y-25889058D01*
X54450258Y-25895468D01*
X54602528Y-26020432D01*
X54727492Y-26172702D01*
X54727493Y-26172704D01*
X54820351Y-26346427D01*
X54877531Y-26534924D01*
X54896838Y-26730960D01*
X54877531Y-26926996D01*
X54820351Y-27115493D01*
X54733902Y-27277225D01*
X54727492Y-27289218D01*
X54602528Y-27441488D01*
X54450258Y-27566452D01*
X54450256Y-27566453D01*
X54276533Y-27659311D01*
X54088036Y-27716491D01*
X53941125Y-27730960D01*
X53842875Y-27730960D01*
X53695964Y-27716491D01*
X53507467Y-27659311D01*
X53333744Y-27566453D01*
X53333742Y-27566452D01*
X53181472Y-27441488D01*
X53056508Y-27289218D01*
X53050098Y-27277225D01*
X52963649Y-27115493D01*
X52906469Y-26926996D01*
X52887162Y-26730960D01*
X52906469Y-26534924D01*
X52963649Y-26346427D01*
X53056507Y-26172704D01*
X53056508Y-26172702D01*
X53181472Y-26020432D01*
X53333742Y-25895468D01*
X53345735Y-25889058D01*
X53507467Y-25802609D01*
X53695964Y-25745429D01*
X53842875Y-25730960D01*
X53941125Y-25730960D01*
X54088036Y-25745429D01*
X54088036Y-25745429D01*
G37*
G36*
X51548036Y-25745429D02*
G01*
X51736533Y-25802609D01*
X51898265Y-25889058D01*
X51910258Y-25895468D01*
X52062528Y-26020432D01*
X52187492Y-26172702D01*
X52187493Y-26172704D01*
X52280351Y-26346427D01*
X52337531Y-26534924D01*
X52356838Y-26730960D01*
X52337531Y-26926996D01*
X52280351Y-27115493D01*
X52193902Y-27277225D01*
X52187492Y-27289218D01*
X52062528Y-27441488D01*
X51910258Y-27566452D01*
X51910256Y-27566453D01*
X51736533Y-27659311D01*
X51548036Y-27716491D01*
X51401125Y-27730960D01*
X51302875Y-27730960D01*
X51155964Y-27716491D01*
X50967467Y-27659311D01*
X50793744Y-27566453D01*
X50793742Y-27566452D01*
X50641472Y-27441488D01*
X50516508Y-27289218D01*
X50510098Y-27277225D01*
X50423649Y-27115493D01*
X50366469Y-26926996D01*
X50347162Y-26730960D01*
X50366469Y-26534924D01*
X50423649Y-26346427D01*
X50516507Y-26172704D01*
X50516508Y-26172702D01*
X50641472Y-26020432D01*
X50793742Y-25895468D01*
X50805735Y-25889058D01*
X50967467Y-25802609D01*
X51155964Y-25745429D01*
X51302875Y-25730960D01*
X51401125Y-25730960D01*
X51548036Y-25745429D01*
X51548036Y-25745429D01*
G37*
G36*
X49008036Y-25745429D02*
G01*
X49196533Y-25802609D01*
X49358265Y-25889058D01*
X49370258Y-25895468D01*
X49522528Y-26020432D01*
X49647492Y-26172702D01*
X49647493Y-26172704D01*
X49740351Y-26346427D01*
X49797531Y-26534924D01*
X49816838Y-26730960D01*
X49797531Y-26926996D01*
X49740351Y-27115493D01*
X49653902Y-27277225D01*
X49647492Y-27289218D01*
X49522528Y-27441488D01*
X49370258Y-27566452D01*
X49370256Y-27566453D01*
X49196533Y-27659311D01*
X49008036Y-27716491D01*
X48861125Y-27730960D01*
X48762875Y-27730960D01*
X48615964Y-27716491D01*
X48427467Y-27659311D01*
X48253744Y-27566453D01*
X48253742Y-27566452D01*
X48101472Y-27441488D01*
X47976508Y-27289218D01*
X47970098Y-27277225D01*
X47883649Y-27115493D01*
X47826469Y-26926996D01*
X47807162Y-26730960D01*
X47826469Y-26534924D01*
X47883649Y-26346427D01*
X47976507Y-26172704D01*
X47976508Y-26172702D01*
X48101472Y-26020432D01*
X48253742Y-25895468D01*
X48265735Y-25889058D01*
X48427467Y-25802609D01*
X48615964Y-25745429D01*
X48762875Y-25730960D01*
X48861125Y-25730960D01*
X49008036Y-25745429D01*
X49008036Y-25745429D01*
G37*
G36*
X46468036Y-25745429D02*
G01*
X46656533Y-25802609D01*
X46818265Y-25889058D01*
X46830258Y-25895468D01*
X46982528Y-26020432D01*
X47107492Y-26172702D01*
X47107493Y-26172704D01*
X47200351Y-26346427D01*
X47257531Y-26534924D01*
X47276838Y-26730960D01*
X47257531Y-26926996D01*
X47200351Y-27115493D01*
X47113902Y-27277225D01*
X47107492Y-27289218D01*
X46982528Y-27441488D01*
X46830258Y-27566452D01*
X46830256Y-27566453D01*
X46656533Y-27659311D01*
X46468036Y-27716491D01*
X46321125Y-27730960D01*
X46222875Y-27730960D01*
X46075964Y-27716491D01*
X45887467Y-27659311D01*
X45713744Y-27566453D01*
X45713742Y-27566452D01*
X45561472Y-27441488D01*
X45436508Y-27289218D01*
X45430098Y-27277225D01*
X45343649Y-27115493D01*
X45286469Y-26926996D01*
X45267162Y-26730960D01*
X45286469Y-26534924D01*
X45343649Y-26346427D01*
X45436507Y-26172704D01*
X45436508Y-26172702D01*
X45561472Y-26020432D01*
X45713742Y-25895468D01*
X45725735Y-25889058D01*
X45887467Y-25802609D01*
X46075964Y-25745429D01*
X46222875Y-25730960D01*
X46321125Y-25730960D01*
X46468036Y-25745429D01*
X46468036Y-25745429D01*
G37*
G36*
X41388036Y-25745429D02*
G01*
X41576533Y-25802609D01*
X41738265Y-25889058D01*
X41750258Y-25895468D01*
X41902528Y-26020432D01*
X42027492Y-26172702D01*
X42027493Y-26172704D01*
X42120351Y-26346427D01*
X42177531Y-26534924D01*
X42196838Y-26730960D01*
X42177531Y-26926996D01*
X42120351Y-27115493D01*
X42033902Y-27277225D01*
X42027492Y-27289218D01*
X41902528Y-27441488D01*
X41750258Y-27566452D01*
X41750256Y-27566453D01*
X41576533Y-27659311D01*
X41388036Y-27716491D01*
X41241125Y-27730960D01*
X41142875Y-27730960D01*
X40995964Y-27716491D01*
X40807467Y-27659311D01*
X40633744Y-27566453D01*
X40633742Y-27566452D01*
X40481472Y-27441488D01*
X40356508Y-27289218D01*
X40350098Y-27277225D01*
X40263649Y-27115493D01*
X40206469Y-26926996D01*
X40187162Y-26730960D01*
X40206469Y-26534924D01*
X40263649Y-26346427D01*
X40356507Y-26172704D01*
X40356508Y-26172702D01*
X40481472Y-26020432D01*
X40633742Y-25895468D01*
X40645735Y-25889058D01*
X40807467Y-25802609D01*
X40995964Y-25745429D01*
X41142875Y-25730960D01*
X41241125Y-25730960D01*
X41388036Y-25745429D01*
X41388036Y-25745429D01*
G37*
G36*
X38848036Y-25745429D02*
G01*
X39036533Y-25802609D01*
X39198265Y-25889058D01*
X39210258Y-25895468D01*
X39362528Y-26020432D01*
X39487492Y-26172702D01*
X39487493Y-26172704D01*
X39580351Y-26346427D01*
X39637531Y-26534924D01*
X39656838Y-26730960D01*
X39637531Y-26926996D01*
X39580351Y-27115493D01*
X39493902Y-27277225D01*
X39487492Y-27289218D01*
X39362528Y-27441488D01*
X39210258Y-27566452D01*
X39210256Y-27566453D01*
X39036533Y-27659311D01*
X38848036Y-27716491D01*
X38701125Y-27730960D01*
X38602875Y-27730960D01*
X38455964Y-27716491D01*
X38267467Y-27659311D01*
X38093744Y-27566453D01*
X38093742Y-27566452D01*
X37941472Y-27441488D01*
X37816508Y-27289218D01*
X37810098Y-27277225D01*
X37723649Y-27115493D01*
X37666469Y-26926996D01*
X37647162Y-26730960D01*
X37666469Y-26534924D01*
X37723649Y-26346427D01*
X37816507Y-26172704D01*
X37816508Y-26172702D01*
X37941472Y-26020432D01*
X38093742Y-25895468D01*
X38105735Y-25889058D01*
X38267467Y-25802609D01*
X38455964Y-25745429D01*
X38602875Y-25730960D01*
X38701125Y-25730960D01*
X38848036Y-25745429D01*
X38848036Y-25745429D01*
G37*
G36*
X36308036Y-25745429D02*
G01*
X36496533Y-25802609D01*
X36658265Y-25889058D01*
X36670258Y-25895468D01*
X36822528Y-26020432D01*
X36947492Y-26172702D01*
X36947493Y-26172704D01*
X37040351Y-26346427D01*
X37097531Y-26534924D01*
X37116838Y-26730960D01*
X37097531Y-26926996D01*
X37040351Y-27115493D01*
X36953902Y-27277225D01*
X36947492Y-27289218D01*
X36822528Y-27441488D01*
X36670258Y-27566452D01*
X36670256Y-27566453D01*
X36496533Y-27659311D01*
X36308036Y-27716491D01*
X36161125Y-27730960D01*
X36062875Y-27730960D01*
X35915964Y-27716491D01*
X35727467Y-27659311D01*
X35553744Y-27566453D01*
X35553742Y-27566452D01*
X35401472Y-27441488D01*
X35276508Y-27289218D01*
X35270098Y-27277225D01*
X35183649Y-27115493D01*
X35126469Y-26926996D01*
X35107162Y-26730960D01*
X35126469Y-26534924D01*
X35183649Y-26346427D01*
X35276507Y-26172704D01*
X35276508Y-26172702D01*
X35401472Y-26020432D01*
X35553742Y-25895468D01*
X35565735Y-25889058D01*
X35727467Y-25802609D01*
X35915964Y-25745429D01*
X36062875Y-25730960D01*
X36161125Y-25730960D01*
X36308036Y-25745429D01*
X36308036Y-25745429D01*
G37*
G36*
X33768036Y-25745429D02*
G01*
X33956533Y-25802609D01*
X34118265Y-25889058D01*
X34130258Y-25895468D01*
X34282528Y-26020432D01*
X34407492Y-26172702D01*
X34407493Y-26172704D01*
X34500351Y-26346427D01*
X34557531Y-26534924D01*
X34576838Y-26730960D01*
X34557531Y-26926996D01*
X34500351Y-27115493D01*
X34413902Y-27277225D01*
X34407492Y-27289218D01*
X34282528Y-27441488D01*
X34130258Y-27566452D01*
X34130256Y-27566453D01*
X33956533Y-27659311D01*
X33768036Y-27716491D01*
X33621125Y-27730960D01*
X33522875Y-27730960D01*
X33375964Y-27716491D01*
X33187467Y-27659311D01*
X33013744Y-27566453D01*
X33013742Y-27566452D01*
X32861472Y-27441488D01*
X32736508Y-27289218D01*
X32730098Y-27277225D01*
X32643649Y-27115493D01*
X32586469Y-26926996D01*
X32567162Y-26730960D01*
X32586469Y-26534924D01*
X32643649Y-26346427D01*
X32736507Y-26172704D01*
X32736508Y-26172702D01*
X32861472Y-26020432D01*
X33013742Y-25895468D01*
X33025735Y-25889058D01*
X33187467Y-25802609D01*
X33375964Y-25745429D01*
X33522875Y-25730960D01*
X33621125Y-25730960D01*
X33768036Y-25745429D01*
X33768036Y-25745429D01*
G37*
G36*
X31228036Y-25745429D02*
G01*
X31416533Y-25802609D01*
X31578265Y-25889058D01*
X31590258Y-25895468D01*
X31742528Y-26020432D01*
X31867492Y-26172702D01*
X31867493Y-26172704D01*
X31960351Y-26346427D01*
X32017531Y-26534924D01*
X32036838Y-26730960D01*
X32017531Y-26926996D01*
X31960351Y-27115493D01*
X31873902Y-27277225D01*
X31867492Y-27289218D01*
X31742528Y-27441488D01*
X31590258Y-27566452D01*
X31590256Y-27566453D01*
X31416533Y-27659311D01*
X31228036Y-27716491D01*
X31081125Y-27730960D01*
X30982875Y-27730960D01*
X30835964Y-27716491D01*
X30647467Y-27659311D01*
X30473744Y-27566453D01*
X30473742Y-27566452D01*
X30321472Y-27441488D01*
X30196508Y-27289218D01*
X30190098Y-27277225D01*
X30103649Y-27115493D01*
X30046469Y-26926996D01*
X30027162Y-26730960D01*
X30046469Y-26534924D01*
X30103649Y-26346427D01*
X30196507Y-26172704D01*
X30196508Y-26172702D01*
X30321472Y-26020432D01*
X30473742Y-25895468D01*
X30485735Y-25889058D01*
X30647467Y-25802609D01*
X30835964Y-25745429D01*
X30982875Y-25730960D01*
X31081125Y-25730960D01*
X31228036Y-25745429D01*
X31228036Y-25745429D01*
G37*
G36*
X43928036Y-25745429D02*
G01*
X44116533Y-25802609D01*
X44278265Y-25889058D01*
X44290258Y-25895468D01*
X44442528Y-26020432D01*
X44567492Y-26172702D01*
X44567493Y-26172704D01*
X44660351Y-26346427D01*
X44717531Y-26534924D01*
X44736838Y-26730960D01*
X44717531Y-26926996D01*
X44660351Y-27115493D01*
X44573902Y-27277225D01*
X44567492Y-27289218D01*
X44442528Y-27441488D01*
X44290258Y-27566452D01*
X44290256Y-27566453D01*
X44116533Y-27659311D01*
X43928036Y-27716491D01*
X43781125Y-27730960D01*
X43682875Y-27730960D01*
X43535964Y-27716491D01*
X43347467Y-27659311D01*
X43173744Y-27566453D01*
X43173742Y-27566452D01*
X43021472Y-27441488D01*
X42896508Y-27289218D01*
X42890098Y-27277225D01*
X42803649Y-27115493D01*
X42746469Y-26926996D01*
X42727162Y-26730960D01*
X42746469Y-26534924D01*
X42803649Y-26346427D01*
X42896507Y-26172704D01*
X42896508Y-26172702D01*
X43021472Y-26020432D01*
X43173742Y-25895468D01*
X43185735Y-25889058D01*
X43347467Y-25802609D01*
X43535964Y-25745429D01*
X43682875Y-25730960D01*
X43781125Y-25730960D01*
X43928036Y-25745429D01*
X43928036Y-25745429D01*
G37*
G36*
X28688036Y-25745429D02*
G01*
X28876533Y-25802609D01*
X29038265Y-25889058D01*
X29050258Y-25895468D01*
X29202528Y-26020432D01*
X29327492Y-26172702D01*
X29327493Y-26172704D01*
X29420351Y-26346427D01*
X29477531Y-26534924D01*
X29496838Y-26730960D01*
X29477531Y-26926996D01*
X29420351Y-27115493D01*
X29333902Y-27277225D01*
X29327492Y-27289218D01*
X29202528Y-27441488D01*
X29050258Y-27566452D01*
X29050256Y-27566453D01*
X28876533Y-27659311D01*
X28688036Y-27716491D01*
X28541125Y-27730960D01*
X28442875Y-27730960D01*
X28295964Y-27716491D01*
X28107467Y-27659311D01*
X27933744Y-27566453D01*
X27933742Y-27566452D01*
X27781472Y-27441488D01*
X27656508Y-27289218D01*
X27650098Y-27277225D01*
X27563649Y-27115493D01*
X27506469Y-26926996D01*
X27487162Y-26730960D01*
X27506469Y-26534924D01*
X27563649Y-26346427D01*
X27656507Y-26172704D01*
X27656508Y-26172702D01*
X27781472Y-26020432D01*
X27933742Y-25895468D01*
X27945735Y-25889058D01*
X28107467Y-25802609D01*
X28295964Y-25745429D01*
X28442875Y-25730960D01*
X28541125Y-25730960D01*
X28688036Y-25745429D01*
X28688036Y-25745429D01*
G37*
M02*
