G04 #@! TF.GenerationSoftware,KiCad,Pcbnew,5.1.9-73d0e3b20d~88~ubuntu20.10.1*
G04 #@! TF.CreationDate,2021-03-28T07:48:37+01:00*
G04 #@! TF.ProjectId,videoslotadapter,76696465-6f73-46c6-9f74-616461707465,rev?*
G04 #@! TF.SameCoordinates,Original*
G04 #@! TF.FileFunction,Soldermask,Bot*
G04 #@! TF.FilePolarity,Negative*
%FSLAX46Y46*%
G04 Gerber Fmt 4.6, Leading zero omitted, Abs format (unit mm)*
G04 Created by KiCad (PCBNEW 5.1.9-73d0e3b20d~88~ubuntu20.10.1) date 2021-03-28 07:48:37*
%MOMM*%
%LPD*%
G01*
G04 APERTURE LIST*
%ADD10C,4.464000*%
%ADD11O,2.100000X2.100000*%
G04 APERTURE END LIST*
D10*
X236207300Y-100502720D03*
X236207300Y-64546480D03*
G36*
G01*
X208464000Y-116082000D02*
X208464000Y-108462000D01*
G75*
G02*
X208664000Y-108262000I200000J0D01*
G01*
X210444000Y-108262000D01*
G75*
G02*
X210644000Y-108462000I0J-200000D01*
G01*
X210644000Y-116082000D01*
G75*
G02*
X210444000Y-116282000I-200000J0D01*
G01*
X208664000Y-116282000D01*
G75*
G02*
X208464000Y-116082000I0J200000D01*
G01*
G37*
G36*
G01*
X205924000Y-116082000D02*
X205924000Y-108462000D01*
G75*
G02*
X206124000Y-108262000I200000J0D01*
G01*
X207904000Y-108262000D01*
G75*
G02*
X208104000Y-108462000I0J-200000D01*
G01*
X208104000Y-116082000D01*
G75*
G02*
X207904000Y-116282000I-200000J0D01*
G01*
X206124000Y-116282000D01*
G75*
G02*
X205924000Y-116082000I0J200000D01*
G01*
G37*
G36*
G01*
X203384000Y-116082000D02*
X203384000Y-108462000D01*
G75*
G02*
X203584000Y-108262000I200000J0D01*
G01*
X205364000Y-108262000D01*
G75*
G02*
X205564000Y-108462000I0J-200000D01*
G01*
X205564000Y-116082000D01*
G75*
G02*
X205364000Y-116282000I-200000J0D01*
G01*
X203584000Y-116282000D01*
G75*
G02*
X203384000Y-116082000I0J200000D01*
G01*
G37*
G36*
G01*
X200844000Y-116082000D02*
X200844000Y-108462000D01*
G75*
G02*
X201044000Y-108262000I200000J0D01*
G01*
X202824000Y-108262000D01*
G75*
G02*
X203024000Y-108462000I0J-200000D01*
G01*
X203024000Y-116082000D01*
G75*
G02*
X202824000Y-116282000I-200000J0D01*
G01*
X201044000Y-116282000D01*
G75*
G02*
X200844000Y-116082000I0J200000D01*
G01*
G37*
G36*
G01*
X198304000Y-116082000D02*
X198304000Y-108462000D01*
G75*
G02*
X198504000Y-108262000I200000J0D01*
G01*
X200284000Y-108262000D01*
G75*
G02*
X200484000Y-108462000I0J-200000D01*
G01*
X200484000Y-116082000D01*
G75*
G02*
X200284000Y-116282000I-200000J0D01*
G01*
X198504000Y-116282000D01*
G75*
G02*
X198304000Y-116082000I0J200000D01*
G01*
G37*
G36*
G01*
X195764000Y-116082000D02*
X195764000Y-108462000D01*
G75*
G02*
X195964000Y-108262000I200000J0D01*
G01*
X197744000Y-108262000D01*
G75*
G02*
X197944000Y-108462000I0J-200000D01*
G01*
X197944000Y-116082000D01*
G75*
G02*
X197744000Y-116282000I-200000J0D01*
G01*
X195964000Y-116282000D01*
G75*
G02*
X195764000Y-116082000I0J200000D01*
G01*
G37*
G36*
G01*
X193224000Y-116082000D02*
X193224000Y-108462000D01*
G75*
G02*
X193424000Y-108262000I200000J0D01*
G01*
X195204000Y-108262000D01*
G75*
G02*
X195404000Y-108462000I0J-200000D01*
G01*
X195404000Y-116082000D01*
G75*
G02*
X195204000Y-116282000I-200000J0D01*
G01*
X193424000Y-116282000D01*
G75*
G02*
X193224000Y-116082000I0J200000D01*
G01*
G37*
G36*
G01*
X190684000Y-116082000D02*
X190684000Y-108462000D01*
G75*
G02*
X190884000Y-108262000I200000J0D01*
G01*
X192664000Y-108262000D01*
G75*
G02*
X192864000Y-108462000I0J-200000D01*
G01*
X192864000Y-116082000D01*
G75*
G02*
X192664000Y-116282000I-200000J0D01*
G01*
X190884000Y-116282000D01*
G75*
G02*
X190684000Y-116082000I0J200000D01*
G01*
G37*
G36*
G01*
X188144000Y-116082000D02*
X188144000Y-108462000D01*
G75*
G02*
X188344000Y-108262000I200000J0D01*
G01*
X190124000Y-108262000D01*
G75*
G02*
X190324000Y-108462000I0J-200000D01*
G01*
X190324000Y-116082000D01*
G75*
G02*
X190124000Y-116282000I-200000J0D01*
G01*
X188344000Y-116282000D01*
G75*
G02*
X188144000Y-116082000I0J200000D01*
G01*
G37*
G36*
G01*
X185604000Y-116082000D02*
X185604000Y-108462000D01*
G75*
G02*
X185804000Y-108262000I200000J0D01*
G01*
X187584000Y-108262000D01*
G75*
G02*
X187784000Y-108462000I0J-200000D01*
G01*
X187784000Y-116082000D01*
G75*
G02*
X187584000Y-116282000I-200000J0D01*
G01*
X185804000Y-116282000D01*
G75*
G02*
X185604000Y-116082000I0J200000D01*
G01*
G37*
G36*
G01*
X183064000Y-116082000D02*
X183064000Y-108462000D01*
G75*
G02*
X183264000Y-108262000I200000J0D01*
G01*
X185044000Y-108262000D01*
G75*
G02*
X185244000Y-108462000I0J-200000D01*
G01*
X185244000Y-116082000D01*
G75*
G02*
X185044000Y-116282000I-200000J0D01*
G01*
X183264000Y-116282000D01*
G75*
G02*
X183064000Y-116082000I0J200000D01*
G01*
G37*
G36*
G01*
X180524000Y-116082000D02*
X180524000Y-108462000D01*
G75*
G02*
X180724000Y-108262000I200000J0D01*
G01*
X182504000Y-108262000D01*
G75*
G02*
X182704000Y-108462000I0J-200000D01*
G01*
X182704000Y-116082000D01*
G75*
G02*
X182504000Y-116282000I-200000J0D01*
G01*
X180724000Y-116282000D01*
G75*
G02*
X180524000Y-116082000I0J200000D01*
G01*
G37*
G36*
G01*
X177984000Y-116082000D02*
X177984000Y-108462000D01*
G75*
G02*
X178184000Y-108262000I200000J0D01*
G01*
X179964000Y-108262000D01*
G75*
G02*
X180164000Y-108462000I0J-200000D01*
G01*
X180164000Y-116082000D01*
G75*
G02*
X179964000Y-116282000I-200000J0D01*
G01*
X178184000Y-116282000D01*
G75*
G02*
X177984000Y-116082000I0J200000D01*
G01*
G37*
G36*
G01*
X175444000Y-116082000D02*
X175444000Y-108462000D01*
G75*
G02*
X175644000Y-108262000I200000J0D01*
G01*
X177424000Y-108262000D01*
G75*
G02*
X177624000Y-108462000I0J-200000D01*
G01*
X177624000Y-116082000D01*
G75*
G02*
X177424000Y-116282000I-200000J0D01*
G01*
X175644000Y-116282000D01*
G75*
G02*
X175444000Y-116082000I0J200000D01*
G01*
G37*
G36*
G01*
X172904000Y-116082000D02*
X172904000Y-108462000D01*
G75*
G02*
X173104000Y-108262000I200000J0D01*
G01*
X174884000Y-108262000D01*
G75*
G02*
X175084000Y-108462000I0J-200000D01*
G01*
X175084000Y-116082000D01*
G75*
G02*
X174884000Y-116282000I-200000J0D01*
G01*
X173104000Y-116282000D01*
G75*
G02*
X172904000Y-116082000I0J200000D01*
G01*
G37*
G36*
G01*
X170364000Y-116082000D02*
X170364000Y-108462000D01*
G75*
G02*
X170564000Y-108262000I200000J0D01*
G01*
X172344000Y-108262000D01*
G75*
G02*
X172544000Y-108462000I0J-200000D01*
G01*
X172544000Y-116082000D01*
G75*
G02*
X172344000Y-116282000I-200000J0D01*
G01*
X170564000Y-116282000D01*
G75*
G02*
X170364000Y-116082000I0J200000D01*
G01*
G37*
G36*
G01*
X167824000Y-116082000D02*
X167824000Y-108462000D01*
G75*
G02*
X168024000Y-108262000I200000J0D01*
G01*
X169804000Y-108262000D01*
G75*
G02*
X170004000Y-108462000I0J-200000D01*
G01*
X170004000Y-116082000D01*
G75*
G02*
X169804000Y-116282000I-200000J0D01*
G01*
X168024000Y-116282000D01*
G75*
G02*
X167824000Y-116082000I0J200000D01*
G01*
G37*
G36*
G01*
X165284000Y-116082000D02*
X165284000Y-108462000D01*
G75*
G02*
X165484000Y-108262000I200000J0D01*
G01*
X167264000Y-108262000D01*
G75*
G02*
X167464000Y-108462000I0J-200000D01*
G01*
X167464000Y-116082000D01*
G75*
G02*
X167264000Y-116282000I-200000J0D01*
G01*
X165484000Y-116282000D01*
G75*
G02*
X165284000Y-116082000I0J200000D01*
G01*
G37*
G36*
G01*
X155124000Y-116082000D02*
X155124000Y-108462000D01*
G75*
G02*
X155324000Y-108262000I200000J0D01*
G01*
X157104000Y-108262000D01*
G75*
G02*
X157304000Y-108462000I0J-200000D01*
G01*
X157304000Y-116082000D01*
G75*
G02*
X157104000Y-116282000I-200000J0D01*
G01*
X155324000Y-116282000D01*
G75*
G02*
X155124000Y-116082000I0J200000D01*
G01*
G37*
G36*
G01*
X152584000Y-116082000D02*
X152584000Y-108462000D01*
G75*
G02*
X152784000Y-108262000I200000J0D01*
G01*
X154564000Y-108262000D01*
G75*
G02*
X154764000Y-108462000I0J-200000D01*
G01*
X154764000Y-116082000D01*
G75*
G02*
X154564000Y-116282000I-200000J0D01*
G01*
X152784000Y-116282000D01*
G75*
G02*
X152584000Y-116082000I0J200000D01*
G01*
G37*
G36*
G01*
X150044000Y-116082000D02*
X150044000Y-108462000D01*
G75*
G02*
X150244000Y-108262000I200000J0D01*
G01*
X152024000Y-108262000D01*
G75*
G02*
X152224000Y-108462000I0J-200000D01*
G01*
X152224000Y-116082000D01*
G75*
G02*
X152024000Y-116282000I-200000J0D01*
G01*
X150244000Y-116282000D01*
G75*
G02*
X150044000Y-116082000I0J200000D01*
G01*
G37*
G36*
G01*
X147504000Y-116082000D02*
X147504000Y-108462000D01*
G75*
G02*
X147704000Y-108262000I200000J0D01*
G01*
X149484000Y-108262000D01*
G75*
G02*
X149684000Y-108462000I0J-200000D01*
G01*
X149684000Y-116082000D01*
G75*
G02*
X149484000Y-116282000I-200000J0D01*
G01*
X147704000Y-116282000D01*
G75*
G02*
X147504000Y-116082000I0J200000D01*
G01*
G37*
G36*
G01*
X144964000Y-116082000D02*
X144964000Y-108462000D01*
G75*
G02*
X145164000Y-108262000I200000J0D01*
G01*
X146944000Y-108262000D01*
G75*
G02*
X147144000Y-108462000I0J-200000D01*
G01*
X147144000Y-116082000D01*
G75*
G02*
X146944000Y-116282000I-200000J0D01*
G01*
X145164000Y-116282000D01*
G75*
G02*
X144964000Y-116082000I0J200000D01*
G01*
G37*
G36*
G01*
X142424000Y-116082000D02*
X142424000Y-108462000D01*
G75*
G02*
X142624000Y-108262000I200000J0D01*
G01*
X144404000Y-108262000D01*
G75*
G02*
X144604000Y-108462000I0J-200000D01*
G01*
X144604000Y-116082000D01*
G75*
G02*
X144404000Y-116282000I-200000J0D01*
G01*
X142624000Y-116282000D01*
G75*
G02*
X142424000Y-116082000I0J200000D01*
G01*
G37*
G36*
G01*
X139884000Y-116082000D02*
X139884000Y-108462000D01*
G75*
G02*
X140084000Y-108262000I200000J0D01*
G01*
X141864000Y-108262000D01*
G75*
G02*
X142064000Y-108462000I0J-200000D01*
G01*
X142064000Y-116082000D01*
G75*
G02*
X141864000Y-116282000I-200000J0D01*
G01*
X140084000Y-116282000D01*
G75*
G02*
X139884000Y-116082000I0J200000D01*
G01*
G37*
G36*
G01*
X137344000Y-116082000D02*
X137344000Y-108462000D01*
G75*
G02*
X137544000Y-108262000I200000J0D01*
G01*
X139324000Y-108262000D01*
G75*
G02*
X139524000Y-108462000I0J-200000D01*
G01*
X139524000Y-116082000D01*
G75*
G02*
X139324000Y-116282000I-200000J0D01*
G01*
X137544000Y-116282000D01*
G75*
G02*
X137344000Y-116082000I0J200000D01*
G01*
G37*
G36*
G01*
X134804000Y-116082000D02*
X134804000Y-108462000D01*
G75*
G02*
X135004000Y-108262000I200000J0D01*
G01*
X136784000Y-108262000D01*
G75*
G02*
X136984000Y-108462000I0J-200000D01*
G01*
X136984000Y-116082000D01*
G75*
G02*
X136784000Y-116282000I-200000J0D01*
G01*
X135004000Y-116282000D01*
G75*
G02*
X134804000Y-116082000I0J200000D01*
G01*
G37*
G36*
G01*
X132264000Y-116082000D02*
X132264000Y-108462000D01*
G75*
G02*
X132464000Y-108262000I200000J0D01*
G01*
X134244000Y-108262000D01*
G75*
G02*
X134444000Y-108462000I0J-200000D01*
G01*
X134444000Y-116082000D01*
G75*
G02*
X134244000Y-116282000I-200000J0D01*
G01*
X132464000Y-116282000D01*
G75*
G02*
X132264000Y-116082000I0J200000D01*
G01*
G37*
G36*
G01*
X129724000Y-116082000D02*
X129724000Y-108462000D01*
G75*
G02*
X129924000Y-108262000I200000J0D01*
G01*
X131704000Y-108262000D01*
G75*
G02*
X131904000Y-108462000I0J-200000D01*
G01*
X131904000Y-116082000D01*
G75*
G02*
X131704000Y-116282000I-200000J0D01*
G01*
X129924000Y-116282000D01*
G75*
G02*
X129724000Y-116082000I0J200000D01*
G01*
G37*
G36*
G01*
X127184000Y-116082000D02*
X127184000Y-108462000D01*
G75*
G02*
X127384000Y-108262000I200000J0D01*
G01*
X129164000Y-108262000D01*
G75*
G02*
X129364000Y-108462000I0J-200000D01*
G01*
X129364000Y-116082000D01*
G75*
G02*
X129164000Y-116282000I-200000J0D01*
G01*
X127384000Y-116282000D01*
G75*
G02*
X127184000Y-116082000I0J200000D01*
G01*
G37*
G36*
G01*
X124644000Y-116082000D02*
X124644000Y-108462000D01*
G75*
G02*
X124844000Y-108262000I200000J0D01*
G01*
X126624000Y-108262000D01*
G75*
G02*
X126824000Y-108462000I0J-200000D01*
G01*
X126824000Y-116082000D01*
G75*
G02*
X126624000Y-116282000I-200000J0D01*
G01*
X124844000Y-116282000D01*
G75*
G02*
X124644000Y-116082000I0J200000D01*
G01*
G37*
G36*
G01*
X122104000Y-116082000D02*
X122104000Y-108462000D01*
G75*
G02*
X122304000Y-108262000I200000J0D01*
G01*
X124084000Y-108262000D01*
G75*
G02*
X124284000Y-108462000I0J-200000D01*
G01*
X124284000Y-116082000D01*
G75*
G02*
X124084000Y-116282000I-200000J0D01*
G01*
X122304000Y-116282000D01*
G75*
G02*
X122104000Y-116082000I0J200000D01*
G01*
G37*
G36*
G01*
X119564000Y-116082000D02*
X119564000Y-108462000D01*
G75*
G02*
X119764000Y-108262000I200000J0D01*
G01*
X121544000Y-108262000D01*
G75*
G02*
X121744000Y-108462000I0J-200000D01*
G01*
X121744000Y-116082000D01*
G75*
G02*
X121544000Y-116282000I-200000J0D01*
G01*
X119764000Y-116282000D01*
G75*
G02*
X119564000Y-116082000I0J200000D01*
G01*
G37*
G36*
G01*
X117024000Y-116082000D02*
X117024000Y-108462000D01*
G75*
G02*
X117224000Y-108262000I200000J0D01*
G01*
X119004000Y-108262000D01*
G75*
G02*
X119204000Y-108462000I0J-200000D01*
G01*
X119204000Y-116082000D01*
G75*
G02*
X119004000Y-116282000I-200000J0D01*
G01*
X117224000Y-116282000D01*
G75*
G02*
X117024000Y-116082000I0J200000D01*
G01*
G37*
G36*
G01*
X114484000Y-116082000D02*
X114484000Y-108462000D01*
G75*
G02*
X114684000Y-108262000I200000J0D01*
G01*
X116464000Y-108262000D01*
G75*
G02*
X116664000Y-108462000I0J-200000D01*
G01*
X116664000Y-116082000D01*
G75*
G02*
X116464000Y-116282000I-200000J0D01*
G01*
X114684000Y-116282000D01*
G75*
G02*
X114484000Y-116082000I0J200000D01*
G01*
G37*
G36*
G01*
X111944000Y-116082000D02*
X111944000Y-108462000D01*
G75*
G02*
X112144000Y-108262000I200000J0D01*
G01*
X113924000Y-108262000D01*
G75*
G02*
X114124000Y-108462000I0J-200000D01*
G01*
X114124000Y-116082000D01*
G75*
G02*
X113924000Y-116282000I-200000J0D01*
G01*
X112144000Y-116282000D01*
G75*
G02*
X111944000Y-116082000I0J200000D01*
G01*
G37*
D11*
X199136000Y-71120000D03*
G36*
G01*
X198086000Y-69430000D02*
X198086000Y-67730000D01*
G75*
G02*
X198286000Y-67530000I200000J0D01*
G01*
X199986000Y-67530000D01*
G75*
G02*
X200186000Y-67730000I0J-200000D01*
G01*
X200186000Y-69430000D01*
G75*
G02*
X199986000Y-69630000I-200000J0D01*
G01*
X198286000Y-69630000D01*
G75*
G02*
X198086000Y-69430000I0J200000D01*
G01*
G37*
G36*
G01*
X117458200Y-70313180D02*
X117458200Y-72013180D01*
G75*
G02*
X117258200Y-72213180I-200000J0D01*
G01*
X115558200Y-72213180D01*
G75*
G02*
X115358200Y-72013180I0J200000D01*
G01*
X115358200Y-70313180D01*
G75*
G02*
X115558200Y-70113180I200000J0D01*
G01*
X117258200Y-70113180D01*
G75*
G02*
X117458200Y-70313180I0J-200000D01*
G01*
G37*
X116408200Y-68623180D03*
G36*
G01*
X137387700Y-69368380D02*
X135687700Y-69368380D01*
G75*
G02*
X135487700Y-69168380I0J200000D01*
G01*
X135487700Y-67468380D01*
G75*
G02*
X135687700Y-67268380I200000J0D01*
G01*
X137387700Y-67268380D01*
G75*
G02*
X137587700Y-67468380I0J-200000D01*
G01*
X137587700Y-69168380D01*
G75*
G02*
X137387700Y-69368380I-200000J0D01*
G01*
G37*
X136537700Y-70858380D03*
X139077700Y-68318380D03*
X139077700Y-70858380D03*
X141617700Y-68318380D03*
X141617700Y-70858380D03*
X144157700Y-68318380D03*
X144157700Y-70858380D03*
X146697700Y-68318380D03*
X146697700Y-70858380D03*
X149237700Y-68318380D03*
X149237700Y-70858380D03*
X151777700Y-68318380D03*
X151777700Y-70858380D03*
X154317700Y-68318380D03*
X154317700Y-70858380D03*
X156857700Y-68318380D03*
X156857700Y-70858380D03*
X159397700Y-68318380D03*
X159397700Y-70858380D03*
X161937700Y-68318380D03*
X161937700Y-70858380D03*
X164477700Y-68318380D03*
X164477700Y-70858380D03*
X167017700Y-68318380D03*
X167017700Y-70858380D03*
X169557700Y-68318380D03*
X169557700Y-70858380D03*
X172097700Y-68318380D03*
X172097700Y-70858380D03*
X174637700Y-68318380D03*
X174637700Y-70858380D03*
X177177700Y-68318380D03*
X177177700Y-70858380D03*
X179717700Y-68318380D03*
X179717700Y-70858380D03*
X182257700Y-68318380D03*
X182257700Y-70858380D03*
X184797700Y-68318380D03*
X184797700Y-70858380D03*
G36*
G01*
X117328660Y-87943320D02*
X117328660Y-89643320D01*
G75*
G02*
X117128660Y-89843320I-200000J0D01*
G01*
X115428660Y-89843320D01*
G75*
G02*
X115228660Y-89643320I0J200000D01*
G01*
X115228660Y-87943320D01*
G75*
G02*
X115428660Y-87743320I200000J0D01*
G01*
X117128660Y-87743320D01*
G75*
G02*
X117328660Y-87943320I0J-200000D01*
G01*
G37*
X116278660Y-86253320D03*
X116278660Y-83713320D03*
M02*
