M48
; DRILL file {KiCad 5.1.9-73d0e3b20d~88~ubuntu20.10.1} date Sat Mar 27 08:36:05 2021
; FORMAT={-:-/ absolute / inch / decimal}
; #@! TF.CreationDate,2021-03-27T08:36:05+00:00
; #@! TF.GenerationSoftware,Kicad,Pcbnew,5.1.9-73d0e3b20d~88~ubuntu20.10.1
; #@! TF.FileFunction,Plated,1,2,PTH
FMAT,2
INCH
T1C0.0157
T2C0.0315
T3C0.0394
T4C0.1260
%
G90
G05
T1
X4.79Y-3.37
X5.22Y-3.09
X5.2778Y-3.38
X5.3Y-3.0
X5.32Y-3.13
X5.32Y-3.63
X5.35Y-4.14
X5.37Y-3.33
X5.495Y-3.1
X5.56Y-3.24
X5.57Y-3.07
X5.75Y-4.1
X5.85Y-4.01
X5.96Y-3.97
X6.05Y-4.07
X6.29Y-3.37
X6.33Y-3.89
X6.34Y-2.94
X6.37Y-3.95
X6.39Y-3.39
X6.42Y-3.67
X6.44Y-3.55
X6.47Y-3.14
X6.58Y-3.28
X6.85Y-4.15
X6.86Y-3.73
X6.96Y-3.33
X6.97Y-3.03
X6.9881Y-3.6
X6.994Y-3.07
X7.0226Y-3.11
X7.04Y-4.15
X7.06Y-3.14
X7.12Y-3.14
X7.14Y-4.15
X7.23Y-3.36
T2
X3.72Y-4.11
X3.73Y-2.45
X4.93Y-3.48
X4.98Y-2.71
X5.07Y-3.27
X5.134Y-3.751
X5.15Y-4.06
X5.16Y-3.21
X5.2865Y-3.916
X5.29Y-3.08
X5.4715Y-2.914
X5.49Y-3.77
X5.59Y-2.97
X5.74Y-3.98
X5.98Y-3.34
X6.0Y-4.16
X6.01Y-2.94
X6.14Y-3.51
X6.16Y-3.22
X6.36Y-4.05
X6.4Y-2.57
X6.53Y-2.91
X6.56Y-3.48
X6.74Y-3.22
X6.75Y-2.95
X7.15Y-3.46
X7.28Y-3.93
X7.49Y-2.71
X7.85Y-3.02
X7.85Y-4.12
X8.0554Y-3.5454
X8.08Y-3.19
X8.49Y-2.88
X8.5Y-3.48
X9.48Y-2.45
X9.49Y-4.13
T3
X4.5779Y-3.2958
X4.5779Y-3.3958
X4.5779Y-3.4958
X4.583Y-2.7017
X4.583Y-2.8017
X5.3755Y-2.6897
X5.3755Y-2.7897
X5.4755Y-2.6897
X5.4755Y-2.7897
X5.5755Y-2.6897
X5.5755Y-2.7897
X5.6755Y-2.6897
X5.6755Y-2.7897
X5.7755Y-2.6897
X5.7755Y-2.7897
X5.8755Y-2.6897
X5.8755Y-2.7897
X5.9755Y-2.6897
X5.9755Y-2.7897
X6.0755Y-2.6897
X6.0755Y-2.7897
X6.1755Y-2.6897
X6.1755Y-2.7897
X6.2755Y-2.6897
X6.2755Y-2.7897
X6.3755Y-2.6897
X6.3755Y-2.7897
X6.4755Y-2.6897
X6.4755Y-2.7897
X6.5755Y-2.6897
X6.5755Y-2.7897
X6.6755Y-2.6897
X6.6755Y-2.7897
X6.7755Y-2.6897
X6.7755Y-2.7897
X6.8755Y-2.6897
X6.8755Y-2.7897
X6.9755Y-2.6897
X6.9755Y-2.7897
X7.0755Y-2.6897
X7.0755Y-2.7897
X7.1755Y-2.6897
X7.1755Y-2.7897
X7.2755Y-2.6897
X7.2755Y-2.7897
X7.84Y-2.7
X7.84Y-2.8
T4
X9.2995Y-2.5412
X9.2995Y-3.9568
T0
M30
