G04 #@! TF.GenerationSoftware,KiCad,Pcbnew,5.1.9-73d0e3b20d~88~ubuntu20.10.1*
G04 #@! TF.CreationDate,2021-03-27T08:36:00+00:00*
G04 #@! TF.ProjectId,videoslotadapter,76696465-6f73-46c6-9f74-616461707465,rev?*
G04 #@! TF.SameCoordinates,Original*
G04 #@! TF.FileFunction,Soldermask,Top*
G04 #@! TF.FilePolarity,Negative*
%FSLAX46Y46*%
G04 Gerber Fmt 4.6, Leading zero omitted, Abs format (unit mm)*
G04 Created by KiCad (PCBNEW 5.1.9-73d0e3b20d~88~ubuntu20.10.1) date 2021-03-27 08:36:00*
%MOMM*%
%LPD*%
G01*
G04 APERTURE LIST*
%ADD10C,4.464000*%
%ADD11O,2.100000X2.100000*%
G04 APERTURE END LIST*
D10*
X236207300Y-100502720D03*
X236207300Y-64546480D03*
G36*
G01*
X121164600Y-84443000D02*
X121164600Y-82943000D01*
G75*
G02*
X121364600Y-82743000I200000J0D01*
G01*
X122364600Y-82743000D01*
G75*
G02*
X122564600Y-82943000I0J-200000D01*
G01*
X122564600Y-84443000D01*
G75*
G02*
X122364600Y-84643000I-200000J0D01*
G01*
X121364600Y-84643000D01*
G75*
G02*
X121164600Y-84443000I0J200000D01*
G01*
G37*
G36*
G01*
X122464600Y-84443000D02*
X122464600Y-82943000D01*
G75*
G02*
X122664600Y-82743000I200000J0D01*
G01*
X123664600Y-82743000D01*
G75*
G02*
X123864600Y-82943000I0J-200000D01*
G01*
X123864600Y-84443000D01*
G75*
G02*
X123664600Y-84643000I-200000J0D01*
G01*
X122664600Y-84643000D01*
G75*
G02*
X122464600Y-84443000I0J200000D01*
G01*
G37*
G36*
G01*
X123764600Y-84443000D02*
X123764600Y-82943000D01*
G75*
G02*
X123964600Y-82743000I200000J0D01*
G01*
X124964600Y-82743000D01*
G75*
G02*
X125164600Y-82943000I0J-200000D01*
G01*
X125164600Y-84443000D01*
G75*
G02*
X124964600Y-84643000I-200000J0D01*
G01*
X123964600Y-84643000D01*
G75*
G02*
X123764600Y-84443000I0J200000D01*
G01*
G37*
G36*
G01*
X128496600Y-99816600D02*
X128496600Y-99141600D01*
G75*
G02*
X128834100Y-98804100I337500J0D01*
G01*
X129634100Y-98804100D01*
G75*
G02*
X129971600Y-99141600I0J-337500D01*
G01*
X129971600Y-99816600D01*
G75*
G02*
X129634100Y-100154100I-337500J0D01*
G01*
X128834100Y-100154100D01*
G75*
G02*
X128496600Y-99816600I0J337500D01*
G01*
G37*
G36*
G01*
X126771600Y-99816600D02*
X126771600Y-99141600D01*
G75*
G02*
X127109100Y-98804100I337500J0D01*
G01*
X127909100Y-98804100D01*
G75*
G02*
X128246600Y-99141600I0J-337500D01*
G01*
X128246600Y-99816600D01*
G75*
G02*
X127909100Y-100154100I-337500J0D01*
G01*
X127109100Y-100154100D01*
G75*
G02*
X126771600Y-99816600I0J337500D01*
G01*
G37*
G36*
G01*
X128402400Y-97025400D02*
X128402400Y-97425400D01*
G75*
G02*
X128202400Y-97625400I-200000J0D01*
G01*
X126727400Y-97625400D01*
G75*
G02*
X126527400Y-97425400I0J200000D01*
G01*
X126527400Y-97025400D01*
G75*
G02*
X126727400Y-96825400I200000J0D01*
G01*
X128202400Y-96825400D01*
G75*
G02*
X128402400Y-97025400I0J-200000D01*
G01*
G37*
G36*
G01*
X128402400Y-96375400D02*
X128402400Y-96775400D01*
G75*
G02*
X128202400Y-96975400I-200000J0D01*
G01*
X126727400Y-96975400D01*
G75*
G02*
X126527400Y-96775400I0J200000D01*
G01*
X126527400Y-96375400D01*
G75*
G02*
X126727400Y-96175400I200000J0D01*
G01*
X128202400Y-96175400D01*
G75*
G02*
X128402400Y-96375400I0J-200000D01*
G01*
G37*
G36*
G01*
X128402400Y-95725400D02*
X128402400Y-96125400D01*
G75*
G02*
X128202400Y-96325400I-200000J0D01*
G01*
X126727400Y-96325400D01*
G75*
G02*
X126527400Y-96125400I0J200000D01*
G01*
X126527400Y-95725400D01*
G75*
G02*
X126727400Y-95525400I200000J0D01*
G01*
X128202400Y-95525400D01*
G75*
G02*
X128402400Y-95725400I0J-200000D01*
G01*
G37*
G36*
G01*
X128402400Y-95075400D02*
X128402400Y-95475400D01*
G75*
G02*
X128202400Y-95675400I-200000J0D01*
G01*
X126727400Y-95675400D01*
G75*
G02*
X126527400Y-95475400I0J200000D01*
G01*
X126527400Y-95075400D01*
G75*
G02*
X126727400Y-94875400I200000J0D01*
G01*
X128202400Y-94875400D01*
G75*
G02*
X128402400Y-95075400I0J-200000D01*
G01*
G37*
G36*
G01*
X128402400Y-94425400D02*
X128402400Y-94825400D01*
G75*
G02*
X128202400Y-95025400I-200000J0D01*
G01*
X126727400Y-95025400D01*
G75*
G02*
X126527400Y-94825400I0J200000D01*
G01*
X126527400Y-94425400D01*
G75*
G02*
X126727400Y-94225400I200000J0D01*
G01*
X128202400Y-94225400D01*
G75*
G02*
X128402400Y-94425400I0J-200000D01*
G01*
G37*
G36*
G01*
X128402400Y-93775400D02*
X128402400Y-94175400D01*
G75*
G02*
X128202400Y-94375400I-200000J0D01*
G01*
X126727400Y-94375400D01*
G75*
G02*
X126527400Y-94175400I0J200000D01*
G01*
X126527400Y-93775400D01*
G75*
G02*
X126727400Y-93575400I200000J0D01*
G01*
X128202400Y-93575400D01*
G75*
G02*
X128402400Y-93775400I0J-200000D01*
G01*
G37*
G36*
G01*
X128402400Y-93125400D02*
X128402400Y-93525400D01*
G75*
G02*
X128202400Y-93725400I-200000J0D01*
G01*
X126727400Y-93725400D01*
G75*
G02*
X126527400Y-93525400I0J200000D01*
G01*
X126527400Y-93125400D01*
G75*
G02*
X126727400Y-92925400I200000J0D01*
G01*
X128202400Y-92925400D01*
G75*
G02*
X128402400Y-93125400I0J-200000D01*
G01*
G37*
G36*
G01*
X134127400Y-93125400D02*
X134127400Y-93525400D01*
G75*
G02*
X133927400Y-93725400I-200000J0D01*
G01*
X132452400Y-93725400D01*
G75*
G02*
X132252400Y-93525400I0J200000D01*
G01*
X132252400Y-93125400D01*
G75*
G02*
X132452400Y-92925400I200000J0D01*
G01*
X133927400Y-92925400D01*
G75*
G02*
X134127400Y-93125400I0J-200000D01*
G01*
G37*
G36*
G01*
X134127400Y-93775400D02*
X134127400Y-94175400D01*
G75*
G02*
X133927400Y-94375400I-200000J0D01*
G01*
X132452400Y-94375400D01*
G75*
G02*
X132252400Y-94175400I0J200000D01*
G01*
X132252400Y-93775400D01*
G75*
G02*
X132452400Y-93575400I200000J0D01*
G01*
X133927400Y-93575400D01*
G75*
G02*
X134127400Y-93775400I0J-200000D01*
G01*
G37*
G36*
G01*
X134127400Y-94425400D02*
X134127400Y-94825400D01*
G75*
G02*
X133927400Y-95025400I-200000J0D01*
G01*
X132452400Y-95025400D01*
G75*
G02*
X132252400Y-94825400I0J200000D01*
G01*
X132252400Y-94425400D01*
G75*
G02*
X132452400Y-94225400I200000J0D01*
G01*
X133927400Y-94225400D01*
G75*
G02*
X134127400Y-94425400I0J-200000D01*
G01*
G37*
G36*
G01*
X134127400Y-95075400D02*
X134127400Y-95475400D01*
G75*
G02*
X133927400Y-95675400I-200000J0D01*
G01*
X132452400Y-95675400D01*
G75*
G02*
X132252400Y-95475400I0J200000D01*
G01*
X132252400Y-95075400D01*
G75*
G02*
X132452400Y-94875400I200000J0D01*
G01*
X133927400Y-94875400D01*
G75*
G02*
X134127400Y-95075400I0J-200000D01*
G01*
G37*
G36*
G01*
X134127400Y-95725400D02*
X134127400Y-96125400D01*
G75*
G02*
X133927400Y-96325400I-200000J0D01*
G01*
X132452400Y-96325400D01*
G75*
G02*
X132252400Y-96125400I0J200000D01*
G01*
X132252400Y-95725400D01*
G75*
G02*
X132452400Y-95525400I200000J0D01*
G01*
X133927400Y-95525400D01*
G75*
G02*
X134127400Y-95725400I0J-200000D01*
G01*
G37*
G36*
G01*
X134127400Y-96375400D02*
X134127400Y-96775400D01*
G75*
G02*
X133927400Y-96975400I-200000J0D01*
G01*
X132452400Y-96975400D01*
G75*
G02*
X132252400Y-96775400I0J200000D01*
G01*
X132252400Y-96375400D01*
G75*
G02*
X132452400Y-96175400I200000J0D01*
G01*
X133927400Y-96175400D01*
G75*
G02*
X134127400Y-96375400I0J-200000D01*
G01*
G37*
G36*
G01*
X134127400Y-97025400D02*
X134127400Y-97425400D01*
G75*
G02*
X133927400Y-97625400I-200000J0D01*
G01*
X132452400Y-97625400D01*
G75*
G02*
X132252400Y-97425400I0J200000D01*
G01*
X132252400Y-97025400D01*
G75*
G02*
X132452400Y-96825400I200000J0D01*
G01*
X133927400Y-96825400D01*
G75*
G02*
X134127400Y-97025400I0J-200000D01*
G01*
G37*
G36*
G01*
X133606000Y-74465500D02*
X133606000Y-75140500D01*
G75*
G02*
X133268500Y-75478000I-337500J0D01*
G01*
X132468500Y-75478000D01*
G75*
G02*
X132131000Y-75140500I0J337500D01*
G01*
X132131000Y-74465500D01*
G75*
G02*
X132468500Y-74128000I337500J0D01*
G01*
X133268500Y-74128000D01*
G75*
G02*
X133606000Y-74465500I0J-337500D01*
G01*
G37*
G36*
G01*
X135331000Y-74465500D02*
X135331000Y-75140500D01*
G75*
G02*
X134993500Y-75478000I-337500J0D01*
G01*
X134193500Y-75478000D01*
G75*
G02*
X133856000Y-75140500I0J337500D01*
G01*
X133856000Y-74465500D01*
G75*
G02*
X134193500Y-74128000I337500J0D01*
G01*
X134993500Y-74128000D01*
G75*
G02*
X135331000Y-74465500I0J-337500D01*
G01*
G37*
G36*
G01*
X136822500Y-75917000D02*
X137497500Y-75917000D01*
G75*
G02*
X137835000Y-76254500I0J-337500D01*
G01*
X137835000Y-76954500D01*
G75*
G02*
X137497500Y-77292000I-337500J0D01*
G01*
X136822500Y-77292000D01*
G75*
G02*
X136485000Y-76954500I0J337500D01*
G01*
X136485000Y-76254500D01*
G75*
G02*
X136822500Y-75917000I337500J0D01*
G01*
G37*
G36*
G01*
X136822500Y-74092000D02*
X137497500Y-74092000D01*
G75*
G02*
X137835000Y-74429500I0J-337500D01*
G01*
X137835000Y-75129500D01*
G75*
G02*
X137497500Y-75467000I-337500J0D01*
G01*
X136822500Y-75467000D01*
G75*
G02*
X136485000Y-75129500I0J337500D01*
G01*
X136485000Y-74429500D01*
G75*
G02*
X136822500Y-74092000I337500J0D01*
G01*
G37*
G36*
G01*
X208464000Y-116082000D02*
X208464000Y-108462000D01*
G75*
G02*
X208664000Y-108262000I200000J0D01*
G01*
X210444000Y-108262000D01*
G75*
G02*
X210644000Y-108462000I0J-200000D01*
G01*
X210644000Y-116082000D01*
G75*
G02*
X210444000Y-116282000I-200000J0D01*
G01*
X208664000Y-116282000D01*
G75*
G02*
X208464000Y-116082000I0J200000D01*
G01*
G37*
G36*
G01*
X205924000Y-116082000D02*
X205924000Y-108462000D01*
G75*
G02*
X206124000Y-108262000I200000J0D01*
G01*
X207904000Y-108262000D01*
G75*
G02*
X208104000Y-108462000I0J-200000D01*
G01*
X208104000Y-116082000D01*
G75*
G02*
X207904000Y-116282000I-200000J0D01*
G01*
X206124000Y-116282000D01*
G75*
G02*
X205924000Y-116082000I0J200000D01*
G01*
G37*
G36*
G01*
X203384000Y-116082000D02*
X203384000Y-108462000D01*
G75*
G02*
X203584000Y-108262000I200000J0D01*
G01*
X205364000Y-108262000D01*
G75*
G02*
X205564000Y-108462000I0J-200000D01*
G01*
X205564000Y-116082000D01*
G75*
G02*
X205364000Y-116282000I-200000J0D01*
G01*
X203584000Y-116282000D01*
G75*
G02*
X203384000Y-116082000I0J200000D01*
G01*
G37*
G36*
G01*
X200844000Y-116082000D02*
X200844000Y-108462000D01*
G75*
G02*
X201044000Y-108262000I200000J0D01*
G01*
X202824000Y-108262000D01*
G75*
G02*
X203024000Y-108462000I0J-200000D01*
G01*
X203024000Y-116082000D01*
G75*
G02*
X202824000Y-116282000I-200000J0D01*
G01*
X201044000Y-116282000D01*
G75*
G02*
X200844000Y-116082000I0J200000D01*
G01*
G37*
G36*
G01*
X198304000Y-116082000D02*
X198304000Y-108462000D01*
G75*
G02*
X198504000Y-108262000I200000J0D01*
G01*
X200284000Y-108262000D01*
G75*
G02*
X200484000Y-108462000I0J-200000D01*
G01*
X200484000Y-116082000D01*
G75*
G02*
X200284000Y-116282000I-200000J0D01*
G01*
X198504000Y-116282000D01*
G75*
G02*
X198304000Y-116082000I0J200000D01*
G01*
G37*
G36*
G01*
X195764000Y-116082000D02*
X195764000Y-108462000D01*
G75*
G02*
X195964000Y-108262000I200000J0D01*
G01*
X197744000Y-108262000D01*
G75*
G02*
X197944000Y-108462000I0J-200000D01*
G01*
X197944000Y-116082000D01*
G75*
G02*
X197744000Y-116282000I-200000J0D01*
G01*
X195964000Y-116282000D01*
G75*
G02*
X195764000Y-116082000I0J200000D01*
G01*
G37*
G36*
G01*
X193224000Y-116082000D02*
X193224000Y-108462000D01*
G75*
G02*
X193424000Y-108262000I200000J0D01*
G01*
X195204000Y-108262000D01*
G75*
G02*
X195404000Y-108462000I0J-200000D01*
G01*
X195404000Y-116082000D01*
G75*
G02*
X195204000Y-116282000I-200000J0D01*
G01*
X193424000Y-116282000D01*
G75*
G02*
X193224000Y-116082000I0J200000D01*
G01*
G37*
G36*
G01*
X190684000Y-116082000D02*
X190684000Y-108462000D01*
G75*
G02*
X190884000Y-108262000I200000J0D01*
G01*
X192664000Y-108262000D01*
G75*
G02*
X192864000Y-108462000I0J-200000D01*
G01*
X192864000Y-116082000D01*
G75*
G02*
X192664000Y-116282000I-200000J0D01*
G01*
X190884000Y-116282000D01*
G75*
G02*
X190684000Y-116082000I0J200000D01*
G01*
G37*
G36*
G01*
X188144000Y-116082000D02*
X188144000Y-108462000D01*
G75*
G02*
X188344000Y-108262000I200000J0D01*
G01*
X190124000Y-108262000D01*
G75*
G02*
X190324000Y-108462000I0J-200000D01*
G01*
X190324000Y-116082000D01*
G75*
G02*
X190124000Y-116282000I-200000J0D01*
G01*
X188344000Y-116282000D01*
G75*
G02*
X188144000Y-116082000I0J200000D01*
G01*
G37*
G36*
G01*
X185604000Y-116082000D02*
X185604000Y-108462000D01*
G75*
G02*
X185804000Y-108262000I200000J0D01*
G01*
X187584000Y-108262000D01*
G75*
G02*
X187784000Y-108462000I0J-200000D01*
G01*
X187784000Y-116082000D01*
G75*
G02*
X187584000Y-116282000I-200000J0D01*
G01*
X185804000Y-116282000D01*
G75*
G02*
X185604000Y-116082000I0J200000D01*
G01*
G37*
G36*
G01*
X183064000Y-116082000D02*
X183064000Y-108462000D01*
G75*
G02*
X183264000Y-108262000I200000J0D01*
G01*
X185044000Y-108262000D01*
G75*
G02*
X185244000Y-108462000I0J-200000D01*
G01*
X185244000Y-116082000D01*
G75*
G02*
X185044000Y-116282000I-200000J0D01*
G01*
X183264000Y-116282000D01*
G75*
G02*
X183064000Y-116082000I0J200000D01*
G01*
G37*
G36*
G01*
X180524000Y-116082000D02*
X180524000Y-108462000D01*
G75*
G02*
X180724000Y-108262000I200000J0D01*
G01*
X182504000Y-108262000D01*
G75*
G02*
X182704000Y-108462000I0J-200000D01*
G01*
X182704000Y-116082000D01*
G75*
G02*
X182504000Y-116282000I-200000J0D01*
G01*
X180724000Y-116282000D01*
G75*
G02*
X180524000Y-116082000I0J200000D01*
G01*
G37*
G36*
G01*
X177984000Y-116082000D02*
X177984000Y-108462000D01*
G75*
G02*
X178184000Y-108262000I200000J0D01*
G01*
X179964000Y-108262000D01*
G75*
G02*
X180164000Y-108462000I0J-200000D01*
G01*
X180164000Y-116082000D01*
G75*
G02*
X179964000Y-116282000I-200000J0D01*
G01*
X178184000Y-116282000D01*
G75*
G02*
X177984000Y-116082000I0J200000D01*
G01*
G37*
G36*
G01*
X175444000Y-116082000D02*
X175444000Y-108462000D01*
G75*
G02*
X175644000Y-108262000I200000J0D01*
G01*
X177424000Y-108262000D01*
G75*
G02*
X177624000Y-108462000I0J-200000D01*
G01*
X177624000Y-116082000D01*
G75*
G02*
X177424000Y-116282000I-200000J0D01*
G01*
X175644000Y-116282000D01*
G75*
G02*
X175444000Y-116082000I0J200000D01*
G01*
G37*
G36*
G01*
X172904000Y-116082000D02*
X172904000Y-108462000D01*
G75*
G02*
X173104000Y-108262000I200000J0D01*
G01*
X174884000Y-108262000D01*
G75*
G02*
X175084000Y-108462000I0J-200000D01*
G01*
X175084000Y-116082000D01*
G75*
G02*
X174884000Y-116282000I-200000J0D01*
G01*
X173104000Y-116282000D01*
G75*
G02*
X172904000Y-116082000I0J200000D01*
G01*
G37*
G36*
G01*
X170364000Y-116082000D02*
X170364000Y-108462000D01*
G75*
G02*
X170564000Y-108262000I200000J0D01*
G01*
X172344000Y-108262000D01*
G75*
G02*
X172544000Y-108462000I0J-200000D01*
G01*
X172544000Y-116082000D01*
G75*
G02*
X172344000Y-116282000I-200000J0D01*
G01*
X170564000Y-116282000D01*
G75*
G02*
X170364000Y-116082000I0J200000D01*
G01*
G37*
G36*
G01*
X167824000Y-116082000D02*
X167824000Y-108462000D01*
G75*
G02*
X168024000Y-108262000I200000J0D01*
G01*
X169804000Y-108262000D01*
G75*
G02*
X170004000Y-108462000I0J-200000D01*
G01*
X170004000Y-116082000D01*
G75*
G02*
X169804000Y-116282000I-200000J0D01*
G01*
X168024000Y-116282000D01*
G75*
G02*
X167824000Y-116082000I0J200000D01*
G01*
G37*
G36*
G01*
X165284000Y-116082000D02*
X165284000Y-108462000D01*
G75*
G02*
X165484000Y-108262000I200000J0D01*
G01*
X167264000Y-108262000D01*
G75*
G02*
X167464000Y-108462000I0J-200000D01*
G01*
X167464000Y-116082000D01*
G75*
G02*
X167264000Y-116282000I-200000J0D01*
G01*
X165484000Y-116282000D01*
G75*
G02*
X165284000Y-116082000I0J200000D01*
G01*
G37*
G36*
G01*
X155124000Y-116082000D02*
X155124000Y-108462000D01*
G75*
G02*
X155324000Y-108262000I200000J0D01*
G01*
X157104000Y-108262000D01*
G75*
G02*
X157304000Y-108462000I0J-200000D01*
G01*
X157304000Y-116082000D01*
G75*
G02*
X157104000Y-116282000I-200000J0D01*
G01*
X155324000Y-116282000D01*
G75*
G02*
X155124000Y-116082000I0J200000D01*
G01*
G37*
G36*
G01*
X152584000Y-116082000D02*
X152584000Y-108462000D01*
G75*
G02*
X152784000Y-108262000I200000J0D01*
G01*
X154564000Y-108262000D01*
G75*
G02*
X154764000Y-108462000I0J-200000D01*
G01*
X154764000Y-116082000D01*
G75*
G02*
X154564000Y-116282000I-200000J0D01*
G01*
X152784000Y-116282000D01*
G75*
G02*
X152584000Y-116082000I0J200000D01*
G01*
G37*
G36*
G01*
X150044000Y-116082000D02*
X150044000Y-108462000D01*
G75*
G02*
X150244000Y-108262000I200000J0D01*
G01*
X152024000Y-108262000D01*
G75*
G02*
X152224000Y-108462000I0J-200000D01*
G01*
X152224000Y-116082000D01*
G75*
G02*
X152024000Y-116282000I-200000J0D01*
G01*
X150244000Y-116282000D01*
G75*
G02*
X150044000Y-116082000I0J200000D01*
G01*
G37*
G36*
G01*
X147504000Y-116082000D02*
X147504000Y-108462000D01*
G75*
G02*
X147704000Y-108262000I200000J0D01*
G01*
X149484000Y-108262000D01*
G75*
G02*
X149684000Y-108462000I0J-200000D01*
G01*
X149684000Y-116082000D01*
G75*
G02*
X149484000Y-116282000I-200000J0D01*
G01*
X147704000Y-116282000D01*
G75*
G02*
X147504000Y-116082000I0J200000D01*
G01*
G37*
G36*
G01*
X144964000Y-116082000D02*
X144964000Y-108462000D01*
G75*
G02*
X145164000Y-108262000I200000J0D01*
G01*
X146944000Y-108262000D01*
G75*
G02*
X147144000Y-108462000I0J-200000D01*
G01*
X147144000Y-116082000D01*
G75*
G02*
X146944000Y-116282000I-200000J0D01*
G01*
X145164000Y-116282000D01*
G75*
G02*
X144964000Y-116082000I0J200000D01*
G01*
G37*
G36*
G01*
X142424000Y-116082000D02*
X142424000Y-108462000D01*
G75*
G02*
X142624000Y-108262000I200000J0D01*
G01*
X144404000Y-108262000D01*
G75*
G02*
X144604000Y-108462000I0J-200000D01*
G01*
X144604000Y-116082000D01*
G75*
G02*
X144404000Y-116282000I-200000J0D01*
G01*
X142624000Y-116282000D01*
G75*
G02*
X142424000Y-116082000I0J200000D01*
G01*
G37*
G36*
G01*
X139884000Y-116082000D02*
X139884000Y-108462000D01*
G75*
G02*
X140084000Y-108262000I200000J0D01*
G01*
X141864000Y-108262000D01*
G75*
G02*
X142064000Y-108462000I0J-200000D01*
G01*
X142064000Y-116082000D01*
G75*
G02*
X141864000Y-116282000I-200000J0D01*
G01*
X140084000Y-116282000D01*
G75*
G02*
X139884000Y-116082000I0J200000D01*
G01*
G37*
G36*
G01*
X137344000Y-116082000D02*
X137344000Y-108462000D01*
G75*
G02*
X137544000Y-108262000I200000J0D01*
G01*
X139324000Y-108262000D01*
G75*
G02*
X139524000Y-108462000I0J-200000D01*
G01*
X139524000Y-116082000D01*
G75*
G02*
X139324000Y-116282000I-200000J0D01*
G01*
X137544000Y-116282000D01*
G75*
G02*
X137344000Y-116082000I0J200000D01*
G01*
G37*
G36*
G01*
X134804000Y-116082000D02*
X134804000Y-108462000D01*
G75*
G02*
X135004000Y-108262000I200000J0D01*
G01*
X136784000Y-108262000D01*
G75*
G02*
X136984000Y-108462000I0J-200000D01*
G01*
X136984000Y-116082000D01*
G75*
G02*
X136784000Y-116282000I-200000J0D01*
G01*
X135004000Y-116282000D01*
G75*
G02*
X134804000Y-116082000I0J200000D01*
G01*
G37*
G36*
G01*
X132264000Y-116082000D02*
X132264000Y-108462000D01*
G75*
G02*
X132464000Y-108262000I200000J0D01*
G01*
X134244000Y-108262000D01*
G75*
G02*
X134444000Y-108462000I0J-200000D01*
G01*
X134444000Y-116082000D01*
G75*
G02*
X134244000Y-116282000I-200000J0D01*
G01*
X132464000Y-116282000D01*
G75*
G02*
X132264000Y-116082000I0J200000D01*
G01*
G37*
G36*
G01*
X129724000Y-116082000D02*
X129724000Y-108462000D01*
G75*
G02*
X129924000Y-108262000I200000J0D01*
G01*
X131704000Y-108262000D01*
G75*
G02*
X131904000Y-108462000I0J-200000D01*
G01*
X131904000Y-116082000D01*
G75*
G02*
X131704000Y-116282000I-200000J0D01*
G01*
X129924000Y-116282000D01*
G75*
G02*
X129724000Y-116082000I0J200000D01*
G01*
G37*
G36*
G01*
X127184000Y-116082000D02*
X127184000Y-108462000D01*
G75*
G02*
X127384000Y-108262000I200000J0D01*
G01*
X129164000Y-108262000D01*
G75*
G02*
X129364000Y-108462000I0J-200000D01*
G01*
X129364000Y-116082000D01*
G75*
G02*
X129164000Y-116282000I-200000J0D01*
G01*
X127384000Y-116282000D01*
G75*
G02*
X127184000Y-116082000I0J200000D01*
G01*
G37*
G36*
G01*
X124644000Y-116082000D02*
X124644000Y-108462000D01*
G75*
G02*
X124844000Y-108262000I200000J0D01*
G01*
X126624000Y-108262000D01*
G75*
G02*
X126824000Y-108462000I0J-200000D01*
G01*
X126824000Y-116082000D01*
G75*
G02*
X126624000Y-116282000I-200000J0D01*
G01*
X124844000Y-116282000D01*
G75*
G02*
X124644000Y-116082000I0J200000D01*
G01*
G37*
G36*
G01*
X122104000Y-116082000D02*
X122104000Y-108462000D01*
G75*
G02*
X122304000Y-108262000I200000J0D01*
G01*
X124084000Y-108262000D01*
G75*
G02*
X124284000Y-108462000I0J-200000D01*
G01*
X124284000Y-116082000D01*
G75*
G02*
X124084000Y-116282000I-200000J0D01*
G01*
X122304000Y-116282000D01*
G75*
G02*
X122104000Y-116082000I0J200000D01*
G01*
G37*
G36*
G01*
X119564000Y-116082000D02*
X119564000Y-108462000D01*
G75*
G02*
X119764000Y-108262000I200000J0D01*
G01*
X121544000Y-108262000D01*
G75*
G02*
X121744000Y-108462000I0J-200000D01*
G01*
X121744000Y-116082000D01*
G75*
G02*
X121544000Y-116282000I-200000J0D01*
G01*
X119764000Y-116282000D01*
G75*
G02*
X119564000Y-116082000I0J200000D01*
G01*
G37*
G36*
G01*
X117024000Y-116082000D02*
X117024000Y-108462000D01*
G75*
G02*
X117224000Y-108262000I200000J0D01*
G01*
X119004000Y-108262000D01*
G75*
G02*
X119204000Y-108462000I0J-200000D01*
G01*
X119204000Y-116082000D01*
G75*
G02*
X119004000Y-116282000I-200000J0D01*
G01*
X117224000Y-116282000D01*
G75*
G02*
X117024000Y-116082000I0J200000D01*
G01*
G37*
G36*
G01*
X114484000Y-116082000D02*
X114484000Y-108462000D01*
G75*
G02*
X114684000Y-108262000I200000J0D01*
G01*
X116464000Y-108262000D01*
G75*
G02*
X116664000Y-108462000I0J-200000D01*
G01*
X116664000Y-116082000D01*
G75*
G02*
X116464000Y-116282000I-200000J0D01*
G01*
X114684000Y-116282000D01*
G75*
G02*
X114484000Y-116082000I0J200000D01*
G01*
G37*
G36*
G01*
X111944000Y-116082000D02*
X111944000Y-108462000D01*
G75*
G02*
X112144000Y-108262000I200000J0D01*
G01*
X113924000Y-108262000D01*
G75*
G02*
X114124000Y-108462000I0J-200000D01*
G01*
X114124000Y-116082000D01*
G75*
G02*
X113924000Y-116282000I-200000J0D01*
G01*
X112144000Y-116282000D01*
G75*
G02*
X111944000Y-116082000I0J200000D01*
G01*
G37*
G36*
G01*
X208706106Y-90928000D02*
X209885894Y-90928000D01*
G75*
G02*
X210221000Y-91263106I0J-335106D01*
G01*
X210221000Y-92167894D01*
G75*
G02*
X209885894Y-92503000I-335106J0D01*
G01*
X208706106Y-92503000D01*
G75*
G02*
X208371000Y-92167894I0J335106D01*
G01*
X208371000Y-91263106D01*
G75*
G02*
X208706106Y-90928000I335106J0D01*
G01*
G37*
G36*
G01*
X208706106Y-88853000D02*
X209885894Y-88853000D01*
G75*
G02*
X210221000Y-89188106I0J-335106D01*
G01*
X210221000Y-90092894D01*
G75*
G02*
X209885894Y-90428000I-335106J0D01*
G01*
X208706106Y-90428000D01*
G75*
G02*
X208371000Y-90092894I0J335106D01*
G01*
X208371000Y-89188106D01*
G75*
G02*
X208706106Y-88853000I335106J0D01*
G01*
G37*
G36*
G01*
X148531332Y-75257000D02*
X149664668Y-75257000D01*
G75*
G02*
X149998000Y-75590332I0J-333332D01*
G01*
X149998000Y-76523668D01*
G75*
G02*
X149664668Y-76857000I-333332J0D01*
G01*
X148531332Y-76857000D01*
G75*
G02*
X148198000Y-76523668I0J333332D01*
G01*
X148198000Y-75590332D01*
G75*
G02*
X148531332Y-75257000I333332J0D01*
G01*
G37*
G36*
G01*
X148531332Y-73257000D02*
X149664668Y-73257000D01*
G75*
G02*
X149998000Y-73590332I0J-333332D01*
G01*
X149998000Y-74523668D01*
G75*
G02*
X149664668Y-74857000I-333332J0D01*
G01*
X148531332Y-74857000D01*
G75*
G02*
X148198000Y-74523668I0J333332D01*
G01*
X148198000Y-73590332D01*
G75*
G02*
X148531332Y-73257000I333332J0D01*
G01*
G37*
G36*
G01*
X204642106Y-85086000D02*
X205821894Y-85086000D01*
G75*
G02*
X206157000Y-85421106I0J-335106D01*
G01*
X206157000Y-86325894D01*
G75*
G02*
X205821894Y-86661000I-335106J0D01*
G01*
X204642106Y-86661000D01*
G75*
G02*
X204307000Y-86325894I0J335106D01*
G01*
X204307000Y-85421106D01*
G75*
G02*
X204642106Y-85086000I335106J0D01*
G01*
G37*
G36*
G01*
X204642106Y-83011000D02*
X205821894Y-83011000D01*
G75*
G02*
X206157000Y-83346106I0J-335106D01*
G01*
X206157000Y-84250894D01*
G75*
G02*
X205821894Y-84586000I-335106J0D01*
G01*
X204642106Y-84586000D01*
G75*
G02*
X204307000Y-84250894I0J335106D01*
G01*
X204307000Y-83346106D01*
G75*
G02*
X204642106Y-83011000I335106J0D01*
G01*
G37*
G36*
G01*
X170858500Y-85037200D02*
X171533500Y-85037200D01*
G75*
G02*
X171871000Y-85374700I0J-337500D01*
G01*
X171871000Y-86174700D01*
G75*
G02*
X171533500Y-86512200I-337500J0D01*
G01*
X170858500Y-86512200D01*
G75*
G02*
X170521000Y-86174700I0J337500D01*
G01*
X170521000Y-85374700D01*
G75*
G02*
X170858500Y-85037200I337500J0D01*
G01*
G37*
G36*
G01*
X170858500Y-83312200D02*
X171533500Y-83312200D01*
G75*
G02*
X171871000Y-83649700I0J-337500D01*
G01*
X171871000Y-84449700D01*
G75*
G02*
X171533500Y-84787200I-337500J0D01*
G01*
X170858500Y-84787200D01*
G75*
G02*
X170521000Y-84449700I0J337500D01*
G01*
X170521000Y-83649700D01*
G75*
G02*
X170858500Y-83312200I337500J0D01*
G01*
G37*
G36*
G01*
X156306840Y-84961000D02*
X156981840Y-84961000D01*
G75*
G02*
X157319340Y-85298500I0J-337500D01*
G01*
X157319340Y-86098500D01*
G75*
G02*
X156981840Y-86436000I-337500J0D01*
G01*
X156306840Y-86436000D01*
G75*
G02*
X155969340Y-86098500I0J337500D01*
G01*
X155969340Y-85298500D01*
G75*
G02*
X156306840Y-84961000I337500J0D01*
G01*
G37*
G36*
G01*
X156306840Y-83236000D02*
X156981840Y-83236000D01*
G75*
G02*
X157319340Y-83573500I0J-337500D01*
G01*
X157319340Y-84373500D01*
G75*
G02*
X156981840Y-84711000I-337500J0D01*
G01*
X156306840Y-84711000D01*
G75*
G02*
X155969340Y-84373500I0J337500D01*
G01*
X155969340Y-83573500D01*
G75*
G02*
X156306840Y-83236000I337500J0D01*
G01*
G37*
G36*
G01*
X131033840Y-84402200D02*
X131708840Y-84402200D01*
G75*
G02*
X132046340Y-84739700I0J-337500D01*
G01*
X132046340Y-85539700D01*
G75*
G02*
X131708840Y-85877200I-337500J0D01*
G01*
X131033840Y-85877200D01*
G75*
G02*
X130696340Y-85539700I0J337500D01*
G01*
X130696340Y-84739700D01*
G75*
G02*
X131033840Y-84402200I337500J0D01*
G01*
G37*
G36*
G01*
X131033840Y-82677200D02*
X131708840Y-82677200D01*
G75*
G02*
X132046340Y-83014700I0J-337500D01*
G01*
X132046340Y-83814700D01*
G75*
G02*
X131708840Y-84152200I-337500J0D01*
G01*
X131033840Y-84152200D01*
G75*
G02*
X130696340Y-83814700I0J337500D01*
G01*
X130696340Y-83014700D01*
G75*
G02*
X131033840Y-82677200I337500J0D01*
G01*
G37*
D11*
X199136000Y-71120000D03*
G36*
G01*
X198086000Y-69430000D02*
X198086000Y-67730000D01*
G75*
G02*
X198286000Y-67530000I200000J0D01*
G01*
X199986000Y-67530000D01*
G75*
G02*
X200186000Y-67730000I0J-200000D01*
G01*
X200186000Y-69430000D01*
G75*
G02*
X199986000Y-69630000I-200000J0D01*
G01*
X198286000Y-69630000D01*
G75*
G02*
X198086000Y-69430000I0J200000D01*
G01*
G37*
G36*
G01*
X117458200Y-70313180D02*
X117458200Y-72013180D01*
G75*
G02*
X117258200Y-72213180I-200000J0D01*
G01*
X115558200Y-72213180D01*
G75*
G02*
X115358200Y-72013180I0J200000D01*
G01*
X115358200Y-70313180D01*
G75*
G02*
X115558200Y-70113180I200000J0D01*
G01*
X117258200Y-70113180D01*
G75*
G02*
X117458200Y-70313180I0J-200000D01*
G01*
G37*
X116408200Y-68623180D03*
G36*
G01*
X133456340Y-88152200D02*
X133006340Y-88152200D01*
G75*
G02*
X132806340Y-87952200I0J200000D01*
G01*
X132806340Y-86502200D01*
G75*
G02*
X133006340Y-86302200I200000J0D01*
G01*
X133456340Y-86302200D01*
G75*
G02*
X133656340Y-86502200I0J-200000D01*
G01*
X133656340Y-87952200D01*
G75*
G02*
X133456340Y-88152200I-200000J0D01*
G01*
G37*
G36*
G01*
X134106340Y-88152200D02*
X133656340Y-88152200D01*
G75*
G02*
X133456340Y-87952200I0J200000D01*
G01*
X133456340Y-86502200D01*
G75*
G02*
X133656340Y-86302200I200000J0D01*
G01*
X134106340Y-86302200D01*
G75*
G02*
X134306340Y-86502200I0J-200000D01*
G01*
X134306340Y-87952200D01*
G75*
G02*
X134106340Y-88152200I-200000J0D01*
G01*
G37*
G36*
G01*
X134756340Y-88152200D02*
X134306340Y-88152200D01*
G75*
G02*
X134106340Y-87952200I0J200000D01*
G01*
X134106340Y-86502200D01*
G75*
G02*
X134306340Y-86302200I200000J0D01*
G01*
X134756340Y-86302200D01*
G75*
G02*
X134956340Y-86502200I0J-200000D01*
G01*
X134956340Y-87952200D01*
G75*
G02*
X134756340Y-88152200I-200000J0D01*
G01*
G37*
G36*
G01*
X135406340Y-88152200D02*
X134956340Y-88152200D01*
G75*
G02*
X134756340Y-87952200I0J200000D01*
G01*
X134756340Y-86502200D01*
G75*
G02*
X134956340Y-86302200I200000J0D01*
G01*
X135406340Y-86302200D01*
G75*
G02*
X135606340Y-86502200I0J-200000D01*
G01*
X135606340Y-87952200D01*
G75*
G02*
X135406340Y-88152200I-200000J0D01*
G01*
G37*
G36*
G01*
X136056340Y-88152200D02*
X135606340Y-88152200D01*
G75*
G02*
X135406340Y-87952200I0J200000D01*
G01*
X135406340Y-86502200D01*
G75*
G02*
X135606340Y-86302200I200000J0D01*
G01*
X136056340Y-86302200D01*
G75*
G02*
X136256340Y-86502200I0J-200000D01*
G01*
X136256340Y-87952200D01*
G75*
G02*
X136056340Y-88152200I-200000J0D01*
G01*
G37*
G36*
G01*
X136706340Y-88152200D02*
X136256340Y-88152200D01*
G75*
G02*
X136056340Y-87952200I0J200000D01*
G01*
X136056340Y-86502200D01*
G75*
G02*
X136256340Y-86302200I200000J0D01*
G01*
X136706340Y-86302200D01*
G75*
G02*
X136906340Y-86502200I0J-200000D01*
G01*
X136906340Y-87952200D01*
G75*
G02*
X136706340Y-88152200I-200000J0D01*
G01*
G37*
G36*
G01*
X137356340Y-88152200D02*
X136906340Y-88152200D01*
G75*
G02*
X136706340Y-87952200I0J200000D01*
G01*
X136706340Y-86502200D01*
G75*
G02*
X136906340Y-86302200I200000J0D01*
G01*
X137356340Y-86302200D01*
G75*
G02*
X137556340Y-86502200I0J-200000D01*
G01*
X137556340Y-87952200D01*
G75*
G02*
X137356340Y-88152200I-200000J0D01*
G01*
G37*
G36*
G01*
X137356340Y-82252200D02*
X136906340Y-82252200D01*
G75*
G02*
X136706340Y-82052200I0J200000D01*
G01*
X136706340Y-80602200D01*
G75*
G02*
X136906340Y-80402200I200000J0D01*
G01*
X137356340Y-80402200D01*
G75*
G02*
X137556340Y-80602200I0J-200000D01*
G01*
X137556340Y-82052200D01*
G75*
G02*
X137356340Y-82252200I-200000J0D01*
G01*
G37*
G36*
G01*
X136706340Y-82252200D02*
X136256340Y-82252200D01*
G75*
G02*
X136056340Y-82052200I0J200000D01*
G01*
X136056340Y-80602200D01*
G75*
G02*
X136256340Y-80402200I200000J0D01*
G01*
X136706340Y-80402200D01*
G75*
G02*
X136906340Y-80602200I0J-200000D01*
G01*
X136906340Y-82052200D01*
G75*
G02*
X136706340Y-82252200I-200000J0D01*
G01*
G37*
G36*
G01*
X136056340Y-82252200D02*
X135606340Y-82252200D01*
G75*
G02*
X135406340Y-82052200I0J200000D01*
G01*
X135406340Y-80602200D01*
G75*
G02*
X135606340Y-80402200I200000J0D01*
G01*
X136056340Y-80402200D01*
G75*
G02*
X136256340Y-80602200I0J-200000D01*
G01*
X136256340Y-82052200D01*
G75*
G02*
X136056340Y-82252200I-200000J0D01*
G01*
G37*
G36*
G01*
X135406340Y-82252200D02*
X134956340Y-82252200D01*
G75*
G02*
X134756340Y-82052200I0J200000D01*
G01*
X134756340Y-80602200D01*
G75*
G02*
X134956340Y-80402200I200000J0D01*
G01*
X135406340Y-80402200D01*
G75*
G02*
X135606340Y-80602200I0J-200000D01*
G01*
X135606340Y-82052200D01*
G75*
G02*
X135406340Y-82252200I-200000J0D01*
G01*
G37*
G36*
G01*
X134756340Y-82252200D02*
X134306340Y-82252200D01*
G75*
G02*
X134106340Y-82052200I0J200000D01*
G01*
X134106340Y-80602200D01*
G75*
G02*
X134306340Y-80402200I200000J0D01*
G01*
X134756340Y-80402200D01*
G75*
G02*
X134956340Y-80602200I0J-200000D01*
G01*
X134956340Y-82052200D01*
G75*
G02*
X134756340Y-82252200I-200000J0D01*
G01*
G37*
G36*
G01*
X134106340Y-82252200D02*
X133656340Y-82252200D01*
G75*
G02*
X133456340Y-82052200I0J200000D01*
G01*
X133456340Y-80602200D01*
G75*
G02*
X133656340Y-80402200I200000J0D01*
G01*
X134106340Y-80402200D01*
G75*
G02*
X134306340Y-80602200I0J-200000D01*
G01*
X134306340Y-82052200D01*
G75*
G02*
X134106340Y-82252200I-200000J0D01*
G01*
G37*
G36*
G01*
X133456340Y-82252200D02*
X133006340Y-82252200D01*
G75*
G02*
X132806340Y-82052200I0J200000D01*
G01*
X132806340Y-80602200D01*
G75*
G02*
X133006340Y-80402200I200000J0D01*
G01*
X133456340Y-80402200D01*
G75*
G02*
X133656340Y-80602200I0J-200000D01*
G01*
X133656340Y-82052200D01*
G75*
G02*
X133456340Y-82252200I-200000J0D01*
G01*
G37*
G36*
G01*
X158643340Y-82887200D02*
X158193340Y-82887200D01*
G75*
G02*
X157993340Y-82687200I0J200000D01*
G01*
X157993340Y-81237200D01*
G75*
G02*
X158193340Y-81037200I200000J0D01*
G01*
X158643340Y-81037200D01*
G75*
G02*
X158843340Y-81237200I0J-200000D01*
G01*
X158843340Y-82687200D01*
G75*
G02*
X158643340Y-82887200I-200000J0D01*
G01*
G37*
G36*
G01*
X159293340Y-82887200D02*
X158843340Y-82887200D01*
G75*
G02*
X158643340Y-82687200I0J200000D01*
G01*
X158643340Y-81237200D01*
G75*
G02*
X158843340Y-81037200I200000J0D01*
G01*
X159293340Y-81037200D01*
G75*
G02*
X159493340Y-81237200I0J-200000D01*
G01*
X159493340Y-82687200D01*
G75*
G02*
X159293340Y-82887200I-200000J0D01*
G01*
G37*
G36*
G01*
X159943340Y-82887200D02*
X159493340Y-82887200D01*
G75*
G02*
X159293340Y-82687200I0J200000D01*
G01*
X159293340Y-81237200D01*
G75*
G02*
X159493340Y-81037200I200000J0D01*
G01*
X159943340Y-81037200D01*
G75*
G02*
X160143340Y-81237200I0J-200000D01*
G01*
X160143340Y-82687200D01*
G75*
G02*
X159943340Y-82887200I-200000J0D01*
G01*
G37*
G36*
G01*
X160593340Y-82887200D02*
X160143340Y-82887200D01*
G75*
G02*
X159943340Y-82687200I0J200000D01*
G01*
X159943340Y-81237200D01*
G75*
G02*
X160143340Y-81037200I200000J0D01*
G01*
X160593340Y-81037200D01*
G75*
G02*
X160793340Y-81237200I0J-200000D01*
G01*
X160793340Y-82687200D01*
G75*
G02*
X160593340Y-82887200I-200000J0D01*
G01*
G37*
G36*
G01*
X161243340Y-82887200D02*
X160793340Y-82887200D01*
G75*
G02*
X160593340Y-82687200I0J200000D01*
G01*
X160593340Y-81237200D01*
G75*
G02*
X160793340Y-81037200I200000J0D01*
G01*
X161243340Y-81037200D01*
G75*
G02*
X161443340Y-81237200I0J-200000D01*
G01*
X161443340Y-82687200D01*
G75*
G02*
X161243340Y-82887200I-200000J0D01*
G01*
G37*
G36*
G01*
X161893340Y-82887200D02*
X161443340Y-82887200D01*
G75*
G02*
X161243340Y-82687200I0J200000D01*
G01*
X161243340Y-81237200D01*
G75*
G02*
X161443340Y-81037200I200000J0D01*
G01*
X161893340Y-81037200D01*
G75*
G02*
X162093340Y-81237200I0J-200000D01*
G01*
X162093340Y-82687200D01*
G75*
G02*
X161893340Y-82887200I-200000J0D01*
G01*
G37*
G36*
G01*
X162543340Y-82887200D02*
X162093340Y-82887200D01*
G75*
G02*
X161893340Y-82687200I0J200000D01*
G01*
X161893340Y-81237200D01*
G75*
G02*
X162093340Y-81037200I200000J0D01*
G01*
X162543340Y-81037200D01*
G75*
G02*
X162743340Y-81237200I0J-200000D01*
G01*
X162743340Y-82687200D01*
G75*
G02*
X162543340Y-82887200I-200000J0D01*
G01*
G37*
G36*
G01*
X163193340Y-82887200D02*
X162743340Y-82887200D01*
G75*
G02*
X162543340Y-82687200I0J200000D01*
G01*
X162543340Y-81237200D01*
G75*
G02*
X162743340Y-81037200I200000J0D01*
G01*
X163193340Y-81037200D01*
G75*
G02*
X163393340Y-81237200I0J-200000D01*
G01*
X163393340Y-82687200D01*
G75*
G02*
X163193340Y-82887200I-200000J0D01*
G01*
G37*
G36*
G01*
X163843340Y-82887200D02*
X163393340Y-82887200D01*
G75*
G02*
X163193340Y-82687200I0J200000D01*
G01*
X163193340Y-81237200D01*
G75*
G02*
X163393340Y-81037200I200000J0D01*
G01*
X163843340Y-81037200D01*
G75*
G02*
X164043340Y-81237200I0J-200000D01*
G01*
X164043340Y-82687200D01*
G75*
G02*
X163843340Y-82887200I-200000J0D01*
G01*
G37*
G36*
G01*
X164493340Y-82887200D02*
X164043340Y-82887200D01*
G75*
G02*
X163843340Y-82687200I0J200000D01*
G01*
X163843340Y-81237200D01*
G75*
G02*
X164043340Y-81037200I200000J0D01*
G01*
X164493340Y-81037200D01*
G75*
G02*
X164693340Y-81237200I0J-200000D01*
G01*
X164693340Y-82687200D01*
G75*
G02*
X164493340Y-82887200I-200000J0D01*
G01*
G37*
G36*
G01*
X164493340Y-88787200D02*
X164043340Y-88787200D01*
G75*
G02*
X163843340Y-88587200I0J200000D01*
G01*
X163843340Y-87137200D01*
G75*
G02*
X164043340Y-86937200I200000J0D01*
G01*
X164493340Y-86937200D01*
G75*
G02*
X164693340Y-87137200I0J-200000D01*
G01*
X164693340Y-88587200D01*
G75*
G02*
X164493340Y-88787200I-200000J0D01*
G01*
G37*
G36*
G01*
X163843340Y-88787200D02*
X163393340Y-88787200D01*
G75*
G02*
X163193340Y-88587200I0J200000D01*
G01*
X163193340Y-87137200D01*
G75*
G02*
X163393340Y-86937200I200000J0D01*
G01*
X163843340Y-86937200D01*
G75*
G02*
X164043340Y-87137200I0J-200000D01*
G01*
X164043340Y-88587200D01*
G75*
G02*
X163843340Y-88787200I-200000J0D01*
G01*
G37*
G36*
G01*
X163193340Y-88787200D02*
X162743340Y-88787200D01*
G75*
G02*
X162543340Y-88587200I0J200000D01*
G01*
X162543340Y-87137200D01*
G75*
G02*
X162743340Y-86937200I200000J0D01*
G01*
X163193340Y-86937200D01*
G75*
G02*
X163393340Y-87137200I0J-200000D01*
G01*
X163393340Y-88587200D01*
G75*
G02*
X163193340Y-88787200I-200000J0D01*
G01*
G37*
G36*
G01*
X162543340Y-88787200D02*
X162093340Y-88787200D01*
G75*
G02*
X161893340Y-88587200I0J200000D01*
G01*
X161893340Y-87137200D01*
G75*
G02*
X162093340Y-86937200I200000J0D01*
G01*
X162543340Y-86937200D01*
G75*
G02*
X162743340Y-87137200I0J-200000D01*
G01*
X162743340Y-88587200D01*
G75*
G02*
X162543340Y-88787200I-200000J0D01*
G01*
G37*
G36*
G01*
X161893340Y-88787200D02*
X161443340Y-88787200D01*
G75*
G02*
X161243340Y-88587200I0J200000D01*
G01*
X161243340Y-87137200D01*
G75*
G02*
X161443340Y-86937200I200000J0D01*
G01*
X161893340Y-86937200D01*
G75*
G02*
X162093340Y-87137200I0J-200000D01*
G01*
X162093340Y-88587200D01*
G75*
G02*
X161893340Y-88787200I-200000J0D01*
G01*
G37*
G36*
G01*
X161243340Y-88787200D02*
X160793340Y-88787200D01*
G75*
G02*
X160593340Y-88587200I0J200000D01*
G01*
X160593340Y-87137200D01*
G75*
G02*
X160793340Y-86937200I200000J0D01*
G01*
X161243340Y-86937200D01*
G75*
G02*
X161443340Y-87137200I0J-200000D01*
G01*
X161443340Y-88587200D01*
G75*
G02*
X161243340Y-88787200I-200000J0D01*
G01*
G37*
G36*
G01*
X160593340Y-88787200D02*
X160143340Y-88787200D01*
G75*
G02*
X159943340Y-88587200I0J200000D01*
G01*
X159943340Y-87137200D01*
G75*
G02*
X160143340Y-86937200I200000J0D01*
G01*
X160593340Y-86937200D01*
G75*
G02*
X160793340Y-87137200I0J-200000D01*
G01*
X160793340Y-88587200D01*
G75*
G02*
X160593340Y-88787200I-200000J0D01*
G01*
G37*
G36*
G01*
X159943340Y-88787200D02*
X159493340Y-88787200D01*
G75*
G02*
X159293340Y-88587200I0J200000D01*
G01*
X159293340Y-87137200D01*
G75*
G02*
X159493340Y-86937200I200000J0D01*
G01*
X159943340Y-86937200D01*
G75*
G02*
X160143340Y-87137200I0J-200000D01*
G01*
X160143340Y-88587200D01*
G75*
G02*
X159943340Y-88787200I-200000J0D01*
G01*
G37*
G36*
G01*
X159293340Y-88787200D02*
X158843340Y-88787200D01*
G75*
G02*
X158643340Y-88587200I0J200000D01*
G01*
X158643340Y-87137200D01*
G75*
G02*
X158843340Y-86937200I200000J0D01*
G01*
X159293340Y-86937200D01*
G75*
G02*
X159493340Y-87137200I0J-200000D01*
G01*
X159493340Y-88587200D01*
G75*
G02*
X159293340Y-88787200I-200000J0D01*
G01*
G37*
G36*
G01*
X158643340Y-88787200D02*
X158193340Y-88787200D01*
G75*
G02*
X157993340Y-88587200I0J200000D01*
G01*
X157993340Y-87137200D01*
G75*
G02*
X158193340Y-86937200I200000J0D01*
G01*
X158643340Y-86937200D01*
G75*
G02*
X158843340Y-87137200I0J-200000D01*
G01*
X158843340Y-88587200D01*
G75*
G02*
X158643340Y-88787200I-200000J0D01*
G01*
G37*
G36*
G01*
X173248340Y-88787200D02*
X172798340Y-88787200D01*
G75*
G02*
X172598340Y-88587200I0J200000D01*
G01*
X172598340Y-87137200D01*
G75*
G02*
X172798340Y-86937200I200000J0D01*
G01*
X173248340Y-86937200D01*
G75*
G02*
X173448340Y-87137200I0J-200000D01*
G01*
X173448340Y-88587200D01*
G75*
G02*
X173248340Y-88787200I-200000J0D01*
G01*
G37*
G36*
G01*
X173898340Y-88787200D02*
X173448340Y-88787200D01*
G75*
G02*
X173248340Y-88587200I0J200000D01*
G01*
X173248340Y-87137200D01*
G75*
G02*
X173448340Y-86937200I200000J0D01*
G01*
X173898340Y-86937200D01*
G75*
G02*
X174098340Y-87137200I0J-200000D01*
G01*
X174098340Y-88587200D01*
G75*
G02*
X173898340Y-88787200I-200000J0D01*
G01*
G37*
G36*
G01*
X174548340Y-88787200D02*
X174098340Y-88787200D01*
G75*
G02*
X173898340Y-88587200I0J200000D01*
G01*
X173898340Y-87137200D01*
G75*
G02*
X174098340Y-86937200I200000J0D01*
G01*
X174548340Y-86937200D01*
G75*
G02*
X174748340Y-87137200I0J-200000D01*
G01*
X174748340Y-88587200D01*
G75*
G02*
X174548340Y-88787200I-200000J0D01*
G01*
G37*
G36*
G01*
X175198340Y-88787200D02*
X174748340Y-88787200D01*
G75*
G02*
X174548340Y-88587200I0J200000D01*
G01*
X174548340Y-87137200D01*
G75*
G02*
X174748340Y-86937200I200000J0D01*
G01*
X175198340Y-86937200D01*
G75*
G02*
X175398340Y-87137200I0J-200000D01*
G01*
X175398340Y-88587200D01*
G75*
G02*
X175198340Y-88787200I-200000J0D01*
G01*
G37*
G36*
G01*
X175848340Y-88787200D02*
X175398340Y-88787200D01*
G75*
G02*
X175198340Y-88587200I0J200000D01*
G01*
X175198340Y-87137200D01*
G75*
G02*
X175398340Y-86937200I200000J0D01*
G01*
X175848340Y-86937200D01*
G75*
G02*
X176048340Y-87137200I0J-200000D01*
G01*
X176048340Y-88587200D01*
G75*
G02*
X175848340Y-88787200I-200000J0D01*
G01*
G37*
G36*
G01*
X176498340Y-88787200D02*
X176048340Y-88787200D01*
G75*
G02*
X175848340Y-88587200I0J200000D01*
G01*
X175848340Y-87137200D01*
G75*
G02*
X176048340Y-86937200I200000J0D01*
G01*
X176498340Y-86937200D01*
G75*
G02*
X176698340Y-87137200I0J-200000D01*
G01*
X176698340Y-88587200D01*
G75*
G02*
X176498340Y-88787200I-200000J0D01*
G01*
G37*
G36*
G01*
X177148340Y-88787200D02*
X176698340Y-88787200D01*
G75*
G02*
X176498340Y-88587200I0J200000D01*
G01*
X176498340Y-87137200D01*
G75*
G02*
X176698340Y-86937200I200000J0D01*
G01*
X177148340Y-86937200D01*
G75*
G02*
X177348340Y-87137200I0J-200000D01*
G01*
X177348340Y-88587200D01*
G75*
G02*
X177148340Y-88787200I-200000J0D01*
G01*
G37*
G36*
G01*
X177798340Y-88787200D02*
X177348340Y-88787200D01*
G75*
G02*
X177148340Y-88587200I0J200000D01*
G01*
X177148340Y-87137200D01*
G75*
G02*
X177348340Y-86937200I200000J0D01*
G01*
X177798340Y-86937200D01*
G75*
G02*
X177998340Y-87137200I0J-200000D01*
G01*
X177998340Y-88587200D01*
G75*
G02*
X177798340Y-88787200I-200000J0D01*
G01*
G37*
G36*
G01*
X178448340Y-88787200D02*
X177998340Y-88787200D01*
G75*
G02*
X177798340Y-88587200I0J200000D01*
G01*
X177798340Y-87137200D01*
G75*
G02*
X177998340Y-86937200I200000J0D01*
G01*
X178448340Y-86937200D01*
G75*
G02*
X178648340Y-87137200I0J-200000D01*
G01*
X178648340Y-88587200D01*
G75*
G02*
X178448340Y-88787200I-200000J0D01*
G01*
G37*
G36*
G01*
X179098340Y-88787200D02*
X178648340Y-88787200D01*
G75*
G02*
X178448340Y-88587200I0J200000D01*
G01*
X178448340Y-87137200D01*
G75*
G02*
X178648340Y-86937200I200000J0D01*
G01*
X179098340Y-86937200D01*
G75*
G02*
X179298340Y-87137200I0J-200000D01*
G01*
X179298340Y-88587200D01*
G75*
G02*
X179098340Y-88787200I-200000J0D01*
G01*
G37*
G36*
G01*
X179098340Y-82887200D02*
X178648340Y-82887200D01*
G75*
G02*
X178448340Y-82687200I0J200000D01*
G01*
X178448340Y-81237200D01*
G75*
G02*
X178648340Y-81037200I200000J0D01*
G01*
X179098340Y-81037200D01*
G75*
G02*
X179298340Y-81237200I0J-200000D01*
G01*
X179298340Y-82687200D01*
G75*
G02*
X179098340Y-82887200I-200000J0D01*
G01*
G37*
G36*
G01*
X178448340Y-82887200D02*
X177998340Y-82887200D01*
G75*
G02*
X177798340Y-82687200I0J200000D01*
G01*
X177798340Y-81237200D01*
G75*
G02*
X177998340Y-81037200I200000J0D01*
G01*
X178448340Y-81037200D01*
G75*
G02*
X178648340Y-81237200I0J-200000D01*
G01*
X178648340Y-82687200D01*
G75*
G02*
X178448340Y-82887200I-200000J0D01*
G01*
G37*
G36*
G01*
X177798340Y-82887200D02*
X177348340Y-82887200D01*
G75*
G02*
X177148340Y-82687200I0J200000D01*
G01*
X177148340Y-81237200D01*
G75*
G02*
X177348340Y-81037200I200000J0D01*
G01*
X177798340Y-81037200D01*
G75*
G02*
X177998340Y-81237200I0J-200000D01*
G01*
X177998340Y-82687200D01*
G75*
G02*
X177798340Y-82887200I-200000J0D01*
G01*
G37*
G36*
G01*
X177148340Y-82887200D02*
X176698340Y-82887200D01*
G75*
G02*
X176498340Y-82687200I0J200000D01*
G01*
X176498340Y-81237200D01*
G75*
G02*
X176698340Y-81037200I200000J0D01*
G01*
X177148340Y-81037200D01*
G75*
G02*
X177348340Y-81237200I0J-200000D01*
G01*
X177348340Y-82687200D01*
G75*
G02*
X177148340Y-82887200I-200000J0D01*
G01*
G37*
G36*
G01*
X176498340Y-82887200D02*
X176048340Y-82887200D01*
G75*
G02*
X175848340Y-82687200I0J200000D01*
G01*
X175848340Y-81237200D01*
G75*
G02*
X176048340Y-81037200I200000J0D01*
G01*
X176498340Y-81037200D01*
G75*
G02*
X176698340Y-81237200I0J-200000D01*
G01*
X176698340Y-82687200D01*
G75*
G02*
X176498340Y-82887200I-200000J0D01*
G01*
G37*
G36*
G01*
X175848340Y-82887200D02*
X175398340Y-82887200D01*
G75*
G02*
X175198340Y-82687200I0J200000D01*
G01*
X175198340Y-81237200D01*
G75*
G02*
X175398340Y-81037200I200000J0D01*
G01*
X175848340Y-81037200D01*
G75*
G02*
X176048340Y-81237200I0J-200000D01*
G01*
X176048340Y-82687200D01*
G75*
G02*
X175848340Y-82887200I-200000J0D01*
G01*
G37*
G36*
G01*
X175198340Y-82887200D02*
X174748340Y-82887200D01*
G75*
G02*
X174548340Y-82687200I0J200000D01*
G01*
X174548340Y-81237200D01*
G75*
G02*
X174748340Y-81037200I200000J0D01*
G01*
X175198340Y-81037200D01*
G75*
G02*
X175398340Y-81237200I0J-200000D01*
G01*
X175398340Y-82687200D01*
G75*
G02*
X175198340Y-82887200I-200000J0D01*
G01*
G37*
G36*
G01*
X174548340Y-82887200D02*
X174098340Y-82887200D01*
G75*
G02*
X173898340Y-82687200I0J200000D01*
G01*
X173898340Y-81237200D01*
G75*
G02*
X174098340Y-81037200I200000J0D01*
G01*
X174548340Y-81037200D01*
G75*
G02*
X174748340Y-81237200I0J-200000D01*
G01*
X174748340Y-82687200D01*
G75*
G02*
X174548340Y-82887200I-200000J0D01*
G01*
G37*
G36*
G01*
X173898340Y-82887200D02*
X173448340Y-82887200D01*
G75*
G02*
X173248340Y-82687200I0J200000D01*
G01*
X173248340Y-81237200D01*
G75*
G02*
X173448340Y-81037200I200000J0D01*
G01*
X173898340Y-81037200D01*
G75*
G02*
X174098340Y-81237200I0J-200000D01*
G01*
X174098340Y-82687200D01*
G75*
G02*
X173898340Y-82887200I-200000J0D01*
G01*
G37*
G36*
G01*
X173248340Y-82887200D02*
X172798340Y-82887200D01*
G75*
G02*
X172598340Y-82687200I0J200000D01*
G01*
X172598340Y-81237200D01*
G75*
G02*
X172798340Y-81037200I200000J0D01*
G01*
X173248340Y-81037200D01*
G75*
G02*
X173448340Y-81237200I0J-200000D01*
G01*
X173448340Y-82687200D01*
G75*
G02*
X173248340Y-82887200I-200000J0D01*
G01*
G37*
G36*
G01*
X208671000Y-87293000D02*
X208021000Y-87293000D01*
G75*
G02*
X207821000Y-87093000I0J200000D01*
G01*
X207821000Y-85533000D01*
G75*
G02*
X208021000Y-85333000I200000J0D01*
G01*
X208671000Y-85333000D01*
G75*
G02*
X208871000Y-85533000I0J-200000D01*
G01*
X208871000Y-87093000D01*
G75*
G02*
X208671000Y-87293000I-200000J0D01*
G01*
G37*
G36*
G01*
X209621000Y-87293000D02*
X208971000Y-87293000D01*
G75*
G02*
X208771000Y-87093000I0J200000D01*
G01*
X208771000Y-85533000D01*
G75*
G02*
X208971000Y-85333000I200000J0D01*
G01*
X209621000Y-85333000D01*
G75*
G02*
X209821000Y-85533000I0J-200000D01*
G01*
X209821000Y-87093000D01*
G75*
G02*
X209621000Y-87293000I-200000J0D01*
G01*
G37*
G36*
G01*
X210571000Y-87293000D02*
X209921000Y-87293000D01*
G75*
G02*
X209721000Y-87093000I0J200000D01*
G01*
X209721000Y-85533000D01*
G75*
G02*
X209921000Y-85333000I200000J0D01*
G01*
X210571000Y-85333000D01*
G75*
G02*
X210771000Y-85533000I0J-200000D01*
G01*
X210771000Y-87093000D01*
G75*
G02*
X210571000Y-87293000I-200000J0D01*
G01*
G37*
G36*
G01*
X210571000Y-84593000D02*
X209921000Y-84593000D01*
G75*
G02*
X209721000Y-84393000I0J200000D01*
G01*
X209721000Y-82833000D01*
G75*
G02*
X209921000Y-82633000I200000J0D01*
G01*
X210571000Y-82633000D01*
G75*
G02*
X210771000Y-82833000I0J-200000D01*
G01*
X210771000Y-84393000D01*
G75*
G02*
X210571000Y-84593000I-200000J0D01*
G01*
G37*
G36*
G01*
X208671000Y-84593000D02*
X208021000Y-84593000D01*
G75*
G02*
X207821000Y-84393000I0J200000D01*
G01*
X207821000Y-82833000D01*
G75*
G02*
X208021000Y-82633000I200000J0D01*
G01*
X208671000Y-82633000D01*
G75*
G02*
X208871000Y-82833000I0J-200000D01*
G01*
X208871000Y-84393000D01*
G75*
G02*
X208671000Y-84593000I-200000J0D01*
G01*
G37*
G36*
G01*
X137387700Y-69368380D02*
X135687700Y-69368380D01*
G75*
G02*
X135487700Y-69168380I0J200000D01*
G01*
X135487700Y-67468380D01*
G75*
G02*
X135687700Y-67268380I200000J0D01*
G01*
X137387700Y-67268380D01*
G75*
G02*
X137587700Y-67468380I0J-200000D01*
G01*
X137587700Y-69168380D01*
G75*
G02*
X137387700Y-69368380I-200000J0D01*
G01*
G37*
X136537700Y-70858380D03*
X139077700Y-68318380D03*
X139077700Y-70858380D03*
X141617700Y-68318380D03*
X141617700Y-70858380D03*
X144157700Y-68318380D03*
X144157700Y-70858380D03*
X146697700Y-68318380D03*
X146697700Y-70858380D03*
X149237700Y-68318380D03*
X149237700Y-70858380D03*
X151777700Y-68318380D03*
X151777700Y-70858380D03*
X154317700Y-68318380D03*
X154317700Y-70858380D03*
X156857700Y-68318380D03*
X156857700Y-70858380D03*
X159397700Y-68318380D03*
X159397700Y-70858380D03*
X161937700Y-68318380D03*
X161937700Y-70858380D03*
X164477700Y-68318380D03*
X164477700Y-70858380D03*
X167017700Y-68318380D03*
X167017700Y-70858380D03*
X169557700Y-68318380D03*
X169557700Y-70858380D03*
X172097700Y-68318380D03*
X172097700Y-70858380D03*
X174637700Y-68318380D03*
X174637700Y-70858380D03*
X177177700Y-68318380D03*
X177177700Y-70858380D03*
X179717700Y-68318380D03*
X179717700Y-70858380D03*
X182257700Y-68318380D03*
X182257700Y-70858380D03*
X184797700Y-68318380D03*
X184797700Y-70858380D03*
G36*
G01*
X117328660Y-87943320D02*
X117328660Y-89643320D01*
G75*
G02*
X117128660Y-89843320I-200000J0D01*
G01*
X115428660Y-89843320D01*
G75*
G02*
X115228660Y-89643320I0J200000D01*
G01*
X115228660Y-87943320D01*
G75*
G02*
X115428660Y-87743320I200000J0D01*
G01*
X117128660Y-87743320D01*
G75*
G02*
X117328660Y-87943320I0J-200000D01*
G01*
G37*
X116278660Y-86253320D03*
X116278660Y-83713320D03*
M02*
