G04 #@! TF.GenerationSoftware,KiCad,Pcbnew,(5.1.4)-1*
G04 #@! TF.CreationDate,2020-04-10T17:06:02+01:00*
G04 #@! TF.ProjectId,buffer,62756666-6572-42e6-9b69-6361645f7063,rev?*
G04 #@! TF.SameCoordinates,Original*
G04 #@! TF.FileFunction,Soldermask,Bot*
G04 #@! TF.FilePolarity,Negative*
%FSLAX46Y46*%
G04 Gerber Fmt 4.6, Leading zero omitted, Abs format (unit mm)*
G04 Created by KiCad (PCBNEW (5.1.4)-1) date 2020-04-10 17:06:02*
%MOMM*%
%LPD*%
G04 APERTURE LIST*
%ADD10C,0.100000*%
G04 APERTURE END LIST*
D10*
G36*
X63912340Y-49283660D02*
G01*
X62012340Y-49283660D01*
X62012340Y-47383660D01*
X63912340Y-47383660D01*
X63912340Y-49283660D01*
X63912340Y-49283660D01*
G37*
G36*
X60094720Y-49278580D02*
G01*
X58194720Y-49278580D01*
X58194720Y-47378580D01*
X60094720Y-47378580D01*
X60094720Y-49278580D01*
X60094720Y-49278580D01*
G37*
G36*
X40549836Y-46090830D02*
G01*
X40738332Y-46148009D01*
X40912058Y-46240868D01*
X41064328Y-46365832D01*
X41189292Y-46518102D01*
X41282151Y-46691828D01*
X41339330Y-46880324D01*
X41358638Y-47076360D01*
X41339330Y-47272396D01*
X41282151Y-47460892D01*
X41189292Y-47634618D01*
X41064328Y-47786888D01*
X40912058Y-47911852D01*
X40738332Y-48004711D01*
X40549836Y-48061890D01*
X40402920Y-48076360D01*
X40304680Y-48076360D01*
X40157764Y-48061890D01*
X39969268Y-48004711D01*
X39795542Y-47911852D01*
X39643272Y-47786888D01*
X39518308Y-47634618D01*
X39425449Y-47460892D01*
X39368270Y-47272396D01*
X39348962Y-47076360D01*
X39368270Y-46880324D01*
X39425449Y-46691828D01*
X39518308Y-46518102D01*
X39643272Y-46365832D01*
X39795542Y-46240868D01*
X39969268Y-46148009D01*
X40157764Y-46090830D01*
X40304680Y-46076360D01*
X40402920Y-46076360D01*
X40549836Y-46090830D01*
X40549836Y-46090830D01*
G37*
G36*
X38009836Y-46090830D02*
G01*
X38198332Y-46148009D01*
X38372058Y-46240868D01*
X38524328Y-46365832D01*
X38649292Y-46518102D01*
X38742151Y-46691828D01*
X38799330Y-46880324D01*
X38818638Y-47076360D01*
X38799330Y-47272396D01*
X38742151Y-47460892D01*
X38649292Y-47634618D01*
X38524328Y-47786888D01*
X38372058Y-47911852D01*
X38198332Y-48004711D01*
X38009836Y-48061890D01*
X37862920Y-48076360D01*
X37764680Y-48076360D01*
X37617764Y-48061890D01*
X37429268Y-48004711D01*
X37255542Y-47911852D01*
X37103272Y-47786888D01*
X36978308Y-47634618D01*
X36885449Y-47460892D01*
X36828270Y-47272396D01*
X36808962Y-47076360D01*
X36828270Y-46880324D01*
X36885449Y-46691828D01*
X36978308Y-46518102D01*
X37103272Y-46365832D01*
X37255542Y-46240868D01*
X37429268Y-46148009D01*
X37617764Y-46090830D01*
X37764680Y-46076360D01*
X37862920Y-46076360D01*
X38009836Y-46090830D01*
X38009836Y-46090830D01*
G37*
G36*
X63148573Y-44857406D02*
G01*
X63238110Y-44884567D01*
X63327648Y-44911728D01*
X63492685Y-44999942D01*
X63637341Y-45118659D01*
X63756058Y-45263315D01*
X63844272Y-45428352D01*
X63898594Y-45607428D01*
X63916936Y-45793660D01*
X63898594Y-45979892D01*
X63844272Y-46158968D01*
X63756058Y-46324005D01*
X63637341Y-46468661D01*
X63492685Y-46587378D01*
X63327648Y-46675592D01*
X63274125Y-46691828D01*
X63148573Y-46729914D01*
X63009005Y-46743660D01*
X62915675Y-46743660D01*
X62776107Y-46729914D01*
X62650555Y-46691828D01*
X62597032Y-46675592D01*
X62431995Y-46587378D01*
X62287339Y-46468661D01*
X62168622Y-46324005D01*
X62080408Y-46158968D01*
X62026086Y-45979892D01*
X62007744Y-45793660D01*
X62026086Y-45607428D01*
X62080408Y-45428352D01*
X62168622Y-45263315D01*
X62287339Y-45118659D01*
X62431995Y-44999942D01*
X62597032Y-44911728D01*
X62686570Y-44884567D01*
X62776107Y-44857406D01*
X62915675Y-44843660D01*
X63009005Y-44843660D01*
X63148573Y-44857406D01*
X63148573Y-44857406D01*
G37*
G36*
X59330953Y-44852326D02*
G01*
X59347699Y-44857406D01*
X59510028Y-44906648D01*
X59675065Y-44994862D01*
X59819721Y-45113579D01*
X59938438Y-45258235D01*
X60026652Y-45423272D01*
X60080974Y-45602348D01*
X60099316Y-45788580D01*
X60080974Y-45974812D01*
X60026652Y-46153888D01*
X59938438Y-46318925D01*
X59819721Y-46463581D01*
X59675065Y-46582298D01*
X59510028Y-46670512D01*
X59493281Y-46675592D01*
X59330953Y-46724834D01*
X59191385Y-46738580D01*
X59098055Y-46738580D01*
X58958487Y-46724834D01*
X58796159Y-46675592D01*
X58779412Y-46670512D01*
X58614375Y-46582298D01*
X58469719Y-46463581D01*
X58351002Y-46318925D01*
X58262788Y-46153888D01*
X58208466Y-45974812D01*
X58190124Y-45788580D01*
X58208466Y-45602348D01*
X58262788Y-45423272D01*
X58351002Y-45258235D01*
X58469719Y-45113579D01*
X58614375Y-44994862D01*
X58779412Y-44906648D01*
X58941741Y-44857406D01*
X58958487Y-44852326D01*
X59098055Y-44838580D01*
X59191385Y-44838580D01*
X59330953Y-44852326D01*
X59330953Y-44852326D01*
G37*
G36*
X66813436Y-44744630D02*
G01*
X67001932Y-44801809D01*
X67175658Y-44894668D01*
X67327928Y-45019632D01*
X67452892Y-45171902D01*
X67545751Y-45345628D01*
X67602930Y-45534124D01*
X67622238Y-45730160D01*
X67602930Y-45926196D01*
X67545751Y-46114692D01*
X67452892Y-46288418D01*
X67327928Y-46440688D01*
X67175658Y-46565652D01*
X67001932Y-46658511D01*
X66813436Y-46715690D01*
X66666520Y-46730160D01*
X66568280Y-46730160D01*
X66421364Y-46715690D01*
X66232868Y-46658511D01*
X66059142Y-46565652D01*
X65906872Y-46440688D01*
X65781908Y-46288418D01*
X65689049Y-46114692D01*
X65631870Y-45926196D01*
X65612562Y-45730160D01*
X65631870Y-45534124D01*
X65689049Y-45345628D01*
X65781908Y-45171902D01*
X65906872Y-45019632D01*
X66059142Y-44894668D01*
X66232868Y-44801809D01*
X66421364Y-44744630D01*
X66568280Y-44730160D01*
X66666520Y-44730160D01*
X66813436Y-44744630D01*
X66813436Y-44744630D01*
G37*
G36*
X77033180Y-46504100D02*
G01*
X75033180Y-46504100D01*
X75033180Y-44504100D01*
X77033180Y-44504100D01*
X77033180Y-46504100D01*
X77033180Y-46504100D01*
G37*
G36*
X81501880Y-46381240D02*
G01*
X77701880Y-46381240D01*
X77701880Y-31881240D01*
X81501880Y-31881240D01*
X81501880Y-46381240D01*
X81501880Y-46381240D01*
G37*
G36*
X40549836Y-43550830D02*
G01*
X40738332Y-43608009D01*
X40912058Y-43700868D01*
X41064328Y-43825832D01*
X41189292Y-43978102D01*
X41282151Y-44151828D01*
X41339330Y-44340324D01*
X41358638Y-44536360D01*
X41339330Y-44732396D01*
X41282151Y-44920892D01*
X41189292Y-45094618D01*
X41064328Y-45246888D01*
X40912058Y-45371852D01*
X40738332Y-45464711D01*
X40549836Y-45521890D01*
X40402920Y-45536360D01*
X40304680Y-45536360D01*
X40157764Y-45521890D01*
X39969268Y-45464711D01*
X39795542Y-45371852D01*
X39643272Y-45246888D01*
X39518308Y-45094618D01*
X39425449Y-44920892D01*
X39368270Y-44732396D01*
X39348962Y-44536360D01*
X39368270Y-44340324D01*
X39425449Y-44151828D01*
X39518308Y-43978102D01*
X39643272Y-43825832D01*
X39795542Y-43700868D01*
X39969268Y-43608009D01*
X40157764Y-43550830D01*
X40304680Y-43536360D01*
X40402920Y-43536360D01*
X40549836Y-43550830D01*
X40549836Y-43550830D01*
G37*
G36*
X38009836Y-43550830D02*
G01*
X38198332Y-43608009D01*
X38372058Y-43700868D01*
X38524328Y-43825832D01*
X38649292Y-43978102D01*
X38742151Y-44151828D01*
X38799330Y-44340324D01*
X38818638Y-44536360D01*
X38799330Y-44732396D01*
X38742151Y-44920892D01*
X38649292Y-45094618D01*
X38524328Y-45246888D01*
X38372058Y-45371852D01*
X38198332Y-45464711D01*
X38009836Y-45521890D01*
X37862920Y-45536360D01*
X37764680Y-45536360D01*
X37617764Y-45521890D01*
X37429268Y-45464711D01*
X37255542Y-45371852D01*
X37103272Y-45246888D01*
X36978308Y-45094618D01*
X36885449Y-44920892D01*
X36828270Y-44732396D01*
X36808962Y-44536360D01*
X36828270Y-44340324D01*
X36885449Y-44151828D01*
X36978308Y-43978102D01*
X37103272Y-43825832D01*
X37255542Y-43700868D01*
X37429268Y-43608009D01*
X37617764Y-43550830D01*
X37764680Y-43536360D01*
X37862920Y-43536360D01*
X38009836Y-43550830D01*
X38009836Y-43550830D01*
G37*
G36*
X63148573Y-42317406D02*
G01*
X63238110Y-42344567D01*
X63327648Y-42371728D01*
X63492685Y-42459942D01*
X63637341Y-42578659D01*
X63756058Y-42723315D01*
X63844272Y-42888352D01*
X63898594Y-43067428D01*
X63916936Y-43253660D01*
X63898594Y-43439892D01*
X63844272Y-43618968D01*
X63756058Y-43784005D01*
X63637341Y-43928661D01*
X63492685Y-44047378D01*
X63327648Y-44135592D01*
X63274125Y-44151828D01*
X63148573Y-44189914D01*
X63009005Y-44203660D01*
X62915675Y-44203660D01*
X62776107Y-44189914D01*
X62650555Y-44151828D01*
X62597032Y-44135592D01*
X62431995Y-44047378D01*
X62287339Y-43928661D01*
X62168622Y-43784005D01*
X62080408Y-43618968D01*
X62026086Y-43439892D01*
X62007744Y-43253660D01*
X62026086Y-43067428D01*
X62080408Y-42888352D01*
X62168622Y-42723315D01*
X62287339Y-42578659D01*
X62431995Y-42459942D01*
X62597032Y-42371728D01*
X62686570Y-42344567D01*
X62776107Y-42317406D01*
X62915675Y-42303660D01*
X63009005Y-42303660D01*
X63148573Y-42317406D01*
X63148573Y-42317406D01*
G37*
G36*
X59330953Y-42312326D02*
G01*
X59347699Y-42317406D01*
X59510028Y-42366648D01*
X59675065Y-42454862D01*
X59819721Y-42573579D01*
X59938438Y-42718235D01*
X60026652Y-42883272D01*
X60080974Y-43062348D01*
X60099316Y-43248580D01*
X60080974Y-43434812D01*
X60026652Y-43613888D01*
X59938438Y-43778925D01*
X59819721Y-43923581D01*
X59675065Y-44042298D01*
X59510028Y-44130512D01*
X59493281Y-44135592D01*
X59330953Y-44184834D01*
X59191385Y-44198580D01*
X59098055Y-44198580D01*
X58958487Y-44184834D01*
X58796159Y-44135592D01*
X58779412Y-44130512D01*
X58614375Y-44042298D01*
X58469719Y-43923581D01*
X58351002Y-43778925D01*
X58262788Y-43613888D01*
X58208466Y-43434812D01*
X58190124Y-43248580D01*
X58208466Y-43062348D01*
X58262788Y-42883272D01*
X58351002Y-42718235D01*
X58469719Y-42573579D01*
X58614375Y-42454862D01*
X58779412Y-42366648D01*
X58941741Y-42317406D01*
X58958487Y-42312326D01*
X59098055Y-42298580D01*
X59191385Y-42298580D01*
X59330953Y-42312326D01*
X59330953Y-42312326D01*
G37*
G36*
X66813436Y-42204630D02*
G01*
X67001932Y-42261809D01*
X67175658Y-42354668D01*
X67327928Y-42479632D01*
X67452892Y-42631902D01*
X67545751Y-42805628D01*
X67602930Y-42994124D01*
X67622238Y-43190160D01*
X67602930Y-43386196D01*
X67545751Y-43574692D01*
X67452892Y-43748418D01*
X67327928Y-43900688D01*
X67175658Y-44025652D01*
X67001932Y-44118511D01*
X66813436Y-44175690D01*
X66666520Y-44190160D01*
X66568280Y-44190160D01*
X66421364Y-44175690D01*
X66232868Y-44118511D01*
X66059142Y-44025652D01*
X65906872Y-43900688D01*
X65781908Y-43748418D01*
X65689049Y-43574692D01*
X65631870Y-43386196D01*
X65612562Y-43190160D01*
X65631870Y-42994124D01*
X65689049Y-42805628D01*
X65781908Y-42631902D01*
X65906872Y-42479632D01*
X66059142Y-42354668D01*
X66232868Y-42261809D01*
X66421364Y-42204630D01*
X66568280Y-42190160D01*
X66666520Y-42190160D01*
X66813436Y-42204630D01*
X66813436Y-42204630D01*
G37*
G36*
X38009836Y-41010830D02*
G01*
X38198332Y-41068009D01*
X38372058Y-41160868D01*
X38524328Y-41285832D01*
X38649292Y-41438102D01*
X38742151Y-41611828D01*
X38799330Y-41800324D01*
X38818638Y-41996360D01*
X38799330Y-42192396D01*
X38742151Y-42380892D01*
X38649292Y-42554618D01*
X38524328Y-42706888D01*
X38372058Y-42831852D01*
X38198332Y-42924711D01*
X38009836Y-42981890D01*
X37862920Y-42996360D01*
X37764680Y-42996360D01*
X37617764Y-42981890D01*
X37429268Y-42924711D01*
X37255542Y-42831852D01*
X37103272Y-42706888D01*
X36978308Y-42554618D01*
X36885449Y-42380892D01*
X36828270Y-42192396D01*
X36808962Y-41996360D01*
X36828270Y-41800324D01*
X36885449Y-41611828D01*
X36978308Y-41438102D01*
X37103272Y-41285832D01*
X37255542Y-41160868D01*
X37429268Y-41068009D01*
X37617764Y-41010830D01*
X37764680Y-40996360D01*
X37862920Y-40996360D01*
X38009836Y-41010830D01*
X38009836Y-41010830D01*
G37*
G36*
X40549836Y-41010830D02*
G01*
X40738332Y-41068009D01*
X40912058Y-41160868D01*
X41064328Y-41285832D01*
X41189292Y-41438102D01*
X41282151Y-41611828D01*
X41339330Y-41800324D01*
X41358638Y-41996360D01*
X41339330Y-42192396D01*
X41282151Y-42380892D01*
X41189292Y-42554618D01*
X41064328Y-42706888D01*
X40912058Y-42831852D01*
X40738332Y-42924711D01*
X40549836Y-42981890D01*
X40402920Y-42996360D01*
X40304680Y-42996360D01*
X40157764Y-42981890D01*
X39969268Y-42924711D01*
X39795542Y-42831852D01*
X39643272Y-42706888D01*
X39518308Y-42554618D01*
X39425449Y-42380892D01*
X39368270Y-42192396D01*
X39348962Y-41996360D01*
X39368270Y-41800324D01*
X39425449Y-41611828D01*
X39518308Y-41438102D01*
X39643272Y-41285832D01*
X39795542Y-41160868D01*
X39969268Y-41068009D01*
X40157764Y-41010830D01*
X40304680Y-40996360D01*
X40402920Y-40996360D01*
X40549836Y-41010830D01*
X40549836Y-41010830D01*
G37*
G36*
X63148573Y-39777406D02*
G01*
X63238110Y-39804567D01*
X63327648Y-39831728D01*
X63492685Y-39919942D01*
X63637341Y-40038659D01*
X63756058Y-40183315D01*
X63844272Y-40348352D01*
X63898594Y-40527428D01*
X63916936Y-40713660D01*
X63898594Y-40899892D01*
X63844272Y-41078968D01*
X63756058Y-41244005D01*
X63637341Y-41388661D01*
X63492685Y-41507378D01*
X63327648Y-41595592D01*
X63274125Y-41611828D01*
X63148573Y-41649914D01*
X63009005Y-41663660D01*
X62915675Y-41663660D01*
X62776107Y-41649914D01*
X62650555Y-41611828D01*
X62597032Y-41595592D01*
X62431995Y-41507378D01*
X62287339Y-41388661D01*
X62168622Y-41244005D01*
X62080408Y-41078968D01*
X62026086Y-40899892D01*
X62007744Y-40713660D01*
X62026086Y-40527428D01*
X62080408Y-40348352D01*
X62168622Y-40183315D01*
X62287339Y-40038659D01*
X62431995Y-39919942D01*
X62597032Y-39831728D01*
X62686570Y-39804567D01*
X62776107Y-39777406D01*
X62915675Y-39763660D01*
X63009005Y-39763660D01*
X63148573Y-39777406D01*
X63148573Y-39777406D01*
G37*
G36*
X59330953Y-39772326D02*
G01*
X59347699Y-39777406D01*
X59510028Y-39826648D01*
X59675065Y-39914862D01*
X59819721Y-40033579D01*
X59938438Y-40178235D01*
X60026652Y-40343272D01*
X60080974Y-40522348D01*
X60099316Y-40708580D01*
X60080974Y-40894812D01*
X60026652Y-41073888D01*
X59938438Y-41238925D01*
X59819721Y-41383581D01*
X59675065Y-41502298D01*
X59510028Y-41590512D01*
X59493281Y-41595592D01*
X59330953Y-41644834D01*
X59191385Y-41658580D01*
X59098055Y-41658580D01*
X58958487Y-41644834D01*
X58796159Y-41595592D01*
X58779412Y-41590512D01*
X58614375Y-41502298D01*
X58469719Y-41383581D01*
X58351002Y-41238925D01*
X58262788Y-41073888D01*
X58208466Y-40894812D01*
X58190124Y-40708580D01*
X58208466Y-40522348D01*
X58262788Y-40343272D01*
X58351002Y-40178235D01*
X58469719Y-40033579D01*
X58614375Y-39914862D01*
X58779412Y-39826648D01*
X58941741Y-39777406D01*
X58958487Y-39772326D01*
X59098055Y-39758580D01*
X59191385Y-39758580D01*
X59330953Y-39772326D01*
X59330953Y-39772326D01*
G37*
G36*
X66813436Y-39664630D02*
G01*
X67001932Y-39721809D01*
X67175658Y-39814668D01*
X67327928Y-39939632D01*
X67452892Y-40091902D01*
X67545751Y-40265628D01*
X67602930Y-40454124D01*
X67622238Y-40650160D01*
X67602930Y-40846196D01*
X67545751Y-41034692D01*
X67452892Y-41208418D01*
X67327928Y-41360688D01*
X67175658Y-41485652D01*
X67001932Y-41578511D01*
X66813436Y-41635690D01*
X66666520Y-41650160D01*
X66568280Y-41650160D01*
X66421364Y-41635690D01*
X66232868Y-41578511D01*
X66059142Y-41485652D01*
X65906872Y-41360688D01*
X65781908Y-41208418D01*
X65689049Y-41034692D01*
X65631870Y-40846196D01*
X65612562Y-40650160D01*
X65631870Y-40454124D01*
X65689049Y-40265628D01*
X65781908Y-40091902D01*
X65906872Y-39939632D01*
X66059142Y-39814668D01*
X66232868Y-39721809D01*
X66421364Y-39664630D01*
X66568280Y-39650160D01*
X66666520Y-39650160D01*
X66813436Y-39664630D01*
X66813436Y-39664630D01*
G37*
G36*
X38009836Y-38470830D02*
G01*
X38198332Y-38528009D01*
X38372058Y-38620868D01*
X38524328Y-38745832D01*
X38649292Y-38898102D01*
X38742151Y-39071828D01*
X38799330Y-39260324D01*
X38818638Y-39456360D01*
X38799330Y-39652396D01*
X38742151Y-39840892D01*
X38649292Y-40014618D01*
X38524328Y-40166888D01*
X38372058Y-40291852D01*
X38198332Y-40384711D01*
X38009836Y-40441890D01*
X37862920Y-40456360D01*
X37764680Y-40456360D01*
X37617764Y-40441890D01*
X37429268Y-40384711D01*
X37255542Y-40291852D01*
X37103272Y-40166888D01*
X36978308Y-40014618D01*
X36885449Y-39840892D01*
X36828270Y-39652396D01*
X36808962Y-39456360D01*
X36828270Y-39260324D01*
X36885449Y-39071828D01*
X36978308Y-38898102D01*
X37103272Y-38745832D01*
X37255542Y-38620868D01*
X37429268Y-38528009D01*
X37617764Y-38470830D01*
X37764680Y-38456360D01*
X37862920Y-38456360D01*
X38009836Y-38470830D01*
X38009836Y-38470830D01*
G37*
G36*
X40549836Y-38470830D02*
G01*
X40738332Y-38528009D01*
X40912058Y-38620868D01*
X41064328Y-38745832D01*
X41189292Y-38898102D01*
X41282151Y-39071828D01*
X41339330Y-39260324D01*
X41358638Y-39456360D01*
X41339330Y-39652396D01*
X41282151Y-39840892D01*
X41189292Y-40014618D01*
X41064328Y-40166888D01*
X40912058Y-40291852D01*
X40738332Y-40384711D01*
X40549836Y-40441890D01*
X40402920Y-40456360D01*
X40304680Y-40456360D01*
X40157764Y-40441890D01*
X39969268Y-40384711D01*
X39795542Y-40291852D01*
X39643272Y-40166888D01*
X39518308Y-40014618D01*
X39425449Y-39840892D01*
X39368270Y-39652396D01*
X39348962Y-39456360D01*
X39368270Y-39260324D01*
X39425449Y-39071828D01*
X39518308Y-38898102D01*
X39643272Y-38745832D01*
X39795542Y-38620868D01*
X39969268Y-38528009D01*
X40157764Y-38470830D01*
X40304680Y-38456360D01*
X40402920Y-38456360D01*
X40549836Y-38470830D01*
X40549836Y-38470830D01*
G37*
G36*
X63148573Y-37237406D02*
G01*
X63238110Y-37264567D01*
X63327648Y-37291728D01*
X63492685Y-37379942D01*
X63637341Y-37498659D01*
X63756058Y-37643315D01*
X63844272Y-37808352D01*
X63898594Y-37987428D01*
X63916936Y-38173660D01*
X63898594Y-38359892D01*
X63844272Y-38538968D01*
X63756058Y-38704005D01*
X63637341Y-38848661D01*
X63492685Y-38967378D01*
X63327648Y-39055592D01*
X63274125Y-39071828D01*
X63148573Y-39109914D01*
X63009005Y-39123660D01*
X62915675Y-39123660D01*
X62776107Y-39109914D01*
X62650555Y-39071828D01*
X62597032Y-39055592D01*
X62431995Y-38967378D01*
X62287339Y-38848661D01*
X62168622Y-38704005D01*
X62080408Y-38538968D01*
X62026086Y-38359892D01*
X62007744Y-38173660D01*
X62026086Y-37987428D01*
X62080408Y-37808352D01*
X62168622Y-37643315D01*
X62287339Y-37498659D01*
X62431995Y-37379942D01*
X62597032Y-37291728D01*
X62686570Y-37264567D01*
X62776107Y-37237406D01*
X62915675Y-37223660D01*
X63009005Y-37223660D01*
X63148573Y-37237406D01*
X63148573Y-37237406D01*
G37*
G36*
X59330953Y-37232326D02*
G01*
X59347699Y-37237406D01*
X59510028Y-37286648D01*
X59675065Y-37374862D01*
X59819721Y-37493579D01*
X59938438Y-37638235D01*
X60026652Y-37803272D01*
X60080974Y-37982348D01*
X60099316Y-38168580D01*
X60080974Y-38354812D01*
X60026652Y-38533888D01*
X59938438Y-38698925D01*
X59819721Y-38843581D01*
X59675065Y-38962298D01*
X59510028Y-39050512D01*
X59493281Y-39055592D01*
X59330953Y-39104834D01*
X59191385Y-39118580D01*
X59098055Y-39118580D01*
X58958487Y-39104834D01*
X58796159Y-39055592D01*
X58779412Y-39050512D01*
X58614375Y-38962298D01*
X58469719Y-38843581D01*
X58351002Y-38698925D01*
X58262788Y-38533888D01*
X58208466Y-38354812D01*
X58190124Y-38168580D01*
X58208466Y-37982348D01*
X58262788Y-37803272D01*
X58351002Y-37638235D01*
X58469719Y-37493579D01*
X58614375Y-37374862D01*
X58779412Y-37286648D01*
X58941741Y-37237406D01*
X58958487Y-37232326D01*
X59098055Y-37218580D01*
X59191385Y-37218580D01*
X59330953Y-37232326D01*
X59330953Y-37232326D01*
G37*
G36*
X67617400Y-39110160D02*
G01*
X65617400Y-39110160D01*
X65617400Y-37110160D01*
X67617400Y-37110160D01*
X67617400Y-39110160D01*
X67617400Y-39110160D01*
G37*
G36*
X38009836Y-35930830D02*
G01*
X38198332Y-35988009D01*
X38372058Y-36080868D01*
X38524328Y-36205832D01*
X38649292Y-36358102D01*
X38742151Y-36531828D01*
X38799330Y-36720324D01*
X38818638Y-36916360D01*
X38799330Y-37112396D01*
X38742151Y-37300892D01*
X38649292Y-37474618D01*
X38524328Y-37626888D01*
X38372058Y-37751852D01*
X38198332Y-37844711D01*
X38009836Y-37901890D01*
X37862920Y-37916360D01*
X37764680Y-37916360D01*
X37617764Y-37901890D01*
X37429268Y-37844711D01*
X37255542Y-37751852D01*
X37103272Y-37626888D01*
X36978308Y-37474618D01*
X36885449Y-37300892D01*
X36828270Y-37112396D01*
X36808962Y-36916360D01*
X36828270Y-36720324D01*
X36885449Y-36531828D01*
X36978308Y-36358102D01*
X37103272Y-36205832D01*
X37255542Y-36080868D01*
X37429268Y-35988009D01*
X37617764Y-35930830D01*
X37764680Y-35916360D01*
X37862920Y-35916360D01*
X38009836Y-35930830D01*
X38009836Y-35930830D01*
G37*
G36*
X40549836Y-35930830D02*
G01*
X40738332Y-35988009D01*
X40912058Y-36080868D01*
X41064328Y-36205832D01*
X41189292Y-36358102D01*
X41282151Y-36531828D01*
X41339330Y-36720324D01*
X41358638Y-36916360D01*
X41339330Y-37112396D01*
X41282151Y-37300892D01*
X41189292Y-37474618D01*
X41064328Y-37626888D01*
X40912058Y-37751852D01*
X40738332Y-37844711D01*
X40549836Y-37901890D01*
X40402920Y-37916360D01*
X40304680Y-37916360D01*
X40157764Y-37901890D01*
X39969268Y-37844711D01*
X39795542Y-37751852D01*
X39643272Y-37626888D01*
X39518308Y-37474618D01*
X39425449Y-37300892D01*
X39368270Y-37112396D01*
X39348962Y-36916360D01*
X39368270Y-36720324D01*
X39425449Y-36531828D01*
X39518308Y-36358102D01*
X39643272Y-36205832D01*
X39795542Y-36080868D01*
X39969268Y-35988009D01*
X40157764Y-35930830D01*
X40304680Y-35916360D01*
X40402920Y-35916360D01*
X40549836Y-35930830D01*
X40549836Y-35930830D01*
G37*
G36*
X63148573Y-34697406D02*
G01*
X63238110Y-34724567D01*
X63327648Y-34751728D01*
X63492685Y-34839942D01*
X63637341Y-34958659D01*
X63756058Y-35103315D01*
X63844272Y-35268352D01*
X63898594Y-35447428D01*
X63916936Y-35633660D01*
X63898594Y-35819892D01*
X63844272Y-35998968D01*
X63756058Y-36164005D01*
X63637341Y-36308661D01*
X63492685Y-36427378D01*
X63327648Y-36515592D01*
X63274125Y-36531828D01*
X63148573Y-36569914D01*
X63009005Y-36583660D01*
X62915675Y-36583660D01*
X62776107Y-36569914D01*
X62650555Y-36531828D01*
X62597032Y-36515592D01*
X62431995Y-36427378D01*
X62287339Y-36308661D01*
X62168622Y-36164005D01*
X62080408Y-35998968D01*
X62026086Y-35819892D01*
X62007744Y-35633660D01*
X62026086Y-35447428D01*
X62080408Y-35268352D01*
X62168622Y-35103315D01*
X62287339Y-34958659D01*
X62431995Y-34839942D01*
X62597032Y-34751728D01*
X62686570Y-34724567D01*
X62776107Y-34697406D01*
X62915675Y-34683660D01*
X63009005Y-34683660D01*
X63148573Y-34697406D01*
X63148573Y-34697406D01*
G37*
G36*
X59330953Y-34692326D02*
G01*
X59347699Y-34697406D01*
X59510028Y-34746648D01*
X59675065Y-34834862D01*
X59819721Y-34953579D01*
X59938438Y-35098235D01*
X60026652Y-35263272D01*
X60080974Y-35442348D01*
X60099316Y-35628580D01*
X60080974Y-35814812D01*
X60026652Y-35993888D01*
X59938438Y-36158925D01*
X59819721Y-36303581D01*
X59675065Y-36422298D01*
X59510028Y-36510512D01*
X59493281Y-36515592D01*
X59330953Y-36564834D01*
X59191385Y-36578580D01*
X59098055Y-36578580D01*
X58958487Y-36564834D01*
X58796159Y-36515592D01*
X58779412Y-36510512D01*
X58614375Y-36422298D01*
X58469719Y-36303581D01*
X58351002Y-36158925D01*
X58262788Y-35993888D01*
X58208466Y-35814812D01*
X58190124Y-35628580D01*
X58208466Y-35442348D01*
X58262788Y-35263272D01*
X58351002Y-35098235D01*
X58469719Y-34953579D01*
X58614375Y-34834862D01*
X58779412Y-34746648D01*
X58941741Y-34697406D01*
X58958487Y-34692326D01*
X59098055Y-34678580D01*
X59191385Y-34678580D01*
X59330953Y-34692326D01*
X59330953Y-34692326D01*
G37*
G36*
X38009836Y-33390830D02*
G01*
X38198332Y-33448009D01*
X38372058Y-33540868D01*
X38524328Y-33665832D01*
X38649292Y-33818102D01*
X38742151Y-33991828D01*
X38799330Y-34180324D01*
X38818638Y-34376360D01*
X38799330Y-34572396D01*
X38742151Y-34760892D01*
X38649292Y-34934618D01*
X38524328Y-35086888D01*
X38372058Y-35211852D01*
X38198332Y-35304711D01*
X38009836Y-35361890D01*
X37862920Y-35376360D01*
X37764680Y-35376360D01*
X37617764Y-35361890D01*
X37429268Y-35304711D01*
X37255542Y-35211852D01*
X37103272Y-35086888D01*
X36978308Y-34934618D01*
X36885449Y-34760892D01*
X36828270Y-34572396D01*
X36808962Y-34376360D01*
X36828270Y-34180324D01*
X36885449Y-33991828D01*
X36978308Y-33818102D01*
X37103272Y-33665832D01*
X37255542Y-33540868D01*
X37429268Y-33448009D01*
X37617764Y-33390830D01*
X37764680Y-33376360D01*
X37862920Y-33376360D01*
X38009836Y-33390830D01*
X38009836Y-33390830D01*
G37*
G36*
X41353800Y-35376360D02*
G01*
X39353800Y-35376360D01*
X39353800Y-33376360D01*
X41353800Y-33376360D01*
X41353800Y-35376360D01*
X41353800Y-35376360D01*
G37*
G36*
X77040800Y-33801560D02*
G01*
X75040800Y-33801560D01*
X75040800Y-31801560D01*
X77040800Y-31801560D01*
X77040800Y-33801560D01*
X77040800Y-33801560D01*
G37*
M02*
