M48
; DRILL file {KiCad (5.1.4)-1} date 10/04/2020 17:06:04
; FORMAT={-:-/ absolute / inch / decimal}
; #@! TF.CreationDate,2020-04-10T17:06:04+01:00
; #@! TF.GenerationSoftware,Kicad,Pcbnew,(5.1.4)-1
FMAT,2
INCH
T1C0.0120
T2C0.0150
T3C0.0315
T4C0.0394
%
G90
G05
T1
X1.3022Y-1.5556
X1.3462Y-1.4542
X1.8785Y-1.8041
X2.0285Y-1.8052
X2.9123Y-1.7352
T2
X1.8203Y-1.8046
X1.831Y-1.3542
X2.3115Y-1.2874
T3
X2.3285Y-1.4027
X2.3285Y-1.5027
X2.3285Y-1.6027
X2.3285Y-1.7027
X2.3285Y-1.8027
X2.3285Y-1.9027
X2.4788Y-1.4029
X2.4788Y-1.5029
X2.4788Y-1.6029
X2.4788Y-1.7029
X2.4788Y-1.8029
X2.4788Y-1.9029
T4
X2.9934Y-1.7915
X2.6227Y-1.5004
X2.6227Y-1.6004
X2.6227Y-1.7004
X2.6227Y-1.8004
X2.9937Y-1.2914
X1.4887Y-1.3534
X1.4887Y-1.4534
X1.4887Y-1.5534
X1.4887Y-1.6534
X1.4887Y-1.7534
X1.4887Y-1.8534
X1.5887Y-1.3534
X1.5887Y-1.4534
X1.5887Y-1.5534
X1.5887Y-1.6534
X1.5887Y-1.7534
X1.5887Y-1.8534
T0
M30
