G04 #@! TF.GenerationSoftware,KiCad,Pcbnew,(5.1.4)-1*
G04 #@! TF.CreationDate,2020-04-10T17:06:02+01:00*
G04 #@! TF.ProjectId,buffer,62756666-6572-42e6-9b69-6361645f7063,rev?*
G04 #@! TF.SameCoordinates,Original*
G04 #@! TF.FileFunction,Copper,L2,Bot*
G04 #@! TF.FilePolarity,Positive*
%FSLAX46Y46*%
G04 Gerber Fmt 4.6, Leading zero omitted, Abs format (unit mm)*
G04 Created by KiCad (PCBNEW (5.1.4)-1) date 2020-04-10 17:06:02*
%MOMM*%
%LPD*%
G04 APERTURE LIST*
%ADD10R,3.500000X1.750000*%
%ADD11R,3.500000X2.000000*%
%ADD12R,1.600000X1.600000*%
%ADD13O,1.600000X1.600000*%
%ADD14O,1.700000X1.700000*%
%ADD15R,1.700000X1.700000*%
%ADD16C,0.762000*%
%ADD17C,0.660400*%
%ADD18C,0.381000*%
%ADD19C,0.762000*%
%ADD20C,0.254000*%
G04 APERTURE END LIST*
D10*
X79601880Y-45356240D03*
D11*
X79601880Y-42941240D03*
X79601880Y-40401240D03*
X79601880Y-37861240D03*
X79601880Y-35321240D03*
D10*
X79601880Y-32906240D03*
D12*
X62962340Y-48333660D03*
D13*
X62962340Y-45793660D03*
X62962340Y-43253660D03*
X62962340Y-40713660D03*
X62962340Y-38173660D03*
X62962340Y-35633660D03*
D14*
X66617400Y-45730160D03*
X66617400Y-43190160D03*
X66617400Y-40650160D03*
D15*
X66617400Y-38110160D03*
X76033180Y-45504100D03*
X40353800Y-34376360D03*
D14*
X37813800Y-34376360D03*
X40353800Y-36916360D03*
X37813800Y-36916360D03*
X40353800Y-39456360D03*
X37813800Y-39456360D03*
X40353800Y-41996360D03*
X37813800Y-41996360D03*
X40353800Y-44536360D03*
X37813800Y-44536360D03*
X40353800Y-47076360D03*
X37813800Y-47076360D03*
D15*
X76040800Y-32801560D03*
D13*
X59144720Y-35628580D03*
X59144720Y-38168580D03*
X59144720Y-40708580D03*
X59144720Y-43248580D03*
X59144720Y-45788580D03*
D12*
X59144720Y-48328580D03*
D16*
X46507000Y-34395960D03*
X58712000Y-32700960D03*
X46236440Y-45836840D03*
D17*
X33076700Y-39512240D03*
X34194300Y-36936680D03*
X47714720Y-45824140D03*
X51524720Y-45852080D03*
X73973240Y-44074080D03*
D18*
X38663799Y-45386359D02*
X37813800Y-44536360D01*
X39057501Y-45780061D02*
X38663799Y-45386359D01*
X42101101Y-45780061D02*
X39057501Y-45780061D01*
X46022000Y-49700960D02*
X42101101Y-45780061D01*
X63002000Y-49700960D02*
X62702000Y-49700960D01*
X59102000Y-49700960D02*
X56902000Y-49700960D01*
X56787000Y-34395960D02*
X56902000Y-34510960D01*
X46507000Y-34395960D02*
X56787000Y-34395960D01*
X46236440Y-45176520D02*
X58206230Y-33206730D01*
X46236440Y-45836840D02*
X46236440Y-45176520D01*
X56902000Y-34510960D02*
X58206230Y-33206730D01*
X58206230Y-33206730D02*
X58712000Y-32700960D01*
X59149800Y-48333660D02*
X59144720Y-48328580D01*
X62962340Y-48333660D02*
X59149800Y-48333660D01*
X59336100Y-49700960D02*
X59753540Y-49700960D01*
X59144720Y-49509580D02*
X59336100Y-49700960D01*
X59144720Y-48328580D02*
X59144720Y-49509580D01*
X62702000Y-49700960D02*
X59753540Y-49700960D01*
X59753540Y-49700960D02*
X59102000Y-49700960D01*
X62962340Y-49661300D02*
X63002000Y-49700960D01*
X62962340Y-48333660D02*
X62962340Y-49661300D01*
X46236440Y-49620460D02*
X46316940Y-49700960D01*
X46236440Y-45836840D02*
X46236440Y-49620460D01*
X56902000Y-49700960D02*
X46316940Y-49700960D01*
X46316940Y-49700960D02*
X46022000Y-49700960D01*
X63002000Y-49700960D02*
X66200060Y-49700960D01*
D19*
X72959780Y-42941240D02*
X72281600Y-43619420D01*
X79601880Y-42941240D02*
X72959780Y-42941240D01*
D18*
X66200060Y-49700960D02*
X72281600Y-43619420D01*
X40353800Y-39456360D02*
X39110099Y-38212659D01*
X34376281Y-38212659D02*
X33406899Y-39182041D01*
X39110099Y-38212659D02*
X34376281Y-38212659D01*
X33406899Y-39182041D02*
X33076700Y-39512240D01*
X37813800Y-41996360D02*
X38513122Y-41996360D01*
X40353800Y-36916360D02*
X39110099Y-35672659D01*
X39110099Y-35672659D02*
X35458321Y-35672659D01*
X35458321Y-35672659D02*
X34524499Y-36606481D01*
X34524499Y-36606481D02*
X34194300Y-36936680D01*
X59102000Y-43160960D02*
X60388401Y-44447361D01*
X60388401Y-44447361D02*
X69509861Y-44447361D01*
X77470880Y-40401240D02*
X79601880Y-40401240D01*
X73555982Y-40401240D02*
X77470880Y-40401240D01*
X69509861Y-44447361D02*
X73555982Y-40401240D01*
X74691720Y-37861240D02*
X79601880Y-37861240D01*
X70638299Y-41914661D02*
X74691720Y-37861240D01*
X59102000Y-40620960D02*
X60395701Y-41914661D01*
X60395701Y-41914661D02*
X70638299Y-41914661D01*
X59901999Y-38880959D02*
X59102000Y-38080960D01*
X60427499Y-39406459D02*
X59901999Y-38880959D01*
X68996501Y-39406459D02*
X68326501Y-39406459D01*
X68326501Y-39406459D02*
X60427499Y-39406459D01*
X70686501Y-39406459D02*
X68326501Y-39406459D01*
X73432000Y-36660960D02*
X70686501Y-39406459D01*
X77470880Y-35321240D02*
X79601880Y-35321240D01*
X73432000Y-36660960D02*
X76131160Y-36660960D01*
X76131160Y-36660960D02*
X77470880Y-35321240D01*
X78295780Y-32906240D02*
X79601880Y-32906240D01*
X75981060Y-35220960D02*
X78295780Y-32906240D01*
X72312000Y-35220960D02*
X75981060Y-35220960D01*
X70698299Y-36834661D02*
X72312000Y-35220960D01*
X59102000Y-35540960D02*
X60395701Y-36834661D01*
X60395701Y-36834661D02*
X70698299Y-36834661D01*
X62962340Y-35633660D02*
X61763559Y-34434879D01*
X61763559Y-34434879D02*
X58571743Y-34434879D01*
X57951019Y-35587841D02*
X47714720Y-45824140D01*
X58571743Y-34434879D02*
X57951019Y-35055603D01*
X57951019Y-35055603D02*
X57951019Y-35587841D01*
X51524720Y-43869304D02*
X51524720Y-45852080D01*
X58571743Y-36822281D02*
X51524720Y-43869304D01*
X59557125Y-36822281D02*
X58571743Y-36822281D01*
X62962340Y-38173660D02*
X60908504Y-38173660D01*
X60908504Y-38173660D02*
X59557125Y-36822281D01*
X77318033Y-44074080D02*
X74440213Y-44074080D01*
X74440213Y-44074080D02*
X73973240Y-44074080D01*
X78600193Y-45356240D02*
X77318033Y-44074080D01*
X79601880Y-45356240D02*
X78600193Y-45356240D01*
D20*
G36*
X58795001Y-32793303D02*
G01*
X58795000Y-32793313D01*
X58795000Y-33555313D01*
X58791686Y-33588960D01*
X58793697Y-33609379D01*
X58612293Y-33609379D01*
X58571742Y-33605385D01*
X58531192Y-33609379D01*
X58531190Y-33609379D01*
X58409917Y-33621323D01*
X58254309Y-33668526D01*
X58200951Y-33697047D01*
X58110900Y-33745180D01*
X58055431Y-33790703D01*
X57985202Y-33848338D01*
X57959349Y-33879840D01*
X57395985Y-34443205D01*
X57364478Y-34469062D01*
X57295233Y-34553438D01*
X57261320Y-34594761D01*
X57198940Y-34711466D01*
X57184666Y-34738170D01*
X57137463Y-34893778D01*
X57125519Y-35015050D01*
X57121525Y-35055603D01*
X57125519Y-35096153D01*
X57125519Y-35245907D01*
X47485878Y-44885550D01*
X47433182Y-44896032D01*
X47257526Y-44968791D01*
X47099441Y-45074420D01*
X46965000Y-45208861D01*
X46859371Y-45366946D01*
X46786612Y-45542602D01*
X46749520Y-45729076D01*
X46749520Y-45919204D01*
X46786612Y-46105678D01*
X46859371Y-46281334D01*
X46965000Y-46439419D01*
X47099441Y-46573860D01*
X47257526Y-46679489D01*
X47433182Y-46752248D01*
X47619656Y-46789340D01*
X47809784Y-46789340D01*
X47996258Y-46752248D01*
X48171914Y-46679489D01*
X48329999Y-46573860D01*
X48464440Y-46439419D01*
X48570069Y-46281334D01*
X48642828Y-46105678D01*
X48653310Y-46052982D01*
X50699220Y-44007072D01*
X50699221Y-45350213D01*
X50669371Y-45394886D01*
X50596612Y-45570542D01*
X50559520Y-45757016D01*
X50559520Y-45947144D01*
X50596612Y-46133618D01*
X50669371Y-46309274D01*
X50775000Y-46467359D01*
X50909441Y-46601800D01*
X51067526Y-46707429D01*
X51243182Y-46780188D01*
X51429656Y-46817280D01*
X51619784Y-46817280D01*
X51806258Y-46780188D01*
X51981914Y-46707429D01*
X52139999Y-46601800D01*
X52274440Y-46467359D01*
X52380069Y-46309274D01*
X52452828Y-46133618D01*
X52489920Y-45947144D01*
X52489920Y-45757016D01*
X52452828Y-45570542D01*
X52380069Y-45394886D01*
X52350220Y-45350214D01*
X52350220Y-44211236D01*
X57822476Y-38738981D01*
X57945788Y-38969681D01*
X58125112Y-39188188D01*
X58343619Y-39367512D01*
X58476578Y-39438580D01*
X58343619Y-39509648D01*
X58125112Y-39688972D01*
X57945788Y-39907479D01*
X57812538Y-40156772D01*
X57730484Y-40427271D01*
X57702777Y-40708580D01*
X57730484Y-40989889D01*
X57812538Y-41260388D01*
X57945788Y-41509681D01*
X58125112Y-41728188D01*
X58343619Y-41907512D01*
X58476578Y-41978580D01*
X58343619Y-42049648D01*
X58125112Y-42228972D01*
X57945788Y-42447479D01*
X57812538Y-42696772D01*
X57730484Y-42967271D01*
X57702777Y-43248580D01*
X57730484Y-43529889D01*
X57812538Y-43800388D01*
X57945788Y-44049681D01*
X58125112Y-44268188D01*
X58343619Y-44447512D01*
X58476578Y-44518580D01*
X58343619Y-44589648D01*
X58125112Y-44768972D01*
X57945788Y-44987479D01*
X57812538Y-45236772D01*
X57730484Y-45507271D01*
X57702777Y-45788580D01*
X57730484Y-46069889D01*
X57812538Y-46340388D01*
X57945788Y-46589681D01*
X58125112Y-46808188D01*
X58238202Y-46900999D01*
X58220238Y-46902768D01*
X58100540Y-46939078D01*
X57990226Y-46998043D01*
X57893535Y-47077395D01*
X57814183Y-47174086D01*
X57755218Y-47284400D01*
X57718908Y-47404098D01*
X57706648Y-47528580D01*
X57709720Y-48042830D01*
X57868470Y-48201580D01*
X59017720Y-48201580D01*
X59017720Y-48181580D01*
X59271720Y-48181580D01*
X59271720Y-48201580D01*
X60420970Y-48201580D01*
X60579720Y-48042830D01*
X60582792Y-47528580D01*
X60570532Y-47404098D01*
X60534222Y-47284400D01*
X60475257Y-47174086D01*
X60395905Y-47077395D01*
X60299214Y-46998043D01*
X60188900Y-46939078D01*
X60069202Y-46902768D01*
X60051238Y-46900999D01*
X60164328Y-46808188D01*
X60343652Y-46589681D01*
X60476902Y-46340388D01*
X60558956Y-46069889D01*
X60586663Y-45788580D01*
X60558956Y-45507271D01*
X60487849Y-45272861D01*
X61620752Y-45272861D01*
X61548104Y-45512351D01*
X61520397Y-45793660D01*
X61548104Y-46074969D01*
X61630158Y-46345468D01*
X61763408Y-46594761D01*
X61942732Y-46813268D01*
X62055822Y-46906079D01*
X62037858Y-46907848D01*
X61918160Y-46944158D01*
X61807846Y-47003123D01*
X61711155Y-47082475D01*
X61631803Y-47179166D01*
X61572838Y-47289480D01*
X61536528Y-47409178D01*
X61524268Y-47533660D01*
X61527340Y-48047910D01*
X61686090Y-48206660D01*
X62835340Y-48206660D01*
X62835340Y-48186660D01*
X63089340Y-48186660D01*
X63089340Y-48206660D01*
X64238590Y-48206660D01*
X64397340Y-48047910D01*
X64400412Y-47533660D01*
X64388152Y-47409178D01*
X64351842Y-47289480D01*
X64292877Y-47179166D01*
X64213525Y-47082475D01*
X64116834Y-47003123D01*
X64006520Y-46944158D01*
X63886822Y-46907848D01*
X63868858Y-46906079D01*
X63981948Y-46813268D01*
X64161272Y-46594761D01*
X64294522Y-46345468D01*
X64376576Y-46074969D01*
X64404283Y-45793660D01*
X64376576Y-45512351D01*
X64303928Y-45272861D01*
X65204300Y-45272861D01*
X65153887Y-45439049D01*
X65125215Y-45730160D01*
X65153887Y-46021271D01*
X65238801Y-46301194D01*
X65376694Y-46559174D01*
X65562266Y-46785294D01*
X65788386Y-46970866D01*
X66046366Y-47108759D01*
X66326289Y-47193673D01*
X66544450Y-47215160D01*
X66690350Y-47215160D01*
X66908511Y-47193673D01*
X67188434Y-47108759D01*
X67446414Y-46970866D01*
X67672534Y-46785294D01*
X67858106Y-46559174D01*
X67995999Y-46301194D01*
X68080913Y-46021271D01*
X68109585Y-45730160D01*
X68080913Y-45439049D01*
X68030500Y-45272861D01*
X69469311Y-45272861D01*
X69509861Y-45276855D01*
X69550411Y-45272861D01*
X69550414Y-45272861D01*
X69671687Y-45260917D01*
X69827295Y-45213714D01*
X69970703Y-45137060D01*
X70096402Y-45033902D01*
X70122259Y-45002395D01*
X73897915Y-41226740D01*
X77213808Y-41226740D01*
X77213808Y-41401240D01*
X77226068Y-41525722D01*
X77262378Y-41645420D01*
X77276179Y-41671240D01*
X77262378Y-41697060D01*
X77226068Y-41816758D01*
X77213808Y-41941240D01*
X77216880Y-42655490D01*
X77375630Y-42814240D01*
X79474880Y-42814240D01*
X79474880Y-42794240D01*
X79728880Y-42794240D01*
X79728880Y-42814240D01*
X79748880Y-42814240D01*
X79748880Y-43068240D01*
X79728880Y-43068240D01*
X79728880Y-43088240D01*
X79474880Y-43088240D01*
X79474880Y-43068240D01*
X77375630Y-43068240D01*
X77216880Y-43226990D01*
X77216787Y-43248580D01*
X74475106Y-43248580D01*
X74430434Y-43218731D01*
X74254778Y-43145972D01*
X74068304Y-43108880D01*
X73878176Y-43108880D01*
X73691702Y-43145972D01*
X73516046Y-43218731D01*
X73357961Y-43324360D01*
X73223520Y-43458801D01*
X73117891Y-43616886D01*
X73045132Y-43792542D01*
X73008040Y-43979016D01*
X73008040Y-44169144D01*
X73045132Y-44355618D01*
X73117891Y-44531274D01*
X73223520Y-44689359D01*
X73357961Y-44823800D01*
X73516046Y-44929429D01*
X73691702Y-45002188D01*
X73878176Y-45039280D01*
X74068304Y-45039280D01*
X74254778Y-45002188D01*
X74430434Y-44929429D01*
X74475106Y-44899580D01*
X74545108Y-44899580D01*
X74545108Y-46289760D01*
X74137394Y-46289760D01*
X74066810Y-46289423D01*
X74034205Y-46292463D01*
X74001456Y-46292234D01*
X73991938Y-46293168D01*
X73395320Y-46355874D01*
X73334509Y-46368357D01*
X73273518Y-46379992D01*
X73264362Y-46382756D01*
X72691286Y-46560153D01*
X72634032Y-46584221D01*
X72576488Y-46607470D01*
X72568043Y-46611960D01*
X72040338Y-46897289D01*
X71988881Y-46931997D01*
X71936917Y-46966002D01*
X71929505Y-46972047D01*
X71467271Y-47354441D01*
X71423524Y-47398494D01*
X71379167Y-47441932D01*
X71373070Y-47449302D01*
X70993913Y-47914194D01*
X70959557Y-47965905D01*
X70924480Y-48017133D01*
X70919934Y-48025542D01*
X70919931Y-48025546D01*
X70919931Y-48025547D01*
X70638293Y-48555231D01*
X70614639Y-48612620D01*
X70590176Y-48669696D01*
X70587348Y-48678833D01*
X70413957Y-49253133D01*
X70401900Y-49314026D01*
X70388990Y-49374763D01*
X70387990Y-49384275D01*
X70329450Y-49981316D01*
X70329450Y-49981327D01*
X70326178Y-50014578D01*
X70326536Y-53808160D01*
X31847340Y-53808160D01*
X31847340Y-49128580D01*
X57706648Y-49128580D01*
X57718908Y-49253062D01*
X57755218Y-49372760D01*
X57814183Y-49483074D01*
X57893535Y-49579765D01*
X57990226Y-49659117D01*
X58100540Y-49718082D01*
X58220238Y-49754392D01*
X58344720Y-49766652D01*
X58858970Y-49763580D01*
X59017720Y-49604830D01*
X59017720Y-48455580D01*
X59271720Y-48455580D01*
X59271720Y-49604830D01*
X59430470Y-49763580D01*
X59944720Y-49766652D01*
X60069202Y-49754392D01*
X60188900Y-49718082D01*
X60299214Y-49659117D01*
X60395905Y-49579765D01*
X60475257Y-49483074D01*
X60534222Y-49372760D01*
X60570532Y-49253062D01*
X60582291Y-49133660D01*
X61524268Y-49133660D01*
X61536528Y-49258142D01*
X61572838Y-49377840D01*
X61631803Y-49488154D01*
X61711155Y-49584845D01*
X61807846Y-49664197D01*
X61918160Y-49723162D01*
X62037858Y-49759472D01*
X62162340Y-49771732D01*
X62676590Y-49768660D01*
X62835340Y-49609910D01*
X62835340Y-48460660D01*
X63089340Y-48460660D01*
X63089340Y-49609910D01*
X63248090Y-49768660D01*
X63762340Y-49771732D01*
X63886822Y-49759472D01*
X64006520Y-49723162D01*
X64116834Y-49664197D01*
X64213525Y-49584845D01*
X64292877Y-49488154D01*
X64351842Y-49377840D01*
X64388152Y-49258142D01*
X64400412Y-49133660D01*
X64397340Y-48619410D01*
X64238590Y-48460660D01*
X63089340Y-48460660D01*
X62835340Y-48460660D01*
X61686090Y-48460660D01*
X61527340Y-48619410D01*
X61524268Y-49133660D01*
X60582291Y-49133660D01*
X60582792Y-49128580D01*
X60579720Y-48614330D01*
X60420970Y-48455580D01*
X59271720Y-48455580D01*
X59017720Y-48455580D01*
X57868470Y-48455580D01*
X57709720Y-48614330D01*
X57706648Y-49128580D01*
X31847340Y-49128580D01*
X31847340Y-46796960D01*
X31844900Y-46772184D01*
X31837673Y-46748359D01*
X31825937Y-46726403D01*
X31810143Y-46707157D01*
X31790897Y-46691363D01*
X31768941Y-46679627D01*
X31745116Y-46672400D01*
X31720340Y-46669960D01*
X28211800Y-46669960D01*
X28211800Y-39417176D01*
X32111500Y-39417176D01*
X32111500Y-39607304D01*
X32148592Y-39793778D01*
X32221351Y-39969434D01*
X32326980Y-40127519D01*
X32461421Y-40261960D01*
X32619506Y-40367589D01*
X32795162Y-40440348D01*
X32981636Y-40477440D01*
X33171764Y-40477440D01*
X33358238Y-40440348D01*
X33533894Y-40367589D01*
X33691979Y-40261960D01*
X33826420Y-40127519D01*
X33932049Y-39969434D01*
X34004808Y-39793778D01*
X34015290Y-39741083D01*
X34019291Y-39737082D01*
X34019295Y-39737077D01*
X34718214Y-39038159D01*
X36388839Y-39038159D01*
X36350287Y-39165249D01*
X36321615Y-39456360D01*
X36350287Y-39747471D01*
X36435201Y-40027394D01*
X36573094Y-40285374D01*
X36758666Y-40511494D01*
X36984786Y-40697066D01*
X37039591Y-40726360D01*
X36984786Y-40755654D01*
X36758666Y-40941226D01*
X36573094Y-41167346D01*
X36435201Y-41425326D01*
X36350287Y-41705249D01*
X36321615Y-41996360D01*
X36350287Y-42287471D01*
X36435201Y-42567394D01*
X36573094Y-42825374D01*
X36758666Y-43051494D01*
X36984786Y-43237066D01*
X37242766Y-43374959D01*
X37522689Y-43459873D01*
X37740850Y-43481360D01*
X37886750Y-43481360D01*
X38104911Y-43459873D01*
X38384834Y-43374959D01*
X38642814Y-43237066D01*
X38868934Y-43051494D01*
X39054506Y-42825374D01*
X39083800Y-42770569D01*
X39113094Y-42825374D01*
X39298666Y-43051494D01*
X39524786Y-43237066D01*
X39579591Y-43266360D01*
X39524786Y-43295654D01*
X39298666Y-43481226D01*
X39113094Y-43707346D01*
X38975201Y-43965326D01*
X38890287Y-44245249D01*
X38861615Y-44536360D01*
X38890287Y-44827471D01*
X38975201Y-45107394D01*
X39113094Y-45365374D01*
X39298666Y-45591494D01*
X39524786Y-45777066D01*
X39579591Y-45806360D01*
X39524786Y-45835654D01*
X39298666Y-46021226D01*
X39113094Y-46247346D01*
X39083800Y-46302151D01*
X39054506Y-46247346D01*
X38868934Y-46021226D01*
X38642814Y-45835654D01*
X38384834Y-45697761D01*
X38104911Y-45612847D01*
X37886750Y-45591360D01*
X37740850Y-45591360D01*
X37522689Y-45612847D01*
X37242766Y-45697761D01*
X36984786Y-45835654D01*
X36758666Y-46021226D01*
X36573094Y-46247346D01*
X36435201Y-46505326D01*
X36350287Y-46785249D01*
X36321615Y-47076360D01*
X36350287Y-47367471D01*
X36435201Y-47647394D01*
X36573094Y-47905374D01*
X36758666Y-48131494D01*
X36984786Y-48317066D01*
X37242766Y-48454959D01*
X37522689Y-48539873D01*
X37740850Y-48561360D01*
X37886750Y-48561360D01*
X38104911Y-48539873D01*
X38384834Y-48454959D01*
X38642814Y-48317066D01*
X38868934Y-48131494D01*
X39054506Y-47905374D01*
X39083800Y-47850569D01*
X39113094Y-47905374D01*
X39298666Y-48131494D01*
X39524786Y-48317066D01*
X39782766Y-48454959D01*
X40062689Y-48539873D01*
X40280850Y-48561360D01*
X40426750Y-48561360D01*
X40644911Y-48539873D01*
X40924834Y-48454959D01*
X41182814Y-48317066D01*
X41408934Y-48131494D01*
X41594506Y-47905374D01*
X41732399Y-47647394D01*
X41817313Y-47367471D01*
X41845985Y-47076360D01*
X41817313Y-46785249D01*
X41732399Y-46505326D01*
X41594506Y-46247346D01*
X41408934Y-46021226D01*
X41182814Y-45835654D01*
X41128009Y-45806360D01*
X41182814Y-45777066D01*
X41408934Y-45591494D01*
X41594506Y-45365374D01*
X41732399Y-45107394D01*
X41817313Y-44827471D01*
X41845985Y-44536360D01*
X41817313Y-44245249D01*
X41732399Y-43965326D01*
X41594506Y-43707346D01*
X41408934Y-43481226D01*
X41182814Y-43295654D01*
X41128009Y-43266360D01*
X41182814Y-43237066D01*
X41408934Y-43051494D01*
X41594506Y-42825374D01*
X41732399Y-42567394D01*
X41817313Y-42287471D01*
X41845985Y-41996360D01*
X41817313Y-41705249D01*
X41732399Y-41425326D01*
X41594506Y-41167346D01*
X41408934Y-40941226D01*
X41182814Y-40755654D01*
X41128009Y-40726360D01*
X41182814Y-40697066D01*
X41408934Y-40511494D01*
X41594506Y-40285374D01*
X41732399Y-40027394D01*
X41817313Y-39747471D01*
X41845985Y-39456360D01*
X41817313Y-39165249D01*
X41732399Y-38885326D01*
X41594506Y-38627346D01*
X41408934Y-38401226D01*
X41182814Y-38215654D01*
X41128009Y-38186360D01*
X41182814Y-38157066D01*
X41408934Y-37971494D01*
X41594506Y-37745374D01*
X41732399Y-37487394D01*
X41817313Y-37207471D01*
X41845985Y-36916360D01*
X41817313Y-36625249D01*
X41732399Y-36345326D01*
X41594506Y-36087346D01*
X41408934Y-35861226D01*
X41379113Y-35836753D01*
X41447980Y-35815862D01*
X41558294Y-35756897D01*
X41654985Y-35677545D01*
X41734337Y-35580854D01*
X41793302Y-35470540D01*
X41829612Y-35350842D01*
X41841872Y-35226360D01*
X41841872Y-33526360D01*
X41829612Y-33401878D01*
X41793302Y-33282180D01*
X41734337Y-33171866D01*
X41654985Y-33075175D01*
X41558294Y-32995823D01*
X41447980Y-32936858D01*
X41328282Y-32900548D01*
X41203800Y-32888288D01*
X39503800Y-32888288D01*
X39379318Y-32900548D01*
X39259620Y-32936858D01*
X39149306Y-32995823D01*
X39052615Y-33075175D01*
X38973263Y-33171866D01*
X38914298Y-33282180D01*
X38893407Y-33351047D01*
X38868934Y-33321226D01*
X38642814Y-33135654D01*
X38384834Y-32997761D01*
X38104911Y-32912847D01*
X37886750Y-32891360D01*
X37740850Y-32891360D01*
X37522689Y-32912847D01*
X37242766Y-32997761D01*
X36984786Y-33135654D01*
X36758666Y-33321226D01*
X36573094Y-33547346D01*
X36435201Y-33805326D01*
X36350287Y-34085249D01*
X36321615Y-34376360D01*
X36350287Y-34667471D01*
X36404795Y-34847159D01*
X35498871Y-34847159D01*
X35458321Y-34843165D01*
X35417770Y-34847159D01*
X35417768Y-34847159D01*
X35296495Y-34859103D01*
X35150048Y-34903527D01*
X35140887Y-34906306D01*
X34997478Y-34982960D01*
X34903279Y-35060267D01*
X34903278Y-35060268D01*
X34871780Y-35086118D01*
X34845932Y-35117614D01*
X33969463Y-35994085D01*
X33969458Y-35994089D01*
X33965457Y-35998090D01*
X33912762Y-36008572D01*
X33737106Y-36081331D01*
X33579021Y-36186960D01*
X33444580Y-36321401D01*
X33338951Y-36479486D01*
X33266192Y-36655142D01*
X33229100Y-36841616D01*
X33229100Y-37031744D01*
X33266192Y-37218218D01*
X33338951Y-37393874D01*
X33444580Y-37551959D01*
X33579021Y-37686400D01*
X33672588Y-37748919D01*
X32851863Y-38569645D01*
X32851858Y-38569649D01*
X32847857Y-38573650D01*
X32795162Y-38584132D01*
X32619506Y-38656891D01*
X32461421Y-38762520D01*
X32326980Y-38896961D01*
X32221351Y-39055046D01*
X32148592Y-39230702D01*
X32111500Y-39417176D01*
X28211800Y-39417176D01*
X28211800Y-31987960D01*
X58795000Y-31987960D01*
X58795001Y-32793303D01*
X58795001Y-32793303D01*
G37*
X58795001Y-32793303D02*
X58795000Y-32793313D01*
X58795000Y-33555313D01*
X58791686Y-33588960D01*
X58793697Y-33609379D01*
X58612293Y-33609379D01*
X58571742Y-33605385D01*
X58531192Y-33609379D01*
X58531190Y-33609379D01*
X58409917Y-33621323D01*
X58254309Y-33668526D01*
X58200951Y-33697047D01*
X58110900Y-33745180D01*
X58055431Y-33790703D01*
X57985202Y-33848338D01*
X57959349Y-33879840D01*
X57395985Y-34443205D01*
X57364478Y-34469062D01*
X57295233Y-34553438D01*
X57261320Y-34594761D01*
X57198940Y-34711466D01*
X57184666Y-34738170D01*
X57137463Y-34893778D01*
X57125519Y-35015050D01*
X57121525Y-35055603D01*
X57125519Y-35096153D01*
X57125519Y-35245907D01*
X47485878Y-44885550D01*
X47433182Y-44896032D01*
X47257526Y-44968791D01*
X47099441Y-45074420D01*
X46965000Y-45208861D01*
X46859371Y-45366946D01*
X46786612Y-45542602D01*
X46749520Y-45729076D01*
X46749520Y-45919204D01*
X46786612Y-46105678D01*
X46859371Y-46281334D01*
X46965000Y-46439419D01*
X47099441Y-46573860D01*
X47257526Y-46679489D01*
X47433182Y-46752248D01*
X47619656Y-46789340D01*
X47809784Y-46789340D01*
X47996258Y-46752248D01*
X48171914Y-46679489D01*
X48329999Y-46573860D01*
X48464440Y-46439419D01*
X48570069Y-46281334D01*
X48642828Y-46105678D01*
X48653310Y-46052982D01*
X50699220Y-44007072D01*
X50699221Y-45350213D01*
X50669371Y-45394886D01*
X50596612Y-45570542D01*
X50559520Y-45757016D01*
X50559520Y-45947144D01*
X50596612Y-46133618D01*
X50669371Y-46309274D01*
X50775000Y-46467359D01*
X50909441Y-46601800D01*
X51067526Y-46707429D01*
X51243182Y-46780188D01*
X51429656Y-46817280D01*
X51619784Y-46817280D01*
X51806258Y-46780188D01*
X51981914Y-46707429D01*
X52139999Y-46601800D01*
X52274440Y-46467359D01*
X52380069Y-46309274D01*
X52452828Y-46133618D01*
X52489920Y-45947144D01*
X52489920Y-45757016D01*
X52452828Y-45570542D01*
X52380069Y-45394886D01*
X52350220Y-45350214D01*
X52350220Y-44211236D01*
X57822476Y-38738981D01*
X57945788Y-38969681D01*
X58125112Y-39188188D01*
X58343619Y-39367512D01*
X58476578Y-39438580D01*
X58343619Y-39509648D01*
X58125112Y-39688972D01*
X57945788Y-39907479D01*
X57812538Y-40156772D01*
X57730484Y-40427271D01*
X57702777Y-40708580D01*
X57730484Y-40989889D01*
X57812538Y-41260388D01*
X57945788Y-41509681D01*
X58125112Y-41728188D01*
X58343619Y-41907512D01*
X58476578Y-41978580D01*
X58343619Y-42049648D01*
X58125112Y-42228972D01*
X57945788Y-42447479D01*
X57812538Y-42696772D01*
X57730484Y-42967271D01*
X57702777Y-43248580D01*
X57730484Y-43529889D01*
X57812538Y-43800388D01*
X57945788Y-44049681D01*
X58125112Y-44268188D01*
X58343619Y-44447512D01*
X58476578Y-44518580D01*
X58343619Y-44589648D01*
X58125112Y-44768972D01*
X57945788Y-44987479D01*
X57812538Y-45236772D01*
X57730484Y-45507271D01*
X57702777Y-45788580D01*
X57730484Y-46069889D01*
X57812538Y-46340388D01*
X57945788Y-46589681D01*
X58125112Y-46808188D01*
X58238202Y-46900999D01*
X58220238Y-46902768D01*
X58100540Y-46939078D01*
X57990226Y-46998043D01*
X57893535Y-47077395D01*
X57814183Y-47174086D01*
X57755218Y-47284400D01*
X57718908Y-47404098D01*
X57706648Y-47528580D01*
X57709720Y-48042830D01*
X57868470Y-48201580D01*
X59017720Y-48201580D01*
X59017720Y-48181580D01*
X59271720Y-48181580D01*
X59271720Y-48201580D01*
X60420970Y-48201580D01*
X60579720Y-48042830D01*
X60582792Y-47528580D01*
X60570532Y-47404098D01*
X60534222Y-47284400D01*
X60475257Y-47174086D01*
X60395905Y-47077395D01*
X60299214Y-46998043D01*
X60188900Y-46939078D01*
X60069202Y-46902768D01*
X60051238Y-46900999D01*
X60164328Y-46808188D01*
X60343652Y-46589681D01*
X60476902Y-46340388D01*
X60558956Y-46069889D01*
X60586663Y-45788580D01*
X60558956Y-45507271D01*
X60487849Y-45272861D01*
X61620752Y-45272861D01*
X61548104Y-45512351D01*
X61520397Y-45793660D01*
X61548104Y-46074969D01*
X61630158Y-46345468D01*
X61763408Y-46594761D01*
X61942732Y-46813268D01*
X62055822Y-46906079D01*
X62037858Y-46907848D01*
X61918160Y-46944158D01*
X61807846Y-47003123D01*
X61711155Y-47082475D01*
X61631803Y-47179166D01*
X61572838Y-47289480D01*
X61536528Y-47409178D01*
X61524268Y-47533660D01*
X61527340Y-48047910D01*
X61686090Y-48206660D01*
X62835340Y-48206660D01*
X62835340Y-48186660D01*
X63089340Y-48186660D01*
X63089340Y-48206660D01*
X64238590Y-48206660D01*
X64397340Y-48047910D01*
X64400412Y-47533660D01*
X64388152Y-47409178D01*
X64351842Y-47289480D01*
X64292877Y-47179166D01*
X64213525Y-47082475D01*
X64116834Y-47003123D01*
X64006520Y-46944158D01*
X63886822Y-46907848D01*
X63868858Y-46906079D01*
X63981948Y-46813268D01*
X64161272Y-46594761D01*
X64294522Y-46345468D01*
X64376576Y-46074969D01*
X64404283Y-45793660D01*
X64376576Y-45512351D01*
X64303928Y-45272861D01*
X65204300Y-45272861D01*
X65153887Y-45439049D01*
X65125215Y-45730160D01*
X65153887Y-46021271D01*
X65238801Y-46301194D01*
X65376694Y-46559174D01*
X65562266Y-46785294D01*
X65788386Y-46970866D01*
X66046366Y-47108759D01*
X66326289Y-47193673D01*
X66544450Y-47215160D01*
X66690350Y-47215160D01*
X66908511Y-47193673D01*
X67188434Y-47108759D01*
X67446414Y-46970866D01*
X67672534Y-46785294D01*
X67858106Y-46559174D01*
X67995999Y-46301194D01*
X68080913Y-46021271D01*
X68109585Y-45730160D01*
X68080913Y-45439049D01*
X68030500Y-45272861D01*
X69469311Y-45272861D01*
X69509861Y-45276855D01*
X69550411Y-45272861D01*
X69550414Y-45272861D01*
X69671687Y-45260917D01*
X69827295Y-45213714D01*
X69970703Y-45137060D01*
X70096402Y-45033902D01*
X70122259Y-45002395D01*
X73897915Y-41226740D01*
X77213808Y-41226740D01*
X77213808Y-41401240D01*
X77226068Y-41525722D01*
X77262378Y-41645420D01*
X77276179Y-41671240D01*
X77262378Y-41697060D01*
X77226068Y-41816758D01*
X77213808Y-41941240D01*
X77216880Y-42655490D01*
X77375630Y-42814240D01*
X79474880Y-42814240D01*
X79474880Y-42794240D01*
X79728880Y-42794240D01*
X79728880Y-42814240D01*
X79748880Y-42814240D01*
X79748880Y-43068240D01*
X79728880Y-43068240D01*
X79728880Y-43088240D01*
X79474880Y-43088240D01*
X79474880Y-43068240D01*
X77375630Y-43068240D01*
X77216880Y-43226990D01*
X77216787Y-43248580D01*
X74475106Y-43248580D01*
X74430434Y-43218731D01*
X74254778Y-43145972D01*
X74068304Y-43108880D01*
X73878176Y-43108880D01*
X73691702Y-43145972D01*
X73516046Y-43218731D01*
X73357961Y-43324360D01*
X73223520Y-43458801D01*
X73117891Y-43616886D01*
X73045132Y-43792542D01*
X73008040Y-43979016D01*
X73008040Y-44169144D01*
X73045132Y-44355618D01*
X73117891Y-44531274D01*
X73223520Y-44689359D01*
X73357961Y-44823800D01*
X73516046Y-44929429D01*
X73691702Y-45002188D01*
X73878176Y-45039280D01*
X74068304Y-45039280D01*
X74254778Y-45002188D01*
X74430434Y-44929429D01*
X74475106Y-44899580D01*
X74545108Y-44899580D01*
X74545108Y-46289760D01*
X74137394Y-46289760D01*
X74066810Y-46289423D01*
X74034205Y-46292463D01*
X74001456Y-46292234D01*
X73991938Y-46293168D01*
X73395320Y-46355874D01*
X73334509Y-46368357D01*
X73273518Y-46379992D01*
X73264362Y-46382756D01*
X72691286Y-46560153D01*
X72634032Y-46584221D01*
X72576488Y-46607470D01*
X72568043Y-46611960D01*
X72040338Y-46897289D01*
X71988881Y-46931997D01*
X71936917Y-46966002D01*
X71929505Y-46972047D01*
X71467271Y-47354441D01*
X71423524Y-47398494D01*
X71379167Y-47441932D01*
X71373070Y-47449302D01*
X70993913Y-47914194D01*
X70959557Y-47965905D01*
X70924480Y-48017133D01*
X70919934Y-48025542D01*
X70919931Y-48025546D01*
X70919931Y-48025547D01*
X70638293Y-48555231D01*
X70614639Y-48612620D01*
X70590176Y-48669696D01*
X70587348Y-48678833D01*
X70413957Y-49253133D01*
X70401900Y-49314026D01*
X70388990Y-49374763D01*
X70387990Y-49384275D01*
X70329450Y-49981316D01*
X70329450Y-49981327D01*
X70326178Y-50014578D01*
X70326536Y-53808160D01*
X31847340Y-53808160D01*
X31847340Y-49128580D01*
X57706648Y-49128580D01*
X57718908Y-49253062D01*
X57755218Y-49372760D01*
X57814183Y-49483074D01*
X57893535Y-49579765D01*
X57990226Y-49659117D01*
X58100540Y-49718082D01*
X58220238Y-49754392D01*
X58344720Y-49766652D01*
X58858970Y-49763580D01*
X59017720Y-49604830D01*
X59017720Y-48455580D01*
X59271720Y-48455580D01*
X59271720Y-49604830D01*
X59430470Y-49763580D01*
X59944720Y-49766652D01*
X60069202Y-49754392D01*
X60188900Y-49718082D01*
X60299214Y-49659117D01*
X60395905Y-49579765D01*
X60475257Y-49483074D01*
X60534222Y-49372760D01*
X60570532Y-49253062D01*
X60582291Y-49133660D01*
X61524268Y-49133660D01*
X61536528Y-49258142D01*
X61572838Y-49377840D01*
X61631803Y-49488154D01*
X61711155Y-49584845D01*
X61807846Y-49664197D01*
X61918160Y-49723162D01*
X62037858Y-49759472D01*
X62162340Y-49771732D01*
X62676590Y-49768660D01*
X62835340Y-49609910D01*
X62835340Y-48460660D01*
X63089340Y-48460660D01*
X63089340Y-49609910D01*
X63248090Y-49768660D01*
X63762340Y-49771732D01*
X63886822Y-49759472D01*
X64006520Y-49723162D01*
X64116834Y-49664197D01*
X64213525Y-49584845D01*
X64292877Y-49488154D01*
X64351842Y-49377840D01*
X64388152Y-49258142D01*
X64400412Y-49133660D01*
X64397340Y-48619410D01*
X64238590Y-48460660D01*
X63089340Y-48460660D01*
X62835340Y-48460660D01*
X61686090Y-48460660D01*
X61527340Y-48619410D01*
X61524268Y-49133660D01*
X60582291Y-49133660D01*
X60582792Y-49128580D01*
X60579720Y-48614330D01*
X60420970Y-48455580D01*
X59271720Y-48455580D01*
X59017720Y-48455580D01*
X57868470Y-48455580D01*
X57709720Y-48614330D01*
X57706648Y-49128580D01*
X31847340Y-49128580D01*
X31847340Y-46796960D01*
X31844900Y-46772184D01*
X31837673Y-46748359D01*
X31825937Y-46726403D01*
X31810143Y-46707157D01*
X31790897Y-46691363D01*
X31768941Y-46679627D01*
X31745116Y-46672400D01*
X31720340Y-46669960D01*
X28211800Y-46669960D01*
X28211800Y-39417176D01*
X32111500Y-39417176D01*
X32111500Y-39607304D01*
X32148592Y-39793778D01*
X32221351Y-39969434D01*
X32326980Y-40127519D01*
X32461421Y-40261960D01*
X32619506Y-40367589D01*
X32795162Y-40440348D01*
X32981636Y-40477440D01*
X33171764Y-40477440D01*
X33358238Y-40440348D01*
X33533894Y-40367589D01*
X33691979Y-40261960D01*
X33826420Y-40127519D01*
X33932049Y-39969434D01*
X34004808Y-39793778D01*
X34015290Y-39741083D01*
X34019291Y-39737082D01*
X34019295Y-39737077D01*
X34718214Y-39038159D01*
X36388839Y-39038159D01*
X36350287Y-39165249D01*
X36321615Y-39456360D01*
X36350287Y-39747471D01*
X36435201Y-40027394D01*
X36573094Y-40285374D01*
X36758666Y-40511494D01*
X36984786Y-40697066D01*
X37039591Y-40726360D01*
X36984786Y-40755654D01*
X36758666Y-40941226D01*
X36573094Y-41167346D01*
X36435201Y-41425326D01*
X36350287Y-41705249D01*
X36321615Y-41996360D01*
X36350287Y-42287471D01*
X36435201Y-42567394D01*
X36573094Y-42825374D01*
X36758666Y-43051494D01*
X36984786Y-43237066D01*
X37242766Y-43374959D01*
X37522689Y-43459873D01*
X37740850Y-43481360D01*
X37886750Y-43481360D01*
X38104911Y-43459873D01*
X38384834Y-43374959D01*
X38642814Y-43237066D01*
X38868934Y-43051494D01*
X39054506Y-42825374D01*
X39083800Y-42770569D01*
X39113094Y-42825374D01*
X39298666Y-43051494D01*
X39524786Y-43237066D01*
X39579591Y-43266360D01*
X39524786Y-43295654D01*
X39298666Y-43481226D01*
X39113094Y-43707346D01*
X38975201Y-43965326D01*
X38890287Y-44245249D01*
X38861615Y-44536360D01*
X38890287Y-44827471D01*
X38975201Y-45107394D01*
X39113094Y-45365374D01*
X39298666Y-45591494D01*
X39524786Y-45777066D01*
X39579591Y-45806360D01*
X39524786Y-45835654D01*
X39298666Y-46021226D01*
X39113094Y-46247346D01*
X39083800Y-46302151D01*
X39054506Y-46247346D01*
X38868934Y-46021226D01*
X38642814Y-45835654D01*
X38384834Y-45697761D01*
X38104911Y-45612847D01*
X37886750Y-45591360D01*
X37740850Y-45591360D01*
X37522689Y-45612847D01*
X37242766Y-45697761D01*
X36984786Y-45835654D01*
X36758666Y-46021226D01*
X36573094Y-46247346D01*
X36435201Y-46505326D01*
X36350287Y-46785249D01*
X36321615Y-47076360D01*
X36350287Y-47367471D01*
X36435201Y-47647394D01*
X36573094Y-47905374D01*
X36758666Y-48131494D01*
X36984786Y-48317066D01*
X37242766Y-48454959D01*
X37522689Y-48539873D01*
X37740850Y-48561360D01*
X37886750Y-48561360D01*
X38104911Y-48539873D01*
X38384834Y-48454959D01*
X38642814Y-48317066D01*
X38868934Y-48131494D01*
X39054506Y-47905374D01*
X39083800Y-47850569D01*
X39113094Y-47905374D01*
X39298666Y-48131494D01*
X39524786Y-48317066D01*
X39782766Y-48454959D01*
X40062689Y-48539873D01*
X40280850Y-48561360D01*
X40426750Y-48561360D01*
X40644911Y-48539873D01*
X40924834Y-48454959D01*
X41182814Y-48317066D01*
X41408934Y-48131494D01*
X41594506Y-47905374D01*
X41732399Y-47647394D01*
X41817313Y-47367471D01*
X41845985Y-47076360D01*
X41817313Y-46785249D01*
X41732399Y-46505326D01*
X41594506Y-46247346D01*
X41408934Y-46021226D01*
X41182814Y-45835654D01*
X41128009Y-45806360D01*
X41182814Y-45777066D01*
X41408934Y-45591494D01*
X41594506Y-45365374D01*
X41732399Y-45107394D01*
X41817313Y-44827471D01*
X41845985Y-44536360D01*
X41817313Y-44245249D01*
X41732399Y-43965326D01*
X41594506Y-43707346D01*
X41408934Y-43481226D01*
X41182814Y-43295654D01*
X41128009Y-43266360D01*
X41182814Y-43237066D01*
X41408934Y-43051494D01*
X41594506Y-42825374D01*
X41732399Y-42567394D01*
X41817313Y-42287471D01*
X41845985Y-41996360D01*
X41817313Y-41705249D01*
X41732399Y-41425326D01*
X41594506Y-41167346D01*
X41408934Y-40941226D01*
X41182814Y-40755654D01*
X41128009Y-40726360D01*
X41182814Y-40697066D01*
X41408934Y-40511494D01*
X41594506Y-40285374D01*
X41732399Y-40027394D01*
X41817313Y-39747471D01*
X41845985Y-39456360D01*
X41817313Y-39165249D01*
X41732399Y-38885326D01*
X41594506Y-38627346D01*
X41408934Y-38401226D01*
X41182814Y-38215654D01*
X41128009Y-38186360D01*
X41182814Y-38157066D01*
X41408934Y-37971494D01*
X41594506Y-37745374D01*
X41732399Y-37487394D01*
X41817313Y-37207471D01*
X41845985Y-36916360D01*
X41817313Y-36625249D01*
X41732399Y-36345326D01*
X41594506Y-36087346D01*
X41408934Y-35861226D01*
X41379113Y-35836753D01*
X41447980Y-35815862D01*
X41558294Y-35756897D01*
X41654985Y-35677545D01*
X41734337Y-35580854D01*
X41793302Y-35470540D01*
X41829612Y-35350842D01*
X41841872Y-35226360D01*
X41841872Y-33526360D01*
X41829612Y-33401878D01*
X41793302Y-33282180D01*
X41734337Y-33171866D01*
X41654985Y-33075175D01*
X41558294Y-32995823D01*
X41447980Y-32936858D01*
X41328282Y-32900548D01*
X41203800Y-32888288D01*
X39503800Y-32888288D01*
X39379318Y-32900548D01*
X39259620Y-32936858D01*
X39149306Y-32995823D01*
X39052615Y-33075175D01*
X38973263Y-33171866D01*
X38914298Y-33282180D01*
X38893407Y-33351047D01*
X38868934Y-33321226D01*
X38642814Y-33135654D01*
X38384834Y-32997761D01*
X38104911Y-32912847D01*
X37886750Y-32891360D01*
X37740850Y-32891360D01*
X37522689Y-32912847D01*
X37242766Y-32997761D01*
X36984786Y-33135654D01*
X36758666Y-33321226D01*
X36573094Y-33547346D01*
X36435201Y-33805326D01*
X36350287Y-34085249D01*
X36321615Y-34376360D01*
X36350287Y-34667471D01*
X36404795Y-34847159D01*
X35498871Y-34847159D01*
X35458321Y-34843165D01*
X35417770Y-34847159D01*
X35417768Y-34847159D01*
X35296495Y-34859103D01*
X35150048Y-34903527D01*
X35140887Y-34906306D01*
X34997478Y-34982960D01*
X34903279Y-35060267D01*
X34903278Y-35060268D01*
X34871780Y-35086118D01*
X34845932Y-35117614D01*
X33969463Y-35994085D01*
X33969458Y-35994089D01*
X33965457Y-35998090D01*
X33912762Y-36008572D01*
X33737106Y-36081331D01*
X33579021Y-36186960D01*
X33444580Y-36321401D01*
X33338951Y-36479486D01*
X33266192Y-36655142D01*
X33229100Y-36841616D01*
X33229100Y-37031744D01*
X33266192Y-37218218D01*
X33338951Y-37393874D01*
X33444580Y-37551959D01*
X33579021Y-37686400D01*
X33672588Y-37748919D01*
X32851863Y-38569645D01*
X32851858Y-38569649D01*
X32847857Y-38573650D01*
X32795162Y-38584132D01*
X32619506Y-38656891D01*
X32461421Y-38762520D01*
X32326980Y-38896961D01*
X32221351Y-39055046D01*
X32148592Y-39230702D01*
X32111500Y-39417176D01*
X28211800Y-39417176D01*
X28211800Y-31987960D01*
X58795000Y-31987960D01*
X58795001Y-32793303D01*
M02*
