G04 #@! TF.GenerationSoftware,KiCad,Pcbnew,(5.1.4)-1*
G04 #@! TF.CreationDate,2020-04-10T17:06:02+01:00*
G04 #@! TF.ProjectId,buffer,62756666-6572-42e6-9b69-6361645f7063,rev?*
G04 #@! TF.SameCoordinates,Original*
G04 #@! TF.FileFunction,Legend,Top*
G04 #@! TF.FilePolarity,Positive*
%FSLAX46Y46*%
G04 Gerber Fmt 4.6, Leading zero omitted, Abs format (unit mm)*
G04 Created by KiCad (PCBNEW (5.1.4)-1) date 2020-04-10 17:06:02*
%MOMM*%
%LPD*%
G04 APERTURE LIST*
%ADD10C,0.150000*%
%ADD11C,0.120000*%
G04 APERTURE END LIST*
D10*
X45658140Y-51135280D02*
G75*
G03X45658140Y-51135280I-374200J0D01*
G01*
X47016782Y-34400960D02*
G75*
G03X47016782Y-34400960I-514782J0D01*
G01*
X27780800Y-48320960D02*
X36315200Y-45882560D01*
X27780800Y-45831760D02*
X36315200Y-48371760D01*
X39083800Y-45755560D02*
X41496800Y-45755560D01*
X38702800Y-45349160D02*
X39083800Y-45755560D01*
X39541000Y-43215560D02*
X41700000Y-43215560D01*
X39617200Y-38237160D02*
X41598400Y-38237160D01*
X39566400Y-40726360D02*
X41547600Y-40726360D01*
X39058400Y-35620960D02*
X41573000Y-35620960D01*
X38626600Y-35189160D02*
X39058400Y-35620960D01*
X39033000Y-43215560D02*
X38626600Y-42809160D01*
X39541000Y-43215560D02*
X39033000Y-43215560D01*
X39058400Y-40726360D02*
X38601200Y-40269160D01*
X39566400Y-40726360D02*
X39058400Y-40726360D01*
X39134600Y-38237160D02*
X38626600Y-37729160D01*
X39617200Y-38237160D02*
X39134600Y-38237160D01*
X41933371Y-43794940D02*
X41933371Y-43128274D01*
X41933371Y-43318750D02*
X41980990Y-43223512D01*
X42028609Y-43175893D01*
X42123847Y-43128274D01*
X42219085Y-43128274D01*
X42365123Y-41229540D02*
X42031790Y-40753350D01*
X41793695Y-41229540D02*
X41793695Y-40229540D01*
X42174647Y-40229540D01*
X42269885Y-40277160D01*
X42317504Y-40324779D01*
X42365123Y-40420017D01*
X42365123Y-40562874D01*
X42317504Y-40658112D01*
X42269885Y-40705731D01*
X42174647Y-40753350D01*
X41793695Y-40753350D01*
X42342904Y-37787960D02*
X42247666Y-37740340D01*
X42104809Y-37740340D01*
X41961952Y-37787960D01*
X41866714Y-37883198D01*
X41819095Y-37978436D01*
X41771476Y-38168912D01*
X41771476Y-38311769D01*
X41819095Y-38502245D01*
X41866714Y-38597483D01*
X41961952Y-38692721D01*
X42104809Y-38740340D01*
X42200047Y-38740340D01*
X42342904Y-38692721D01*
X42390523Y-38645102D01*
X42390523Y-38311769D01*
X42200047Y-38311769D01*
X41969880Y-45284140D02*
X42065119Y-45284140D01*
X42160357Y-45331760D01*
X42207976Y-45379379D01*
X42255595Y-45474617D01*
X42303214Y-45665093D01*
X42303214Y-45903188D01*
X42255595Y-46093664D01*
X42207976Y-46188902D01*
X42160357Y-46236521D01*
X42065119Y-46284140D01*
X41969880Y-46284140D01*
X41874642Y-46236521D01*
X41827023Y-46188902D01*
X41779404Y-46093664D01*
X41731785Y-45903188D01*
X41731785Y-45665093D01*
X41779404Y-45474617D01*
X41827023Y-45379379D01*
X41874642Y-45331760D01*
X41969880Y-45284140D01*
X42101628Y-35447931D02*
X42244485Y-35495550D01*
X42292104Y-35543169D01*
X42339723Y-35638407D01*
X42339723Y-35781264D01*
X42292104Y-35876502D01*
X42244485Y-35924121D01*
X42149247Y-35971740D01*
X41768295Y-35971740D01*
X41768295Y-34971740D01*
X42101628Y-34971740D01*
X42196866Y-35019360D01*
X42244485Y-35066979D01*
X42292104Y-35162217D01*
X42292104Y-35257455D01*
X42244485Y-35352693D01*
X42196866Y-35400312D01*
X42101628Y-35447931D01*
X41768295Y-35447931D01*
X42244485Y-44068074D02*
X42244485Y-44877598D01*
X42196866Y-44972836D01*
X42149247Y-45020455D01*
X42054009Y-45068074D01*
X41911152Y-45068074D01*
X41815914Y-45020455D01*
X42244485Y-44687121D02*
X42149247Y-44734740D01*
X41958771Y-44734740D01*
X41863533Y-44687121D01*
X41815914Y-44639502D01*
X41768295Y-44544264D01*
X41768295Y-44258550D01*
X41815914Y-44163312D01*
X41863533Y-44115693D01*
X41958771Y-44068074D01*
X42149247Y-44068074D01*
X42244485Y-44115693D01*
X41790514Y-42524940D02*
X41790514Y-41524940D01*
X41790514Y-41905893D02*
X41885752Y-41858274D01*
X42076228Y-41858274D01*
X42171466Y-41905893D01*
X42219085Y-41953512D01*
X42266704Y-42048750D01*
X42266704Y-42334464D01*
X42219085Y-42429702D01*
X42171466Y-42477321D01*
X42076228Y-42524940D01*
X41885752Y-42524940D01*
X41790514Y-42477321D01*
X41795285Y-39984940D02*
X41795285Y-38984940D01*
X41795285Y-39461131D02*
X42366714Y-39461131D01*
X42366714Y-39984940D02*
X42366714Y-38984940D01*
X41722266Y-36444940D02*
X42055600Y-37444940D01*
X42388933Y-36444940D01*
X42268295Y-33600140D02*
X41792104Y-33600140D01*
X41744485Y-34076331D01*
X41792104Y-34028712D01*
X41887342Y-33981093D01*
X42125438Y-33981093D01*
X42220676Y-34028712D01*
X42268295Y-34076331D01*
X42315914Y-34171569D01*
X42315914Y-34409664D01*
X42268295Y-34504902D01*
X42220676Y-34552521D01*
X42125438Y-34600140D01*
X41887342Y-34600140D01*
X41792104Y-34552521D01*
X41744485Y-34504902D01*
D11*
X61562340Y-49773660D02*
X64362340Y-49773660D01*
X64362340Y-49773660D02*
X64362340Y-34193660D01*
X64362340Y-34193660D02*
X61562340Y-34193660D01*
X61562340Y-34193660D02*
X61562340Y-49773660D01*
X61562340Y-47063660D02*
X64362340Y-47063660D01*
X65287400Y-36780160D02*
X66617400Y-36780160D01*
X65287400Y-38110160D02*
X65287400Y-36780160D01*
X65287400Y-39380160D02*
X67947400Y-39380160D01*
X67947400Y-39380160D02*
X67947400Y-47060160D01*
X65287400Y-39380160D02*
X65287400Y-47060160D01*
X65287400Y-47060160D02*
X67947400Y-47060160D01*
X27723800Y-33166360D02*
X36353800Y-33166360D01*
X27723800Y-33284455D02*
X36353800Y-33284455D01*
X27723800Y-33402550D02*
X36353800Y-33402550D01*
X27723800Y-33520645D02*
X36353800Y-33520645D01*
X27723800Y-33638740D02*
X36353800Y-33638740D01*
X27723800Y-33756835D02*
X36353800Y-33756835D01*
X27723800Y-33874930D02*
X36353800Y-33874930D01*
X27723800Y-33993025D02*
X36353800Y-33993025D01*
X27723800Y-34111120D02*
X36353800Y-34111120D01*
X27723800Y-34229215D02*
X36353800Y-34229215D01*
X27723800Y-34347310D02*
X36353800Y-34347310D01*
X27723800Y-34465405D02*
X36353800Y-34465405D01*
X27723800Y-34583500D02*
X36353800Y-34583500D01*
X27723800Y-34701595D02*
X36353800Y-34701595D01*
X27723800Y-34819690D02*
X36353800Y-34819690D01*
X27723800Y-34937785D02*
X36353800Y-34937785D01*
X27723800Y-35055880D02*
X36353800Y-35055880D01*
X27723800Y-35173975D02*
X36353800Y-35173975D01*
X27723800Y-35292070D02*
X36353800Y-35292070D01*
X27723800Y-35410165D02*
X36353800Y-35410165D01*
X27723800Y-35528260D02*
X36353800Y-35528260D01*
X36353800Y-34016360D02*
X36763800Y-34016360D01*
X38863800Y-34016360D02*
X39243800Y-34016360D01*
X36353800Y-34736360D02*
X36763800Y-34736360D01*
X38863800Y-34736360D02*
X39243800Y-34736360D01*
X36353800Y-36556360D02*
X36763800Y-36556360D01*
X38863800Y-36556360D02*
X39303800Y-36556360D01*
X36353800Y-37276360D02*
X36763800Y-37276360D01*
X38863800Y-37276360D02*
X39303800Y-37276360D01*
X36353800Y-39096360D02*
X36763800Y-39096360D01*
X38863800Y-39096360D02*
X39303800Y-39096360D01*
X36353800Y-39816360D02*
X36763800Y-39816360D01*
X38863800Y-39816360D02*
X39303800Y-39816360D01*
X36353800Y-41636360D02*
X36763800Y-41636360D01*
X38863800Y-41636360D02*
X39303800Y-41636360D01*
X36353800Y-42356360D02*
X36763800Y-42356360D01*
X38863800Y-42356360D02*
X39303800Y-42356360D01*
X36353800Y-44176360D02*
X36763800Y-44176360D01*
X38863800Y-44176360D02*
X39303800Y-44176360D01*
X36353800Y-44896360D02*
X36763800Y-44896360D01*
X38863800Y-44896360D02*
X39303800Y-44896360D01*
X36353800Y-46716360D02*
X36763800Y-46716360D01*
X38863800Y-46716360D02*
X39303800Y-46716360D01*
X36353800Y-47436360D02*
X36763800Y-47436360D01*
X38863800Y-47436360D02*
X39303800Y-47436360D01*
X27723800Y-35646360D02*
X36353800Y-35646360D01*
X27723800Y-38186360D02*
X36353800Y-38186360D01*
X27723800Y-40726360D02*
X36353800Y-40726360D01*
X27723800Y-43266360D02*
X36353800Y-43266360D01*
X27723800Y-45806360D02*
X36353800Y-45806360D01*
X27723800Y-33046360D02*
X36353800Y-33046360D01*
X36353800Y-33046360D02*
X36353800Y-48406360D01*
X27723800Y-48406360D02*
X36353800Y-48406360D01*
X27723800Y-33046360D02*
X27723800Y-48406360D01*
X41463800Y-33046360D02*
X41463800Y-34376360D01*
X40353800Y-33046360D02*
X41463800Y-33046360D01*
X49052000Y-46610960D02*
X52912000Y-46610960D01*
X52912000Y-46610960D02*
X52912000Y-46375960D01*
X49052000Y-46610960D02*
X45192000Y-46610960D01*
X45192000Y-46610960D02*
X45192000Y-46375960D01*
X49052000Y-33590960D02*
X52912000Y-33590960D01*
X52912000Y-33590960D02*
X52912000Y-33825960D01*
X49052000Y-33590960D02*
X45192000Y-33590960D01*
X45192000Y-33590960D02*
X45192000Y-33825960D01*
X45192000Y-33825960D02*
X43377000Y-33825960D01*
X57313252Y-33410960D02*
X56790748Y-33410960D01*
X57313252Y-31990960D02*
X56790748Y-31990960D01*
X70822000Y-34360960D02*
X70822000Y-36360960D01*
X70822000Y-36360960D02*
X74672000Y-36360960D01*
X70822000Y-34360960D02*
X74672000Y-34360960D01*
X57744720Y-47058580D02*
X60544720Y-47058580D01*
X57744720Y-34188580D02*
X57744720Y-49768580D01*
X60544720Y-34188580D02*
X57744720Y-34188580D01*
X60544720Y-49768580D02*
X60544720Y-34188580D01*
X57744720Y-49768580D02*
X60544720Y-49768580D01*
X39475328Y-49622640D02*
X39997832Y-49622640D01*
X39475328Y-51042640D02*
X39997832Y-51042640D01*
X53419720Y-50500280D02*
X53419720Y-48550280D01*
X53419720Y-50500280D02*
X53419720Y-52450280D01*
X44549720Y-50500280D02*
X44549720Y-48550280D01*
X44549720Y-50500280D02*
X44549720Y-53950280D01*
D10*
X61014720Y-41404136D02*
X60538530Y-41737469D01*
X61014720Y-41975564D02*
X60014720Y-41975564D01*
X60014720Y-41594612D01*
X60062340Y-41499374D01*
X60109959Y-41451755D01*
X60205197Y-41404136D01*
X60348054Y-41404136D01*
X60443292Y-41451755D01*
X60490911Y-41499374D01*
X60538530Y-41594612D01*
X60538530Y-41975564D01*
X61014720Y-40975564D02*
X60014720Y-40975564D01*
X61014720Y-40404136D01*
X60014720Y-40404136D01*
X60109959Y-39975564D02*
X60062340Y-39927945D01*
X60014720Y-39832707D01*
X60014720Y-39594612D01*
X60062340Y-39499374D01*
X60109959Y-39451755D01*
X60205197Y-39404136D01*
X60300435Y-39404136D01*
X60443292Y-39451755D01*
X61014720Y-40023183D01*
X61014720Y-39404136D01*
X65734524Y-36365440D02*
X65734524Y-35365440D01*
X66115477Y-35365440D01*
X66210715Y-35413060D01*
X66258334Y-35460679D01*
X66305953Y-35555917D01*
X66305953Y-35698774D01*
X66258334Y-35794012D01*
X66210715Y-35841631D01*
X66115477Y-35889250D01*
X65734524Y-35889250D01*
X66686905Y-35460679D02*
X66734524Y-35413060D01*
X66829762Y-35365440D01*
X67067858Y-35365440D01*
X67163096Y-35413060D01*
X67210715Y-35460679D01*
X67258334Y-35555917D01*
X67258334Y-35651155D01*
X67210715Y-35794012D01*
X66639286Y-36365440D01*
X67258334Y-36365440D01*
X32122704Y-32771340D02*
X32122704Y-31771340D01*
X32503657Y-31771340D01*
X32598895Y-31818960D01*
X32646514Y-31866579D01*
X32694133Y-31961817D01*
X32694133Y-32104674D01*
X32646514Y-32199912D01*
X32598895Y-32247531D01*
X32503657Y-32295150D01*
X32122704Y-32295150D01*
X33646514Y-32771340D02*
X33075085Y-32771340D01*
X33360800Y-32771340D02*
X33360800Y-31771340D01*
X33265561Y-31914198D01*
X33170323Y-32009436D01*
X33075085Y-32057055D01*
X43440095Y-32053340D02*
X43440095Y-32862864D01*
X43487714Y-32958102D01*
X43535333Y-33005721D01*
X43630571Y-33053340D01*
X43821047Y-33053340D01*
X43916285Y-33005721D01*
X43963904Y-32958102D01*
X44011523Y-32862864D01*
X44011523Y-32053340D01*
X45011523Y-33053340D02*
X44440095Y-33053340D01*
X44725809Y-33053340D02*
X44725809Y-32053340D01*
X44630571Y-32196198D01*
X44535333Y-32291436D01*
X44440095Y-32339055D01*
X53985333Y-32908102D02*
X53937714Y-32955721D01*
X53794857Y-33003340D01*
X53699619Y-33003340D01*
X53556761Y-32955721D01*
X53461523Y-32860483D01*
X53413904Y-32765245D01*
X53366285Y-32574769D01*
X53366285Y-32431912D01*
X53413904Y-32241436D01*
X53461523Y-32146198D01*
X53556761Y-32050960D01*
X53699619Y-32003340D01*
X53794857Y-32003340D01*
X53937714Y-32050960D01*
X53985333Y-32098579D01*
X54937714Y-33003340D02*
X54366285Y-33003340D01*
X54652000Y-33003340D02*
X54652000Y-32003340D01*
X54556761Y-32146198D01*
X54461523Y-32241436D01*
X54366285Y-32289055D01*
X68923904Y-35743340D02*
X68923904Y-34743340D01*
X69162000Y-34743340D01*
X69304857Y-34790960D01*
X69400095Y-34886198D01*
X69447714Y-34981436D01*
X69495333Y-35171912D01*
X69495333Y-35314769D01*
X69447714Y-35505245D01*
X69400095Y-35600483D01*
X69304857Y-35695721D01*
X69162000Y-35743340D01*
X68923904Y-35743340D01*
X70447714Y-35743340D02*
X69876285Y-35743340D01*
X70162000Y-35743340D02*
X70162000Y-34743340D01*
X70066761Y-34886198D01*
X69971523Y-34981436D01*
X69876285Y-35029055D01*
X57197100Y-41399056D02*
X56720910Y-41732389D01*
X57197100Y-41970484D02*
X56197100Y-41970484D01*
X56197100Y-41589532D01*
X56244720Y-41494294D01*
X56292339Y-41446675D01*
X56387577Y-41399056D01*
X56530434Y-41399056D01*
X56625672Y-41446675D01*
X56673291Y-41494294D01*
X56720910Y-41589532D01*
X56720910Y-41970484D01*
X57197100Y-40970484D02*
X56197100Y-40970484D01*
X57197100Y-40399056D01*
X56197100Y-40399056D01*
X57197100Y-39399056D02*
X57197100Y-39970484D01*
X57197100Y-39684770D02*
X56197100Y-39684770D01*
X56339958Y-39780008D01*
X56435196Y-39875246D01*
X56482815Y-39970484D01*
X34919173Y-50941242D02*
X34871554Y-50988861D01*
X34728697Y-51036480D01*
X34633459Y-51036480D01*
X34490601Y-50988861D01*
X34395363Y-50893623D01*
X34347744Y-50798385D01*
X34300125Y-50607909D01*
X34300125Y-50465052D01*
X34347744Y-50274576D01*
X34395363Y-50179338D01*
X34490601Y-50084100D01*
X34633459Y-50036480D01*
X34728697Y-50036480D01*
X34871554Y-50084100D01*
X34919173Y-50131719D01*
X35300125Y-50131719D02*
X35347744Y-50084100D01*
X35442982Y-50036480D01*
X35681078Y-50036480D01*
X35776316Y-50084100D01*
X35823935Y-50131719D01*
X35871554Y-50226957D01*
X35871554Y-50322195D01*
X35823935Y-50465052D01*
X35252506Y-51036480D01*
X35871554Y-51036480D01*
X43157100Y-51262184D02*
X43966624Y-51262184D01*
X44061862Y-51214565D01*
X44109481Y-51166946D01*
X44157100Y-51071708D01*
X44157100Y-50881232D01*
X44109481Y-50785994D01*
X44061862Y-50738375D01*
X43966624Y-50690756D01*
X43157100Y-50690756D01*
X43252339Y-50262184D02*
X43204720Y-50214565D01*
X43157100Y-50119327D01*
X43157100Y-49881232D01*
X43204720Y-49785994D01*
X43252339Y-49738375D01*
X43347577Y-49690756D01*
X43442815Y-49690756D01*
X43585672Y-49738375D01*
X44157100Y-50309803D01*
X44157100Y-49690756D01*
M02*
