G04 #@! TF.GenerationSoftware,KiCad,Pcbnew,(5.1.4)-1*
G04 #@! TF.CreationDate,2020-04-10T17:06:02+01:00*
G04 #@! TF.ProjectId,buffer,62756666-6572-42e6-9b69-6361645f7063,rev?*
G04 #@! TF.SameCoordinates,Original*
G04 #@! TF.FileFunction,Soldermask,Top*
G04 #@! TF.FilePolarity,Negative*
%FSLAX46Y46*%
G04 Gerber Fmt 4.6, Leading zero omitted, Abs format (unit mm)*
G04 Created by KiCad (PCBNEW (5.1.4)-1) date 2020-04-10 17:06:02*
%MOMM*%
%LPD*%
G04 APERTURE LIST*
%ADD10C,0.100000*%
G04 APERTURE END LIST*
D10*
G36*
X53115812Y-51853971D02*
G01*
X53145707Y-51863040D01*
X53173262Y-51877768D01*
X53197412Y-51897588D01*
X53217232Y-51921738D01*
X53231960Y-51949293D01*
X53241029Y-51979188D01*
X53244720Y-52016666D01*
X53244720Y-53933894D01*
X53241029Y-53971372D01*
X53231960Y-54001267D01*
X53217232Y-54028822D01*
X53197412Y-54052972D01*
X53173262Y-54072792D01*
X53145707Y-54087520D01*
X53115812Y-54096589D01*
X53078334Y-54100280D01*
X52511106Y-54100280D01*
X52473628Y-54096589D01*
X52443733Y-54087520D01*
X52416178Y-54072792D01*
X52392028Y-54052972D01*
X52372208Y-54028822D01*
X52357480Y-54001267D01*
X52348411Y-53971372D01*
X52344720Y-53933894D01*
X52344720Y-52016666D01*
X52348411Y-51979188D01*
X52357480Y-51949293D01*
X52372208Y-51921738D01*
X52392028Y-51897588D01*
X52416178Y-51877768D01*
X52443733Y-51863040D01*
X52473628Y-51853971D01*
X52511106Y-51850280D01*
X53078334Y-51850280D01*
X53115812Y-51853971D01*
X53115812Y-51853971D01*
G37*
G36*
X51845812Y-51853971D02*
G01*
X51875707Y-51863040D01*
X51903262Y-51877768D01*
X51927412Y-51897588D01*
X51947232Y-51921738D01*
X51961960Y-51949293D01*
X51971029Y-51979188D01*
X51974720Y-52016666D01*
X51974720Y-53933894D01*
X51971029Y-53971372D01*
X51961960Y-54001267D01*
X51947232Y-54028822D01*
X51927412Y-54052972D01*
X51903262Y-54072792D01*
X51875707Y-54087520D01*
X51845812Y-54096589D01*
X51808334Y-54100280D01*
X51241106Y-54100280D01*
X51203628Y-54096589D01*
X51173733Y-54087520D01*
X51146178Y-54072792D01*
X51122028Y-54052972D01*
X51102208Y-54028822D01*
X51087480Y-54001267D01*
X51078411Y-53971372D01*
X51074720Y-53933894D01*
X51074720Y-52016666D01*
X51078411Y-51979188D01*
X51087480Y-51949293D01*
X51102208Y-51921738D01*
X51122028Y-51897588D01*
X51146178Y-51877768D01*
X51173733Y-51863040D01*
X51203628Y-51853971D01*
X51241106Y-51850280D01*
X51808334Y-51850280D01*
X51845812Y-51853971D01*
X51845812Y-51853971D01*
G37*
G36*
X45495812Y-51853971D02*
G01*
X45525707Y-51863040D01*
X45553262Y-51877768D01*
X45577412Y-51897588D01*
X45597232Y-51921738D01*
X45611960Y-51949293D01*
X45621029Y-51979188D01*
X45624720Y-52016666D01*
X45624720Y-53933894D01*
X45621029Y-53971372D01*
X45611960Y-54001267D01*
X45597232Y-54028822D01*
X45577412Y-54052972D01*
X45553262Y-54072792D01*
X45525707Y-54087520D01*
X45495812Y-54096589D01*
X45458334Y-54100280D01*
X44891106Y-54100280D01*
X44853628Y-54096589D01*
X44823733Y-54087520D01*
X44796178Y-54072792D01*
X44772028Y-54052972D01*
X44752208Y-54028822D01*
X44737480Y-54001267D01*
X44728411Y-53971372D01*
X44724720Y-53933894D01*
X44724720Y-52016666D01*
X44728411Y-51979188D01*
X44737480Y-51949293D01*
X44752208Y-51921738D01*
X44772028Y-51897588D01*
X44796178Y-51877768D01*
X44823733Y-51863040D01*
X44853628Y-51853971D01*
X44891106Y-51850280D01*
X45458334Y-51850280D01*
X45495812Y-51853971D01*
X45495812Y-51853971D01*
G37*
G36*
X46765812Y-51853971D02*
G01*
X46795707Y-51863040D01*
X46823262Y-51877768D01*
X46847412Y-51897588D01*
X46867232Y-51921738D01*
X46881960Y-51949293D01*
X46891029Y-51979188D01*
X46894720Y-52016666D01*
X46894720Y-53933894D01*
X46891029Y-53971372D01*
X46881960Y-54001267D01*
X46867232Y-54028822D01*
X46847412Y-54052972D01*
X46823262Y-54072792D01*
X46795707Y-54087520D01*
X46765812Y-54096589D01*
X46728334Y-54100280D01*
X46161106Y-54100280D01*
X46123628Y-54096589D01*
X46093733Y-54087520D01*
X46066178Y-54072792D01*
X46042028Y-54052972D01*
X46022208Y-54028822D01*
X46007480Y-54001267D01*
X45998411Y-53971372D01*
X45994720Y-53933894D01*
X45994720Y-52016666D01*
X45998411Y-51979188D01*
X46007480Y-51949293D01*
X46022208Y-51921738D01*
X46042028Y-51897588D01*
X46066178Y-51877768D01*
X46093733Y-51863040D01*
X46123628Y-51853971D01*
X46161106Y-51850280D01*
X46728334Y-51850280D01*
X46765812Y-51853971D01*
X46765812Y-51853971D01*
G37*
G36*
X49305812Y-51853971D02*
G01*
X49335707Y-51863040D01*
X49363262Y-51877768D01*
X49387412Y-51897588D01*
X49407232Y-51921738D01*
X49421960Y-51949293D01*
X49431029Y-51979188D01*
X49434720Y-52016666D01*
X49434720Y-53933894D01*
X49431029Y-53971372D01*
X49421960Y-54001267D01*
X49407232Y-54028822D01*
X49387412Y-54052972D01*
X49363262Y-54072792D01*
X49335707Y-54087520D01*
X49305812Y-54096589D01*
X49268334Y-54100280D01*
X48701106Y-54100280D01*
X48663628Y-54096589D01*
X48633733Y-54087520D01*
X48606178Y-54072792D01*
X48582028Y-54052972D01*
X48562208Y-54028822D01*
X48547480Y-54001267D01*
X48538411Y-53971372D01*
X48534720Y-53933894D01*
X48534720Y-52016666D01*
X48538411Y-51979188D01*
X48547480Y-51949293D01*
X48562208Y-51921738D01*
X48582028Y-51897588D01*
X48606178Y-51877768D01*
X48633733Y-51863040D01*
X48663628Y-51853971D01*
X48701106Y-51850280D01*
X49268334Y-51850280D01*
X49305812Y-51853971D01*
X49305812Y-51853971D01*
G37*
G36*
X50575812Y-51853971D02*
G01*
X50605707Y-51863040D01*
X50633262Y-51877768D01*
X50657412Y-51897588D01*
X50677232Y-51921738D01*
X50691960Y-51949293D01*
X50701029Y-51979188D01*
X50704720Y-52016666D01*
X50704720Y-53933894D01*
X50701029Y-53971372D01*
X50691960Y-54001267D01*
X50677232Y-54028822D01*
X50657412Y-54052972D01*
X50633262Y-54072792D01*
X50605707Y-54087520D01*
X50575812Y-54096589D01*
X50538334Y-54100280D01*
X49971106Y-54100280D01*
X49933628Y-54096589D01*
X49903733Y-54087520D01*
X49876178Y-54072792D01*
X49852028Y-54052972D01*
X49832208Y-54028822D01*
X49817480Y-54001267D01*
X49808411Y-53971372D01*
X49804720Y-53933894D01*
X49804720Y-52016666D01*
X49808411Y-51979188D01*
X49817480Y-51949293D01*
X49832208Y-51921738D01*
X49852028Y-51897588D01*
X49876178Y-51877768D01*
X49903733Y-51863040D01*
X49933628Y-51853971D01*
X49971106Y-51850280D01*
X50538334Y-51850280D01*
X50575812Y-51853971D01*
X50575812Y-51853971D01*
G37*
G36*
X48035812Y-51853971D02*
G01*
X48065707Y-51863040D01*
X48093262Y-51877768D01*
X48117412Y-51897588D01*
X48137232Y-51921738D01*
X48151960Y-51949293D01*
X48161029Y-51979188D01*
X48164720Y-52016666D01*
X48164720Y-53933894D01*
X48161029Y-53971372D01*
X48151960Y-54001267D01*
X48137232Y-54028822D01*
X48117412Y-54052972D01*
X48093262Y-54072792D01*
X48065707Y-54087520D01*
X48035812Y-54096589D01*
X47998334Y-54100280D01*
X47431106Y-54100280D01*
X47393628Y-54096589D01*
X47363733Y-54087520D01*
X47336178Y-54072792D01*
X47312028Y-54052972D01*
X47292208Y-54028822D01*
X47277480Y-54001267D01*
X47268411Y-53971372D01*
X47264720Y-53933894D01*
X47264720Y-52016666D01*
X47268411Y-51979188D01*
X47277480Y-51949293D01*
X47292208Y-51921738D01*
X47312028Y-51897588D01*
X47336178Y-51877768D01*
X47363733Y-51863040D01*
X47393628Y-51853971D01*
X47431106Y-51850280D01*
X47998334Y-51850280D01*
X48035812Y-51853971D01*
X48035812Y-51853971D01*
G37*
G36*
X39241881Y-49487902D02*
G01*
X39287110Y-49501622D01*
X39328794Y-49523902D01*
X39365331Y-49553889D01*
X39395318Y-49590426D01*
X39417598Y-49632110D01*
X39431318Y-49677339D01*
X39436580Y-49730765D01*
X39436580Y-50934515D01*
X39431318Y-50987941D01*
X39417598Y-51033170D01*
X39395318Y-51074854D01*
X39365331Y-51111391D01*
X39328794Y-51141378D01*
X39287110Y-51163658D01*
X39241881Y-51177378D01*
X39188455Y-51182640D01*
X38234705Y-51182640D01*
X38181279Y-51177378D01*
X38136050Y-51163658D01*
X38094366Y-51141378D01*
X38057829Y-51111391D01*
X38027842Y-51074854D01*
X38005562Y-51033170D01*
X37991842Y-50987941D01*
X37986580Y-50934515D01*
X37986580Y-49730765D01*
X37991842Y-49677339D01*
X38005562Y-49632110D01*
X38027842Y-49590426D01*
X38057829Y-49553889D01*
X38094366Y-49523902D01*
X38136050Y-49501622D01*
X38181279Y-49487902D01*
X38234705Y-49482640D01*
X39188455Y-49482640D01*
X39241881Y-49487902D01*
X39241881Y-49487902D01*
G37*
G36*
X41291881Y-49487902D02*
G01*
X41337110Y-49501622D01*
X41378794Y-49523902D01*
X41415331Y-49553889D01*
X41445318Y-49590426D01*
X41467598Y-49632110D01*
X41481318Y-49677339D01*
X41486580Y-49730765D01*
X41486580Y-50934515D01*
X41481318Y-50987941D01*
X41467598Y-51033170D01*
X41445318Y-51074854D01*
X41415331Y-51111391D01*
X41378794Y-51141378D01*
X41337110Y-51163658D01*
X41291881Y-51177378D01*
X41238455Y-51182640D01*
X40284705Y-51182640D01*
X40231279Y-51177378D01*
X40186050Y-51163658D01*
X40144366Y-51141378D01*
X40107829Y-51111391D01*
X40077842Y-51074854D01*
X40055562Y-51033170D01*
X40041842Y-50987941D01*
X40036580Y-50934515D01*
X40036580Y-49730765D01*
X40041842Y-49677339D01*
X40055562Y-49632110D01*
X40077842Y-49590426D01*
X40107829Y-49553889D01*
X40144366Y-49523902D01*
X40186050Y-49501622D01*
X40231279Y-49487902D01*
X40284705Y-49482640D01*
X41238455Y-49482640D01*
X41291881Y-49487902D01*
X41291881Y-49487902D01*
G37*
G36*
X63912340Y-49283660D02*
G01*
X62012340Y-49283660D01*
X62012340Y-47383660D01*
X63912340Y-47383660D01*
X63912340Y-49283660D01*
X63912340Y-49283660D01*
G37*
G36*
X60094720Y-49278580D02*
G01*
X58194720Y-49278580D01*
X58194720Y-47378580D01*
X60094720Y-47378580D01*
X60094720Y-49278580D01*
X60094720Y-49278580D01*
G37*
G36*
X53115812Y-46903971D02*
G01*
X53145707Y-46913040D01*
X53173262Y-46927768D01*
X53197412Y-46947588D01*
X53217232Y-46971738D01*
X53231960Y-46999293D01*
X53241029Y-47029188D01*
X53244720Y-47066666D01*
X53244720Y-48983894D01*
X53241029Y-49021372D01*
X53231960Y-49051267D01*
X53217232Y-49078822D01*
X53197412Y-49102972D01*
X53173262Y-49122792D01*
X53145707Y-49137520D01*
X53115812Y-49146589D01*
X53078334Y-49150280D01*
X52511106Y-49150280D01*
X52473628Y-49146589D01*
X52443733Y-49137520D01*
X52416178Y-49122792D01*
X52392028Y-49102972D01*
X52372208Y-49078822D01*
X52357480Y-49051267D01*
X52348411Y-49021372D01*
X52344720Y-48983894D01*
X52344720Y-47066666D01*
X52348411Y-47029188D01*
X52357480Y-46999293D01*
X52372208Y-46971738D01*
X52392028Y-46947588D01*
X52416178Y-46927768D01*
X52443733Y-46913040D01*
X52473628Y-46903971D01*
X52511106Y-46900280D01*
X53078334Y-46900280D01*
X53115812Y-46903971D01*
X53115812Y-46903971D01*
G37*
G36*
X51845812Y-46903971D02*
G01*
X51875707Y-46913040D01*
X51903262Y-46927768D01*
X51927412Y-46947588D01*
X51947232Y-46971738D01*
X51961960Y-46999293D01*
X51971029Y-47029188D01*
X51974720Y-47066666D01*
X51974720Y-48983894D01*
X51971029Y-49021372D01*
X51961960Y-49051267D01*
X51947232Y-49078822D01*
X51927412Y-49102972D01*
X51903262Y-49122792D01*
X51875707Y-49137520D01*
X51845812Y-49146589D01*
X51808334Y-49150280D01*
X51241106Y-49150280D01*
X51203628Y-49146589D01*
X51173733Y-49137520D01*
X51146178Y-49122792D01*
X51122028Y-49102972D01*
X51102208Y-49078822D01*
X51087480Y-49051267D01*
X51078411Y-49021372D01*
X51074720Y-48983894D01*
X51074720Y-47066666D01*
X51078411Y-47029188D01*
X51087480Y-46999293D01*
X51102208Y-46971738D01*
X51122028Y-46947588D01*
X51146178Y-46927768D01*
X51173733Y-46913040D01*
X51203628Y-46903971D01*
X51241106Y-46900280D01*
X51808334Y-46900280D01*
X51845812Y-46903971D01*
X51845812Y-46903971D01*
G37*
G36*
X50575812Y-46903971D02*
G01*
X50605707Y-46913040D01*
X50633262Y-46927768D01*
X50657412Y-46947588D01*
X50677232Y-46971738D01*
X50691960Y-46999293D01*
X50701029Y-47029188D01*
X50704720Y-47066666D01*
X50704720Y-48983894D01*
X50701029Y-49021372D01*
X50691960Y-49051267D01*
X50677232Y-49078822D01*
X50657412Y-49102972D01*
X50633262Y-49122792D01*
X50605707Y-49137520D01*
X50575812Y-49146589D01*
X50538334Y-49150280D01*
X49971106Y-49150280D01*
X49933628Y-49146589D01*
X49903733Y-49137520D01*
X49876178Y-49122792D01*
X49852028Y-49102972D01*
X49832208Y-49078822D01*
X49817480Y-49051267D01*
X49808411Y-49021372D01*
X49804720Y-48983894D01*
X49804720Y-47066666D01*
X49808411Y-47029188D01*
X49817480Y-46999293D01*
X49832208Y-46971738D01*
X49852028Y-46947588D01*
X49876178Y-46927768D01*
X49903733Y-46913040D01*
X49933628Y-46903971D01*
X49971106Y-46900280D01*
X50538334Y-46900280D01*
X50575812Y-46903971D01*
X50575812Y-46903971D01*
G37*
G36*
X49305812Y-46903971D02*
G01*
X49335707Y-46913040D01*
X49363262Y-46927768D01*
X49387412Y-46947588D01*
X49407232Y-46971738D01*
X49421960Y-46999293D01*
X49431029Y-47029188D01*
X49434720Y-47066666D01*
X49434720Y-48983894D01*
X49431029Y-49021372D01*
X49421960Y-49051267D01*
X49407232Y-49078822D01*
X49387412Y-49102972D01*
X49363262Y-49122792D01*
X49335707Y-49137520D01*
X49305812Y-49146589D01*
X49268334Y-49150280D01*
X48701106Y-49150280D01*
X48663628Y-49146589D01*
X48633733Y-49137520D01*
X48606178Y-49122792D01*
X48582028Y-49102972D01*
X48562208Y-49078822D01*
X48547480Y-49051267D01*
X48538411Y-49021372D01*
X48534720Y-48983894D01*
X48534720Y-47066666D01*
X48538411Y-47029188D01*
X48547480Y-46999293D01*
X48562208Y-46971738D01*
X48582028Y-46947588D01*
X48606178Y-46927768D01*
X48633733Y-46913040D01*
X48663628Y-46903971D01*
X48701106Y-46900280D01*
X49268334Y-46900280D01*
X49305812Y-46903971D01*
X49305812Y-46903971D01*
G37*
G36*
X48035812Y-46903971D02*
G01*
X48065707Y-46913040D01*
X48093262Y-46927768D01*
X48117412Y-46947588D01*
X48137232Y-46971738D01*
X48151960Y-46999293D01*
X48161029Y-47029188D01*
X48164720Y-47066666D01*
X48164720Y-48983894D01*
X48161029Y-49021372D01*
X48151960Y-49051267D01*
X48137232Y-49078822D01*
X48117412Y-49102972D01*
X48093262Y-49122792D01*
X48065707Y-49137520D01*
X48035812Y-49146589D01*
X47998334Y-49150280D01*
X47431106Y-49150280D01*
X47393628Y-49146589D01*
X47363733Y-49137520D01*
X47336178Y-49122792D01*
X47312028Y-49102972D01*
X47292208Y-49078822D01*
X47277480Y-49051267D01*
X47268411Y-49021372D01*
X47264720Y-48983894D01*
X47264720Y-47066666D01*
X47268411Y-47029188D01*
X47277480Y-46999293D01*
X47292208Y-46971738D01*
X47312028Y-46947588D01*
X47336178Y-46927768D01*
X47363733Y-46913040D01*
X47393628Y-46903971D01*
X47431106Y-46900280D01*
X47998334Y-46900280D01*
X48035812Y-46903971D01*
X48035812Y-46903971D01*
G37*
G36*
X46765812Y-46903971D02*
G01*
X46795707Y-46913040D01*
X46823262Y-46927768D01*
X46847412Y-46947588D01*
X46867232Y-46971738D01*
X46881960Y-46999293D01*
X46891029Y-47029188D01*
X46894720Y-47066666D01*
X46894720Y-48983894D01*
X46891029Y-49021372D01*
X46881960Y-49051267D01*
X46867232Y-49078822D01*
X46847412Y-49102972D01*
X46823262Y-49122792D01*
X46795707Y-49137520D01*
X46765812Y-49146589D01*
X46728334Y-49150280D01*
X46161106Y-49150280D01*
X46123628Y-49146589D01*
X46093733Y-49137520D01*
X46066178Y-49122792D01*
X46042028Y-49102972D01*
X46022208Y-49078822D01*
X46007480Y-49051267D01*
X45998411Y-49021372D01*
X45994720Y-48983894D01*
X45994720Y-47066666D01*
X45998411Y-47029188D01*
X46007480Y-46999293D01*
X46022208Y-46971738D01*
X46042028Y-46947588D01*
X46066178Y-46927768D01*
X46093733Y-46913040D01*
X46123628Y-46903971D01*
X46161106Y-46900280D01*
X46728334Y-46900280D01*
X46765812Y-46903971D01*
X46765812Y-46903971D01*
G37*
G36*
X45495812Y-46903971D02*
G01*
X45525707Y-46913040D01*
X45553262Y-46927768D01*
X45577412Y-46947588D01*
X45597232Y-46971738D01*
X45611960Y-46999293D01*
X45621029Y-47029188D01*
X45624720Y-47066666D01*
X45624720Y-48983894D01*
X45621029Y-49021372D01*
X45611960Y-49051267D01*
X45597232Y-49078822D01*
X45577412Y-49102972D01*
X45553262Y-49122792D01*
X45525707Y-49137520D01*
X45495812Y-49146589D01*
X45458334Y-49150280D01*
X44891106Y-49150280D01*
X44853628Y-49146589D01*
X44823733Y-49137520D01*
X44796178Y-49122792D01*
X44772028Y-49102972D01*
X44752208Y-49078822D01*
X44737480Y-49051267D01*
X44728411Y-49021372D01*
X44724720Y-48983894D01*
X44724720Y-47066666D01*
X44728411Y-47029188D01*
X44737480Y-46999293D01*
X44752208Y-46971738D01*
X44772028Y-46947588D01*
X44796178Y-46927768D01*
X44823733Y-46913040D01*
X44853628Y-46903971D01*
X44891106Y-46900280D01*
X45458334Y-46900280D01*
X45495812Y-46903971D01*
X45495812Y-46903971D01*
G37*
G36*
X40549836Y-46090830D02*
G01*
X40738332Y-46148009D01*
X40912058Y-46240868D01*
X41064328Y-46365832D01*
X41189292Y-46518102D01*
X41282151Y-46691828D01*
X41339330Y-46880324D01*
X41358638Y-47076360D01*
X41339330Y-47272396D01*
X41282151Y-47460892D01*
X41189292Y-47634618D01*
X41064328Y-47786888D01*
X40912058Y-47911852D01*
X40738332Y-48004711D01*
X40549836Y-48061890D01*
X40402920Y-48076360D01*
X40304680Y-48076360D01*
X40157764Y-48061890D01*
X39969268Y-48004711D01*
X39795542Y-47911852D01*
X39643272Y-47786888D01*
X39518308Y-47634618D01*
X39425449Y-47460892D01*
X39368270Y-47272396D01*
X39348962Y-47076360D01*
X39368270Y-46880324D01*
X39425449Y-46691828D01*
X39518308Y-46518102D01*
X39643272Y-46365832D01*
X39795542Y-46240868D01*
X39969268Y-46148009D01*
X40157764Y-46090830D01*
X40304680Y-46076360D01*
X40402920Y-46076360D01*
X40549836Y-46090830D01*
X40549836Y-46090830D01*
G37*
G36*
X38009836Y-46090830D02*
G01*
X38198332Y-46148009D01*
X38372058Y-46240868D01*
X38524328Y-46365832D01*
X38649292Y-46518102D01*
X38742151Y-46691828D01*
X38799330Y-46880324D01*
X38818638Y-47076360D01*
X38799330Y-47272396D01*
X38742151Y-47460892D01*
X38649292Y-47634618D01*
X38524328Y-47786888D01*
X38372058Y-47911852D01*
X38198332Y-48004711D01*
X38009836Y-48061890D01*
X37862920Y-48076360D01*
X37764680Y-48076360D01*
X37617764Y-48061890D01*
X37429268Y-48004711D01*
X37255542Y-47911852D01*
X37103272Y-47786888D01*
X36978308Y-47634618D01*
X36885449Y-47460892D01*
X36828270Y-47272396D01*
X36808962Y-47076360D01*
X36828270Y-46880324D01*
X36885449Y-46691828D01*
X36978308Y-46518102D01*
X37103272Y-46365832D01*
X37255542Y-46240868D01*
X37429268Y-46148009D01*
X37617764Y-46090830D01*
X37764680Y-46076360D01*
X37862920Y-46076360D01*
X38009836Y-46090830D01*
X38009836Y-46090830D01*
G37*
G36*
X63148573Y-44857406D02*
G01*
X63180371Y-44867052D01*
X63327648Y-44911728D01*
X63492685Y-44999942D01*
X63637341Y-45118659D01*
X63756058Y-45263315D01*
X63844272Y-45428352D01*
X63844272Y-45428353D01*
X63893599Y-45590960D01*
X63898594Y-45607428D01*
X63916936Y-45793660D01*
X63898594Y-45979892D01*
X63844272Y-46158968D01*
X63756058Y-46324005D01*
X63637341Y-46468661D01*
X63492685Y-46587378D01*
X63327648Y-46675592D01*
X63274125Y-46691828D01*
X63148573Y-46729914D01*
X63009005Y-46743660D01*
X62915675Y-46743660D01*
X62776107Y-46729914D01*
X62650555Y-46691828D01*
X62597032Y-46675592D01*
X62431995Y-46587378D01*
X62287339Y-46468661D01*
X62168622Y-46324005D01*
X62080408Y-46158968D01*
X62026086Y-45979892D01*
X62007744Y-45793660D01*
X62026086Y-45607428D01*
X62031082Y-45590960D01*
X62080408Y-45428353D01*
X62080408Y-45428352D01*
X62168622Y-45263315D01*
X62287339Y-45118659D01*
X62431995Y-44999942D01*
X62597032Y-44911728D01*
X62744309Y-44867052D01*
X62776107Y-44857406D01*
X62915675Y-44843660D01*
X63009005Y-44843660D01*
X63148573Y-44857406D01*
X63148573Y-44857406D01*
G37*
G36*
X59330953Y-44852326D02*
G01*
X59420490Y-44879487D01*
X59510028Y-44906648D01*
X59675065Y-44994862D01*
X59819721Y-45113579D01*
X59938438Y-45258235D01*
X60026652Y-45423272D01*
X60026652Y-45423273D01*
X60077520Y-45590960D01*
X60080974Y-45602348D01*
X60099316Y-45788580D01*
X60080974Y-45974812D01*
X60026652Y-46153888D01*
X59938438Y-46318925D01*
X59819721Y-46463581D01*
X59675065Y-46582298D01*
X59510028Y-46670512D01*
X59493281Y-46675592D01*
X59330953Y-46724834D01*
X59191385Y-46738580D01*
X59098055Y-46738580D01*
X58958487Y-46724834D01*
X58796159Y-46675592D01*
X58779412Y-46670512D01*
X58614375Y-46582298D01*
X58469719Y-46463581D01*
X58351002Y-46318925D01*
X58262788Y-46153888D01*
X58208466Y-45974812D01*
X58190124Y-45788580D01*
X58208466Y-45602348D01*
X58211921Y-45590960D01*
X58262788Y-45423273D01*
X58262788Y-45423272D01*
X58351002Y-45258235D01*
X58469719Y-45113579D01*
X58614375Y-44994862D01*
X58779412Y-44906648D01*
X58868950Y-44879487D01*
X58958487Y-44852326D01*
X59098055Y-44838580D01*
X59191385Y-44838580D01*
X59330953Y-44852326D01*
X59330953Y-44852326D01*
G37*
G36*
X66813436Y-44744630D02*
G01*
X67001932Y-44801809D01*
X67175658Y-44894668D01*
X67327928Y-45019632D01*
X67452892Y-45171902D01*
X67545751Y-45345628D01*
X67602930Y-45534124D01*
X67622238Y-45730160D01*
X67602930Y-45926196D01*
X67545751Y-46114692D01*
X67452892Y-46288418D01*
X67327928Y-46440688D01*
X67175658Y-46565652D01*
X67001932Y-46658511D01*
X66813436Y-46715690D01*
X66666520Y-46730160D01*
X66568280Y-46730160D01*
X66421364Y-46715690D01*
X66232868Y-46658511D01*
X66059142Y-46565652D01*
X65906872Y-46440688D01*
X65781908Y-46288418D01*
X65689049Y-46114692D01*
X65631870Y-45926196D01*
X65612562Y-45730160D01*
X65631870Y-45534124D01*
X65689049Y-45345628D01*
X65781908Y-45171902D01*
X65906872Y-45019632D01*
X66059142Y-44894668D01*
X66232868Y-44801809D01*
X66421364Y-44744630D01*
X66568280Y-44730160D01*
X66666520Y-44730160D01*
X66813436Y-44744630D01*
X66813436Y-44744630D01*
G37*
G36*
X77033180Y-46504100D02*
G01*
X75033180Y-46504100D01*
X75033180Y-44504100D01*
X77033180Y-44504100D01*
X77033180Y-46504100D01*
X77033180Y-46504100D01*
G37*
G36*
X81501880Y-46381240D02*
G01*
X77701880Y-46381240D01*
X77701880Y-31881240D01*
X81501880Y-31881240D01*
X81501880Y-46381240D01*
X81501880Y-46381240D01*
G37*
G36*
X54748092Y-45369651D02*
G01*
X54777987Y-45378720D01*
X54805542Y-45393448D01*
X54829692Y-45413268D01*
X54849512Y-45437418D01*
X54864240Y-45464973D01*
X54873309Y-45494868D01*
X54877000Y-45532346D01*
X54877000Y-46099574D01*
X54873309Y-46137052D01*
X54864240Y-46166947D01*
X54849512Y-46194502D01*
X54829692Y-46218652D01*
X54805542Y-46238472D01*
X54777987Y-46253200D01*
X54748092Y-46262269D01*
X54710614Y-46265960D01*
X52693386Y-46265960D01*
X52655908Y-46262269D01*
X52626013Y-46253200D01*
X52598458Y-46238472D01*
X52574308Y-46218652D01*
X52554488Y-46194502D01*
X52539760Y-46166947D01*
X52530691Y-46137052D01*
X52527000Y-46099574D01*
X52527000Y-45532346D01*
X52530691Y-45494868D01*
X52539760Y-45464973D01*
X52554488Y-45437418D01*
X52574308Y-45413268D01*
X52598458Y-45393448D01*
X52626013Y-45378720D01*
X52655908Y-45369651D01*
X52693386Y-45365960D01*
X54710614Y-45365960D01*
X54748092Y-45369651D01*
X54748092Y-45369651D01*
G37*
G36*
X45448092Y-45369651D02*
G01*
X45477987Y-45378720D01*
X45505542Y-45393448D01*
X45529692Y-45413268D01*
X45549512Y-45437418D01*
X45564240Y-45464973D01*
X45573309Y-45494868D01*
X45577000Y-45532346D01*
X45577000Y-46099574D01*
X45573309Y-46137052D01*
X45564240Y-46166947D01*
X45549512Y-46194502D01*
X45529692Y-46218652D01*
X45505542Y-46238472D01*
X45477987Y-46253200D01*
X45448092Y-46262269D01*
X45410614Y-46265960D01*
X43393386Y-46265960D01*
X43355908Y-46262269D01*
X43326013Y-46253200D01*
X43298458Y-46238472D01*
X43274308Y-46218652D01*
X43254488Y-46194502D01*
X43239760Y-46166947D01*
X43230691Y-46137052D01*
X43227000Y-46099574D01*
X43227000Y-45532346D01*
X43230691Y-45494868D01*
X43239760Y-45464973D01*
X43254488Y-45437418D01*
X43274308Y-45413268D01*
X43298458Y-45393448D01*
X43326013Y-45378720D01*
X43355908Y-45369651D01*
X43393386Y-45365960D01*
X45410614Y-45365960D01*
X45448092Y-45369651D01*
X45448092Y-45369651D01*
G37*
G36*
X40549836Y-43550830D02*
G01*
X40738332Y-43608009D01*
X40912058Y-43700868D01*
X41064328Y-43825832D01*
X41189292Y-43978102D01*
X41282151Y-44151828D01*
X41339330Y-44340324D01*
X41358638Y-44536360D01*
X41339330Y-44732396D01*
X41282151Y-44920892D01*
X41189292Y-45094618D01*
X41064328Y-45246888D01*
X40912058Y-45371852D01*
X40738332Y-45464711D01*
X40549836Y-45521890D01*
X40402920Y-45536360D01*
X40304680Y-45536360D01*
X40157764Y-45521890D01*
X39969268Y-45464711D01*
X39795542Y-45371852D01*
X39643272Y-45246888D01*
X39518308Y-45094618D01*
X39425449Y-44920892D01*
X39368270Y-44732396D01*
X39348962Y-44536360D01*
X39368270Y-44340324D01*
X39425449Y-44151828D01*
X39518308Y-43978102D01*
X39643272Y-43825832D01*
X39795542Y-43700868D01*
X39969268Y-43608009D01*
X40157764Y-43550830D01*
X40304680Y-43536360D01*
X40402920Y-43536360D01*
X40549836Y-43550830D01*
X40549836Y-43550830D01*
G37*
G36*
X38009836Y-43550830D02*
G01*
X38198332Y-43608009D01*
X38372058Y-43700868D01*
X38524328Y-43825832D01*
X38649292Y-43978102D01*
X38742151Y-44151828D01*
X38799330Y-44340324D01*
X38818638Y-44536360D01*
X38799330Y-44732396D01*
X38742151Y-44920892D01*
X38649292Y-45094618D01*
X38524328Y-45246888D01*
X38372058Y-45371852D01*
X38198332Y-45464711D01*
X38009836Y-45521890D01*
X37862920Y-45536360D01*
X37764680Y-45536360D01*
X37617764Y-45521890D01*
X37429268Y-45464711D01*
X37255542Y-45371852D01*
X37103272Y-45246888D01*
X36978308Y-45094618D01*
X36885449Y-44920892D01*
X36828270Y-44732396D01*
X36808962Y-44536360D01*
X36828270Y-44340324D01*
X36885449Y-44151828D01*
X36978308Y-43978102D01*
X37103272Y-43825832D01*
X37255542Y-43700868D01*
X37429268Y-43608009D01*
X37617764Y-43550830D01*
X37764680Y-43536360D01*
X37862920Y-43536360D01*
X38009836Y-43550830D01*
X38009836Y-43550830D01*
G37*
G36*
X45448092Y-44099651D02*
G01*
X45477987Y-44108720D01*
X45505542Y-44123448D01*
X45529692Y-44143268D01*
X45549512Y-44167418D01*
X45564240Y-44194973D01*
X45573309Y-44224868D01*
X45577000Y-44262346D01*
X45577000Y-44829574D01*
X45573309Y-44867052D01*
X45564240Y-44896947D01*
X45549512Y-44924502D01*
X45529692Y-44948652D01*
X45505542Y-44968472D01*
X45477987Y-44983200D01*
X45448092Y-44992269D01*
X45410614Y-44995960D01*
X43393386Y-44995960D01*
X43355908Y-44992269D01*
X43326013Y-44983200D01*
X43298458Y-44968472D01*
X43274308Y-44948652D01*
X43254488Y-44924502D01*
X43239760Y-44896947D01*
X43230691Y-44867052D01*
X43227000Y-44829574D01*
X43227000Y-44262346D01*
X43230691Y-44224868D01*
X43239760Y-44194973D01*
X43254488Y-44167418D01*
X43274308Y-44143268D01*
X43298458Y-44123448D01*
X43326013Y-44108720D01*
X43355908Y-44099651D01*
X43393386Y-44095960D01*
X45410614Y-44095960D01*
X45448092Y-44099651D01*
X45448092Y-44099651D01*
G37*
G36*
X54748092Y-44099651D02*
G01*
X54777987Y-44108720D01*
X54805542Y-44123448D01*
X54829692Y-44143268D01*
X54849512Y-44167418D01*
X54864240Y-44194973D01*
X54873309Y-44224868D01*
X54877000Y-44262346D01*
X54877000Y-44829574D01*
X54873309Y-44867052D01*
X54864240Y-44896947D01*
X54849512Y-44924502D01*
X54829692Y-44948652D01*
X54805542Y-44968472D01*
X54777987Y-44983200D01*
X54748092Y-44992269D01*
X54710614Y-44995960D01*
X52693386Y-44995960D01*
X52655908Y-44992269D01*
X52626013Y-44983200D01*
X52598458Y-44968472D01*
X52574308Y-44948652D01*
X52554488Y-44924502D01*
X52539760Y-44896947D01*
X52530691Y-44867052D01*
X52527000Y-44829574D01*
X52527000Y-44262346D01*
X52530691Y-44224868D01*
X52539760Y-44194973D01*
X52554488Y-44167418D01*
X52574308Y-44143268D01*
X52598458Y-44123448D01*
X52626013Y-44108720D01*
X52655908Y-44099651D01*
X52693386Y-44095960D01*
X54710614Y-44095960D01*
X54748092Y-44099651D01*
X54748092Y-44099651D01*
G37*
G36*
X63148573Y-42317406D02*
G01*
X63180371Y-42327052D01*
X63327648Y-42371728D01*
X63492685Y-42459942D01*
X63637341Y-42578659D01*
X63756058Y-42723315D01*
X63844272Y-42888352D01*
X63844272Y-42888353D01*
X63893599Y-43050960D01*
X63898594Y-43067428D01*
X63916936Y-43253660D01*
X63898594Y-43439892D01*
X63844272Y-43618968D01*
X63756058Y-43784005D01*
X63637341Y-43928661D01*
X63492685Y-44047378D01*
X63327648Y-44135592D01*
X63274125Y-44151828D01*
X63148573Y-44189914D01*
X63009005Y-44203660D01*
X62915675Y-44203660D01*
X62776107Y-44189914D01*
X62650555Y-44151828D01*
X62597032Y-44135592D01*
X62431995Y-44047378D01*
X62287339Y-43928661D01*
X62168622Y-43784005D01*
X62080408Y-43618968D01*
X62026086Y-43439892D01*
X62007744Y-43253660D01*
X62026086Y-43067428D01*
X62031082Y-43050960D01*
X62080408Y-42888353D01*
X62080408Y-42888352D01*
X62168622Y-42723315D01*
X62287339Y-42578659D01*
X62431995Y-42459942D01*
X62597032Y-42371728D01*
X62744309Y-42327052D01*
X62776107Y-42317406D01*
X62915675Y-42303660D01*
X63009005Y-42303660D01*
X63148573Y-42317406D01*
X63148573Y-42317406D01*
G37*
G36*
X59330953Y-42312326D02*
G01*
X59420490Y-42339487D01*
X59510028Y-42366648D01*
X59675065Y-42454862D01*
X59819721Y-42573579D01*
X59938438Y-42718235D01*
X60026652Y-42883272D01*
X60026652Y-42883273D01*
X60077520Y-43050960D01*
X60080974Y-43062348D01*
X60099316Y-43248580D01*
X60080974Y-43434812D01*
X60026652Y-43613888D01*
X59938438Y-43778925D01*
X59819721Y-43923581D01*
X59675065Y-44042298D01*
X59510028Y-44130512D01*
X59439768Y-44151825D01*
X59330953Y-44184834D01*
X59191385Y-44198580D01*
X59098055Y-44198580D01*
X58958487Y-44184834D01*
X58849672Y-44151825D01*
X58779412Y-44130512D01*
X58614375Y-44042298D01*
X58469719Y-43923581D01*
X58351002Y-43778925D01*
X58262788Y-43613888D01*
X58208466Y-43434812D01*
X58190124Y-43248580D01*
X58208466Y-43062348D01*
X58211921Y-43050960D01*
X58262788Y-42883273D01*
X58262788Y-42883272D01*
X58351002Y-42718235D01*
X58469719Y-42573579D01*
X58614375Y-42454862D01*
X58779412Y-42366648D01*
X58868950Y-42339487D01*
X58958487Y-42312326D01*
X59098055Y-42298580D01*
X59191385Y-42298580D01*
X59330953Y-42312326D01*
X59330953Y-42312326D01*
G37*
G36*
X66813436Y-42204630D02*
G01*
X67001932Y-42261809D01*
X67175658Y-42354668D01*
X67327928Y-42479632D01*
X67452892Y-42631902D01*
X67545751Y-42805628D01*
X67602930Y-42994124D01*
X67622238Y-43190160D01*
X67602930Y-43386196D01*
X67545751Y-43574692D01*
X67452892Y-43748418D01*
X67327928Y-43900688D01*
X67175658Y-44025652D01*
X67001932Y-44118511D01*
X66813436Y-44175690D01*
X66666520Y-44190160D01*
X66568280Y-44190160D01*
X66421364Y-44175690D01*
X66232868Y-44118511D01*
X66059142Y-44025652D01*
X65906872Y-43900688D01*
X65781908Y-43748418D01*
X65689049Y-43574692D01*
X65631870Y-43386196D01*
X65612562Y-43190160D01*
X65631870Y-42994124D01*
X65689049Y-42805628D01*
X65781908Y-42631902D01*
X65906872Y-42479632D01*
X66059142Y-42354668D01*
X66232868Y-42261809D01*
X66421364Y-42204630D01*
X66568280Y-42190160D01*
X66666520Y-42190160D01*
X66813436Y-42204630D01*
X66813436Y-42204630D01*
G37*
G36*
X54748092Y-42829651D02*
G01*
X54777987Y-42838720D01*
X54805542Y-42853448D01*
X54829692Y-42873268D01*
X54849512Y-42897418D01*
X54864240Y-42924973D01*
X54873309Y-42954868D01*
X54877000Y-42992346D01*
X54877000Y-43559574D01*
X54873309Y-43597052D01*
X54864240Y-43626947D01*
X54849512Y-43654502D01*
X54829692Y-43678652D01*
X54805542Y-43698472D01*
X54777987Y-43713200D01*
X54748092Y-43722269D01*
X54710614Y-43725960D01*
X52693386Y-43725960D01*
X52655908Y-43722269D01*
X52626013Y-43713200D01*
X52598458Y-43698472D01*
X52574308Y-43678652D01*
X52554488Y-43654502D01*
X52539760Y-43626947D01*
X52530691Y-43597052D01*
X52527000Y-43559574D01*
X52527000Y-42992346D01*
X52530691Y-42954868D01*
X52539760Y-42924973D01*
X52554488Y-42897418D01*
X52574308Y-42873268D01*
X52598458Y-42853448D01*
X52626013Y-42838720D01*
X52655908Y-42829651D01*
X52693386Y-42825960D01*
X54710614Y-42825960D01*
X54748092Y-42829651D01*
X54748092Y-42829651D01*
G37*
G36*
X45448092Y-42829651D02*
G01*
X45477987Y-42838720D01*
X45505542Y-42853448D01*
X45529692Y-42873268D01*
X45549512Y-42897418D01*
X45564240Y-42924973D01*
X45573309Y-42954868D01*
X45577000Y-42992346D01*
X45577000Y-43559574D01*
X45573309Y-43597052D01*
X45564240Y-43626947D01*
X45549512Y-43654502D01*
X45529692Y-43678652D01*
X45505542Y-43698472D01*
X45477987Y-43713200D01*
X45448092Y-43722269D01*
X45410614Y-43725960D01*
X43393386Y-43725960D01*
X43355908Y-43722269D01*
X43326013Y-43713200D01*
X43298458Y-43698472D01*
X43274308Y-43678652D01*
X43254488Y-43654502D01*
X43239760Y-43626947D01*
X43230691Y-43597052D01*
X43227000Y-43559574D01*
X43227000Y-42992346D01*
X43230691Y-42954868D01*
X43239760Y-42924973D01*
X43254488Y-42897418D01*
X43274308Y-42873268D01*
X43298458Y-42853448D01*
X43326013Y-42838720D01*
X43355908Y-42829651D01*
X43393386Y-42825960D01*
X45410614Y-42825960D01*
X45448092Y-42829651D01*
X45448092Y-42829651D01*
G37*
G36*
X38009836Y-41010830D02*
G01*
X38198332Y-41068009D01*
X38372058Y-41160868D01*
X38524328Y-41285832D01*
X38649292Y-41438102D01*
X38742151Y-41611828D01*
X38799330Y-41800324D01*
X38818638Y-41996360D01*
X38799330Y-42192396D01*
X38742151Y-42380892D01*
X38649292Y-42554618D01*
X38524328Y-42706888D01*
X38372058Y-42831852D01*
X38198332Y-42924711D01*
X38009836Y-42981890D01*
X37862920Y-42996360D01*
X37764680Y-42996360D01*
X37617764Y-42981890D01*
X37429268Y-42924711D01*
X37255542Y-42831852D01*
X37103272Y-42706888D01*
X36978308Y-42554618D01*
X36885449Y-42380892D01*
X36828270Y-42192396D01*
X36808962Y-41996360D01*
X36828270Y-41800324D01*
X36885449Y-41611828D01*
X36978308Y-41438102D01*
X37103272Y-41285832D01*
X37255542Y-41160868D01*
X37429268Y-41068009D01*
X37617764Y-41010830D01*
X37764680Y-40996360D01*
X37862920Y-40996360D01*
X38009836Y-41010830D01*
X38009836Y-41010830D01*
G37*
G36*
X40549836Y-41010830D02*
G01*
X40738332Y-41068009D01*
X40912058Y-41160868D01*
X41064328Y-41285832D01*
X41189292Y-41438102D01*
X41282151Y-41611828D01*
X41339330Y-41800324D01*
X41358638Y-41996360D01*
X41339330Y-42192396D01*
X41282151Y-42380892D01*
X41189292Y-42554618D01*
X41064328Y-42706888D01*
X40912058Y-42831852D01*
X40738332Y-42924711D01*
X40549836Y-42981890D01*
X40402920Y-42996360D01*
X40304680Y-42996360D01*
X40157764Y-42981890D01*
X39969268Y-42924711D01*
X39795542Y-42831852D01*
X39643272Y-42706888D01*
X39518308Y-42554618D01*
X39425449Y-42380892D01*
X39368270Y-42192396D01*
X39348962Y-41996360D01*
X39368270Y-41800324D01*
X39425449Y-41611828D01*
X39518308Y-41438102D01*
X39643272Y-41285832D01*
X39795542Y-41160868D01*
X39969268Y-41068009D01*
X40157764Y-41010830D01*
X40304680Y-40996360D01*
X40402920Y-40996360D01*
X40549836Y-41010830D01*
X40549836Y-41010830D01*
G37*
G36*
X45448092Y-41559651D02*
G01*
X45477987Y-41568720D01*
X45505542Y-41583448D01*
X45529692Y-41603268D01*
X45549512Y-41627418D01*
X45564240Y-41654973D01*
X45573309Y-41684868D01*
X45577000Y-41722346D01*
X45577000Y-42289574D01*
X45573309Y-42327052D01*
X45564240Y-42356947D01*
X45549512Y-42384502D01*
X45529692Y-42408652D01*
X45505542Y-42428472D01*
X45477987Y-42443200D01*
X45448092Y-42452269D01*
X45410614Y-42455960D01*
X43393386Y-42455960D01*
X43355908Y-42452269D01*
X43326013Y-42443200D01*
X43298458Y-42428472D01*
X43274308Y-42408652D01*
X43254488Y-42384502D01*
X43239760Y-42356947D01*
X43230691Y-42327052D01*
X43227000Y-42289574D01*
X43227000Y-41722346D01*
X43230691Y-41684868D01*
X43239760Y-41654973D01*
X43254488Y-41627418D01*
X43274308Y-41603268D01*
X43298458Y-41583448D01*
X43326013Y-41568720D01*
X43355908Y-41559651D01*
X43393386Y-41555960D01*
X45410614Y-41555960D01*
X45448092Y-41559651D01*
X45448092Y-41559651D01*
G37*
G36*
X54748092Y-41559651D02*
G01*
X54777987Y-41568720D01*
X54805542Y-41583448D01*
X54829692Y-41603268D01*
X54849512Y-41627418D01*
X54864240Y-41654973D01*
X54873309Y-41684868D01*
X54877000Y-41722346D01*
X54877000Y-42289574D01*
X54873309Y-42327052D01*
X54864240Y-42356947D01*
X54849512Y-42384502D01*
X54829692Y-42408652D01*
X54805542Y-42428472D01*
X54777987Y-42443200D01*
X54748092Y-42452269D01*
X54710614Y-42455960D01*
X52693386Y-42455960D01*
X52655908Y-42452269D01*
X52626013Y-42443200D01*
X52598458Y-42428472D01*
X52574308Y-42408652D01*
X52554488Y-42384502D01*
X52539760Y-42356947D01*
X52530691Y-42327052D01*
X52527000Y-42289574D01*
X52527000Y-41722346D01*
X52530691Y-41684868D01*
X52539760Y-41654973D01*
X52554488Y-41627418D01*
X52574308Y-41603268D01*
X52598458Y-41583448D01*
X52626013Y-41568720D01*
X52655908Y-41559651D01*
X52693386Y-41555960D01*
X54710614Y-41555960D01*
X54748092Y-41559651D01*
X54748092Y-41559651D01*
G37*
G36*
X63148573Y-39777406D02*
G01*
X63180371Y-39787052D01*
X63327648Y-39831728D01*
X63492685Y-39919942D01*
X63637341Y-40038659D01*
X63756058Y-40183315D01*
X63844272Y-40348352D01*
X63844272Y-40348353D01*
X63893599Y-40510960D01*
X63898594Y-40527428D01*
X63916936Y-40713660D01*
X63898594Y-40899892D01*
X63844272Y-41078968D01*
X63756058Y-41244005D01*
X63637341Y-41388661D01*
X63492685Y-41507378D01*
X63327648Y-41595592D01*
X63274125Y-41611828D01*
X63148573Y-41649914D01*
X63009005Y-41663660D01*
X62915675Y-41663660D01*
X62776107Y-41649914D01*
X62650555Y-41611828D01*
X62597032Y-41595592D01*
X62431995Y-41507378D01*
X62287339Y-41388661D01*
X62168622Y-41244005D01*
X62080408Y-41078968D01*
X62026086Y-40899892D01*
X62007744Y-40713660D01*
X62026086Y-40527428D01*
X62031082Y-40510960D01*
X62080408Y-40348353D01*
X62080408Y-40348352D01*
X62168622Y-40183315D01*
X62287339Y-40038659D01*
X62431995Y-39919942D01*
X62597032Y-39831728D01*
X62744309Y-39787052D01*
X62776107Y-39777406D01*
X62915675Y-39763660D01*
X63009005Y-39763660D01*
X63148573Y-39777406D01*
X63148573Y-39777406D01*
G37*
G36*
X59330953Y-39772326D02*
G01*
X59420490Y-39799487D01*
X59510028Y-39826648D01*
X59675065Y-39914862D01*
X59819721Y-40033579D01*
X59938438Y-40178235D01*
X60026652Y-40343272D01*
X60026652Y-40343273D01*
X60077520Y-40510960D01*
X60080974Y-40522348D01*
X60099316Y-40708580D01*
X60080974Y-40894812D01*
X60026652Y-41073888D01*
X59938438Y-41238925D01*
X59819721Y-41383581D01*
X59675065Y-41502298D01*
X59510028Y-41590512D01*
X59439768Y-41611825D01*
X59330953Y-41644834D01*
X59191385Y-41658580D01*
X59098055Y-41658580D01*
X58958487Y-41644834D01*
X58849672Y-41611825D01*
X58779412Y-41590512D01*
X58614375Y-41502298D01*
X58469719Y-41383581D01*
X58351002Y-41238925D01*
X58262788Y-41073888D01*
X58208466Y-40894812D01*
X58190124Y-40708580D01*
X58208466Y-40522348D01*
X58211921Y-40510960D01*
X58262788Y-40343273D01*
X58262788Y-40343272D01*
X58351002Y-40178235D01*
X58469719Y-40033579D01*
X58614375Y-39914862D01*
X58779412Y-39826648D01*
X58868950Y-39799487D01*
X58958487Y-39772326D01*
X59098055Y-39758580D01*
X59191385Y-39758580D01*
X59330953Y-39772326D01*
X59330953Y-39772326D01*
G37*
G36*
X66813436Y-39664630D02*
G01*
X67001932Y-39721809D01*
X67175658Y-39814668D01*
X67327928Y-39939632D01*
X67452892Y-40091902D01*
X67545751Y-40265628D01*
X67602930Y-40454124D01*
X67622238Y-40650160D01*
X67602930Y-40846196D01*
X67545751Y-41034692D01*
X67452892Y-41208418D01*
X67327928Y-41360688D01*
X67175658Y-41485652D01*
X67001932Y-41578511D01*
X66813436Y-41635690D01*
X66666520Y-41650160D01*
X66568280Y-41650160D01*
X66421364Y-41635690D01*
X66232868Y-41578511D01*
X66059142Y-41485652D01*
X65906872Y-41360688D01*
X65781908Y-41208418D01*
X65689049Y-41034692D01*
X65631870Y-40846196D01*
X65612562Y-40650160D01*
X65631870Y-40454124D01*
X65689049Y-40265628D01*
X65781908Y-40091902D01*
X65906872Y-39939632D01*
X66059142Y-39814668D01*
X66232868Y-39721809D01*
X66421364Y-39664630D01*
X66568280Y-39650160D01*
X66666520Y-39650160D01*
X66813436Y-39664630D01*
X66813436Y-39664630D01*
G37*
G36*
X45448092Y-40289651D02*
G01*
X45477987Y-40298720D01*
X45505542Y-40313448D01*
X45529692Y-40333268D01*
X45549512Y-40357418D01*
X45564240Y-40384973D01*
X45573309Y-40414868D01*
X45577000Y-40452346D01*
X45577000Y-41019574D01*
X45573309Y-41057052D01*
X45564240Y-41086947D01*
X45549512Y-41114502D01*
X45529692Y-41138652D01*
X45505542Y-41158472D01*
X45477987Y-41173200D01*
X45448092Y-41182269D01*
X45410614Y-41185960D01*
X43393386Y-41185960D01*
X43355908Y-41182269D01*
X43326013Y-41173200D01*
X43298458Y-41158472D01*
X43274308Y-41138652D01*
X43254488Y-41114502D01*
X43239760Y-41086947D01*
X43230691Y-41057052D01*
X43227000Y-41019574D01*
X43227000Y-40452346D01*
X43230691Y-40414868D01*
X43239760Y-40384973D01*
X43254488Y-40357418D01*
X43274308Y-40333268D01*
X43298458Y-40313448D01*
X43326013Y-40298720D01*
X43355908Y-40289651D01*
X43393386Y-40285960D01*
X45410614Y-40285960D01*
X45448092Y-40289651D01*
X45448092Y-40289651D01*
G37*
G36*
X54748092Y-40289651D02*
G01*
X54777987Y-40298720D01*
X54805542Y-40313448D01*
X54829692Y-40333268D01*
X54849512Y-40357418D01*
X54864240Y-40384973D01*
X54873309Y-40414868D01*
X54877000Y-40452346D01*
X54877000Y-41019574D01*
X54873309Y-41057052D01*
X54864240Y-41086947D01*
X54849512Y-41114502D01*
X54829692Y-41138652D01*
X54805542Y-41158472D01*
X54777987Y-41173200D01*
X54748092Y-41182269D01*
X54710614Y-41185960D01*
X52693386Y-41185960D01*
X52655908Y-41182269D01*
X52626013Y-41173200D01*
X52598458Y-41158472D01*
X52574308Y-41138652D01*
X52554488Y-41114502D01*
X52539760Y-41086947D01*
X52530691Y-41057052D01*
X52527000Y-41019574D01*
X52527000Y-40452346D01*
X52530691Y-40414868D01*
X52539760Y-40384973D01*
X52554488Y-40357418D01*
X52574308Y-40333268D01*
X52598458Y-40313448D01*
X52626013Y-40298720D01*
X52655908Y-40289651D01*
X52693386Y-40285960D01*
X54710614Y-40285960D01*
X54748092Y-40289651D01*
X54748092Y-40289651D01*
G37*
G36*
X40549836Y-38470830D02*
G01*
X40738332Y-38528009D01*
X40912058Y-38620868D01*
X41064328Y-38745832D01*
X41189292Y-38898102D01*
X41282151Y-39071828D01*
X41339330Y-39260324D01*
X41358638Y-39456360D01*
X41339330Y-39652396D01*
X41282151Y-39840892D01*
X41189292Y-40014618D01*
X41064328Y-40166888D01*
X40912058Y-40291852D01*
X40738332Y-40384711D01*
X40549836Y-40441890D01*
X40402920Y-40456360D01*
X40304680Y-40456360D01*
X40157764Y-40441890D01*
X39969268Y-40384711D01*
X39795542Y-40291852D01*
X39643272Y-40166888D01*
X39518308Y-40014618D01*
X39425449Y-39840892D01*
X39368270Y-39652396D01*
X39348962Y-39456360D01*
X39368270Y-39260324D01*
X39425449Y-39071828D01*
X39518308Y-38898102D01*
X39643272Y-38745832D01*
X39795542Y-38620868D01*
X39969268Y-38528009D01*
X40157764Y-38470830D01*
X40304680Y-38456360D01*
X40402920Y-38456360D01*
X40549836Y-38470830D01*
X40549836Y-38470830D01*
G37*
G36*
X38009836Y-38470830D02*
G01*
X38198332Y-38528009D01*
X38372058Y-38620868D01*
X38524328Y-38745832D01*
X38649292Y-38898102D01*
X38742151Y-39071828D01*
X38799330Y-39260324D01*
X38818638Y-39456360D01*
X38799330Y-39652396D01*
X38742151Y-39840892D01*
X38649292Y-40014618D01*
X38524328Y-40166888D01*
X38372058Y-40291852D01*
X38198332Y-40384711D01*
X38009836Y-40441890D01*
X37862920Y-40456360D01*
X37764680Y-40456360D01*
X37617764Y-40441890D01*
X37429268Y-40384711D01*
X37255542Y-40291852D01*
X37103272Y-40166888D01*
X36978308Y-40014618D01*
X36885449Y-39840892D01*
X36828270Y-39652396D01*
X36808962Y-39456360D01*
X36828270Y-39260324D01*
X36885449Y-39071828D01*
X36978308Y-38898102D01*
X37103272Y-38745832D01*
X37255542Y-38620868D01*
X37429268Y-38528009D01*
X37617764Y-38470830D01*
X37764680Y-38456360D01*
X37862920Y-38456360D01*
X38009836Y-38470830D01*
X38009836Y-38470830D01*
G37*
G36*
X54748092Y-39019651D02*
G01*
X54777987Y-39028720D01*
X54805542Y-39043448D01*
X54829692Y-39063268D01*
X54849512Y-39087418D01*
X54864240Y-39114973D01*
X54873309Y-39144868D01*
X54877000Y-39182346D01*
X54877000Y-39749574D01*
X54873309Y-39787052D01*
X54864240Y-39816947D01*
X54849512Y-39844502D01*
X54829692Y-39868652D01*
X54805542Y-39888472D01*
X54777987Y-39903200D01*
X54748092Y-39912269D01*
X54710614Y-39915960D01*
X52693386Y-39915960D01*
X52655908Y-39912269D01*
X52626013Y-39903200D01*
X52598458Y-39888472D01*
X52574308Y-39868652D01*
X52554488Y-39844502D01*
X52539760Y-39816947D01*
X52530691Y-39787052D01*
X52527000Y-39749574D01*
X52527000Y-39182346D01*
X52530691Y-39144868D01*
X52539760Y-39114973D01*
X52554488Y-39087418D01*
X52574308Y-39063268D01*
X52598458Y-39043448D01*
X52626013Y-39028720D01*
X52655908Y-39019651D01*
X52693386Y-39015960D01*
X54710614Y-39015960D01*
X54748092Y-39019651D01*
X54748092Y-39019651D01*
G37*
G36*
X45448092Y-39019651D02*
G01*
X45477987Y-39028720D01*
X45505542Y-39043448D01*
X45529692Y-39063268D01*
X45549512Y-39087418D01*
X45564240Y-39114973D01*
X45573309Y-39144868D01*
X45577000Y-39182346D01*
X45577000Y-39749574D01*
X45573309Y-39787052D01*
X45564240Y-39816947D01*
X45549512Y-39844502D01*
X45529692Y-39868652D01*
X45505542Y-39888472D01*
X45477987Y-39903200D01*
X45448092Y-39912269D01*
X45410614Y-39915960D01*
X43393386Y-39915960D01*
X43355908Y-39912269D01*
X43326013Y-39903200D01*
X43298458Y-39888472D01*
X43274308Y-39868652D01*
X43254488Y-39844502D01*
X43239760Y-39816947D01*
X43230691Y-39787052D01*
X43227000Y-39749574D01*
X43227000Y-39182346D01*
X43230691Y-39144868D01*
X43239760Y-39114973D01*
X43254488Y-39087418D01*
X43274308Y-39063268D01*
X43298458Y-39043448D01*
X43326013Y-39028720D01*
X43355908Y-39019651D01*
X43393386Y-39015960D01*
X45410614Y-39015960D01*
X45448092Y-39019651D01*
X45448092Y-39019651D01*
G37*
G36*
X63148573Y-37237406D02*
G01*
X63180371Y-37247052D01*
X63327648Y-37291728D01*
X63492685Y-37379942D01*
X63637341Y-37498659D01*
X63756058Y-37643315D01*
X63844272Y-37808352D01*
X63844272Y-37808353D01*
X63893599Y-37970960D01*
X63898594Y-37987428D01*
X63916936Y-38173660D01*
X63898594Y-38359892D01*
X63844272Y-38538968D01*
X63756058Y-38704005D01*
X63637341Y-38848661D01*
X63492685Y-38967378D01*
X63327648Y-39055592D01*
X63274125Y-39071828D01*
X63148573Y-39109914D01*
X63009005Y-39123660D01*
X62915675Y-39123660D01*
X62776107Y-39109914D01*
X62650555Y-39071828D01*
X62597032Y-39055592D01*
X62431995Y-38967378D01*
X62287339Y-38848661D01*
X62168622Y-38704005D01*
X62080408Y-38538968D01*
X62026086Y-38359892D01*
X62007744Y-38173660D01*
X62026086Y-37987428D01*
X62031082Y-37970960D01*
X62080408Y-37808353D01*
X62080408Y-37808352D01*
X62168622Y-37643315D01*
X62287339Y-37498659D01*
X62431995Y-37379942D01*
X62597032Y-37291728D01*
X62744309Y-37247052D01*
X62776107Y-37237406D01*
X62915675Y-37223660D01*
X63009005Y-37223660D01*
X63148573Y-37237406D01*
X63148573Y-37237406D01*
G37*
G36*
X59330953Y-37232326D02*
G01*
X59420490Y-37259487D01*
X59510028Y-37286648D01*
X59675065Y-37374862D01*
X59819721Y-37493579D01*
X59938438Y-37638235D01*
X60026652Y-37803272D01*
X60026652Y-37803273D01*
X60077520Y-37970960D01*
X60080974Y-37982348D01*
X60099316Y-38168580D01*
X60080974Y-38354812D01*
X60026652Y-38533888D01*
X59938438Y-38698925D01*
X59819721Y-38843581D01*
X59675065Y-38962298D01*
X59510028Y-39050512D01*
X59439768Y-39071825D01*
X59330953Y-39104834D01*
X59191385Y-39118580D01*
X59098055Y-39118580D01*
X58958487Y-39104834D01*
X58849672Y-39071825D01*
X58779412Y-39050512D01*
X58614375Y-38962298D01*
X58469719Y-38843581D01*
X58351002Y-38698925D01*
X58262788Y-38533888D01*
X58208466Y-38354812D01*
X58190124Y-38168580D01*
X58208466Y-37982348D01*
X58211921Y-37970960D01*
X58262788Y-37803273D01*
X58262788Y-37803272D01*
X58351002Y-37638235D01*
X58469719Y-37493579D01*
X58614375Y-37374862D01*
X58779412Y-37286648D01*
X58868950Y-37259487D01*
X58958487Y-37232326D01*
X59098055Y-37218580D01*
X59191385Y-37218580D01*
X59330953Y-37232326D01*
X59330953Y-37232326D01*
G37*
G36*
X67617400Y-39110160D02*
G01*
X65617400Y-39110160D01*
X65617400Y-37110160D01*
X67617400Y-37110160D01*
X67617400Y-39110160D01*
X67617400Y-39110160D01*
G37*
G36*
X54748092Y-37749651D02*
G01*
X54777987Y-37758720D01*
X54805542Y-37773448D01*
X54829692Y-37793268D01*
X54849512Y-37817418D01*
X54864240Y-37844973D01*
X54873309Y-37874868D01*
X54877000Y-37912346D01*
X54877000Y-38479574D01*
X54873309Y-38517052D01*
X54864240Y-38546947D01*
X54849512Y-38574502D01*
X54829692Y-38598652D01*
X54805542Y-38618472D01*
X54777987Y-38633200D01*
X54748092Y-38642269D01*
X54710614Y-38645960D01*
X52693386Y-38645960D01*
X52655908Y-38642269D01*
X52626013Y-38633200D01*
X52598458Y-38618472D01*
X52574308Y-38598652D01*
X52554488Y-38574502D01*
X52539760Y-38546947D01*
X52530691Y-38517052D01*
X52527000Y-38479574D01*
X52527000Y-37912346D01*
X52530691Y-37874868D01*
X52539760Y-37844973D01*
X52554488Y-37817418D01*
X52574308Y-37793268D01*
X52598458Y-37773448D01*
X52626013Y-37758720D01*
X52655908Y-37749651D01*
X52693386Y-37745960D01*
X54710614Y-37745960D01*
X54748092Y-37749651D01*
X54748092Y-37749651D01*
G37*
G36*
X45448092Y-37749651D02*
G01*
X45477987Y-37758720D01*
X45505542Y-37773448D01*
X45529692Y-37793268D01*
X45549512Y-37817418D01*
X45564240Y-37844973D01*
X45573309Y-37874868D01*
X45577000Y-37912346D01*
X45577000Y-38479574D01*
X45573309Y-38517052D01*
X45564240Y-38546947D01*
X45549512Y-38574502D01*
X45529692Y-38598652D01*
X45505542Y-38618472D01*
X45477987Y-38633200D01*
X45448092Y-38642269D01*
X45410614Y-38645960D01*
X43393386Y-38645960D01*
X43355908Y-38642269D01*
X43326013Y-38633200D01*
X43298458Y-38618472D01*
X43274308Y-38598652D01*
X43254488Y-38574502D01*
X43239760Y-38546947D01*
X43230691Y-38517052D01*
X43227000Y-38479574D01*
X43227000Y-37912346D01*
X43230691Y-37874868D01*
X43239760Y-37844973D01*
X43254488Y-37817418D01*
X43274308Y-37793268D01*
X43298458Y-37773448D01*
X43326013Y-37758720D01*
X43355908Y-37749651D01*
X43393386Y-37745960D01*
X45410614Y-37745960D01*
X45448092Y-37749651D01*
X45448092Y-37749651D01*
G37*
G36*
X40549836Y-35930830D02*
G01*
X40738332Y-35988009D01*
X40912058Y-36080868D01*
X41064328Y-36205832D01*
X41189292Y-36358102D01*
X41282151Y-36531828D01*
X41339330Y-36720324D01*
X41358638Y-36916360D01*
X41339330Y-37112396D01*
X41282151Y-37300892D01*
X41189292Y-37474618D01*
X41064328Y-37626888D01*
X40912058Y-37751852D01*
X40738332Y-37844711D01*
X40549836Y-37901890D01*
X40402920Y-37916360D01*
X40304680Y-37916360D01*
X40157764Y-37901890D01*
X39969268Y-37844711D01*
X39795542Y-37751852D01*
X39643272Y-37626888D01*
X39518308Y-37474618D01*
X39425449Y-37300892D01*
X39368270Y-37112396D01*
X39348962Y-36916360D01*
X39368270Y-36720324D01*
X39425449Y-36531828D01*
X39518308Y-36358102D01*
X39643272Y-36205832D01*
X39795542Y-36080868D01*
X39969268Y-35988009D01*
X40157764Y-35930830D01*
X40304680Y-35916360D01*
X40402920Y-35916360D01*
X40549836Y-35930830D01*
X40549836Y-35930830D01*
G37*
G36*
X38009836Y-35930830D02*
G01*
X38198332Y-35988009D01*
X38372058Y-36080868D01*
X38524328Y-36205832D01*
X38649292Y-36358102D01*
X38742151Y-36531828D01*
X38799330Y-36720324D01*
X38818638Y-36916360D01*
X38799330Y-37112396D01*
X38742151Y-37300892D01*
X38649292Y-37474618D01*
X38524328Y-37626888D01*
X38372058Y-37751852D01*
X38198332Y-37844711D01*
X38009836Y-37901890D01*
X37862920Y-37916360D01*
X37764680Y-37916360D01*
X37617764Y-37901890D01*
X37429268Y-37844711D01*
X37255542Y-37751852D01*
X37103272Y-37626888D01*
X36978308Y-37474618D01*
X36885449Y-37300892D01*
X36828270Y-37112396D01*
X36808962Y-36916360D01*
X36828270Y-36720324D01*
X36885449Y-36531828D01*
X36978308Y-36358102D01*
X37103272Y-36205832D01*
X37255542Y-36080868D01*
X37429268Y-35988009D01*
X37617764Y-35930830D01*
X37764680Y-35916360D01*
X37862920Y-35916360D01*
X38009836Y-35930830D01*
X38009836Y-35930830D01*
G37*
G36*
X45448092Y-36479651D02*
G01*
X45477987Y-36488720D01*
X45505542Y-36503448D01*
X45529692Y-36523268D01*
X45549512Y-36547418D01*
X45564240Y-36574973D01*
X45573309Y-36604868D01*
X45577000Y-36642346D01*
X45577000Y-37209574D01*
X45573309Y-37247052D01*
X45564240Y-37276947D01*
X45549512Y-37304502D01*
X45529692Y-37328652D01*
X45505542Y-37348472D01*
X45477987Y-37363200D01*
X45448092Y-37372269D01*
X45410614Y-37375960D01*
X43393386Y-37375960D01*
X43355908Y-37372269D01*
X43326013Y-37363200D01*
X43298458Y-37348472D01*
X43274308Y-37328652D01*
X43254488Y-37304502D01*
X43239760Y-37276947D01*
X43230691Y-37247052D01*
X43227000Y-37209574D01*
X43227000Y-36642346D01*
X43230691Y-36604868D01*
X43239760Y-36574973D01*
X43254488Y-36547418D01*
X43274308Y-36523268D01*
X43298458Y-36503448D01*
X43326013Y-36488720D01*
X43355908Y-36479651D01*
X43393386Y-36475960D01*
X45410614Y-36475960D01*
X45448092Y-36479651D01*
X45448092Y-36479651D01*
G37*
G36*
X54748092Y-36479651D02*
G01*
X54777987Y-36488720D01*
X54805542Y-36503448D01*
X54829692Y-36523268D01*
X54849512Y-36547418D01*
X54864240Y-36574973D01*
X54873309Y-36604868D01*
X54877000Y-36642346D01*
X54877000Y-37209574D01*
X54873309Y-37247052D01*
X54864240Y-37276947D01*
X54849512Y-37304502D01*
X54829692Y-37328652D01*
X54805542Y-37348472D01*
X54777987Y-37363200D01*
X54748092Y-37372269D01*
X54710614Y-37375960D01*
X52693386Y-37375960D01*
X52655908Y-37372269D01*
X52626013Y-37363200D01*
X52598458Y-37348472D01*
X52574308Y-37328652D01*
X52554488Y-37304502D01*
X52539760Y-37276947D01*
X52530691Y-37247052D01*
X52527000Y-37209574D01*
X52527000Y-36642346D01*
X52530691Y-36604868D01*
X52539760Y-36574973D01*
X52554488Y-36547418D01*
X52574308Y-36523268D01*
X52598458Y-36503448D01*
X52626013Y-36488720D01*
X52655908Y-36479651D01*
X52693386Y-36475960D01*
X54710614Y-36475960D01*
X54748092Y-36479651D01*
X54748092Y-36479651D01*
G37*
G36*
X63148573Y-34697406D02*
G01*
X63180371Y-34707052D01*
X63327648Y-34751728D01*
X63492685Y-34839942D01*
X63637341Y-34958659D01*
X63756058Y-35103315D01*
X63844272Y-35268352D01*
X63844272Y-35268353D01*
X63893599Y-35430960D01*
X63898594Y-35447428D01*
X63916936Y-35633660D01*
X63898594Y-35819892D01*
X63844272Y-35998968D01*
X63756058Y-36164005D01*
X63637341Y-36308661D01*
X63492685Y-36427378D01*
X63327648Y-36515592D01*
X63274125Y-36531828D01*
X63148573Y-36569914D01*
X63009005Y-36583660D01*
X62915675Y-36583660D01*
X62776107Y-36569914D01*
X62650555Y-36531828D01*
X62597032Y-36515592D01*
X62431995Y-36427378D01*
X62287339Y-36308661D01*
X62168622Y-36164005D01*
X62080408Y-35998968D01*
X62026086Y-35819892D01*
X62007744Y-35633660D01*
X62026086Y-35447428D01*
X62031082Y-35430960D01*
X62080408Y-35268353D01*
X62080408Y-35268352D01*
X62168622Y-35103315D01*
X62287339Y-34958659D01*
X62431995Y-34839942D01*
X62597032Y-34751728D01*
X62744309Y-34707052D01*
X62776107Y-34697406D01*
X62915675Y-34683660D01*
X63009005Y-34683660D01*
X63148573Y-34697406D01*
X63148573Y-34697406D01*
G37*
G36*
X59330953Y-34692326D02*
G01*
X59420490Y-34719487D01*
X59510028Y-34746648D01*
X59675065Y-34834862D01*
X59819721Y-34953579D01*
X59938438Y-35098235D01*
X60026652Y-35263272D01*
X60026652Y-35263273D01*
X60077520Y-35430960D01*
X60080974Y-35442348D01*
X60099316Y-35628580D01*
X60080974Y-35814812D01*
X60026652Y-35993888D01*
X59938438Y-36158925D01*
X59819721Y-36303581D01*
X59675065Y-36422298D01*
X59510028Y-36510512D01*
X59439768Y-36531825D01*
X59330953Y-36564834D01*
X59191385Y-36578580D01*
X59098055Y-36578580D01*
X58958487Y-36564834D01*
X58849672Y-36531825D01*
X58779412Y-36510512D01*
X58614375Y-36422298D01*
X58469719Y-36303581D01*
X58351002Y-36158925D01*
X58262788Y-35993888D01*
X58208466Y-35814812D01*
X58190124Y-35628580D01*
X58208466Y-35442348D01*
X58211921Y-35430960D01*
X58262788Y-35263273D01*
X58262788Y-35263272D01*
X58351002Y-35098235D01*
X58469719Y-34953579D01*
X58614375Y-34834862D01*
X58779412Y-34746648D01*
X58868950Y-34719487D01*
X58958487Y-34692326D01*
X59098055Y-34678580D01*
X59191385Y-34678580D01*
X59330953Y-34692326D01*
X59330953Y-34692326D01*
G37*
G36*
X54748092Y-35209651D02*
G01*
X54777987Y-35218720D01*
X54805542Y-35233448D01*
X54829692Y-35253268D01*
X54849512Y-35277418D01*
X54864240Y-35304973D01*
X54873309Y-35334868D01*
X54877000Y-35372346D01*
X54877000Y-35939574D01*
X54873309Y-35977052D01*
X54864240Y-36006947D01*
X54849512Y-36034502D01*
X54829692Y-36058652D01*
X54805542Y-36078472D01*
X54777987Y-36093200D01*
X54748092Y-36102269D01*
X54710614Y-36105960D01*
X52693386Y-36105960D01*
X52655908Y-36102269D01*
X52626013Y-36093200D01*
X52598458Y-36078472D01*
X52574308Y-36058652D01*
X52554488Y-36034502D01*
X52539760Y-36006947D01*
X52530691Y-35977052D01*
X52527000Y-35939574D01*
X52527000Y-35372346D01*
X52530691Y-35334868D01*
X52539760Y-35304973D01*
X52554488Y-35277418D01*
X52574308Y-35253268D01*
X52598458Y-35233448D01*
X52626013Y-35218720D01*
X52655908Y-35209651D01*
X52693386Y-35205960D01*
X54710614Y-35205960D01*
X54748092Y-35209651D01*
X54748092Y-35209651D01*
G37*
G36*
X45448092Y-35209651D02*
G01*
X45477987Y-35218720D01*
X45505542Y-35233448D01*
X45529692Y-35253268D01*
X45549512Y-35277418D01*
X45564240Y-35304973D01*
X45573309Y-35334868D01*
X45577000Y-35372346D01*
X45577000Y-35939574D01*
X45573309Y-35977052D01*
X45564240Y-36006947D01*
X45549512Y-36034502D01*
X45529692Y-36058652D01*
X45505542Y-36078472D01*
X45477987Y-36093200D01*
X45448092Y-36102269D01*
X45410614Y-36105960D01*
X43393386Y-36105960D01*
X43355908Y-36102269D01*
X43326013Y-36093200D01*
X43298458Y-36078472D01*
X43274308Y-36058652D01*
X43254488Y-36034502D01*
X43239760Y-36006947D01*
X43230691Y-35977052D01*
X43227000Y-35939574D01*
X43227000Y-35372346D01*
X43230691Y-35334868D01*
X43239760Y-35304973D01*
X43254488Y-35277418D01*
X43274308Y-35253268D01*
X43298458Y-35233448D01*
X43326013Y-35218720D01*
X43355908Y-35209651D01*
X43393386Y-35205960D01*
X45410614Y-35205960D01*
X45448092Y-35209651D01*
X45448092Y-35209651D01*
G37*
G36*
X72322000Y-36060960D02*
G01*
X70922000Y-36060960D01*
X70922000Y-34660960D01*
X72322000Y-34660960D01*
X72322000Y-36060960D01*
X72322000Y-36060960D01*
G37*
G36*
X75122000Y-36060960D02*
G01*
X73722000Y-36060960D01*
X73722000Y-34660960D01*
X75122000Y-34660960D01*
X75122000Y-36060960D01*
X75122000Y-36060960D01*
G37*
G36*
X38009836Y-33390830D02*
G01*
X38198332Y-33448009D01*
X38372058Y-33540868D01*
X38524328Y-33665832D01*
X38649292Y-33818102D01*
X38742151Y-33991828D01*
X38799330Y-34180324D01*
X38818638Y-34376360D01*
X38799330Y-34572396D01*
X38742151Y-34760892D01*
X38649292Y-34934618D01*
X38524328Y-35086888D01*
X38372058Y-35211852D01*
X38198332Y-35304711D01*
X38009836Y-35361890D01*
X37862920Y-35376360D01*
X37764680Y-35376360D01*
X37617764Y-35361890D01*
X37429268Y-35304711D01*
X37255542Y-35211852D01*
X37103272Y-35086888D01*
X36978308Y-34934618D01*
X36885449Y-34760892D01*
X36828270Y-34572396D01*
X36808962Y-34376360D01*
X36828270Y-34180324D01*
X36885449Y-33991828D01*
X36978308Y-33818102D01*
X37103272Y-33665832D01*
X37255542Y-33540868D01*
X37429268Y-33448009D01*
X37617764Y-33390830D01*
X37764680Y-33376360D01*
X37862920Y-33376360D01*
X38009836Y-33390830D01*
X38009836Y-33390830D01*
G37*
G36*
X41353800Y-35376360D02*
G01*
X39353800Y-35376360D01*
X39353800Y-33376360D01*
X41353800Y-33376360D01*
X41353800Y-35376360D01*
X41353800Y-35376360D01*
G37*
G36*
X45448092Y-33939651D02*
G01*
X45477987Y-33948720D01*
X45505542Y-33963448D01*
X45529692Y-33983268D01*
X45549512Y-34007418D01*
X45564240Y-34034973D01*
X45573309Y-34064868D01*
X45577000Y-34102346D01*
X45577000Y-34669574D01*
X45573309Y-34707052D01*
X45564240Y-34736947D01*
X45549512Y-34764502D01*
X45529692Y-34788652D01*
X45505542Y-34808472D01*
X45477987Y-34823200D01*
X45448092Y-34832269D01*
X45410614Y-34835960D01*
X43393386Y-34835960D01*
X43355908Y-34832269D01*
X43326013Y-34823200D01*
X43298458Y-34808472D01*
X43274308Y-34788652D01*
X43254488Y-34764502D01*
X43239760Y-34736947D01*
X43230691Y-34707052D01*
X43227000Y-34669574D01*
X43227000Y-34102346D01*
X43230691Y-34064868D01*
X43239760Y-34034973D01*
X43254488Y-34007418D01*
X43274308Y-33983268D01*
X43298458Y-33963448D01*
X43326013Y-33948720D01*
X43355908Y-33939651D01*
X43393386Y-33935960D01*
X45410614Y-33935960D01*
X45448092Y-33939651D01*
X45448092Y-33939651D01*
G37*
G36*
X54748092Y-33939651D02*
G01*
X54777987Y-33948720D01*
X54805542Y-33963448D01*
X54829692Y-33983268D01*
X54849512Y-34007418D01*
X54864240Y-34034973D01*
X54873309Y-34064868D01*
X54877000Y-34102346D01*
X54877000Y-34669574D01*
X54873309Y-34707052D01*
X54864240Y-34736947D01*
X54849512Y-34764502D01*
X54829692Y-34788652D01*
X54805542Y-34808472D01*
X54777987Y-34823200D01*
X54748092Y-34832269D01*
X54710614Y-34835960D01*
X52693386Y-34835960D01*
X52655908Y-34832269D01*
X52626013Y-34823200D01*
X52598458Y-34808472D01*
X52574308Y-34788652D01*
X52554488Y-34764502D01*
X52539760Y-34736947D01*
X52530691Y-34707052D01*
X52527000Y-34669574D01*
X52527000Y-34102346D01*
X52530691Y-34064868D01*
X52539760Y-34034973D01*
X52554488Y-34007418D01*
X52574308Y-33983268D01*
X52598458Y-33963448D01*
X52626013Y-33948720D01*
X52655908Y-33939651D01*
X52693386Y-33935960D01*
X54710614Y-33935960D01*
X54748092Y-33939651D01*
X54748092Y-33939651D01*
G37*
G36*
X77040800Y-33801560D02*
G01*
X75040800Y-33801560D01*
X75040800Y-31801560D01*
X77040800Y-31801560D01*
X77040800Y-33801560D01*
X77040800Y-33801560D01*
G37*
G36*
X58607301Y-31856222D02*
G01*
X58652530Y-31869942D01*
X58694214Y-31892222D01*
X58730751Y-31922209D01*
X58760738Y-31958746D01*
X58783018Y-32000430D01*
X58796738Y-32045659D01*
X58802000Y-32099085D01*
X58802000Y-33302835D01*
X58796738Y-33356261D01*
X58783018Y-33401490D01*
X58760738Y-33443174D01*
X58730751Y-33479711D01*
X58694214Y-33509698D01*
X58652530Y-33531978D01*
X58607301Y-33545698D01*
X58553875Y-33550960D01*
X57600125Y-33550960D01*
X57546699Y-33545698D01*
X57501470Y-33531978D01*
X57459786Y-33509698D01*
X57423249Y-33479711D01*
X57393262Y-33443174D01*
X57370982Y-33401490D01*
X57357262Y-33356261D01*
X57352000Y-33302835D01*
X57352000Y-32099085D01*
X57357262Y-32045659D01*
X57370982Y-32000430D01*
X57393262Y-31958746D01*
X57423249Y-31922209D01*
X57459786Y-31892222D01*
X57501470Y-31869942D01*
X57546699Y-31856222D01*
X57600125Y-31850960D01*
X58553875Y-31850960D01*
X58607301Y-31856222D01*
X58607301Y-31856222D01*
G37*
G36*
X56557301Y-31856222D02*
G01*
X56602530Y-31869942D01*
X56644214Y-31892222D01*
X56680751Y-31922209D01*
X56710738Y-31958746D01*
X56733018Y-32000430D01*
X56746738Y-32045659D01*
X56752000Y-32099085D01*
X56752000Y-33302835D01*
X56746738Y-33356261D01*
X56733018Y-33401490D01*
X56710738Y-33443174D01*
X56680751Y-33479711D01*
X56644214Y-33509698D01*
X56602530Y-33531978D01*
X56557301Y-33545698D01*
X56503875Y-33550960D01*
X55550125Y-33550960D01*
X55496699Y-33545698D01*
X55451470Y-33531978D01*
X55409786Y-33509698D01*
X55373249Y-33479711D01*
X55343262Y-33443174D01*
X55320982Y-33401490D01*
X55307262Y-33356261D01*
X55302000Y-33302835D01*
X55302000Y-32099085D01*
X55307262Y-32045659D01*
X55320982Y-32000430D01*
X55343262Y-31958746D01*
X55373249Y-31922209D01*
X55409786Y-31892222D01*
X55451470Y-31869942D01*
X55496699Y-31856222D01*
X55550125Y-31850960D01*
X56503875Y-31850960D01*
X56557301Y-31856222D01*
X56557301Y-31856222D01*
G37*
M02*
