G04 #@! TF.GenerationSoftware,KiCad,Pcbnew,(5.1.4)-1*
G04 #@! TF.CreationDate,2020-03-17T17:23:08+00:00*
G04 #@! TF.ProjectId,buffer,62756666-6572-42e6-9b69-6361645f7063,rev?*
G04 #@! TF.SameCoordinates,Original*
G04 #@! TF.FileFunction,Copper,L2,Bot*
G04 #@! TF.FilePolarity,Positive*
%FSLAX46Y46*%
G04 Gerber Fmt 4.6, Leading zero omitted, Abs format (unit mm)*
G04 Created by KiCad (PCBNEW (5.1.4)-1) date 2020-03-17 17:23:08*
%MOMM*%
%LPD*%
G04 APERTURE LIST*
%ADD10R,3.500000X1.750000*%
%ADD11R,3.500000X2.000000*%
%ADD12R,1.600000X1.600000*%
%ADD13O,1.600000X1.600000*%
%ADD14O,1.700000X1.700000*%
%ADD15R,1.700000X1.700000*%
%ADD16C,0.762000*%
%ADD17C,0.381000*%
%ADD18C,0.635000*%
%ADD19C,0.254000*%
G04 APERTURE END LIST*
D10*
X79602000Y-44155960D03*
D11*
X79602000Y-41740960D03*
X79602000Y-39200960D03*
X79602000Y-36660960D03*
D10*
X79602000Y-34245960D03*
D12*
X59102000Y-45700960D03*
D13*
X59102000Y-43160960D03*
X59102000Y-40620960D03*
X59102000Y-38080960D03*
X59102000Y-35540960D03*
D14*
X66617400Y-45730160D03*
X66617400Y-43190160D03*
X66617400Y-40650160D03*
D15*
X66617400Y-38110160D03*
X76033180Y-45504100D03*
X40353800Y-34376360D03*
D14*
X37813800Y-34376360D03*
X40353800Y-36916360D03*
X37813800Y-36916360D03*
X40353800Y-39456360D03*
X37813800Y-39456360D03*
X40353800Y-41996360D03*
X37813800Y-41996360D03*
X40353800Y-44536360D03*
X37813800Y-44536360D03*
X40353800Y-47076360D03*
X37813800Y-47076360D03*
D15*
X76040800Y-32801560D03*
D13*
X62902000Y-35540960D03*
X62902000Y-38080960D03*
X62902000Y-40620960D03*
X62902000Y-43160960D03*
D12*
X62902000Y-45700960D03*
D16*
X46507000Y-34395960D03*
X58712000Y-32700960D03*
X46236440Y-45836840D03*
D17*
X38663799Y-45386359D02*
X37813800Y-44536360D01*
X39057501Y-45780061D02*
X38663799Y-45386359D01*
X42101101Y-45780061D02*
X39057501Y-45780061D01*
X46022000Y-49700960D02*
X42101101Y-45780061D01*
X62682000Y-49680960D02*
X62702000Y-49700960D01*
X62702000Y-49700960D02*
X59102000Y-49700960D01*
X62902000Y-49600960D02*
X63002000Y-49700960D01*
X62902000Y-45800960D02*
X62902000Y-49600960D01*
X63002000Y-49700960D02*
X62702000Y-49700960D01*
X59102000Y-45800960D02*
X62902000Y-45800960D01*
X59102000Y-49700960D02*
X56902000Y-49700960D01*
X56902000Y-49700960D02*
X46022000Y-49700960D01*
X56902000Y-49700960D02*
X56902000Y-36760966D01*
X63002000Y-49700960D02*
X67292000Y-49700960D01*
X67292000Y-49700960D02*
X73843000Y-43149960D01*
X56902000Y-36760966D02*
X56902000Y-34510960D01*
X56787000Y-34395960D02*
X56902000Y-34510960D01*
X46507000Y-34395960D02*
X56787000Y-34395960D01*
D18*
X76501000Y-43149960D02*
X73843000Y-43149960D01*
X79602000Y-44280960D02*
X77632000Y-44280960D01*
X77632000Y-44280960D02*
X76501000Y-43149960D01*
D17*
X46236440Y-45176520D02*
X58206230Y-33206730D01*
X46236440Y-45836840D02*
X46236440Y-45176520D01*
X56902000Y-34510960D02*
X58206230Y-33206730D01*
X58206230Y-33206730D02*
X58712000Y-32700960D01*
X37813800Y-41996360D02*
X38513122Y-41996360D01*
X59901999Y-43960959D02*
X59102000Y-43160960D01*
X60374901Y-44433861D02*
X59901999Y-43960959D01*
X70429099Y-44433861D02*
X60374901Y-44433861D01*
X79847000Y-41740960D02*
X73122000Y-41740960D01*
X73122000Y-41740960D02*
X70429099Y-44433861D01*
X59901999Y-41420959D02*
X59102000Y-40620960D01*
X60395701Y-41914661D02*
X59901999Y-41420959D01*
X70638299Y-41914661D02*
X60395701Y-41914661D01*
X79847000Y-39200960D02*
X73352000Y-39200960D01*
X73352000Y-39200960D02*
X70638299Y-41914661D01*
X59901999Y-38880959D02*
X59102000Y-38080960D01*
X60427499Y-39406459D02*
X59901999Y-38880959D01*
X68996501Y-39406459D02*
X68326501Y-39406459D01*
X68326501Y-39406459D02*
X60427499Y-39406459D01*
X70686501Y-39406459D02*
X68326501Y-39406459D01*
X79847000Y-36660960D02*
X73432000Y-36660960D01*
X73432000Y-36660960D02*
X70686501Y-39406459D01*
X77966000Y-34120960D02*
X79847000Y-34120960D01*
X76866000Y-35220960D02*
X77966000Y-34120960D01*
X72312000Y-35220960D02*
X76866000Y-35220960D01*
X70698299Y-36834661D02*
X72312000Y-35220960D01*
X59102000Y-35540960D02*
X60395701Y-36834661D01*
X60395701Y-36834661D02*
X70698299Y-36834661D01*
D19*
G36*
X58795001Y-32793303D02*
G01*
X58795000Y-32793313D01*
X58795000Y-33555313D01*
X58791686Y-33588960D01*
X58804912Y-33723243D01*
X58844081Y-33852366D01*
X58907688Y-33971367D01*
X58993289Y-34075671D01*
X59030336Y-34106075D01*
X58820691Y-34126724D01*
X58550192Y-34208778D01*
X58300899Y-34342028D01*
X58082392Y-34521352D01*
X57903068Y-34739859D01*
X57769818Y-34989152D01*
X57687764Y-35259651D01*
X57660057Y-35540960D01*
X57687764Y-35822269D01*
X57769818Y-36092768D01*
X57903068Y-36342061D01*
X58082392Y-36560568D01*
X58300899Y-36739892D01*
X58433858Y-36810960D01*
X58300899Y-36882028D01*
X58082392Y-37061352D01*
X57903068Y-37279859D01*
X57769818Y-37529152D01*
X57687764Y-37799651D01*
X57660057Y-38080960D01*
X57687764Y-38362269D01*
X57769818Y-38632768D01*
X57903068Y-38882061D01*
X58082392Y-39100568D01*
X58300899Y-39279892D01*
X58433858Y-39350960D01*
X58300899Y-39422028D01*
X58082392Y-39601352D01*
X57903068Y-39819859D01*
X57769818Y-40069152D01*
X57687764Y-40339651D01*
X57660057Y-40620960D01*
X57687764Y-40902269D01*
X57769818Y-41172768D01*
X57903068Y-41422061D01*
X58082392Y-41640568D01*
X58300899Y-41819892D01*
X58433858Y-41890960D01*
X58300899Y-41962028D01*
X58082392Y-42141352D01*
X57903068Y-42359859D01*
X57769818Y-42609152D01*
X57687764Y-42879651D01*
X57660057Y-43160960D01*
X57687764Y-43442269D01*
X57769818Y-43712768D01*
X57903068Y-43962061D01*
X58082392Y-44180568D01*
X58195482Y-44273379D01*
X58177518Y-44275148D01*
X58057820Y-44311458D01*
X57947506Y-44370423D01*
X57850815Y-44449775D01*
X57771463Y-44546466D01*
X57712498Y-44656780D01*
X57676188Y-44776478D01*
X57663928Y-44900960D01*
X57667000Y-45415210D01*
X57825750Y-45573960D01*
X58975000Y-45573960D01*
X58975000Y-45553960D01*
X59229000Y-45553960D01*
X59229000Y-45573960D01*
X60378250Y-45573960D01*
X60537000Y-45415210D01*
X60537931Y-45259361D01*
X61466069Y-45259361D01*
X61467000Y-45415210D01*
X61625750Y-45573960D01*
X62775000Y-45573960D01*
X62775000Y-45553960D01*
X63029000Y-45553960D01*
X63029000Y-45573960D01*
X64178250Y-45573960D01*
X64337000Y-45415210D01*
X64337931Y-45259361D01*
X65208395Y-45259361D01*
X65153887Y-45439049D01*
X65125215Y-45730160D01*
X65153887Y-46021271D01*
X65238801Y-46301194D01*
X65376694Y-46559174D01*
X65562266Y-46785294D01*
X65788386Y-46970866D01*
X66046366Y-47108759D01*
X66326289Y-47193673D01*
X66544450Y-47215160D01*
X66690350Y-47215160D01*
X66908511Y-47193673D01*
X67188434Y-47108759D01*
X67446414Y-46970866D01*
X67672534Y-46785294D01*
X67858106Y-46559174D01*
X67995999Y-46301194D01*
X68080913Y-46021271D01*
X68109585Y-45730160D01*
X68080913Y-45439049D01*
X68026405Y-45259361D01*
X70388549Y-45259361D01*
X70429099Y-45263355D01*
X70469649Y-45259361D01*
X70469652Y-45259361D01*
X70590925Y-45247417D01*
X70746533Y-45200214D01*
X70889941Y-45123560D01*
X71015640Y-45020402D01*
X71041497Y-44988895D01*
X73463933Y-42566460D01*
X77213928Y-42566460D01*
X77213928Y-42740960D01*
X77226188Y-42865442D01*
X77262498Y-42985140D01*
X77276299Y-43010960D01*
X77262498Y-43036780D01*
X77226188Y-43156478D01*
X77213928Y-43280960D01*
X77217000Y-43870210D01*
X77375748Y-44028958D01*
X77217000Y-44028958D01*
X77217000Y-44112512D01*
X77127360Y-44064598D01*
X77007662Y-44028288D01*
X76883180Y-44016028D01*
X75183180Y-44016028D01*
X75058698Y-44028288D01*
X74939000Y-44064598D01*
X74828686Y-44123563D01*
X74731995Y-44202915D01*
X74652643Y-44299606D01*
X74593678Y-44409920D01*
X74557368Y-44529618D01*
X74545108Y-44654100D01*
X74545108Y-46289760D01*
X74137394Y-46289760D01*
X74066810Y-46289423D01*
X74034205Y-46292463D01*
X74001456Y-46292234D01*
X73991938Y-46293168D01*
X73395320Y-46355874D01*
X73334509Y-46368357D01*
X73273518Y-46379992D01*
X73264362Y-46382756D01*
X72691286Y-46560153D01*
X72634032Y-46584221D01*
X72576488Y-46607470D01*
X72568043Y-46611960D01*
X72040338Y-46897289D01*
X71988881Y-46931997D01*
X71936917Y-46966002D01*
X71929505Y-46972047D01*
X71467271Y-47354441D01*
X71423524Y-47398494D01*
X71379167Y-47441932D01*
X71373070Y-47449302D01*
X70993913Y-47914194D01*
X70959557Y-47965905D01*
X70924480Y-48017133D01*
X70919934Y-48025542D01*
X70919931Y-48025546D01*
X70919931Y-48025547D01*
X70638293Y-48555231D01*
X70614639Y-48612620D01*
X70590176Y-48669696D01*
X70587348Y-48678833D01*
X70413957Y-49253133D01*
X70401900Y-49314026D01*
X70388990Y-49374763D01*
X70387990Y-49384275D01*
X70329450Y-49981316D01*
X70329450Y-49981327D01*
X70326178Y-50014578D01*
X70326536Y-53808160D01*
X31847340Y-53808160D01*
X31847340Y-46796960D01*
X31844900Y-46772184D01*
X31837673Y-46748359D01*
X31825937Y-46726403D01*
X31810143Y-46707157D01*
X31790897Y-46691363D01*
X31768941Y-46679627D01*
X31745116Y-46672400D01*
X31720340Y-46669960D01*
X28211800Y-46669960D01*
X28211800Y-34376360D01*
X36321615Y-34376360D01*
X36350287Y-34667471D01*
X36435201Y-34947394D01*
X36573094Y-35205374D01*
X36758666Y-35431494D01*
X36984786Y-35617066D01*
X37039591Y-35646360D01*
X36984786Y-35675654D01*
X36758666Y-35861226D01*
X36573094Y-36087346D01*
X36435201Y-36345326D01*
X36350287Y-36625249D01*
X36321615Y-36916360D01*
X36350287Y-37207471D01*
X36435201Y-37487394D01*
X36573094Y-37745374D01*
X36758666Y-37971494D01*
X36984786Y-38157066D01*
X37039591Y-38186360D01*
X36984786Y-38215654D01*
X36758666Y-38401226D01*
X36573094Y-38627346D01*
X36435201Y-38885326D01*
X36350287Y-39165249D01*
X36321615Y-39456360D01*
X36350287Y-39747471D01*
X36435201Y-40027394D01*
X36573094Y-40285374D01*
X36758666Y-40511494D01*
X36984786Y-40697066D01*
X37039591Y-40726360D01*
X36984786Y-40755654D01*
X36758666Y-40941226D01*
X36573094Y-41167346D01*
X36435201Y-41425326D01*
X36350287Y-41705249D01*
X36321615Y-41996360D01*
X36350287Y-42287471D01*
X36435201Y-42567394D01*
X36573094Y-42825374D01*
X36758666Y-43051494D01*
X36984786Y-43237066D01*
X37242766Y-43374959D01*
X37522689Y-43459873D01*
X37740850Y-43481360D01*
X37886750Y-43481360D01*
X38104911Y-43459873D01*
X38384834Y-43374959D01*
X38642814Y-43237066D01*
X38868934Y-43051494D01*
X39054506Y-42825374D01*
X39083800Y-42770569D01*
X39113094Y-42825374D01*
X39298666Y-43051494D01*
X39524786Y-43237066D01*
X39579591Y-43266360D01*
X39524786Y-43295654D01*
X39298666Y-43481226D01*
X39113094Y-43707346D01*
X38975201Y-43965326D01*
X38890287Y-44245249D01*
X38861615Y-44536360D01*
X38890287Y-44827471D01*
X38975201Y-45107394D01*
X39113094Y-45365374D01*
X39298666Y-45591494D01*
X39524786Y-45777066D01*
X39579591Y-45806360D01*
X39524786Y-45835654D01*
X39298666Y-46021226D01*
X39113094Y-46247346D01*
X39083800Y-46302151D01*
X39054506Y-46247346D01*
X38868934Y-46021226D01*
X38642814Y-45835654D01*
X38384834Y-45697761D01*
X38104911Y-45612847D01*
X37886750Y-45591360D01*
X37740850Y-45591360D01*
X37522689Y-45612847D01*
X37242766Y-45697761D01*
X36984786Y-45835654D01*
X36758666Y-46021226D01*
X36573094Y-46247346D01*
X36435201Y-46505326D01*
X36350287Y-46785249D01*
X36321615Y-47076360D01*
X36350287Y-47367471D01*
X36435201Y-47647394D01*
X36573094Y-47905374D01*
X36758666Y-48131494D01*
X36984786Y-48317066D01*
X37242766Y-48454959D01*
X37522689Y-48539873D01*
X37740850Y-48561360D01*
X37886750Y-48561360D01*
X38104911Y-48539873D01*
X38384834Y-48454959D01*
X38642814Y-48317066D01*
X38868934Y-48131494D01*
X39054506Y-47905374D01*
X39083800Y-47850569D01*
X39113094Y-47905374D01*
X39298666Y-48131494D01*
X39524786Y-48317066D01*
X39782766Y-48454959D01*
X40062689Y-48539873D01*
X40280850Y-48561360D01*
X40426750Y-48561360D01*
X40644911Y-48539873D01*
X40924834Y-48454959D01*
X41182814Y-48317066D01*
X41408934Y-48131494D01*
X41594506Y-47905374D01*
X41732399Y-47647394D01*
X41817313Y-47367471D01*
X41845985Y-47076360D01*
X41817313Y-46785249D01*
X41732399Y-46505326D01*
X41730066Y-46500960D01*
X57663928Y-46500960D01*
X57676188Y-46625442D01*
X57712498Y-46745140D01*
X57771463Y-46855454D01*
X57850815Y-46952145D01*
X57947506Y-47031497D01*
X58057820Y-47090462D01*
X58177518Y-47126772D01*
X58302000Y-47139032D01*
X58816250Y-47135960D01*
X58975000Y-46977210D01*
X58975000Y-45827960D01*
X59229000Y-45827960D01*
X59229000Y-46977210D01*
X59387750Y-47135960D01*
X59902000Y-47139032D01*
X60026482Y-47126772D01*
X60146180Y-47090462D01*
X60256494Y-47031497D01*
X60353185Y-46952145D01*
X60432537Y-46855454D01*
X60491502Y-46745140D01*
X60527812Y-46625442D01*
X60540072Y-46500960D01*
X61463928Y-46500960D01*
X61476188Y-46625442D01*
X61512498Y-46745140D01*
X61571463Y-46855454D01*
X61650815Y-46952145D01*
X61747506Y-47031497D01*
X61857820Y-47090462D01*
X61977518Y-47126772D01*
X62102000Y-47139032D01*
X62616250Y-47135960D01*
X62775000Y-46977210D01*
X62775000Y-45827960D01*
X63029000Y-45827960D01*
X63029000Y-46977210D01*
X63187750Y-47135960D01*
X63702000Y-47139032D01*
X63826482Y-47126772D01*
X63946180Y-47090462D01*
X64056494Y-47031497D01*
X64153185Y-46952145D01*
X64232537Y-46855454D01*
X64291502Y-46745140D01*
X64327812Y-46625442D01*
X64340072Y-46500960D01*
X64337000Y-45986710D01*
X64178250Y-45827960D01*
X63029000Y-45827960D01*
X62775000Y-45827960D01*
X61625750Y-45827960D01*
X61467000Y-45986710D01*
X61463928Y-46500960D01*
X60540072Y-46500960D01*
X60537000Y-45986710D01*
X60378250Y-45827960D01*
X59229000Y-45827960D01*
X58975000Y-45827960D01*
X57825750Y-45827960D01*
X57667000Y-45986710D01*
X57663928Y-46500960D01*
X41730066Y-46500960D01*
X41594506Y-46247346D01*
X41408934Y-46021226D01*
X41182814Y-45835654D01*
X41128009Y-45806360D01*
X41182814Y-45777066D01*
X41408934Y-45591494D01*
X41594506Y-45365374D01*
X41732399Y-45107394D01*
X41817313Y-44827471D01*
X41845985Y-44536360D01*
X41817313Y-44245249D01*
X41732399Y-43965326D01*
X41594506Y-43707346D01*
X41408934Y-43481226D01*
X41182814Y-43295654D01*
X41128009Y-43266360D01*
X41182814Y-43237066D01*
X41408934Y-43051494D01*
X41594506Y-42825374D01*
X41732399Y-42567394D01*
X41817313Y-42287471D01*
X41845985Y-41996360D01*
X41817313Y-41705249D01*
X41732399Y-41425326D01*
X41594506Y-41167346D01*
X41408934Y-40941226D01*
X41182814Y-40755654D01*
X41128009Y-40726360D01*
X41182814Y-40697066D01*
X41408934Y-40511494D01*
X41594506Y-40285374D01*
X41732399Y-40027394D01*
X41817313Y-39747471D01*
X41845985Y-39456360D01*
X41817313Y-39165249D01*
X41732399Y-38885326D01*
X41594506Y-38627346D01*
X41408934Y-38401226D01*
X41182814Y-38215654D01*
X41128009Y-38186360D01*
X41182814Y-38157066D01*
X41408934Y-37971494D01*
X41594506Y-37745374D01*
X41732399Y-37487394D01*
X41817313Y-37207471D01*
X41845985Y-36916360D01*
X41817313Y-36625249D01*
X41732399Y-36345326D01*
X41594506Y-36087346D01*
X41408934Y-35861226D01*
X41379113Y-35836753D01*
X41447980Y-35815862D01*
X41558294Y-35756897D01*
X41654985Y-35677545D01*
X41734337Y-35580854D01*
X41793302Y-35470540D01*
X41829612Y-35350842D01*
X41841872Y-35226360D01*
X41841872Y-33526360D01*
X41829612Y-33401878D01*
X41793302Y-33282180D01*
X41734337Y-33171866D01*
X41654985Y-33075175D01*
X41558294Y-32995823D01*
X41447980Y-32936858D01*
X41328282Y-32900548D01*
X41203800Y-32888288D01*
X39503800Y-32888288D01*
X39379318Y-32900548D01*
X39259620Y-32936858D01*
X39149306Y-32995823D01*
X39052615Y-33075175D01*
X38973263Y-33171866D01*
X38914298Y-33282180D01*
X38893407Y-33351047D01*
X38868934Y-33321226D01*
X38642814Y-33135654D01*
X38384834Y-32997761D01*
X38104911Y-32912847D01*
X37886750Y-32891360D01*
X37740850Y-32891360D01*
X37522689Y-32912847D01*
X37242766Y-32997761D01*
X36984786Y-33135654D01*
X36758666Y-33321226D01*
X36573094Y-33547346D01*
X36435201Y-33805326D01*
X36350287Y-34085249D01*
X36321615Y-34376360D01*
X28211800Y-34376360D01*
X28211800Y-31987960D01*
X58795000Y-31987960D01*
X58795001Y-32793303D01*
X58795001Y-32793303D01*
G37*
X58795001Y-32793303D02*
X58795000Y-32793313D01*
X58795000Y-33555313D01*
X58791686Y-33588960D01*
X58804912Y-33723243D01*
X58844081Y-33852366D01*
X58907688Y-33971367D01*
X58993289Y-34075671D01*
X59030336Y-34106075D01*
X58820691Y-34126724D01*
X58550192Y-34208778D01*
X58300899Y-34342028D01*
X58082392Y-34521352D01*
X57903068Y-34739859D01*
X57769818Y-34989152D01*
X57687764Y-35259651D01*
X57660057Y-35540960D01*
X57687764Y-35822269D01*
X57769818Y-36092768D01*
X57903068Y-36342061D01*
X58082392Y-36560568D01*
X58300899Y-36739892D01*
X58433858Y-36810960D01*
X58300899Y-36882028D01*
X58082392Y-37061352D01*
X57903068Y-37279859D01*
X57769818Y-37529152D01*
X57687764Y-37799651D01*
X57660057Y-38080960D01*
X57687764Y-38362269D01*
X57769818Y-38632768D01*
X57903068Y-38882061D01*
X58082392Y-39100568D01*
X58300899Y-39279892D01*
X58433858Y-39350960D01*
X58300899Y-39422028D01*
X58082392Y-39601352D01*
X57903068Y-39819859D01*
X57769818Y-40069152D01*
X57687764Y-40339651D01*
X57660057Y-40620960D01*
X57687764Y-40902269D01*
X57769818Y-41172768D01*
X57903068Y-41422061D01*
X58082392Y-41640568D01*
X58300899Y-41819892D01*
X58433858Y-41890960D01*
X58300899Y-41962028D01*
X58082392Y-42141352D01*
X57903068Y-42359859D01*
X57769818Y-42609152D01*
X57687764Y-42879651D01*
X57660057Y-43160960D01*
X57687764Y-43442269D01*
X57769818Y-43712768D01*
X57903068Y-43962061D01*
X58082392Y-44180568D01*
X58195482Y-44273379D01*
X58177518Y-44275148D01*
X58057820Y-44311458D01*
X57947506Y-44370423D01*
X57850815Y-44449775D01*
X57771463Y-44546466D01*
X57712498Y-44656780D01*
X57676188Y-44776478D01*
X57663928Y-44900960D01*
X57667000Y-45415210D01*
X57825750Y-45573960D01*
X58975000Y-45573960D01*
X58975000Y-45553960D01*
X59229000Y-45553960D01*
X59229000Y-45573960D01*
X60378250Y-45573960D01*
X60537000Y-45415210D01*
X60537931Y-45259361D01*
X61466069Y-45259361D01*
X61467000Y-45415210D01*
X61625750Y-45573960D01*
X62775000Y-45573960D01*
X62775000Y-45553960D01*
X63029000Y-45553960D01*
X63029000Y-45573960D01*
X64178250Y-45573960D01*
X64337000Y-45415210D01*
X64337931Y-45259361D01*
X65208395Y-45259361D01*
X65153887Y-45439049D01*
X65125215Y-45730160D01*
X65153887Y-46021271D01*
X65238801Y-46301194D01*
X65376694Y-46559174D01*
X65562266Y-46785294D01*
X65788386Y-46970866D01*
X66046366Y-47108759D01*
X66326289Y-47193673D01*
X66544450Y-47215160D01*
X66690350Y-47215160D01*
X66908511Y-47193673D01*
X67188434Y-47108759D01*
X67446414Y-46970866D01*
X67672534Y-46785294D01*
X67858106Y-46559174D01*
X67995999Y-46301194D01*
X68080913Y-46021271D01*
X68109585Y-45730160D01*
X68080913Y-45439049D01*
X68026405Y-45259361D01*
X70388549Y-45259361D01*
X70429099Y-45263355D01*
X70469649Y-45259361D01*
X70469652Y-45259361D01*
X70590925Y-45247417D01*
X70746533Y-45200214D01*
X70889941Y-45123560D01*
X71015640Y-45020402D01*
X71041497Y-44988895D01*
X73463933Y-42566460D01*
X77213928Y-42566460D01*
X77213928Y-42740960D01*
X77226188Y-42865442D01*
X77262498Y-42985140D01*
X77276299Y-43010960D01*
X77262498Y-43036780D01*
X77226188Y-43156478D01*
X77213928Y-43280960D01*
X77217000Y-43870210D01*
X77375748Y-44028958D01*
X77217000Y-44028958D01*
X77217000Y-44112512D01*
X77127360Y-44064598D01*
X77007662Y-44028288D01*
X76883180Y-44016028D01*
X75183180Y-44016028D01*
X75058698Y-44028288D01*
X74939000Y-44064598D01*
X74828686Y-44123563D01*
X74731995Y-44202915D01*
X74652643Y-44299606D01*
X74593678Y-44409920D01*
X74557368Y-44529618D01*
X74545108Y-44654100D01*
X74545108Y-46289760D01*
X74137394Y-46289760D01*
X74066810Y-46289423D01*
X74034205Y-46292463D01*
X74001456Y-46292234D01*
X73991938Y-46293168D01*
X73395320Y-46355874D01*
X73334509Y-46368357D01*
X73273518Y-46379992D01*
X73264362Y-46382756D01*
X72691286Y-46560153D01*
X72634032Y-46584221D01*
X72576488Y-46607470D01*
X72568043Y-46611960D01*
X72040338Y-46897289D01*
X71988881Y-46931997D01*
X71936917Y-46966002D01*
X71929505Y-46972047D01*
X71467271Y-47354441D01*
X71423524Y-47398494D01*
X71379167Y-47441932D01*
X71373070Y-47449302D01*
X70993913Y-47914194D01*
X70959557Y-47965905D01*
X70924480Y-48017133D01*
X70919934Y-48025542D01*
X70919931Y-48025546D01*
X70919931Y-48025547D01*
X70638293Y-48555231D01*
X70614639Y-48612620D01*
X70590176Y-48669696D01*
X70587348Y-48678833D01*
X70413957Y-49253133D01*
X70401900Y-49314026D01*
X70388990Y-49374763D01*
X70387990Y-49384275D01*
X70329450Y-49981316D01*
X70329450Y-49981327D01*
X70326178Y-50014578D01*
X70326536Y-53808160D01*
X31847340Y-53808160D01*
X31847340Y-46796960D01*
X31844900Y-46772184D01*
X31837673Y-46748359D01*
X31825937Y-46726403D01*
X31810143Y-46707157D01*
X31790897Y-46691363D01*
X31768941Y-46679627D01*
X31745116Y-46672400D01*
X31720340Y-46669960D01*
X28211800Y-46669960D01*
X28211800Y-34376360D01*
X36321615Y-34376360D01*
X36350287Y-34667471D01*
X36435201Y-34947394D01*
X36573094Y-35205374D01*
X36758666Y-35431494D01*
X36984786Y-35617066D01*
X37039591Y-35646360D01*
X36984786Y-35675654D01*
X36758666Y-35861226D01*
X36573094Y-36087346D01*
X36435201Y-36345326D01*
X36350287Y-36625249D01*
X36321615Y-36916360D01*
X36350287Y-37207471D01*
X36435201Y-37487394D01*
X36573094Y-37745374D01*
X36758666Y-37971494D01*
X36984786Y-38157066D01*
X37039591Y-38186360D01*
X36984786Y-38215654D01*
X36758666Y-38401226D01*
X36573094Y-38627346D01*
X36435201Y-38885326D01*
X36350287Y-39165249D01*
X36321615Y-39456360D01*
X36350287Y-39747471D01*
X36435201Y-40027394D01*
X36573094Y-40285374D01*
X36758666Y-40511494D01*
X36984786Y-40697066D01*
X37039591Y-40726360D01*
X36984786Y-40755654D01*
X36758666Y-40941226D01*
X36573094Y-41167346D01*
X36435201Y-41425326D01*
X36350287Y-41705249D01*
X36321615Y-41996360D01*
X36350287Y-42287471D01*
X36435201Y-42567394D01*
X36573094Y-42825374D01*
X36758666Y-43051494D01*
X36984786Y-43237066D01*
X37242766Y-43374959D01*
X37522689Y-43459873D01*
X37740850Y-43481360D01*
X37886750Y-43481360D01*
X38104911Y-43459873D01*
X38384834Y-43374959D01*
X38642814Y-43237066D01*
X38868934Y-43051494D01*
X39054506Y-42825374D01*
X39083800Y-42770569D01*
X39113094Y-42825374D01*
X39298666Y-43051494D01*
X39524786Y-43237066D01*
X39579591Y-43266360D01*
X39524786Y-43295654D01*
X39298666Y-43481226D01*
X39113094Y-43707346D01*
X38975201Y-43965326D01*
X38890287Y-44245249D01*
X38861615Y-44536360D01*
X38890287Y-44827471D01*
X38975201Y-45107394D01*
X39113094Y-45365374D01*
X39298666Y-45591494D01*
X39524786Y-45777066D01*
X39579591Y-45806360D01*
X39524786Y-45835654D01*
X39298666Y-46021226D01*
X39113094Y-46247346D01*
X39083800Y-46302151D01*
X39054506Y-46247346D01*
X38868934Y-46021226D01*
X38642814Y-45835654D01*
X38384834Y-45697761D01*
X38104911Y-45612847D01*
X37886750Y-45591360D01*
X37740850Y-45591360D01*
X37522689Y-45612847D01*
X37242766Y-45697761D01*
X36984786Y-45835654D01*
X36758666Y-46021226D01*
X36573094Y-46247346D01*
X36435201Y-46505326D01*
X36350287Y-46785249D01*
X36321615Y-47076360D01*
X36350287Y-47367471D01*
X36435201Y-47647394D01*
X36573094Y-47905374D01*
X36758666Y-48131494D01*
X36984786Y-48317066D01*
X37242766Y-48454959D01*
X37522689Y-48539873D01*
X37740850Y-48561360D01*
X37886750Y-48561360D01*
X38104911Y-48539873D01*
X38384834Y-48454959D01*
X38642814Y-48317066D01*
X38868934Y-48131494D01*
X39054506Y-47905374D01*
X39083800Y-47850569D01*
X39113094Y-47905374D01*
X39298666Y-48131494D01*
X39524786Y-48317066D01*
X39782766Y-48454959D01*
X40062689Y-48539873D01*
X40280850Y-48561360D01*
X40426750Y-48561360D01*
X40644911Y-48539873D01*
X40924834Y-48454959D01*
X41182814Y-48317066D01*
X41408934Y-48131494D01*
X41594506Y-47905374D01*
X41732399Y-47647394D01*
X41817313Y-47367471D01*
X41845985Y-47076360D01*
X41817313Y-46785249D01*
X41732399Y-46505326D01*
X41730066Y-46500960D01*
X57663928Y-46500960D01*
X57676188Y-46625442D01*
X57712498Y-46745140D01*
X57771463Y-46855454D01*
X57850815Y-46952145D01*
X57947506Y-47031497D01*
X58057820Y-47090462D01*
X58177518Y-47126772D01*
X58302000Y-47139032D01*
X58816250Y-47135960D01*
X58975000Y-46977210D01*
X58975000Y-45827960D01*
X59229000Y-45827960D01*
X59229000Y-46977210D01*
X59387750Y-47135960D01*
X59902000Y-47139032D01*
X60026482Y-47126772D01*
X60146180Y-47090462D01*
X60256494Y-47031497D01*
X60353185Y-46952145D01*
X60432537Y-46855454D01*
X60491502Y-46745140D01*
X60527812Y-46625442D01*
X60540072Y-46500960D01*
X61463928Y-46500960D01*
X61476188Y-46625442D01*
X61512498Y-46745140D01*
X61571463Y-46855454D01*
X61650815Y-46952145D01*
X61747506Y-47031497D01*
X61857820Y-47090462D01*
X61977518Y-47126772D01*
X62102000Y-47139032D01*
X62616250Y-47135960D01*
X62775000Y-46977210D01*
X62775000Y-45827960D01*
X63029000Y-45827960D01*
X63029000Y-46977210D01*
X63187750Y-47135960D01*
X63702000Y-47139032D01*
X63826482Y-47126772D01*
X63946180Y-47090462D01*
X64056494Y-47031497D01*
X64153185Y-46952145D01*
X64232537Y-46855454D01*
X64291502Y-46745140D01*
X64327812Y-46625442D01*
X64340072Y-46500960D01*
X64337000Y-45986710D01*
X64178250Y-45827960D01*
X63029000Y-45827960D01*
X62775000Y-45827960D01*
X61625750Y-45827960D01*
X61467000Y-45986710D01*
X61463928Y-46500960D01*
X60540072Y-46500960D01*
X60537000Y-45986710D01*
X60378250Y-45827960D01*
X59229000Y-45827960D01*
X58975000Y-45827960D01*
X57825750Y-45827960D01*
X57667000Y-45986710D01*
X57663928Y-46500960D01*
X41730066Y-46500960D01*
X41594506Y-46247346D01*
X41408934Y-46021226D01*
X41182814Y-45835654D01*
X41128009Y-45806360D01*
X41182814Y-45777066D01*
X41408934Y-45591494D01*
X41594506Y-45365374D01*
X41732399Y-45107394D01*
X41817313Y-44827471D01*
X41845985Y-44536360D01*
X41817313Y-44245249D01*
X41732399Y-43965326D01*
X41594506Y-43707346D01*
X41408934Y-43481226D01*
X41182814Y-43295654D01*
X41128009Y-43266360D01*
X41182814Y-43237066D01*
X41408934Y-43051494D01*
X41594506Y-42825374D01*
X41732399Y-42567394D01*
X41817313Y-42287471D01*
X41845985Y-41996360D01*
X41817313Y-41705249D01*
X41732399Y-41425326D01*
X41594506Y-41167346D01*
X41408934Y-40941226D01*
X41182814Y-40755654D01*
X41128009Y-40726360D01*
X41182814Y-40697066D01*
X41408934Y-40511494D01*
X41594506Y-40285374D01*
X41732399Y-40027394D01*
X41817313Y-39747471D01*
X41845985Y-39456360D01*
X41817313Y-39165249D01*
X41732399Y-38885326D01*
X41594506Y-38627346D01*
X41408934Y-38401226D01*
X41182814Y-38215654D01*
X41128009Y-38186360D01*
X41182814Y-38157066D01*
X41408934Y-37971494D01*
X41594506Y-37745374D01*
X41732399Y-37487394D01*
X41817313Y-37207471D01*
X41845985Y-36916360D01*
X41817313Y-36625249D01*
X41732399Y-36345326D01*
X41594506Y-36087346D01*
X41408934Y-35861226D01*
X41379113Y-35836753D01*
X41447980Y-35815862D01*
X41558294Y-35756897D01*
X41654985Y-35677545D01*
X41734337Y-35580854D01*
X41793302Y-35470540D01*
X41829612Y-35350842D01*
X41841872Y-35226360D01*
X41841872Y-33526360D01*
X41829612Y-33401878D01*
X41793302Y-33282180D01*
X41734337Y-33171866D01*
X41654985Y-33075175D01*
X41558294Y-32995823D01*
X41447980Y-32936858D01*
X41328282Y-32900548D01*
X41203800Y-32888288D01*
X39503800Y-32888288D01*
X39379318Y-32900548D01*
X39259620Y-32936858D01*
X39149306Y-32995823D01*
X39052615Y-33075175D01*
X38973263Y-33171866D01*
X38914298Y-33282180D01*
X38893407Y-33351047D01*
X38868934Y-33321226D01*
X38642814Y-33135654D01*
X38384834Y-32997761D01*
X38104911Y-32912847D01*
X37886750Y-32891360D01*
X37740850Y-32891360D01*
X37522689Y-32912847D01*
X37242766Y-32997761D01*
X36984786Y-33135654D01*
X36758666Y-33321226D01*
X36573094Y-33547346D01*
X36435201Y-33805326D01*
X36350287Y-34085249D01*
X36321615Y-34376360D01*
X28211800Y-34376360D01*
X28211800Y-31987960D01*
X58795000Y-31987960D01*
X58795001Y-32793303D01*
G36*
X79729000Y-44028960D02*
G01*
X79749000Y-44028960D01*
X79749000Y-44282960D01*
X79729000Y-44282960D01*
X79729000Y-44302960D01*
X79475000Y-44302960D01*
X79475000Y-44282960D01*
X79455000Y-44282960D01*
X79455000Y-44028960D01*
X79475000Y-44028960D01*
X79475000Y-44008960D01*
X79729000Y-44008960D01*
X79729000Y-44028960D01*
X79729000Y-44028960D01*
G37*
X79729000Y-44028960D02*
X79749000Y-44028960D01*
X79749000Y-44282960D01*
X79729000Y-44282960D01*
X79729000Y-44302960D01*
X79475000Y-44302960D01*
X79475000Y-44282960D01*
X79455000Y-44282960D01*
X79455000Y-44028960D01*
X79475000Y-44028960D01*
X79475000Y-44008960D01*
X79729000Y-44008960D01*
X79729000Y-44028960D01*
M02*
