M48
;DRILL file {KiCad 4.0.7-e2-6376~58~ubuntu16.04.1} date Wed Jun 13 13:00:00 2018
;FORMAT={-:-/ absolute / metric / decimal}
FMAT,2
METRIC,TZ
T1C0.305
T2C0.381
T3C1.000
T4C1.100
T5C2.750
%
G90
G05
M71
T1
X22.396Y-34.351
X25.19Y-47.178
X27.095Y-41.082
X28.492Y-35.367
X29.Y-43.876
X32.048Y-40.955
X32.048Y-42.479
X32.81Y-42.987
X33.064Y-34.351
X33.064Y-37.653
X34.969Y-43.368
X35.35Y-32.573
X35.35Y-34.097
X35.858Y-33.335
X37.89Y-45.527
X38.906Y-48.067
X39.668Y-47.305
X40.811Y-46.543
X45.764Y-48.067
X49.574Y-35.367
X49.574Y-36.231
X49.574Y-37.145
X51.352Y-47.559
X60.75Y-35.367
X64.814Y-36.891
X67.354Y-33.843
X69.386Y-41.209
T2
X29.254Y-50.099
X38.202Y-37.851
X39.252Y-43.601
X44.052Y-35.201
X44.062Y-31.557
X48.329Y-31.557
X50.844Y-44.13
X61.004Y-51.369
X66.846Y-46.035
T3
X16.554Y-33.081
X16.554Y-35.621
X16.554Y-38.161
X16.554Y-40.701
X16.554Y-43.241
X16.554Y-45.781
X20.872Y-26.731
X20.872Y-29.271
X23.158Y-36.637
X23.412Y-26.731
X23.412Y-29.271
X25.952Y-26.731
X25.952Y-29.271
X25.952Y-31.811
X28.492Y-26.731
X28.492Y-29.271
X28.492Y-31.811
X31.032Y-26.731
X31.032Y-29.271
X31.032Y-31.811
X33.572Y-26.731
X33.572Y-29.271
X36.112Y-26.731
X36.112Y-29.271
X38.652Y-26.731
X38.652Y-29.271
X41.192Y-26.731
X41.192Y-29.271
X43.732Y-26.731
X43.732Y-29.271
X46.272Y-26.731
X46.272Y-29.271
X48.812Y-26.731
X48.812Y-29.271
X51.352Y-26.731
X51.352Y-29.271
X53.892Y-26.731
X53.892Y-29.271
X56.432Y-26.731
X56.432Y-29.271
X58.972Y-26.731
X58.972Y-29.271
X61.512Y-26.731
X61.512Y-29.271
X64.052Y-26.731
X64.052Y-29.271
X64.052Y-33.081
X64.052Y-35.621
X64.052Y-38.161
X64.052Y-40.701
X64.052Y-43.241
X64.052Y-45.781
X66.49Y-38.872
X66.49Y-41.412
X66.592Y-26.731
X66.592Y-29.271
X66.592Y-31.811
X69.132Y-26.731
X69.132Y-29.271
X69.132Y-31.811
T4
X26.056Y-48.647
X26.056Y-53.147
X32.556Y-48.647
X32.556Y-53.147
X41.804Y-48.647
X41.804Y-53.147
X48.304Y-48.647
X48.304Y-53.147
X57.552Y-48.647
X57.552Y-53.147
X64.052Y-48.647
X64.052Y-53.147
X71.617Y-36.891
X71.617Y-43.391
X76.117Y-36.891
X76.117Y-43.391
T5
X16.Y-28.
X16.Y-51.
X74.Y-28.
X74.Y-51.
T0
M30
