G04 #@! TF.FileFunction,Copper,L2,Bot,Signal*
%FSLAX46Y46*%
G04 Gerber Fmt 4.6, Leading zero omitted, Abs format (unit mm)*
G04 Created by KiCad (PCBNEW 4.0.7-e2-6376~58~ubuntu16.04.1) date Wed Jun 13 12:59:57 2018*
%MOMM*%
%LPD*%
G01*
G04 APERTURE LIST*
%ADD10C,0.100000*%
%ADD11C,2.000000*%
%ADD12R,1.700000X1.700000*%
%ADD13O,1.700000X1.700000*%
%ADD14C,0.762000*%
%ADD15C,0.660400*%
%ADD16C,0.381000*%
%ADD17C,1.016000*%
%ADD18C,0.762000*%
%ADD19C,0.203200*%
%ADD20C,0.254000*%
G04 APERTURE END LIST*
D10*
D11*
X71617000Y-36890960D03*
X76117000Y-36890960D03*
X71617000Y-43390960D03*
X76117000Y-43390960D03*
X32556000Y-48646960D03*
X32556000Y-53146960D03*
X26056000Y-48646960D03*
X26056000Y-53146960D03*
X48304000Y-48646960D03*
X48304000Y-53146960D03*
X41804000Y-48646960D03*
X41804000Y-53146960D03*
X64052000Y-48646960D03*
X64052000Y-53146960D03*
X57552000Y-48646960D03*
X57552000Y-53146960D03*
D12*
X64052000Y-33080960D03*
D13*
X64052000Y-35620960D03*
X64052000Y-38160960D03*
X64052000Y-40700960D03*
X64052000Y-43240960D03*
X64052000Y-45780960D03*
D12*
X16554000Y-45780960D03*
D13*
X16554000Y-43240960D03*
X16554000Y-40700960D03*
X16554000Y-38160960D03*
X16554000Y-35620960D03*
X16554000Y-33080960D03*
D12*
X20872000Y-29270960D03*
D13*
X20872000Y-26730960D03*
X23412000Y-29270960D03*
X23412000Y-26730960D03*
X25952000Y-29270960D03*
X25952000Y-26730960D03*
X28492000Y-29270960D03*
X28492000Y-26730960D03*
X31032000Y-29270960D03*
X31032000Y-26730960D03*
X33572000Y-29270960D03*
X33572000Y-26730960D03*
X36112000Y-29270960D03*
X36112000Y-26730960D03*
X38652000Y-29270960D03*
X38652000Y-26730960D03*
X41192000Y-29270960D03*
X41192000Y-26730960D03*
X43732000Y-29270960D03*
X43732000Y-26730960D03*
X46272000Y-29270960D03*
X46272000Y-26730960D03*
X48812000Y-29270960D03*
X48812000Y-26730960D03*
X51352000Y-29270960D03*
X51352000Y-26730960D03*
X53892000Y-29270960D03*
X53892000Y-26730960D03*
X56432000Y-29270960D03*
X56432000Y-26730960D03*
X58972000Y-29270960D03*
X58972000Y-26730960D03*
X61512000Y-29270960D03*
X61512000Y-26730960D03*
X64052000Y-29270960D03*
X64052000Y-26730960D03*
X66592000Y-29270960D03*
X66592000Y-26730960D03*
X69132000Y-29270960D03*
X69132000Y-26730960D03*
D12*
X66592000Y-31810960D03*
D13*
X69132000Y-31810960D03*
D12*
X25952000Y-31810960D03*
D13*
X28492000Y-31810960D03*
X31032000Y-31810960D03*
D12*
X23158000Y-36636960D03*
X66490400Y-41412160D03*
D13*
X66490400Y-38872160D03*
D14*
X29254000Y-50098960D03*
X48329400Y-31556960D03*
X44062200Y-31556960D03*
X61004000Y-51368960D03*
X66846000Y-46034960D03*
X50844000Y-44129960D03*
X44052000Y-35200960D03*
X38202000Y-37850960D03*
X39252000Y-43600960D03*
D15*
X28492000Y-35366960D03*
X22396000Y-34350960D03*
X34969000Y-43367960D03*
X33064000Y-37652960D03*
X33064000Y-34350960D03*
X35350000Y-32572960D03*
X64814000Y-36890960D03*
X51352000Y-47558960D03*
X38906000Y-48066960D03*
X67354000Y-33842960D03*
X49574000Y-35366960D03*
X35350000Y-34096960D03*
X49574000Y-37144960D03*
X49574000Y-36230560D03*
X60750000Y-35366960D03*
X32810000Y-42986960D03*
X32048000Y-42478960D03*
X32048000Y-40954960D03*
X35858000Y-33334960D03*
X37890000Y-45526960D03*
X27095000Y-41081960D03*
X39668000Y-47304960D03*
X25190000Y-47177960D03*
X29000000Y-43875960D03*
X40811000Y-46542960D03*
X45764000Y-48066960D03*
X69386000Y-41208960D03*
D16*
X66490400Y-41412160D02*
X67404800Y-41412160D01*
X67404800Y-41412160D02*
X68370000Y-40446960D01*
X68370000Y-36636960D02*
X68370000Y-40446960D01*
X67354000Y-35620960D02*
X68370000Y-36636960D01*
X64052000Y-35620960D02*
X67354000Y-35620960D01*
D17*
X29254000Y-50098960D02*
X29254000Y-53146960D01*
D16*
X61512000Y-26730960D02*
X62782000Y-28000960D01*
X67862000Y-28000960D02*
X69132000Y-29270960D01*
X62782000Y-28000960D02*
X67862000Y-28000960D01*
X56432000Y-26730960D02*
X57702000Y-28000960D01*
X60242000Y-28000960D02*
X61512000Y-26730960D01*
X57702000Y-28000960D02*
X60242000Y-28000960D01*
X51352000Y-29270960D02*
X52622000Y-28000960D01*
X55162000Y-28000960D02*
X56432000Y-26730960D01*
X52622000Y-28000960D02*
X55162000Y-28000960D01*
X51352000Y-29270960D02*
X50082000Y-28000960D01*
X45002000Y-28000960D02*
X43732000Y-26730960D01*
X50082000Y-28000960D02*
X45002000Y-28000960D01*
X31032000Y-29270960D02*
X29762000Y-28000960D01*
X27222000Y-28000960D02*
X25952000Y-26730960D01*
X29762000Y-28000960D02*
X27222000Y-28000960D01*
X31032000Y-29270960D02*
X31032000Y-29016960D01*
X36112000Y-26730960D02*
X34842000Y-28000960D01*
X32302000Y-28000960D02*
X31032000Y-29270960D01*
X34842000Y-28000960D02*
X32302000Y-28000960D01*
X36112000Y-26730960D02*
X37382000Y-28000960D01*
X37382000Y-28000960D02*
X42462000Y-28000960D01*
X42462000Y-28000960D02*
X43732000Y-26730960D01*
D17*
X41804000Y-53146960D02*
X32556000Y-53146960D01*
X57552000Y-53146960D02*
X48304000Y-53146960D01*
X26056000Y-53146960D02*
X29254000Y-53146960D01*
X29254000Y-53146960D02*
X32556000Y-53146960D01*
X41804000Y-53146960D02*
X48304000Y-53146960D01*
X57552000Y-53146960D02*
X64052000Y-53146960D01*
D16*
X66846000Y-49082960D02*
X66846000Y-46034960D01*
X64560000Y-51368960D02*
X66846000Y-49082960D01*
X61004000Y-51368960D02*
X64560000Y-51368960D01*
X50844000Y-44129960D02*
X49828000Y-43113960D01*
X49828000Y-43113960D02*
X46780000Y-43113960D01*
D18*
X62528000Y-31556960D02*
X64052000Y-33080960D01*
D16*
X40302000Y-38950960D02*
X39252000Y-38950960D01*
X44052000Y-35200960D02*
X40302000Y-38950960D01*
X38202000Y-37850960D02*
X39252000Y-38900960D01*
X39252000Y-38900960D02*
X39252000Y-38950960D01*
X39252000Y-38950960D02*
X39252000Y-43600960D01*
D18*
X20872000Y-31302960D02*
X20872000Y-29270960D01*
X23158000Y-33588960D02*
X20872000Y-31302960D01*
X31794000Y-33588960D02*
X23158000Y-33588960D01*
X33826000Y-31556960D02*
X31794000Y-33588960D01*
X40684000Y-31556960D02*
X33826000Y-31556960D01*
X41192000Y-31048960D02*
X40684000Y-31556960D01*
X41192000Y-29270960D02*
X41192000Y-31048960D01*
X41192000Y-31048960D02*
X41700000Y-31556960D01*
X41700000Y-31556960D02*
X44062200Y-31556960D01*
X44062200Y-31556960D02*
X48329400Y-31556960D01*
X48329400Y-31556960D02*
X62528000Y-31556960D01*
D19*
X28492000Y-35366960D02*
X27476000Y-34350960D01*
X27476000Y-34350960D02*
X22396000Y-34350960D01*
X33064000Y-34350960D02*
X33064000Y-33588960D01*
X34969000Y-43367960D02*
X33064000Y-41462960D01*
X33064000Y-41462960D02*
X33064000Y-37652960D01*
X33064000Y-33588960D02*
X34080000Y-32572960D01*
X34080000Y-32572960D02*
X35350000Y-32572960D01*
X64052000Y-29270960D02*
X65322000Y-30540960D01*
X65322000Y-30540960D02*
X65322000Y-34096960D01*
X65322000Y-34096960D02*
X65068000Y-34350960D01*
X65068000Y-34350960D02*
X63544000Y-34350960D01*
X63544000Y-34350960D02*
X62815370Y-35079590D01*
X62815370Y-35079590D02*
X62815370Y-36095590D01*
X62815370Y-36095590D02*
X63610740Y-36890960D01*
X63610740Y-36890960D02*
X64814000Y-36890960D01*
X57552000Y-48646960D02*
X57552000Y-48678960D01*
X57552000Y-48678960D02*
X58718000Y-49844960D01*
X62854000Y-49844960D02*
X64052000Y-48646960D01*
X58718000Y-49844960D02*
X62854000Y-49844960D01*
X42462000Y-47177960D02*
X44113000Y-48828960D01*
X44113000Y-48828960D02*
X46018000Y-48828960D01*
X46018000Y-48828960D02*
X47669000Y-47177960D01*
X38906000Y-48066960D02*
X40303000Y-48066960D01*
X51352000Y-47558960D02*
X50971000Y-47177960D01*
X50971000Y-47177960D02*
X47669000Y-47177960D01*
X42462000Y-47177960D02*
X41192000Y-47177960D01*
X41192000Y-47177960D02*
X40303000Y-48066960D01*
X26056000Y-48646960D02*
X32556000Y-48646960D01*
X32556000Y-48646960D02*
X34516000Y-48646960D01*
X34516000Y-48646960D02*
X34588000Y-48574960D01*
X35096000Y-48066960D02*
X34588000Y-48574960D01*
X38906000Y-48066960D02*
X35096000Y-48066960D01*
X34588000Y-48574960D02*
X34516000Y-48646960D01*
X33246000Y-48646960D02*
X32556000Y-48646960D01*
X41804000Y-48646960D02*
X41804000Y-48678960D01*
X41804000Y-48678960D02*
X42716000Y-49590960D01*
X47360000Y-49590960D02*
X48304000Y-48646960D01*
X42716000Y-49590960D02*
X47360000Y-49590960D01*
X67862000Y-33334960D02*
X67354000Y-33842960D01*
X67862000Y-30540960D02*
X67862000Y-33334960D01*
X66592000Y-29270960D02*
X67862000Y-30540960D01*
X62274000Y-35112960D02*
X62274000Y-36382960D01*
X61512000Y-34350960D02*
X62274000Y-35112960D01*
X59734000Y-34350960D02*
X61512000Y-34350960D01*
X58718000Y-35366960D02*
X59734000Y-34350960D01*
X49574000Y-35366960D02*
X58718000Y-35366960D01*
X64052000Y-38160960D02*
X62274000Y-36382960D01*
X38906000Y-45526960D02*
X61512000Y-45526960D01*
X62782000Y-41970960D02*
X64052000Y-40700960D01*
X62782000Y-44256960D02*
X62782000Y-41970960D01*
X61512000Y-45526960D02*
X62782000Y-44256960D01*
X36620000Y-34858960D02*
X36620000Y-43240960D01*
X35350000Y-34096960D02*
X35858000Y-34096960D01*
X35858000Y-34096960D02*
X36620000Y-34858960D01*
X38906000Y-45526960D02*
X36620000Y-43240960D01*
X63544000Y-39430960D02*
X61258000Y-37144960D01*
X61258000Y-37144960D02*
X49574000Y-37144960D01*
X64560000Y-39430960D02*
X63544000Y-39430960D01*
X65322000Y-40192960D02*
X64560000Y-39430960D01*
X65322000Y-41970960D02*
X65322000Y-40192960D01*
X65322000Y-41970960D02*
X64052000Y-43240960D01*
X49574000Y-36230560D02*
X58616400Y-36230560D01*
X59480000Y-35366960D02*
X60750000Y-35366960D01*
X58616400Y-36230560D02*
X59480000Y-35366960D01*
X71617000Y-36890960D02*
X71617000Y-43390960D01*
X66592000Y-31810960D02*
X66592000Y-34096960D01*
X69386000Y-36890960D02*
X71617000Y-36890960D01*
X66592000Y-34096960D02*
X69386000Y-36890960D01*
X66592000Y-32246960D02*
X66592000Y-31810960D01*
X76117000Y-36890960D02*
X76117000Y-43390960D01*
X69132000Y-31810960D02*
X69132000Y-34096960D01*
X69132000Y-34096960D02*
X70402000Y-35366960D01*
X74593000Y-35366960D02*
X76117000Y-36890960D01*
X70402000Y-35366960D02*
X74593000Y-35366960D01*
X32810000Y-42986960D02*
X32429000Y-43367960D01*
X31032000Y-43113960D02*
X28111000Y-43113960D01*
X31286000Y-43367960D02*
X31032000Y-43113960D01*
X32429000Y-43367960D02*
X31286000Y-43367960D01*
X27476000Y-43748960D02*
X28111000Y-43113960D01*
X27476000Y-43748960D02*
X18586000Y-43748960D01*
X16554000Y-45780960D02*
X18586000Y-43748960D01*
X27095000Y-43240960D02*
X27857000Y-42478960D01*
X27857000Y-42478960D02*
X32048000Y-42478960D01*
X27095000Y-43240960D02*
X16554000Y-43240960D01*
X17062000Y-40192960D02*
X16554000Y-40700960D01*
X32048000Y-40954960D02*
X31286000Y-40192960D01*
X31286000Y-40192960D02*
X17062000Y-40192960D01*
X31032000Y-38160960D02*
X16554000Y-38160960D01*
X34334000Y-34858960D02*
X31032000Y-38160960D01*
X34334000Y-34096960D02*
X34334000Y-34858960D01*
X35096000Y-33334960D02*
X34334000Y-34096960D01*
X35858000Y-33334960D02*
X35096000Y-33334960D01*
X33575012Y-42986924D02*
X33575012Y-43243972D01*
X33575012Y-43243972D02*
X35858000Y-45526960D01*
X37890000Y-45526960D02*
X35858000Y-45526960D01*
X33576000Y-42736960D02*
X33575012Y-42986924D01*
X32556000Y-41716960D02*
X33576000Y-42736960D01*
X27730000Y-41716960D02*
X27095000Y-41081960D01*
X32556000Y-41716960D02*
X27730000Y-41716960D01*
X25190000Y-47177960D02*
X39287000Y-47177960D01*
X39287000Y-47177960D02*
X39668000Y-47304960D01*
X29000000Y-43875960D02*
X31667000Y-46542960D01*
X31667000Y-46542960D02*
X40811000Y-46542960D01*
X45764000Y-48066960D02*
X47288000Y-46542960D01*
X47288000Y-46542960D02*
X62782000Y-46542960D01*
X65322000Y-46542960D02*
X65322000Y-43748960D01*
X64814000Y-47050960D02*
X65322000Y-46542960D01*
X63290000Y-47050960D02*
X64814000Y-47050960D01*
X62782000Y-46542960D02*
X63290000Y-47050960D01*
X67354000Y-43240960D02*
X65830000Y-43240960D01*
X67354000Y-43240960D02*
X69386000Y-41208960D01*
X65830000Y-43240960D02*
X65322000Y-43748960D01*
D20*
G36*
X46975000Y-43873960D02*
X38294710Y-43873960D01*
X37929000Y-43508250D01*
X37929000Y-34927960D01*
X46975000Y-34927960D01*
X46975000Y-43873960D01*
X46975000Y-43873960D01*
G37*
X46975000Y-43873960D02*
X38294710Y-43873960D01*
X37929000Y-43508250D01*
X37929000Y-34927960D01*
X46975000Y-34927960D01*
X46975000Y-43873960D01*
M02*
