M48
; DRILL file {KiCad 5.1.5+dfsg1-2build2} date Fri 20 May 2022 08:59:33 PM EDT
; FORMAT={-:-/ absolute / inch / decimal}
; #@! TF.CreationDate,2022-05-20T20:59:33-04:00
; #@! TF.GenerationSoftware,Kicad,Pcbnew,5.1.5+dfsg1-2build2
FMAT,2
INCH
T1C0.0120
T2C0.0150
T3C0.0315
T4C0.0354
T5C0.0394
T6C0.0433
T7C0.1083
%
G90
G05
T1
X1.0616Y-1.2645
X1.1107Y-1.3094
X1.1637Y-1.7334
X1.1907Y-1.2654
X1.2017Y-1.4374
X1.2017Y-1.5054
X1.2037Y-1.6034
X1.2284Y-1.8902
X1.2291Y-1.9411
X1.2437Y-1.6544
X1.2447Y-1.3694
X1.3977Y-1.2494
X1.6397Y-1.2554
X1.6524Y-1.8488
X1.6946Y-1.2761
X1.6967Y-1.9104
X1.7047Y-1.9584
X1.7095Y-1.0004
X1.7147Y-1.8454
X1.7367Y-1.2184
X1.7454Y-1.274
X1.7785Y-1.2347
X1.9038Y-1.8352
X1.9667Y-1.8854
X2.0895Y-1.3924
X2.0977Y-1.5524
X2.1207Y-1.4064
X2.1797Y-1.3424
X2.2335Y-1.7424
X2.2487Y-1.2884
X2.2605Y-1.3661
X2.2818Y-1.5355
X2.2845Y-1.2574
X2.3377Y-1.6444
X2.4227Y-1.5234
X2.4827Y-1.5844
X2.4957Y-1.7624
X2.8337Y-1.3134
X2.8547Y-1.8374
X2.8927Y-1.5074
X2.9642Y-1.3437
T2
X1.1135Y-1.7874
X1.1508Y-1.7874
X1.6831Y-1.7166
X1.6835Y-1.4904
X1.8721Y-1.3859
X1.9007Y-1.2134
X2.0405Y-1.2424
X2.064Y-1.8159
X2.1525Y-1.9959
X2.166Y-1.6749
X2.2264Y-1.7877
T3
X2.5487Y-1.3134
X2.5487Y-1.4134
X2.5487Y-1.5134
X2.5487Y-1.6134
X2.5487Y-1.7134
X2.5487Y-1.8134
X0.7345Y-1.3074
X0.7345Y-1.4074
X0.7345Y-1.5074
X0.7345Y-1.6074
X0.7345Y-1.7074
X0.7345Y-1.8074
X0.8495Y-1.3074
X0.8495Y-1.4074
X0.8495Y-1.5074
X0.8495Y-1.6074
X0.8495Y-1.7074
X0.8495Y-1.8074
T4
X2.7595Y-1.2524
X2.8595Y-1.2524
X2.8645Y-1.954
X2.8645Y-2.054
X0.9595Y-1.0524
X0.9595Y-1.1524
X1.0595Y-1.0524
X1.0595Y-1.1524
X1.1595Y-1.0524
X1.1595Y-1.1524
X1.2595Y-1.0524
X1.2595Y-1.1524
X1.3595Y-1.0524
X1.3595Y-1.1524
X1.4595Y-1.0524
X1.4595Y-1.1524
X1.5595Y-1.0524
X1.5595Y-1.1524
X1.6595Y-1.0524
X1.6595Y-1.1524
X1.7595Y-1.0524
X1.7595Y-1.1524
X1.8595Y-1.0524
X1.8595Y-1.1524
X1.9595Y-1.0524
X1.9595Y-1.1524
X2.0595Y-1.0524
X2.0595Y-1.1524
X2.1595Y-1.0524
X2.1595Y-1.1524
X2.2595Y-1.0524
X2.2595Y-1.1524
X2.3595Y-1.0524
X2.3595Y-1.1524
X2.4595Y-1.0524
X2.4595Y-1.1524
X2.5595Y-1.0524
X2.5595Y-1.1524
X2.6595Y-1.0524
X2.6595Y-1.1524
X2.7595Y-1.0524
X2.7595Y-1.1524
X2.8595Y-1.0524
X2.8595Y-1.1524
X0.9586Y-1.954
X0.9586Y-2.054
T5
X0.9595Y-1.3374
X0.9595Y-1.4374
X0.9595Y-1.5374
X0.9595Y-1.6374
X0.9595Y-1.7374
X0.9595Y-1.8374
X1.0595Y-1.3374
X1.0595Y-1.4374
X1.0595Y-1.5374
X1.0595Y-1.6374
X1.0595Y-1.7374
X1.0595Y-1.8374
X2.6597Y-1.3864
X2.6597Y-1.4864
X2.6597Y-1.5864
X2.6597Y-1.6864
X2.6597Y-1.7864
X2.7597Y-1.3864
X2.7597Y-1.4864
X2.7597Y-1.5864
X2.7597Y-1.6864
X2.7597Y-1.7864
T6
X2.4036Y-1.9152
X2.4036Y-2.0924
X2.6595Y-1.9152
X2.6595Y-2.0924
X2.9574Y-1.4524
X2.9574Y-1.7083
X3.1345Y-1.4524
X3.1345Y-1.7083
X1.7836Y-1.9152
X1.7836Y-2.0924
X2.0395Y-1.9152
X2.0395Y-2.0924
X1.1636Y-1.9152
X1.1636Y-2.0924
X1.4195Y-1.9152
X1.4195Y-2.0924
T7
X3.0512Y-2.0079
X0.7677Y-2.0079
X3.0512Y-1.1024
X0.7677Y-1.1024
T0
M30
