G04 #@! TF.GenerationSoftware,KiCad,Pcbnew,(5.1.4)-1*
G04 #@! TF.CreationDate,2020-09-08T19:59:54+01:00*
G04 #@! TF.ProjectId,rgb-to-hdmi,7267622d-746f-42d6-9864-6d692e6b6963,rev?*
G04 #@! TF.SameCoordinates,Original*
G04 #@! TF.FileFunction,Legend,Top*
G04 #@! TF.FilePolarity,Positive*
%FSLAX46Y46*%
G04 Gerber Fmt 4.6, Leading zero omitted, Abs format (unit mm)*
G04 Created by KiCad (PCBNEW (5.1.4)-1) date 2020-09-08 19:59:54*
%MOMM*%
%LPD*%
G04 APERTURE LIST*
%ADD10C,0.100000*%
%ADD11C,0.110000*%
%ADD12C,0.150000*%
%ADD13C,0.120000*%
%ADD14C,0.130000*%
G04 APERTURE END LIST*
D10*
X66006228Y-45963445D02*
X66491942Y-45963445D01*
X66549085Y-45992017D01*
X66577657Y-46020588D01*
X66606228Y-46077731D01*
X66606228Y-46163445D01*
X66577657Y-46220588D01*
X66377657Y-45963445D02*
X66406228Y-46020588D01*
X66406228Y-46134874D01*
X66377657Y-46192017D01*
X66349085Y-46220588D01*
X66291942Y-46249160D01*
X66120514Y-46249160D01*
X66063371Y-46220588D01*
X66034800Y-46192017D01*
X66006228Y-46134874D01*
X66006228Y-46020588D01*
X66034800Y-45963445D01*
X66406228Y-45677731D02*
X66006228Y-45677731D01*
X66120514Y-45677731D02*
X66063371Y-45649160D01*
X66034800Y-45620588D01*
X66006228Y-45563445D01*
X66006228Y-45506302D01*
X66006228Y-45306302D02*
X66406228Y-45306302D01*
X66063371Y-45306302D02*
X66034800Y-45277731D01*
X66006228Y-45220588D01*
X66006228Y-45134874D01*
X66034800Y-45077731D01*
X66091942Y-45049160D01*
X66406228Y-45049160D01*
X66406228Y-44449160D02*
X66406228Y-44792017D01*
X66406228Y-44620588D02*
X65806228Y-44620588D01*
X65891942Y-44677731D01*
X65949085Y-44734874D01*
X65977657Y-44792017D01*
D11*
X22535733Y-48777360D02*
X23069066Y-48777360D01*
X22802400Y-49044026D02*
X22802400Y-48510693D01*
X74021533Y-48777360D02*
X74554866Y-48777360D01*
X74288200Y-49044026D02*
X74288200Y-48510693D01*
D12*
X25642000Y-45374560D02*
X25190000Y-44917360D01*
D10*
X69274971Y-34038188D02*
X69274971Y-33638188D01*
X69274971Y-33695331D02*
X69303542Y-33666760D01*
X69360685Y-33638188D01*
X69446400Y-33638188D01*
X69503542Y-33666760D01*
X69532114Y-33723902D01*
X69532114Y-34038188D01*
X69532114Y-33723902D02*
X69560685Y-33666760D01*
X69617828Y-33638188D01*
X69703542Y-33638188D01*
X69760685Y-33666760D01*
X69789257Y-33723902D01*
X69789257Y-34038188D01*
X70332114Y-33638188D02*
X70332114Y-34038188D01*
X70074971Y-33638188D02*
X70074971Y-33952474D01*
X70103542Y-34009617D01*
X70160685Y-34038188D01*
X70246400Y-34038188D01*
X70303542Y-34009617D01*
X70332114Y-33981045D01*
X70560685Y-34038188D02*
X70874971Y-33638188D01*
X70560685Y-33638188D02*
X70874971Y-34038188D01*
X66963542Y-34012788D02*
X66963542Y-33612788D01*
X66963542Y-33669931D02*
X66992114Y-33641360D01*
X67049257Y-33612788D01*
X67134971Y-33612788D01*
X67192114Y-33641360D01*
X67220685Y-33698502D01*
X67220685Y-34012788D01*
X67220685Y-33698502D02*
X67249257Y-33641360D01*
X67306400Y-33612788D01*
X67392114Y-33612788D01*
X67449257Y-33641360D01*
X67477828Y-33698502D01*
X67477828Y-34012788D01*
X67706400Y-33412788D02*
X68106400Y-33412788D01*
X67849257Y-34012788D01*
X66406228Y-38597417D02*
X65806228Y-38597417D01*
X66034800Y-38597417D02*
X66006228Y-38540274D01*
X66006228Y-38425988D01*
X66034800Y-38368845D01*
X66063371Y-38340274D01*
X66120514Y-38311702D01*
X66291942Y-38311702D01*
X66349085Y-38340274D01*
X66377657Y-38368845D01*
X66406228Y-38425988D01*
X66406228Y-38540274D01*
X66377657Y-38597417D01*
X66406228Y-37968845D02*
X66377657Y-38025988D01*
X66320514Y-38054560D01*
X65806228Y-38054560D01*
X66006228Y-37483131D02*
X66406228Y-37483131D01*
X66006228Y-37740274D02*
X66320514Y-37740274D01*
X66377657Y-37711702D01*
X66406228Y-37654560D01*
X66406228Y-37568845D01*
X66377657Y-37511702D01*
X66349085Y-37483131D01*
X65806228Y-37083131D02*
X65806228Y-37025988D01*
X65834800Y-36968845D01*
X65863371Y-36940274D01*
X65920514Y-36911702D01*
X66034800Y-36883131D01*
X66177657Y-36883131D01*
X66291942Y-36911702D01*
X66349085Y-36940274D01*
X66377657Y-36968845D01*
X66406228Y-37025988D01*
X66406228Y-37083131D01*
X66377657Y-37140274D01*
X66349085Y-37168845D01*
X66291942Y-37197417D01*
X66177657Y-37225988D01*
X66034800Y-37225988D01*
X65920514Y-37197417D01*
X65863371Y-37168845D01*
X65834800Y-37140274D01*
X65806228Y-37083131D01*
X66006228Y-40832645D02*
X66491942Y-40832645D01*
X66549085Y-40861217D01*
X66577657Y-40889788D01*
X66606228Y-40946931D01*
X66606228Y-41032645D01*
X66577657Y-41089788D01*
X66377657Y-40832645D02*
X66406228Y-40889788D01*
X66406228Y-41004074D01*
X66377657Y-41061217D01*
X66349085Y-41089788D01*
X66291942Y-41118360D01*
X66120514Y-41118360D01*
X66063371Y-41089788D01*
X66034800Y-41061217D01*
X66006228Y-41004074D01*
X66006228Y-40889788D01*
X66034800Y-40832645D01*
X66406228Y-40546931D02*
X66006228Y-40546931D01*
X66120514Y-40546931D02*
X66063371Y-40518360D01*
X66034800Y-40489788D01*
X66006228Y-40432645D01*
X66006228Y-40375502D01*
X66006228Y-40175502D02*
X66406228Y-40175502D01*
X66063371Y-40175502D02*
X66034800Y-40146931D01*
X66006228Y-40089788D01*
X66006228Y-40004074D01*
X66034800Y-39946931D01*
X66091942Y-39918360D01*
X66406228Y-39918360D01*
X65806228Y-39518360D02*
X65806228Y-39461217D01*
X65834800Y-39404074D01*
X65863371Y-39375502D01*
X65920514Y-39346931D01*
X66034800Y-39318360D01*
X66177657Y-39318360D01*
X66291942Y-39346931D01*
X66349085Y-39375502D01*
X66377657Y-39404074D01*
X66406228Y-39461217D01*
X66406228Y-39518360D01*
X66377657Y-39575502D01*
X66349085Y-39604074D01*
X66291942Y-39632645D01*
X66177657Y-39661217D01*
X66034800Y-39661217D01*
X65920514Y-39632645D01*
X65863371Y-39604074D01*
X65834800Y-39575502D01*
X65806228Y-39518360D01*
X66406228Y-43691702D02*
X66006228Y-43691702D01*
X66120514Y-43691702D02*
X66063371Y-43663131D01*
X66034800Y-43634560D01*
X66006228Y-43577417D01*
X66006228Y-43520274D01*
X66377657Y-43091702D02*
X66406228Y-43148845D01*
X66406228Y-43263131D01*
X66377657Y-43320274D01*
X66320514Y-43348845D01*
X66091942Y-43348845D01*
X66034800Y-43320274D01*
X66006228Y-43263131D01*
X66006228Y-43148845D01*
X66034800Y-43091702D01*
X66091942Y-43063131D01*
X66149085Y-43063131D01*
X66206228Y-43348845D01*
X66406228Y-42548845D02*
X65806228Y-42548845D01*
X66377657Y-42548845D02*
X66406228Y-42605988D01*
X66406228Y-42720274D01*
X66377657Y-42777417D01*
X66349085Y-42805988D01*
X66291942Y-42834560D01*
X66120514Y-42834560D01*
X66063371Y-42805988D01*
X66034800Y-42777417D01*
X66006228Y-42720274D01*
X66006228Y-42605988D01*
X66034800Y-42548845D01*
X65806228Y-42148845D02*
X65806228Y-42091702D01*
X65834800Y-42034560D01*
X65863371Y-42005988D01*
X65920514Y-41977417D01*
X66034800Y-41948845D01*
X66177657Y-41948845D01*
X66291942Y-41977417D01*
X66349085Y-42005988D01*
X66377657Y-42034560D01*
X66406228Y-42091702D01*
X66406228Y-42148845D01*
X66377657Y-42205988D01*
X66349085Y-42234560D01*
X66291942Y-42263131D01*
X66177657Y-42291702D01*
X66034800Y-42291702D01*
X65920514Y-42263131D01*
X65863371Y-42234560D01*
X65834800Y-42205988D01*
X65806228Y-42148845D01*
D12*
X75976184Y-34460440D02*
X75642851Y-33984250D01*
X75404756Y-34460440D02*
X75404756Y-33460440D01*
X75785708Y-33460440D01*
X75880946Y-33508060D01*
X75928565Y-33555679D01*
X75976184Y-33650917D01*
X75976184Y-33793774D01*
X75928565Y-33889012D01*
X75880946Y-33936631D01*
X75785708Y-33984250D01*
X75404756Y-33984250D01*
X76785708Y-34412821D02*
X76690470Y-34460440D01*
X76499994Y-34460440D01*
X76404756Y-34412821D01*
X76357137Y-34317583D01*
X76357137Y-33936631D01*
X76404756Y-33841393D01*
X76499994Y-33793774D01*
X76690470Y-33793774D01*
X76785708Y-33841393D01*
X76833327Y-33936631D01*
X76833327Y-34031869D01*
X76357137Y-34127107D01*
X77214280Y-34412821D02*
X77309518Y-34460440D01*
X77499994Y-34460440D01*
X77595232Y-34412821D01*
X77642851Y-34317583D01*
X77642851Y-34269964D01*
X77595232Y-34174726D01*
X77499994Y-34127107D01*
X77357137Y-34127107D01*
X77261899Y-34079488D01*
X77214280Y-33984250D01*
X77214280Y-33936631D01*
X77261899Y-33841393D01*
X77357137Y-33793774D01*
X77499994Y-33793774D01*
X77595232Y-33841393D01*
X78452375Y-34412821D02*
X78357137Y-34460440D01*
X78166660Y-34460440D01*
X78071422Y-34412821D01*
X78023803Y-34317583D01*
X78023803Y-33936631D01*
X78071422Y-33841393D01*
X78166660Y-33793774D01*
X78357137Y-33793774D01*
X78452375Y-33841393D01*
X78499994Y-33936631D01*
X78499994Y-34031869D01*
X78023803Y-34127107D01*
X78785708Y-33793774D02*
X79166660Y-33793774D01*
X78928565Y-33460440D02*
X78928565Y-34317583D01*
X78976184Y-34412821D01*
X79071422Y-34460440D01*
X79166660Y-34460440D01*
D11*
X21294400Y-48028026D02*
X21294400Y-47561360D01*
X21294400Y-47694693D02*
X21327733Y-47628026D01*
X21361066Y-47594693D01*
X21427733Y-47561360D01*
X21494400Y-47561360D01*
X21994400Y-47994693D02*
X21927733Y-48028026D01*
X21794400Y-48028026D01*
X21727733Y-47994693D01*
X21694400Y-47928026D01*
X21694400Y-47661360D01*
X21727733Y-47594693D01*
X21794400Y-47561360D01*
X21927733Y-47561360D01*
X21994400Y-47594693D01*
X22027733Y-47661360D01*
X22027733Y-47728026D01*
X21694400Y-47794693D01*
X22627733Y-48028026D02*
X22627733Y-47328026D01*
X22627733Y-47994693D02*
X22561066Y-48028026D01*
X22427733Y-48028026D01*
X22361066Y-47994693D01*
X22327733Y-47961360D01*
X22294400Y-47894693D01*
X22294400Y-47694693D01*
X22327733Y-47628026D01*
X22361066Y-47594693D01*
X22427733Y-47561360D01*
X22561066Y-47561360D01*
X22627733Y-47594693D01*
X23327733Y-48028026D02*
X22927733Y-48028026D01*
X23127733Y-48028026D02*
X23127733Y-47328026D01*
X23061066Y-47428026D01*
X22994400Y-47494693D01*
X22927733Y-47528026D01*
X28524666Y-47012026D02*
X28524666Y-46312026D01*
X28524666Y-46578693D02*
X28591333Y-46545360D01*
X28724666Y-46545360D01*
X28791333Y-46578693D01*
X28824666Y-46612026D01*
X28858000Y-46678693D01*
X28858000Y-46878693D01*
X28824666Y-46945360D01*
X28791333Y-46978693D01*
X28724666Y-47012026D01*
X28591333Y-47012026D01*
X28524666Y-46978693D01*
X29258000Y-47012026D02*
X29191333Y-46978693D01*
X29158000Y-46912026D01*
X29158000Y-46312026D01*
X29824666Y-46545360D02*
X29824666Y-47012026D01*
X29524666Y-46545360D02*
X29524666Y-46912026D01*
X29558000Y-46978693D01*
X29624666Y-47012026D01*
X29724666Y-47012026D01*
X29791333Y-46978693D01*
X29824666Y-46945360D01*
X30524666Y-47012026D02*
X30124666Y-47012026D01*
X30324666Y-47012026D02*
X30324666Y-46312026D01*
X30258000Y-46412026D01*
X30191333Y-46478693D01*
X30124666Y-46512026D01*
D12*
X25642000Y-35239960D02*
X25184800Y-34782760D01*
X26150000Y-35239960D02*
X25642000Y-35239960D01*
X26150000Y-45374560D02*
X25642000Y-45374560D01*
X25621800Y-42834560D02*
X25164600Y-42377360D01*
X26150000Y-42834560D02*
X25642000Y-42834560D01*
X25621800Y-40294560D02*
X25164600Y-39837360D01*
X26175400Y-40294560D02*
X25642000Y-40294560D01*
X25621800Y-37779960D02*
X25164600Y-37322760D01*
X26150000Y-37779960D02*
X25642000Y-37779960D01*
D13*
X71305091Y-45863464D02*
X71305091Y-45063464D01*
X71609853Y-45063464D01*
X71686043Y-45101560D01*
X71724139Y-45139655D01*
X71762234Y-45215845D01*
X71762234Y-45330131D01*
X71724139Y-45406321D01*
X71686043Y-45444417D01*
X71609853Y-45482512D01*
X71305091Y-45482512D01*
X72524139Y-45863464D02*
X72066996Y-45863464D01*
X72295567Y-45863464D02*
X72295567Y-45063464D01*
X72219377Y-45177750D01*
X72143186Y-45253940D01*
X72066996Y-45292036D01*
X72905091Y-45863464D02*
X73057472Y-45863464D01*
X73133662Y-45825369D01*
X73171758Y-45787274D01*
X73247948Y-45672988D01*
X73286043Y-45520607D01*
X73286043Y-45215845D01*
X73247948Y-45139655D01*
X73209853Y-45101560D01*
X73133662Y-45063464D01*
X72981281Y-45063464D01*
X72905091Y-45101560D01*
X72866996Y-45139655D01*
X72828900Y-45215845D01*
X72828900Y-45406321D01*
X72866996Y-45482512D01*
X72905091Y-45520607D01*
X72981281Y-45558702D01*
X73133662Y-45558702D01*
X73209853Y-45520607D01*
X73247948Y-45482512D01*
X73286043Y-45406321D01*
X71322866Y-43209169D02*
X71437152Y-43247264D01*
X71627628Y-43247264D01*
X71703819Y-43209169D01*
X71741914Y-43171074D01*
X71780009Y-43094883D01*
X71780009Y-43018693D01*
X71741914Y-42942502D01*
X71703819Y-42904407D01*
X71627628Y-42866312D01*
X71475247Y-42828217D01*
X71399057Y-42790121D01*
X71360961Y-42752026D01*
X71322866Y-42675836D01*
X71322866Y-42599645D01*
X71360961Y-42523455D01*
X71399057Y-42485360D01*
X71475247Y-42447264D01*
X71665723Y-42447264D01*
X71780009Y-42485360D01*
X72008580Y-42447264D02*
X72465723Y-42447264D01*
X72237152Y-43247264D02*
X72237152Y-42447264D01*
X72999057Y-42828217D02*
X73113342Y-42866312D01*
X73151438Y-42904407D01*
X73189533Y-42980598D01*
X73189533Y-43094883D01*
X73151438Y-43171074D01*
X73113342Y-43209169D01*
X73037152Y-43247264D01*
X72732390Y-43247264D01*
X72732390Y-42447264D01*
X72999057Y-42447264D01*
X73075247Y-42485360D01*
X73113342Y-42523455D01*
X73151438Y-42599645D01*
X73151438Y-42675836D01*
X73113342Y-42752026D01*
X73075247Y-42790121D01*
X72999057Y-42828217D01*
X72732390Y-42828217D01*
X71312697Y-38586364D02*
X71312697Y-37786364D01*
X71503173Y-37786364D01*
X71617459Y-37824460D01*
X71693649Y-37900650D01*
X71731744Y-37976840D01*
X71769840Y-38129221D01*
X71769840Y-38243507D01*
X71731744Y-38395888D01*
X71693649Y-38472079D01*
X71617459Y-38548269D01*
X71503173Y-38586364D01*
X71312697Y-38586364D01*
X72074601Y-38357793D02*
X72455554Y-38357793D01*
X71998411Y-38586364D02*
X72265078Y-37786364D01*
X72531744Y-38586364D01*
X72684125Y-37786364D02*
X73141268Y-37786364D01*
X72912697Y-38586364D02*
X72912697Y-37786364D01*
X71805409Y-40681874D02*
X71767314Y-40719969D01*
X71653028Y-40758064D01*
X71576838Y-40758064D01*
X71462552Y-40719969D01*
X71386361Y-40643779D01*
X71348266Y-40567588D01*
X71310171Y-40415207D01*
X71310171Y-40300921D01*
X71348266Y-40148540D01*
X71386361Y-40072350D01*
X71462552Y-39996160D01*
X71576838Y-39958064D01*
X71653028Y-39958064D01*
X71767314Y-39996160D01*
X71805409Y-40034255D01*
X72529219Y-40758064D02*
X72148266Y-40758064D01*
X72148266Y-39958064D01*
X72795885Y-40758064D02*
X72795885Y-39958064D01*
X73253028Y-40758064D02*
X72910171Y-40300921D01*
X73253028Y-39958064D02*
X72795885Y-40415207D01*
D12*
X30193800Y-45374560D02*
X26129800Y-45374560D01*
D11*
X30851066Y-45067426D02*
X30917733Y-45067426D01*
X30984400Y-45100760D01*
X31017733Y-45134093D01*
X31051066Y-45200760D01*
X31084400Y-45334093D01*
X31084400Y-45500760D01*
X31051066Y-45634093D01*
X31017733Y-45700760D01*
X30984400Y-45734093D01*
X30917733Y-45767426D01*
X30851066Y-45767426D01*
X30784400Y-45734093D01*
X30751066Y-45700760D01*
X30717733Y-45634093D01*
X30684400Y-45500760D01*
X30684400Y-45334093D01*
X30717733Y-45200760D01*
X30751066Y-45134093D01*
X30784400Y-45100760D01*
X30851066Y-45067426D01*
X31284400Y-45067426D02*
X31517733Y-45767426D01*
X31751066Y-45067426D01*
D12*
X30193800Y-35239960D02*
X26129800Y-35239960D01*
X30193800Y-37779960D02*
X26129800Y-37779960D01*
X30193800Y-40294560D02*
X26129800Y-40294560D01*
X30193800Y-42834560D02*
X26129800Y-42834560D01*
D11*
X30641600Y-43049626D02*
X30641600Y-42582960D01*
X30641600Y-42716293D02*
X30674933Y-42649626D01*
X30708266Y-42616293D01*
X30774933Y-42582960D01*
X30841600Y-42582960D01*
X31341600Y-43016293D02*
X31274933Y-43049626D01*
X31141600Y-43049626D01*
X31074933Y-43016293D01*
X31041600Y-42949626D01*
X31041600Y-42682960D01*
X31074933Y-42616293D01*
X31141600Y-42582960D01*
X31274933Y-42582960D01*
X31341600Y-42616293D01*
X31374933Y-42682960D01*
X31374933Y-42749626D01*
X31041600Y-42816293D01*
X31974933Y-43049626D02*
X31974933Y-42349626D01*
X31974933Y-43016293D02*
X31908266Y-43049626D01*
X31774933Y-43049626D01*
X31708266Y-43016293D01*
X31674933Y-42982960D01*
X31641600Y-42916293D01*
X31641600Y-42716293D01*
X31674933Y-42649626D01*
X31708266Y-42616293D01*
X31774933Y-42582960D01*
X31908266Y-42582960D01*
X31974933Y-42616293D01*
X32274933Y-42416293D02*
X32308266Y-42382960D01*
X32374933Y-42349626D01*
X32541600Y-42349626D01*
X32608266Y-42382960D01*
X32641600Y-42416293D01*
X32674933Y-42482960D01*
X32674933Y-42549626D01*
X32641600Y-42649626D01*
X32241600Y-43049626D01*
X32674933Y-43049626D01*
X30641600Y-40560426D02*
X30641600Y-40093760D01*
X30641600Y-40227093D02*
X30674933Y-40160426D01*
X30708266Y-40127093D01*
X30774933Y-40093760D01*
X30841600Y-40093760D01*
X31341600Y-40527093D02*
X31274933Y-40560426D01*
X31141600Y-40560426D01*
X31074933Y-40527093D01*
X31041600Y-40460426D01*
X31041600Y-40193760D01*
X31074933Y-40127093D01*
X31141600Y-40093760D01*
X31274933Y-40093760D01*
X31341600Y-40127093D01*
X31374933Y-40193760D01*
X31374933Y-40260426D01*
X31041600Y-40327093D01*
X31974933Y-40560426D02*
X31974933Y-39860426D01*
X31974933Y-40527093D02*
X31908266Y-40560426D01*
X31774933Y-40560426D01*
X31708266Y-40527093D01*
X31674933Y-40493760D01*
X31641600Y-40427093D01*
X31641600Y-40227093D01*
X31674933Y-40160426D01*
X31708266Y-40127093D01*
X31774933Y-40093760D01*
X31908266Y-40093760D01*
X31974933Y-40127093D01*
X32241600Y-39860426D02*
X32674933Y-39860426D01*
X32441600Y-40127093D01*
X32541600Y-40127093D01*
X32608266Y-40160426D01*
X32641600Y-40193760D01*
X32674933Y-40260426D01*
X32674933Y-40427093D01*
X32641600Y-40493760D01*
X32608266Y-40527093D01*
X32541600Y-40560426D01*
X32341600Y-40560426D01*
X32274933Y-40527093D01*
X32241600Y-40493760D01*
X30924933Y-37655360D02*
X30924933Y-38222026D01*
X30891600Y-38288693D01*
X30858266Y-38322026D01*
X30791600Y-38355360D01*
X30691600Y-38355360D01*
X30624933Y-38322026D01*
X30924933Y-38088693D02*
X30858266Y-38122026D01*
X30724933Y-38122026D01*
X30658266Y-38088693D01*
X30624933Y-38055360D01*
X30591600Y-37988693D01*
X30591600Y-37788693D01*
X30624933Y-37722026D01*
X30658266Y-37688693D01*
X30724933Y-37655360D01*
X30858266Y-37655360D01*
X30924933Y-37688693D01*
X31258266Y-38122026D02*
X31258266Y-37655360D01*
X31258266Y-37788693D02*
X31291600Y-37722026D01*
X31324933Y-37688693D01*
X31391600Y-37655360D01*
X31458266Y-37655360D01*
X31691600Y-37655360D02*
X31691600Y-38122026D01*
X31691600Y-37722026D02*
X31724933Y-37688693D01*
X31791600Y-37655360D01*
X31891600Y-37655360D01*
X31958266Y-37688693D01*
X31991600Y-37755360D01*
X31991600Y-38122026D01*
X32258266Y-37422026D02*
X32691600Y-37422026D01*
X32458266Y-37688693D01*
X32558266Y-37688693D01*
X32624933Y-37722026D01*
X32658266Y-37755360D01*
X32691600Y-37822026D01*
X32691600Y-37988693D01*
X32658266Y-38055360D01*
X32624933Y-38088693D01*
X32558266Y-38122026D01*
X32358266Y-38122026D01*
X32291600Y-38088693D01*
X32258266Y-38055360D01*
X30632866Y-35607426D02*
X30632866Y-34907426D01*
X30632866Y-35174093D02*
X30699533Y-35140760D01*
X30832866Y-35140760D01*
X30899533Y-35174093D01*
X30932866Y-35207426D01*
X30966200Y-35274093D01*
X30966200Y-35474093D01*
X30932866Y-35540760D01*
X30899533Y-35574093D01*
X30832866Y-35607426D01*
X30699533Y-35607426D01*
X30632866Y-35574093D01*
X31366200Y-35607426D02*
X31299533Y-35574093D01*
X31266200Y-35507426D01*
X31266200Y-34907426D01*
X31932866Y-35140760D02*
X31932866Y-35607426D01*
X31632866Y-35140760D02*
X31632866Y-35507426D01*
X31666200Y-35574093D01*
X31732866Y-35607426D01*
X31832866Y-35607426D01*
X31899533Y-35574093D01*
X31932866Y-35540760D01*
X32199533Y-34907426D02*
X32632866Y-34907426D01*
X32399533Y-35174093D01*
X32499533Y-35174093D01*
X32566200Y-35207426D01*
X32599533Y-35240760D01*
X32632866Y-35307426D01*
X32632866Y-35474093D01*
X32599533Y-35540760D01*
X32566200Y-35574093D01*
X32499533Y-35607426D01*
X32299533Y-35607426D01*
X32232866Y-35574093D01*
X32199533Y-35540760D01*
X28842133Y-44030760D02*
X28842133Y-44597426D01*
X28808800Y-44664093D01*
X28775466Y-44697426D01*
X28708800Y-44730760D01*
X28608800Y-44730760D01*
X28542133Y-44697426D01*
X28842133Y-44464093D02*
X28775466Y-44497426D01*
X28642133Y-44497426D01*
X28575466Y-44464093D01*
X28542133Y-44430760D01*
X28508800Y-44364093D01*
X28508800Y-44164093D01*
X28542133Y-44097426D01*
X28575466Y-44064093D01*
X28642133Y-44030760D01*
X28775466Y-44030760D01*
X28842133Y-44064093D01*
X29175466Y-44497426D02*
X29175466Y-44030760D01*
X29175466Y-44164093D02*
X29208800Y-44097426D01*
X29242133Y-44064093D01*
X29308800Y-44030760D01*
X29375466Y-44030760D01*
X29608800Y-44030760D02*
X29608800Y-44497426D01*
X29608800Y-44097426D02*
X29642133Y-44064093D01*
X29708800Y-44030760D01*
X29808800Y-44030760D01*
X29875466Y-44064093D01*
X29908800Y-44130760D01*
X29908800Y-44497426D01*
X30208800Y-43864093D02*
X30242133Y-43830760D01*
X30308800Y-43797426D01*
X30475466Y-43797426D01*
X30542133Y-43830760D01*
X30575466Y-43864093D01*
X30608800Y-43930760D01*
X30608800Y-43997426D01*
X30575466Y-44097426D01*
X30175466Y-44497426D01*
X30608800Y-44497426D01*
X28524666Y-41932026D02*
X28524666Y-41232026D01*
X28524666Y-41498693D02*
X28591333Y-41465360D01*
X28724666Y-41465360D01*
X28791333Y-41498693D01*
X28824666Y-41532026D01*
X28858000Y-41598693D01*
X28858000Y-41798693D01*
X28824666Y-41865360D01*
X28791333Y-41898693D01*
X28724666Y-41932026D01*
X28591333Y-41932026D01*
X28524666Y-41898693D01*
X29258000Y-41932026D02*
X29191333Y-41898693D01*
X29158000Y-41832026D01*
X29158000Y-41232026D01*
X29824666Y-41465360D02*
X29824666Y-41932026D01*
X29524666Y-41465360D02*
X29524666Y-41832026D01*
X29558000Y-41898693D01*
X29624666Y-41932026D01*
X29724666Y-41932026D01*
X29791333Y-41898693D01*
X29824666Y-41865360D01*
X30124666Y-41298693D02*
X30158000Y-41265360D01*
X30224666Y-41232026D01*
X30391333Y-41232026D01*
X30458000Y-41265360D01*
X30491333Y-41298693D01*
X30524666Y-41365360D01*
X30524666Y-41432026D01*
X30491333Y-41532026D01*
X30091333Y-41932026D01*
X30524666Y-41932026D01*
X28542866Y-39417426D02*
X28542866Y-38717426D01*
X28542866Y-39050760D02*
X28942866Y-39050760D01*
X28942866Y-39417426D02*
X28942866Y-38717426D01*
X29242866Y-39384093D02*
X29342866Y-39417426D01*
X29509533Y-39417426D01*
X29576200Y-39384093D01*
X29609533Y-39350760D01*
X29642866Y-39284093D01*
X29642866Y-39217426D01*
X29609533Y-39150760D01*
X29576200Y-39117426D01*
X29509533Y-39084093D01*
X29376200Y-39050760D01*
X29309533Y-39017426D01*
X29276200Y-38984093D01*
X29242866Y-38917426D01*
X29242866Y-38850760D01*
X29276200Y-38784093D01*
X29309533Y-38750760D01*
X29376200Y-38717426D01*
X29542866Y-38717426D01*
X29642866Y-38750760D01*
X28547133Y-36152026D02*
X28780466Y-36852026D01*
X29013800Y-36152026D01*
X29213800Y-36818693D02*
X29313800Y-36852026D01*
X29480466Y-36852026D01*
X29547133Y-36818693D01*
X29580466Y-36785360D01*
X29613800Y-36718693D01*
X29613800Y-36652026D01*
X29580466Y-36585360D01*
X29547133Y-36552026D01*
X29480466Y-36518693D01*
X29347133Y-36485360D01*
X29280466Y-36452026D01*
X29247133Y-36418693D01*
X29213800Y-36352026D01*
X29213800Y-36285360D01*
X29247133Y-36218693D01*
X29280466Y-36185360D01*
X29347133Y-36152026D01*
X29513800Y-36152026D01*
X29613800Y-36185360D01*
X30413800Y-36118693D02*
X29813800Y-37018693D01*
X30947133Y-36385360D02*
X30947133Y-36952026D01*
X30913800Y-37018693D01*
X30880466Y-37052026D01*
X30813800Y-37085360D01*
X30713800Y-37085360D01*
X30647133Y-37052026D01*
X30947133Y-36818693D02*
X30880466Y-36852026D01*
X30747133Y-36852026D01*
X30680466Y-36818693D01*
X30647133Y-36785360D01*
X30613800Y-36718693D01*
X30613800Y-36518693D01*
X30647133Y-36452026D01*
X30680466Y-36418693D01*
X30747133Y-36385360D01*
X30880466Y-36385360D01*
X30947133Y-36418693D01*
X31280466Y-36852026D02*
X31280466Y-36385360D01*
X31280466Y-36518693D02*
X31313800Y-36452026D01*
X31347133Y-36418693D01*
X31413800Y-36385360D01*
X31480466Y-36385360D01*
X31713800Y-36385360D02*
X31713800Y-36852026D01*
X31713800Y-36452026D02*
X31747133Y-36418693D01*
X31813800Y-36385360D01*
X31913800Y-36385360D01*
X31980466Y-36418693D01*
X32013800Y-36485360D01*
X32013800Y-36852026D01*
X32713800Y-36852026D02*
X32313800Y-36852026D01*
X32513800Y-36852026D02*
X32513800Y-36152026D01*
X32447133Y-36252026D01*
X32380466Y-36318693D01*
X32313800Y-36352026D01*
X33213800Y-37118693D02*
X33180466Y-37085360D01*
X33113800Y-36985360D01*
X33080466Y-36918693D01*
X33047133Y-36818693D01*
X33013800Y-36652026D01*
X33013800Y-36518693D01*
X33047133Y-36352026D01*
X33080466Y-36252026D01*
X33113800Y-36185360D01*
X33180466Y-36085360D01*
X33213800Y-36052026D01*
X33513800Y-36852026D02*
X33647133Y-36852026D01*
X33713800Y-36818693D01*
X33747133Y-36785360D01*
X33813800Y-36685360D01*
X33847133Y-36552026D01*
X33847133Y-36285360D01*
X33813800Y-36218693D01*
X33780466Y-36185360D01*
X33713800Y-36152026D01*
X33580466Y-36152026D01*
X33513800Y-36185360D01*
X33480466Y-36218693D01*
X33447133Y-36285360D01*
X33447133Y-36452026D01*
X33480466Y-36518693D01*
X33513800Y-36552026D01*
X33580466Y-36585360D01*
X33713800Y-36585360D01*
X33780466Y-36552026D01*
X33813800Y-36518693D01*
X33847133Y-36452026D01*
X34080466Y-37118693D02*
X34113800Y-37085360D01*
X34180466Y-36985360D01*
X34213800Y-36918693D01*
X34247133Y-36818693D01*
X34280466Y-36652026D01*
X34280466Y-36518693D01*
X34247133Y-36352026D01*
X34213800Y-36252026D01*
X34180466Y-36185360D01*
X34113800Y-36085360D01*
X34080466Y-36052026D01*
X28841266Y-33637426D02*
X28507933Y-33637426D01*
X28474600Y-33970760D01*
X28507933Y-33937426D01*
X28574600Y-33904093D01*
X28741266Y-33904093D01*
X28807933Y-33937426D01*
X28841266Y-33970760D01*
X28874600Y-34037426D01*
X28874600Y-34204093D01*
X28841266Y-34270760D01*
X28807933Y-34304093D01*
X28741266Y-34337426D01*
X28574600Y-34337426D01*
X28507933Y-34304093D01*
X28474600Y-34270760D01*
X29074600Y-33637426D02*
X29307933Y-34337426D01*
X29541266Y-33637426D01*
D14*
X34115333Y-25523626D02*
X33882000Y-25190293D01*
X33715333Y-25523626D02*
X33715333Y-24823626D01*
X33982000Y-24823626D01*
X34048666Y-24856960D01*
X34082000Y-24890293D01*
X34115333Y-24956960D01*
X34115333Y-25056960D01*
X34082000Y-25123626D01*
X34048666Y-25156960D01*
X33982000Y-25190293D01*
X33715333Y-25190293D01*
X34348666Y-25523626D02*
X34715333Y-25056960D01*
X34348666Y-25056960D02*
X34715333Y-25523626D01*
X34982000Y-25523626D02*
X34982000Y-24823626D01*
X35148666Y-24823626D01*
X35248666Y-24856960D01*
X35315333Y-24923626D01*
X35348666Y-24990293D01*
X35382000Y-25123626D01*
X35382000Y-25223626D01*
X35348666Y-25356960D01*
X35315333Y-25423626D01*
X35248666Y-25490293D01*
X35148666Y-25523626D01*
X34982000Y-25523626D01*
X31158666Y-24823626D02*
X31558666Y-24823626D01*
X31358666Y-25523626D02*
X31358666Y-24823626D01*
X31725333Y-25523626D02*
X32092000Y-25056960D01*
X31725333Y-25056960D02*
X32092000Y-25523626D01*
X32358666Y-25523626D02*
X32358666Y-24823626D01*
X32525333Y-24823626D01*
X32625333Y-24856960D01*
X32692000Y-24923626D01*
X32725333Y-24990293D01*
X32758666Y-25123626D01*
X32758666Y-25223626D01*
X32725333Y-25356960D01*
X32692000Y-25423626D01*
X32625333Y-25490293D01*
X32525333Y-25523626D01*
X32358666Y-25523626D01*
X29002000Y-24856960D02*
X28935333Y-24823626D01*
X28835333Y-24823626D01*
X28735333Y-24856960D01*
X28668666Y-24923626D01*
X28635333Y-24990293D01*
X28602000Y-25123626D01*
X28602000Y-25223626D01*
X28635333Y-25356960D01*
X28668666Y-25423626D01*
X28735333Y-25490293D01*
X28835333Y-25523626D01*
X28902000Y-25523626D01*
X29002000Y-25490293D01*
X29035333Y-25456960D01*
X29035333Y-25223626D01*
X28902000Y-25223626D01*
X29335333Y-25056960D02*
X29335333Y-25523626D01*
X29335333Y-25123626D02*
X29368666Y-25090293D01*
X29435333Y-25056960D01*
X29535333Y-25056960D01*
X29602000Y-25090293D01*
X29635333Y-25156960D01*
X29635333Y-25523626D01*
X30268666Y-25523626D02*
X30268666Y-24823626D01*
X30268666Y-25490293D02*
X30202000Y-25523626D01*
X30068666Y-25523626D01*
X30002000Y-25490293D01*
X29968666Y-25456960D01*
X29935333Y-25390293D01*
X29935333Y-25190293D01*
X29968666Y-25123626D01*
X30002000Y-25090293D01*
X30068666Y-25056960D01*
X30202000Y-25056960D01*
X30268666Y-25090293D01*
D11*
X74046933Y-53298560D02*
X74580266Y-53298560D01*
X22561133Y-53425560D02*
X23094466Y-53425560D01*
D12*
X62218380Y-44497426D02*
X61218380Y-44497426D01*
X61694571Y-44497426D02*
X61694571Y-43937426D01*
X62218380Y-43937426D02*
X61218380Y-43937426D01*
X62218380Y-43330760D02*
X62170761Y-43424093D01*
X62123142Y-43470760D01*
X62027904Y-43517426D01*
X61742190Y-43517426D01*
X61646952Y-43470760D01*
X61599333Y-43424093D01*
X61551714Y-43330760D01*
X61551714Y-43190760D01*
X61599333Y-43097426D01*
X61646952Y-43050760D01*
X61742190Y-43004093D01*
X62027904Y-43004093D01*
X62123142Y-43050760D01*
X62170761Y-43097426D01*
X62218380Y-43190760D01*
X62218380Y-43330760D01*
X61551714Y-42164093D02*
X62361238Y-42164093D01*
X62456476Y-42210760D01*
X62504095Y-42257426D01*
X62551714Y-42350760D01*
X62551714Y-42490760D01*
X62504095Y-42584093D01*
X62170761Y-42164093D02*
X62218380Y-42257426D01*
X62218380Y-42444093D01*
X62170761Y-42537426D01*
X62123142Y-42584093D01*
X62027904Y-42630760D01*
X61742190Y-42630760D01*
X61646952Y-42584093D01*
X61599333Y-42537426D01*
X61551714Y-42444093D01*
X61551714Y-42257426D01*
X61599333Y-42164093D01*
X62218380Y-41557426D02*
X62170761Y-41650760D01*
X62075523Y-41697426D01*
X61218380Y-41697426D01*
X62170761Y-40810760D02*
X62218380Y-40904093D01*
X62218380Y-41090760D01*
X62170761Y-41184093D01*
X62075523Y-41230760D01*
X61694571Y-41230760D01*
X61599333Y-41184093D01*
X61551714Y-41090760D01*
X61551714Y-40904093D01*
X61599333Y-40810760D01*
X61694571Y-40764093D01*
X61789809Y-40764093D01*
X61885047Y-41230760D01*
X61551714Y-40484093D02*
X61551714Y-40110760D01*
X61218380Y-40344093D02*
X62075523Y-40344093D01*
X62170761Y-40297426D01*
X62218380Y-40204093D01*
X62218380Y-40110760D01*
X62218380Y-38244093D02*
X62218380Y-38290760D01*
X62170761Y-38384093D01*
X62027904Y-38524093D01*
X61742190Y-38757426D01*
X61599333Y-38850760D01*
X61456476Y-38897426D01*
X61361238Y-38897426D01*
X61266000Y-38850760D01*
X61218380Y-38757426D01*
X61218380Y-38710760D01*
X61266000Y-38617426D01*
X61361238Y-38570760D01*
X61408857Y-38570760D01*
X61504095Y-38617426D01*
X61551714Y-38664093D01*
X61742190Y-38944093D01*
X61789809Y-38990760D01*
X61885047Y-39037426D01*
X62027904Y-39037426D01*
X62123142Y-38990760D01*
X62170761Y-38944093D01*
X62218380Y-38850760D01*
X62218380Y-38710760D01*
X62170761Y-38617426D01*
X62123142Y-38570760D01*
X61932666Y-38430760D01*
X61789809Y-38384093D01*
X61694571Y-38384093D01*
X62218380Y-37077426D02*
X61218380Y-37077426D01*
X62218380Y-36190760D02*
X61694571Y-36190760D01*
X61599333Y-36237426D01*
X61551714Y-36330760D01*
X61551714Y-36517426D01*
X61599333Y-36610760D01*
X62170761Y-36190760D02*
X62218380Y-36284093D01*
X62218380Y-36517426D01*
X62170761Y-36610760D01*
X62075523Y-36657426D01*
X61980285Y-36657426D01*
X61885047Y-36610760D01*
X61837428Y-36517426D01*
X61837428Y-36284093D01*
X61789809Y-36190760D01*
X61551714Y-35724093D02*
X62218380Y-35724093D01*
X61646952Y-35724093D02*
X61599333Y-35677426D01*
X61551714Y-35584093D01*
X61551714Y-35444093D01*
X61599333Y-35350760D01*
X61694571Y-35304093D01*
X62218380Y-35304093D01*
X61694571Y-34510760D02*
X61742190Y-34370760D01*
X61789809Y-34324093D01*
X61885047Y-34277426D01*
X62027904Y-34277426D01*
X62123142Y-34324093D01*
X62170761Y-34370760D01*
X62218380Y-34464093D01*
X62218380Y-34837426D01*
X61218380Y-34837426D01*
X61218380Y-34510760D01*
X61266000Y-34417426D01*
X61313619Y-34370760D01*
X61408857Y-34324093D01*
X61504095Y-34324093D01*
X61599333Y-34370760D01*
X61646952Y-34417426D01*
X61694571Y-34510760D01*
X61694571Y-34837426D01*
X59754676Y-42953293D02*
X59707057Y-43046626D01*
X59707057Y-43233293D01*
X59754676Y-43326626D01*
X59849914Y-43419960D01*
X59945152Y-43466626D01*
X60135628Y-43466626D01*
X60230866Y-43419960D01*
X60326104Y-43326626D01*
X60373723Y-43233293D01*
X60373723Y-43046626D01*
X60326104Y-42953293D01*
X59373723Y-43139960D02*
X59421342Y-43373293D01*
X59564200Y-43606626D01*
X59802295Y-43746626D01*
X60040390Y-43793293D01*
X60278485Y-43746626D01*
X60516580Y-43606626D01*
X60659438Y-43373293D01*
X60707057Y-43139960D01*
X60659438Y-42906626D01*
X60516580Y-42673293D01*
X60278485Y-42533293D01*
X60040390Y-42486626D01*
X59802295Y-42533293D01*
X59564200Y-42673293D01*
X59421342Y-42906626D01*
X59373723Y-43139960D01*
X59611819Y-41366626D02*
X59564200Y-41319960D01*
X59516580Y-41226626D01*
X59516580Y-40993293D01*
X59564200Y-40899960D01*
X59611819Y-40853293D01*
X59707057Y-40806626D01*
X59802295Y-40806626D01*
X59945152Y-40853293D01*
X60516580Y-41413293D01*
X60516580Y-40806626D01*
X59516580Y-40199960D02*
X59516580Y-40106626D01*
X59564200Y-40013293D01*
X59611819Y-39966626D01*
X59707057Y-39919960D01*
X59897533Y-39873293D01*
X60135628Y-39873293D01*
X60326104Y-39919960D01*
X60421342Y-39966626D01*
X60468961Y-40013293D01*
X60516580Y-40106626D01*
X60516580Y-40199960D01*
X60468961Y-40293293D01*
X60421342Y-40339960D01*
X60326104Y-40386626D01*
X60135628Y-40433293D01*
X59897533Y-40433293D01*
X59707057Y-40386626D01*
X59611819Y-40339960D01*
X59564200Y-40293293D01*
X59516580Y-40199960D01*
X60516580Y-38939960D02*
X60516580Y-39499960D01*
X60516580Y-39219960D02*
X59516580Y-39219960D01*
X59659438Y-39313293D01*
X59754676Y-39406626D01*
X59802295Y-39499960D01*
X59945152Y-38379960D02*
X59897533Y-38473293D01*
X59849914Y-38519960D01*
X59754676Y-38566626D01*
X59707057Y-38566626D01*
X59611819Y-38519960D01*
X59564200Y-38473293D01*
X59516580Y-38379960D01*
X59516580Y-38193293D01*
X59564200Y-38099960D01*
X59611819Y-38053293D01*
X59707057Y-38006626D01*
X59754676Y-38006626D01*
X59849914Y-38053293D01*
X59897533Y-38099960D01*
X59945152Y-38193293D01*
X59945152Y-38379960D01*
X59992771Y-38473293D01*
X60040390Y-38519960D01*
X60135628Y-38566626D01*
X60326104Y-38566626D01*
X60421342Y-38519960D01*
X60468961Y-38473293D01*
X60516580Y-38379960D01*
X60516580Y-38193293D01*
X60468961Y-38099960D01*
X60421342Y-38053293D01*
X60326104Y-38006626D01*
X60135628Y-38006626D01*
X60040390Y-38053293D01*
X59992771Y-38099960D01*
X59945152Y-38193293D01*
X60135628Y-37586626D02*
X60135628Y-36839960D01*
X59611819Y-36419960D02*
X59564200Y-36373293D01*
X59516580Y-36279960D01*
X59516580Y-36046626D01*
X59564200Y-35953293D01*
X59611819Y-35906626D01*
X59707057Y-35859960D01*
X59802295Y-35859960D01*
X59945152Y-35906626D01*
X60516580Y-36466626D01*
X60516580Y-35859960D01*
X59516580Y-35253293D02*
X59516580Y-35159960D01*
X59564200Y-35066626D01*
X59611819Y-35019960D01*
X59707057Y-34973293D01*
X59897533Y-34926626D01*
X60135628Y-34926626D01*
X60326104Y-34973293D01*
X60421342Y-35019960D01*
X60468961Y-35066626D01*
X60516580Y-35159960D01*
X60516580Y-35253293D01*
X60468961Y-35346626D01*
X60421342Y-35393293D01*
X60326104Y-35439960D01*
X60135628Y-35486626D01*
X59897533Y-35486626D01*
X59707057Y-35439960D01*
X59611819Y-35393293D01*
X59564200Y-35346626D01*
X59516580Y-35253293D01*
X58888440Y-43872540D02*
X58888440Y-44386825D01*
X58888440Y-44129682D02*
X57888440Y-44129682D01*
X58031298Y-44215397D01*
X58126536Y-44301111D01*
X58174155Y-44386825D01*
X57983679Y-43529682D02*
X57936060Y-43486825D01*
X57888440Y-43401111D01*
X57888440Y-43186825D01*
X57936060Y-43101111D01*
X57983679Y-43058254D01*
X58078917Y-43015397D01*
X58174155Y-43015397D01*
X58317012Y-43058254D01*
X58888440Y-43572540D01*
X58888440Y-43015397D01*
X58364631Y-41643968D02*
X58412250Y-41515397D01*
X58459869Y-41472540D01*
X58555107Y-41429682D01*
X58697964Y-41429682D01*
X58793202Y-41472540D01*
X58840821Y-41515397D01*
X58888440Y-41601111D01*
X58888440Y-41943968D01*
X57888440Y-41943968D01*
X57888440Y-41643968D01*
X57936060Y-41558254D01*
X57983679Y-41515397D01*
X58078917Y-41472540D01*
X58174155Y-41472540D01*
X58269393Y-41515397D01*
X58317012Y-41558254D01*
X58364631Y-41643968D01*
X58364631Y-41943968D01*
X58888440Y-41043968D02*
X58221774Y-41043968D01*
X57888440Y-41043968D02*
X57936060Y-41086825D01*
X57983679Y-41043968D01*
X57936060Y-41001111D01*
X57888440Y-41043968D01*
X57983679Y-41043968D01*
X58221774Y-40743968D02*
X58221774Y-40401111D01*
X57888440Y-40615397D02*
X58745583Y-40615397D01*
X58840821Y-40572540D01*
X58888440Y-40486825D01*
X58888440Y-40401111D01*
X58888440Y-39415397D02*
X57888440Y-39415397D01*
X58840821Y-39029682D02*
X58888440Y-38943968D01*
X58888440Y-38772540D01*
X58840821Y-38686825D01*
X58745583Y-38643968D01*
X58697964Y-38643968D01*
X58602726Y-38686825D01*
X58555107Y-38772540D01*
X58555107Y-38901111D01*
X58507488Y-38986825D01*
X58412250Y-39029682D01*
X58364631Y-39029682D01*
X58269393Y-38986825D01*
X58221774Y-38901111D01*
X58221774Y-38772540D01*
X58269393Y-38686825D01*
X58840821Y-38301111D02*
X58888440Y-38215397D01*
X58888440Y-38043968D01*
X58840821Y-37958254D01*
X58745583Y-37915397D01*
X58697964Y-37915397D01*
X58602726Y-37958254D01*
X58555107Y-38043968D01*
X58555107Y-38172540D01*
X58507488Y-38258254D01*
X58412250Y-38301111D01*
X58364631Y-38301111D01*
X58269393Y-38258254D01*
X58221774Y-38172540D01*
X58221774Y-38043968D01*
X58269393Y-37958254D01*
X58221774Y-37143968D02*
X58888440Y-37143968D01*
X58221774Y-37529682D02*
X58745583Y-37529682D01*
X58840821Y-37486825D01*
X58888440Y-37401111D01*
X58888440Y-37272540D01*
X58840821Y-37186825D01*
X58793202Y-37143968D01*
X58840821Y-36372540D02*
X58888440Y-36458254D01*
X58888440Y-36629682D01*
X58840821Y-36715397D01*
X58745583Y-36758254D01*
X58364631Y-36758254D01*
X58269393Y-36715397D01*
X58221774Y-36629682D01*
X58221774Y-36458254D01*
X58269393Y-36372540D01*
X58364631Y-36329682D01*
X58459869Y-36329682D01*
X58555107Y-36758254D01*
X58221774Y-34872540D02*
X58888440Y-34872540D01*
X57840821Y-35086825D02*
X58555107Y-35301111D01*
X58555107Y-34743968D01*
X58793202Y-34401111D02*
X58840821Y-34358254D01*
X58888440Y-34401111D01*
X58840821Y-34443968D01*
X58793202Y-34401111D01*
X58888440Y-34401111D01*
X57214580Y-41737893D02*
X56738390Y-42064560D01*
X57214580Y-42297893D02*
X56214580Y-42297893D01*
X56214580Y-41924560D01*
X56262200Y-41831226D01*
X56309819Y-41784560D01*
X56405057Y-41737893D01*
X56547914Y-41737893D01*
X56643152Y-41784560D01*
X56690771Y-41831226D01*
X56738390Y-41924560D01*
X56738390Y-42297893D01*
X56262200Y-40804560D02*
X56214580Y-40897893D01*
X56214580Y-41037893D01*
X56262200Y-41177893D01*
X56357438Y-41271226D01*
X56452676Y-41317893D01*
X56643152Y-41364560D01*
X56786009Y-41364560D01*
X56976485Y-41317893D01*
X57071723Y-41271226D01*
X57166961Y-41177893D01*
X57214580Y-41037893D01*
X57214580Y-40944560D01*
X57166961Y-40804560D01*
X57119342Y-40757893D01*
X56786009Y-40757893D01*
X56786009Y-40944560D01*
X56690771Y-40011226D02*
X56738390Y-39871226D01*
X56786009Y-39824560D01*
X56881247Y-39777893D01*
X57024104Y-39777893D01*
X57119342Y-39824560D01*
X57166961Y-39871226D01*
X57214580Y-39964560D01*
X57214580Y-40337893D01*
X56214580Y-40337893D01*
X56214580Y-40011226D01*
X56262200Y-39917893D01*
X56309819Y-39871226D01*
X56405057Y-39824560D01*
X56500295Y-39824560D01*
X56595533Y-39871226D01*
X56643152Y-39917893D01*
X56690771Y-40011226D01*
X56690771Y-40337893D01*
X56547914Y-39497893D02*
X56547914Y-39124560D01*
X56214580Y-39357893D02*
X57071723Y-39357893D01*
X57166961Y-39311226D01*
X57214580Y-39217893D01*
X57214580Y-39124560D01*
X57214580Y-38657893D02*
X57166961Y-38751226D01*
X57119342Y-38797893D01*
X57024104Y-38844560D01*
X56738390Y-38844560D01*
X56643152Y-38797893D01*
X56595533Y-38751226D01*
X56547914Y-38657893D01*
X56547914Y-38517893D01*
X56595533Y-38424560D01*
X56643152Y-38377893D01*
X56738390Y-38331226D01*
X57024104Y-38331226D01*
X57119342Y-38377893D01*
X57166961Y-38424560D01*
X57214580Y-38517893D01*
X57214580Y-38657893D01*
X57214580Y-37911226D02*
X56214580Y-37911226D01*
X56690771Y-37911226D02*
X56690771Y-37351226D01*
X57214580Y-37351226D02*
X56214580Y-37351226D01*
X57214580Y-36884560D02*
X56214580Y-36884560D01*
X56214580Y-36651226D01*
X56262200Y-36511226D01*
X56357438Y-36417893D01*
X56452676Y-36371226D01*
X56643152Y-36324560D01*
X56786009Y-36324560D01*
X56976485Y-36371226D01*
X57071723Y-36417893D01*
X57166961Y-36511226D01*
X57214580Y-36651226D01*
X57214580Y-36884560D01*
X50339961Y-43240960D02*
G75*
G03X50339961Y-43240960I-567961J0D01*
G01*
X63061400Y-45074960D02*
X55441400Y-45074960D01*
X63061400Y-33644960D02*
X63061400Y-45074960D01*
X55441400Y-33644960D02*
X63061400Y-33644960D01*
X55441400Y-45074960D02*
X55441400Y-33644960D01*
D13*
X39313600Y-50565308D02*
X39313600Y-51087812D01*
X40733600Y-50565308D02*
X40733600Y-51087812D01*
X41427000Y-34320960D02*
X40852000Y-34320960D01*
X40852000Y-34320960D02*
X40852000Y-34895960D01*
X50497000Y-34320960D02*
X51072000Y-34320960D01*
X51072000Y-34320960D02*
X51072000Y-34895960D01*
X41427000Y-44540960D02*
X40852000Y-44540960D01*
X40852000Y-44540960D02*
X40852000Y-43965960D01*
X50497000Y-44540960D02*
X51072000Y-44540960D01*
X51072000Y-44540960D02*
X51072000Y-43965960D01*
X51072000Y-43965960D02*
X52362000Y-43965960D01*
X53335252Y-44689960D02*
X52812748Y-44689960D01*
X53335252Y-46109960D02*
X52812748Y-46109960D01*
X37124000Y-36898212D02*
X37124000Y-36375708D01*
X38544000Y-36898212D02*
X38544000Y-36375708D01*
X52812748Y-32624960D02*
X53335252Y-32624960D01*
X52812748Y-34044960D02*
X53335252Y-34044960D01*
X39263652Y-46236960D02*
X38741148Y-46236960D01*
X39263652Y-44816960D02*
X38741148Y-44816960D01*
X56844700Y-51122212D02*
X56844700Y-50599708D01*
X55424700Y-51122212D02*
X55424700Y-50599708D01*
X59118000Y-51122212D02*
X59118000Y-50599708D01*
X57698000Y-51122212D02*
X57698000Y-50599708D01*
X26588200Y-51006108D02*
X26588200Y-51528612D01*
X28008200Y-51006108D02*
X28008200Y-51528612D01*
X70477000Y-51031508D02*
X70477000Y-51554012D01*
X69057000Y-51031508D02*
X69057000Y-51554012D01*
X29306000Y-50146960D02*
X29306000Y-51646960D01*
X30556000Y-54146960D02*
X35056000Y-54146960D01*
X36306000Y-51646960D02*
X36306000Y-50146960D01*
X35056000Y-47646960D02*
X30556000Y-47646960D01*
X50804000Y-47646960D02*
X46304000Y-47646960D01*
X52054000Y-51646960D02*
X52054000Y-50146960D01*
X46304000Y-54146960D02*
X50804000Y-54146960D01*
X45054000Y-50146960D02*
X45054000Y-51646960D01*
X66552000Y-47646960D02*
X62052000Y-47646960D01*
X67802000Y-51646960D02*
X67802000Y-50146960D01*
X62052000Y-54146960D02*
X66552000Y-54146960D01*
X60802000Y-50146960D02*
X60802000Y-51646960D01*
X76617000Y-43640960D02*
X78117000Y-43640960D01*
X80617000Y-42390960D02*
X80617000Y-37890960D01*
X78117000Y-36640960D02*
X76617000Y-36640960D01*
X74117000Y-37890960D02*
X74117000Y-42390960D01*
X71797660Y-36098112D02*
X71797660Y-35575608D01*
X73217660Y-36098112D02*
X73217660Y-35575608D01*
X25429000Y-52460960D02*
X25585000Y-52460960D01*
X23113000Y-52460960D02*
X23269000Y-52460960D01*
X25428837Y-49859830D02*
G75*
G02X25429000Y-51941921I-1079837J-1041130D01*
G01*
X23269163Y-49859830D02*
G75*
G03X23269000Y-51941921I1079837J-1041130D01*
G01*
X25427608Y-49228625D02*
G75*
G02X25584516Y-52460960I-1078608J-1672335D01*
G01*
X23270392Y-49228625D02*
G75*
G03X23113484Y-52460960I1078608J-1672335D01*
G01*
X71680392Y-49228625D02*
G75*
G03X71523484Y-52460960I1078608J-1672335D01*
G01*
X73837608Y-49228625D02*
G75*
G02X73994516Y-52460960I-1078608J-1672335D01*
G01*
X71679163Y-49859830D02*
G75*
G03X71679000Y-51941921I1079837J-1041130D01*
G01*
X73838837Y-49859830D02*
G75*
G02X73839000Y-51941921I-1079837J-1041130D01*
G01*
X71523000Y-52460960D02*
X71679000Y-52460960D01*
X73839000Y-52460960D02*
X73995000Y-52460960D01*
D12*
X39907733Y-48764340D02*
X39574400Y-48288150D01*
X39336304Y-48764340D02*
X39336304Y-47764340D01*
X39717257Y-47764340D01*
X39812495Y-47811960D01*
X39860114Y-47859579D01*
X39907733Y-47954817D01*
X39907733Y-48097674D01*
X39860114Y-48192912D01*
X39812495Y-48240531D01*
X39717257Y-48288150D01*
X39336304Y-48288150D01*
X40860114Y-48764340D02*
X40288685Y-48764340D01*
X40574400Y-48764340D02*
X40574400Y-47764340D01*
X40479161Y-47907198D01*
X40383923Y-48002436D01*
X40288685Y-48050055D01*
X39007695Y-33142940D02*
X39007695Y-33952464D01*
X39055314Y-34047702D01*
X39102933Y-34095321D01*
X39198171Y-34142940D01*
X39388647Y-34142940D01*
X39483885Y-34095321D01*
X39531504Y-34047702D01*
X39579123Y-33952464D01*
X39579123Y-33142940D01*
X40579123Y-34142940D02*
X40007695Y-34142940D01*
X40293409Y-34142940D02*
X40293409Y-33142940D01*
X40198171Y-33285798D01*
X40102933Y-33381036D01*
X40007695Y-33428655D01*
X53699933Y-47408102D02*
X53652314Y-47455721D01*
X53509457Y-47503340D01*
X53414219Y-47503340D01*
X53271361Y-47455721D01*
X53176123Y-47360483D01*
X53128504Y-47265245D01*
X53080885Y-47074769D01*
X53080885Y-46931912D01*
X53128504Y-46741436D01*
X53176123Y-46646198D01*
X53271361Y-46550960D01*
X53414219Y-46503340D01*
X53509457Y-46503340D01*
X53652314Y-46550960D01*
X53699933Y-46598579D01*
X54652314Y-47503340D02*
X54080885Y-47503340D01*
X54366600Y-47503340D02*
X54366600Y-46503340D01*
X54271361Y-46646198D01*
X54176123Y-46741436D01*
X54080885Y-46789055D01*
X37596333Y-39711902D02*
X37548714Y-39759521D01*
X37405857Y-39807140D01*
X37310619Y-39807140D01*
X37167761Y-39759521D01*
X37072523Y-39664283D01*
X37024904Y-39569045D01*
X36977285Y-39378569D01*
X36977285Y-39235712D01*
X37024904Y-39045236D01*
X37072523Y-38949998D01*
X37167761Y-38854760D01*
X37310619Y-38807140D01*
X37405857Y-38807140D01*
X37548714Y-38854760D01*
X37596333Y-38902379D01*
X37977285Y-38902379D02*
X38024904Y-38854760D01*
X38120142Y-38807140D01*
X38358238Y-38807140D01*
X38453476Y-38854760D01*
X38501095Y-38902379D01*
X38548714Y-38997617D01*
X38548714Y-39092855D01*
X38501095Y-39235712D01*
X37929666Y-39807140D01*
X38548714Y-39807140D01*
X53034333Y-32042102D02*
X52986714Y-32089721D01*
X52843857Y-32137340D01*
X52748619Y-32137340D01*
X52605761Y-32089721D01*
X52510523Y-31994483D01*
X52462904Y-31899245D01*
X52415285Y-31708769D01*
X52415285Y-31565912D01*
X52462904Y-31375436D01*
X52510523Y-31280198D01*
X52605761Y-31184960D01*
X52748619Y-31137340D01*
X52843857Y-31137340D01*
X52986714Y-31184960D01*
X53034333Y-31232579D01*
X53367666Y-31137340D02*
X53986714Y-31137340D01*
X53653380Y-31518293D01*
X53796238Y-31518293D01*
X53891476Y-31565912D01*
X53939095Y-31613531D01*
X53986714Y-31708769D01*
X53986714Y-31946864D01*
X53939095Y-32042102D01*
X53891476Y-32089721D01*
X53796238Y-32137340D01*
X53510523Y-32137340D01*
X53415285Y-32089721D01*
X53367666Y-32042102D01*
X35686133Y-46011102D02*
X35638514Y-46058721D01*
X35495657Y-46106340D01*
X35400419Y-46106340D01*
X35257561Y-46058721D01*
X35162323Y-45963483D01*
X35114704Y-45868245D01*
X35067085Y-45677769D01*
X35067085Y-45534912D01*
X35114704Y-45344436D01*
X35162323Y-45249198D01*
X35257561Y-45153960D01*
X35400419Y-45106340D01*
X35495657Y-45106340D01*
X35638514Y-45153960D01*
X35686133Y-45201579D01*
X36543276Y-45439674D02*
X36543276Y-46106340D01*
X36305180Y-45058721D02*
X36067085Y-45773007D01*
X36686133Y-45773007D01*
X55915333Y-48823340D02*
X55582000Y-48347150D01*
X55343904Y-48823340D02*
X55343904Y-47823340D01*
X55724857Y-47823340D01*
X55820095Y-47870960D01*
X55867714Y-47918579D01*
X55915333Y-48013817D01*
X55915333Y-48156674D01*
X55867714Y-48251912D01*
X55820095Y-48299531D01*
X55724857Y-48347150D01*
X55343904Y-48347150D01*
X56296285Y-47918579D02*
X56343904Y-47870960D01*
X56439142Y-47823340D01*
X56677238Y-47823340D01*
X56772476Y-47870960D01*
X56820095Y-47918579D01*
X56867714Y-48013817D01*
X56867714Y-48109055D01*
X56820095Y-48251912D01*
X56248666Y-48823340D01*
X56867714Y-48823340D01*
X58195333Y-48811440D02*
X57862000Y-48335250D01*
X57623904Y-48811440D02*
X57623904Y-47811440D01*
X58004857Y-47811440D01*
X58100095Y-47859060D01*
X58147714Y-47906679D01*
X58195333Y-48001917D01*
X58195333Y-48144774D01*
X58147714Y-48240012D01*
X58100095Y-48287631D01*
X58004857Y-48335250D01*
X57623904Y-48335250D01*
X58528666Y-47811440D02*
X59147714Y-47811440D01*
X58814380Y-48192393D01*
X58957238Y-48192393D01*
X59052476Y-48240012D01*
X59100095Y-48287631D01*
X59147714Y-48382869D01*
X59147714Y-48620964D01*
X59100095Y-48716202D01*
X59052476Y-48763821D01*
X58957238Y-48811440D01*
X58671523Y-48811440D01*
X58576285Y-48763821D01*
X58528666Y-48716202D01*
D13*
X27204866Y-54049264D02*
X26938200Y-53668312D01*
X26747723Y-54049264D02*
X26747723Y-53249264D01*
X27052485Y-53249264D01*
X27128676Y-53287360D01*
X27166771Y-53325455D01*
X27204866Y-53401645D01*
X27204866Y-53515931D01*
X27166771Y-53592121D01*
X27128676Y-53630217D01*
X27052485Y-53668312D01*
X26747723Y-53668312D01*
X27890580Y-53515931D02*
X27890580Y-54049264D01*
X27700104Y-53211169D02*
X27509628Y-53782598D01*
X28004866Y-53782598D01*
D12*
X69590173Y-49352460D02*
X69256840Y-48876270D01*
X69018744Y-49352460D02*
X69018744Y-48352460D01*
X69399697Y-48352460D01*
X69494935Y-48400080D01*
X69542554Y-48447699D01*
X69590173Y-48542937D01*
X69590173Y-48685794D01*
X69542554Y-48781032D01*
X69494935Y-48828651D01*
X69399697Y-48876270D01*
X69018744Y-48876270D01*
X70494935Y-48352460D02*
X70018744Y-48352460D01*
X69971125Y-48828651D01*
X70018744Y-48781032D01*
X70113982Y-48733413D01*
X70352078Y-48733413D01*
X70447316Y-48781032D01*
X70494935Y-48828651D01*
X70542554Y-48923889D01*
X70542554Y-49161984D01*
X70494935Y-49257222D01*
X70447316Y-49304841D01*
X70352078Y-49352460D01*
X70113982Y-49352460D01*
X70018744Y-49304841D01*
X69971125Y-49257222D01*
X31668666Y-47375721D02*
X31811523Y-47423340D01*
X32049619Y-47423340D01*
X32144857Y-47375721D01*
X32192476Y-47328102D01*
X32240095Y-47232864D01*
X32240095Y-47137626D01*
X32192476Y-47042388D01*
X32144857Y-46994769D01*
X32049619Y-46947150D01*
X31859142Y-46899531D01*
X31763904Y-46851912D01*
X31716285Y-46804293D01*
X31668666Y-46709055D01*
X31668666Y-46613817D01*
X31716285Y-46518579D01*
X31763904Y-46470960D01*
X31859142Y-46423340D01*
X32097238Y-46423340D01*
X32240095Y-46470960D01*
X32573428Y-46423340D02*
X32811523Y-47423340D01*
X33002000Y-46709055D01*
X33192476Y-47423340D01*
X33430571Y-46423340D01*
X34335333Y-47423340D02*
X33763904Y-47423340D01*
X34049619Y-47423340D02*
X34049619Y-46423340D01*
X33954380Y-46566198D01*
X33859142Y-46661436D01*
X33763904Y-46709055D01*
X47208666Y-47365721D02*
X47351523Y-47413340D01*
X47589619Y-47413340D01*
X47684857Y-47365721D01*
X47732476Y-47318102D01*
X47780095Y-47222864D01*
X47780095Y-47127626D01*
X47732476Y-47032388D01*
X47684857Y-46984769D01*
X47589619Y-46937150D01*
X47399142Y-46889531D01*
X47303904Y-46841912D01*
X47256285Y-46794293D01*
X47208666Y-46699055D01*
X47208666Y-46603817D01*
X47256285Y-46508579D01*
X47303904Y-46460960D01*
X47399142Y-46413340D01*
X47637238Y-46413340D01*
X47780095Y-46460960D01*
X48113428Y-46413340D02*
X48351523Y-47413340D01*
X48542000Y-46699055D01*
X48732476Y-47413340D01*
X48970571Y-46413340D01*
X49303904Y-46508579D02*
X49351523Y-46460960D01*
X49446761Y-46413340D01*
X49684857Y-46413340D01*
X49780095Y-46460960D01*
X49827714Y-46508579D01*
X49875333Y-46603817D01*
X49875333Y-46699055D01*
X49827714Y-46841912D01*
X49256285Y-47413340D01*
X49875333Y-47413340D01*
X60737466Y-47176321D02*
X60880323Y-47223940D01*
X61118419Y-47223940D01*
X61213657Y-47176321D01*
X61261276Y-47128702D01*
X61308895Y-47033464D01*
X61308895Y-46938226D01*
X61261276Y-46842988D01*
X61213657Y-46795369D01*
X61118419Y-46747750D01*
X60927942Y-46700131D01*
X60832704Y-46652512D01*
X60785085Y-46604893D01*
X60737466Y-46509655D01*
X60737466Y-46414417D01*
X60785085Y-46319179D01*
X60832704Y-46271560D01*
X60927942Y-46223940D01*
X61166038Y-46223940D01*
X61308895Y-46271560D01*
X61642228Y-46223940D02*
X61880323Y-47223940D01*
X62070800Y-46509655D01*
X62261276Y-47223940D01*
X62499371Y-46223940D01*
X62785085Y-46223940D02*
X63404133Y-46223940D01*
X63070800Y-46604893D01*
X63213657Y-46604893D01*
X63308895Y-46652512D01*
X63356514Y-46700131D01*
X63404133Y-46795369D01*
X63404133Y-47033464D01*
X63356514Y-47128702D01*
X63308895Y-47176321D01*
X63213657Y-47223940D01*
X62927942Y-47223940D01*
X62832704Y-47176321D01*
X62785085Y-47128702D01*
X76028266Y-35779341D02*
X76171123Y-35826960D01*
X76409219Y-35826960D01*
X76504457Y-35779341D01*
X76552076Y-35731722D01*
X76599695Y-35636484D01*
X76599695Y-35541246D01*
X76552076Y-35446008D01*
X76504457Y-35398389D01*
X76409219Y-35350770D01*
X76218742Y-35303151D01*
X76123504Y-35255532D01*
X76075885Y-35207913D01*
X76028266Y-35112675D01*
X76028266Y-35017437D01*
X76075885Y-34922199D01*
X76123504Y-34874580D01*
X76218742Y-34826960D01*
X76456838Y-34826960D01*
X76599695Y-34874580D01*
X76933028Y-34826960D02*
X77171123Y-35826960D01*
X77361600Y-35112675D01*
X77552076Y-35826960D01*
X77790171Y-34826960D01*
X78599695Y-35160294D02*
X78599695Y-35826960D01*
X78361600Y-34779341D02*
X78123504Y-35493627D01*
X78742552Y-35493627D01*
X73788793Y-33932120D02*
X73455460Y-33455930D01*
X73217364Y-33932120D02*
X73217364Y-32932120D01*
X73598317Y-32932120D01*
X73693555Y-32979740D01*
X73741174Y-33027359D01*
X73788793Y-33122597D01*
X73788793Y-33265454D01*
X73741174Y-33360692D01*
X73693555Y-33408311D01*
X73598317Y-33455930D01*
X73217364Y-33455930D01*
X74122126Y-32932120D02*
X74788793Y-32932120D01*
X74360221Y-33932120D01*
D13*
X25539323Y-48987664D02*
X25539323Y-48187664D01*
X25729800Y-48187664D01*
X25844085Y-48225760D01*
X25920276Y-48301950D01*
X25958371Y-48378140D01*
X25996466Y-48530521D01*
X25996466Y-48644807D01*
X25958371Y-48797188D01*
X25920276Y-48873379D01*
X25844085Y-48949569D01*
X25729800Y-48987664D01*
X25539323Y-48987664D01*
X26758371Y-48987664D02*
X26301228Y-48987664D01*
X26529800Y-48987664D02*
X26529800Y-48187664D01*
X26453609Y-48301950D01*
X26377419Y-48378140D01*
X26301228Y-48416236D01*
X72199123Y-48352664D02*
X72199123Y-47552664D01*
X72389600Y-47552664D01*
X72503885Y-47590760D01*
X72580076Y-47666950D01*
X72618171Y-47743140D01*
X72656266Y-47895521D01*
X72656266Y-48009807D01*
X72618171Y-48162188D01*
X72580076Y-48238379D01*
X72503885Y-48314569D01*
X72389600Y-48352664D01*
X72199123Y-48352664D01*
X72961028Y-47628855D02*
X72999123Y-47590760D01*
X73075314Y-47552664D01*
X73265790Y-47552664D01*
X73341980Y-47590760D01*
X73380076Y-47628855D01*
X73418171Y-47705045D01*
X73418171Y-47781236D01*
X73380076Y-47895521D01*
X72922933Y-48352664D01*
X73418171Y-48352664D01*
M02*
