G04 #@! TF.GenerationSoftware,KiCad,Pcbnew,5.1.5+dfsg1-2build2*
G04 #@! TF.CreationDate,2022-05-20T20:59:30-04:00*
G04 #@! TF.ProjectId,rgb-to-hdmi,7267622d-746f-42d6-9864-6d692e6b6963,rev?*
G04 #@! TF.SameCoordinates,Original*
G04 #@! TF.FileFunction,Soldermask,Bot*
G04 #@! TF.FilePolarity,Negative*
%FSLAX46Y46*%
G04 Gerber Fmt 4.6, Leading zero omitted, Abs format (unit mm)*
G04 Created by KiCad (PCBNEW 5.1.5+dfsg1-2build2) date 2022-05-20 20:59:30*
%MOMM*%
%LPD*%
G04 APERTURE LIST*
%ADD10C,0.100000*%
G04 APERTURE END LIST*
D10*
G36*
X52139443Y-52041154D02*
G01*
X52348728Y-52127842D01*
X52537081Y-52253696D01*
X52697264Y-52413879D01*
X52823118Y-52602232D01*
X52909806Y-52811517D01*
X52954000Y-53033695D01*
X52954000Y-53260225D01*
X52909806Y-53482403D01*
X52823118Y-53691688D01*
X52697264Y-53880041D01*
X52537081Y-54040224D01*
X52348728Y-54166078D01*
X52139443Y-54252766D01*
X51917265Y-54296960D01*
X51690735Y-54296960D01*
X51468557Y-54252766D01*
X51259272Y-54166078D01*
X51070919Y-54040224D01*
X50910736Y-53880041D01*
X50784882Y-53691688D01*
X50698194Y-53482403D01*
X50654000Y-53260225D01*
X50654000Y-53033695D01*
X50698194Y-52811517D01*
X50784882Y-52602232D01*
X50910736Y-52413879D01*
X51070919Y-52253696D01*
X51259272Y-52127842D01*
X51468557Y-52041154D01*
X51690735Y-51996960D01*
X51917265Y-51996960D01*
X52139443Y-52041154D01*
G37*
G36*
X61387443Y-52041154D02*
G01*
X61596728Y-52127842D01*
X61785081Y-52253696D01*
X61945264Y-52413879D01*
X62071118Y-52602232D01*
X62157806Y-52811517D01*
X62202000Y-53033695D01*
X62202000Y-53260225D01*
X62157806Y-53482403D01*
X62071118Y-53691688D01*
X61945264Y-53880041D01*
X61785081Y-54040224D01*
X61596728Y-54166078D01*
X61387443Y-54252766D01*
X61165265Y-54296960D01*
X60938735Y-54296960D01*
X60716557Y-54252766D01*
X60507272Y-54166078D01*
X60318919Y-54040224D01*
X60158736Y-53880041D01*
X60032882Y-53691688D01*
X59946194Y-53482403D01*
X59902000Y-53260225D01*
X59902000Y-53033695D01*
X59946194Y-52811517D01*
X60032882Y-52602232D01*
X60158736Y-52413879D01*
X60318919Y-52253696D01*
X60507272Y-52127842D01*
X60716557Y-52041154D01*
X60938735Y-51996960D01*
X61165265Y-51996960D01*
X61387443Y-52041154D01*
G37*
G36*
X67887443Y-52041154D02*
G01*
X68096728Y-52127842D01*
X68285081Y-52253696D01*
X68445264Y-52413879D01*
X68571118Y-52602232D01*
X68657806Y-52811517D01*
X68702000Y-53033695D01*
X68702000Y-53260225D01*
X68657806Y-53482403D01*
X68571118Y-53691688D01*
X68445264Y-53880041D01*
X68285081Y-54040224D01*
X68096728Y-54166078D01*
X67887443Y-54252766D01*
X67665265Y-54296960D01*
X67438735Y-54296960D01*
X67216557Y-54252766D01*
X67007272Y-54166078D01*
X66818919Y-54040224D01*
X66658736Y-53880041D01*
X66532882Y-53691688D01*
X66446194Y-53482403D01*
X66402000Y-53260225D01*
X66402000Y-53033695D01*
X66446194Y-52811517D01*
X66532882Y-52602232D01*
X66658736Y-52413879D01*
X66818919Y-52253696D01*
X67007272Y-52127842D01*
X67216557Y-52041154D01*
X67438735Y-51996960D01*
X67665265Y-51996960D01*
X67887443Y-52041154D01*
G37*
G36*
X29891443Y-52041154D02*
G01*
X30100728Y-52127842D01*
X30289081Y-52253696D01*
X30449264Y-52413879D01*
X30575118Y-52602232D01*
X30661806Y-52811517D01*
X30706000Y-53033695D01*
X30706000Y-53260225D01*
X30661806Y-53482403D01*
X30575118Y-53691688D01*
X30449264Y-53880041D01*
X30289081Y-54040224D01*
X30100728Y-54166078D01*
X29891443Y-54252766D01*
X29669265Y-54296960D01*
X29442735Y-54296960D01*
X29220557Y-54252766D01*
X29011272Y-54166078D01*
X28822919Y-54040224D01*
X28662736Y-53880041D01*
X28536882Y-53691688D01*
X28450194Y-53482403D01*
X28406000Y-53260225D01*
X28406000Y-53033695D01*
X28450194Y-52811517D01*
X28536882Y-52602232D01*
X28662736Y-52413879D01*
X28822919Y-52253696D01*
X29011272Y-52127842D01*
X29220557Y-52041154D01*
X29442735Y-51996960D01*
X29669265Y-51996960D01*
X29891443Y-52041154D01*
G37*
G36*
X45639443Y-52041154D02*
G01*
X45848728Y-52127842D01*
X46037081Y-52253696D01*
X46197264Y-52413879D01*
X46323118Y-52602232D01*
X46409806Y-52811517D01*
X46454000Y-53033695D01*
X46454000Y-53260225D01*
X46409806Y-53482403D01*
X46323118Y-53691688D01*
X46197264Y-53880041D01*
X46037081Y-54040224D01*
X45848728Y-54166078D01*
X45639443Y-54252766D01*
X45417265Y-54296960D01*
X45190735Y-54296960D01*
X44968557Y-54252766D01*
X44759272Y-54166078D01*
X44570919Y-54040224D01*
X44410736Y-53880041D01*
X44284882Y-53691688D01*
X44198194Y-53482403D01*
X44154000Y-53260225D01*
X44154000Y-53033695D01*
X44198194Y-52811517D01*
X44284882Y-52602232D01*
X44410736Y-52413879D01*
X44570919Y-52253696D01*
X44759272Y-52127842D01*
X44968557Y-52041154D01*
X45190735Y-51996960D01*
X45417265Y-51996960D01*
X45639443Y-52041154D01*
G37*
G36*
X36391443Y-52041154D02*
G01*
X36600728Y-52127842D01*
X36789081Y-52253696D01*
X36949264Y-52413879D01*
X37075118Y-52602232D01*
X37161806Y-52811517D01*
X37206000Y-53033695D01*
X37206000Y-53260225D01*
X37161806Y-53482403D01*
X37075118Y-53691688D01*
X36949264Y-53880041D01*
X36789081Y-54040224D01*
X36600728Y-54166078D01*
X36391443Y-54252766D01*
X36169265Y-54296960D01*
X35942735Y-54296960D01*
X35720557Y-54252766D01*
X35511272Y-54166078D01*
X35322919Y-54040224D01*
X35162736Y-53880041D01*
X35036882Y-53691688D01*
X34950194Y-53482403D01*
X34906000Y-53260225D01*
X34906000Y-53033695D01*
X34950194Y-52811517D01*
X35036882Y-52602232D01*
X35162736Y-52413879D01*
X35322919Y-52253696D01*
X35511272Y-52127842D01*
X35720557Y-52041154D01*
X35942735Y-51996960D01*
X36169265Y-51996960D01*
X36391443Y-52041154D01*
G37*
G36*
X78404237Y-48019131D02*
G01*
X78968401Y-48252815D01*
X79476135Y-48592072D01*
X79907928Y-49023865D01*
X80247185Y-49531599D01*
X80338795Y-49752766D01*
X80480869Y-50095763D01*
X80589246Y-50640610D01*
X80600000Y-50694677D01*
X80600000Y-51305323D01*
X80480869Y-51904237D01*
X80247185Y-52468401D01*
X79907928Y-52976135D01*
X79476135Y-53407928D01*
X78968401Y-53747185D01*
X78404237Y-53980869D01*
X77805324Y-54100000D01*
X77194676Y-54100000D01*
X76595763Y-53980869D01*
X76031599Y-53747185D01*
X75523865Y-53407928D01*
X75092072Y-52976135D01*
X74752815Y-52468401D01*
X74519131Y-51904237D01*
X74400000Y-51305323D01*
X74400000Y-50694677D01*
X74410755Y-50640610D01*
X74519131Y-50095763D01*
X74661205Y-49752766D01*
X74752815Y-49531599D01*
X75092072Y-49023865D01*
X75523865Y-48592072D01*
X76031599Y-48252815D01*
X76595763Y-48019131D01*
X77194676Y-47900000D01*
X77805324Y-47900000D01*
X78404237Y-48019131D01*
G37*
G36*
X20404237Y-48019131D02*
G01*
X20968401Y-48252815D01*
X21476135Y-48592072D01*
X21907928Y-49023865D01*
X22247185Y-49531599D01*
X22338795Y-49752766D01*
X22480869Y-50095763D01*
X22589246Y-50640610D01*
X22600000Y-50694677D01*
X22600000Y-51305323D01*
X22480869Y-51904237D01*
X22247185Y-52468401D01*
X21907928Y-52976135D01*
X21476135Y-53407928D01*
X20968401Y-53747185D01*
X20404237Y-53980869D01*
X19805324Y-54100000D01*
X19194676Y-54100000D01*
X18595763Y-53980869D01*
X18031599Y-53747185D01*
X17523865Y-53407928D01*
X17092072Y-52976135D01*
X16752815Y-52468401D01*
X16519131Y-51904237D01*
X16400000Y-51305323D01*
X16400000Y-50694677D01*
X16410755Y-50640610D01*
X16519131Y-50095763D01*
X16661205Y-49752766D01*
X16752815Y-49531599D01*
X17092072Y-49023865D01*
X17523865Y-48592072D01*
X18031599Y-48252815D01*
X18595763Y-48019131D01*
X19194676Y-47900000D01*
X19805324Y-47900000D01*
X20404237Y-48019131D01*
G37*
G36*
X25399000Y-53220960D02*
G01*
X23299000Y-53220960D01*
X23299000Y-51120960D01*
X25399000Y-51120960D01*
X25399000Y-53220960D01*
G37*
G36*
X73809000Y-53220960D02*
G01*
X71709000Y-53220960D01*
X71709000Y-51120960D01*
X73809000Y-51120960D01*
X73809000Y-53220960D01*
G37*
G36*
X24655274Y-48621310D02*
G01*
X24846362Y-48700462D01*
X25018336Y-48815371D01*
X25164589Y-48961624D01*
X25279498Y-49133598D01*
X25358650Y-49324686D01*
X25399000Y-49527544D01*
X25399000Y-49734376D01*
X25358650Y-49937234D01*
X25279498Y-50128322D01*
X25164589Y-50300296D01*
X25018336Y-50446549D01*
X24846362Y-50561458D01*
X24655274Y-50640610D01*
X24452416Y-50680960D01*
X24245584Y-50680960D01*
X24042726Y-50640610D01*
X23851638Y-50561458D01*
X23679664Y-50446549D01*
X23533411Y-50300296D01*
X23418502Y-50128322D01*
X23339350Y-49937234D01*
X23299000Y-49734376D01*
X23299000Y-49527544D01*
X23339350Y-49324686D01*
X23418502Y-49133598D01*
X23533411Y-48961624D01*
X23679664Y-48815371D01*
X23851638Y-48700462D01*
X24042726Y-48621310D01*
X24245584Y-48580960D01*
X24452416Y-48580960D01*
X24655274Y-48621310D01*
G37*
G36*
X73065274Y-48621310D02*
G01*
X73256362Y-48700462D01*
X73428336Y-48815371D01*
X73574589Y-48961624D01*
X73689498Y-49133598D01*
X73768650Y-49324686D01*
X73809000Y-49527544D01*
X73809000Y-49734376D01*
X73768650Y-49937234D01*
X73689498Y-50128322D01*
X73574589Y-50300296D01*
X73428336Y-50446549D01*
X73256362Y-50561458D01*
X73065274Y-50640610D01*
X72862416Y-50680960D01*
X72655584Y-50680960D01*
X72452726Y-50640610D01*
X72261638Y-50561458D01*
X72089664Y-50446549D01*
X71943411Y-50300296D01*
X71828502Y-50128322D01*
X71749350Y-49937234D01*
X71709000Y-49734376D01*
X71709000Y-49527544D01*
X71749350Y-49324686D01*
X71828502Y-49133598D01*
X71943411Y-48961624D01*
X72089664Y-48815371D01*
X72261638Y-48700462D01*
X72452726Y-48621310D01*
X72655584Y-48580960D01*
X72862416Y-48580960D01*
X73065274Y-48621310D01*
G37*
G36*
X36391443Y-47541154D02*
G01*
X36600728Y-47627842D01*
X36789081Y-47753696D01*
X36949264Y-47913879D01*
X37075118Y-48102232D01*
X37161806Y-48311517D01*
X37206000Y-48533695D01*
X37206000Y-48760225D01*
X37161806Y-48982403D01*
X37075118Y-49191688D01*
X36949264Y-49380041D01*
X36789081Y-49540224D01*
X36600728Y-49666078D01*
X36391443Y-49752766D01*
X36169265Y-49796960D01*
X35942735Y-49796960D01*
X35720557Y-49752766D01*
X35511272Y-49666078D01*
X35322919Y-49540224D01*
X35162736Y-49380041D01*
X35036882Y-49191688D01*
X34950194Y-48982403D01*
X34906000Y-48760225D01*
X34906000Y-48533695D01*
X34950194Y-48311517D01*
X35036882Y-48102232D01*
X35162736Y-47913879D01*
X35322919Y-47753696D01*
X35511272Y-47627842D01*
X35720557Y-47541154D01*
X35942735Y-47496960D01*
X36169265Y-47496960D01*
X36391443Y-47541154D01*
G37*
G36*
X67887443Y-47541154D02*
G01*
X68096728Y-47627842D01*
X68285081Y-47753696D01*
X68445264Y-47913879D01*
X68571118Y-48102232D01*
X68657806Y-48311517D01*
X68702000Y-48533695D01*
X68702000Y-48760225D01*
X68657806Y-48982403D01*
X68571118Y-49191688D01*
X68445264Y-49380041D01*
X68285081Y-49540224D01*
X68096728Y-49666078D01*
X67887443Y-49752766D01*
X67665265Y-49796960D01*
X67438735Y-49796960D01*
X67216557Y-49752766D01*
X67007272Y-49666078D01*
X66818919Y-49540224D01*
X66658736Y-49380041D01*
X66532882Y-49191688D01*
X66446194Y-48982403D01*
X66402000Y-48760225D01*
X66402000Y-48533695D01*
X66446194Y-48311517D01*
X66532882Y-48102232D01*
X66658736Y-47913879D01*
X66818919Y-47753696D01*
X67007272Y-47627842D01*
X67216557Y-47541154D01*
X67438735Y-47496960D01*
X67665265Y-47496960D01*
X67887443Y-47541154D01*
G37*
G36*
X61387443Y-47541154D02*
G01*
X61596728Y-47627842D01*
X61785081Y-47753696D01*
X61945264Y-47913879D01*
X62071118Y-48102232D01*
X62157806Y-48311517D01*
X62202000Y-48533695D01*
X62202000Y-48760225D01*
X62157806Y-48982403D01*
X62071118Y-49191688D01*
X61945264Y-49380041D01*
X61785081Y-49540224D01*
X61596728Y-49666078D01*
X61387443Y-49752766D01*
X61165265Y-49796960D01*
X60938735Y-49796960D01*
X60716557Y-49752766D01*
X60507272Y-49666078D01*
X60318919Y-49540224D01*
X60158736Y-49380041D01*
X60032882Y-49191688D01*
X59946194Y-48982403D01*
X59902000Y-48760225D01*
X59902000Y-48533695D01*
X59946194Y-48311517D01*
X60032882Y-48102232D01*
X60158736Y-47913879D01*
X60318919Y-47753696D01*
X60507272Y-47627842D01*
X60716557Y-47541154D01*
X60938735Y-47496960D01*
X61165265Y-47496960D01*
X61387443Y-47541154D01*
G37*
G36*
X52139443Y-47541154D02*
G01*
X52348728Y-47627842D01*
X52537081Y-47753696D01*
X52697264Y-47913879D01*
X52823118Y-48102232D01*
X52909806Y-48311517D01*
X52954000Y-48533695D01*
X52954000Y-48760225D01*
X52909806Y-48982403D01*
X52823118Y-49191688D01*
X52697264Y-49380041D01*
X52537081Y-49540224D01*
X52348728Y-49666078D01*
X52139443Y-49752766D01*
X51917265Y-49796960D01*
X51690735Y-49796960D01*
X51468557Y-49752766D01*
X51259272Y-49666078D01*
X51070919Y-49540224D01*
X50910736Y-49380041D01*
X50784882Y-49191688D01*
X50698194Y-48982403D01*
X50654000Y-48760225D01*
X50654000Y-48533695D01*
X50698194Y-48311517D01*
X50784882Y-48102232D01*
X50910736Y-47913879D01*
X51070919Y-47753696D01*
X51259272Y-47627842D01*
X51468557Y-47541154D01*
X51690735Y-47496960D01*
X51917265Y-47496960D01*
X52139443Y-47541154D01*
G37*
G36*
X29891443Y-47541154D02*
G01*
X30100728Y-47627842D01*
X30289081Y-47753696D01*
X30449264Y-47913879D01*
X30575118Y-48102232D01*
X30661806Y-48311517D01*
X30706000Y-48533695D01*
X30706000Y-48760225D01*
X30661806Y-48982403D01*
X30575118Y-49191688D01*
X30449264Y-49380041D01*
X30289081Y-49540224D01*
X30100728Y-49666078D01*
X29891443Y-49752766D01*
X29669265Y-49796960D01*
X29442735Y-49796960D01*
X29220557Y-49752766D01*
X29011272Y-49666078D01*
X28822919Y-49540224D01*
X28662736Y-49380041D01*
X28536882Y-49191688D01*
X28450194Y-48982403D01*
X28406000Y-48760225D01*
X28406000Y-48533695D01*
X28450194Y-48311517D01*
X28536882Y-48102232D01*
X28662736Y-47913879D01*
X28822919Y-47753696D01*
X29011272Y-47627842D01*
X29220557Y-47541154D01*
X29442735Y-47496960D01*
X29669265Y-47496960D01*
X29891443Y-47541154D01*
G37*
G36*
X45639443Y-47541154D02*
G01*
X45848728Y-47627842D01*
X46037081Y-47753696D01*
X46197264Y-47913879D01*
X46323118Y-48102232D01*
X46409806Y-48311517D01*
X46454000Y-48533695D01*
X46454000Y-48760225D01*
X46409806Y-48982403D01*
X46323118Y-49191688D01*
X46197264Y-49380041D01*
X46037081Y-49540224D01*
X45848728Y-49666078D01*
X45639443Y-49752766D01*
X45417265Y-49796960D01*
X45190735Y-49796960D01*
X44968557Y-49752766D01*
X44759272Y-49666078D01*
X44570919Y-49540224D01*
X44410736Y-49380041D01*
X44284882Y-49191688D01*
X44198194Y-48982403D01*
X44154000Y-48760225D01*
X44154000Y-48533695D01*
X44198194Y-48311517D01*
X44284882Y-48102232D01*
X44410736Y-47913879D01*
X44570919Y-47753696D01*
X44759272Y-47627842D01*
X44968557Y-47541154D01*
X45190735Y-47496960D01*
X45417265Y-47496960D01*
X45639443Y-47541154D01*
G37*
G36*
X27048921Y-45677604D02*
G01*
X27203689Y-45708389D01*
X27385678Y-45783771D01*
X27549463Y-45893209D01*
X27688751Y-46032497D01*
X27798189Y-46196282D01*
X27873571Y-46378271D01*
X27912000Y-46571469D01*
X27912000Y-46768451D01*
X27873571Y-46961649D01*
X27798189Y-47143638D01*
X27688751Y-47307423D01*
X27549463Y-47446711D01*
X27385678Y-47556149D01*
X27203689Y-47631531D01*
X27048921Y-47662316D01*
X27010492Y-47669960D01*
X26813508Y-47669960D01*
X26775079Y-47662316D01*
X26620311Y-47631531D01*
X26438322Y-47556149D01*
X26274537Y-47446711D01*
X26135249Y-47307423D01*
X26025811Y-47143638D01*
X25950429Y-46961649D01*
X25912000Y-46768451D01*
X25912000Y-46571469D01*
X25950429Y-46378271D01*
X26025811Y-46196282D01*
X26135249Y-46032497D01*
X26274537Y-45893209D01*
X26438322Y-45783771D01*
X26620311Y-45708389D01*
X26775079Y-45677604D01*
X26813508Y-45669960D01*
X27010492Y-45669960D01*
X27048921Y-45677604D01*
G37*
G36*
X25372000Y-47669960D02*
G01*
X23372000Y-47669960D01*
X23372000Y-45669960D01*
X25372000Y-45669960D01*
X25372000Y-47669960D01*
G37*
G36*
X65687800Y-47010360D02*
G01*
X63787800Y-47010360D01*
X63787800Y-45110360D01*
X65687800Y-45110360D01*
X65687800Y-47010360D01*
G37*
G36*
X19607000Y-46857960D02*
G01*
X17707000Y-46857960D01*
X17707000Y-44957960D01*
X19607000Y-44957960D01*
X19607000Y-46857960D01*
G37*
G36*
X22528000Y-46857960D02*
G01*
X20628000Y-46857960D01*
X20628000Y-44957960D01*
X22528000Y-44957960D01*
X22528000Y-46857960D01*
G37*
G36*
X67694121Y-44382204D02*
G01*
X67848889Y-44412989D01*
X68030878Y-44488371D01*
X68194663Y-44597809D01*
X68333951Y-44737097D01*
X68443389Y-44900882D01*
X68518771Y-45082871D01*
X68557200Y-45276069D01*
X68557200Y-45473051D01*
X68518771Y-45666249D01*
X68443389Y-45848238D01*
X68333951Y-46012023D01*
X68194663Y-46151311D01*
X68030878Y-46260749D01*
X67848889Y-46336131D01*
X67694121Y-46366916D01*
X67655692Y-46374560D01*
X67458708Y-46374560D01*
X67420279Y-46366916D01*
X67265511Y-46336131D01*
X67083522Y-46260749D01*
X66919737Y-46151311D01*
X66780449Y-46012023D01*
X66671011Y-45848238D01*
X66595629Y-45666249D01*
X66557200Y-45473051D01*
X66557200Y-45276069D01*
X66595629Y-45082871D01*
X66671011Y-44900882D01*
X66780449Y-44737097D01*
X66919737Y-44597809D01*
X67083522Y-44488371D01*
X67265511Y-44412989D01*
X67420279Y-44382204D01*
X67458708Y-44374560D01*
X67655692Y-44374560D01*
X67694121Y-44382204D01*
G37*
G36*
X71097200Y-46374560D02*
G01*
X69097200Y-46374560D01*
X69097200Y-44374560D01*
X71097200Y-44374560D01*
X71097200Y-46374560D01*
G37*
G36*
X27048921Y-43137604D02*
G01*
X27203689Y-43168389D01*
X27385678Y-43243771D01*
X27549463Y-43353209D01*
X27688751Y-43492497D01*
X27798189Y-43656282D01*
X27873571Y-43838271D01*
X27912000Y-44031469D01*
X27912000Y-44228451D01*
X27873571Y-44421649D01*
X27798189Y-44603638D01*
X27688751Y-44767423D01*
X27549463Y-44906711D01*
X27385678Y-45016149D01*
X27203689Y-45091531D01*
X27048921Y-45122316D01*
X27010492Y-45129960D01*
X26813508Y-45129960D01*
X26775079Y-45122316D01*
X26620311Y-45091531D01*
X26438322Y-45016149D01*
X26274537Y-44906711D01*
X26135249Y-44767423D01*
X26025811Y-44603638D01*
X25950429Y-44421649D01*
X25912000Y-44228451D01*
X25912000Y-44031469D01*
X25950429Y-43838271D01*
X26025811Y-43656282D01*
X26135249Y-43492497D01*
X26274537Y-43353209D01*
X26438322Y-43243771D01*
X26620311Y-43168389D01*
X26775079Y-43137604D01*
X26813508Y-43129960D01*
X27010492Y-43129960D01*
X27048921Y-43137604D01*
G37*
G36*
X24508921Y-43137604D02*
G01*
X24663689Y-43168389D01*
X24845678Y-43243771D01*
X25009463Y-43353209D01*
X25148751Y-43492497D01*
X25258189Y-43656282D01*
X25333571Y-43838271D01*
X25372000Y-44031469D01*
X25372000Y-44228451D01*
X25333571Y-44421649D01*
X25258189Y-44603638D01*
X25148751Y-44767423D01*
X25009463Y-44906711D01*
X24845678Y-45016149D01*
X24663689Y-45091531D01*
X24508921Y-45122316D01*
X24470492Y-45129960D01*
X24273508Y-45129960D01*
X24235079Y-45122316D01*
X24080311Y-45091531D01*
X23898322Y-45016149D01*
X23734537Y-44906711D01*
X23595249Y-44767423D01*
X23485811Y-44603638D01*
X23410429Y-44421649D01*
X23372000Y-44228451D01*
X23372000Y-44031469D01*
X23410429Y-43838271D01*
X23485811Y-43656282D01*
X23595249Y-43492497D01*
X23734537Y-43353209D01*
X23898322Y-43243771D01*
X24080311Y-43168389D01*
X24235079Y-43137604D01*
X24273508Y-43129960D01*
X24470492Y-43129960D01*
X24508921Y-43137604D01*
G37*
G36*
X75452443Y-42285154D02*
G01*
X75661728Y-42371842D01*
X75850081Y-42497696D01*
X76010264Y-42657879D01*
X76136118Y-42846232D01*
X76222806Y-43055517D01*
X76267000Y-43277695D01*
X76267000Y-43504225D01*
X76222806Y-43726403D01*
X76136118Y-43935688D01*
X76010264Y-44124041D01*
X75850081Y-44284224D01*
X75661728Y-44410078D01*
X75472710Y-44488371D01*
X75452443Y-44496766D01*
X75230265Y-44540960D01*
X75003735Y-44540960D01*
X74781557Y-44496766D01*
X74761290Y-44488371D01*
X74572272Y-44410078D01*
X74383919Y-44284224D01*
X74223736Y-44124041D01*
X74097882Y-43935688D01*
X74011194Y-43726403D01*
X73967000Y-43504225D01*
X73967000Y-43277695D01*
X74011194Y-43055517D01*
X74097882Y-42846232D01*
X74223736Y-42657879D01*
X74383919Y-42497696D01*
X74572272Y-42371842D01*
X74781557Y-42285154D01*
X75003735Y-42240960D01*
X75230265Y-42240960D01*
X75452443Y-42285154D01*
G37*
G36*
X79952443Y-42285154D02*
G01*
X80161728Y-42371842D01*
X80350081Y-42497696D01*
X80510264Y-42657879D01*
X80636118Y-42846232D01*
X80722806Y-43055517D01*
X80767000Y-43277695D01*
X80767000Y-43504225D01*
X80722806Y-43726403D01*
X80636118Y-43935688D01*
X80510264Y-44124041D01*
X80350081Y-44284224D01*
X80161728Y-44410078D01*
X79972710Y-44488371D01*
X79952443Y-44496766D01*
X79730265Y-44540960D01*
X79503735Y-44540960D01*
X79281557Y-44496766D01*
X79261290Y-44488371D01*
X79072272Y-44410078D01*
X78883919Y-44284224D01*
X78723736Y-44124041D01*
X78597882Y-43935688D01*
X78511194Y-43726403D01*
X78467000Y-43504225D01*
X78467000Y-43277695D01*
X78511194Y-43055517D01*
X78597882Y-42846232D01*
X78723736Y-42657879D01*
X78883919Y-42497696D01*
X79072272Y-42371842D01*
X79281557Y-42285154D01*
X79503735Y-42240960D01*
X79730265Y-42240960D01*
X79952443Y-42285154D01*
G37*
G36*
X65014905Y-42606868D02*
G01*
X65138057Y-42657879D01*
X65187794Y-42678481D01*
X65343390Y-42782447D01*
X65475713Y-42914770D01*
X65569757Y-43055517D01*
X65579680Y-43070368D01*
X65620282Y-43168390D01*
X65651292Y-43243255D01*
X65687800Y-43426793D01*
X65687800Y-43613927D01*
X65651292Y-43797465D01*
X65579679Y-43970354D01*
X65475713Y-44125950D01*
X65343390Y-44258273D01*
X65187794Y-44362239D01*
X65187793Y-44362240D01*
X65187792Y-44362240D01*
X65065273Y-44412989D01*
X65014905Y-44433852D01*
X64831367Y-44470360D01*
X64644233Y-44470360D01*
X64460695Y-44433852D01*
X64410327Y-44412989D01*
X64287808Y-44362240D01*
X64287807Y-44362240D01*
X64287806Y-44362239D01*
X64132210Y-44258273D01*
X63999887Y-44125950D01*
X63895921Y-43970354D01*
X63824308Y-43797465D01*
X63787800Y-43613927D01*
X63787800Y-43426793D01*
X63824308Y-43243255D01*
X63855318Y-43168390D01*
X63895920Y-43070368D01*
X63905843Y-43055517D01*
X63999887Y-42914770D01*
X64132210Y-42782447D01*
X64287806Y-42678481D01*
X64337544Y-42657879D01*
X64460695Y-42606868D01*
X64644233Y-42570360D01*
X64831367Y-42570360D01*
X65014905Y-42606868D01*
G37*
G36*
X21855105Y-42454468D02*
G01*
X22027994Y-42526081D01*
X22183590Y-42630047D01*
X22315913Y-42762370D01*
X22419879Y-42917966D01*
X22419880Y-42917968D01*
X22491492Y-43090855D01*
X22528000Y-43274393D01*
X22528000Y-43461527D01*
X22491492Y-43645065D01*
X22428919Y-43796131D01*
X22419879Y-43817954D01*
X22315913Y-43973550D01*
X22183590Y-44105873D01*
X22027994Y-44209839D01*
X22027993Y-44209840D01*
X22027992Y-44209840D01*
X21911064Y-44258273D01*
X21855105Y-44281452D01*
X21671567Y-44317960D01*
X21484433Y-44317960D01*
X21300895Y-44281452D01*
X21244936Y-44258273D01*
X21128008Y-44209840D01*
X21128007Y-44209840D01*
X21128006Y-44209839D01*
X20972410Y-44105873D01*
X20840087Y-43973550D01*
X20736121Y-43817954D01*
X20727082Y-43796131D01*
X20664508Y-43645065D01*
X20628000Y-43461527D01*
X20628000Y-43274393D01*
X20664508Y-43090855D01*
X20736120Y-42917968D01*
X20736121Y-42917966D01*
X20840087Y-42762370D01*
X20972410Y-42630047D01*
X21128006Y-42526081D01*
X21300895Y-42454468D01*
X21484433Y-42417960D01*
X21671567Y-42417960D01*
X21855105Y-42454468D01*
G37*
G36*
X18934105Y-42454468D02*
G01*
X19106994Y-42526081D01*
X19262590Y-42630047D01*
X19394913Y-42762370D01*
X19498879Y-42917966D01*
X19498880Y-42917968D01*
X19570492Y-43090855D01*
X19607000Y-43274393D01*
X19607000Y-43461527D01*
X19570492Y-43645065D01*
X19507919Y-43796131D01*
X19498879Y-43817954D01*
X19394913Y-43973550D01*
X19262590Y-44105873D01*
X19106994Y-44209839D01*
X19106993Y-44209840D01*
X19106992Y-44209840D01*
X18934105Y-44281452D01*
X18750567Y-44317960D01*
X18563433Y-44317960D01*
X18379895Y-44281452D01*
X18207008Y-44209840D01*
X18207007Y-44209840D01*
X18207006Y-44209839D01*
X18051410Y-44105873D01*
X17919087Y-43973550D01*
X17815121Y-43817954D01*
X17806082Y-43796131D01*
X17743508Y-43645065D01*
X17707000Y-43461527D01*
X17707000Y-43274393D01*
X17743508Y-43090855D01*
X17815120Y-42917968D01*
X17815121Y-42917966D01*
X17919087Y-42762370D01*
X18051410Y-42630047D01*
X18207006Y-42526081D01*
X18379895Y-42454468D01*
X18563433Y-42417960D01*
X18750567Y-42417960D01*
X18934105Y-42454468D01*
G37*
G36*
X70234121Y-41842204D02*
G01*
X70388889Y-41872989D01*
X70570878Y-41948371D01*
X70734663Y-42057809D01*
X70873951Y-42197097D01*
X70983389Y-42360882D01*
X71058771Y-42542871D01*
X71097200Y-42736069D01*
X71097200Y-42933051D01*
X71058771Y-43126249D01*
X70983389Y-43308238D01*
X70873951Y-43472023D01*
X70734663Y-43611311D01*
X70570878Y-43720749D01*
X70388889Y-43796131D01*
X70234121Y-43826916D01*
X70195692Y-43834560D01*
X69998708Y-43834560D01*
X69960279Y-43826916D01*
X69805511Y-43796131D01*
X69623522Y-43720749D01*
X69459737Y-43611311D01*
X69320449Y-43472023D01*
X69211011Y-43308238D01*
X69135629Y-43126249D01*
X69097200Y-42933051D01*
X69097200Y-42736069D01*
X69135629Y-42542871D01*
X69211011Y-42360882D01*
X69320449Y-42197097D01*
X69459737Y-42057809D01*
X69623522Y-41948371D01*
X69805511Y-41872989D01*
X69960279Y-41842204D01*
X69998708Y-41834560D01*
X70195692Y-41834560D01*
X70234121Y-41842204D01*
G37*
G36*
X67694121Y-41842204D02*
G01*
X67848889Y-41872989D01*
X68030878Y-41948371D01*
X68194663Y-42057809D01*
X68333951Y-42197097D01*
X68443389Y-42360882D01*
X68518771Y-42542871D01*
X68557200Y-42736069D01*
X68557200Y-42933051D01*
X68518771Y-43126249D01*
X68443389Y-43308238D01*
X68333951Y-43472023D01*
X68194663Y-43611311D01*
X68030878Y-43720749D01*
X67848889Y-43796131D01*
X67694121Y-43826916D01*
X67655692Y-43834560D01*
X67458708Y-43834560D01*
X67420279Y-43826916D01*
X67265511Y-43796131D01*
X67083522Y-43720749D01*
X66919737Y-43611311D01*
X66780449Y-43472023D01*
X66671011Y-43308238D01*
X66595629Y-43126249D01*
X66557200Y-42933051D01*
X66557200Y-42736069D01*
X66595629Y-42542871D01*
X66671011Y-42360882D01*
X66780449Y-42197097D01*
X66919737Y-42057809D01*
X67083522Y-41948371D01*
X67265511Y-41872989D01*
X67420279Y-41842204D01*
X67458708Y-41834560D01*
X67655692Y-41834560D01*
X67694121Y-41842204D01*
G37*
G36*
X27048921Y-40597604D02*
G01*
X27203689Y-40628389D01*
X27385678Y-40703771D01*
X27549463Y-40813209D01*
X27688751Y-40952497D01*
X27798189Y-41116282D01*
X27873571Y-41298271D01*
X27912000Y-41491469D01*
X27912000Y-41688451D01*
X27873571Y-41881649D01*
X27798189Y-42063638D01*
X27688751Y-42227423D01*
X27549463Y-42366711D01*
X27385678Y-42476149D01*
X27203689Y-42551531D01*
X27048921Y-42582316D01*
X27010492Y-42589960D01*
X26813508Y-42589960D01*
X26775079Y-42582316D01*
X26620311Y-42551531D01*
X26438322Y-42476149D01*
X26274537Y-42366711D01*
X26135249Y-42227423D01*
X26025811Y-42063638D01*
X25950429Y-41881649D01*
X25912000Y-41688451D01*
X25912000Y-41491469D01*
X25950429Y-41298271D01*
X26025811Y-41116282D01*
X26135249Y-40952497D01*
X26274537Y-40813209D01*
X26438322Y-40703771D01*
X26620311Y-40628389D01*
X26775079Y-40597604D01*
X26813508Y-40589960D01*
X27010492Y-40589960D01*
X27048921Y-40597604D01*
G37*
G36*
X24508921Y-40597604D02*
G01*
X24663689Y-40628389D01*
X24845678Y-40703771D01*
X25009463Y-40813209D01*
X25148751Y-40952497D01*
X25258189Y-41116282D01*
X25333571Y-41298271D01*
X25372000Y-41491469D01*
X25372000Y-41688451D01*
X25333571Y-41881649D01*
X25258189Y-42063638D01*
X25148751Y-42227423D01*
X25009463Y-42366711D01*
X24845678Y-42476149D01*
X24663689Y-42551531D01*
X24508921Y-42582316D01*
X24470492Y-42589960D01*
X24273508Y-42589960D01*
X24235079Y-42582316D01*
X24080311Y-42551531D01*
X23898322Y-42476149D01*
X23734537Y-42366711D01*
X23595249Y-42227423D01*
X23485811Y-42063638D01*
X23410429Y-41881649D01*
X23372000Y-41688451D01*
X23372000Y-41491469D01*
X23410429Y-41298271D01*
X23485811Y-41116282D01*
X23595249Y-40952497D01*
X23734537Y-40813209D01*
X23898322Y-40703771D01*
X24080311Y-40628389D01*
X24235079Y-40597604D01*
X24273508Y-40589960D01*
X24470492Y-40589960D01*
X24508921Y-40597604D01*
G37*
G36*
X65014905Y-40066868D02*
G01*
X65187794Y-40138481D01*
X65343390Y-40242447D01*
X65475713Y-40374770D01*
X65579679Y-40530366D01*
X65579680Y-40530368D01*
X65620282Y-40628390D01*
X65651292Y-40703255D01*
X65687800Y-40886793D01*
X65687800Y-41073927D01*
X65651292Y-41257465D01*
X65579679Y-41430354D01*
X65475713Y-41585950D01*
X65343390Y-41718273D01*
X65187794Y-41822239D01*
X65187793Y-41822240D01*
X65187792Y-41822240D01*
X65065273Y-41872989D01*
X65014905Y-41893852D01*
X64831367Y-41930360D01*
X64644233Y-41930360D01*
X64460695Y-41893852D01*
X64410327Y-41872989D01*
X64287808Y-41822240D01*
X64287807Y-41822240D01*
X64287806Y-41822239D01*
X64132210Y-41718273D01*
X63999887Y-41585950D01*
X63895921Y-41430354D01*
X63824308Y-41257465D01*
X63787800Y-41073927D01*
X63787800Y-40886793D01*
X63824308Y-40703255D01*
X63855318Y-40628390D01*
X63895920Y-40530368D01*
X63895921Y-40530366D01*
X63999887Y-40374770D01*
X64132210Y-40242447D01*
X64287806Y-40138481D01*
X64460695Y-40066868D01*
X64644233Y-40030360D01*
X64831367Y-40030360D01*
X65014905Y-40066868D01*
G37*
G36*
X21855105Y-39914468D02*
G01*
X22027994Y-39986081D01*
X22183590Y-40090047D01*
X22315913Y-40222370D01*
X22419879Y-40377966D01*
X22419880Y-40377968D01*
X22491492Y-40550855D01*
X22528000Y-40734393D01*
X22528000Y-40921527D01*
X22491492Y-41105065D01*
X22428919Y-41256131D01*
X22419879Y-41277954D01*
X22315913Y-41433550D01*
X22183590Y-41565873D01*
X22027994Y-41669839D01*
X22027993Y-41669840D01*
X22027992Y-41669840D01*
X21911064Y-41718273D01*
X21855105Y-41741452D01*
X21671567Y-41777960D01*
X21484433Y-41777960D01*
X21300895Y-41741452D01*
X21244936Y-41718273D01*
X21128008Y-41669840D01*
X21128007Y-41669840D01*
X21128006Y-41669839D01*
X20972410Y-41565873D01*
X20840087Y-41433550D01*
X20736121Y-41277954D01*
X20727082Y-41256131D01*
X20664508Y-41105065D01*
X20628000Y-40921527D01*
X20628000Y-40734393D01*
X20664508Y-40550855D01*
X20736120Y-40377968D01*
X20736121Y-40377966D01*
X20840087Y-40222370D01*
X20972410Y-40090047D01*
X21128006Y-39986081D01*
X21300895Y-39914468D01*
X21484433Y-39877960D01*
X21671567Y-39877960D01*
X21855105Y-39914468D01*
G37*
G36*
X18934105Y-39914468D02*
G01*
X19106994Y-39986081D01*
X19262590Y-40090047D01*
X19394913Y-40222370D01*
X19498879Y-40377966D01*
X19498880Y-40377968D01*
X19570492Y-40550855D01*
X19607000Y-40734393D01*
X19607000Y-40921527D01*
X19570492Y-41105065D01*
X19507919Y-41256131D01*
X19498879Y-41277954D01*
X19394913Y-41433550D01*
X19262590Y-41565873D01*
X19106994Y-41669839D01*
X19106993Y-41669840D01*
X19106992Y-41669840D01*
X18990064Y-41718273D01*
X18934105Y-41741452D01*
X18750567Y-41777960D01*
X18563433Y-41777960D01*
X18379895Y-41741452D01*
X18323936Y-41718273D01*
X18207008Y-41669840D01*
X18207007Y-41669840D01*
X18207006Y-41669839D01*
X18051410Y-41565873D01*
X17919087Y-41433550D01*
X17815121Y-41277954D01*
X17806082Y-41256131D01*
X17743508Y-41105065D01*
X17707000Y-40921527D01*
X17707000Y-40734393D01*
X17743508Y-40550855D01*
X17815120Y-40377968D01*
X17815121Y-40377966D01*
X17919087Y-40222370D01*
X18051410Y-40090047D01*
X18207006Y-39986081D01*
X18379895Y-39914468D01*
X18563433Y-39877960D01*
X18750567Y-39877960D01*
X18934105Y-39914468D01*
G37*
G36*
X67694121Y-39302204D02*
G01*
X67848889Y-39332989D01*
X68030878Y-39408371D01*
X68194663Y-39517809D01*
X68333951Y-39657097D01*
X68443389Y-39820882D01*
X68518771Y-40002871D01*
X68557200Y-40196069D01*
X68557200Y-40393051D01*
X68518771Y-40586249D01*
X68443389Y-40768238D01*
X68333951Y-40932023D01*
X68194663Y-41071311D01*
X68030878Y-41180749D01*
X67848889Y-41256131D01*
X67694121Y-41286916D01*
X67655692Y-41294560D01*
X67458708Y-41294560D01*
X67420279Y-41286916D01*
X67265511Y-41256131D01*
X67083522Y-41180749D01*
X66919737Y-41071311D01*
X66780449Y-40932023D01*
X66671011Y-40768238D01*
X66595629Y-40586249D01*
X66557200Y-40393051D01*
X66557200Y-40196069D01*
X66595629Y-40002871D01*
X66671011Y-39820882D01*
X66780449Y-39657097D01*
X66919737Y-39517809D01*
X67083522Y-39408371D01*
X67265511Y-39332989D01*
X67420279Y-39302204D01*
X67458708Y-39294560D01*
X67655692Y-39294560D01*
X67694121Y-39302204D01*
G37*
G36*
X70234121Y-39302204D02*
G01*
X70388889Y-39332989D01*
X70570878Y-39408371D01*
X70734663Y-39517809D01*
X70873951Y-39657097D01*
X70983389Y-39820882D01*
X71058771Y-40002871D01*
X71097200Y-40196069D01*
X71097200Y-40393051D01*
X71058771Y-40586249D01*
X70983389Y-40768238D01*
X70873951Y-40932023D01*
X70734663Y-41071311D01*
X70570878Y-41180749D01*
X70388889Y-41256131D01*
X70234121Y-41286916D01*
X70195692Y-41294560D01*
X69998708Y-41294560D01*
X69960279Y-41286916D01*
X69805511Y-41256131D01*
X69623522Y-41180749D01*
X69459737Y-41071311D01*
X69320449Y-40932023D01*
X69211011Y-40768238D01*
X69135629Y-40586249D01*
X69097200Y-40393051D01*
X69097200Y-40196069D01*
X69135629Y-40002871D01*
X69211011Y-39820882D01*
X69320449Y-39657097D01*
X69459737Y-39517809D01*
X69623522Y-39408371D01*
X69805511Y-39332989D01*
X69960279Y-39302204D01*
X69998708Y-39294560D01*
X70195692Y-39294560D01*
X70234121Y-39302204D01*
G37*
G36*
X27048921Y-38057604D02*
G01*
X27203689Y-38088389D01*
X27385678Y-38163771D01*
X27549463Y-38273209D01*
X27688751Y-38412497D01*
X27798189Y-38576282D01*
X27873571Y-38758271D01*
X27899843Y-38890352D01*
X27912000Y-38951468D01*
X27912000Y-39148452D01*
X27909397Y-39161538D01*
X27873571Y-39341649D01*
X27798189Y-39523638D01*
X27688751Y-39687423D01*
X27549463Y-39826711D01*
X27385678Y-39936149D01*
X27203689Y-40011531D01*
X27048921Y-40042316D01*
X27010492Y-40049960D01*
X26813508Y-40049960D01*
X26775079Y-40042316D01*
X26620311Y-40011531D01*
X26438322Y-39936149D01*
X26274537Y-39826711D01*
X26135249Y-39687423D01*
X26025811Y-39523638D01*
X25950429Y-39341649D01*
X25914603Y-39161538D01*
X25912000Y-39148452D01*
X25912000Y-38951468D01*
X25924157Y-38890352D01*
X25950429Y-38758271D01*
X26025811Y-38576282D01*
X26135249Y-38412497D01*
X26274537Y-38273209D01*
X26438322Y-38163771D01*
X26620311Y-38088389D01*
X26775079Y-38057604D01*
X26813508Y-38049960D01*
X27010492Y-38049960D01*
X27048921Y-38057604D01*
G37*
G36*
X24508921Y-38057604D02*
G01*
X24663689Y-38088389D01*
X24845678Y-38163771D01*
X25009463Y-38273209D01*
X25148751Y-38412497D01*
X25258189Y-38576282D01*
X25333571Y-38758271D01*
X25359843Y-38890352D01*
X25372000Y-38951468D01*
X25372000Y-39148452D01*
X25369397Y-39161538D01*
X25333571Y-39341649D01*
X25258189Y-39523638D01*
X25148751Y-39687423D01*
X25009463Y-39826711D01*
X24845678Y-39936149D01*
X24663689Y-40011531D01*
X24508921Y-40042316D01*
X24470492Y-40049960D01*
X24273508Y-40049960D01*
X24235079Y-40042316D01*
X24080311Y-40011531D01*
X23898322Y-39936149D01*
X23734537Y-39826711D01*
X23595249Y-39687423D01*
X23485811Y-39523638D01*
X23410429Y-39341649D01*
X23374603Y-39161538D01*
X23372000Y-39148452D01*
X23372000Y-38951468D01*
X23384157Y-38890352D01*
X23410429Y-38758271D01*
X23485811Y-38576282D01*
X23595249Y-38412497D01*
X23734537Y-38273209D01*
X23898322Y-38163771D01*
X24080311Y-38088389D01*
X24235079Y-38057604D01*
X24273508Y-38049960D01*
X24470492Y-38049960D01*
X24508921Y-38057604D01*
G37*
G36*
X59421192Y-37717434D02*
G01*
X59421200Y-37717434D01*
X59450605Y-37720330D01*
X59478880Y-37728907D01*
X59478882Y-37728908D01*
X59481008Y-37729553D01*
X59513147Y-37742865D01*
X59551601Y-37750513D01*
X59590808Y-37750513D01*
X59629261Y-37742863D01*
X59661393Y-37729553D01*
X59663517Y-37728909D01*
X59663520Y-37728907D01*
X59691795Y-37720330D01*
X59721200Y-37717434D01*
X59721208Y-37717434D01*
X59731027Y-37716467D01*
X60211373Y-37716467D01*
X60221191Y-37717434D01*
X60221200Y-37717434D01*
X60226063Y-37717913D01*
X60245648Y-37718875D01*
X60260382Y-37718875D01*
X60270200Y-37719842D01*
X60270209Y-37719842D01*
X60299614Y-37722738D01*
X60299625Y-37722740D01*
X60309441Y-37723707D01*
X60386296Y-37738995D01*
X60395731Y-37741857D01*
X60395747Y-37741860D01*
X60424022Y-37750437D01*
X60424030Y-37750440D01*
X60433478Y-37753306D01*
X60505868Y-37783291D01*
X60514574Y-37787944D01*
X60514578Y-37787946D01*
X60540637Y-37801875D01*
X60549340Y-37806527D01*
X60614501Y-37850067D01*
X60622124Y-37856323D01*
X60622136Y-37856331D01*
X60644976Y-37875076D01*
X60644980Y-37875080D01*
X60652608Y-37881340D01*
X60708020Y-37936752D01*
X60714280Y-37944380D01*
X60714284Y-37944384D01*
X60733029Y-37967224D01*
X60733037Y-37967236D01*
X60739293Y-37974859D01*
X60782833Y-38040020D01*
X60787484Y-38048721D01*
X60787485Y-38048723D01*
X60801414Y-38074782D01*
X60801416Y-38074786D01*
X60806069Y-38083492D01*
X60836054Y-38155882D01*
X60838920Y-38165330D01*
X60838923Y-38165338D01*
X60847500Y-38193613D01*
X60847503Y-38193629D01*
X60850365Y-38203064D01*
X60865653Y-38279919D01*
X60866620Y-38289735D01*
X60866622Y-38289746D01*
X60869518Y-38319151D01*
X60869518Y-38319160D01*
X60870485Y-38328978D01*
X60870485Y-38343712D01*
X60871447Y-38363297D01*
X60871926Y-38368160D01*
X60871926Y-38368169D01*
X60872893Y-38377987D01*
X60872893Y-38858333D01*
X60871926Y-38868151D01*
X60871926Y-38868160D01*
X60871447Y-38873023D01*
X60870485Y-38892608D01*
X60870485Y-38907342D01*
X60869518Y-38917160D01*
X60869518Y-38917169D01*
X60866622Y-38946574D01*
X60866620Y-38946585D01*
X60865653Y-38956401D01*
X60850365Y-39033256D01*
X60847503Y-39042691D01*
X60847500Y-39042707D01*
X60838923Y-39070982D01*
X60838920Y-39070990D01*
X60836054Y-39080438D01*
X60806069Y-39152828D01*
X60801416Y-39161534D01*
X60801414Y-39161538D01*
X60792469Y-39178273D01*
X60782833Y-39196300D01*
X60739293Y-39261461D01*
X60733037Y-39269084D01*
X60733029Y-39269096D01*
X60714284Y-39291936D01*
X60714280Y-39291940D01*
X60708020Y-39299568D01*
X60652608Y-39354980D01*
X60644980Y-39361240D01*
X60644976Y-39361244D01*
X60622136Y-39379989D01*
X60622124Y-39379997D01*
X60614501Y-39386253D01*
X60549340Y-39429793D01*
X60540639Y-39434444D01*
X60540637Y-39434445D01*
X60514578Y-39448374D01*
X60514574Y-39448376D01*
X60505868Y-39453029D01*
X60433478Y-39483014D01*
X60424030Y-39485880D01*
X60424022Y-39485883D01*
X60395747Y-39494460D01*
X60395731Y-39494463D01*
X60386296Y-39497325D01*
X60309441Y-39512613D01*
X60299625Y-39513580D01*
X60299614Y-39513582D01*
X60270209Y-39516478D01*
X60270200Y-39516478D01*
X60260382Y-39517445D01*
X60245648Y-39517445D01*
X60226063Y-39518407D01*
X60221200Y-39518886D01*
X60221191Y-39518886D01*
X60211373Y-39519853D01*
X59731027Y-39519853D01*
X59721208Y-39518886D01*
X59721200Y-39518886D01*
X59691795Y-39515990D01*
X59663520Y-39507413D01*
X59663518Y-39507412D01*
X59661392Y-39506767D01*
X59629253Y-39493455D01*
X59590799Y-39485807D01*
X59551592Y-39485807D01*
X59513139Y-39493457D01*
X59481007Y-39506767D01*
X59478883Y-39507411D01*
X59478880Y-39507413D01*
X59450605Y-39515990D01*
X59421200Y-39518886D01*
X59421192Y-39518886D01*
X59411373Y-39519853D01*
X58931027Y-39519853D01*
X58921209Y-39518886D01*
X58921200Y-39518886D01*
X58916337Y-39518407D01*
X58896752Y-39517445D01*
X58882018Y-39517445D01*
X58872200Y-39516478D01*
X58872191Y-39516478D01*
X58842786Y-39513582D01*
X58842775Y-39513580D01*
X58832959Y-39512613D01*
X58756104Y-39497325D01*
X58746669Y-39494463D01*
X58746653Y-39494460D01*
X58718378Y-39485883D01*
X58718370Y-39485880D01*
X58708922Y-39483014D01*
X58636532Y-39453029D01*
X58627826Y-39448376D01*
X58627822Y-39448374D01*
X58601763Y-39434445D01*
X58601761Y-39434444D01*
X58593060Y-39429793D01*
X58527899Y-39386253D01*
X58520276Y-39379997D01*
X58520264Y-39379989D01*
X58497424Y-39361244D01*
X58497420Y-39361240D01*
X58489792Y-39354980D01*
X58434380Y-39299568D01*
X58428120Y-39291940D01*
X58428116Y-39291936D01*
X58409371Y-39269096D01*
X58409363Y-39269084D01*
X58403107Y-39261461D01*
X58359567Y-39196300D01*
X58349931Y-39178273D01*
X58340986Y-39161538D01*
X58340984Y-39161534D01*
X58336331Y-39152828D01*
X58306346Y-39080438D01*
X58303480Y-39070990D01*
X58303477Y-39070982D01*
X58294900Y-39042707D01*
X58294897Y-39042691D01*
X58292035Y-39033256D01*
X58276747Y-38956401D01*
X58275780Y-38946585D01*
X58275778Y-38946574D01*
X58272882Y-38917169D01*
X58272882Y-38917160D01*
X58271915Y-38907342D01*
X58271915Y-38892608D01*
X58270953Y-38873023D01*
X58270474Y-38868160D01*
X58270474Y-38868151D01*
X58269507Y-38858333D01*
X58269507Y-38377987D01*
X58270474Y-38368169D01*
X58270474Y-38368160D01*
X58270953Y-38363297D01*
X58271915Y-38343712D01*
X58271915Y-38328978D01*
X58272882Y-38319160D01*
X58272882Y-38319151D01*
X58275778Y-38289746D01*
X58275780Y-38289735D01*
X58276747Y-38279919D01*
X58292035Y-38203064D01*
X58294897Y-38193629D01*
X58294900Y-38193613D01*
X58303477Y-38165338D01*
X58303480Y-38165330D01*
X58306346Y-38155882D01*
X58336331Y-38083492D01*
X58340984Y-38074786D01*
X58340986Y-38074782D01*
X58354915Y-38048723D01*
X58354916Y-38048721D01*
X58359567Y-38040020D01*
X58403107Y-37974859D01*
X58409363Y-37967236D01*
X58409371Y-37967224D01*
X58428116Y-37944384D01*
X58428120Y-37944380D01*
X58434380Y-37936752D01*
X58489792Y-37881340D01*
X58497420Y-37875080D01*
X58497424Y-37875076D01*
X58520264Y-37856331D01*
X58520276Y-37856323D01*
X58527899Y-37850067D01*
X58593060Y-37806527D01*
X58601763Y-37801875D01*
X58627822Y-37787946D01*
X58627826Y-37787944D01*
X58636532Y-37783291D01*
X58708922Y-37753306D01*
X58718370Y-37750440D01*
X58718378Y-37750437D01*
X58746653Y-37741860D01*
X58746669Y-37741857D01*
X58756104Y-37738995D01*
X58832959Y-37723707D01*
X58842775Y-37722740D01*
X58842786Y-37722738D01*
X58872191Y-37719842D01*
X58872200Y-37719842D01*
X58882018Y-37718875D01*
X58896752Y-37718875D01*
X58916337Y-37717913D01*
X58921200Y-37717434D01*
X58921209Y-37717434D01*
X58931027Y-37716467D01*
X59411373Y-37716467D01*
X59421192Y-37717434D01*
G37*
G36*
X65014905Y-37526868D02*
G01*
X65187794Y-37598481D01*
X65343390Y-37702447D01*
X65475713Y-37834770D01*
X65579679Y-37990366D01*
X65579680Y-37990368D01*
X65620282Y-38088390D01*
X65651292Y-38163255D01*
X65687800Y-38346793D01*
X65687800Y-38533927D01*
X65651292Y-38717465D01*
X65579679Y-38890354D01*
X65475713Y-39045950D01*
X65343390Y-39178273D01*
X65187794Y-39282239D01*
X65187793Y-39282240D01*
X65187792Y-39282240D01*
X65014905Y-39353852D01*
X64831367Y-39390360D01*
X64644233Y-39390360D01*
X64460695Y-39353852D01*
X64287808Y-39282240D01*
X64287807Y-39282240D01*
X64287806Y-39282239D01*
X64132210Y-39178273D01*
X63999887Y-39045950D01*
X63895921Y-38890354D01*
X63824308Y-38717465D01*
X63787800Y-38533927D01*
X63787800Y-38346793D01*
X63824308Y-38163255D01*
X63855318Y-38088390D01*
X63895920Y-37990368D01*
X63895921Y-37990366D01*
X63999887Y-37834770D01*
X64132210Y-37702447D01*
X64287806Y-37598481D01*
X64460695Y-37526868D01*
X64644233Y-37490360D01*
X64831367Y-37490360D01*
X65014905Y-37526868D01*
G37*
G36*
X21855105Y-37374468D02*
G01*
X22027994Y-37446081D01*
X22183590Y-37550047D01*
X22315913Y-37682370D01*
X22419879Y-37837966D01*
X22419880Y-37837968D01*
X22491492Y-38010855D01*
X22528000Y-38194393D01*
X22528000Y-38381527D01*
X22491492Y-38565065D01*
X22428919Y-38716131D01*
X22419879Y-38737954D01*
X22315913Y-38893550D01*
X22183590Y-39025873D01*
X22027994Y-39129839D01*
X22027993Y-39129840D01*
X22027992Y-39129840D01*
X21855105Y-39201452D01*
X21671567Y-39237960D01*
X21484433Y-39237960D01*
X21300895Y-39201452D01*
X21128008Y-39129840D01*
X21128007Y-39129840D01*
X21128006Y-39129839D01*
X20972410Y-39025873D01*
X20840087Y-38893550D01*
X20736121Y-38737954D01*
X20727082Y-38716131D01*
X20664508Y-38565065D01*
X20628000Y-38381527D01*
X20628000Y-38194393D01*
X20664508Y-38010855D01*
X20736120Y-37837968D01*
X20736121Y-37837966D01*
X20840087Y-37682370D01*
X20972410Y-37550047D01*
X21128006Y-37446081D01*
X21300895Y-37374468D01*
X21484433Y-37337960D01*
X21671567Y-37337960D01*
X21855105Y-37374468D01*
G37*
G36*
X18934105Y-37374468D02*
G01*
X19106994Y-37446081D01*
X19262590Y-37550047D01*
X19394913Y-37682370D01*
X19498879Y-37837966D01*
X19498880Y-37837968D01*
X19570492Y-38010855D01*
X19607000Y-38194393D01*
X19607000Y-38381527D01*
X19570492Y-38565065D01*
X19507919Y-38716131D01*
X19498879Y-38737954D01*
X19394913Y-38893550D01*
X19262590Y-39025873D01*
X19106994Y-39129839D01*
X19106993Y-39129840D01*
X19106992Y-39129840D01*
X18934105Y-39201452D01*
X18750567Y-39237960D01*
X18563433Y-39237960D01*
X18379895Y-39201452D01*
X18207008Y-39129840D01*
X18207007Y-39129840D01*
X18207006Y-39129839D01*
X18051410Y-39025873D01*
X17919087Y-38893550D01*
X17815121Y-38737954D01*
X17806082Y-38716131D01*
X17743508Y-38565065D01*
X17707000Y-38381527D01*
X17707000Y-38194393D01*
X17743508Y-38010855D01*
X17815120Y-37837968D01*
X17815121Y-37837966D01*
X17919087Y-37682370D01*
X18051410Y-37550047D01*
X18207006Y-37446081D01*
X18379895Y-37374468D01*
X18563433Y-37337960D01*
X18750567Y-37337960D01*
X18934105Y-37374468D01*
G37*
G36*
X67694121Y-36762204D02*
G01*
X67848889Y-36792989D01*
X68030878Y-36868371D01*
X68194663Y-36977809D01*
X68333951Y-37117097D01*
X68443389Y-37280882D01*
X68518771Y-37462871D01*
X68557200Y-37656069D01*
X68557200Y-37853051D01*
X68518771Y-38046249D01*
X68443389Y-38228238D01*
X68333951Y-38392023D01*
X68194663Y-38531311D01*
X68030878Y-38640749D01*
X67848889Y-38716131D01*
X67694121Y-38746916D01*
X67655692Y-38754560D01*
X67458708Y-38754560D01*
X67420279Y-38746916D01*
X67265511Y-38716131D01*
X67083522Y-38640749D01*
X66919737Y-38531311D01*
X66780449Y-38392023D01*
X66671011Y-38228238D01*
X66595629Y-38046249D01*
X66557200Y-37853051D01*
X66557200Y-37656069D01*
X66595629Y-37462871D01*
X66671011Y-37280882D01*
X66780449Y-37117097D01*
X66919737Y-36977809D01*
X67083522Y-36868371D01*
X67265511Y-36792989D01*
X67420279Y-36762204D01*
X67458708Y-36754560D01*
X67655692Y-36754560D01*
X67694121Y-36762204D01*
G37*
G36*
X70234121Y-36762204D02*
G01*
X70388889Y-36792989D01*
X70570878Y-36868371D01*
X70734663Y-36977809D01*
X70873951Y-37117097D01*
X70983389Y-37280882D01*
X71058771Y-37462871D01*
X71097200Y-37656069D01*
X71097200Y-37853051D01*
X71058771Y-38046249D01*
X70983389Y-38228238D01*
X70873951Y-38392023D01*
X70734663Y-38531311D01*
X70570878Y-38640749D01*
X70388889Y-38716131D01*
X70234121Y-38746916D01*
X70195692Y-38754560D01*
X69998708Y-38754560D01*
X69960279Y-38746916D01*
X69805511Y-38716131D01*
X69623522Y-38640749D01*
X69459737Y-38531311D01*
X69320449Y-38392023D01*
X69211011Y-38228238D01*
X69135629Y-38046249D01*
X69097200Y-37853051D01*
X69097200Y-37656069D01*
X69135629Y-37462871D01*
X69211011Y-37280882D01*
X69320449Y-37117097D01*
X69459737Y-36977809D01*
X69623522Y-36868371D01*
X69805511Y-36792989D01*
X69960279Y-36762204D01*
X69998708Y-36754560D01*
X70195692Y-36754560D01*
X70234121Y-36762204D01*
G37*
G36*
X79952443Y-35785154D02*
G01*
X80161728Y-35871842D01*
X80350081Y-35997696D01*
X80510264Y-36157879D01*
X80636118Y-36346232D01*
X80722806Y-36555517D01*
X80767000Y-36777695D01*
X80767000Y-37004225D01*
X80722806Y-37226403D01*
X80636118Y-37435688D01*
X80510264Y-37624041D01*
X80350081Y-37784224D01*
X80161728Y-37910078D01*
X79967894Y-37990366D01*
X79952443Y-37996766D01*
X79730265Y-38040960D01*
X79503735Y-38040960D01*
X79281557Y-37996766D01*
X79266106Y-37990366D01*
X79072272Y-37910078D01*
X78883919Y-37784224D01*
X78723736Y-37624041D01*
X78597882Y-37435688D01*
X78511194Y-37226403D01*
X78467000Y-37004225D01*
X78467000Y-36777695D01*
X78511194Y-36555517D01*
X78597882Y-36346232D01*
X78723736Y-36157879D01*
X78883919Y-35997696D01*
X79072272Y-35871842D01*
X79281557Y-35785154D01*
X79503735Y-35740960D01*
X79730265Y-35740960D01*
X79952443Y-35785154D01*
G37*
G36*
X75452443Y-35785154D02*
G01*
X75661728Y-35871842D01*
X75850081Y-35997696D01*
X76010264Y-36157879D01*
X76136118Y-36346232D01*
X76222806Y-36555517D01*
X76267000Y-36777695D01*
X76267000Y-37004225D01*
X76222806Y-37226403D01*
X76136118Y-37435688D01*
X76010264Y-37624041D01*
X75850081Y-37784224D01*
X75661728Y-37910078D01*
X75467894Y-37990366D01*
X75452443Y-37996766D01*
X75230265Y-38040960D01*
X75003735Y-38040960D01*
X74781557Y-37996766D01*
X74766106Y-37990366D01*
X74572272Y-37910078D01*
X74383919Y-37784224D01*
X74223736Y-37624041D01*
X74097882Y-37435688D01*
X74011194Y-37226403D01*
X73967000Y-37004225D01*
X73967000Y-36777695D01*
X74011194Y-36555517D01*
X74097882Y-36346232D01*
X74223736Y-36157879D01*
X74383919Y-35997696D01*
X74572272Y-35871842D01*
X74781557Y-35785154D01*
X75003735Y-35740960D01*
X75230265Y-35740960D01*
X75452443Y-35785154D01*
G37*
G36*
X27048921Y-35517604D02*
G01*
X27203689Y-35548389D01*
X27385678Y-35623771D01*
X27549463Y-35733209D01*
X27688751Y-35872497D01*
X27798189Y-36036282D01*
X27873571Y-36218271D01*
X27912000Y-36411469D01*
X27912000Y-36608451D01*
X27873571Y-36801649D01*
X27798189Y-36983638D01*
X27688751Y-37147423D01*
X27549463Y-37286711D01*
X27385678Y-37396149D01*
X27203689Y-37471531D01*
X27048921Y-37502316D01*
X27010492Y-37509960D01*
X26813508Y-37509960D01*
X26775079Y-37502316D01*
X26620311Y-37471531D01*
X26438322Y-37396149D01*
X26274537Y-37286711D01*
X26135249Y-37147423D01*
X26025811Y-36983638D01*
X25950429Y-36801649D01*
X25912000Y-36608451D01*
X25912000Y-36411469D01*
X25950429Y-36218271D01*
X26025811Y-36036282D01*
X26135249Y-35872497D01*
X26274537Y-35733209D01*
X26438322Y-35623771D01*
X26620311Y-35548389D01*
X26775079Y-35517604D01*
X26813508Y-35509960D01*
X27010492Y-35509960D01*
X27048921Y-35517604D01*
G37*
G36*
X24508921Y-35517604D02*
G01*
X24663689Y-35548389D01*
X24845678Y-35623771D01*
X25009463Y-35733209D01*
X25148751Y-35872497D01*
X25258189Y-36036282D01*
X25333571Y-36218271D01*
X25372000Y-36411469D01*
X25372000Y-36608451D01*
X25333571Y-36801649D01*
X25258189Y-36983638D01*
X25148751Y-37147423D01*
X25009463Y-37286711D01*
X24845678Y-37396149D01*
X24663689Y-37471531D01*
X24508921Y-37502316D01*
X24470492Y-37509960D01*
X24273508Y-37509960D01*
X24235079Y-37502316D01*
X24080311Y-37471531D01*
X23898322Y-37396149D01*
X23734537Y-37286711D01*
X23595249Y-37147423D01*
X23485811Y-36983638D01*
X23410429Y-36801649D01*
X23372000Y-36608451D01*
X23372000Y-36411469D01*
X23410429Y-36218271D01*
X23485811Y-36036282D01*
X23595249Y-35872497D01*
X23734537Y-35733209D01*
X23898322Y-35623771D01*
X24080311Y-35548389D01*
X24235079Y-35517604D01*
X24273508Y-35509960D01*
X24470492Y-35509960D01*
X24508921Y-35517604D01*
G37*
G36*
X59370392Y-35152034D02*
G01*
X59370400Y-35152034D01*
X59399805Y-35154930D01*
X59428080Y-35163507D01*
X59428082Y-35163508D01*
X59430208Y-35164153D01*
X59462347Y-35177465D01*
X59500801Y-35185113D01*
X59540008Y-35185113D01*
X59578461Y-35177463D01*
X59610593Y-35164153D01*
X59612717Y-35163509D01*
X59612720Y-35163507D01*
X59640995Y-35154930D01*
X59670400Y-35152034D01*
X59670408Y-35152034D01*
X59680227Y-35151067D01*
X60160573Y-35151067D01*
X60170391Y-35152034D01*
X60170400Y-35152034D01*
X60175263Y-35152513D01*
X60194848Y-35153475D01*
X60209582Y-35153475D01*
X60219400Y-35154442D01*
X60219409Y-35154442D01*
X60248814Y-35157338D01*
X60248825Y-35157340D01*
X60258641Y-35158307D01*
X60335496Y-35173595D01*
X60344931Y-35176457D01*
X60344947Y-35176460D01*
X60373222Y-35185037D01*
X60373230Y-35185040D01*
X60382678Y-35187906D01*
X60455068Y-35217891D01*
X60463774Y-35222544D01*
X60463778Y-35222546D01*
X60489837Y-35236475D01*
X60498540Y-35241127D01*
X60563701Y-35284667D01*
X60571324Y-35290923D01*
X60571336Y-35290931D01*
X60594176Y-35309676D01*
X60594180Y-35309680D01*
X60601808Y-35315940D01*
X60657220Y-35371352D01*
X60663480Y-35378980D01*
X60663484Y-35378984D01*
X60682229Y-35401824D01*
X60682237Y-35401836D01*
X60688493Y-35409459D01*
X60732033Y-35474620D01*
X60736684Y-35483321D01*
X60736685Y-35483323D01*
X60750614Y-35509382D01*
X60750616Y-35509386D01*
X60755269Y-35518092D01*
X60785254Y-35590482D01*
X60788120Y-35599930D01*
X60788123Y-35599938D01*
X60796700Y-35628213D01*
X60796703Y-35628229D01*
X60799565Y-35637664D01*
X60814853Y-35714519D01*
X60815820Y-35724335D01*
X60815822Y-35724346D01*
X60818718Y-35753751D01*
X60818718Y-35753760D01*
X60819685Y-35763578D01*
X60819685Y-35778312D01*
X60820647Y-35797897D01*
X60821126Y-35802760D01*
X60821126Y-35802769D01*
X60822093Y-35812587D01*
X60822093Y-36292933D01*
X60821126Y-36302751D01*
X60821126Y-36302760D01*
X60820647Y-36307623D01*
X60819685Y-36327208D01*
X60819685Y-36341942D01*
X60818718Y-36351760D01*
X60818718Y-36351769D01*
X60815822Y-36381174D01*
X60815820Y-36381185D01*
X60814853Y-36391001D01*
X60799565Y-36467856D01*
X60796703Y-36477291D01*
X60796700Y-36477307D01*
X60788123Y-36505582D01*
X60788120Y-36505590D01*
X60785254Y-36515038D01*
X60755269Y-36587428D01*
X60750616Y-36596134D01*
X60750614Y-36596138D01*
X60744032Y-36608451D01*
X60732033Y-36630900D01*
X60688493Y-36696061D01*
X60682237Y-36703684D01*
X60682229Y-36703696D01*
X60663484Y-36726536D01*
X60663480Y-36726540D01*
X60657220Y-36734168D01*
X60601808Y-36789580D01*
X60594180Y-36795840D01*
X60594176Y-36795844D01*
X60571336Y-36814589D01*
X60571324Y-36814597D01*
X60563701Y-36820853D01*
X60498540Y-36864393D01*
X60489839Y-36869044D01*
X60489837Y-36869045D01*
X60463778Y-36882974D01*
X60463774Y-36882976D01*
X60455068Y-36887629D01*
X60382678Y-36917614D01*
X60373230Y-36920480D01*
X60373222Y-36920483D01*
X60344947Y-36929060D01*
X60344931Y-36929063D01*
X60335496Y-36931925D01*
X60258641Y-36947213D01*
X60248825Y-36948180D01*
X60248814Y-36948182D01*
X60219409Y-36951078D01*
X60219400Y-36951078D01*
X60209582Y-36952045D01*
X60194848Y-36952045D01*
X60175263Y-36953007D01*
X60170400Y-36953486D01*
X60170391Y-36953486D01*
X60160573Y-36954453D01*
X59680227Y-36954453D01*
X59670408Y-36953486D01*
X59670400Y-36953486D01*
X59640995Y-36950590D01*
X59612720Y-36942013D01*
X59612718Y-36942012D01*
X59610592Y-36941367D01*
X59578453Y-36928055D01*
X59539999Y-36920407D01*
X59500792Y-36920407D01*
X59462339Y-36928057D01*
X59430207Y-36941367D01*
X59428083Y-36942011D01*
X59428080Y-36942013D01*
X59399805Y-36950590D01*
X59370400Y-36953486D01*
X59370392Y-36953486D01*
X59360573Y-36954453D01*
X58880227Y-36954453D01*
X58870409Y-36953486D01*
X58870400Y-36953486D01*
X58865537Y-36953007D01*
X58845952Y-36952045D01*
X58831218Y-36952045D01*
X58821400Y-36951078D01*
X58821391Y-36951078D01*
X58791986Y-36948182D01*
X58791975Y-36948180D01*
X58782159Y-36947213D01*
X58705304Y-36931925D01*
X58695869Y-36929063D01*
X58695853Y-36929060D01*
X58667578Y-36920483D01*
X58667570Y-36920480D01*
X58658122Y-36917614D01*
X58585732Y-36887629D01*
X58577026Y-36882976D01*
X58577022Y-36882974D01*
X58550963Y-36869045D01*
X58550961Y-36869044D01*
X58542260Y-36864393D01*
X58477099Y-36820853D01*
X58469476Y-36814597D01*
X58469464Y-36814589D01*
X58446624Y-36795844D01*
X58446620Y-36795840D01*
X58438992Y-36789580D01*
X58383580Y-36734168D01*
X58377320Y-36726540D01*
X58377316Y-36726536D01*
X58358571Y-36703696D01*
X58358563Y-36703684D01*
X58352307Y-36696061D01*
X58308767Y-36630900D01*
X58296768Y-36608451D01*
X58290186Y-36596138D01*
X58290184Y-36596134D01*
X58285531Y-36587428D01*
X58255546Y-36515038D01*
X58252680Y-36505590D01*
X58252677Y-36505582D01*
X58244100Y-36477307D01*
X58244097Y-36477291D01*
X58241235Y-36467856D01*
X58225947Y-36391001D01*
X58224980Y-36381185D01*
X58224978Y-36381174D01*
X58222082Y-36351769D01*
X58222082Y-36351760D01*
X58221115Y-36341942D01*
X58221115Y-36327208D01*
X58220153Y-36307623D01*
X58219674Y-36302760D01*
X58219674Y-36302751D01*
X58218707Y-36292933D01*
X58218707Y-35812587D01*
X58219674Y-35802769D01*
X58219674Y-35802760D01*
X58220153Y-35797897D01*
X58221115Y-35778312D01*
X58221115Y-35763578D01*
X58222082Y-35753760D01*
X58222082Y-35753751D01*
X58224978Y-35724346D01*
X58224980Y-35724335D01*
X58225947Y-35714519D01*
X58241235Y-35637664D01*
X58244097Y-35628229D01*
X58244100Y-35628213D01*
X58252677Y-35599938D01*
X58252680Y-35599930D01*
X58255546Y-35590482D01*
X58285531Y-35518092D01*
X58290184Y-35509386D01*
X58290186Y-35509382D01*
X58304115Y-35483323D01*
X58304116Y-35483321D01*
X58308767Y-35474620D01*
X58352307Y-35409459D01*
X58358563Y-35401836D01*
X58358571Y-35401824D01*
X58377316Y-35378984D01*
X58377320Y-35378980D01*
X58383580Y-35371352D01*
X58438992Y-35315940D01*
X58446620Y-35309680D01*
X58446624Y-35309676D01*
X58469464Y-35290931D01*
X58469476Y-35290923D01*
X58477099Y-35284667D01*
X58542260Y-35241127D01*
X58550963Y-35236475D01*
X58577022Y-35222546D01*
X58577026Y-35222544D01*
X58585732Y-35217891D01*
X58658122Y-35187906D01*
X58667570Y-35185040D01*
X58667578Y-35185037D01*
X58695853Y-35176460D01*
X58695869Y-35176457D01*
X58705304Y-35173595D01*
X58782159Y-35158307D01*
X58791975Y-35157340D01*
X58791986Y-35157338D01*
X58821391Y-35154442D01*
X58821400Y-35154442D01*
X58831218Y-35153475D01*
X58845952Y-35153475D01*
X58865537Y-35152513D01*
X58870400Y-35152034D01*
X58870409Y-35152034D01*
X58880227Y-35151067D01*
X59360573Y-35151067D01*
X59370392Y-35152034D01*
G37*
G36*
X65014905Y-34986868D02*
G01*
X65187794Y-35058481D01*
X65343390Y-35162447D01*
X65475713Y-35294770D01*
X65579679Y-35450366D01*
X65579680Y-35450368D01*
X65651292Y-35623255D01*
X65687800Y-35806793D01*
X65687800Y-35993927D01*
X65651292Y-36177465D01*
X65581387Y-36346232D01*
X65579679Y-36350354D01*
X65475713Y-36505950D01*
X65343390Y-36638273D01*
X65187794Y-36742239D01*
X65187793Y-36742240D01*
X65187792Y-36742240D01*
X65014905Y-36813852D01*
X64831367Y-36850360D01*
X64644233Y-36850360D01*
X64460695Y-36813852D01*
X64287808Y-36742240D01*
X64287807Y-36742240D01*
X64287806Y-36742239D01*
X64132210Y-36638273D01*
X63999887Y-36505950D01*
X63895921Y-36350354D01*
X63894214Y-36346232D01*
X63824308Y-36177465D01*
X63787800Y-35993927D01*
X63787800Y-35806793D01*
X63824308Y-35623255D01*
X63895920Y-35450368D01*
X63895921Y-35450366D01*
X63999887Y-35294770D01*
X64132210Y-35162447D01*
X64287806Y-35058481D01*
X64460695Y-34986868D01*
X64644233Y-34950360D01*
X64831367Y-34950360D01*
X65014905Y-34986868D01*
G37*
G36*
X21855105Y-34834468D02*
G01*
X22027994Y-34906081D01*
X22183590Y-35010047D01*
X22315913Y-35142370D01*
X22419879Y-35297966D01*
X22419880Y-35297968D01*
X22491492Y-35470855D01*
X22528000Y-35654393D01*
X22528000Y-35841527D01*
X22491492Y-36025065D01*
X22428919Y-36176131D01*
X22419879Y-36197954D01*
X22315913Y-36353550D01*
X22183590Y-36485873D01*
X22027994Y-36589839D01*
X22027993Y-36589840D01*
X22027992Y-36589840D01*
X21855105Y-36661452D01*
X21671567Y-36697960D01*
X21484433Y-36697960D01*
X21300895Y-36661452D01*
X21128008Y-36589840D01*
X21128007Y-36589840D01*
X21128006Y-36589839D01*
X20972410Y-36485873D01*
X20840087Y-36353550D01*
X20736121Y-36197954D01*
X20727082Y-36176131D01*
X20664508Y-36025065D01*
X20628000Y-35841527D01*
X20628000Y-35654393D01*
X20664508Y-35470855D01*
X20736120Y-35297968D01*
X20736121Y-35297966D01*
X20840087Y-35142370D01*
X20972410Y-35010047D01*
X21128006Y-34906081D01*
X21300895Y-34834468D01*
X21484433Y-34797960D01*
X21671567Y-34797960D01*
X21855105Y-34834468D01*
G37*
G36*
X18934105Y-34834468D02*
G01*
X19106994Y-34906081D01*
X19262590Y-35010047D01*
X19394913Y-35142370D01*
X19498879Y-35297966D01*
X19498880Y-35297968D01*
X19570492Y-35470855D01*
X19607000Y-35654393D01*
X19607000Y-35841527D01*
X19570492Y-36025065D01*
X19507919Y-36176131D01*
X19498879Y-36197954D01*
X19394913Y-36353550D01*
X19262590Y-36485873D01*
X19106994Y-36589839D01*
X19106993Y-36589840D01*
X19106992Y-36589840D01*
X18934105Y-36661452D01*
X18750567Y-36697960D01*
X18563433Y-36697960D01*
X18379895Y-36661452D01*
X18207008Y-36589840D01*
X18207007Y-36589840D01*
X18207006Y-36589839D01*
X18051410Y-36485873D01*
X17919087Y-36353550D01*
X17815121Y-36197954D01*
X17806082Y-36176131D01*
X17743508Y-36025065D01*
X17707000Y-35841527D01*
X17707000Y-35654393D01*
X17743508Y-35470855D01*
X17815120Y-35297968D01*
X17815121Y-35297966D01*
X17919087Y-35142370D01*
X18051410Y-35010047D01*
X18207006Y-34906081D01*
X18379895Y-34834468D01*
X18563433Y-34797960D01*
X18750567Y-34797960D01*
X18934105Y-34834468D01*
G37*
G36*
X67694121Y-34222204D02*
G01*
X67848889Y-34252989D01*
X68030878Y-34328371D01*
X68194663Y-34437809D01*
X68333951Y-34577097D01*
X68443389Y-34740882D01*
X68518771Y-34922871D01*
X68536111Y-35010046D01*
X68557200Y-35116068D01*
X68557200Y-35313052D01*
X68549556Y-35351481D01*
X68518771Y-35506249D01*
X68443389Y-35688238D01*
X68333951Y-35852023D01*
X68194663Y-35991311D01*
X68030878Y-36100749D01*
X67848889Y-36176131D01*
X67694121Y-36206916D01*
X67655692Y-36214560D01*
X67458708Y-36214560D01*
X67420279Y-36206916D01*
X67265511Y-36176131D01*
X67083522Y-36100749D01*
X66919737Y-35991311D01*
X66780449Y-35852023D01*
X66671011Y-35688238D01*
X66595629Y-35506249D01*
X66564844Y-35351481D01*
X66557200Y-35313052D01*
X66557200Y-35116068D01*
X66578289Y-35010046D01*
X66595629Y-34922871D01*
X66671011Y-34740882D01*
X66780449Y-34577097D01*
X66919737Y-34437809D01*
X67083522Y-34328371D01*
X67265511Y-34252989D01*
X67420279Y-34222204D01*
X67458708Y-34214560D01*
X67655692Y-34214560D01*
X67694121Y-34222204D01*
G37*
G36*
X70234121Y-34222204D02*
G01*
X70388889Y-34252989D01*
X70570878Y-34328371D01*
X70734663Y-34437809D01*
X70873951Y-34577097D01*
X70983389Y-34740882D01*
X71058771Y-34922871D01*
X71076111Y-35010046D01*
X71097200Y-35116068D01*
X71097200Y-35313052D01*
X71089556Y-35351481D01*
X71058771Y-35506249D01*
X70983389Y-35688238D01*
X70873951Y-35852023D01*
X70734663Y-35991311D01*
X70570878Y-36100749D01*
X70388889Y-36176131D01*
X70234121Y-36206916D01*
X70195692Y-36214560D01*
X69998708Y-36214560D01*
X69960279Y-36206916D01*
X69805511Y-36176131D01*
X69623522Y-36100749D01*
X69459737Y-35991311D01*
X69320449Y-35852023D01*
X69211011Y-35688238D01*
X69135629Y-35506249D01*
X69104844Y-35351481D01*
X69097200Y-35313052D01*
X69097200Y-35116068D01*
X69118289Y-35010046D01*
X69135629Y-34922871D01*
X69211011Y-34740882D01*
X69320449Y-34577097D01*
X69459737Y-34437809D01*
X69623522Y-34328371D01*
X69805511Y-34252989D01*
X69960279Y-34222204D01*
X69998708Y-34214560D01*
X70195692Y-34214560D01*
X70234121Y-34222204D01*
G37*
G36*
X27048921Y-32977604D02*
G01*
X27203689Y-33008389D01*
X27385678Y-33083771D01*
X27549463Y-33193209D01*
X27688751Y-33332497D01*
X27798189Y-33496282D01*
X27873571Y-33678271D01*
X27912000Y-33871469D01*
X27912000Y-34068451D01*
X27873571Y-34261649D01*
X27798189Y-34443638D01*
X27688751Y-34607423D01*
X27549463Y-34746711D01*
X27385678Y-34856149D01*
X27203689Y-34931531D01*
X27048921Y-34962316D01*
X27010492Y-34969960D01*
X26813508Y-34969960D01*
X26775079Y-34962316D01*
X26620311Y-34931531D01*
X26438322Y-34856149D01*
X26274537Y-34746711D01*
X26135249Y-34607423D01*
X26025811Y-34443638D01*
X25950429Y-34261649D01*
X25912000Y-34068451D01*
X25912000Y-33871469D01*
X25950429Y-33678271D01*
X26025811Y-33496282D01*
X26135249Y-33332497D01*
X26274537Y-33193209D01*
X26438322Y-33083771D01*
X26620311Y-33008389D01*
X26775079Y-32977604D01*
X26813508Y-32969960D01*
X27010492Y-32969960D01*
X27048921Y-32977604D01*
G37*
G36*
X24508921Y-32977604D02*
G01*
X24663689Y-33008389D01*
X24845678Y-33083771D01*
X25009463Y-33193209D01*
X25148751Y-33332497D01*
X25258189Y-33496282D01*
X25333571Y-33678271D01*
X25372000Y-33871469D01*
X25372000Y-34068451D01*
X25333571Y-34261649D01*
X25258189Y-34443638D01*
X25148751Y-34607423D01*
X25009463Y-34746711D01*
X24845678Y-34856149D01*
X24663689Y-34931531D01*
X24508921Y-34962316D01*
X24470492Y-34969960D01*
X24273508Y-34969960D01*
X24235079Y-34962316D01*
X24080311Y-34931531D01*
X23898322Y-34856149D01*
X23734537Y-34746711D01*
X23595249Y-34607423D01*
X23485811Y-34443638D01*
X23410429Y-34261649D01*
X23372000Y-34068451D01*
X23372000Y-33871469D01*
X23410429Y-33678271D01*
X23485811Y-33496282D01*
X23595249Y-33332497D01*
X23734537Y-33193209D01*
X23898322Y-33083771D01*
X24080311Y-33008389D01*
X24235079Y-32977604D01*
X24273508Y-32969960D01*
X24470492Y-32969960D01*
X24508921Y-32977604D01*
G37*
G36*
X59370392Y-32510434D02*
G01*
X59370400Y-32510434D01*
X59399805Y-32513330D01*
X59428080Y-32521907D01*
X59428082Y-32521908D01*
X59430208Y-32522553D01*
X59462347Y-32535865D01*
X59500801Y-32543513D01*
X59540008Y-32543513D01*
X59578461Y-32535863D01*
X59610593Y-32522553D01*
X59612717Y-32521909D01*
X59612720Y-32521907D01*
X59640995Y-32513330D01*
X59670400Y-32510434D01*
X59670408Y-32510434D01*
X59680227Y-32509467D01*
X60160573Y-32509467D01*
X60170391Y-32510434D01*
X60170400Y-32510434D01*
X60175263Y-32510913D01*
X60194848Y-32511875D01*
X60209582Y-32511875D01*
X60219400Y-32512842D01*
X60219409Y-32512842D01*
X60248814Y-32515738D01*
X60248825Y-32515740D01*
X60258641Y-32516707D01*
X60335496Y-32531995D01*
X60344931Y-32534857D01*
X60344947Y-32534860D01*
X60373222Y-32543437D01*
X60373230Y-32543440D01*
X60382678Y-32546306D01*
X60455068Y-32576291D01*
X60463774Y-32580944D01*
X60463778Y-32580946D01*
X60489837Y-32594875D01*
X60498540Y-32599527D01*
X60563701Y-32643067D01*
X60571324Y-32649323D01*
X60571336Y-32649331D01*
X60594176Y-32668076D01*
X60594180Y-32668080D01*
X60601808Y-32674340D01*
X60657220Y-32729752D01*
X60663480Y-32737380D01*
X60663484Y-32737384D01*
X60682229Y-32760224D01*
X60682237Y-32760236D01*
X60688493Y-32767859D01*
X60732033Y-32833020D01*
X60736684Y-32841721D01*
X60736685Y-32841723D01*
X60750614Y-32867782D01*
X60750616Y-32867786D01*
X60755269Y-32876492D01*
X60785254Y-32948882D01*
X60788120Y-32958330D01*
X60788123Y-32958338D01*
X60796700Y-32986613D01*
X60796703Y-32986629D01*
X60799565Y-32996064D01*
X60814853Y-33072919D01*
X60815820Y-33082735D01*
X60815822Y-33082746D01*
X60818718Y-33112151D01*
X60818718Y-33112160D01*
X60819685Y-33121978D01*
X60819685Y-33136712D01*
X60820647Y-33156297D01*
X60821126Y-33161160D01*
X60821126Y-33161169D01*
X60822093Y-33170987D01*
X60822093Y-33651333D01*
X60821126Y-33661151D01*
X60821126Y-33661160D01*
X60820647Y-33666023D01*
X60819685Y-33685608D01*
X60819685Y-33700342D01*
X60818718Y-33710160D01*
X60818718Y-33710169D01*
X60815822Y-33739574D01*
X60815820Y-33739585D01*
X60814853Y-33749401D01*
X60799565Y-33826256D01*
X60796703Y-33835691D01*
X60796700Y-33835707D01*
X60788123Y-33863982D01*
X60788120Y-33863990D01*
X60785254Y-33873438D01*
X60755269Y-33945828D01*
X60750616Y-33954534D01*
X60750614Y-33954538D01*
X60744514Y-33965950D01*
X60732033Y-33989300D01*
X60688493Y-34054461D01*
X60682237Y-34062084D01*
X60682229Y-34062096D01*
X60663484Y-34084936D01*
X60663480Y-34084940D01*
X60657220Y-34092568D01*
X60601808Y-34147980D01*
X60594180Y-34154240D01*
X60594176Y-34154244D01*
X60571336Y-34172989D01*
X60571324Y-34172997D01*
X60563701Y-34179253D01*
X60498540Y-34222793D01*
X60489839Y-34227444D01*
X60489837Y-34227445D01*
X60463778Y-34241374D01*
X60463774Y-34241376D01*
X60455068Y-34246029D01*
X60382678Y-34276014D01*
X60373230Y-34278880D01*
X60373222Y-34278883D01*
X60344947Y-34287460D01*
X60344931Y-34287463D01*
X60335496Y-34290325D01*
X60258641Y-34305613D01*
X60248825Y-34306580D01*
X60248814Y-34306582D01*
X60219409Y-34309478D01*
X60219400Y-34309478D01*
X60209582Y-34310445D01*
X60194848Y-34310445D01*
X60175263Y-34311407D01*
X60170400Y-34311886D01*
X60170391Y-34311886D01*
X60160573Y-34312853D01*
X59680227Y-34312853D01*
X59670408Y-34311886D01*
X59670400Y-34311886D01*
X59640995Y-34308990D01*
X59612720Y-34300413D01*
X59612718Y-34300412D01*
X59610592Y-34299767D01*
X59578453Y-34286455D01*
X59539999Y-34278807D01*
X59500792Y-34278807D01*
X59462339Y-34286457D01*
X59430207Y-34299767D01*
X59428083Y-34300411D01*
X59428080Y-34300413D01*
X59399805Y-34308990D01*
X59370400Y-34311886D01*
X59370392Y-34311886D01*
X59360573Y-34312853D01*
X58880227Y-34312853D01*
X58870409Y-34311886D01*
X58870400Y-34311886D01*
X58865537Y-34311407D01*
X58845952Y-34310445D01*
X58831218Y-34310445D01*
X58821400Y-34309478D01*
X58821391Y-34309478D01*
X58791986Y-34306582D01*
X58791975Y-34306580D01*
X58782159Y-34305613D01*
X58705304Y-34290325D01*
X58695869Y-34287463D01*
X58695853Y-34287460D01*
X58667578Y-34278883D01*
X58667570Y-34278880D01*
X58658122Y-34276014D01*
X58585732Y-34246029D01*
X58577026Y-34241376D01*
X58577022Y-34241374D01*
X58550963Y-34227445D01*
X58550961Y-34227444D01*
X58542260Y-34222793D01*
X58477099Y-34179253D01*
X58469476Y-34172997D01*
X58469464Y-34172989D01*
X58446624Y-34154244D01*
X58446620Y-34154240D01*
X58438992Y-34147980D01*
X58383580Y-34092568D01*
X58377320Y-34084940D01*
X58377316Y-34084936D01*
X58358571Y-34062096D01*
X58358563Y-34062084D01*
X58352307Y-34054461D01*
X58308767Y-33989300D01*
X58296286Y-33965950D01*
X58290186Y-33954538D01*
X58290184Y-33954534D01*
X58285531Y-33945828D01*
X58255546Y-33873438D01*
X58252680Y-33863990D01*
X58252677Y-33863982D01*
X58244100Y-33835707D01*
X58244097Y-33835691D01*
X58241235Y-33826256D01*
X58225947Y-33749401D01*
X58224980Y-33739585D01*
X58224978Y-33739574D01*
X58222082Y-33710169D01*
X58222082Y-33710160D01*
X58221115Y-33700342D01*
X58221115Y-33685608D01*
X58220153Y-33666023D01*
X58219674Y-33661160D01*
X58219674Y-33661151D01*
X58218707Y-33651333D01*
X58218707Y-33170987D01*
X58219674Y-33161169D01*
X58219674Y-33161160D01*
X58220153Y-33156297D01*
X58221115Y-33136712D01*
X58221115Y-33121978D01*
X58222082Y-33112160D01*
X58222082Y-33112151D01*
X58224978Y-33082746D01*
X58224980Y-33082735D01*
X58225947Y-33072919D01*
X58241235Y-32996064D01*
X58244097Y-32986629D01*
X58244100Y-32986613D01*
X58252677Y-32958338D01*
X58252680Y-32958330D01*
X58255546Y-32948882D01*
X58285531Y-32876492D01*
X58290184Y-32867786D01*
X58290186Y-32867782D01*
X58304115Y-32841723D01*
X58304116Y-32841721D01*
X58308767Y-32833020D01*
X58352307Y-32767859D01*
X58358563Y-32760236D01*
X58358571Y-32760224D01*
X58377316Y-32737384D01*
X58377320Y-32737380D01*
X58383580Y-32729752D01*
X58438992Y-32674340D01*
X58446620Y-32668080D01*
X58446624Y-32668076D01*
X58469464Y-32649331D01*
X58469476Y-32649323D01*
X58477099Y-32643067D01*
X58542260Y-32599527D01*
X58550963Y-32594875D01*
X58577022Y-32580946D01*
X58577026Y-32580944D01*
X58585732Y-32576291D01*
X58658122Y-32546306D01*
X58667570Y-32543440D01*
X58667578Y-32543437D01*
X58695853Y-32534860D01*
X58695869Y-32534857D01*
X58705304Y-32531995D01*
X58782159Y-32516707D01*
X58791975Y-32515740D01*
X58791986Y-32515738D01*
X58821391Y-32512842D01*
X58821400Y-32512842D01*
X58831218Y-32511875D01*
X58845952Y-32511875D01*
X58865537Y-32510913D01*
X58870400Y-32510434D01*
X58870409Y-32510434D01*
X58880227Y-32509467D01*
X59360573Y-32509467D01*
X59370392Y-32510434D01*
G37*
G36*
X65014905Y-32446868D02*
G01*
X65183512Y-32516707D01*
X65187794Y-32518481D01*
X65343390Y-32622447D01*
X65475713Y-32754770D01*
X65533813Y-32841723D01*
X65579680Y-32910368D01*
X65651292Y-33083255D01*
X65687800Y-33266793D01*
X65687800Y-33453927D01*
X65651292Y-33637465D01*
X65625248Y-33700342D01*
X65579679Y-33810354D01*
X65475713Y-33965950D01*
X65343390Y-34098273D01*
X65187794Y-34202239D01*
X65187793Y-34202240D01*
X65187792Y-34202240D01*
X65014905Y-34273852D01*
X64831367Y-34310360D01*
X64644233Y-34310360D01*
X64460695Y-34273852D01*
X64287808Y-34202240D01*
X64287807Y-34202240D01*
X64287806Y-34202239D01*
X64132210Y-34098273D01*
X63999887Y-33965950D01*
X63895921Y-33810354D01*
X63850353Y-33700342D01*
X63824308Y-33637465D01*
X63787800Y-33453927D01*
X63787800Y-33266793D01*
X63824308Y-33083255D01*
X63895920Y-32910368D01*
X63941787Y-32841723D01*
X63999887Y-32754770D01*
X64132210Y-32622447D01*
X64287806Y-32518481D01*
X64292089Y-32516707D01*
X64460695Y-32446868D01*
X64644233Y-32410360D01*
X64831367Y-32410360D01*
X65014905Y-32446868D01*
G37*
G36*
X21855105Y-32294468D02*
G01*
X22027994Y-32366081D01*
X22183590Y-32470047D01*
X22315913Y-32602370D01*
X22419879Y-32757966D01*
X22491492Y-32930855D01*
X22528000Y-33114393D01*
X22528000Y-33301527D01*
X22491492Y-33485065D01*
X22419879Y-33657954D01*
X22315913Y-33813550D01*
X22183590Y-33945873D01*
X22027994Y-34049839D01*
X22027993Y-34049840D01*
X22027992Y-34049840D01*
X21855105Y-34121452D01*
X21671567Y-34157960D01*
X21484433Y-34157960D01*
X21300895Y-34121452D01*
X21128008Y-34049840D01*
X21128007Y-34049840D01*
X21128006Y-34049839D01*
X20972410Y-33945873D01*
X20840087Y-33813550D01*
X20736121Y-33657954D01*
X20664508Y-33485065D01*
X20628000Y-33301527D01*
X20628000Y-33114393D01*
X20664508Y-32930855D01*
X20736121Y-32757966D01*
X20840087Y-32602370D01*
X20972410Y-32470047D01*
X21128006Y-32366081D01*
X21300895Y-32294468D01*
X21484433Y-32257960D01*
X21671567Y-32257960D01*
X21855105Y-32294468D01*
G37*
G36*
X18934105Y-32294468D02*
G01*
X19106994Y-32366081D01*
X19262590Y-32470047D01*
X19394913Y-32602370D01*
X19498879Y-32757966D01*
X19570492Y-32930855D01*
X19607000Y-33114393D01*
X19607000Y-33301527D01*
X19570492Y-33485065D01*
X19498879Y-33657954D01*
X19394913Y-33813550D01*
X19262590Y-33945873D01*
X19106994Y-34049839D01*
X19106993Y-34049840D01*
X19106992Y-34049840D01*
X18934105Y-34121452D01*
X18750567Y-34157960D01*
X18563433Y-34157960D01*
X18379895Y-34121452D01*
X18207008Y-34049840D01*
X18207007Y-34049840D01*
X18207006Y-34049839D01*
X18051410Y-33945873D01*
X17919087Y-33813550D01*
X17815121Y-33657954D01*
X17743508Y-33485065D01*
X17707000Y-33301527D01*
X17707000Y-33114393D01*
X17743508Y-32930855D01*
X17815121Y-32757966D01*
X17919087Y-32602370D01*
X18051410Y-32470047D01*
X18207006Y-32366081D01*
X18379895Y-32294468D01*
X18563433Y-32257960D01*
X18750567Y-32257960D01*
X18934105Y-32294468D01*
G37*
G36*
X72768921Y-30818604D02*
G01*
X72923689Y-30849389D01*
X73105678Y-30924771D01*
X73269463Y-31034209D01*
X73408751Y-31173497D01*
X73518189Y-31337282D01*
X73593571Y-31519271D01*
X73632000Y-31712469D01*
X73632000Y-31909451D01*
X73593571Y-32102649D01*
X73518189Y-32284638D01*
X73408751Y-32448423D01*
X73269463Y-32587711D01*
X73105678Y-32697149D01*
X72923689Y-32772531D01*
X72768921Y-32803316D01*
X72730492Y-32810960D01*
X72533508Y-32810960D01*
X72495079Y-32803316D01*
X72340311Y-32772531D01*
X72158322Y-32697149D01*
X71994537Y-32587711D01*
X71855249Y-32448423D01*
X71745811Y-32284638D01*
X71670429Y-32102649D01*
X71632000Y-31909451D01*
X71632000Y-31712469D01*
X71670429Y-31519271D01*
X71745811Y-31337282D01*
X71855249Y-31173497D01*
X71994537Y-31034209D01*
X72158322Y-30924771D01*
X72340311Y-30849389D01*
X72495079Y-30818604D01*
X72533508Y-30810960D01*
X72730492Y-30810960D01*
X72768921Y-30818604D01*
G37*
G36*
X71092000Y-32810960D02*
G01*
X69092000Y-32810960D01*
X69092000Y-30810960D01*
X71092000Y-30810960D01*
X71092000Y-32810960D01*
G37*
G36*
X20404237Y-25019131D02*
G01*
X20968401Y-25252815D01*
X21476135Y-25592072D01*
X21907928Y-26023865D01*
X22247185Y-26531599D01*
X22450584Y-27022649D01*
X22480869Y-27095763D01*
X22600000Y-27694676D01*
X22600000Y-28305324D01*
X22534722Y-28633497D01*
X22480869Y-28904237D01*
X22247185Y-29468401D01*
X21907928Y-29976135D01*
X21476135Y-30407928D01*
X20968401Y-30747185D01*
X20539667Y-30924772D01*
X20404237Y-30980869D01*
X19805324Y-31100000D01*
X19194676Y-31100000D01*
X18595763Y-30980869D01*
X18460333Y-30924772D01*
X18031599Y-30747185D01*
X17523865Y-30407928D01*
X17092072Y-29976135D01*
X16752815Y-29468401D01*
X16519131Y-28904237D01*
X16465278Y-28633497D01*
X16400000Y-28305324D01*
X16400000Y-27694676D01*
X16519131Y-27095763D01*
X16549416Y-27022649D01*
X16752815Y-26531599D01*
X17092072Y-26023865D01*
X17523865Y-25592072D01*
X18031599Y-25252815D01*
X18595763Y-25019131D01*
X19194676Y-24900000D01*
X19805324Y-24900000D01*
X20404237Y-25019131D01*
G37*
G36*
X78404237Y-25019131D02*
G01*
X78968401Y-25252815D01*
X79476135Y-25592072D01*
X79907928Y-26023865D01*
X80247185Y-26531599D01*
X80450584Y-27022649D01*
X80480869Y-27095763D01*
X80600000Y-27694676D01*
X80600000Y-28305324D01*
X80534722Y-28633497D01*
X80480869Y-28904237D01*
X80247185Y-29468401D01*
X79907928Y-29976135D01*
X79476135Y-30407928D01*
X78968401Y-30747185D01*
X78539667Y-30924772D01*
X78404237Y-30980869D01*
X77805324Y-31100000D01*
X77194676Y-31100000D01*
X76595763Y-30980869D01*
X76460333Y-30924772D01*
X76031599Y-30747185D01*
X75523865Y-30407928D01*
X75092072Y-29976135D01*
X74752815Y-29468401D01*
X74519131Y-28904237D01*
X74465278Y-28633497D01*
X74400000Y-28305324D01*
X74400000Y-27694676D01*
X74519131Y-27095763D01*
X74549416Y-27022649D01*
X74752815Y-26531599D01*
X75092072Y-26023865D01*
X75523865Y-25592072D01*
X76031599Y-25252815D01*
X76595763Y-25019131D01*
X77194676Y-24900000D01*
X77805324Y-24900000D01*
X78404237Y-25019131D01*
G37*
G36*
X27048921Y-28278604D02*
G01*
X27203689Y-28309389D01*
X27385678Y-28384771D01*
X27549463Y-28494209D01*
X27688751Y-28633497D01*
X27798189Y-28797282D01*
X27873571Y-28979271D01*
X27912000Y-29172469D01*
X27912000Y-29369451D01*
X27873571Y-29562649D01*
X27798189Y-29744638D01*
X27688751Y-29908423D01*
X27549463Y-30047711D01*
X27385678Y-30157149D01*
X27203689Y-30232531D01*
X27048921Y-30263316D01*
X27010492Y-30270960D01*
X26813508Y-30270960D01*
X26775079Y-30263316D01*
X26620311Y-30232531D01*
X26438322Y-30157149D01*
X26274537Y-30047711D01*
X26135249Y-29908423D01*
X26025811Y-29744638D01*
X25950429Y-29562649D01*
X25912000Y-29369451D01*
X25912000Y-29172469D01*
X25950429Y-28979271D01*
X26025811Y-28797282D01*
X26135249Y-28633497D01*
X26274537Y-28494209D01*
X26438322Y-28384771D01*
X26620311Y-28309389D01*
X26775079Y-28278604D01*
X26813508Y-28270960D01*
X27010492Y-28270960D01*
X27048921Y-28278604D01*
G37*
G36*
X24508921Y-28278604D02*
G01*
X24663689Y-28309389D01*
X24845678Y-28384771D01*
X25009463Y-28494209D01*
X25148751Y-28633497D01*
X25258189Y-28797282D01*
X25333571Y-28979271D01*
X25372000Y-29172469D01*
X25372000Y-29369451D01*
X25333571Y-29562649D01*
X25258189Y-29744638D01*
X25148751Y-29908423D01*
X25009463Y-30047711D01*
X24845678Y-30157149D01*
X24663689Y-30232531D01*
X24508921Y-30263316D01*
X24470492Y-30270960D01*
X24273508Y-30270960D01*
X24235079Y-30263316D01*
X24080311Y-30232531D01*
X23898322Y-30157149D01*
X23734537Y-30047711D01*
X23595249Y-29908423D01*
X23485811Y-29744638D01*
X23410429Y-29562649D01*
X23372000Y-29369451D01*
X23372000Y-29172469D01*
X23410429Y-28979271D01*
X23485811Y-28797282D01*
X23595249Y-28633497D01*
X23734537Y-28494209D01*
X23898322Y-28384771D01*
X24080311Y-28309389D01*
X24235079Y-28278604D01*
X24273508Y-28270960D01*
X24470492Y-28270960D01*
X24508921Y-28278604D01*
G37*
G36*
X65148921Y-28278604D02*
G01*
X65303689Y-28309389D01*
X65485678Y-28384771D01*
X65649463Y-28494209D01*
X65788751Y-28633497D01*
X65898189Y-28797282D01*
X65973571Y-28979271D01*
X66012000Y-29172469D01*
X66012000Y-29369451D01*
X65973571Y-29562649D01*
X65898189Y-29744638D01*
X65788751Y-29908423D01*
X65649463Y-30047711D01*
X65485678Y-30157149D01*
X65303689Y-30232531D01*
X65148921Y-30263316D01*
X65110492Y-30270960D01*
X64913508Y-30270960D01*
X64875079Y-30263316D01*
X64720311Y-30232531D01*
X64538322Y-30157149D01*
X64374537Y-30047711D01*
X64235249Y-29908423D01*
X64125811Y-29744638D01*
X64050429Y-29562649D01*
X64012000Y-29369451D01*
X64012000Y-29172469D01*
X64050429Y-28979271D01*
X64125811Y-28797282D01*
X64235249Y-28633497D01*
X64374537Y-28494209D01*
X64538322Y-28384771D01*
X64720311Y-28309389D01*
X64875079Y-28278604D01*
X64913508Y-28270960D01*
X65110492Y-28270960D01*
X65148921Y-28278604D01*
G37*
G36*
X62608921Y-28278604D02*
G01*
X62763689Y-28309389D01*
X62945678Y-28384771D01*
X63109463Y-28494209D01*
X63248751Y-28633497D01*
X63358189Y-28797282D01*
X63433571Y-28979271D01*
X63472000Y-29172469D01*
X63472000Y-29369451D01*
X63433571Y-29562649D01*
X63358189Y-29744638D01*
X63248751Y-29908423D01*
X63109463Y-30047711D01*
X62945678Y-30157149D01*
X62763689Y-30232531D01*
X62608921Y-30263316D01*
X62570492Y-30270960D01*
X62373508Y-30270960D01*
X62335079Y-30263316D01*
X62180311Y-30232531D01*
X61998322Y-30157149D01*
X61834537Y-30047711D01*
X61695249Y-29908423D01*
X61585811Y-29744638D01*
X61510429Y-29562649D01*
X61472000Y-29369451D01*
X61472000Y-29172469D01*
X61510429Y-28979271D01*
X61585811Y-28797282D01*
X61695249Y-28633497D01*
X61834537Y-28494209D01*
X61998322Y-28384771D01*
X62180311Y-28309389D01*
X62335079Y-28278604D01*
X62373508Y-28270960D01*
X62570492Y-28270960D01*
X62608921Y-28278604D01*
G37*
G36*
X60068921Y-28278604D02*
G01*
X60223689Y-28309389D01*
X60405678Y-28384771D01*
X60569463Y-28494209D01*
X60708751Y-28633497D01*
X60818189Y-28797282D01*
X60893571Y-28979271D01*
X60932000Y-29172469D01*
X60932000Y-29369451D01*
X60893571Y-29562649D01*
X60818189Y-29744638D01*
X60708751Y-29908423D01*
X60569463Y-30047711D01*
X60405678Y-30157149D01*
X60223689Y-30232531D01*
X60068921Y-30263316D01*
X60030492Y-30270960D01*
X59833508Y-30270960D01*
X59795079Y-30263316D01*
X59640311Y-30232531D01*
X59458322Y-30157149D01*
X59294537Y-30047711D01*
X59155249Y-29908423D01*
X59045811Y-29744638D01*
X58970429Y-29562649D01*
X58932000Y-29369451D01*
X58932000Y-29172469D01*
X58970429Y-28979271D01*
X59045811Y-28797282D01*
X59155249Y-28633497D01*
X59294537Y-28494209D01*
X59458322Y-28384771D01*
X59640311Y-28309389D01*
X59795079Y-28278604D01*
X59833508Y-28270960D01*
X60030492Y-28270960D01*
X60068921Y-28278604D01*
G37*
G36*
X57528921Y-28278604D02*
G01*
X57683689Y-28309389D01*
X57865678Y-28384771D01*
X58029463Y-28494209D01*
X58168751Y-28633497D01*
X58278189Y-28797282D01*
X58353571Y-28979271D01*
X58392000Y-29172469D01*
X58392000Y-29369451D01*
X58353571Y-29562649D01*
X58278189Y-29744638D01*
X58168751Y-29908423D01*
X58029463Y-30047711D01*
X57865678Y-30157149D01*
X57683689Y-30232531D01*
X57528921Y-30263316D01*
X57490492Y-30270960D01*
X57293508Y-30270960D01*
X57255079Y-30263316D01*
X57100311Y-30232531D01*
X56918322Y-30157149D01*
X56754537Y-30047711D01*
X56615249Y-29908423D01*
X56505811Y-29744638D01*
X56430429Y-29562649D01*
X56392000Y-29369451D01*
X56392000Y-29172469D01*
X56430429Y-28979271D01*
X56505811Y-28797282D01*
X56615249Y-28633497D01*
X56754537Y-28494209D01*
X56918322Y-28384771D01*
X57100311Y-28309389D01*
X57255079Y-28278604D01*
X57293508Y-28270960D01*
X57490492Y-28270960D01*
X57528921Y-28278604D01*
G37*
G36*
X54988921Y-28278604D02*
G01*
X55143689Y-28309389D01*
X55325678Y-28384771D01*
X55489463Y-28494209D01*
X55628751Y-28633497D01*
X55738189Y-28797282D01*
X55813571Y-28979271D01*
X55852000Y-29172469D01*
X55852000Y-29369451D01*
X55813571Y-29562649D01*
X55738189Y-29744638D01*
X55628751Y-29908423D01*
X55489463Y-30047711D01*
X55325678Y-30157149D01*
X55143689Y-30232531D01*
X54988921Y-30263316D01*
X54950492Y-30270960D01*
X54753508Y-30270960D01*
X54715079Y-30263316D01*
X54560311Y-30232531D01*
X54378322Y-30157149D01*
X54214537Y-30047711D01*
X54075249Y-29908423D01*
X53965811Y-29744638D01*
X53890429Y-29562649D01*
X53852000Y-29369451D01*
X53852000Y-29172469D01*
X53890429Y-28979271D01*
X53965811Y-28797282D01*
X54075249Y-28633497D01*
X54214537Y-28494209D01*
X54378322Y-28384771D01*
X54560311Y-28309389D01*
X54715079Y-28278604D01*
X54753508Y-28270960D01*
X54950492Y-28270960D01*
X54988921Y-28278604D01*
G37*
G36*
X52448921Y-28278604D02*
G01*
X52603689Y-28309389D01*
X52785678Y-28384771D01*
X52949463Y-28494209D01*
X53088751Y-28633497D01*
X53198189Y-28797282D01*
X53273571Y-28979271D01*
X53312000Y-29172469D01*
X53312000Y-29369451D01*
X53273571Y-29562649D01*
X53198189Y-29744638D01*
X53088751Y-29908423D01*
X52949463Y-30047711D01*
X52785678Y-30157149D01*
X52603689Y-30232531D01*
X52448921Y-30263316D01*
X52410492Y-30270960D01*
X52213508Y-30270960D01*
X52175079Y-30263316D01*
X52020311Y-30232531D01*
X51838322Y-30157149D01*
X51674537Y-30047711D01*
X51535249Y-29908423D01*
X51425811Y-29744638D01*
X51350429Y-29562649D01*
X51312000Y-29369451D01*
X51312000Y-29172469D01*
X51350429Y-28979271D01*
X51425811Y-28797282D01*
X51535249Y-28633497D01*
X51674537Y-28494209D01*
X51838322Y-28384771D01*
X52020311Y-28309389D01*
X52175079Y-28278604D01*
X52213508Y-28270960D01*
X52410492Y-28270960D01*
X52448921Y-28278604D01*
G37*
G36*
X49908921Y-28278604D02*
G01*
X50063689Y-28309389D01*
X50245678Y-28384771D01*
X50409463Y-28494209D01*
X50548751Y-28633497D01*
X50658189Y-28797282D01*
X50733571Y-28979271D01*
X50772000Y-29172469D01*
X50772000Y-29369451D01*
X50733571Y-29562649D01*
X50658189Y-29744638D01*
X50548751Y-29908423D01*
X50409463Y-30047711D01*
X50245678Y-30157149D01*
X50063689Y-30232531D01*
X49908921Y-30263316D01*
X49870492Y-30270960D01*
X49673508Y-30270960D01*
X49635079Y-30263316D01*
X49480311Y-30232531D01*
X49298322Y-30157149D01*
X49134537Y-30047711D01*
X48995249Y-29908423D01*
X48885811Y-29744638D01*
X48810429Y-29562649D01*
X48772000Y-29369451D01*
X48772000Y-29172469D01*
X48810429Y-28979271D01*
X48885811Y-28797282D01*
X48995249Y-28633497D01*
X49134537Y-28494209D01*
X49298322Y-28384771D01*
X49480311Y-28309389D01*
X49635079Y-28278604D01*
X49673508Y-28270960D01*
X49870492Y-28270960D01*
X49908921Y-28278604D01*
G37*
G36*
X47368921Y-28278604D02*
G01*
X47523689Y-28309389D01*
X47705678Y-28384771D01*
X47869463Y-28494209D01*
X48008751Y-28633497D01*
X48118189Y-28797282D01*
X48193571Y-28979271D01*
X48232000Y-29172469D01*
X48232000Y-29369451D01*
X48193571Y-29562649D01*
X48118189Y-29744638D01*
X48008751Y-29908423D01*
X47869463Y-30047711D01*
X47705678Y-30157149D01*
X47523689Y-30232531D01*
X47368921Y-30263316D01*
X47330492Y-30270960D01*
X47133508Y-30270960D01*
X47095079Y-30263316D01*
X46940311Y-30232531D01*
X46758322Y-30157149D01*
X46594537Y-30047711D01*
X46455249Y-29908423D01*
X46345811Y-29744638D01*
X46270429Y-29562649D01*
X46232000Y-29369451D01*
X46232000Y-29172469D01*
X46270429Y-28979271D01*
X46345811Y-28797282D01*
X46455249Y-28633497D01*
X46594537Y-28494209D01*
X46758322Y-28384771D01*
X46940311Y-28309389D01*
X47095079Y-28278604D01*
X47133508Y-28270960D01*
X47330492Y-28270960D01*
X47368921Y-28278604D01*
G37*
G36*
X72768921Y-28278604D02*
G01*
X72923689Y-28309389D01*
X73105678Y-28384771D01*
X73269463Y-28494209D01*
X73408751Y-28633497D01*
X73518189Y-28797282D01*
X73593571Y-28979271D01*
X73632000Y-29172469D01*
X73632000Y-29369451D01*
X73593571Y-29562649D01*
X73518189Y-29744638D01*
X73408751Y-29908423D01*
X73269463Y-30047711D01*
X73105678Y-30157149D01*
X72923689Y-30232531D01*
X72768921Y-30263316D01*
X72730492Y-30270960D01*
X72533508Y-30270960D01*
X72495079Y-30263316D01*
X72340311Y-30232531D01*
X72158322Y-30157149D01*
X71994537Y-30047711D01*
X71855249Y-29908423D01*
X71745811Y-29744638D01*
X71670429Y-29562649D01*
X71632000Y-29369451D01*
X71632000Y-29172469D01*
X71670429Y-28979271D01*
X71745811Y-28797282D01*
X71855249Y-28633497D01*
X71994537Y-28494209D01*
X72158322Y-28384771D01*
X72340311Y-28309389D01*
X72495079Y-28278604D01*
X72533508Y-28270960D01*
X72730492Y-28270960D01*
X72768921Y-28278604D01*
G37*
G36*
X70228921Y-28278604D02*
G01*
X70383689Y-28309389D01*
X70565678Y-28384771D01*
X70729463Y-28494209D01*
X70868751Y-28633497D01*
X70978189Y-28797282D01*
X71053571Y-28979271D01*
X71092000Y-29172469D01*
X71092000Y-29369451D01*
X71053571Y-29562649D01*
X70978189Y-29744638D01*
X70868751Y-29908423D01*
X70729463Y-30047711D01*
X70565678Y-30157149D01*
X70383689Y-30232531D01*
X70228921Y-30263316D01*
X70190492Y-30270960D01*
X69993508Y-30270960D01*
X69955079Y-30263316D01*
X69800311Y-30232531D01*
X69618322Y-30157149D01*
X69454537Y-30047711D01*
X69315249Y-29908423D01*
X69205811Y-29744638D01*
X69130429Y-29562649D01*
X69092000Y-29369451D01*
X69092000Y-29172469D01*
X69130429Y-28979271D01*
X69205811Y-28797282D01*
X69315249Y-28633497D01*
X69454537Y-28494209D01*
X69618322Y-28384771D01*
X69800311Y-28309389D01*
X69955079Y-28278604D01*
X69993508Y-28270960D01*
X70190492Y-28270960D01*
X70228921Y-28278604D01*
G37*
G36*
X32128921Y-28278604D02*
G01*
X32283689Y-28309389D01*
X32465678Y-28384771D01*
X32629463Y-28494209D01*
X32768751Y-28633497D01*
X32878189Y-28797282D01*
X32953571Y-28979271D01*
X32992000Y-29172469D01*
X32992000Y-29369451D01*
X32953571Y-29562649D01*
X32878189Y-29744638D01*
X32768751Y-29908423D01*
X32629463Y-30047711D01*
X32465678Y-30157149D01*
X32283689Y-30232531D01*
X32128921Y-30263316D01*
X32090492Y-30270960D01*
X31893508Y-30270960D01*
X31855079Y-30263316D01*
X31700311Y-30232531D01*
X31518322Y-30157149D01*
X31354537Y-30047711D01*
X31215249Y-29908423D01*
X31105811Y-29744638D01*
X31030429Y-29562649D01*
X30992000Y-29369451D01*
X30992000Y-29172469D01*
X31030429Y-28979271D01*
X31105811Y-28797282D01*
X31215249Y-28633497D01*
X31354537Y-28494209D01*
X31518322Y-28384771D01*
X31700311Y-28309389D01*
X31855079Y-28278604D01*
X31893508Y-28270960D01*
X32090492Y-28270960D01*
X32128921Y-28278604D01*
G37*
G36*
X67688921Y-28278604D02*
G01*
X67843689Y-28309389D01*
X68025678Y-28384771D01*
X68189463Y-28494209D01*
X68328751Y-28633497D01*
X68438189Y-28797282D01*
X68513571Y-28979271D01*
X68552000Y-29172469D01*
X68552000Y-29369451D01*
X68513571Y-29562649D01*
X68438189Y-29744638D01*
X68328751Y-29908423D01*
X68189463Y-30047711D01*
X68025678Y-30157149D01*
X67843689Y-30232531D01*
X67688921Y-30263316D01*
X67650492Y-30270960D01*
X67453508Y-30270960D01*
X67415079Y-30263316D01*
X67260311Y-30232531D01*
X67078322Y-30157149D01*
X66914537Y-30047711D01*
X66775249Y-29908423D01*
X66665811Y-29744638D01*
X66590429Y-29562649D01*
X66552000Y-29369451D01*
X66552000Y-29172469D01*
X66590429Y-28979271D01*
X66665811Y-28797282D01*
X66775249Y-28633497D01*
X66914537Y-28494209D01*
X67078322Y-28384771D01*
X67260311Y-28309389D01*
X67415079Y-28278604D01*
X67453508Y-28270960D01*
X67650492Y-28270960D01*
X67688921Y-28278604D01*
G37*
G36*
X34668921Y-28278604D02*
G01*
X34823689Y-28309389D01*
X35005678Y-28384771D01*
X35169463Y-28494209D01*
X35308751Y-28633497D01*
X35418189Y-28797282D01*
X35493571Y-28979271D01*
X35532000Y-29172469D01*
X35532000Y-29369451D01*
X35493571Y-29562649D01*
X35418189Y-29744638D01*
X35308751Y-29908423D01*
X35169463Y-30047711D01*
X35005678Y-30157149D01*
X34823689Y-30232531D01*
X34668921Y-30263316D01*
X34630492Y-30270960D01*
X34433508Y-30270960D01*
X34395079Y-30263316D01*
X34240311Y-30232531D01*
X34058322Y-30157149D01*
X33894537Y-30047711D01*
X33755249Y-29908423D01*
X33645811Y-29744638D01*
X33570429Y-29562649D01*
X33532000Y-29369451D01*
X33532000Y-29172469D01*
X33570429Y-28979271D01*
X33645811Y-28797282D01*
X33755249Y-28633497D01*
X33894537Y-28494209D01*
X34058322Y-28384771D01*
X34240311Y-28309389D01*
X34395079Y-28278604D01*
X34433508Y-28270960D01*
X34630492Y-28270960D01*
X34668921Y-28278604D01*
G37*
G36*
X37208921Y-28278604D02*
G01*
X37363689Y-28309389D01*
X37545678Y-28384771D01*
X37709463Y-28494209D01*
X37848751Y-28633497D01*
X37958189Y-28797282D01*
X38033571Y-28979271D01*
X38072000Y-29172469D01*
X38072000Y-29369451D01*
X38033571Y-29562649D01*
X37958189Y-29744638D01*
X37848751Y-29908423D01*
X37709463Y-30047711D01*
X37545678Y-30157149D01*
X37363689Y-30232531D01*
X37208921Y-30263316D01*
X37170492Y-30270960D01*
X36973508Y-30270960D01*
X36935079Y-30263316D01*
X36780311Y-30232531D01*
X36598322Y-30157149D01*
X36434537Y-30047711D01*
X36295249Y-29908423D01*
X36185811Y-29744638D01*
X36110429Y-29562649D01*
X36072000Y-29369451D01*
X36072000Y-29172469D01*
X36110429Y-28979271D01*
X36185811Y-28797282D01*
X36295249Y-28633497D01*
X36434537Y-28494209D01*
X36598322Y-28384771D01*
X36780311Y-28309389D01*
X36935079Y-28278604D01*
X36973508Y-28270960D01*
X37170492Y-28270960D01*
X37208921Y-28278604D01*
G37*
G36*
X39748921Y-28278604D02*
G01*
X39903689Y-28309389D01*
X40085678Y-28384771D01*
X40249463Y-28494209D01*
X40388751Y-28633497D01*
X40498189Y-28797282D01*
X40573571Y-28979271D01*
X40612000Y-29172469D01*
X40612000Y-29369451D01*
X40573571Y-29562649D01*
X40498189Y-29744638D01*
X40388751Y-29908423D01*
X40249463Y-30047711D01*
X40085678Y-30157149D01*
X39903689Y-30232531D01*
X39748921Y-30263316D01*
X39710492Y-30270960D01*
X39513508Y-30270960D01*
X39475079Y-30263316D01*
X39320311Y-30232531D01*
X39138322Y-30157149D01*
X38974537Y-30047711D01*
X38835249Y-29908423D01*
X38725811Y-29744638D01*
X38650429Y-29562649D01*
X38612000Y-29369451D01*
X38612000Y-29172469D01*
X38650429Y-28979271D01*
X38725811Y-28797282D01*
X38835249Y-28633497D01*
X38974537Y-28494209D01*
X39138322Y-28384771D01*
X39320311Y-28309389D01*
X39475079Y-28278604D01*
X39513508Y-28270960D01*
X39710492Y-28270960D01*
X39748921Y-28278604D01*
G37*
G36*
X42288921Y-28278604D02*
G01*
X42443689Y-28309389D01*
X42625678Y-28384771D01*
X42789463Y-28494209D01*
X42928751Y-28633497D01*
X43038189Y-28797282D01*
X43113571Y-28979271D01*
X43152000Y-29172469D01*
X43152000Y-29369451D01*
X43113571Y-29562649D01*
X43038189Y-29744638D01*
X42928751Y-29908423D01*
X42789463Y-30047711D01*
X42625678Y-30157149D01*
X42443689Y-30232531D01*
X42288921Y-30263316D01*
X42250492Y-30270960D01*
X42053508Y-30270960D01*
X42015079Y-30263316D01*
X41860311Y-30232531D01*
X41678322Y-30157149D01*
X41514537Y-30047711D01*
X41375249Y-29908423D01*
X41265811Y-29744638D01*
X41190429Y-29562649D01*
X41152000Y-29369451D01*
X41152000Y-29172469D01*
X41190429Y-28979271D01*
X41265811Y-28797282D01*
X41375249Y-28633497D01*
X41514537Y-28494209D01*
X41678322Y-28384771D01*
X41860311Y-28309389D01*
X42015079Y-28278604D01*
X42053508Y-28270960D01*
X42250492Y-28270960D01*
X42288921Y-28278604D01*
G37*
G36*
X44828921Y-28278604D02*
G01*
X44983689Y-28309389D01*
X45165678Y-28384771D01*
X45329463Y-28494209D01*
X45468751Y-28633497D01*
X45578189Y-28797282D01*
X45653571Y-28979271D01*
X45692000Y-29172469D01*
X45692000Y-29369451D01*
X45653571Y-29562649D01*
X45578189Y-29744638D01*
X45468751Y-29908423D01*
X45329463Y-30047711D01*
X45165678Y-30157149D01*
X44983689Y-30232531D01*
X44828921Y-30263316D01*
X44790492Y-30270960D01*
X44593508Y-30270960D01*
X44555079Y-30263316D01*
X44400311Y-30232531D01*
X44218322Y-30157149D01*
X44054537Y-30047711D01*
X43915249Y-29908423D01*
X43805811Y-29744638D01*
X43730429Y-29562649D01*
X43692000Y-29369451D01*
X43692000Y-29172469D01*
X43730429Y-28979271D01*
X43805811Y-28797282D01*
X43915249Y-28633497D01*
X44054537Y-28494209D01*
X44218322Y-28384771D01*
X44400311Y-28309389D01*
X44555079Y-28278604D01*
X44593508Y-28270960D01*
X44790492Y-28270960D01*
X44828921Y-28278604D01*
G37*
G36*
X29588921Y-28278604D02*
G01*
X29743689Y-28309389D01*
X29925678Y-28384771D01*
X30089463Y-28494209D01*
X30228751Y-28633497D01*
X30338189Y-28797282D01*
X30413571Y-28979271D01*
X30452000Y-29172469D01*
X30452000Y-29369451D01*
X30413571Y-29562649D01*
X30338189Y-29744638D01*
X30228751Y-29908423D01*
X30089463Y-30047711D01*
X29925678Y-30157149D01*
X29743689Y-30232531D01*
X29588921Y-30263316D01*
X29550492Y-30270960D01*
X29353508Y-30270960D01*
X29315079Y-30263316D01*
X29160311Y-30232531D01*
X28978322Y-30157149D01*
X28814537Y-30047711D01*
X28675249Y-29908423D01*
X28565811Y-29744638D01*
X28490429Y-29562649D01*
X28452000Y-29369451D01*
X28452000Y-29172469D01*
X28490429Y-28979271D01*
X28565811Y-28797282D01*
X28675249Y-28633497D01*
X28814537Y-28494209D01*
X28978322Y-28384771D01*
X29160311Y-28309389D01*
X29315079Y-28278604D01*
X29353508Y-28270960D01*
X29550492Y-28270960D01*
X29588921Y-28278604D01*
G37*
G36*
X62608921Y-25738604D02*
G01*
X62763689Y-25769389D01*
X62945678Y-25844771D01*
X63109463Y-25954209D01*
X63248751Y-26093497D01*
X63358189Y-26257282D01*
X63433571Y-26439271D01*
X63472000Y-26632469D01*
X63472000Y-26829451D01*
X63433571Y-27022649D01*
X63358189Y-27204638D01*
X63248751Y-27368423D01*
X63109463Y-27507711D01*
X62945678Y-27617149D01*
X62763689Y-27692531D01*
X62608921Y-27723316D01*
X62570492Y-27730960D01*
X62373508Y-27730960D01*
X62335079Y-27723316D01*
X62180311Y-27692531D01*
X61998322Y-27617149D01*
X61834537Y-27507711D01*
X61695249Y-27368423D01*
X61585811Y-27204638D01*
X61510429Y-27022649D01*
X61472000Y-26829451D01*
X61472000Y-26632469D01*
X61510429Y-26439271D01*
X61585811Y-26257282D01*
X61695249Y-26093497D01*
X61834537Y-25954209D01*
X61998322Y-25844771D01*
X62180311Y-25769389D01*
X62335079Y-25738604D01*
X62373508Y-25730960D01*
X62570492Y-25730960D01*
X62608921Y-25738604D01*
G37*
G36*
X60068921Y-25738604D02*
G01*
X60223689Y-25769389D01*
X60405678Y-25844771D01*
X60569463Y-25954209D01*
X60708751Y-26093497D01*
X60818189Y-26257282D01*
X60893571Y-26439271D01*
X60932000Y-26632469D01*
X60932000Y-26829451D01*
X60893571Y-27022649D01*
X60818189Y-27204638D01*
X60708751Y-27368423D01*
X60569463Y-27507711D01*
X60405678Y-27617149D01*
X60223689Y-27692531D01*
X60068921Y-27723316D01*
X60030492Y-27730960D01*
X59833508Y-27730960D01*
X59795079Y-27723316D01*
X59640311Y-27692531D01*
X59458322Y-27617149D01*
X59294537Y-27507711D01*
X59155249Y-27368423D01*
X59045811Y-27204638D01*
X58970429Y-27022649D01*
X58932000Y-26829451D01*
X58932000Y-26632469D01*
X58970429Y-26439271D01*
X59045811Y-26257282D01*
X59155249Y-26093497D01*
X59294537Y-25954209D01*
X59458322Y-25844771D01*
X59640311Y-25769389D01*
X59795079Y-25738604D01*
X59833508Y-25730960D01*
X60030492Y-25730960D01*
X60068921Y-25738604D01*
G37*
G36*
X57528921Y-25738604D02*
G01*
X57683689Y-25769389D01*
X57865678Y-25844771D01*
X58029463Y-25954209D01*
X58168751Y-26093497D01*
X58278189Y-26257282D01*
X58353571Y-26439271D01*
X58392000Y-26632469D01*
X58392000Y-26829451D01*
X58353571Y-27022649D01*
X58278189Y-27204638D01*
X58168751Y-27368423D01*
X58029463Y-27507711D01*
X57865678Y-27617149D01*
X57683689Y-27692531D01*
X57528921Y-27723316D01*
X57490492Y-27730960D01*
X57293508Y-27730960D01*
X57255079Y-27723316D01*
X57100311Y-27692531D01*
X56918322Y-27617149D01*
X56754537Y-27507711D01*
X56615249Y-27368423D01*
X56505811Y-27204638D01*
X56430429Y-27022649D01*
X56392000Y-26829451D01*
X56392000Y-26632469D01*
X56430429Y-26439271D01*
X56505811Y-26257282D01*
X56615249Y-26093497D01*
X56754537Y-25954209D01*
X56918322Y-25844771D01*
X57100311Y-25769389D01*
X57255079Y-25738604D01*
X57293508Y-25730960D01*
X57490492Y-25730960D01*
X57528921Y-25738604D01*
G37*
G36*
X54988921Y-25738604D02*
G01*
X55143689Y-25769389D01*
X55325678Y-25844771D01*
X55489463Y-25954209D01*
X55628751Y-26093497D01*
X55738189Y-26257282D01*
X55813571Y-26439271D01*
X55852000Y-26632469D01*
X55852000Y-26829451D01*
X55813571Y-27022649D01*
X55738189Y-27204638D01*
X55628751Y-27368423D01*
X55489463Y-27507711D01*
X55325678Y-27617149D01*
X55143689Y-27692531D01*
X54988921Y-27723316D01*
X54950492Y-27730960D01*
X54753508Y-27730960D01*
X54715079Y-27723316D01*
X54560311Y-27692531D01*
X54378322Y-27617149D01*
X54214537Y-27507711D01*
X54075249Y-27368423D01*
X53965811Y-27204638D01*
X53890429Y-27022649D01*
X53852000Y-26829451D01*
X53852000Y-26632469D01*
X53890429Y-26439271D01*
X53965811Y-26257282D01*
X54075249Y-26093497D01*
X54214537Y-25954209D01*
X54378322Y-25844771D01*
X54560311Y-25769389D01*
X54715079Y-25738604D01*
X54753508Y-25730960D01*
X54950492Y-25730960D01*
X54988921Y-25738604D01*
G37*
G36*
X52448921Y-25738604D02*
G01*
X52603689Y-25769389D01*
X52785678Y-25844771D01*
X52949463Y-25954209D01*
X53088751Y-26093497D01*
X53198189Y-26257282D01*
X53273571Y-26439271D01*
X53312000Y-26632469D01*
X53312000Y-26829451D01*
X53273571Y-27022649D01*
X53198189Y-27204638D01*
X53088751Y-27368423D01*
X52949463Y-27507711D01*
X52785678Y-27617149D01*
X52603689Y-27692531D01*
X52448921Y-27723316D01*
X52410492Y-27730960D01*
X52213508Y-27730960D01*
X52175079Y-27723316D01*
X52020311Y-27692531D01*
X51838322Y-27617149D01*
X51674537Y-27507711D01*
X51535249Y-27368423D01*
X51425811Y-27204638D01*
X51350429Y-27022649D01*
X51312000Y-26829451D01*
X51312000Y-26632469D01*
X51350429Y-26439271D01*
X51425811Y-26257282D01*
X51535249Y-26093497D01*
X51674537Y-25954209D01*
X51838322Y-25844771D01*
X52020311Y-25769389D01*
X52175079Y-25738604D01*
X52213508Y-25730960D01*
X52410492Y-25730960D01*
X52448921Y-25738604D01*
G37*
G36*
X49908921Y-25738604D02*
G01*
X50063689Y-25769389D01*
X50245678Y-25844771D01*
X50409463Y-25954209D01*
X50548751Y-26093497D01*
X50658189Y-26257282D01*
X50733571Y-26439271D01*
X50772000Y-26632469D01*
X50772000Y-26829451D01*
X50733571Y-27022649D01*
X50658189Y-27204638D01*
X50548751Y-27368423D01*
X50409463Y-27507711D01*
X50245678Y-27617149D01*
X50063689Y-27692531D01*
X49908921Y-27723316D01*
X49870492Y-27730960D01*
X49673508Y-27730960D01*
X49635079Y-27723316D01*
X49480311Y-27692531D01*
X49298322Y-27617149D01*
X49134537Y-27507711D01*
X48995249Y-27368423D01*
X48885811Y-27204638D01*
X48810429Y-27022649D01*
X48772000Y-26829451D01*
X48772000Y-26632469D01*
X48810429Y-26439271D01*
X48885811Y-26257282D01*
X48995249Y-26093497D01*
X49134537Y-25954209D01*
X49298322Y-25844771D01*
X49480311Y-25769389D01*
X49635079Y-25738604D01*
X49673508Y-25730960D01*
X49870492Y-25730960D01*
X49908921Y-25738604D01*
G37*
G36*
X47368921Y-25738604D02*
G01*
X47523689Y-25769389D01*
X47705678Y-25844771D01*
X47869463Y-25954209D01*
X48008751Y-26093497D01*
X48118189Y-26257282D01*
X48193571Y-26439271D01*
X48232000Y-26632469D01*
X48232000Y-26829451D01*
X48193571Y-27022649D01*
X48118189Y-27204638D01*
X48008751Y-27368423D01*
X47869463Y-27507711D01*
X47705678Y-27617149D01*
X47523689Y-27692531D01*
X47368921Y-27723316D01*
X47330492Y-27730960D01*
X47133508Y-27730960D01*
X47095079Y-27723316D01*
X46940311Y-27692531D01*
X46758322Y-27617149D01*
X46594537Y-27507711D01*
X46455249Y-27368423D01*
X46345811Y-27204638D01*
X46270429Y-27022649D01*
X46232000Y-26829451D01*
X46232000Y-26632469D01*
X46270429Y-26439271D01*
X46345811Y-26257282D01*
X46455249Y-26093497D01*
X46594537Y-25954209D01*
X46758322Y-25844771D01*
X46940311Y-25769389D01*
X47095079Y-25738604D01*
X47133508Y-25730960D01*
X47330492Y-25730960D01*
X47368921Y-25738604D01*
G37*
G36*
X44828921Y-25738604D02*
G01*
X44983689Y-25769389D01*
X45165678Y-25844771D01*
X45329463Y-25954209D01*
X45468751Y-26093497D01*
X45578189Y-26257282D01*
X45653571Y-26439271D01*
X45692000Y-26632469D01*
X45692000Y-26829451D01*
X45653571Y-27022649D01*
X45578189Y-27204638D01*
X45468751Y-27368423D01*
X45329463Y-27507711D01*
X45165678Y-27617149D01*
X44983689Y-27692531D01*
X44828921Y-27723316D01*
X44790492Y-27730960D01*
X44593508Y-27730960D01*
X44555079Y-27723316D01*
X44400311Y-27692531D01*
X44218322Y-27617149D01*
X44054537Y-27507711D01*
X43915249Y-27368423D01*
X43805811Y-27204638D01*
X43730429Y-27022649D01*
X43692000Y-26829451D01*
X43692000Y-26632469D01*
X43730429Y-26439271D01*
X43805811Y-26257282D01*
X43915249Y-26093497D01*
X44054537Y-25954209D01*
X44218322Y-25844771D01*
X44400311Y-25769389D01*
X44555079Y-25738604D01*
X44593508Y-25730960D01*
X44790492Y-25730960D01*
X44828921Y-25738604D01*
G37*
G36*
X42288921Y-25738604D02*
G01*
X42443689Y-25769389D01*
X42625678Y-25844771D01*
X42789463Y-25954209D01*
X42928751Y-26093497D01*
X43038189Y-26257282D01*
X43113571Y-26439271D01*
X43152000Y-26632469D01*
X43152000Y-26829451D01*
X43113571Y-27022649D01*
X43038189Y-27204638D01*
X42928751Y-27368423D01*
X42789463Y-27507711D01*
X42625678Y-27617149D01*
X42443689Y-27692531D01*
X42288921Y-27723316D01*
X42250492Y-27730960D01*
X42053508Y-27730960D01*
X42015079Y-27723316D01*
X41860311Y-27692531D01*
X41678322Y-27617149D01*
X41514537Y-27507711D01*
X41375249Y-27368423D01*
X41265811Y-27204638D01*
X41190429Y-27022649D01*
X41152000Y-26829451D01*
X41152000Y-26632469D01*
X41190429Y-26439271D01*
X41265811Y-26257282D01*
X41375249Y-26093497D01*
X41514537Y-25954209D01*
X41678322Y-25844771D01*
X41860311Y-25769389D01*
X42015079Y-25738604D01*
X42053508Y-25730960D01*
X42250492Y-25730960D01*
X42288921Y-25738604D01*
G37*
G36*
X39748921Y-25738604D02*
G01*
X39903689Y-25769389D01*
X40085678Y-25844771D01*
X40249463Y-25954209D01*
X40388751Y-26093497D01*
X40498189Y-26257282D01*
X40573571Y-26439271D01*
X40612000Y-26632469D01*
X40612000Y-26829451D01*
X40573571Y-27022649D01*
X40498189Y-27204638D01*
X40388751Y-27368423D01*
X40249463Y-27507711D01*
X40085678Y-27617149D01*
X39903689Y-27692531D01*
X39748921Y-27723316D01*
X39710492Y-27730960D01*
X39513508Y-27730960D01*
X39475079Y-27723316D01*
X39320311Y-27692531D01*
X39138322Y-27617149D01*
X38974537Y-27507711D01*
X38835249Y-27368423D01*
X38725811Y-27204638D01*
X38650429Y-27022649D01*
X38612000Y-26829451D01*
X38612000Y-26632469D01*
X38650429Y-26439271D01*
X38725811Y-26257282D01*
X38835249Y-26093497D01*
X38974537Y-25954209D01*
X39138322Y-25844771D01*
X39320311Y-25769389D01*
X39475079Y-25738604D01*
X39513508Y-25730960D01*
X39710492Y-25730960D01*
X39748921Y-25738604D01*
G37*
G36*
X37208921Y-25738604D02*
G01*
X37363689Y-25769389D01*
X37545678Y-25844771D01*
X37709463Y-25954209D01*
X37848751Y-26093497D01*
X37958189Y-26257282D01*
X38033571Y-26439271D01*
X38072000Y-26632469D01*
X38072000Y-26829451D01*
X38033571Y-27022649D01*
X37958189Y-27204638D01*
X37848751Y-27368423D01*
X37709463Y-27507711D01*
X37545678Y-27617149D01*
X37363689Y-27692531D01*
X37208921Y-27723316D01*
X37170492Y-27730960D01*
X36973508Y-27730960D01*
X36935079Y-27723316D01*
X36780311Y-27692531D01*
X36598322Y-27617149D01*
X36434537Y-27507711D01*
X36295249Y-27368423D01*
X36185811Y-27204638D01*
X36110429Y-27022649D01*
X36072000Y-26829451D01*
X36072000Y-26632469D01*
X36110429Y-26439271D01*
X36185811Y-26257282D01*
X36295249Y-26093497D01*
X36434537Y-25954209D01*
X36598322Y-25844771D01*
X36780311Y-25769389D01*
X36935079Y-25738604D01*
X36973508Y-25730960D01*
X37170492Y-25730960D01*
X37208921Y-25738604D01*
G37*
G36*
X34668921Y-25738604D02*
G01*
X34823689Y-25769389D01*
X35005678Y-25844771D01*
X35169463Y-25954209D01*
X35308751Y-26093497D01*
X35418189Y-26257282D01*
X35493571Y-26439271D01*
X35532000Y-26632469D01*
X35532000Y-26829451D01*
X35493571Y-27022649D01*
X35418189Y-27204638D01*
X35308751Y-27368423D01*
X35169463Y-27507711D01*
X35005678Y-27617149D01*
X34823689Y-27692531D01*
X34668921Y-27723316D01*
X34630492Y-27730960D01*
X34433508Y-27730960D01*
X34395079Y-27723316D01*
X34240311Y-27692531D01*
X34058322Y-27617149D01*
X33894537Y-27507711D01*
X33755249Y-27368423D01*
X33645811Y-27204638D01*
X33570429Y-27022649D01*
X33532000Y-26829451D01*
X33532000Y-26632469D01*
X33570429Y-26439271D01*
X33645811Y-26257282D01*
X33755249Y-26093497D01*
X33894537Y-25954209D01*
X34058322Y-25844771D01*
X34240311Y-25769389D01*
X34395079Y-25738604D01*
X34433508Y-25730960D01*
X34630492Y-25730960D01*
X34668921Y-25738604D01*
G37*
G36*
X32128921Y-25738604D02*
G01*
X32283689Y-25769389D01*
X32465678Y-25844771D01*
X32629463Y-25954209D01*
X32768751Y-26093497D01*
X32878189Y-26257282D01*
X32953571Y-26439271D01*
X32992000Y-26632469D01*
X32992000Y-26829451D01*
X32953571Y-27022649D01*
X32878189Y-27204638D01*
X32768751Y-27368423D01*
X32629463Y-27507711D01*
X32465678Y-27617149D01*
X32283689Y-27692531D01*
X32128921Y-27723316D01*
X32090492Y-27730960D01*
X31893508Y-27730960D01*
X31855079Y-27723316D01*
X31700311Y-27692531D01*
X31518322Y-27617149D01*
X31354537Y-27507711D01*
X31215249Y-27368423D01*
X31105811Y-27204638D01*
X31030429Y-27022649D01*
X30992000Y-26829451D01*
X30992000Y-26632469D01*
X31030429Y-26439271D01*
X31105811Y-26257282D01*
X31215249Y-26093497D01*
X31354537Y-25954209D01*
X31518322Y-25844771D01*
X31700311Y-25769389D01*
X31855079Y-25738604D01*
X31893508Y-25730960D01*
X32090492Y-25730960D01*
X32128921Y-25738604D01*
G37*
G36*
X29588921Y-25738604D02*
G01*
X29743689Y-25769389D01*
X29925678Y-25844771D01*
X30089463Y-25954209D01*
X30228751Y-26093497D01*
X30338189Y-26257282D01*
X30413571Y-26439271D01*
X30452000Y-26632469D01*
X30452000Y-26829451D01*
X30413571Y-27022649D01*
X30338189Y-27204638D01*
X30228751Y-27368423D01*
X30089463Y-27507711D01*
X29925678Y-27617149D01*
X29743689Y-27692531D01*
X29588921Y-27723316D01*
X29550492Y-27730960D01*
X29353508Y-27730960D01*
X29315079Y-27723316D01*
X29160311Y-27692531D01*
X28978322Y-27617149D01*
X28814537Y-27507711D01*
X28675249Y-27368423D01*
X28565811Y-27204638D01*
X28490429Y-27022649D01*
X28452000Y-26829451D01*
X28452000Y-26632469D01*
X28490429Y-26439271D01*
X28565811Y-26257282D01*
X28675249Y-26093497D01*
X28814537Y-25954209D01*
X28978322Y-25844771D01*
X29160311Y-25769389D01*
X29315079Y-25738604D01*
X29353508Y-25730960D01*
X29550492Y-25730960D01*
X29588921Y-25738604D01*
G37*
G36*
X24508921Y-25738604D02*
G01*
X24663689Y-25769389D01*
X24845678Y-25844771D01*
X25009463Y-25954209D01*
X25148751Y-26093497D01*
X25258189Y-26257282D01*
X25333571Y-26439271D01*
X25372000Y-26632469D01*
X25372000Y-26829451D01*
X25333571Y-27022649D01*
X25258189Y-27204638D01*
X25148751Y-27368423D01*
X25009463Y-27507711D01*
X24845678Y-27617149D01*
X24663689Y-27692531D01*
X24508921Y-27723316D01*
X24470492Y-27730960D01*
X24273508Y-27730960D01*
X24235079Y-27723316D01*
X24080311Y-27692531D01*
X23898322Y-27617149D01*
X23734537Y-27507711D01*
X23595249Y-27368423D01*
X23485811Y-27204638D01*
X23410429Y-27022649D01*
X23372000Y-26829451D01*
X23372000Y-26632469D01*
X23410429Y-26439271D01*
X23485811Y-26257282D01*
X23595249Y-26093497D01*
X23734537Y-25954209D01*
X23898322Y-25844771D01*
X24080311Y-25769389D01*
X24235079Y-25738604D01*
X24273508Y-25730960D01*
X24470492Y-25730960D01*
X24508921Y-25738604D01*
G37*
G36*
X65148921Y-25738604D02*
G01*
X65303689Y-25769389D01*
X65485678Y-25844771D01*
X65649463Y-25954209D01*
X65788751Y-26093497D01*
X65898189Y-26257282D01*
X65973571Y-26439271D01*
X66012000Y-26632469D01*
X66012000Y-26829451D01*
X65973571Y-27022649D01*
X65898189Y-27204638D01*
X65788751Y-27368423D01*
X65649463Y-27507711D01*
X65485678Y-27617149D01*
X65303689Y-27692531D01*
X65148921Y-27723316D01*
X65110492Y-27730960D01*
X64913508Y-27730960D01*
X64875079Y-27723316D01*
X64720311Y-27692531D01*
X64538322Y-27617149D01*
X64374537Y-27507711D01*
X64235249Y-27368423D01*
X64125811Y-27204638D01*
X64050429Y-27022649D01*
X64012000Y-26829451D01*
X64012000Y-26632469D01*
X64050429Y-26439271D01*
X64125811Y-26257282D01*
X64235249Y-26093497D01*
X64374537Y-25954209D01*
X64538322Y-25844771D01*
X64720311Y-25769389D01*
X64875079Y-25738604D01*
X64913508Y-25730960D01*
X65110492Y-25730960D01*
X65148921Y-25738604D01*
G37*
G36*
X67688921Y-25738604D02*
G01*
X67843689Y-25769389D01*
X68025678Y-25844771D01*
X68189463Y-25954209D01*
X68328751Y-26093497D01*
X68438189Y-26257282D01*
X68513571Y-26439271D01*
X68552000Y-26632469D01*
X68552000Y-26829451D01*
X68513571Y-27022649D01*
X68438189Y-27204638D01*
X68328751Y-27368423D01*
X68189463Y-27507711D01*
X68025678Y-27617149D01*
X67843689Y-27692531D01*
X67688921Y-27723316D01*
X67650492Y-27730960D01*
X67453508Y-27730960D01*
X67415079Y-27723316D01*
X67260311Y-27692531D01*
X67078322Y-27617149D01*
X66914537Y-27507711D01*
X66775249Y-27368423D01*
X66665811Y-27204638D01*
X66590429Y-27022649D01*
X66552000Y-26829451D01*
X66552000Y-26632469D01*
X66590429Y-26439271D01*
X66665811Y-26257282D01*
X66775249Y-26093497D01*
X66914537Y-25954209D01*
X67078322Y-25844771D01*
X67260311Y-25769389D01*
X67415079Y-25738604D01*
X67453508Y-25730960D01*
X67650492Y-25730960D01*
X67688921Y-25738604D01*
G37*
G36*
X70228921Y-25738604D02*
G01*
X70383689Y-25769389D01*
X70565678Y-25844771D01*
X70729463Y-25954209D01*
X70868751Y-26093497D01*
X70978189Y-26257282D01*
X71053571Y-26439271D01*
X71092000Y-26632469D01*
X71092000Y-26829451D01*
X71053571Y-27022649D01*
X70978189Y-27204638D01*
X70868751Y-27368423D01*
X70729463Y-27507711D01*
X70565678Y-27617149D01*
X70383689Y-27692531D01*
X70228921Y-27723316D01*
X70190492Y-27730960D01*
X69993508Y-27730960D01*
X69955079Y-27723316D01*
X69800311Y-27692531D01*
X69618322Y-27617149D01*
X69454537Y-27507711D01*
X69315249Y-27368423D01*
X69205811Y-27204638D01*
X69130429Y-27022649D01*
X69092000Y-26829451D01*
X69092000Y-26632469D01*
X69130429Y-26439271D01*
X69205811Y-26257282D01*
X69315249Y-26093497D01*
X69454537Y-25954209D01*
X69618322Y-25844771D01*
X69800311Y-25769389D01*
X69955079Y-25738604D01*
X69993508Y-25730960D01*
X70190492Y-25730960D01*
X70228921Y-25738604D01*
G37*
G36*
X72768921Y-25738604D02*
G01*
X72923689Y-25769389D01*
X73105678Y-25844771D01*
X73269463Y-25954209D01*
X73408751Y-26093497D01*
X73518189Y-26257282D01*
X73593571Y-26439271D01*
X73632000Y-26632469D01*
X73632000Y-26829451D01*
X73593571Y-27022649D01*
X73518189Y-27204638D01*
X73408751Y-27368423D01*
X73269463Y-27507711D01*
X73105678Y-27617149D01*
X72923689Y-27692531D01*
X72768921Y-27723316D01*
X72730492Y-27730960D01*
X72533508Y-27730960D01*
X72495079Y-27723316D01*
X72340311Y-27692531D01*
X72158322Y-27617149D01*
X71994537Y-27507711D01*
X71855249Y-27368423D01*
X71745811Y-27204638D01*
X71670429Y-27022649D01*
X71632000Y-26829451D01*
X71632000Y-26632469D01*
X71670429Y-26439271D01*
X71745811Y-26257282D01*
X71855249Y-26093497D01*
X71994537Y-25954209D01*
X72158322Y-25844771D01*
X72340311Y-25769389D01*
X72495079Y-25738604D01*
X72533508Y-25730960D01*
X72730492Y-25730960D01*
X72768921Y-25738604D01*
G37*
G36*
X27048921Y-25738604D02*
G01*
X27203689Y-25769389D01*
X27385678Y-25844771D01*
X27549463Y-25954209D01*
X27688751Y-26093497D01*
X27798189Y-26257282D01*
X27873571Y-26439271D01*
X27912000Y-26632469D01*
X27912000Y-26829451D01*
X27873571Y-27022649D01*
X27798189Y-27204638D01*
X27688751Y-27368423D01*
X27549463Y-27507711D01*
X27385678Y-27617149D01*
X27203689Y-27692531D01*
X27048921Y-27723316D01*
X27010492Y-27730960D01*
X26813508Y-27730960D01*
X26775079Y-27723316D01*
X26620311Y-27692531D01*
X26438322Y-27617149D01*
X26274537Y-27507711D01*
X26135249Y-27368423D01*
X26025811Y-27204638D01*
X25950429Y-27022649D01*
X25912000Y-26829451D01*
X25912000Y-26632469D01*
X25950429Y-26439271D01*
X26025811Y-26257282D01*
X26135249Y-26093497D01*
X26274537Y-25954209D01*
X26438322Y-25844771D01*
X26620311Y-25769389D01*
X26775079Y-25738604D01*
X26813508Y-25730960D01*
X27010492Y-25730960D01*
X27048921Y-25738604D01*
G37*
M02*
