M48
; DRILL file {KiCad (5.1.4)-1} date 17/03/2020 17:24:24
; FORMAT={-:-/ absolute / inch / decimal}
; #@! TF.CreationDate,2020-03-17T17:24:24+00:00
; #@! TF.GenerationSoftware,Kicad,Pcbnew,(5.1.4)-1
FMAT,2
INCH
T1C0.0150
T2C0.0315
T3C0.0394
%
G90
G05
T1
X1.8143Y-1.8037
X1.831Y-1.3542
X2.3115Y-1.2874
T2
X2.3269Y-1.3993
X2.3269Y-1.4993
X2.3269Y-1.5993
X2.3269Y-1.6993
X2.3269Y-1.7993
X2.4765Y-1.3993
X2.4765Y-1.4993
X2.4765Y-1.5993
X2.4765Y-1.6993
X2.4765Y-1.7993
T3
X2.6227Y-1.5004
X2.6227Y-1.6004
X2.6227Y-1.7004
X2.6227Y-1.8004
X2.9937Y-1.2914
X1.4887Y-1.3534
X1.4887Y-1.4534
X1.4887Y-1.5534
X1.4887Y-1.6534
X1.4887Y-1.7534
X1.4887Y-1.8534
X1.5887Y-1.3534
X1.5887Y-1.4534
X1.5887Y-1.5534
X1.5887Y-1.6534
X1.5887Y-1.7534
X1.5887Y-1.8534
X2.9934Y-1.7915
T0
M30
