G04 #@! TF.GenerationSoftware,KiCad,Pcbnew,(5.1.4)-1*
G04 #@! TF.CreationDate,2020-03-17T17:24:22+00:00*
G04 #@! TF.ProjectId,buffer,62756666-6572-42e6-9b69-6361645f7063,rev?*
G04 #@! TF.SameCoordinates,Original*
G04 #@! TF.FileFunction,Legend,Bot*
G04 #@! TF.FilePolarity,Positive*
%FSLAX46Y46*%
G04 Gerber Fmt 4.6, Leading zero omitted, Abs format (unit mm)*
G04 Created by KiCad (PCBNEW (5.1.4)-1) date 2020-03-17 17:24:22*
%MOMM*%
%LPD*%
G04 APERTURE LIST*
%ADD10C,0.120000*%
%ADD11C,0.100000*%
%ADD12C,0.150000*%
G04 APERTURE END LIST*
D10*
X40925219Y-48390864D02*
X40391885Y-49190864D01*
X40391885Y-48390864D02*
X40925219Y-49190864D01*
X40125219Y-48467055D02*
X40087123Y-48428960D01*
X40010933Y-48390864D01*
X39820457Y-48390864D01*
X39744266Y-48428960D01*
X39706171Y-48467055D01*
X39668076Y-48543245D01*
X39668076Y-48619436D01*
X39706171Y-48733721D01*
X40163314Y-49190864D01*
X39668076Y-49190864D01*
X38385219Y-48390864D02*
X37851885Y-49190864D01*
X37851885Y-48390864D02*
X38385219Y-49190864D01*
X37128076Y-49190864D02*
X37585219Y-49190864D01*
X37356647Y-49190864D02*
X37356647Y-48390864D01*
X37432838Y-48505150D01*
X37509028Y-48581340D01*
X37585219Y-48619436D01*
D11*
X43317657Y-45145245D02*
X43317657Y-45345245D01*
X43003371Y-45345245D02*
X43603371Y-45345245D01*
X43603371Y-45059531D01*
X43003371Y-44830960D02*
X43403371Y-44830960D01*
X43603371Y-44830960D02*
X43574800Y-44859531D01*
X43546228Y-44830960D01*
X43574800Y-44802388D01*
X43603371Y-44830960D01*
X43546228Y-44830960D01*
X43403371Y-44630960D02*
X43403371Y-44402388D01*
X43603371Y-44545245D02*
X43089085Y-44545245D01*
X43031942Y-44516674D01*
X43003371Y-44459531D01*
X43003371Y-44402388D01*
X43003371Y-43430960D02*
X43003371Y-43773817D01*
X43003371Y-43602388D02*
X43603371Y-43602388D01*
X43517657Y-43659531D01*
X43460514Y-43716674D01*
X43431942Y-43773817D01*
X43603371Y-43059531D02*
X43603371Y-43002388D01*
X43574800Y-42945245D01*
X43546228Y-42916674D01*
X43489085Y-42888102D01*
X43374800Y-42859531D01*
X43231942Y-42859531D01*
X43117657Y-42888102D01*
X43060514Y-42916674D01*
X43031942Y-42945245D01*
X43003371Y-43002388D01*
X43003371Y-43059531D01*
X43031942Y-43116674D01*
X43060514Y-43145245D01*
X43117657Y-43173817D01*
X43231942Y-43202388D01*
X43374800Y-43202388D01*
X43489085Y-43173817D01*
X43546228Y-43145245D01*
X43574800Y-43116674D01*
X43603371Y-43059531D01*
X43403371Y-42202388D02*
X43003371Y-42088102D01*
X43289085Y-41973817D01*
X43003371Y-41859531D01*
X43403371Y-41745245D01*
X43003371Y-41259531D02*
X43317657Y-41259531D01*
X43374800Y-41288102D01*
X43403371Y-41345245D01*
X43403371Y-41459531D01*
X43374800Y-41516674D01*
X43031942Y-41259531D02*
X43003371Y-41316674D01*
X43003371Y-41459531D01*
X43031942Y-41516674D01*
X43089085Y-41545245D01*
X43146228Y-41545245D01*
X43203371Y-41516674D01*
X43231942Y-41459531D01*
X43231942Y-41316674D01*
X43260514Y-41259531D01*
X43403371Y-41030960D02*
X43003371Y-40888102D01*
X43403371Y-40745245D02*
X43003371Y-40888102D01*
X42860514Y-40945245D01*
X42831942Y-40973817D01*
X42803371Y-41030960D01*
X43031942Y-39802388D02*
X43003371Y-39859531D01*
X43003371Y-39973817D01*
X43031942Y-40030960D01*
X43060514Y-40059531D01*
X43117657Y-40088102D01*
X43289085Y-40088102D01*
X43346228Y-40059531D01*
X43374800Y-40030960D01*
X43403371Y-39973817D01*
X43403371Y-39859531D01*
X43374800Y-39802388D01*
X43003371Y-39459531D02*
X43031942Y-39516674D01*
X43060514Y-39545245D01*
X43117657Y-39573817D01*
X43289085Y-39573817D01*
X43346228Y-39545245D01*
X43374800Y-39516674D01*
X43403371Y-39459531D01*
X43403371Y-39373817D01*
X43374800Y-39316674D01*
X43346228Y-39288102D01*
X43289085Y-39259531D01*
X43117657Y-39259531D01*
X43060514Y-39288102D01*
X43031942Y-39316674D01*
X43003371Y-39373817D01*
X43003371Y-39459531D01*
X43403371Y-39002388D02*
X43003371Y-39002388D01*
X43346228Y-39002388D02*
X43374800Y-38973817D01*
X43403371Y-38916674D01*
X43403371Y-38830960D01*
X43374800Y-38773817D01*
X43317657Y-38745245D01*
X43003371Y-38745245D01*
X43403371Y-38459531D02*
X43003371Y-38459531D01*
X43346228Y-38459531D02*
X43374800Y-38430960D01*
X43403371Y-38373817D01*
X43403371Y-38288102D01*
X43374800Y-38230960D01*
X43317657Y-38202388D01*
X43003371Y-38202388D01*
X43031942Y-37688102D02*
X43003371Y-37745245D01*
X43003371Y-37859531D01*
X43031942Y-37916674D01*
X43089085Y-37945245D01*
X43317657Y-37945245D01*
X43374800Y-37916674D01*
X43403371Y-37859531D01*
X43403371Y-37745245D01*
X43374800Y-37688102D01*
X43317657Y-37659531D01*
X43260514Y-37659531D01*
X43203371Y-37945245D01*
X43031942Y-37145245D02*
X43003371Y-37202388D01*
X43003371Y-37316674D01*
X43031942Y-37373817D01*
X43060514Y-37402388D01*
X43117657Y-37430960D01*
X43289085Y-37430960D01*
X43346228Y-37402388D01*
X43374800Y-37373817D01*
X43403371Y-37316674D01*
X43403371Y-37202388D01*
X43374800Y-37145245D01*
X43403371Y-36973817D02*
X43403371Y-36745245D01*
X43603371Y-36888102D02*
X43089085Y-36888102D01*
X43031942Y-36859531D01*
X43003371Y-36802388D01*
X43003371Y-36745245D01*
X43003371Y-36459531D02*
X43031942Y-36516674D01*
X43060514Y-36545245D01*
X43117657Y-36573817D01*
X43289085Y-36573817D01*
X43346228Y-36545245D01*
X43374800Y-36516674D01*
X43403371Y-36459531D01*
X43403371Y-36373817D01*
X43374800Y-36316674D01*
X43346228Y-36288102D01*
X43289085Y-36259531D01*
X43117657Y-36259531D01*
X43060514Y-36288102D01*
X43031942Y-36316674D01*
X43003371Y-36373817D01*
X43003371Y-36459531D01*
X43003371Y-36002388D02*
X43403371Y-36002388D01*
X43289085Y-36002388D02*
X43346228Y-35973817D01*
X43374800Y-35945245D01*
X43403371Y-35888102D01*
X43403371Y-35830960D01*
X43003371Y-35173817D02*
X43603371Y-35173817D01*
X43003371Y-34916674D02*
X43317657Y-34916674D01*
X43374800Y-34945245D01*
X43403371Y-35002388D01*
X43403371Y-35088102D01*
X43374800Y-35145245D01*
X43346228Y-35173817D01*
X43031942Y-34402388D02*
X43003371Y-34459531D01*
X43003371Y-34573817D01*
X43031942Y-34630960D01*
X43089085Y-34659531D01*
X43317657Y-34659531D01*
X43374800Y-34630960D01*
X43403371Y-34573817D01*
X43403371Y-34459531D01*
X43374800Y-34402388D01*
X43317657Y-34373817D01*
X43260514Y-34373817D01*
X43203371Y-34659531D01*
X43003371Y-34116674D02*
X43403371Y-34116674D01*
X43289085Y-34116674D02*
X43346228Y-34088102D01*
X43374800Y-34059531D01*
X43403371Y-34002388D01*
X43403371Y-33945245D01*
X43031942Y-33516674D02*
X43003371Y-33573817D01*
X43003371Y-33688102D01*
X43031942Y-33745245D01*
X43089085Y-33773817D01*
X43317657Y-33773817D01*
X43374800Y-33745245D01*
X43403371Y-33688102D01*
X43403371Y-33573817D01*
X43374800Y-33516674D01*
X43317657Y-33488102D01*
X43260514Y-33488102D01*
X43203371Y-33773817D01*
D12*
X42462000Y-34300160D02*
X41700000Y-34300160D01*
X42462000Y-44561760D02*
X42462000Y-34300160D01*
X41649200Y-44561760D02*
X42462000Y-44561760D01*
D10*
X61320657Y-52022964D02*
X61320657Y-51222964D01*
X61015895Y-51222964D01*
X60939704Y-51261060D01*
X60901609Y-51299155D01*
X60863514Y-51375345D01*
X60863514Y-51489631D01*
X60901609Y-51565821D01*
X60939704Y-51603917D01*
X61015895Y-51642012D01*
X61320657Y-51642012D01*
X60063514Y-51946774D02*
X60101609Y-51984869D01*
X60215895Y-52022964D01*
X60292085Y-52022964D01*
X60406371Y-51984869D01*
X60482561Y-51908679D01*
X60520657Y-51832488D01*
X60558752Y-51680107D01*
X60558752Y-51565821D01*
X60520657Y-51413440D01*
X60482561Y-51337250D01*
X60406371Y-51261060D01*
X60292085Y-51222964D01*
X60215895Y-51222964D01*
X60101609Y-51261060D01*
X60063514Y-51299155D01*
X59111133Y-52022964D02*
X59111133Y-51222964D01*
X59111133Y-51527726D02*
X59034942Y-51489631D01*
X58882561Y-51489631D01*
X58806371Y-51527726D01*
X58768276Y-51565821D01*
X58730180Y-51642012D01*
X58730180Y-51870583D01*
X58768276Y-51946774D01*
X58806371Y-51984869D01*
X58882561Y-52022964D01*
X59034942Y-52022964D01*
X59111133Y-51984869D01*
X58044466Y-51489631D02*
X58044466Y-52022964D01*
X58387323Y-51489631D02*
X58387323Y-51908679D01*
X58349228Y-51984869D01*
X58273038Y-52022964D01*
X58158752Y-52022964D01*
X58082561Y-51984869D01*
X58044466Y-51946774D01*
X57777800Y-51489631D02*
X57473038Y-51489631D01*
X57663514Y-52022964D02*
X57663514Y-51337250D01*
X57625419Y-51261060D01*
X57549228Y-51222964D01*
X57473038Y-51222964D01*
X57320657Y-51489631D02*
X57015895Y-51489631D01*
X57206371Y-52022964D02*
X57206371Y-51337250D01*
X57168276Y-51261060D01*
X57092085Y-51222964D01*
X57015895Y-51222964D01*
X56444466Y-51984869D02*
X56520657Y-52022964D01*
X56673038Y-52022964D01*
X56749228Y-51984869D01*
X56787323Y-51908679D01*
X56787323Y-51603917D01*
X56749228Y-51527726D01*
X56673038Y-51489631D01*
X56520657Y-51489631D01*
X56444466Y-51527726D01*
X56406371Y-51603917D01*
X56406371Y-51680107D01*
X56787323Y-51756298D01*
X56063514Y-52022964D02*
X56063514Y-51489631D01*
X56063514Y-51642012D02*
X56025419Y-51565821D01*
X55987323Y-51527726D01*
X55911133Y-51489631D01*
X55834942Y-51489631D01*
X55073038Y-51489631D02*
X54768276Y-51489631D01*
X54958752Y-52022964D02*
X54958752Y-51337250D01*
X54920657Y-51261060D01*
X54844466Y-51222964D01*
X54768276Y-51222964D01*
X54387323Y-52022964D02*
X54463514Y-51984869D01*
X54501609Y-51946774D01*
X54539704Y-51870583D01*
X54539704Y-51642012D01*
X54501609Y-51565821D01*
X54463514Y-51527726D01*
X54387323Y-51489631D01*
X54273038Y-51489631D01*
X54196847Y-51527726D01*
X54158752Y-51565821D01*
X54120657Y-51642012D01*
X54120657Y-51870583D01*
X54158752Y-51946774D01*
X54196847Y-51984869D01*
X54273038Y-52022964D01*
X54387323Y-52022964D01*
X53777800Y-52022964D02*
X53777800Y-51489631D01*
X53777800Y-51642012D02*
X53739704Y-51565821D01*
X53701609Y-51527726D01*
X53625419Y-51489631D01*
X53549228Y-51489631D01*
X52215895Y-52022964D02*
X52482561Y-51642012D01*
X52673038Y-52022964D02*
X52673038Y-51222964D01*
X52368276Y-51222964D01*
X52292085Y-51261060D01*
X52253990Y-51299155D01*
X52215895Y-51375345D01*
X52215895Y-51489631D01*
X52253990Y-51565821D01*
X52292085Y-51603917D01*
X52368276Y-51642012D01*
X52673038Y-51642012D01*
X51453990Y-51261060D02*
X51530180Y-51222964D01*
X51644466Y-51222964D01*
X51758752Y-51261060D01*
X51834942Y-51337250D01*
X51873038Y-51413440D01*
X51911133Y-51565821D01*
X51911133Y-51680107D01*
X51873038Y-51832488D01*
X51834942Y-51908679D01*
X51758752Y-51984869D01*
X51644466Y-52022964D01*
X51568276Y-52022964D01*
X51453990Y-51984869D01*
X51415895Y-51946774D01*
X51415895Y-51680107D01*
X51568276Y-51680107D01*
X50806371Y-51603917D02*
X50692085Y-51642012D01*
X50653990Y-51680107D01*
X50615895Y-51756298D01*
X50615895Y-51870583D01*
X50653990Y-51946774D01*
X50692085Y-51984869D01*
X50768276Y-52022964D01*
X51073038Y-52022964D01*
X51073038Y-51222964D01*
X50806371Y-51222964D01*
X50730180Y-51261060D01*
X50692085Y-51299155D01*
X50653990Y-51375345D01*
X50653990Y-51451536D01*
X50692085Y-51527726D01*
X50730180Y-51565821D01*
X50806371Y-51603917D01*
X51073038Y-51603917D01*
X50387323Y-51489631D02*
X50082561Y-51489631D01*
X50273038Y-51222964D02*
X50273038Y-51908679D01*
X50234942Y-51984869D01*
X50158752Y-52022964D01*
X50082561Y-52022964D01*
X49701609Y-52022964D02*
X49777800Y-51984869D01*
X49815895Y-51946774D01*
X49853990Y-51870583D01*
X49853990Y-51642012D01*
X49815895Y-51565821D01*
X49777800Y-51527726D01*
X49701609Y-51489631D01*
X49587323Y-51489631D01*
X49511133Y-51527726D01*
X49473038Y-51565821D01*
X49434942Y-51642012D01*
X49434942Y-51870583D01*
X49473038Y-51946774D01*
X49511133Y-51984869D01*
X49587323Y-52022964D01*
X49701609Y-52022964D01*
X49092085Y-52022964D02*
X49092085Y-51222964D01*
X49092085Y-51603917D02*
X48634942Y-51603917D01*
X48634942Y-52022964D02*
X48634942Y-51222964D01*
X48253990Y-52022964D02*
X48253990Y-51222964D01*
X48063514Y-51222964D01*
X47949228Y-51261060D01*
X47873038Y-51337250D01*
X47834942Y-51413440D01*
X47796847Y-51565821D01*
X47796847Y-51680107D01*
X47834942Y-51832488D01*
X47873038Y-51908679D01*
X47949228Y-51984869D01*
X48063514Y-52022964D01*
X48253990Y-52022964D01*
X60609528Y-53686664D02*
X60609528Y-52886664D01*
X60266671Y-53648569D02*
X60190480Y-53686664D01*
X60038100Y-53686664D01*
X59961909Y-53648569D01*
X59923814Y-53572379D01*
X59923814Y-53534283D01*
X59961909Y-53458093D01*
X60038100Y-53419998D01*
X60152385Y-53419998D01*
X60228576Y-53381902D01*
X60266671Y-53305712D01*
X60266671Y-53267617D01*
X60228576Y-53191426D01*
X60152385Y-53153331D01*
X60038100Y-53153331D01*
X59961909Y-53191426D01*
X59619052Y-53648569D02*
X59542861Y-53686664D01*
X59390480Y-53686664D01*
X59314290Y-53648569D01*
X59276195Y-53572379D01*
X59276195Y-53534283D01*
X59314290Y-53458093D01*
X59390480Y-53419998D01*
X59504766Y-53419998D01*
X59580957Y-53381902D01*
X59619052Y-53305712D01*
X59619052Y-53267617D01*
X59580957Y-53191426D01*
X59504766Y-53153331D01*
X59390480Y-53153331D01*
X59314290Y-53191426D01*
X58590480Y-53153331D02*
X58590480Y-53686664D01*
X58933338Y-53153331D02*
X58933338Y-53572379D01*
X58895242Y-53648569D01*
X58819052Y-53686664D01*
X58704766Y-53686664D01*
X58628576Y-53648569D01*
X58590480Y-53610474D01*
X57904766Y-53648569D02*
X57980957Y-53686664D01*
X58133338Y-53686664D01*
X58209528Y-53648569D01*
X58247623Y-53572379D01*
X58247623Y-53267617D01*
X58209528Y-53191426D01*
X58133338Y-53153331D01*
X57980957Y-53153331D01*
X57904766Y-53191426D01*
X57866671Y-53267617D01*
X57866671Y-53343807D01*
X58247623Y-53419998D01*
X56495242Y-53686664D02*
X56952385Y-53686664D01*
X56723814Y-53686664D02*
X56723814Y-52886664D01*
X56800004Y-53000950D01*
X56876195Y-53077140D01*
X56952385Y-53115236D01*
X54895242Y-53077140D02*
X54971433Y-53039045D01*
X55123814Y-53039045D01*
X55200004Y-53077140D01*
X55276195Y-53153331D01*
X55314290Y-53229521D01*
X55314290Y-53381902D01*
X55276195Y-53458093D01*
X55200004Y-53534283D01*
X55123814Y-53572379D01*
X54971433Y-53572379D01*
X54895242Y-53534283D01*
X55047623Y-52772379D02*
X55238100Y-52810474D01*
X55428576Y-52924760D01*
X55542861Y-53115236D01*
X55580957Y-53305712D01*
X55542861Y-53496188D01*
X55428576Y-53686664D01*
X55238100Y-53800950D01*
X55047623Y-53839045D01*
X54857147Y-53800950D01*
X54666671Y-53686664D01*
X54552385Y-53496188D01*
X54514290Y-53305712D01*
X54552385Y-53115236D01*
X54666671Y-52924760D01*
X54857147Y-52810474D01*
X55047623Y-52772379D01*
X54209528Y-52962855D02*
X54171433Y-52924760D01*
X54095242Y-52886664D01*
X53904766Y-52886664D01*
X53828576Y-52924760D01*
X53790480Y-52962855D01*
X53752385Y-53039045D01*
X53752385Y-53115236D01*
X53790480Y-53229521D01*
X54247623Y-53686664D01*
X53752385Y-53686664D01*
X53257147Y-52886664D02*
X53180957Y-52886664D01*
X53104766Y-52924760D01*
X53066671Y-52962855D01*
X53028576Y-53039045D01*
X52990480Y-53191426D01*
X52990480Y-53381902D01*
X53028576Y-53534283D01*
X53066671Y-53610474D01*
X53104766Y-53648569D01*
X53180957Y-53686664D01*
X53257147Y-53686664D01*
X53333338Y-53648569D01*
X53371433Y-53610474D01*
X53409528Y-53534283D01*
X53447623Y-53381902D01*
X53447623Y-53191426D01*
X53409528Y-53039045D01*
X53371433Y-52962855D01*
X53333338Y-52924760D01*
X53257147Y-52886664D01*
X52685719Y-52962855D02*
X52647623Y-52924760D01*
X52571433Y-52886664D01*
X52380957Y-52886664D01*
X52304766Y-52924760D01*
X52266671Y-52962855D01*
X52228576Y-53039045D01*
X52228576Y-53115236D01*
X52266671Y-53229521D01*
X52723814Y-53686664D01*
X52228576Y-53686664D01*
X51733338Y-52886664D02*
X51657147Y-52886664D01*
X51580957Y-52924760D01*
X51542861Y-52962855D01*
X51504766Y-53039045D01*
X51466671Y-53191426D01*
X51466671Y-53381902D01*
X51504766Y-53534283D01*
X51542861Y-53610474D01*
X51580957Y-53648569D01*
X51657147Y-53686664D01*
X51733338Y-53686664D01*
X51809528Y-53648569D01*
X51847623Y-53610474D01*
X51885719Y-53534283D01*
X51923814Y-53381902D01*
X51923814Y-53191426D01*
X51885719Y-53039045D01*
X51847623Y-52962855D01*
X51809528Y-52924760D01*
X51733338Y-52886664D01*
X50514290Y-53686664D02*
X50514290Y-52886664D01*
X49790480Y-53686664D02*
X49790480Y-53267617D01*
X49828576Y-53191426D01*
X49904766Y-53153331D01*
X50057147Y-53153331D01*
X50133338Y-53191426D01*
X49790480Y-53648569D02*
X49866671Y-53686664D01*
X50057147Y-53686664D01*
X50133338Y-53648569D01*
X50171433Y-53572379D01*
X50171433Y-53496188D01*
X50133338Y-53419998D01*
X50057147Y-53381902D01*
X49866671Y-53381902D01*
X49790480Y-53343807D01*
X49409528Y-53153331D02*
X49409528Y-53686664D01*
X49409528Y-53229521D02*
X49371433Y-53191426D01*
X49295242Y-53153331D01*
X49180957Y-53153331D01*
X49104766Y-53191426D01*
X49066671Y-53267617D01*
X49066671Y-53686664D01*
X48419052Y-53267617D02*
X48304766Y-53305712D01*
X48266671Y-53343807D01*
X48228576Y-53419998D01*
X48228576Y-53534283D01*
X48266671Y-53610474D01*
X48304766Y-53648569D01*
X48380957Y-53686664D01*
X48685719Y-53686664D01*
X48685719Y-52886664D01*
X48419052Y-52886664D01*
X48342861Y-52924760D01*
X48304766Y-52962855D01*
X48266671Y-53039045D01*
X48266671Y-53115236D01*
X48304766Y-53191426D01*
X48342861Y-53229521D01*
X48419052Y-53267617D01*
X48685719Y-53267617D01*
X74703180Y-44174100D02*
X77363180Y-44174100D01*
X74703180Y-44234100D02*
X74703180Y-44174100D01*
X77363180Y-44234100D02*
X77363180Y-44174100D01*
X74703180Y-44234100D02*
X77363180Y-44234100D01*
X74703180Y-45504100D02*
X74703180Y-46834100D01*
X74703180Y-46834100D02*
X76033180Y-46834100D01*
X77370800Y-31471560D02*
X77370800Y-34131560D01*
X77310800Y-31471560D02*
X77370800Y-31471560D01*
X77310800Y-34131560D02*
X77370800Y-34131560D01*
X77310800Y-31471560D02*
X77310800Y-34131560D01*
X76040800Y-31471560D02*
X74710800Y-31471560D01*
X74710800Y-31471560D02*
X74710800Y-32801560D01*
D12*
X77364380Y-38482864D02*
X76364380Y-38482864D01*
X76364380Y-38863817D01*
X76412000Y-38959055D01*
X76459619Y-39006674D01*
X76554857Y-39054293D01*
X76697714Y-39054293D01*
X76792952Y-39006674D01*
X76840571Y-38959055D01*
X76888190Y-38863817D01*
X76888190Y-38482864D01*
X76697714Y-39911436D02*
X77364380Y-39911436D01*
X76316761Y-39673340D02*
X77031047Y-39435245D01*
X77031047Y-40054293D01*
X74351960Y-44766004D02*
X73351960Y-44766004D01*
X73351960Y-45146957D01*
X73399580Y-45242195D01*
X73447199Y-45289814D01*
X73542437Y-45337433D01*
X73685294Y-45337433D01*
X73780532Y-45289814D01*
X73828151Y-45242195D01*
X73875770Y-45146957D01*
X73875770Y-44766004D01*
X73351960Y-46194576D02*
X73351960Y-46004100D01*
X73399580Y-45908861D01*
X73447199Y-45861242D01*
X73590056Y-45766004D01*
X73780532Y-45718385D01*
X74161484Y-45718385D01*
X74256722Y-45766004D01*
X74304341Y-45813623D01*
X74351960Y-45908861D01*
X74351960Y-46099338D01*
X74304341Y-46194576D01*
X74256722Y-46242195D01*
X74161484Y-46289814D01*
X73923389Y-46289814D01*
X73828151Y-46242195D01*
X73780532Y-46194576D01*
X73732913Y-46099338D01*
X73732913Y-45908861D01*
X73780532Y-45813623D01*
X73828151Y-45766004D01*
X73923389Y-45718385D01*
X74308780Y-32012664D02*
X73308780Y-32012664D01*
X73308780Y-32393617D01*
X73356400Y-32488855D01*
X73404019Y-32536474D01*
X73499257Y-32584093D01*
X73642114Y-32584093D01*
X73737352Y-32536474D01*
X73784971Y-32488855D01*
X73832590Y-32393617D01*
X73832590Y-32012664D01*
X73308780Y-32917426D02*
X73308780Y-33584093D01*
X74308780Y-33155521D01*
M02*
