G04 #@! TF.GenerationSoftware,KiCad,Pcbnew,(5.1.4)-1*
G04 #@! TF.CreationDate,2021-01-17T22:07:20+00:00*
G04 #@! TF.ProjectId,Amiga_External,416d6967-615f-4457-9874-65726e616c2e,rev?*
G04 #@! TF.SameCoordinates,Original*
G04 #@! TF.FileFunction,Soldermask,Bot*
G04 #@! TF.FilePolarity,Negative*
%FSLAX46Y46*%
G04 Gerber Fmt 4.6, Leading zero omitted, Abs format (unit mm)*
G04 Created by KiCad (PCBNEW (5.1.4)-1) date 2021-01-17 22:07:20*
%MOMM*%
%LPD*%
G04 APERTURE LIST*
%ADD10C,1.854200*%
%ADD11R,1.700000X1.700000*%
%ADD12O,1.700000X1.700000*%
G04 APERTURE END LIST*
D10*
X142240000Y-76200000D03*
X142240000Y-78740000D03*
X142240000Y-81280000D03*
X142240000Y-83820000D03*
X142240000Y-86360000D03*
X142240000Y-88900000D03*
X142240000Y-91440000D03*
X142240000Y-93980000D03*
X142240000Y-96520000D03*
X142240000Y-99060000D03*
X142240000Y-101600000D03*
X142240000Y-104140000D03*
X142240000Y-106680000D03*
X142240000Y-109220000D03*
X142240000Y-111760000D03*
X142240000Y-114300000D03*
X142240000Y-116840000D03*
X142240000Y-119380000D03*
X142240000Y-121920000D03*
X142240000Y-124460000D03*
X127000000Y-124460000D03*
X127000000Y-121920000D03*
X127000000Y-119380000D03*
X127000000Y-116840000D03*
X127000000Y-114300000D03*
X127000000Y-111760000D03*
X127000000Y-109220000D03*
X127000000Y-106680000D03*
X127000000Y-104140000D03*
X127000000Y-101600000D03*
X127000000Y-96520000D03*
X127000000Y-93980000D03*
X127000000Y-91440000D03*
X127000000Y-88900000D03*
X127000000Y-86360000D03*
X127000000Y-83820000D03*
X127000000Y-81280000D03*
X127000000Y-78740000D03*
X127000000Y-76200000D03*
X127000000Y-99060000D03*
X127000000Y-129540000D03*
X127000000Y-127000000D03*
X127000000Y-132080000D03*
X142240000Y-134620000D03*
X142240000Y-132080000D03*
X127000000Y-134620000D03*
X142240000Y-127000000D03*
X142240000Y-129540000D03*
D11*
X125806200Y-66802000D03*
D12*
X125806200Y-64262000D03*
X128346200Y-66802000D03*
X128346200Y-64262000D03*
X130886200Y-66802000D03*
X130886200Y-64262000D03*
X133426200Y-66802000D03*
X133426200Y-64262000D03*
X135966200Y-66802000D03*
X135966200Y-64262000D03*
X138506200Y-66802000D03*
X138506200Y-64262000D03*
X141046200Y-66802000D03*
X141046200Y-64262000D03*
X143586200Y-66802000D03*
X143586200Y-64262000D03*
M02*
