G04 #@! TF.GenerationSoftware,KiCad,Pcbnew,(5.1.4)-1*
G04 #@! TF.CreationDate,2021-01-17T22:07:20+00:00*
G04 #@! TF.ProjectId,Amiga_External,416d6967-615f-4457-9874-65726e616c2e,rev?*
G04 #@! TF.SameCoordinates,Original*
G04 #@! TF.FileFunction,Copper,L1,Top*
G04 #@! TF.FilePolarity,Positive*
%FSLAX46Y46*%
G04 Gerber Fmt 4.6, Leading zero omitted, Abs format (unit mm)*
G04 Created by KiCad (PCBNEW (5.1.4)-1) date 2021-01-17 22:07:20*
%MOMM*%
%LPD*%
G04 APERTURE LIST*
%ADD10C,1.854200*%
%ADD11C,0.100000*%
%ADD12C,0.950000*%
%ADD13R,0.450000X1.450000*%
%ADD14R,1.700000X1.700000*%
%ADD15O,1.700000X1.700000*%
%ADD16C,0.800000*%
%ADD17C,0.400000*%
%ADD18C,0.500000*%
%ADD19C,0.250000*%
G04 APERTURE END LIST*
D10*
X142240000Y-76200000D03*
X142240000Y-78740000D03*
X142240000Y-81280000D03*
X142240000Y-83820000D03*
X142240000Y-86360000D03*
X142240000Y-88900000D03*
X142240000Y-91440000D03*
X142240000Y-93980000D03*
X142240000Y-96520000D03*
X142240000Y-99060000D03*
X142240000Y-101600000D03*
X142240000Y-104140000D03*
X142240000Y-106680000D03*
X142240000Y-109220000D03*
X142240000Y-111760000D03*
X142240000Y-114300000D03*
X142240000Y-116840000D03*
X142240000Y-119380000D03*
X142240000Y-121920000D03*
X142240000Y-124460000D03*
X127000000Y-124460000D03*
X127000000Y-121920000D03*
X127000000Y-119380000D03*
X127000000Y-116840000D03*
X127000000Y-114300000D03*
X127000000Y-111760000D03*
X127000000Y-109220000D03*
X127000000Y-106680000D03*
X127000000Y-104140000D03*
X127000000Y-101600000D03*
X127000000Y-96520000D03*
X127000000Y-93980000D03*
X127000000Y-91440000D03*
X127000000Y-88900000D03*
X127000000Y-86360000D03*
X127000000Y-83820000D03*
X127000000Y-81280000D03*
X127000000Y-78740000D03*
X127000000Y-76200000D03*
X127000000Y-99060000D03*
X127000000Y-129540000D03*
X127000000Y-127000000D03*
X127000000Y-132080000D03*
X142240000Y-134620000D03*
X142240000Y-132080000D03*
X127000000Y-134620000D03*
X142240000Y-127000000D03*
X142240000Y-129540000D03*
D11*
G36*
X132442379Y-97201344D02*
G01*
X132465434Y-97204763D01*
X132488043Y-97210427D01*
X132509987Y-97218279D01*
X132531057Y-97228244D01*
X132551048Y-97240226D01*
X132569768Y-97254110D01*
X132587038Y-97269762D01*
X132602690Y-97287032D01*
X132616574Y-97305752D01*
X132628556Y-97325743D01*
X132638521Y-97346813D01*
X132646373Y-97368757D01*
X132652037Y-97391366D01*
X132655456Y-97414421D01*
X132656600Y-97437700D01*
X132656600Y-98012700D01*
X132655456Y-98035979D01*
X132652037Y-98059034D01*
X132646373Y-98081643D01*
X132638521Y-98103587D01*
X132628556Y-98124657D01*
X132616574Y-98144648D01*
X132602690Y-98163368D01*
X132587038Y-98180638D01*
X132569768Y-98196290D01*
X132551048Y-98210174D01*
X132531057Y-98222156D01*
X132509987Y-98232121D01*
X132488043Y-98239973D01*
X132465434Y-98245637D01*
X132442379Y-98249056D01*
X132419100Y-98250200D01*
X131944100Y-98250200D01*
X131920821Y-98249056D01*
X131897766Y-98245637D01*
X131875157Y-98239973D01*
X131853213Y-98232121D01*
X131832143Y-98222156D01*
X131812152Y-98210174D01*
X131793432Y-98196290D01*
X131776162Y-98180638D01*
X131760510Y-98163368D01*
X131746626Y-98144648D01*
X131734644Y-98124657D01*
X131724679Y-98103587D01*
X131716827Y-98081643D01*
X131711163Y-98059034D01*
X131707744Y-98035979D01*
X131706600Y-98012700D01*
X131706600Y-97437700D01*
X131707744Y-97414421D01*
X131711163Y-97391366D01*
X131716827Y-97368757D01*
X131724679Y-97346813D01*
X131734644Y-97325743D01*
X131746626Y-97305752D01*
X131760510Y-97287032D01*
X131776162Y-97269762D01*
X131793432Y-97254110D01*
X131812152Y-97240226D01*
X131832143Y-97228244D01*
X131853213Y-97218279D01*
X131875157Y-97210427D01*
X131897766Y-97204763D01*
X131920821Y-97201344D01*
X131944100Y-97200200D01*
X132419100Y-97200200D01*
X132442379Y-97201344D01*
X132442379Y-97201344D01*
G37*
D12*
X132181600Y-97725200D03*
D11*
G36*
X132442379Y-95451344D02*
G01*
X132465434Y-95454763D01*
X132488043Y-95460427D01*
X132509987Y-95468279D01*
X132531057Y-95478244D01*
X132551048Y-95490226D01*
X132569768Y-95504110D01*
X132587038Y-95519762D01*
X132602690Y-95537032D01*
X132616574Y-95555752D01*
X132628556Y-95575743D01*
X132638521Y-95596813D01*
X132646373Y-95618757D01*
X132652037Y-95641366D01*
X132655456Y-95664421D01*
X132656600Y-95687700D01*
X132656600Y-96262700D01*
X132655456Y-96285979D01*
X132652037Y-96309034D01*
X132646373Y-96331643D01*
X132638521Y-96353587D01*
X132628556Y-96374657D01*
X132616574Y-96394648D01*
X132602690Y-96413368D01*
X132587038Y-96430638D01*
X132569768Y-96446290D01*
X132551048Y-96460174D01*
X132531057Y-96472156D01*
X132509987Y-96482121D01*
X132488043Y-96489973D01*
X132465434Y-96495637D01*
X132442379Y-96499056D01*
X132419100Y-96500200D01*
X131944100Y-96500200D01*
X131920821Y-96499056D01*
X131897766Y-96495637D01*
X131875157Y-96489973D01*
X131853213Y-96482121D01*
X131832143Y-96472156D01*
X131812152Y-96460174D01*
X131793432Y-96446290D01*
X131776162Y-96430638D01*
X131760510Y-96413368D01*
X131746626Y-96394648D01*
X131734644Y-96374657D01*
X131724679Y-96353587D01*
X131716827Y-96331643D01*
X131711163Y-96309034D01*
X131707744Y-96285979D01*
X131706600Y-96262700D01*
X131706600Y-95687700D01*
X131707744Y-95664421D01*
X131711163Y-95641366D01*
X131716827Y-95618757D01*
X131724679Y-95596813D01*
X131734644Y-95575743D01*
X131746626Y-95555752D01*
X131760510Y-95537032D01*
X131776162Y-95519762D01*
X131793432Y-95504110D01*
X131812152Y-95490226D01*
X131832143Y-95478244D01*
X131853213Y-95468279D01*
X131875157Y-95460427D01*
X131897766Y-95454763D01*
X131920821Y-95451344D01*
X131944100Y-95450200D01*
X132419100Y-95450200D01*
X132442379Y-95451344D01*
X132442379Y-95451344D01*
G37*
D12*
X132181600Y-95975200D03*
D13*
X129663000Y-86160400D03*
X130313000Y-86160400D03*
X130963000Y-86160400D03*
X131613000Y-86160400D03*
X132263000Y-86160400D03*
X132913000Y-86160400D03*
X133563000Y-86160400D03*
X134213000Y-86160400D03*
X134863000Y-86160400D03*
X135513000Y-86160400D03*
X135513000Y-80260400D03*
X134863000Y-80260400D03*
X134213000Y-80260400D03*
X133563000Y-80260400D03*
X132913000Y-80260400D03*
X132263000Y-80260400D03*
X131613000Y-80260400D03*
X130963000Y-80260400D03*
X130313000Y-80260400D03*
X129663000Y-80260400D03*
X133752400Y-93951000D03*
X134402400Y-93951000D03*
X135052400Y-93951000D03*
X135702400Y-93951000D03*
X136352400Y-93951000D03*
X137002400Y-93951000D03*
X137652400Y-93951000D03*
X138302400Y-93951000D03*
X138952400Y-93951000D03*
X139602400Y-93951000D03*
X139602400Y-99851000D03*
X138952400Y-99851000D03*
X138302400Y-99851000D03*
X137652400Y-99851000D03*
X137002400Y-99851000D03*
X136352400Y-99851000D03*
X135702400Y-99851000D03*
X135052400Y-99851000D03*
X134402400Y-99851000D03*
X133752400Y-99851000D03*
D14*
X125806200Y-66802000D03*
D15*
X125806200Y-64262000D03*
X128346200Y-66802000D03*
X128346200Y-64262000D03*
X130886200Y-66802000D03*
X130886200Y-64262000D03*
X133426200Y-66802000D03*
X133426200Y-64262000D03*
X135966200Y-66802000D03*
X135966200Y-64262000D03*
X138506200Y-66802000D03*
X138506200Y-64262000D03*
X141046200Y-66802000D03*
X141046200Y-64262000D03*
X143586200Y-66802000D03*
X143586200Y-64262000D03*
D11*
G36*
X137344579Y-81506744D02*
G01*
X137367634Y-81510163D01*
X137390243Y-81515827D01*
X137412187Y-81523679D01*
X137433257Y-81533644D01*
X137453248Y-81545626D01*
X137471968Y-81559510D01*
X137489238Y-81575162D01*
X137504890Y-81592432D01*
X137518774Y-81611152D01*
X137530756Y-81631143D01*
X137540721Y-81652213D01*
X137548573Y-81674157D01*
X137554237Y-81696766D01*
X137557656Y-81719821D01*
X137558800Y-81743100D01*
X137558800Y-82318100D01*
X137557656Y-82341379D01*
X137554237Y-82364434D01*
X137548573Y-82387043D01*
X137540721Y-82408987D01*
X137530756Y-82430057D01*
X137518774Y-82450048D01*
X137504890Y-82468768D01*
X137489238Y-82486038D01*
X137471968Y-82501690D01*
X137453248Y-82515574D01*
X137433257Y-82527556D01*
X137412187Y-82537521D01*
X137390243Y-82545373D01*
X137367634Y-82551037D01*
X137344579Y-82554456D01*
X137321300Y-82555600D01*
X136846300Y-82555600D01*
X136823021Y-82554456D01*
X136799966Y-82551037D01*
X136777357Y-82545373D01*
X136755413Y-82537521D01*
X136734343Y-82527556D01*
X136714352Y-82515574D01*
X136695632Y-82501690D01*
X136678362Y-82486038D01*
X136662710Y-82468768D01*
X136648826Y-82450048D01*
X136636844Y-82430057D01*
X136626879Y-82408987D01*
X136619027Y-82387043D01*
X136613363Y-82364434D01*
X136609944Y-82341379D01*
X136608800Y-82318100D01*
X136608800Y-81743100D01*
X136609944Y-81719821D01*
X136613363Y-81696766D01*
X136619027Y-81674157D01*
X136626879Y-81652213D01*
X136636844Y-81631143D01*
X136648826Y-81611152D01*
X136662710Y-81592432D01*
X136678362Y-81575162D01*
X136695632Y-81559510D01*
X136714352Y-81545626D01*
X136734343Y-81533644D01*
X136755413Y-81523679D01*
X136777357Y-81515827D01*
X136799966Y-81510163D01*
X136823021Y-81506744D01*
X136846300Y-81505600D01*
X137321300Y-81505600D01*
X137344579Y-81506744D01*
X137344579Y-81506744D01*
G37*
D12*
X137083800Y-82030600D03*
D11*
G36*
X137344579Y-83256744D02*
G01*
X137367634Y-83260163D01*
X137390243Y-83265827D01*
X137412187Y-83273679D01*
X137433257Y-83283644D01*
X137453248Y-83295626D01*
X137471968Y-83309510D01*
X137489238Y-83325162D01*
X137504890Y-83342432D01*
X137518774Y-83361152D01*
X137530756Y-83381143D01*
X137540721Y-83402213D01*
X137548573Y-83424157D01*
X137554237Y-83446766D01*
X137557656Y-83469821D01*
X137558800Y-83493100D01*
X137558800Y-84068100D01*
X137557656Y-84091379D01*
X137554237Y-84114434D01*
X137548573Y-84137043D01*
X137540721Y-84158987D01*
X137530756Y-84180057D01*
X137518774Y-84200048D01*
X137504890Y-84218768D01*
X137489238Y-84236038D01*
X137471968Y-84251690D01*
X137453248Y-84265574D01*
X137433257Y-84277556D01*
X137412187Y-84287521D01*
X137390243Y-84295373D01*
X137367634Y-84301037D01*
X137344579Y-84304456D01*
X137321300Y-84305600D01*
X136846300Y-84305600D01*
X136823021Y-84304456D01*
X136799966Y-84301037D01*
X136777357Y-84295373D01*
X136755413Y-84287521D01*
X136734343Y-84277556D01*
X136714352Y-84265574D01*
X136695632Y-84251690D01*
X136678362Y-84236038D01*
X136662710Y-84218768D01*
X136648826Y-84200048D01*
X136636844Y-84180057D01*
X136626879Y-84158987D01*
X136619027Y-84137043D01*
X136613363Y-84114434D01*
X136609944Y-84091379D01*
X136608800Y-84068100D01*
X136608800Y-83493100D01*
X136609944Y-83469821D01*
X136613363Y-83446766D01*
X136619027Y-83424157D01*
X136626879Y-83402213D01*
X136636844Y-83381143D01*
X136648826Y-83361152D01*
X136662710Y-83342432D01*
X136678362Y-83325162D01*
X136695632Y-83309510D01*
X136714352Y-83295626D01*
X136734343Y-83283644D01*
X136755413Y-83273679D01*
X136777357Y-83265827D01*
X136799966Y-83260163D01*
X136823021Y-83256744D01*
X136846300Y-83255600D01*
X137321300Y-83255600D01*
X137344579Y-83256744D01*
X137344579Y-83256744D01*
G37*
D12*
X137083800Y-83780600D03*
D16*
X132689600Y-104216200D03*
X136956800Y-80695800D03*
X129641600Y-89458800D03*
X129235200Y-77774800D03*
X132181600Y-94081600D03*
X133121400Y-112801400D03*
X136194804Y-115874800D03*
X136906000Y-97637600D03*
X132232400Y-88823800D03*
X137795000Y-130327400D03*
X131724400Y-109423198D03*
X135661400Y-125577600D03*
X133172202Y-125577600D03*
X135712200Y-124282200D03*
X128651000Y-123139202D03*
D17*
X133752400Y-93951000D02*
X133752400Y-96008000D01*
X129663000Y-85449600D02*
X129663000Y-80260400D01*
X129663000Y-86160400D02*
X129663000Y-85449600D01*
X137083800Y-80822800D02*
X136956800Y-80695800D01*
X137083800Y-82030600D02*
X137083800Y-80822800D01*
X133719600Y-97725200D02*
X132181600Y-97725200D01*
X133752400Y-97692400D02*
X133719600Y-97725200D01*
X133752400Y-97692400D02*
X133752400Y-99851000D01*
X133752400Y-96008000D02*
X133752400Y-97692400D01*
X133752400Y-103153400D02*
X132689600Y-104216200D01*
X133752400Y-99851000D02*
X133752400Y-103153400D01*
D18*
X126136400Y-74752200D02*
X124891800Y-75996800D01*
X127584200Y-74752200D02*
X126136400Y-74752200D01*
X128041400Y-74295000D02*
X127584200Y-74752200D01*
X128041400Y-69828680D02*
X128041400Y-74295000D01*
X127529320Y-69316600D02*
X128041400Y-69828680D01*
X141097000Y-61772800D02*
X125450600Y-61772800D01*
X143586200Y-64262000D02*
X141097000Y-61772800D01*
X125450600Y-61772800D02*
X124409200Y-62814200D01*
X124891800Y-75996800D02*
X124891800Y-119811800D01*
X124409200Y-62814200D02*
X124409200Y-67945000D01*
X124409200Y-67945000D02*
X125780800Y-69316600D01*
X124891800Y-119811800D02*
X127000000Y-121920000D01*
X125780800Y-69316600D02*
X127529320Y-69316600D01*
D17*
X129663000Y-86160400D02*
X129663000Y-89437400D01*
X129663000Y-89437400D02*
X129641600Y-89458800D01*
X130337999Y-80985799D02*
X130337999Y-82001799D01*
X130313000Y-80260400D02*
X130313000Y-80960800D01*
X130313000Y-80960800D02*
X130337999Y-80985799D01*
X130337999Y-82001799D02*
X131419600Y-83083400D01*
X131419600Y-83083400D02*
X134594600Y-83083400D01*
X135513000Y-84001800D02*
X135513000Y-86160400D01*
X134594600Y-83083400D02*
X135513000Y-84001800D01*
X134863000Y-86160400D02*
X135513000Y-86160400D01*
X139602400Y-100976000D02*
X139602400Y-99851000D01*
X139602400Y-102813517D02*
X139602400Y-100976000D01*
X142240000Y-104140000D02*
X140928883Y-104140000D01*
X140928883Y-104140000D02*
X139602400Y-102813517D01*
X139602400Y-99851000D02*
X138952400Y-99851000D01*
X135734200Y-83780600D02*
X137083800Y-83780600D01*
X135513000Y-84001800D02*
X135734200Y-83780600D01*
X132181600Y-95975200D02*
X132181600Y-94081600D01*
X132450000Y-92594000D02*
X134402400Y-92594000D01*
X132181600Y-92862400D02*
X132450000Y-92594000D01*
X134402400Y-93951000D02*
X134402400Y-92594000D01*
X135884598Y-96558198D02*
X134402400Y-95076000D01*
X139602400Y-99851000D02*
X139602400Y-98108596D01*
X134402400Y-95076000D02*
X134402400Y-93951000D01*
X138052002Y-96558198D02*
X135884598Y-96558198D01*
X139602400Y-98108596D02*
X138052002Y-96558198D01*
X130313000Y-80260400D02*
X130313000Y-78852600D01*
X130313000Y-78852600D02*
X129235200Y-77774800D01*
X132181600Y-94081600D02*
X132181600Y-92862400D01*
X134402400Y-92594000D02*
X134402400Y-90520476D01*
X134402400Y-90520476D02*
X135513000Y-89409876D01*
X135513000Y-87285400D02*
X135513000Y-86160400D01*
X135513000Y-89409876D02*
X135513000Y-87285400D01*
D19*
X130963000Y-71934810D02*
X130963000Y-77572200D01*
X130963000Y-77572200D02*
X130963000Y-80403000D01*
X126255600Y-68351400D02*
X127379591Y-68351401D01*
X125806200Y-67902000D02*
X126255600Y-68351400D01*
X127379591Y-68351401D02*
X130963000Y-71934810D01*
X125806200Y-66802000D02*
X125806200Y-67902000D01*
X131613000Y-77206200D02*
X131613000Y-80260400D01*
X131613000Y-71948400D02*
X131613000Y-77206200D01*
X127101600Y-67437000D02*
X131613000Y-71948400D01*
X125806200Y-64262000D02*
X127101600Y-65557400D01*
X127101600Y-65557400D02*
X127101600Y-67437000D01*
X132263000Y-76721481D02*
X132263000Y-80403000D01*
X132263000Y-71604980D02*
X132263000Y-76721481D01*
X128346200Y-66802000D02*
X128346200Y-67688180D01*
X128346200Y-67688180D02*
X132263000Y-71604980D01*
X132913000Y-75558400D02*
X132913000Y-80403000D01*
X132913000Y-71618570D02*
X132913000Y-75558400D01*
X129646208Y-68351778D02*
X132913000Y-71618570D01*
X129646208Y-65562008D02*
X129646208Y-68351778D01*
X128346200Y-64262000D02*
X129646208Y-65562008D01*
X133563000Y-74279400D02*
X133563000Y-80260400D01*
X133563000Y-71632160D02*
X133563000Y-74279400D01*
X130886200Y-66802000D02*
X130886200Y-68955360D01*
X130886200Y-68955360D02*
X133563000Y-71632160D01*
X134213000Y-74292990D02*
X134213000Y-80403000D01*
X134213000Y-71525800D02*
X134213000Y-74292990D01*
X132156200Y-69469000D02*
X134213000Y-71525800D01*
X130886200Y-64262000D02*
X132156200Y-65532000D01*
X132156200Y-65532000D02*
X132156200Y-69469000D01*
X134863000Y-74306580D02*
X134863000Y-80403000D01*
X134696200Y-74139780D02*
X134863000Y-74306580D01*
X133426200Y-64262000D02*
X134696200Y-65532000D01*
X134696200Y-65532000D02*
X134696200Y-74139780D01*
X135052400Y-90753600D02*
X135052400Y-93951000D01*
X138099800Y-87706200D02*
X135052400Y-90753600D01*
X138099800Y-74938281D02*
X138099800Y-87706200D01*
X135966200Y-71602600D02*
X135966200Y-72804681D01*
X135966200Y-72804681D02*
X138099800Y-74938281D01*
X135966200Y-71602600D02*
X135966200Y-66802000D01*
X137236200Y-65532000D02*
X135966200Y-64262000D01*
X137236200Y-72261600D02*
X137236200Y-65532000D01*
X138549811Y-73575211D02*
X137236200Y-72261600D01*
X138549811Y-87892600D02*
X138549811Y-73575211D01*
X135702400Y-93951000D02*
X135702400Y-90740010D01*
X135702400Y-90740010D02*
X138549811Y-87892600D01*
X136352400Y-93951000D02*
X136352400Y-90726420D01*
X136352400Y-90726420D02*
X139039600Y-88039220D01*
X138506200Y-72804681D02*
X138506200Y-71602600D01*
X139039600Y-88039220D02*
X139039600Y-73338081D01*
X139039600Y-73338081D02*
X138506200Y-72804681D01*
X138506200Y-71602600D02*
X138506200Y-66802000D01*
X139776200Y-65532000D02*
X138506200Y-64262000D01*
X139776200Y-72186800D02*
X139776200Y-65532000D01*
X139503990Y-72459010D02*
X139776200Y-72186800D01*
X139503990Y-88211240D02*
X139503990Y-72459010D01*
X137002400Y-93951000D02*
X137002400Y-90712830D01*
X137002400Y-90712830D02*
X139503990Y-88211240D01*
X139954000Y-72694800D02*
X141046200Y-71602600D01*
X139954000Y-88397640D02*
X139954000Y-72694800D01*
X137652400Y-93951000D02*
X137652400Y-90699240D01*
X137652400Y-90699240D02*
X139954000Y-88397640D01*
X141046200Y-71602600D02*
X141046200Y-66802000D01*
X142316200Y-65532000D02*
X141046200Y-64262000D01*
X142316200Y-72542400D02*
X142316200Y-65532000D01*
X140411200Y-74447400D02*
X142316200Y-72542400D01*
X140411200Y-88576850D02*
X140411200Y-74447400D01*
X138302400Y-93951000D02*
X138302400Y-90685650D01*
X138302400Y-90685650D02*
X140411200Y-88576850D01*
D18*
X143078200Y-66700400D02*
X143586200Y-67208400D01*
D19*
X143586200Y-72136000D02*
X143586200Y-71602600D01*
X140893800Y-74828400D02*
X143586200Y-72136000D01*
X140893800Y-88730660D02*
X140893800Y-74828400D01*
X138952400Y-93951000D02*
X138952400Y-90672060D01*
X138952400Y-90672060D02*
X140893800Y-88730660D01*
X143586200Y-71602600D02*
X143586200Y-66802000D01*
X136352400Y-103254600D02*
X136352400Y-99851000D01*
X142240000Y-116840000D02*
X136352400Y-110952400D01*
X136352400Y-110952400D02*
X136352400Y-103254600D01*
X137002400Y-106751000D02*
X137002400Y-100826000D01*
X143263501Y-110472101D02*
X140723501Y-110472101D01*
X140723501Y-110472101D02*
X137002400Y-106751000D01*
X143796589Y-117823411D02*
X143796589Y-111005189D01*
X142240000Y-119380000D02*
X143796589Y-117823411D01*
X137002400Y-100826000D02*
X137002400Y-99851000D01*
X143796589Y-111005189D02*
X143263501Y-110472101D01*
X142240000Y-121920000D02*
X136194804Y-115874804D01*
X136194804Y-115874804D02*
X136194804Y-115874800D01*
X133121400Y-109250786D02*
X133121400Y-112801400D01*
X130987800Y-107117186D02*
X133121400Y-109250786D01*
X130987800Y-93192600D02*
X130987800Y-107117186D01*
X134213000Y-86160400D02*
X134213000Y-89967400D01*
X134213000Y-89967400D02*
X130987800Y-93192600D01*
X137652400Y-103254600D02*
X137652400Y-99851000D01*
X140698101Y-107932101D02*
X137652400Y-104886400D01*
X143466701Y-107932101D02*
X140698101Y-107932101D01*
X142240000Y-124460000D02*
X144246600Y-122453400D01*
X137652400Y-104886400D02*
X137652400Y-103254600D01*
X144246600Y-122453400D02*
X144246600Y-108712000D01*
X144246600Y-108712000D02*
X143466701Y-107932101D01*
X137652400Y-98384000D02*
X137305999Y-98037599D01*
X137652400Y-99851000D02*
X137652400Y-98384000D01*
X137305999Y-98037599D02*
X136906000Y-97637600D01*
X132263000Y-88793200D02*
X132232400Y-88823800D01*
X132263000Y-86160400D02*
X132263000Y-88793200D01*
X129503002Y-123360204D02*
X129503002Y-122060802D01*
X127000000Y-124460000D02*
X128403206Y-124460000D01*
X128403206Y-124460000D02*
X129503002Y-123360204D01*
X130963000Y-87135400D02*
X130963000Y-86160400D01*
X129503002Y-122060802D02*
X129140789Y-121698589D01*
X129140789Y-121698589D02*
X129140789Y-92018421D01*
X129140789Y-92018421D02*
X130963000Y-90196210D01*
X130963000Y-90196210D02*
X130963000Y-87135400D01*
X134402400Y-100826000D02*
X134402400Y-99851000D01*
X134402400Y-113019000D02*
X134402400Y-100826000D01*
X132320198Y-115101202D02*
X134402400Y-113019000D01*
X127000000Y-129540000D02*
X132320198Y-124219802D01*
X132320198Y-124219802D02*
X132320198Y-115101202D01*
X133033602Y-89521198D02*
X133033602Y-87256002D01*
X130073400Y-92481400D02*
X133033602Y-89521198D01*
X130073400Y-120904000D02*
X130073400Y-92481400D01*
X133033602Y-87256002D02*
X132913000Y-87135400D01*
X132913000Y-87135400D02*
X132913000Y-86160400D01*
X128311117Y-127000000D02*
X130403024Y-124908093D01*
X130403024Y-124908093D02*
X130403024Y-121233624D01*
X130403024Y-121233624D02*
X130073400Y-120904000D01*
X127000000Y-127000000D02*
X128311117Y-127000000D01*
X135702400Y-114487600D02*
X135702400Y-100826000D01*
X134074433Y-126316684D02*
X134074433Y-116115567D01*
X134074433Y-116115567D02*
X135702400Y-114487600D01*
X128311117Y-132080000D02*
X134074433Y-126316684D01*
X127000000Y-132080000D02*
X128311117Y-132080000D01*
X135702400Y-100826000D02*
X135702400Y-99851000D01*
X137795000Y-131851400D02*
X137795000Y-130327400D01*
X142240000Y-134620000D02*
X140563600Y-134620000D01*
X140563600Y-134620000D02*
X137795000Y-131851400D01*
X131324401Y-109023199D02*
X131724400Y-109423198D01*
X130537789Y-108236587D02*
X131324401Y-109023199D01*
X130537789Y-92931411D02*
X130537789Y-108236587D01*
X133563000Y-86160400D02*
X133563000Y-89906200D01*
X133563000Y-89906200D02*
X130537789Y-92931411D01*
X142240000Y-132080000D02*
X135737600Y-125577600D01*
X135737600Y-125577600D02*
X135661400Y-125577600D01*
X133172202Y-125011915D02*
X133172202Y-125577600D01*
X135052400Y-113715200D02*
X133172202Y-115595398D01*
X133172202Y-115595398D02*
X133172202Y-125011915D01*
X135052400Y-99851000D02*
X135052400Y-113715200D01*
X129953013Y-124123187D02*
X129953013Y-121621813D01*
X125849499Y-125712101D02*
X128364099Y-125712101D01*
X124968000Y-132588000D02*
X124968000Y-126593600D01*
X131481998Y-90313622D02*
X131481998Y-87266402D01*
X128364099Y-125712101D02*
X129953013Y-124123187D01*
X129590800Y-121259600D02*
X129590800Y-92204820D01*
X127000000Y-134620000D02*
X124968000Y-132588000D01*
X131613000Y-87135400D02*
X131613000Y-86160400D01*
X124968000Y-126593600D02*
X125849499Y-125712101D01*
X129590800Y-92204820D02*
X131481998Y-90313622D01*
X129953013Y-121621813D02*
X129590800Y-121259600D01*
X131481998Y-87266402D02*
X131613000Y-87135400D01*
X138430000Y-127000000D02*
X136112199Y-124682199D01*
X142240000Y-127000000D02*
X138430000Y-127000000D01*
X136112199Y-124682199D02*
X135712200Y-124282200D01*
X130388006Y-87210406D02*
X130388006Y-90134794D01*
X130313000Y-86160400D02*
X130313000Y-87135400D01*
X130388006Y-90134794D02*
X128651000Y-91871800D01*
X128651000Y-122573517D02*
X128651000Y-123139202D01*
X130313000Y-87135400D02*
X130388006Y-87210406D01*
X128651000Y-91871800D02*
X128651000Y-122573517D01*
X138302400Y-103254600D02*
X138302400Y-99851000D01*
X144729200Y-127050800D02*
X144729200Y-106273600D01*
X142240000Y-129540000D02*
X144729200Y-127050800D01*
X144729200Y-106273600D02*
X143847701Y-105392101D01*
X143847701Y-105392101D02*
X139414101Y-105392101D01*
X139414101Y-105392101D02*
X138302400Y-104280400D01*
X138302400Y-104280400D02*
X138302400Y-103254600D01*
M02*
