M48
; DRILL file {KiCad (5.1.4)-1} date 17/01/2021 22:07:24
; FORMAT={-:-/ absolute / inch / decimal}
; #@! TF.CreationDate,2021-01-17T22:07:24+00:00
; #@! TF.GenerationSoftware,Kicad,Pcbnew,(5.1.4)-1
FMAT,2
INCH
T1C0.0157
T2C0.0394
T3C0.0591
%
G90
G05
T1
X5.065Y-4.848
X5.088Y-3.062
X5.104Y-3.522
X5.186Y-4.308
X5.204Y-3.704
X5.206Y-3.497
X5.224Y-4.103
X5.241Y-4.441
X5.243Y-4.944
X5.341Y-4.944
X5.343Y-4.893
X5.362Y-4.562
X5.39Y-3.844
X5.392Y-3.177
X5.425Y-5.131
T2
X4.953Y-2.53
X4.953Y-2.63
X5.053Y-2.53
X5.053Y-2.63
X5.153Y-2.53
X5.153Y-2.63
X5.253Y-2.53
X5.253Y-2.63
X5.353Y-2.53
X5.353Y-2.63
X5.453Y-2.53
X5.453Y-2.63
X5.553Y-2.53
X5.553Y-2.63
X5.653Y-2.53
X5.653Y-2.63
T3
X5.0Y-3.0
X5.0Y-3.1
X5.0Y-3.2
X5.0Y-3.3
X5.0Y-3.4
X5.0Y-3.5
X5.0Y-3.6
X5.0Y-3.7
X5.0Y-3.8
X5.0Y-3.9
X5.0Y-4.0
X5.0Y-4.1
X5.0Y-4.2
X5.0Y-4.3
X5.0Y-4.4
X5.0Y-4.5
X5.0Y-4.6
X5.0Y-4.7
X5.0Y-4.8
X5.0Y-4.9
X5.0Y-5.0
X5.0Y-5.1
X5.0Y-5.2
X5.0Y-5.3
X5.6Y-3.0
X5.6Y-3.1
X5.6Y-3.2
X5.6Y-3.3
X5.6Y-3.4
X5.6Y-3.5
X5.6Y-3.6
X5.6Y-3.7
X5.6Y-3.8
X5.6Y-3.9
X5.6Y-4.0
X5.6Y-4.1
X5.6Y-4.2
X5.6Y-4.3
X5.6Y-4.4
X5.6Y-4.5
X5.6Y-4.6
X5.6Y-4.7
X5.6Y-4.8
X5.6Y-4.9
X5.6Y-5.0
X5.6Y-5.1
X5.6Y-5.2
X5.6Y-5.3
T0
M30
