G04 #@! TF.GenerationSoftware,KiCad,Pcbnew,(5.1.4)-1*
G04 #@! TF.CreationDate,2021-01-17T22:07:20+00:00*
G04 #@! TF.ProjectId,Amiga_External,416d6967-615f-4457-9874-65726e616c2e,rev?*
G04 #@! TF.SameCoordinates,Original*
G04 #@! TF.FileFunction,Copper,L2,Bot*
G04 #@! TF.FilePolarity,Positive*
%FSLAX46Y46*%
G04 Gerber Fmt 4.6, Leading zero omitted, Abs format (unit mm)*
G04 Created by KiCad (PCBNEW (5.1.4)-1) date 2021-01-17 22:07:20*
%MOMM*%
%LPD*%
G04 APERTURE LIST*
%ADD10C,1.854200*%
%ADD11R,1.700000X1.700000*%
%ADD12O,1.700000X1.700000*%
%ADD13C,0.800000*%
%ADD14C,0.500000*%
%ADD15C,0.250000*%
%ADD16C,0.254000*%
G04 APERTURE END LIST*
D10*
X142240000Y-76200000D03*
X142240000Y-78740000D03*
X142240000Y-81280000D03*
X142240000Y-83820000D03*
X142240000Y-86360000D03*
X142240000Y-88900000D03*
X142240000Y-91440000D03*
X142240000Y-93980000D03*
X142240000Y-96520000D03*
X142240000Y-99060000D03*
X142240000Y-101600000D03*
X142240000Y-104140000D03*
X142240000Y-106680000D03*
X142240000Y-109220000D03*
X142240000Y-111760000D03*
X142240000Y-114300000D03*
X142240000Y-116840000D03*
X142240000Y-119380000D03*
X142240000Y-121920000D03*
X142240000Y-124460000D03*
X127000000Y-124460000D03*
X127000000Y-121920000D03*
X127000000Y-119380000D03*
X127000000Y-116840000D03*
X127000000Y-114300000D03*
X127000000Y-111760000D03*
X127000000Y-109220000D03*
X127000000Y-106680000D03*
X127000000Y-104140000D03*
X127000000Y-101600000D03*
X127000000Y-96520000D03*
X127000000Y-93980000D03*
X127000000Y-91440000D03*
X127000000Y-88900000D03*
X127000000Y-86360000D03*
X127000000Y-83820000D03*
X127000000Y-81280000D03*
X127000000Y-78740000D03*
X127000000Y-76200000D03*
X127000000Y-99060000D03*
X127000000Y-129540000D03*
X127000000Y-127000000D03*
X127000000Y-132080000D03*
X142240000Y-134620000D03*
X142240000Y-132080000D03*
X127000000Y-134620000D03*
X142240000Y-127000000D03*
X142240000Y-129540000D03*
D11*
X125806200Y-66802000D03*
D12*
X125806200Y-64262000D03*
X128346200Y-66802000D03*
X128346200Y-64262000D03*
X130886200Y-66802000D03*
X130886200Y-64262000D03*
X133426200Y-66802000D03*
X133426200Y-64262000D03*
X135966200Y-66802000D03*
X135966200Y-64262000D03*
X138506200Y-66802000D03*
X138506200Y-64262000D03*
X141046200Y-66802000D03*
X141046200Y-64262000D03*
X143586200Y-66802000D03*
X143586200Y-64262000D03*
D13*
X132689600Y-104216200D03*
X136956800Y-80695800D03*
X129641600Y-89458800D03*
X129235200Y-77774800D03*
X132181600Y-94081600D03*
X133121400Y-112801400D03*
X136194804Y-115874800D03*
X136906000Y-97637600D03*
X132232400Y-88823800D03*
X137795000Y-130327400D03*
X131724400Y-109423198D03*
X135661400Y-125577600D03*
X133172202Y-125577600D03*
X135712200Y-124282200D03*
X128651000Y-123139202D03*
D14*
X128311117Y-121920000D02*
X130378200Y-119852917D01*
X127000000Y-121920000D02*
X128311117Y-121920000D01*
X130378200Y-119852917D02*
X130378200Y-106553000D01*
X130378200Y-106553000D02*
X132689600Y-104241600D01*
X132689600Y-104241600D02*
X132689600Y-104216200D01*
X132689600Y-104216200D02*
X129641600Y-101168200D01*
X129641600Y-88011000D02*
X129641600Y-88893115D01*
X129641600Y-88893115D02*
X129641600Y-89458800D01*
X136956800Y-80695800D02*
X129641600Y-88011000D01*
X129641600Y-90024485D02*
X129641600Y-89458800D01*
X129641600Y-101168200D02*
X129641600Y-90024485D01*
X133426200Y-73583800D02*
X129235200Y-77774800D01*
X133426200Y-71602600D02*
X133426200Y-73583800D01*
X140766800Y-104140000D02*
X142240000Y-104140000D01*
X139446000Y-102819200D02*
X140766800Y-104140000D01*
X139446000Y-78824481D02*
X139446000Y-102819200D01*
X133426200Y-71602600D02*
X133426200Y-72804681D01*
X133426200Y-72804681D02*
X139446000Y-78824481D01*
X133426200Y-71602600D02*
X133426200Y-66802000D01*
D15*
X136194800Y-115874800D02*
X136194804Y-115874800D01*
X133121400Y-112801400D02*
X136194800Y-115874800D01*
X136906000Y-97637600D02*
X136906000Y-93497400D01*
X132632399Y-89223799D02*
X132232400Y-88823800D01*
X136906000Y-93497400D02*
X132632399Y-89223799D01*
X137795000Y-115493798D02*
X132124399Y-109823197D01*
X132124399Y-109823197D02*
X131724400Y-109423198D01*
X137795000Y-130327400D02*
X137795000Y-115493798D01*
X135661400Y-125577600D02*
X133172202Y-125577600D01*
X134569202Y-123139202D02*
X129216685Y-123139202D01*
X129216685Y-123139202D02*
X128651000Y-123139202D01*
X135712200Y-124282200D02*
X134569202Y-123139202D01*
D16*
G36*
X144857001Y-136373400D02*
G01*
X124383000Y-136373400D01*
X124383000Y-76559936D01*
X126013737Y-74929200D01*
X126090182Y-74929200D01*
X126004220Y-74986638D01*
X125786638Y-75204220D01*
X125615685Y-75460068D01*
X125497931Y-75744352D01*
X125437900Y-76046147D01*
X125437900Y-76353853D01*
X125497931Y-76655648D01*
X125615685Y-76939932D01*
X125786638Y-77195780D01*
X126004220Y-77413362D01*
X126088984Y-77470000D01*
X126004220Y-77526638D01*
X125786638Y-77744220D01*
X125615685Y-78000068D01*
X125497931Y-78284352D01*
X125437900Y-78586147D01*
X125437900Y-78893853D01*
X125497931Y-79195648D01*
X125615685Y-79479932D01*
X125786638Y-79735780D01*
X126004220Y-79953362D01*
X126088984Y-80010000D01*
X126004220Y-80066638D01*
X125786638Y-80284220D01*
X125615685Y-80540068D01*
X125497931Y-80824352D01*
X125437900Y-81126147D01*
X125437900Y-81433853D01*
X125497931Y-81735648D01*
X125615685Y-82019932D01*
X125786638Y-82275780D01*
X126004220Y-82493362D01*
X126088984Y-82550000D01*
X126004220Y-82606638D01*
X125786638Y-82824220D01*
X125615685Y-83080068D01*
X125497931Y-83364352D01*
X125437900Y-83666147D01*
X125437900Y-83973853D01*
X125497931Y-84275648D01*
X125615685Y-84559932D01*
X125786638Y-84815780D01*
X126004220Y-85033362D01*
X126088984Y-85090000D01*
X126004220Y-85146638D01*
X125786638Y-85364220D01*
X125615685Y-85620068D01*
X125497931Y-85904352D01*
X125437900Y-86206147D01*
X125437900Y-86513853D01*
X125497931Y-86815648D01*
X125615685Y-87099932D01*
X125786638Y-87355780D01*
X126004220Y-87573362D01*
X126088984Y-87630000D01*
X126004220Y-87686638D01*
X125786638Y-87904220D01*
X125615685Y-88160068D01*
X125497931Y-88444352D01*
X125437900Y-88746147D01*
X125437900Y-89053853D01*
X125497931Y-89355648D01*
X125615685Y-89639932D01*
X125786638Y-89895780D01*
X126004220Y-90113362D01*
X126088984Y-90170000D01*
X126004220Y-90226638D01*
X125786638Y-90444220D01*
X125615685Y-90700068D01*
X125497931Y-90984352D01*
X125437900Y-91286147D01*
X125437900Y-91593853D01*
X125497931Y-91895648D01*
X125615685Y-92179932D01*
X125786638Y-92435780D01*
X126004220Y-92653362D01*
X126088984Y-92710000D01*
X126004220Y-92766638D01*
X125786638Y-92984220D01*
X125615685Y-93240068D01*
X125497931Y-93524352D01*
X125437900Y-93826147D01*
X125437900Y-94133853D01*
X125497931Y-94435648D01*
X125615685Y-94719932D01*
X125786638Y-94975780D01*
X126004220Y-95193362D01*
X126088984Y-95250000D01*
X126004220Y-95306638D01*
X125786638Y-95524220D01*
X125615685Y-95780068D01*
X125497931Y-96064352D01*
X125437900Y-96366147D01*
X125437900Y-96673853D01*
X125497931Y-96975648D01*
X125615685Y-97259932D01*
X125786638Y-97515780D01*
X126004220Y-97733362D01*
X126088984Y-97790000D01*
X126004220Y-97846638D01*
X125786638Y-98064220D01*
X125615685Y-98320068D01*
X125497931Y-98604352D01*
X125437900Y-98906147D01*
X125437900Y-99213853D01*
X125497931Y-99515648D01*
X125615685Y-99799932D01*
X125786638Y-100055780D01*
X126004220Y-100273362D01*
X126088984Y-100330000D01*
X126004220Y-100386638D01*
X125786638Y-100604220D01*
X125615685Y-100860068D01*
X125497931Y-101144352D01*
X125437900Y-101446147D01*
X125437900Y-101753853D01*
X125497931Y-102055648D01*
X125615685Y-102339932D01*
X125786638Y-102595780D01*
X126004220Y-102813362D01*
X126088984Y-102870000D01*
X126004220Y-102926638D01*
X125786638Y-103144220D01*
X125615685Y-103400068D01*
X125497931Y-103684352D01*
X125437900Y-103986147D01*
X125437900Y-104293853D01*
X125497931Y-104595648D01*
X125615685Y-104879932D01*
X125786638Y-105135780D01*
X126004220Y-105353362D01*
X126088984Y-105410000D01*
X126004220Y-105466638D01*
X125786638Y-105684220D01*
X125615685Y-105940068D01*
X125497931Y-106224352D01*
X125437900Y-106526147D01*
X125437900Y-106833853D01*
X125497931Y-107135648D01*
X125615685Y-107419932D01*
X125786638Y-107675780D01*
X126004220Y-107893362D01*
X126088984Y-107950000D01*
X126004220Y-108006638D01*
X125786638Y-108224220D01*
X125615685Y-108480068D01*
X125497931Y-108764352D01*
X125437900Y-109066147D01*
X125437900Y-109373853D01*
X125497931Y-109675648D01*
X125615685Y-109959932D01*
X125786638Y-110215780D01*
X126004220Y-110433362D01*
X126088984Y-110490000D01*
X126004220Y-110546638D01*
X125786638Y-110764220D01*
X125615685Y-111020068D01*
X125497931Y-111304352D01*
X125437900Y-111606147D01*
X125437900Y-111913853D01*
X125497931Y-112215648D01*
X125615685Y-112499932D01*
X125786638Y-112755780D01*
X126004220Y-112973362D01*
X126088984Y-113030000D01*
X126004220Y-113086638D01*
X125786638Y-113304220D01*
X125615685Y-113560068D01*
X125497931Y-113844352D01*
X125437900Y-114146147D01*
X125437900Y-114453853D01*
X125497931Y-114755648D01*
X125615685Y-115039932D01*
X125786638Y-115295780D01*
X126004220Y-115513362D01*
X126088984Y-115570000D01*
X126004220Y-115626638D01*
X125786638Y-115844220D01*
X125615685Y-116100068D01*
X125497931Y-116384352D01*
X125437900Y-116686147D01*
X125437900Y-116993853D01*
X125497931Y-117295648D01*
X125615685Y-117579932D01*
X125786638Y-117835780D01*
X126004220Y-118053362D01*
X126088984Y-118110000D01*
X126004220Y-118166638D01*
X125786638Y-118384220D01*
X125615685Y-118640068D01*
X125497931Y-118924352D01*
X125437900Y-119226147D01*
X125437900Y-119533853D01*
X125497931Y-119835648D01*
X125615685Y-120119932D01*
X125786638Y-120375780D01*
X126004220Y-120593362D01*
X126088984Y-120650000D01*
X126004220Y-120706638D01*
X125786638Y-120924220D01*
X125615685Y-121180068D01*
X125497931Y-121464352D01*
X125437900Y-121766147D01*
X125437900Y-122073853D01*
X125497931Y-122375648D01*
X125615685Y-122659932D01*
X125786638Y-122915780D01*
X126004220Y-123133362D01*
X126088984Y-123190000D01*
X126004220Y-123246638D01*
X125786638Y-123464220D01*
X125615685Y-123720068D01*
X125497931Y-124004352D01*
X125437900Y-124306147D01*
X125437900Y-124613853D01*
X125497931Y-124915648D01*
X125615685Y-125199932D01*
X125786638Y-125455780D01*
X126004220Y-125673362D01*
X126088984Y-125730000D01*
X126004220Y-125786638D01*
X125786638Y-126004220D01*
X125615685Y-126260068D01*
X125497931Y-126544352D01*
X125437900Y-126846147D01*
X125437900Y-127153853D01*
X125497931Y-127455648D01*
X125615685Y-127739932D01*
X125786638Y-127995780D01*
X126004220Y-128213362D01*
X126088984Y-128270000D01*
X126004220Y-128326638D01*
X125786638Y-128544220D01*
X125615685Y-128800068D01*
X125497931Y-129084352D01*
X125437900Y-129386147D01*
X125437900Y-129693853D01*
X125497931Y-129995648D01*
X125615685Y-130279932D01*
X125786638Y-130535780D01*
X126004220Y-130753362D01*
X126088984Y-130810000D01*
X126004220Y-130866638D01*
X125786638Y-131084220D01*
X125615685Y-131340068D01*
X125497931Y-131624352D01*
X125437900Y-131926147D01*
X125437900Y-132233853D01*
X125497931Y-132535648D01*
X125615685Y-132819932D01*
X125786638Y-133075780D01*
X126004220Y-133293362D01*
X126088984Y-133350000D01*
X126004220Y-133406638D01*
X125786638Y-133624220D01*
X125615685Y-133880068D01*
X125497931Y-134164352D01*
X125437900Y-134466147D01*
X125437900Y-134773853D01*
X125497931Y-135075648D01*
X125615685Y-135359932D01*
X125786638Y-135615780D01*
X126004220Y-135833362D01*
X126260068Y-136004315D01*
X126544352Y-136122069D01*
X126846147Y-136182100D01*
X127153853Y-136182100D01*
X127455648Y-136122069D01*
X127739932Y-136004315D01*
X127995780Y-135833362D01*
X128213362Y-135615780D01*
X128384315Y-135359932D01*
X128502069Y-135075648D01*
X128562100Y-134773853D01*
X128562100Y-134466147D01*
X128502069Y-134164352D01*
X128384315Y-133880068D01*
X128213362Y-133624220D01*
X127995780Y-133406638D01*
X127911016Y-133350000D01*
X127995780Y-133293362D01*
X128213362Y-133075780D01*
X128384315Y-132819932D01*
X128502069Y-132535648D01*
X128562100Y-132233853D01*
X128562100Y-131926147D01*
X128502069Y-131624352D01*
X128384315Y-131340068D01*
X128213362Y-131084220D01*
X127995780Y-130866638D01*
X127911016Y-130810000D01*
X127995780Y-130753362D01*
X128213362Y-130535780D01*
X128384315Y-130279932D01*
X128502069Y-129995648D01*
X128562100Y-129693853D01*
X128562100Y-129386147D01*
X128502069Y-129084352D01*
X128384315Y-128800068D01*
X128213362Y-128544220D01*
X127995780Y-128326638D01*
X127911016Y-128270000D01*
X127995780Y-128213362D01*
X128213362Y-127995780D01*
X128384315Y-127739932D01*
X128502069Y-127455648D01*
X128562100Y-127153853D01*
X128562100Y-126846147D01*
X128502069Y-126544352D01*
X128384315Y-126260068D01*
X128213362Y-126004220D01*
X127995780Y-125786638D01*
X127911016Y-125730000D01*
X127995780Y-125673362D01*
X128213362Y-125455780D01*
X128384315Y-125199932D01*
X128502069Y-124915648D01*
X128562100Y-124613853D01*
X128562100Y-124306147D01*
X128535310Y-124171467D01*
X128549061Y-124174202D01*
X128752939Y-124174202D01*
X128952898Y-124134428D01*
X129141256Y-124056407D01*
X129310774Y-123943139D01*
X129354711Y-123899202D01*
X134254401Y-123899202D01*
X134677200Y-124322002D01*
X134677200Y-124384139D01*
X134716974Y-124584098D01*
X134794995Y-124772456D01*
X134825159Y-124817600D01*
X133875913Y-124817600D01*
X133831976Y-124773663D01*
X133662458Y-124660395D01*
X133474100Y-124582374D01*
X133274141Y-124542600D01*
X133070263Y-124542600D01*
X132870304Y-124582374D01*
X132681946Y-124660395D01*
X132512428Y-124773663D01*
X132368265Y-124917826D01*
X132254997Y-125087344D01*
X132176976Y-125275702D01*
X132137202Y-125475661D01*
X132137202Y-125679539D01*
X132176976Y-125879498D01*
X132254997Y-126067856D01*
X132368265Y-126237374D01*
X132512428Y-126381537D01*
X132681946Y-126494805D01*
X132870304Y-126572826D01*
X133070263Y-126612600D01*
X133274141Y-126612600D01*
X133474100Y-126572826D01*
X133662458Y-126494805D01*
X133831976Y-126381537D01*
X133875913Y-126337600D01*
X134957689Y-126337600D01*
X135001626Y-126381537D01*
X135171144Y-126494805D01*
X135359502Y-126572826D01*
X135559461Y-126612600D01*
X135763339Y-126612600D01*
X135963298Y-126572826D01*
X136151656Y-126494805D01*
X136321174Y-126381537D01*
X136465337Y-126237374D01*
X136578605Y-126067856D01*
X136656626Y-125879498D01*
X136696400Y-125679539D01*
X136696400Y-125475661D01*
X136656626Y-125275702D01*
X136578605Y-125087344D01*
X136495357Y-124962754D01*
X136516137Y-124941974D01*
X136629405Y-124772456D01*
X136707426Y-124584098D01*
X136747200Y-124384139D01*
X136747200Y-124180261D01*
X136707426Y-123980302D01*
X136629405Y-123791944D01*
X136516137Y-123622426D01*
X136371974Y-123478263D01*
X136202456Y-123364995D01*
X136014098Y-123286974D01*
X135814139Y-123247200D01*
X135752002Y-123247200D01*
X135133006Y-122628204D01*
X135109203Y-122599201D01*
X134993478Y-122504228D01*
X134861449Y-122433656D01*
X134718188Y-122390199D01*
X134606535Y-122379202D01*
X134606524Y-122379202D01*
X134569202Y-122375526D01*
X134531880Y-122379202D01*
X129354711Y-122379202D01*
X129310774Y-122335265D01*
X129212856Y-122269839D01*
X130973250Y-120509446D01*
X131007017Y-120481734D01*
X131059380Y-120417931D01*
X131117611Y-120346976D01*
X131199788Y-120193231D01*
X131199789Y-120193230D01*
X131250395Y-120026407D01*
X131263200Y-119896394D01*
X131263200Y-119896386D01*
X131267481Y-119852917D01*
X131263200Y-119809448D01*
X131263200Y-110352438D01*
X131422502Y-110418424D01*
X131622461Y-110458198D01*
X131684599Y-110458198D01*
X132997224Y-111770823D01*
X132819502Y-111806174D01*
X132631144Y-111884195D01*
X132461626Y-111997463D01*
X132317463Y-112141626D01*
X132204195Y-112311144D01*
X132126174Y-112499502D01*
X132086400Y-112699461D01*
X132086400Y-112903339D01*
X132126174Y-113103298D01*
X132204195Y-113291656D01*
X132317463Y-113461174D01*
X132461626Y-113605337D01*
X132631144Y-113718605D01*
X132819502Y-113796626D01*
X133019461Y-113836400D01*
X133081599Y-113836400D01*
X135159804Y-115914606D01*
X135159804Y-115976739D01*
X135199578Y-116176698D01*
X135277599Y-116365056D01*
X135390867Y-116534574D01*
X135535030Y-116678737D01*
X135704548Y-116792005D01*
X135892906Y-116870026D01*
X136092865Y-116909800D01*
X136296743Y-116909800D01*
X136496702Y-116870026D01*
X136685060Y-116792005D01*
X136854578Y-116678737D01*
X136998741Y-116534574D01*
X137035001Y-116480307D01*
X137035000Y-129623689D01*
X136991063Y-129667626D01*
X136877795Y-129837144D01*
X136799774Y-130025502D01*
X136760000Y-130225461D01*
X136760000Y-130429339D01*
X136799774Y-130629298D01*
X136877795Y-130817656D01*
X136991063Y-130987174D01*
X137135226Y-131131337D01*
X137304744Y-131244605D01*
X137493102Y-131322626D01*
X137693061Y-131362400D01*
X137896939Y-131362400D01*
X138096898Y-131322626D01*
X138285256Y-131244605D01*
X138454774Y-131131337D01*
X138598937Y-130987174D01*
X138712205Y-130817656D01*
X138790226Y-130629298D01*
X138830000Y-130429339D01*
X138830000Y-130225461D01*
X138790226Y-130025502D01*
X138712205Y-129837144D01*
X138598937Y-129667626D01*
X138555000Y-129623689D01*
X138555000Y-115531121D01*
X138558676Y-115493798D01*
X138555000Y-115456475D01*
X138555000Y-115456465D01*
X138544003Y-115344812D01*
X138500546Y-115201551D01*
X138429974Y-115069522D01*
X138335001Y-114953797D01*
X138306003Y-114929999D01*
X132759400Y-109383397D01*
X132759400Y-109321259D01*
X132719626Y-109121300D01*
X132641605Y-108932942D01*
X132528337Y-108763424D01*
X132384174Y-108619261D01*
X132214656Y-108505993D01*
X132026298Y-108427972D01*
X131826339Y-108388198D01*
X131622461Y-108388198D01*
X131422502Y-108427972D01*
X131263200Y-108493958D01*
X131263200Y-106919578D01*
X131656631Y-106526147D01*
X140677900Y-106526147D01*
X140677900Y-106833853D01*
X140737931Y-107135648D01*
X140855685Y-107419932D01*
X141026638Y-107675780D01*
X141244220Y-107893362D01*
X141328984Y-107950000D01*
X141244220Y-108006638D01*
X141026638Y-108224220D01*
X140855685Y-108480068D01*
X140737931Y-108764352D01*
X140677900Y-109066147D01*
X140677900Y-109373853D01*
X140737931Y-109675648D01*
X140855685Y-109959932D01*
X141026638Y-110215780D01*
X141244220Y-110433362D01*
X141328984Y-110490000D01*
X141244220Y-110546638D01*
X141026638Y-110764220D01*
X140855685Y-111020068D01*
X140737931Y-111304352D01*
X140677900Y-111606147D01*
X140677900Y-111913853D01*
X140737931Y-112215648D01*
X140855685Y-112499932D01*
X141026638Y-112755780D01*
X141244220Y-112973362D01*
X141328984Y-113030000D01*
X141244220Y-113086638D01*
X141026638Y-113304220D01*
X140855685Y-113560068D01*
X140737931Y-113844352D01*
X140677900Y-114146147D01*
X140677900Y-114453853D01*
X140737931Y-114755648D01*
X140855685Y-115039932D01*
X141026638Y-115295780D01*
X141244220Y-115513362D01*
X141328984Y-115570000D01*
X141244220Y-115626638D01*
X141026638Y-115844220D01*
X140855685Y-116100068D01*
X140737931Y-116384352D01*
X140677900Y-116686147D01*
X140677900Y-116993853D01*
X140737931Y-117295648D01*
X140855685Y-117579932D01*
X141026638Y-117835780D01*
X141244220Y-118053362D01*
X141328984Y-118110000D01*
X141244220Y-118166638D01*
X141026638Y-118384220D01*
X140855685Y-118640068D01*
X140737931Y-118924352D01*
X140677900Y-119226147D01*
X140677900Y-119533853D01*
X140737931Y-119835648D01*
X140855685Y-120119932D01*
X141026638Y-120375780D01*
X141244220Y-120593362D01*
X141328984Y-120650000D01*
X141244220Y-120706638D01*
X141026638Y-120924220D01*
X140855685Y-121180068D01*
X140737931Y-121464352D01*
X140677900Y-121766147D01*
X140677900Y-122073853D01*
X140737931Y-122375648D01*
X140855685Y-122659932D01*
X141026638Y-122915780D01*
X141244220Y-123133362D01*
X141328984Y-123190000D01*
X141244220Y-123246638D01*
X141026638Y-123464220D01*
X140855685Y-123720068D01*
X140737931Y-124004352D01*
X140677900Y-124306147D01*
X140677900Y-124613853D01*
X140737931Y-124915648D01*
X140855685Y-125199932D01*
X141026638Y-125455780D01*
X141244220Y-125673362D01*
X141328984Y-125730000D01*
X141244220Y-125786638D01*
X141026638Y-126004220D01*
X140855685Y-126260068D01*
X140737931Y-126544352D01*
X140677900Y-126846147D01*
X140677900Y-127153853D01*
X140737931Y-127455648D01*
X140855685Y-127739932D01*
X141026638Y-127995780D01*
X141244220Y-128213362D01*
X141328984Y-128270000D01*
X141244220Y-128326638D01*
X141026638Y-128544220D01*
X140855685Y-128800068D01*
X140737931Y-129084352D01*
X140677900Y-129386147D01*
X140677900Y-129693853D01*
X140737931Y-129995648D01*
X140855685Y-130279932D01*
X141026638Y-130535780D01*
X141244220Y-130753362D01*
X141328984Y-130810000D01*
X141244220Y-130866638D01*
X141026638Y-131084220D01*
X140855685Y-131340068D01*
X140737931Y-131624352D01*
X140677900Y-131926147D01*
X140677900Y-132233853D01*
X140737931Y-132535648D01*
X140855685Y-132819932D01*
X141026638Y-133075780D01*
X141244220Y-133293362D01*
X141328984Y-133350000D01*
X141244220Y-133406638D01*
X141026638Y-133624220D01*
X140855685Y-133880068D01*
X140737931Y-134164352D01*
X140677900Y-134466147D01*
X140677900Y-134773853D01*
X140737931Y-135075648D01*
X140855685Y-135359932D01*
X141026638Y-135615780D01*
X141244220Y-135833362D01*
X141500068Y-136004315D01*
X141784352Y-136122069D01*
X142086147Y-136182100D01*
X142393853Y-136182100D01*
X142695648Y-136122069D01*
X142979932Y-136004315D01*
X143235780Y-135833362D01*
X143453362Y-135615780D01*
X143624315Y-135359932D01*
X143742069Y-135075648D01*
X143802100Y-134773853D01*
X143802100Y-134466147D01*
X143742069Y-134164352D01*
X143624315Y-133880068D01*
X143453362Y-133624220D01*
X143235780Y-133406638D01*
X143151016Y-133350000D01*
X143235780Y-133293362D01*
X143453362Y-133075780D01*
X143624315Y-132819932D01*
X143742069Y-132535648D01*
X143802100Y-132233853D01*
X143802100Y-131926147D01*
X143742069Y-131624352D01*
X143624315Y-131340068D01*
X143453362Y-131084220D01*
X143235780Y-130866638D01*
X143151016Y-130810000D01*
X143235780Y-130753362D01*
X143453362Y-130535780D01*
X143624315Y-130279932D01*
X143742069Y-129995648D01*
X143802100Y-129693853D01*
X143802100Y-129386147D01*
X143742069Y-129084352D01*
X143624315Y-128800068D01*
X143453362Y-128544220D01*
X143235780Y-128326638D01*
X143151016Y-128270000D01*
X143235780Y-128213362D01*
X143453362Y-127995780D01*
X143624315Y-127739932D01*
X143742069Y-127455648D01*
X143802100Y-127153853D01*
X143802100Y-126846147D01*
X143742069Y-126544352D01*
X143624315Y-126260068D01*
X143453362Y-126004220D01*
X143235780Y-125786638D01*
X143151016Y-125730000D01*
X143235780Y-125673362D01*
X143453362Y-125455780D01*
X143624315Y-125199932D01*
X143742069Y-124915648D01*
X143802100Y-124613853D01*
X143802100Y-124306147D01*
X143742069Y-124004352D01*
X143624315Y-123720068D01*
X143453362Y-123464220D01*
X143235780Y-123246638D01*
X143151016Y-123190000D01*
X143235780Y-123133362D01*
X143453362Y-122915780D01*
X143624315Y-122659932D01*
X143742069Y-122375648D01*
X143802100Y-122073853D01*
X143802100Y-121766147D01*
X143742069Y-121464352D01*
X143624315Y-121180068D01*
X143453362Y-120924220D01*
X143235780Y-120706638D01*
X143151016Y-120650000D01*
X143235780Y-120593362D01*
X143453362Y-120375780D01*
X143624315Y-120119932D01*
X143742069Y-119835648D01*
X143802100Y-119533853D01*
X143802100Y-119226147D01*
X143742069Y-118924352D01*
X143624315Y-118640068D01*
X143453362Y-118384220D01*
X143235780Y-118166638D01*
X143151016Y-118110000D01*
X143235780Y-118053362D01*
X143453362Y-117835780D01*
X143624315Y-117579932D01*
X143742069Y-117295648D01*
X143802100Y-116993853D01*
X143802100Y-116686147D01*
X143742069Y-116384352D01*
X143624315Y-116100068D01*
X143453362Y-115844220D01*
X143235780Y-115626638D01*
X143151016Y-115570000D01*
X143235780Y-115513362D01*
X143453362Y-115295780D01*
X143624315Y-115039932D01*
X143742069Y-114755648D01*
X143802100Y-114453853D01*
X143802100Y-114146147D01*
X143742069Y-113844352D01*
X143624315Y-113560068D01*
X143453362Y-113304220D01*
X143235780Y-113086638D01*
X143151016Y-113030000D01*
X143235780Y-112973362D01*
X143453362Y-112755780D01*
X143624315Y-112499932D01*
X143742069Y-112215648D01*
X143802100Y-111913853D01*
X143802100Y-111606147D01*
X143742069Y-111304352D01*
X143624315Y-111020068D01*
X143453362Y-110764220D01*
X143235780Y-110546638D01*
X143151016Y-110490000D01*
X143235780Y-110433362D01*
X143453362Y-110215780D01*
X143624315Y-109959932D01*
X143742069Y-109675648D01*
X143802100Y-109373853D01*
X143802100Y-109066147D01*
X143742069Y-108764352D01*
X143624315Y-108480068D01*
X143453362Y-108224220D01*
X143235780Y-108006638D01*
X143151016Y-107950000D01*
X143235780Y-107893362D01*
X143453362Y-107675780D01*
X143624315Y-107419932D01*
X143742069Y-107135648D01*
X143802100Y-106833853D01*
X143802100Y-106526147D01*
X143742069Y-106224352D01*
X143624315Y-105940068D01*
X143453362Y-105684220D01*
X143235780Y-105466638D01*
X143093640Y-105371662D01*
X143143810Y-105223416D01*
X142240000Y-104319605D01*
X141336190Y-105223416D01*
X141386360Y-105371662D01*
X141244220Y-105466638D01*
X141026638Y-105684220D01*
X140855685Y-105940068D01*
X140737931Y-106224352D01*
X140677900Y-106526147D01*
X131656631Y-106526147D01*
X132966351Y-105216428D01*
X132991498Y-105211426D01*
X133179856Y-105133405D01*
X133349374Y-105020137D01*
X133493537Y-104875974D01*
X133606805Y-104706456D01*
X133684826Y-104518098D01*
X133724600Y-104318139D01*
X133724600Y-104205480D01*
X140671708Y-104205480D01*
X140714617Y-104510180D01*
X140816145Y-104800655D01*
X140899635Y-104956852D01*
X141156584Y-105043810D01*
X142060395Y-104140000D01*
X142419605Y-104140000D01*
X143323416Y-105043810D01*
X143580365Y-104956852D01*
X143713971Y-104679664D01*
X143790933Y-104381737D01*
X143808292Y-104074520D01*
X143765383Y-103769820D01*
X143663855Y-103479345D01*
X143580365Y-103323148D01*
X143323416Y-103236190D01*
X142419605Y-104140000D01*
X142060395Y-104140000D01*
X141156584Y-103236190D01*
X140899635Y-103323148D01*
X140766029Y-103600336D01*
X140689067Y-103898263D01*
X140671708Y-104205480D01*
X133724600Y-104205480D01*
X133724600Y-104114261D01*
X133684826Y-103914302D01*
X133606805Y-103725944D01*
X133493537Y-103556426D01*
X133349374Y-103412263D01*
X133179856Y-103298995D01*
X132991498Y-103220974D01*
X132934644Y-103209665D01*
X130526600Y-100801622D01*
X130526600Y-89997254D01*
X130558805Y-89949056D01*
X130636826Y-89760698D01*
X130676600Y-89560739D01*
X130676600Y-89356861D01*
X130636826Y-89156902D01*
X130558805Y-88968544D01*
X130526600Y-88920346D01*
X130526600Y-88721861D01*
X131197400Y-88721861D01*
X131197400Y-88925739D01*
X131237174Y-89125698D01*
X131315195Y-89314056D01*
X131428463Y-89483574D01*
X131572626Y-89627737D01*
X131742144Y-89741005D01*
X131930502Y-89819026D01*
X132130461Y-89858800D01*
X132192599Y-89858800D01*
X136146001Y-93812204D01*
X136146000Y-96933889D01*
X136102063Y-96977826D01*
X135988795Y-97147344D01*
X135910774Y-97335702D01*
X135871000Y-97535661D01*
X135871000Y-97739539D01*
X135910774Y-97939498D01*
X135988795Y-98127856D01*
X136102063Y-98297374D01*
X136246226Y-98441537D01*
X136415744Y-98554805D01*
X136604102Y-98632826D01*
X136804061Y-98672600D01*
X137007939Y-98672600D01*
X137207898Y-98632826D01*
X137396256Y-98554805D01*
X137565774Y-98441537D01*
X137709937Y-98297374D01*
X137823205Y-98127856D01*
X137901226Y-97939498D01*
X137941000Y-97739539D01*
X137941000Y-97535661D01*
X137901226Y-97335702D01*
X137823205Y-97147344D01*
X137709937Y-96977826D01*
X137666000Y-96933889D01*
X137666000Y-93534722D01*
X137669676Y-93497399D01*
X137666000Y-93460076D01*
X137666000Y-93460067D01*
X137655003Y-93348414D01*
X137611546Y-93205153D01*
X137540974Y-93073124D01*
X137527811Y-93057085D01*
X137469799Y-92986396D01*
X137469795Y-92986392D01*
X137446001Y-92957399D01*
X137417008Y-92933605D01*
X133267400Y-88783999D01*
X133267400Y-88721861D01*
X133227626Y-88521902D01*
X133149605Y-88333544D01*
X133036337Y-88164026D01*
X132892174Y-88019863D01*
X132722656Y-87906595D01*
X132534298Y-87828574D01*
X132334339Y-87788800D01*
X132130461Y-87788800D01*
X131930502Y-87828574D01*
X131742144Y-87906595D01*
X131572626Y-88019863D01*
X131428463Y-88164026D01*
X131315195Y-88333544D01*
X131237174Y-88521902D01*
X131197400Y-88721861D01*
X130526600Y-88721861D01*
X130526600Y-88377578D01*
X137201844Y-81702335D01*
X137258698Y-81691026D01*
X137447056Y-81613005D01*
X137616574Y-81499737D01*
X137760737Y-81355574D01*
X137874005Y-81186056D01*
X137952026Y-80997698D01*
X137991800Y-80797739D01*
X137991800Y-80593861D01*
X137952026Y-80393902D01*
X137874005Y-80205544D01*
X137760737Y-80036026D01*
X137616574Y-79891863D01*
X137447056Y-79778595D01*
X137258698Y-79700574D01*
X137058739Y-79660800D01*
X136854861Y-79660800D01*
X136654902Y-79700574D01*
X136466544Y-79778595D01*
X136297026Y-79891863D01*
X136152863Y-80036026D01*
X136039595Y-80205544D01*
X135961574Y-80393902D01*
X135950265Y-80450756D01*
X129046556Y-87354466D01*
X129012783Y-87382183D01*
X128902189Y-87516942D01*
X128820011Y-87670688D01*
X128769405Y-87837511D01*
X128756600Y-87967524D01*
X128756600Y-87967531D01*
X128752319Y-88011000D01*
X128756600Y-88054469D01*
X128756600Y-88920346D01*
X128724395Y-88968544D01*
X128646374Y-89156902D01*
X128606600Y-89356861D01*
X128606600Y-89560739D01*
X128646374Y-89760698D01*
X128724395Y-89949056D01*
X128756600Y-89997254D01*
X128756600Y-90067961D01*
X128756601Y-90067971D01*
X128756600Y-101124731D01*
X128752319Y-101168200D01*
X128756600Y-101211669D01*
X128756600Y-101211676D01*
X128769405Y-101341689D01*
X128820011Y-101508512D01*
X128902189Y-101662258D01*
X129012783Y-101797017D01*
X129046556Y-101824734D01*
X131450721Y-104228900D01*
X129783151Y-105896471D01*
X129749384Y-105924183D01*
X129721671Y-105957951D01*
X129721668Y-105957954D01*
X129638790Y-106058941D01*
X129556612Y-106212687D01*
X129506005Y-106379510D01*
X129488919Y-106553000D01*
X129493201Y-106596479D01*
X129493200Y-119486338D01*
X128134340Y-120845198D01*
X127995780Y-120706638D01*
X127911016Y-120650000D01*
X127995780Y-120593362D01*
X128213362Y-120375780D01*
X128384315Y-120119932D01*
X128502069Y-119835648D01*
X128562100Y-119533853D01*
X128562100Y-119226147D01*
X128502069Y-118924352D01*
X128384315Y-118640068D01*
X128213362Y-118384220D01*
X127995780Y-118166638D01*
X127911016Y-118110000D01*
X127995780Y-118053362D01*
X128213362Y-117835780D01*
X128384315Y-117579932D01*
X128502069Y-117295648D01*
X128562100Y-116993853D01*
X128562100Y-116686147D01*
X128502069Y-116384352D01*
X128384315Y-116100068D01*
X128213362Y-115844220D01*
X127995780Y-115626638D01*
X127911016Y-115570000D01*
X127995780Y-115513362D01*
X128213362Y-115295780D01*
X128384315Y-115039932D01*
X128502069Y-114755648D01*
X128562100Y-114453853D01*
X128562100Y-114146147D01*
X128502069Y-113844352D01*
X128384315Y-113560068D01*
X128213362Y-113304220D01*
X127995780Y-113086638D01*
X127911016Y-113030000D01*
X127995780Y-112973362D01*
X128213362Y-112755780D01*
X128384315Y-112499932D01*
X128502069Y-112215648D01*
X128562100Y-111913853D01*
X128562100Y-111606147D01*
X128502069Y-111304352D01*
X128384315Y-111020068D01*
X128213362Y-110764220D01*
X127995780Y-110546638D01*
X127911016Y-110490000D01*
X127995780Y-110433362D01*
X128213362Y-110215780D01*
X128384315Y-109959932D01*
X128502069Y-109675648D01*
X128562100Y-109373853D01*
X128562100Y-109066147D01*
X128502069Y-108764352D01*
X128384315Y-108480068D01*
X128213362Y-108224220D01*
X127995780Y-108006638D01*
X127911016Y-107950000D01*
X127995780Y-107893362D01*
X128213362Y-107675780D01*
X128384315Y-107419932D01*
X128502069Y-107135648D01*
X128562100Y-106833853D01*
X128562100Y-106526147D01*
X128502069Y-106224352D01*
X128384315Y-105940068D01*
X128213362Y-105684220D01*
X127995780Y-105466638D01*
X127911016Y-105410000D01*
X127995780Y-105353362D01*
X128213362Y-105135780D01*
X128384315Y-104879932D01*
X128502069Y-104595648D01*
X128562100Y-104293853D01*
X128562100Y-103986147D01*
X128502069Y-103684352D01*
X128384315Y-103400068D01*
X128213362Y-103144220D01*
X127995780Y-102926638D01*
X127911016Y-102870000D01*
X127995780Y-102813362D01*
X128213362Y-102595780D01*
X128384315Y-102339932D01*
X128502069Y-102055648D01*
X128562100Y-101753853D01*
X128562100Y-101446147D01*
X128502069Y-101144352D01*
X128384315Y-100860068D01*
X128213362Y-100604220D01*
X127995780Y-100386638D01*
X127911016Y-100330000D01*
X127995780Y-100273362D01*
X128213362Y-100055780D01*
X128384315Y-99799932D01*
X128502069Y-99515648D01*
X128562100Y-99213853D01*
X128562100Y-98906147D01*
X128502069Y-98604352D01*
X128384315Y-98320068D01*
X128213362Y-98064220D01*
X127995780Y-97846638D01*
X127911016Y-97790000D01*
X127995780Y-97733362D01*
X128213362Y-97515780D01*
X128384315Y-97259932D01*
X128502069Y-96975648D01*
X128562100Y-96673853D01*
X128562100Y-96366147D01*
X128502069Y-96064352D01*
X128384315Y-95780068D01*
X128213362Y-95524220D01*
X127995780Y-95306638D01*
X127911016Y-95250000D01*
X127995780Y-95193362D01*
X128213362Y-94975780D01*
X128384315Y-94719932D01*
X128502069Y-94435648D01*
X128562100Y-94133853D01*
X128562100Y-93826147D01*
X128502069Y-93524352D01*
X128384315Y-93240068D01*
X128213362Y-92984220D01*
X127995780Y-92766638D01*
X127911016Y-92710000D01*
X127995780Y-92653362D01*
X128213362Y-92435780D01*
X128384315Y-92179932D01*
X128502069Y-91895648D01*
X128562100Y-91593853D01*
X128562100Y-91286147D01*
X128502069Y-90984352D01*
X128384315Y-90700068D01*
X128213362Y-90444220D01*
X127995780Y-90226638D01*
X127911016Y-90170000D01*
X127995780Y-90113362D01*
X128213362Y-89895780D01*
X128384315Y-89639932D01*
X128502069Y-89355648D01*
X128562100Y-89053853D01*
X128562100Y-88746147D01*
X128502069Y-88444352D01*
X128384315Y-88160068D01*
X128213362Y-87904220D01*
X127995780Y-87686638D01*
X127911016Y-87630000D01*
X127995780Y-87573362D01*
X128213362Y-87355780D01*
X128384315Y-87099932D01*
X128502069Y-86815648D01*
X128562100Y-86513853D01*
X128562100Y-86206147D01*
X128502069Y-85904352D01*
X128384315Y-85620068D01*
X128213362Y-85364220D01*
X127995780Y-85146638D01*
X127911016Y-85090000D01*
X127995780Y-85033362D01*
X128213362Y-84815780D01*
X128384315Y-84559932D01*
X128502069Y-84275648D01*
X128562100Y-83973853D01*
X128562100Y-83666147D01*
X128502069Y-83364352D01*
X128384315Y-83080068D01*
X128213362Y-82824220D01*
X127995780Y-82606638D01*
X127911016Y-82550000D01*
X127995780Y-82493362D01*
X128213362Y-82275780D01*
X128384315Y-82019932D01*
X128502069Y-81735648D01*
X128562100Y-81433853D01*
X128562100Y-81126147D01*
X128502069Y-80824352D01*
X128384315Y-80540068D01*
X128213362Y-80284220D01*
X127995780Y-80066638D01*
X127911016Y-80010000D01*
X127995780Y-79953362D01*
X128213362Y-79735780D01*
X128384315Y-79479932D01*
X128502069Y-79195648D01*
X128562100Y-78893853D01*
X128562100Y-78586147D01*
X128502069Y-78284352D01*
X128384315Y-78000068D01*
X128213362Y-77744220D01*
X127995780Y-77526638D01*
X127911016Y-77470000D01*
X127995780Y-77413362D01*
X128213362Y-77195780D01*
X128384315Y-76939932D01*
X128502069Y-76655648D01*
X128562100Y-76353853D01*
X128562100Y-76046147D01*
X140677900Y-76046147D01*
X140677900Y-76353853D01*
X140737931Y-76655648D01*
X140855685Y-76939932D01*
X141026638Y-77195780D01*
X141244220Y-77413362D01*
X141328984Y-77470000D01*
X141244220Y-77526638D01*
X141026638Y-77744220D01*
X140855685Y-78000068D01*
X140737931Y-78284352D01*
X140677900Y-78586147D01*
X140677900Y-78893853D01*
X140737931Y-79195648D01*
X140855685Y-79479932D01*
X141026638Y-79735780D01*
X141244220Y-79953362D01*
X141328984Y-80010000D01*
X141244220Y-80066638D01*
X141026638Y-80284220D01*
X140855685Y-80540068D01*
X140737931Y-80824352D01*
X140677900Y-81126147D01*
X140677900Y-81433853D01*
X140737931Y-81735648D01*
X140855685Y-82019932D01*
X141026638Y-82275780D01*
X141244220Y-82493362D01*
X141328984Y-82550000D01*
X141244220Y-82606638D01*
X141026638Y-82824220D01*
X140855685Y-83080068D01*
X140737931Y-83364352D01*
X140677900Y-83666147D01*
X140677900Y-83973853D01*
X140737931Y-84275648D01*
X140855685Y-84559932D01*
X141026638Y-84815780D01*
X141244220Y-85033362D01*
X141328984Y-85090000D01*
X141244220Y-85146638D01*
X141026638Y-85364220D01*
X140855685Y-85620068D01*
X140737931Y-85904352D01*
X140677900Y-86206147D01*
X140677900Y-86513853D01*
X140737931Y-86815648D01*
X140855685Y-87099932D01*
X141026638Y-87355780D01*
X141244220Y-87573362D01*
X141328984Y-87630000D01*
X141244220Y-87686638D01*
X141026638Y-87904220D01*
X140855685Y-88160068D01*
X140737931Y-88444352D01*
X140677900Y-88746147D01*
X140677900Y-89053853D01*
X140737931Y-89355648D01*
X140855685Y-89639932D01*
X141026638Y-89895780D01*
X141244220Y-90113362D01*
X141328984Y-90170000D01*
X141244220Y-90226638D01*
X141026638Y-90444220D01*
X140855685Y-90700068D01*
X140737931Y-90984352D01*
X140677900Y-91286147D01*
X140677900Y-91593853D01*
X140737931Y-91895648D01*
X140855685Y-92179932D01*
X141026638Y-92435780D01*
X141244220Y-92653362D01*
X141328984Y-92710000D01*
X141244220Y-92766638D01*
X141026638Y-92984220D01*
X140855685Y-93240068D01*
X140737931Y-93524352D01*
X140677900Y-93826147D01*
X140677900Y-94133853D01*
X140737931Y-94435648D01*
X140855685Y-94719932D01*
X141026638Y-94975780D01*
X141244220Y-95193362D01*
X141328984Y-95250000D01*
X141244220Y-95306638D01*
X141026638Y-95524220D01*
X140855685Y-95780068D01*
X140737931Y-96064352D01*
X140677900Y-96366147D01*
X140677900Y-96673853D01*
X140737931Y-96975648D01*
X140855685Y-97259932D01*
X141026638Y-97515780D01*
X141244220Y-97733362D01*
X141328984Y-97790000D01*
X141244220Y-97846638D01*
X141026638Y-98064220D01*
X140855685Y-98320068D01*
X140737931Y-98604352D01*
X140677900Y-98906147D01*
X140677900Y-99213853D01*
X140737931Y-99515648D01*
X140855685Y-99799932D01*
X141026638Y-100055780D01*
X141244220Y-100273362D01*
X141328984Y-100330000D01*
X141244220Y-100386638D01*
X141026638Y-100604220D01*
X140855685Y-100860068D01*
X140737931Y-101144352D01*
X140677900Y-101446147D01*
X140677900Y-101753853D01*
X140737931Y-102055648D01*
X140855685Y-102339932D01*
X141026638Y-102595780D01*
X141244220Y-102813362D01*
X141386360Y-102908338D01*
X141336190Y-103056584D01*
X142240000Y-103960395D01*
X143143810Y-103056584D01*
X143093640Y-102908338D01*
X143235780Y-102813362D01*
X143453362Y-102595780D01*
X143624315Y-102339932D01*
X143742069Y-102055648D01*
X143802100Y-101753853D01*
X143802100Y-101446147D01*
X143742069Y-101144352D01*
X143624315Y-100860068D01*
X143453362Y-100604220D01*
X143235780Y-100386638D01*
X143151016Y-100330000D01*
X143235780Y-100273362D01*
X143453362Y-100055780D01*
X143624315Y-99799932D01*
X143742069Y-99515648D01*
X143802100Y-99213853D01*
X143802100Y-98906147D01*
X143742069Y-98604352D01*
X143624315Y-98320068D01*
X143453362Y-98064220D01*
X143235780Y-97846638D01*
X143151016Y-97790000D01*
X143235780Y-97733362D01*
X143453362Y-97515780D01*
X143624315Y-97259932D01*
X143742069Y-96975648D01*
X143802100Y-96673853D01*
X143802100Y-96366147D01*
X143742069Y-96064352D01*
X143624315Y-95780068D01*
X143453362Y-95524220D01*
X143235780Y-95306638D01*
X143151016Y-95250000D01*
X143235780Y-95193362D01*
X143453362Y-94975780D01*
X143624315Y-94719932D01*
X143742069Y-94435648D01*
X143802100Y-94133853D01*
X143802100Y-93826147D01*
X143742069Y-93524352D01*
X143624315Y-93240068D01*
X143453362Y-92984220D01*
X143235780Y-92766638D01*
X143151016Y-92710000D01*
X143235780Y-92653362D01*
X143453362Y-92435780D01*
X143624315Y-92179932D01*
X143742069Y-91895648D01*
X143802100Y-91593853D01*
X143802100Y-91286147D01*
X143742069Y-90984352D01*
X143624315Y-90700068D01*
X143453362Y-90444220D01*
X143235780Y-90226638D01*
X143151016Y-90170000D01*
X143235780Y-90113362D01*
X143453362Y-89895780D01*
X143624315Y-89639932D01*
X143742069Y-89355648D01*
X143802100Y-89053853D01*
X143802100Y-88746147D01*
X143742069Y-88444352D01*
X143624315Y-88160068D01*
X143453362Y-87904220D01*
X143235780Y-87686638D01*
X143151016Y-87630000D01*
X143235780Y-87573362D01*
X143453362Y-87355780D01*
X143624315Y-87099932D01*
X143742069Y-86815648D01*
X143802100Y-86513853D01*
X143802100Y-86206147D01*
X143742069Y-85904352D01*
X143624315Y-85620068D01*
X143453362Y-85364220D01*
X143235780Y-85146638D01*
X143151016Y-85090000D01*
X143235780Y-85033362D01*
X143453362Y-84815780D01*
X143624315Y-84559932D01*
X143742069Y-84275648D01*
X143802100Y-83973853D01*
X143802100Y-83666147D01*
X143742069Y-83364352D01*
X143624315Y-83080068D01*
X143453362Y-82824220D01*
X143235780Y-82606638D01*
X143151016Y-82550000D01*
X143235780Y-82493362D01*
X143453362Y-82275780D01*
X143624315Y-82019932D01*
X143742069Y-81735648D01*
X143802100Y-81433853D01*
X143802100Y-81126147D01*
X143742069Y-80824352D01*
X143624315Y-80540068D01*
X143453362Y-80284220D01*
X143235780Y-80066638D01*
X143151016Y-80010000D01*
X143235780Y-79953362D01*
X143453362Y-79735780D01*
X143624315Y-79479932D01*
X143742069Y-79195648D01*
X143802100Y-78893853D01*
X143802100Y-78586147D01*
X143742069Y-78284352D01*
X143624315Y-78000068D01*
X143453362Y-77744220D01*
X143235780Y-77526638D01*
X143151016Y-77470000D01*
X143235780Y-77413362D01*
X143453362Y-77195780D01*
X143624315Y-76939932D01*
X143742069Y-76655648D01*
X143802100Y-76353853D01*
X143802100Y-76046147D01*
X143742069Y-75744352D01*
X143624315Y-75460068D01*
X143453362Y-75204220D01*
X143235780Y-74986638D01*
X142979932Y-74815685D01*
X142695648Y-74697931D01*
X142393853Y-74637900D01*
X142086147Y-74637900D01*
X141784352Y-74697931D01*
X141500068Y-74815685D01*
X141244220Y-74986638D01*
X141026638Y-75204220D01*
X140855685Y-75460068D01*
X140737931Y-75744352D01*
X140677900Y-76046147D01*
X128562100Y-76046147D01*
X128502069Y-75744352D01*
X128384315Y-75460068D01*
X128213362Y-75204220D01*
X127995780Y-74986638D01*
X127739932Y-74815685D01*
X127722442Y-74808440D01*
X127816911Y-74730911D01*
X127902512Y-74626607D01*
X127966119Y-74507606D01*
X128005288Y-74378483D01*
X128015200Y-74277847D01*
X128018514Y-74244200D01*
X128015200Y-74210553D01*
X128015200Y-70188447D01*
X128018514Y-70154800D01*
X128005288Y-70020517D01*
X127966119Y-69891394D01*
X127902512Y-69772393D01*
X127816911Y-69668089D01*
X127712607Y-69582488D01*
X127593606Y-69518881D01*
X127464483Y-69479712D01*
X127363847Y-69469800D01*
X127330200Y-69466486D01*
X127296553Y-69469800D01*
X126013737Y-69469800D01*
X124946136Y-68402200D01*
X144857000Y-68402200D01*
X144857001Y-136373400D01*
X144857001Y-136373400D01*
G37*
X144857001Y-136373400D02*
X124383000Y-136373400D01*
X124383000Y-76559936D01*
X126013737Y-74929200D01*
X126090182Y-74929200D01*
X126004220Y-74986638D01*
X125786638Y-75204220D01*
X125615685Y-75460068D01*
X125497931Y-75744352D01*
X125437900Y-76046147D01*
X125437900Y-76353853D01*
X125497931Y-76655648D01*
X125615685Y-76939932D01*
X125786638Y-77195780D01*
X126004220Y-77413362D01*
X126088984Y-77470000D01*
X126004220Y-77526638D01*
X125786638Y-77744220D01*
X125615685Y-78000068D01*
X125497931Y-78284352D01*
X125437900Y-78586147D01*
X125437900Y-78893853D01*
X125497931Y-79195648D01*
X125615685Y-79479932D01*
X125786638Y-79735780D01*
X126004220Y-79953362D01*
X126088984Y-80010000D01*
X126004220Y-80066638D01*
X125786638Y-80284220D01*
X125615685Y-80540068D01*
X125497931Y-80824352D01*
X125437900Y-81126147D01*
X125437900Y-81433853D01*
X125497931Y-81735648D01*
X125615685Y-82019932D01*
X125786638Y-82275780D01*
X126004220Y-82493362D01*
X126088984Y-82550000D01*
X126004220Y-82606638D01*
X125786638Y-82824220D01*
X125615685Y-83080068D01*
X125497931Y-83364352D01*
X125437900Y-83666147D01*
X125437900Y-83973853D01*
X125497931Y-84275648D01*
X125615685Y-84559932D01*
X125786638Y-84815780D01*
X126004220Y-85033362D01*
X126088984Y-85090000D01*
X126004220Y-85146638D01*
X125786638Y-85364220D01*
X125615685Y-85620068D01*
X125497931Y-85904352D01*
X125437900Y-86206147D01*
X125437900Y-86513853D01*
X125497931Y-86815648D01*
X125615685Y-87099932D01*
X125786638Y-87355780D01*
X126004220Y-87573362D01*
X126088984Y-87630000D01*
X126004220Y-87686638D01*
X125786638Y-87904220D01*
X125615685Y-88160068D01*
X125497931Y-88444352D01*
X125437900Y-88746147D01*
X125437900Y-89053853D01*
X125497931Y-89355648D01*
X125615685Y-89639932D01*
X125786638Y-89895780D01*
X126004220Y-90113362D01*
X126088984Y-90170000D01*
X126004220Y-90226638D01*
X125786638Y-90444220D01*
X125615685Y-90700068D01*
X125497931Y-90984352D01*
X125437900Y-91286147D01*
X125437900Y-91593853D01*
X125497931Y-91895648D01*
X125615685Y-92179932D01*
X125786638Y-92435780D01*
X126004220Y-92653362D01*
X126088984Y-92710000D01*
X126004220Y-92766638D01*
X125786638Y-92984220D01*
X125615685Y-93240068D01*
X125497931Y-93524352D01*
X125437900Y-93826147D01*
X125437900Y-94133853D01*
X125497931Y-94435648D01*
X125615685Y-94719932D01*
X125786638Y-94975780D01*
X126004220Y-95193362D01*
X126088984Y-95250000D01*
X126004220Y-95306638D01*
X125786638Y-95524220D01*
X125615685Y-95780068D01*
X125497931Y-96064352D01*
X125437900Y-96366147D01*
X125437900Y-96673853D01*
X125497931Y-96975648D01*
X125615685Y-97259932D01*
X125786638Y-97515780D01*
X126004220Y-97733362D01*
X126088984Y-97790000D01*
X126004220Y-97846638D01*
X125786638Y-98064220D01*
X125615685Y-98320068D01*
X125497931Y-98604352D01*
X125437900Y-98906147D01*
X125437900Y-99213853D01*
X125497931Y-99515648D01*
X125615685Y-99799932D01*
X125786638Y-100055780D01*
X126004220Y-100273362D01*
X126088984Y-100330000D01*
X126004220Y-100386638D01*
X125786638Y-100604220D01*
X125615685Y-100860068D01*
X125497931Y-101144352D01*
X125437900Y-101446147D01*
X125437900Y-101753853D01*
X125497931Y-102055648D01*
X125615685Y-102339932D01*
X125786638Y-102595780D01*
X126004220Y-102813362D01*
X126088984Y-102870000D01*
X126004220Y-102926638D01*
X125786638Y-103144220D01*
X125615685Y-103400068D01*
X125497931Y-103684352D01*
X125437900Y-103986147D01*
X125437900Y-104293853D01*
X125497931Y-104595648D01*
X125615685Y-104879932D01*
X125786638Y-105135780D01*
X126004220Y-105353362D01*
X126088984Y-105410000D01*
X126004220Y-105466638D01*
X125786638Y-105684220D01*
X125615685Y-105940068D01*
X125497931Y-106224352D01*
X125437900Y-106526147D01*
X125437900Y-106833853D01*
X125497931Y-107135648D01*
X125615685Y-107419932D01*
X125786638Y-107675780D01*
X126004220Y-107893362D01*
X126088984Y-107950000D01*
X126004220Y-108006638D01*
X125786638Y-108224220D01*
X125615685Y-108480068D01*
X125497931Y-108764352D01*
X125437900Y-109066147D01*
X125437900Y-109373853D01*
X125497931Y-109675648D01*
X125615685Y-109959932D01*
X125786638Y-110215780D01*
X126004220Y-110433362D01*
X126088984Y-110490000D01*
X126004220Y-110546638D01*
X125786638Y-110764220D01*
X125615685Y-111020068D01*
X125497931Y-111304352D01*
X125437900Y-111606147D01*
X125437900Y-111913853D01*
X125497931Y-112215648D01*
X125615685Y-112499932D01*
X125786638Y-112755780D01*
X126004220Y-112973362D01*
X126088984Y-113030000D01*
X126004220Y-113086638D01*
X125786638Y-113304220D01*
X125615685Y-113560068D01*
X125497931Y-113844352D01*
X125437900Y-114146147D01*
X125437900Y-114453853D01*
X125497931Y-114755648D01*
X125615685Y-115039932D01*
X125786638Y-115295780D01*
X126004220Y-115513362D01*
X126088984Y-115570000D01*
X126004220Y-115626638D01*
X125786638Y-115844220D01*
X125615685Y-116100068D01*
X125497931Y-116384352D01*
X125437900Y-116686147D01*
X125437900Y-116993853D01*
X125497931Y-117295648D01*
X125615685Y-117579932D01*
X125786638Y-117835780D01*
X126004220Y-118053362D01*
X126088984Y-118110000D01*
X126004220Y-118166638D01*
X125786638Y-118384220D01*
X125615685Y-118640068D01*
X125497931Y-118924352D01*
X125437900Y-119226147D01*
X125437900Y-119533853D01*
X125497931Y-119835648D01*
X125615685Y-120119932D01*
X125786638Y-120375780D01*
X126004220Y-120593362D01*
X126088984Y-120650000D01*
X126004220Y-120706638D01*
X125786638Y-120924220D01*
X125615685Y-121180068D01*
X125497931Y-121464352D01*
X125437900Y-121766147D01*
X125437900Y-122073853D01*
X125497931Y-122375648D01*
X125615685Y-122659932D01*
X125786638Y-122915780D01*
X126004220Y-123133362D01*
X126088984Y-123190000D01*
X126004220Y-123246638D01*
X125786638Y-123464220D01*
X125615685Y-123720068D01*
X125497931Y-124004352D01*
X125437900Y-124306147D01*
X125437900Y-124613853D01*
X125497931Y-124915648D01*
X125615685Y-125199932D01*
X125786638Y-125455780D01*
X126004220Y-125673362D01*
X126088984Y-125730000D01*
X126004220Y-125786638D01*
X125786638Y-126004220D01*
X125615685Y-126260068D01*
X125497931Y-126544352D01*
X125437900Y-126846147D01*
X125437900Y-127153853D01*
X125497931Y-127455648D01*
X125615685Y-127739932D01*
X125786638Y-127995780D01*
X126004220Y-128213362D01*
X126088984Y-128270000D01*
X126004220Y-128326638D01*
X125786638Y-128544220D01*
X125615685Y-128800068D01*
X125497931Y-129084352D01*
X125437900Y-129386147D01*
X125437900Y-129693853D01*
X125497931Y-129995648D01*
X125615685Y-130279932D01*
X125786638Y-130535780D01*
X126004220Y-130753362D01*
X126088984Y-130810000D01*
X126004220Y-130866638D01*
X125786638Y-131084220D01*
X125615685Y-131340068D01*
X125497931Y-131624352D01*
X125437900Y-131926147D01*
X125437900Y-132233853D01*
X125497931Y-132535648D01*
X125615685Y-132819932D01*
X125786638Y-133075780D01*
X126004220Y-133293362D01*
X126088984Y-133350000D01*
X126004220Y-133406638D01*
X125786638Y-133624220D01*
X125615685Y-133880068D01*
X125497931Y-134164352D01*
X125437900Y-134466147D01*
X125437900Y-134773853D01*
X125497931Y-135075648D01*
X125615685Y-135359932D01*
X125786638Y-135615780D01*
X126004220Y-135833362D01*
X126260068Y-136004315D01*
X126544352Y-136122069D01*
X126846147Y-136182100D01*
X127153853Y-136182100D01*
X127455648Y-136122069D01*
X127739932Y-136004315D01*
X127995780Y-135833362D01*
X128213362Y-135615780D01*
X128384315Y-135359932D01*
X128502069Y-135075648D01*
X128562100Y-134773853D01*
X128562100Y-134466147D01*
X128502069Y-134164352D01*
X128384315Y-133880068D01*
X128213362Y-133624220D01*
X127995780Y-133406638D01*
X127911016Y-133350000D01*
X127995780Y-133293362D01*
X128213362Y-133075780D01*
X128384315Y-132819932D01*
X128502069Y-132535648D01*
X128562100Y-132233853D01*
X128562100Y-131926147D01*
X128502069Y-131624352D01*
X128384315Y-131340068D01*
X128213362Y-131084220D01*
X127995780Y-130866638D01*
X127911016Y-130810000D01*
X127995780Y-130753362D01*
X128213362Y-130535780D01*
X128384315Y-130279932D01*
X128502069Y-129995648D01*
X128562100Y-129693853D01*
X128562100Y-129386147D01*
X128502069Y-129084352D01*
X128384315Y-128800068D01*
X128213362Y-128544220D01*
X127995780Y-128326638D01*
X127911016Y-128270000D01*
X127995780Y-128213362D01*
X128213362Y-127995780D01*
X128384315Y-127739932D01*
X128502069Y-127455648D01*
X128562100Y-127153853D01*
X128562100Y-126846147D01*
X128502069Y-126544352D01*
X128384315Y-126260068D01*
X128213362Y-126004220D01*
X127995780Y-125786638D01*
X127911016Y-125730000D01*
X127995780Y-125673362D01*
X128213362Y-125455780D01*
X128384315Y-125199932D01*
X128502069Y-124915648D01*
X128562100Y-124613853D01*
X128562100Y-124306147D01*
X128535310Y-124171467D01*
X128549061Y-124174202D01*
X128752939Y-124174202D01*
X128952898Y-124134428D01*
X129141256Y-124056407D01*
X129310774Y-123943139D01*
X129354711Y-123899202D01*
X134254401Y-123899202D01*
X134677200Y-124322002D01*
X134677200Y-124384139D01*
X134716974Y-124584098D01*
X134794995Y-124772456D01*
X134825159Y-124817600D01*
X133875913Y-124817600D01*
X133831976Y-124773663D01*
X133662458Y-124660395D01*
X133474100Y-124582374D01*
X133274141Y-124542600D01*
X133070263Y-124542600D01*
X132870304Y-124582374D01*
X132681946Y-124660395D01*
X132512428Y-124773663D01*
X132368265Y-124917826D01*
X132254997Y-125087344D01*
X132176976Y-125275702D01*
X132137202Y-125475661D01*
X132137202Y-125679539D01*
X132176976Y-125879498D01*
X132254997Y-126067856D01*
X132368265Y-126237374D01*
X132512428Y-126381537D01*
X132681946Y-126494805D01*
X132870304Y-126572826D01*
X133070263Y-126612600D01*
X133274141Y-126612600D01*
X133474100Y-126572826D01*
X133662458Y-126494805D01*
X133831976Y-126381537D01*
X133875913Y-126337600D01*
X134957689Y-126337600D01*
X135001626Y-126381537D01*
X135171144Y-126494805D01*
X135359502Y-126572826D01*
X135559461Y-126612600D01*
X135763339Y-126612600D01*
X135963298Y-126572826D01*
X136151656Y-126494805D01*
X136321174Y-126381537D01*
X136465337Y-126237374D01*
X136578605Y-126067856D01*
X136656626Y-125879498D01*
X136696400Y-125679539D01*
X136696400Y-125475661D01*
X136656626Y-125275702D01*
X136578605Y-125087344D01*
X136495357Y-124962754D01*
X136516137Y-124941974D01*
X136629405Y-124772456D01*
X136707426Y-124584098D01*
X136747200Y-124384139D01*
X136747200Y-124180261D01*
X136707426Y-123980302D01*
X136629405Y-123791944D01*
X136516137Y-123622426D01*
X136371974Y-123478263D01*
X136202456Y-123364995D01*
X136014098Y-123286974D01*
X135814139Y-123247200D01*
X135752002Y-123247200D01*
X135133006Y-122628204D01*
X135109203Y-122599201D01*
X134993478Y-122504228D01*
X134861449Y-122433656D01*
X134718188Y-122390199D01*
X134606535Y-122379202D01*
X134606524Y-122379202D01*
X134569202Y-122375526D01*
X134531880Y-122379202D01*
X129354711Y-122379202D01*
X129310774Y-122335265D01*
X129212856Y-122269839D01*
X130973250Y-120509446D01*
X131007017Y-120481734D01*
X131059380Y-120417931D01*
X131117611Y-120346976D01*
X131199788Y-120193231D01*
X131199789Y-120193230D01*
X131250395Y-120026407D01*
X131263200Y-119896394D01*
X131263200Y-119896386D01*
X131267481Y-119852917D01*
X131263200Y-119809448D01*
X131263200Y-110352438D01*
X131422502Y-110418424D01*
X131622461Y-110458198D01*
X131684599Y-110458198D01*
X132997224Y-111770823D01*
X132819502Y-111806174D01*
X132631144Y-111884195D01*
X132461626Y-111997463D01*
X132317463Y-112141626D01*
X132204195Y-112311144D01*
X132126174Y-112499502D01*
X132086400Y-112699461D01*
X132086400Y-112903339D01*
X132126174Y-113103298D01*
X132204195Y-113291656D01*
X132317463Y-113461174D01*
X132461626Y-113605337D01*
X132631144Y-113718605D01*
X132819502Y-113796626D01*
X133019461Y-113836400D01*
X133081599Y-113836400D01*
X135159804Y-115914606D01*
X135159804Y-115976739D01*
X135199578Y-116176698D01*
X135277599Y-116365056D01*
X135390867Y-116534574D01*
X135535030Y-116678737D01*
X135704548Y-116792005D01*
X135892906Y-116870026D01*
X136092865Y-116909800D01*
X136296743Y-116909800D01*
X136496702Y-116870026D01*
X136685060Y-116792005D01*
X136854578Y-116678737D01*
X136998741Y-116534574D01*
X137035001Y-116480307D01*
X137035000Y-129623689D01*
X136991063Y-129667626D01*
X136877795Y-129837144D01*
X136799774Y-130025502D01*
X136760000Y-130225461D01*
X136760000Y-130429339D01*
X136799774Y-130629298D01*
X136877795Y-130817656D01*
X136991063Y-130987174D01*
X137135226Y-131131337D01*
X137304744Y-131244605D01*
X137493102Y-131322626D01*
X137693061Y-131362400D01*
X137896939Y-131362400D01*
X138096898Y-131322626D01*
X138285256Y-131244605D01*
X138454774Y-131131337D01*
X138598937Y-130987174D01*
X138712205Y-130817656D01*
X138790226Y-130629298D01*
X138830000Y-130429339D01*
X138830000Y-130225461D01*
X138790226Y-130025502D01*
X138712205Y-129837144D01*
X138598937Y-129667626D01*
X138555000Y-129623689D01*
X138555000Y-115531121D01*
X138558676Y-115493798D01*
X138555000Y-115456475D01*
X138555000Y-115456465D01*
X138544003Y-115344812D01*
X138500546Y-115201551D01*
X138429974Y-115069522D01*
X138335001Y-114953797D01*
X138306003Y-114929999D01*
X132759400Y-109383397D01*
X132759400Y-109321259D01*
X132719626Y-109121300D01*
X132641605Y-108932942D01*
X132528337Y-108763424D01*
X132384174Y-108619261D01*
X132214656Y-108505993D01*
X132026298Y-108427972D01*
X131826339Y-108388198D01*
X131622461Y-108388198D01*
X131422502Y-108427972D01*
X131263200Y-108493958D01*
X131263200Y-106919578D01*
X131656631Y-106526147D01*
X140677900Y-106526147D01*
X140677900Y-106833853D01*
X140737931Y-107135648D01*
X140855685Y-107419932D01*
X141026638Y-107675780D01*
X141244220Y-107893362D01*
X141328984Y-107950000D01*
X141244220Y-108006638D01*
X141026638Y-108224220D01*
X140855685Y-108480068D01*
X140737931Y-108764352D01*
X140677900Y-109066147D01*
X140677900Y-109373853D01*
X140737931Y-109675648D01*
X140855685Y-109959932D01*
X141026638Y-110215780D01*
X141244220Y-110433362D01*
X141328984Y-110490000D01*
X141244220Y-110546638D01*
X141026638Y-110764220D01*
X140855685Y-111020068D01*
X140737931Y-111304352D01*
X140677900Y-111606147D01*
X140677900Y-111913853D01*
X140737931Y-112215648D01*
X140855685Y-112499932D01*
X141026638Y-112755780D01*
X141244220Y-112973362D01*
X141328984Y-113030000D01*
X141244220Y-113086638D01*
X141026638Y-113304220D01*
X140855685Y-113560068D01*
X140737931Y-113844352D01*
X140677900Y-114146147D01*
X140677900Y-114453853D01*
X140737931Y-114755648D01*
X140855685Y-115039932D01*
X141026638Y-115295780D01*
X141244220Y-115513362D01*
X141328984Y-115570000D01*
X141244220Y-115626638D01*
X141026638Y-115844220D01*
X140855685Y-116100068D01*
X140737931Y-116384352D01*
X140677900Y-116686147D01*
X140677900Y-116993853D01*
X140737931Y-117295648D01*
X140855685Y-117579932D01*
X141026638Y-117835780D01*
X141244220Y-118053362D01*
X141328984Y-118110000D01*
X141244220Y-118166638D01*
X141026638Y-118384220D01*
X140855685Y-118640068D01*
X140737931Y-118924352D01*
X140677900Y-119226147D01*
X140677900Y-119533853D01*
X140737931Y-119835648D01*
X140855685Y-120119932D01*
X141026638Y-120375780D01*
X141244220Y-120593362D01*
X141328984Y-120650000D01*
X141244220Y-120706638D01*
X141026638Y-120924220D01*
X140855685Y-121180068D01*
X140737931Y-121464352D01*
X140677900Y-121766147D01*
X140677900Y-122073853D01*
X140737931Y-122375648D01*
X140855685Y-122659932D01*
X141026638Y-122915780D01*
X141244220Y-123133362D01*
X141328984Y-123190000D01*
X141244220Y-123246638D01*
X141026638Y-123464220D01*
X140855685Y-123720068D01*
X140737931Y-124004352D01*
X140677900Y-124306147D01*
X140677900Y-124613853D01*
X140737931Y-124915648D01*
X140855685Y-125199932D01*
X141026638Y-125455780D01*
X141244220Y-125673362D01*
X141328984Y-125730000D01*
X141244220Y-125786638D01*
X141026638Y-126004220D01*
X140855685Y-126260068D01*
X140737931Y-126544352D01*
X140677900Y-126846147D01*
X140677900Y-127153853D01*
X140737931Y-127455648D01*
X140855685Y-127739932D01*
X141026638Y-127995780D01*
X141244220Y-128213362D01*
X141328984Y-128270000D01*
X141244220Y-128326638D01*
X141026638Y-128544220D01*
X140855685Y-128800068D01*
X140737931Y-129084352D01*
X140677900Y-129386147D01*
X140677900Y-129693853D01*
X140737931Y-129995648D01*
X140855685Y-130279932D01*
X141026638Y-130535780D01*
X141244220Y-130753362D01*
X141328984Y-130810000D01*
X141244220Y-130866638D01*
X141026638Y-131084220D01*
X140855685Y-131340068D01*
X140737931Y-131624352D01*
X140677900Y-131926147D01*
X140677900Y-132233853D01*
X140737931Y-132535648D01*
X140855685Y-132819932D01*
X141026638Y-133075780D01*
X141244220Y-133293362D01*
X141328984Y-133350000D01*
X141244220Y-133406638D01*
X141026638Y-133624220D01*
X140855685Y-133880068D01*
X140737931Y-134164352D01*
X140677900Y-134466147D01*
X140677900Y-134773853D01*
X140737931Y-135075648D01*
X140855685Y-135359932D01*
X141026638Y-135615780D01*
X141244220Y-135833362D01*
X141500068Y-136004315D01*
X141784352Y-136122069D01*
X142086147Y-136182100D01*
X142393853Y-136182100D01*
X142695648Y-136122069D01*
X142979932Y-136004315D01*
X143235780Y-135833362D01*
X143453362Y-135615780D01*
X143624315Y-135359932D01*
X143742069Y-135075648D01*
X143802100Y-134773853D01*
X143802100Y-134466147D01*
X143742069Y-134164352D01*
X143624315Y-133880068D01*
X143453362Y-133624220D01*
X143235780Y-133406638D01*
X143151016Y-133350000D01*
X143235780Y-133293362D01*
X143453362Y-133075780D01*
X143624315Y-132819932D01*
X143742069Y-132535648D01*
X143802100Y-132233853D01*
X143802100Y-131926147D01*
X143742069Y-131624352D01*
X143624315Y-131340068D01*
X143453362Y-131084220D01*
X143235780Y-130866638D01*
X143151016Y-130810000D01*
X143235780Y-130753362D01*
X143453362Y-130535780D01*
X143624315Y-130279932D01*
X143742069Y-129995648D01*
X143802100Y-129693853D01*
X143802100Y-129386147D01*
X143742069Y-129084352D01*
X143624315Y-128800068D01*
X143453362Y-128544220D01*
X143235780Y-128326638D01*
X143151016Y-128270000D01*
X143235780Y-128213362D01*
X143453362Y-127995780D01*
X143624315Y-127739932D01*
X143742069Y-127455648D01*
X143802100Y-127153853D01*
X143802100Y-126846147D01*
X143742069Y-126544352D01*
X143624315Y-126260068D01*
X143453362Y-126004220D01*
X143235780Y-125786638D01*
X143151016Y-125730000D01*
X143235780Y-125673362D01*
X143453362Y-125455780D01*
X143624315Y-125199932D01*
X143742069Y-124915648D01*
X143802100Y-124613853D01*
X143802100Y-124306147D01*
X143742069Y-124004352D01*
X143624315Y-123720068D01*
X143453362Y-123464220D01*
X143235780Y-123246638D01*
X143151016Y-123190000D01*
X143235780Y-123133362D01*
X143453362Y-122915780D01*
X143624315Y-122659932D01*
X143742069Y-122375648D01*
X143802100Y-122073853D01*
X143802100Y-121766147D01*
X143742069Y-121464352D01*
X143624315Y-121180068D01*
X143453362Y-120924220D01*
X143235780Y-120706638D01*
X143151016Y-120650000D01*
X143235780Y-120593362D01*
X143453362Y-120375780D01*
X143624315Y-120119932D01*
X143742069Y-119835648D01*
X143802100Y-119533853D01*
X143802100Y-119226147D01*
X143742069Y-118924352D01*
X143624315Y-118640068D01*
X143453362Y-118384220D01*
X143235780Y-118166638D01*
X143151016Y-118110000D01*
X143235780Y-118053362D01*
X143453362Y-117835780D01*
X143624315Y-117579932D01*
X143742069Y-117295648D01*
X143802100Y-116993853D01*
X143802100Y-116686147D01*
X143742069Y-116384352D01*
X143624315Y-116100068D01*
X143453362Y-115844220D01*
X143235780Y-115626638D01*
X143151016Y-115570000D01*
X143235780Y-115513362D01*
X143453362Y-115295780D01*
X143624315Y-115039932D01*
X143742069Y-114755648D01*
X143802100Y-114453853D01*
X143802100Y-114146147D01*
X143742069Y-113844352D01*
X143624315Y-113560068D01*
X143453362Y-113304220D01*
X143235780Y-113086638D01*
X143151016Y-113030000D01*
X143235780Y-112973362D01*
X143453362Y-112755780D01*
X143624315Y-112499932D01*
X143742069Y-112215648D01*
X143802100Y-111913853D01*
X143802100Y-111606147D01*
X143742069Y-111304352D01*
X143624315Y-111020068D01*
X143453362Y-110764220D01*
X143235780Y-110546638D01*
X143151016Y-110490000D01*
X143235780Y-110433362D01*
X143453362Y-110215780D01*
X143624315Y-109959932D01*
X143742069Y-109675648D01*
X143802100Y-109373853D01*
X143802100Y-109066147D01*
X143742069Y-108764352D01*
X143624315Y-108480068D01*
X143453362Y-108224220D01*
X143235780Y-108006638D01*
X143151016Y-107950000D01*
X143235780Y-107893362D01*
X143453362Y-107675780D01*
X143624315Y-107419932D01*
X143742069Y-107135648D01*
X143802100Y-106833853D01*
X143802100Y-106526147D01*
X143742069Y-106224352D01*
X143624315Y-105940068D01*
X143453362Y-105684220D01*
X143235780Y-105466638D01*
X143093640Y-105371662D01*
X143143810Y-105223416D01*
X142240000Y-104319605D01*
X141336190Y-105223416D01*
X141386360Y-105371662D01*
X141244220Y-105466638D01*
X141026638Y-105684220D01*
X140855685Y-105940068D01*
X140737931Y-106224352D01*
X140677900Y-106526147D01*
X131656631Y-106526147D01*
X132966351Y-105216428D01*
X132991498Y-105211426D01*
X133179856Y-105133405D01*
X133349374Y-105020137D01*
X133493537Y-104875974D01*
X133606805Y-104706456D01*
X133684826Y-104518098D01*
X133724600Y-104318139D01*
X133724600Y-104205480D01*
X140671708Y-104205480D01*
X140714617Y-104510180D01*
X140816145Y-104800655D01*
X140899635Y-104956852D01*
X141156584Y-105043810D01*
X142060395Y-104140000D01*
X142419605Y-104140000D01*
X143323416Y-105043810D01*
X143580365Y-104956852D01*
X143713971Y-104679664D01*
X143790933Y-104381737D01*
X143808292Y-104074520D01*
X143765383Y-103769820D01*
X143663855Y-103479345D01*
X143580365Y-103323148D01*
X143323416Y-103236190D01*
X142419605Y-104140000D01*
X142060395Y-104140000D01*
X141156584Y-103236190D01*
X140899635Y-103323148D01*
X140766029Y-103600336D01*
X140689067Y-103898263D01*
X140671708Y-104205480D01*
X133724600Y-104205480D01*
X133724600Y-104114261D01*
X133684826Y-103914302D01*
X133606805Y-103725944D01*
X133493537Y-103556426D01*
X133349374Y-103412263D01*
X133179856Y-103298995D01*
X132991498Y-103220974D01*
X132934644Y-103209665D01*
X130526600Y-100801622D01*
X130526600Y-89997254D01*
X130558805Y-89949056D01*
X130636826Y-89760698D01*
X130676600Y-89560739D01*
X130676600Y-89356861D01*
X130636826Y-89156902D01*
X130558805Y-88968544D01*
X130526600Y-88920346D01*
X130526600Y-88721861D01*
X131197400Y-88721861D01*
X131197400Y-88925739D01*
X131237174Y-89125698D01*
X131315195Y-89314056D01*
X131428463Y-89483574D01*
X131572626Y-89627737D01*
X131742144Y-89741005D01*
X131930502Y-89819026D01*
X132130461Y-89858800D01*
X132192599Y-89858800D01*
X136146001Y-93812204D01*
X136146000Y-96933889D01*
X136102063Y-96977826D01*
X135988795Y-97147344D01*
X135910774Y-97335702D01*
X135871000Y-97535661D01*
X135871000Y-97739539D01*
X135910774Y-97939498D01*
X135988795Y-98127856D01*
X136102063Y-98297374D01*
X136246226Y-98441537D01*
X136415744Y-98554805D01*
X136604102Y-98632826D01*
X136804061Y-98672600D01*
X137007939Y-98672600D01*
X137207898Y-98632826D01*
X137396256Y-98554805D01*
X137565774Y-98441537D01*
X137709937Y-98297374D01*
X137823205Y-98127856D01*
X137901226Y-97939498D01*
X137941000Y-97739539D01*
X137941000Y-97535661D01*
X137901226Y-97335702D01*
X137823205Y-97147344D01*
X137709937Y-96977826D01*
X137666000Y-96933889D01*
X137666000Y-93534722D01*
X137669676Y-93497399D01*
X137666000Y-93460076D01*
X137666000Y-93460067D01*
X137655003Y-93348414D01*
X137611546Y-93205153D01*
X137540974Y-93073124D01*
X137527811Y-93057085D01*
X137469799Y-92986396D01*
X137469795Y-92986392D01*
X137446001Y-92957399D01*
X137417008Y-92933605D01*
X133267400Y-88783999D01*
X133267400Y-88721861D01*
X133227626Y-88521902D01*
X133149605Y-88333544D01*
X133036337Y-88164026D01*
X132892174Y-88019863D01*
X132722656Y-87906595D01*
X132534298Y-87828574D01*
X132334339Y-87788800D01*
X132130461Y-87788800D01*
X131930502Y-87828574D01*
X131742144Y-87906595D01*
X131572626Y-88019863D01*
X131428463Y-88164026D01*
X131315195Y-88333544D01*
X131237174Y-88521902D01*
X131197400Y-88721861D01*
X130526600Y-88721861D01*
X130526600Y-88377578D01*
X137201844Y-81702335D01*
X137258698Y-81691026D01*
X137447056Y-81613005D01*
X137616574Y-81499737D01*
X137760737Y-81355574D01*
X137874005Y-81186056D01*
X137952026Y-80997698D01*
X137991800Y-80797739D01*
X137991800Y-80593861D01*
X137952026Y-80393902D01*
X137874005Y-80205544D01*
X137760737Y-80036026D01*
X137616574Y-79891863D01*
X137447056Y-79778595D01*
X137258698Y-79700574D01*
X137058739Y-79660800D01*
X136854861Y-79660800D01*
X136654902Y-79700574D01*
X136466544Y-79778595D01*
X136297026Y-79891863D01*
X136152863Y-80036026D01*
X136039595Y-80205544D01*
X135961574Y-80393902D01*
X135950265Y-80450756D01*
X129046556Y-87354466D01*
X129012783Y-87382183D01*
X128902189Y-87516942D01*
X128820011Y-87670688D01*
X128769405Y-87837511D01*
X128756600Y-87967524D01*
X128756600Y-87967531D01*
X128752319Y-88011000D01*
X128756600Y-88054469D01*
X128756600Y-88920346D01*
X128724395Y-88968544D01*
X128646374Y-89156902D01*
X128606600Y-89356861D01*
X128606600Y-89560739D01*
X128646374Y-89760698D01*
X128724395Y-89949056D01*
X128756600Y-89997254D01*
X128756600Y-90067961D01*
X128756601Y-90067971D01*
X128756600Y-101124731D01*
X128752319Y-101168200D01*
X128756600Y-101211669D01*
X128756600Y-101211676D01*
X128769405Y-101341689D01*
X128820011Y-101508512D01*
X128902189Y-101662258D01*
X129012783Y-101797017D01*
X129046556Y-101824734D01*
X131450721Y-104228900D01*
X129783151Y-105896471D01*
X129749384Y-105924183D01*
X129721671Y-105957951D01*
X129721668Y-105957954D01*
X129638790Y-106058941D01*
X129556612Y-106212687D01*
X129506005Y-106379510D01*
X129488919Y-106553000D01*
X129493201Y-106596479D01*
X129493200Y-119486338D01*
X128134340Y-120845198D01*
X127995780Y-120706638D01*
X127911016Y-120650000D01*
X127995780Y-120593362D01*
X128213362Y-120375780D01*
X128384315Y-120119932D01*
X128502069Y-119835648D01*
X128562100Y-119533853D01*
X128562100Y-119226147D01*
X128502069Y-118924352D01*
X128384315Y-118640068D01*
X128213362Y-118384220D01*
X127995780Y-118166638D01*
X127911016Y-118110000D01*
X127995780Y-118053362D01*
X128213362Y-117835780D01*
X128384315Y-117579932D01*
X128502069Y-117295648D01*
X128562100Y-116993853D01*
X128562100Y-116686147D01*
X128502069Y-116384352D01*
X128384315Y-116100068D01*
X128213362Y-115844220D01*
X127995780Y-115626638D01*
X127911016Y-115570000D01*
X127995780Y-115513362D01*
X128213362Y-115295780D01*
X128384315Y-115039932D01*
X128502069Y-114755648D01*
X128562100Y-114453853D01*
X128562100Y-114146147D01*
X128502069Y-113844352D01*
X128384315Y-113560068D01*
X128213362Y-113304220D01*
X127995780Y-113086638D01*
X127911016Y-113030000D01*
X127995780Y-112973362D01*
X128213362Y-112755780D01*
X128384315Y-112499932D01*
X128502069Y-112215648D01*
X128562100Y-111913853D01*
X128562100Y-111606147D01*
X128502069Y-111304352D01*
X128384315Y-111020068D01*
X128213362Y-110764220D01*
X127995780Y-110546638D01*
X127911016Y-110490000D01*
X127995780Y-110433362D01*
X128213362Y-110215780D01*
X128384315Y-109959932D01*
X128502069Y-109675648D01*
X128562100Y-109373853D01*
X128562100Y-109066147D01*
X128502069Y-108764352D01*
X128384315Y-108480068D01*
X128213362Y-108224220D01*
X127995780Y-108006638D01*
X127911016Y-107950000D01*
X127995780Y-107893362D01*
X128213362Y-107675780D01*
X128384315Y-107419932D01*
X128502069Y-107135648D01*
X128562100Y-106833853D01*
X128562100Y-106526147D01*
X128502069Y-106224352D01*
X128384315Y-105940068D01*
X128213362Y-105684220D01*
X127995780Y-105466638D01*
X127911016Y-105410000D01*
X127995780Y-105353362D01*
X128213362Y-105135780D01*
X128384315Y-104879932D01*
X128502069Y-104595648D01*
X128562100Y-104293853D01*
X128562100Y-103986147D01*
X128502069Y-103684352D01*
X128384315Y-103400068D01*
X128213362Y-103144220D01*
X127995780Y-102926638D01*
X127911016Y-102870000D01*
X127995780Y-102813362D01*
X128213362Y-102595780D01*
X128384315Y-102339932D01*
X128502069Y-102055648D01*
X128562100Y-101753853D01*
X128562100Y-101446147D01*
X128502069Y-101144352D01*
X128384315Y-100860068D01*
X128213362Y-100604220D01*
X127995780Y-100386638D01*
X127911016Y-100330000D01*
X127995780Y-100273362D01*
X128213362Y-100055780D01*
X128384315Y-99799932D01*
X128502069Y-99515648D01*
X128562100Y-99213853D01*
X128562100Y-98906147D01*
X128502069Y-98604352D01*
X128384315Y-98320068D01*
X128213362Y-98064220D01*
X127995780Y-97846638D01*
X127911016Y-97790000D01*
X127995780Y-97733362D01*
X128213362Y-97515780D01*
X128384315Y-97259932D01*
X128502069Y-96975648D01*
X128562100Y-96673853D01*
X128562100Y-96366147D01*
X128502069Y-96064352D01*
X128384315Y-95780068D01*
X128213362Y-95524220D01*
X127995780Y-95306638D01*
X127911016Y-95250000D01*
X127995780Y-95193362D01*
X128213362Y-94975780D01*
X128384315Y-94719932D01*
X128502069Y-94435648D01*
X128562100Y-94133853D01*
X128562100Y-93826147D01*
X128502069Y-93524352D01*
X128384315Y-93240068D01*
X128213362Y-92984220D01*
X127995780Y-92766638D01*
X127911016Y-92710000D01*
X127995780Y-92653362D01*
X128213362Y-92435780D01*
X128384315Y-92179932D01*
X128502069Y-91895648D01*
X128562100Y-91593853D01*
X128562100Y-91286147D01*
X128502069Y-90984352D01*
X128384315Y-90700068D01*
X128213362Y-90444220D01*
X127995780Y-90226638D01*
X127911016Y-90170000D01*
X127995780Y-90113362D01*
X128213362Y-89895780D01*
X128384315Y-89639932D01*
X128502069Y-89355648D01*
X128562100Y-89053853D01*
X128562100Y-88746147D01*
X128502069Y-88444352D01*
X128384315Y-88160068D01*
X128213362Y-87904220D01*
X127995780Y-87686638D01*
X127911016Y-87630000D01*
X127995780Y-87573362D01*
X128213362Y-87355780D01*
X128384315Y-87099932D01*
X128502069Y-86815648D01*
X128562100Y-86513853D01*
X128562100Y-86206147D01*
X128502069Y-85904352D01*
X128384315Y-85620068D01*
X128213362Y-85364220D01*
X127995780Y-85146638D01*
X127911016Y-85090000D01*
X127995780Y-85033362D01*
X128213362Y-84815780D01*
X128384315Y-84559932D01*
X128502069Y-84275648D01*
X128562100Y-83973853D01*
X128562100Y-83666147D01*
X128502069Y-83364352D01*
X128384315Y-83080068D01*
X128213362Y-82824220D01*
X127995780Y-82606638D01*
X127911016Y-82550000D01*
X127995780Y-82493362D01*
X128213362Y-82275780D01*
X128384315Y-82019932D01*
X128502069Y-81735648D01*
X128562100Y-81433853D01*
X128562100Y-81126147D01*
X128502069Y-80824352D01*
X128384315Y-80540068D01*
X128213362Y-80284220D01*
X127995780Y-80066638D01*
X127911016Y-80010000D01*
X127995780Y-79953362D01*
X128213362Y-79735780D01*
X128384315Y-79479932D01*
X128502069Y-79195648D01*
X128562100Y-78893853D01*
X128562100Y-78586147D01*
X128502069Y-78284352D01*
X128384315Y-78000068D01*
X128213362Y-77744220D01*
X127995780Y-77526638D01*
X127911016Y-77470000D01*
X127995780Y-77413362D01*
X128213362Y-77195780D01*
X128384315Y-76939932D01*
X128502069Y-76655648D01*
X128562100Y-76353853D01*
X128562100Y-76046147D01*
X140677900Y-76046147D01*
X140677900Y-76353853D01*
X140737931Y-76655648D01*
X140855685Y-76939932D01*
X141026638Y-77195780D01*
X141244220Y-77413362D01*
X141328984Y-77470000D01*
X141244220Y-77526638D01*
X141026638Y-77744220D01*
X140855685Y-78000068D01*
X140737931Y-78284352D01*
X140677900Y-78586147D01*
X140677900Y-78893853D01*
X140737931Y-79195648D01*
X140855685Y-79479932D01*
X141026638Y-79735780D01*
X141244220Y-79953362D01*
X141328984Y-80010000D01*
X141244220Y-80066638D01*
X141026638Y-80284220D01*
X140855685Y-80540068D01*
X140737931Y-80824352D01*
X140677900Y-81126147D01*
X140677900Y-81433853D01*
X140737931Y-81735648D01*
X140855685Y-82019932D01*
X141026638Y-82275780D01*
X141244220Y-82493362D01*
X141328984Y-82550000D01*
X141244220Y-82606638D01*
X141026638Y-82824220D01*
X140855685Y-83080068D01*
X140737931Y-83364352D01*
X140677900Y-83666147D01*
X140677900Y-83973853D01*
X140737931Y-84275648D01*
X140855685Y-84559932D01*
X141026638Y-84815780D01*
X141244220Y-85033362D01*
X141328984Y-85090000D01*
X141244220Y-85146638D01*
X141026638Y-85364220D01*
X140855685Y-85620068D01*
X140737931Y-85904352D01*
X140677900Y-86206147D01*
X140677900Y-86513853D01*
X140737931Y-86815648D01*
X140855685Y-87099932D01*
X141026638Y-87355780D01*
X141244220Y-87573362D01*
X141328984Y-87630000D01*
X141244220Y-87686638D01*
X141026638Y-87904220D01*
X140855685Y-88160068D01*
X140737931Y-88444352D01*
X140677900Y-88746147D01*
X140677900Y-89053853D01*
X140737931Y-89355648D01*
X140855685Y-89639932D01*
X141026638Y-89895780D01*
X141244220Y-90113362D01*
X141328984Y-90170000D01*
X141244220Y-90226638D01*
X141026638Y-90444220D01*
X140855685Y-90700068D01*
X140737931Y-90984352D01*
X140677900Y-91286147D01*
X140677900Y-91593853D01*
X140737931Y-91895648D01*
X140855685Y-92179932D01*
X141026638Y-92435780D01*
X141244220Y-92653362D01*
X141328984Y-92710000D01*
X141244220Y-92766638D01*
X141026638Y-92984220D01*
X140855685Y-93240068D01*
X140737931Y-93524352D01*
X140677900Y-93826147D01*
X140677900Y-94133853D01*
X140737931Y-94435648D01*
X140855685Y-94719932D01*
X141026638Y-94975780D01*
X141244220Y-95193362D01*
X141328984Y-95250000D01*
X141244220Y-95306638D01*
X141026638Y-95524220D01*
X140855685Y-95780068D01*
X140737931Y-96064352D01*
X140677900Y-96366147D01*
X140677900Y-96673853D01*
X140737931Y-96975648D01*
X140855685Y-97259932D01*
X141026638Y-97515780D01*
X141244220Y-97733362D01*
X141328984Y-97790000D01*
X141244220Y-97846638D01*
X141026638Y-98064220D01*
X140855685Y-98320068D01*
X140737931Y-98604352D01*
X140677900Y-98906147D01*
X140677900Y-99213853D01*
X140737931Y-99515648D01*
X140855685Y-99799932D01*
X141026638Y-100055780D01*
X141244220Y-100273362D01*
X141328984Y-100330000D01*
X141244220Y-100386638D01*
X141026638Y-100604220D01*
X140855685Y-100860068D01*
X140737931Y-101144352D01*
X140677900Y-101446147D01*
X140677900Y-101753853D01*
X140737931Y-102055648D01*
X140855685Y-102339932D01*
X141026638Y-102595780D01*
X141244220Y-102813362D01*
X141386360Y-102908338D01*
X141336190Y-103056584D01*
X142240000Y-103960395D01*
X143143810Y-103056584D01*
X143093640Y-102908338D01*
X143235780Y-102813362D01*
X143453362Y-102595780D01*
X143624315Y-102339932D01*
X143742069Y-102055648D01*
X143802100Y-101753853D01*
X143802100Y-101446147D01*
X143742069Y-101144352D01*
X143624315Y-100860068D01*
X143453362Y-100604220D01*
X143235780Y-100386638D01*
X143151016Y-100330000D01*
X143235780Y-100273362D01*
X143453362Y-100055780D01*
X143624315Y-99799932D01*
X143742069Y-99515648D01*
X143802100Y-99213853D01*
X143802100Y-98906147D01*
X143742069Y-98604352D01*
X143624315Y-98320068D01*
X143453362Y-98064220D01*
X143235780Y-97846638D01*
X143151016Y-97790000D01*
X143235780Y-97733362D01*
X143453362Y-97515780D01*
X143624315Y-97259932D01*
X143742069Y-96975648D01*
X143802100Y-96673853D01*
X143802100Y-96366147D01*
X143742069Y-96064352D01*
X143624315Y-95780068D01*
X143453362Y-95524220D01*
X143235780Y-95306638D01*
X143151016Y-95250000D01*
X143235780Y-95193362D01*
X143453362Y-94975780D01*
X143624315Y-94719932D01*
X143742069Y-94435648D01*
X143802100Y-94133853D01*
X143802100Y-93826147D01*
X143742069Y-93524352D01*
X143624315Y-93240068D01*
X143453362Y-92984220D01*
X143235780Y-92766638D01*
X143151016Y-92710000D01*
X143235780Y-92653362D01*
X143453362Y-92435780D01*
X143624315Y-92179932D01*
X143742069Y-91895648D01*
X143802100Y-91593853D01*
X143802100Y-91286147D01*
X143742069Y-90984352D01*
X143624315Y-90700068D01*
X143453362Y-90444220D01*
X143235780Y-90226638D01*
X143151016Y-90170000D01*
X143235780Y-90113362D01*
X143453362Y-89895780D01*
X143624315Y-89639932D01*
X143742069Y-89355648D01*
X143802100Y-89053853D01*
X143802100Y-88746147D01*
X143742069Y-88444352D01*
X143624315Y-88160068D01*
X143453362Y-87904220D01*
X143235780Y-87686638D01*
X143151016Y-87630000D01*
X143235780Y-87573362D01*
X143453362Y-87355780D01*
X143624315Y-87099932D01*
X143742069Y-86815648D01*
X143802100Y-86513853D01*
X143802100Y-86206147D01*
X143742069Y-85904352D01*
X143624315Y-85620068D01*
X143453362Y-85364220D01*
X143235780Y-85146638D01*
X143151016Y-85090000D01*
X143235780Y-85033362D01*
X143453362Y-84815780D01*
X143624315Y-84559932D01*
X143742069Y-84275648D01*
X143802100Y-83973853D01*
X143802100Y-83666147D01*
X143742069Y-83364352D01*
X143624315Y-83080068D01*
X143453362Y-82824220D01*
X143235780Y-82606638D01*
X143151016Y-82550000D01*
X143235780Y-82493362D01*
X143453362Y-82275780D01*
X143624315Y-82019932D01*
X143742069Y-81735648D01*
X143802100Y-81433853D01*
X143802100Y-81126147D01*
X143742069Y-80824352D01*
X143624315Y-80540068D01*
X143453362Y-80284220D01*
X143235780Y-80066638D01*
X143151016Y-80010000D01*
X143235780Y-79953362D01*
X143453362Y-79735780D01*
X143624315Y-79479932D01*
X143742069Y-79195648D01*
X143802100Y-78893853D01*
X143802100Y-78586147D01*
X143742069Y-78284352D01*
X143624315Y-78000068D01*
X143453362Y-77744220D01*
X143235780Y-77526638D01*
X143151016Y-77470000D01*
X143235780Y-77413362D01*
X143453362Y-77195780D01*
X143624315Y-76939932D01*
X143742069Y-76655648D01*
X143802100Y-76353853D01*
X143802100Y-76046147D01*
X143742069Y-75744352D01*
X143624315Y-75460068D01*
X143453362Y-75204220D01*
X143235780Y-74986638D01*
X142979932Y-74815685D01*
X142695648Y-74697931D01*
X142393853Y-74637900D01*
X142086147Y-74637900D01*
X141784352Y-74697931D01*
X141500068Y-74815685D01*
X141244220Y-74986638D01*
X141026638Y-75204220D01*
X140855685Y-75460068D01*
X140737931Y-75744352D01*
X140677900Y-76046147D01*
X128562100Y-76046147D01*
X128502069Y-75744352D01*
X128384315Y-75460068D01*
X128213362Y-75204220D01*
X127995780Y-74986638D01*
X127739932Y-74815685D01*
X127722442Y-74808440D01*
X127816911Y-74730911D01*
X127902512Y-74626607D01*
X127966119Y-74507606D01*
X128005288Y-74378483D01*
X128015200Y-74277847D01*
X128018514Y-74244200D01*
X128015200Y-74210553D01*
X128015200Y-70188447D01*
X128018514Y-70154800D01*
X128005288Y-70020517D01*
X127966119Y-69891394D01*
X127902512Y-69772393D01*
X127816911Y-69668089D01*
X127712607Y-69582488D01*
X127593606Y-69518881D01*
X127464483Y-69479712D01*
X127363847Y-69469800D01*
X127330200Y-69466486D01*
X127296553Y-69469800D01*
X126013737Y-69469800D01*
X124946136Y-68402200D01*
X144857000Y-68402200D01*
X144857001Y-136373400D01*
M02*
