G04 #@! TF.GenerationSoftware,KiCad,Pcbnew,(5.1.4)-1*
G04 #@! TF.CreationDate,2021-01-17T22:07:20+00:00*
G04 #@! TF.ProjectId,Amiga_External,416d6967-615f-4457-9874-65726e616c2e,rev?*
G04 #@! TF.SameCoordinates,Original*
G04 #@! TF.FileFunction,Legend,Top*
G04 #@! TF.FilePolarity,Positive*
%FSLAX46Y46*%
G04 Gerber Fmt 4.6, Leading zero omitted, Abs format (unit mm)*
G04 Created by KiCad (PCBNEW (5.1.4)-1) date 2021-01-17 22:07:20*
%MOMM*%
%LPD*%
G04 APERTURE LIST*
%ADD10C,0.150000*%
%ADD11C,0.100000*%
%ADD12C,0.120000*%
G04 APERTURE END LIST*
D10*
X126066514Y-69337180D02*
X125495085Y-69337180D01*
X125780800Y-69337180D02*
X125780800Y-68337180D01*
X125685561Y-68480038D01*
X125590323Y-68575276D01*
X125495085Y-68622895D01*
D11*
X143510000Y-125730000D02*
X143510000Y-74930000D01*
X140970000Y-74930000D02*
X140970000Y-125730000D01*
X143510000Y-74930000D02*
X140970000Y-74930000D01*
X128270000Y-125730000D02*
X128270000Y-74930000D01*
X125730000Y-74930000D02*
X125730000Y-125730000D01*
X128270000Y-74930000D02*
X125730000Y-74930000D01*
X140970000Y-74930000D02*
X140970000Y-78105000D01*
X128270000Y-74930000D02*
X140970000Y-74930000D01*
X128270000Y-78105000D02*
X128270000Y-74930000D01*
X140970000Y-78105000D02*
X128270000Y-78105000D01*
X140970000Y-74930000D02*
X140970000Y-78105000D01*
X128270000Y-135890000D02*
X140970000Y-135890000D01*
X128270000Y-122555000D02*
X128270000Y-125730000D01*
X140950000Y-132770000D02*
X128250000Y-132770000D01*
X140970000Y-125730000D02*
X140970000Y-122555000D01*
X140970000Y-90805000D02*
X140970000Y-93980000D01*
X128270000Y-88620000D02*
X140970000Y-88620000D01*
X128270000Y-93980000D02*
X128270000Y-90805000D01*
X140960000Y-91430000D02*
X128260000Y-91430000D01*
X140970000Y-109855000D02*
X140970000Y-106680000D01*
X128270000Y-105400000D02*
X140970000Y-105400000D01*
X128270000Y-106680000D02*
X128270000Y-109855000D01*
X140970000Y-102350000D02*
X128270000Y-102350000D01*
D10*
X135620000Y-75060000D02*
G75*
G02X133620000Y-75060000I-1000000J0D01*
G01*
D11*
X125730000Y-135890000D02*
X128270000Y-135890000D01*
X140970000Y-135890000D02*
X143510000Y-135890000D01*
D10*
X143510000Y-125730000D02*
X143510000Y-135890000D01*
X140970000Y-125730000D02*
X140970000Y-135890000D01*
X125730000Y-125730000D02*
X125730000Y-135890000D01*
X128270000Y-125730000D02*
X128270000Y-135890000D01*
X128270000Y-135890000D02*
X125730000Y-135890000D01*
X135560000Y-105770000D02*
G75*
G02X133560000Y-105770000I-1000000J0D01*
G01*
D12*
X140960000Y-105550000D02*
X128260000Y-105550000D01*
X140920000Y-108610000D02*
X128250000Y-108610000D01*
X140910000Y-119060000D02*
X128350000Y-119060000D01*
X140970000Y-122080000D02*
X128230000Y-122080000D01*
X131671600Y-97021467D02*
X131671600Y-96678933D01*
X132691600Y-97021467D02*
X132691600Y-96678933D01*
D10*
X136038000Y-85435400D02*
X136038000Y-80985400D01*
X129138000Y-86960400D02*
X129138000Y-80985400D01*
X133227400Y-100651000D02*
X133227400Y-94676000D01*
X140127400Y-99126000D02*
X140127400Y-94676000D01*
D12*
X124476200Y-62822000D02*
X144916200Y-62822000D01*
X144916200Y-62822000D02*
X144916200Y-60162000D01*
X144916200Y-60162000D02*
X124476200Y-60162000D01*
X124476200Y-60162000D02*
X124476200Y-62822000D01*
X125426200Y-60162000D02*
X125426200Y-54162000D01*
X125426200Y-54162000D02*
X126186200Y-54162000D01*
X126186200Y-54162000D02*
X126186200Y-60162000D01*
X125486200Y-60162000D02*
X125486200Y-54162000D01*
X125606200Y-60162000D02*
X125606200Y-54162000D01*
X125726200Y-60162000D02*
X125726200Y-54162000D01*
X125846200Y-60162000D02*
X125846200Y-54162000D01*
X125966200Y-60162000D02*
X125966200Y-54162000D01*
X126086200Y-60162000D02*
X126086200Y-54162000D01*
X125426200Y-63219071D02*
X125426200Y-62822000D01*
X126186200Y-63219071D02*
X126186200Y-62822000D01*
X125426200Y-65692000D02*
X125426200Y-65304929D01*
X126186200Y-65692000D02*
X126186200Y-65304929D01*
X127076200Y-62822000D02*
X127076200Y-60162000D01*
X127966200Y-60162000D02*
X127966200Y-54162000D01*
X127966200Y-54162000D02*
X128726200Y-54162000D01*
X128726200Y-54162000D02*
X128726200Y-60162000D01*
X127966200Y-63219071D02*
X127966200Y-62822000D01*
X128726200Y-63219071D02*
X128726200Y-62822000D01*
X127966200Y-65759071D02*
X127966200Y-65304929D01*
X128726200Y-65759071D02*
X128726200Y-65304929D01*
X129616200Y-62822000D02*
X129616200Y-60162000D01*
X130506200Y-60162000D02*
X130506200Y-54162000D01*
X130506200Y-54162000D02*
X131266200Y-54162000D01*
X131266200Y-54162000D02*
X131266200Y-60162000D01*
X130506200Y-63219071D02*
X130506200Y-62822000D01*
X131266200Y-63219071D02*
X131266200Y-62822000D01*
X130506200Y-65759071D02*
X130506200Y-65304929D01*
X131266200Y-65759071D02*
X131266200Y-65304929D01*
X132156200Y-62822000D02*
X132156200Y-60162000D01*
X133046200Y-60162000D02*
X133046200Y-54162000D01*
X133046200Y-54162000D02*
X133806200Y-54162000D01*
X133806200Y-54162000D02*
X133806200Y-60162000D01*
X133046200Y-63219071D02*
X133046200Y-62822000D01*
X133806200Y-63219071D02*
X133806200Y-62822000D01*
X133046200Y-65759071D02*
X133046200Y-65304929D01*
X133806200Y-65759071D02*
X133806200Y-65304929D01*
X134696200Y-62822000D02*
X134696200Y-60162000D01*
X135586200Y-60162000D02*
X135586200Y-54162000D01*
X135586200Y-54162000D02*
X136346200Y-54162000D01*
X136346200Y-54162000D02*
X136346200Y-60162000D01*
X135586200Y-63219071D02*
X135586200Y-62822000D01*
X136346200Y-63219071D02*
X136346200Y-62822000D01*
X135586200Y-65759071D02*
X135586200Y-65304929D01*
X136346200Y-65759071D02*
X136346200Y-65304929D01*
X137236200Y-62822000D02*
X137236200Y-60162000D01*
X138126200Y-60162000D02*
X138126200Y-54162000D01*
X138126200Y-54162000D02*
X138886200Y-54162000D01*
X138886200Y-54162000D02*
X138886200Y-60162000D01*
X138126200Y-63219071D02*
X138126200Y-62822000D01*
X138886200Y-63219071D02*
X138886200Y-62822000D01*
X138126200Y-65759071D02*
X138126200Y-65304929D01*
X138886200Y-65759071D02*
X138886200Y-65304929D01*
X139776200Y-62822000D02*
X139776200Y-60162000D01*
X140666200Y-60162000D02*
X140666200Y-54162000D01*
X140666200Y-54162000D02*
X141426200Y-54162000D01*
X141426200Y-54162000D02*
X141426200Y-60162000D01*
X140666200Y-63219071D02*
X140666200Y-62822000D01*
X141426200Y-63219071D02*
X141426200Y-62822000D01*
X140666200Y-65759071D02*
X140666200Y-65304929D01*
X141426200Y-65759071D02*
X141426200Y-65304929D01*
X142316200Y-62822000D02*
X142316200Y-60162000D01*
X143206200Y-60162000D02*
X143206200Y-54162000D01*
X143206200Y-54162000D02*
X143966200Y-54162000D01*
X143966200Y-54162000D02*
X143966200Y-60162000D01*
X143206200Y-63219071D02*
X143206200Y-62822000D01*
X143966200Y-63219071D02*
X143966200Y-62822000D01*
X143206200Y-65759071D02*
X143206200Y-65304929D01*
X143966200Y-65759071D02*
X143966200Y-65304929D01*
X125806200Y-68072000D02*
X124536200Y-68072000D01*
X124536200Y-68072000D02*
X124536200Y-66802000D01*
X137593800Y-82734333D02*
X137593800Y-83076867D01*
X136573800Y-82734333D02*
X136573800Y-83076867D01*
D10*
X129286095Y-75271380D02*
X129286095Y-76080904D01*
X129333714Y-76176142D01*
X129381333Y-76223761D01*
X129476571Y-76271380D01*
X129667047Y-76271380D01*
X129762285Y-76223761D01*
X129809904Y-76176142D01*
X129857523Y-76080904D01*
X129857523Y-75271380D01*
X130857523Y-76271380D02*
X130286095Y-76271380D01*
X130571809Y-76271380D02*
X130571809Y-75271380D01*
X130476571Y-75414238D01*
X130381333Y-75509476D01*
X130286095Y-75557095D01*
X131065542Y-96940666D02*
X131113161Y-96988285D01*
X131160780Y-97131142D01*
X131160780Y-97226380D01*
X131113161Y-97369238D01*
X131017923Y-97464476D01*
X130922685Y-97512095D01*
X130732209Y-97559714D01*
X130589352Y-97559714D01*
X130398876Y-97512095D01*
X130303638Y-97464476D01*
X130208400Y-97369238D01*
X130160780Y-97226380D01*
X130160780Y-97131142D01*
X130208400Y-96988285D01*
X130256019Y-96940666D01*
X130256019Y-96559714D02*
X130208400Y-96512095D01*
X130160780Y-96416857D01*
X130160780Y-96178761D01*
X130208400Y-96083523D01*
X130256019Y-96035904D01*
X130351257Y-95988285D01*
X130446495Y-95988285D01*
X130589352Y-96035904D01*
X131160780Y-96607333D01*
X131160780Y-95988285D01*
X129159095Y-87310980D02*
X129159095Y-88120504D01*
X129206714Y-88215742D01*
X129254333Y-88263361D01*
X129349571Y-88310980D01*
X129540047Y-88310980D01*
X129635285Y-88263361D01*
X129682904Y-88215742D01*
X129730523Y-88120504D01*
X129730523Y-87310980D01*
X130159095Y-87406219D02*
X130206714Y-87358600D01*
X130301952Y-87310980D01*
X130540047Y-87310980D01*
X130635285Y-87358600D01*
X130682904Y-87406219D01*
X130730523Y-87501457D01*
X130730523Y-87596695D01*
X130682904Y-87739552D01*
X130111476Y-88310980D01*
X130730523Y-88310980D01*
X131811780Y-100710904D02*
X132621304Y-100710904D01*
X132716542Y-100663285D01*
X132764161Y-100615666D01*
X132811780Y-100520428D01*
X132811780Y-100329952D01*
X132764161Y-100234714D01*
X132716542Y-100187095D01*
X132621304Y-100139476D01*
X131811780Y-100139476D01*
X131811780Y-99758523D02*
X131811780Y-99139476D01*
X132192733Y-99472809D01*
X132192733Y-99329952D01*
X132240352Y-99234714D01*
X132287971Y-99187095D01*
X132383209Y-99139476D01*
X132621304Y-99139476D01*
X132716542Y-99187095D01*
X132764161Y-99234714D01*
X132811780Y-99329952D01*
X132811780Y-99615666D01*
X132764161Y-99710904D01*
X132716542Y-99758523D01*
X134312066Y-67981580D02*
X134312066Y-68695866D01*
X134264447Y-68838723D01*
X134169209Y-68933961D01*
X134026352Y-68981580D01*
X133931114Y-68981580D01*
X135312066Y-68981580D02*
X134740638Y-68981580D01*
X135026352Y-68981580D02*
X135026352Y-67981580D01*
X134931114Y-68124438D01*
X134835876Y-68219676D01*
X134740638Y-68267295D01*
X138870942Y-83072266D02*
X138918561Y-83119885D01*
X138966180Y-83262742D01*
X138966180Y-83357980D01*
X138918561Y-83500838D01*
X138823323Y-83596076D01*
X138728085Y-83643695D01*
X138537609Y-83691314D01*
X138394752Y-83691314D01*
X138204276Y-83643695D01*
X138109038Y-83596076D01*
X138013800Y-83500838D01*
X137966180Y-83357980D01*
X137966180Y-83262742D01*
X138013800Y-83119885D01*
X138061419Y-83072266D01*
X138966180Y-82119885D02*
X138966180Y-82691314D01*
X138966180Y-82405600D02*
X137966180Y-82405600D01*
X138109038Y-82500838D01*
X138204276Y-82596076D01*
X138251895Y-82691314D01*
M02*
