G04 #@! TF.GenerationSoftware,KiCad,Pcbnew,(5.1.4)-1*
G04 #@! TF.CreationDate,2021-01-17T22:07:20+00:00*
G04 #@! TF.ProjectId,Amiga_External,416d6967-615f-4457-9874-65726e616c2e,rev?*
G04 #@! TF.SameCoordinates,Original*
G04 #@! TF.FileFunction,Legend,Bot*
G04 #@! TF.FilePolarity,Positive*
%FSLAX46Y46*%
G04 Gerber Fmt 4.6, Leading zero omitted, Abs format (unit mm)*
G04 Created by KiCad (PCBNEW (5.1.4)-1) date 2021-01-17 22:07:20*
%MOMM*%
%LPD*%
G04 APERTURE LIST*
%ADD10C,0.140000*%
%ADD11C,0.300000*%
G04 APERTURE END LIST*
D10*
X136143828Y-135518457D02*
X136543828Y-134947028D01*
X136829542Y-135518457D02*
X136829542Y-134318457D01*
X136372400Y-134318457D01*
X136258114Y-134375600D01*
X136200971Y-134432742D01*
X136143828Y-134547028D01*
X136143828Y-134718457D01*
X136200971Y-134832742D01*
X136258114Y-134889885D01*
X136372400Y-134947028D01*
X136829542Y-134947028D01*
X135458114Y-135518457D02*
X135572400Y-135461314D01*
X135629542Y-135404171D01*
X135686685Y-135289885D01*
X135686685Y-134947028D01*
X135629542Y-134832742D01*
X135572400Y-134775600D01*
X135458114Y-134718457D01*
X135286685Y-134718457D01*
X135172400Y-134775600D01*
X135115257Y-134832742D01*
X135058114Y-134947028D01*
X135058114Y-135289885D01*
X135115257Y-135404171D01*
X135172400Y-135461314D01*
X135286685Y-135518457D01*
X135458114Y-135518457D01*
X134543828Y-135518457D02*
X134543828Y-134318457D01*
X134543828Y-134889885D02*
X133858114Y-134889885D01*
X133858114Y-135518457D02*
X133858114Y-134318457D01*
X133343828Y-135461314D02*
X133172400Y-135518457D01*
X132886685Y-135518457D01*
X132772400Y-135461314D01*
X132715257Y-135404171D01*
X132658114Y-135289885D01*
X132658114Y-135175600D01*
X132715257Y-135061314D01*
X132772400Y-135004171D01*
X132886685Y-134947028D01*
X133115257Y-134889885D01*
X133229542Y-134832742D01*
X133286685Y-134775600D01*
X133343828Y-134661314D01*
X133343828Y-134547028D01*
X133286685Y-134432742D01*
X133229542Y-134375600D01*
X133115257Y-134318457D01*
X132829542Y-134318457D01*
X132658114Y-134375600D01*
D11*
X133747400Y-85590257D02*
X133747400Y-86304542D01*
X134175971Y-85447400D02*
X132675971Y-85947400D01*
X134175971Y-86447400D01*
X134175971Y-86947400D02*
X133175971Y-86947400D01*
X133318828Y-86947400D02*
X133247400Y-87018828D01*
X133175971Y-87161685D01*
X133175971Y-87375971D01*
X133247400Y-87518828D01*
X133390257Y-87590257D01*
X134175971Y-87590257D01*
X133390257Y-87590257D02*
X133247400Y-87661685D01*
X133175971Y-87804542D01*
X133175971Y-88018828D01*
X133247400Y-88161685D01*
X133390257Y-88233114D01*
X134175971Y-88233114D01*
X134175971Y-88947400D02*
X133175971Y-88947400D01*
X132675971Y-88947400D02*
X132747400Y-88875971D01*
X132818828Y-88947400D01*
X132747400Y-89018828D01*
X132675971Y-88947400D01*
X132818828Y-88947400D01*
X133175971Y-90304542D02*
X134390257Y-90304542D01*
X134533114Y-90233114D01*
X134604542Y-90161685D01*
X134675971Y-90018828D01*
X134675971Y-89804542D01*
X134604542Y-89661685D01*
X134104542Y-90304542D02*
X134175971Y-90161685D01*
X134175971Y-89875971D01*
X134104542Y-89733114D01*
X134033114Y-89661685D01*
X133890257Y-89590257D01*
X133461685Y-89590257D01*
X133318828Y-89661685D01*
X133247400Y-89733114D01*
X133175971Y-89875971D01*
X133175971Y-90161685D01*
X133247400Y-90304542D01*
X134175971Y-91661685D02*
X133390257Y-91661685D01*
X133247400Y-91590257D01*
X133175971Y-91447400D01*
X133175971Y-91161685D01*
X133247400Y-91018828D01*
X134104542Y-91661685D02*
X134175971Y-91518828D01*
X134175971Y-91161685D01*
X134104542Y-91018828D01*
X133961685Y-90947400D01*
X133818828Y-90947400D01*
X133675971Y-91018828D01*
X133604542Y-91161685D01*
X133604542Y-91518828D01*
X133533114Y-91661685D01*
X133747400Y-93447400D02*
X133747400Y-94161685D01*
X134175971Y-93304542D02*
X132675971Y-93804542D01*
X134175971Y-94304542D01*
X134175971Y-95447400D02*
X132675971Y-95447400D01*
X134104542Y-95447400D02*
X134175971Y-95304542D01*
X134175971Y-95018828D01*
X134104542Y-94875971D01*
X134033114Y-94804542D01*
X133890257Y-94733114D01*
X133461685Y-94733114D01*
X133318828Y-94804542D01*
X133247400Y-94875971D01*
X133175971Y-95018828D01*
X133175971Y-95304542D01*
X133247400Y-95447400D01*
X134175971Y-96804542D02*
X133390257Y-96804542D01*
X133247400Y-96733114D01*
X133175971Y-96590257D01*
X133175971Y-96304542D01*
X133247400Y-96161685D01*
X134104542Y-96804542D02*
X134175971Y-96661685D01*
X134175971Y-96304542D01*
X134104542Y-96161685D01*
X133961685Y-96090257D01*
X133818828Y-96090257D01*
X133675971Y-96161685D01*
X133604542Y-96304542D01*
X133604542Y-96661685D01*
X133533114Y-96804542D01*
X133175971Y-97518828D02*
X134675971Y-97518828D01*
X133247400Y-97518828D02*
X133175971Y-97661685D01*
X133175971Y-97947400D01*
X133247400Y-98090257D01*
X133318828Y-98161685D01*
X133461685Y-98233114D01*
X133890257Y-98233114D01*
X134033114Y-98161685D01*
X134104542Y-98090257D01*
X134175971Y-97947400D01*
X134175971Y-97661685D01*
X134104542Y-97518828D01*
X133175971Y-98661685D02*
X133175971Y-99233114D01*
X132675971Y-98875971D02*
X133961685Y-98875971D01*
X134104542Y-98947400D01*
X134175971Y-99090257D01*
X134175971Y-99233114D01*
X134104542Y-100304542D02*
X134175971Y-100161685D01*
X134175971Y-99875971D01*
X134104542Y-99733114D01*
X133961685Y-99661685D01*
X133390257Y-99661685D01*
X133247400Y-99733114D01*
X133175971Y-99875971D01*
X133175971Y-100161685D01*
X133247400Y-100304542D01*
X133390257Y-100375971D01*
X133533114Y-100375971D01*
X133675971Y-99661685D01*
X134175971Y-101018828D02*
X133175971Y-101018828D01*
X133461685Y-101018828D02*
X133318828Y-101090257D01*
X133247400Y-101161685D01*
X133175971Y-101304542D01*
X133175971Y-101447400D01*
X133175971Y-102875971D02*
X133175971Y-103447400D01*
X134175971Y-103090257D02*
X132890257Y-103090257D01*
X132747400Y-103161685D01*
X132675971Y-103304542D01*
X132675971Y-103447400D01*
X134175971Y-104161685D02*
X134104542Y-104018828D01*
X134033114Y-103947400D01*
X133890257Y-103875971D01*
X133461685Y-103875971D01*
X133318828Y-103947400D01*
X133247400Y-104018828D01*
X133175971Y-104161685D01*
X133175971Y-104375971D01*
X133247400Y-104518828D01*
X133318828Y-104590257D01*
X133461685Y-104661685D01*
X133890257Y-104661685D01*
X134033114Y-104590257D01*
X134104542Y-104518828D01*
X134175971Y-104375971D01*
X134175971Y-104161685D01*
X134175971Y-105304542D02*
X133175971Y-105304542D01*
X133461685Y-105304542D02*
X133318828Y-105375971D01*
X133247400Y-105447400D01*
X133175971Y-105590257D01*
X133175971Y-105733114D01*
X133390257Y-107375971D02*
X133390257Y-107875971D01*
X134175971Y-108090257D02*
X134175971Y-107375971D01*
X132675971Y-107375971D01*
X132675971Y-108090257D01*
X134175971Y-108590257D02*
X133175971Y-109375971D01*
X133175971Y-108590257D02*
X134175971Y-109375971D01*
X133175971Y-109733114D02*
X133175971Y-110304542D01*
X132675971Y-109947400D02*
X133961685Y-109947400D01*
X134104542Y-110018828D01*
X134175971Y-110161685D01*
X134175971Y-110304542D01*
X134104542Y-111375971D02*
X134175971Y-111233114D01*
X134175971Y-110947400D01*
X134104542Y-110804542D01*
X133961685Y-110733114D01*
X133390257Y-110733114D01*
X133247400Y-110804542D01*
X133175971Y-110947400D01*
X133175971Y-111233114D01*
X133247400Y-111375971D01*
X133390257Y-111447400D01*
X133533114Y-111447400D01*
X133675971Y-110733114D01*
X134175971Y-112090257D02*
X133175971Y-112090257D01*
X133461685Y-112090257D02*
X133318828Y-112161685D01*
X133247400Y-112233114D01*
X133175971Y-112375971D01*
X133175971Y-112518828D01*
X133175971Y-113018828D02*
X134175971Y-113018828D01*
X133318828Y-113018828D02*
X133247400Y-113090257D01*
X133175971Y-113233114D01*
X133175971Y-113447400D01*
X133247400Y-113590257D01*
X133390257Y-113661685D01*
X134175971Y-113661685D01*
X134175971Y-115018828D02*
X133390257Y-115018828D01*
X133247400Y-114947400D01*
X133175971Y-114804542D01*
X133175971Y-114518828D01*
X133247400Y-114375971D01*
X134104542Y-115018828D02*
X134175971Y-114875971D01*
X134175971Y-114518828D01*
X134104542Y-114375971D01*
X133961685Y-114304542D01*
X133818828Y-114304542D01*
X133675971Y-114375971D01*
X133604542Y-114518828D01*
X133604542Y-114875971D01*
X133533114Y-115018828D01*
X134175971Y-115947400D02*
X134104542Y-115804542D01*
X133961685Y-115733114D01*
X132675971Y-115733114D01*
X134175971Y-118518828D02*
X133461685Y-118018828D01*
X134175971Y-117661685D02*
X132675971Y-117661685D01*
X132675971Y-118233114D01*
X132747400Y-118375971D01*
X132818828Y-118447400D01*
X132961685Y-118518828D01*
X133175971Y-118518828D01*
X133318828Y-118447400D01*
X133390257Y-118375971D01*
X133461685Y-118233114D01*
X133461685Y-117661685D01*
X132747400Y-119947400D02*
X132675971Y-119804542D01*
X132675971Y-119590257D01*
X132747400Y-119375971D01*
X132890257Y-119233114D01*
X133033114Y-119161685D01*
X133318828Y-119090257D01*
X133533114Y-119090257D01*
X133818828Y-119161685D01*
X133961685Y-119233114D01*
X134104542Y-119375971D01*
X134175971Y-119590257D01*
X134175971Y-119733114D01*
X134104542Y-119947400D01*
X134033114Y-120018828D01*
X133533114Y-120018828D01*
X133533114Y-119733114D01*
X133390257Y-121161685D02*
X133461685Y-121375971D01*
X133533114Y-121447400D01*
X133675971Y-121518828D01*
X133890257Y-121518828D01*
X134033114Y-121447400D01*
X134104542Y-121375971D01*
X134175971Y-121233114D01*
X134175971Y-120661685D01*
X132675971Y-120661685D01*
X132675971Y-121161685D01*
X132747400Y-121304542D01*
X132818828Y-121375971D01*
X132961685Y-121447400D01*
X133104542Y-121447400D01*
X133247400Y-121375971D01*
X133318828Y-121304542D01*
X133390257Y-121161685D01*
X133390257Y-120661685D01*
X133175971Y-121947400D02*
X133175971Y-122518828D01*
X132675971Y-122161685D02*
X133961685Y-122161685D01*
X134104542Y-122233114D01*
X134175971Y-122375971D01*
X134175971Y-122518828D01*
X134175971Y-123233114D02*
X134104542Y-123090257D01*
X134033114Y-123018828D01*
X133890257Y-122947400D01*
X133461685Y-122947400D01*
X133318828Y-123018828D01*
X133247400Y-123090257D01*
X133175971Y-123233114D01*
X133175971Y-123447400D01*
X133247400Y-123590257D01*
X133318828Y-123661685D01*
X133461685Y-123733114D01*
X133890257Y-123733114D01*
X134033114Y-123661685D01*
X134104542Y-123590257D01*
X134175971Y-123447400D01*
X134175971Y-123233114D01*
X134175971Y-124375971D02*
X132675971Y-124375971D01*
X133390257Y-124375971D02*
X133390257Y-125233114D01*
X134175971Y-125233114D02*
X132675971Y-125233114D01*
X134175971Y-125947400D02*
X132675971Y-125947400D01*
X132675971Y-126304542D01*
X132747400Y-126518828D01*
X132890257Y-126661685D01*
X133033114Y-126733114D01*
X133318828Y-126804542D01*
X133533114Y-126804542D01*
X133818828Y-126733114D01*
X133961685Y-126661685D01*
X134104542Y-126518828D01*
X134175971Y-126304542D01*
X134175971Y-125947400D01*
X136725971Y-93590257D02*
X135225971Y-93590257D01*
X136654542Y-94233114D02*
X136725971Y-94375971D01*
X136725971Y-94661685D01*
X136654542Y-94804542D01*
X136511685Y-94875971D01*
X136440257Y-94875971D01*
X136297400Y-94804542D01*
X136225971Y-94661685D01*
X136225971Y-94447400D01*
X136154542Y-94304542D01*
X136011685Y-94233114D01*
X135940257Y-94233114D01*
X135797400Y-94304542D01*
X135725971Y-94447400D01*
X135725971Y-94661685D01*
X135797400Y-94804542D01*
X136654542Y-95447400D02*
X136725971Y-95590257D01*
X136725971Y-95875971D01*
X136654542Y-96018828D01*
X136511685Y-96090257D01*
X136440257Y-96090257D01*
X136297400Y-96018828D01*
X136225971Y-95875971D01*
X136225971Y-95661685D01*
X136154542Y-95518828D01*
X136011685Y-95447400D01*
X135940257Y-95447400D01*
X135797400Y-95518828D01*
X135725971Y-95661685D01*
X135725971Y-95875971D01*
X135797400Y-96018828D01*
X135725971Y-97375971D02*
X136725971Y-97375971D01*
X135725971Y-96733114D02*
X136511685Y-96733114D01*
X136654542Y-96804542D01*
X136725971Y-96947400D01*
X136725971Y-97161685D01*
X136654542Y-97304542D01*
X136583114Y-97375971D01*
X136654542Y-98661685D02*
X136725971Y-98518828D01*
X136725971Y-98233114D01*
X136654542Y-98090257D01*
X136511685Y-98018828D01*
X135940257Y-98018828D01*
X135797400Y-98090257D01*
X135725971Y-98233114D01*
X135725971Y-98518828D01*
X135797400Y-98661685D01*
X135940257Y-98733114D01*
X136083114Y-98733114D01*
X136225971Y-98018828D01*
X136725971Y-101304542D02*
X136725971Y-100447400D01*
X136725971Y-100875971D02*
X135225971Y-100875971D01*
X135440257Y-100733114D01*
X135583114Y-100590257D01*
X135654542Y-100447400D01*
X137297400Y-103518828D02*
X137225971Y-103447400D01*
X137011685Y-103304542D01*
X136868828Y-103233114D01*
X136654542Y-103161685D01*
X136297400Y-103090257D01*
X136011685Y-103090257D01*
X135654542Y-103161685D01*
X135440257Y-103233114D01*
X135297400Y-103304542D01*
X135083114Y-103447400D01*
X135011685Y-103518828D01*
X136583114Y-104947400D02*
X136654542Y-104875971D01*
X136725971Y-104661685D01*
X136725971Y-104518828D01*
X136654542Y-104304542D01*
X136511685Y-104161685D01*
X136368828Y-104090257D01*
X136083114Y-104018828D01*
X135868828Y-104018828D01*
X135583114Y-104090257D01*
X135440257Y-104161685D01*
X135297400Y-104304542D01*
X135225971Y-104518828D01*
X135225971Y-104661685D01*
X135297400Y-104875971D01*
X135368828Y-104947400D01*
X137297400Y-105447400D02*
X137225971Y-105518828D01*
X137011685Y-105661685D01*
X136868828Y-105733114D01*
X136654542Y-105804542D01*
X136297400Y-105875971D01*
X136011685Y-105875971D01*
X135654542Y-105804542D01*
X135440257Y-105733114D01*
X135297400Y-105661685D01*
X135083114Y-105518828D01*
X135011685Y-105447400D01*
X135368828Y-107661685D02*
X135297400Y-107733114D01*
X135225971Y-107875971D01*
X135225971Y-108233114D01*
X135297400Y-108375971D01*
X135368828Y-108447400D01*
X135511685Y-108518828D01*
X135654542Y-108518828D01*
X135868828Y-108447400D01*
X136725971Y-107590257D01*
X136725971Y-108518828D01*
X135225971Y-109447400D02*
X135225971Y-109590257D01*
X135297400Y-109733114D01*
X135368828Y-109804542D01*
X135511685Y-109875971D01*
X135797400Y-109947400D01*
X136154542Y-109947400D01*
X136440257Y-109875971D01*
X136583114Y-109804542D01*
X136654542Y-109733114D01*
X136725971Y-109590257D01*
X136725971Y-109447400D01*
X136654542Y-109304542D01*
X136583114Y-109233114D01*
X136440257Y-109161685D01*
X136154542Y-109090257D01*
X135797400Y-109090257D01*
X135511685Y-109161685D01*
X135368828Y-109233114D01*
X135297400Y-109304542D01*
X135225971Y-109447400D01*
X135368828Y-110518828D02*
X135297400Y-110590257D01*
X135225971Y-110733114D01*
X135225971Y-111090257D01*
X135297400Y-111233114D01*
X135368828Y-111304542D01*
X135511685Y-111375971D01*
X135654542Y-111375971D01*
X135868828Y-111304542D01*
X136725971Y-110447400D01*
X136725971Y-111375971D01*
X136725971Y-112804542D02*
X136725971Y-111947400D01*
X136725971Y-112375971D02*
X135225971Y-112375971D01*
X135440257Y-112233114D01*
X135583114Y-112090257D01*
X135654542Y-111947400D01*
X136725971Y-114590257D02*
X135225971Y-114590257D01*
X136725971Y-115947400D02*
X135940257Y-115947400D01*
X135797400Y-115875971D01*
X135725971Y-115733114D01*
X135725971Y-115447400D01*
X135797400Y-115304542D01*
X136654542Y-115947400D02*
X136725971Y-115804542D01*
X136725971Y-115447400D01*
X136654542Y-115304542D01*
X136511685Y-115233114D01*
X136368828Y-115233114D01*
X136225971Y-115304542D01*
X136154542Y-115447400D01*
X136154542Y-115804542D01*
X136083114Y-115947400D01*
X135725971Y-116661685D02*
X136725971Y-116661685D01*
X135868828Y-116661685D02*
X135797400Y-116733114D01*
X135725971Y-116875971D01*
X135725971Y-117090257D01*
X135797400Y-117233114D01*
X135940257Y-117304542D01*
X136725971Y-117304542D01*
X135940257Y-118518828D02*
X136011685Y-118733114D01*
X136083114Y-118804542D01*
X136225971Y-118875971D01*
X136440257Y-118875971D01*
X136583114Y-118804542D01*
X136654542Y-118733114D01*
X136725971Y-118590257D01*
X136725971Y-118018828D01*
X135225971Y-118018828D01*
X135225971Y-118518828D01*
X135297400Y-118661685D01*
X135368828Y-118733114D01*
X135511685Y-118804542D01*
X135654542Y-118804542D01*
X135797400Y-118733114D01*
X135868828Y-118661685D01*
X135940257Y-118518828D01*
X135940257Y-118018828D01*
M02*
