G04 #@! TF.GenerationSoftware,KiCad,Pcbnew,(5.1.4)-1*
G04 #@! TF.CreationDate,2021-01-18T01:20:50+00:00*
G04 #@! TF.ProjectId,atari-pickup,61746172-692d-4706-9963-6b75702e6b69,rev?*
G04 #@! TF.SameCoordinates,Original*
G04 #@! TF.FileFunction,Legend,Bot*
G04 #@! TF.FilePolarity,Positive*
%FSLAX46Y46*%
G04 Gerber Fmt 4.6, Leading zero omitted, Abs format (unit mm)*
G04 Created by KiCad (PCBNEW (5.1.4)-1) date 2021-01-18 01:20:50*
%MOMM*%
%LPD*%
G04 APERTURE LIST*
%ADD10C,0.150000*%
%ADD11C,0.300000*%
G04 APERTURE END LIST*
D10*
X143520017Y-104224080D02*
X143853350Y-103747890D01*
X144091445Y-104224080D02*
X144091445Y-103224080D01*
X143710493Y-103224080D01*
X143615255Y-103271700D01*
X143567636Y-103319319D01*
X143520017Y-103414557D01*
X143520017Y-103557414D01*
X143567636Y-103652652D01*
X143615255Y-103700271D01*
X143710493Y-103747890D01*
X144091445Y-103747890D01*
X142948588Y-104224080D02*
X143043826Y-104176461D01*
X143091445Y-104128842D01*
X143139064Y-104033604D01*
X143139064Y-103747890D01*
X143091445Y-103652652D01*
X143043826Y-103605033D01*
X142948588Y-103557414D01*
X142805731Y-103557414D01*
X142710493Y-103605033D01*
X142662874Y-103652652D01*
X142615255Y-103747890D01*
X142615255Y-104033604D01*
X142662874Y-104128842D01*
X142710493Y-104176461D01*
X142805731Y-104224080D01*
X142948588Y-104224080D01*
X142186683Y-104224080D02*
X142186683Y-103224080D01*
X142186683Y-103700271D02*
X141615255Y-103700271D01*
X141615255Y-104224080D02*
X141615255Y-103224080D01*
X141186683Y-104176461D02*
X141043826Y-104224080D01*
X140805731Y-104224080D01*
X140710493Y-104176461D01*
X140662874Y-104128842D01*
X140615255Y-104033604D01*
X140615255Y-103938366D01*
X140662874Y-103843128D01*
X140710493Y-103795509D01*
X140805731Y-103747890D01*
X140996207Y-103700271D01*
X141091445Y-103652652D01*
X141139064Y-103605033D01*
X141186683Y-103509795D01*
X141186683Y-103414557D01*
X141139064Y-103319319D01*
X141091445Y-103271700D01*
X140996207Y-103224080D01*
X140758112Y-103224080D01*
X140615255Y-103271700D01*
D11*
X141110860Y-61461348D02*
X141110860Y-62175634D01*
X141539431Y-61318491D02*
X140039431Y-61818491D01*
X141539431Y-62318491D01*
X140539431Y-62604205D02*
X140539431Y-63175634D01*
X140039431Y-62818491D02*
X141325145Y-62818491D01*
X141468002Y-62889920D01*
X141539431Y-63032777D01*
X141539431Y-63175634D01*
X141539431Y-64318491D02*
X140753717Y-64318491D01*
X140610860Y-64247062D01*
X140539431Y-64104205D01*
X140539431Y-63818491D01*
X140610860Y-63675634D01*
X141468002Y-64318491D02*
X141539431Y-64175634D01*
X141539431Y-63818491D01*
X141468002Y-63675634D01*
X141325145Y-63604205D01*
X141182288Y-63604205D01*
X141039431Y-63675634D01*
X140968002Y-63818491D01*
X140968002Y-64175634D01*
X140896574Y-64318491D01*
X141539431Y-65032777D02*
X140539431Y-65032777D01*
X140825145Y-65032777D02*
X140682288Y-65104205D01*
X140610860Y-65175634D01*
X140539431Y-65318491D01*
X140539431Y-65461348D01*
X141539431Y-65961348D02*
X140539431Y-65961348D01*
X140039431Y-65961348D02*
X140110860Y-65889920D01*
X140182288Y-65961348D01*
X140110860Y-66032777D01*
X140039431Y-65961348D01*
X140182288Y-65961348D01*
X141468002Y-67747062D02*
X141539431Y-67961348D01*
X141539431Y-68318491D01*
X141468002Y-68461348D01*
X141396574Y-68532777D01*
X141253717Y-68604205D01*
X141110860Y-68604205D01*
X140968002Y-68532777D01*
X140896574Y-68461348D01*
X140825145Y-68318491D01*
X140753717Y-68032777D01*
X140682288Y-67889920D01*
X140610860Y-67818491D01*
X140468002Y-67747062D01*
X140325145Y-67747062D01*
X140182288Y-67818491D01*
X140110860Y-67889920D01*
X140039431Y-68032777D01*
X140039431Y-68389920D01*
X140110860Y-68604205D01*
X140039431Y-69032777D02*
X140039431Y-69889920D01*
X141539431Y-69461348D02*
X140039431Y-69461348D01*
X141539431Y-72389920D02*
X140825145Y-71889920D01*
X141539431Y-71532777D02*
X140039431Y-71532777D01*
X140039431Y-72104205D01*
X140110860Y-72247062D01*
X140182288Y-72318491D01*
X140325145Y-72389920D01*
X140539431Y-72389920D01*
X140682288Y-72318491D01*
X140753717Y-72247062D01*
X140825145Y-72104205D01*
X140825145Y-71532777D01*
X140110860Y-73818491D02*
X140039431Y-73675634D01*
X140039431Y-73461348D01*
X140110860Y-73247062D01*
X140253717Y-73104205D01*
X140396574Y-73032777D01*
X140682288Y-72961348D01*
X140896574Y-72961348D01*
X141182288Y-73032777D01*
X141325145Y-73104205D01*
X141468002Y-73247062D01*
X141539431Y-73461348D01*
X141539431Y-73604205D01*
X141468002Y-73818491D01*
X141396574Y-73889920D01*
X140896574Y-73889920D01*
X140896574Y-73604205D01*
X140753717Y-75032777D02*
X140825145Y-75247062D01*
X140896574Y-75318491D01*
X141039431Y-75389920D01*
X141253717Y-75389920D01*
X141396574Y-75318491D01*
X141468002Y-75247062D01*
X141539431Y-75104205D01*
X141539431Y-74532777D01*
X140039431Y-74532777D01*
X140039431Y-75032777D01*
X140110860Y-75175634D01*
X140182288Y-75247062D01*
X140325145Y-75318491D01*
X140468002Y-75318491D01*
X140610860Y-75247062D01*
X140682288Y-75175634D01*
X140753717Y-75032777D01*
X140753717Y-74532777D01*
X140539431Y-75818491D02*
X140539431Y-76389920D01*
X140039431Y-76032777D02*
X141325145Y-76032777D01*
X141468002Y-76104205D01*
X141539431Y-76247062D01*
X141539431Y-76389920D01*
X141539431Y-77104205D02*
X141468002Y-76961348D01*
X141396574Y-76889920D01*
X141253717Y-76818491D01*
X140825145Y-76818491D01*
X140682288Y-76889920D01*
X140610860Y-76961348D01*
X140539431Y-77104205D01*
X140539431Y-77318491D01*
X140610860Y-77461348D01*
X140682288Y-77532777D01*
X140825145Y-77604205D01*
X141253717Y-77604205D01*
X141396574Y-77532777D01*
X141468002Y-77461348D01*
X141539431Y-77318491D01*
X141539431Y-77104205D01*
X141539431Y-78247062D02*
X140039431Y-78247062D01*
X140753717Y-78247062D02*
X140753717Y-79104205D01*
X141539431Y-79104205D02*
X140039431Y-79104205D01*
X141539431Y-79818491D02*
X140039431Y-79818491D01*
X140039431Y-80175634D01*
X140110860Y-80389920D01*
X140253717Y-80532777D01*
X140396574Y-80604205D01*
X140682288Y-80675634D01*
X140896574Y-80675634D01*
X141182288Y-80604205D01*
X141325145Y-80532777D01*
X141468002Y-80389920D01*
X141539431Y-80175634D01*
X141539431Y-79818491D01*
X140753717Y-82961348D02*
X140825145Y-83175634D01*
X140896574Y-83247062D01*
X141039431Y-83318491D01*
X141253717Y-83318491D01*
X141396574Y-83247062D01*
X141468002Y-83175634D01*
X141539431Y-83032777D01*
X141539431Y-82461348D01*
X140039431Y-82461348D01*
X140039431Y-82961348D01*
X140110860Y-83104205D01*
X140182288Y-83175634D01*
X140325145Y-83247062D01*
X140468002Y-83247062D01*
X140610860Y-83175634D01*
X140682288Y-83104205D01*
X140753717Y-82961348D01*
X140753717Y-82461348D01*
X140539431Y-84604205D02*
X141539431Y-84604205D01*
X140539431Y-83961348D02*
X141325145Y-83961348D01*
X141468002Y-84032777D01*
X141539431Y-84175634D01*
X141539431Y-84389920D01*
X141468002Y-84532777D01*
X141396574Y-84604205D01*
X140539431Y-85104205D02*
X140539431Y-85675634D01*
X141539431Y-85318491D02*
X140253717Y-85318491D01*
X140110860Y-85389920D01*
X140039431Y-85532777D01*
X140039431Y-85675634D01*
X140539431Y-85961348D02*
X140539431Y-86532777D01*
X141539431Y-86175634D02*
X140253717Y-86175634D01*
X140110860Y-86247062D01*
X140039431Y-86389920D01*
X140039431Y-86532777D01*
X141468002Y-87604205D02*
X141539431Y-87461348D01*
X141539431Y-87175634D01*
X141468002Y-87032777D01*
X141325145Y-86961348D01*
X140753717Y-86961348D01*
X140610860Y-87032777D01*
X140539431Y-87175634D01*
X140539431Y-87461348D01*
X140610860Y-87604205D01*
X140753717Y-87675634D01*
X140896574Y-87675634D01*
X141039431Y-86961348D01*
X141539431Y-88318491D02*
X140539431Y-88318491D01*
X140825145Y-88318491D02*
X140682288Y-88389919D01*
X140610860Y-88461348D01*
X140539431Y-88604205D01*
X140539431Y-88747062D01*
X141468002Y-89818491D02*
X141539431Y-89675634D01*
X141539431Y-89389919D01*
X141468002Y-89247062D01*
X141325145Y-89175634D01*
X140753717Y-89175634D01*
X140610860Y-89247062D01*
X140539431Y-89389919D01*
X140539431Y-89675634D01*
X140610860Y-89818491D01*
X140753717Y-89889919D01*
X140896574Y-89889919D01*
X141039431Y-89175634D01*
X141539431Y-91175634D02*
X140039431Y-91175634D01*
X141468002Y-91175634D02*
X141539431Y-91032777D01*
X141539431Y-90747062D01*
X141468002Y-90604205D01*
X141396574Y-90532777D01*
X141253717Y-90461348D01*
X140825145Y-90461348D01*
X140682288Y-90532777D01*
X140610860Y-90604205D01*
X140539431Y-90747062D01*
X140539431Y-91032777D01*
X140610860Y-91175634D01*
X141539431Y-93032777D02*
X140039431Y-93032777D01*
X140039431Y-93604205D01*
X140110860Y-93747062D01*
X140182288Y-93818491D01*
X140325145Y-93889919D01*
X140539431Y-93889919D01*
X140682288Y-93818491D01*
X140753717Y-93747062D01*
X140825145Y-93604205D01*
X140825145Y-93032777D01*
X141539431Y-94532777D02*
X140539431Y-94532777D01*
X140039431Y-94532777D02*
X140110860Y-94461348D01*
X140182288Y-94532777D01*
X140110860Y-94604205D01*
X140039431Y-94532777D01*
X140182288Y-94532777D01*
X141468002Y-95889919D02*
X141539431Y-95747062D01*
X141539431Y-95461348D01*
X141468002Y-95318491D01*
X141396574Y-95247062D01*
X141253717Y-95175634D01*
X140825145Y-95175634D01*
X140682288Y-95247062D01*
X140610860Y-95318491D01*
X140539431Y-95461348D01*
X140539431Y-95747062D01*
X140610860Y-95889919D01*
X141539431Y-96532777D02*
X140039431Y-96532777D01*
X140968002Y-96675634D02*
X141539431Y-97104205D01*
X140539431Y-97104205D02*
X141110860Y-96532777D01*
X140539431Y-98389919D02*
X141539431Y-98389919D01*
X140539431Y-97747062D02*
X141325145Y-97747062D01*
X141468002Y-97818491D01*
X141539431Y-97961348D01*
X141539431Y-98175634D01*
X141468002Y-98318491D01*
X141396574Y-98389919D01*
X140539431Y-99104205D02*
X142039431Y-99104205D01*
X140610860Y-99104205D02*
X140539431Y-99247062D01*
X140539431Y-99532777D01*
X140610860Y-99675634D01*
X140682288Y-99747062D01*
X140825145Y-99818491D01*
X141253717Y-99818491D01*
X141396574Y-99747062D01*
X141468002Y-99675634D01*
X141539431Y-99532777D01*
X141539431Y-99247062D01*
X141468002Y-99104205D01*
X144089431Y-68032777D02*
X142589431Y-68032777D01*
X144018002Y-68675634D02*
X144089431Y-68818491D01*
X144089431Y-69104205D01*
X144018002Y-69247062D01*
X143875145Y-69318491D01*
X143803717Y-69318491D01*
X143660860Y-69247062D01*
X143589431Y-69104205D01*
X143589431Y-68889920D01*
X143518002Y-68747062D01*
X143375145Y-68675634D01*
X143303717Y-68675634D01*
X143160860Y-68747062D01*
X143089431Y-68889920D01*
X143089431Y-69104205D01*
X143160860Y-69247062D01*
X144018002Y-69889920D02*
X144089431Y-70032777D01*
X144089431Y-70318491D01*
X144018002Y-70461348D01*
X143875145Y-70532777D01*
X143803717Y-70532777D01*
X143660860Y-70461348D01*
X143589431Y-70318491D01*
X143589431Y-70104205D01*
X143518002Y-69961348D01*
X143375145Y-69889920D01*
X143303717Y-69889920D01*
X143160860Y-69961348D01*
X143089431Y-70104205D01*
X143089431Y-70318491D01*
X143160860Y-70461348D01*
X143089431Y-71818491D02*
X144089431Y-71818491D01*
X143089431Y-71175634D02*
X143875145Y-71175634D01*
X144018002Y-71247062D01*
X144089431Y-71389920D01*
X144089431Y-71604205D01*
X144018002Y-71747062D01*
X143946574Y-71818491D01*
X144018002Y-73104205D02*
X144089431Y-72961348D01*
X144089431Y-72675634D01*
X144018002Y-72532777D01*
X143875145Y-72461348D01*
X143303717Y-72461348D01*
X143160860Y-72532777D01*
X143089431Y-72675634D01*
X143089431Y-72961348D01*
X143160860Y-73104205D01*
X143303717Y-73175634D01*
X143446574Y-73175634D01*
X143589431Y-72461348D01*
X144089431Y-75747062D02*
X144089431Y-74889920D01*
X144089431Y-75318491D02*
X142589431Y-75318491D01*
X142803717Y-75175634D01*
X142946574Y-75032777D01*
X143018002Y-74889920D01*
X144660860Y-77961348D02*
X144589431Y-77889920D01*
X144375145Y-77747062D01*
X144232288Y-77675634D01*
X144018002Y-77604205D01*
X143660860Y-77532777D01*
X143375145Y-77532777D01*
X143018002Y-77604205D01*
X142803717Y-77675634D01*
X142660860Y-77747062D01*
X142446574Y-77889920D01*
X142375145Y-77961348D01*
X143946574Y-79389920D02*
X144018002Y-79318491D01*
X144089431Y-79104205D01*
X144089431Y-78961348D01*
X144018002Y-78747062D01*
X143875145Y-78604205D01*
X143732288Y-78532777D01*
X143446574Y-78461348D01*
X143232288Y-78461348D01*
X142946574Y-78532777D01*
X142803717Y-78604205D01*
X142660860Y-78747062D01*
X142589431Y-78961348D01*
X142589431Y-79104205D01*
X142660860Y-79318491D01*
X142732288Y-79389920D01*
X144660860Y-79889920D02*
X144589431Y-79961348D01*
X144375145Y-80104205D01*
X144232288Y-80175634D01*
X144018002Y-80247062D01*
X143660860Y-80318491D01*
X143375145Y-80318491D01*
X143018002Y-80247062D01*
X142803717Y-80175634D01*
X142660860Y-80104205D01*
X142446574Y-79961348D01*
X142375145Y-79889920D01*
X142732288Y-82104205D02*
X142660860Y-82175634D01*
X142589431Y-82318491D01*
X142589431Y-82675634D01*
X142660860Y-82818491D01*
X142732288Y-82889920D01*
X142875145Y-82961348D01*
X143018002Y-82961348D01*
X143232288Y-82889920D01*
X144089431Y-82032777D01*
X144089431Y-82961348D01*
X142589431Y-83889920D02*
X142589431Y-84032777D01*
X142660860Y-84175634D01*
X142732288Y-84247062D01*
X142875145Y-84318491D01*
X143160860Y-84389920D01*
X143518002Y-84389920D01*
X143803717Y-84318491D01*
X143946574Y-84247062D01*
X144018002Y-84175634D01*
X144089431Y-84032777D01*
X144089431Y-83889920D01*
X144018002Y-83747062D01*
X143946574Y-83675634D01*
X143803717Y-83604205D01*
X143518002Y-83532777D01*
X143160860Y-83532777D01*
X142875145Y-83604205D01*
X142732288Y-83675634D01*
X142660860Y-83747062D01*
X142589431Y-83889920D01*
X142732288Y-84961348D02*
X142660860Y-85032777D01*
X142589431Y-85175634D01*
X142589431Y-85532777D01*
X142660860Y-85675634D01*
X142732288Y-85747062D01*
X142875145Y-85818491D01*
X143018002Y-85818491D01*
X143232288Y-85747062D01*
X144089431Y-84889920D01*
X144089431Y-85818491D01*
X144089431Y-87247062D02*
X144089431Y-86389920D01*
X144089431Y-86818491D02*
X142589431Y-86818491D01*
X142803717Y-86675634D01*
X142946574Y-86532777D01*
X143018002Y-86389920D01*
X144089431Y-89032777D02*
X142589431Y-89032777D01*
X144089431Y-90389920D02*
X143303717Y-90389920D01*
X143160860Y-90318491D01*
X143089431Y-90175634D01*
X143089431Y-89889920D01*
X143160860Y-89747062D01*
X144018002Y-90389920D02*
X144089431Y-90247062D01*
X144089431Y-89889920D01*
X144018002Y-89747062D01*
X143875145Y-89675634D01*
X143732288Y-89675634D01*
X143589431Y-89747062D01*
X143518002Y-89889920D01*
X143518002Y-90247062D01*
X143446574Y-90389920D01*
X143089431Y-91104205D02*
X144089431Y-91104205D01*
X143232288Y-91104205D02*
X143160860Y-91175634D01*
X143089431Y-91318491D01*
X143089431Y-91532777D01*
X143160860Y-91675634D01*
X143303717Y-91747062D01*
X144089431Y-91747062D01*
X143303717Y-92961348D02*
X143375145Y-93175634D01*
X143446574Y-93247062D01*
X143589431Y-93318491D01*
X143803717Y-93318491D01*
X143946574Y-93247062D01*
X144018002Y-93175634D01*
X144089431Y-93032777D01*
X144089431Y-92461348D01*
X142589431Y-92461348D01*
X142589431Y-92961348D01*
X142660860Y-93104205D01*
X142732288Y-93175634D01*
X142875145Y-93247062D01*
X143018002Y-93247062D01*
X143160860Y-93175634D01*
X143232288Y-93104205D01*
X143303717Y-92961348D01*
X143303717Y-92461348D01*
M02*
