G04 #@! TF.GenerationSoftware,KiCad,Pcbnew,(5.1.4)-1*
G04 #@! TF.CreationDate,2021-01-18T01:20:50+00:00*
G04 #@! TF.ProjectId,atari-pickup,61746172-692d-4706-9963-6b75702e6b69,rev?*
G04 #@! TF.SameCoordinates,Original*
G04 #@! TF.FileFunction,Soldermask,Top*
G04 #@! TF.FilePolarity,Negative*
%FSLAX46Y46*%
G04 Gerber Fmt 4.6, Leading zero omitted, Abs format (unit mm)*
G04 Created by KiCad (PCBNEW (5.1.4)-1) date 2021-01-18 01:20:50*
%MOMM*%
%LPD*%
G04 APERTURE LIST*
%ADD10C,2.254200*%
%ADD11R,2.100000X2.100000*%
%ADD12O,2.100000X2.100000*%
%ADD13C,0.100000*%
%ADD14C,1.350000*%
%ADD15R,1.850000X0.850000*%
G04 APERTURE END LIST*
D10*
X149860000Y-55880000D03*
X149860000Y-58420000D03*
X149860000Y-60960000D03*
X149860000Y-63500000D03*
X149860000Y-66040000D03*
X149860000Y-68580000D03*
X149860000Y-71120000D03*
X149860000Y-73660000D03*
X149860000Y-76200000D03*
X149860000Y-78740000D03*
X149860000Y-81280000D03*
X149860000Y-83820000D03*
X149860000Y-86360000D03*
X149860000Y-88900000D03*
X149860000Y-91440000D03*
X149860000Y-93980000D03*
X149860000Y-96520000D03*
X149860000Y-99060000D03*
X149860000Y-101600000D03*
X149860000Y-104140000D03*
X134620000Y-104140000D03*
X134620000Y-101600000D03*
X134620000Y-99060000D03*
X134620000Y-96520000D03*
X134620000Y-93980000D03*
X134620000Y-91440000D03*
X134620000Y-88900000D03*
X134620000Y-86360000D03*
X134620000Y-83820000D03*
X134620000Y-81280000D03*
X134620000Y-76200000D03*
X134620000Y-73660000D03*
X134620000Y-71120000D03*
X134620000Y-68580000D03*
X134620000Y-66040000D03*
X134620000Y-63500000D03*
X134620000Y-60960000D03*
X134620000Y-58420000D03*
X134620000Y-55880000D03*
X134620000Y-78740000D03*
D11*
X131368800Y-73583800D03*
D12*
X128828800Y-73583800D03*
X131368800Y-71043800D03*
X128828800Y-71043800D03*
X131368800Y-68503800D03*
X128828800Y-68503800D03*
X131368800Y-65963800D03*
X128828800Y-65963800D03*
X131368800Y-63423800D03*
X128828800Y-63423800D03*
X131368800Y-60883800D03*
X128828800Y-60883800D03*
X131368800Y-58343800D03*
X128828800Y-58343800D03*
X131368800Y-55803800D03*
X128828800Y-55803800D03*
D11*
X128854200Y-80594200D03*
D12*
X128854200Y-78054200D03*
D13*
G36*
X145302181Y-58635625D02*
G01*
X145334943Y-58640485D01*
X145367071Y-58648533D01*
X145398256Y-58659691D01*
X145428196Y-58673852D01*
X145456605Y-58690879D01*
X145483208Y-58710609D01*
X145507749Y-58732851D01*
X145529991Y-58757392D01*
X145549721Y-58783995D01*
X145566748Y-58812404D01*
X145580909Y-58842344D01*
X145592067Y-58873529D01*
X145600115Y-58905657D01*
X145604975Y-58938419D01*
X145606600Y-58971500D01*
X145606600Y-59646500D01*
X145604975Y-59679581D01*
X145600115Y-59712343D01*
X145592067Y-59744471D01*
X145580909Y-59775656D01*
X145566748Y-59805596D01*
X145549721Y-59834005D01*
X145529991Y-59860608D01*
X145507749Y-59885149D01*
X145483208Y-59907391D01*
X145456605Y-59927121D01*
X145428196Y-59944148D01*
X145398256Y-59958309D01*
X145367071Y-59969467D01*
X145334943Y-59977515D01*
X145302181Y-59982375D01*
X145269100Y-59984000D01*
X144494100Y-59984000D01*
X144461019Y-59982375D01*
X144428257Y-59977515D01*
X144396129Y-59969467D01*
X144364944Y-59958309D01*
X144335004Y-59944148D01*
X144306595Y-59927121D01*
X144279992Y-59907391D01*
X144255451Y-59885149D01*
X144233209Y-59860608D01*
X144213479Y-59834005D01*
X144196452Y-59805596D01*
X144182291Y-59775656D01*
X144171133Y-59744471D01*
X144163085Y-59712343D01*
X144158225Y-59679581D01*
X144156600Y-59646500D01*
X144156600Y-58971500D01*
X144158225Y-58938419D01*
X144163085Y-58905657D01*
X144171133Y-58873529D01*
X144182291Y-58842344D01*
X144196452Y-58812404D01*
X144213479Y-58783995D01*
X144233209Y-58757392D01*
X144255451Y-58732851D01*
X144279992Y-58710609D01*
X144306595Y-58690879D01*
X144335004Y-58673852D01*
X144364944Y-58659691D01*
X144396129Y-58648533D01*
X144428257Y-58640485D01*
X144461019Y-58635625D01*
X144494100Y-58634000D01*
X145269100Y-58634000D01*
X145302181Y-58635625D01*
X145302181Y-58635625D01*
G37*
D14*
X144881600Y-59309000D03*
D13*
G36*
X143552181Y-58635625D02*
G01*
X143584943Y-58640485D01*
X143617071Y-58648533D01*
X143648256Y-58659691D01*
X143678196Y-58673852D01*
X143706605Y-58690879D01*
X143733208Y-58710609D01*
X143757749Y-58732851D01*
X143779991Y-58757392D01*
X143799721Y-58783995D01*
X143816748Y-58812404D01*
X143830909Y-58842344D01*
X143842067Y-58873529D01*
X143850115Y-58905657D01*
X143854975Y-58938419D01*
X143856600Y-58971500D01*
X143856600Y-59646500D01*
X143854975Y-59679581D01*
X143850115Y-59712343D01*
X143842067Y-59744471D01*
X143830909Y-59775656D01*
X143816748Y-59805596D01*
X143799721Y-59834005D01*
X143779991Y-59860608D01*
X143757749Y-59885149D01*
X143733208Y-59907391D01*
X143706605Y-59927121D01*
X143678196Y-59944148D01*
X143648256Y-59958309D01*
X143617071Y-59969467D01*
X143584943Y-59977515D01*
X143552181Y-59982375D01*
X143519100Y-59984000D01*
X142744100Y-59984000D01*
X142711019Y-59982375D01*
X142678257Y-59977515D01*
X142646129Y-59969467D01*
X142614944Y-59958309D01*
X142585004Y-59944148D01*
X142556595Y-59927121D01*
X142529992Y-59907391D01*
X142505451Y-59885149D01*
X142483209Y-59860608D01*
X142463479Y-59834005D01*
X142446452Y-59805596D01*
X142432291Y-59775656D01*
X142421133Y-59744471D01*
X142413085Y-59712343D01*
X142408225Y-59679581D01*
X142406600Y-59646500D01*
X142406600Y-58971500D01*
X142408225Y-58938419D01*
X142413085Y-58905657D01*
X142421133Y-58873529D01*
X142432291Y-58842344D01*
X142446452Y-58812404D01*
X142463479Y-58783995D01*
X142483209Y-58757392D01*
X142505451Y-58732851D01*
X142529992Y-58710609D01*
X142556595Y-58690879D01*
X142585004Y-58673852D01*
X142614944Y-58659691D01*
X142646129Y-58648533D01*
X142678257Y-58640485D01*
X142711019Y-58635625D01*
X142744100Y-58634000D01*
X143519100Y-58634000D01*
X143552181Y-58635625D01*
X143552181Y-58635625D01*
G37*
D14*
X143131600Y-59309000D03*
D13*
G36*
X142598381Y-90868225D02*
G01*
X142631143Y-90873085D01*
X142663271Y-90881133D01*
X142694456Y-90892291D01*
X142724396Y-90906452D01*
X142752805Y-90923479D01*
X142779408Y-90943209D01*
X142803949Y-90965451D01*
X142826191Y-90989992D01*
X142845921Y-91016595D01*
X142862948Y-91045004D01*
X142877109Y-91074944D01*
X142888267Y-91106129D01*
X142896315Y-91138257D01*
X142901175Y-91171019D01*
X142902800Y-91204100D01*
X142902800Y-91879100D01*
X142901175Y-91912181D01*
X142896315Y-91944943D01*
X142888267Y-91977071D01*
X142877109Y-92008256D01*
X142862948Y-92038196D01*
X142845921Y-92066605D01*
X142826191Y-92093208D01*
X142803949Y-92117749D01*
X142779408Y-92139991D01*
X142752805Y-92159721D01*
X142724396Y-92176748D01*
X142694456Y-92190909D01*
X142663271Y-92202067D01*
X142631143Y-92210115D01*
X142598381Y-92214975D01*
X142565300Y-92216600D01*
X141790300Y-92216600D01*
X141757219Y-92214975D01*
X141724457Y-92210115D01*
X141692329Y-92202067D01*
X141661144Y-92190909D01*
X141631204Y-92176748D01*
X141602795Y-92159721D01*
X141576192Y-92139991D01*
X141551651Y-92117749D01*
X141529409Y-92093208D01*
X141509679Y-92066605D01*
X141492652Y-92038196D01*
X141478491Y-92008256D01*
X141467333Y-91977071D01*
X141459285Y-91944943D01*
X141454425Y-91912181D01*
X141452800Y-91879100D01*
X141452800Y-91204100D01*
X141454425Y-91171019D01*
X141459285Y-91138257D01*
X141467333Y-91106129D01*
X141478491Y-91074944D01*
X141492652Y-91045004D01*
X141509679Y-91016595D01*
X141529409Y-90989992D01*
X141551651Y-90965451D01*
X141576192Y-90943209D01*
X141602795Y-90923479D01*
X141631204Y-90906452D01*
X141661144Y-90892291D01*
X141692329Y-90881133D01*
X141724457Y-90873085D01*
X141757219Y-90868225D01*
X141790300Y-90866600D01*
X142565300Y-90866600D01*
X142598381Y-90868225D01*
X142598381Y-90868225D01*
G37*
D14*
X142177800Y-91541600D03*
D13*
G36*
X144348381Y-90868225D02*
G01*
X144381143Y-90873085D01*
X144413271Y-90881133D01*
X144444456Y-90892291D01*
X144474396Y-90906452D01*
X144502805Y-90923479D01*
X144529408Y-90943209D01*
X144553949Y-90965451D01*
X144576191Y-90989992D01*
X144595921Y-91016595D01*
X144612948Y-91045004D01*
X144627109Y-91074944D01*
X144638267Y-91106129D01*
X144646315Y-91138257D01*
X144651175Y-91171019D01*
X144652800Y-91204100D01*
X144652800Y-91879100D01*
X144651175Y-91912181D01*
X144646315Y-91944943D01*
X144638267Y-91977071D01*
X144627109Y-92008256D01*
X144612948Y-92038196D01*
X144595921Y-92066605D01*
X144576191Y-92093208D01*
X144553949Y-92117749D01*
X144529408Y-92139991D01*
X144502805Y-92159721D01*
X144474396Y-92176748D01*
X144444456Y-92190909D01*
X144413271Y-92202067D01*
X144381143Y-92210115D01*
X144348381Y-92214975D01*
X144315300Y-92216600D01*
X143540300Y-92216600D01*
X143507219Y-92214975D01*
X143474457Y-92210115D01*
X143442329Y-92202067D01*
X143411144Y-92190909D01*
X143381204Y-92176748D01*
X143352795Y-92159721D01*
X143326192Y-92139991D01*
X143301651Y-92117749D01*
X143279409Y-92093208D01*
X143259679Y-92066605D01*
X143242652Y-92038196D01*
X143228491Y-92008256D01*
X143217333Y-91977071D01*
X143209285Y-91944943D01*
X143204425Y-91912181D01*
X143202800Y-91879100D01*
X143202800Y-91204100D01*
X143204425Y-91171019D01*
X143209285Y-91138257D01*
X143217333Y-91106129D01*
X143228491Y-91074944D01*
X143242652Y-91045004D01*
X143259679Y-91016595D01*
X143279409Y-90989992D01*
X143301651Y-90965451D01*
X143326192Y-90943209D01*
X143352795Y-90923479D01*
X143381204Y-90906452D01*
X143411144Y-90892291D01*
X143442329Y-90881133D01*
X143474457Y-90873085D01*
X143507219Y-90868225D01*
X143540300Y-90866600D01*
X144315300Y-90866600D01*
X144348381Y-90868225D01*
X144348381Y-90868225D01*
G37*
D14*
X143927800Y-91541600D03*
D15*
X139442400Y-61260800D03*
X139442400Y-61910800D03*
X139442400Y-62560800D03*
X139442400Y-63210800D03*
X139442400Y-63860800D03*
X139442400Y-64510800D03*
X139442400Y-65160800D03*
X139442400Y-65810800D03*
X139442400Y-66460800D03*
X139442400Y-67110800D03*
X145342400Y-67110800D03*
X145342400Y-66460800D03*
X145342400Y-65810800D03*
X145342400Y-65160800D03*
X145342400Y-64510800D03*
X145342400Y-63860800D03*
X145342400Y-63210800D03*
X145342400Y-62560800D03*
X145342400Y-61910800D03*
X145342400Y-61260800D03*
X145952000Y-93264800D03*
X145952000Y-93914800D03*
X145952000Y-94564800D03*
X145952000Y-95214800D03*
X145952000Y-95864800D03*
X145952000Y-96514800D03*
X145952000Y-97164800D03*
X145952000Y-97814800D03*
X145952000Y-98464800D03*
X145952000Y-99114800D03*
X140052000Y-99114800D03*
X140052000Y-98464800D03*
X140052000Y-97814800D03*
X140052000Y-97164800D03*
X140052000Y-96514800D03*
X140052000Y-95864800D03*
X140052000Y-95214800D03*
X140052000Y-94564800D03*
X140052000Y-93914800D03*
X140052000Y-93264800D03*
M02*
