G04 #@! TF.GenerationSoftware,KiCad,Pcbnew,(5.1.4)-1*
G04 #@! TF.CreationDate,2021-01-18T01:20:50+00:00*
G04 #@! TF.ProjectId,atari-pickup,61746172-692d-4706-9963-6b75702e6b69,rev?*
G04 #@! TF.SameCoordinates,Original*
G04 #@! TF.FileFunction,Legend,Top*
G04 #@! TF.FilePolarity,Positive*
%FSLAX46Y46*%
G04 Gerber Fmt 4.6, Leading zero omitted, Abs format (unit mm)*
G04 Created by KiCad (PCBNEW (5.1.4)-1) date 2021-01-18 01:20:50*
%MOMM*%
%LPD*%
G04 APERTURE LIST*
%ADD10C,0.200000*%
%ADD11C,0.100000*%
%ADD12C,0.150000*%
%ADD13C,0.120000*%
G04 APERTURE END LIST*
D10*
X131121114Y-81011020D02*
X130549685Y-81011020D01*
X130835400Y-81011020D02*
X130835400Y-80011020D01*
X130740161Y-80153878D01*
X130644923Y-80249116D01*
X130549685Y-80296735D01*
X131710394Y-76144380D02*
X131138965Y-76144380D01*
X131424680Y-76144380D02*
X131424680Y-75144380D01*
X131329441Y-75287238D01*
X131234203Y-75382476D01*
X131138965Y-75430095D01*
D11*
X151130000Y-105410000D02*
X151130000Y-54610000D01*
X148590000Y-105410000D02*
X151130000Y-105410000D01*
X148590000Y-54610000D02*
X148590000Y-105410000D01*
X151130000Y-54610000D02*
X148590000Y-54610000D01*
X135890000Y-105410000D02*
X135890000Y-54610000D01*
X133350000Y-105410000D02*
X135890000Y-105410000D01*
X133350000Y-54610000D02*
X133350000Y-105410000D01*
X135890000Y-54610000D02*
X133350000Y-54610000D01*
X148590000Y-54610000D02*
X148590000Y-57785000D01*
X135890000Y-54610000D02*
X148590000Y-54610000D01*
X135890000Y-57785000D02*
X135890000Y-54610000D01*
X148590000Y-57785000D02*
X135890000Y-57785000D01*
X148590000Y-54610000D02*
X148590000Y-57785000D01*
X135890000Y-105410000D02*
X148590000Y-105410000D01*
X135890000Y-102235000D02*
X135890000Y-105410000D01*
X148590000Y-102235000D02*
X135890000Y-102235000D01*
X148590000Y-105410000D02*
X148590000Y-102235000D01*
X148590000Y-70485000D02*
X148590000Y-73660000D01*
X135890000Y-70485000D02*
X148590000Y-70485000D01*
X135890000Y-73660000D02*
X135890000Y-70485000D01*
X148590000Y-73660000D02*
X135890000Y-73660000D01*
X148590000Y-89535000D02*
X148590000Y-86360000D01*
X135890000Y-89535000D02*
X148590000Y-89535000D01*
X135890000Y-86360000D02*
X135890000Y-89535000D01*
X148590000Y-86360000D02*
X135890000Y-86360000D01*
D12*
X143240000Y-54740000D02*
G75*
G02X141240000Y-54740000I-1000000J0D01*
G01*
D13*
X127388800Y-74913800D02*
X127388800Y-54473800D01*
X127388800Y-54473800D02*
X124728800Y-54473800D01*
X124728800Y-54473800D02*
X124728800Y-74913800D01*
X124728800Y-74913800D02*
X127388800Y-74913800D01*
X124728800Y-73963800D02*
X118728800Y-73963800D01*
X118728800Y-73963800D02*
X118728800Y-73203800D01*
X118728800Y-73203800D02*
X124728800Y-73203800D01*
X124728800Y-73903800D02*
X118728800Y-73903800D01*
X124728800Y-73783800D02*
X118728800Y-73783800D01*
X124728800Y-73663800D02*
X118728800Y-73663800D01*
X124728800Y-73543800D02*
X118728800Y-73543800D01*
X124728800Y-73423800D02*
X118728800Y-73423800D01*
X124728800Y-73303800D02*
X118728800Y-73303800D01*
X127785871Y-73963800D02*
X127388800Y-73963800D01*
X127785871Y-73203800D02*
X127388800Y-73203800D01*
X130258800Y-73963800D02*
X129871729Y-73963800D01*
X130258800Y-73203800D02*
X129871729Y-73203800D01*
X127388800Y-72313800D02*
X124728800Y-72313800D01*
X124728800Y-71423800D02*
X118728800Y-71423800D01*
X118728800Y-71423800D02*
X118728800Y-70663800D01*
X118728800Y-70663800D02*
X124728800Y-70663800D01*
X127785871Y-71423800D02*
X127388800Y-71423800D01*
X127785871Y-70663800D02*
X127388800Y-70663800D01*
X130325871Y-71423800D02*
X129871729Y-71423800D01*
X130325871Y-70663800D02*
X129871729Y-70663800D01*
X127388800Y-69773800D02*
X124728800Y-69773800D01*
X124728800Y-68883800D02*
X118728800Y-68883800D01*
X118728800Y-68883800D02*
X118728800Y-68123800D01*
X118728800Y-68123800D02*
X124728800Y-68123800D01*
X127785871Y-68883800D02*
X127388800Y-68883800D01*
X127785871Y-68123800D02*
X127388800Y-68123800D01*
X130325871Y-68883800D02*
X129871729Y-68883800D01*
X130325871Y-68123800D02*
X129871729Y-68123800D01*
X127388800Y-67233800D02*
X124728800Y-67233800D01*
X124728800Y-66343800D02*
X118728800Y-66343800D01*
X118728800Y-66343800D02*
X118728800Y-65583800D01*
X118728800Y-65583800D02*
X124728800Y-65583800D01*
X127785871Y-66343800D02*
X127388800Y-66343800D01*
X127785871Y-65583800D02*
X127388800Y-65583800D01*
X130325871Y-66343800D02*
X129871729Y-66343800D01*
X130325871Y-65583800D02*
X129871729Y-65583800D01*
X127388800Y-64693800D02*
X124728800Y-64693800D01*
X124728800Y-63803800D02*
X118728800Y-63803800D01*
X118728800Y-63803800D02*
X118728800Y-63043800D01*
X118728800Y-63043800D02*
X124728800Y-63043800D01*
X127785871Y-63803800D02*
X127388800Y-63803800D01*
X127785871Y-63043800D02*
X127388800Y-63043800D01*
X130325871Y-63803800D02*
X129871729Y-63803800D01*
X130325871Y-63043800D02*
X129871729Y-63043800D01*
X127388800Y-62153800D02*
X124728800Y-62153800D01*
X124728800Y-61263800D02*
X118728800Y-61263800D01*
X118728800Y-61263800D02*
X118728800Y-60503800D01*
X118728800Y-60503800D02*
X124728800Y-60503800D01*
X127785871Y-61263800D02*
X127388800Y-61263800D01*
X127785871Y-60503800D02*
X127388800Y-60503800D01*
X130325871Y-61263800D02*
X129871729Y-61263800D01*
X130325871Y-60503800D02*
X129871729Y-60503800D01*
X127388800Y-59613800D02*
X124728800Y-59613800D01*
X124728800Y-58723800D02*
X118728800Y-58723800D01*
X118728800Y-58723800D02*
X118728800Y-57963800D01*
X118728800Y-57963800D02*
X124728800Y-57963800D01*
X127785871Y-58723800D02*
X127388800Y-58723800D01*
X127785871Y-57963800D02*
X127388800Y-57963800D01*
X130325871Y-58723800D02*
X129871729Y-58723800D01*
X130325871Y-57963800D02*
X129871729Y-57963800D01*
X127388800Y-57073800D02*
X124728800Y-57073800D01*
X124728800Y-56183800D02*
X118728800Y-56183800D01*
X118728800Y-56183800D02*
X118728800Y-55423800D01*
X118728800Y-55423800D02*
X124728800Y-55423800D01*
X127785871Y-56183800D02*
X127388800Y-56183800D01*
X127785871Y-55423800D02*
X127388800Y-55423800D01*
X130325871Y-56183800D02*
X129871729Y-56183800D01*
X130325871Y-55423800D02*
X129871729Y-55423800D01*
X132638800Y-73583800D02*
X132638800Y-74853800D01*
X132638800Y-74853800D02*
X131368800Y-74853800D01*
X127414200Y-81924200D02*
X127414200Y-76724200D01*
X127414200Y-76724200D02*
X124754200Y-76724200D01*
X124754200Y-76724200D02*
X124754200Y-81924200D01*
X124754200Y-81924200D02*
X127414200Y-81924200D01*
X124754200Y-80974200D02*
X118754200Y-80974200D01*
X118754200Y-80974200D02*
X118754200Y-80214200D01*
X118754200Y-80214200D02*
X124754200Y-80214200D01*
X124754200Y-80914200D02*
X118754200Y-80914200D01*
X124754200Y-80794200D02*
X118754200Y-80794200D01*
X124754200Y-80674200D02*
X118754200Y-80674200D01*
X124754200Y-80554200D02*
X118754200Y-80554200D01*
X124754200Y-80434200D02*
X118754200Y-80434200D01*
X124754200Y-80314200D02*
X118754200Y-80314200D01*
X127744200Y-80974200D02*
X127414200Y-80974200D01*
X127744200Y-80214200D02*
X127414200Y-80214200D01*
X127414200Y-79324200D02*
X124754200Y-79324200D01*
X124754200Y-78434200D02*
X118754200Y-78434200D01*
X118754200Y-78434200D02*
X118754200Y-77674200D01*
X118754200Y-77674200D02*
X124754200Y-77674200D01*
X127811271Y-78434200D02*
X127414200Y-78434200D01*
X127811271Y-77674200D02*
X127414200Y-77674200D01*
X130124200Y-80594200D02*
X130124200Y-81864200D01*
X130124200Y-81864200D02*
X128854200Y-81864200D01*
X144177867Y-59819000D02*
X143835333Y-59819000D01*
X144177867Y-58799000D02*
X143835333Y-58799000D01*
X143224067Y-91031600D02*
X142881533Y-91031600D01*
X143224067Y-92051600D02*
X142881533Y-92051600D01*
D12*
X140167400Y-67635800D02*
X144617400Y-67635800D01*
X138642400Y-60735800D02*
X144617400Y-60735800D01*
X139252000Y-92739800D02*
X145227000Y-92739800D01*
X140777000Y-99639800D02*
X145227000Y-99639800D01*
X137414095Y-54824380D02*
X137414095Y-55633904D01*
X137461714Y-55729142D01*
X137509333Y-55776761D01*
X137604571Y-55824380D01*
X137795047Y-55824380D01*
X137890285Y-55776761D01*
X137937904Y-55729142D01*
X137985523Y-55633904D01*
X137985523Y-54824380D01*
X138985523Y-55824380D02*
X138414095Y-55824380D01*
X138699809Y-55824380D02*
X138699809Y-54824380D01*
X138604571Y-54967238D01*
X138509333Y-55062476D01*
X138414095Y-55110095D01*
D13*
X127780126Y-74947986D02*
X127780126Y-75447986D01*
X127746793Y-75547986D01*
X127680126Y-75614653D01*
X127580126Y-75647986D01*
X127513460Y-75647986D01*
X128080126Y-75014653D02*
X128113460Y-74981320D01*
X128180126Y-74947986D01*
X128346793Y-74947986D01*
X128413460Y-74981320D01*
X128446793Y-75014653D01*
X128480126Y-75081320D01*
X128480126Y-75147986D01*
X128446793Y-75247986D01*
X128046793Y-75647986D01*
X128480126Y-75647986D01*
X127767426Y-81844086D02*
X127767426Y-82344086D01*
X127734093Y-82444086D01*
X127667426Y-82510753D01*
X127567426Y-82544086D01*
X127500760Y-82544086D01*
X128467426Y-82544086D02*
X128067426Y-82544086D01*
X128267426Y-82544086D02*
X128267426Y-81844086D01*
X128200760Y-81944086D01*
X128134093Y-82010753D01*
X128067426Y-82044086D01*
D12*
X141260533Y-59107342D02*
X141212914Y-59154961D01*
X141070057Y-59202580D01*
X140974819Y-59202580D01*
X140831961Y-59154961D01*
X140736723Y-59059723D01*
X140689104Y-58964485D01*
X140641485Y-58774009D01*
X140641485Y-58631152D01*
X140689104Y-58440676D01*
X140736723Y-58345438D01*
X140831961Y-58250200D01*
X140974819Y-58202580D01*
X141070057Y-58202580D01*
X141212914Y-58250200D01*
X141260533Y-58297819D01*
X142212914Y-59202580D02*
X141641485Y-59202580D01*
X141927200Y-59202580D02*
X141927200Y-58202580D01*
X141831961Y-58345438D01*
X141736723Y-58440676D01*
X141641485Y-58488295D01*
X145451533Y-91035142D02*
X145403914Y-91082761D01*
X145261057Y-91130380D01*
X145165819Y-91130380D01*
X145022961Y-91082761D01*
X144927723Y-90987523D01*
X144880104Y-90892285D01*
X144832485Y-90701809D01*
X144832485Y-90558952D01*
X144880104Y-90368476D01*
X144927723Y-90273238D01*
X145022961Y-90178000D01*
X145165819Y-90130380D01*
X145261057Y-90130380D01*
X145403914Y-90178000D01*
X145451533Y-90225619D01*
X145832485Y-90225619D02*
X145880104Y-90178000D01*
X145975342Y-90130380D01*
X146213438Y-90130380D01*
X146308676Y-90178000D01*
X146356295Y-90225619D01*
X146403914Y-90320857D01*
X146403914Y-90416095D01*
X146356295Y-90558952D01*
X145784866Y-91130380D01*
X146403914Y-91130380D01*
X137744295Y-59269380D02*
X137744295Y-60078904D01*
X137791914Y-60174142D01*
X137839533Y-60221761D01*
X137934771Y-60269380D01*
X138125247Y-60269380D01*
X138220485Y-60221761D01*
X138268104Y-60174142D01*
X138315723Y-60078904D01*
X138315723Y-59269380D01*
X138744295Y-59364619D02*
X138791914Y-59317000D01*
X138887152Y-59269380D01*
X139125247Y-59269380D01*
X139220485Y-59317000D01*
X139268104Y-59364619D01*
X139315723Y-59459857D01*
X139315723Y-59555095D01*
X139268104Y-59697952D01*
X138696676Y-60269380D01*
X139315723Y-60269380D01*
X138150695Y-91146380D02*
X138150695Y-91955904D01*
X138198314Y-92051142D01*
X138245933Y-92098761D01*
X138341171Y-92146380D01*
X138531647Y-92146380D01*
X138626885Y-92098761D01*
X138674504Y-92051142D01*
X138722123Y-91955904D01*
X138722123Y-91146380D01*
X139103076Y-91146380D02*
X139722123Y-91146380D01*
X139388790Y-91527333D01*
X139531647Y-91527333D01*
X139626885Y-91574952D01*
X139674504Y-91622571D01*
X139722123Y-91717809D01*
X139722123Y-91955904D01*
X139674504Y-92051142D01*
X139626885Y-92098761D01*
X139531647Y-92146380D01*
X139245933Y-92146380D01*
X139150695Y-92098761D01*
X139103076Y-92051142D01*
M02*
