G04 #@! TF.GenerationSoftware,KiCad,Pcbnew,(5.1.4)-1*
G04 #@! TF.CreationDate,2019-11-21T02:33:43+00:00*
G04 #@! TF.ProjectId,analog,616e616c-6f67-42e6-9b69-6361645f7063,rev?*
G04 #@! TF.SameCoordinates,Original*
G04 #@! TF.FileFunction,Legend,Bot*
G04 #@! TF.FilePolarity,Positive*
%FSLAX46Y46*%
G04 Gerber Fmt 4.6, Leading zero omitted, Abs format (unit mm)*
G04 Created by KiCad (PCBNEW (5.1.4)-1) date 2019-11-21 02:33:43*
%MOMM*%
%LPD*%
G04 APERTURE LIST*
%ADD10C,0.120000*%
%ADD11C,0.150000*%
%ADD12C,0.100000*%
G04 APERTURE END LIST*
D10*
X67803447Y-49508464D02*
X67346304Y-49508464D01*
X67574876Y-50308464D02*
X67574876Y-49508464D01*
X67079638Y-50308464D02*
X67079638Y-49508464D01*
X66736780Y-50308464D02*
X66736780Y-49889417D01*
X66774876Y-49813226D01*
X66851066Y-49775131D01*
X66965352Y-49775131D01*
X67041542Y-49813226D01*
X67079638Y-49851321D01*
X66355828Y-50308464D02*
X66355828Y-49775131D01*
X66355828Y-49927512D02*
X66317733Y-49851321D01*
X66279638Y-49813226D01*
X66203447Y-49775131D01*
X66127257Y-49775131D01*
X65555828Y-50270369D02*
X65632019Y-50308464D01*
X65784400Y-50308464D01*
X65860590Y-50270369D01*
X65898685Y-50194179D01*
X65898685Y-49889417D01*
X65860590Y-49813226D01*
X65784400Y-49775131D01*
X65632019Y-49775131D01*
X65555828Y-49813226D01*
X65517733Y-49889417D01*
X65517733Y-49965607D01*
X65898685Y-50041798D01*
X64870114Y-50270369D02*
X64946304Y-50308464D01*
X65098685Y-50308464D01*
X65174876Y-50270369D01*
X65212971Y-50194179D01*
X65212971Y-49889417D01*
X65174876Y-49813226D01*
X65098685Y-49775131D01*
X64946304Y-49775131D01*
X64870114Y-49813226D01*
X64832019Y-49889417D01*
X64832019Y-49965607D01*
X65212971Y-50041798D01*
X63765352Y-50308464D02*
X63841542Y-50270369D01*
X63879638Y-50194179D01*
X63879638Y-49508464D01*
X63155828Y-50270369D02*
X63232019Y-50308464D01*
X63384400Y-50308464D01*
X63460590Y-50270369D01*
X63498685Y-50194179D01*
X63498685Y-49889417D01*
X63460590Y-49813226D01*
X63384400Y-49775131D01*
X63232019Y-49775131D01*
X63155828Y-49813226D01*
X63117733Y-49889417D01*
X63117733Y-49965607D01*
X63498685Y-50041798D01*
X62851066Y-49775131D02*
X62660590Y-50308464D01*
X62470114Y-49775131D01*
X61860590Y-50270369D02*
X61936780Y-50308464D01*
X62089161Y-50308464D01*
X62165352Y-50270369D01*
X62203447Y-50194179D01*
X62203447Y-49889417D01*
X62165352Y-49813226D01*
X62089161Y-49775131D01*
X61936780Y-49775131D01*
X61860590Y-49813226D01*
X61822495Y-49889417D01*
X61822495Y-49965607D01*
X62203447Y-50041798D01*
X61365352Y-50308464D02*
X61441542Y-50270369D01*
X61479638Y-50194179D01*
X61479638Y-49508464D01*
X60108209Y-50308464D02*
X60108209Y-49889417D01*
X60146304Y-49813226D01*
X60222495Y-49775131D01*
X60374876Y-49775131D01*
X60451066Y-49813226D01*
X60108209Y-50270369D02*
X60184400Y-50308464D01*
X60374876Y-50308464D01*
X60451066Y-50270369D01*
X60489161Y-50194179D01*
X60489161Y-50117988D01*
X60451066Y-50041798D01*
X60374876Y-50003702D01*
X60184400Y-50003702D01*
X60108209Y-49965607D01*
X59727257Y-49775131D02*
X59727257Y-50308464D01*
X59727257Y-49851321D02*
X59689161Y-49813226D01*
X59612971Y-49775131D01*
X59498685Y-49775131D01*
X59422495Y-49813226D01*
X59384399Y-49889417D01*
X59384399Y-50308464D01*
X58660590Y-50308464D02*
X58660590Y-49889417D01*
X58698685Y-49813226D01*
X58774876Y-49775131D01*
X58927257Y-49775131D01*
X59003447Y-49813226D01*
X58660590Y-50270369D02*
X58736780Y-50308464D01*
X58927257Y-50308464D01*
X59003447Y-50270369D01*
X59041542Y-50194179D01*
X59041542Y-50117988D01*
X59003447Y-50041798D01*
X58927257Y-50003702D01*
X58736780Y-50003702D01*
X58660590Y-49965607D01*
X58165352Y-50308464D02*
X58241542Y-50270369D01*
X58279638Y-50194179D01*
X58279638Y-49508464D01*
X57746304Y-50308464D02*
X57822495Y-50270369D01*
X57860590Y-50232274D01*
X57898685Y-50156083D01*
X57898685Y-49927512D01*
X57860590Y-49851321D01*
X57822495Y-49813226D01*
X57746304Y-49775131D01*
X57632019Y-49775131D01*
X57555828Y-49813226D01*
X57517733Y-49851321D01*
X57479638Y-49927512D01*
X57479638Y-50156083D01*
X57517733Y-50232274D01*
X57555828Y-50270369D01*
X57632019Y-50308464D01*
X57746304Y-50308464D01*
X56793923Y-49775131D02*
X56793923Y-50422750D01*
X56832019Y-50498940D01*
X56870114Y-50537036D01*
X56946304Y-50575131D01*
X57060590Y-50575131D01*
X57136780Y-50537036D01*
X56793923Y-50270369D02*
X56870114Y-50308464D01*
X57022495Y-50308464D01*
X57098685Y-50270369D01*
X57136780Y-50232274D01*
X57174876Y-50156083D01*
X57174876Y-49927512D01*
X57136780Y-49851321D01*
X57098685Y-49813226D01*
X57022495Y-49775131D01*
X56870114Y-49775131D01*
X56793923Y-49813226D01*
X55346304Y-50308464D02*
X55612971Y-49927512D01*
X55803447Y-50308464D02*
X55803447Y-49508464D01*
X55498685Y-49508464D01*
X55422495Y-49546560D01*
X55384399Y-49584655D01*
X55346304Y-49660845D01*
X55346304Y-49775131D01*
X55384399Y-49851321D01*
X55422495Y-49889417D01*
X55498685Y-49927512D01*
X55803447Y-49927512D01*
X54584399Y-49546560D02*
X54660590Y-49508464D01*
X54774876Y-49508464D01*
X54889161Y-49546560D01*
X54965352Y-49622750D01*
X55003447Y-49698940D01*
X55041542Y-49851321D01*
X55041542Y-49965607D01*
X55003447Y-50117988D01*
X54965352Y-50194179D01*
X54889161Y-50270369D01*
X54774876Y-50308464D01*
X54698685Y-50308464D01*
X54584399Y-50270369D01*
X54546304Y-50232274D01*
X54546304Y-49965607D01*
X54698685Y-49965607D01*
X53936780Y-49889417D02*
X53822495Y-49927512D01*
X53784399Y-49965607D01*
X53746304Y-50041798D01*
X53746304Y-50156083D01*
X53784399Y-50232274D01*
X53822495Y-50270369D01*
X53898685Y-50308464D01*
X54203447Y-50308464D01*
X54203447Y-49508464D01*
X53936780Y-49508464D01*
X53860590Y-49546560D01*
X53822495Y-49584655D01*
X53784399Y-49660845D01*
X53784399Y-49737036D01*
X53822495Y-49813226D01*
X53860590Y-49851321D01*
X53936780Y-49889417D01*
X54203447Y-49889417D01*
X52146304Y-50308464D02*
X52184399Y-50308464D01*
X52260590Y-50270369D01*
X52374876Y-50156083D01*
X52565352Y-49927512D01*
X52641542Y-49813226D01*
X52679638Y-49698940D01*
X52679638Y-49622750D01*
X52641542Y-49546560D01*
X52565352Y-49508464D01*
X52527257Y-49508464D01*
X52451066Y-49546560D01*
X52412971Y-49622750D01*
X52412971Y-49660845D01*
X52451066Y-49737036D01*
X52489161Y-49775131D01*
X52717733Y-49927512D01*
X52755828Y-49965607D01*
X52793923Y-50041798D01*
X52793923Y-50156083D01*
X52755828Y-50232274D01*
X52717733Y-50270369D01*
X52641542Y-50308464D01*
X52527257Y-50308464D01*
X52451066Y-50270369D01*
X52412971Y-50232274D01*
X52298685Y-50079893D01*
X52260590Y-49965607D01*
X52260590Y-49889417D01*
X50851066Y-50270369D02*
X50927257Y-50308464D01*
X51079638Y-50308464D01*
X51155828Y-50270369D01*
X51193923Y-50232274D01*
X51232019Y-50156083D01*
X51232019Y-49927512D01*
X51193923Y-49851321D01*
X51155828Y-49813226D01*
X51079638Y-49775131D01*
X50927257Y-49775131D01*
X50851066Y-49813226D01*
X50393923Y-50308464D02*
X50470114Y-50270369D01*
X50508209Y-50232274D01*
X50546304Y-50156083D01*
X50546304Y-49927512D01*
X50508209Y-49851321D01*
X50470114Y-49813226D01*
X50393923Y-49775131D01*
X50279638Y-49775131D01*
X50203447Y-49813226D01*
X50165352Y-49851321D01*
X50127257Y-49927512D01*
X50127257Y-50156083D01*
X50165352Y-50232274D01*
X50203447Y-50270369D01*
X50279638Y-50308464D01*
X50393923Y-50308464D01*
X49784399Y-50308464D02*
X49784399Y-49775131D01*
X49784399Y-49851321D02*
X49746304Y-49813226D01*
X49670114Y-49775131D01*
X49555828Y-49775131D01*
X49479638Y-49813226D01*
X49441542Y-49889417D01*
X49441542Y-50308464D01*
X49441542Y-49889417D02*
X49403447Y-49813226D01*
X49327257Y-49775131D01*
X49212971Y-49775131D01*
X49136780Y-49813226D01*
X49098685Y-49889417D01*
X49098685Y-50308464D01*
X48717733Y-49775131D02*
X48717733Y-50575131D01*
X48717733Y-49813226D02*
X48641542Y-49775131D01*
X48489161Y-49775131D01*
X48412971Y-49813226D01*
X48374876Y-49851321D01*
X48336780Y-49927512D01*
X48336780Y-50156083D01*
X48374876Y-50232274D01*
X48412971Y-50270369D01*
X48489161Y-50308464D01*
X48641542Y-50308464D01*
X48717733Y-50270369D01*
X47879638Y-50308464D02*
X47955828Y-50270369D01*
X47993923Y-50232274D01*
X48032019Y-50156083D01*
X48032019Y-49927512D01*
X47993923Y-49851321D01*
X47955828Y-49813226D01*
X47879638Y-49775131D01*
X47765352Y-49775131D01*
X47689161Y-49813226D01*
X47651066Y-49851321D01*
X47612971Y-49927512D01*
X47612971Y-50156083D01*
X47651066Y-50232274D01*
X47689161Y-50270369D01*
X47765352Y-50308464D01*
X47879638Y-50308464D01*
X47308209Y-50270369D02*
X47232019Y-50308464D01*
X47079638Y-50308464D01*
X47003447Y-50270369D01*
X46965352Y-50194179D01*
X46965352Y-50156083D01*
X47003447Y-50079893D01*
X47079638Y-50041798D01*
X47193923Y-50041798D01*
X47270114Y-50003702D01*
X47308209Y-49927512D01*
X47308209Y-49889417D01*
X47270114Y-49813226D01*
X47193923Y-49775131D01*
X47079638Y-49775131D01*
X47003447Y-49813226D01*
X46622495Y-50308464D02*
X46622495Y-49775131D01*
X46622495Y-49508464D02*
X46660590Y-49546560D01*
X46622495Y-49584655D01*
X46584399Y-49546560D01*
X46622495Y-49508464D01*
X46622495Y-49584655D01*
X46355828Y-49775131D02*
X46051066Y-49775131D01*
X46241542Y-49508464D02*
X46241542Y-50194179D01*
X46203447Y-50270369D01*
X46127257Y-50308464D01*
X46051066Y-50308464D01*
X45479638Y-50270369D02*
X45555828Y-50308464D01*
X45708209Y-50308464D01*
X45784399Y-50270369D01*
X45822495Y-50194179D01*
X45822495Y-49889417D01*
X45784399Y-49813226D01*
X45708209Y-49775131D01*
X45555828Y-49775131D01*
X45479638Y-49813226D01*
X45441542Y-49889417D01*
X45441542Y-49965607D01*
X45822495Y-50041798D01*
D11*
X65063085Y-46233340D02*
X65063085Y-45233340D01*
X64682133Y-45233340D01*
X64586895Y-45280960D01*
X64539276Y-45328579D01*
X64491657Y-45423817D01*
X64491657Y-45566674D01*
X64539276Y-45661912D01*
X64586895Y-45709531D01*
X64682133Y-45757150D01*
X65063085Y-45757150D01*
X63539276Y-46233340D02*
X64110704Y-46233340D01*
X63824990Y-46233340D02*
X63824990Y-45233340D01*
X63920228Y-45376198D01*
X64015466Y-45471436D01*
X64110704Y-45519055D01*
X63063085Y-46233340D02*
X62872609Y-46233340D01*
X62777371Y-46185721D01*
X62729752Y-46138102D01*
X62634514Y-45995245D01*
X62586895Y-45804769D01*
X62586895Y-45423817D01*
X62634514Y-45328579D01*
X62682133Y-45280960D01*
X62777371Y-45233340D01*
X62967847Y-45233340D01*
X63063085Y-45280960D01*
X63110704Y-45328579D01*
X63158323Y-45423817D01*
X63158323Y-45661912D01*
X63110704Y-45757150D01*
X63063085Y-45804769D01*
X62967847Y-45852388D01*
X62777371Y-45852388D01*
X62682133Y-45804769D01*
X62634514Y-45757150D01*
X62586895Y-45661912D01*
D10*
X69600285Y-53661264D02*
X69600285Y-52861264D01*
X69333619Y-53432693D01*
X69066952Y-52861264D01*
X69066952Y-53661264D01*
X68724095Y-53432693D02*
X68343142Y-53432693D01*
X68800285Y-53661264D02*
X68533619Y-52861264D01*
X68266952Y-53661264D01*
X68076476Y-52861264D02*
X67543142Y-53661264D01*
X67543142Y-52861264D02*
X68076476Y-53661264D01*
X67200285Y-53661264D02*
X67047904Y-53661264D01*
X66971714Y-53623169D01*
X66933619Y-53585074D01*
X66857428Y-53470788D01*
X66819333Y-53318407D01*
X66819333Y-53013645D01*
X66857428Y-52937455D01*
X66895523Y-52899360D01*
X66971714Y-52861264D01*
X67124095Y-52861264D01*
X67200285Y-52899360D01*
X67238380Y-52937455D01*
X67276476Y-53013645D01*
X67276476Y-53204121D01*
X67238380Y-53280312D01*
X67200285Y-53318407D01*
X67124095Y-53356502D01*
X66971714Y-53356502D01*
X66895523Y-53318407D01*
X66857428Y-53280312D01*
X66819333Y-53204121D01*
X66057428Y-53661264D02*
X66514571Y-53661264D01*
X66286000Y-53661264D02*
X66286000Y-52861264D01*
X66362190Y-52975550D01*
X66438380Y-53051740D01*
X66514571Y-53089836D01*
X65371714Y-53127931D02*
X65371714Y-53661264D01*
X65562190Y-52823169D02*
X65752666Y-53394598D01*
X65257428Y-53394598D01*
X64609809Y-53127931D02*
X64609809Y-53661264D01*
X64800285Y-52823169D02*
X64990761Y-53394598D01*
X64495523Y-53394598D01*
X63009809Y-52823169D02*
X63695523Y-53851740D01*
X62133619Y-53661264D02*
X62133619Y-52861264D01*
X61866952Y-53432693D01*
X61600285Y-52861264D01*
X61600285Y-53661264D01*
X61257428Y-53432693D02*
X60876476Y-53432693D01*
X61333619Y-53661264D02*
X61066952Y-52861264D01*
X60800285Y-53661264D01*
X60609809Y-52861264D02*
X60076476Y-53661264D01*
X60076476Y-52861264D02*
X60609809Y-53661264D01*
X59733619Y-53661264D02*
X59581238Y-53661264D01*
X59505047Y-53623169D01*
X59466952Y-53585074D01*
X59390761Y-53470788D01*
X59352666Y-53318407D01*
X59352666Y-53013645D01*
X59390761Y-52937455D01*
X59428857Y-52899360D01*
X59505047Y-52861264D01*
X59657428Y-52861264D01*
X59733619Y-52899360D01*
X59771714Y-52937455D01*
X59809809Y-53013645D01*
X59809809Y-53204121D01*
X59771714Y-53280312D01*
X59733619Y-53318407D01*
X59657428Y-53356502D01*
X59505047Y-53356502D01*
X59428857Y-53318407D01*
X59390761Y-53280312D01*
X59352666Y-53204121D01*
X58590761Y-53661264D02*
X59047904Y-53661264D01*
X58819333Y-53661264D02*
X58819333Y-52861264D01*
X58895523Y-52975550D01*
X58971714Y-53051740D01*
X59047904Y-53089836D01*
X58095523Y-52861264D02*
X58019333Y-52861264D01*
X57943142Y-52899360D01*
X57905047Y-52937455D01*
X57866952Y-53013645D01*
X57828857Y-53166026D01*
X57828857Y-53356502D01*
X57866952Y-53508883D01*
X57905047Y-53585074D01*
X57943142Y-53623169D01*
X58019333Y-53661264D01*
X58095523Y-53661264D01*
X58171714Y-53623169D01*
X58209809Y-53585074D01*
X58247904Y-53508883D01*
X58286000Y-53356502D01*
X58286000Y-53166026D01*
X58247904Y-53013645D01*
X58209809Y-52937455D01*
X58171714Y-52899360D01*
X58095523Y-52861264D01*
X57371714Y-53204121D02*
X57447904Y-53166026D01*
X57486000Y-53127931D01*
X57524095Y-53051740D01*
X57524095Y-53013645D01*
X57486000Y-52937455D01*
X57447904Y-52899360D01*
X57371714Y-52861264D01*
X57219333Y-52861264D01*
X57143142Y-52899360D01*
X57105047Y-52937455D01*
X57066952Y-53013645D01*
X57066952Y-53051740D01*
X57105047Y-53127931D01*
X57143142Y-53166026D01*
X57219333Y-53204121D01*
X57371714Y-53204121D01*
X57447904Y-53242217D01*
X57486000Y-53280312D01*
X57524095Y-53356502D01*
X57524095Y-53508883D01*
X57486000Y-53585074D01*
X57447904Y-53623169D01*
X57371714Y-53661264D01*
X57219333Y-53661264D01*
X57143142Y-53623169D01*
X57105047Y-53585074D01*
X57066952Y-53508883D01*
X57066952Y-53356502D01*
X57105047Y-53280312D01*
X57143142Y-53242217D01*
X57219333Y-53204121D01*
X56114571Y-53661264D02*
X56114571Y-52861264D01*
X55771714Y-53623169D02*
X55695523Y-53661264D01*
X55543142Y-53661264D01*
X55466952Y-53623169D01*
X55428857Y-53546979D01*
X55428857Y-53508883D01*
X55466952Y-53432693D01*
X55543142Y-53394598D01*
X55657428Y-53394598D01*
X55733619Y-53356502D01*
X55771714Y-53280312D01*
X55771714Y-53242217D01*
X55733619Y-53166026D01*
X55657428Y-53127931D01*
X55543142Y-53127931D01*
X55466952Y-53166026D01*
X55124095Y-53623169D02*
X55047904Y-53661264D01*
X54895523Y-53661264D01*
X54819333Y-53623169D01*
X54781238Y-53546979D01*
X54781238Y-53508883D01*
X54819333Y-53432693D01*
X54895523Y-53394598D01*
X55009809Y-53394598D01*
X55086000Y-53356502D01*
X55124095Y-53280312D01*
X55124095Y-53242217D01*
X55086000Y-53166026D01*
X55009809Y-53127931D01*
X54895523Y-53127931D01*
X54819333Y-53166026D01*
X54095523Y-53127931D02*
X54095523Y-53661264D01*
X54438380Y-53127931D02*
X54438380Y-53546979D01*
X54400285Y-53623169D01*
X54324095Y-53661264D01*
X54209809Y-53661264D01*
X54133619Y-53623169D01*
X54095523Y-53585074D01*
X53409809Y-53623169D02*
X53486000Y-53661264D01*
X53638380Y-53661264D01*
X53714571Y-53623169D01*
X53752666Y-53546979D01*
X53752666Y-53242217D01*
X53714571Y-53166026D01*
X53638380Y-53127931D01*
X53486000Y-53127931D01*
X53409809Y-53166026D01*
X53371714Y-53242217D01*
X53371714Y-53318407D01*
X53752666Y-53394598D01*
X52000285Y-53661264D02*
X52457428Y-53661264D01*
X52228857Y-53661264D02*
X52228857Y-52861264D01*
X52305047Y-52975550D01*
X52381238Y-53051740D01*
X52457428Y-53089836D01*
X50400285Y-53051740D02*
X50476476Y-53013645D01*
X50628857Y-53013645D01*
X50705047Y-53051740D01*
X50781238Y-53127931D01*
X50819333Y-53204121D01*
X50819333Y-53356502D01*
X50781238Y-53432693D01*
X50705047Y-53508883D01*
X50628857Y-53546979D01*
X50476476Y-53546979D01*
X50400285Y-53508883D01*
X50552666Y-52746979D02*
X50743142Y-52785074D01*
X50933619Y-52899360D01*
X51047904Y-53089836D01*
X51086000Y-53280312D01*
X51047904Y-53470788D01*
X50933619Y-53661264D01*
X50743142Y-53775550D01*
X50552666Y-53813645D01*
X50362190Y-53775550D01*
X50171714Y-53661264D01*
X50057428Y-53470788D01*
X50019333Y-53280312D01*
X50057428Y-53089836D01*
X50171714Y-52899360D01*
X50362190Y-52785074D01*
X50552666Y-52746979D01*
X49714571Y-52937455D02*
X49676476Y-52899360D01*
X49600285Y-52861264D01*
X49409809Y-52861264D01*
X49333619Y-52899360D01*
X49295523Y-52937455D01*
X49257428Y-53013645D01*
X49257428Y-53089836D01*
X49295523Y-53204121D01*
X49752666Y-53661264D01*
X49257428Y-53661264D01*
X48762190Y-52861264D02*
X48686000Y-52861264D01*
X48609809Y-52899360D01*
X48571714Y-52937455D01*
X48533619Y-53013645D01*
X48495523Y-53166026D01*
X48495523Y-53356502D01*
X48533619Y-53508883D01*
X48571714Y-53585074D01*
X48609809Y-53623169D01*
X48686000Y-53661264D01*
X48762190Y-53661264D01*
X48838380Y-53623169D01*
X48876476Y-53585074D01*
X48914571Y-53508883D01*
X48952666Y-53356502D01*
X48952666Y-53166026D01*
X48914571Y-53013645D01*
X48876476Y-52937455D01*
X48838380Y-52899360D01*
X48762190Y-52861264D01*
X47733619Y-53661264D02*
X48190761Y-53661264D01*
X47962190Y-53661264D02*
X47962190Y-52861264D01*
X48038380Y-52975550D01*
X48114571Y-53051740D01*
X48190761Y-53089836D01*
X47352666Y-53661264D02*
X47200285Y-53661264D01*
X47124095Y-53623169D01*
X47086000Y-53585074D01*
X47009809Y-53470788D01*
X46971714Y-53318407D01*
X46971714Y-53013645D01*
X47009809Y-52937455D01*
X47047904Y-52899360D01*
X47124095Y-52861264D01*
X47276476Y-52861264D01*
X47352666Y-52899360D01*
X47390761Y-52937455D01*
X47428857Y-53013645D01*
X47428857Y-53204121D01*
X47390761Y-53280312D01*
X47352666Y-53318407D01*
X47276476Y-53356502D01*
X47124095Y-53356502D01*
X47047904Y-53318407D01*
X47009809Y-53280312D01*
X46971714Y-53204121D01*
X46019333Y-53661264D02*
X46019333Y-52861264D01*
X45295523Y-53661264D02*
X45295523Y-53242217D01*
X45333619Y-53166026D01*
X45409809Y-53127931D01*
X45562190Y-53127931D01*
X45638380Y-53166026D01*
X45295523Y-53623169D02*
X45371714Y-53661264D01*
X45562190Y-53661264D01*
X45638380Y-53623169D01*
X45676476Y-53546979D01*
X45676476Y-53470788D01*
X45638380Y-53394598D01*
X45562190Y-53356502D01*
X45371714Y-53356502D01*
X45295523Y-53318407D01*
X44914571Y-53127931D02*
X44914571Y-53661264D01*
X44914571Y-53204121D02*
X44876476Y-53166026D01*
X44800285Y-53127931D01*
X44686000Y-53127931D01*
X44609809Y-53166026D01*
X44571714Y-53242217D01*
X44571714Y-53661264D01*
X43924095Y-53242217D02*
X43809809Y-53280312D01*
X43771714Y-53318407D01*
X43733619Y-53394598D01*
X43733619Y-53508883D01*
X43771714Y-53585074D01*
X43809809Y-53623169D01*
X43886000Y-53661264D01*
X44190761Y-53661264D01*
X44190761Y-52861264D01*
X43924095Y-52861264D01*
X43847904Y-52899360D01*
X43809809Y-52937455D01*
X43771714Y-53013645D01*
X43771714Y-53089836D01*
X43809809Y-53166026D01*
X43847904Y-53204121D01*
X43924095Y-53242217D01*
X44190761Y-53242217D01*
D12*
X70426942Y-42865960D02*
X70498371Y-42830245D01*
X70605514Y-42830245D01*
X70712657Y-42865960D01*
X70784085Y-42937388D01*
X70819800Y-43008817D01*
X70855514Y-43151674D01*
X70855514Y-43258817D01*
X70819800Y-43401674D01*
X70784085Y-43473102D01*
X70712657Y-43544531D01*
X70605514Y-43580245D01*
X70534085Y-43580245D01*
X70426942Y-43544531D01*
X70391228Y-43508817D01*
X70391228Y-43258817D01*
X70534085Y-43258817D01*
X70069800Y-43080245D02*
X70069800Y-43580245D01*
X70069800Y-43151674D02*
X70034085Y-43115960D01*
X69962657Y-43080245D01*
X69855514Y-43080245D01*
X69784085Y-43115960D01*
X69748371Y-43187388D01*
X69748371Y-43580245D01*
X69069800Y-43580245D02*
X69069800Y-42830245D01*
X69069800Y-43544531D02*
X69141228Y-43580245D01*
X69284085Y-43580245D01*
X69355514Y-43544531D01*
X69391228Y-43508817D01*
X69426942Y-43437388D01*
X69426942Y-43223102D01*
X69391228Y-43151674D01*
X69355514Y-43115960D01*
X69284085Y-43080245D01*
X69141228Y-43080245D01*
X69069800Y-43115960D01*
X70851514Y-42299931D02*
X70744371Y-42335645D01*
X70565800Y-42335645D01*
X70494371Y-42299931D01*
X70458657Y-42264217D01*
X70422942Y-42192788D01*
X70422942Y-42121360D01*
X70458657Y-42049931D01*
X70494371Y-42014217D01*
X70565800Y-41978502D01*
X70708657Y-41942788D01*
X70780085Y-41907074D01*
X70815800Y-41871360D01*
X70851514Y-41799931D01*
X70851514Y-41728502D01*
X70815800Y-41657074D01*
X70780085Y-41621360D01*
X70708657Y-41585645D01*
X70530085Y-41585645D01*
X70422942Y-41621360D01*
X70172942Y-41835645D02*
X69994371Y-42335645D01*
X69815800Y-41835645D02*
X69994371Y-42335645D01*
X70065800Y-42514217D01*
X70101514Y-42549931D01*
X70172942Y-42585645D01*
X69530085Y-41835645D02*
X69530085Y-42335645D01*
X69530085Y-41907074D02*
X69494371Y-41871360D01*
X69422942Y-41835645D01*
X69315800Y-41835645D01*
X69244371Y-41871360D01*
X69208657Y-41942788D01*
X69208657Y-42335645D01*
X68530085Y-42299931D02*
X68601514Y-42335645D01*
X68744371Y-42335645D01*
X68815800Y-42299931D01*
X68851514Y-42264217D01*
X68887228Y-42192788D01*
X68887228Y-41978502D01*
X68851514Y-41907074D01*
X68815800Y-41871360D01*
X68744371Y-41835645D01*
X68601514Y-41835645D01*
X68530085Y-41871360D01*
X70373371Y-38728845D02*
X70623371Y-38371702D01*
X70801942Y-38728845D02*
X70801942Y-37978845D01*
X70516228Y-37978845D01*
X70444800Y-38014560D01*
X70409085Y-38050274D01*
X70373371Y-38121702D01*
X70373371Y-38228845D01*
X70409085Y-38300274D01*
X70444800Y-38335988D01*
X70516228Y-38371702D01*
X70801942Y-38371702D01*
X69766228Y-38693131D02*
X69837657Y-38728845D01*
X69980514Y-38728845D01*
X70051942Y-38693131D01*
X70087657Y-38621702D01*
X70087657Y-38335988D01*
X70051942Y-38264560D01*
X69980514Y-38228845D01*
X69837657Y-38228845D01*
X69766228Y-38264560D01*
X69730514Y-38335988D01*
X69730514Y-38407417D01*
X70087657Y-38478845D01*
X69087657Y-38728845D02*
X69087657Y-37978845D01*
X69087657Y-38693131D02*
X69159085Y-38728845D01*
X69301942Y-38728845D01*
X69373371Y-38693131D01*
X69409085Y-38657417D01*
X69444800Y-38585988D01*
X69444800Y-38371702D01*
X69409085Y-38300274D01*
X69373371Y-38264560D01*
X69301942Y-38228845D01*
X69159085Y-38228845D01*
X69087657Y-38264560D01*
X70429257Y-39132160D02*
X70500685Y-39096445D01*
X70607828Y-39096445D01*
X70714971Y-39132160D01*
X70786400Y-39203588D01*
X70822114Y-39275017D01*
X70857828Y-39417874D01*
X70857828Y-39525017D01*
X70822114Y-39667874D01*
X70786400Y-39739302D01*
X70714971Y-39810731D01*
X70607828Y-39846445D01*
X70536400Y-39846445D01*
X70429257Y-39810731D01*
X70393542Y-39775017D01*
X70393542Y-39525017D01*
X70536400Y-39525017D01*
X70072114Y-39846445D02*
X70072114Y-39346445D01*
X70072114Y-39489302D02*
X70036400Y-39417874D01*
X70000685Y-39382160D01*
X69929257Y-39346445D01*
X69857828Y-39346445D01*
X69322114Y-39810731D02*
X69393542Y-39846445D01*
X69536400Y-39846445D01*
X69607828Y-39810731D01*
X69643542Y-39739302D01*
X69643542Y-39453588D01*
X69607828Y-39382160D01*
X69536400Y-39346445D01*
X69393542Y-39346445D01*
X69322114Y-39382160D01*
X69286400Y-39453588D01*
X69286400Y-39525017D01*
X69643542Y-39596445D01*
X68679257Y-39810731D02*
X68750685Y-39846445D01*
X68893542Y-39846445D01*
X68964971Y-39810731D01*
X69000685Y-39739302D01*
X69000685Y-39453588D01*
X68964971Y-39382160D01*
X68893542Y-39346445D01*
X68750685Y-39346445D01*
X68679257Y-39382160D01*
X68643542Y-39453588D01*
X68643542Y-39525017D01*
X69000685Y-39596445D01*
X68322114Y-39346445D02*
X68322114Y-39846445D01*
X68322114Y-39417874D02*
X68286400Y-39382160D01*
X68214971Y-39346445D01*
X68107828Y-39346445D01*
X68036400Y-39382160D01*
X68000685Y-39453588D01*
X68000685Y-39846445D01*
X70595971Y-40748988D02*
X70488828Y-40784702D01*
X70453114Y-40820417D01*
X70417400Y-40891845D01*
X70417400Y-40998988D01*
X70453114Y-41070417D01*
X70488828Y-41106131D01*
X70560257Y-41141845D01*
X70845971Y-41141845D01*
X70845971Y-40391845D01*
X70595971Y-40391845D01*
X70524542Y-40427560D01*
X70488828Y-40463274D01*
X70453114Y-40534702D01*
X70453114Y-40606131D01*
X70488828Y-40677560D01*
X70524542Y-40713274D01*
X70595971Y-40748988D01*
X70845971Y-40748988D01*
X69988828Y-41141845D02*
X70060257Y-41106131D01*
X70095971Y-41034702D01*
X70095971Y-40391845D01*
X69381685Y-40641845D02*
X69381685Y-41141845D01*
X69703114Y-40641845D02*
X69703114Y-41034702D01*
X69667400Y-41106131D01*
X69595971Y-41141845D01*
X69488828Y-41141845D01*
X69417400Y-41106131D01*
X69381685Y-41070417D01*
X68738828Y-41106131D02*
X68810257Y-41141845D01*
X68953114Y-41141845D01*
X69024542Y-41106131D01*
X69060257Y-41034702D01*
X69060257Y-40748988D01*
X69024542Y-40677560D01*
X68953114Y-40641845D01*
X68810257Y-40641845D01*
X68738828Y-40677560D01*
X68703114Y-40748988D01*
X68703114Y-40820417D01*
X69060257Y-40891845D01*
D11*
X65066266Y-43645721D02*
X64923409Y-43693340D01*
X64685314Y-43693340D01*
X64590076Y-43645721D01*
X64542457Y-43598102D01*
X64494838Y-43502864D01*
X64494838Y-43407626D01*
X64542457Y-43312388D01*
X64590076Y-43264769D01*
X64685314Y-43217150D01*
X64875790Y-43169531D01*
X64971028Y-43121912D01*
X65018647Y-43074293D01*
X65066266Y-42979055D01*
X65066266Y-42883817D01*
X65018647Y-42788579D01*
X64971028Y-42740960D01*
X64875790Y-42693340D01*
X64637695Y-42693340D01*
X64494838Y-42740960D01*
X64209123Y-42693340D02*
X63637695Y-42693340D01*
X63923409Y-43693340D02*
X63923409Y-42693340D01*
X62971028Y-43169531D02*
X62828171Y-43217150D01*
X62780552Y-43264769D01*
X62732933Y-43360007D01*
X62732933Y-43502864D01*
X62780552Y-43598102D01*
X62828171Y-43645721D01*
X62923409Y-43693340D01*
X63304361Y-43693340D01*
X63304361Y-42693340D01*
X62971028Y-42693340D01*
X62875790Y-42740960D01*
X62828171Y-42788579D01*
X62780552Y-42883817D01*
X62780552Y-42979055D01*
X62828171Y-43074293D01*
X62875790Y-43121912D01*
X62971028Y-43169531D01*
X63304361Y-43169531D01*
X64469438Y-41058102D02*
X64517057Y-41105721D01*
X64659914Y-41153340D01*
X64755152Y-41153340D01*
X64898009Y-41105721D01*
X64993247Y-41010483D01*
X65040866Y-40915245D01*
X65088485Y-40724769D01*
X65088485Y-40581912D01*
X65040866Y-40391436D01*
X64993247Y-40296198D01*
X64898009Y-40200960D01*
X64755152Y-40153340D01*
X64659914Y-40153340D01*
X64517057Y-40200960D01*
X64469438Y-40248579D01*
X63564676Y-41153340D02*
X64040866Y-41153340D01*
X64040866Y-40153340D01*
X63231342Y-41153340D02*
X63231342Y-40153340D01*
X62659914Y-41153340D02*
X63088485Y-40581912D01*
X62659914Y-40153340D02*
X63231342Y-40724769D01*
X65072628Y-38638740D02*
X65072628Y-37638740D01*
X64834533Y-37638740D01*
X64691676Y-37686360D01*
X64596438Y-37781598D01*
X64548819Y-37876836D01*
X64501200Y-38067312D01*
X64501200Y-38210169D01*
X64548819Y-38400645D01*
X64596438Y-38495883D01*
X64691676Y-38591121D01*
X64834533Y-38638740D01*
X65072628Y-38638740D01*
X64120247Y-38353026D02*
X63644057Y-38353026D01*
X64215485Y-38638740D02*
X63882152Y-37638740D01*
X63548819Y-38638740D01*
X63358342Y-37638740D02*
X62786914Y-37638740D01*
X63072628Y-38638740D02*
X63072628Y-37638740D01*
D10*
X67289171Y-52010264D02*
X67289171Y-51476931D01*
X67289171Y-51553121D02*
X67251076Y-51515026D01*
X67174885Y-51476931D01*
X67060600Y-51476931D01*
X66984409Y-51515026D01*
X66946314Y-51591217D01*
X66946314Y-52010264D01*
X66946314Y-51591217D02*
X66908219Y-51515026D01*
X66832028Y-51476931D01*
X66717742Y-51476931D01*
X66641552Y-51515026D01*
X66603457Y-51591217D01*
X66603457Y-52010264D01*
X66108219Y-52010264D02*
X66184409Y-51972169D01*
X66222504Y-51934074D01*
X66260600Y-51857883D01*
X66260600Y-51629312D01*
X66222504Y-51553121D01*
X66184409Y-51515026D01*
X66108219Y-51476931D01*
X65993933Y-51476931D01*
X65917742Y-51515026D01*
X65879647Y-51553121D01*
X65841552Y-51629312D01*
X65841552Y-51857883D01*
X65879647Y-51934074D01*
X65917742Y-51972169D01*
X65993933Y-52010264D01*
X66108219Y-52010264D01*
X65498695Y-51476931D02*
X65498695Y-52010264D01*
X65498695Y-51553121D02*
X65460600Y-51515026D01*
X65384409Y-51476931D01*
X65270123Y-51476931D01*
X65193933Y-51515026D01*
X65155838Y-51591217D01*
X65155838Y-52010264D01*
X64660600Y-52010264D02*
X64736790Y-51972169D01*
X64774885Y-51934074D01*
X64812980Y-51857883D01*
X64812980Y-51629312D01*
X64774885Y-51553121D01*
X64736790Y-51515026D01*
X64660600Y-51476931D01*
X64546314Y-51476931D01*
X64470123Y-51515026D01*
X64432028Y-51553121D01*
X64393933Y-51629312D01*
X64393933Y-51857883D01*
X64432028Y-51934074D01*
X64470123Y-51972169D01*
X64546314Y-52010264D01*
X64660600Y-52010264D01*
X63708219Y-51972169D02*
X63784409Y-52010264D01*
X63936790Y-52010264D01*
X64012980Y-51972169D01*
X64051076Y-51934074D01*
X64089171Y-51857883D01*
X64089171Y-51629312D01*
X64051076Y-51553121D01*
X64012980Y-51515026D01*
X63936790Y-51476931D01*
X63784409Y-51476931D01*
X63708219Y-51515026D01*
X63365361Y-52010264D02*
X63365361Y-51210264D01*
X63022504Y-52010264D02*
X63022504Y-51591217D01*
X63060600Y-51515026D01*
X63136790Y-51476931D01*
X63251076Y-51476931D01*
X63327266Y-51515026D01*
X63365361Y-51553121D01*
X62641552Y-52010264D02*
X62641552Y-51476931D01*
X62641552Y-51629312D02*
X62603457Y-51553121D01*
X62565361Y-51515026D01*
X62489171Y-51476931D01*
X62412980Y-51476931D01*
X62032028Y-52010264D02*
X62108219Y-51972169D01*
X62146314Y-51934074D01*
X62184409Y-51857883D01*
X62184409Y-51629312D01*
X62146314Y-51553121D01*
X62108219Y-51515026D01*
X62032028Y-51476931D01*
X61917742Y-51476931D01*
X61841552Y-51515026D01*
X61803457Y-51553121D01*
X61765361Y-51629312D01*
X61765361Y-51857883D01*
X61803457Y-51934074D01*
X61841552Y-51972169D01*
X61917742Y-52010264D01*
X62032028Y-52010264D01*
X61422504Y-52010264D02*
X61422504Y-51476931D01*
X61422504Y-51553121D02*
X61384409Y-51515026D01*
X61308219Y-51476931D01*
X61193933Y-51476931D01*
X61117742Y-51515026D01*
X61079647Y-51591217D01*
X61079647Y-52010264D01*
X61079647Y-51591217D02*
X61041552Y-51515026D01*
X60965361Y-51476931D01*
X60851076Y-51476931D01*
X60774885Y-51515026D01*
X60736790Y-51591217D01*
X60736790Y-52010264D01*
X60051076Y-51972169D02*
X60127266Y-52010264D01*
X60279647Y-52010264D01*
X60355838Y-51972169D01*
X60393933Y-51895979D01*
X60393933Y-51591217D01*
X60355838Y-51515026D01*
X60279647Y-51476931D01*
X60127266Y-51476931D01*
X60051076Y-51515026D01*
X60012980Y-51591217D01*
X60012980Y-51667407D01*
X60393933Y-51743598D01*
X59060600Y-52010264D02*
X59060600Y-51476931D01*
X59060600Y-51210264D02*
X59098695Y-51248360D01*
X59060600Y-51286455D01*
X59022504Y-51248360D01*
X59060600Y-51210264D01*
X59060600Y-51286455D01*
X58679647Y-51476931D02*
X58679647Y-52010264D01*
X58679647Y-51553121D02*
X58641552Y-51515026D01*
X58565361Y-51476931D01*
X58451076Y-51476931D01*
X58374885Y-51515026D01*
X58336790Y-51591217D01*
X58336790Y-52010264D01*
X58070123Y-51476931D02*
X57765361Y-51476931D01*
X57955838Y-51210264D02*
X57955838Y-51895979D01*
X57917742Y-51972169D01*
X57841552Y-52010264D01*
X57765361Y-52010264D01*
X57193933Y-51972169D02*
X57270123Y-52010264D01*
X57422504Y-52010264D01*
X57498695Y-51972169D01*
X57536790Y-51895979D01*
X57536790Y-51591217D01*
X57498695Y-51515026D01*
X57422504Y-51476931D01*
X57270123Y-51476931D01*
X57193933Y-51515026D01*
X57155838Y-51591217D01*
X57155838Y-51667407D01*
X57536790Y-51743598D01*
X56812980Y-52010264D02*
X56812980Y-51476931D01*
X56812980Y-51629312D02*
X56774885Y-51553121D01*
X56736790Y-51515026D01*
X56660600Y-51476931D01*
X56584409Y-51476931D01*
X56432028Y-51476931D02*
X56127266Y-51476931D01*
X56317742Y-52010264D02*
X56317742Y-51324550D01*
X56279647Y-51248360D01*
X56203457Y-51210264D01*
X56127266Y-51210264D01*
X55517742Y-52010264D02*
X55517742Y-51591217D01*
X55555838Y-51515026D01*
X55632028Y-51476931D01*
X55784409Y-51476931D01*
X55860600Y-51515026D01*
X55517742Y-51972169D02*
X55593933Y-52010264D01*
X55784409Y-52010264D01*
X55860600Y-51972169D01*
X55898695Y-51895979D01*
X55898695Y-51819788D01*
X55860600Y-51743598D01*
X55784409Y-51705502D01*
X55593933Y-51705502D01*
X55517742Y-51667407D01*
X54793933Y-51972169D02*
X54870123Y-52010264D01*
X55022504Y-52010264D01*
X55098695Y-51972169D01*
X55136790Y-51934074D01*
X55174885Y-51857883D01*
X55174885Y-51629312D01*
X55136790Y-51553121D01*
X55098695Y-51515026D01*
X55022504Y-51476931D01*
X54870123Y-51476931D01*
X54793933Y-51515026D01*
X54146314Y-51972169D02*
X54222504Y-52010264D01*
X54374885Y-52010264D01*
X54451076Y-51972169D01*
X54489171Y-51895979D01*
X54489171Y-51591217D01*
X54451076Y-51515026D01*
X54374885Y-51476931D01*
X54222504Y-51476931D01*
X54146314Y-51515026D01*
X54108219Y-51591217D01*
X54108219Y-51667407D01*
X54489171Y-51743598D01*
X53270123Y-51476931D02*
X52965361Y-51476931D01*
X53155838Y-52010264D02*
X53155838Y-51324550D01*
X53117742Y-51248360D01*
X53041552Y-51210264D01*
X52965361Y-51210264D01*
X52584409Y-52010264D02*
X52660600Y-51972169D01*
X52698695Y-51934074D01*
X52736790Y-51857883D01*
X52736790Y-51629312D01*
X52698695Y-51553121D01*
X52660600Y-51515026D01*
X52584409Y-51476931D01*
X52470123Y-51476931D01*
X52393933Y-51515026D01*
X52355838Y-51553121D01*
X52317742Y-51629312D01*
X52317742Y-51857883D01*
X52355838Y-51934074D01*
X52393933Y-51972169D01*
X52470123Y-52010264D01*
X52584409Y-52010264D01*
X51974885Y-52010264D02*
X51974885Y-51476931D01*
X51974885Y-51629312D02*
X51936790Y-51553121D01*
X51898695Y-51515026D01*
X51822504Y-51476931D01*
X51746314Y-51476931D01*
X50412980Y-52010264D02*
X50679647Y-51629312D01*
X50870123Y-52010264D02*
X50870123Y-51210264D01*
X50565361Y-51210264D01*
X50489171Y-51248360D01*
X50451076Y-51286455D01*
X50412980Y-51362645D01*
X50412980Y-51476931D01*
X50451076Y-51553121D01*
X50489171Y-51591217D01*
X50565361Y-51629312D01*
X50870123Y-51629312D01*
X49651076Y-51248360D02*
X49727266Y-51210264D01*
X49841552Y-51210264D01*
X49955838Y-51248360D01*
X50032028Y-51324550D01*
X50070123Y-51400740D01*
X50108219Y-51553121D01*
X50108219Y-51667407D01*
X50070123Y-51819788D01*
X50032028Y-51895979D01*
X49955838Y-51972169D01*
X49841552Y-52010264D01*
X49765361Y-52010264D01*
X49651076Y-51972169D01*
X49612980Y-51934074D01*
X49612980Y-51667407D01*
X49765361Y-51667407D01*
X49003457Y-51591217D02*
X48889171Y-51629312D01*
X48851076Y-51667407D01*
X48812980Y-51743598D01*
X48812980Y-51857883D01*
X48851076Y-51934074D01*
X48889171Y-51972169D01*
X48965361Y-52010264D01*
X49270123Y-52010264D01*
X49270123Y-51210264D01*
X49003457Y-51210264D01*
X48927266Y-51248360D01*
X48889171Y-51286455D01*
X48851076Y-51362645D01*
X48851076Y-51438836D01*
X48889171Y-51515026D01*
X48927266Y-51553121D01*
X49003457Y-51591217D01*
X49270123Y-51591217D01*
X48584409Y-51476931D02*
X48279647Y-51476931D01*
X48470123Y-51210264D02*
X48470123Y-51895979D01*
X48432028Y-51972169D01*
X48355838Y-52010264D01*
X48279647Y-52010264D01*
X47898695Y-52010264D02*
X47974885Y-51972169D01*
X48012980Y-51934074D01*
X48051076Y-51857883D01*
X48051076Y-51629312D01*
X48012980Y-51553121D01*
X47974885Y-51515026D01*
X47898695Y-51476931D01*
X47784409Y-51476931D01*
X47708219Y-51515026D01*
X47670123Y-51553121D01*
X47632028Y-51629312D01*
X47632028Y-51857883D01*
X47670123Y-51934074D01*
X47708219Y-51972169D01*
X47784409Y-52010264D01*
X47898695Y-52010264D01*
X47289171Y-52010264D02*
X47289171Y-51210264D01*
X47289171Y-51591217D02*
X46832028Y-51591217D01*
X46832028Y-52010264D02*
X46832028Y-51210264D01*
X46451076Y-52010264D02*
X46451076Y-51210264D01*
X46260600Y-51210264D01*
X46146314Y-51248360D01*
X46070123Y-51324550D01*
X46032028Y-51400740D01*
X45993933Y-51553121D01*
X45993933Y-51667407D01*
X46032028Y-51819788D01*
X46070123Y-51895979D01*
X46146314Y-51972169D01*
X46260600Y-52010264D01*
X46451076Y-52010264D01*
X74710800Y-44984360D02*
X77370800Y-44984360D01*
X74710800Y-45044360D02*
X74710800Y-44984360D01*
X77370800Y-45044360D02*
X77370800Y-44984360D01*
X74710800Y-45044360D02*
X77370800Y-45044360D01*
X74710800Y-46314360D02*
X74710800Y-47644360D01*
X74710800Y-47644360D02*
X76040800Y-47644360D01*
X74710800Y-33859160D02*
X77370800Y-33859160D01*
X74710800Y-33919160D02*
X74710800Y-33859160D01*
X77370800Y-33919160D02*
X77370800Y-33859160D01*
X74710800Y-33919160D02*
X77370800Y-33919160D01*
X74710800Y-35189160D02*
X74710800Y-36519160D01*
X74710800Y-36519160D02*
X76040800Y-36519160D01*
X31014000Y-34228760D02*
X31014000Y-34828760D01*
X34464000Y-33528760D02*
X31664000Y-33528760D01*
X35114000Y-34828760D02*
X35114000Y-34228760D01*
X31664000Y-35528760D02*
X34464000Y-35528760D01*
X34414000Y-35528760D02*
G75*
G03X35114000Y-34828760I0J700000D01*
G01*
X35114000Y-34228760D02*
G75*
G03X34414000Y-33528760I-700000J0D01*
G01*
X31714000Y-33528760D02*
G75*
G03X31014000Y-34228760I0J-700000D01*
G01*
X31014000Y-34828760D02*
G75*
G03X31714000Y-35528760I700000J0D01*
G01*
D11*
X74511980Y-45601664D02*
X73511980Y-45601664D01*
X73511980Y-45982617D01*
X73559600Y-46077855D01*
X73607219Y-46125474D01*
X73702457Y-46173093D01*
X73845314Y-46173093D01*
X73940552Y-46125474D01*
X73988171Y-46077855D01*
X74035790Y-45982617D01*
X74035790Y-45601664D01*
X73511980Y-47030236D02*
X73511980Y-46839760D01*
X73559600Y-46744521D01*
X73607219Y-46696902D01*
X73750076Y-46601664D01*
X73940552Y-46554045D01*
X74321504Y-46554045D01*
X74416742Y-46601664D01*
X74464361Y-46649283D01*
X74511980Y-46744521D01*
X74511980Y-46934998D01*
X74464361Y-47030236D01*
X74416742Y-47077855D01*
X74321504Y-47125474D01*
X74083409Y-47125474D01*
X73988171Y-47077855D01*
X73940552Y-47030236D01*
X73892933Y-46934998D01*
X73892933Y-46744521D01*
X73940552Y-46649283D01*
X73988171Y-46601664D01*
X74083409Y-46554045D01*
X74486580Y-34374864D02*
X73486580Y-34374864D01*
X73486580Y-34755817D01*
X73534200Y-34851055D01*
X73581819Y-34898674D01*
X73677057Y-34946293D01*
X73819914Y-34946293D01*
X73915152Y-34898674D01*
X73962771Y-34851055D01*
X74010390Y-34755817D01*
X74010390Y-34374864D01*
X73486580Y-35279626D02*
X73486580Y-35946293D01*
X74486580Y-35517721D01*
X33897333Y-35781140D02*
X33897333Y-36495426D01*
X33944952Y-36638283D01*
X34040190Y-36733521D01*
X34183047Y-36781140D01*
X34278285Y-36781140D01*
X33421142Y-36781140D02*
X33421142Y-35781140D01*
X33040190Y-35781140D01*
X32944952Y-35828760D01*
X32897333Y-35876379D01*
X32849714Y-35971617D01*
X32849714Y-36114474D01*
X32897333Y-36209712D01*
X32944952Y-36257331D01*
X33040190Y-36304950D01*
X33421142Y-36304950D01*
X31992571Y-36114474D02*
X31992571Y-36781140D01*
X32230666Y-35733521D02*
X32468761Y-36447807D01*
X31849714Y-36447807D01*
X35997333Y-33981140D02*
X35378285Y-33981140D01*
X35711619Y-34362093D01*
X35568761Y-34362093D01*
X35473523Y-34409712D01*
X35425904Y-34457331D01*
X35378285Y-34552569D01*
X35378285Y-34790664D01*
X35425904Y-34885902D01*
X35473523Y-34933521D01*
X35568761Y-34981140D01*
X35854476Y-34981140D01*
X35949714Y-34933521D01*
X35997333Y-34885902D01*
X30178285Y-34981140D02*
X30749714Y-34981140D01*
X30464000Y-34981140D02*
X30464000Y-33981140D01*
X30559238Y-34123998D01*
X30654476Y-34219236D01*
X30749714Y-34266855D01*
M02*
